<svg width="60" height="60" viewBox="0 0 60 60" fill="none" xmlns="http://www.w3.org/2000/svg">
<rect width="60" height="60" fill="white"/>
<g clip-path="url(#clip0_168_246)">
<path d="M31.4643 46.7591C33.7806 50.6549 37.4813 50.5732 38.4664 50.5732H50.3674L36.3276 33.1375C29.8491 33.4099 26.4234 37.6599 27.1245 39.4398L31.4643 46.7591Z" fill="url(#paint0_linear_168_246)"/>
<path d="M27.1247 39.4489C27.1069 39.4216 26.743 38.5407 26.743 37.4783C26.743 33.5008 30.1953 31.2123 34.1091 30.395L36.3277 33.1466C29.8492 33.4099 26.4236 37.6599 27.1247 39.4489Z" fill="url(#paint1_linear_168_246)"/>
<path d="M32.5381 26.4993C26.6187 26.4993 22.1991 27.4982 22.1991 29.8683C22.1991 30.7401 22.4653 31.4939 23.1931 32.8288L27.1246 39.4398C27.1068 39.4126 26.7429 38.5317 26.7429 37.4692C26.7429 33.4917 30.1952 31.2033 34.1089 30.386C35.2449 30.1499 36.4164 30.0318 37.5523 30.0318C38.5108 30.0318 39.416 30.0863 40.1082 30.3406C39.7 28.8149 38.6173 26.4993 32.5381 26.4993Z" fill="url(#paint2_linear_168_246)"/>
<path d="M16.9719 22.3764C18.596 25.1098 19.1995 25.7909 23.0777 25.7909H30.4792L20.2733 12.6052C18.0192 9.7537 16.7235 9.23608 14.6557 9.19067H9.12671L16.9719 22.3764Z" fill="url(#paint3_linear_168_246)"/>
</g>
<defs>
<linearGradient id="paint0_linear_168_246" x1="38.6976" y1="32.6809" x2="38.6976" y2="59.5515" gradientUnits="userSpaceOnUse">
<stop stop-color="#ED1C24"/>
<stop offset="0.1263" stop-color="#E81B23"/>
<stop offset="0.2703" stop-color="#DB1A21"/>
<stop offset="0.4229" stop-color="#C4171D"/>
<stop offset="0.5816" stop-color="#A41317"/>
<stop offset="0.7436" stop-color="#7B0E10"/>
<stop offset="0.7546" stop-color="#780E0F"/>
</linearGradient>
<linearGradient id="paint1_linear_168_246" x1="26.7406" y1="34.917" x2="36.3243" y2="34.917" gradientUnits="userSpaceOnUse">
<stop stop-color="#69231D"/>
<stop offset="0.2647" stop-color="#8D2922"/>
<stop offset="0.5812" stop-color="#B22F26"/>
<stop offset="0.8377" stop-color="#C93329"/>
<stop offset="1" stop-color="#D1342A"/>
</linearGradient>
<linearGradient id="paint2_linear_168_246" x1="25.6876" y1="33.4838" x2="36.4956" y2="27.1373" gradientUnits="userSpaceOnUse">
<stop offset="0.1" stop-color="#E7EBEE"/>
<stop offset="0.3511" stop-color="#D5DCE0"/>
<stop offset="0.8549" stop-color="#A5B4BB"/>
<stop offset="1" stop-color="#96A7B0"/>
</linearGradient>
<linearGradient id="paint3_linear_168_246" x1="19.8008" y1="27.9545" x2="19.8008" y2="9.39055" gradientUnits="userSpaceOnUse">
<stop stop-color="#1C2F72"/>
<stop offset="0.1275" stop-color="#174687"/>
<stop offset="0.4038" stop-color="#0D72AF"/>
<stop offset="0.6512" stop-color="#0692CC"/>
<stop offset="0.8584" stop-color="#02A6DE"/>
<stop offset="1" stop-color="#00ADE4"/>
</linearGradient>
<clipPath id="clip0_168_246">
<rect width="42" height="42" fill="white" transform="translate(9 9)"/>
</clipPath>
</defs>
</svg>
