<svg width="60" height="60" viewBox="0 0 60 60" fill="none" xmlns="http://www.w3.org/2000/svg">
<rect width="60" height="60" fill="black"/>
<g clip-path="url(#clip0_168_444)">
<path d="M17.5848 42.5417H14.1438V35.1081C14.1438 23.5239 22.775 13.523 27.0791 9.96045H33.4317C37.7473 13.523 46.367 23.5239 46.367 35.1081V43.7234H42.9145V34.7122C42.5693 30.6723 41.0387 23.8033 37.1604 18.3896V43.9214L33.7079 47.2744V14.5941C33.167 14.1284 32.5916 13.6977 31.9816 13.3018V48.9043L30.3475 50.7089L28.5292 48.9043V13.3135C27.9192 13.7209 27.3438 14.175 26.8029 14.664V46.8902L23.3504 43.5488V18.6573C19.4606 24.4203 17.9415 31.8365 17.5963 35.8765V42.5592L17.5848 42.5417Z" fill="white"/>
</g>
<defs>
<clipPath id="clip0_168_444">
<rect width="33" height="42" fill="white" transform="translate(14 9)"/>
</clipPath>
</defs>
</svg>
