<svg width="60" height="60" viewBox="0 0 60 60" fill="none" xmlns="http://www.w3.org/2000/svg">
<rect width="60" height="60" fill="black"/>
<g clip-path="url(#clip0_150_979)">
<path fill-rule="evenodd" clip-rule="evenodd" d="M28.7561 26.2502H27.2445V28.0474H24.0246V26.2636H22.504V30.7231H24.0246V28.9393H27.2445V30.7231H28.7651V26.2636L28.7561 26.2502ZM10.8764 26.2636L8.19312 30.7231H9.95515L10.4918 29.8312H13.6044L14.1411 30.7231H15.8584L13.2198 26.2636H10.8764ZM11.8961 27.2982L10.939 28.9393H13.1662L12.1823 27.2982H11.8961ZM17.5399 26.2636H16.243V30.7231H21.6096V29.8312H17.7635V28.9393H21.6096V28.0474H17.7635V27.1555H21.6096V26.2636H17.5399ZM31.18 26.2636H29.6595V30.7231H31.18V29.5279H33.7292C34.2658 29.5279 34.4089 29.849 34.4 30.0185V30.7142H35.9205V29.9025C35.9116 29.189 35.4196 28.975 35.1334 28.9393C35.4135 28.7939 35.6371 28.5597 35.769 28.2736C35.9009 27.9875 35.9335 27.6658 35.8617 27.3592C35.79 27.0525 35.6179 26.7784 35.3727 26.5801C35.1275 26.3817 34.823 26.2704 34.5073 26.2636H31.18ZM31.18 27.1555V28.5647H33.6487C33.7488 28.5759 33.8501 28.5659 33.946 28.5354C34.042 28.5049 34.1304 28.4545 34.2054 28.3876C34.2805 28.3207 34.3406 28.2387 34.3817 28.147C34.4228 28.0554 34.4441 27.9561 34.4441 27.8556C34.4441 27.7552 34.4228 27.6559 34.3817 27.5643C34.3406 27.4726 34.2805 27.3906 34.2054 27.3237C34.1304 27.2568 34.042 27.2064 33.946 27.1759C33.8501 27.1454 33.7488 27.1354 33.6487 27.1466H31.18V27.1555Z" fill="white"/>
<path d="M10.4203 32.4934H8.19312V32.9706H9.01599V34.2906H9.61526V32.9706H10.4381V32.5068L10.4203 32.4934ZM17.4058 32.5068H15.1697V32.9706H15.9926V34.2906H16.5918V32.9706H17.4147V32.5068H17.4058ZM25.9029 32.5068H28.139V32.9706H27.325V34.2906H26.7258V32.9706H25.9029V32.5068ZM12.6563 32.5068H10.6081V34.2906H12.6563V33.8714H11.1716V33.6038H12.5937V33.1935H11.1716V32.926H12.6653V32.5068H12.6563ZM28.7382 32.5068H30.3661V32.926H28.8813V33.1935H30.3124V33.6038H28.8813V33.8714H30.3661V34.2906H28.3179V32.5068H28.7382ZM14.3826 32.5068C14.9819 32.5157 15.0713 32.8903 15.0355 33.0776H14.4989C14.4989 32.9527 14.3826 32.9081 14.32 32.8992H13.5865C13.5239 32.8992 13.4077 32.9171 13.4077 33.033C13.4077 33.1311 13.4971 33.1579 13.5418 33.1579L14.5257 33.2025C14.9729 33.2025 15.0892 33.5414 15.0981 33.7019C15.1429 34.1746 14.7583 34.2906 14.5615 34.2906H13.4345C12.871 34.2906 12.8084 33.8981 12.8531 33.7019H13.3898C13.3808 33.8357 13.4882 33.8803 13.5418 33.8892H14.3826C14.4363 33.8892 14.5615 33.8714 14.5615 33.7465C14.5615 33.6484 14.4363 33.6127 14.3826 33.6127L13.3093 33.5592C12.9247 33.5235 12.8442 33.1935 12.8531 33.0241C12.871 32.6138 13.193 32.5068 13.354 32.5068H14.3826ZM20.8941 33.0776C20.9298 32.8992 20.8404 32.5157 20.2411 32.5068H19.2125C19.0605 32.5068 18.7295 32.6138 18.7116 33.033C18.7027 33.1935 18.7832 33.5235 19.1589 33.5681L20.2322 33.6127C20.2948 33.6127 20.4111 33.6484 20.4111 33.7465C20.429 33.8714 20.2948 33.8892 20.2322 33.8892H19.4004C19.3561 33.8848 19.3151 33.864 19.2853 33.8311C19.2555 33.7981 19.2391 33.7552 19.2394 33.7108H18.7027C18.6669 33.8981 18.7295 34.2906 19.293 34.2906H20.42C20.6168 34.2906 21.0014 34.1746 20.9567 33.7019C20.9567 33.5414 20.8315 33.2025 20.3842 33.2025L19.4004 33.1579C19.3556 33.1579 19.2662 33.1311 19.2662 33.033C19.2662 32.9171 19.3825 32.9081 19.4451 32.8992H20.1696C20.2411 32.9081 20.3663 32.9527 20.3574 33.0776H20.8941ZM25.1158 32.5068C25.7151 32.5157 25.7956 32.8903 25.7687 33.0776H25.2321C25.2321 32.9527 25.1068 32.9081 25.0532 32.8992H24.3108C24.2392 32.8992 24.1319 32.9171 24.1319 33.033C24.1319 33.1311 24.2214 33.1579 24.2661 33.1579L25.25 33.2025C25.6972 33.2025 25.8134 33.5414 25.8134 33.7019C25.8582 34.1746 25.4825 34.2906 25.2768 34.2906H24.1498C23.5863 34.2906 23.5237 33.8981 23.5774 33.7019H24.1051C24.1051 33.8357 24.2124 33.8803 24.2661 33.8892H25.1068C25.1516 33.8892 25.2857 33.8714 25.2857 33.7465C25.2768 33.6484 25.1605 33.6127 25.1068 33.6127L24.0335 33.5592C23.64 33.5235 23.5684 33.1935 23.5774 33.0241C23.5953 32.6138 23.9172 32.5068 24.0782 32.5068H25.1068H25.1158ZM35.9921 33.0776C36.0279 32.8992 35.9384 32.5157 35.3392 32.5068H34.3106C34.1496 32.5068 33.8276 32.6138 33.8097 33.033C33.8007 33.1935 33.8723 33.5235 34.2569 33.5681L35.3302 33.6127C35.3928 33.6127 35.5091 33.6484 35.5091 33.7465C35.518 33.8714 35.3928 33.8892 35.3302 33.8892H34.4984C34.4541 33.8848 34.4131 33.864 34.3833 33.8311C34.3535 33.7981 34.3372 33.7552 34.3374 33.7108H33.8007C33.765 33.8981 33.8186 34.2906 34.3911 34.2906H35.518C35.7148 34.2906 36.0905 34.1746 36.0547 33.7019C36.0547 33.5414 35.9295 33.2025 35.4823 33.2025L34.4984 33.1579C34.4537 33.1579 34.3642 33.1311 34.3642 33.033C34.3642 32.9171 34.4805 32.9081 34.5431 32.8992H35.2676C35.3302 32.9081 35.4554 32.9527 35.4465 33.0776H35.9921ZM21.6543 32.5068H20.912L21.9674 33.6573V34.2906H22.5488V33.6573L23.5863 32.5068H22.826L22.2536 33.2203L21.6543 32.5068ZM30.5182 34.2906V32.5068H31.5378L32.0924 33.6662L32.6469 32.5068H33.6576V34.2906H33.1031V32.9527H33.0226L32.316 34.2906H31.8688L31.1532 32.9527H31.0638V34.2906H30.5271H30.5182Z" fill="white"/>
<path d="M36.806 26.2502H51.1259V27.1555H36.815V26.2636L36.806 26.2502ZM36.815 29.8312H51.1259V30.7231H36.815V29.8312ZM51.1259 28.0474H36.815V28.9393H51.1259V28.0474ZM36.815 31.615H51.1259V32.5069H36.815V31.615ZM51.1259 33.3988H36.815V34.2906H51.1259V33.3988Z" fill="#FD591B"/>
</g>
<defs>
<clipPath id="clip0_150_979">
<rect width="44" height="9" fill="white" transform="translate(8 26)"/>
</clipPath>
</defs>
</svg>
