<svg width="60" height="60" viewBox="0 0 60 60" fill="none" xmlns="http://www.w3.org/2000/svg">
<rect width="60" height="60" fill="#FFCF00"/>
<path d="M35.0199 18.9144L34.7203 25.0396L44.4832 30.3507L35.0199 18.9144Z" fill="black"/>
<mask id="mask0_168_207" style="mask-type:luminance" maskUnits="userSpaceOnUse" x="9" y="17" width="42" height="27">
<path d="M9.27332 17.5447H50.334V43.7011H9.27332V17.5447Z" fill="white"/>
</mask>
<g mask="url(#mask0_168_207)">
<path d="M41.8585 43.3974L42.5152 42.1869L44.5549 42.084L44.0525 41.3093L41.9977 41.1761L41.4348 38.3405L42.2276 37.0361L49.0126 37.0271L49.5331 37.3842L49.8811 36.1827L48.2197 34.842L48.2135 33.9039L15.9475 17.5439L17.6876 24.6981L29.218 30.1878L9.81018 29.4494L34.1383 37.5902H37.1313L35.2762 39.4998L40.8536 41.5547L41.8585 43.3974Z" fill="black"/>
</g>
</svg>
