<svg width="60" height="60" viewBox="0 0 60 60" fill="none" xmlns="http://www.w3.org/2000/svg">
<rect width="60" height="60" fill="#0380B7"/>
<g clip-path="url(#clip0_1772_9211)">
<path d="M23.0313 29.1858L22.5133 28.8618L21.9953 28.5788L21.83 28.4954L21.6493 28.62L21.0742 29.0048L20.536 29.348L19.9985 29.6911L19.4422 29.9748L18.9235 30.2769L18.4055 30.5196L17.8868 30.7629L17.3688 30.9646L16.8696 31.1669L16.3711 31.329L15.8907 31.4705L15.3915 31.5915L14.9306 31.6925L14.4509 31.7527L13.9906 31.8135L13.5297 31.8335L13.0883 31.854L12.6469 31.8137L12.2243 31.7936L11.7829 31.7122L11.3603 31.6316L10.9572 31.5106L10.554 31.3889L10.1328 31.2269L9.74846 31.0662L9.36482 30.8434L9 30.641L9.34534 30.9644L9.70949 31.2877L10.0931 31.5501L10.4969 31.8133L10.8806 32.0355L11.2837 32.2583L11.7063 32.4204L12.1282 32.5816L12.5508 32.7026L12.9923 32.8038L13.4337 32.8646L13.8946 32.9248H14.3555H14.8352L15.2954 32.8844L15.7946 32.8448L16.2743 32.7429L16.793 32.622L17.2915 32.4804L17.8102 32.3191L18.3477 32.1168L18.8859 31.9144L19.4227 31.652L19.9797 31.3888L20.536 31.086L21.1118 30.7626L21.6876 30.3983L22.2835 30.0346L22.8587 29.6094L23.2611 29.3321L23.0313 29.1858Z" fill="white"/>
<path d="M23.55 27.4882L24.1069 27.8313L24.6438 28.1957L24.7271 28.2508L25.3351 27.7506L25.9687 27.3063L26.6023 26.8811L27.2352 26.4977L27.8687 26.1538L28.5218 25.8305L29.1742 25.5475L29.8272 25.3048L30.4796 25.082L31.132 24.9009L31.8045 24.7388L32.4764 24.6179L33.1281 24.5373L33.8 24.4757H34.4914H35.1827L35.8546 24.5168L36.5459 24.5969L37.2366 24.7186L37.9468 24.86L38.6375 25.022L39.3476 25.2449L40.0585 25.4868L40.7686 25.7698L41.4788 26.0726L42.189 26.4172L42.9186 26.7801L43.6483 27.2053L44.3766 27.6298L45.1257 28.1151L45.8554 28.6196L46.6038 29.1658L45.8171 28.4986L45.0498 27.8718L44.2818 27.3065L43.5139 26.7603L42.7459 26.2552L41.9968 25.7896L41.2484 25.3453L40.5194 24.9612L39.7897 24.577L39.0601 24.2537L38.3304 23.97L37.6203 23.7287L36.8913 23.5066L36.1999 23.3445L35.5086 23.2032L34.8179 23.1019L34.1265 23.0213L33.4358 23H32.7633L32.0921 23.0411L31.4397 23.1217L30.7867 23.2435L30.1336 23.3843L29.4812 23.5873L28.8476 23.8087L28.2147 24.0726L27.5805 24.3549L26.9671 24.698L26.3335 25.0822L25.7382 25.4869L25.143 25.9319L24.5484 26.4172L23.9531 26.9019L23.3578 27.3667L23.3457 27.3767L23.55 27.4882Z" fill="white"/>
<path d="M49.8289 31.3888L50.4046 30.803L50.9999 30.1967L50.4046 30.7018L49.8289 31.207L49.464 31.49L49.1187 31.773L48.4273 32.2986L48.082 32.5413L47.7367 32.7833L47.3913 33.0061L47.0453 33.2283L46.7 33.4306L46.3539 33.6323L45.6827 34.0171L45.3367 34.1996L45.0109 34.3603L44.3383 34.6836L44.0125 34.8045L43.6671 34.9467L43.0148 35.1688L42.3429 35.3712L42.0157 35.4518L41.6898 35.5332L41.3438 35.5934L41.018 35.6542L40.3844 35.7552L40.039 35.7757L39.7313 35.8154H39.4055L39.0789 35.8359L38.7524 35.8154H38.4265L38.1 35.7757L37.793 35.7552L37.1601 35.6542L36.8329 35.5934L36.5258 35.5332L36.2188 35.4518L35.8929 35.3712L35.5852 35.2699L35.2788 35.1688L34.6641 34.9262L34.3376 34.8044L34.05 34.6631L33.4164 34.3603L33.1094 34.1792L32.8211 34.0171L32.2071 33.6323L31.9 33.4306L31.6118 33.2283L30.9977 32.7635L30.6906 32.5208L30.4024 32.2781L29.8078 31.7532L29.5008 31.4702L29.2125 31.207L28.5984 30.6007L27.9837 30.0347L27.3696 29.4885L26.7938 29.0046L26.1985 28.539L25.6227 28.094L25.0469 27.7099L24.4906 27.3462L23.9336 27.0031L23.3961 26.6996L22.8587 26.4173L22.3212 26.1937L21.8025 25.9723L21.3039 25.8103L20.8047 25.6687L20.3055 25.5674L19.807 25.4859L19.3461 25.4456L18.8664 25.4256L18.4055 25.4456L17.9446 25.5064L17.5032 25.5878L17.0618 25.7088L16.6392 25.8708L16.2172 26.0328L15.8141 26.2748L15.3915 26.5175L15.0079 26.7998L14.6047 27.1238L14.2399 27.4676L13.8563 27.8518L13.5103 28.2565L13.8751 27.9721L14.2594 27.7301L14.6618 27.5079L15.0656 27.326L15.4681 27.1436L15.8907 27.0232L16.3126 26.9015L16.7352 26.8407L17.1766 26.78L17.5993 26.7599H18.0602L18.5204 26.7994L18.9625 26.861L19.4422 26.9615L19.9031 27.0625L20.4016 27.2246L20.8813 27.3866L21.3805 27.6088L21.8797 27.8309L22.3977 28.0934L22.9164 28.3771L23.4351 28.7004L23.9531 29.0435L24.5094 29.4284L25.0469 29.8317L25.6039 30.2569L26.1602 30.721L26.7172 31.2064L27.293 31.7115L27.8688 32.2577L28.4641 32.8442L29.0593 33.4505L29.6156 33.996L29.9039 34.2585L30.1914 34.5216L30.7672 34.9865L31.343 35.4308L31.6313 35.6338L31.9188 35.8354L32.2265 36.0165L32.5329 36.1786L33.1282 36.5019L33.7235 36.7856L34.0312 36.9065L34.3376 37.0283L34.6258 37.1287L34.9523 37.2298L35.5664 37.3918L35.8734 37.4526L36.1805 37.4929L36.5063 37.5332L36.8141 37.5743L37.1406 37.5944L37.4664 37.6144H38.1L38.4265 37.5944L38.7524 37.5743L39.0601 37.5332L39.3867 37.4929L40.0579 37.3507L40.3844 37.2701L40.7109 37.1895L41.0374 37.0882L41.3828 36.9871L42.0546 36.7445L42.7258 36.4417L43.0719 36.2995L43.4172 36.119L43.7632 35.9563L44.1079 35.7752L44.7992 35.3508L45.5094 34.9058L45.8554 34.6624L46.2008 34.4197L46.9304 33.8955L47.6399 33.3288L48.3501 32.7231L49.0797 32.0758L49.8289 31.3888Z" fill="white"/>
</g>
<defs>
<clipPath id="clip0_1772_9211">
<rect width="42" height="15" fill="white" transform="translate(9 23)"/>
</clipPath>
</defs>
</svg>
