<svg xmlns="http://www.w3.org/2000/svg" viewBox="0 0 100 100">
  <path fill="#B9C8EA" d="M24.053 58.025v-37.99a135.701 135.701 0 0 0 6.331 25.133c-5.678 3.703-6.331 9.84-6.331 12.874v-.017Z"/>
  <path fill="#939598" d="m44.864 31.852 32.1 18.166a134.707 134.707 0 0 0-25.292-7.02c-1.005-6.384-4.938-10.07-6.808-11.129v-.017Z"/>
  <path fill="#77787B" d="M56.134 61.728 24.053 80a129.635 129.635 0 0 0 18.889-17.99c6.155 2.31 11.305.776 13.192-.282Z"/>
  <path fill="#3B7CCA" d="M44.811 31.817 24 20c1.273 8.6 3.412 17.05 6.384 25.22 6.244-3.703 16.79-3.05 21.288-2.257a14.288 14.288 0 0 0-6.878-11.146h.017Z"/>
  <path fill="#C7C8CA" d="m56.434 61.552 20.529-11.534a134.464 134.464 0 0 0-25.291-7.09c.176 7.178-5.82 15.696-8.765 19.136 5.555 2.68 11.252.793 13.527-.512Z"/>
  <path fill="#231F20" d="M24.053 56.755V80a128.868 128.868 0 0 0 18.889-17.954C36.54 58.589 31.954 49.347 30.42 45.132a14.498 14.498 0 0 0-6.367 11.64v-.017Z"/>
</svg>