<svg width="60" height="60" viewBox="0 0 60 60" fill="none" xmlns="http://www.w3.org/2000/svg">
<rect width="60" height="60" fill="#233776"/>
<g clip-path="url(#clip0_168_318)">
<path d="M9.1123 19.1041C17.8764 19.0926 26.6405 19.1021 35.4042 19.0993C40.3688 19.0993 45.333 19.0988 50.2976 19.0993C50.2976 26.6195 50.2976 34.1397 50.2976 41.6599C36.5693 41.6589 22.8415 41.6618 9.11371 41.6585C9.11418 34.1402 9.11606 26.6219 9.1123 19.1041ZM10.8323 20.8392C10.8323 27.1963 10.8323 33.5534 10.8323 39.9105C23.4119 39.911 35.991 39.911 48.5705 39.9105C48.571 33.5534 48.571 27.1963 48.5705 20.8397C35.9915 20.8387 23.4119 20.8392 10.8323 20.8392Z" fill="white"/>
<path d="M37.9901 23.8612C39.1595 23.697 40.3782 23.8183 41.4719 24.2809C42.5206 24.7221 43.3757 25.5163 44.1264 26.3611C43.6792 26.8065 43.2197 27.2391 42.771 27.6831C42.2453 26.9745 41.5842 26.3468 40.7794 25.9794C39.9394 25.5858 38.9767 25.5178 38.0732 25.6886C36.4589 25.9827 35.0776 27.2562 34.581 28.831C34.3301 29.651 34.2935 30.5338 34.4434 31.3766C34.5989 32.2156 35.0024 33.0047 35.5925 33.6143C36.2282 34.2772 37.0246 34.8074 37.9182 35.0272C38.715 35.2214 39.5771 35.1786 40.3354 34.8526C40.9589 34.5851 41.5081 34.1502 41.9333 33.6176C42.3167 33.1327 42.5554 32.5354 42.6192 31.9177C41.5805 31.9115 40.5412 31.9201 39.5024 31.9134C39.5043 31.3114 39.5024 30.7094 39.5034 30.1074C41.23 30.1064 42.9561 30.1078 44.6827 30.1069C44.6888 31.0097 44.6498 31.9234 44.4206 32.8005C44.2011 33.6819 43.7163 34.479 43.1022 35.1353C42.5422 35.734 41.8614 36.2227 41.1036 36.5287C40.1776 36.908 39.158 37.0098 38.1686 36.9213C37.1552 36.8314 36.1662 36.4754 35.328 35.891C34.0153 34.9739 32.9916 33.5905 32.627 32.0057C32.3658 30.8674 32.3851 29.6615 32.69 28.534C33.1053 27.0102 34.1342 25.7 35.4239 24.8306C36.1906 24.3133 37.0781 23.9863 37.9901 23.8612Z" fill="white"/>
<path d="M13.5962 36.7105C15.5366 32.4859 17.4755 28.2609 19.4201 24.0387C19.6635 24.0406 19.9069 24.0401 20.1502 24.0387C22.0258 28.2614 23.8957 32.4864 25.7684 36.7105C25.0717 36.7062 24.3744 36.7196 23.6777 36.7039C23.2539 35.6788 22.809 34.6627 22.3772 33.6409C20.5971 33.6409 18.8174 33.6414 17.0377 33.6409C16.5744 34.6613 16.1083 35.6802 15.6521 36.7034C14.9671 36.7196 14.2817 36.7062 13.5962 36.7105ZM19.7485 27.5675C19.1133 28.9919 18.4626 30.4086 17.8298 31.8335C18.9597 31.8311 20.0892 31.8335 21.2191 31.8325C21.3474 31.8301 21.4766 31.8416 21.6039 31.8221C20.9903 30.4267 20.3978 29.0209 19.788 27.6236C19.7781 27.6098 19.7584 27.5818 19.7485 27.5675Z" fill="white"/>
<path d="M27.7217 36.7091C27.7245 32.4859 27.7203 28.2623 27.724 24.0392C28.3541 24.0406 28.9841 24.0387 29.6141 24.0401C29.6137 28.2637 29.6137 32.4869 29.6141 36.71C28.9832 36.71 28.3527 36.7119 27.7217 36.7091Z" fill="white"/>
</g>
<defs>
<clipPath id="clip0_168_318">
<rect width="42" height="23" fill="white" transform="translate(9 19)"/>
</clipPath>
</defs>
</svg>
