<svg width="60" height="60" viewBox="0 0 60 60" fill="none" xmlns="http://www.w3.org/2000/svg">
<rect width="60" height="60" fill="#0076C0"/>
<path d="M29.9837 14.035C18.3906 14.035 8.95337 21.0889 8.95337 29.7641C8.95337 38.4333 18.3876 46.0406 29.9837 46.0406C41.5799 46.0406 51.0111 38.4333 51.0111 29.7641C51.0141 21.0889 41.5799 14.035 29.9837 14.035ZM29.9868 44.9667C19.9483 44.9667 11.7803 37.8709 11.7803 29.7821C11.7803 21.6902 19.9483 15.109 29.9868 15.109C40.0283 15.109 48.1932 21.6902 48.1932 29.7821C48.1932 37.8709 40.0283 44.9667 29.9868 44.9667Z" fill="white"/>
<path d="M25.9727 36.5338L26.334 36.8957C26.334 36.8987 27.0627 37.2966 27.0627 37.2966L27.752 37.6675L27.8401 37.7154L28.3472 37.9936L29.2034 38.4543C29.2551 38.4692 29.3583 38.4692 29.3583 38.4692L30.4575 38.4004C31.0891 38.3885 31.8239 38.4004 32.3188 38.6218C32.8623 38.897 32.6771 39.3936 32.6771 39.3936C32.6771 39.3936 33.2389 38.9987 33.1326 38.5291C33.0779 38.1312 32.5921 37.6077 30.9889 37.515C30.4848 37.485 29.7257 37.5538 29.7257 37.5538H29.6559C29.6559 37.5419 28.9362 37.0872 28.9362 37.0872L28.6356 36.9167C28.5931 36.8987 27.6397 36.4021 27.6397 36.4021C27.6397 36.4021 27.0354 36.1688 27.0324 36.1658C27.0324 36.1479 26.4919 35.403 26.4919 35.403L26.2945 35.1278L25.7176 34.3081L25.4717 33.9521C25.4565 33.9312 25.1407 33.4496 25.1407 33.4496C25.168 33.4556 25.4686 33.0009 25.4352 32.5162C25.3927 32.5821 25.3623 32.597 25.1376 32.7885C24.9099 32.9709 24.2358 33.2701 23.7834 33.3868L23.58 33.4406L25.1893 35.5227L25.9727 36.5338ZM28.6144 35.3551L28.7237 35.4927C28.7692 35.5316 29.4494 35.7979 29.4494 35.7979C29.9049 35.9803 30.5273 36.2615 30.8158 36.435L31.584 36.8808C31.6447 36.9047 32.4372 36.8479 32.9565 36.8897C33.6093 36.9406 34.1164 37.1829 34.3806 37.5598C34.7358 38.0564 34.3046 38.5889 34.3046 38.5889C34.3988 38.541 35.1366 38.0803 35.085 37.3444C35.0364 36.6385 34.417 35.9774 32.1184 36.0043C32.1184 35.9983 31.4868 35.6363 31.4868 35.6363L31.3016 35.5286L30.2814 35.0141C30.2814 35.0141 29.4524 34.7359 29.4494 34.7359C29.4494 34.706 29.2551 34.3769 29.2551 34.3769C28.9848 33.8983 28.6113 33.4256 28.2895 33.0068L28.1893 32.8872C28.1893 32.8872 27.6245 32.1184 27.5577 32.0227C27.7368 31.6427 27.585 31.0953 27.585 31.0953C27.585 31.0953 27.4909 31.2778 27.333 31.4722C27.1751 31.6697 26.7591 31.9957 26.4676 32.1513L26.3127 32.25L28.3988 35.056L28.6144 35.3551ZM29.5557 30.3325C29.6832 29.8808 29.4403 29.438 29.4403 29.438L29.3158 29.7252C29.2125 29.9735 28.9362 30.2577 28.5081 30.5299L28.3806 30.5987L30.0658 32.9739C30.0658 32.9769 30.166 33.1295 30.166 33.1295L30.4878 33.5573C30.5304 33.5991 31.1923 33.9671 31.1923 33.9671L31.4413 34.1047L32.2004 34.5504L32.8957 35.0081L32.9474 35.0231L33.9858 35.0889C34.6113 35.1397 34.9757 35.3701 35.164 35.5017C35.8198 35.9684 35.4676 36.6654 35.4676 36.6654C35.4676 36.6654 36.3451 35.8487 35.7682 34.9662C35.5526 34.6611 35.2551 34.3679 34.3806 34.2692L33.3087 34.1226C33.3087 34.1137 32.7318 33.7308 32.7318 33.7308L31.9787 33.2701L31.7844 33.1564L31.165 32.8902L29.5557 30.3325ZM22.5476 16.2397C22.6022 16.2936 22.7783 16.4671 22.7783 16.4701L23.6285 17.2359C23.6285 17.2419 24.1144 17.6876 24.1144 17.6876C24.4727 18.0256 24.5577 18.1991 24.5455 18.2679C24.5304 18.3338 24.4636 18.3637 24.3998 18.3996C24.336 18.4355 24.2358 18.4594 24.2358 18.4594L24.1963 18.7765L24.3968 18.7675C25.5172 18.7406 26.5708 19.4885 27.254 20.1226C28.4383 21.2355 29.334 23.0393 29.5314 24.7235L30.4575 29.4679L30.8067 30.1979L30.8735 30.3474L31.0253 30.6585C31.1559 30.9667 31.3593 31.2419 31.3775 31.2598C31.3988 31.2808 31.8573 31.6397 31.8573 31.6397L32.5253 32.3128L32.7227 32.5222L33.0415 32.8363C33.0658 32.8543 34.0101 32.9739 34.0101 32.9739C35.6528 33.2432 35.58 34.1406 35.58 34.1406C35.58 34.1406 36.5577 32.6628 34.2257 32.1453C34.2257 32.1453 33.4909 32.0077 33.4757 32.0077V32.0047C33.4757 31.9868 33.2146 31.6368 33.2146 31.6368C33.1842 31.6038 33.1265 31.541 33.1265 31.541C33.1113 31.5231 32.416 30.847 32.416 30.847L32.0972 30.5479C32.0972 30.5419 31.8057 29.7791 31.8057 29.7791L31.3927 28.7949C31.2864 28.4927 31.2196 28.0081 31.1255 27.341C31.1194 27.3141 31.0526 26.8594 31.0526 26.8594L30.7459 24.8701C30.749 24.8372 30.8158 24.4812 30.8158 24.4812C30.9494 23.7363 31.2318 22.9107 31.6599 22.0252C32.1731 20.9632 33.2297 20.2632 33.2449 20.2573C34.0344 19.7756 35.1913 19.5094 35.8138 19.3927C36.0506 19.3688 36.1265 19.2312 36.169 19.0936L36.1963 19.0128L36.1174 19.0009C35.7743 18.938 35.3765 18.8244 35.3461 18.7615C35.3401 18.7496 35.334 18.7226 35.334 18.7017C35.334 18.6419 35.3795 18.5462 35.4615 18.4235C35.4646 18.4235 35.9686 17.9449 35.9686 17.9449L36.2631 17.6577C36.2631 17.6577 37.4959 16.4821 37.6599 16.3265L36.5152 15.9466C36.3634 16.0991 35.249 17.2389 35.249 17.2389C34.4109 18.1244 33.4666 19.1265 33.0324 19.303C31.9696 19.7308 30.8795 20.7538 30.4484 21.735C30.4484 21.738 30.2601 22.2197 30.1569 22.4829C29.835 21.5675 29.4312 20.8107 28.8816 20.1496C28.2804 19.4406 27.5455 18.9081 26.6316 18.5432C26.1366 18.0795 24.5061 16.6107 23.6225 15.8957L22.5476 16.2397ZM26.8988 40.1863C25.4018 40.9372 24.5729 40.285 24.9372 39.4953C25.4261 39.8184 26.1822 40.0547 26.8988 40.1863ZM24.33 39.0645C23.3097 39.3397 22.9332 38.6338 23.1731 38.0594C23.3674 38.2808 24.087 38.9179 24.33 39.0645ZM15.1599 21.0829C15.2389 21.1368 15.4393 21.2803 15.4393 21.2803C15.4666 21.2983 16.7328 22.3333 16.921 22.4889C16.8907 22.5697 16.3684 23.9906 16.3684 23.9906C15.8917 25.1752 15.4119 26.3688 15.3846 27.3111L15.3937 27.4637C15.3968 27.4846 15.8067 29.5966 15.8067 29.5966L15.837 29.7521C16.0678 30.862 16.3289 32.1244 16.4383 33.0308C16.4625 33.288 16.5263 33.4436 16.6265 33.5034C17.252 34.1436 18.2723 35.4449 19.5051 37.9278C19.5415 37.9936 19.5597 38.0325 19.5779 38.0594C19.6963 38.4004 19.8451 38.6308 20.0212 38.7415C20.2459 38.8791 20.6741 38.888 20.9534 38.7415C21.585 38.3346 22.0314 37.7632 22.3077 37.0722C22.4049 37.1859 22.666 37.5239 22.7085 37.5718C21.6457 39.3846 23.5253 40.0547 24.1903 39.7974C23.8046 40.8953 25.2287 41.7778 26.5678 41.1915C26.7409 41.9034 27.3148 42.1128 27.8613 42.2145C28.4049 42.3222 29.1427 42.3791 30.3512 42.2714C32.167 42.1248 33.8158 41.5774 34.4777 41.2393C35.8775 40.5363 36.6397 39.6419 37.0891 39.0137C37.0951 38.9987 37.1771 38.903 37.2318 38.8282C37.3806 39.0885 37.5354 39.3308 37.7115 39.5162C38.1579 39.947 38.5769 40.1385 38.92 40.0786C39.1629 40.0338 39.3542 39.8872 39.4818 39.612C40.1042 38.1372 41.4615 36.3184 42.5243 35.1009C42.5243 35.0979 42.6245 34.9064 42.6245 34.9064C42.8583 34.0419 43.6842 31.9 44.1245 30.7423L44.4372 29.9107C44.4372 29.9047 44.498 29.7103 44.498 29.7103C44.5192 29.3782 44.5314 29.0462 44.5314 28.7201C44.5314 27.2303 44.3127 25.8064 43.8968 24.6038C43.6933 23.9936 43.4868 23.6256 43.2925 23.2667L43.0678 22.8628C43.3714 22.4201 44.252 21.8338 44.9595 21.3641C44.9595 21.3641 44.999 21.3402 45.0142 21.3342L44.1457 20.3979C44.0911 20.4338 43.5385 20.8107 43.5385 20.8107C42.9069 21.2355 42.2692 21.406 41.8714 21.2504C41.8138 21.2295 41.2885 20.9363 41.2885 20.9363C41.2581 20.9154 41.164 20.8735 41.164 20.8735C41.1457 20.8705 40.9848 20.8496 40.9848 20.8496C40.9636 20.8496 40.7905 20.8885 40.7905 20.8885L40.6751 20.9154L40.8542 21.1188C41.2247 21.5526 41.416 21.9235 41.6832 22.4291C41.6893 22.441 41.8441 22.7252 41.8441 22.7252L41.9959 23.0752L42.0263 23.147L42.2267 23.6556L42.2631 23.7632L42.3725 24.0564L42.7915 25.5043C43.1468 26.9791 43.3259 28.1936 43.335 29.2316C43.335 29.2466 43.3198 29.3513 43.3198 29.3513C43.3168 29.3573 42.8279 30.7154 42.8279 30.7154C42.3208 32.1274 41.6862 33.8833 41.5435 34.6073L41.5131 34.694C40.1559 36.088 39.1933 37.7333 38.7834 38.7145C38.7196 38.8432 38.6741 38.8611 38.6559 38.8641C38.5921 38.8761 38.4342 38.7325 38.3492 38.6547C38.0091 38.3526 37.8057 37.7244 37.83 37.0573C37.8633 36.2436 38.2186 35.5167 38.8138 35.059C38.9109 34.9872 38.8745 34.8526 38.8532 34.7748C38.6893 33.8474 38.9534 32.4265 39.5364 32.0227L39.6852 31.915L39.5395 31.8043C37.8755 30.5329 37.0617 28.1846 36.9919 26.4316L36.9828 26.2013L36.7247 26.309C36.6943 26.3329 36.5972 26.4825 36.5972 26.4825C36.5304 26.8235 36.503 27.1705 36.503 27.5056C36.503 28.406 36.6791 29.1927 36.752 29.4739C36.9828 30.4432 37.4686 31.3376 38.1822 32.1453L38.2125 32.1812C37.9028 32.5641 37.7662 33.4974 37.7662 34.2154C37.7662 34.4368 37.7783 34.6252 37.8057 34.7808C37.0283 35.4419 36.8127 36.2825 36.7702 36.8778C36.7702 36.8778 36.7945 37.512 36.7945 37.5179C36.7854 37.503 36.415 37.9906 36.415 37.9906L36.3421 38.0953C35.6042 39.0974 35.085 39.7974 33.8492 40.4227C32.501 41.1107 29.8957 41.5863 28.2014 41.4218C27.5789 41.353 27.6457 40.8026 27.6457 40.7756C27.6457 40.7009 27.6731 40.6201 27.7308 40.5483C27.7308 40.5483 27.8553 40.4167 27.8917 40.3778C29.4949 40.5573 31.0223 40.3658 31.6569 40.0338C31.6842 40.0098 31.8785 39.7227 31.8785 39.7227L31.9544 39.588L31.7996 39.6239C30.4362 39.962 27.7308 39.5192 26.2976 38.9209C24.7065 38.2509 24.2206 37.6167 22.918 35.9235L22.5536 35.4538C22.5415 34.9812 22.4109 34.4996 22.1802 34.0927C21.9615 33.7128 21.6731 33.4705 21.588 33.4047C21.6852 33.1205 21.7429 32.7256 21.7429 32.3068C21.7429 31.7385 21.6366 31.1641 21.4362 30.844C22.4049 30.0991 22.8937 29.3333 22.8816 28.4538C22.8725 28.038 22.6417 27.4038 22.6417 27.4038L22.2712 27.2333L22.2955 27.4756C22.4443 28.9624 21.0385 29.9256 20.1063 30.5688C20.1063 30.5718 19.833 30.7543 19.833 30.7543L20.0121 30.865C20.7409 31.3137 20.753 32.8244 20.586 33.6739L20.5769 33.7218L20.6164 33.7906L20.6589 33.8115C20.6528 33.8085 21.0081 34.0897 21.0081 34.0897C21.7429 35.062 21.6822 36.5667 20.8745 37.4551C20.7105 37.6226 20.6225 37.6436 20.5769 37.6406C20.4555 37.6167 20.3613 37.3385 20.334 37.2457C20.3279 37.2338 20.1063 36.7791 20.1063 36.7791C19.4717 35.4748 18.9372 34.3799 17.7014 32.9261C17.7014 32.9231 17.671 32.8094 17.671 32.8094C17.4312 30.9038 17.1306 29.4919 16.836 28.1308L16.6751 27.3919C16.6751 27.3889 16.6569 27.2004 16.6569 27.2004C16.7449 25.7526 17.2004 24.6158 17.7318 23.2996L18.0536 22.4769L18.3208 21.8487C18.3239 21.8487 18.3694 21.756 18.3694 21.756C18.6822 21.3162 19.1042 20.8974 19.6144 20.5115L19.8421 20.344L19.5445 20.2214C19.5445 20.2214 18.9676 20.2842 18.3876 20.5654L18.2844 20.6132C17.8593 20.8077 17.3735 20.9603 17.0061 20.8197C17.0061 20.8197 16.0314 20.2483 15.9828 20.2214L15.1599 21.0829Z" fill="white"/>
</svg>
