<svg width="60" height="60" viewBox="0 0 60 60" fill="none" xmlns="http://www.w3.org/2000/svg">
<rect width="60" height="60" fill="#EB0017"/>
<g clip-path="url(#clip0_168_611)">
<path d="M41.423 29.9772C41.423 30.0924 41.4204 30.2077 41.4204 30.3223V37.671H38.6196V25.1126C38.6535 25.1126 38.6873 25.1088 38.7212 25.1088C39.4673 25.1088 40.2179 25.1088 40.966 25.1088C41.0291 25.1036 41.0903 25.1319 41.1274 25.1828C43.0962 27.6096 45.0656 30.0351 47.0369 32.4607C47.0565 32.4845 47.0773 32.507 47.117 32.5514V25.1152H49.9178V37.6781H49.8228C49.1522 37.6781 48.481 37.6781 47.8097 37.6781C47.7511 37.6826 47.6938 37.6562 47.66 37.6085C46.1743 35.7793 44.688 33.9506 43.2017 32.1226C42.6177 31.404 42.0324 30.6855 41.4451 29.9682L41.4237 29.9489L41.423 29.9772Z" fill="black"/>
<path d="M30.556 37.9937C29.0306 37.9499 27.4459 37.3221 26.1601 36.0266C24.8633 34.7182 24.2129 33.1317 24.2396 31.2927C24.2656 29.5104 24.9316 27.9818 26.1972 26.7243C27.3372 25.5924 28.7207 24.9491 30.3294 24.83C32.4062 24.6774 34.1946 25.34 35.6478 26.8209C36.8978 28.0926 37.5156 29.6424 37.513 31.4151C37.5071 35.0215 34.5748 37.9763 30.556 37.9937ZM34.6979 31.6971C34.6979 30.3417 34.3216 29.4493 33.5872 28.7133C32.8535 27.9773 31.9388 27.6013 30.8906 27.5929C29.8431 27.5852 28.9277 27.9574 28.1862 28.6946C27.3177 29.5574 26.9349 30.6134 27.0677 31.8278C27.153 32.6681 27.5312 33.4523 28.1367 34.0453C28.9935 34.8985 30.0325 35.2932 31.2467 35.1837C33.069 35.0189 34.7272 33.4562 34.6979 31.6971Z" fill="black"/>
<path d="M25.2792 37.6781H25.1646C24.2154 37.6781 23.2668 37.6781 22.3183 37.6781C22.2571 37.6871 22.1978 37.6504 22.1803 37.5912C21.4342 35.805 20.6855 34.0195 19.9355 32.2353C19.7434 31.7801 19.5461 31.3255 19.3528 30.869C19.1737 30.4472 18.9967 30.0261 18.8202 29.6044C18.4543 28.7242 18.0878 27.8434 17.7226 26.9625C17.7102 26.9348 17.6946 26.9084 17.6711 26.8647C16.8717 28.7757 16.0787 30.6649 15.2792 32.5695H15.4068C16.4023 32.5695 17.3971 32.5695 18.3899 32.5695C18.4556 32.5598 18.5175 32.6004 18.5351 32.6641C18.884 33.4613 19.2356 34.2571 19.5891 35.053C19.6028 35.0839 19.6145 35.1161 19.6334 35.1631H19.4993C17.7721 35.1631 16.0435 35.1624 14.3137 35.1605C14.2122 35.1605 14.1757 35.1972 14.1412 35.279C13.8202 36.0504 13.496 36.8198 13.175 37.5899C13.1516 37.6459 13.1314 37.68 13.0592 37.68C12.0826 37.6768 11.1054 37.6768 10.1288 37.68C10.1184 37.68 10.108 37.68 10.0852 37.6762C10.093 37.6465 10.1034 37.6176 10.1145 37.5886C11.1171 35.2951 12.1197 33.0015 13.123 30.708C14.2284 28.1795 15.3333 25.649 16.4374 23.1172C16.4732 23.0355 16.5129 23.0058 16.6054 23.0065C17.3215 23.011 18.039 23.011 18.7571 23.0065C18.8508 23.0065 18.8886 23.0387 18.9244 23.1192C19.9329 25.4326 20.9433 27.7461 21.955 30.0583C23.0474 32.5585 24.1405 35.0601 25.233 37.5622C25.2454 37.5963 25.2597 37.6311 25.2792 37.6781Z" fill="black"/>
<path d="M41.4231 29.9772L41.4257 29.9489L41.4472 29.9682L41.4231 29.9772Z" fill="#F8BEC4"/>
</g>
<defs>
<clipPath id="clip0_168_611">
<rect width="40" height="15" fill="white" transform="translate(10 23)"/>
</clipPath>
</defs>
</svg>
