<svg width="60" height="60" viewBox="0 0 60 60" fill="none" xmlns="http://www.w3.org/2000/svg">
<rect width="60" height="60" fill="#0D4DA1"/>
<g clip-path="url(#clip0_150_642)">
<path d="M51.9926 26.0073H8.00914V34.9911H51.9926V26.0073Z" fill="#0D4DA1" fill-opacity="0.956863"/>
<path d="M11.1565 31.027H12.6728L11.9355 28.9076H11.9188L11.1565 31.027ZM11.2813 27.4843H12.5977L14.7824 33.2589H13.4489L13.0081 31.9737H10.8208L10.364 33.2589H9.06358" fill="white"/>
<path d="M15.5278 29.0779H16.6257V29.6441H16.642C16.9439 29.2152 17.3851 28.9645 17.9338 28.9645C18.4657 28.9645 18.9403 29.1582 19.17 29.6599C19.4138 29.2963 19.8576 28.9645 20.4479 28.9645C21.3463 28.9645 21.9922 29.3777 21.9922 30.4607V33.2592H20.8307V30.8903C20.8307 30.3319 20.7836 29.8707 20.1181 29.8707C19.4643 29.8707 19.342 30.404 19.342 30.9304V33.2592H18.1805V30.9139C18.1805 30.4291 18.2135 29.8707 17.4766 29.8707C17.2465 29.8707 16.6888 30.0163 16.6888 30.8336V33.2592H15.5277" fill="white"/>
<path d="M26.3802 31.1812C26.3802 30.5174 26.111 29.8299 25.3657 29.8299C24.6034 29.8299 24.3588 30.5016 24.3588 31.1812C24.3588 31.8607 24.6201 32.5073 25.3737 32.5073C26.1331 32.5073 26.3802 31.8607 26.3802 31.1812ZM23.2369 29.0779H24.3429V29.6115H24.3588C24.6364 29.1665 25.0965 28.9642 25.6179 28.9642C26.9455 28.9642 27.5417 30.0243 27.5417 31.2131C27.5417 32.3294 26.9205 33.3723 25.6843 33.3723C25.177 33.3723 24.6948 33.1542 24.4151 32.7418H24.3984V34.7307H23.2369" fill="white"/>
<path d="M28.5649 27.4846H29.726V29.6599H29.7511C30.0479 29.1915 30.5551 28.9645 30.9873 28.9645C32.2235 28.9645 32.5337 29.6527 32.5337 30.6873V33.2592H31.373V30.8985C31.373 30.2107 31.1673 29.8707 30.6274 29.8707C29.9982 29.8707 29.726 30.2186 29.726 31.0681V33.2592H28.5649" fill="white"/>
<path d="M36.5947 30.7199C36.4895 30.1379 36.2347 29.8302 35.6691 29.8302C34.9314 29.8302 34.7206 30.3965 34.7039 30.7199H36.5947ZM34.7039 31.4483C34.7376 32.1759 35.0947 32.5076 35.7435 32.5076C36.209 32.5076 36.5867 32.2246 36.6614 31.9657H37.6839C37.357 32.9523 36.6614 33.3726 35.7021 33.3726C34.369 33.3726 33.5403 32.4671 33.5403 31.1732C33.5403 29.9188 34.4162 28.9645 35.7021 28.9645C37.1437 28.9645 37.8396 30.1619 37.7594 31.4483" fill="white"/>
<path d="M38.7734 29.0779H39.8771V29.6599H39.9018C40.1954 29.1912 40.7026 28.9645 41.1961 28.9645C42.4298 28.9645 42.7429 29.6527 42.7429 30.6873V33.2592H41.5789V30.8982C41.5789 30.2107 41.3739 29.8707 40.8361 29.8707C40.2037 29.8707 39.9348 30.2186 39.9348 31.0678V33.2592H38.7734" fill="white"/>
<path d="M46.0087 32.5076C46.8015 32.5076 47.0399 31.8359 47.0399 31.1732C47.0399 30.5019 46.8015 29.8302 46.0087 29.8302C45.2221 29.8302 44.9855 30.5019 44.9855 31.1732C44.9855 31.8359 45.2221 32.5076 46.0087 32.5076ZM46.0087 28.9645C47.3418 28.9645 48.2014 29.8381 48.2014 31.1732C48.2014 32.4997 47.3418 33.3726 46.0087 33.3726C44.6807 33.3726 43.8218 32.4997 43.8218 31.1732C43.8218 29.8381 44.6807 28.9645 46.0087 28.9645Z" fill="white"/>
<path d="M49.313 33.2592H50.477V27.4846H49.313" fill="white"/>
</g>
<defs>
<clipPath id="clip0_150_642">
<rect width="44" height="9" fill="white" transform="translate(8 26)"/>
</clipPath>
</defs>
</svg>
