<svg width="60" height="60" viewBox="0 0 60 60" fill="none" xmlns="http://www.w3.org/2000/svg">
<rect width="60" height="60" fill="#008FBE"/>
<g clip-path="url(#clip0_1772_9231)">
<path fill-rule="evenodd" clip-rule="evenodd" d="M30.484 10.0311L30.9963 10.0388L31.5086 10.0776L32.0131 10.1139L32.5254 10.1786L33.0196 10.2355L33.5138 10.3105L34.0054 10.4036L34.4918 10.5046L34.9834 10.608L35.4594 10.7297L35.9252 10.859L36.8566 11.1566L37.3223 11.3247L37.7699 11.5007L38.2175 11.6973L38.6548 11.8939L39.0946 12.0983L39.5138 12.3027L39.9407 12.5356L40.3598 12.7685L40.7712 13.0194L41.1723 13.2704L41.5629 13.5317L41.9536 13.8112L42.3366 14.0906L42.7169 14.3804L43.0817 14.6883L43.4439 14.9858L43.788 15.3196L44.1425 15.6456L44.4685 15.9716L44.7945 16.3183L45.1127 16.6701L45.4284 17.035L45.7259 17.3972L46.0261 17.7698L46.5849 18.5537L47.105 19.3532L47.3482 19.7723L47.5811 20.1915L47.8036 20.621L48.0183 21.0479L48.4297 21.9431L48.616 22.4088L48.7738 22.8642L48.9497 23.3299L49.0998 23.806L49.2395 24.3002L49.3689 24.7736L49.4905 25.2678L49.594 25.7723L49.6768 26.2846L49.7622 26.7866L49.8346 27.3092L49.8915 27.8293L49.9381 28.3519L49.9666 28.8927L49.9847 29.4231L49.995 29.9638L49.9847 30.4942L49.9666 31.035L49.9381 31.5731L49.8915 32.0854L49.8346 32.608L49.7622 33.1307L49.6768 33.643L49.594 34.1449L49.4905 34.6572L49.3689 35.141L49.2395 35.6352L49.0998 36.1113L48.9497 36.5848L48.7738 37.0686L48.616 37.5265L48.4297 37.9923L48.0183 38.8849L47.8036 39.3144L47.5811 39.7516L47.3482 40.1811L47.105 40.6003L46.5849 41.3998L46.3055 41.793L46.0261 42.1734L45.7259 42.5641L45.4284 42.9366L45.1127 43.2911L44.7945 43.6559L44.4685 43.9897L44.1425 44.3338L43.788 44.6598L43.4439 44.978L43.0817 45.2937L42.7169 45.6016L42.3366 45.8991L41.9536 46.1786L41.1723 46.7193L40.7712 46.9703L40.3598 47.2212L39.9407 47.4645L39.5138 47.687L39.0946 47.9121L38.6548 48.1165L38.2175 48.3131L37.7699 48.5071L37.3223 48.6857L36.8566 48.8513L35.9252 49.1514L35.4594 49.2808L34.9834 49.4024L34.4918 49.524L34.0054 49.6249L33.0196 49.793L32.5254 49.85L32.0131 49.9043L31.5086 49.9509L30.9963 49.9793L30.484 49.9974H29.4413L28.929 49.9793L28.4245 49.9509L27.9122 49.9043L27.4103 49.85L26.9161 49.793L26.4219 49.6999L25.92 49.6068L25.4439 49.5033L24.9601 49.4024L24.484 49.2808L24.0002 49.1307L23.5448 49.0013L23.0791 48.8331L22.6212 48.6753L21.7259 48.3027L21.2887 48.1061L20.8514 47.8939L20.4323 47.6688L20.0028 47.436L19.5836 47.1954L19.1748 46.9625L18.7816 46.6908L18.3831 46.4218L18.0002 46.1423L17.6276 45.8525L17.2447 45.555L16.8825 45.2575L16.5177 44.9496L16.1735 44.6236L15.8398 44.2872L15.5034 43.9431L15.1671 43.6093L14.8411 43.2445L14.5435 42.872L14.2538 42.4994L13.9562 42.1268L13.669 41.7465L13.3896 41.3454L13.1283 40.934L12.8851 40.5356L12.6341 40.1165L12.1684 39.2575L11.9717 38.8202L11.5629 37.9276L11.3844 37.4696L11.2085 37.0039L10.8902 36.0544L10.7609 35.5783L10.6315 35.0867L10.5177 34.5925L10.4168 34.0983L10.3133 33.5964L10.2382 33.0919L10.1658 32.5718L10.1089 32.0492L10.0623 31.5265L10.0338 30.9884L10.0054 30.4657V29.3765L10.0338 28.8538L10.0623 28.3234L10.1089 27.8008L10.1658 27.2808L10.2382 26.7762L10.3133 26.2639L10.4168 25.762L10.5177 25.2497L10.6315 24.7659L10.7609 24.282L10.8902 23.806L11.0506 23.3299L11.2085 22.8642L11.3844 22.4088L11.5629 21.9431L11.9717 21.0479L12.1684 20.621L12.4012 20.2018L12.6341 19.7723L12.8851 19.3713L13.1283 18.9522L13.3896 18.5537L13.669 18.1604L13.9562 17.7698L14.2538 17.3972L14.5435 17.0427L14.8411 16.6701L15.1671 16.326L15.5034 15.9923L15.8398 15.6456L16.1735 15.3196L16.5177 15.0039L16.8825 14.6883L17.2447 14.3881L17.6276 14.0906L18.0002 13.8112L18.3831 13.5421L18.7816 13.2704L19.1748 13.0194L19.5836 12.7685L20.0028 12.546L20.4323 12.3027L20.8514 12.0983L21.2887 11.8939L21.7259 11.6973L22.1735 11.5007L22.6212 11.3428L23.0791 11.1566L23.5448 11.0091L24.0002 10.859L24.484 10.7297L24.9601 10.608L25.4439 10.5046L25.92 10.4036L26.4219 10.3105L26.9161 10.2355L27.4103 10.1786L27.9122 10.1139L28.4245 10.0776L28.929 10.0388L29.4413 10.0311L29.964 10.0104L30.484 10.0311ZM31.4413 16.3648L30.6703 16.3855L29.9329 16.4218L29.2162 16.4864L28.5358 16.5899L27.8657 16.7115L27.2395 16.8694L26.6341 17.0557L26.039 17.2601L25.4801 17.5033L25.2188 17.6326L24.9497 17.762L24.6962 17.9121L24.4556 18.0621L24.2046 18.2096L23.9717 18.3778L23.7389 18.5537L23.299 18.9185L23.0843 19.1048L22.8799 19.2989L22.6936 19.5058L22.5073 19.718L22.3133 19.9431L22.127 20.2122L21.92 20.4735L21.7441 20.7633L21.5759 21.0427L21.418 21.3403L21.268 21.6378L21.1386 21.9353L21.0067 22.2536L20.8876 22.5589L20.7842 22.8771L20.7014 23.1928L20.616 23.5188L20.5513 23.8448L20.4944 24.1708L20.4582 24.5149L20.4116 24.8409V24.9729L20.44 25.1954L20.4944 25.4101L20.5513 25.6068L20.6444 25.793L20.7479 25.9871L20.8592 26.1656L20.9886 26.3312L21.1386 26.4813L21.3146 26.6106L21.4724 26.7322L21.6613 26.8357L21.8475 26.9289L22.0519 26.9832L22.2563 27.0298L22.4607 27.0582L22.6651 27.0764H23.0584L23.2628 27.0505L23.4491 27.0039L23.6354 26.9289L23.8113 26.8538L23.9898 26.7504L24.1477 26.6313L24.2874 26.5097L24.4375 26.3597L24.5565 26.2018L24.6703 26.0337L24.7531 25.8577L24.8281 25.6792L24.8825 25.4851L24.929 25.2704L25.0325 24.8409L25.1541 24.4218L25.2835 24.013L25.4517 23.6042L25.5448 23.4075L25.6483 23.2212L25.7596 23.0453L25.8812 22.859L26.0105 22.6805L26.1503 22.5123L26.3003 22.3545L26.4582 22.1863L26.6341 22.0388L26.8204 21.8888L27.0274 21.7594L27.2395 21.6378L27.4646 21.5162L27.7078 21.4049L27.9666 21.2937L28.246 21.2083L28.5254 21.1152L28.8437 21.0427L29.1593 20.9858L29.4957 20.9392L29.8579 20.8927L30.2408 20.8642L30.6419 20.8461L31.0506 20.8357L31.4983 20.8461L31.9278 20.8642L32.3288 20.8927L32.7195 20.9392L33.092 20.9858L33.4362 21.0608L33.7725 21.1359L34.0804 21.2187L34.3676 21.3299L34.6393 21.4412L34.9083 21.5809L35.1309 21.7128L35.356 21.8603L35.5604 22.0388L35.7285 22.2251L35.9045 22.4114L36.008 22.533L36.1115 22.6624L36.2874 22.9315L36.4271 23.2316L36.4918 23.3791L36.5487 23.5291L36.5953 23.6973L36.6315 23.8629L36.6781 24.1708L36.6884 24.5149V24.6753L36.6781 24.8409L36.66 24.991L36.6496 25.141L36.6315 25.2885L36.5953 25.4567L36.5306 25.6068L36.4633 25.7646L36.3702 25.9121L36.2408 26.0621L36.0908 26.2122L35.9252 26.3597L35.7182 26.4994L35.4853 26.6313L35.2059 26.7504L34.8902 26.8538L34.5461 26.9573L34.1451 27.0582L33.0274 27.273L31.9096 27.4489L30.7893 27.6093L29.6535 27.7284L28.9446 27.8215L28.1735 27.9431L27.4362 28.0647L26.7479 28.2044L26.0959 28.3726L25.4801 28.5408L24.9032 28.7452L24.3624 28.9496L23.8579 29.1721L23.3922 29.3972L22.9368 29.6585L22.5358 29.9095L22.1528 30.1786L21.8087 30.458L21.4827 30.7374L21.193 31.0272L20.9135 31.3247L20.6729 31.6223L20.4582 31.9302L20.2538 32.2458L20.0752 32.546L19.9174 32.8616L19.788 33.1695L19.6664 33.4851L19.5629 33.7827L19.4801 34.0906L19.4051 34.3881L19.3482 34.6779L19.3016 34.9754L19.2757 35.2368L19.2473 35.5265L19.2292 36.0285L19.2473 36.4761L19.2939 36.8952L19.3767 37.3144L19.4801 37.7154L19.6095 38.1139L19.7699 38.4864L19.964 38.859L20.1606 39.2057L20.3935 39.5498L20.6548 39.8758L20.9135 40.1837L21.2136 40.4994L21.5112 40.7788L21.8372 41.0479L22.1813 41.3196L22.5358 41.5524L22.898 41.793L23.2628 42.0181L23.6354 42.2329L24.0261 42.4192L24.4168 42.5951L24.8281 42.7633L25.2369 42.9108L25.6483 43.0427L26.0494 43.1643L26.4582 43.2652L26.8669 43.3584L27.268 43.4515L27.6794 43.5084L28.0701 43.555L28.4607 43.5835L28.8437 43.6093H30.1373L30.7065 43.5835L31.2654 43.5265L31.8346 43.4334L32.3935 43.3118L32.942 43.1824L33.4827 43.0039L34.0131 42.8099L34.1451 42.7452L34.6574 42.5382L35.1697 42.2872L35.6457 42.0181L36.1296 41.7206L36.5772 41.3946L37.0222 41.0298L37.4517 40.6676L37.8424 40.2769L38.2356 39.8474L38.5798 39.4101L38.9135 38.9522L39.2214 38.4683L39.5112 37.9845L39.7725 37.4722L40.0054 36.9496L40.2098 36.4192L40.3314 36.0569L40.4142 35.6559L40.4996 35.2264L40.572 34.7529L40.6289 34.2406L40.6858 33.7102L40.7221 33.141L40.7505 32.5537L40.779 31.3532V28.8383L40.7505 27.5705V24.9159L40.7324 24.5434L40.7039 24.1708L40.6574 23.8163L40.6186 23.4541L40.5642 23.1281L40.4892 22.8021L40.4142 22.4864L40.3314 22.1863L40.2382 21.8888L40.1347 21.6093L40.0338 21.3403L39.92 21.0893L39.801 20.8357L39.669 20.5951L39.5397 20.3623L39.4077 20.1475L39.268 19.925L38.9704 19.5421L38.6729 19.1798L38.3469 18.8538L38.0287 18.5537L37.713 18.2846L37.387 18.0518L37.0688 17.837L36.7531 17.6611L36.4168 17.5033L36.083 17.3351L35.7466 17.2031L35.4025 17.0557L35.0481 16.9341L34.7039 16.8306L34.3495 16.7193L34.0054 16.6365L33.6406 16.5615L33.2783 16.4968L32.9135 16.4399L32.1891 16.3855L31.8061 16.3648H31.4413Z" fill="white"/>
<path fill-rule="evenodd" clip-rule="evenodd" d="M36.4655 32.4218L36.4474 32.9237L36.4086 33.3894L36.3361 33.8474L36.243 34.2846L36.1291 34.6857L35.9817 35.066L35.8238 35.4308L35.6375 35.7646L35.4306 36.0828L35.2262 36.3804L34.9933 36.6702L34.7501 36.9289L34.481 37.1721L34.2197 37.3946L33.9506 37.6016L33.6712 37.7956L33.3814 37.9742L33.0942 38.1398L32.7863 38.2898L32.4965 38.4192L32.1886 38.5227L31.9014 38.6339L31.6117 38.7374L31.3141 38.8125L31.0425 38.8849L30.763 38.9315L30.2507 39.0169L29.785 39.0634L29.384 39.0815L28.8898 39.0634L28.3775 39.0169L27.8756 38.9315L27.3917 38.8125L26.9157 38.6624L26.45 38.4942L26.2274 38.3933L26.0127 38.2898L25.7876 38.1682L25.5936 38.0466L25.3969 37.9172L25.2106 37.7775L25.0347 37.6482L24.8743 37.4981L24.7165 37.3299L24.569 37.1721L24.4293 37.0039L24.3077 36.8461L24.1964 36.6702L24.1033 36.4735L24.0179 36.2769L23.9428 36.0828L23.8885 35.8784L23.8419 35.6637L23.8316 35.4593L23.8135 35.2342V35.0117L23.8419 34.7866L23.8704 34.5641L23.917 34.3597L23.9713 34.163L24.0463 33.969L24.1395 33.7905L24.2326 33.6223L24.3542 33.4645L24.4836 33.2963L24.6155 33.1488L24.7734 33.0169L24.9312 32.8771L25.1278 32.7478L25.3141 32.6262L25.5185 32.5046L25.7514 32.3855L25.9842 32.2821L26.2274 32.1786L26.4862 32.0854L27.0554 31.8991L27.6789 31.7335L28.3698 31.5731L29.1046 31.4257L29.9066 31.2678L30.763 31.1359L31.798 30.9677L32.9907 30.7633L34.2119 30.5408L35.3012 30.3157L35.6091 30.2614L35.8963 30.1682L36.186 30.0647L36.4655 29.9431V32.4218Z" fill="white"/>
</g>
<defs>
<clipPath id="clip0_1772_9231">
<rect width="40" height="40" fill="white" transform="translate(10 10)"/>
</clipPath>
</defs>
</svg>
