<svg width="60" height="60" viewBox="0 0 60 60" fill="none" xmlns="http://www.w3.org/2000/svg">
<rect width="60" height="60" fill="black"/>
<path d="M30.67 16.9359L35.9519 31.937H25.3881L30.67 16.9359ZM27.3688 10.533L15.2644 43.755H21.2066L23.5541 37.0594H37.7492L40.0967 43.755H46.0022L33.9712 10.533H27.3688Z" fill="white"/>
<mask id="mask0_150_638" style="mask-type:luminance" maskUnits="userSpaceOnUse" x="12" y="45" width="37" height="5">
<path d="M12.9942 45.813C12.7777 45.813 12.6045 46.597 12.6045 47.577C12.6045 48.557 12.7777 49.341 12.9942 49.341H48.1247C48.3412 49.341 48.5145 48.557 48.5145 47.577C48.5145 46.597 48.3412 45.813 48.1247 45.813H12.9942Z" fill="white"/>
</mask>
<g mask="url(#mask0_150_638)">
<path d="M46.7365 45.813H14.3825C13.4005 45.813 12.6045 46.609 12.6045 47.591C12.6045 48.573 13.4005 49.369 14.3825 49.369H46.7365C47.7184 49.369 48.5145 48.573 48.5145 47.591C48.5145 46.609 47.7184 45.813 46.7365 45.813Z" fill="url(#paint0_linear_150_638)"/>
</g>
<defs>
<linearGradient id="paint0_linear_150_638" x1="12.6011" y1="47.598" x2="48.5146" y2="47.598" gradientUnits="userSpaceOnUse">
<stop stop-color="#796CB1"/>
<stop offset="0.13" stop-color="#796CB1"/>
<stop offset="0.2306" stop-color="#7277B8"/>
<stop offset="0.4071" stop-color="#6194CC"/>
<stop offset="0.6373" stop-color="#45C3EB"/>
<stop offset="0.65" stop-color="#43C6ED"/>
<stop offset="0.8739" stop-color="#96D396"/>
<stop offset="1" stop-color="#C0DA6A"/>
</linearGradient>
</defs>
</svg>
