<svg width="60" height="60" viewBox="0 0 60 60" fill="none" xmlns="http://www.w3.org/2000/svg">
<g clip-path="url(#clip0_1772_9228)">
<rect width="60" height="60" fill="white"/>
<rect width="60" height="60" fill="black"/>
<g clip-path="url(#clip1_1772_9228)">
<path d="M30.3951 50.11C31.9515 50.11 33.4441 49.4897 34.5446 48.3854C35.6451 47.2812 36.2634 45.7835 36.2634 44.2219C36.2634 42.6602 35.6451 41.1626 34.5446 40.0583C33.4441 38.9541 31.9515 38.3337 30.3951 38.3337C28.8388 38.3337 27.3461 38.9541 26.2456 40.0583C25.1451 41.1626 24.5269 42.6602 24.5269 44.2219C24.5269 45.7835 25.1451 47.2812 26.2456 48.3854C27.3461 49.4897 28.8388 50.11 30.3951 50.11Z" fill="#91C453"/>
<path d="M42.085 10.0236C41.3066 10.0252 40.5363 10.1823 39.819 10.4855C39.1017 10.7888 38.4517 11.2322 37.9068 11.79L25.9356 23.8489C24.9579 24.6891 23.7321 25.1835 22.4469 25.2558C21.1617 25.3282 19.8884 24.9745 18.8232 24.2493L22.2034 27.6409C22.4498 27.8882 25.3487 30.8322 26.405 31.8568C27.5142 32.9231 28.9959 33.5106 30.532 33.493C32.068 33.4754 33.536 32.8541 34.6206 31.7625L46.228 20.1158C47.0533 19.2992 47.6192 18.2557 47.8541 17.1169C48.0891 15.978 47.9827 14.7948 47.5484 13.7166C47.114 12.6383 46.3711 11.7133 45.4134 11.0582C44.4558 10.403 43.3262 10.0471 42.1672 10.0353L42.085 10.0236Z" fill="#91C554"/>
<path d="M18.7759 24.2257C19.8343 24.9339 21.0934 25.2777 22.3635 25.2055C23.6336 25.1333 24.8459 24.6489 25.8178 23.8253L30.3364 19.3033L22.8602 11.8018C21.821 10.7091 20.3976 10.0668 18.8933 10.0118C18.1167 10.0024 17.3461 10.1478 16.626 10.4395C15.9058 10.7313 15.2506 11.1635 14.6982 11.7112C14.1458 12.2589 13.7072 12.9112 13.4079 13.6302C13.1086 14.3492 12.9545 15.1207 12.9546 15.8999C12.9539 16.6796 13.1093 17.4514 13.4118 18.1696C13.7142 18.8877 14.1574 19.5376 14.7151 20.0805L18.7759 24.2257Z" fill="url(#paint0_linear_1772_9228)"/>
</g>
</g>
<defs>
<linearGradient id="paint0_linear_1772_9228" x1="-77.8531" y1="17.1305" x2="-76.6257" y2="17.1305" gradientUnits="userSpaceOnUse">
<stop stop-color="#91C453"/>
<stop offset="0.18" stop-color="#7CB850"/>
<stop offset="0.55" stop-color="#479947"/>
<stop offset="1" stop-color="#006F3C"/>
</linearGradient>
<clipPath id="clip0_1772_9228">
<rect width="60" height="60" fill="white"/>
</clipPath>
<clipPath id="clip1_1772_9228">
<rect width="36" height="41" fill="white" transform="translate(12 10)"/>
</clipPath>
</defs>
</svg>
