<svg width="60" height="60" viewBox="0 0 60 60" fill="none" xmlns="http://www.w3.org/2000/svg">
<rect width="60" height="60" fill="#0A0A23"/>
<path d="M50.408 29.8956C50.408 19.0326 41.393 10.193 30.3102 10.193C19.2274 10.193 10.2123 19.0307 10.2123 29.8956C10.2123 40.7604 19.2274 49.5981 30.3102 49.5981C41.393 49.5981 50.408 40.7604 50.408 29.8956ZM28.6014 11.3898L13.47 38.4126C12.077 35.7813 11.3508 32.86 11.3527 29.8956C11.3527 20.2129 18.9469 12.2393 28.6014 11.3898ZM29.7381 29.5666L15.0732 37.8682L29.7381 11.6821V29.5666ZM29.7381 48.4627C26.6059 48.3694 23.546 47.5163 20.8326 45.9797C18.119 44.4432 15.8364 42.2711 14.1889 39.658L29.7381 30.8605V48.4627ZM34.8111 20.245C34.8064 21.8621 34.4537 23.4601 33.776 24.9345C33.0984 26.4089 32.111 27.7265 30.8785 28.8014V11.6867C32.1198 12.7549 33.113 14.0715 33.7914 15.5478C34.4698 17.0241 34.8175 18.6258 34.8111 20.245ZM46.424 20.1231L33.7109 27.3168C35.1624 25.2324 35.9417 22.7687 35.9479 20.245C35.9541 18.6045 35.6295 16.979 34.9925 15.4621C34.3554 13.9452 33.4186 12.5668 32.2358 11.4063C35.1226 11.6995 37.9022 12.6378 40.3612 14.1489C42.8202 15.66 44.893 17.7038 46.4202 20.1231H46.424ZM46.997 38.6994L31.4441 29.8956L46.997 21.0889C48.4855 23.7945 49.2648 26.8202 49.2648 29.8942C49.2648 32.9681 48.4855 35.9939 46.997 38.6994ZM46.423 39.6653C44.775 42.2764 42.4927 44.4466 39.7801 45.9817C37.0675 47.5169 34.0092 48.3693 30.8785 48.4627V30.8624L46.423 39.6653Z" fill="white"/>
</svg>
