<svg width="60" height="60" viewBox="0 0 60 60" fill="none" xmlns="http://www.w3.org/2000/svg">
<rect width="60" height="60" fill="#D71712"/>
<g clip-path="url(#clip0_1772_9230)">
<path d="M37.5186 22.2629C38.5816 22.2629 39.5992 21.7552 40.2414 20.9054C40.6864 20.3141 40.922 19.6126 40.922 18.8737C40.922 18.1354 40.6864 17.4323 40.2414 16.8411C39.5992 15.9918 38.5816 15.4841 37.5186 15.4841C35.6414 15.4841 34.1143 17.0043 34.1143 18.8736C34.1141 20.7423 35.6414 22.2629 37.5186 22.2629Z" fill="white"/>
<path d="M50.4771 22.4661C50.4397 22.4212 50.3643 22.4164 50.2764 22.4437C50.2595 22.4496 50.2448 22.4555 50.2281 22.4618C47.6738 23.395 42.0448 24.4114 34.4675 23.0702C25.443 21.4739 22.2037 22.2764 20.6123 22.8561C20.5979 22.861 20.5851 22.8654 20.5717 22.8713C20.4759 22.9113 20.4154 22.9733 20.42 23.0369C20.424 23.1029 20.494 23.1562 20.5961 23.1836C20.6015 23.184 20.6052 23.185 20.6102 23.1869C32.0034 25.735 24.9514 35.2203 9.39735 44.1683C9.36922 44.1814 9.34276 44.196 9.32015 44.2122C9.23137 44.2727 9.1845 44.348 9.20256 44.4115C9.22393 44.4839 9.32856 44.5215 9.46104 44.5152C9.47331 44.5142 9.48558 44.5136 9.49619 44.5123C12.2088 44.269 16.2053 42.8241 21.0038 40.6972C21.0058 40.6958 21.0063 40.6952 21.0097 40.6947C21.5697 40.4469 22.1407 40.189 22.7217 39.9222C25.1472 38.8654 27.9001 37.8759 29.647 38.4236C31.9509 39.1464 32.3941 40.8554 32.6696 44.0948C32.6714 44.1114 32.6736 44.1275 32.675 44.1452C32.6865 44.2292 32.7195 44.2903 32.7737 44.3069C32.8326 44.3249 32.9022 44.2834 32.9622 44.2077C32.9689 44.1979 32.9758 44.1886 32.9837 44.1788C34.1028 42.6456 38.2573 36.6539 38.4919 31.9236C44.0729 28.7012 48.7291 25.3952 50.4123 22.7524C50.4341 22.7246 50.4518 22.6948 50.4666 22.666C50.5082 22.5859 50.5147 22.5111 50.4771 22.4661Z" fill="white"/>
</g>
<defs>
<clipPath id="clip0_1772_9230">
<rect width="42" height="30" fill="white" transform="translate(9 15)"/>
</clipPath>
</defs>
</svg>
