<svg width="60" height="60" viewBox="0 0 60 60" fill="none" xmlns="http://www.w3.org/2000/svg">
<rect width="60" height="60" fill="black"/>
<g clip-path="url(#clip0_1534_8433)">
<path fill-rule="evenodd" clip-rule="evenodd" d="M9.8045 38.6029L12.6336 22.5649H15.2846L18.1975 38.619H16.1019L15.6618 35.9433H12.3507L11.9106 38.619H9.81498L9.8045 38.6029ZM14.0063 25.7758L12.6965 33.8028H15.316L14.0063 25.7758ZM37.5821 38.619H35.4865L38.3156 22.5649H40.9561L43.869 38.619H41.7734L41.3333 35.9433H38.0222L37.5821 38.619ZM39.6778 25.7758L38.3785 33.8028H40.998L39.6778 25.7758ZM19.2453 22.5649H22.9127C23.8853 22.5649 24.8181 22.9596 25.5059 23.6621C26.1937 24.3646 26.5801 25.3174 26.5801 26.3109V28.9866C26.5804 29.6507 26.4078 30.303 26.0801 30.8766C25.7524 31.4502 25.2812 31.9245 24.7149 32.2509L27.104 38.619H24.7673L22.546 32.7325H21.341V38.619H19.2453V22.5649ZM21.341 24.7055H22.5984C23.6462 24.7055 24.4844 25.5617 24.4844 26.632V28.6655C24.4844 29.7358 23.6462 30.592 22.5984 30.592H21.341V24.7055ZM31.2952 22.5649H27.6279V38.619H29.7235V32.7325H30.9285L33.1499 38.619H35.4865L33.0975 32.2509C33.6638 31.9245 34.1349 31.4502 34.4626 30.8766C34.7904 30.303 34.9629 29.6507 34.9626 28.9866V26.3109C34.9626 25.3174 34.5762 24.3646 33.8884 23.6621C33.2007 22.9596 32.2679 22.5649 31.2952 22.5649ZM30.9809 24.7055H29.7235V30.592H30.9809C32.0287 30.592 32.867 29.7358 32.867 28.6655V26.632C32.867 25.5617 32.0287 24.7055 30.9809 24.7055ZM42.2973 22.5649L45.4408 33.2034V38.619H47.5364V33.2034L50.6798 22.5649H48.5842L46.4886 30.0568L44.3929 22.5649H42.2973Z" fill="#F8B410"/>
</g>
<defs>
<clipPath id="clip0_1534_8433">
<rect width="42" height="17" fill="white" transform="translate(9 22)"/>
</clipPath>
</defs>
</svg>
