<svg width="60" height="60" viewBox="0 0 60 60" fill="none" xmlns="http://www.w3.org/2000/svg">
<rect width="60" height="60" fill="#559C8B"/>
<g clip-path="url(#clip0_168_181)">
<path d="M31.5646 36.7034C30.3567 36.7034 30.3197 36.4266 31.5646 36.1132L48.9488 31.4598C50.1409 31.0576 50.955 30.0052 50.9999 28.804V14.1542C50.9999 13.0078 50.2492 12.6788 49.3162 13.423L9.58403 45.6421C8.64835 46.3889 8.88623 46.9974 10.1127 46.9974H48.8034C49.3849 46.9974 49.9453 46.778 50.3576 46.3863C50.7673 45.9972 50.9999 45.4671 50.9999 44.9135V39.0118C50.9523 37.8863 49.9902 36.9906 48.8034 36.9645L31.5646 36.7034Z" fill="white"/>
</g>
<defs>
<clipPath id="clip0_168_181">
<rect width="42" height="34" fill="white" transform="translate(9 13)"/>
</clipPath>
</defs>
</svg>
