<svg xmlns="http://www.w3.org/2000/svg" viewBox="0 0 100 100">
  <path fill="#000" d="M0 0h100v100H0z"/>
  <path fill="#fff" d="m48.28 61.809.004-.144h-.72l-.015.046-.22.477c-.05.208-.137.388-.463.56l-.167-.243-.125.1c-.232.213-.372.693-.409.926-.714.09-1.213.855-1.546 1.39-.119.19-.267.431-.333.46-.43.201-.683.205-.833.206l-.19.025-.676.355-.4.16-.156.01-.022.006-.089-.121c.176-.282.436-.976.782-1.932.178-.49.377-1.046.434-1.123l.026-.037.027-.048v-.584c.02-.338 1.114-3.311 1.807-3.606l.106-.045-.024-.114a2.766 2.766 0 0 1-.059-.545c0-.134.013-.267.052-.366.14-.37.77-.702 1.002-.798l.086-.036v-1.056c.146-.18.275-.508.431-.94.225-.615.502-1.382.875-1.65l.081-.057-.027-.095c0-.005-.074-.268-.074-.566 0-.25.052-.526.245-.69l.05-.04v-3.976l-.136-.344-.08-.181v-1.248l-6.626-.026.023.16c.021.14-.104.368-.188.48l-.028.036v2.099l.256.206c.327.334.089 1.229-.03 1.546l-.015.035.06.123.027.146.02.145.125.786.049.036c.173.124.165.172.152.266-.024.16-.026.32.21.54l.124.116.095-.155c.334-.542.447-.725.447-.88v-1.751c0-.235.548-.502.724-.502h.14v-.14c0-.884.51-1.138.92-1.342l.321-.211c.056.002 2.078.022 2.322.023v1.383c-.36.342-.615.7-.834 1.017-.211.305-.394.57-.62.733a1.781 1.781 0 0 0-.162.785c0 .34.061.584.09.687-.661.625-.819.971-.85 1.119l-.532.41c-.394.601-.813 2.705-.831 2.795-.727.757-.821 1.327-.874 1.632l-.03.144c-.002-.007-.522.587-.755 1.047l-.216.802c-.038.246-.073.477-.174.55l-.05.034-.008.084-.097.765c-.068.376-.143.789-.143 1.17 0 .124.008.243.025.357.027.052.147.214.147.423 0 .107-.03.225-.12.347l-.084.111.115.086c.093.07.353.613.374.719l.007.16-.165.12-.056.042-.003.073v1.338c-.156.145-.322.316-.322.41l.112.265.165.21.078.012h1.625c.235.235.669.337.72.347.264.004.367-.144.441-.25.083-.12.149-.215.397-.215l.21-.012.03-.01.152.226.095.032h2.451l.04-.066c.12-.193.641-.4.748-.401l.145-.004-.007-.143c-.08-1.425-.107-3.01-.014-3.195l.188-.345c.047-.148.072-.223.234-.266l.153-.041-.06-.147c-.114-.27-.117-.967-.108-1.212Zm9.213 4.4c0-.224-.12-.368-.223-.496l-.165-.218-.076-.01H56.01l-.307-.331-.09.163c-.349.567-.614.672-.98.82l-.816.423-.346.125c-.293.09-.657.197-.863.421-.172.185-.202.405-.224.567-.024.179-.037.2-.08.208l-.455.048c-.253.045-.454.08-.699-.038l-.108-.052-.09.137-.092.135-.088-.069.187-.491c.062-.12.203-.473.203-.703l-.007-.044c.169-.231.676-1.136.775-1.802l.002-1.139.64-1.812.008-2.437c.073-.304.206-.437.345-.578l.294-.427.007-.774c.297-.328.425-.8.525-1.23.074-.314.15-.638.28-.73l.058-.04.066-2.144a1.034 1.034 0 0 1-.019-.196c0-.229.078-.409.171-.624l.202-.585.228-1.348c.012-.22.078-.261.178-.325l.25-.297c.033-.109.042-.24.042-.365 0-.173-.017-.306-.029-.383l.127-.12c.303-.287.404-.384.509-.77.03-.11.037-.24.037-.362 0-.186-.017-.33-.027-.398.39-.405.57-.851.696-1.183l.197-.425.019-.06v-.32l-.272.008-.01.003-.158-.236-.077-.004-5.509-.005-1.787.005h-.139l.008.139v3.916c-.207.196-.326.374-.326.52l.06.316a.906.906 0 0 1 .052.286c0 .113-.025.254-.103.456l-.035.091.425.367.13-.102c.105-.171.173-.168.285-.164.396.02.597-.19.814-1.52.217-1.324.575-1.796.674-1.809l.23-.048c.234-.063.625-.17.802.007l.162.228.099.047h1.071l.064.07.018.016.002.008c0 .028-.017.082-.15.174l-.062.042-.003.076v.707c-.608.612-1.512 2.642-1.512 2.853V53c-.043.39-.28.806-.453 1.11l-.191.406-.004.21.002.158c0 .315-.282.6-.285.602l-.036.037-.014.167.017.234.157.193.05.051-1.285 3.396a11.46 11.46 0 0 0-.218 2.132c0 .552.055 1.118.217 1.58l.118.225.09.256c.002.023.078.457.078.907 0 .222-.018.446-.073.627l-.136.333-.085.233c.042.134.074.294.074.423 0 .082-.014.15-.045.19l-.2.17-.041.128c.02.08.054.25.054.41a.6.6 0 0 1-.044.25l-.29.29-.183.129.037.098c.031.094.072.266.072.415 0 .087-.014.166-.05.21l-.185.157-.062.107v.817l-.012.121c-.01.068-.021.152-.021.243 0 .18.044.395.231.597l.041.045h.061c.297 0 .648-.15.93-.272l.34-.13.622-.014 1.109-.024a2.16 2.16 0 0 0 .858-.544c.104.01 1.094.117 1.094.117l-.014.017.07.147.043.061.077.008h3.265l.01-.274.154-.103.055-.042.004-.071V67.55l-.09-.26-.127-.441c0-.29.076-.385.13-.454l.087-.187ZM35.237 46.743c.093.133.189.152.438.157.08.159.244.248.411.297.24.07.4.128.447.304l.273 4.642.003.077.202.108c-.06.04-.214.15-.214.15l.009.066.07 9.193c-.186.232-.287.65-.287.901l.148.518.069.184.008.217-.218.178-.007.072v.167c0 .54-.015 2.24-.182 2.755l-.076.053-.53.463-.447.607.104.099.158.143.191.113c.098.125.255-.002.63-.376.342-.136 2.217-.2 2.434-.055l.056.036.083-.028.316-.1c.071.022.156.02.156.02l.55.096.002-.182-.095-.68-1.03-.66c-.35-.199-.358-.203-.46-.636l-.042-.156c-.07-.256-.103-.397.014-.541l.189-.156.057-.096.116-1.607-.045-.055c-.07-.09-.281-.7-.286-.801l-.136-.946a1.431 1.431 0 0 1-.072-.36c0-.12.044-.22.169-.346l.246-.198.008-.056v-.921l-.05-.078-.029-.358-.014-.267-.054-.728.001-.049c0-.082-.01-.206-.01-.206a2.71 2.71 0 0 1-.024-.333c0-.18.031-.362.144-.487l.255-.204-.003-.089-.105-.598-.049-.077-.054-.255a.92.92 0 0 0-.115-.353c.07-.473.096-1.18.096-1.962 0-.959-.035-2.015-.063-2.842l-.035-1.301c0-.065.022-.085.095-.141a.503.503 0 0 0 .232-.443c0-.251-.044-.36-.175-.43l-.043-.27c0-.404.551-.837 1.045-.974l.102-.029v-.505l-.121-.147-.23-.309-.106.024c-.37.138-3.516.135-4.01-.004l-.092-.025-.067.092-.278.372.102.1.225.216Zm27.155 10.73.006-.084.06-1.22v-.07l-.058-.042c-.134-.097-.164-.145-.164-.195l.006-.056.018-.135c0-.115-.063-.252-.232-.426v-.951l-.215-.171-.691-2.67c-.223-.573-.786-2.117-.786-2.579v-.642l-.124-.29c-.104-.126-.297-.358-.643-1.11l-.04-.227c-.054-.397-.154-1.138-.735-1.138l-.361.134c-.144.144-.162.364-.162.593l.002.216c0 .324-.033.44-.18.459-.06.021-.377.343-.377.343l-.175.19-.02.072v.891c-.072.095-.327.44-.327.44l-.09.177c-.232.419-.427 1.077-.464 1.209l-.04.028-.167.146a.439.439 0 0 0-.096.275c0 .084.02.163.04.233l.03.292c-.205.21-.346.504-.489.825l-.095.212c-.175.383-.208.814-.238 1.194-.033.455-.063.848-.316.997l-.07.041v.08c0 .67-.236 1.183-.239 1.188l-.163.263-.253.486-.02.56-.008.59c-.052.348.041.466.196.535l.016.004v.013c0 .118-.019.142-.154.238l-.06.04v.938l-.023.017-.16.136c-.11.128-.146.307-.146.485 0 .267.076.506.106.595-.046.122-.11.412-.208 1.272l-.009.077.093.07.131.105c0 .035-.133.107-.215.152l-.442.358c-.169.291-.199.764-.203.892-.079.088-.816.926-.816.926l.057.093.136.29.216.544.12-.067 2.195-.782c.228-.064 1.191-.032 1.782.006l.088.006.058-.12.208-.379c.07-.091.13-.168.13-.25l-.013-.062-.014-.04-.13-.077-.268-.193a1.02 1.02 0 0 0-.343-.227v-1.13a11.45 11.45 0 0 0-.162-.505h.307c.142.137.441.31.968.6.511.279 1.574.86 1.577 1.066-.062 1.877-1.352 3.28-1.366 3.294l-.036.04v.055c0 .592.375.97.679 1.272.215.215.4.401.4.597v.64l.654 2.142-.007 1.398.314-.136.096.062.26-.126.191-.173.013-.071v-.929l.205-.167.01-.072v-.731c.15-.189.242-.478.32-.773.073-.27.154-.577.27-.661l.057-.041V67.58c.287-.323.486-.919.657-1.466.113-.367.257-.824.365-.9l.041-.032.013-.05c.068-.274.096-1.47.096-2.665 0-1.149-.025-2.297-.064-2.635-.083-.215-.31-1.922-.31-2.359Zm-2.449 3.016a1.926 1.926 0 0 1-.27 0c-.465-.147-.804-.574-1.403-.7-.493-.105-.993-.053-1.295 0 0 0-.003-.117.215-.175.099-.358-.081-1.58 0-2.042.19-.198.216-1.45.216-1.45.499-.034.286-.56.649-.817l.049-1.451s.215.818.52 1.149c.254.275.588.147.888.418.363.327.204 1.47.431 1.634.076.463 0 3.434 0 3.434Zm-12.742 8.26-.135-.005c-2.169-.072-7.247-.193-7.573.245-.739.515-1.587.276-2.207.101-.306-.085-.527-.148-.69-.108l-.18.106-.436.419c-.5.075-.83.054-1.176.027 0 0-.326-.018-.483-.024-.024-.36-.11-.517-.211-.6l-.003-.001.01-.042.163-.278.022-.035.037-.079v-1.393l.208-.168.01-.072v-.931l.064-.058c.14-.123.152-.17.152-.412l-.091-.352-.112-.143.044-.144c.063-.231.092-.307.256-.334l.114-.017.004-.114c.002-.067.017-.467.017-.806 0-.195-.005-.37-.02-.451l-.01-.051-.21-.168s.006-1.377.008-1.498l.2-.165.015-.068c.016-.272.114-1.9.114-3.187 0-.736-.032-1.359-.13-1.553l-.267-.296-.148-.117V51.44l.204-.167.012-.074v-1.005l-.058-.042c-.363-.262-.377-.394-.377-.396 0-.129.017-.151.159-.252l.06-.04v-2.246l-.059-.042c-.235-.169-.761-.797-.944-1.025l-.3-.048c-.119.028-.265.064-.552-.404l-.042-.067h-1.734l-.155-.223-.08-.01h-.365l-.042.114-.095.241-.195.22.13.085c.804.58.902.851.948.98l.187.257.066-.043c.434-.016.476.08.476.085.012.023.321.603.37 1.188v.016c0 .205-.251.871-.35.995l-.082.109.316.256c.01.062.015.17.015.303 0 .366-.035.9-.057 1.166l-.131.132-.29.265-.015.073V53.6l.217.174v3.278l.06.041c.058.04.199.215.215.384l.001.032c0 .196-.166.427-.216.461l-.059.043-.001.072v2.332c-.002-.06-.156.062-.156.062l-.042.034-.017.058c-.003.021-.056.342-.056.808a6 6 0 0 0 .052.76l-.02.036-.169.134-.03.085.005 2.943.06.04c.195.14.373.284.373.53l.006.175-.164.119-.055.043-.003.07v.758c0-.062-.153.06-.153.06l-.055.04-.01.076v1.764l.067.047c.111.08.15.114.15.174 0 .07-.065.119-.134.162l-.065.04-.017.09v.927c-.075.064-.5.416-.5.416l-.246.212-.583.304-.047.027-.024.071-.096.245-.175.197.11.107.253.275.117-.036c.277-.171 1.316-.078 1.904.019l.114.019.037-.109c.091-.244.874-.802 1.347-1.097l.735.022c.08.01.497.14.584.283l.04.067h.079c1.7-.003 4.925 0 5.413.04l.009.015c.085.14.187.267.505.294H43c.192.218.337.245.474.227.065-.009.1-.012.216.174l.04.067h.779l-.023.023.064.14.04.063.082.007h3.052l-.53-.995.007-2.782ZM79.918 53.05l-.037-.067-.106-.326-.183-.451.05.11.063-2.287-.06-.043c-.113-.08-.132-.125-.222-.39l-.596-1.424-.36-.362c-.239-.202-.537-.453-.728-.76l-.04-.065h-1.003l-.156-.224-.08-.01h-.846l-.154-.223-.08-.01h-.637l-.046-.057-.212-.28-.078-.013h-.659c-.259-.27-.641-.43-.96-.552-.21-.079-.495-.188-.51-.27l-.023-.113h-.741c-.044-.059-.158-.224-.158-.224L71.277 45h-1.316l.18.228c.066.08 1.435 1.382 1.915 1.839v1.224c-.007-.06-.155.06-.155.06l-.053.042-.009.074v1.691l-.154.06-.052.041-.01.074v4.334l.037.076.069.348.13.455-.044-.11-.089 1.554.21.172a3.24 3.24 0 0 0-.043.602c0 .492.036 1.084.052 1.333l.138.336.077.18v.642c0 .144.486 1.71.97 2.25l-.395 3.925c.01.07.441 1.063.441 1.063l.25.623c.05.121.161.126.21.129l.005.044c-.013.083-.27.23-.766.432l-.24.1.05.125c.001.007.25.675.25 1.16l-.004.106a2.397 2.397 0 0 1-.676 1.445l-.132.133.165.09c.19.102 1.232-.025 1.594-.196a.483.483 0 0 0 .154-.13l.242.11.465.138c.272-.145.747-.273 1.204-.396.81-.221 1.24-.351 1.325-.566l.126-.115.29-.4.358-.689.092-.26.229-1.227c.187-.456.184-.944.182-1.416-.003-.445-.004-.866.16-1.248.214-.802-.025-4.184-.033-4.328l-.047.113.075-.232.128-.618.148-1.103c.054-.012.3-.247.496-.698.114-.212.145-.466.145-.733 0-.154-.01-.312-.02-.468l-.01-.571c.052-.095.155-.274.155-.274l.12-.24.044-.058c.068-.188.09-.622.09-1.113 0-.87-.068-1.92-.08-2.096l-.002-.016Zm-2.229 3.36c-.306.164-.523 1.57-.523 1.57s-.457.22-.406.99c-.153.385-.15 4.763-.15 4.763-.088.519-.356.79-.593 1.604.069 1.327-1.114 2.633-1.2 2.727l.032-10.488c-.2-.104-.432-1.102-.432-1.4 0 0-.113-.273-.173-.373-.003.09-.01.133-.02.11-.036-.167-.018-.17.02-.11.02-.61-.088-3.434-.088-3.434l-.061-.278.093-.89c.597-.042.785.014 1.342.014.314 0 .335.467.863.467 0 .578.513.69.81 1.11.097.14.216 1.255.486 1.399v2.22Zm-47.57 9.802c.02-.113.03-.23.03-.348 0-.286-.05-.576-.092-.825-.026-.154-.06-.352-.06-.468l.015-.087c.298-.383.38-.83.38-1.308 0-.287-.03-.587-.059-.892l-.066-1.118v-.947l.069-.152-.257-.347-.206-.207c-.125-.285-.168-.65-.168-1.012 0-.734.174-1.456.177-1.466l.02-.088-.264-.208v-.02c0-.068-.054-.179-.387-.505l-.09-.088-.108.1a.36.36 0 0 1-.085-.201l.005-.033c.068-.09.262-.397.262-.667l-.03-.166a.377.377 0 0 0-.295-.224c-.574-.057-.916-.333-.942-.41.137-.115.936-1.063 1.252-1.663l.803-1.501c.17-.159.22-.394.22-.676 0-.218-.03-.462-.063-.724l-.079-.955c0-.656-.433-1.86-1.14-2.333a1.042 1.042 0 0 0-.707-.162l-.107-.085c-.153-.104-.364-.245-.424-.489l-.023-.09-.092-.014c-.811-.128-1.197-.094-1.733-.047l-1.447.07-1.136-.038c-.02 0-1.47.067-1.842.28h-1.16l-.191.249-.096.414-.003.216c0 .088.01.146.091.196l.147.186.725.697.02.024-.158.008.202.137c.013.093.05.125.207.125.062.034.123.063.183-.001l.005-.01.13-.007.091.098-.002.008-.007.218.016.285-.15.109-.054.041-.028.09v5.427c.019.073.255.46.255.46.012.27.02.676-.02.755l-.214.486-.021 1.566c.012.062.173.402.175.405l-.002.024c0 .156.043 1.031.043 1.038-.001-.03-.054.102-.21.117l-.126.011-.023 1.888-.047 2.244.157 1.771.034.4c.103.776.079 1.272.045 1.96l-.046 1.7c-.154.802-.415 1.803-.49 1.916-.101.098-.435.247-.622.319l-.22.082.353.302.13.117.134-.028.373.016c.302.03.516.042.656-.013.748.127 1.949.26 2.148-.14.142-.134.231-.163.278-.162l.188.138c.075.082.158.177.287.174.089-.004.169-.053.246-.151.09-.059.798-.196 1.395-.281l.082-.012.03-.077c.09-.246.412-.476.753-.72l.224-.162c.49-.364 1.374-.77 1.382-.775l.075-.035.008-.079c0-.01.084-.934.296-1.465.171-.44.612-1.07.615-1.075l.38-1.11Zm-2.852-1.73c.03.17-.326 1.482-.412 1.54-.14.697.03 1.57-.33 1.892-.292.21-.733 1-1.175 1.03l-.484.437c-.291.117-.783.167-.783.167s.57-1.02.452-.879c-.024.284-.056-.836-.056-.836 0-3.1-.058-1.216.058-1.975.023-.142.12-.185.217-.29V61.58a.334.334 0 0 1-.217-.35.322.322 0 0 1 .217-.292l.215-1.052s-.305-1.197 0-1.576c.05-.555 0-2.302 0-2.302l.683.703s.474.457.872.672c0 0 .562.489.326.716-.163.115.374.5.005.519 0 0 .372.405.163.822.286.152-.107.873-.107 1.143 0 .91.355.271.355 1.363-.73.524.378 1.529-.082 1.855.31.2-.03.494.083.681Zm-.191-14.837c-.07.036.213.806.213.806-.285.152-.215 1.58-.215 1.848-1.283.1-.987 1.166-1.565 1.343-.038.012-.135-.175-.54 0v-4.3c.35-.189.13-.193.284-.6.075-.028.2-.1.2-.1a.281.281 0 0 1 0 .233l.812-.116h.16c.325.7.58.314 1.081.584l-.43.302Zm44.48 15.348-.09-.03-.155-.05c.008-.055.075-.64.131-.734l.025-.043-.003-.06-.063-.43c-.206-1.478-.296-2.012-.356-2.119l-.06-.114-.195.091c-.05-.029-.091-.271-.108-.362-.021-.127-.037-.22-.09-.276-.042-.118-.064-.68-.078-1.056-.028-.733-.047-1.068-.119-1.187l-.1-.396-.067-.321-.063-.26.001-.032c0-.177-.116-.22-.458-.35v-.003l-.02-.161c-.015-.192-.037-.48-.319-.579-.582-.732-.875-.74-1.25-.664h-.177c.04-.055.085-.1.085-.21l-.005-.359c1.193-.077 2.05-1.046 2.533-2.935l.005-.966.093-.209.083-.23.041-.078c.007-.117.034-.52.034-.873 0-.23-.012-.437-.045-.528l-1.1-2.318-.097-.048-.284-.224c-.314-.273-.743-.647-1.222-.71l-.394-.014h-.084c-.724-.226-1.586-.5-1.678-.547l-.03-.016-.047-.009h-1.063l-.046-.06c-.093-.135-.151-.173-.347-.173l-.57.153-3.107.08-.024.276.788.172.146.114c.385.274 1.404.999 1.44 1.572l.006.12.064-.008.42.035c.066-.021.256-.17.256-.17l.01-.017c.082.018.382.092.573.154-.444.585-1.01 1.013-1.44 1.32l-.542.418.005.047c-.032.26-.049.635-.049 1.01 0 .377.017.75.049 1.01l.008.052.205.178-.001.005-.003.052c0 .105.06.219.223.387l.01 1.061.03.073.04.403c.019.343.031.46.103.526.074.164.085.433.085.573l-.003.089v.017l.038.08.053.272.12.402-.046-.111v.8l.054.077.074.164.09.168.103.905.036.075.025.166.094.323-.043-.102.002 4.382c0 .907 0 1.571-.002 1.622l-.004.07.226.183c.032.23.05.429.05.569 0 .148-.014.242-.037.281-.29.255-.962 2.55-1.094 3.01v.01c0 .21.185.333.515.555.646.435 1.845 1.241 2.504 3.043l.16.44.108-.454c.164-.698.207-1.137.207-1.427a2.5 2.5 0 0 0-.032-.404l.022-.013.159-.152c.018-.086.027-.197.027-.324 0-.355-.06-.841-.12-1.315l-.095-.874c.147-.323.192-.787.192-1.264 0-.312-.018-.629-.043-.919l-.133-.293-.055-.088v-.015c0-.099.083-.194.1-.208l.043-.04.01-.062v-.021c0-.191-.093-1.048-.242-2.4-.134-1.2-.315-2.822-.315-3.12l.002-.033.127-.37.08-.147c.2-.425.26-.623.26-.84l-.014-.154c.334.248.804 1.1 1.054 1.564l.158.29.003.046c0 .149-.064.544-.113.842l-.114.774.125.025c.478.115 1.066 3.225 1.066 3.657v.009c.018.099.025.366.025.699 0 .75-.038 1.835-.088 2.1l-.406 1.276c-.242.684-.356 1.029-.356 1.21l.015.099.036.089.296-.003c.569-.008.83-.013 2.035 1.166.168.169.868.392 1.006.434l.148.046.472-2.508.112-.493c.194-.465.044-.705-.029-.823h-.019c.105-.51.138-.871.138-1.133 0-.27-.034-.437-.059-.562-.013-.069-.024-.116-.024-.158 0-.061.02-.11.076-.19l.022-.036.002-.05c0-.224-.227-.716-.3-.835l-.027-.041Zm-3.64-12.84s-.075.386-.035.632c-.142.332-.423 1.35-.647 1.634-.112.144-.488.397-.863.466-.23.043-.594 0-.594 0V48.35c.087-.006.167-.006.27 0 .517 0 1.834 1.869 1.834 1.869.356.634.216 1.166.216 1.166v.467c-.07.035-.11.339-.18.302ZM40.652 41.346h2.396v-9.131h-2.396v9.13Zm36.96-5.65-4.337-3.733v9.37l2.407.008v-3.857L80 41.712v-9.466h-2.388v3.45ZM33.309 39.13a2.347 2.347 0 1 1 1.51-4.143l1.55-1.76a4.693 4.693 0 0 0-7.754 3.558 4.692 4.692 0 0 0 4.693 4.69 4.67 4.67 0 0 0 3.081-1.15l-1.55-1.762a2.342 2.342 0 0 1-1.53.567Zm28.919-10.095H50.369l-2.76 7.21-2.762-7.21H32.6l-1.274 2.397h5.487l-.003 9.92h2.473l.008-9.92h3.787l4.53 12.031 4.531-12.03h11.397l-1.308-2.398Zm-4.455 5.334c.124-.176.566-.176.566-.176h1.539v-1.982h-2.494c-.815 0-2.019.495-2.019 2.158 0 2.194 2.708 3.628 2.442 4.512-.125.423-.637.442-.902.442H55.26v2.017h2.69c1.15 0 2.3-.707 2.3-2.052 0-2.567-3.145-3.964-2.477-4.919Zm-5.599 6.97h2.397v-9.13h-2.397v9.13Zm8.463.002h2.397v-9.13h-2.397v9.13ZM20 41.376h2.548l.637-1.699h2.974l.637 1.699h2.548L24.672 28 20 41.376Zm3.911-4.14.708-2.335.708 2.334H23.91Zm44.263-5.152a4.7 4.7 0 1 0 4.702 4.7c0-2.595-2.106-4.7-4.702-4.7Zm0 7.034a2.334 2.334 0 1 1 0-4.668 2.334 2.334 0 1 1 0 4.668Z"/>
</svg>