<svg width="60" height="60" viewBox="0 0 60 60" fill="none" xmlns="http://www.w3.org/2000/svg">
<g clip-path="url(#clip0_150_982)">
<rect width="60" height="60" fill="white"/>
<g clip-path="url(#clip1_150_982)">
<path d="M0 0H60V60H0V0Z" fill="#017C76"/>
<path d="M9 12.3994V12.0003H13.3671C13.9845 11.9936 14.5989 12.0882 15.1859 12.2805C15.7377 12.4589 16.2105 12.7152 16.6056 13.0495C17.006 13.3706 17.3262 13.781 17.5407 14.2481C17.7711 14.7145 17.8857 15.2351 17.8857 15.81V17.1499C17.8857 17.4842 17.8172 17.7974 17.6803 18.0934C17.5548 18.3839 17.3826 18.6517 17.1706 18.8862C16.9725 19.1152 16.7396 19.3115 16.4805 19.4676C16.2237 19.6156 15.9669 19.7055 15.71 19.7359C15.93 19.7755 16.1828 19.8601 16.4673 19.9922C16.7518 20.1164 17.0231 20.3067 17.2799 20.5631C17.5459 20.8115 17.7672 21.1339 17.941 21.5303C18.1254 21.9268 18.2176 22.4117 18.2176 22.9865V24.407C18.2176 24.9673 18.0977 25.4761 17.8594 25.9333C17.6289 26.3918 17.3128 26.5279 16.9085 26.8556C16.5042 27.1727 16.0353 27.4225 15.5033 27.6009C14.9594 27.7739 14.392 27.8604 13.8215 27.8572H9.01317V12.4192L9 12.3994ZM11.6379 20.7375V26.1196H13.5476C13.9045 26.1196 14.2126 26.0614 14.4694 25.9452C14.7102 25.8403 14.9262 25.6853 15.1029 25.4906C15.4264 25.1518 15.6087 24.7018 15.6126 24.2326V22.8359C15.6126 22.4553 15.5481 22.1329 15.4203 21.8686C15.3023 21.6185 15.1278 21.3995 14.9106 21.2291C14.7052 21.056 14.4655 20.9285 14.2074 20.8551C13.9528 20.7779 13.6883 20.7387 13.4224 20.7388H11.6379V20.7375ZM11.6379 14.0155V18.9206H13.1748C13.3592 18.9206 13.5739 18.8968 13.8215 18.8505C14.0796 18.8043 14.3219 18.7184 14.5524 18.5942C14.7908 18.47 14.9923 18.3035 15.1582 18.092C15.3242 17.8753 15.4058 17.5965 15.4058 17.2543V15.9262C15.4058 15.2735 15.2043 14.7925 14.8 14.4819C14.3957 14.1714 13.8781 14.0155 13.2433 14.0155H11.6379ZM50.7103 14.6511C50.9868 14.6511 50.9947 14.6432 50.9947 14.6432L51 14.955V15.991C50.9992 16.0301 50.9948 16.069 50.9868 16.1073C50.9868 16.1469 50.9723 16.1932 50.9447 16.2473L50.9315 16.2592L46.2325 25.6888L45.9296 26.0496H50.9947V27.9022H50.8064L43.1231 27.8572C43.0309 27.8572 43.2061 27.8572 43.1231 27.8572C43.1231 27.778 43.1231 27.9431 43.1231 27.8572V26.5358C43.1165 26.6653 43.1231 26.6693 43.1231 26.5358C43.0968 26.59 43.1508 26.4737 43.1231 26.5358L47.9828 16.8182L48.2172 16.5275H43.1244V14.6432L43.6565 14.6511H50.7103ZM19.5095 48.9998H16.8848L15.5731 44.4964H12.9496L11.6379 48.9998H9.01317L12.9496 33.1429H15.5731L19.5095 48.9998ZM12.9496 42.3927H15.5731L14.5327 37.4427L14.4062 36.9446L14.2614 36.4464L14.0243 37.4427L12.951 42.3927H12.9496ZM22.133 33.2618V33.1429H24.7564V48.9998H22.133V33.2618ZM27.3812 33.2618V33.1429H30.0046V47.0177C30.0046 47.0639 30.0046 47.2621 30.0046 47.0177V48.9998H27.3799V33.2605L27.3812 33.2618ZM45.7479 48.5954V48.9998H43.1231V35.7857H45.7887V37.1071C45.7887 36.4411 46.3971 36.2019 46.7567 36.0209C47.0596 35.8716 47.4744 35.7857 47.8959 35.7857C48.3542 35.7857 48.7703 35.865 49.147 36.0209C49.5289 36.1795 49.8569 36.4001 50.1268 36.6842C50.406 36.9684 50.6194 37.4969 50.7695 37.8933C50.9197 38.2898 50.996 38.7285 50.996 39.2081V48.9998H48.3818V39.2187C48.3747 39.0339 48.3364 38.8516 48.2686 38.6796C48.2118 38.5054 48.1199 38.3448 47.9986 38.2078C47.8797 38.0686 47.7287 37.9606 47.5587 37.8933C47.3676 37.8073 47.1597 37.7654 46.9503 37.7704C46.7619 37.7704 46.2378 37.8101 46.0653 37.8933C45.8466 37.9991 45.7479 38.2078 45.7479 38.2078V48.5954ZM32.4963 39.5398C32.4963 39.0245 32.6043 38.5421 32.8177 38.0889C33.0251 37.6354 33.3206 37.2279 33.6869 36.8904C34.0609 36.5442 34.4968 36.2733 34.996 36.079C35.5028 35.8821 36.0421 35.7826 36.5856 35.7857C37.1558 35.7857 37.6813 35.8835 38.162 36.079C38.6427 36.2733 39.0576 36.5442 39.4039 36.8904C39.7516 37.2287 40.019 37.6277 40.206 38.0889C40.4022 38.5421 40.4997 39.0258 40.4997 39.5398V41.9976C40.4997 42.1205 40.4733 42.2593 40.4733 42.4099H34.9012V45.2457C34.9075 45.6856 35.0847 46.1056 35.395 46.4164C35.5557 46.5671 35.7374 46.6926 35.9429 46.7891C36.1562 46.8789 36.388 46.9225 36.6369 46.9225C36.8872 46.9225 37.1137 46.8789 37.3191 46.7904C37.5233 46.6913 37.6971 46.5631 37.8394 46.4032C38.1288 46.0768 38.2903 45.6561 38.2937 45.2192V44.4198H40.4733V45.2457C40.4733 45.7689 40.3746 46.2565 40.1796 46.7098C39.9963 47.1567 39.7284 47.5637 39.3908 47.9083C39.0386 48.2542 38.6208 48.5257 38.162 48.7064C37.6604 48.9057 37.125 49.0054 36.5856 48.9998C35.5179 49.0069 34.4852 48.6182 33.6856 47.9083C33.3241 47.5668 33.0297 47.1603 32.8177 46.7098C32.6026 46.252 32.4928 45.7517 32.4963 45.2457V39.5398ZM34.9025 40.7185H38.295V39.553C38.2952 39.113 38.128 38.6895 37.8275 38.369C37.6803 38.2149 37.5033 38.0926 37.3073 38.0096C37.093 37.9128 36.8607 37.8627 36.6258 37.8627C36.3908 37.8627 36.1585 37.9128 35.9442 38.0096C35.7422 38.0966 35.5568 38.2182 35.3964 38.369C35.2413 38.5252 35.1186 38.7107 35.0355 38.9148C34.9473 39.1159 34.902 39.3333 34.9025 39.553V40.7185ZM20.8213 18.3973C20.8213 17.874 20.9266 17.3864 21.1413 16.9332C21.3484 16.4795 21.644 16.0719 22.0105 15.7346C22.8036 15.0244 23.8316 14.6353 24.8947 14.6432C25.4663 14.6432 26.001 14.7357 26.4988 14.9233C27.0071 15.1083 27.447 15.3712 27.8224 15.7082C28.2035 16.0434 28.5081 16.4572 28.7154 16.9212C28.9227 17.3853 29.0277 17.8888 29.0235 18.3973V24.1031C29.0235 24.6528 28.9181 25.1589 28.7034 25.6201C28.4913 26.0705 28.1913 26.4735 27.821 26.8054C27.4352 27.1405 26.9915 27.402 26.512 27.5771C25.9988 27.7662 25.4559 27.8611 24.9092 27.8572C24.3669 27.8604 23.8284 27.7655 23.3196 27.5771C22.84 27.4021 22.3963 27.1406 22.0105 26.8054C21.6469 26.4706 21.3516 26.068 21.1413 25.6201C20.9247 25.1442 20.8155 24.6262 20.8213 24.1031V18.3973ZM23.2129 24.0489C23.2129 24.2709 23.2524 24.485 23.3314 24.6885C23.4223 24.892 23.5422 25.0744 23.6936 25.2342C23.8543 25.3849 24.036 25.5091 24.2415 25.6069C24.4548 25.6954 24.6814 25.7403 24.9224 25.7403C25.1726 25.7403 25.3991 25.6954 25.6046 25.6082C25.8087 25.5091 25.9865 25.3849 26.1379 25.2342C26.2881 25.0767 26.4061 24.8913 26.4856 24.6885C26.5752 24.485 26.6186 24.2709 26.6186 24.0489V18.4647C26.6186 18.2427 26.5752 18.0286 26.4856 17.8251C26.4105 17.6201 26.2918 17.4339 26.1379 17.2794C25.9836 17.1177 25.7969 16.9907 25.5901 16.9067C25.3813 16.8082 25.1531 16.758 24.9224 16.76C24.6721 16.76 24.4417 16.8089 24.2283 16.9054C24.0267 16.9925 23.8448 17.1197 23.6936 17.2794C23.5407 17.4323 23.4182 17.613 23.3328 17.8119C23.2527 18.0155 23.212 18.2326 23.2129 18.4515V24.0489ZM31.2004 18.3973C31.2004 17.874 31.3084 17.3864 31.5218 16.9332C31.7289 16.4795 32.0245 16.0719 32.391 15.7346C33.1841 15.0244 34.2121 14.6353 35.2752 14.6432C35.8468 14.6432 36.3815 14.7357 36.8793 14.9233C37.3876 15.1083 37.8275 15.3712 38.2015 15.7082C38.5829 16.0433 38.8878 16.457 39.0953 16.9211C39.3028 17.3851 39.4081 17.8887 39.4039 18.3973V24.1031C39.4039 24.6528 39.2986 25.1589 39.0839 25.6201C38.8718 26.0705 38.5718 26.4735 38.2015 26.8054C37.8157 27.1405 37.372 27.402 36.8924 27.5771C36.3793 27.7662 35.8364 27.8611 35.2897 27.8572C34.7473 27.8604 34.2089 27.7655 33.7001 27.5771C33.22 27.4022 32.7759 27.1407 32.3897 26.8054C32.0265 26.4705 31.7317 26.0679 31.5218 25.6201C31.3052 25.1442 31.196 24.6262 31.2017 24.1031V18.396L31.2004 18.3973ZM33.5921 24.0489C33.5921 24.2709 33.6316 24.485 33.7132 24.6885C33.8015 24.892 33.9226 25.0744 34.0741 25.2342C34.2334 25.3849 34.4165 25.5091 34.6206 25.6069C34.8353 25.6954 35.0618 25.7403 35.3028 25.7403C35.5531 25.7403 35.7796 25.6954 35.9837 25.6082C36.1892 25.5091 36.367 25.3849 36.5184 25.2342C36.6685 25.0767 36.7866 24.8913 36.8661 24.6885C36.9543 24.485 36.9991 24.2709 36.9991 24.0489V18.4647C36.9991 18.2427 36.9543 18.0286 36.8661 17.8251C36.7909 17.6201 36.6723 17.4339 36.5184 17.2794C36.3641 17.1177 36.1774 16.9907 35.9706 16.9067C35.7618 16.8082 35.5336 16.758 35.3028 16.76C35.0735 16.7578 34.8462 16.8027 34.6349 16.892C34.4235 16.9813 34.2327 17.1131 34.0741 17.2794C33.9212 17.4323 33.7987 17.613 33.7132 17.8119C33.6327 18.0154 33.5916 18.2325 33.5921 18.4515V24.0489Z" fill="#FEFEFD"/>
</g>
</g>
<defs>
<clipPath id="clip0_150_982">
<rect width="60" height="60" fill="white"/>
</clipPath>
<clipPath id="clip1_150_982">
<rect width="60" height="60" fill="white"/>
</clipPath>
</defs>
</svg>
