<svg width="60" height="60" viewBox="0 0 60 60" fill="none" xmlns="http://www.w3.org/2000/svg">
<rect width="60" height="60" fill="black"/>
<path d="M22.9688 19.1328C22.9688 20.9609 21.6875 22.9688 17.3047 22.9688H11.8281L13.4688 16.0312H18.7656C22.0547 16.0312 22.9688 17.8516 22.9688 19.1328ZM32.8281 16.0312H27.5312L26.0703 22.9688H31.5469C35.75 22.9688 37.0234 20.9609 37.0234 19.1328C37.0312 17.8516 36.1172 16.0312 32.8281 16.0312ZM16.9375 26.2578H11.6406L10 33.1953H15.4766C19.8594 33.1953 21.1406 31.3672 21.1406 29.3594C21.1406 28.0859 20.2266 26.2578 16.9375 26.2578ZM31.0078 26.2578H25.7109L24.25 33.1953H29.7266C33.9297 33.1953 35.2031 31.3672 35.2031 29.3594C35.2031 28.0859 34.2891 26.2578 31.0078 26.2578ZM45.7969 22.0547H40.5L39.0391 28.9922H44.5156C48.7188 28.9922 49.9922 27.1641 49.9922 25.1562C50 23.8828 49.0859 22.0547 45.7969 22.0547ZM43.6094 32.8281H38.3125L36.8516 39.7656H42.3281C46.7109 39.7656 47.8047 37.9375 47.8047 35.9297C47.8047 34.6562 46.8984 32.8281 43.6094 32.8281ZM28.8125 37.0312H23.5156L22.0547 43.9687H27.5312C31.9141 43.9687 33.0078 41.9609 33.0078 40.1328C33.0156 38.8594 32.1016 37.0312 28.8125 37.0312Z" fill="white"/>
</svg>
