<svg width="60" height="60" viewBox="0 0 60 60" fill="none" xmlns="http://www.w3.org/2000/svg">
<rect width="60" height="60" fill="black"/>
<g clip-path="url(#clip0_150_958)">
<mask id="mask0_150_958" style="mask-type:luminance" maskUnits="userSpaceOnUse" x="10" y="9" width="123" height="42">
<path d="M132.531 9.99951V50.0005H10.0276V9.99951H132.531Z" fill="white"/>
</mask>
<g mask="url(#mask0_150_958)">
<path d="M49.969 29.9767L37.2408 27.298C37.1142 27.2747 37.0497 27.148 37.0833 27.0291L39.162 20.9089C39.1775 20.8778 39.1362 20.8442 39.1052 20.8546L33.0109 23.0136C32.8922 23.055 32.7656 22.9826 32.7398 22.8559L30.0594 10.0388C30.0516 9.98967 29.9793 9.98967 29.9716 10.0388L27.2421 22.8869C27.2085 23.0058 27.082 23.0782 26.9632 23.0394L20.7966 20.8546C20.7579 20.8442 20.7243 20.8778 20.7424 20.9089L22.8444 27.0912C22.8831 27.2101 22.8134 27.3368 22.6869 27.3704L10.0594 29.9767C10.0129 29.9845 10.0129 30.0569 10.0594 30.0647L16.2905 31.3601L20.5281 29.7311L21.4706 29.3096L23.6552 28.4512C24.1949 29.0459 25.06 29.1338 25.3363 29.1416C25.1142 28.9115 24.9722 28.7356 24.9154 28.5702C24.7734 28.2521 24.7889 28.0065 24.7889 27.9108C24.7966 27.5436 24.9955 26.7654 25.796 26.4965C26.8676 26.1371 27.6372 27.4325 27.6372 27.4325L32.3757 27.766L32.2647 28.4667C32.2492 28.5288 32.2956 28.5934 32.368 28.6012L35.7559 28.8959C35.7482 29.3639 35.6604 29.8242 35.4951 30.2689V30.287L35.3918 31.4945C35.3608 31.8203 35.2808 32.1461 35.1465 32.4486C34.9399 32.8934 34.6301 33.2812 34.2401 33.5837C32.5513 34.8714 27.8205 38.7886 28.3525 42.0543L29.9716 49.9612C29.9793 50.0104 30.0516 50.0104 30.0594 49.9612L32.6546 37.2709C32.6778 37.1519 32.8121 37.0795 32.9309 37.1209L39.0975 39.3058C39.1284 39.3135 39.162 39.2825 39.1543 39.2489L37.0419 33.0433C37.0032 32.9244 37.0729 32.7977 37.202 32.7744L49.9612 30.0647C50.0103 30.0569 50.0103 29.9845 49.969 29.9767Z" fill="white"/>
</g>
</g>
<defs>
<clipPath id="clip0_150_958">
<rect width="40" height="40" fill="white" transform="translate(10 10)"/>
</clipPath>
</defs>
</svg>
