<svg width="60" height="60" viewBox="0 0 60 60" fill="none" xmlns="http://www.w3.org/2000/svg">
<g clip-path="url(#clip0_2190_9769)">
<rect width="60" height="60" fill="white"/>
<rect width="60" height="60" fill="#E5173F"/>
<g clip-path="url(#clip1_2190_9769)">
<path d="M29.123 38.3994L26.8746 39.7846C26.5535 39.9577 26.5535 40.1309 26.5535 40.4772V49.3074C26.5535 49.6537 26.714 49.8269 26.8746 49.8269H29.123V38.3994ZM33.2984 35.8023L30.4077 37.5337H30.2471V49.4806H33.459C33.6294 49.4806 33.7928 49.4076 33.9132 49.2777C34.0337 49.1478 34.1014 48.9717 34.1014 48.788V36.3217C34.1336 36.2106 34.1301 36.0909 34.0917 35.9821C34.0532 35.8733 33.982 35.7815 33.8893 35.7216C33.7967 35.6617 33.6881 35.6371 33.5809 35.6517C33.4738 35.6663 33.3743 35.7194 33.2984 35.8023ZM28.8018 18.4881C26.431 18.4684 24.0642 18.7004 21.7356 19.1806C22.9821 17.4334 24.5889 16.0231 26.4286 15.0614C28.2683 14.0997 30.2905 13.6131 32.3348 13.6401C35.4621 13.6401 38.5051 14.7336 41.0069 16.7566C41.3281 17.1029 41.6493 17.2761 41.9705 16.9298C42.0388 16.8648 42.0936 16.7849 42.1311 16.6953C42.1686 16.6057 42.188 16.5086 42.188 16.4103C42.188 16.3121 42.1686 16.215 42.1311 16.1254C42.0936 16.0358 42.0388 15.9559 41.9705 15.8909C40.5336 14.002 38.7169 12.4904 36.6579 11.4705C34.599 10.4506 32.3518 9.94913 30.0865 10.0041C27.0466 10.0632 24.0925 11.1002 21.603 12.982C19.1136 14.8639 17.2025 17.5047 16.1148 20.5658L10.9758 22.8166C10.5476 23.1629 10.387 23.5092 10.494 23.8555C10.5265 23.9552 10.5797 24.0456 10.6495 24.1198C10.7194 24.1939 10.8041 24.2499 10.8971 24.2833C10.9901 24.3167 11.089 24.3268 11.1861 24.3126C11.2833 24.2985 11.3761 24.2606 11.4576 24.2018C12.7716 23.7544 14.1132 23.4073 15.4725 23.1629C15.3326 23.9615 15.2787 24.7749 15.3119 25.5869C15.2686 28.3396 15.8807 31.0583 17.0896 33.4833C18.2986 35.9082 20.0641 37.9585 22.2174 39.4383C22.5386 39.6114 23.0204 39.6114 23.181 39.2652C23.3416 38.9189 23.3416 38.5726 23.0204 38.2263C21.6769 36.9164 20.6091 35.3116 19.8889 33.5197C19.1687 31.7278 18.8127 29.7904 18.8449 27.8378C18.7951 25.9752 19.1818 24.1291 19.9691 22.4703L24.4657 22.1241C35.3861 22.1241 44.7006 26.1063 44.7006 31.1275C44.7006 36.1486 41.6493 36.3217 37.9556 38.0532C37.1527 38.3994 37.1527 38.7457 37.1527 39.092C37.1527 39.4383 37.6345 39.6114 38.1162 39.4383C44.54 37.3606 49.1972 33.5515 49.1972 29.2229C49.1972 24.8943 40.204 18.4881 28.8018 18.4881Z" fill="white"/>
</g>
</g>
<defs>
<clipPath id="clip0_2190_9769">
<rect width="60" height="60" fill="white"/>
</clipPath>
<clipPath id="clip1_2190_9769">
<rect width="40" height="40" fill="white" transform="translate(10 10)"/>
</clipPath>
</defs>
</svg>
