<svg width="60" height="60" viewBox="0 0 60 60" fill="none" xmlns="http://www.w3.org/2000/svg">
<rect width="60" height="60" fill="#0219A0"/>
<g clip-path="url(#clip0_147_224)">
<path d="M9 18.3097V29.1022H14.5487C16.7326 29.1022 18.7508 28.3216 18.7508 26.0286C18.7508 24.4785 17.6543 23.7709 16.4482 23.4005C17.183 23.1003 18.0166 22.4697 18.0166 21.1478C18.0166 19.4559 16.3682 18.3097 14.1488 18.3097H9ZM12.3992 20.8233H13.6489C14.1576 20.8233 14.5456 21.2291 14.5456 21.641C14.5456 22.0237 14.1425 22.4333 13.6489 22.4333H12.3992V20.8233ZM12.3992 24.6732H14.0488C14.6247 24.6732 15.1079 25.1186 15.1079 25.6277C15.1079 26.1683 14.656 26.6172 13.9488 26.6172H12.3992V24.6732Z" fill="white"/>
<path d="M11.7493 30.2794V41.0718H17.298C19.482 41.0718 21.5002 40.2912 21.5002 37.9983C21.5002 36.4482 20.4036 35.7406 19.1976 35.3702C19.9324 35.07 20.7659 34.4394 20.7659 33.1175C20.7659 31.4256 19.1175 30.2794 16.8981 30.2794H11.7493ZM15.1485 32.793H16.3982C16.907 32.793 17.2949 33.1988 17.2949 33.6107C17.2949 33.9933 16.8918 34.4029 16.3982 34.4029H15.1485V32.793ZM15.1485 36.6429H16.7981C17.374 36.6429 17.8573 37.0883 17.8573 37.5974C17.8573 38.138 17.4053 38.5869 16.6982 38.5869H15.1485V36.6429Z" fill="white"/>
<path d="M19.0176 29.1009V18.3084H27.5656V20.9149H22.4068V22.3301H26.5958V24.7737H22.4068V26.5046H27.5656V29.1009H19.0176Z" fill="white"/>
<path d="M32.1961 29.4098C34.6022 29.4098 36.5267 28.0121 36.5267 25.7471C36.5267 22.0917 31.8573 22.6542 31.8573 21.5161C31.8573 21.0764 32.3113 20.8431 32.7769 20.8431C33.5793 20.8431 34.159 21.3815 34.159 21.3815L36.1679 19.4335C35.3644 18.6547 34.0954 18 32.3859 18C29.8186 18 28.1389 19.5518 28.1389 21.4237C28.1389 25.1256 32.7411 24.5884 32.7411 25.7499C32.7411 26.1571 32.3564 26.5667 31.6588 26.5667C30.8667 26.5667 30.2392 26.0797 29.7509 25.6666L27.7302 27.6285C28.5439 28.4356 29.8502 29.4098 32.1961 29.4098Z" fill="white"/>
<path d="M39.1428 29.1009V20.9047H36.3435V18.3084H45.3413V20.9047H42.542V29.1009H39.1428Z" fill="white"/>
<path d="M21.617 30.2718H25.0062V36.737C25.0062 37.3936 25.6478 37.9986 26.3167 37.9986C26.9477 37.9986 27.5856 37.4522 27.5856 36.7025V30.2718H30.9648V36.6585C30.9648 39.1928 28.8987 41.2144 26.2272 41.2144C23.5404 41.2144 21.617 39.0143 21.617 36.5204V30.2718Z" fill="white"/>
<path d="M35.1438 41.0642V37.2077L31.1603 30.2718H34.5894L36.8434 33.988L39.1051 30.2718H42.542L38.543 37.2474V41.0642H35.1438Z" fill="white"/>
<path d="M42.542 36.1784L40.5425 38.2147V40.9637L42.542 43H51V36.1784H42.542Z" fill="#FFED31"/>
<path d="M42.2136 39.5879C42.2136 39.8409 42.0122 40.046 41.7637 40.046C41.5152 40.046 41.3138 39.8409 41.3138 39.5879C41.3138 39.3348 41.5152 39.1297 41.7637 39.1297C42.0122 39.1297 42.2136 39.3348 42.2136 39.5879Z" fill="white"/>
</g>
<defs>
<clipPath id="clip0_147_224">
<rect width="42" height="25" fill="white" transform="translate(9 18)"/>
</clipPath>
</defs>
</svg>
