<svg width="60" height="60" viewBox="0 0 60 60" fill="none" xmlns="http://www.w3.org/2000/svg">
<rect width="60" height="60" fill="#020F22"/>
<g clip-path="url(#clip0_1772_9252)">
<path fill-rule="evenodd" clip-rule="evenodd" d="M32.3079 49.9167L34.5013 47.9781C34.5849 47.8948 34.5321 47.7588 34.4178 47.7588H19.7343C17.0508 47.7588 14.9717 45.4145 15.3035 42.7588L19.3915 10.2983C19.4112 10.1426 19.2882 10.0176 19.1409 10.0176H17.3937C17.2706 10.0176 17.1651 10.1119 17.1453 10.2369L13.0068 43.204C12.9958 43.2785 13.0156 43.3399 13.0684 43.4013L18.7783 49.886C18.8288 49.9474 18.9013 49.9803 18.9761 49.9803H32.1409C32.2024 49.9803 32.2552 49.9474 32.3079 49.9167Z" fill="white"/>
<path d="M37.1539 45.5395H21.211C21.1275 45.5395 21.055 45.4978 21.0132 45.4364L17.7692 41.1711C17.7385 41.1206 17.7165 41.057 17.7275 40.9956L21.6066 10.2369C21.6264 10.1119 21.7297 10.0176 21.855 10.0176H23.6022C23.7473 10.0176 23.8615 10.1426 23.8528 10.2983L19.8791 41.7522C19.7758 42.5834 20.4198 43.3202 21.2637 43.3202H39.4308C39.5451 43.3202 39.5978 43.454 39.5143 43.5373L37.3187 45.4671C37.2769 45.5088 37.2154 45.5395 37.1539 45.5395Z" fill="white"/>
<path d="M46.9914 21.2215L44.787 38.7851C44.776 38.8378 44.7453 38.8992 44.7035 38.9299L42.3431 41.0264C42.2903 41.068 42.2376 41.0987 42.176 41.0987H24.5387C24.4662 41.0987 24.4046 41.068 24.3519 41.0154L22.4178 38.9628C22.3651 38.9101 22.3453 38.8268 22.3541 38.7544L26.0881 10.2369C26.1101 10.1119 26.2134 10.0176 26.3387 10.0176H28.0749C28.231 10.0176 28.3453 10.1535 28.3233 10.2983L24.664 38.2456C24.6222 38.579 24.8815 38.8685 25.2244 38.8685H42.0815C42.3321 38.8685 42.5497 38.6821 42.5826 38.4321L44.6925 21.6579C45.0266 19.0132 42.9453 16.6689 40.2618 16.6689H30.009C29.853 16.6689 29.7387 16.5439 29.7585 16.3992L29.9563 14.6755C29.9782 14.5527 30.0815 14.4584 30.2068 14.4584H41.0222C41.0947 14.4584 41.1673 14.4803 41.209 14.5417L46.9277 21.0264C46.9804 21.0878 47.0024 21.1492 46.9914 21.2215Z" fill="white"/>
<path d="M38.3912 36.3685L40.0967 22.7983C40.211 21.9079 39.5143 21.1185 38.6088 21.1185H29.4571C29.3011 21.1185 29.1868 20.9847 29.2088 20.8378L29.4154 19.1163C29.4373 18.9913 29.5406 18.8992 29.6659 18.8992H38.7846C38.8593 18.8992 38.9318 18.9299 38.9824 18.9913L42.2176 23.2566C42.2593 23.3071 42.2791 23.3707 42.2703 23.4321L40.6263 36.4408C40.6154 36.5658 40.5011 36.6579 40.3758 36.6579H38.6395C38.4835 36.6579 38.3692 36.5242 38.3912 36.3685Z" fill="white"/>
<path d="M33.9913 36.3685L35.3342 26.1185C35.3737 25.818 35.1451 25.5593 34.8331 25.5593H28.8968C28.7495 25.5593 28.6352 25.4233 28.6462 25.2676L28.8638 23.5571C28.8858 23.4321 28.9891 23.3378 29.1144 23.3378H35.4572C35.5298 23.3378 35.5935 23.3597 35.6462 23.4123L37.5803 25.465C37.6309 25.5286 37.6528 25.6009 37.6418 25.6733L36.2374 36.4408C36.2177 36.5549 36.1122 36.6492 35.9891 36.6492H34.2418C34.0946 36.6492 33.9715 36.5242 33.9913 36.3685Z" fill="white"/>
</g>
<defs>
<clipPath id="clip0_1772_9252">
<rect width="34" height="40" fill="white" transform="translate(13 10)"/>
</clipPath>
</defs>
</svg>
