<svg width="60" height="60" viewBox="0 0 60 60" fill="none" xmlns="http://www.w3.org/2000/svg">
<rect width="60" height="60" fill="#2319DC"/>
<g clip-path="url(#clip0_150_812)">
<path d="M16.7806 31.0938C21.2828 30.1378 20.6682 24.8142 20.5363 23.6509C20.3144 21.8566 18.1807 18.7234 15.2853 18.9738C11.64 19.2947 11.1079 24.4989 11.1079 24.4989C10.6141 26.9087 12.286 32.0521 16.7806 31.0938ZM25.1413 22.1696C27.6265 22.1696 29.6353 19.3389 29.6353 15.8423C29.6353 12.3451 27.6265 9.51904 25.1413 9.51904C22.6549 9.51904 20.6409 12.3451 20.6409 15.8423C20.6409 19.3389 22.6544 22.1696 25.1413 22.1696ZM35.8559 22.5858C39.1828 23.0165 41.3142 19.5089 41.7406 16.8511C42.1763 14.1967 40.0269 11.1095 37.6771 10.5795C35.3168 10.0433 32.3703 13.7776 32.1048 16.2138C31.7813 19.1937 32.5324 22.165 35.8559 22.5858ZM49.0307 27.0511C49.0307 25.7799 47.9658 21.9479 44.0004 21.9479C40.0269 21.9479 39.5017 25.564 39.5017 28.119C39.5017 30.5575 39.7074 33.9589 44.6418 33.8532C49.5709 33.7453 49.0307 28.3309 49.0307 27.0511ZM44.0004 38.2105C44.0004 38.2105 38.8575 34.2787 35.8559 30.0276C31.7801 23.7594 25.9976 26.3122 24.0643 29.4953C22.1368 32.6865 19.1403 34.7018 18.7116 35.2369C18.2788 35.7611 12.5004 38.8473 13.7825 44.4827C15.0675 50.1135 19.5737 50.0067 19.5737 50.0067C19.5737 50.0067 22.8949 50.3277 26.7464 49.4762C30.6061 48.627 33.9266 49.6846 33.9266 49.6846C33.9266 49.6846 42.9298 52.6685 45.39 46.9269C47.8531 41.1899 44.0004 38.2105 44.0004 38.2105Z" fill="white"/>
<path d="M25.9401 32.729V36.5116H22.8217C22.8217 36.5116 19.705 36.7671 18.6141 40.2586C18.2336 42.5897 18.9498 43.9625 19.0747 44.2559C19.2008 44.5487 20.2081 46.254 22.7375 46.7547H28.5891V32.7703L25.9401 32.729ZM25.893 44.4591H23.5357C23.5357 44.4591 21.8934 44.3747 21.3932 42.5058C21.1353 41.6779 21.4315 40.7213 21.5617 40.3453C21.6808 39.9686 22.2321 39.0982 23.3689 38.7629H25.8925L25.893 44.4591Z" fill="#2319DC"/>
<path d="M30.0234 36.8509V44.2139C30.0234 44.2139 30.1454 46.0461 32.7596 46.7139H39.4937V36.8497H36.5873V44.2547H33.814C33.814 44.2547 32.9275 44.1273 32.7608 43.4233V36.8073L30.0234 36.8509Z" fill="#2319DC"/>
</g>
<defs>
<clipPath id="clip0_150_812">
<rect width="39" height="42" fill="white" transform="translate(11 9)"/>
</clipPath>
</defs>
</svg>
