<svg width="60" height="60" viewBox="0 0 60 60" fill="none" xmlns="http://www.w3.org/2000/svg">
<rect width="60" height="60" fill="#049AD6"/>
<g clip-path="url(#clip0_2342_3478)">
<path d="M33.4832 22.2278C33.4929 23.5423 33.489 24.846 33.4929 26.1459C33.4978 26.9535 33.5104 27.7601 33.5318 28.5667C33.5493 29.1116 33.5834 29.6564 33.6136 30.1984C33.6301 30.4805 33.6476 30.7607 33.6817 31.0449C33.7109 31.3105 33.7624 31.5761 33.8052 31.8427C33.8266 31.9857 33.8519 32.1346 33.8831 32.2786C33.8996 32.3486 33.921 32.4226 33.959 32.4829C33.9765 32.5092 34.0368 32.5179 34.0748 32.5267C34.1 32.5316 34.1302 32.5092 34.1555 32.5092C34.5447 32.4965 34.9378 32.4703 35.327 32.4751C35.6305 32.479 35.9341 32.5092 36.2338 32.5442C36.5373 32.5792 36.8399 32.622 37.1435 32.6804C37.413 32.7281 37.6825 32.7972 37.9511 32.8585C38.1612 32.9071 38.3753 32.9499 38.5835 33.0112C38.8365 33.0852 39.0797 33.1766 39.3278 33.2642C39.4738 33.3167 39.6226 33.3683 39.7637 33.4296C39.9437 33.5075 40.1189 33.5911 40.294 33.6787C40.4049 33.7303 40.5119 33.7916 40.6151 33.8577C40.9566 34.0669 41.2816 34.2975 41.4655 34.6731C41.5676 34.8823 41.589 35.1177 41.5598 35.3493C41.4956 35.8455 41.2514 36.2522 40.9177 36.6044C40.6651 36.8727 40.3743 37.1022 40.0546 37.2855C39.8114 37.4246 39.5721 37.5686 39.3239 37.6864C39.0671 37.809 38.7985 37.9004 38.5329 38.0006C38.3698 38.0639 38.2043 38.1207 38.0367 38.1709C37.8275 38.2322 37.6183 38.2877 37.4091 38.346C37.2466 38.3889 37.0793 38.4365 36.9168 38.4764C36.7863 38.5065 36.6553 38.5341 36.5237 38.5591C36.2931 38.6029 36.0664 38.6506 35.8358 38.6895C35.5877 38.7284 35.3357 38.7557 35.0876 38.7858C34.7967 38.8209 34.5068 38.8598 34.2158 38.8909C34.0874 38.9036 33.959 38.9123 33.8354 38.925C33.5104 38.9473 33.1855 38.9736 32.8605 38.995C32.7924 38.9999 32.7282 38.995 32.66 38.9999C32.6046 39.0038 32.5744 38.9775 32.5696 38.9211C32.5649 38.8908 32.5623 38.8602 32.5618 38.8296C32.5482 38.5854 32.5316 38.3412 32.519 38.097C32.5063 37.8868 32.5015 37.6786 32.4849 37.4645C32.446 36.9236 32.4032 36.3865 32.3604 35.8465C32.3351 35.5147 32.3137 35.1878 32.2884 34.856C32.2709 34.6244 32.2495 34.389 32.2281 34.1584C32.1989 33.8178 32.1687 33.4773 32.1337 33.1367C32.1259 33.0375 32.1084 32.9422 32.0948 32.841C32.0831 32.732 32.0782 32.6269 32.0656 32.5179C32.0529 32.4012 32.0315 32.2825 32.014 32.1647C32.014 32.156 32.0101 32.1472 32.0101 32.1385C31.9848 31.8952 31.9634 31.65 31.9323 31.4107C31.8992 31.1441 31.8603 30.8785 31.8262 30.6167C31.7873 30.3424 31.7581 30.067 31.7153 29.7965C31.6764 29.5533 31.6336 29.3042 31.5908 29.06C31.5616 28.8849 31.5402 28.7107 31.5139 28.5365L31.3855 27.7513L31.2959 27.188C31.257 26.97 31.2152 26.7482 31.1724 26.5303C31.1471 26.3902 31.1208 26.251 31.0994 26.1119C31.0557 25.8795 31.0145 25.6466 30.9758 25.4133C30.9418 25.2304 30.9155 25.0475 30.8776 24.8684C30.8386 24.6719 30.7919 24.4753 30.753 24.2798C30.7238 24.1358 30.7024 23.9957 30.6762 23.8517L30.5613 23.2766C30.5277 23.0946 30.492 22.913 30.4543 22.7318C30.4417 22.6569 30.4757 22.6218 30.5399 22.5956C30.9116 22.4516 31.2833 22.3076 31.6589 22.1684C32.0617 22.0157 32.4635 21.8717 32.8692 21.7189C33.057 21.6498 33.2458 21.5749 33.4336 21.501C33.5104 21.4708 33.5318 21.4835 33.5279 21.5749C33.5279 21.7539 33.5182 21.933 33.5182 22.1159V22.2424H33.4929L33.4832 22.2278ZM35.5109 34.35C35.3532 34.3413 35.3357 34.3637 35.3396 34.4765C35.3396 34.4902 35.3445 34.5067 35.3445 34.5203L35.4593 35.3794L35.5109 35.7326C35.5498 35.9983 35.5887 36.2687 35.6218 36.5353C35.6519 36.7572 35.6772 36.98 35.7074 37.2028C35.7201 37.2855 35.7804 37.3069 35.8436 37.2592C35.9944 37.1503 36.1394 37.0364 36.2892 36.9284C36.5325 36.7494 36.7718 36.5655 37.016 36.3865C37.2632 36.1997 37.5123 36.0167 37.7594 35.829C37.8956 35.7239 38.0377 35.6198 38.1739 35.5098C38.2206 35.4758 38.2206 35.4407 38.1651 35.4184C37.9647 35.3269 37.7682 35.2306 37.5668 35.1391C37.3702 35.0516 37.1649 34.9698 36.9684 34.8862C36.8361 34.8297 36.7037 34.7694 36.5665 34.7169C36.3276 34.6248 36.0869 34.5372 35.8446 34.4542C35.7288 34.4065 35.5965 34.3763 35.5109 34.35ZM13.8136 24.524C13.8136 25.0338 13.8038 25.5446 13.8136 26.0545C13.834 27.0975 13.8554 28.1435 13.8904 29.1865C13.9031 29.6399 13.9371 30.0982 13.9673 30.5516C13.9838 30.7909 14.0101 31.0264 14.0354 31.2618C14.0529 31.4272 14.0695 31.5936 14.1035 31.759C14.1463 31.9779 14.1979 32.191 14.2534 32.4051C14.2825 32.5179 14.3215 32.5355 14.4372 32.5092C14.446 32.5092 14.4548 32.5053 14.4625 32.5053C14.8906 32.4926 15.3178 32.4751 15.741 32.4703C15.9453 32.4703 16.1555 32.4839 16.3569 32.5092C16.6216 32.5403 16.8823 32.588 17.147 32.6318C17.4466 32.6804 17.7415 32.732 18.0363 32.7884C18.2075 32.8235 18.3788 32.8721 18.5451 32.9149C18.9042 33.0067 19.2593 33.1132 19.6096 33.234C19.7847 33.2944 19.9598 33.3605 20.1311 33.4345C20.2809 33.4997 20.4298 33.5785 20.5757 33.6485C20.853 33.7828 21.1099 33.9492 21.3541 34.1409C21.5195 34.2761 21.6742 34.4289 21.7725 34.6205C21.8834 34.8385 21.9184 35.0827 21.8883 35.3269C21.8493 35.6237 21.7511 35.898 21.5925 36.151C21.4259 36.409 21.2227 36.6413 20.9892 36.8409C20.6296 37.1486 20.2304 37.4068 19.8022 37.6085C19.5025 37.7525 19.1863 37.8703 18.874 37.9919C18.6953 38.0609 18.5142 38.1236 18.3311 38.1797C18.1433 38.2361 17.9555 38.2847 17.7668 38.3324C17.5838 38.3811 17.3999 38.4326 17.2161 38.4716C17.0662 38.5066 16.9164 38.5241 16.7626 38.5543C16.5875 38.5893 16.4163 38.6292 16.2372 38.6545C15.9804 38.6934 15.7235 38.7333 15.4676 38.7644C15.1592 38.8033 14.8478 38.8423 14.5355 38.8773C14.3834 38.8933 14.2309 38.905 14.0782 38.9123C13.7318 38.9337 13.3816 38.961 13.0352 38.9824C12.9068 38.9911 12.9068 38.9824 12.899 38.851C12.8766 38.4813 12.8513 38.1145 12.8309 37.7438L12.7657 36.7922L12.6762 35.611C12.6548 35.3532 12.6421 35.0915 12.6207 34.8346C12.5866 34.4327 12.5477 34.0367 12.5098 33.6349C12.4923 33.4432 12.4748 33.2555 12.4533 33.0638C12.4242 32.8059 12.3901 32.553 12.3599 32.2951C12.3298 32.0422 12.3123 31.7853 12.2821 31.5323C12.2568 31.2969 12.2189 31.0575 12.1887 30.822C12.1498 30.5302 12.1118 30.2422 12.069 29.9493C12.0301 29.7012 11.9834 29.4531 11.9455 29.204C11.9153 29.0113 11.8939 28.8197 11.8676 28.6319C11.8384 28.4276 11.7995 28.2232 11.7655 28.017C11.7188 27.7212 11.6682 27.4283 11.6195 27.1316C11.5864 26.9097 11.5514 26.6918 11.5125 26.469C11.4541 26.1547 11.3899 25.8414 11.3296 25.5223C11.2955 25.3306 11.2654 25.1389 11.2313 24.9511C11.1972 24.7633 11.1535 24.5765 11.1155 24.3839C11.0863 24.236 11.0601 24.0832 11.0299 23.9353L10.9151 23.3506C10.8723 23.1365 10.8256 22.9225 10.7866 22.7055C10.7691 22.6218 10.8295 22.5956 10.8888 22.5742C11.1204 22.4866 11.3461 22.399 11.5777 22.3124C11.7917 22.2297 12.0058 22.1509 12.2189 22.0731C12.3814 22.0118 12.5477 21.9466 12.7102 21.8804C12.9282 21.7977 13.1422 21.7189 13.3602 21.6372C13.4497 21.6012 13.5353 21.5671 13.6248 21.536C13.6686 21.5169 13.7143 21.5022 13.761 21.4922C13.8428 21.4747 13.8642 21.4971 13.8603 21.5798C13.8515 21.824 13.8476 22.0682 13.8389 22.3173C13.834 22.5041 13.834 22.687 13.834 22.8748V24.5104C13.8214 24.524 13.8175 24.524 13.8136 24.524ZM15.814 34.351C15.6681 34.3462 15.6466 34.3724 15.6593 34.4814C15.6729 34.5729 15.6895 34.6643 15.7021 34.7597C15.7196 34.8647 15.7284 34.9737 15.7449 35.0788L15.8354 35.6499C15.8695 35.8893 15.8996 36.1345 15.9288 36.3787C15.9677 36.6531 16.0105 36.9275 16.0485 37.2067C16.0611 37.2855 16.1215 37.3118 16.1847 37.268C16.2071 37.2553 16.2236 37.233 16.245 37.2193C16.5486 36.9936 16.8483 36.7669 17.1518 36.5392C17.3824 36.3651 17.613 36.186 17.8485 36.0119C18.0577 35.8552 18.2669 35.7064 18.477 35.5449C18.5626 35.4797 18.5539 35.4446 18.4634 35.4009L18.3486 35.3493L17.6733 35.0613C17.4165 34.9474 17.1606 34.8297 16.8998 34.7256C16.6469 34.6254 16.3861 34.533 16.1302 34.4464C16.0144 34.3938 15.8948 34.3734 15.814 34.351ZM45.1326 23.4635C45.2785 23.481 45.4284 23.4946 45.5733 23.5121C45.6512 23.5209 45.6891 23.5822 45.693 23.6561C45.7222 24.0356 45.7485 24.4102 45.7748 24.7896L45.8516 26.0457C45.873 26.3687 45.8944 26.6918 45.9197 27.0138C45.9538 27.4371 45.9878 27.8603 46.017 28.2787C46.0306 28.4363 46.0394 28.5978 46.0482 28.7545C46.0696 29.0561 46.0988 29.3567 46.1202 29.6574C46.1503 30.0271 46.1717 30.3988 46.2019 30.7646C46.2233 31.0838 46.2447 31.4019 46.27 31.7201C46.2914 32.047 46.3128 32.37 46.3381 32.697L46.4412 33.9492C46.4802 34.4639 46.5142 34.9786 46.556 35.4933C46.5911 35.9506 46.629 36.4089 46.6679 36.8671C46.6757 36.9625 46.6582 36.9839 46.5648 37.0024C46.1805 37.0627 45.7962 37.0715 45.4109 37.0063C45.3252 36.9887 45.2961 36.9498 45.2912 36.8671C45.2571 36.4176 45.2182 35.9681 45.1803 35.5186C45.1676 35.3882 45.155 35.2578 45.1462 35.1265C45.1199 34.8171 45.0985 34.5077 45.0684 34.2022C45.0343 33.8616 44.9837 33.5259 44.9497 33.1854C44.9146 32.876 44.8893 32.5627 44.8553 32.2523C44.8125 31.8515 44.7658 31.4496 44.7191 31.0439C44.6984 30.8578 44.6757 30.672 44.651 30.4864C44.612 30.2198 44.5692 29.958 44.5342 29.6924C44.505 29.4784 44.4836 29.2643 44.4535 29.0503C44.4145 28.7632 44.3678 28.4762 44.3299 28.1872C44.2949 27.944 44.2696 27.6988 44.2306 27.4546C44.1966 27.2279 44.1499 27.0012 44.1158 26.7735C44.0866 26.5916 44.0643 26.4038 44.0341 26.216C43.9952 25.9669 43.9495 25.7237 43.9105 25.4746C43.8765 25.2742 43.8512 25.0689 43.8162 24.8684C43.7772 24.6641 43.7354 24.4588 43.6965 24.2535C43.6624 24.0706 43.6323 23.8828 43.6031 23.6989C43.5933 23.6473 43.6109 23.6113 43.6712 23.6036C43.7101 23.5997 43.749 23.5822 43.787 23.5822C44.1372 23.5471 44.4914 23.516 44.8426 23.4849C44.9399 23.4771 45.0392 23.4849 45.1375 23.4849C45.1326 23.4771 45.1326 23.4732 45.1326 23.4644V23.4635ZM25.5048 23.4683C25.6021 23.4771 25.7481 23.4897 25.894 23.5121C25.9786 23.5247 26.0127 23.5899 26.0205 23.6687C26.0341 23.7913 26.0468 23.913 26.0516 24.0356L26.1285 25.3919C26.1499 25.7324 26.1752 26.073 26.2005 26.4125C26.2306 26.8222 26.2686 27.2279 26.2997 27.6385C26.3464 28.2349 26.3892 28.8333 26.4321 29.4258C26.4749 29.9931 26.5128 30.5555 26.5517 31.1227C26.5731 31.4496 26.5945 31.7814 26.6237 32.1083C26.6626 32.5656 26.7093 33.02 26.7434 33.4783C26.7784 33.9229 26.8037 34.3637 26.8378 34.8083C26.867 35.2267 26.9059 35.6499 26.9361 36.0683C26.9536 36.2999 26.9613 36.5305 26.975 36.762C26.9789 36.801 26.9915 36.8399 27.0003 36.8798C27.0178 36.9537 26.9915 36.9887 26.9146 37.0024C26.5889 37.0625 26.2559 37.0727 25.9271 37.0325C25.8551 37.0238 25.7811 37.0189 25.713 36.9975C25.6838 36.9887 25.6449 36.9489 25.6449 36.9236C25.6157 36.6356 25.5943 36.3437 25.5642 36.0557C25.535 35.7287 25.4999 35.4057 25.4659 35.0788C25.4532 34.9426 25.4445 34.8035 25.4318 34.6682C25.4056 34.35 25.3842 34.0358 25.3501 33.7176C25.3161 33.4033 25.2693 33.0949 25.2304 32.7797C25.1964 32.4703 25.175 32.1609 25.137 31.8553C25.0981 31.5372 25.0514 31.219 25.0125 30.8999C24.9833 30.6566 24.9609 30.4076 24.9317 30.1633C24.8977 29.8929 24.85 29.6263 24.8121 29.3558C24.8121 29.3431 24.8072 29.3344 24.8072 29.3217C24.778 29.0726 24.7517 28.8245 24.7177 28.5754C24.6748 28.2538 24.6278 27.9327 24.5766 27.6122C24.5474 27.402 24.5085 27.1977 24.4783 26.9924C24.4443 26.7521 24.4141 26.5166 24.3713 26.2773C24.3119 25.928 24.2477 25.5797 24.1874 25.2265C24.1533 25.0163 24.1281 24.8032 24.0901 24.594C24.0551 24.4063 24.0162 24.2233 23.9782 24.0356C23.9568 23.9217 23.9315 23.8127 23.9179 23.6999C23.914 23.6736 23.9393 23.625 23.9607 23.6162C24.0156 23.5957 24.0734 23.5842 24.1319 23.5822C24.4735 23.5471 24.8198 23.516 25.1623 23.4849C25.2645 23.4771 25.3637 23.4771 25.5048 23.4683ZM49.6851 34.7869C49.6851 35.541 49.69 36.2911 49.6851 37.0452C49.6851 37.3293 49.6686 37.6085 49.6647 37.8917C49.6647 37.953 49.6345 37.9831 49.5791 37.988C49.5363 37.9919 49.4886 37.9919 49.4458 37.9919C49.1432 38.0055 48.8396 38.0182 48.536 38.0357C48.4203 38.0396 48.3093 38.0532 48.1936 38.0619C48.1206 38.0707 48.0914 38.0396 48.0826 37.9617C48.0626 37.6922 48.0383 37.4229 48.0097 37.1542C47.9707 36.8097 47.924 36.4653 47.89 36.1209C47.8511 35.754 47.8306 35.3833 47.7966 35.0136C47.7752 34.7383 47.7489 34.4639 47.7236 34.1885L47.6594 33.4734C47.6341 33.1942 47.6078 32.9188 47.5864 32.6405C47.5431 32.0764 47.5019 31.512 47.4629 30.9476C47.4541 30.7919 47.4629 30.7958 47.6205 30.7822C47.9542 30.7559 48.2879 30.7082 48.6217 30.6946C48.8869 30.6905 49.1522 30.6996 49.4166 30.7218C49.5489 30.7296 49.5742 30.8522 49.5869 30.9612C49.6044 31.1052 49.617 31.2492 49.6258 31.3971C49.6423 31.6987 49.6598 31.9993 49.6647 32.3C49.6812 33.129 49.69 33.954 49.7026 34.7811C49.6939 34.7859 49.69 34.7869 49.6851 34.7869ZM24.5902 37.3731C24.5931 37.626 24.5902 37.5871 24.346 37.6299C24.059 37.6825 23.769 37.7214 23.482 37.7613C23.3584 37.7788 23.2339 37.7905 23.1103 37.8041C23.0461 37.8138 23.0247 37.77 23.0159 37.7165C22.977 37.5122 22.9439 37.303 22.905 37.0977C22.8758 36.945 22.8408 36.7922 22.8116 36.6404C22.7727 36.4526 22.7386 36.2649 22.7046 36.0771C22.6657 35.8854 22.6316 35.6976 22.5927 35.5059C22.5538 35.3094 22.5246 35.1138 22.4857 34.9222C22.4565 34.7645 22.4224 34.6118 22.3923 34.4551C22.3582 34.2761 22.3193 34.0971 22.2901 33.918C22.2337 33.6086 22.187 33.2992 22.1315 32.9937C22.0926 32.7933 22.0459 32.5967 22.0118 32.3963C21.9826 32.2212 21.9603 32.0431 21.9301 31.868C21.9009 31.6812 21.8659 31.4934 21.8367 31.3056C21.8065 31.1276 21.7764 30.9524 21.7511 30.7734C21.7336 30.6693 21.7511 30.6518 21.8532 30.6294C22.0926 30.5817 22.3319 30.5418 22.5674 30.4864C22.8408 30.4163 23.123 30.4027 23.4012 30.3813C23.4946 30.3764 23.589 30.3764 23.6785 30.3852C23.7817 30.3949 23.8537 30.4727 23.8712 30.5905C23.9228 30.931 23.9782 31.2716 24.0249 31.6111C24.0638 31.8777 24.0979 32.1433 24.1281 32.4138C24.167 32.7583 24.1923 33.1027 24.2302 33.4471C24.273 33.883 24.3246 34.3199 24.3664 34.7558C24.4015 35.109 24.4229 35.4622 24.4482 35.8115C24.4735 36.1384 24.491 36.4614 24.5211 36.7883C24.5377 36.9887 24.5678 37.1804 24.5892 37.3721L24.5902 37.3731ZM41.4314 30.8045C41.4265 30.6605 41.4226 30.6557 41.5598 30.6294C41.7778 30.5817 41.9996 30.5467 42.2137 30.4903C42.4783 30.4202 42.7517 30.4202 43.0212 30.3813C43.1582 30.3581 43.299 30.3733 43.4279 30.4251C43.4698 30.4426 43.5126 30.499 43.5252 30.5467C43.6459 31.0176 43.7101 31.5022 43.7519 31.9867C43.7782 32.2873 43.82 32.588 43.8512 32.8886C43.8901 33.2555 43.9193 33.6174 43.9533 33.9832C43.9962 34.4152 44.0477 34.8472 44.0857 35.2744C44.1197 35.6451 44.1372 36.0206 44.1674 36.3913C44.1888 36.7095 44.2141 37.0325 44.2394 37.3507C44.2394 37.377 44.253 37.3993 44.2608 37.4246C44.2822 37.5161 44.2394 37.5774 44.146 37.59L43.3764 37.6951C43.1886 37.7214 43.0047 37.7564 42.8159 37.7915C42.7313 37.8041 42.705 37.7817 42.6885 37.7C42.6535 37.521 42.6068 37.338 42.5717 37.159C42.5513 37.0539 42.5425 36.945 42.5211 36.8409C42.4783 36.6093 42.4277 36.3787 42.3849 36.1471C42.3207 35.8163 42.2652 35.4797 42.2001 35.1479C42.1621 34.9475 42.1154 34.7431 42.0765 34.5417C42.0483 34.4001 42.0243 34.2576 42.0045 34.1146C41.9704 33.9317 41.9403 33.7526 41.9062 33.5697C41.8634 33.3382 41.8245 33.1115 41.7817 32.8799C41.7428 32.6707 41.696 32.4576 41.6581 32.2474C41.6318 32.121 41.6104 31.9906 41.59 31.8641C41.5379 31.5447 41.488 31.2249 41.4402 30.9047C41.4353 30.8785 41.4363 30.8435 41.4314 30.8045ZM30.0009 34.8609V37.2767C30.0009 37.4859 29.9834 37.6912 29.9795 37.9004C29.9795 37.953 29.9542 37.9783 29.9065 37.988C29.8861 37.9919 29.8676 37.9919 29.8472 37.9967C29.5397 38.0094 29.2274 38.0269 28.9199 38.0396C28.7915 38.0493 28.6631 38.0619 28.5346 38.0658C28.4237 38.0707 28.4062 38.0532 28.3984 37.9442C28.3848 37.7876 28.377 37.626 28.3595 37.4645C28.3381 37.2116 28.3128 36.9537 28.2865 36.7007C28.2573 36.3913 28.2184 36.0819 28.1892 35.7677C28.1377 35.2442 28.0861 34.7256 28.0394 34.2012C28.0005 33.7925 27.9713 33.378 27.9363 32.9675C27.9113 32.6783 27.8886 32.389 27.8682 32.0996L27.7903 31.005V30.9271C27.8001 30.8084 27.8166 30.7958 27.9363 30.787C28.2826 30.7559 28.6242 30.717 28.9705 30.6956C29.1632 30.6819 29.3558 30.6995 29.5475 30.7082C29.6338 30.7112 29.7192 30.7276 29.8005 30.7569C29.8394 30.7695 29.8851 30.822 29.8939 30.8658C29.9279 31.0351 29.962 31.2064 29.9669 31.3805C29.9922 32.5403 30.0097 33.7001 30.0311 34.8609H30.0019H30.0009ZM49.4594 28.4353V29.6915C49.4594 29.779 49.4331 29.8053 49.3475 29.7917C49.0955 29.7654 48.8435 29.7352 48.5915 29.709C48.5234 29.7002 48.5185 29.6564 48.5185 29.6039C48.5098 29.3295 48.5059 29.0551 48.4971 28.7846C48.4845 28.2223 48.4757 27.656 48.4631 27.0926C48.4592 26.9662 48.467 26.9574 48.5866 26.9662C48.8299 26.9788 49.079 26.9924 49.3222 27.0099C49.4545 27.0187 49.4808 27.0401 49.4808 27.1753C49.4847 27.5937 49.4808 28.0121 49.4808 28.4305C49.4759 28.4353 49.4672 28.4353 49.4594 28.4353ZM28.7915 28.0306V27.08C28.7915 26.971 28.8003 26.9574 28.9063 26.9662C29.1496 26.9788 29.3938 26.9837 29.6331 27.0148C29.7917 27.0313 29.8219 27.0401 29.8219 27.2104C29.8083 27.9956 29.8044 28.7798 29.783 29.5611C29.7742 29.8432 29.8005 29.8004 29.5524 29.779C29.3411 29.7599 29.1303 29.7366 28.9199 29.709C28.8635 29.7041 28.8557 29.6652 28.8518 29.6175C28.8421 29.3684 28.8256 29.1155 28.8207 28.8673C28.8168 28.5881 28.8207 28.3089 28.8207 28.0306H28.7915ZM22.905 26.7083H23.2816C23.3886 26.7083 23.41 26.7258 23.4226 26.8348C23.4479 27.079 23.4693 27.3232 23.4908 27.5675C23.5297 28.0121 23.5637 28.4529 23.5978 28.8975C23.6065 29.0152 23.6065 29.1378 23.6143 29.2556C23.6143 29.2818 23.6192 29.312 23.6279 29.3383C23.6532 29.4472 23.6357 29.4686 23.5248 29.4686C23.2767 29.4647 23.0286 29.4599 22.7815 29.4599C22.726 29.4599 22.7036 29.4346 22.6997 29.3859C22.6832 29.2731 22.6608 29.1553 22.6491 29.0415C22.6141 28.7496 22.5849 28.4529 22.5548 28.1561L22.4905 27.5285C22.4691 27.3057 22.4438 27.0839 22.4224 26.8611C22.4224 26.8484 22.4176 26.8309 22.4176 26.8183C22.401 26.7395 22.4137 26.7171 22.4993 26.7132C22.6277 26.7132 22.7639 26.7132 22.905 26.7083C22.905 26.7132 22.905 26.7132 22.905 26.7083ZM42.5727 26.7083H42.957C43.0679 26.7083 43.0932 26.7395 43.103 26.8484C43.1419 27.3495 43.1837 27.8467 43.2226 28.3487C43.2479 28.6844 43.2781 29.0201 43.3034 29.3558C43.3122 29.4511 43.2908 29.4725 43.1964 29.4686C43.0388 29.4599 42.885 29.4424 42.7264 29.4385C42.6519 29.437 42.5775 29.4441 42.5046 29.4599C42.4015 29.4774 42.3674 29.456 42.3548 29.3509C42.3207 29.0979 42.2905 28.8411 42.2604 28.5881C42.2351 28.374 42.2263 28.16 42.1923 27.9518C42.1569 27.7366 42.1342 27.5196 42.1242 27.3018C42.1144 27.1403 42.0852 26.9837 42.0638 26.8222C42.0551 26.7443 42.0891 26.7132 42.1621 26.7132C42.3081 26.7171 42.4404 26.7132 42.5727 26.7083C42.5727 26.7132 42.5727 26.7132 42.5727 26.7083ZM28.163 27.0051H28.2486C28.3216 27.0012 28.3556 27.0362 28.3595 27.1102C28.3848 27.655 28.4062 28.2047 28.4373 28.7496C28.449 29.0376 28.4792 29.3256 28.4957 29.6087C28.5055 29.744 28.4918 29.7527 28.3556 29.7566C28.1844 29.7664 28.0131 29.779 27.8468 29.7878C27.7271 29.7965 27.7008 29.778 27.6882 29.6613C27.6541 29.3334 27.6239 29.0026 27.5909 28.6757C27.5685 28.4353 27.5432 28.1999 27.5218 27.9605C27.5004 27.7562 27.479 27.5548 27.4537 27.3495C27.4488 27.2979 27.4235 27.2493 27.4323 27.2016C27.4362 27.1666 27.4751 27.1102 27.5043 27.1053C27.7271 27.0625 27.9489 27.0275 28.1717 26.9924C28.163 26.9963 28.163 27.0012 28.163 27.0051ZM42.0084 29.3869C42.0123 29.5475 42.0045 29.5523 41.842 29.5698C41.6708 29.5873 41.4995 29.6175 41.3292 29.6438C41.2611 29.6525 41.2388 29.6302 41.2261 29.5611C41.1706 29.2692 41.1025 28.9763 41.0422 28.6844C41.0082 28.519 40.9829 28.3487 40.9478 28.1824C40.9089 27.9995 40.8632 27.8204 40.8282 27.6375C40.7892 27.4507 40.76 27.2629 40.7309 27.0751C40.726 27.0537 40.7601 27.0138 40.7815 27.0051C41.0169 26.9399 41.2475 26.8835 41.482 26.8222C41.5939 26.7959 41.6318 26.8319 41.6493 26.9486C41.6883 27.2143 41.735 27.4809 41.7778 27.7426C41.8031 27.9206 41.8245 28.0958 41.8498 28.2748C41.8926 28.5793 41.9403 28.88 41.9831 29.1855C41.9909 29.2556 41.9996 29.3217 42.0084 29.3859V29.3869ZM21.6226 29.6525C21.6012 29.6302 21.5584 29.6 21.5458 29.5601C21.5093 29.4086 21.4768 29.2561 21.4485 29.1028C21.3998 28.8761 21.358 28.6494 21.3152 28.4217L21.2257 27.9469C21.1916 27.7815 21.1527 27.6161 21.1186 27.4507C21.0918 27.3322 21.0691 27.2127 21.0505 27.0926C21.0457 27.0664 21.0797 27.0148 21.106 27.0051C21.3317 26.9399 21.5536 26.8835 21.7812 26.826C21.9272 26.792 21.969 26.8222 21.9904 27.0012C22.0196 27.2152 22.0371 27.4283 22.0683 27.6424C22.1013 27.8778 22.149 28.1133 22.1831 28.3487C22.2171 28.592 22.2473 28.8323 22.2804 29.0765C22.294 29.1767 22.3193 29.2731 22.3368 29.3684C22.3582 29.4823 22.3368 29.5338 22.2337 29.5523C22.042 29.5912 21.8445 29.6175 21.6226 29.6525ZM48.1507 29.2945V29.6613C48.1507 29.7226 48.1293 29.7566 48.0651 29.7615C47.8735 29.7703 47.6808 29.7829 47.4882 29.7965C47.4113 29.8004 47.3733 29.779 47.3685 29.6963C47.3519 29.4998 47.3296 29.3032 47.3091 29.1125C47.2702 28.7807 47.2274 28.4529 47.1846 28.122C47.1807 28.0958 47.1846 28.0656 47.1807 28.0345L47.1165 27.4332C47.1066 27.3534 47.1053 27.2729 47.1126 27.1929C47.1165 27.1627 47.1515 27.115 47.1768 27.1102C47.4239 27.0712 47.673 27.0362 47.9202 27.0012C47.9931 26.9924 48.0184 27.0275 48.0223 27.0975L48.1002 28.3838C48.1167 28.7019 48.1342 29.0162 48.1507 29.2945Z" fill="#FEFEFD"/>
</g>
<defs>
<clipPath id="clip0_2342_3478">
<rect width="40" height="18.0003" fill="white" transform="translate(10 21)"/>
</clipPath>
</defs>
</svg>
