<svg width="60" height="60" viewBox="0 0 60 60" fill="none" xmlns="http://www.w3.org/2000/svg">
<rect width="60" height="60" fill="#28509C"/>
<g clip-path="url(#clip0_1772_9245)">
<path fill-rule="evenodd" clip-rule="evenodd" d="M21.9075 33.368V33.8587C21.8995 34.456 21.7726 35.0454 21.54 35.5947C21.3073 36.144 20.9689 36.6427 20.5486 37.0614C20.1256 37.48 19.6259 37.8134 19.0787 38.04C18.5314 38.264 17.9445 38.3814 17.3523 38.3814H10V21.384L17.0826 21.3894C17.6457 21.3894 18.2062 21.4987 18.7297 21.7094C19.2531 21.92 19.7343 22.2267 20.1441 22.6187C20.5539 23.008 20.887 23.4747 21.1249 23.992C21.3629 24.5067 21.503 25.064 21.5347 25.632C21.5347 25.7227 21.5347 25.9707 21.5347 26.0667C21.5347 26.1574 21.5347 26.3467 21.5347 26.4347C21.5109 26.752 21.4501 27.0667 21.3602 27.3734C21.2677 27.6774 21.1434 27.9734 20.9901 28.2534C20.8367 28.5334 20.6543 28.7947 20.4455 29.0347C20.2366 29.2747 20.004 29.4907 19.7502 29.6827C20.0727 29.8667 20.3688 30.0907 20.6332 30.3547C20.8976 30.616 21.1276 30.912 21.3126 31.2347C21.5003 31.5574 21.6457 31.9014 21.7436 32.264C21.8414 32.624 21.8916 32.9947 21.8916 33.368H21.9075ZM11.4726 22.8694V29.096H17.0826C17.4712 29.096 17.8599 29.0187 18.2194 28.8694C18.5816 28.7174 18.9095 28.4987 19.187 28.2214C19.4646 27.944 19.6867 27.616 19.8401 27.2534C19.9934 26.8907 20.0753 26.5014 20.0806 26.1094V25.8454C20.0727 25.4507 19.9907 25.064 19.8374 24.704C19.6841 24.3414 19.462 24.0134 19.1844 23.7387C18.9068 23.464 18.579 23.2454 18.2168 23.096C17.8572 22.9467 17.4712 22.8694 17.0826 22.8694H11.4726ZM20.427 33.4534C20.4234 33.3218 20.4129 33.1903 20.3952 33.0587C20.3759 32.9289 20.3494 32.8009 20.3159 32.6747C20.2842 32.5467 20.2445 32.4214 20.197 32.2987C20.1494 32.176 20.0947 32.056 20.033 31.9387C19.8982 31.728 19.7396 31.536 19.5572 31.368C19.3748 31.1974 19.1738 31.0507 18.9544 30.9334C18.7376 30.816 18.505 30.7254 18.2644 30.6667C18.0238 30.6054 17.7753 30.5787 17.5268 30.5814H11.4726V36.9094H17.3364C17.7436 36.9094 18.1481 36.8294 18.5235 36.672C18.9015 36.5147 19.2426 36.2827 19.5307 35.992C19.8189 35.7014 20.0463 35.3574 20.2022 34.976C20.3582 34.5974 20.4402 34.1894 20.4402 33.7787L20.427 33.4534ZM32.6411 30.9707C32.6305 30.8818 32.6208 30.7929 32.612 30.704C32.605 30.6151 32.5979 30.5263 32.5909 30.4374C32.5856 30.3467 32.5821 30.2569 32.5803 30.168C32.5768 30.0791 32.575 29.9903 32.575 29.9014C32.575 29.8214 32.5759 29.7414 32.5777 29.6614C32.5794 29.5814 32.5821 29.5014 32.5856 29.4214C32.5891 29.3414 32.5944 29.2614 32.6015 29.1814C32.6085 29.1014 32.6164 29.0223 32.6252 28.944C32.8341 26.7734 33.8387 24.76 35.4382 23.296C37.0377 21.832 39.121 21.0214 41.2809 21.0214C43.4408 21.0214 45.5241 21.832 47.1236 23.296C48.7231 24.76 49.7277 26.7734 49.9392 28.944C49.948 29.024 49.9551 29.104 49.9603 29.184C49.9674 29.2658 49.9727 29.3467 49.9762 29.4267C49.9815 29.5085 49.985 29.5894 49.9868 29.6694C49.9885 29.7511 49.9885 29.832 49.9868 29.912C49.9868 30.0027 49.985 30.0925 49.9815 30.1814C49.9797 30.2703 49.9762 30.3591 49.9709 30.448C49.9656 30.5387 49.9586 30.6285 49.9498 30.7174C49.941 30.8063 49.9313 30.8951 49.9207 30.984C49.6669 33.1147 48.649 35.0774 47.0575 36.504C45.466 37.928 43.4118 38.7147 41.2862 38.7147C39.158 38.7147 37.1038 37.928 35.5122 36.504C33.9207 35.0774 32.9028 33.1147 32.649 30.984L32.6411 30.9707ZM43.7925 36.728C44.5988 36.432 45.3443 35.992 45.9947 35.432C46.6477 34.872 47.195 34.1974 47.6153 33.4427C48.033 32.688 48.3159 31.8667 48.4481 31.0107C48.471 30.8436 48.4887 30.6747 48.501 30.504C48.5133 30.3334 48.5195 30.1636 48.5195 29.9947C48.5195 29.824 48.5133 29.6534 48.501 29.4827C48.4887 29.3138 48.471 29.1449 48.4481 28.976C48.2313 27.2107 47.3853 25.5867 46.0661 24.408C44.7442 23.2294 43.0443 22.5787 41.2809 22.5787C39.5202 22.5787 37.8176 23.2294 36.4983 24.408C35.1791 25.5867 34.3305 27.2107 34.1163 28.976C34.1075 29.0525 34.0996 29.1298 34.0925 29.208C34.0855 29.2863 34.0793 29.3636 34.074 29.44C34.0705 29.5183 34.0679 29.5965 34.0661 29.6747C34.0626 29.7529 34.0608 29.8311 34.0608 29.9094C34.0608 29.9983 34.0626 30.088 34.0661 30.1787C34.0696 30.2676 34.0749 30.3574 34.082 30.448C34.0872 30.5369 34.0952 30.6258 34.1057 30.7147C34.1163 30.8036 34.1278 30.8925 34.1401 30.9814C34.2697 31.8374 34.5499 32.6614 34.965 33.416C35.38 34.1734 35.9273 34.848 36.575 35.4107C37.2254 35.9734 37.9683 36.416 38.772 36.7147C39.5757 37.016 40.4243 37.168 41.2809 37.168C42.1375 37.1734 42.9888 37.024 43.7925 36.728Z" fill="white"/>
<path fill-rule="evenodd" clip-rule="evenodd" d="M26.2461 21.4506L26.5686 21.36L26.7431 21.288L27.0365 21.2506L27.2639 21.2L27.441 21.2293L27.8112 21.288L28.1707 21.2746H28.2817L28.3981 21.3226L28.5567 21.4186L28.8792 21.64L29.2361 22.1573L29.2943 22.4826V22.7146L29.1515 22.936L28.9876 23.0933L28.8369 23.2613L28.5012 23.4026L28.2262 23.4826L27.8561 23.4506H27.5626H27.256H27.0286L26.8198 23.4106H26.5051L26.2778 23.3413L26.0504 23.232L25.8918 23.0826L25.6777 22.8346L25.4873 22.7146L25.3789 22.416V22.3493V22.288L25.408 22.224L25.5243 22.0586L25.6142 21.856L25.9024 21.64L26.2276 21.4506" fill="#F9423A"/>
<path d="M25.7647 26.8987L27.5202 26.9413L27.7819 26.8827L28.1203 26.8773L28.4561 26.912L28.7125 26.9867L28.9135 27.12L28.9822 27.2107L29.0271 27.312L29.0404 27.416L29.0086 27.5253L28.9293 27.6293L28.7971 27.7333L28.5883 27.7707H28.234L27.2717 27.7013L25.7965 27.5307L25.7436 27.504L25.7066 27.4453L25.6934 27.2667L25.7647 26.8987Z" fill="#ED1849"/>
<path d="M26.2562 28.5333L26.4069 28.624L26.5047 28.6827L26.6131 28.712L26.6872 28.696L26.7797 28.6533L26.8696 28.608L26.9542 28.592L27.1049 28.6453L27.2714 28.704L27.4089 28.6613L27.549 28.6213L27.7156 28.68L27.7949 28.712H27.8768L28.3871 28.6427L28.7784 28.704L28.8048 28.7253L28.8127 28.7413L28.7995 28.792L28.7837 28.8427L28.7995 28.896L28.9 28.952L29.0084 28.9973L29.0533 29.0293L29.0824 29.08L29.0903 29.152L29.0692 29.2507L29.0322 29.3013L28.9661 29.3387L28.7414 29.3893L28.0434 29.416L27.0388 29.2853L26.169 29.1227L26.0421 29.0667L25.9416 28.952L25.8835 28.816L25.8623 28.6907L26.2562 28.5333Z" fill="#ED037C"/>
<path d="M26.0211 29.4854L26.2854 29.5894L26.4229 29.64L26.5525 29.6374L27.7448 29.5814L28.226 29.624L28.6014 29.7147L28.7679 29.7627L28.8657 29.8027L28.9451 29.8614L29.027 30.0134L29.0402 30.16L29.0085 30.2854L28.9424 30.3627V30.4427H27.7739L27.3826 30.448L26.9993 30.4134L26.608 30.344L26.2643 30.288L26.0131 30.248L25.9127 30.2214L25.8466 30.16L25.7488 29.9494L25.7012 29.728L26.0211 29.4854Z" fill="#ED037C"/>
<path d="M26.1084 30.8933L26.6371 30.9653L26.8116 30.9813L26.9703 30.9573L27.1738 30.936L27.4964 30.9626L27.959 30.9706L28.4243 30.944L28.5856 30.9413L28.7231 31L28.961 31.2026L29.0456 31.3013L29.0905 31.4213L29.1038 31.5466L29.0747 31.6773L28.9293 32.0773L28.85 32.2533L28.731 32.3946L28.6675 32.424L28.5856 32.4293L28.3873 32.392L28.1837 32.336L28.004 32.3146L27.8771 32.344L27.766 32.4L27.6497 32.4506L27.5175 32.4666L27.1342 32.3653L26.9253 32.336L26.6794 32.3786L26.6134 32.384L26.5525 32.3573L26.4891 32.3253L26.423 32.3066L26.275 32.304L26.2168 32.2853L26.1877 32.248L26.0079 31.968L25.8097 31.7386L25.7356 31.6346L25.7065 31.512L25.7515 31.368L25.8599 31.2133L26.1084 30.8933Z" fill="#A9218E"/>
<path d="M26.7085 33.632L26.9067 33.6213L27.105 33.64L28.2366 33.7547L28.5565 33.8053L28.8578 33.888L28.9953 33.9707L29.1143 34.096L29.22 34.2773L29.2967 34.52L29.3549 34.9333L29.3337 35.1413L29.2597 35.3307L29.1566 35.456L29.0191 35.56L28.6516 35.7173L27.6893 35.8427L27.3879 35.8027L27.0892 35.7173L26.801 35.6347L26.5128 35.6053L26.111 35.5547L25.8096 35.4053L25.606 35.192L25.5003 34.9493L25.4712 34.6773L25.5373 34.448L25.6695 34.256L25.844 34.096L26.2194 33.888L26.4758 33.7947L26.5419 33.7627L26.5895 33.7173L26.6344 33.6693L26.7085 33.632Z" fill="#353D98"/>
<path d="M27.5784 36.84L27.9485 36.872L28.3372 37.0133L28.4482 37.12L28.5407 37.208L28.7337 37.248L28.8263 37.2773L28.8871 37.3333L28.9875 37.776L28.9955 38.0586L28.9505 38.2933L28.8633 38.4453L28.747 38.5706L28.4271 38.7733L28.0305 38.9093L27.5837 38.9786L27.1237 38.984L26.6875 38.9333L26.3041 38.832L26.0054 38.6826L25.9129 38.5946L25.852 38.4853L25.7727 38.248L25.7437 37.984L25.7965 37.7493L25.9181 37.5546L26.0794 37.3866L26.476 37.1573L26.8461 37.0533L27.2189 36.9386L27.5784 36.84Z" fill="#002E56"/>
</g>
<defs>
<clipPath id="clip0_1772_9245">
<rect width="40" height="18" fill="white" transform="translate(10 21)"/>
</clipPath>
</defs>
</svg>
