<svg width="60" height="60" viewBox="0 0 60 60" fill="none" xmlns="http://www.w3.org/2000/svg">
<rect width="60" height="60" fill="#BE2BBB"/>
<path d="M27.1991 48.8326C26.9076 49.4281 26.2881 49.8116 25.6209 49.8116C25.3543 49.8116 25.0973 49.7532 24.8569 49.6367C19.3556 46.9972 16.4495 42.3458 16.4495 36.1837V29.224C16.4495 28.2666 17.2356 27.4884 18.2025 27.4884C19.169 27.4884 19.9559 28.2666 19.9559 29.224V36.1834C19.9559 40.9898 22.119 44.4653 26.3871 46.5147C27.256 46.9327 27.6209 47.9724 27.1991 48.8326ZM22.0114 32.7022C22.0114 33.6863 22.8172 34.4833 23.8103 34.4833C24.8041 34.4833 25.6099 33.6863 25.6099 32.7022V18.5C25.6099 17.5156 24.8044 16.719 23.8103 16.719C22.8172 16.719 22.0114 17.5156 22.0114 18.5V32.7022ZM27.5778 32.2894C27.5778 33.2728 28.3833 34.0701 29.3764 34.0701C30.3702 34.0701 31.1756 33.2728 31.1756 32.2894V13.1944C31.1756 12.2106 30.3702 11.4147 29.3764 11.4147C28.3833 11.4147 27.5778 12.2106 27.5778 13.1944V32.2894ZM33.1439 33.6033C33.1439 34.5871 33.9494 35.3837 34.9425 35.3837C35.9366 35.3837 36.7421 34.5871 36.7421 33.6033V16.4618C36.7421 15.4781 35.9366 14.6808 34.9425 14.6808C33.9494 14.6808 33.1439 15.4781 33.1439 16.4618V33.6033ZM38.71 35.872C38.71 36.8264 39.4913 37.5995 40.4547 37.5995C41.4185 37.5995 42.1998 36.8264 42.1998 35.872V24.2872C42.1998 23.3328 41.4185 22.5594 40.4547 22.5594C39.4913 22.5594 38.71 23.3328 38.71 24.2872V35.872Z" fill="white"/>
</svg>
