<svg width="60" height="60" viewBox="0 0 60 60" fill="none" xmlns="http://www.w3.org/2000/svg">
<rect width="60" height="60" fill="#31865F"/>
<g clip-path="url(#clip0_147_228)">
<path d="M44.8976 37.8729C44.8976 39.4101 44.4817 40.5759 43.6717 41.3478C42.8617 42.1057 41.7545 42.4912 40.3653 42.4912H16.4337V42.5276H14.3608V33.1596H16.4337V33.1886H40.99C43.5833 33.4362 44.8976 35.0098 44.8976 37.8729ZM47.7966 16.0387C47.0093 15.2882 45.9914 14.6905 44.7654 14.2463C43.5244 13.8096 42.0534 13.5834 40.3669 13.5834H9.08582V18.7053H40.3661C41.7478 18.7053 42.8626 19.0917 43.6726 19.8562C44.4825 20.6281 44.8985 21.7938 44.8985 23.3311C44.8985 24.8609 44.4901 26.0481 43.6801 26.8497C42.8701 27.6588 41.7554 28.0666 40.3661 28.0666H14.3608V28.0377H9.08582V47.6132H40.3661C42.0896 47.6132 43.5909 47.3944 44.8244 46.9502C46.0503 46.5061 47.0758 45.9083 47.8555 45.1653C48.6427 44.4223 49.2304 43.5331 49.6018 42.535C49.9806 41.5294 50.1735 40.4223 50.1735 39.2417V36.3291C50.1735 32.8831 46.0427 30.7192 44.4522 30.7192C44.3857 30.7192 44.3335 30.6606 44.3335 30.6028C44.3335 30.5376 44.3857 30.4864 44.4522 30.4864C46.0419 30.4864 50.1735 28.3151 50.1735 24.8765V21.9548C50.1735 20.818 49.9731 19.7183 49.579 18.6913C49.1923 17.6887 48.5832 16.7829 47.7957 16.0395" fill="white"/>
</g>
<defs>
<clipPath id="clip0_147_228">
<rect width="42" height="35" fill="white" transform="translate(9 13)"/>
</clipPath>
</defs>
</svg>
