<svg width="60" height="60" viewBox="0 0 60 60" fill="none" xmlns="http://www.w3.org/2000/svg">
<rect width="60" height="60" fill="#002856"/>
<g clip-path="url(#clip0_168_273)">
<path d="M12.1958 10.2009H47.8091V48.8328H12.1958V10.2009Z" fill="#002856"/>
<path fill-rule="evenodd" clip-rule="evenodd" d="M12.1958 10.2009H47.8091V48.8328H12.1958V10.2009Z" stroke="#002856" stroke-width="9.1"/>
<path fill-rule="evenodd" clip-rule="evenodd" d="M40.1969 39.8996C40.1969 42.3357 38.5711 45.2346 32.8773 45.2346H26.1963V44.3649H27.5905C27.8805 44.3649 27.9976 44.192 27.9976 43.9021V32.9396C27.9586 32.9396 27.9195 32.9396 27.8805 32.9396H21.2581V32.0699H22.5937C22.9423 32.0699 23.0008 31.8945 23.0008 31.6046V19.4825C23.0008 16.5251 23.0008 15.4215 22.2452 15.4215H20.5024V14.5518H29.2162C32.1217 14.5518 34.04 16.1183 34.04 18.6128C34.04 20.7006 32.3532 21.9771 30.6104 22.6154V22.6713C32.8773 23.1367 34.7956 24.6446 35.1441 26.9053C37.5255 27.2537 39.0342 28.7057 39.0342 30.9078C39.0342 32.9981 37.3499 34.2721 35.6072 34.9104V34.9689C38.047 35.4902 40.1969 37.232 40.1969 39.8996ZM30.4374 32.7057V34.4476C33.1673 34.4476 33.6914 34.506 34.5615 34.679C35.8972 33.9822 36.7699 32.9981 36.7699 31.3732C36.7699 29.8652 36.0728 28.9371 35.1441 28.4158C34.9101 30.2136 33.6329 32.0699 30.4374 32.7057ZM27.9976 31.8945V31.78C27.9976 28.8201 27.939 27.719 27.1834 27.719H25.4992V28.2988C25.4992 31.8945 25.7892 31.8945 26.6619 31.8945H27.9976ZM31.076 27.8919C30.6104 27.8919 30.4959 27.8919 30.4959 28.4158V31.5461C32.1802 30.8519 32.7603 29.2854 32.7603 27.8919H31.076ZM25.5577 23.0197V26.8493H32.7017C32.3532 25.2244 31.0175 23.0197 27.1249 23.0197H25.5577ZM25.5577 22.15C28.2901 22.15 28.8117 22.2085 29.6843 22.3814C31.02 21.6872 31.8901 20.7006 31.8901 19.0757C31.8901 16.5251 29.8574 15.597 28.4631 15.597H26.1403C25.7333 15.597 25.5577 15.597 25.5577 16.1183V22.15ZM37.8181 40.0725C37.8181 38.5645 36.8869 35.3172 32.1242 35.3172H30.5545V40.5938C30.5545 44.192 30.8445 44.192 31.7171 44.192H33.5769C36.7699 44.192 37.8181 41.9288 37.8181 40.0725Z" fill="white"/>
<path d="M47.8091 49.8754L12.1958 49.9924V48.8887L47.7506 48.7158L47.8091 49.8754Z" fill="#C50D3C"/>
</g>
<defs>
<clipPath id="clip0_168_273">
<rect width="36" height="40" fill="white" transform="translate(12 10)"/>
</clipPath>
</defs>
</svg>
