<svg width="60" height="60" viewBox="0 0 60 60" fill="none" xmlns="http://www.w3.org/2000/svg">
<rect width="60" height="60" fill="#004685"/>
<g clip-path="url(#clip0_1746_9058)">
<path d="M21.9153 38.6012L21.8391 38.6742C20.6427 39.8807 19.2583 40.5181 17.8321 40.5181C14.8536 40.5181 12.693 38.3066 12.693 35.2563C12.693 32.2106 14.8536 29.9956 17.8321 29.9956C19.2583 29.9956 20.6427 30.6365 21.8391 31.8477L21.9153 31.9196L23.8307 29.6268L23.7795 29.5655C22.1867 27.7028 20.2749 26.7967 17.925 26.7967C15.5691 26.7967 13.412 27.5826 11.8597 28.9976C10.1693 30.5316 9.28003 32.6948 9.28003 35.2563C9.28003 37.8177 10.1693 39.9856 11.8597 41.5196C13.412 42.9429 15.5691 43.7229 17.925 43.7229C20.2749 43.7229 22.1867 42.8157 23.7795 40.9517L23.8307 40.8952L21.9153 38.6012Z" fill="white"/>
<path d="M25.7653 43.4102H29.1485V27.0613H25.7653V43.4102Z" fill="white"/>
<path d="M42.4035 39.8561C41.4999 40.4004 40.6607 40.675 39.9059 40.675C38.8119 40.675 38.3167 40.1023 38.3167 38.8299V30.1547H41.7654V27.0772H38.3167V21.9897L35.0013 23.7476V27.0772H32.1395V30.1547H35.0013V39.3825C35.0013 41.8956 36.506 43.6158 38.7536 43.6605C40.2785 43.69 41.1976 43.2399 41.7547 42.91L41.7904 42.8876L42.6035 39.7347L42.4035 39.8561Z" fill="white"/>
<path d="M45.2039 43.4102H48.5918V27.0613H45.2039V43.4102Z" fill="white"/>
<path d="M50.5652 24.1956C47.4737 19.8621 42.3405 17.2771 37.1181 17.2771C31.8968 17.2771 26.7625 19.8621 23.6769 24.1956L23.5173 24.4183H27.4101L27.4529 24.3723C30.1016 21.6648 33.561 20.2344 37.1181 20.2344C40.6751 20.2344 44.1321 21.6648 46.7868 24.3723L46.8296 24.4183H50.72L50.5652 24.1956Z" fill="#EE1C25"/>
</g>
<defs>
<clipPath id="clip0_1746_9058">
<rect width="42" height="27" fill="white" transform="translate(9 17)"/>
</clipPath>
</defs>
</svg>
