<svg width="60" height="60" viewBox="0 0 60 60" fill="none" xmlns="http://www.w3.org/2000/svg">
<rect width="60" height="60" fill="black"/>
<g clip-path="url(#clip0_1403_8886)">
<path d="M22.0038 21.5799L21.9979 26.1182C21.9801 26.2944 21.8441 26.3153 21.8214 26.129C21.6489 23.6069 18.7046 21.2598 15.9434 22.2658C12.6495 23.4673 12.1963 27.1183 12.5541 29.9359C12.6955 31.0529 12.9995 32.0693 13.7667 33.0224C14.5378 33.9815 15.5953 34.622 16.8783 34.7333C18.9648 34.9144 20.8262 33.9485 21.982 32.3183C22.0122 32.2746 22.1095 32.3411 22.0959 32.3689C20.8087 35.2857 16.7174 36.5697 13.6833 34.8031C9.71564 32.4916 9.05939 27.6981 11.4787 24.2034C13.4686 21.3274 17.5667 20.5492 20.7607 22.2567C21.2424 22.5142 21.5931 21.9728 21.8341 21.579L22.0038 21.5799ZM48.2542 22.5853C48.2542 21.6566 49.6718 21.7845 49.8531 21.7513V21.4471H44.3634V21.7513C44.546 21.7845 46.036 21.6742 46.036 22.5853V34.2409C46.036 34.9137 44.6907 35.0423 44.3634 35.0344V35.3376H49.8531V35.0344C49.4544 35.0423 48.2542 34.9137 48.2542 34.2409V22.5853ZM43.8674 21.579C43.6257 21.9728 43.276 22.5142 42.7943 22.2567C39.5999 20.5495 35.5022 21.3274 33.512 24.2034C31.0923 27.6985 31.748 32.4916 35.7169 34.8031C38.7504 36.5697 42.8413 35.2857 44.1298 32.3689C44.1431 32.3411 44.0451 32.2746 44.015 32.3183C42.8591 33.9485 40.9978 34.9144 38.9116 34.7333C37.6292 34.622 36.572 33.9815 35.8 33.0224C35.0334 32.0693 34.7295 31.0529 34.5871 29.9359C34.2299 27.1183 34.6834 23.4673 37.9776 22.2658C40.7386 21.2598 43.6828 23.6066 43.8544 26.129C43.8771 26.3149 44.013 26.2944 44.0315 26.1182L44.0377 21.5803L43.8674 21.579ZM29.0785 29.9901L26.9936 25.2584L25.0333 29.9901H29.0785ZM33.2385 34.4931C33.5292 35.1144 34.1835 35.1238 34.4923 35.1238V35.3434L29.4571 35.3457V35.1333C30.0134 35.1343 31.2386 35.0233 30.9298 34.2562L29.4752 30.8907L29.4713 30.8819H24.6641L24.6599 30.8936L23.2397 34.0725C22.9546 34.9016 23.8827 35.0139 24.6573 35.133V35.3444L21.0033 35.3431V35.1327C21.4432 34.9858 21.6956 34.8429 21.8935 34.4745L27.5658 21.5215L33.2385 34.4931Z" fill="white"/>
<path d="M49.9736 37.5085H10.8635V38.8399H49.9736V37.5085Z" fill="#ED1B2D"/>
</g>
<defs>
<clipPath id="clip0_1403_8886">
<rect width="40" height="18" fill="white" transform="translate(10 21)"/>
</clipPath>
</defs>
</svg>
