<svg width="60" height="60" viewBox="0 0 60 60" fill="none" xmlns="http://www.w3.org/2000/svg">
<rect width="60" height="60" fill="#E03432"/>
<g clip-path="url(#clip0_150_640)">
<path d="M29.0771 29.5498C29.4218 29.311 29.777 29.0977 30.144 28.8688C30.4165 29.1471 30.6737 29.4167 30.9156 29.7061C30.5568 29.8961 30.2104 30.1117 29.8792 30.3093C29.629 30.0542 29.3601 29.7945 29.0771 29.5498ZM27.6502 28.3911C27.979 28.1238 28.3407 27.8571 28.7365 27.5938C29.0324 27.8443 29.319 28.0883 29.5897 28.3376C29.2062 28.5736 28.8434 28.8048 28.5063 29.0582C28.235 28.824 27.9485 28.6148 27.6502 28.3911ZM53.7306 25.6494L53.6643 25.5966C44.9449 25.947 36.7647 28.6456 31.2638 32.0032C31.033 31.6505 30.7723 31.3181 30.4828 30.9718C35.42 27.9558 42.3084 25.4379 48.1745 24.6784L48.0953 24.6348C41.8163 25.2584 35.6742 27.1469 31.3061 29.4894C31.1311 29.182 30.9185 28.8688 30.6754 28.5672C34.4969 26.3903 39.4153 24.6383 44.1111 23.7864L44.0436 23.7393C38.5627 24.5604 33.6067 26.076 30.1839 27.9971C29.9361 27.724 29.6654 27.4666 29.3683 27.201C29.7265 26.986 30.0988 26.7797 30.4899 26.5746C30.6596 26.7471 30.8257 26.9244 30.9831 27.1051L31.1763 26.9232C31.0683 26.7425 30.952 26.5722 30.8281 26.4002C33.6431 24.9864 37.134 23.8614 39.8504 23.3337L39.777 23.2884C36.999 23.7771 33.302 24.611 30.4723 25.9499C28.1475 23.2222 23.4265 21.3597 16.5662 20.04L16.5063 20.0796C22.7095 21.4719 27.255 23.5604 30.0524 26.1538C29.6455 26.3595 29.2614 26.5769 28.9021 26.8082C25.6102 24.1293 19.7899 21.7258 12.1152 20.6049L12.0501 20.6415C18.8152 21.8577 24.4752 24.274 28.2855 27.2359C27.9068 27.5212 27.5703 27.8141 27.2867 28.1313C23.0565 25.166 16.356 22.6707 7.39357 21.5224L7.33133 21.5637C14.7435 22.7352 22.464 25.3205 27.7042 29.6817C27.0136 30.2669 26.4552 30.8817 26.0659 31.5081L26.2867 31.7382C26.8545 31.1914 27.5063 30.658 28.2286 30.1344C28.5016 30.3645 28.7659 30.615 29.0242 30.8648C27.2221 32.0875 25.9303 33.4072 25.3507 34.6781L25.5879 34.8721C26.5891 33.7262 27.9866 32.589 29.6466 31.4994C29.9479 31.8283 30.2344 32.141 30.5069 32.4821C27.1246 34.6868 24.8933 37.121 24.3942 39.3588L24.6566 39.5367C26.0824 37.1565 28.3707 35.0749 31.1088 33.2497C31.5351 33.8407 31.9262 34.4445 32.2714 35.0941L32.5116 34.9407C32.3877 34.2457 32.1352 33.5455 31.7641 32.8493C38.6455 28.53 48.0242 25.9929 53.7306 25.6494Z" fill="white"/>
</g>
<defs>
<clipPath id="clip0_150_640">
<rect width="47" height="20" fill="white" transform="translate(7 20)"/>
</clipPath>
</defs>
</svg>
