<svg width="60" height="60" viewBox="0 0 60 60" fill="none" xmlns="http://www.w3.org/2000/svg">
<rect width="60" height="60" fill="url(#paint0_linear_150_881)"/>
<g clip-path="url(#clip0_150_881)">
<path d="M28.0789 22.9186C28.4337 22.9073 28.7874 22.8561 29.1434 22.8627C30.2097 22.8692 31.276 22.8466 32.3417 22.8817C32.7528 22.9417 33.1704 22.9037 33.581 22.9649C34.3783 22.9822 35.168 23.1017 35.9617 23.1694C38.0375 23.4476 40.112 23.7984 42.1219 24.4006C43.9406 24.9255 45.7527 25.5616 47.3634 26.5764C47.9723 26.9753 48.5825 27.392 49.0635 27.9455C49.6559 28.5709 50.0783 29.4121 50.0516 30.2901C50.0717 30.7235 49.9195 31.1408 49.7501 31.532C49.4657 32.1746 49.0037 32.7162 48.4948 33.1912C47.8527 33.7524 47.1323 34.2131 46.4001 34.6459C44.7936 35.5031 43.0526 36.078 41.2837 36.4894C40.8294 36.6327 40.3572 36.7034 39.8916 36.7961C38.7614 37.0327 37.621 37.2087 36.4801 37.3835C35.4256 37.5672 34.3564 37.6249 33.2925 37.7182C33.0336 37.7241 32.7735 37.7164 32.5159 37.7455C32.1036 37.7984 31.6871 37.7735 31.2724 37.78C30.4241 37.8062 29.5753 37.7937 28.7264 37.7919C28.1553 37.7562 27.5801 37.8169 27.0114 37.7366C23.687 37.5809 20.372 37.0833 17.1601 36.1975C15.7087 35.7457 14.2728 35.2172 12.9435 34.4705C12.2623 34.0473 11.6047 33.5752 11.0591 32.9819C10.6859 32.5759 10.3027 32.1556 10.0787 31.6444C9.77128 30.8323 9.79676 29.8841 10.1854 29.1035C10.3323 28.8069 10.5574 28.562 10.754 28.2992C11.6782 27.1994 12.8594 26.3309 14.1508 25.7132C14.8154 25.3756 15.5221 25.1342 16.2176 24.8691C17.1968 24.5617 18.1671 24.2068 19.1819 24.0344C21.2132 23.5856 23.2753 23.2919 25.3445 23.0993C26.255 23.0274 27.1637 22.912 28.0789 22.9186ZM26.1246 23.6117C24.774 23.6587 23.4275 23.7681 22.0834 23.9042C19.6682 24.2026 17.2478 24.6865 15.0085 25.6704C14.8308 25.7501 14.6531 25.8297 14.4754 25.9082C13.4399 26.3749 12.4607 26.9812 11.6059 27.7321C11.3879 27.9526 11.1758 28.1797 10.9715 28.4134C10.558 28.9466 10.1492 29.5387 10.0716 30.2277C10.0047 31.0653 10.3477 31.9149 10.9377 32.5046C12.0176 33.6721 13.4589 34.4194 14.9215 34.9883C16.515 35.543 18.1375 36.0287 19.8009 36.3206C21.9833 36.7498 24.1982 37.0018 26.4184 37.0916C26.9078 37.1546 27.403 37.1094 27.8935 37.1635C28.2086 37.1903 28.5261 37.1921 28.8425 37.1903C29.6144 37.1873 30.3862 37.201 31.1575 37.1683C31.728 37.1225 32.3008 37.1326 32.8731 37.1296C34.7266 36.9834 36.5826 36.8485 38.4302 36.6249C38.91 36.5554 39.3863 36.462 39.8685 36.4074C41.2553 36.188 42.6213 35.8408 43.9554 35.4039C45.1206 34.999 46.2935 34.5508 47.2964 33.8154C48.1903 33.2079 49.0321 32.4505 49.5078 31.4601C49.7773 30.925 49.8834 30.3109 49.7951 29.7176C49.644 28.9496 49.1618 28.2838 48.5754 27.7856C47.9161 27.2077 47.1531 26.7607 46.367 26.3808C45.4973 26.0033 44.6129 25.6615 43.7149 25.3595C41.5971 24.6699 39.4065 24.2306 37.2022 23.9327C36.3107 23.8477 35.4239 23.7033 34.5282 23.6741C34.12 23.6046 33.7048 23.6522 33.2942 23.6058C32.8393 23.5511 32.3784 23.5951 31.9235 23.5333C30.5805 23.5029 29.2358 23.4988 27.8929 23.5333C27.3052 23.5992 26.7123 23.5445 26.1246 23.6117Z" fill="#FEFEFE"/>
<path d="M20.0705 26.715C20.5426 26.646 21.0627 26.652 21.4744 26.926C21.6817 27.0657 21.8778 27.3297 21.757 27.5883C21.6267 28.0234 21.0218 28.1804 20.6836 27.8992C20.5053 27.7149 20.529 27.4444 20.6688 27.2464C20.6498 27.2197 20.6131 27.1662 20.5941 27.14C19.7873 26.9962 18.9372 27.2328 18.2963 27.7393C17.9438 28.03 17.5931 28.3385 17.3437 28.7261C16.8947 29.4318 16.544 30.2634 16.6518 31.1171C16.73 31.5338 16.9237 31.9755 17.3159 32.1806C17.7975 32.4654 18.4029 32.4196 18.9035 32.2098C19.3306 32.0742 19.7008 31.8204 20.0805 31.5903C20.1238 31.6474 20.1611 31.7092 20.2014 31.7693C20.074 32.0766 19.7399 32.202 19.4816 32.3756C18.6979 32.7757 17.7596 32.9695 16.903 32.7008C16.265 32.5361 15.7591 31.9856 15.5909 31.3537C15.4866 31.0321 15.499 30.6885 15.5103 30.355C15.5103 30.1035 15.5932 29.8628 15.685 29.6315C15.9481 28.9817 16.3929 28.4146 16.9373 27.9782C17.4071 27.6364 17.8976 27.3112 18.4396 27.0966C18.9669 26.9123 19.5077 26.7286 20.0705 26.715Z" fill="#FEFEFE"/>
<path d="M35.8036 26.8785C35.9896 26.7822 36.1762 26.9135 36.3089 27.0378C36.4001 27.3422 36.3219 27.706 36.0613 27.9033C35.9132 28.0585 35.6881 28.0448 35.4926 28.0389C35.1135 27.6971 35.338 27.011 35.8036 26.8785Z" fill="#FEFEFE"/>
<path d="M27.8805 30.1588C28.3342 29.5518 28.6369 28.7171 29.4189 28.4603C29.5225 28.4835 29.6268 28.5031 29.7322 28.521C29.9194 28.7076 30.0403 28.9674 30.0136 29.2361C29.9911 29.3039 29.9704 29.3723 29.952 29.4418C29.814 29.6237 29.6108 29.7563 29.3762 29.7527C29.2808 29.6998 29.1878 29.6439 29.1008 29.5785C29.0818 29.446 29.0498 29.3152 29.0054 29.1886C28.7708 29.3051 28.5931 29.5036 28.461 29.7266C28.0499 30.4798 27.6216 31.2306 27.3408 32.0456C27.2573 32.2579 27.2223 32.498 27.0612 32.6704C26.8307 32.6835 26.5979 32.6889 26.3681 32.6592C26.3231 32.6068 26.2905 32.5462 26.2538 32.4885C26.5837 31.4179 26.9682 30.3633 27.2324 29.273C27.23 29.2343 27.2253 29.1571 27.2229 29.1184C26.8941 29.2766 26.6892 29.5928 26.4457 29.8508C26.3965 29.9186 26.3148 29.9364 26.2372 29.943C26.201 29.8235 26.2704 29.7129 26.3225 29.6106C26.6193 29.2153 26.954 28.8283 27.3959 28.5917C27.5588 28.5043 27.7501 28.4883 27.9308 28.5192C28.147 28.691 28.1648 29.0067 28.0984 29.2557C28.0481 29.5625 27.9462 29.8568 27.8805 30.1588Z" fill="#FEFEFE"/>
<path d="M33.1029 28.6773C33.3304 28.5335 33.6461 28.3563 33.8854 28.5786C34.1206 28.8325 34.1805 29.2665 33.9642 29.5524C33.809 29.7206 33.5496 29.8229 33.3328 29.7177C33.158 29.5899 33.2261 29.32 33.0514 29.1892C32.7267 29.4632 32.5206 29.8431 32.2943 30.1962C32.1243 30.5571 31.9057 30.893 31.7594 31.2651C31.568 31.661 31.4259 32.0772 31.2713 32.4885C31.2499 32.5587 31.1931 32.6068 31.1504 32.6633C30.9235 32.7073 30.683 32.7495 30.4638 32.6514C30.311 32.5522 30.4153 32.3393 30.4437 32.1978C30.7464 31.2645 31.0319 30.3252 31.3192 29.3871C31.3423 29.3057 31.3169 29.2207 31.3145 29.1386C30.9526 29.2908 30.7701 29.6547 30.5059 29.9204C30.4555 29.9269 30.3554 29.9412 30.3057 29.9483C30.292 29.638 30.5681 29.4484 30.728 29.2171C31.055 28.817 31.5526 28.4045 32.103 28.5745C32.4134 29.0923 32.065 29.6743 31.9774 30.204C32.3298 29.6808 32.5875 29.0685 33.1029 28.6773Z" fill="#FEFEFE"/>
<path d="M38.1192 28.7783C38.6097 28.4734 39.2098 28.386 39.7749 28.4763C40.0083 28.5275 40.2476 28.6077 40.4224 28.7789C40.5124 28.8812 40.5663 29.0084 40.6256 29.1297C40.7737 29.5452 40.5249 29.9774 40.2174 30.2467C39.5166 30.8192 38.5765 30.8804 37.7294 31.0778C37.6246 31.3691 37.605 31.7466 37.8254 31.9909C38.1068 32.2721 38.5552 32.3494 38.9213 32.2031C39.3123 32.0789 39.6375 31.8245 39.9615 31.5831C40.0231 31.5022 40.099 31.5771 40.1671 31.5997C40.0261 31.9535 39.7246 32.2031 39.4207 32.4136C39.0688 32.6835 38.6381 32.8208 38.2081 32.8993C37.669 32.9522 37.0559 32.731 36.8017 32.2233C36.6163 31.8322 36.5618 31.3774 36.6513 30.9535C36.7632 30.0505 37.3242 29.2171 38.1192 28.7783ZM38.9426 28.8217C38.2726 29.1867 38.0629 29.9839 37.8307 30.6557C38.1589 30.6563 38.4859 30.5951 38.7927 30.4785C39.1541 30.3109 39.5249 30.0505 39.6221 29.6385C39.6955 29.3889 39.6961 29.1005 39.5386 28.883C39.3768 28.7415 39.1263 28.6897 38.9426 28.8217Z" fill="#FEFEFE"/>
<path d="M23.2154 28.5709C23.5999 28.4633 24.0779 28.4467 24.3605 28.7808C24.4192 28.6845 24.479 28.5882 24.5424 28.4937C24.8101 28.4966 25.0791 28.4919 25.3462 28.5192C25.0441 29.4823 24.7467 30.4471 24.4446 31.4102C24.3729 31.6486 24.2699 31.8816 24.2634 32.1343C24.7219 32.0605 24.8332 31.516 25.239 31.3484C25.3368 31.6171 25.1016 31.8388 24.947 32.0273C24.5992 32.3715 24.2089 32.7704 23.6923 32.8007C23.4796 32.8322 23.2995 32.6556 23.2379 32.4666C23.1988 32.2526 23.2415 32.0338 23.2362 31.818C22.8695 32.1878 22.5152 32.6069 22.0052 32.7763C21.8044 32.831 21.5988 32.828 21.3968 32.7828C21.0905 32.6217 20.888 32.3013 20.85 31.9589C20.76 31.189 21.0846 30.4358 21.51 29.8128C21.9329 29.2385 22.5247 28.7701 23.2154 28.5709ZM23.4162 28.9288C22.5069 29.5584 21.9317 30.6344 21.8518 31.7336C21.9572 32.0207 22.3103 32.1212 22.5656 31.9648C23.277 31.5338 23.6165 30.7277 23.931 29.9935C24.0406 29.6981 24.2314 29.4103 24.1692 29.0804C24.1455 29.0418 24.0981 28.9657 24.0744 28.927C23.8682 28.8093 23.6254 28.8325 23.4162 28.9288Z" fill="#FEFEFE"/>
<path d="M43.8434 28.7612C44.0407 28.5929 44.2966 28.5079 44.5531 28.4984C44.761 28.6565 44.9458 28.8866 44.9002 29.1666C44.9393 29.4912 44.6514 29.7189 44.3748 29.8075C44.2699 29.754 44.1491 29.7225 44.0608 29.644C43.9927 29.5013 43.9643 29.3432 43.905 29.1969C43.4945 29.452 43.3085 29.9151 43.0775 30.3169C42.7214 30.9881 42.3482 31.6593 42.1338 32.3929C42.106 32.5272 42.0307 32.6414 41.93 32.7317C41.6794 32.7115 41.3986 32.7721 41.1795 32.6176C41.4372 31.5505 41.866 30.5333 42.1036 29.4609C42.1273 29.3586 42.1296 29.2534 42.1261 29.1494C41.7724 29.2819 41.6249 29.6582 41.3548 29.8931C41.2997 29.9561 41.2085 29.9394 41.135 29.9555C41.1279 29.9168 41.1137 29.839 41.1066 29.8003C41.4591 29.3372 41.8133 28.8236 42.3713 28.5953C42.5378 28.5513 42.7131 28.5727 42.8843 28.5668C42.9756 28.6922 43.0283 28.8402 43.0431 28.9942C43.0123 29.4258 42.8636 29.8336 42.7783 30.2539C43.1195 29.748 43.3594 29.1529 43.8434 28.7612Z" fill="#FEFEFE"/>
<path d="M34.963 28.8343C35.0092 28.7332 35.0311 28.559 35.1786 28.5757C35.4215 28.5721 35.6815 28.5281 35.9067 28.647C35.752 29.2736 35.5453 29.8853 35.3433 30.4976C35.1834 30.9429 35.0376 31.3935 34.8978 31.8453C34.8599 31.9678 34.8747 32.0974 34.8783 32.2234C35.3232 32.1117 35.5423 31.6539 35.9375 31.4524C35.9499 31.5748 35.9617 31.7068 35.8782 31.8091C35.5862 32.2157 35.1804 32.5373 34.7308 32.7531C34.5045 32.8601 34.2521 32.8536 34.0081 32.8453C33.8055 32.5974 33.7717 32.252 33.8872 31.9583C34.2444 30.9168 34.604 29.8758 34.963 28.8343Z" fill="#FEFEFE"/>
<path d="M18.8946 23.2931C21.8589 22.5505 24.912 22.2373 27.9563 22.0857C29.1416 22.0946 30.3276 22.0643 31.5124 22.1059C32.0473 22.1606 32.5858 22.1225 33.1207 22.1701C33.4127 22.2105 33.7083 22.198 34.0021 22.217C34.4482 22.2598 34.8931 22.3074 35.3392 22.3478C36.3622 22.4964 37.3959 22.5719 38.4113 22.7729C39.5729 22.972 40.7293 23.2122 41.8684 23.516C43.0816 23.8638 44.2847 24.2525 45.4429 24.7567C46.4298 25.2019 47.4238 25.6555 48.3058 26.2922C49.0025 26.8255 49.6908 27.3962 50.1902 28.1274C50.6647 28.8033 50.9633 29.6308 50.8934 30.4661C50.8199 31.5112 50.3229 32.4891 49.6529 33.2774C49.0203 33.9795 48.2851 34.593 47.467 35.0662C46.4404 35.6856 45.3362 36.1737 44.1935 36.5328C42.853 36.9911 41.4733 37.3216 40.0972 37.6498C38.1056 38.0808 36.0885 38.4066 34.0566 38.5623C33.1308 38.658 32.1995 38.6628 31.2724 38.7347C29.8365 38.73 28.3982 38.7936 26.964 38.6854C26.6027 38.683 26.2425 38.6545 25.8829 38.623C25.3445 38.6271 24.8149 38.5148 24.2788 38.485C21.2185 38.1634 18.1588 37.5927 15.2828 36.4662C14.2296 36.0607 13.2166 35.5578 12.2279 35.0156C11.7688 34.7142 11.3441 34.3629 10.9223 34.0122C10.0195 33.2156 9.18008 32.2204 9 30.9862V30.1522C9.04384 29.912 9.07701 29.6683 9.15935 29.4376C9.5444 28.3699 10.263 27.4443 11.1391 26.7357C12.4542 25.627 14.0643 24.9671 15.6264 24.2936C16.698 23.9066 17.7916 23.5802 18.8946 23.2931ZM28.0789 22.9185C27.1637 22.912 26.255 23.0273 25.3445 23.0993C23.2753 23.2919 21.2132 23.5855 19.1819 24.0344C18.1671 24.2068 17.1968 24.5617 16.2176 24.869C15.5221 25.1342 14.8154 25.3755 14.1508 25.7132C12.8594 26.3309 11.6782 27.1994 10.754 28.2992C10.5574 28.5619 10.3323 28.8069 10.1854 29.1035C9.79676 29.8841 9.77128 30.8323 10.0787 31.6443C10.3027 32.1556 10.6859 32.5759 11.0591 32.9819C11.6047 33.5752 12.2623 34.0472 12.9435 34.4705C14.2728 35.2172 15.7087 35.7457 17.1601 36.1975C20.372 37.0833 23.687 37.5808 27.0114 37.7366C27.5801 37.8168 28.1553 37.7562 28.7264 37.7919C29.5753 37.7937 30.4242 37.8061 31.2724 37.78C31.6871 37.7734 32.1036 37.7984 32.5159 37.7455C32.7735 37.7164 33.0336 37.7241 33.2925 37.7182C34.3564 37.6248 35.4256 37.5672 36.4801 37.3835C37.621 37.2087 38.7614 37.0327 39.8916 36.7961C40.3572 36.7034 40.8294 36.6326 41.2837 36.4894C43.0526 36.078 44.7936 35.5031 46.4001 34.6459C47.1323 34.2131 47.8527 33.7524 48.4948 33.1912C49.0037 32.7162 49.4657 32.1746 49.7501 31.532C49.9195 31.1408 50.0717 30.7235 50.0516 30.2901C50.0783 29.4121 49.6559 28.5709 49.0635 27.9455C48.5825 27.392 47.9723 26.9753 47.3634 26.5764C45.7527 25.5616 43.9406 24.9255 42.122 24.4006C40.112 23.7984 38.0375 23.4476 35.9618 23.1694C35.168 23.1016 34.3783 22.9821 33.581 22.9649C33.1704 22.9037 32.7528 22.9417 32.3417 22.8817C31.276 22.8466 30.2097 22.8692 29.1434 22.8626C28.7874 22.8561 28.4337 22.9072 28.0789 22.9185Z" fill="#020298"/>
<path d="M26.1246 23.6117C26.7123 23.5445 27.3052 23.5992 27.8929 23.5332C29.2358 23.4988 30.5805 23.5029 31.9235 23.5332C32.3784 23.5951 32.8393 23.5511 33.2942 23.6058C33.7048 23.6521 34.12 23.6046 34.5282 23.6741C35.4239 23.7033 36.3107 23.8477 37.2022 23.9327C39.4065 24.2306 41.5971 24.6699 43.7149 25.3595C44.6129 25.6615 45.4973 26.0033 46.367 26.3808C47.1531 26.7607 47.9161 27.2077 48.5754 27.7856C49.1618 28.2837 49.644 28.9496 49.7951 29.7176C49.8834 30.3109 49.7773 30.925 49.5078 31.4601C49.0321 32.4505 48.1903 33.2078 47.2964 33.8154C46.2935 34.5508 45.1206 34.999 43.9554 35.4038C42.6213 35.8408 41.2553 36.188 39.8685 36.4073C39.3863 36.462 38.91 36.5554 38.4302 36.6249C36.5826 36.8484 34.7266 36.9834 32.8731 37.1296C32.3008 37.1326 31.728 37.1225 31.1575 37.1683C30.3862 37.201 29.6144 37.1873 28.8425 37.1903C28.5261 37.192 28.2086 37.1903 27.8935 37.1635C27.403 37.1094 26.9078 37.1546 26.4184 37.0916C24.1982 37.0018 21.9833 36.7498 19.8009 36.3205C18.1375 36.0286 16.515 35.543 14.9215 34.9883C13.4589 34.4194 12.0176 33.6721 10.9377 32.5046C10.3477 31.9148 10.0047 31.0653 10.0716 30.2277C10.1492 29.5387 10.558 28.9466 10.9715 28.4133C11.1758 28.1797 11.3879 27.9526 11.6059 27.7321C12.4607 26.9812 13.4399 26.3749 14.4754 25.9082C14.6531 25.8297 14.8308 25.7501 15.0085 25.6704C17.2478 24.6865 19.6682 24.2026 22.0834 23.9042C23.4275 23.7681 24.774 23.6587 26.1246 23.6117ZM20.0705 26.7149C19.5077 26.7286 18.9669 26.9123 18.4396 27.0966C17.8976 27.3112 17.4071 27.6363 16.9373 27.9782C16.3929 28.4145 15.9481 28.9817 15.685 29.6314C15.5932 29.8627 15.5103 30.1034 15.5103 30.3549C15.499 30.6884 15.4866 31.032 15.5909 31.3536C15.7591 31.9856 16.265 32.5361 16.903 32.7007C17.7596 32.9694 18.6979 32.7756 19.4816 32.3756C19.7399 32.202 20.074 32.0765 20.2014 31.7692C20.1611 31.7091 20.1238 31.6473 20.0805 31.5902C19.7008 31.8203 19.3306 32.0742 18.9035 32.2097C18.4029 32.4195 17.7975 32.4653 17.3159 32.1806C16.9237 31.9755 16.73 31.5338 16.6518 31.117C16.544 30.2634 16.8947 29.4317 17.3437 28.726C17.5931 28.3384 17.9438 28.0299 18.2963 27.7392C18.9372 27.2327 19.7873 26.9961 20.5941 27.14C20.6131 27.1661 20.6498 27.2196 20.6688 27.2464C20.529 27.4443 20.5053 27.7148 20.6836 27.8991C21.0218 28.1803 21.6267 28.0234 21.757 27.5882C21.8778 27.3296 21.6817 27.0656 21.4744 26.9259C21.0627 26.6519 20.5426 26.6459 20.0705 26.7149ZM35.8036 26.8784C35.338 27.011 35.1135 27.697 35.4926 28.0388C35.6881 28.0448 35.9132 28.0584 36.0613 27.9033C36.3219 27.7059 36.4001 27.3421 36.3089 27.0377C36.1762 26.9135 35.9896 26.7821 35.8036 26.8784ZM27.8805 30.1587C27.9462 29.8567 28.0481 29.5625 28.0984 29.2557C28.1648 29.0066 28.147 28.691 27.9308 28.5192C27.7501 28.4882 27.5588 28.5043 27.3959 28.5917C26.954 28.8283 26.6193 29.2153 26.3225 29.6106C26.2704 29.7129 26.201 29.8234 26.2372 29.9429C26.3148 29.9364 26.3965 29.9186 26.4457 29.8508C26.6892 29.5928 26.8941 29.2765 27.2229 29.1184C27.2253 29.157 27.23 29.2343 27.2324 29.273C26.9682 30.3632 26.5837 31.4178 26.2538 32.4885C26.2905 32.5462 26.3231 32.6068 26.3681 32.6591C26.5979 32.6889 26.8307 32.6835 27.0612 32.6704C27.2223 32.498 27.2573 32.2579 27.3408 32.0456C27.6216 31.2306 28.0499 30.4798 28.461 29.7265C28.5931 29.5036 28.7708 29.3051 29.0054 29.1885C29.0498 29.3152 29.0818 29.446 29.1008 29.5785C29.1878 29.6439 29.2808 29.6998 29.3762 29.7527C29.6108 29.7563 29.814 29.6237 29.952 29.4418C29.9704 29.3722 29.9911 29.3039 30.0136 29.2361C30.0403 28.9674 29.9194 28.7076 29.7322 28.5209C29.6268 28.5031 29.5225 28.4835 29.4189 28.4603C28.6369 28.7171 28.3342 29.5518 27.8805 30.1587ZM33.1029 28.6773C32.5875 29.0685 32.3298 29.6808 31.9774 30.2039C32.065 29.6742 32.4134 29.0922 32.103 28.5744C31.5526 28.4044 31.055 28.817 30.728 29.2171C30.5681 29.4483 30.292 29.638 30.3057 29.9483C30.3554 29.9412 30.4555 29.9269 30.5059 29.9203C30.7701 29.6546 30.9526 29.2908 31.3145 29.1386C31.3169 29.2206 31.3423 29.3057 31.3192 29.3871C31.0319 30.3252 30.7464 31.2645 30.4437 32.1978C30.4153 32.3393 30.311 32.5521 30.4638 32.6514C30.683 32.7495 30.9235 32.7073 31.1504 32.6633C31.1931 32.6068 31.2499 32.5587 31.2713 32.4885C31.4259 32.0771 31.568 31.661 31.7594 31.2651C31.9057 30.8929 32.1243 30.557 32.2943 30.1962C32.5206 29.8431 32.7267 29.4632 33.0514 29.1891C33.2261 29.3199 33.158 29.5898 33.3327 29.7176C33.5496 29.8229 33.809 29.7206 33.9642 29.5524C34.1805 29.2664 34.1206 28.8324 33.8854 28.5786C33.6461 28.3563 33.3304 28.5334 33.1029 28.6773ZM38.1192 28.7783C37.3242 29.2171 36.7632 30.0505 36.6513 30.9536C36.5618 31.3774 36.6163 31.8322 36.8017 32.2234C37.0559 32.7311 37.669 32.9522 38.2081 32.8993C38.6381 32.8208 39.0688 32.6835 39.4207 32.4136C39.7246 32.2032 40.0261 31.9535 40.1671 31.5998C40.099 31.5772 40.0231 31.5023 39.9615 31.5831C39.6375 31.8245 39.3123 32.0789 38.9213 32.2032C38.5552 32.3494 38.1068 32.2721 37.8254 31.9909C37.605 31.7466 37.6246 31.3691 37.7294 31.0778C38.5765 30.8804 39.5166 30.8192 40.2174 30.2467C40.5249 29.9774 40.7737 29.5452 40.6256 29.1297C40.5663 29.0084 40.5124 28.8812 40.4224 28.7789C40.2476 28.6077 40.0083 28.5275 39.7749 28.4764C39.2098 28.386 38.6097 28.4734 38.1192 28.7783ZM23.2154 28.5709C22.5247 28.77 21.9329 29.2385 21.51 29.8127C21.0846 30.4358 20.76 31.189 20.85 31.9588C20.888 32.3012 21.0905 32.6217 21.3968 32.7828C21.5988 32.828 21.8044 32.8309 22.0052 32.7762C22.5152 32.6068 22.8695 32.1877 23.2362 31.8179C23.2415 32.0337 23.1988 32.2525 23.2379 32.4665C23.2995 32.6556 23.4796 32.8321 23.6923 32.8006C24.2089 32.7703 24.5992 32.3714 24.947 32.0272C25.1016 31.8387 25.3368 31.617 25.239 31.3483C24.8332 31.5159 24.7219 32.0605 24.2634 32.1342C24.2699 31.8815 24.3729 31.6485 24.4446 31.4101C24.7467 30.4471 25.0441 29.4822 25.3462 28.5192C25.0791 28.4918 24.8101 28.4966 24.5424 28.4936C24.479 28.5881 24.4192 28.6844 24.3605 28.7807C24.0779 28.4466 23.5999 28.4633 23.2154 28.5709ZM43.8434 28.7611C43.3594 29.1529 43.1195 29.7479 42.7783 30.2539C42.8636 29.8336 43.0123 29.4257 43.0431 28.9941C43.0283 28.8402 42.9756 28.6921 42.8843 28.5667C42.7131 28.5727 42.5378 28.5513 42.3713 28.5952C41.8133 28.8235 41.4591 29.3372 41.1066 29.8003C41.1137 29.8389 41.1279 29.9168 41.135 29.9554C41.2085 29.9394 41.2997 29.956 41.3548 29.893C41.6249 29.6582 41.7724 29.2819 42.1261 29.1493C42.1296 29.2533 42.1273 29.3586 42.1036 29.4608C41.866 30.5333 41.4371 31.5504 41.1795 32.6175C41.3986 32.7721 41.6794 32.7114 41.93 32.7317C42.0307 32.6413 42.106 32.5272 42.1338 32.3928C42.3482 31.6592 42.7214 30.988 43.0775 30.3169C43.3085 29.915 43.4945 29.4519 43.905 29.1969C43.9643 29.3431 43.9927 29.5012 44.0608 29.6439C44.1491 29.7224 44.2699 29.7539 44.3748 29.8074C44.6514 29.7188 44.9393 29.4911 44.9002 29.1665C44.9458 28.8865 44.761 28.6565 44.5531 28.4983C44.2966 28.5079 44.0407 28.5929 43.8434 28.7611ZM34.963 28.8342C34.604 29.8758 34.2444 30.9167 33.8872 31.9582C33.7717 32.2519 33.8055 32.5973 34.0081 32.8452C34.2521 32.8535 34.5045 32.8601 34.7308 32.7531C35.1804 32.5373 35.5862 32.2156 35.8782 31.809C35.9617 31.7068 35.9499 31.5748 35.9375 31.4523C35.5423 31.6539 35.3232 32.1116 34.8783 32.2234C34.8747 32.0973 34.8599 31.9677 34.8978 31.8453C35.0376 31.3935 35.1834 30.9429 35.3433 30.4976C35.5453 29.8853 35.752 29.2736 35.9067 28.647C35.6816 28.5281 35.4215 28.5721 35.1786 28.5756C35.0311 28.559 35.0092 28.7332 34.963 28.8342Z" fill="#020298"/>
<path d="M38.9426 28.8217C39.1263 28.6897 39.3768 28.7414 39.5386 28.8829C39.6961 29.1005 39.6955 29.3888 39.6221 29.6385C39.5249 30.0505 39.1541 30.3109 38.7928 30.4785C38.4859 30.595 38.1589 30.6563 37.8307 30.6557C38.0629 29.9839 38.2726 29.1867 38.9426 28.8217Z" fill="#020298"/>
<path d="M23.4162 28.9287C23.6254 28.8324 23.8682 28.8092 24.0744 28.9269C24.0981 28.9656 24.1455 29.0417 24.1692 29.0803C24.2314 29.4102 24.0406 29.698 23.931 29.9934C23.6165 30.7276 23.277 31.5337 22.5656 31.9647C22.3103 32.1211 21.9572 32.0206 21.8518 31.7335C21.9317 30.6343 22.5069 29.5583 23.4162 28.9287Z" fill="#020298"/>
</g>
<defs>
<linearGradient id="paint0_linear_150_881" x1="0.499999" y1="0.500001" x2="59.5" y2="60" gradientUnits="userSpaceOnUse">
<stop stop-color="#1575CC"/>
<stop offset="1" stop-color="#153C88"/>
</linearGradient>
<clipPath id="clip0_150_881">
<rect width="42" height="17" fill="white" transform="translate(9 22)"/>
</clipPath>
</defs>
</svg>
