<svg width="60" height="60" viewBox="0 0 60 60" fill="none" xmlns="http://www.w3.org/2000/svg">
<rect width="60" height="60" fill="#FB0303"/>
<g clip-path="url(#clip0_168_345)">
<path fill-rule="evenodd" clip-rule="evenodd" d="M48.1784 28.8978C48.1784 28.1774 48.9006 27.4948 49.8963 27.1346C49.7205 27.5517 49.4082 28.0826 49.4082 28.5945C49.4082 28.8601 49.506 29.0875 49.7401 29.2961C49.994 29.5235 50.5602 29.7702 51.0287 29.9027C51.0482 29.2772 51.751 27.9308 51.751 27.3812C51.751 26.9831 51.5361 26.5847 51.0871 26.2058C50.6381 25.8075 50.2867 25.6367 49.7986 25.6367C48.0612 25.6367 45.9721 27.4568 45.9721 29.0116C45.9721 29.9973 46.5774 30.6043 47.0655 31.0404C47.4754 31.4005 47.8075 31.6851 47.8075 32.0261C47.8075 32.4432 47.4168 32.7277 46.8313 32.7277C45.8942 32.7277 45.1131 32.1589 45.0545 31.4954C44.6253 31.7987 44.2737 32.5382 44.2737 33.2017C44.2737 34.6237 45.3668 35.4768 47.1629 35.4768C49.0959 35.4768 50.5013 34.2635 50.5013 32.5949C50.5013 31.4764 49.8768 30.8507 49.1936 30.2818C48.5102 29.7132 48.1784 29.4479 48.1784 28.8978ZM45.523 23.1532C45.6061 23.3548 45.6845 23.9069 45.4452 25.1438C45.3729 25.5183 45.162 26.343 45.0352 26.7365C45.6503 27.0823 46.0509 27.0339 46.4997 26.3953C47.3066 25.2471 47.6121 24.7401 47.6121 24.2148C47.6121 23.9494 47.4949 23.7031 47.0657 23.4564C46.6555 23.2288 45.9528 23.0394 45.523 23.1532ZM43.0831 33.0499C44.04 30.1301 44.4693 28.5186 44.4693 27.5896C44.4693 27.0208 44.3131 26.6796 44.0009 26.3763C43.6884 26.092 43.2787 25.8833 42.7516 25.7508C42.7709 27.0587 40.8964 31.7225 39.9791 32.6139C39.8035 32.7844 39.6668 32.8605 39.5107 32.8605C39.3154 32.8605 39.1985 32.7277 39.1985 32.4811C39.2178 31.7038 40.9552 29.0306 40.9552 27.5706C40.9552 27.1159 40.8029 26.7703 40.5062 26.5091C40.0306 26.0906 39.3823 25.9001 38.9055 25.8644C39.1592 28.443 36.5041 31.0212 36.5041 33.1827C36.5041 34.2443 37.2068 34.908 38.2611 34.908C38.8466 34.908 39.4714 34.6804 40.1548 34.1876C39.5302 35.5525 38.476 36.0836 37.4217 36.0836C36.6601 36.0836 36.1134 35.818 35.6449 35.3253C34.7663 37.0503 35.6839 38.7569 37.8316 38.7569C40.0181 38.7569 41.7361 37.2213 43.0831 33.0499ZM34.9424 27.4002C35.2352 27.4002 35.3914 27.6276 35.3914 27.9501C35.3914 28.7463 34.4934 29.9783 32.6975 30.4528C33.1073 28.9737 34.2006 27.4002 34.9424 27.4002ZM32.5999 35.4768C34.3569 35.4768 35.8016 34.1307 35.9577 32.2727C35.3719 32.6329 34.552 32.8984 33.9858 32.8984C33.0682 32.8984 32.6387 32.5759 32.5413 31.8556C35.9384 31.4006 37.461 29.694 37.461 27.8929C37.461 26.5658 36.6606 25.7316 35.3524 25.7316C32.7755 25.7316 30.0422 29.4479 30.0422 32.9361C30.0422 34.453 31.0575 35.4768 32.5999 35.4768ZM26.0992 35.4768C27.9927 35.4768 29.3986 34.2635 29.3986 32.6139C29.3986 31.5144 28.7543 30.8696 28.0709 30.32C27.3682 29.7512 27.0361 29.4669 27.0361 28.8978C27.0361 28.1774 27.7586 27.4948 28.7543 27.1346C28.5785 27.5517 28.2662 28.0826 28.2662 28.5945C28.2662 28.8601 28.3639 29.0875 28.598 29.2961C28.8517 29.5235 29.4182 29.7702 29.8865 29.9027C29.906 29.2772 30.609 27.9308 30.609 27.3812C30.609 26.9831 30.3941 26.5847 29.9451 26.2058C29.4961 25.8075 29.1447 25.6367 28.6566 25.6367C26.9189 25.6367 24.8303 27.4568 24.8303 29.0116C24.8303 29.9217 25.371 30.5345 26.0013 31.0783C26.3947 31.4171 26.7058 31.6754 26.7043 32.0643C26.7027 32.5003 26.392 32.8038 25.8453 32.8038C25.0645 32.8038 24.4784 32.1589 24.4784 31.5144C23.9323 31.7987 23.5025 32.5949 23.5025 33.3532C23.5025 34.5476 24.4589 35.4768 26.0992 35.4768ZM18.5247 32.0832C18.5247 30.9076 20.1841 27.5517 22.3706 27.1159C21.3163 30.0165 20.2036 31.7228 19.5006 32.4055C19.3055 32.5949 19.1493 32.6521 18.9738 32.6521C18.7003 32.6521 18.5247 32.4242 18.5247 32.0832ZM15.7913 33.1827C15.7913 34.3391 16.4552 35.2492 17.5876 35.2492C18.4464 35.2492 19.3444 34.5857 20.2425 33.1827C20.1256 34.5286 20.9065 35.4009 22.0192 35.4009C22.3706 35.4009 22.7417 35.2871 22.9563 35.0977C22.6438 34.6047 22.5659 33.8464 22.859 32.3675C23.1908 30.6802 23.9521 28.2533 24.5181 27.2674C24.3818 26.9452 23.8349 26.7552 23.3663 26.6986C23.3078 26.5468 23.2307 26.3945 23.0931 26.2058C22.8021 25.8063 22.5269 25.6557 22.0193 25.6557C20.9457 25.6557 19.657 26.3573 18.5248 27.4568C16.9824 28.9547 15.7913 31.0212 15.7913 33.1827ZM12.9808 32.6897C11.8092 32.6897 11.1065 31.8746 11.1065 30.3577C11.1065 27.6655 13.293 24.7269 15.4212 24.177C14.9721 25.1061 14.6205 25.7695 14.6205 26.4901C14.6205 27.3622 15.4993 27.9308 16.6119 28.1205C16.6708 27.2674 17.8223 25.0871 17.8223 24.2909C17.8223 23.7977 17.5884 23.286 17.1394 22.9066C16.612 22.4326 16.202 22.2431 15.6165 22.2431C12.0632 22.2431 8.23682 27.0208 8.23682 31.4954C8.23682 34.2635 9.58388 35.9319 11.829 35.9319C13.7811 35.9319 15.1477 34.453 15.1477 32.6521C15.1477 32.1778 15.0698 31.78 14.9331 31.4954C14.445 32.2537 13.7616 32.6897 12.9808 32.6897Z" fill="white"/>
</g>
<defs>
<clipPath id="clip0_168_345">
<rect width="44" height="17" fill="white" transform="translate(8 22)"/>
</clipPath>
</defs>
</svg>
