<svg width="60" height="60" viewBox="0 0 60 60" fill="none" xmlns="http://www.w3.org/2000/svg">
<rect width="60" height="60" fill="black"/>
<g clip-path="url(#clip0_1403_9044)">
<path d="M52 25H8V34H52V25Z" fill="black"/>
<path d="M48.1562 31.6563C48.9277 31.6563 49.2851 31.3022 49.2851 30.7019C49.2851 30.1785 49.2851 30.1785 49.2851 30.1785C49.2851 30.0092 49.2421 29.9322 49.1279 29.8244C48.6133 29.3626 48.6133 29.3626 48.6133 29.3626C49.1279 28.9008 49.1279 28.9008 49.1279 28.9008C49.2421 28.7931 49.2851 28.7161 49.2851 28.5467C49.2851 28.085 49.2851 28.085 49.2851 28.085C49.2851 27.4846 48.9277 27.1306 48.1562 27.1306C43.27 27.1306 43.27 27.1306 43.27 27.1306C43.27 31.6563 43.27 31.6563 43.27 31.6563H48.1562Z" fill="white"/>
<path d="M48.4844 30.8866C44.0698 30.8866 44.0698 30.8866 44.0698 30.8866C44.0698 29.7629 44.0698 29.7629 44.0698 29.7629C48.4844 29.7629 48.4844 29.7629 48.4844 29.7629V30.8866Z" fill="black"/>
<path d="M44.0698 27.9002C48.4844 27.9002 48.4844 27.9002 48.4844 27.9002C48.4844 28.9932 48.4844 28.9932 48.4844 28.9932C44.0698 28.9932 44.0698 28.9932 44.0698 28.9932V27.9002Z" fill="black"/>
<path d="M39.612 31.6563C40.398 31.6563 40.7553 31.3022 40.7553 30.7019C40.7553 30.1785 40.7553 30.1785 40.7553 30.1785C40.7553 30.0092 40.7124 29.9322 40.5981 29.8244C40.0836 29.3626 40.0836 29.3626 40.0836 29.3626C40.5981 28.9008 40.5981 28.9008 40.5981 28.9008C40.7124 28.7931 40.7553 28.7161 40.7553 28.5467C40.7553 28.085 40.7553 28.085 40.7553 28.085C40.7553 27.4846 40.398 27.1306 39.612 27.1306C34.7402 27.1306 34.7402 27.1306 34.7402 27.1306C34.7402 31.6563 34.7402 31.6563 34.7402 31.6563H39.612Z" fill="white"/>
<path d="M39.9551 30.8866C35.54 30.8866 35.54 30.8866 35.54 30.8866C35.54 29.7629 35.54 29.7629 35.54 29.7629C39.9551 29.7629 39.9551 29.7629 39.9551 29.7629V30.8866Z" fill="black"/>
<path d="M35.54 27.9002C39.9551 27.9002 39.9551 27.9002 39.9551 27.9002C39.9551 28.9932 39.9551 28.9932 39.9551 28.9932C35.54 28.9932 35.54 28.9932 35.54 28.9932V27.9002Z" fill="black"/>
<path d="M31.2108 27.1306C31.2108 30.8558 31.2108 30.8558 31.2108 30.8558C27.0387 30.8558 27.0387 30.8558 27.0387 30.8558C27.0387 27.1306 27.0387 27.1306 27.0387 27.1306C26.2388 27.1306 26.2388 27.1306 26.2388 27.1306C26.2388 30.6249 26.2388 30.6249 26.2388 30.6249C26.2388 31.2714 26.6101 31.6563 27.3247 31.6563C30.9253 31.6563 30.9253 31.6563 30.9253 31.6563C31.6395 31.6563 32.0108 31.2714 32.0108 30.6249C32.0108 27.1306 32.0108 27.1306 32.0108 27.1306H31.2108Z" fill="white"/>
<path d="M18.4808 28.9778C18.4808 27.1306 18.4808 27.1306 18.4808 27.1306C17.6953 27.1306 17.6953 27.1306 17.6953 27.1306C17.6953 31.6563 17.6953 31.6563 17.6953 31.6563C18.4808 31.6563 18.4808 31.6563 18.4808 31.6563C18.4808 29.7782 18.4808 29.7782 18.4808 29.7782C22.7242 29.7782 22.7242 29.7782 22.7242 29.7782C22.7242 31.6562 22.7242 31.6563 22.7242 31.6563C23.5102 31.6563 23.5102 31.6563 23.5102 31.6563C23.5102 27.1306 23.5102 27.1306 23.5102 27.1306C22.7242 27.1306 22.7242 27.1306 22.7242 27.1306C22.7242 28.9778 22.7242 28.9778 22.7242 28.9778H18.4808Z" fill="white"/>
<path d="M15.3804 27.9311C15.3804 27.1306 15.3804 27.1306 15.3804 27.1306C10.7225 27.1306 10.7225 27.1306 10.7225 27.1306C10.0081 27.1306 9.65088 27.5154 9.65088 28.1619C9.65088 30.6249 9.65088 30.6249 9.65088 30.6249C9.65088 31.2714 10.0081 31.6563 10.7225 31.6563C15.3804 31.6563 15.3804 31.6563 15.3804 31.6563C15.3804 30.8558 15.3804 30.8558 15.3804 30.8558C10.451 30.8558 10.451 30.8558 10.451 30.8558C10.451 27.931 10.451 27.9311 10.451 27.9311H15.3804Z" fill="white"/>
</g>
<defs>
<clipPath id="clip0_1403_9044">
<rect width="44" height="9" fill="white" transform="translate(8 25)"/>
</clipPath>
</defs>
</svg>
