<svg width="60" height="60" viewBox="0 0 60 60" fill="none" xmlns="http://www.w3.org/2000/svg">
<rect width="60" height="60" fill="#1D2953"/>
<g clip-path="url(#clip0_150_987)">
<path d="M42.0749 25.645L38.8774 22.4463L42.0749 19.2475L45.2737 22.4463L42.0749 25.645ZM42.0799 16.4013L38.8812 13.2025L42.0812 10.005L45.2787 13.2025L42.0799 16.4013ZM46.6999 21.025L43.4999 17.8275L45.2787 16.055L46.6987 14.63L49.8974 17.8275L46.6999 21.025Z" fill="#33B540"/>
<path d="M27.9837 44.8438C20.84 44.8438 16.1962 39.0963 16.1962 30.6788C16.1962 22.2613 21.0737 16.5088 28.1537 16.5088C33.35 16.5088 35.6588 19.1413 37.4613 21.0213L40.6538 17.8175C38.945 16.0738 35.5475 11.8063 27.9837 11.8063C18.6337 11.8063 10.625 18.8325 10.625 30.7375C10.625 42.6375 17.8225 49.7213 27.75 49.7213C35.1275 49.7213 39.1362 45.81 40.7075 43.8038L37.3925 40.4838C35.9525 42.1675 32.88 44.8438 27.9837 44.8438Z" fill="white"/>
</g>
<defs>
<clipPath id="clip0_150_987">
<rect width="40" height="40" fill="white" transform="translate(10 10)"/>
</clipPath>
</defs>
</svg>
