<svg width="60" height="60" viewBox="0 0 60 60" fill="none" xmlns="http://www.w3.org/2000/svg">
<rect width="60" height="60" fill="black"/>
<g clip-path="url(#clip0_1403_8885)">
<path fill-rule="evenodd" clip-rule="evenodd" d="M33.3857 34.113L37.3512 32.0035L48.3884 37.8765L33.3845 45.8588L33.3857 34.113Z" fill="#F6911E"/>
<path fill-rule="evenodd" clip-rule="evenodd" d="M18.3831 14.0553V21.9141L33.3869 13.9306L26.0002 10L18.3831 14.0553ZM18.3831 45.7353L26.0014 49.7894L33.3857 45.86L18.3831 37.8776V45.7353Z" fill="#E58F97"/>
<path fill-rule="evenodd" clip-rule="evenodd" d="M33.3857 45.86L40.7725 49.7894L48.3884 45.7365V37.8777L33.3857 45.86Z" fill="#FCC489"/>
<path fill-rule="evenodd" clip-rule="evenodd" d="M18.3831 37.8765V21.913L29.4202 27.7859V32.0036L33.3857 34.113V45.8588L18.3831 37.8765Z" fill="#D20C54"/>
<path fill-rule="evenodd" clip-rule="evenodd" d="M11 25.8412V33.9494L18.383 37.8765V21.9129L11 25.8412ZM40.7724 10L33.3857 13.9294L48.3871 21.9129V14.0518L40.7724 10Z" fill="#F7A288"/>
<path fill-rule="evenodd" clip-rule="evenodd" d="M33.3857 25.6753L29.4202 27.7859L18.3818 21.913L33.3857 13.9294L48.3896 21.913L37.3512 27.7859L33.3857 25.6753Z" fill="#EF4936"/>
</g>
<defs>
<clipPath id="clip0_1403_8885">
<rect width="38" height="40" fill="white" transform="translate(11 10)"/>
</clipPath>
</defs>
</svg>
