<svg width="60" height="60" viewBox="0 0 60 60" fill="none" xmlns="http://www.w3.org/2000/svg">
<rect width="60" height="60" fill="black"/>
<g clip-path="url(#clip0_168_365)">
<path d="M36.4472 36.9602C36.2361 37.0541 36.0211 37.1362 35.8021 37.2066C35.5818 37.2771 35.3583 37.3364 35.1314 37.3846C34.9059 37.4316 34.6784 37.4668 34.4489 37.4902C34.2195 37.515 33.9887 37.5274 33.7566 37.5274C32.8676 37.5254 31.9885 37.3514 31.1663 37.0111C30.3462 36.6728 29.6008 36.176 28.9734 35.5482C28.3459 34.9224 27.8464 34.1812 27.5081 33.3638C27.1698 32.5463 26.9947 31.6701 26.9967 30.7862C26.9987 30.1799 27.0832 29.5776 27.2445 28.9928C27.4078 28.4081 27.6458 27.8468 27.9545 27.3246C28.2653 26.8025 28.6429 26.3233 29.0796 25.899C29.5142 25.4765 30.0059 25.1108 30.537 24.8155C32.9719 23.5502 34.9544 23.5424 37.3952 23.3155C36.7265 23.3331 35.1944 23.3703 33.5777 23.3585C33.3547 23.3546 33.1312 23.354 32.907 23.3566C32.6841 23.3579 32.4605 23.3631 32.2363 23.3722C32.0134 23.3814 31.7905 23.3937 31.5676 23.4094C31.3447 23.425 31.1218 23.4439 30.8989 23.4661C23.7869 24.1506 19.692 29.4055 19.4874 29.9726C19.4874 30.1213 19.4874 30.2718 19.4874 30.4244C19.4874 38.251 25.8894 44.9922 33.7606 44.9922C34.8089 44.9922 35.8552 44.8787 36.8799 44.6519C37.9027 44.4231 38.8998 44.0847 39.8478 43.6389C40.7978 43.1949 41.6947 42.6473 42.5227 42.0059C43.3507 41.3644 44.104 40.6349 44.7708 39.8292C45.4375 39.0235 41.203 34.8677 36.4472 36.9602Z" fill="url(#paint0_linear_168_365)"/>
<path d="M44.7688 39.8233C44.7688 39.8233 41.203 34.8677 36.4472 36.9602C36.2361 37.0541 36.0211 37.1362 35.8021 37.2067C35.5818 37.2771 35.3583 37.3364 35.1314 37.3846C34.9059 37.4316 34.6784 37.4668 34.4489 37.4902C34.2195 37.515 33.9887 37.5274 33.7566 37.5274C32.8676 37.5254 31.9885 37.3514 31.1663 37.0111C30.3462 36.6728 29.6008 36.176 28.9734 35.5482C28.3459 34.9224 27.8464 34.1812 27.5081 33.3638C27.1698 32.5463 26.9947 31.6701 26.9967 30.7862C26.9987 30.1799 27.0832 29.5776 27.2445 28.9928C27.4078 28.4081 27.6458 27.8468 27.9545 27.3246C28.2653 26.8025 28.6429 26.3233 29.0796 25.899C29.5142 25.4765 30.0059 25.1108 30.537 24.8155C32.9719 23.5502 34.9544 23.5424 37.3952 23.3155H37.3677H37.114C36.3509 23.3351 34.9977 23.3605 33.5777 23.3507C33.3547 23.3468 33.1312 23.3462 32.907 23.3488C32.6841 23.3514 32.4605 23.3572 32.2363 23.3664C32.0134 23.3755 31.7905 23.3879 31.5676 23.4035C31.3447 23.4192 31.1218 23.4381 30.8989 23.4602C23.7869 24.1447 19.692 29.3996 19.4874 29.9668C19.4874 30.1154 19.4874 30.266 19.4874 30.4185C19.4874 38.2451 25.8894 44.9863 33.7606 44.9863C34.8089 44.9863 35.8552 44.8729 36.878 44.6441C37.9027 44.4172 38.8979 44.0769 39.8459 43.633C40.7958 43.1871 41.6907 42.6395 42.5188 42C43.3468 41.3585 44.1021 40.6291 44.7688 39.8233Z" fill="url(#paint1_linear_168_365)"/>
<path fill-rule="evenodd" clip-rule="evenodd" d="M18.9171 15.2699C19.3478 15.4459 19.7372 15.706 20.0657 16.0326C20.3961 16.3611 20.6557 16.7484 20.8347 17.1767C21.0137 17.603 21.1042 18.0626 21.1061 18.5241C21.1061 19.9498 20.2427 21.2347 18.9171 21.7803C17.5934 22.3259 16.0691 22.0248 15.0543 21.0156C14.0414 20.0085 13.7385 18.4928 14.2872 17.1767C14.8359 15.8585 16.1281 15 17.5619 15C18.0261 15 18.4863 15.0919 18.9171 15.2699ZM18.1245 19.8774C18.3034 19.8051 18.4667 19.6956 18.6024 19.5606C18.7401 19.4237 18.8482 19.2634 18.923 19.0854C18.9958 18.9074 19.0351 18.7177 19.0351 18.5241C19.0351 17.9316 18.6752 17.3977 18.1245 17.1708C17.5737 16.9439 16.9404 17.0691 16.5195 17.4876C16.0986 17.9081 15.9728 18.5378 16.2009 19.0854C16.4271 19.633 16.966 19.9889 17.5619 19.9889C17.7547 19.9889 17.9455 19.9518 18.1245 19.8774Z" fill="url(#paint2_linear_168_365)"/>
<path d="M33.5777 23.3566C35.7707 23.3703 37.4228 23.3272 37.6391 23.3155C43.7972 22.8657 45.8171 16.3963 46.0001 15.927C41.3485 16.3866 33.9101 16.1538 33.9101 16.1538C26.208 15.9993 19.6409 22.2731 19.4835 29.9355V29.9922C19.5445 29.601 23.6591 24.1643 30.8989 23.4622C31.1218 23.4413 31.3447 23.4231 31.5676 23.4074C31.7905 23.3918 32.0134 23.3794 32.2363 23.3703C32.4605 23.3611 32.6841 23.3553 32.907 23.3527C33.1312 23.3501 33.3548 23.3514 33.5777 23.3566Z" fill="url(#paint3_linear_168_365)"/>
</g>
<defs>
<linearGradient id="paint0_linear_168_365" x1="19.3261" y1="35.4739" x2="44.6095" y2="35.4739" gradientUnits="userSpaceOnUse">
<stop stop-color="#C7C9CB"/>
<stop offset="0.16" stop-color="#B4B5B7"/>
<stop offset="0.36" stop-color="#A1A2A3"/>
<stop offset="0.59" stop-color="#CECFD0"/>
<stop offset="0.7" stop-color="#E0E1E3"/>
</linearGradient>
<linearGradient id="paint1_linear_168_365" x1="24.5146" y1="22.2712" x2="37.7963" y2="48.3292" gradientUnits="userSpaceOnUse">
<stop stop-color="#464749"/>
<stop offset="0.22" stop-color="#373738" stop-opacity="0.67"/>
<stop offset="0.52" stop-color="#272626" stop-opacity="0.3"/>
<stop offset="0.79" stop-color="#1D1B1B" stop-opacity="0.08"/>
<stop offset="1" stop-color="#1A1818" stop-opacity="0"/>
</linearGradient>
<linearGradient id="paint2_linear_168_365" x1="14.5134" y1="19.7992" x2="21.6018" y2="19.7992" gradientUnits="userSpaceOnUse">
<stop stop-color="#C7C9CB"/>
<stop offset="0.29" stop-color="#A1A3A5"/>
<stop offset="0.49" stop-color="#8E9091"/>
<stop offset="0.8" stop-color="#B0B2B3"/>
<stop offset="1" stop-color="#C2C4C6"/>
</linearGradient>
<linearGradient id="paint3_linear_168_365" x1="19.515" y1="22.6525" x2="46.0296" y2="22.6525" gradientUnits="userSpaceOnUse">
<stop offset="0.13" stop-color="#FFC861"/>
<stop offset="0.26" stop-color="#FCB44C"/>
<stop offset="0.54" stop-color="#F78218"/>
<stop offset="0.59" stop-color="#F6780D"/>
</linearGradient>
<clipPath id="clip0_168_365">
<rect width="32" height="30" fill="white" transform="translate(14 15)"/>
</clipPath>
</defs>
</svg>
