<svg width="60" height="60" viewBox="0 0 60 60" fill="none" xmlns="http://www.w3.org/2000/svg">
<rect width="60" height="60" fill="#00965E"/>
<path d="M47.91 49.7069C49.1527 48.4642 49.1779 46.4238 47.91 45.1643L40.4874 37.7417L45.6429 37.7921C47.6581 37.8425 48.8253 36.4318 48.8253 34.6601C48.8253 32.8465 47.4062 31.4274 45.6429 31.4274H39.2279C37.8173 31.4274 36.6753 32.3007 36.2387 33.4426C35.4326 35.5418 33.7785 37.2043 31.6457 38.0356C30.4954 38.489 29.6305 39.6142 29.6305 41.0248V47.4398C29.6305 49.2031 31.0412 50.6222 32.8632 50.6222C34.6265 50.6222 36.0456 49.455 35.9952 47.4398L35.9448 42.2843L43.3674 49.7069C44.6269 50.9664 46.6673 50.9412 47.91 49.7069ZM47.91 11.7793C46.6757 10.5366 44.6269 10.5114 43.3674 11.7793L35.9448 19.2019L35.9952 14.0464C36.0456 12.0312 34.6265 10.8641 32.8632 10.8641C31.0496 10.8641 29.6305 12.2831 29.6305 14.0464V20.4614C29.6305 21.8721 30.5038 23.014 31.6457 23.4506C33.7449 24.2567 35.399 25.9108 36.2387 28.0436C36.6921 29.1939 37.8173 30.0588 39.2279 30.0588H45.6429C47.4062 30.0588 48.8253 28.6481 48.8253 26.8261C48.8253 25.0628 47.6581 23.6437 45.6429 23.6941L40.4874 23.7445L47.91 16.3219C49.1695 15.0624 49.1443 13.0136 47.91 11.7793ZM9.98239 11.7793C8.73969 13.022 8.72289 15.0624 9.98239 16.3219L17.405 23.7445L12.2495 23.6941C10.2343 23.6437 9.06716 25.0544 9.06716 26.8261C9.06716 28.6397 10.4862 30.0588 12.2495 30.0588H18.6645C20.0752 30.0588 21.2171 29.1855 21.6537 28.0436C22.4598 25.9444 24.1139 24.2819 26.2467 23.4506C27.397 22.9972 28.2619 21.8721 28.2619 20.4614V14.0464C28.2619 12.2831 26.8512 10.8641 25.0292 10.8641C23.2659 10.8641 21.8468 12.0312 21.8972 14.0464L21.9476 19.2019L14.525 11.7793C13.2655 10.5114 11.2167 10.5366 9.98239 11.7793ZM9.98239 49.7069C11.2167 50.9496 13.2655 50.9748 14.525 49.7069L21.9476 42.2843L21.8972 47.4398C21.8468 49.455 23.2575 50.6222 25.0292 50.6222C26.8428 50.6222 28.2619 49.2031 28.2619 47.4398V41.0248C28.2619 39.6142 27.3886 38.4722 26.2467 38.0356C24.1475 37.2295 22.4934 35.5754 21.6537 33.4426C21.2003 32.2923 20.0752 31.4274 18.6645 31.4274H12.2495C10.4862 31.4274 9.06716 32.8381 9.06716 34.6601C9.06716 36.4234 10.2343 37.8425 12.2495 37.7921L17.405 37.7417L9.98239 45.1643C8.7145 46.4238 8.73969 48.4642 9.98239 49.7069Z" fill="white"/>
</svg>
