<svg width="60" height="60" viewBox="0 0 60 60" fill="none" xmlns="http://www.w3.org/2000/svg">
<g clip-path="url(#clip0_168_167)">
<rect width="60" height="60" fill="white"/>
<path d="M51 30C51 41.592 41.592 51 30 51C18.408 51 9 41.592 9 30C9 18.408 18.408 9 30 9C41.592 9 51 18.408 51 30Z" fill="#A81612"/>
<path d="M42.7305 30C42.7305 37.0272 37.0272 42.7305 30 42.7305C22.9727 42.7305 17.2694 37.0272 17.2694 30C17.2694 22.9727 22.9727 17.2694 30 17.2694C37.0272 17.2694 42.7305 22.9727 42.7305 30Z" fill="white"/>
<path d="M41.7875 30C41.7875 36.5067 36.5067 41.7875 30 41.7875C23.4932 41.7875 18.2124 36.5067 18.2124 30C18.2124 23.4932 23.4932 18.2124 30 18.2124C36.5067 18.2124 41.7875 23.4932 41.7875 30Z" fill="#451400"/>
<path d="M16.9871 24.6715C16.8355 24.9895 16.6358 25.2576 16.3882 25.476C16.1405 25.6944 15.8675 25.8558 15.5691 25.9603C15.2706 26.0647 14.9561 26.1089 14.6254 26.0927C14.2947 26.0765 13.9718 25.9958 13.6565 25.8508L13.6438 25.845C13.3286 25.6999 13.0598 25.5083 12.8375 25.2701C12.6153 25.032 12.4474 24.7659 12.3338 24.4719C12.2202 24.1779 12.1695 23.865 12.1816 23.5331C12.1937 23.2013 12.2794 22.8681 12.4389 22.5336C12.5354 22.3312 12.6404 22.1542 12.7537 22.0024C12.8671 21.8506 12.9857 21.7201 13.1096 21.6109C13.2335 21.5017 13.365 21.4086 13.5043 21.3316C13.6435 21.2547 13.7872 21.1899 13.9353 21.1372L14.3585 22.0721C14.1221 22.1699 13.9179 22.2863 13.746 22.4211C13.574 22.556 13.4359 22.733 13.3315 22.9519C13.2448 23.1336 13.2003 23.3183 13.1979 23.5061C13.1956 23.6938 13.2309 23.8724 13.3038 24.042C13.3768 24.2115 13.4815 24.3655 13.6181 24.5038C13.7546 24.6422 13.9175 24.7549 14.1068 24.842L14.1193 24.8477C14.3086 24.9348 14.502 24.986 14.6997 25.0014C14.8974 25.0169 15.0854 24.9988 15.2637 24.9474C15.442 24.896 15.6049 24.8097 15.7523 24.6887C15.8998 24.5676 16.0178 24.4142 16.1064 24.2285C16.2245 23.9807 16.2782 23.7498 16.2674 23.5358C16.2566 23.3219 16.2117 23.0935 16.1328 22.8506L17.0466 22.5308C17.1153 22.6984 17.1694 22.8643 17.2091 23.0286C17.2487 23.1928 17.2693 23.3621 17.2707 23.5365C17.2721 23.7109 17.2503 23.8909 17.2053 24.0767C17.1603 24.2625 17.0876 24.4607 16.9871 24.6715Z" fill="white"/>
<path d="M14.8557 18.339L15.6 17.567L17.212 19.1787L18.7583 17.5813L17.1463 15.9448L17.8163 15.3215L21.2513 18.7051L20.7054 19.4027L19.3958 18.1932L17.8247 19.7162L19.1095 20.9505L18.3652 21.7225L14.8557 18.339Z" fill="white"/>
<path d="M20.6716 13.362L21.4776 12.9254L23.7747 17.2249L22.9688 17.6614L20.6716 13.362Z" fill="white"/>
<path d="M26.7861 13.7568C27.0587 13.705 27.2813 13.597 27.4027 13.4328C27.5241 13.2687 27.5634 13.0865 27.5207 12.8864L27.5179 12.8732C27.4685 12.642 27.3523 12.4813 27.1692 12.3911C26.9862 12.3009 26.7328 12.2818 26.4602 12.3336L25.6213 12.4929L25.9261 13.9202L26.7861 13.7568ZM24.3376 11.7722L26.3538 11.3891C26.65 11.3329 26.9228 11.3215 27.172 11.3551C27.4213 11.3888 27.6676 11.4613 27.8602 11.5727C28.0527 11.6842 28.2136 11.8306 28.3428 12.012C28.4719 12.1934 28.5622 12.4041 28.6134 12.6441L28.6163 12.6575C28.6742 12.9287 28.6733 13.1764 28.6136 13.4005C28.5538 13.6246 28.4482 13.8228 28.2967 13.995C28.1452 14.1672 27.9303 14.3108 27.703 14.4257C27.4757 14.5406 27.2234 14.6244 26.9461 14.6771L25.9685 14.8847L26.2422 16.3614L25.3092 16.5168L24.3376 11.7722Z" fill="white"/>
<path d="M33.4733 12.2101C33.26 12.1542 33.0543 12.1415 32.8562 12.1721C32.658 12.2026 32.4799 12.27 32.3218 12.3742C32.1638 12.4784 32.0288 12.6117 31.9168 12.7742C31.8048 12.9366 31.726 13.121 31.6803 13.3275L31.6772 13.3414C31.6315 13.5478 31.6242 13.7522 31.6554 13.9546C31.6866 14.1571 31.753 14.3445 31.8547 14.5168C31.9565 14.6892 32.0889 14.8392 32.2519 14.967C32.4151 15.0947 32.6032 15.1866 32.8165 15.2425C33.0345 15.2997 33.2414 15.3127 33.4373 15.2815C33.6332 15.2504 33.8101 15.1827 33.9681 15.0785C34.1261 14.9743 34.2611 14.8409 34.3732 14.6785C34.4852 14.5161 34.5641 14.3316 34.6098 14.125L34.6128 14.1114C34.6586 13.9048 34.6658 13.7003 34.6345 13.4979C34.6033 13.2955 34.5368 13.1082 34.4351 12.9358C34.3334 12.7635 34.2021 12.6138 34.0414 12.4866C33.8806 12.3595 33.6913 12.2673 33.4733 12.2101ZM33.7035 11.2363C34.0793 11.3349 34.4104 11.4909 34.6967 11.7044C34.9831 11.918 35.2164 12.1661 35.3967 12.4488C35.577 12.7316 35.6976 13.04 35.7586 13.374C35.8196 13.7081 35.812 14.0472 35.7358 14.3913L35.7327 14.4051C35.6565 14.7492 35.5202 15.0545 35.3238 15.3211C35.1274 15.5876 34.8893 15.8044 34.6094 15.9713C34.3295 16.1382 34.0163 16.2454 33.6697 16.2929C33.3231 16.3404 32.9619 16.3149 32.5863 16.2164C32.2107 16.1178 31.8797 15.9618 31.5932 15.7483C31.3068 15.5347 31.0734 15.2866 30.8931 15.0038C30.7128 14.7211 30.5922 14.4127 30.5312 14.0786C30.4703 13.7446 30.4779 13.4054 30.5541 13.0612L30.5571 13.0476C30.6333 12.7033 30.7697 12.398 30.9661 12.1315C31.1625 11.865 31.4006 11.6483 31.6804 11.4814C31.9603 11.3144 32.2735 11.2072 32.6201 11.1598C32.9668 11.1123 33.3279 11.1378 33.7035 11.2363Z" fill="white"/>
<path d="M39.1269 14.1633L37.6768 13.304L38.1447 12.598L41.6773 14.6975L41.2094 15.4289L39.9884 14.6459L37.8716 18.073L37.0355 17.5904L39.1269 14.1633Z" fill="white"/>
<path d="M43.7054 16.5093L44.3611 17.2571L41.303 19.8412L43.0063 21.7668L42.2353 22.3429L40.0291 19.7458L43.7054 16.5093Z" fill="white"/>
<path d="M47.3756 21.5901L48.6878 24.9248L47.8927 25.211L46.9024 22.7817L45.6176 23.2838L46.3709 25.2312L45.5251 25.5174L44.7718 23.57L43.9132 23.9063L44.9666 26.4203L44.1208 26.7065L42.7964 23.2871L47.3756 21.5901Z" fill="white"/>
<path d="M13.7759 30.253C13.7759 30.3177 13.7632 30.3817 13.7384 30.4414C13.7137 30.5011 13.6775 30.5554 13.6318 30.6011C13.5861 30.6468 13.5318 30.683 13.4721 30.7078C13.4124 30.7325 13.3484 30.7452 13.2838 30.7452C13.2192 30.7452 13.1552 30.7325 13.0955 30.7078C13.0358 30.683 12.9815 30.6468 12.9358 30.6011C12.8901 30.5554 12.8539 30.5011 12.8292 30.4414C12.8044 30.3817 12.7917 30.3177 12.7917 30.253C12.7917 30.1884 12.8044 30.1244 12.8292 30.0647C12.8539 30.005 12.8901 29.9507 12.9358 29.905C12.9815 29.8593 13.0358 29.8231 13.0955 29.7983C13.1552 29.7736 13.2192 29.7609 13.2838 29.7609C13.3484 29.7609 13.4124 29.7736 13.4721 29.7983C13.5318 29.8231 13.5861 29.8593 13.6318 29.905C13.6775 29.9507 13.7137 30.005 13.7384 30.0647C13.7632 30.1244 13.7759 30.1884 13.7759 30.253Z" fill="white"/>
<path d="M47.4127 30.253C47.4127 30.3177 47.4 30.3817 47.3753 30.4414C47.3506 30.5011 47.3143 30.5554 47.2686 30.6011C47.2229 30.6468 47.1687 30.683 47.109 30.7078C47.0493 30.7325 46.9853 30.7452 46.9206 30.7452C46.856 30.7452 46.792 30.7325 46.7323 30.7078C46.6726 30.683 46.6184 30.6468 46.5727 30.6011C46.527 30.5554 46.4907 30.5011 46.466 30.4414C46.4413 30.3817 46.4286 30.3177 46.4286 30.253C46.4286 30.1884 46.4413 30.1244 46.466 30.0647C46.4907 30.005 46.527 29.9507 46.5727 29.905C46.6184 29.8593 46.6726 29.8231 46.7323 29.7983C46.792 29.7736 46.856 29.7609 46.9206 29.7609C46.9853 29.7609 47.0493 29.7736 47.109 29.7983C47.1687 29.8231 47.2229 29.8593 47.2686 29.905C47.3143 29.9507 47.3506 30.005 47.3753 30.0647C47.4 30.1244 47.4127 30.1884 47.4127 30.253Z" fill="white"/>
<path d="M15.3664 34.157L15.5915 34.758L14.7691 35.8258L16.0907 36.0907L16.3158 36.6917L13.781 37.6412L13.5735 37.0872L15.2283 36.4674L13.8783 36.1595L13.8729 36.145L14.6804 35.0374L13.0363 35.6531L12.8315 35.1065L15.3664 34.157Z" fill="white"/>
<path d="M16.9842 37.9055L18.1324 39.5937L17.6942 39.8917L16.8787 38.6927L16.4247 39.0015L17.1423 40.0566L16.7043 40.3545L15.9867 39.2994L15.5167 39.619L16.343 40.8341L15.905 41.132L14.746 39.4278L16.9842 37.9055Z" fill="white"/>
<path d="M18.6791 42.0827L18.9053 40.4899L19.4202 40.9584L19.2496 41.9902L20.2637 41.7262L20.7642 42.1817L19.2048 42.5507L18.9708 44.2095L18.456 43.741L18.6318 42.6462L17.5552 42.9212L17.0548 42.4657L18.6791 42.0827Z" fill="white"/>
<path d="M21.8652 43.0067L22.3707 43.3213L20.9405 45.6194L20.4349 45.3048L21.8652 43.0067Z" fill="white"/>
<path d="M23.9693 47.0742C23.782 47.0086 23.6199 46.9136 23.4832 46.7893C23.3465 46.665 23.2404 46.5234 23.1649 46.3645C23.0894 46.2056 23.0469 46.0344 23.0375 45.8508C23.028 45.6672 23.0552 45.4842 23.1191 45.3017L23.1217 45.2944C23.1855 45.1119 23.2782 44.9525 23.3997 44.8161C23.5212 44.6798 23.6614 44.5718 23.8203 44.4922C23.9793 44.4127 24.1524 44.3667 24.3397 44.3545C24.527 44.3422 24.7192 44.3705 24.9163 44.4395C25.0355 44.4813 25.141 44.5291 25.2327 44.5831C25.3245 44.637 25.4045 44.6951 25.4729 44.7573C25.5412 44.8195 25.601 44.8869 25.6521 44.9594C25.7032 45.0319 25.7476 45.1076 25.7856 45.1864L25.2836 45.4736C25.2153 45.3486 25.1384 45.2424 25.0529 45.1552C24.9674 45.0679 24.8601 45.0016 24.7312 44.9565C24.6241 44.919 24.5177 44.905 24.412 44.9144C24.3063 44.9238 24.2078 44.9535 24.1166 45.0035C24.0253 45.0535 23.9446 45.1202 23.8745 45.2035C23.8043 45.2869 23.7501 45.3833 23.7117 45.4928L23.7092 45.5001C23.6709 45.6096 23.6529 45.7194 23.6553 45.8295C23.6578 45.9395 23.6784 46.0424 23.7174 46.1379C23.7563 46.2335 23.8139 46.3186 23.8903 46.3931C23.9666 46.4676 24.0595 46.524 24.169 46.5623C24.315 46.6134 24.4478 46.6299 24.5675 46.6117C24.6873 46.5935 24.8132 46.5557 24.9454 46.4982L25.1765 46.9847C25.0861 47.0322 24.9958 47.0717 24.9057 47.1029C24.8156 47.1342 24.7215 47.1553 24.6235 47.166C24.5255 47.1768 24.423 47.175 24.316 47.1608C24.209 47.1465 24.0934 47.1177 23.9693 47.0742Z" fill="white"/>
<path d="M28.5247 46.8691L28.2718 45.9549L27.8105 46.7837L28.5247 46.8691ZM28.0918 45.2129L28.637 45.2781L29.4652 48.1225L28.8472 48.0486L28.6734 47.4164L27.5369 47.2806L27.2192 47.854L26.6163 47.782L28.0918 45.2129Z" fill="white"/>
<path d="M30.9777 45.3805L31.5241 45.3262L32.9508 46.8592L32.786 45.2008L33.3709 45.1427L33.6386 47.8363L33.1345 47.8863L31.6599 46.3036L31.8301 48.0159L31.2453 48.074L30.9777 45.3805Z" fill="white"/>
<path d="M37.8581 46.4977C37.6651 46.5838 37.4749 46.6305 37.2877 46.6378C37.1004 46.6451 36.9245 46.6177 36.7599 46.5556C36.5953 46.4935 36.4466 46.399 36.3138 46.2719C36.1809 46.1449 36.0736 45.9895 35.9917 45.8059L35.9885 45.7988C35.9098 45.6222 35.8684 45.4424 35.8644 45.2593C35.8603 45.0762 35.89 44.9007 35.9534 44.7327C36.0168 44.5647 36.1124 44.412 36.2403 44.2745C36.3681 44.1371 36.5262 44.0264 36.7146 43.9424C36.8252 43.893 36.9293 43.8558 37.0268 43.8307C37.1242 43.8056 37.2181 43.7898 37.3084 43.7835C37.3986 43.7771 37.4874 43.7799 37.5746 43.7918C37.6617 43.8037 37.7492 43.8226 37.8369 43.8484L37.6786 44.4144C37.6137 44.3954 37.5508 44.381 37.4901 44.3714C37.4293 44.3618 37.3689 44.3577 37.3089 44.3591C37.2488 44.3604 37.1867 44.3683 37.1226 44.3828C37.0585 44.3973 36.9911 44.4202 36.9205 44.4517C36.8216 44.4958 36.7383 44.5577 36.6708 44.6372C36.6032 44.7167 36.5525 44.8056 36.5188 44.9039C36.485 45.0023 36.4706 45.106 36.4756 45.2153C36.4805 45.3246 36.5067 45.4323 36.5539 45.5382L36.557 45.5453C36.6074 45.6583 36.6721 45.7543 36.7512 45.8334C36.8302 45.9125 36.919 45.9723 37.0176 46.013C37.1162 46.0538 37.2195 46.0733 37.3274 46.0718C37.4354 46.0703 37.5447 46.0448 37.6554 45.9955C37.8579 45.9052 38.0065 45.7796 38.1013 45.6187L37.9439 45.2656L37.3964 45.5097L37.1869 45.0399L38.2606 44.5612L38.7394 45.6349C38.6605 45.7999 38.5504 45.9597 38.4091 46.1145C38.2678 46.2692 38.0842 46.3969 37.8581 46.4977Z" fill="white"/>
<path d="M40.6723 43.0567C40.7883 42.9666 40.856 42.8699 40.8754 42.7667C40.8948 42.6635 40.8688 42.5661 40.7976 42.4744L40.7929 42.4684C40.7139 42.3666 40.622 42.3156 40.5173 42.3153C40.4126 42.315 40.3022 42.3599 40.1862 42.4501L39.7191 42.813L40.196 43.4269L40.6723 43.0567ZM38.9191 42.7539L39.8961 41.9948C40.1668 41.7844 40.4306 41.6954 40.6875 41.7276C40.9045 41.7549 41.0921 41.8703 41.2503 42.0738L41.255 42.0799C41.3895 42.253 41.4568 42.4268 41.4569 42.6013C41.457 42.7759 41.4087 42.9416 41.3119 43.0984L42.4271 43.4561L41.8775 43.8831L40.8881 43.555L40.8819 43.5598L40.5186 43.8421L41.05 44.526L40.5798 44.8914L38.9191 42.7539Z" fill="white"/>
<path d="M41.6936 40.3808L42.0826 39.9299L44.1321 41.6981L43.7432 42.1489L41.6936 40.3808Z" fill="white"/>
<path d="M43.0146 38.6733L43.3158 38.1596L45.1839 39.2547L45.8663 38.0905L46.3334 38.3643L45.3498 40.0422L43.0146 38.6733Z" fill="white"/>
<path d="M44.4684 35.8347L44.6549 35.2692L46.7114 35.9473L47.134 34.6656L47.6481 34.8352L47.0391 36.6823L44.4684 35.8347Z" fill="white"/>
<path fill-rule="evenodd" clip-rule="evenodd" d="M27.529 34.9142C27.5345 34.7951 27.385 34.4937 27.2802 34.3889C27.1968 34.3054 27.0999 34.1389 27.0314 34.0019C26.9213 33.7816 26.7619 33.6183 26.672 33.3936C26.5698 32.9836 26.3745 32.5241 26.1744 32.0667C26.1576 31.8117 26.0404 31.5428 26.0085 31.2926C25.9861 31.1166 25.9809 30.949 25.9809 30.7673C25.9809 30.591 26.0085 30.3981 26.0085 30.2144C26.0085 29.9656 26.0085 29.7168 26.0085 29.468C26.0085 29.2339 26.1191 29.0376 26.1191 28.8045C26.1191 28.6449 26.3936 28.4214 26.4508 28.3069C27.1165 28.1763 27.6371 27.9644 28.3308 27.8922C29.2466 27.9187 29.3008 28.0113 29.7683 28.058C30.1986 28.1414 30.392 28.4023 30.7359 28.6109C30.9034 28.6947 30.6629 28.9584 30.6253 29.1086C30.607 29.2419 30.508 29.3647 30.4548 29.4814C30.2759 29.8739 30.0119 30.1984 29.9066 30.6291C29.7361 30.9933 29.6568 31.0859 29.4919 31.5414C29.4302 31.6647 29.3606 31.8757 29.2968 32.0034C29.2266 32.1437 29.2612 32.6919 29.2984 32.8407C29.3472 33.0361 29.3322 33.2294 29.4089 33.4213C29.4306 33.4754 29.4458 33.5319 29.4642 33.5872C29.4985 33.7282 29.5354 33.8652 29.5746 33.9983C29.7203 34.4942 29.8961 34.936 30.0724 35.3288C30.1956 35.6162 30.3631 35.7166 30.0092 35.6282C29.8548 35.5896 29.8733 35.5444 29.796 35.4671C29.7088 35.3799 29.5984 35.3258 29.4919 35.2459C29.3832 35.1644 29.3242 35.0506 29.243 34.9694C29.0816 34.808 29.0439 34.6321 28.856 34.4442C28.7508 33.9011 28.3264 33.3463 28.0543 32.7854C27.9441 32.5651 27.7975 32.3825 27.6949 32.1772C27.6168 32.021 27.5132 31.9203 27.4737 31.7626C27.4164 31.5331 27.4461 31.1944 27.4461 30.9332C27.3962 30.4985 27.3589 30.1987 27.5014 29.7997C27.5292 29.2378 27.9561 29.3532 28.3308 29.385C28.5756 29.385 28.6906 29.3715 28.856 29.4956C29.2347 29.7796 29.0495 29.7394 29.0495 30.1591C29.0495 30.3571 29.0112 30.5455 28.9113 30.712C28.7983 30.9004 28.7142 31.1338 28.6072 31.3479C28.5911 31.3802 28.5796 31.042 28.5796 30.9608C28.5796 30.7516 28.4034 30.6256 28.2478 30.6567C28.0027 30.7057 27.9883 30.8216 27.8884 31.0714C27.8277 31.2232 27.9407 31.4986 27.9713 31.652C28.0521 32.0406 28.3528 32.3362 28.7178 32.1772C28.8281 32.0669 28.9389 31.9087 28.9389 31.7626C28.9389 31.5697 29.0583 31.3674 29.1325 31.182C29.2208 30.9612 29.3219 30.7097 29.4366 30.5185C29.5629 30.1646 29.7895 29.8189 29.5748 29.385C29.4317 29.0519 29.281 28.7915 28.9389 28.6939C28.8079 28.6677 28.3513 28.672 28.2202 28.6939C27.7834 28.7067 27.4304 28.8475 27.0037 28.9427C26.8653 28.9773 26.873 29.1616 26.8379 29.3021C26.7887 29.4987 26.7767 29.7127 26.7273 29.9103C26.6655 30.1573 26.7644 30.481 26.672 30.712C26.6019 30.8872 26.6085 31.3038 26.6997 31.4861C26.8096 31.706 26.8485 31.9702 27.0037 32.1772C27.2739 32.5374 27.3376 32.9401 27.612 33.2831C27.8014 33.5199 27.8442 33.7199 27.9713 33.9742C27.9898 34.0111 28.0082 34.0479 28.0267 34.0848C28.1721 34.3757 28.4897 34.7344 28.6348 35.0247C28.7359 35.2268 28.9521 35.4631 29.1048 35.5777C29.2758 35.7059 29.4124 35.8792 29.5472 36.0476C30.4262 36.6158 31.0414 36.6981 31.3441 36.4347C31.4908 36.288 31.1787 36.0571 31.123 36.02C30.8671 35.7778 30.6768 35.4095 30.5424 34.9971C30.4684 34.7012 30.3177 34.4095 30.183 34.1401C30.0373 33.7078 29.8983 33.2727 29.8789 32.8131C29.8789 32.566 29.8595 32.3849 29.9066 32.1496C29.9636 31.597 30.4827 31.1032 30.5716 30.6876C30.7042 30.5108 30.7937 30.3701 30.8465 30.1591C31.2445 29.818 31.5602 29.2117 31.7375 28.6646C31.7754 28.5132 31.5369 28.333 31.4823 28.2239C31.426 28.1112 31.2133 27.9549 31.0953 27.8369C30.9785 27.7201 30.9534 27.5844 30.8465 27.4775C30.7373 27.3683 30.5336 27.2192 30.4042 27.284C30.2454 27.3634 30.2137 27.5328 30.0171 27.5328C29.8605 27.5328 29.7038 27.5328 29.5472 27.5328C29.2848 27.5328 29.0028 27.446 28.7454 27.3945C28.5635 27.3581 28.1886 27.2544 28.0267 27.1734C27.8815 27.1008 27.6547 27.1648 27.4737 27.201C26.5526 27.4038 25.5937 27.0532 25.5385 28.1686C25.455 28.637 25.3245 29.0512 25.2953 29.5218C25.2565 30.1467 25.3053 30.8289 25.2897 31.4585C25.2897 31.7102 25.3387 31.9263 25.428 32.1496C25.549 32.4521 25.746 32.7235 25.8703 33.0343C26.3657 33.7642 26.8054 34.3193 27.2249 34.7759C27.376 34.8892 27.2518 34.6369 27.529 34.9142Z" fill="white"/>
<path fill-rule="evenodd" clip-rule="evenodd" d="M28.7886 25.9867L27.4731 24.905C27.4243 24.9148 27.3756 24.9245 27.3269 24.9342C26.857 25.053 25.9578 24.9723 25.5728 25.2266C24.9334 25.5908 24.5128 26.237 24.0526 26.6883C23.9038 26.7627 23.9693 27.1158 23.9065 27.273C23.7973 27.5459 23.8164 27.8636 23.7018 28.15C23.5793 28.4562 23.5849 28.9194 23.5849 29.261C23.5849 29.7694 23.6141 30.2751 23.6141 30.7811C23.6141 31.1394 23.703 31.8091 23.7895 32.1552C23.7819 33.1146 25.9515 35.3448 27.1807 37.4759C27.3563 37.827 27.4766 37.8321 27.7946 37.8851C27.8626 37.8965 27.9311 37.9046 27.9993 37.9144C28.4436 37.9778 28.6863 38.2359 29.1394 38.2359C29.3757 38.2359 29.6192 38.3559 29.8411 38.4114C30.067 38.4678 30.4212 38.4406 30.6596 38.4406C31.0503 38.4406 31.4635 38.4114 31.8582 38.4114C32.0697 38.4114 32.2918 38.4565 32.4721 38.4114C32.6603 38.3643 32.9276 38.4114 33.1153 38.4114C33.3119 38.4114 33.5695 38.3236 33.7877 38.3236C33.9297 38.3236 34.1809 37.9676 34.3139 37.9144C34.6321 37.7871 34.7908 37.4314 34.9571 37.1543C35.0785 36.9518 35.1923 36.7396 35.2494 36.5111C35.306 36.2848 35.2519 36.0732 35.0155 36.0141C34.8066 35.9619 34.7745 35.8588 34.577 35.8095C34.3751 35.759 34.2602 35.7472 34.1093 35.6341C33.8457 35.4364 33.5255 35.2313 33.2615 35.0201C33.0005 34.8113 32.7067 34.6258 32.3845 34.4647C32.1826 34.3638 32.1666 34.2487 31.9752 34.2893C31.7899 34.3286 31.6904 33.846 31.7705 33.4707C31.8294 33.195 31.7052 33.1467 31.6244 32.9445C31.433 32.4786 31.2053 32.7225 31.6828 32.3013C31.9937 32.0682 32.2502 31.424 32.4429 31.1027C32.7587 30.6317 33.1908 30.0923 33.203 29.6118C33.3596 29.3509 33.5375 28.7573 33.4661 28.4716C33.4437 28.1307 33.0735 27.4884 32.7645 26.9222C32.2656 26.6209 32.2049 25.7403 31.7121 25.5189C31.5839 25.4933 31.3856 25.5275 31.3028 25.5482C31.1753 25.58 30.9964 26.0159 30.8643 26.0159C31.3234 26.5 31.658 27.0218 32.0044 27.5069C32.2659 28.0375 32.5683 28.3622 32.5306 28.9686C32.4553 29.7725 31.8901 30.5536 31.6828 30.8981C31.6536 30.9565 31.3613 31.3366 31.332 31.3951C31.2154 31.6283 31.184 31.6034 31.0981 31.7751C31.0172 31.937 30.8821 32.1194 30.8058 32.2721C30.7279 32.428 30.7997 32.9435 30.835 33.1199C30.8866 33.378 31.0915 33.3271 31.1566 33.5877C31.2089 33.7969 31.1566 34.1021 31.1566 34.3185C31.1566 34.5057 31.1858 34.8547 31.1858 35.0494C31.1858 35.2418 31.47 35.0985 31.6244 35.1371C31.8869 35.2027 31.9495 35.5207 32.2675 35.6341C32.5485 35.7343 33.1082 36.2427 33.3492 36.4234C33.5841 36.5996 33.3674 36.3215 33.2907 36.628C32.4703 37.2211 31.3989 37.2842 30.3965 37.2127C28.4054 37.0451 28.2689 37.2357 27.5023 36.3357C26.5288 34.9752 25.5202 33.6741 24.5496 32.1259C24.5179 31.1426 24.5432 29.9652 24.6081 28.9686C24.6081 28.4029 24.7543 28.3024 24.7543 27.7408C24.8941 26.949 25.5799 26.4572 26.1867 26.2498C27.0447 26.0145 27.9109 25.9867 28.7886 25.9867Z" fill="white"/>
<path fill-rule="evenodd" clip-rule="evenodd" d="M26.9594 24.5314C26.6338 24.379 26.2431 24.4318 25.9071 24.4866C25.8031 24.4658 26.199 24.2784 26.2653 24.1955C26.3972 24.0306 26.6266 23.9813 26.8251 23.8821C27.1176 23.9169 27.5622 24.0617 27.855 24.1731C28.125 24.2406 28.489 24.3522 28.773 24.3522C29.7859 23.4185 30.9722 22.474 32.1315 21.5983C32.3131 21.5272 33.8771 21.302 34.3033 21.3072C34.595 21.4531 34.9217 21.3229 35.087 21.5983C35.3784 22.0147 36.0616 22.6083 35.9602 22.9417C35.9543 23.3589 35.8282 23.7858 35.7139 24.2179C35.7075 24.2307 35.0783 24.2627 35.0422 24.2627C34.9004 24.2627 34.7586 24.2627 34.6168 24.2627C34.4414 24.2627 34.3855 24.233 34.3481 24.1955C34.6232 24.0017 34.7876 23.8502 35.0422 23.5462C35.1222 23.4662 35.0234 23.2435 34.9974 23.1656C34.8757 22.8195 34.6463 22.5568 34.5496 22.2028C34.0498 22.2316 33.3898 22.2138 32.8927 22.3372C32.7129 22.4091 32.5412 22.4751 32.3778 22.6058C32.0914 22.9114 32.0054 22.9237 31.5494 23.3895C31.5976 23.8295 31.3377 24.2474 31.3926 24.7105C31.6296 25.2163 31.5255 25.0817 32.333 25.1583C32.482 25.1754 32.7092 25.143 32.7891 25.1836C32.82 25.1993 32.829 25.2258 32.8032 25.2702C32.771 25.3257 32.7856 25.5813 32.5569 25.6956C32.347 25.8006 31.8513 25.8726 31.6165 25.9196C31.5792 25.927 31.5419 25.9345 31.5046 25.9419C31.3517 25.9725 31.2759 26.0011 31.1239 26.0315C30.6625 26.0852 30.5191 26.4042 30.2382 26.5846C30.0517 26.7044 29.6649 26.6807 29.3551 26.6584C29.1805 26.6584 29.1351 26.6267 29.0193 26.5689C28.9341 26.5262 28.9073 26.3449 28.8849 26.2554C28.8636 26.1699 28.6569 26.0049 28.5939 25.9419C28.4967 25.8448 28.3931 25.8307 28.2804 25.718C28.131 25.5687 28.0282 25.4673 27.855 25.3374C27.7533 25.2611 27.7107 25.1707 27.6087 25.0687C27.3888 24.8245 27.2835 24.6403 26.9594 24.5314Z" fill="white"/>
</g>
<defs>
<clipPath id="clip0_168_167">
<rect width="60" height="60" fill="white"/>
</clipPath>
</defs>
</svg>
