<svg width="60" height="60" viewBox="0 0 60 60" fill="none" xmlns="http://www.w3.org/2000/svg">
<rect width="60" height="60" fill="#010101"/>
<g clip-path="url(#clip0_168_166)">
<path d="M35.9772 37.477C36.2795 37.3965 36.5273 37.2938 36.7556 37.0934C36.8254 36.7518 36.4786 35.7698 36.2539 35.0585C36.95 35.1346 37.3848 35.4217 37.9124 35.3236C38.1432 35.0153 38.2339 34.6644 38.4002 34.3126L39.9489 36.0001C40.0439 36.1096 40.2784 36.1882 40.3698 35.8891L39.6684 32.3505C40.2331 32.5749 40.4293 33.0078 41.1146 33.0408C41.5457 32.3505 41.8579 31.5405 42.2816 30.7012C42.5682 31.4776 42.9095 32.2126 43.3137 33.0769C44.0002 33.0682 44.2869 32.6427 44.8589 32.438L43.9184 35.9489C44.0002 36.2514 44.2372 36.1798 44.3359 36.0744L45.929 34.4394C46.0842 34.7958 46.1749 35.2151 46.3943 35.5308C46.9176 35.6455 47.4289 35.3113 48.0503 35.2573C47.8022 35.9616 47.4221 36.9312 47.481 37.2744C47.7022 37.4816 47.9571 37.5944 48.2453 37.6848C47.2808 38.3431 45.8954 39.5952 45.1462 40.2044C45.1246 40.3916 45.157 40.5396 45.2067 40.6842H50.8523C50.8523 40.6842 45.4051 19.8621 31.3007 19.8621H19.3859C30.8471 22.3783 35.8537 40.6832 35.8537 40.6832H38.8686C38.9686 40.5112 39.0538 40.3469 39.0328 40.1014C38.3052 39.4672 36.9198 38.1689 35.9772 37.477Z" fill="#2476B9"/>
<path d="M9.39331 30.273C9.39331 35.8192 13.6526 40.2221 19.0825 40.6839H28.9381C17.6783 37.8834 16.5897 26.2435 24.1447 21.9671C22.6735 20.9724 21.132 20.2568 19.3856 19.8618C13.81 20.1757 9.39331 24.6236 9.39331 30.273Z" fill="white"/>
</g>
<defs>
<clipPath id="clip0_168_166">
<rect width="42" height="22" fill="white" transform="translate(9 19)"/>
</clipPath>
</defs>
</svg>
