<svg width="60" height="60" viewBox="0 0 60 60" fill="none" xmlns="http://www.w3.org/2000/svg">
<rect width="60" height="60" fill="black"/>
<g clip-path="url(#clip0_1772_9263)">
<path d="M51.9974 23H46.709L44.5741 26.4022L42.565 23H38.1182C39.8681 24.7472 39.863 26.6737 39.863 26.6737L39.8861 26.725C40.5122 26.2126 40.4942 24.7856 40.4942 24.7856C40.9766 25.2314 42.3879 27.8163 42.3879 30.6523C42.3879 35.0408 39.5115 37.2645 39.5115 37.2645H42.2442L44.4407 33.7496L46.6397 37.2645H52L47.3864 29.894L51.9974 23Z" fill="#0089BB"/>
<path d="M34.7416 32.3995C34.7416 29.9196 35.8527 28.9717 35.7475 26.1742C35.7475 26.1742 36.4172 26.4816 36.525 27.8061C36.525 27.8061 37.5411 25.3492 37.654 23.5918V23H32.8043V29.3227L27.6416 23H23.1846V37.2645H27.8777V30.6164L33.2765 37.2645H36.9663C36.9663 37.2619 34.7416 35.9298 34.7416 32.3995Z" fill="#0089BB"/>
<path d="M37.5 37.262C37.5 37.262 36.4736 35.9017 36.4736 34.3338C36.4736 33.5755 36.9458 32.8095 36.9458 32.8095C36.9458 32.8095 36.525 34.6463 37.3127 34.6463C38.1004 34.6463 38.0979 31.8385 37.9029 30.7139C37.9029 30.7139 39.1653 31.9794 39.2166 34.0674C39.2346 34.7975 39.386 35.397 40.2892 34.2902C40.2892 34.2902 40.4149 36.0477 39.0935 37.2646H37.5V37.262Z" fill="#0089BB"/>
<path d="M18.8687 31.426C18.435 32.4943 17.4676 33.2372 16.3438 33.2372C14.8144 33.2372 13.5751 31.8641 13.5751 30.1707C13.5751 28.4773 14.8144 27.1041 16.3438 27.1041C17.4086 27.1041 18.3324 27.7702 18.7968 28.7488L22.656 26.5098C21.373 24.4065 19.0252 23 16.3412 23C12.287 23 9 26.21 9 30.1707C9 34.1313 12.287 37.3414 16.3412 37.3414C19.0919 37.3414 21.4859 35.8632 22.7432 33.6779L18.8687 31.426Z" fill="#939598"/>
</g>
<defs>
<clipPath id="clip0_1772_9263">
<rect width="43" height="15" fill="white" transform="translate(9 23)"/>
</clipPath>
</defs>
</svg>
