<svg width="60" height="60" viewBox="0 0 60 60" fill="none" xmlns="http://www.w3.org/2000/svg">
<rect width="60" height="60" fill="black"/>
<g clip-path="url(#clip0_168_337)">
<path d="M29.8949 11.0745C19.1132 11.0745 10.3337 19.5686 10.3337 30C10.3337 40.4314 19.0361 49 29.8949 49C40.7537 49 49.4561 40.5059 49.4561 30.0745C49.4561 19.6431 40.6767 11.0745 29.8949 11.0745ZM29.8949 43.9333C21.9626 43.9333 15.5706 37.749 15.5706 30.0745C15.5706 22.4 21.9626 16.1412 29.8949 16.1412C37.8272 16.1412 44.2192 22.3255 44.2192 30C44.2192 37.6745 37.7502 43.9333 29.8949 43.9333ZM38.2123 25.5294L34.5157 21.9529L21.5005 34.5451L25.1971 38.1216L38.2123 25.5294Z" fill="white"/>
</g>
<defs>
<clipPath id="clip0_168_337">
<rect width="40" height="38" fill="white" transform="translate(10 11)"/>
</clipPath>
</defs>
</svg>
