<svg width="60" height="60" viewBox="0 0 60 60" fill="none" xmlns="http://www.w3.org/2000/svg">
<rect width="60" height="60" fill="#C21F32"/>
<path d="M11.017 34.0167L10.9785 33.9737L11.0222 34.0116C11.063 34.0471 11.0731 34.0597 11.0607 34.0597C11.0578 34.0597 11.0382 34.0404 11.017 34.0167ZM33.6311 33.2402C33.6311 33.2369 33.6436 33.2246 33.6589 33.2128C33.6841 33.1933 33.6847 33.1939 33.6649 33.2187C33.6442 33.2448 33.6311 33.2531 33.6311 33.2402ZM33.7741 33.0837C33.7741 33.0805 33.7867 33.0681 33.802 33.0563C33.8272 33.0369 33.8277 33.0374 33.808 33.0622C33.7872 33.0883 33.7741 33.0966 33.7741 33.0837ZM33.9172 32.9272C33.9172 32.924 33.9297 32.9117 33.945 32.8999C33.9702 32.8804 33.9707 32.8809 33.951 32.9058C33.9302 32.9318 33.9172 32.9401 33.9172 32.9272ZM34.0602 32.7708C34.0602 32.7675 34.0727 32.7552 34.088 32.7434C34.1132 32.7239 34.1138 32.7245 34.094 32.7493C34.0732 32.7754 34.0602 32.7836 34.0602 32.7708ZM34.2032 32.6143C34.2032 32.611 34.2157 32.5987 34.231 32.5869C34.2562 32.5675 34.2568 32.568 34.237 32.5928C34.2162 32.6189 34.2032 32.6272 34.2032 32.6143ZM34.3462 32.4578C34.3462 32.4546 34.3587 32.4423 34.374 32.4304C34.3992 32.411 34.3998 32.4115 34.38 32.4363C34.3593 32.4624 34.3462 32.4707 34.3462 32.4578ZM34.4892 32.3014C34.4892 32.2981 34.5018 32.2858 34.517 32.274C34.5423 32.2545 34.5428 32.2551 34.523 32.2799C34.5023 32.3059 34.4892 32.3142 34.4892 32.3014ZM34.6323 32.1449C34.6323 32.1416 34.6448 32.1293 34.6601 32.1175C34.6853 32.098 34.6858 32.0986 34.6661 32.1234C34.6453 32.1495 34.6323 32.1578 34.6323 32.1449ZM29.3167 31.9943C29.3325 31.9771 29.349 31.963 29.3534 31.963C29.3578 31.963 29.3484 31.9771 29.3326 31.9943C29.3168 32.0115 29.3003 32.0256 29.2959 32.0256C29.2915 32.0256 29.3009 32.0115 29.3167 31.9943ZM33.504 29.876C33.504 29.8728 33.5165 29.8605 33.5318 29.8486C33.557 29.8292 33.5576 29.8297 33.5378 29.8546C33.517 29.8806 33.504 29.8889 33.504 29.876ZM33.6629 29.7039C33.6629 29.7007 33.6754 29.6883 33.6907 29.6765C33.7159 29.6571 33.7165 29.6576 33.6967 29.6824C33.676 29.7085 33.6629 29.7168 33.6629 29.7039ZM33.8059 29.5474C33.8059 29.5442 33.8184 29.5319 33.8337 29.5201C33.8589 29.5006 33.8595 29.5011 33.8397 29.526C33.819 29.552 33.8059 29.5603 33.8059 29.5474ZM33.9648 29.3753C33.9648 29.3721 33.9774 29.3597 33.9926 29.3479C34.0178 29.3285 34.0184 29.329 33.9986 29.3538C33.9779 29.3799 33.9648 29.3882 33.9648 29.3753ZM34.1237 29.2032C34.1237 29.2 34.1363 29.1876 34.1516 29.1758C34.1768 29.1564 34.1773 29.1569 34.1576 29.1817C34.1368 29.2078 34.1237 29.2161 34.1237 29.2032ZM34.2827 29.0311C34.2827 29.0278 34.2952 29.0155 34.3105 29.0037C34.3357 28.9842 34.3362 28.9848 34.3165 29.0096C34.2957 29.0357 34.2827 29.044 34.2827 29.0311ZM34.4416 28.859C34.4416 28.8557 34.4541 28.8434 34.4694 28.8316C34.4946 28.8121 34.4951 28.8127 34.4754 28.8375C34.4546 28.8636 34.4416 28.8718 34.4416 28.859ZM37.7628 28.7181C37.7628 28.7149 37.7753 28.7026 37.7906 28.6908C37.8158 28.6713 37.8164 28.6718 37.7966 28.6967C37.7758 28.7227 37.7628 28.731 37.7628 28.7181ZM34.5846 28.7025C34.5846 28.6992 34.5971 28.6869 34.6124 28.6751C34.6376 28.6556 34.6382 28.6562 34.6184 28.681C34.5976 28.7071 34.5846 28.7154 34.5846 28.7025ZM37.9058 28.5617C37.9058 28.5584 37.9183 28.5461 37.9336 28.5343C37.9588 28.5148 37.9594 28.5154 37.9396 28.5402C37.9189 28.5663 37.9058 28.5745 37.9058 28.5617ZM34.7435 28.5304C34.7435 28.5271 34.756 28.5148 34.7713 28.503C34.7965 28.4835 34.7971 28.4841 34.7773 28.5089C34.7565 28.535 34.7435 28.5432 34.7435 28.5304ZM38.0488 28.4052C38.0488 28.4019 38.0613 28.3896 38.0766 28.3778C38.1018 28.3583 38.1024 28.3589 38.0826 28.3837C38.0619 28.4098 38.0488 28.4181 38.0488 28.4052ZM34.9024 28.3583C34.9024 28.355 34.9149 28.3427 34.9302 28.3309C34.9554 28.3114 34.956 28.312 34.9362 28.3368C34.9155 28.3628 34.9024 28.3711 34.9024 28.3583ZM38.1919 28.2487C38.1919 28.2455 38.2044 28.2331 38.2197 28.2213C38.2449 28.2019 38.2454 28.2024 38.2257 28.2272C38.2049 28.2533 38.1919 28.2616 38.1919 28.2487ZM35.0613 28.1861C35.0613 28.1829 35.0738 28.1706 35.0891 28.1587C35.1143 28.1393 35.1149 28.1398 35.0951 28.1647C35.0744 28.1907 35.0613 28.199 35.0613 28.1861ZM38.3349 28.0922C38.3349 28.089 38.3474 28.0767 38.3627 28.0649C38.3879 28.0454 38.3884 28.046 38.3687 28.0708C38.3479 28.0968 38.3349 28.1051 38.3349 28.0922ZM35.2202 28.014C35.2202 28.0108 35.2327 27.9984 35.248 27.9866C35.2732 27.9672 35.2738 27.9677 35.254 27.9925C35.2333 28.0186 35.2202 28.0269 35.2202 28.014ZM38.4779 27.9358C38.4779 27.9325 38.4904 27.9202 38.5057 27.9084C38.5309 27.8889 38.5315 27.8895 38.5117 27.9143C38.4909 27.9404 38.4779 27.9487 38.4779 27.9358ZM38.6209 27.7793C38.6209 27.7761 38.6334 27.7637 38.6487 27.7519C38.6739 27.7325 38.6745 27.733 38.6547 27.7578C38.634 27.7839 38.6209 27.7922 38.6209 27.7793ZM35.5222 27.6854C35.5222 27.6822 35.5347 27.6698 35.55 27.658C35.5752 27.6386 35.5757 27.6391 35.556 27.6639C35.5352 27.69 35.5222 27.6983 35.5222 27.6854ZM38.7639 27.6228C38.7639 27.6196 38.7764 27.6073 38.7917 27.5954C38.8169 27.576 38.8175 27.5765 38.7977 27.6014C38.777 27.6274 38.7639 27.6357 38.7639 27.6228ZM35.6811 27.5133C35.6811 27.5101 35.6936 27.4977 35.7089 27.4859C35.7341 27.4665 35.7346 27.467 35.7149 27.4918C35.6941 27.5179 35.6811 27.5262 35.6811 27.5133ZM38.9069 27.4664C38.9069 27.4631 38.9195 27.4508 38.9348 27.439C38.96 27.4195 38.9605 27.4201 38.9408 27.4449C38.92 27.4709 38.9069 27.4792 38.9069 27.4664ZM35.84 27.3412C35.84 27.3379 35.8525 27.3256 35.8678 27.3138C35.893 27.2943 35.8936 27.2949 35.8738 27.3197C35.853 27.3458 35.84 27.3541 35.84 27.3412ZM39.05 27.3099C39.05 27.3066 39.0625 27.2943 39.0778 27.2825C39.103 27.263 39.1035 27.2636 39.0838 27.2884C39.063 27.3145 39.05 27.3228 39.05 27.3099ZM35.9989 27.1691C35.9989 27.1658 36.0114 27.1535 36.0267 27.1417C36.0519 27.1222 36.0525 27.1228 36.0327 27.1476C36.0119 27.1737 35.9989 27.1819 35.9989 27.1691ZM39.193 27.1534C39.193 27.1502 39.2055 27.1378 39.2208 27.126C39.246 27.1066 39.2466 27.1071 39.2268 27.1319C39.206 27.158 39.193 27.1663 39.193 27.1534ZM36.1578 26.9969C36.1578 26.9937 36.1703 26.9814 36.1856 26.9696C36.2108 26.9501 36.2114 26.9507 36.1916 26.9755C36.1708 27.0015 36.1578 27.0098 36.1578 26.9969ZM39.336 26.9969C39.336 26.9937 39.3485 26.9814 39.3638 26.9696C39.389 26.9501 39.3896 26.9507 39.3698 26.9755C39.3491 27.0015 39.336 27.0098 39.336 26.9969ZM49.2194 26.8503L49.1646 26.7916L49.2242 26.8455C49.2797 26.8957 49.2911 26.909 49.279 26.909C49.2763 26.909 49.2495 26.8826 49.2194 26.8503ZM36.3008 26.8405C36.3008 26.8372 36.3133 26.8249 36.3286 26.8131C36.3538 26.7936 36.3544 26.7942 36.3346 26.819C36.3139 26.8451 36.3008 26.8533 36.3008 26.8405ZM39.479 26.8405C39.479 26.8372 39.4915 26.8249 39.5068 26.8131C39.532 26.7936 39.5326 26.7942 39.5128 26.819C39.4921 26.8451 39.479 26.8533 39.479 26.8405ZM39.622 26.684C39.622 26.6807 39.6346 26.6684 39.6499 26.6566C39.6751 26.6372 39.6756 26.6377 39.6559 26.6625C39.6351 26.6886 39.622 26.6969 39.622 26.684ZM36.4597 26.6684C36.4597 26.6651 36.4722 26.6528 36.4875 26.641C36.5127 26.6215 36.5133 26.6221 36.4935 26.6469C36.4728 26.6729 36.4597 26.6812 36.4597 26.6684ZM39.7651 26.5275C39.7651 26.5243 39.7776 26.512 39.7929 26.5001C39.8181 26.4807 39.8186 26.4812 39.7989 26.5061C39.7781 26.5321 39.7651 26.5404 39.7651 26.5275ZM36.6186 26.4962C36.6186 26.493 36.6312 26.4807 36.6464 26.4688C36.6717 26.4494 36.6722 26.4499 36.6524 26.4748C36.6317 26.5008 36.6186 26.5091 36.6186 26.4962Z" fill="#F1CFD3"/>
<path d="M12.4285 34.5031C12.4394 34.4988 12.4573 34.4988 12.4682 34.5031C12.4792 34.5075 12.4702 34.511 12.4484 34.511C12.4265 34.511 12.4176 34.5075 12.4285 34.5031ZM17.6567 34.5031C17.6676 34.4988 17.6855 34.4988 17.6964 34.5031C17.7073 34.5075 17.6984 34.511 17.6765 34.511C17.6547 34.511 17.6457 34.5075 17.6567 34.5031ZM42.5579 34.5031C42.5688 34.4988 42.5867 34.4988 42.5976 34.5031C42.6086 34.5075 42.5996 34.511 42.5778 34.511C42.5559 34.511 42.547 34.5075 42.5579 34.5031ZM47.786 34.5031C47.797 34.4988 47.8148 34.4988 47.8258 34.5031C47.8367 34.5075 47.8278 34.511 47.8059 34.511C47.7841 34.511 47.7751 34.5075 47.786 34.5031ZM41.1464 34.0167L41.1078 33.9737L41.1515 34.0116C41.1924 34.0471 41.2025 34.0597 41.1901 34.0597C41.1872 34.0597 41.1676 34.0404 41.1464 34.0167ZM49.252 33.9912C49.252 33.988 49.2645 33.9757 49.2798 33.9639C49.305 33.9444 49.3056 33.945 49.2858 33.9698C49.265 33.9958 49.252 34.0041 49.252 33.9912ZM33.4563 33.4279C33.4563 33.4247 33.4688 33.4124 33.4841 33.4006C33.5093 33.3811 33.5099 33.3817 33.4901 33.4065C33.4694 33.4325 33.4563 33.4408 33.4563 33.4279ZM19.5847 32.7206C19.5855 32.7024 19.5892 32.6987 19.5943 32.7111C19.5989 32.7224 19.5983 32.7359 19.593 32.7411C19.5878 32.7463 19.584 32.7371 19.5847 32.7206ZM49.7153 32.6671C49.7153 32.6456 49.719 32.6368 49.7234 32.6476C49.7278 32.6583 49.7278 32.6759 49.7234 32.6867C49.719 32.6975 49.7153 32.6887 49.7153 32.6671ZM40.6562 32.658C40.657 32.6398 40.6607 32.6361 40.6658 32.6486C40.6704 32.6599 40.6698 32.6733 40.6645 32.6785C40.6593 32.6837 40.6555 32.6745 40.6562 32.658ZM10.5286 32.5811C10.529 32.5553 10.5325 32.5466 10.5366 32.5618C10.5406 32.577 10.5403 32.5982 10.536 32.6088C10.5316 32.6194 10.5283 32.6069 10.5286 32.5811ZM27.9146 32.4685C27.9301 32.4646 27.9515 32.4648 27.9623 32.4691C27.973 32.4734 27.9604 32.4766 27.9342 32.4763C27.908 32.476 27.8992 32.4725 27.9146 32.4685ZM34.7276 32.0353C34.7276 32.0321 34.7401 32.0198 34.7554 32.008C34.7806 31.9885 34.7812 31.989 34.7614 32.0139C34.7406 32.0399 34.7276 32.0482 34.7276 32.0353ZM29.7577 30.766C29.7579 30.7316 29.7611 30.7193 29.7649 30.7388C29.7687 30.7583 29.7686 30.7864 29.7646 30.8014C29.7606 30.8163 29.7575 30.8004 29.7577 30.766ZM36.571 30.0168C36.571 30.0136 36.5835 30.0013 36.5988 29.9895C36.624 29.97 36.6245 29.9706 36.6048 29.9954C36.584 30.0214 36.571 30.0297 36.571 30.0168ZM36.714 29.8604C36.714 29.8571 36.7265 29.8448 36.7418 29.833C36.767 29.8135 36.7675 29.8141 36.7478 29.8389C36.727 29.865 36.714 29.8733 36.714 29.8604ZM36.857 29.7039C36.857 29.7007 36.8695 29.6883 36.8848 29.6765C36.91 29.6571 36.9106 29.6576 36.8908 29.6824C36.87 29.7085 36.857 29.7168 36.857 29.7039ZM37 29.5474C37 29.5442 37.0125 29.5319 37.0278 29.52C37.053 29.5006 37.0536 29.5011 37.0338 29.526C37.0131 29.552 37 29.5603 37 29.5474ZM33.8536 29.5005C33.8536 29.4972 33.8661 29.4849 33.8814 29.4731C33.9066 29.4536 33.9072 29.4542 33.8874 29.479C33.8666 29.5051 33.8536 29.5134 33.8536 29.5005ZM37.143 29.391C37.143 29.3877 37.1555 29.3754 37.1708 29.3636C37.196 29.3441 37.1966 29.3447 37.1768 29.3695C37.1561 29.3955 37.143 29.4038 37.143 29.391ZM34.0125 29.3284C34.0125 29.3251 34.025 29.3128 34.0403 29.301C34.0655 29.2815 34.0661 29.2821 34.0463 29.3069C34.0255 29.333 34.0125 29.3412 34.0125 29.3284ZM37.286 29.2345C37.286 29.2312 37.2986 29.2189 37.3139 29.2071C37.3391 29.1876 37.3396 29.1882 37.3199 29.213C37.2991 29.2391 37.286 29.2474 37.286 29.2345ZM37.4291 29.078C37.4291 29.0748 37.4416 29.0624 37.4569 29.0506C37.4821 29.0312 37.4826 29.0317 37.4629 29.0565C37.4421 29.0826 37.4291 29.0909 37.4291 29.078ZM37.5721 28.9215C37.5721 28.9183 37.5846 28.906 37.5999 28.8942C37.6251 28.8747 37.6257 28.8752 37.6059 28.9001C37.5851 28.9261 37.5721 28.9344 37.5721 28.9215ZM34.6322 28.6555C34.6322 28.6523 34.6448 28.64 34.6601 28.6282C34.6853 28.6087 34.6858 28.6092 34.6661 28.6341C34.6453 28.6601 34.6322 28.6684 34.6322 28.6555ZM34.7912 28.4834C34.7912 28.4802 34.8037 28.4678 34.819 28.456C34.8442 28.4366 34.8447 28.4371 34.825 28.4619C34.8042 28.488 34.7912 28.4963 34.7912 28.4834ZM10.5292 28.3329C10.5292 28.3027 10.5325 28.2904 10.5365 28.3055C10.5405 28.3205 10.5405 28.3452 10.5365 28.3602C10.5325 28.3753 10.5292 28.363 10.5292 28.3329ZM40.6575 28.2546C40.6575 28.2331 40.6611 28.2243 40.6655 28.2351C40.6699 28.2458 40.6699 28.2634 40.6655 28.2742C40.6611 28.2849 40.6575 28.2761 40.6575 28.2546ZM49.7153 28.2546C49.7153 28.2331 49.719 28.2243 49.7234 28.2351C49.7278 28.2458 49.7278 28.2634 49.7234 28.2742C49.719 28.2849 49.7153 28.2761 49.7153 28.2546ZM19.5847 28.1829C19.5855 28.1647 19.5892 28.161 19.5943 28.1734C19.5989 28.1847 19.5983 28.1982 19.593 28.2034C19.5878 28.2086 19.584 28.1994 19.5847 28.1829ZM29.7577 28.0903C29.7579 28.0559 29.7611 28.0437 29.7649 28.0631C29.7687 28.0826 29.7686 28.1108 29.7646 28.1257C29.7606 28.1407 29.7575 28.1247 29.7577 28.0903ZM35.4109 27.8106C35.4109 27.8073 35.4234 27.795 35.4387 27.7832C35.4639 27.7637 35.4645 27.7643 35.4447 27.7891C35.424 27.8152 35.4109 27.8235 35.4109 27.8106ZM35.5698 27.6385C35.5698 27.6352 35.5823 27.6229 35.5976 27.6111C35.6228 27.5916 35.6234 27.5922 35.6036 27.617C35.5829 27.6431 35.5698 27.6513 35.5698 27.6385ZM35.7287 27.4663C35.7287 27.4631 35.7412 27.4508 35.7565 27.439C35.7817 27.4195 35.7823 27.4201 35.7625 27.4449C35.7418 27.4709 35.7287 27.4792 35.7287 27.4663ZM19.09 26.8503L19.0352 26.7916L19.0948 26.8455C19.1503 26.8957 19.1617 26.909 19.1496 26.909C19.1469 26.909 19.1201 26.8826 19.09 26.8503ZM29.3079 26.8346L29.2531 26.776L29.3127 26.8299C29.3682 26.8801 29.3796 26.8933 29.3675 26.8933C29.3648 26.8933 29.338 26.8669 29.3079 26.8346ZM36.3485 26.7935C36.3485 26.7903 36.361 26.7779 36.3763 26.7661C36.4015 26.7467 36.4021 26.7472 36.3823 26.772C36.3615 26.7981 36.3485 26.8064 36.3485 26.7935ZM36.5074 26.6214C36.5074 26.6182 36.5199 26.6058 36.5352 26.594C36.5604 26.5746 36.561 26.5751 36.5412 26.5999C36.5204 26.626 36.5074 26.6343 36.5074 26.6214ZM39.8827 26.3951C39.8911 26.3816 39.4999 26.3761 38.3159 26.373L36.7378 26.369L38.3229 26.3651C39.3056 26.3628 39.9081 26.3669 39.9081 26.376C39.9081 26.3841 39.8998 26.3958 39.8897 26.4019C39.8784 26.4088 39.8757 26.4062 39.8827 26.3951ZM12.3818 26.3663C12.3933 26.3617 12.407 26.3623 12.4123 26.3675C12.4176 26.3727 12.4082 26.3764 12.3914 26.3757C12.3729 26.375 12.3691 26.3713 12.3818 26.3663ZM17.7371 26.3663C17.7486 26.3617 17.7623 26.3623 17.7676 26.3675C17.7728 26.3727 17.7635 26.3764 17.7467 26.3757C17.7282 26.375 17.7244 26.3713 17.7371 26.3663ZM28.0027 26.3663C28.0142 26.3617 28.0279 26.3623 28.0332 26.3675C28.0384 26.3727 28.0291 26.3764 28.0123 26.3757C27.9938 26.375 27.99 26.3713 28.0027 26.3663ZM31.5466 26.3652C31.899 26.3629 32.4711 26.3629 32.8179 26.3652C33.1646 26.3676 32.8763 26.3695 32.1771 26.3695C31.4779 26.3695 31.1942 26.3676 31.5466 26.3652ZM42.5112 26.3663C42.5227 26.3617 42.5364 26.3623 42.5417 26.3675C42.547 26.3727 42.5376 26.3764 42.5208 26.3757C42.5023 26.375 42.4985 26.3713 42.5112 26.3663ZM47.8496 26.3666C47.8605 26.3622 47.8784 26.3622 47.8893 26.3666C47.9003 26.3709 47.8913 26.3745 47.8695 26.3745C47.8476 26.3745 47.8387 26.3709 47.8496 26.3666Z" fill="#E39AA2"/>
<path d="M49.2043 34.0382C49.2043 34.0349 49.2168 34.0226 49.2321 34.0108C49.2573 33.9913 49.2579 33.9919 49.2381 34.0167C49.2174 34.0428 49.2043 34.0511 49.2043 34.0382ZM34.2032 29.125C34.2032 29.1217 34.2157 29.1094 34.231 29.0976C34.2562 29.0781 34.2568 29.0787 34.237 29.1035C34.2162 29.1295 34.2032 29.1378 34.2032 29.125ZM34.9819 28.28C34.9819 28.2768 34.9944 28.2644 35.0097 28.2526C35.0349 28.2332 35.0354 28.2337 35.0157 28.2585C34.9949 28.2846 34.9819 28.2929 34.9819 28.28ZM35.1408 28.1079C35.1408 28.1046 35.1533 28.0923 35.1686 28.0805C35.1938 28.061 35.1943 28.0616 35.1746 28.0864C35.1538 28.1125 35.1408 28.1208 35.1408 28.1079ZM35.9194 27.2629C35.9194 27.2597 35.9319 27.2474 35.9472 27.2356C35.9724 27.2161 35.973 27.2166 35.9532 27.2415C35.9325 27.2675 35.9194 27.2758 35.9194 27.2629ZM11.0341 26.8542C11.0637 26.8241 11.0915 26.7994 11.0959 26.7994C11.1003 26.7994 11.0796 26.8241 11.05 26.8542C11.0203 26.8843 10.9925 26.909 10.9881 26.909C10.9837 26.909 11.0044 26.8843 11.0341 26.8542ZM36.6981 26.418C36.6981 26.4147 36.7106 26.4024 36.7259 26.3906C36.7511 26.3711 36.7517 26.3717 36.7319 26.3965C36.7111 26.4226 36.6981 26.4309 36.6981 26.418Z" fill="#D97782"/>
<path d="M12.524 34.5024C12.5438 34.4987 12.5724 34.4988 12.5876 34.5028C12.6028 34.5067 12.5866 34.5097 12.5517 34.5096C12.5167 34.5094 12.5043 34.5062 12.524 34.5024ZM17.5615 34.5024C17.5813 34.4987 17.6099 34.4988 17.6251 34.5028C17.6402 34.5067 17.6241 34.5097 17.5891 34.5096C17.5542 34.5094 17.5417 34.5062 17.5615 34.5024ZM30.9211 34.494C30.917 34.4832 30.9154 32.6507 30.9177 30.4218L30.9218 26.3691L30.9257 30.4335L30.9296 34.4979H32.1769H33.4241L33.4286 33.9776L33.4331 33.4573L33.4328 33.9815L33.4325 34.5057L32.1806 34.5097C31.1875 34.5129 30.9271 34.5096 30.9211 34.494ZM37.1058 34.5018C37.0991 34.4911 38.2232 34.4912 39.7253 34.502C40.04 34.5042 39.5809 34.5078 38.7053 34.5098C37.8296 34.5118 37.1098 34.5082 37.1058 34.5018ZM42.6453 34.5027C42.6606 34.4988 42.6856 34.4988 42.7009 34.5027C42.7162 34.5067 42.7037 34.5099 42.6731 34.5099C42.6425 34.5099 42.63 34.5067 42.6453 34.5027ZM47.6828 34.5027C47.6981 34.4988 47.7231 34.4988 47.7384 34.5027C47.7537 34.5067 47.7412 34.5099 47.7106 34.5099C47.68 34.5099 47.6675 34.5067 47.6828 34.5027ZM20.6877 30.4296C20.6877 28.1877 20.6896 27.2706 20.6918 28.3915C20.6941 29.5125 20.6941 31.3467 20.6918 32.4676C20.6896 33.5886 20.6877 32.6714 20.6877 30.4296ZM42.4 34.4872C42.4115 34.4827 42.4252 34.4832 42.4304 34.4884C42.4357 34.4936 42.4263 34.4973 42.4096 34.4966C42.3911 34.4959 42.3873 34.4922 42.4 34.4872ZM47.9618 34.4872C47.9733 34.4827 47.987 34.4832 47.9923 34.4884C47.9976 34.4936 47.9882 34.4973 47.9714 34.4966C47.9529 34.4959 47.9492 34.4922 47.9618 34.4872ZM33.9489 32.8803C33.9489 32.877 33.9614 32.8647 33.9767 32.8529C34.0019 32.8334 34.0025 32.834 33.9827 32.8588C33.962 32.8849 33.9489 32.8932 33.9489 32.8803ZM49.6982 32.8145C49.699 32.7963 49.7027 32.7925 49.7078 32.805C49.7124 32.8163 49.7118 32.8298 49.7065 32.835C49.7013 32.8402 49.6975 32.831 49.6982 32.8145ZM10.5427 32.7675C10.5435 32.7493 10.5472 32.7456 10.5523 32.7581C10.5569 32.7694 10.5563 32.7829 10.551 32.7881C10.5458 32.7933 10.542 32.784 10.5427 32.7675ZM34.092 32.7238C34.092 32.7206 34.1045 32.7082 34.1198 32.6964C34.145 32.677 34.1455 32.6775 34.1258 32.7023C34.105 32.7284 34.092 32.7367 34.092 32.7238ZM19.5859 32.6671C19.5859 32.6456 19.5896 32.6368 19.594 32.6476C19.5984 32.6583 19.5984 32.6759 19.594 32.6867C19.5896 32.6975 19.5859 32.6887 19.5859 32.6671ZM40.658 32.5811C40.6584 32.5553 40.6619 32.5466 40.666 32.5618C40.67 32.577 40.6697 32.5982 40.6654 32.6088C40.661 32.6194 40.6577 32.6069 40.658 32.5811ZM49.7159 32.5811C49.7163 32.5553 49.7198 32.5466 49.7239 32.5618C49.7279 32.577 49.7276 32.5982 49.7233 32.6088C49.7189 32.6194 49.7156 32.6069 49.7159 32.5811ZM34.235 32.5673C34.235 32.5641 34.2475 32.5518 34.2628 32.54C34.288 32.5205 34.2885 32.5211 34.2688 32.5459C34.248 32.5719 34.235 32.5802 34.235 32.5673ZM10.5333 30.4531C10.5333 29.3085 10.5352 28.8425 10.5375 29.4176C10.5398 29.9928 10.5398 30.9293 10.5375 31.4987C10.5352 32.0682 10.5333 31.5976 10.5333 30.4531ZM14.0586 32.4676C14.6164 32.4654 15.5246 32.4654 16.0767 32.4676C16.6289 32.4699 16.1724 32.4718 15.0624 32.4718C13.9525 32.4718 13.5007 32.4699 14.0586 32.4676ZM27.7713 32.4682C27.7953 32.4646 27.8347 32.4646 27.8587 32.4682C27.8827 32.4717 27.8631 32.4747 27.815 32.4747C27.7669 32.4747 27.7473 32.4717 27.7713 32.4682ZM44.188 32.4676C44.7458 32.4654 45.654 32.4654 46.2061 32.4676C46.7583 32.4699 46.3018 32.4718 45.1918 32.4718C44.0818 32.4718 43.6301 32.4699 44.188 32.4676ZM28.0981 32.453C28.1095 32.4485 28.1232 32.4491 28.1285 32.4543C28.1338 32.4595 28.1244 32.4632 28.1077 32.4625C28.0891 32.4617 28.0854 32.458 28.0981 32.453ZM34.378 32.4109C34.378 32.4076 34.3905 32.3953 34.4058 32.3835C34.431 32.364 34.4316 32.3646 34.4118 32.3894C34.391 32.4155 34.378 32.4238 34.378 32.4109ZM34.521 32.2544C34.521 32.2512 34.5335 32.2388 34.5488 32.227C34.574 32.2076 34.5746 32.2081 34.5548 32.2329C34.5341 32.259 34.521 32.2673 34.521 32.2544ZM29.7391 30.9525C29.7398 30.9342 29.7436 30.9305 29.7487 30.943C29.7533 30.9543 29.7527 30.9678 29.7474 30.973C29.7421 30.9782 29.7384 30.969 29.7391 30.9525ZM29.7613 29.4282C29.7613 28.7182 29.7632 28.4277 29.7656 28.7827C29.768 29.1377 29.768 29.7186 29.7656 30.0736C29.7632 30.4286 29.7613 30.1382 29.7613 29.4282ZM33.4322 28.1686C33.4322 27.1789 33.4341 26.7763 33.4364 27.274C33.4388 27.7716 33.4388 28.5814 33.4364 29.0734C33.4341 29.5654 33.4322 29.1582 33.4322 28.1686ZM33.6152 29.7665C33.6152 29.7632 33.6277 29.7509 33.643 29.7391C33.6682 29.7196 33.6688 29.7202 33.649 29.745C33.6283 29.7711 33.6152 29.7794 33.6152 29.7665ZM33.7741 29.5944C33.7741 29.5911 33.7866 29.5788 33.8019 29.567C33.8271 29.5475 33.8277 29.5481 33.8079 29.5729C33.7872 29.599 33.7741 29.6073 33.7741 29.5944ZM33.933 29.4223C33.933 29.419 33.9456 29.4067 33.9609 29.3949C33.9861 29.3754 33.9866 29.376 33.9669 29.4008C33.9461 29.4268 33.933 29.4351 33.933 29.4223ZM34.092 29.2501C34.092 29.2469 34.1045 29.2346 34.1198 29.2228C34.145 29.2033 34.1455 29.2038 34.1258 29.2287C34.105 29.2547 34.092 29.263 34.092 29.2501ZM34.3939 28.9215C34.3939 28.9183 34.4064 28.906 34.4217 28.8942C34.4469 28.8747 34.4475 28.8753 34.4277 28.9001C34.4069 28.9261 34.3939 28.9344 34.3939 28.9215ZM37.6515 28.8277C37.6515 28.8244 37.6641 28.8121 37.6794 28.8003C37.7046 28.7808 37.7051 28.7814 37.6854 28.8062C37.6646 28.8322 37.6515 28.8405 37.6515 28.8277ZM34.5528 28.7494C34.5528 28.7462 34.5653 28.7339 34.5806 28.722C34.6058 28.7026 34.6064 28.7031 34.5866 28.7279C34.5658 28.754 34.5528 28.7623 34.5528 28.7494ZM37.7946 28.6712C37.7946 28.6679 37.8071 28.6556 37.8224 28.6438C37.8476 28.6243 37.8481 28.6249 37.8284 28.6497C37.8076 28.6758 37.7946 28.6841 37.7946 28.6712ZM34.7117 28.5773C34.7117 28.5741 34.7242 28.5617 34.7395 28.5499C34.7647 28.5305 34.7653 28.531 34.7455 28.5558C34.7248 28.5819 34.7117 28.5902 34.7117 28.5773ZM37.9376 28.5147C37.9376 28.5115 37.9501 28.4991 37.9654 28.4873C37.9906 28.4679 37.9912 28.4684 37.9714 28.4932C37.9506 28.5193 37.9376 28.5276 37.9376 28.5147ZM14.0586 28.3994C14.6164 28.3971 15.5246 28.3971 16.0767 28.3994C16.6289 28.4016 16.1724 28.4035 15.0624 28.4035C13.9525 28.4035 13.5007 28.4016 14.0586 28.3994ZM24.2117 28.3994C24.7689 28.3971 25.6806 28.3971 26.2378 28.3994C26.795 28.4016 26.3391 28.4035 25.2248 28.4035C24.1104 28.4035 23.6545 28.4016 24.2117 28.3994ZM34.8706 28.4052C34.8706 28.4019 34.8831 28.3896 34.8984 28.3778C34.9236 28.3583 34.9242 28.3589 34.9044 28.3837C34.8837 28.4098 34.8706 28.4181 34.8706 28.4052ZM44.188 28.3994C44.7458 28.3971 45.654 28.3971 46.2061 28.3994C46.7583 28.4016 46.3018 28.4035 45.1918 28.4035C44.0818 28.4035 43.6301 28.4016 44.188 28.3994ZM40.6586 28.3329C40.6586 28.3027 40.6619 28.2904 40.6659 28.3055C40.6699 28.3205 40.6699 28.3452 40.6659 28.3602C40.6619 28.3753 40.6586 28.363 40.6586 28.3329ZM49.7165 28.3329C49.7165 28.3027 49.7198 28.2904 49.7238 28.3055C49.7278 28.3205 49.7278 28.3452 49.7238 28.3602C49.7198 28.3753 49.7165 28.363 49.7165 28.3329ZM38.0806 28.3582C38.0806 28.355 38.0931 28.3427 38.1084 28.3309C38.1336 28.3114 38.1342 28.312 38.1144 28.3368C38.0937 28.3628 38.0806 28.3711 38.0806 28.3582ZM19.5859 28.2546C19.5859 28.2331 19.5896 28.2243 19.594 28.2351C19.5984 28.2458 19.5984 28.2634 19.594 28.2742C19.5896 28.2849 19.5859 28.2761 19.5859 28.2546ZM38.2236 28.2018C38.2236 28.1985 38.2361 28.1862 38.2514 28.1744C38.2766 28.1549 38.2772 28.1555 38.2574 28.1803C38.2367 28.2064 38.2236 28.2146 38.2236 28.2018ZM38.3666 28.0453C38.3666 28.042 38.3792 28.0297 38.3945 28.0179C38.4197 27.9985 38.4202 27.999 38.4004 28.0238C38.3797 28.0499 38.3666 28.0582 38.3666 28.0453ZM35.3315 27.9045C35.3315 27.9012 35.344 27.8889 35.3593 27.8771C35.3845 27.8576 35.385 27.8582 35.3653 27.883C35.3445 27.9091 35.3315 27.9174 35.3315 27.9045ZM38.5097 27.8888C38.5097 27.8856 38.5222 27.8733 38.5375 27.8614C38.5627 27.842 38.5632 27.8425 38.5435 27.8674C38.5227 27.8934 38.5097 27.9017 38.5097 27.8888ZM35.4904 27.7324C35.4904 27.7291 35.5029 27.7168 35.5182 27.705C35.5434 27.6855 35.5439 27.6861 35.5242 27.7109C35.5034 27.7369 35.4904 27.7452 35.4904 27.7324ZM38.6527 27.7324C38.6527 27.7291 38.6652 27.7168 38.6805 27.705C38.7057 27.6855 38.7063 27.6861 38.6865 27.7109C38.6657 27.7369 38.6527 27.7452 38.6527 27.7324ZM38.7957 27.5759C38.7957 27.5726 38.8082 27.5603 38.8235 27.5485C38.8487 27.529 38.8493 27.5296 38.8295 27.5544C38.8087 27.5805 38.7957 27.5888 38.7957 27.5759ZM35.6493 27.5602C35.6493 27.557 35.6618 27.5447 35.6771 27.5329C35.7023 27.5134 35.7028 27.5139 35.6831 27.5388C35.6623 27.5648 35.6493 27.5731 35.6493 27.5602ZM38.9387 27.4194C38.9387 27.4162 38.9512 27.4038 38.9665 27.392C38.9917 27.3726 38.9923 27.3731 38.9725 27.3979C38.9518 27.424 38.9387 27.4323 38.9387 27.4194ZM39.0817 27.2629C39.0817 27.2597 39.0943 27.2474 39.1095 27.2356C39.1348 27.2161 39.1353 27.2166 39.1155 27.2415C39.0948 27.2675 39.0817 27.2758 39.0817 27.2629ZM39.2248 27.1065C39.2248 27.1032 39.2373 27.0909 39.2526 27.0791C39.2778 27.0596 39.2783 27.0602 39.2586 27.085C39.2378 27.1111 39.2248 27.1193 39.2248 27.1065ZM36.1101 27.0595C36.1101 27.0563 36.1226 27.044 36.1379 27.0321C36.1631 27.0127 36.1637 27.0132 36.1439 27.038C36.1232 27.0641 36.1101 27.0724 36.1101 27.0595ZM39.3678 26.95C39.3678 26.9467 39.3803 26.9344 39.3956 26.9226C39.4208 26.9031 39.4214 26.9037 39.4016 26.9285C39.3808 26.9546 39.3678 26.9629 39.3678 26.95ZM36.269 26.8874C36.269 26.8842 36.2815 26.8718 36.2968 26.86C36.322 26.8406 36.3226 26.8411 36.3028 26.8659C36.2821 26.892 36.269 26.9003 36.269 26.8874ZM39.5108 26.7935C39.5108 26.7903 39.5233 26.7779 39.5386 26.7661C39.5638 26.7467 39.5644 26.7472 39.5446 26.772C39.5238 26.7981 39.5108 26.8064 39.5108 26.7935ZM36.4279 26.7153C36.4279 26.712 36.4404 26.6997 36.4557 26.6879C36.4809 26.6684 36.4815 26.669 36.4617 26.6938C36.441 26.7199 36.4279 26.7282 36.4279 26.7153ZM39.6538 26.637C39.6538 26.6338 39.6663 26.6215 39.6816 26.6097C39.7068 26.5902 39.7074 26.5908 39.6876 26.6156C39.6669 26.6416 39.6538 26.6499 39.6538 26.637ZM36.5868 26.5432C36.5868 26.5399 36.5994 26.5276 36.6147 26.5158C36.6399 26.4963 36.6404 26.4969 36.6207 26.5217C36.5999 26.5478 36.5868 26.556 36.5868 26.5432ZM39.7968 26.4806C39.7968 26.4773 39.8093 26.465 39.8246 26.4532C39.8498 26.4337 39.8504 26.4343 39.8306 26.4591C39.8099 26.4852 39.7968 26.4935 39.7968 26.4806ZM12.2388 26.3819C12.2503 26.3774 12.264 26.3779 12.2693 26.3831C12.2745 26.3883 12.2652 26.392 12.2484 26.3914C12.2299 26.3906 12.2261 26.3869 12.2388 26.3819ZM12.4367 26.3661C12.4522 26.3621 12.4737 26.3624 12.4844 26.3667C12.4952 26.371 12.4825 26.3742 12.4563 26.3739C12.4301 26.3736 12.4213 26.3701 12.4367 26.3661ZM17.6567 26.3666C17.6676 26.3622 17.6855 26.3622 17.6964 26.3666C17.7073 26.3709 17.6984 26.3745 17.6765 26.3745C17.6547 26.3745 17.6457 26.3709 17.6567 26.3666ZM27.9223 26.3666C27.9332 26.3622 27.9511 26.3622 27.962 26.3666C27.9729 26.3709 27.964 26.3745 27.9421 26.3745C27.9203 26.3745 27.9113 26.3709 27.9223 26.3666ZM42.5662 26.3661C42.5816 26.3621 42.6031 26.3624 42.6138 26.3667C42.6246 26.371 42.6119 26.3742 42.5857 26.3739C42.5595 26.3736 42.5507 26.3701 42.5662 26.3661ZM47.7784 26.3661C47.7939 26.3621 47.8153 26.3624 47.8261 26.3667C47.8368 26.371 47.8242 26.3742 47.798 26.3739C47.7717 26.3736 47.7629 26.3701 47.7784 26.3661Z" fill="#D15764"/>
<path d="M41.1635 26.8542C41.1931 26.8241 41.2209 26.7994 41.2253 26.7994C41.2297 26.7994 41.209 26.8241 41.1793 26.8542C41.1497 26.8843 41.1219 26.909 41.1175 26.909C41.1131 26.909 41.1338 26.8843 41.1635 26.8542Z" fill="#C8394A"/>
<path d="M13.8348 34.5018C14.5144 34.4995 15.6264 34.4995 16.3059 34.5018C16.9854 34.504 16.4295 34.5059 15.0704 34.5059C13.7113 34.5059 13.1553 34.504 13.8348 34.5018ZM21.3195 34.5018C21.6669 34.4994 22.2354 34.4994 22.5829 34.5018C22.9303 34.5041 22.646 34.5061 21.9512 34.5061C21.2564 34.5061 20.9721 34.5041 21.3195 34.5018ZM43.9655 34.5018C44.6457 34.4995 45.7541 34.4995 46.4286 34.5018C47.1031 34.504 46.5465 34.5059 45.1918 34.5059C43.8371 34.5059 43.2853 34.504 43.9655 34.5018ZM17.7848 34.4872C17.7962 34.4827 17.8099 34.4832 17.8152 34.4884C17.8205 34.4936 17.8111 34.4973 17.7944 34.4966C17.7758 34.4959 17.7721 34.4922 17.7848 34.4872ZM42.4476 34.4872C42.4591 34.4827 42.4728 34.4832 42.4781 34.4884C42.4834 34.4936 42.474 34.4973 42.4572 34.4966C42.4387 34.4959 42.435 34.4922 42.4476 34.4872ZM47.9142 34.4872C47.9256 34.4827 47.9393 34.4832 47.9446 34.4884C47.9499 34.4936 47.9405 34.4973 47.9238 34.4966C47.9052 34.4959 47.9015 34.4922 47.9142 34.4872ZM11.0251 34.0089L10.9784 33.958L11.0301 34.004C11.0585 34.0293 11.0817 34.0522 11.0817 34.0548C11.0817 34.0669 11.0686 34.0563 11.0251 34.0089ZM40.6721 32.7675C40.6728 32.7493 40.6766 32.7456 40.6817 32.7581C40.6863 32.7694 40.6857 32.7829 40.6804 32.7881C40.6751 32.7933 40.6714 32.784 40.6721 32.7675ZM49.6982 32.7675C49.699 32.7493 49.7027 32.7456 49.7078 32.7581C49.7124 32.7694 49.7118 32.7829 49.7065 32.7881C49.7013 32.7933 49.6975 32.784 49.6982 32.7675ZM10.5427 32.7206C10.5434 32.7024 10.5472 32.6987 10.5523 32.7111C10.5569 32.7224 10.5563 32.7359 10.551 32.7411C10.5458 32.7463 10.542 32.7371 10.5427 32.7206ZM19.5865 32.5811C19.5868 32.5553 19.5904 32.5466 19.5944 32.5618C19.5985 32.577 19.5982 32.5982 19.5939 32.6088C19.5895 32.6194 19.5862 32.6069 19.5865 32.5811ZM40.6626 30.4531C40.6627 29.3085 40.6645 28.8425 40.6669 29.4176C40.6692 29.9928 40.6692 30.9293 40.6669 31.4987C40.6645 32.0682 40.6626 31.5977 40.6626 30.4531ZM49.7194 32.2447C49.7194 32.0855 49.7218 32.0203 49.7247 32.0999C49.7276 32.1795 49.7276 32.3098 49.7247 32.3894C49.7218 32.469 49.7194 32.4039 49.7194 32.2447ZM24.3309 32.4676C24.9536 32.4654 25.9726 32.4654 26.5953 32.4676C27.2181 32.4699 26.7086 32.4718 25.4631 32.4718C24.2176 32.4718 23.7081 32.4699 24.3309 32.4676ZM17.0797 31.963C17.0797 31.6833 17.0819 31.5689 17.0845 31.7087C17.0872 31.8486 17.0872 32.0774 17.0845 32.2173C17.0819 32.3571 17.0797 32.2427 17.0797 31.963ZM28.0504 32.453C28.0618 32.4485 28.0755 32.4491 28.0808 32.4543C28.0861 32.4595 28.0767 32.4632 28.06 32.4625C28.0415 32.4617 28.0377 32.458 28.0504 32.453ZM43.1734 30.4374C43.1734 29.3186 43.1753 28.8633 43.1776 29.4255C43.18 29.9877 43.1799 30.903 43.1776 31.4596C43.1753 32.0162 43.1734 31.5562 43.1734 30.4374ZM29.3008 31.9943C29.3166 31.9771 29.3331 31.963 29.3375 31.963C29.3419 31.963 29.3325 31.9771 29.3167 31.9943C29.3009 32.0115 29.2843 32.0256 29.28 32.0256C29.2756 32.0256 29.285 32.0115 29.3008 31.9943ZM34.7594 31.9884C34.7594 31.9852 34.7719 31.9728 34.7872 31.961C34.8124 31.9416 34.8129 31.9421 34.7932 31.9669C34.7724 31.993 34.7594 32.0013 34.7594 31.9884ZM29.739 30.9055C29.7398 30.8873 29.7436 30.8836 29.7487 30.8961C29.7532 30.9074 29.7527 30.9209 29.7474 30.9261C29.7421 30.9313 29.7384 30.922 29.739 30.9055ZM24.2117 30.4335C24.7689 30.4312 25.6806 30.4312 26.2378 30.4335C26.795 30.4358 26.3391 30.4376 25.2247 30.4376C24.1104 30.4376 23.6545 30.4358 24.2117 30.4335ZM36.6027 29.9699C36.6027 29.9667 36.6152 29.9543 36.6305 29.9425C36.6557 29.9231 36.6563 29.9236 36.6365 29.9484C36.6158 29.9745 36.6027 29.9828 36.6027 29.9699ZM36.7457 29.8134C36.7457 29.8102 36.7583 29.7979 36.7736 29.7861C36.7988 29.7666 36.7993 29.7671 36.7796 29.792C36.7588 29.818 36.7457 29.8263 36.7457 29.8134ZM33.6629 29.7196C33.6629 29.7163 33.6754 29.704 33.6907 29.6922C33.7159 29.6727 33.7165 29.6733 33.6967 29.6981C33.6759 29.7241 33.6629 29.7324 33.6629 29.7196ZM36.8888 29.657C36.8888 29.6537 36.9013 29.6414 36.9166 29.6296C36.9418 29.6101 36.9423 29.6107 36.9226 29.6355C36.9018 29.6616 36.8888 29.6698 36.8888 29.657ZM33.8218 29.5474C33.8218 29.5442 33.8343 29.5319 33.8496 29.5201C33.8748 29.5006 33.8754 29.5011 33.8556 29.526C33.8348 29.552 33.8218 29.5603 33.8218 29.5474ZM37.0318 29.5005C37.0318 29.4972 37.0443 29.4849 37.0596 29.4731C37.0848 29.4536 37.0854 29.4542 37.0656 29.479C37.0448 29.5051 37.0318 29.5134 37.0318 29.5005ZM17.0797 28.9118C17.0797 28.6321 17.0819 28.5177 17.0845 28.6575C17.0872 28.7974 17.0872 29.0262 17.0845 29.1661C17.0819 29.3059 17.0797 29.1915 17.0797 28.9118ZM37.1748 29.344C37.1748 29.3408 37.1873 29.3284 37.2026 29.3166C37.2278 29.2972 37.2284 29.2977 37.2086 29.3225C37.1878 29.3486 37.1748 29.3569 37.1748 29.344ZM37.3178 29.1875C37.3178 29.1843 37.3303 29.172 37.3456 29.1602C37.3708 29.1407 37.3714 29.1413 37.3516 29.1661C37.3309 29.1921 37.3178 29.2004 37.3178 29.1875ZM37.4608 29.0311C37.4608 29.0278 37.4734 29.0155 37.4886 29.0037C37.5139 28.9842 37.5144 28.9848 37.4946 29.0096C37.4739 29.0357 37.4608 29.044 37.4608 29.0311ZM49.7193 28.638C49.7193 28.4917 49.7217 28.4297 49.7246 28.5003C49.7276 28.5709 49.7276 28.6906 49.7246 28.7663C49.7217 28.842 49.7193 28.7843 49.7193 28.638H49.7193ZM34.4415 28.8746C34.4415 28.8714 34.4541 28.859 34.4694 28.8472C34.4946 28.8278 34.4951 28.8283 34.4754 28.8531C34.4546 28.8792 34.4415 28.8875 34.4415 28.8746ZM37.6039 28.8746C37.6039 28.8714 37.6164 28.859 37.6317 28.8472C37.6569 28.8278 37.6574 28.8283 37.6377 28.8531C37.6169 28.8792 37.6039 28.8875 37.6039 28.8746ZM34.6005 28.7025C34.6005 28.6992 34.613 28.6869 34.6283 28.6751C34.6535 28.6556 34.654 28.6562 34.6343 28.681C34.6135 28.7071 34.6005 28.7154 34.6005 28.7025ZM19.5871 28.3329C19.5871 28.3027 19.5904 28.2904 19.5944 28.3055C19.5984 28.3205 19.5984 28.3452 19.5944 28.3602C19.5904 28.3753 19.5871 28.363 19.5871 28.3329ZM10.5427 28.1986C10.5434 28.1803 10.5472 28.1766 10.5523 28.1891C10.5569 28.2004 10.5563 28.2139 10.551 28.2191C10.5458 28.2243 10.542 28.215 10.5427 28.1986ZM35.2202 28.0297C35.2202 28.0264 35.2327 28.0141 35.248 28.0023C35.2732 27.9828 35.2738 27.9834 35.254 28.0082C35.2333 28.0342 35.2202 28.0425 35.2202 28.0297ZM35.3791 27.8575C35.3791 27.8543 35.3916 27.842 35.4069 27.8301C35.4321 27.8107 35.4327 27.8112 35.4129 27.8361C35.3922 27.8621 35.3791 27.8704 35.3791 27.8575ZM35.538 27.6854C35.538 27.6822 35.5505 27.6698 35.5658 27.658C35.591 27.6386 35.5916 27.6391 35.5718 27.6639C35.5511 27.69 35.538 27.6983 35.538 27.6854ZM36.1578 27.0126C36.1578 27.0093 36.1703 26.997 36.1856 26.9852C36.2108 26.9657 36.2113 26.9663 36.1916 26.9911C36.1708 27.0172 36.1578 27.0255 36.1578 27.0126ZM49.2035 26.8503L49.1487 26.7916L49.2083 26.8455C49.2638 26.8957 49.2752 26.909 49.2631 26.909C49.2604 26.909 49.2336 26.8826 49.2035 26.8503ZM36.3167 26.8405C36.3167 26.8372 36.3292 26.8249 36.3445 26.8131C36.3697 26.7936 36.3703 26.7942 36.3505 26.819C36.3297 26.8451 36.3167 26.8533 36.3167 26.8405ZM17.8324 26.3819C17.8439 26.3774 17.8576 26.3779 17.8629 26.3831C17.8682 26.3883 17.8588 26.392 17.842 26.3914C17.8235 26.3906 17.8198 26.3869 17.8324 26.3819ZM12.524 26.3659C12.5438 26.3621 12.5724 26.3623 12.5876 26.3662C12.6028 26.3701 12.5866 26.3732 12.5516 26.373C12.5167 26.3728 12.5043 26.3696 12.524 26.3659ZM17.5533 26.3662C17.5686 26.3622 17.5937 26.3622 17.609 26.3662C17.6243 26.3701 17.6117 26.3733 17.5812 26.3733C17.5506 26.3733 17.5381 26.3701 17.5533 26.3662ZM27.7951 26.3659C27.8148 26.3622 27.847 26.3622 27.8666 26.3659C27.8863 26.3696 27.8702 26.3727 27.8309 26.3727C27.7915 26.3727 27.7755 26.3696 27.7951 26.3659ZM42.6534 26.3659C42.6732 26.3621 42.7018 26.3623 42.717 26.3662C42.7322 26.3701 42.716 26.3732 42.681 26.373C42.6461 26.3728 42.6337 26.3696 42.6534 26.3659ZM47.675 26.3659C47.6948 26.3621 47.7234 26.3623 47.7386 26.3662C47.7537 26.3701 47.7376 26.3732 47.7026 26.373C47.6676 26.3728 47.6552 26.3696 47.675 26.3659Z" fill="#C52B3D"/>
<path d="M12.1941 34.4745C11.6317 34.4073 11.2807 34.2602 11.008 33.9775C10.7786 33.7397 10.654 33.4498 10.5779 32.977C10.5514 32.8127 10.5494 32.6333 10.5494 30.4531C10.5494 28.2734 10.5514 28.0931 10.5779 27.926C10.6727 27.3274 10.8775 26.9462 11.2341 26.7046C11.4429 26.5632 11.7755 26.4535 12.1623 26.3986C12.3456 26.3725 12.5545 26.3699 14.8638 26.3648C17.4697 26.359 17.7766 26.3645 18.1277 26.4236C18.8272 26.5414 19.2448 26.8635 19.4394 27.4355C19.5401 27.7316 19.579 28.0076 19.5935 28.5284L19.6038 28.904L18.374 29.1516C17.6976 29.2878 17.1317 29.4027 17.1166 29.4069C17.0908 29.414 17.0887 29.3802 17.0848 28.9089L17.0806 28.4033L15.0664 28.3993L13.0522 28.3953V30.4374V32.4795L15.0664 32.4755L17.0806 32.4715L17.0848 31.9669C17.0871 31.6894 17.0935 31.4623 17.099 31.4623C17.1046 31.4623 17.6661 31.575 18.3469 31.7127C19.0277 31.8504 19.588 31.963 19.592 31.963C19.6056 31.963 19.5991 32.4539 19.5826 32.6811C19.5317 33.3808 19.3604 33.8002 19.0061 34.0932C18.7549 34.301 18.3676 34.434 17.8764 34.4812C17.609 34.5069 12.4139 34.5008 12.1941 34.4745ZM20.6958 30.429V26.3601L24.3785 26.3655C28.4073 26.3715 28.1849 26.3664 28.5634 26.4611C29.1274 26.6021 29.4712 26.8962 29.6315 27.3748C29.7477 27.7219 29.7457 27.6877 29.7457 29.4203C29.7457 30.8578 29.7436 30.9813 29.7164 31.1337C29.6443 31.5364 29.5129 31.7986 29.2726 32.019C29.0826 32.1933 28.8718 32.2984 28.5511 32.3787C28.2158 32.4626 28.1791 32.4637 25.5942 32.4637L23.2066 32.4637V33.4808V34.4979H21.9512H20.6958V30.429ZM27.2429 29.4203V28.3954H25.2247H23.2066V29.4203V30.4452H25.2247H27.2429V29.4203ZM30.9296 30.4374V26.377H32.1771H33.4245V28.1686C33.4245 29.1539 33.4305 29.9602 33.4377 29.9602C33.445 29.9602 34.1938 29.1539 35.1019 28.1686L36.7529 26.377H38.3258H39.8988L39.8343 26.4435C39.7872 26.492 37.7273 28.7453 36.5671 30.0175L36.5362 30.0514L38.4049 32.2663C39.4326 33.4845 40.2736 34.485 40.2736 34.4896C40.2736 34.4941 39.563 34.4979 38.6946 34.4979H37.1157L36.0055 33.1835C35.3949 32.4606 34.8906 31.8691 34.8849 31.8691C34.8792 31.8691 34.5483 32.2264 34.1495 32.6631L33.4245 33.457V33.9774V34.4979H32.1771H30.9296V30.4374ZM42.3632 34.4805C41.3019 34.3707 40.8152 33.906 40.6941 32.887C40.6747 32.7233 40.6708 32.32 40.6709 30.4532C40.6709 27.9977 40.6712 27.9887 40.766 27.6191C40.8467 27.3045 40.9575 27.0896 41.1373 26.899C41.3348 26.6897 41.5843 26.5533 41.9242 26.4687C42.3382 26.3657 42.2272 26.3691 45.1759 26.3691C47.2715 26.3691 47.8832 26.3735 48.0204 26.3895C48.5698 26.4537 48.9133 26.5855 49.1822 26.8353C49.5599 27.1863 49.7128 27.6836 49.7128 28.5605V28.9057L48.4932 29.1525C47.8224 29.2883 47.2575 29.4031 47.2378 29.4076L47.202 29.4159V28.9056V28.3953L45.1879 28.3993L43.1737 28.4033V30.4374V32.4715L45.1879 32.4755L47.202 32.4795V31.9709C47.202 31.6515 47.2078 31.4623 47.2175 31.4623C47.233 31.4623 49.6086 31.9406 49.6767 31.9575L49.7128 31.9664V32.3286C49.7128 32.9693 49.6452 33.3386 49.4645 33.6842C49.217 34.1575 48.7647 34.4033 47.9966 34.4819C47.8107 34.5009 42.5477 34.4996 42.3632 34.4805Z" fill="white"/>
</svg>
