<svg width="60" height="60" viewBox="0 0 60 60" fill="none" xmlns="http://www.w3.org/2000/svg">
<rect width="60" height="60" fill="#BA0018"/>
<g clip-path="url(#clip0_150_1098)">
<path fill-rule="evenodd" clip-rule="evenodd" d="M43.0622 13.8675C43.0622 12.5766 42.4973 11.7038 40.9926 11.7038C36.0933 11.7038 29.8614 20.696 27.6094 24.4285C24.5743 29.4882 21.0899 37.1792 21.0899 43.309C21.0899 45.6934 22.1016 47.4727 24.618 47.4727C29.9538 47.4727 34.1161 40.4467 34.1161 35.748C34.1315 35.4917 34.1281 35.232 34.1059 34.9688C34.0819 34.7125 34.0391 34.4605 33.9775 34.2129C33.9158 33.9636 33.8354 33.7194 33.7361 33.4805C33.6368 33.2398 33.5178 33.0103 33.3792 32.7921C33.5333 32.5913 33.7061 32.4095 33.8979 32.2467C34.0896 32.0908 34.3002 31.9549 34.5295 31.8389C34.7521 31.7298 34.9857 31.6484 35.2305 31.5947C35.477 31.5411 35.7227 31.5142 35.9675 31.5142C37.7726 31.5142 38.7047 32.7116 38.7047 34.7584C38.7047 41.3532 31.7949 49.9843 23.5601 49.9843C17.3178 49.9843 13.9618 46.7869 13.9618 40.5973C13.9618 28.0701 26.9752 10.0051 41.234 10.0051C44.5669 10.0051 47.982 11.0285 47.982 14.7402C47.982 19.6363 43.0391 23.0908 38.8639 24.4753C38.3966 24.6224 37.9258 24.7549 37.4517 24.8727C36.9758 24.98 36.4999 25.0727 36.024 25.1506C35.5412 25.2285 35.0585 25.283 34.5758 25.3142C34.0862 25.3523 33.5992 25.3714 33.1147 25.3714C32.8391 25.3714 32.5635 25.3679 32.2879 25.361C32.0123 25.3454 31.7367 25.3255 31.4611 25.3012C31.1838 25.2701 30.9073 25.2354 30.6317 25.1973C30.3561 25.1592 30.0839 25.1168 29.8151 25.0701L29.9307 24.5818C35.0713 24.4051 43.0622 19.2649 43.0622 13.8675ZM12.0283 14.0649C12.0051 13.6129 12.0745 13.1584 12.2362 12.7402C12.398 12.322 12.6497 11.948 12.9732 11.6337C13.2942 11.3194 13.6742 11.0753 14.0876 10.9376C14.5139 10.7843 14.9606 10.7272 15.3972 10.761C15.7079 10.761 16.0083 10.7843 16.3061 10.8545C16.5937 10.9376 16.8813 11.0415 17.1458 11.1921C17.4146 11.3393 17.6559 11.5255 17.8699 11.7506C18.0882 11.961 18.2731 12.2051 18.422 12.4727C18.1224 12.5662 17.8468 12.7056 17.5952 12.8908C17.3538 13.0649 17.133 13.2986 16.9609 13.5428C16.7786 13.7973 16.6502 14.0882 16.5604 14.3792C16.4782 14.683 16.4448 14.9973 16.4551 15.2986C16.4551 17.2753 17.9161 19.5454 19.331 20.7532L19.0999 21.1843C16.319 20.148 12.0283 17.6493 12.0283 14.0649Z" fill="white"/>
</g>
<defs>
<clipPath id="clip0_150_1098">
<rect width="36" height="40" fill="white" transform="translate(12 10)"/>
</clipPath>
</defs>
</svg>
