<svg width="60" height="60" viewBox="0 0 60 60" fill="none" xmlns="http://www.w3.org/2000/svg">
<rect width="60" height="60" fill="#005DAA"/>
<g clip-path="url(#clip0_1403_8884)">
<path d="M38.3498 18.6968C36.5951 18.6968 34.9415 19.1346 33.4905 19.9095H24.4473C23.8061 20.2464 23.1986 20.6843 22.625 21.1222H14.6613C14.2564 21.4591 13.8851 21.83 13.5139 22.2343H46.1467C44.1914 20.0643 41.4381 18.6968 38.3498 18.6968ZM46.1467 22.2343C46.157 22.2458 46.1681 22.2564 46.1783 22.2679V22.2343H46.1467ZM29.6435 23.4135C29.3735 23.8178 29.1375 24.2218 28.9013 24.6598H19.8918C19.6893 25.0641 19.52 25.4687 19.3513 25.9067H11.3877C11.2527 26.2773 11.1515 26.6475 11.0503 27.0181H48.6756V26.9846C48.3381 25.6706 47.7986 24.4579 47.0562 23.4135L29.6435 23.4135ZM27.8218 28.0966C27.7543 28.5009 27.7204 28.9049 27.6867 29.3429H18.6428V30.5556H10.6792L10.7807 31.6677H48.8779C48.9792 31.095 49.013 30.4883 49.013 29.8818C49.0468 29.2754 48.9797 28.6694 48.9122 28.0966H27.8218ZM28.0577 32.8133C28.159 33.2176 28.2938 33.6218 28.4288 34.026H19.3856C19.5543 34.464 19.7229 34.8681 19.9254 35.2723H11.9618C12.1642 35.6766 12.4004 36.0475 12.6367 36.3844H45.3011L48.642 32.8133H28.0577ZM30.5213 37.4965C30.9263 37.9344 31.3646 38.3722 31.8032 38.7427H22.7601C23.3337 39.2144 23.9747 39.6186 24.6496 39.9555H16.686C18.1033 40.663 19.6889 41.0675 21.3424 41.0675H21.376H40.9143L44.2888 37.4965H30.5213Z" fill="white"/>
</g>
<defs>
<clipPath id="clip0_1403_8884">
<rect width="40" height="24" fill="white" transform="translate(10 18)"/>
</clipPath>
</defs>
</svg>
