<?xml version="1.0" encoding="UTF-8"?>
<!-- generated by Finnhub -->
<svg viewBox="0 0 55.5 55.5" xmlns="http://www.w3.org/2000/svg">
<path d="M 0,0 H 55.5 V 55.5 H 0 Z" fill="rgb(43, 112, 204)"/>
<path d="M 11.99,27.105 L 27.1,12 A 16.02,16.02 0 0,0 12,27.12 Z M 31.1,28 H 44 C 44,29.34 43.84,30.76 43.52,32 H 35.18 L 40.85,37.56 A 16.13,16.13 0 0,1 38,40.51 L 23.43,25.9 L 21.21,28.1 L 35.34,42.24 A 15.9,15.9 0 0,1 31.05,43.74 L 18.31,30.97 L 16.1,33.2 L 26.9,44 A 16.01,16.01 0 0,1 12.3,31.22 L 31.2,12.3 C 32.66,12.6 34.05,13.1 35.34,13.77 L 35.4,13.8 L 35.45,13.82 C 37.35,14.82 39.13,16.34 40.48,18 H 31.42 L 28.4,21 H 42.38 A 14.9,14.9 0 0,1 43.71,25 H 28.18 L 31.1,28 Z" fill="rgb(254, 254, 253)"/>
</svg>
