<svg width="60" height="60" viewBox="0 0 60 60" fill="none" xmlns="http://www.w3.org/2000/svg">
<rect width="60" height="60" fill="#CF072B"/>
<g clip-path="url(#clip0_168_205)">
<path fill-rule="evenodd" clip-rule="evenodd" d="M32.5448 22.3634L33.0306 30.0703L36.5454 22.3634H42.2315L42.4496 30.0703L45.895 22.3634H52.1116L43.5899 38.7566H37.6658L37.4179 31.0343L33.6057 38.7566H28.2665L27.0668 22.3634H32.5448ZM26.8155 22.1007L25.5563 26.5464H19.0819C17.4063 26.5208 15.0367 28.0693 14.6996 30.6998C14.3476 33.4175 16.3108 33.8482 17.9269 33.9713H23.5337L22.2646 38.6426C22.2646 38.6426 16.1521 38.6272 15.7952 38.6426C11.4079 38.8118 8.55243 35.5609 9.18202 30.987C9.84135 26.1772 13.2867 22.1725 17.9566 22.1007C18.5664 22.0955 26.8155 22.1007 26.8155 22.1007Z" fill="white"/>
</g>
<defs>
<clipPath id="clip0_168_205">
<rect width="44" height="17" fill="white" transform="translate(9 22)"/>
</clipPath>
</defs>
</svg>
