<?xml version="1.0" encoding="UTF-8" standalone="no" ?>
<!DOCTYPE svg PUBLIC "-//W3C//DTD SVG 1.1//EN" "http://www.w3.org/Graphics/SVG/1.1/DTD/svg11.dtd">
<svg xmlns="http://www.w3.org/2000/svg" xmlns:xlink="http://www.w3.org/1999/xlink" version="1.1" width="1080" height="1080" viewBox="0 0 1080 1080" xml:space="preserve">
<desc>Created with Fabric.js 5.2.4</desc>
<defs>
</defs>
<g transform="matrix(1 0 0 1 540 540)" id="a594c750-74b4-41d9-9a24-bc4ec38c213c"  >
<rect style="stroke: none; stroke-width: 1; stroke-dasharray: none; stroke-linecap: butt; stroke-dashoffset: 0; stroke-linejoin: miter; stroke-miterlimit: 4; fill: rgb(255,255,255); fill-rule: nonzero; opacity: 1; visibility: hidden;" vector-effect="non-scaling-stroke"  x="-540" y="-540" rx="0" ry="0" width="1080" height="1080" />
</g>
<g transform="matrix(1 0 0 1 540 540)" id="58244694-79f5-49ca-b969-d8b2d522fded"  >
</g>
<g transform="matrix(2.39 0 0 2.39 540 540)"  >
<g style=""   >
		<g transform="matrix(1 0 0 1 -0.05 -13.55)" id="casella_logo" clip-path="url(#CLIPPATH_3)"  >
<clipPath id="CLIPPATH_3" >
	<rect transform="matrix(1 0 0 1 0.1 -0.05)" id="SVGID_00000030481874622676879030000012619347529621047964_" x="-179.15" y="-48.3" rx="0" ry="0" width="358.3" height="96.6" />
</clipPath>
<path style="stroke: none; stroke-width: 1; stroke-dasharray: none; stroke-linecap: butt; stroke-dashoffset: 0; stroke-linejoin: miter; stroke-miterlimit: 4; fill: rgb(0,37,63); fill-rule: nonzero; opacity: 1;" vector-effect="non-scaling-stroke"  transform=" translate(-225.45, -57.15)" d="M 397.4 93.1 L 391.09999999999997 105.5 L 53.8 105.5 C 49.699999999999996 105.5 46.3 102.2 46.3 98 L 46.3 16.3 C 46.3 12.200000000000001 49.599999999999994 8.8 53.8 8.8 L 280 8.8 L 280 21.200000000000003 L 64.2 21.200000000000003 C 61.2 21.200000000000003 58.7 23.700000000000003 58.7 26.700000000000003 L 58.7 87.6 C 58.7 90.6 61.2 93.1 64.2 93.1 L 397.4 93.1 z M 263.1 44.5 C 256.90000000000003 44.5 257.1 49.7 257.1 49.7 L 269.3 49.7 C 269.3 49.7 268.4 44.5 263.1 44.5 M 211.7 61.2 L 190.1 61.300000000000004 C 188.1 61.300000000000004 186.2 60.800000000000004 184.5 59.800000000000004 C 182.8 58.800000000000004 181.5 57.300000000000004 180.8 55.50000000000001 L 180.9 64.7 L 201.70000000000002 64.60000000000001 C 203.60000000000002 67.00000000000001 206.50000000000003 68.30000000000001 209.60000000000002 68.2 C 213.3 68.2 215.10000000000002 66.60000000000001 215.10000000000002 64.4 C 215.10000000000002 62.2 211.7 61.2 211.7 61.2 M 209.5 43.7 C 205.5 43.7 203.5 44.7 203.5 47.1 C 203.5 49.6 207.5 50.1 207.5 50.1 L 223.2 50.1 C 225.6 50 227.89999999999998 50.4 230.1 51.4 C 232.1 52.5 233.79999999999998 54.1 235 56.1 L 235 46.8 L 215.8 46.8 C 215.8 46.7 215 43.7 209.5 43.7 M 153.7 43.6 C 151 43.5 148.5 44.6 146.79999999999998 46.7 L 125.79999999999998 46.7 L 125.79999999999998 52 L 104 52 L 104 47.3 C 103.3 45 101.1 43.5 98.7 43.599999999999994 C 94.3 43.599999999999994 93.4 46.99999999999999 93.4 46.99999999999999 L 93.4 64.39999999999999 C 93.4 64.39999999999999 94 67.99999999999999 98.80000000000001 67.99999999999999 C 103.60000000000002 67.99999999999999 104.00000000000001 64.59999999999998 104.00000000000001 64.59999999999998 L 104.00000000000001 56.79999999999998 L 126.4 56.69999999999998 C 127 55.19999999999998 127.80000000000001 53.79999999999998 128.70000000000002 52.49999999999998 C 129.70000000000002 51.49999999999998 130.9 50.799999999999976 132.3 50.39999999999998 L 157.10000000000002 50.39999999999998 C 157.10000000000002 50.39999999999998 159.90000000000003 50.49999999999998 159.90000000000003 46.99999999999998 C 159.9 45.1 157.1 43.7 153.7 43.6 M 290.2 73.4 C 290.2 73.30000000000001 290.2 73.30000000000001 290.2 73.30000000000001 C 290.2 73.3 290.2 73.3 290.2 73.4 M 156.1 62.7 C 154.79999999999998 62.900000000000006 153.5 62.900000000000006 152.2 62.6 C 149.39999999999998 62.6 147.89999999999998 63.7 147.89999999999998 65.2 C 147.89999999999998 67.10000000000001 150.2 68 152.7 68 C 154.7 68 156.29999999999998 67.2 157.79999999999998 64.9 C 158.89999999999998 63.50000000000001 159.29999999999998 61.60000000000001 158.89999999999998 59.900000000000006 C 158.8 61 157.5 62.2 156.1 62.7 M 404.6 79.1 L 398.20000000000005 91.5 L 360.70000000000005 91.5 L 360.70000000000005 88.8 L 359.20000000000005 88.8 L 357.50000000000006 91.5 L 332.70000000000005 91.5 L 331.20000000000005 88.2 L 329.30000000000007 88.2 L 327.30000000000007 91.5 L 306.70000000000005 91.5 L 306.70000000000005 89.1 L 305.70000000000005 89.1 L 304.1 91.5 L 283.1 91.5 L 283.1 86.6 L 282.1 86.69999999999999 L 278.8 91.49999999999999 L 233 91.49999999999999 C 233 91.49999999999999 231.5 91.59999999999998 229.6 89.19999999999999 C 228 87.19999999999999 228 86.29999999999998 228 86.29999999999998 L 226.8 86.29999999999998 C 226.5 87.39999999999998 226 88.29999999999998 225.4 89.19999999999999 C 224.70000000000002 90.29999999999998 223.6 91.1 222.4 91.49999999999999 L 181.4 91.49999999999999 C 180.5 91.29999999999998 179.6 90.79999999999998 179 90.09999999999998 C 178.3 89.29999999999998 177.7 88.39999999999998 177.3 87.29999999999998 C 177 88.29999999999998 176.60000000000002 89.19999999999999 176 90.09999999999998 C 175.5 90.99999999999999 174.5 91.49999999999999 173.5 91.49999999999999 L 151.6 91.49999999999999 L 151.6 87.19999999999999 L 150.6 87.29999999999998 C 150.29999999999998 88.19999999999999 149.79999999999998 89.09999999999998 149.29999999999998 89.89999999999998 C 148.7 90.79999999999998 147.7 91.39999999999998 146.6 91.49999999999997 L 124.1 91.49999999999997 C 124.1 91.49999999999997 122.6 91.79999999999997 120.69999999999999 89.29999999999997 C 118.99999999999999 87.09999999999997 118.99999999999999 86.19999999999997 118.99999999999999 86.19999999999997 L 117.79999999999998 86.19999999999997 C 117.49999999999999 87.29999999999997 116.99999999999999 88.39999999999998 116.29999999999998 89.29999999999997 C 114.69999999999999 91.69999999999997 112.69999999999999 91.59999999999997 112.69999999999999 91.59999999999997 L 65.79999999999998 91.49999999999997 C 62.899999999999984 91.49999999999997 60.499999999999986 89.19999999999997 60.499999999999986 86.29999999999997 L 60.499999999999986 28.1 C 60.499999999999986 25.200000000000003 62.79999999999998 22.900000000000002 65.69999999999999 22.8 L 119.99999999999999 22.8 C 121.29999999999998 22.900000000000002 122.59999999999998 23.2 123.69999999999999 23.900000000000002 L 125.89999999999999 26.3 L 126.8 26.3 C 127.8 24.2 129.9 22.900000000000002 132.1 22.8 L 174.8 22.8 C 176 22.900000000000002 177.20000000000002 23.400000000000002 178.20000000000002 24.1 C 179.00000000000003 24.8 179.60000000000002 25.6 180.10000000000002 26.5 L 181.40000000000003 26.5 C 181.90000000000003 25.6 182.60000000000002 24.8 183.40000000000003 24.1 C 184.30000000000004 23.400000000000002 185.30000000000004 22.900000000000002 186.50000000000003 22.8 L 228.60000000000002 22.8 C 229.8 22.900000000000002 231.00000000000003 23.400000000000002 232.00000000000003 24.1 C 233.00000000000003 24.700000000000003 233.90000000000003 25.6 234.60000000000002 26.6 L 235.3 26.6 C 235.9 25.5 236.70000000000002 24.700000000000003 237.70000000000002 24.1 C 238.8 23.5 240.00000000000003 23.1 241.3 22.900000000000002 L 281.6 22.900000000000002 L 281.6 8.900000000000002 L 344.3 8.900000000000002 L 344.3 22.900000000000002 L 385.1 22.900000000000002 C 392.40000000000003 22.900000000000002 398.3 28.800000000000004 398.3 36.1 C 398.3 36.1 398.3 36.1 398.3 36.1 L 398.3 64.8 C 398.3 70.2 400.6 75.4 404.6 79.1 M 311.8 17.6 L 290.5 17.6 L 290.5 38.1 C 290 36.4 289.1 34.9 287.9 33.7 C 286.59999999999997 32.5 284.9 31.800000000000004 283.09999999999997 31.6 L 242.69999999999996 31.6 C 240.99999999999997 31.8 239.39999999999995 32.5 238.19999999999996 33.6 C 236.99999999999997 34.4 236.19999999999996 35.6 235.79999999999995 37 L 234.49999999999994 37 C 233.79999999999995 35.8 232.89999999999995 34.7 231.79999999999995 33.8 C 230.29999999999995 32.4 228.29999999999995 31.599999999999998 226.29999999999995 31.599999999999998 L 187.19999999999996 31.599999999999998 C 185.89999999999995 31.799999999999997 184.69999999999996 32.4 183.69999999999996 33.4 C 182.69999999999996 34.3 181.99999999999997 35.5 181.49999999999997 36.699999999999996 L 180.39999999999998 36.699999999999996 C 180.09999999999997 35.4 179.29999999999998 34.199999999999996 178.29999999999998 33.4 C 176.99999999999997 32.3 175.29999999999998 31.7 173.6 31.7 L 132.3 31.7 C 132.3 31.7 129.3 31.8 128.10000000000002 33 C 127.20000000000002 33.9 126.60000000000002 35.1 126.30000000000003 36.3 C 125.90000000000002 35.099999999999994 125.20000000000003 34.099999999999994 124.30000000000003 33.199999999999996 C 123.00000000000003 31.899999999999995 119.50000000000003 31.699999999999996 119.50000000000003 31.699999999999996 L 72.9 31.699999999999996 C 70.80000000000001 31.699999999999996 69.10000000000001 33.4 69.10000000000001 35.49999999999999 L 69.10000000000001 75.5 C 69.10000000000001 77.6 70.80000000000001 79.3 72.9 79.3 L 120 79.3 C 121.4 78.8 122.7 77.89999999999999 123.7 76.7 C 124.7 75.8 125.4 74.60000000000001 125.7 73.3 C 126.10000000000001 74.7 126.9 76 128 77 C 129 78.1 130.2 78.8 131.6 79.3 L 154.6 79.3 C 155.5 78.89999999999999 156.29999999999998 78.39999999999999 157.1 77.8 C 157.79999999999998 77 158.4 76.2 158.9 75.3 L 158.9 79.3 L 181.8 79.3 L 181.8 75.1 C 182.3 76.1 182.9 77 183.70000000000002 77.8 C 184.50000000000003 78.39999999999999 185.50000000000003 78.89999999999999 186.50000000000003 79.3 L 227.90000000000003 79.3 C 229.60000000000002 78.89999999999999 231.20000000000005 78.2 232.60000000000002 77.1 C 234.00000000000003 75.89999999999999 234.40000000000003 73.3 234.40000000000003 73.3 L 235.70000000000005 73.3 C 235.90000000000003 74.7 236.50000000000006 76 237.40000000000003 77 C 238.50000000000003 78.3 240.10000000000002 79.1 241.80000000000004 79.3 L 283.50000000000006 79.3 C 283.50000000000006 79.3 285.20000000000005 79.39999999999999 287.70000000000005 77.5 C 289.00000000000006 76.5 289.90000000000003 75.1 290.30000000000007 73.5 C 290.30000000000007 74.3 290.30000000000007 79.2 290.30000000000007 79.2 L 311.9000000000001 79.2 L 311.9000000000001 17.6 z M 393.2 79.1 C 390.9 77.5 389.5 74.8 389.5 72 L 389.5 40.4 C 389.5 35.5 385.6 31.5 380.7 31.5 C 380.7 31.5 380.7 31.5 380.7 31.5 L 342.3 31.5 C 340.7 32.1 339.3 32.9 338 33.9 C 336.9 34.9 336 36.1 335.4 37.5 L 335.4 17.5 L 314 17.5 L 314 79.1 L 334.9 79.1 L 334.9 72.89999999999999 L 336 72.89999999999999 C 336.5 74.6 337.4 76.1 338.6 77.3 C 339.8 78.5 341.5 79.1 343.20000000000005 79.1 L 362.40000000000003 79.1 C 363.6 79.3 364.8 78.89999999999999 365.70000000000005 78.19999999999999 C 366.50000000000006 77.6 367.20000000000005 76.79999999999998 367.70000000000005 75.99999999999999 L 367.70000000000005 79.09999999999998 L 393.2 79.09999999999998 z M 264.1 67.8 C 269.20000000000005 67.8 270.1 63.699999999999996 270.1 63.699999999999996 L 291 63.8 L 290.9 61.199999999999996 L 257.2 61.3 C 257.2 61.2 257.9 67.8 264.1 67.8 M 362.4 44.5 C 359 44.4 356.29999999999995 47.4 356.29999999999995 47.4 L 335.09999999999997 47.6 L 335.09999999999997 59 C 335.09999999999997 59 336.49999999999994 54.8 338.49999999999994 53.3 C 340.09999999999997 52.199999999999996 341.8999999999999 51.4 343.79999999999995 51 L 365 51 C 365 51 369 52.4 368.8 47.9 C 368.7 45.7 366.5 44.6 362.4 44.5 M 365.7 62.4 C 364.4 62.6 363.09999999999997 62.6 361.7 62.3 C 358.9 62.3 357.4 63.4 357.4 64.89999999999999 C 357.4 66.8 359.7 67.69999999999999 362.2 67.69999999999999 C 364.2 67.69999999999999 365.8 66.89999999999999 367.3 64.6 C 368.40000000000003 63.199999999999996 368.8 61.3 368.40000000000003 59.599999999999994 C 368.4 60.7 367.1 61.9 365.7 62.4" stroke-linecap="round" />
</g>
		<g transform="matrix(1 0 0 1 -82.9 57.2)" id="casella_logo"  >
<polygon style="stroke: none; stroke-width: 1; stroke-dasharray: none; stroke-linecap: butt; stroke-dashoffset: 0; stroke-linejoin: miter; stroke-miterlimit: 4; fill: rgb(118,188,33); fill-rule: nonzero; opacity: 1;" vector-effect="non-scaling-stroke"  points="-3.3,-4.6 -3.3,4.6 3.3,4.6 3.3,3.6 -2.3,3.6 -2.3,0.4 2.7,0.4 2.7,-0.5 -2.3,-0.5 -2.3,-3.7 3.3,-3.7 3.3,-4.6 " />
</g>
		<g transform="matrix(1 0 0 1 -71.4 57.2)" id="casella_logo" clip-path="url(#CLIPPATH_4)"  >
<clipPath id="CLIPPATH_4" >
	<rect transform="matrix(1 0 0 1 71.4 -57.2)" id="SVGID_00000134242764486162613760000005374101889177433986_" x="-225.5" y="-61.9" rx="0" ry="0" width="451" height="123.8" />
</clipPath>
<path style="stroke: none; stroke-width: 1; stroke-dasharray: none; stroke-linecap: butt; stroke-dashoffset: 0; stroke-linejoin: miter; stroke-miterlimit: 4; fill: rgb(118,188,33); fill-rule: nonzero; opacity: 1;" vector-effect="non-scaling-stroke"  transform=" translate(-154.1, -127.9)" d="M 150.7 131.1 L 151.29999999999998 130.29999999999998 C 152.1 131.1 153.29999999999998 131.6 154.39999999999998 131.6 C 155.59999999999997 131.6 156.39999999999998 131 156.39999999999998 130 L 156.39999999999998 130 C 156.39999999999998 129.1 155.89999999999998 128.7 153.99999999999997 128.3 C 151.89999999999998 127.80000000000001 150.89999999999998 127.20000000000002 150.89999999999998 125.70000000000002 L 150.89999999999998 125.70000000000002 C 150.89999999999998 124.30000000000001 152.2 123.20000000000002 153.89999999999998 123.20000000000002 C 155.09999999999997 123.20000000000002 156.2 123.60000000000002 157.09999999999997 124.30000000000001 L 156.49999999999997 125.10000000000001 C 155.79999999999998 124.50000000000001 154.79999999999998 124.10000000000001 153.89999999999998 124.10000000000001 C 152.7 124.10000000000001 151.99999999999997 124.80000000000001 151.99999999999997 125.60000000000001 L 151.99999999999997 125.60000000000001 C 151.99999999999997 126.50000000000001 152.49999999999997 126.9 154.49999999999997 127.4 C 156.49999999999997 127.9 157.49999999999997 128.6 157.49999999999997 130 L 157.49999999999997 130 C 157.49999999999997 131.6 156.19999999999996 132.6 154.39999999999998 132.6 C 153 132.6 151.7 132.1 150.7 131.1" stroke-linecap="round" />
</g>
		<g transform="matrix(1 0 0 1 -59.8 57.2)" id="casella_logo"  >
<polygon style="stroke: none; stroke-width: 1; stroke-dasharray: none; stroke-linecap: butt; stroke-dashoffset: 0; stroke-linejoin: miter; stroke-miterlimit: 4; fill: rgb(118,188,33); fill-rule: nonzero; opacity: 1;" vector-effect="non-scaling-stroke"  points="-3.6,-4.6 -3.6,-3.6 -0.5,-3.6 -0.5,4.6 0.5,4.6 0.5,-3.6 3.6,-3.6 3.6,-4.6 " />
</g>
		<g transform="matrix(1 0 0 1 -48.3 57.2)" id="casella_logo"  >
<path style="stroke: none; stroke-width: 1; stroke-dasharray: none; stroke-linecap: butt; stroke-dashoffset: 0; stroke-linejoin: miter; stroke-miterlimit: 4; fill: rgb(118,188,33); fill-rule: nonzero; opacity: 1;" vector-effect="non-scaling-stroke"  transform=" translate(-177.2, -127.9)" d="M 177.2 124.5 L 179.29999999999998 129.2 L 175.1 129.2 L 177.2 124.5 z M 176.7 123.3 L 172.5 132.5 L 173.6 132.5 L 174.7 130.1 L 179.7 130.1 L 180.79999999999998 132.5 L 181.89999999999998 132.5 L 177.7 123.3 L 176.7 123.3 z" stroke-linecap="round" />
</g>
		<g transform="matrix(1 0 0 1 -34.85 57.15)" id="casella_logo" clip-path="url(#CLIPPATH_5)"  >
<clipPath id="CLIPPATH_5" >
	<rect transform="matrix(1 0 0 1 34.85 -57.15)" id="SVGID_00000152985988695022079070000005888573508911857820_" x="-225.5" y="-61.9" rx="0" ry="0" width="451" height="123.8" />
</clipPath>
<path style="stroke: none; stroke-width: 1; stroke-dasharray: none; stroke-linecap: butt; stroke-dashoffset: 0; stroke-linejoin: miter; stroke-miterlimit: 4; fill: rgb(118,188,33); fill-rule: nonzero; opacity: 1;" vector-effect="non-scaling-stroke"  transform=" translate(-190.65, -127.85)" d="M 190.8 128.3 L 187.9 128.3 L 187.9 131.5 L 191 131.5 C 192.4 131.5 193.2 130.9 193.2 129.9 L 193.2 129.9 C 193.3 128.9 192.4 128.3 190.8 128.3 M 192.7 125.7 C 192.7 124.8 192 124.2 190.7 124.2 L 188 124.2 L 188 127.4 L 190.7 127.4 C 191.9 127.4 192.8 126.8 192.7 125.7 L 192.7 125.7 z M 186.9 123.3 L 190.8 123.3 C 191.70000000000002 123.3 192.5 123.5 193.20000000000002 124.1 C 193.60000000000002 124.5 193.8 125 193.8 125.6 L 193.8 125.6 C 193.8 126.5 193.20000000000002 127.39999999999999 192.4 127.69999999999999 C 193.5 127.79999999999998 194.4 128.79999999999998 194.4 129.89999999999998 L 194.4 129.89999999999998 C 194.4 131.49999999999997 193.1 132.39999999999998 191.1 132.39999999999998 L 187 132.39999999999998 L 186.9 123.3 z" stroke-linecap="round" />
</g>
		<g transform="matrix(1 0 0 1 -22.8 57.2)" id="casella_logo"  >
<polygon style="stroke: none; stroke-width: 1; stroke-dasharray: none; stroke-linecap: butt; stroke-dashoffset: 0; stroke-linejoin: miter; stroke-miterlimit: 4; fill: rgb(118,188,33); fill-rule: nonzero; opacity: 1;" vector-effect="non-scaling-stroke"  points="-3.1,-4.6 -3.1,4.6 3.1,4.6 3.1,3.6 -2,3.6 -2,-4.6 " />
</g>
		<g transform="matrix(1 0 0 1 -13.9 57.2)" id="casella_logo"  >
<rect style="stroke: none; stroke-width: 1; stroke-dasharray: none; stroke-linecap: butt; stroke-dashoffset: 0; stroke-linejoin: miter; stroke-miterlimit: 4; fill: rgb(118,188,33); fill-rule: nonzero; opacity: 1;" vector-effect="non-scaling-stroke"  x="-0.5" y="-4.6" rx="0" ry="0" width="1" height="9.2" />
</g>
		<g transform="matrix(1 0 0 1 -4.55 57.2)" id="casella_logo" clip-path="url(#CLIPPATH_6)"  >
<clipPath id="CLIPPATH_6" >
	<rect transform="matrix(1 0 0 1 4.55 -57.2)" id="SVGID_00000071520721039939069630000009392513322307794067_" x="-225.5" y="-61.9" rx="0" ry="0" width="451" height="123.8" />
</clipPath>
<path style="stroke: none; stroke-width: 1; stroke-dasharray: none; stroke-linecap: butt; stroke-dashoffset: 0; stroke-linejoin: miter; stroke-miterlimit: 4; fill: rgb(118,188,33); fill-rule: nonzero; opacity: 1;" vector-effect="non-scaling-stroke"  transform=" translate(-220.95, -127.9)" d="M 217.5 131.1 L 218.1 130.29999999999998 C 218.9 131.1 220.1 131.6 221.2 131.6 C 222.39999999999998 131.6 223.29999999999998 131 223.29999999999998 130 L 223.29999999999998 130 C 223.29999999999998 129.1 222.79999999999998 128.7 220.89999999999998 128.3 C 218.79999999999998 127.80000000000001 217.79999999999998 127.20000000000002 217.79999999999998 125.70000000000002 L 217.79999999999998 125.70000000000002 C 217.79999999999998 124.30000000000001 219.1 123.20000000000002 220.79999999999998 123.20000000000002 C 221.99999999999997 123.20000000000002 223.1 123.60000000000002 223.99999999999997 124.30000000000001 L 223.39999999999998 125.10000000000001 C 222.7 124.50000000000001 221.7 124.10000000000001 220.79999999999998 124.10000000000001 C 219.6 124.10000000000001 218.89999999999998 124.80000000000001 218.89999999999998 125.60000000000001 L 218.89999999999998 125.60000000000001 C 218.89999999999998 126.50000000000001 219.39999999999998 126.9 221.39999999999998 127.4 C 223.39999999999998 127.9 224.39999999999998 128.6 224.39999999999998 130 L 224.39999999999998 130 C 224.39999999999998 131.6 223.09999999999997 132.6 221.29999999999998 132.6 C 219.8 132.6 218.5 132.1 217.5 131.1" stroke-linecap="round" />
</g>
		<g transform="matrix(1 0 0 1 7.9 57.2)" id="casella_logo"  >
<polygon style="stroke: none; stroke-width: 1; stroke-dasharray: none; stroke-linecap: butt; stroke-dashoffset: 0; stroke-linejoin: miter; stroke-miterlimit: 4; fill: rgb(118,188,33); fill-rule: nonzero; opacity: 1;" vector-effect="non-scaling-stroke"  points="2.6,-4.6 2.6,-0.5 -2.7,-0.5 -2.7,-4.6 -3.7,-4.6 -3.7,4.6 -2.7,4.6 -2.7,0.4 2.6,0.4 2.6,4.6 3.7,4.6 3.7,-4.6 " />
</g>
		<g transform="matrix(1 0 0 1 20.75 57.2)" id="casella_logo"  >
<polygon style="stroke: none; stroke-width: 1; stroke-dasharray: none; stroke-linecap: butt; stroke-dashoffset: 0; stroke-linejoin: miter; stroke-miterlimit: 4; fill: rgb(118,188,33); fill-rule: nonzero; opacity: 1;" vector-effect="non-scaling-stroke"  points="-3.35,-4.6 -3.35,4.6 3.35,4.6 3.35,3.6 -2.25,3.6 -2.25,0.4 2.65,0.4 2.65,-0.5 -2.25,-0.5 -2.25,-3.7 3.25,-3.7 3.25,-4.6 " />
</g>
		<g transform="matrix(1 0 0 1 33.55 57.19)" id="casella_logo" clip-path="url(#CLIPPATH_7)"  >
<clipPath id="CLIPPATH_7" >
	<rect transform="matrix(1 0 0 1 -33.55 -57.19)" id="SVGID_00000096022034611871424370000006713670831788947109_" x="-225.5" y="-61.9" rx="0" ry="0" width="451" height="123.8" />
</clipPath>
<path style="stroke: none; stroke-width: 1; stroke-dasharray: none; stroke-linecap: butt; stroke-dashoffset: 0; stroke-linejoin: miter; stroke-miterlimit: 4; fill: rgb(118,188,33); fill-rule: nonzero; opacity: 1;" vector-effect="non-scaling-stroke"  transform=" translate(-259.05, -127.89)" d="M 256 124.3 L 256 131.5 L 258.1 131.5 C 260.1 131.6 261.70000000000005 130.2 261.90000000000003 128.2 C 261.90000000000003 128.1 261.90000000000003 127.99999999999999 261.90000000000003 127.89999999999999 L 261.90000000000003 127.89999999999999 C 261.90000000000003 125.89999999999999 260.40000000000003 124.3 258.40000000000003 124.3 C 258.3 124.3 258.20000000000005 124.3 258.1 124.3 L 256 124.3 z M 255 123.3 L 258.2 123.3 C 260.7 123.1 262.9 125 263.09999999999997 127.6 C 263.09999999999997 127.69999999999999 263.09999999999997 127.8 263.09999999999997 127.89999999999999 L 263.09999999999997 127.89999999999999 C 263.09999999999997 130.39999999999998 260.99999999999994 132.5 258.49999999999994 132.5 C 258.3999999999999 132.5 258.29999999999995 132.5 258.19999999999993 132.5 L 255 132.5 L 255 123.3 z" stroke-linecap="round" />
</g>
		<g transform="matrix(1 0 0 1 50.7 57.15)" id="casella_logo"  >
<polygon style="stroke: none; stroke-width: 1; stroke-dasharray: none; stroke-linecap: butt; stroke-dashoffset: 0; stroke-linejoin: miter; stroke-miterlimit: 4; fill: rgb(118,188,33); fill-rule: nonzero; opacity: 1;" vector-effect="non-scaling-stroke"  points="0.8,-4.65 -1.5,-3.85 -1.2,-3.05 0.5,-3.55 0.5,4.65 1.5,4.65 1.5,-4.65 " />
</g>
		<g transform="matrix(1 0 0 1 61.03 57.25)" id="casella_logo" clip-path="url(#CLIPPATH_8)"  >
<clipPath id="CLIPPATH_8" >
	<rect transform="matrix(1 0 0 1 -61.03 -57.25)" id="SVGID_00000116938326711032909210000011392248313996430475_" x="-225.5" y="-61.9" rx="0" ry="0" width="451" height="123.8" />
</clipPath>
<path style="stroke: none; stroke-width: 1; stroke-dasharray: none; stroke-linecap: butt; stroke-dashoffset: 0; stroke-linejoin: miter; stroke-miterlimit: 4; fill: rgb(118,188,33); fill-rule: nonzero; opacity: 1;" vector-effect="non-scaling-stroke"  transform=" translate(-286.53, -127.95)" d="M 288.7 126.2 L 288.7 126.2 C 288.7 125 287.7 124.10000000000001 286.5 124.10000000000001 C 286.5 124.10000000000001 286.4 124.10000000000001 286.4 124.10000000000001 C 285.2 124.00000000000001 284.29999999999995 124.9 284.2 126.10000000000001 C 284.2 126.2 284.2 126.2 284.2 126.30000000000001 L 284.2 126.30000000000001 C 284.2 127.4 285.2 128.3 286.3 128.3 C 286.40000000000003 128.3 286.40000000000003 128.3 286.5 128.3 C 287.6 128.3 288.6 127.4 288.7 126.2 C 288.7 126.2 288.7 126.2 288.7 126.2 M 288.9 127.8 L 288.9 127.6 C 288.4 128.5 287.4 129.1 286.29999999999995 129.1 C 284.69999999999993 129.29999999999998 283.29999999999995 128.1 283.09999999999997 126.5 C 283.09999999999997 126.4 283.09999999999997 126.4 283.09999999999997 126.3 L 283.09999999999997 126.3 C 283.09999999999997 124.6 284.49999999999994 123.2 286.2 123.2 C 286.3 123.2 286.3 123.2 286.4 123.2 C 287.29999999999995 123.2 288.2 123.5 288.79999999999995 124.10000000000001 C 289.69999999999993 125.10000000000001 290.09999999999997 126.4 289.9 127.7 L 289.9 127.7 C 289.9 130.6 288.4 132.7 286.09999999999997 132.7 C 284.99999999999994 132.7 283.99999999999994 132.29999999999998 283.29999999999995 131.5 L 283.9 130.7 C 284.5 131.29999999999998 285.29999999999995 131.7 286.09999999999997 131.7 C 287.9 131.7 288.9 129.8 288.9 127.8" stroke-linecap="round" />
</g>
		<g transform="matrix(1 0 0 1 72.3 57.2)" id="casella_logo"  >
<polygon style="stroke: none; stroke-width: 1; stroke-dasharray: none; stroke-linecap: butt; stroke-dashoffset: 0; stroke-linejoin: miter; stroke-miterlimit: 4; fill: rgb(118,188,33); fill-rule: nonzero; opacity: 1;" vector-effect="non-scaling-stroke"  points="-3.1,-4.6 -3.1,-3.7 1.9,-3.7 -2.2,4.6 -1.1,4.6 3.1,-3.8 3.1,-4.6 " />
</g>
		<g transform="matrix(1 0 0 1 83 57.35)" id="casella_logo" clip-path="url(#CLIPPATH_9)"  >
<clipPath id="CLIPPATH_9" >
	<rect transform="matrix(1 0 0 1 -83 -57.35)" id="SVGID_00000017477177554550008180000010420989278366190755_" x="-225.5" y="-61.9" rx="0" ry="0" width="451" height="123.8" />
</clipPath>
<path style="stroke: none; stroke-width: 1; stroke-dasharray: none; stroke-linecap: butt; stroke-dashoffset: 0; stroke-linejoin: miter; stroke-miterlimit: 4; fill: rgb(118,188,33); fill-rule: nonzero; opacity: 1;" vector-effect="non-scaling-stroke"  transform=" translate(-308.5, -128.05)" d="M 305.2 131.2 L 305.9 130.39999999999998 C 306.59999999999997 131.09999999999997 307.5 131.59999999999997 308.5 131.7 C 309.6 131.79999999999998 310.6 130.89999999999998 310.7 129.79999999999998 C 310.7 129.79999999999998 310.7 129.7 310.7 129.7 L 310.7 129.7 C 310.7 128.6 309.7 127.69999999999999 308.59999999999997 127.79999999999998 C 308.49999999999994 127.79999999999998 308.49999999999994 127.79999999999998 308.4 127.79999999999998 C 307.7 127.79999999999998 307.09999999999997 127.99999999999999 306.5 128.29999999999998 L 305.8 127.89999999999998 L 306.1 123.39999999999998 L 311.40000000000003 123.39999999999998 L 311.40000000000003 124.39999999999998 L 307 124.39999999999998 L 306.8 127.29999999999998 C 307.40000000000003 126.99999999999999 308 126.89999999999998 308.6 126.89999999999998 C 310.40000000000003 126.89999999999998 311.8 127.89999999999998 311.8 129.7 L 311.8 129.7 C 311.8 131.39999999999998 310.5 132.7 308.8 132.7 C 308.7 132.7 308.6 132.7 308.5 132.7 C 307.2 132.6 306 132.1 305.2 131.2" stroke-linecap="round" />
</g>
		<g transform="matrix(1 0 0 1 -160.39 57.5)" id="casella_logo" clip-path="url(#CLIPPATH_10)"  >
<clipPath id="CLIPPATH_10" >
	<rect transform="matrix(1 0 0 1 160.39 -57.5)" id="SVGID_00000017477177554550008180000010420989278366190755_" x="-225.5" y="-61.9" rx="0" ry="0" width="451" height="123.8" />
</clipPath>
<path style="stroke: none; stroke-width: 1; stroke-dasharray: none; stroke-linecap: butt; stroke-dashoffset: 0; stroke-linejoin: miter; stroke-miterlimit: 4; fill: rgb(118,188,33); fill-rule: nonzero; opacity: 1;" vector-effect="non-scaling-stroke"  transform=" translate(-65.11, -128.2)" d="M 128.9 126.7 C 128.9 126.7 122.2 126.8 119 126.8 C 116.2 126.8 24.099999999999994 127.8 0 128.1 L 0 128.2 C 24.1 128.5 116.2 129.6 119 129.6 C 122.2 129.6 128.9 129.7 128.9 129.7 C 129.70000000000002 129.6 130.3 128.89999999999998 130.20000000000002 127.99999999999999 C 130.2 127.2 129.6 126.7 128.9 126.7" stroke-linecap="round" />
</g>
		<g transform="matrix(1 0 0 1 160.29 57.4)" id="casella_logo" clip-path="url(#CLIPPATH_11)"  >
<clipPath id="CLIPPATH_11" >
	<rect transform="matrix(1 0 0 1 -160.29 -57.4)" id="SVGID_00000017477177554550008180000010420989278366190755_" x="-225.5" y="-61.9" rx="0" ry="0" width="451" height="123.8" />
</clipPath>
<path style="stroke: none; stroke-width: 1; stroke-dasharray: none; stroke-linecap: butt; stroke-dashoffset: 0; stroke-linejoin: miter; stroke-miterlimit: 4; fill: rgb(118,188,33); fill-rule: nonzero; opacity: 1;" vector-effect="non-scaling-stroke"  transform=" translate(-385.79, -128.1)" d="M 331.8 126.7 C 328.6 126.7 321.90000000000003 126.60000000000001 321.90000000000003 126.60000000000001 C 321.1 126.7 320.50000000000006 127.4 320.6 128.3 C 320.70000000000005 129 321.20000000000005 129.5 321.90000000000003 129.60000000000002 C 321.90000000000003 129.60000000000002 328.50000000000006 129.50000000000003 331.8 129.50000000000003 C 335.09999999999997 129.50000000000003 345.90000000000003 129.50000000000003 451 128.10000000000002 L 451 128.00000000000003 C 425.4 127.8 334.5 126.8 331.8 126.7" stroke-linecap="round" />
</g>
</g>
</g>
</svg>