<svg width="60" height="60" viewBox="0 0 60 60" fill="none" xmlns="http://www.w3.org/2000/svg">
<rect width="60" height="60" fill="black"/>
<g clip-path="url(#clip0_1772_9279)">
<path d="M19.9846 38.4666C15.5524 32.5948 15.9262 24.5683 20.4118 19.2891C19.4506 19.7739 18.5428 20.3126 17.6884 20.959C10.7998 26.2382 9.30456 35.9886 14.3242 42.7223C19.3972 49.456 29.0626 50.6411 36.0046 45.3619C36.8056 44.7155 37.5532 44.0152 38.2474 43.261C32.053 46.17 24.4168 44.3384 19.9846 38.4666Z" fill="#60646A"/>
<path d="M48.9808 27.2079C48.34 28.2853 47.4856 29.2011 46.5244 29.9014C45.6166 30.6017 44.6019 31.0865 43.5339 31.4636C42.0387 31.9484 40.9173 33.1336 40.7037 34.6958C40.1697 38.736 37.9269 42.5069 34.1889 44.931C28.4751 48.5941 20.8389 47.6245 16.2465 42.6685C10.2657 36.3119 11.2269 26.346 17.9553 21.2284C21.1593 18.8043 25.0575 17.8885 28.7421 18.4811C30.0771 18.6965 31.4121 18.104 32.1597 16.9188L32.2131 16.8111C32.5869 16.2185 32.9607 15.6798 33.4413 15.195C34.5627 14.0099 35.9511 13.0941 37.4997 12.6093C38.0337 12.4477 38.5677 12.3399 39.1017 12.2322C30.6111 7.86875 19.4505 9.86193 13.1493 19.2352C9.94532 23.9758 8.98412 29.9553 10.6395 35.3961C15.0183 49.9409 31.3053 54.3582 42.0387 46.17C48.34 41.3218 51.01 33.4568 49.5682 26.1305C49.3546 26.4538 49.1944 26.8308 48.9808 27.2079Z" fill="#9FCB3B"/>
<path d="M38.621 16.0569C37.6598 16.3801 36.8054 16.9188 36.1112 17.673C35.8442 17.9962 35.5772 18.3194 35.3102 18.6965C34.1354 20.5819 34.1354 22.8444 34.9898 24.676C35.4704 25.6995 36.2714 26.6153 37.286 27.2617C38.3006 27.9082 39.4754 28.1775 40.5968 28.1775C42.626 28.1236 44.6018 27.1001 45.7766 25.2147C45.9902 24.8376 46.2038 24.4605 46.3106 24.0834C46.6844 23.1138 46.7378 22.0903 46.631 21.0667C46.364 19.289 45.4028 17.673 43.7474 16.6494C42.1988 15.6798 40.3298 15.5182 38.621 16.0569Z" fill="#60646A"/>
</g>
<defs>
<clipPath id="clip0_1772_9279">
<rect width="41.3" height="41.3" fill="white" transform="translate(9 9)"/>
</clipPath>
</defs>
</svg>
