<svg width="60" height="60" viewBox="0 0 60 60" fill="none" xmlns="http://www.w3.org/2000/svg">
<rect width="60" height="60" fill="#E4001C"/>
<g clip-path="url(#clip0_168_356)">
<path d="M17.0615 25.6938C16.5573 25.6938 15.8297 25.856 14.5137 26.2987V34.6964C15.6707 35.0781 16.5573 35.3014 17.0615 35.3014C18.2237 35.3014 18.8789 34.5272 18.8789 33.2854V27.7098C18.8789 26.468 18.2237 25.6938 17.0615 25.6938ZM17.4402 33.0696C17.4402 33.5557 17.1721 33.7174 16.8515 33.7174C16.6019 33.7174 16.2167 33.6186 15.9026 33.5251V27.4668C16.2167 27.3766 16.6019 27.2778 16.8515 27.2778C17.1721 27.2778 17.4402 27.4395 17.4402 27.9256V33.0696Z" fill="white"/>
<path d="M33.6774 24.182C32.2057 24.1044 31.3293 24.8118 31.3293 26.4316V34.4786C31.3293 36.1886 32.123 36.8923 33.6774 36.8185C35.1987 36.7465 35.9924 36.1167 35.9924 34.2986V26.6172C35.9924 24.8837 35.2745 24.2666 33.6774 24.182ZM34.3883 34.3348C34.3883 34.8208 34.2396 35.0728 33.6774 35.0906C33.0988 35.109 32.9418 34.8387 32.9418 34.3348V26.6657C32.9418 26.1618 33.0988 25.8826 33.6774 25.9009C34.2396 25.9188 34.3883 26.1796 34.3883 26.6657V34.3348Z" fill="white"/>
<path d="M47.9834 27.3227V33.6616C49.7891 32.7276 50.8258 31.6423 50.8258 30.4795C50.8258 29.3293 49.7891 28.2496 47.9834 27.3227Z" fill="white"/>
<path d="M9.17432 30.4796C9.17432 31.6406 10.2096 32.7278 12.0149 33.6599V27.3247C10.2096 28.2497 9.17432 29.3294 9.17432 30.4796Z" fill="white"/>
<path d="M22.9297 34.0541C22.9297 34.5401 22.7759 34.848 22.2188 34.7742C21.6714 34.7022 21.5241 34.4498 21.5241 33.874V24.7346C21.1607 24.7778 20.3503 24.9001 20.0032 24.9541V34.1979C20.0032 35.6738 20.6612 36.2482 22.2188 36.4423C23.6439 36.6205 24.5171 35.836 24.5171 34.1979V24.4319C24.2197 24.4502 23.2439 24.54 22.9297 24.5762V34.0541Z" fill="white"/>
<path d="M40.3988 31.0339L38.6377 24.7796C38.1582 24.711 37.5796 24.6409 37.1331 24.5958V36.4008C37.4472 36.3688 38.2478 36.2697 38.6609 36.2119L38.5354 29.2558L40.3988 35.9402C40.7956 35.872 41.3741 35.762 41.7547 35.6831V25.3103C41.3579 25.2257 40.6367 25.0926 40.2896 25.0353L40.3988 31.0339Z" fill="white"/>
<path d="M27.9662 24.2504C27.6902 24.2504 26.6832 24.2879 25.7571 24.3476V36.6495C26.0712 36.6673 26.8979 36.7144 27.3444 36.727V32.5493L27.9662 32.548C29.6297 32.5426 30.3207 31.7311 30.3207 30.1687V26.5437C30.3207 25.0142 29.5438 24.2504 27.9662 24.2504ZM28.7166 30.0389C28.7166 30.5682 28.5466 30.8366 27.9016 30.8385L27.3444 30.8398V25.9857C27.5926 25.9716 27.7245 25.9678 27.8737 25.9678C28.5712 25.9678 28.7166 26.256 28.7166 26.7956V30.0389Z" fill="white"/>
<path d="M42.54 27.1247C42.9332 27.2013 43.3202 27.2864 43.6976 27.3767V35.2258C44.0447 35.1375 44.6897 34.9541 45.1195 34.8155V27.747C45.5321 27.8636 45.9211 27.9802 46.277 28.0911V26.5776C45.1544 26.1508 43.949 25.8034 42.54 25.4833V27.1247Z" fill="white"/>
</g>
<defs>
<clipPath id="clip0_168_356">
<rect width="42" height="13" fill="white" transform="translate(9 24)"/>
</clipPath>
</defs>
</svg>
