<svg width="60" height="60" viewBox="0 0 60 60" fill="none" xmlns="http://www.w3.org/2000/svg">
<rect width="60" height="60" fill="#2E464A"/>
<g clip-path="url(#clip0_168_481)">
<path d="M23.9461 26.9233C22.242 26.9369 20.9741 28.3304 20.9741 30.1081V30.1253C20.9741 31.9465 22.2744 33.2793 23.8898 33.2793C25.1423 33.2793 25.862 32.6958 26.3939 31.9021L25.2157 30.996C24.8759 31.4418 24.5284 31.7372 23.9384 31.7372C23.147 31.7372 22.5895 31.0232 22.5895 30.1081V30.0909C22.5895 29.2021 23.147 28.4781 23.9384 28.4781C24.4797 28.4781 24.852 28.7581 25.1747 29.1939L26.3538 28.209C25.8535 27.4597 25.1098 26.9369 23.9547 26.9369L23.9461 26.9233ZM47.6854 26.9541C46.3279 26.9541 45.4963 27.7732 45.4963 28.9058V28.9239C45.4963 30.1779 46.4261 30.5439 47.629 30.8402C48.3974 31.0314 48.5819 31.1709 48.5819 31.4237V31.4418C48.5819 31.7027 48.3556 31.8586 47.9355 31.8586C47.2816 31.8586 46.66 31.6067 46.1025 31.1274L45.2299 32.2509C45.924 32.9214 46.8777 33.2621 47.8801 33.2621C49.2529 33.2621 50.1656 32.5209 50.1656 31.2751V31.2588C50.1656 30.1172 49.3579 29.6641 48.0568 29.3588C47.2739 29.1676 47.0792 29.0453 47.0792 28.7662V28.749C47.0792 28.5316 47.2653 28.3567 47.6453 28.3567C48.1456 28.3567 48.7116 28.566 49.2282 28.9583L50.0119 27.7642C49.3981 27.2332 48.6467 26.9541 47.6854 26.9541ZM9.18433 26.9369V33.2793H11.3333C13.3687 33.2793 14.5563 31.8504 14.5563 30.09V30.0737C14.5563 28.3132 13.3849 26.9369 11.3657 26.9369H9.18433ZM15.5825 26.9369V33.2793H20.2834V31.8414H17.133V30.7523H19.5534V29.4204H17.133V28.3748H20.2834V26.9369H15.5825ZM27.1136 26.9369V33.2793H28.9271V30.6834L30.8737 33.2793H32.7588L30.2333 30.1081L32.7315 26.9369H30.8728L28.9262 29.5328V26.9369H27.1136ZM33.6169 26.9369V33.2793H38.2051V31.8414H35.1673V30.7532H37.5869V29.4195H35.1673V28.3748H38.2051V26.9369H33.6169ZM39.4874 26.9369V33.2793H41.0541V31.3104H41.7405L42.8795 33.2793H44.6895L43.3405 31.0323C44.0432 30.7097 44.5034 30.09 44.5034 29.1586V29.1413C44.5034 28.5397 44.3335 27.9481 44.0022 27.5993C43.6231 27.1807 43.0255 26.9369 42.1606 26.9369H39.4874ZM41.0541 28.4011H42.0795C42.6054 28.4011 42.9281 28.7662 42.9281 29.2455V29.2637C42.9281 29.7076 42.6208 29.9858 42.088 29.9858H41.0541V28.4011ZM10.8919 28.4355H11.3896C12.3271 28.4355 12.9486 29.1241 12.9486 30.0999V30.1163C12.9486 31.1011 12.3271 31.7807 11.3896 31.7807H10.8919V28.4355Z" fill="#FEFEFD"/>
</g>
<defs>
<clipPath id="clip0_168_481">
<rect width="42" height="8" fill="white" transform="translate(9 26)"/>
</clipPath>
</defs>
</svg>
