<svg width="60" height="60" viewBox="0 0 60 60" fill="none" xmlns="http://www.w3.org/2000/svg">
<rect width="60" height="60" fill="#AC221D"/>
<g clip-path="url(#clip0_1779_9213)">
<path d="M36.5336 33.3501C36.5233 33.3897 36.5088 33.4275 36.49 33.4636C36.4695 33.498 36.4456 33.5306 36.4183 33.5616C36.3909 33.5908 36.3602 33.6166 36.326 33.639C35.7521 34.1393 15.101 45.9304 14.8883 46.0516C14.5732 46.2424 14.217 46.3559 13.8481 46.3869C13.7986 46.3886 13.749 46.386 13.6995 46.3791C13.6517 46.3722 13.6047 46.3602 13.5586 46.343C13.5107 46.3258 13.4663 46.3043 13.4253 46.2785C13.3826 46.2528 13.3425 46.2235 13.3049 46.1909C13.0871 45.9149 12.9846 45.5693 13.0205 45.2186V14.6473C13.0154 14.4462 13.0308 14.2476 13.0692 14.049C13.1076 13.853 13.1691 13.6622 13.2485 13.4791C13.3305 13.296 13.4305 13.1232 13.5483 12.9607C13.6687 12.8008 13.8045 12.6538 13.9531 12.5223C14.8525 11.9239 15.7825 11.3772 16.7433 10.8872V39.2611C16.7331 39.568 16.8356 39.8698 17.0303 40.1096C17.0628 40.1457 17.0986 40.1775 17.1379 40.205C17.1772 40.2308 17.2191 40.2532 17.2635 40.2721C17.3079 40.291 17.3531 40.3048 17.3993 40.3134C17.4471 40.322 17.4949 40.3245 17.5427 40.3211C17.6008 40.3263 17.6598 40.328 17.7195 40.3263C17.7776 40.3245 17.8357 40.3194 17.8938 40.3108C17.9518 40.3039 18.0091 40.2936 18.0654 40.2798C18.1235 40.2661 18.1799 40.2497 18.2345 40.2308C19.4413 39.6248 32.9491 31.7744 33.6434 31.3643L36.2799 32.8807C36.2799 32.8807 36.5515 33.0148 36.5515 33.2289C36.5498 33.2702 36.5438 33.3106 36.5336 33.3501ZM46.9821 33.3811C46.9821 34 46.4543 34.6087 45.4755 35.1683L20.6173 49.6003C20.5166 49.6605 20.4124 49.7146 20.3048 49.7628C20.1972 49.8109 20.0861 49.8522 19.9717 49.8865C19.8589 49.9192 19.7445 49.9441 19.6284 49.9613C19.5105 49.9802 19.3926 49.9906 19.2748 49.9923C18.9801 49.9949 18.6855 49.933 18.4164 49.8118C17.4223 49.3862 15.8978 48.5068 15.5366 48.2953L39.9874 34.1986C40.0335 34.1831 40.6817 33.608 40.6817 33.2882C40.6817 32.971 40.4537 32.6667 39.9874 32.3959C38.8267 31.697 25.3343 23.8466 24.6425 23.4365V20.4062C24.6391 20.3684 24.64 20.3306 24.6451 20.2927C24.6485 20.2549 24.6553 20.2179 24.6656 20.1818C24.6758 20.1457 24.6895 20.1105 24.7066 20.0761C24.7219 20.0434 24.7407 20.0116 24.7629 19.9807C24.78 19.9635 24.7988 19.948 24.8193 19.9343C24.8415 19.9205 24.8637 19.9085 24.8859 19.8981C24.9098 19.8896 24.9346 19.8835 24.9602 19.8801C24.9841 19.8749 25.0089 19.8732 25.0345 19.8749C25.0584 19.8698 25.0824 19.8663 25.1063 19.8646C25.1302 19.8629 25.1541 19.862 25.178 19.862C25.2019 19.862 25.2258 19.8629 25.2498 19.8646C25.2737 19.8663 25.2976 19.8698 25.3215 19.8749C26.0287 20.1328 45.309 31.4855 45.5063 31.5912C45.5216 31.5912 46.9385 32.3649 46.9821 33.3811ZM18.9289 11.3127C18.9255 11.2164 18.9297 11.121 18.9417 11.0265C18.9554 10.9302 18.9759 10.8365 19.0032 10.7453C19.0322 10.6542 19.0681 10.5657 19.1108 10.4797C19.1535 10.3937 19.2039 10.3129 19.262 10.2373C19.2961 10.1995 19.3354 10.1651 19.3798 10.1341C19.4225 10.1049 19.4678 10.0808 19.5156 10.0619C19.5634 10.0413 19.613 10.0267 19.6642 10.0181C19.7155 10.0095 19.7667 10.006 19.818 10.0078C19.9051 10.0146 19.9922 10.0258 20.0793 10.0413C20.1664 10.0585 20.2518 10.08 20.3355 10.1058C20.4192 10.1333 20.5012 10.1651 20.5815 10.2012C20.6618 10.239 20.7395 10.2811 20.8146 10.3275C22.7875 11.4314 45.0681 24.2695 45.2808 24.4217C45.5063 24.5274 45.7189 24.6667 45.906 24.8343C46.0956 25.002 46.257 25.1954 46.3902 25.4094C46.5234 25.6235 46.6259 25.8556 46.6926 26.098C46.7592 26.343 46.7925 26.5932 46.7874 26.8459C46.8617 27.9678 46.8617 29.3475 46.8617 29.7112L24.0404 16.4191C23.7919 16.2695 23.5126 16.1793 23.2256 16.1612C23.1778 16.1595 23.1308 16.1621 23.0847 16.1689C23.0386 16.1775 22.9933 16.1904 22.9489 16.2076C22.9045 16.2248 22.8627 16.2455 22.8234 16.2695C22.7841 16.2953 22.7474 16.3254 22.7132 16.3598C22.6517 16.4372 22.5988 16.5197 22.5543 16.6074C22.5099 16.6951 22.4741 16.7862 22.4467 16.8807C22.4194 16.9753 22.4015 17.0716 22.3929 17.1696C22.3844 17.2676 22.3852 17.3656 22.3955 17.4636V35.2586L19.7283 36.6383C19.6924 36.6607 19.6557 36.6804 19.6181 36.6976C19.5805 36.7131 19.5421 36.7277 19.5028 36.7415C19.4635 36.7535 19.4234 36.7638 19.3824 36.7724C19.3431 36.781 19.303 36.787 19.262 36.7905C19.0493 36.7905 18.9289 36.6383 18.9289 36.2902V11.3127Z" fill="white"/>
</g>
<defs>
<clipPath id="clip0_1779_9213">
<rect width="34" height="40" fill="white" transform="translate(13 10)"/>
</clipPath>
</defs>
</svg>
