<svg width="60" height="60" viewBox="0 0 60 60" fill="none" xmlns="http://www.w3.org/2000/svg">
<g clip-path="url(#clip0_1403_9022)">
<rect width="60" height="60" fill="#FE7C3F"/>
<path d="M29.9875 39.4256C37.125 39.4444 42.425 33.5763 42.5 26.4993V20.5556H50V27.1415C49.85 38.1348 40.625 46.7607 30 47C24.75 46.9843 19.7153 44.8961 15.9762 41.1835C12.2371 37.4708 10.0916 32.4296 10 27.1415V15.04C10 13.7933 10.7625 13 11.9 13H42.5V20.5556H18.5C17.875 20.5556 17.5 20.9459 17.5 21.5881V26.3733C17.575 33.5511 22.875 39.4444 30 39.4444L29.9875 39.4256Z" fill="#FEFEFD"/>
</g>
<defs>
<clipPath id="clip0_1403_9022">
<rect width="60" height="60" fill="white"/>
</clipPath>
</defs>
</svg>
