<svg width="60" height="60" viewBox="0 0 60 60" fill="none" xmlns="http://www.w3.org/2000/svg">
<rect width="60" height="60" fill="black"/>
<g clip-path="url(#clip0_168_352)">
<path d="M40.9522 13.0185L40.6415 13.3265C40.0201 13.8409 39.1934 14.0444 38.4694 13.7363L36.1946 12.8122C35.4705 12.5041 34.9546 11.7862 34.9546 10.9666V10.4523C34.9546 9.63261 34.2305 9.0165 33.5065 9.0165H27.1982C26.3715 9.0165 25.7501 9.63261 25.7501 10.4523V10.9666C25.7501 11.7862 25.2341 12.5041 24.51 12.8122L22.2353 13.7363C21.5112 14.0444 20.5819 13.8409 20.0631 13.3265L19.7552 13.0185C19.1338 12.5041 18.3071 12.5041 17.6857 13.0185L13.0336 17.433C12.5148 17.9446 12.4122 18.8688 13.0336 19.4849L13.3443 19.7929C13.8602 20.409 14.0655 21.2287 13.7576 21.9493L12.8255 24.2075C12.5148 24.9253 11.7908 25.4369 10.9641 25.4369H10.4481C9.6214 25.4369 9 26.1576 9 26.8754V33.1356C9 33.958 9.6214 34.5741 10.4481 34.5741H10.9641C11.7908 34.5741 12.5148 35.0857 12.8255 35.8035L13.7576 38.0617C14.0655 38.7823 13.8602 39.7065 13.3443 40.2181L13.0336 40.5261C12.5148 41.1422 12.5148 41.9619 13.0336 42.578L17.4804 46.9925C17.9964 47.5069 18.9258 47.6086 19.5472 46.9925L19.8579 46.6845C20.4765 46.1701 21.3059 45.9666 22.03 46.2747L24.3048 47.1988C25.0288 47.5069 25.5448 48.2248 25.5448 49.0444V49.5587C25.5448 50.3784 26.2688 50.9945 26.9929 50.9945H33.3012C34.1279 50.9945 34.7465 50.3784 34.7465 49.5587V49.0444C34.7465 48.2248 35.2653 47.5069 35.9893 47.1988L38.2641 46.2747C38.9881 45.9666 39.9174 46.1701 40.4334 46.6845L40.7441 46.9925C41.3655 47.5069 42.1922 47.5069 42.8136 46.9925L44.2617 45.5568L36.1946 37.5501C35.1598 36.5242 32.7824 34.1615 29.681 37.242C28.7489 38.1662 28.1303 39.3984 27.1982 40.3198C25.0288 42.4762 22.4433 41.4503 21.4086 39.3984C20.7872 38.1662 20.9952 38.0617 20.3738 36.934C19.6498 35.8035 18.4098 34.9839 17.9964 33.5454C17.6857 32.1096 18.4098 31.6998 18.4098 30.9819C18.4098 30.2613 17.6857 29.4417 17.8938 28.4157C17.9964 27.5933 18.6178 27.0817 18.7205 26.6692C18.8231 26.2593 18.8231 25.9513 18.9258 25.3352C19.3391 23.4868 21.0979 22.5654 22.6486 23.5914C23.6834 24.3092 25.9581 26.7737 26.2688 26.4656C26.5795 26.1576 24.0967 23.8994 23.3727 22.8735C22.3379 21.3332 23.27 19.4849 25.1314 19.1768C25.7501 19.075 26.1662 19.075 26.4741 18.9705C26.8902 18.767 27.3036 18.2527 28.2329 18.1509C29.2676 17.9446 30.197 18.6652 30.8184 18.6652C31.5424 18.6652 32.0584 17.9446 33.4038 18.2527C34.8519 18.5607 35.6786 19.8947 36.816 20.6153C37.9534 21.3332 37.9534 21.1269 39.296 21.6413C41.3655 22.6672 42.5029 25.2334 40.2281 27.387C39.296 28.3112 38.056 28.8255 37.1267 29.8515C34.0225 32.932 36.5053 35.2919 37.4374 36.3179L45.5017 44.3246L46.9498 42.8861C47.4658 42.3745 47.5684 41.4503 46.9498 40.8342L46.6391 40.5261C46.1231 39.91 45.9151 39.0904 46.2258 38.3697L47.1551 36.1116C47.4658 35.3937 48.1898 34.8821 49.0165 34.8821H49.5353C50.362 34.8821 50.9806 34.1615 50.9806 33.4436V27.1835C50.9806 26.3611 50.362 25.745 49.5353 25.745H49.0165C48.1898 25.745 47.4658 25.2334 47.1551 24.5155L46.2258 22.2574C45.9151 21.5367 46.1231 20.6153 46.6391 20.101L46.9498 19.7929C47.4658 19.1768 47.4658 18.3572 46.9498 17.7411L42.5029 13.3265C42.4003 12.5041 41.4682 12.5041 40.9522 13.0185Z" fill="white"/>
</g>
<defs>
<clipPath id="clip0_168_352">
<rect width="42" height="42" fill="white" transform="translate(9 9)"/>
</clipPath>
</defs>
</svg>
