<svg width="60" height="60" viewBox="0 0 60 60" fill="none" xmlns="http://www.w3.org/2000/svg">
<rect width="60" height="60" fill="white"/>
<path d="M38.295 38.295V48.69C38.295 49.236 37.854 49.677 37.308 49.677H9.987C9.441 49.677 9 49.236 9 48.69V21.39C9 20.844 9.441 20.403 9.987 20.403H20.361V37.308C20.361 37.854 20.802 38.295 21.348 38.295H38.295Z" fill="#4C00FF"/>
<path d="M49.677 23.637C49.677 32.373 44.574 38.274 38.295 38.295V27.291C38.295 26.976 38.169 26.661 37.938 26.451L32.226 20.739C31.995 20.508 31.701 20.382 31.386 20.382H20.382V10.008C20.382 9.46201 20.823 9.02101 21.369 9.02101H36.762C44.07 9.00001 49.677 14.88 49.677 23.637Z" fill="#FF5252"/>
<path d="M37.938 26.43C38.169 26.661 38.295 26.955 38.295 27.27V38.274H21.369C20.823 38.274 20.382 37.833 20.382 37.287V20.382H31.386C31.701 20.382 32.016 20.508 32.226 20.739L37.938 26.43Z" fill="black"/>
</svg>
