<svg width="60" height="60" viewBox="0 0 60 60" fill="none" xmlns="http://www.w3.org/2000/svg">
<rect width="60" height="60" fill="#0146BD"/>
<g clip-path="url(#clip0_2590_4513)">
<path d="M43.4447 35.8781C43.7408 35.741 43.8237 35.2724 43.7882 34.9524C43.7289 34.3924 43.1961 34.0495 42.5447 34.2324C42.5092 34.7352 42.5447 35.3067 42.5329 35.8324C42.746 35.9467 43.2197 35.981 43.4447 35.8781ZM24.0947 34.2438C24.1421 34.2209 24.1776 34.2095 24.2368 34.1981C25.6342 34.0381 26.6053 34.7695 26.6053 35.8895C26.6053 36.7581 26.0842 37.3867 25.1961 37.4552C24.8053 37.4895 24.4145 37.4781 24.1303 37.2724C24.0237 36.8267 24.0711 36.2895 24.0711 35.7638C24.0711 35.2381 24.0355 34.7124 24.0947 34.2438ZM28.3697 35.6838C28.3697 36.6552 28.9855 37.4895 30.0158 37.4781C30.9039 37.4667 31.4132 36.7695 31.4132 35.8438C31.4132 34.8609 30.7855 34.0495 29.7197 34.1409C28.8197 34.2209 28.3697 34.8038 28.3697 35.6838ZM43.6105 35.9695C43.8118 36.2324 44.0487 36.5067 44.2974 36.7809C44.6053 37.1352 44.8895 37.5124 45.5171 37.5467C45.4579 37.6267 45.3039 37.5924 45.1974 37.5924C44.771 37.5924 44.4987 37.5695 44.2737 37.3524C43.8947 36.9981 43.5513 36.4152 43.2316 36.0952C42.9947 36.0952 42.7934 36.0724 42.5447 36.0838C42.5211 36.2667 42.521 36.5409 42.5329 36.8152C42.5447 37.0438 42.521 37.3524 42.6276 37.4552C42.7224 37.5467 42.8763 37.4895 43.0303 37.5467C42.9592 37.6267 42.8171 37.5924 42.7105 37.5924C42.4145 37.5924 42.071 37.5924 41.7868 37.5809C41.7632 37.5009 41.9763 37.5352 42.0355 37.4895C42.1895 37.1238 42.1421 36.5181 42.1421 35.8781V35.0095C42.1421 34.7467 42.1895 34.3581 42.0829 34.2209C42 34.1067 41.7632 34.1638 41.7158 34.0724C41.7276 34.0724 41.7276 34.0609 41.7513 34.0609C42.8053 34.0952 44.1316 33.8667 44.2382 34.8038C44.2855 35.3409 43.8947 35.6609 43.6105 35.9695ZM24.9947 37.6267C26.1434 37.6152 26.9842 36.9981 27.0553 35.9352C27.0908 35.341 26.9132 34.8952 26.5934 34.5752C25.9421 33.9238 24.5803 34.0267 23.2303 34.0381C23.2184 34.0381 23.2066 34.0495 23.1947 34.0495V34.0838C23.2895 34.1181 23.4908 34.1067 23.5618 34.1867C23.6566 34.3009 23.6211 34.7009 23.6211 34.9638V36.6667C23.6211 36.9181 23.6447 37.3295 23.55 37.4438C23.4908 37.5124 23.2895 37.501 23.2539 37.5467C23.8105 37.5581 24.4618 37.6267 24.9947 37.6267ZM19.5474 34.0609C19.5237 34.1181 19.3342 34.0952 19.2632 34.1524C19.1447 34.2438 19.1803 34.7238 19.1684 34.9638C19.1447 35.5695 19.1803 36.1295 19.1803 36.7124C19.1803 36.9981 19.1566 37.3867 19.3105 37.4781C19.3934 37.5352 19.5947 37.4895 19.6658 37.5352C19.5829 37.6152 19.4408 37.5809 19.3224 37.5809C19.0263 37.5809 18.6711 37.5809 18.375 37.5695C18.375 37.4895 18.5882 37.5238 18.6592 37.4667C18.7658 37.3638 18.7539 36.9181 18.7539 36.6781V34.9409C18.7539 34.6552 18.7895 34.2667 18.6592 34.1638C18.5763 34.0952 18.3987 34.1409 18.375 34.0724C18.375 34.0495 18.375 34.0495 18.3868 34.0381C18.7895 34.0609 19.1921 34.0038 19.5474 34.0609ZM50.7039 33.9924C50.6329 34.0267 50.4908 34.0495 50.3605 34.0495C49.7921 34.0724 49.0816 34.0038 48.6079 34.0609C48.6434 34.1181 48.8803 34.0838 48.9632 34.1638C49.046 34.2438 49.0342 34.5524 49.0342 34.7924C49.0342 35.5009 49.0579 36.3467 49.0342 36.9295C49.0224 37.1009 49.0224 37.3752 48.9395 37.4552C48.8566 37.5238 48.6553 37.4781 48.6789 37.5581C49.3303 37.5467 50.0408 37.6152 50.7276 37.5695C50.775 37.5124 50.7987 37.3867 50.8224 37.2724C50.8342 37.1581 50.8816 36.9981 50.8105 36.9409C50.7395 37.0324 50.7632 37.1467 50.7039 37.2381C50.55 37.4438 49.7092 37.4552 49.5553 37.3067C49.4013 37.1695 49.4487 36.6781 49.4605 36.3809C49.4724 36.1638 49.4724 35.9352 49.496 35.7524C49.8039 35.8209 50.3132 35.6724 50.4671 35.8781C50.5263 35.9467 50.4671 36.0724 50.5618 36.1409C50.621 35.9467 50.5855 35.6609 50.6566 35.4667C50.5618 35.4552 50.5263 35.5467 50.4079 35.5695C50.1474 35.6267 49.7803 35.5581 49.4842 35.5809C49.496 35.1238 49.4605 34.6209 49.496 34.1867C49.8276 34.2324 50.3605 34.1067 50.5382 34.3124C50.5974 34.3924 50.5618 34.4952 50.6329 34.5981C50.6921 34.4724 50.7276 34.1295 50.7039 33.9924ZM47.5421 34.6209C47.4592 34.5409 47.4947 34.4267 47.4355 34.3467C47.2697 34.1295 46.7487 34.2552 46.3934 34.2095C46.3579 34.6438 46.3934 35.1352 46.3816 35.6038C46.796 35.5809 47.3289 35.6724 47.5421 35.4667C47.5184 35.6495 47.5066 35.9581 47.4711 36.1524C47.3763 36.0838 47.4355 35.9581 47.3763 35.8895C47.2105 35.6838 46.7013 35.8324 46.4053 35.7638C46.3697 35.9695 46.4053 36.2095 46.3934 36.461C46.3816 36.7238 46.3224 37.1695 46.4763 37.3181C46.6303 37.4552 47.3408 37.4438 47.5303 37.3181C47.6605 37.2381 47.6724 37.0895 47.7316 36.9409C47.8145 36.9981 47.7671 37.1581 47.7434 37.2724C47.7316 37.3867 47.7079 37.5124 47.6487 37.5695C46.9737 37.6152 46.2632 37.5467 45.6 37.5581C45.5763 37.4781 45.7895 37.5238 45.8605 37.4552C45.9197 37.3981 45.9434 37.1238 45.9553 36.9638C45.9908 36.2781 46.0026 35.1352 45.9553 34.4495C45.9316 34.1524 45.8013 34.0952 45.5171 34.0724C45.6237 33.9809 45.9434 34.0381 46.121 34.0381C46.5237 34.0609 47.3882 34.0609 47.6132 33.9809C47.625 33.9809 47.625 33.9924 47.6487 33.9924C47.5895 34.1981 47.6013 34.4381 47.5421 34.6209ZM33.2842 33.9809H33.2487C33.2487 33.9695 33.2487 33.9581 33.2368 33.9695C33.2368 33.9924 33.2132 33.9809 33.2013 34.0038C33.1303 34.4952 33.0592 35.0895 32.9882 35.7867C32.9645 36.0381 32.9171 36.3467 32.8816 36.6667C32.8579 36.9067 32.8461 37.3981 32.6921 37.4895C32.6092 37.5352 32.4908 37.5238 32.4079 37.5467C32.5382 37.6381 32.7513 37.5809 32.9289 37.5809C33.1184 37.5809 33.3553 37.6495 33.4855 37.5467C33.4026 37.5124 33.2132 37.5352 33.1421 37.4438C33.0592 37.3295 33.1303 37.0095 33.1421 36.8267C33.2013 36.1867 33.2724 35.4667 33.3316 34.9409C33.5566 35.3867 33.7934 35.8438 34.0303 36.2895C34.2671 36.7352 34.4684 37.2038 34.7763 37.5924C35.2974 36.7467 35.6882 35.7638 36.1974 34.9067C36.2684 35.7524 36.3632 36.5752 36.4461 37.4209C36.4579 37.4895 36.375 37.4781 36.3868 37.5467C36.5171 37.6038 36.7066 37.5809 36.896 37.5924C37.0974 37.6038 37.3461 37.6495 37.4882 37.5581C37.3461 37.5124 37.1329 37.5467 37.0145 37.4552C36.8368 37.3295 36.825 36.9067 36.8013 36.6667C36.7066 35.8667 36.6237 35.1238 36.5408 34.3924C36.5289 34.2552 36.5526 34.0724 36.4342 33.9924C35.8895 34.9752 35.4158 36.0267 34.871 37.0095C34.3382 35.9695 33.8171 34.9752 33.2842 33.9809ZM29.8382 33.9809C31.0342 33.9581 31.9697 34.6209 31.8868 35.8895C31.8158 36.9181 30.9632 37.6495 29.8737 37.6495C28.7842 37.6495 27.8724 36.9638 27.896 35.7638C27.9079 35.261 28.1566 34.7924 28.4645 34.4952C28.7724 34.1981 29.2105 33.9924 29.8382 33.9809ZM20.5303 34.7924C20.5066 35.7067 21.7026 35.9581 21.9513 36.5524C22.3421 37.4667 20.8855 37.7409 20.5776 37.1238C20.5303 37.0324 20.5303 36.8952 20.4829 36.7695C20.4 36.9295 20.3882 37.2952 20.4355 37.4895C21.3237 37.8781 22.3658 37.5352 22.3776 36.6552C22.3776 36.1067 21.9632 35.8095 21.6079 35.5467C21.3474 35.3638 20.9329 35.1124 20.8855 34.8038C20.7553 34.0495 21.8921 33.9467 22.1408 34.4038C22.1882 34.4838 22.1763 34.6095 22.2474 34.6895C22.3066 34.5181 22.2711 34.2667 22.2947 34.0609C21.4539 33.8324 20.5539 34.0267 20.5303 34.7924ZM12.6316 33.1124C12.5605 33.2038 12.3237 33.1352 12.2645 33.2381C12.2289 33.5695 12.3592 33.8667 12.4539 34.1638C12.7145 35.0438 12.9632 35.9009 13.2237 36.7809C13.4961 36.1867 13.7329 35.5467 13.9816 34.9295C14.2303 34.3124 14.4671 33.6838 14.7513 33.1009C14.8934 33.1924 14.9289 33.3752 14.9882 33.5238C15.3908 34.5867 15.8171 35.7067 16.2316 36.7695C16.5513 35.9124 16.8118 35.0667 17.0961 34.1867C17.1908 33.9009 17.3211 33.5924 17.2974 33.2724C17.2382 33.1467 17.0013 33.2038 16.8829 33.1352C16.9421 33.0324 17.0961 33.0895 17.2026 33.0895C17.5461 33.1009 17.9724 33.0667 18.2684 33.1009C18.2211 33.2038 18.0908 33.1581 17.9842 33.1924C17.6408 33.3181 17.4868 34.0267 17.3447 34.4152C17.025 35.3409 16.7053 36.2438 16.35 37.1809C16.2908 37.341 16.1961 37.6724 16.1013 37.6724C15.9592 37.6838 15.7224 36.9181 15.6868 36.8038C15.3316 35.8667 14.9763 34.9524 14.6329 34.0381C14.1829 35.0895 13.7684 36.1524 13.3184 37.2724C13.2592 37.4095 13.1645 37.6724 13.0697 37.6724C12.9513 37.6724 12.8684 37.341 12.8211 37.1809C12.4539 36.0724 12.1105 35.0324 11.7553 33.9009C11.625 33.4895 11.6013 33.2267 11.1395 33.1581C11.1039 33.1467 10.9855 33.1924 10.9855 33.1009C10.9974 33.1009 10.9974 33.0895 11.0211 33.0895C11.2224 33.0552 11.5539 33.1009 11.8382 33.1009C12.1342 33.0895 12.4184 33.0209 12.6316 33.1124ZM37.2632 33.7867C37.4171 33.6724 37.3934 33.5238 37.5711 33.4324C37.9263 33.2381 38.5776 33.3867 39.0632 33.3524V36.5409C39.0632 36.8152 39.0868 37.3638 38.9092 37.4667C38.8145 37.5238 38.6368 37.4667 38.6013 37.5581C39.0987 37.6038 39.7382 37.6038 40.2474 37.5581C40.1408 37.4324 39.8803 37.5581 39.7382 37.4209C39.5961 37.2838 39.6197 36.7695 39.6079 36.4952C39.5605 35.4324 39.6316 34.2552 39.6197 33.3409C40.1408 33.3981 41.0289 33.2152 41.1947 33.5809C41.2303 33.6495 41.1829 33.8552 41.2895 33.8324C41.3487 33.6152 41.325 33.3067 41.3368 33.0438C40.7092 33.1352 39.9276 33.1009 39.1816 33.1009C38.5539 33.1009 37.9382 33.1352 37.4408 32.9981C37.3342 33.1924 37.2513 33.5124 37.2632 33.7867ZM20.9447 29.4438C20.7079 29.3867 20.5066 29.1924 20.1513 29.2838C20.0803 29.3752 20.0447 29.5009 19.9618 29.5809C19.7724 29.6267 19.5355 29.6152 19.3934 29.7067C19.8079 29.6952 20.2224 29.8095 20.6132 29.7638C20.85 29.7409 21.0276 29.6267 21.2645 29.6381C21.6079 29.6609 21.9276 29.8095 22.2118 29.6381C21.9868 29.3981 21.3474 29.5352 20.9447 29.4438ZM16.3618 28.9181C16.0895 28.7581 15.8882 29.1467 15.5921 29.1924C15.3079 29.2381 15.225 29.1124 14.9763 29.0552C14.8342 29.1924 14.7632 29.3867 14.6329 29.5352C14.8579 29.5809 15.0474 29.7067 15.2724 29.6724C15.4974 29.6381 15.6158 29.3867 15.8763 29.3295C16.1013 29.2838 16.2553 29.3295 16.5395 29.2838C16.4803 29.1467 16.4803 28.9867 16.3618 28.9181ZM13.0105 28.7924C12.9868 28.7124 13.0342 28.6324 13.0105 28.5638C12.9395 28.3809 12.7263 28.4838 12.6197 28.6438C12.6671 28.6781 12.7382 28.6895 12.7618 28.7467C12.7382 28.8952 12.5487 28.8838 12.4776 28.9867C12.5842 29.1009 13.0224 29.1124 13.1408 28.9981C13.1645 28.9181 13.0342 28.8724 13.0105 28.7924ZM17.7474 28.4495C17.6882 28.6438 17.9842 28.7809 17.8066 28.9867C17.5816 29.0438 17.3803 28.8724 17.25 28.7467C17.2855 28.6895 17.3447 28.5867 17.2974 28.5067C17.0724 28.4838 16.9421 28.6209 16.9539 28.8038C16.9658 28.9067 17.1079 28.9867 17.1079 29.0895C17.1079 29.1809 17.025 29.2381 16.9658 29.2838C17.1789 29.5238 17.5461 29.4438 17.9132 29.4438C18.2092 29.4438 18.4816 29.5809 18.7539 29.5924C19.1211 29.6152 19.5 29.4438 19.8553 29.4438C19.9145 29.3409 19.95 29.2038 20.0447 29.1352C20.1513 29.1352 20.2224 29.1124 20.3408 29.1238C20.1987 28.7695 19.2039 29.2952 19.2513 28.7809C18.9789 28.7352 18.7776 28.6209 18.4461 28.6324C18.4697 28.7124 18.6474 28.7809 18.7066 28.8724C18.5763 28.9409 18.375 28.9981 18.1855 28.9638C18.0197 28.8267 18.2684 28.6324 18.1855 28.4381C18.0553 28.3924 17.8658 28.4267 17.7474 28.4495ZM24.4026 28.1295C24.3553 28.2667 24.2842 28.3809 24.2368 28.5067C24.2724 28.5752 24.3079 28.6324 24.3079 28.7124C24.0711 28.8267 23.775 28.8838 23.4079 28.8381C23.4553 28.9524 23.6447 29.0438 23.7158 29.1809C23.9882 29.2495 24.2605 29.3867 24.6276 29.3181C24.7816 29.0781 24.9947 28.8838 25.1132 28.5981C25.0184 28.5867 24.9355 28.5638 24.8645 28.5181C24.8645 28.3809 24.8882 28.2095 24.8053 28.1409C24.6987 28.1181 24.5329 28.1409 24.4026 28.1295ZM15.9829 28.2781C16.0184 28.4609 16.4092 28.3924 16.6224 28.3809C16.6697 28.1867 15.9237 27.9809 15.9829 28.2781ZM12.3711 28.1181C12.1697 28.1295 12.0513 28.3009 11.8618 28.3124C11.7079 28.3238 11.5303 28.1524 11.3763 28.3009C11.4118 28.6438 11.7908 28.7352 12.1224 28.7467C12.1342 28.6667 12.1105 28.5638 12.1342 28.5067C12.4184 28.5295 12.5961 28.4495 12.7737 28.3581C12.6316 28.2781 12.5013 28.1981 12.3711 28.1181ZM20.1158 28.5524C19.9618 28.5067 19.8197 28.4609 19.725 28.3581C19.7132 28.2667 19.7132 28.1981 19.6658 28.1295C19.5474 28.0038 18.9789 28.0038 18.9197 28.1752C19.1566 28.3695 19.3579 28.5981 19.8079 28.5981C19.8316 28.6667 19.8789 28.7124 19.9026 28.7924C20.0447 28.7924 20.1395 28.8152 20.2934 28.8038C20.4829 28.9409 20.7434 29.1467 21.0039 29.1924C21.3829 29.2609 21.8092 29.1352 22.1526 29.2038C22.3421 29.2381 22.4487 29.3752 22.6145 29.4095C22.5197 29.0667 22.2829 28.8495 22.0105 28.6781C21.9987 28.8152 21.8684 28.9295 21.7145 28.8381C21.7145 28.7809 21.7263 28.6895 21.7026 28.6552C21.4658 28.5981 21.0868 28.6895 21.1579 28.3238C21.0513 28.1981 20.7553 28.0495 20.5895 28.1752C20.5776 28.4838 20.9092 28.4495 20.9447 28.7009C20.9211 28.7695 20.8145 28.7581 20.7079 28.7581C20.6013 28.7009 20.5658 28.5638 20.5421 28.4267C20.5066 28.4267 20.4829 28.4495 20.4355 28.4381C20.4947 28.8267 20.2105 28.8038 20.1158 28.5524ZM14.2421 28.6667C14.2658 28.5409 14.2658 28.4038 14.2776 28.2667C14.3961 28.2324 14.4671 28.1638 14.5855 28.1295V27.8895C14.0053 27.8667 13.7092 28.1638 13.8632 28.7581C13.6974 28.6895 13.5316 28.6209 13.3658 28.5638V28.8152C13.5789 28.8952 13.8039 28.9067 14.0882 28.8724C14.1118 28.9409 14.1592 28.9867 14.1592 29.0667C14.3487 29.0095 14.4671 29.0667 14.6447 29.0095C14.7868 28.9638 14.8579 28.8038 14.9882 28.7809C15.1184 28.7581 15.225 28.8495 15.3908 28.8495C15.3671 28.3809 14.5263 28.4724 14.2421 28.6667ZM12.9395 27.8324V28.1638C13.0816 28.2438 13.2474 28.3009 13.4013 28.3581C13.4368 28.2095 13.5079 28.0952 13.5553 27.9581C13.3421 27.9009 13.1408 27.6838 12.9395 27.8324ZM30.5368 28.1752C30.6908 28.0952 30.8092 27.8552 30.9868 27.8209C31.2 27.7752 31.7092 27.9581 31.8868 27.7867C32.0171 27.6609 31.8987 27.5009 31.7566 27.4895C31.5671 27.4667 31.3776 27.6267 31.2474 27.6381C31.0342 27.6609 30.975 27.5009 30.7974 27.5467C30.7737 27.8095 30.5961 27.9924 30.5368 28.1752ZM29.4829 27.3981C29.4355 27.5238 29.1632 27.5924 29.1276 27.7752C29.0921 27.9581 29.246 28.1638 29.1987 28.3238C29.1513 28.5524 28.5947 28.5981 28.3934 28.4724C28.4053 28.3924 28.4289 28.3467 28.4289 28.2438C28.275 28.2324 28.1211 28.1867 28.0382 28.2895C28.05 28.3238 28.0618 28.3809 28.05 28.4381C27.8842 28.5867 27.6355 28.4381 27.6118 28.2552C27.6829 28.2324 27.7539 28.2095 27.7776 28.1524V27.9124H27.671C27.6355 27.9581 27.6592 28.0609 27.5882 28.0724C27.4816 28.0724 27.3987 28.0952 27.2921 28.1067V27.9238C27.0908 27.8895 27.0316 28.0038 26.9724 28.1067C27.1263 28.2552 27.3158 28.3695 27.4342 28.5409C27.3632 28.5752 27.3276 28.6438 27.2447 28.6781C26.7118 28.3581 26.5579 29.1009 26.0013 28.8838C25.9539 29.0895 25.8947 29.2952 25.8474 29.5124C26.0724 29.4781 26.2382 29.3524 26.4632 29.3181C26.6882 29.2838 26.9368 29.3409 27.1618 29.2724C27.3039 29.2381 27.4342 29.1009 27.6118 29.0438C27.7066 29.0209 27.8132 28.9981 27.9079 28.9867C28.1803 28.9638 28.5947 29.0781 28.8316 28.9524C28.9382 28.8952 29.0092 28.7124 29.1158 28.6552C29.1632 28.6209 29.2579 28.6324 29.3289 28.5981C29.4 28.5638 29.4592 28.5067 29.5184 28.4724C29.7197 28.3809 29.9092 28.3352 30.1342 28.3124C30.1934 28.1524 30.1579 27.9924 30.2408 27.8781C30.3 27.8095 30.4421 27.8209 30.4303 27.6952C30.3 27.5924 29.9803 27.6267 29.8855 27.7409C29.8737 27.7981 29.85 27.8438 29.85 27.9009C29.7789 27.9124 29.7197 27.9467 29.6487 27.9581C29.5776 27.8781 29.5539 27.8324 29.5776 27.6724C29.6605 27.6267 29.7671 27.5924 29.7316 27.4324C29.6487 27.4438 29.5658 27.4209 29.4829 27.3981ZM32.8105 27.2495C32.5618 27.3981 32.3368 27.5924 32.1711 27.8324C32.4316 27.8095 32.6803 27.7867 32.8105 27.6381C32.9171 27.6724 33.0355 27.6838 33.1658 27.6952C33.225 27.6381 33.3789 27.5124 33.3553 27.4667C33.1421 27.4324 32.9882 27.3409 32.8105 27.2495ZM11.6132 26.9524C11.5303 26.6781 11.1039 26.9867 11.1039 27.0895C11.1039 27.1352 11.2579 27.2038 11.3053 27.2495C11.4474 27.1695 11.6605 27.1352 11.6132 26.9524ZM11.8618 27.2952C11.9447 27.4552 12.0632 27.6038 12.2526 27.5924C12.4184 27.5809 12.7145 27.3067 12.8447 27.2609C12.5368 27.1467 12.2408 27.0324 12.0987 26.7695C12.0158 26.9524 11.9211 27.1124 11.8618 27.2952ZM17.4158 27.1581C17.3092 26.9981 17.3921 26.6095 17.0724 26.7695C16.9658 27.0667 16.7526 27.2838 16.2553 27.2038C16.3263 27.2724 16.3855 27.4667 16.5158 27.5009C16.5868 27.5238 16.6816 27.4895 16.7526 27.5124C16.8474 27.5581 16.8237 27.6838 16.9539 27.7638C17.25 27.9695 17.8539 27.6952 18.0434 27.5581C18.1145 27.5009 18.2211 27.4324 18.1974 27.3752C17.8539 27.3067 17.5697 27.3752 17.4158 27.1581ZM15.9355 26.4381C15.8526 26.6438 15.4382 26.5409 15.2368 26.6324C15.1776 26.8152 15.3434 26.8724 15.5447 26.8381C15.6513 26.9067 15.6632 27.0667 15.8526 27.0667V26.8724C16.1013 26.8609 16.3618 26.8495 16.4092 26.6324C16.2789 26.5409 16.1368 26.4609 15.9355 26.4381ZM28.7132 26.7581C28.7605 26.8267 28.7961 26.9181 28.8789 26.9524C28.9737 26.9181 29.0684 26.8838 29.175 26.8495C29.1513 26.5638 29.4118 26.5752 29.4829 26.3924C29.4 26.2438 29.1632 26.3009 29.0329 26.3581C28.95 26.3009 28.9145 26.1752 28.8197 26.1181C28.8316 26.3695 28.7842 26.5752 28.7132 26.7581ZM18.4461 25.9467C18.5053 25.6724 17.7237 25.5695 17.4276 25.5581C17.4276 25.6267 17.4039 25.6609 17.3684 25.6952C17.2026 25.7752 17.0132 25.6952 16.8474 25.7295C16.6697 25.7638 16.5276 25.9009 16.3737 25.9238C16.4211 26.0381 16.5158 26.1067 16.575 26.2095C16.8592 26.1409 17.0842 25.9924 17.4868 26.0267C17.5816 26.0838 17.7474 26.2895 17.8066 26.2781C17.8184 26.1981 17.7829 26.0724 17.8184 26.0038C17.9724 26.0495 18.3987 26.1181 18.4461 25.9467ZM15.4618 25.5581C15.2724 25.7867 14.4789 25.6152 14.5737 26.0609C14.6211 26.2781 15.3671 26.2324 15.4974 26.0609C15.4263 26.0038 15.3789 25.9238 15.3079 25.8552C15.3908 25.7867 15.4855 25.7181 15.5566 25.6267C15.5329 25.6152 15.5092 25.5809 15.4618 25.5581ZM19.5118 25.5124C19.2158 25.5581 19.0855 25.8438 19.0974 26.1295C19.3461 26.1409 19.5 26.0609 19.6421 25.9695C19.7013 26.1067 19.7487 26.2552 19.8553 26.3467C20.0092 26.3238 20.1395 26.2781 20.3053 26.2552C20.3171 26.1181 20.3763 25.9467 20.3526 25.8209C20.2816 25.8667 20.1987 25.9124 20.1039 25.9467C20.0566 25.9124 19.9855 25.9009 19.9618 25.8438C20.021 25.7638 20.0921 25.7067 20.1276 25.6152C20.0447 25.4895 19.6895 25.4895 19.5118 25.5124ZM23.4553 25.5124C23.4316 25.6152 23.3368 25.6495 23.2066 25.6609C23.2184 25.6038 23.1829 25.5809 23.1947 25.5238C23.0526 25.4552 22.9342 25.5467 22.7921 25.5695C22.9342 25.7181 22.9934 25.9467 23.0053 26.2095C23.3842 26.2438 23.5855 26.4495 23.9289 26.5181C24.0829 26.4381 24.225 26.3581 24.3789 26.2781C24.5566 26.3238 24.8526 26.3695 24.9 26.2209C24.9474 26.0495 24.7224 26.0038 24.6632 25.8781C24.7105 25.8209 24.8526 25.8552 24.9474 25.8438C24.9947 25.7524 25.0303 25.6495 25.0776 25.5581C24.8763 25.5467 24.6868 25.6724 24.521 25.6495C24.3789 25.6267 24.3197 25.5009 24.1776 25.4895C24.0829 25.5581 24.0829 25.7067 24.0474 25.8438C24.1066 25.9009 24.2013 25.9352 24.2605 25.9924C24.1303 26.0724 24.0237 26.1867 23.8934 26.2667C23.7276 26.1981 23.4789 26.2324 23.4316 26.0609C23.4671 26.0381 23.5263 26.0267 23.5737 26.0038C23.5737 25.9238 23.5145 25.9124 23.5145 25.8438C23.5855 25.7638 23.6803 25.6838 23.7276 25.5924C23.7039 25.4667 23.5737 25.4552 23.4553 25.5124ZM18.6118 25.6381C18.6947 25.6724 18.7539 25.7409 18.8487 25.7752C18.9079 25.7295 18.9789 25.6838 19.05 25.6381C19.0263 25.4895 19.121 25.4667 19.1329 25.3524C18.9671 25.3524 18.8368 25.3295 18.6829 25.3181C18.6592 25.4324 18.6474 25.5352 18.6118 25.6381ZM25.5632 25.3524V25.5124C25.6579 25.5124 25.8 25.4552 25.8829 25.5009C25.871 25.5581 25.8592 25.5924 25.8711 25.6609C26.1079 25.6267 26.2263 25.7181 26.3566 25.7981C26.475 25.7524 26.5697 25.7067 26.6645 25.6495C26.5342 25.6267 26.4158 25.5924 26.3092 25.5467C26.3566 25.1238 25.8118 25.2838 25.5632 25.3524ZM30.6908 25.6495C30.7855 25.7638 30.9039 25.8667 30.9868 25.9924C31.1171 25.9352 31.1289 25.7981 31.2829 25.7867C31.425 25.7752 31.6145 25.9124 31.7447 25.7981C31.7329 25.6724 31.7092 25.5695 31.6855 25.4667C31.5316 25.4667 31.3895 25.5238 31.2355 25.4781C31.1645 25.4095 31.1526 25.2609 31.0934 25.1695C31.0579 25.4209 30.8684 25.5238 30.6908 25.6495ZM17.8895 25.3524C17.9132 25.1467 17.3921 25.0781 17.1908 25.1924C17.2263 25.3067 17.3211 25.3752 17.3803 25.4781C17.5697 25.4552 17.8658 25.5009 17.8895 25.3524ZM21.4776 25.5009C21.4066 25.4209 21.3237 25.3524 21.2645 25.2609C21.1934 25.2724 21.1579 25.3295 21.0987 25.3524C21.2171 25.4438 21.3829 25.7752 21.1579 25.8209C20.9566 25.8667 20.8618 25.6038 20.6961 25.5695C20.6368 25.6495 20.5421 25.6952 20.4947 25.7981C20.5776 25.8324 20.6605 25.8667 20.7316 25.9238C20.6842 25.9924 20.6013 26.0267 20.5776 26.1067C20.7553 26.1752 20.9447 26.2209 21.1816 26.1638C21.1697 26.2438 21.1579 26.3467 21.1461 26.4381C21.1816 26.4838 21.2526 26.4952 21.2882 26.5409C21.5605 26.2781 22.2237 26.3809 22.4842 26.0952C22.3895 26.0495 22.2829 26.0038 22.2237 25.9124C22.3539 25.8324 22.5434 25.7867 22.5908 25.6267C22.4487 25.5581 22.1763 25.6152 21.9868 25.5924C21.975 25.5238 21.9395 25.4667 21.9395 25.3867C22.1289 25.3638 22.1526 25.1009 22.1289 24.9067C21.7263 24.9181 21.6316 25.2381 21.4776 25.5009ZM28.2513 24.9067C28.275 24.6552 27.8368 24.6324 27.7658 24.8381C27.8013 24.8609 27.8487 24.8724 27.8724 24.9067C27.8132 24.9524 27.7539 24.9981 27.7184 25.0552C27.7421 25.1009 27.7776 25.1352 27.7895 25.1924C28.121 25.2838 28.5474 25.2952 28.7013 25.0324C28.5592 24.9867 28.3697 24.9752 28.2513 24.9067ZM26.7592 24.5295C26.7829 24.6438 26.8184 24.7238 26.8421 24.8381C26.7237 24.9181 26.5934 24.9981 26.475 25.0781C26.5816 25.2724 26.7355 25.4324 26.8658 25.6152C26.9842 25.6267 27.0789 25.6609 27.1737 25.6952C27.4105 25.5809 27.6118 25.4552 27.6237 25.1238C27.5289 25.0095 27.3987 24.9067 27.2092 24.9981V24.5981C27.0553 24.5524 26.9132 24.4038 26.7592 24.5295ZM23.1947 23.9467C23.0645 24.0267 22.9224 24.0838 22.7803 24.1409C22.7447 24.2552 22.6737 24.3238 22.6382 24.4381C22.7447 24.5638 22.8632 24.6781 22.9579 24.8152C22.9342 25.0209 22.7921 25.1924 22.7447 25.3181C22.9342 25.3067 23.0171 25.3867 23.1474 25.4209C23.2303 25.2952 23.4434 25.2267 23.3961 25.0209C23.5145 24.9867 23.6447 24.9067 23.6329 24.7809C23.5382 24.7238 23.3961 24.8838 23.3132 24.7809C23.3132 24.6095 23.4434 24.5752 23.5026 24.4495C23.4671 24.3467 23.4671 24.2209 23.4553 24.0952C23.3487 24.0495 23.2895 23.9924 23.1947 23.9467ZM19.8316 24.1295C19.8553 24.1752 19.8789 24.2095 19.9145 24.2552C19.8671 24.2781 19.7961 24.2895 19.7842 24.3581C19.7368 24.6895 19.3105 24.6438 18.9789 24.5981V24.7352C19.1684 24.8038 19.3697 24.8724 19.5474 24.9409C19.6184 24.8381 19.6895 24.7238 19.7842 24.6438C19.8553 24.6781 19.9618 24.6781 20.0447 24.7009C20.0447 24.6324 20.0329 24.5409 20.0566 24.4952C20.4592 24.4724 20.8618 24.4381 20.9092 24.0724C20.8382 23.8781 20.4474 23.7295 20.4474 24.0724C20.3053 23.9924 20.1868 23.8781 20.0329 23.7981C19.9737 23.9124 19.8908 24.0038 19.8316 24.1295ZM18.0434 24.1752C18.1026 24.2095 18.1737 24.2438 18.2329 24.2781C18.3395 24.2324 18.4461 24.1752 18.5171 24.0838C18.4816 23.8895 18.2092 23.8552 18.0789 23.8095C18.1026 23.9238 18.0553 24.0609 18.0434 24.1752ZM23.0289 22.9638C22.9579 23.0324 22.8868 23.0895 22.7921 23.1467C22.6855 23.1009 22.5908 23.0438 22.4961 22.9867C22.4132 23.1009 22.2237 23.1695 22.3421 23.3638C22.5434 23.3752 22.7211 23.4095 22.9105 23.4209C23.0408 23.3181 23.2066 23.2724 23.2539 23.0895C23.1711 23.0438 23.1355 22.9638 23.0289 22.9638ZM25.5039 23.1695C25.4921 23.3295 25.35 23.3638 25.2553 23.4552C25.5039 23.6381 26.0605 23.5467 26.1671 23.3181C26.1079 23.1695 26.1197 22.9638 25.9539 22.9181C25.871 23.0667 25.7645 23.2267 25.5039 23.1695ZM25.9184 22.3124C25.8118 22.4838 25.575 22.5295 25.3737 22.6095C25.3737 22.6895 25.4329 22.7238 25.4447 22.8038H25.9303C26.0487 22.7238 26.0961 22.5752 26.2145 22.4952C26.3566 22.5067 26.475 22.5409 26.6171 22.5524V22.8381C26.8184 22.8952 26.9961 23.0438 26.8539 23.2724C27.0197 23.4324 27.2329 23.2838 27.375 23.2038C27.5408 23.1124 27.7066 22.9981 27.8842 23.0095C27.9434 23.0667 27.8842 23.1695 27.896 23.2838C28.0618 23.3181 28.275 23.1924 28.1447 23.0095C28.4289 22.9409 28.6303 22.7009 28.9974 22.7581C29.0803 22.9409 28.9737 23.0324 28.8553 23.1009C28.8789 23.1467 28.8908 23.2038 28.9145 23.2495C29.1276 23.3295 29.2816 23.1581 29.4237 23.1467C29.6487 23.1238 29.8618 23.2724 30.075 23.3067C30.0513 23.4324 29.9092 23.4552 29.7908 23.5009C29.8145 23.5467 29.8855 23.5467 29.9211 23.5924C30.0632 23.4552 30.5132 23.4095 30.6908 23.5352C30.5605 23.6495 30.4303 23.7524 30.1342 23.7181C30.075 23.8095 29.9447 23.8895 29.9921 24.0267C30.1105 24.0381 30.2408 23.8895 30.4303 23.8438C30.7263 23.7867 31.1053 23.7867 31.2 23.9695C31.1882 24.0267 31.1408 24.0495 31.1289 24.1067C31.0342 24.0724 30.9513 24.0381 30.8684 24.0038C30.7382 24.0495 30.6316 24.0952 30.5132 24.1524C30.4066 24.3009 30.3 24.4495 30.2053 24.6095C30.3 24.7124 30.6316 24.8038 30.75 24.6552C30.75 24.4038 30.8566 24.2667 31.0579 24.2209C31.1289 24.1981 31.1645 24.3352 31.2474 24.3581C31.2355 24.4495 31.1053 24.4381 31.0816 24.5067C31.3539 24.6095 31.3776 24.3352 31.5671 24.2667C31.6263 24.3124 31.7092 24.3352 31.7684 24.3924C31.7684 24.6095 31.5197 24.5752 31.5079 24.7809C31.8039 24.9752 32.1829 24.7124 32.2539 24.4381C32.5263 24.4381 32.5855 24.6667 32.5145 24.9067C32.4434 24.9181 32.396 24.9524 32.325 24.9638C32.3605 25.2267 32.55 25.3752 32.8816 25.3067V25.1238C33.1066 25.0324 33.4145 24.8952 33.675 25.0552C33.6158 25.2152 33.4145 25.3524 33.3079 25.5009C33.5684 25.5467 33.7934 25.6495 34.0184 25.7295V25.8781C33.8645 25.9009 33.6039 25.9238 33.5803 25.7752C33.4737 25.7638 33.4145 25.7867 33.3197 25.7867C33.225 25.9009 33.3079 25.9695 33.3316 26.0952C33.1895 26.1524 33.0474 26.2095 32.9171 26.2781C32.9171 26.3352 32.9526 26.3924 32.9289 26.4267C32.8105 26.4724 32.6921 26.5067 32.6803 26.6552C32.9289 26.6895 33.0355 26.6324 33.2013 26.5181C33.3316 26.4267 33.4618 26.3581 33.4855 26.1867C33.6276 26.2095 33.8053 26.1981 33.9355 26.2324C34.0776 26.1638 34.2079 26.0952 34.3382 26.0038C34.4092 26.0381 34.4684 26.0838 34.5395 26.1067C34.4684 26.1752 34.3382 26.1981 34.2789 26.2895C34.4329 26.5181 35.0724 26.1295 35.0724 26.5638C34.9421 26.5867 34.8 26.6095 34.6579 26.6209C34.7053 26.7924 34.9184 26.8038 35.0605 26.8952C35.3921 26.7352 35.8895 26.9067 36.0671 27.1238C35.9842 27.1695 35.8776 27.1924 35.771 27.2267C35.925 27.2724 36.1263 27.2724 36.2921 27.2952C36.3395 27.3981 36.4224 27.4781 36.4579 27.5924C36.3632 27.6609 36.2211 27.6838 36.2566 27.8895C36.1855 27.8667 36.1145 27.8324 36.0434 27.8209C35.9842 27.8781 35.9605 27.9695 35.8895 28.0152C35.6171 28.0495 35.5697 27.8667 35.4513 27.7409C35.4987 27.6724 35.5461 27.6152 35.5934 27.5467C35.5224 27.5009 35.3803 27.5009 35.2855 27.4781C35.2263 27.5352 35.2145 27.6495 35.1553 27.7181C35.2026 27.8209 35.2026 27.9124 35.25 27.9924C35.3447 28.1524 35.6053 28.2209 35.546 28.4724C35.4276 28.4838 35.3329 28.5295 35.2026 28.5295C35.1671 28.4724 35.1079 28.4381 35.1197 28.3352C35.0487 28.3238 35.0013 28.2781 34.9066 28.2895C34.8237 28.4267 34.8237 28.5638 34.646 28.5409C34.4447 28.5181 34.421 28.2324 34.3382 28.0952C34.2434 28.1409 34.1724 28.2095 34.1013 28.2895C34.1132 28.3581 34.1487 28.4152 34.1724 28.4724C33.8882 28.5067 33.5803 28.4152 33.3789 28.5409C33.3197 28.5981 33.296 28.7124 33.225 28.7695C33.0237 28.8038 32.8579 28.7124 32.7276 28.6324C32.775 28.5867 32.8342 28.5638 32.8934 28.5295C32.8934 28.4267 32.9053 28.3238 32.9289 28.2438C32.8816 28.1409 32.775 28.0952 32.7158 28.0038C32.5618 28.2095 32.1237 28.5067 32.0645 28.0152C31.9224 27.9695 31.8158 28.1181 31.6737 28.1409C31.4132 28.1752 31.1645 28.0495 30.9513 28.1409C30.7618 28.2209 30.7382 28.4038 30.5487 28.4838C30.525 28.6781 30.3474 28.7924 30.1934 28.7924C30.075 28.8038 29.9684 28.7238 29.8382 28.7581C29.6724 28.8152 29.5421 28.9752 29.3882 29.0895C29.1987 29.2152 29.0092 29.3752 28.7487 29.3981C28.5 29.4209 28.2868 29.3638 27.9908 29.3981C27.7658 29.4209 27.6355 29.6152 27.4224 29.7409C27.0197 29.9581 26.4868 29.9581 26.1316 30.0952C26.0368 30.3124 25.9421 30.5409 25.9895 30.8838C26.0013 30.9409 26.0368 31.0095 26.0487 31.0781C26.0961 31.3295 26.0605 31.4438 26.3447 31.4781C26.9724 31.5581 27.7184 31.4895 28.3579 31.5352C28.9855 31.5809 29.696 31.5809 30.3237 31.6267C32.2658 31.7638 34.2079 31.9009 36.0434 32.1181C36.6592 32.1981 37.2632 32.2438 37.8197 32.3924C37.4882 32.4381 37.1447 32.3581 36.8132 32.3352C35.025 32.1752 33.1303 32.0838 31.2474 32.0038C24.5803 31.7181 17.2974 31.8438 11.0684 32.4038C11.0921 32.3238 11.1987 32.3352 11.2579 32.3238C12.3118 32.1409 13.4368 32.0495 14.5737 31.9352C16.1605 31.7867 17.7829 31.6495 19.4408 31.5809C19.7724 31.5695 20.1395 31.5581 20.4829 31.5352C21.2408 31.4781 22.1171 31.4667 22.8513 31.3752C22.9934 31.3524 23.2184 31.2952 23.2421 31.1467C23.2539 31.0781 23.2184 30.9638 23.2066 30.8495C23.2066 30.6667 23.2658 30.4838 23.2184 30.3581C23.1474 30.1638 22.7092 30.0952 22.5553 29.9581C22.2947 29.9467 22.0697 30.0495 21.7974 30.0267C21.6079 30.0152 21.4303 29.9238 21.2408 29.9238C21.0158 29.9238 20.8026 30.0381 20.5776 30.0495C20.2934 30.0495 19.9974 30.0152 19.7132 30.0038C19.4526 29.9924 19.1921 29.9809 18.9434 29.9467C18.6711 29.9009 18.4105 29.7867 18.1263 29.7524C17.8539 29.7295 17.5697 29.8324 17.2855 29.7867C17.1079 29.7638 16.9539 29.5809 16.7645 29.5467C16.6105 29.5238 16.1132 29.5352 15.9711 29.5809C15.7579 29.6381 15.6276 29.9009 15.3316 29.9352C14.9882 29.9809 14.7632 29.8552 14.4671 29.7409C14.3842 29.7867 14.3368 29.8667 14.2658 29.9238C13.8632 29.8781 13.8987 29.3867 13.4013 29.4209C13.1882 29.4324 13.0579 29.5924 12.8566 29.6495C12.75 29.5809 12.6434 29.5124 12.5368 29.4438C12.6553 28.8724 11.9684 29.0324 11.8263 29.2609V29.5467C11.7197 29.5581 11.5658 29.4781 11.4592 29.4895C11.4 29.5009 11.3171 29.5924 11.2224 29.6152C10.9855 29.6609 10.4763 29.6038 10.4526 29.4324C10.4053 29.2038 10.725 29.1809 10.7132 28.9867C10.7132 28.8381 10.5355 28.8724 10.6184 28.7009C10.3697 28.7352 10.2276 28.6552 10.0974 28.5752C10.1921 28.4038 10.3342 28.2895 10.4645 28.1524C10.3697 28.0495 10.0974 28.1181 9.94342 28.0724C9.84868 27.8895 9.9671 27.7752 10.05 27.6495C9.9671 27.5581 9.81316 27.5467 9.81316 27.3981C9.81316 27.2495 10.0855 27.2152 10.2276 27.1238C10.4289 27.0095 10.4763 26.8724 10.5711 26.7695C10.7605 26.8038 10.8553 26.7352 10.9145 26.6324C11.0447 26.6552 11.1632 26.7009 11.2816 26.7238C11.3171 26.6781 11.2342 26.6095 11.2224 26.5638C11.2816 26.4724 11.3408 26.3809 11.4355 26.3238C11.5184 26.4038 11.6487 26.4381 11.7316 26.5181C11.8974 26.4267 12.0513 26.4724 12.1816 26.5638C12.3118 26.5067 12.4066 26.4267 12.5368 26.3695C12.4539 26.2781 12.3237 26.2095 12.3711 26.0381C12.4421 25.7524 13.1408 25.8781 13.4842 25.7295C13.6026 25.6724 13.6145 25.5809 13.6974 25.5238C13.8632 25.5009 14.0882 25.5009 14.2421 25.5352C14.3842 25.4552 14.5026 25.3524 14.6329 25.2495C14.5737 25.1695 14.4908 25.1809 14.3724 25.2038C14.4079 25.1467 14.4316 25.0781 14.4671 25.0209C14.7395 25.0095 14.9763 24.9524 15.1539 24.8381C15.1066 24.9524 14.9882 25.1352 15.0947 25.3295C15.2724 25.2724 15.4263 25.1809 15.6039 25.1238C15.6039 25.0552 15.4855 24.9752 15.4145 24.9295V24.6895C15.5566 24.6095 15.7934 24.6095 15.9355 24.4152C16.0303 24.2895 16.0539 24.1181 16.2434 24.1295C16.3974 24.1409 16.4447 24.2895 16.4329 24.5067H16.7526C16.7289 24.9524 15.9592 24.4267 15.9947 24.9067C16.2553 25.0781 16.7408 25.0095 16.9066 24.8152C17.0724 24.8381 17.2855 24.8267 17.4513 24.8609C17.5224 24.8381 17.5579 24.7809 17.6053 24.7238C17.3566 24.6209 17.0487 24.5752 16.9421 24.3352C17.0487 24.3238 17.1434 24.3009 17.1789 24.2324C17.1908 24.1409 17.0368 24.1981 17.025 24.1295C17.0487 24.0152 17.1553 23.9924 17.2382 23.9467C17.25 23.6952 16.8711 23.7638 16.7289 23.8209C16.3855 23.6952 16.7171 23.1581 17.0132 23.2381C17.1197 23.2724 17.1197 23.4209 17.1671 23.5352C17.2855 23.4781 17.3684 23.3752 17.4868 23.3067C17.8184 23.3638 17.5816 23.6609 17.5224 23.8324C17.6289 23.8438 17.7711 23.7752 17.9132 23.7752C17.8776 23.6952 17.8303 23.6267 17.8539 23.4895C17.9487 23.4209 18.0789 23.3867 18.2447 23.3867C18.3158 23.3181 18.3513 23.2152 18.3987 23.1352C18.6118 23.2609 18.7895 23.4324 19.0026 23.5695C19.0145 23.6381 18.9908 23.7295 19.0145 23.7752C19.0855 23.7981 19.1684 23.7638 19.2276 23.7409C19.3342 23.7981 19.4053 23.8895 19.4882 23.9467C19.5711 23.9009 19.6421 23.8552 19.7368 23.8095C19.6658 23.6724 19.5829 23.5352 19.4882 23.4095C19.3579 23.3867 19.2513 23.3295 19.1211 23.3067C19.0263 23.1695 18.9316 23.0324 18.8132 22.9181H18.5053C18.5408 22.7924 18.6 22.7124 18.6474 22.6095C18.8368 22.7124 19.2987 22.5638 19.3579 22.7924C19.5592 22.7809 19.8316 22.8267 19.95 22.7352C19.95 22.5752 19.8197 22.5409 19.8434 22.3581C19.9382 22.3124 20.1276 22.2781 20.2579 22.3124C20.2934 22.3809 20.2342 22.4495 20.2461 22.5409C20.4118 22.5981 20.8382 22.4724 20.8026 22.6667C20.7908 22.7695 20.6487 22.7124 20.5421 22.7581C20.5184 22.8724 20.6368 22.8609 20.6368 22.9524C20.5066 23.1009 20.5539 23.3638 20.5776 23.5924C20.6605 23.5924 20.7789 23.5009 20.8855 23.4895C20.7197 23.2609 20.8382 23.0667 20.9211 22.8152H21.2408C21.3355 22.6667 21.3237 22.4267 21.525 22.3809C21.6671 22.4267 21.7618 22.5295 21.8921 22.5752C21.7855 22.7581 21.6197 22.8838 21.5013 23.0552C21.7382 23.3295 22.2237 22.9981 22.3421 22.8267C22.2947 22.7581 22.1763 22.7467 22.1289 22.6781C22.2474 22.4267 22.6855 22.6095 22.8868 22.6667C23.0171 22.6095 23.0882 22.4952 23.2066 22.4381C23.3368 22.5181 23.4553 22.5981 23.6684 22.5981C23.6684 22.7009 23.6803 22.8152 23.6329 22.8838C23.8697 22.9067 23.8579 22.7009 24 22.6438C24.1658 22.7352 24.3316 22.7809 24.6039 22.7467C24.675 22.5867 24.5447 22.5067 24.4382 22.4724C24.6276 22.3695 24.8289 22.2667 25.0303 22.1752C25.1368 22.2209 25.2434 22.2552 25.3263 22.3238C25.4566 22.3009 25.7645 22.1981 25.9184 22.3124Z" fill="white"/>
</g>
<defs>
<clipPath id="clip0_2590_4513">
<rect width="42" height="16" fill="white" transform="translate(9 22)"/>
</clipPath>
</defs>
</svg>
