<svg width="60" height="60" viewBox="0 0 60 60" fill="none" xmlns="http://www.w3.org/2000/svg">
<rect width="60" height="60" fill="#005996"/>
<g clip-path="url(#clip0_168_311)">
<path d="M15.334 33.4795C15.3427 31.3998 14.3392 30.255 12.2117 30.255C11.8908 30.255 11.4892 30.255 11.1683 30.2946V36.6662H12.131C13.8171 36.6662 15.3427 36.0968 15.3427 33.4924L15.334 33.4795ZM17.6732 33.4924C17.6732 36.3737 15.785 38.3863 12.4519 38.3863H9V28.9124C9.68258 28.8341 10.4857 28.755 12.0512 28.755C15.7044 28.7155 17.6732 30.4528 17.6732 33.4924ZM37.6216 35.8207V28.9098C37.782 28.8703 38.0422 28.8307 38.364 28.8307C39.0865 28.8307 39.809 29.0681 39.809 30.0546V30.6455H41.9582V32.3657H39.809V35.7028C39.809 36.4124 40.469 36.7676 41.0319 36.7676C41.6737 36.7676 42.1551 36.4124 42.2756 36.3333C42.3962 36.4916 42.718 36.9259 42.718 37.2811C42.7184 37.4286 42.6605 37.5704 42.5566 37.6759C42.4361 37.7946 41.6156 38.3863 40.1706 38.3863C38.0422 38.3468 37.6216 37.122 37.6216 35.8207ZM30.4384 33.0572L29.6752 35.6229L28.9926 33.6894C26.5034 26.4259 22.1278 24.6102 18.675 24.6102C15.8249 24.6102 13.8978 25.8341 12.6124 27.2155C12.5326 27.2946 12.5326 27.3341 12.5326 27.3737C12.5326 27.452 12.5734 27.4915 12.654 27.4915C12.6931 27.4915 12.7338 27.4915 12.7737 27.452C14.0981 26.3468 15.7443 25.3602 18.1129 25.3602C24.6525 25.3602 27.016 33.1974 28.2693 38.3863H30.7194L31.8834 34.952L33.409 30.6498C31.683 30.7676 30.8391 31.5959 30.4384 33.0572ZM34.1506 30.6455C35.4758 30.9612 36.3588 31.8729 36.3588 33.0968V38.3898H35.3952C34.592 38.3898 34.1506 37.995 34.1506 37.1659V30.6455ZM23.2336 34.6363C22.0289 34.6363 20.5475 34.952 20.5475 35.9385C20.5475 36.5707 21.2258 37.005 21.989 37.005C22.7921 37.005 23.2336 36.5707 23.3134 36.452C23.3941 36.3729 23.4348 36.2155 23.4348 35.9789V34.6363H23.2336ZM25.4791 36.4124C25.4791 37.202 25.6421 37.7946 25.8833 38.1498C25.682 38.2281 25.3611 38.3468 24.7991 38.3468C23.7549 38.3468 23.5944 37.7946 23.5146 37.5176C23.2735 37.755 22.6317 38.3468 21.146 38.3468C19.9412 38.3468 18.42 37.6363 18.42 36.0176C18.42 34.1624 20.5839 33.5311 22.9925 33.5311H23.3542V33.3729C23.3542 32.5842 22.7123 32.1894 21.7479 32.1894C20.7045 32.1894 19.7409 32.702 19.5397 32.8207C19.3792 32.5842 19.1789 32.2676 19.1789 31.9124C19.1789 31.2415 20.4235 30.7289 22.0688 30.7289C24.277 30.7289 25.4791 31.4781 25.4791 33.5311V36.4124ZM48.3104 34.6363C47.1057 34.6363 45.6269 34.952 45.6269 35.9385C45.6269 36.5707 46.3035 37.005 47.0658 37.005C47.7103 37.005 48.5108 36.7023 48.5108 35.9781V34.6363H48.3104ZM50.6314 36.4124C50.6314 37.202 50.7589 37.7946 51 38.1498C50.1838 38.4706 48.9236 38.5231 48.6313 37.5176C48.3902 37.755 47.7484 38.3468 46.2636 38.3468C45.058 38.3468 43.5402 37.5572 43.5402 35.9385C43.5402 34.0833 45.7007 33.5311 48.1092 33.5311H48.4709C48.4709 32.5876 47.7692 32.1894 46.8646 32.1894C45.8212 32.1894 44.8576 32.702 44.6573 32.8207C44.496 32.5842 44.2956 32.2676 44.2956 31.9124C44.2956 31.2415 45.5402 30.7289 47.1864 30.7289C49.3946 30.7289 50.6314 31.4781 50.6314 33.5311V36.4124Z" fill="#FEFEFD"/>
<path d="M33.4311 27.1365C33.4311 27.1365 32.3682 28.6708 30.4242 30.1923C30.4242 30.1923 32.0905 27.8123 32.2885 26.2908C32.2885 26.2908 30.6625 25.6669 29.9485 24.9648C29.9485 24.9648 31.2968 25.6669 32.6459 24.7693C32.6459 24.7693 32.9631 23.8334 32.8439 22.4683C32.8439 22.4683 33.6376 23.4824 33.7173 24.5746C33.7173 24.5746 35.2645 23.9899 35.7008 22C35.7008 22 36.2956 23.989 34.4313 25.706C34.4313 25.706 36.0179 26.2126 36.5339 28.358C36.5339 28.437 35.8593 26.9156 33.4396 27.1493L33.4311 27.1365Z" fill="#F4B11C"/>
</g>
<defs>
<clipPath id="clip0_168_311">
<rect width="42" height="17" fill="white" transform="translate(9 22)"/>
</clipPath>
</defs>
</svg>
