<svg width="60" height="60" viewBox="0 0 60 60" fill="none" xmlns="http://www.w3.org/2000/svg">
<rect width="60" height="60" fill="#0099D8"/>
<g clip-path="url(#clip0_1403_8933)">
<path d="M49.6807 41.7856H26.9308C20.2096 41.7856 14.7433 36.3356 14.7433 29.6375C14.7433 22.9379 20.2096 17.4892 26.9308 17.4892H49.6807V13.2637H26.9308C17.8705 13.2637 10.5012 20.6078 10.5012 29.6375C10.5012 38.6671 17.8705 46.0141 26.9308 46.0141H49.6807V41.7856Z" fill="white"/>
<path d="M17.8403 29.6718C17.8403 34.862 22.0766 39.0862 27.2835 39.0862H49.649V34.8591H27.2835C24.4157 34.8591 22.0811 32.5334 22.0811 29.6718C22.0811 26.8117 24.4157 24.4845 27.2835 24.4845H49.649V20.2574H27.2835C22.0766 20.2574 17.8403 24.4816 17.8403 29.6718Z" fill="white"/>
<path d="M49.6807 27.5435H27.1427C25.9733 27.5435 25.0232 28.489 25.0232 29.6548C25.0232 30.8235 25.9733 31.7705 27.1427 31.7705H49.6807V27.5435Z" fill="white"/>
</g>
<defs>
<clipPath id="clip0_1403_8933">
<rect width="40" height="34" fill="white" transform="translate(10 13)"/>
</clipPath>
</defs>
</svg>
