<svg width="60" height="60" viewBox="0 0 60 60" fill="none" xmlns="http://www.w3.org/2000/svg">
<rect width="60" height="60" fill="black"/>
<g clip-path="url(#clip0_1772_9428)">
<path d="M48.7304 12.3879H31.1013C30.4779 12.3879 29.8606 12.51 29.2847 12.747C28.7087 12.984 28.1854 13.3313 27.7446 13.7692C27.3038 14.2071 26.9541 14.727 26.7156 15.2991C26.477 15.8712 26.3542 16.4845 26.3542 17.1038V18.9627H15.1317C13.8737 18.9643 12.6678 19.4618 11.7789 20.346C10.8899 21.2302 10.3906 22.4288 10.3906 23.6785C10.3906 24.9281 10.8899 26.1267 11.7789 27.0109C12.6678 27.8951 13.8737 28.3927 15.1317 28.3943H26.3493V31.7746H18.8643C18.2404 31.7738 17.6225 31.8952 17.0458 32.1318C16.4692 32.3685 15.9452 32.7157 15.5037 33.1537C15.0623 33.5917 14.7121 34.1118 14.4731 34.6843C14.2342 35.2569 14.1112 35.8706 14.1112 36.4904C14.1112 37.1102 14.2342 37.7239 14.4731 38.2965C14.7121 38.869 15.0623 39.3891 15.5037 39.8271C15.9452 40.265 16.4692 40.6123 17.0458 40.8489C17.6225 41.0856 18.2404 41.207 18.8643 41.2062H26.3493V42.889C26.3486 43.5091 26.4711 44.1232 26.7097 44.6962C26.9483 45.2693 27.2983 45.79 27.7397 46.2285C28.1811 46.667 28.7052 47.0146 29.282 47.2516C29.8589 47.4886 30.4771 47.6103 31.1013 47.6096H36.0256C36.6616 47.63 37.2952 47.5232 37.8887 47.2955C38.4823 47.0678 39.0237 46.7239 39.4808 46.2842C39.9379 45.8445 40.3014 45.3181 40.5496 44.7361C40.7979 44.1541 40.9258 43.5284 40.9258 42.8964C40.9258 42.2643 40.7979 41.6386 40.5496 41.0566C40.3014 40.4746 39.9379 39.9481 39.4808 39.5084C39.0237 39.0687 38.4823 38.7248 37.8887 38.4971C37.2952 38.2694 36.6616 38.1626 36.0256 38.183H29.3975V34.8076H39.7386C40.3625 34.8083 40.9804 34.687 41.5571 34.4503C42.1337 34.2137 42.6577 33.8664 43.0992 33.4284C43.5406 32.9905 43.8908 32.4704 44.1298 31.8978C44.3687 31.3253 44.4917 30.7116 44.4917 30.0918C44.4917 29.472 44.3687 28.8582 44.1298 28.2857C43.8908 27.7132 43.5406 27.1931 43.0992 26.7551C42.6577 26.3171 42.1337 25.9699 41.5571 25.7332C40.9804 25.4966 40.3625 25.3752 39.7386 25.376H29.3975V21.9908H40.881C43.0399 21.9908 45.1103 21.1389 46.6368 19.6224C48.1634 18.1059 49.021 16.0491 49.021 13.9045V12.6815C49.021 12.6045 48.9905 12.5305 48.9362 12.4756C48.8818 12.4207 48.8079 12.3892 48.7304 12.3879ZM36.0453 41.2111C36.2673 41.2092 36.4875 41.2508 36.6932 41.3337C36.8989 41.4166 37.0861 41.5391 37.244 41.6942C37.4019 41.8492 37.5274 42.0337 37.6132 42.2371C37.6991 42.4405 37.7436 42.6586 37.7442 42.8792C37.7442 43.329 37.565 43.7605 37.2458 44.0795C36.9265 44.3985 36.4932 44.579 36.0404 44.5816H31.1161C30.6659 44.5803 30.2345 44.4021 29.9162 44.0858C29.5979 43.7696 29.4185 43.3411 29.4172 42.8938V41.2111H36.065H36.0453ZM26.3493 38.183H18.8643C18.4131 38.183 17.9803 38.0049 17.6612 37.6879C17.3422 37.371 17.1629 36.9411 17.1629 36.4928C17.1629 36.0445 17.3422 35.6147 17.6612 35.2977C17.9803 34.9807 18.4131 34.8026 18.8643 34.8026H26.3493V38.183ZM39.7484 28.3992C40.1997 28.3992 40.6324 28.5773 40.9515 28.8942C41.2705 29.2112 41.4498 29.6411 41.4498 30.0894C41.4498 30.5376 41.2705 30.9675 40.9515 31.2845C40.6324 31.6014 40.1997 31.7795 39.7484 31.7795H29.4073V28.3992H39.7484ZM26.3493 25.3711H15.1317C14.6804 25.3711 14.2477 25.1931 13.9286 24.8761C13.6095 24.5591 13.4303 24.1292 13.4303 23.681C13.4303 23.2327 13.6095 22.8028 13.9286 22.4859C14.2477 22.1689 14.6804 21.9908 15.1317 21.9908H26.3493V25.3711ZM40.8761 18.9627H29.3975V17.1038C29.3988 16.6566 29.5782 16.2281 29.8965 15.9118C30.2148 15.5956 30.6462 15.4174 31.0964 15.4161H45.7414C45.4151 16.4432 44.7683 17.3406 43.8945 17.9782C43.0207 18.6158 41.9653 18.9607 40.881 18.9627H40.8761Z" fill="url(#paint0_linear_1772_9428)"/>
</g>
<defs>
<linearGradient id="paint0_linear_1772_9428" x1="10.3846" y1="12.3879" x2="49.021" y2="12.3879" gradientUnits="userSpaceOnUse">
<stop stop-color="#6A26B5"/>
<stop offset="1" stop-color="#06ACEF"/>
</linearGradient>
<clipPath id="clip0_1772_9428">
<rect width="40" height="36" fill="white" transform="translate(10 12)"/>
</clipPath>
</defs>
</svg>
