<svg width="60" height="60" viewBox="0 0 60 60" fill="none" xmlns="http://www.w3.org/2000/svg">
<rect width="60" height="60" fill="black"/>
<g clip-path="url(#clip0_168_714)">
<path d="M27.7305 20V20.3058H32.2683V20H27.7305ZM17.4494 21.2114C16.1826 21.2001 14.8255 21.9199 14.8141 23.2696C14.8009 24.7411 16.0375 25.1452 17.2367 25.5395C18.2974 25.8881 19.3019 26.2202 19.2929 27.2683C19.2853 28.1518 18.4695 29.0805 16.9767 29.0678C15.9774 29.0589 15.1932 28.5987 14.755 28.3151C14.7554 28.4844 14.7547 28.7775 14.755 28.8443C15.3937 29.1915 16.1859 29.3905 16.9885 29.3971C18.5182 29.4107 20.0705 28.571 20.0847 26.939C20.097 25.5479 18.8698 25.1372 17.6739 24.7397C16.5929 24.3793 15.5615 24.0383 15.5704 22.9991C15.578 22.1368 16.4029 21.4965 17.4848 21.5054C18.5205 21.5139 19.2329 21.9843 19.5647 22.2464C19.567 22.0671 19.5643 21.7924 19.5647 21.7289C19.2376 21.56 18.4572 21.2199 17.4494 21.2114ZM17.4258 31.9554C17.3875 32.0495 14.2162 39.6152 14.1287 39.8236H14.6841C14.7229 39.7295 15.9131 36.801 15.9131 36.801H19.2574C19.2574 36.801 20.46 39.73 20.4983 39.8236H21.5264C21.2295 39.1302 19.4583 35.0015 19.4583 35.0015C19.4583 35.0015 18.1981 32.0472 18.1584 31.9554H17.4258ZM9 21.3878V29.1854H13.5851V28.8326H9.89812V25.1161H13.2424V24.7985H9.89812V21.7171H13.526V21.3878H9ZM20.4155 21.3878V21.7171H22.9917V29.1854H23.9017V21.7171H26.4778V21.3878H20.4155ZM27.7423 21.3878V29.1854H32.3274V28.8326H28.6404V25.1161H31.9847V24.7985H28.6404V21.7171H32.2683V21.3878H27.7423ZM33.9818 21.3878V29.1854H38.567V28.8326H34.88V25.1161H38.2243V24.7985H34.88V21.7171H38.5079V21.3878H33.9818ZM9 32.026V39.8236H13.5379V39.459C13.3875 39.4594 9.8863 39.4707 9.8863 39.4707V32.026L9 32.026ZM22.2827 32.026V37.2714C22.2827 39.0558 23.3661 40 25.4143 40C27.3618 40 28.5222 39.0022 28.5222 37.3302V32.026H28.0614V37.3302C28.0614 38.8046 27.0938 39.7177 25.5324 39.7177C24.0567 39.7177 23.169 38.8846 23.169 37.4831V32.026H22.2827ZM30.2712 32.026V39.8236H32.8592C34.257 39.8405 35.3881 39.4618 36.1444 38.718C36.844 38.0307 37.1962 37.055 37.1962 35.8248C37.1962 34.6299 36.8464 33.6556 36.1799 33.0022C35.5049 32.3412 34.5042 32.0062 33.2728 32.026H30.2712ZM38.6615 32.026V39.8236H43.2466V39.4708H39.5596V35.7543H42.9039V35.4367H39.5596V32.3553H43.1875V32.026H38.6615ZM44.9129 32.026V39.8236H45.811V36.0248H47.4772C47.4772 36.0248 49.8894 39.753 49.9352 39.8236H50.9161C50.7648 39.5964 48.3281 35.9307 48.3281 35.9307L48.4463 35.9072C48.5276 35.8916 50.4198 35.512 50.4198 33.9901C50.4182 33.4594 50.2477 33.0243 49.9116 32.6964C49.4503 32.2471 48.6741 32.0077 47.7254 32.026H44.9129ZM45.811 32.32H47.6427C48.2917 32.312 48.78 32.4687 49.108 32.7905C49.3987 33.0751 49.5448 33.482 49.5453 33.9901C49.5472 34.4596 49.4044 34.8501 49.108 35.1427C48.6977 35.5473 48.0133 35.751 47.1345 35.7425H45.811V32.32ZM31.1811 32.3318H33.1192C34.0494 32.3219 34.7939 32.5816 35.329 33.108C35.9572 33.7276 36.2744 34.6901 36.2744 35.9659C36.2744 37.1651 35.9733 38.0702 35.3763 38.6592C34.7712 39.2539 33.8911 39.5305 32.6701 39.5178H31.1811V32.3318ZM17.5794 32.6493L18.6902 35.4014L19.1275 36.4717H16.0431L16.0904 36.3658C16.2407 36.0064 16.9606 34.2526 17.5085 32.8375L17.5794 32.6493Z" fill="white"/>
</g>
<defs>
<clipPath id="clip0_168_714">
<rect width="42" height="20" fill="white" transform="translate(9 20)"/>
</clipPath>
</defs>
</svg>
