<svg width="60" height="60" viewBox="0 0 60 60" fill="none" xmlns="http://www.w3.org/2000/svg">
<rect width="60" height="60" fill="#177377"/>
<g clip-path="url(#clip0_168_292)">
<path d="M12.1694 26.7917L15.7713 23.1429H36.4732C36.5425 23.143 36.6103 23.1625 36.6692 23.1994C36.7281 23.2363 36.7757 23.289 36.8067 23.3517L37.3785 24.5184C37.4138 24.5901 37.4681 24.6504 37.5353 24.6925C37.6025 24.7346 37.68 24.757 37.7591 24.757H45.2905L46.4116 25.8962H21.6022C21.5425 25.8959 21.4839 25.9124 21.433 25.9441C21.3821 25.9757 21.341 26.0212 21.3143 26.0753L21.0782 26.5537C21.0428 26.6253 20.9883 26.6856 20.921 26.7277C20.8537 26.7699 20.7761 26.7922 20.697 26.7922L12.1694 26.7917Z" fill="white"/>
<path d="M22.9756 22.2282C23.0492 22.2238 23.1204 22.2 23.1822 22.159C23.2439 22.1181 23.2939 22.0615 23.3274 21.9949L23.7961 21.0441C23.8228 20.99 23.8639 20.9445 23.9148 20.9128C23.9657 20.8812 24.0243 20.8646 24.084 20.865H41.445L40.3215 19.7234L35.2731 19.7199C35.1941 19.7198 35.1166 19.6975 35.0494 19.6553C34.9822 19.6132 34.9279 19.5529 34.8925 19.4813L34.558 18.7889C34.5269 18.7262 34.4793 18.6735 34.4204 18.6367C34.3616 18.5998 34.2938 18.5802 34.2245 18.5801H20.2754L16.6736 22.2282H22.9756Z" fill="white"/>
<path d="M25.219 17.6654C25.2937 17.662 25.3662 17.6386 25.4291 17.5976C25.492 17.5567 25.5431 17.4995 25.5771 17.4321L26.0447 16.4818C26.0714 16.4277 26.1125 16.3823 26.1634 16.3506C26.2143 16.3189 26.2729 16.3024 26.3326 16.3028H36.9413L35.819 15.1623L33.04 15.1577C32.9608 15.1577 32.8833 15.1354 32.8159 15.0932C32.7486 15.0511 32.6942 14.9908 32.6588 14.9191L32.3098 14.229C32.279 14.1663 32.2315 14.1135 32.1727 14.0766C32.1139 14.0398 32.0462 14.0202 31.977 14.0202H24.7761L21.1777 17.6654H25.219Z" fill="white"/>
<path d="M29.7325 9L25.6792 13.1055H27.4464C27.5253 13.1054 27.6027 13.0831 27.6698 13.0411C27.7369 12.9991 27.7912 12.939 27.8265 12.8675L28.2947 11.9167C28.3213 11.8625 28.3625 11.8171 28.4133 11.7854C28.4642 11.7538 28.5229 11.7372 28.5826 11.7376H32.4407L29.7325 9Z" fill="white"/>
<path d="M49.8948 29.4207L40.0814 29.4161C40.0023 29.4161 39.9247 29.3938 39.8574 29.3516C39.79 29.3095 39.7356 29.2492 39.7002 29.1775L39.5194 28.8269C39.4883 28.7643 39.4407 28.7117 39.3818 28.6749C39.323 28.6381 39.2552 28.6186 39.186 28.6186H20.2346C20.2164 28.6186 20.1986 28.6139 20.1827 28.6049C20.1669 28.5959 20.1536 28.583 20.1441 28.5673C20.1346 28.5516 20.1291 28.5338 20.1284 28.5154C20.1276 28.497 20.1314 28.4788 20.1396 28.4623L20.3964 27.9373C20.4085 27.9127 20.4141 27.8854 20.4128 27.8579C20.4115 27.8304 20.4033 27.8038 20.3891 27.7804C20.3748 27.7571 20.3548 27.7378 20.3311 27.7244C20.3074 27.711 20.2807 27.704 20.2536 27.704H11.2665L9 30.0017L11.2665 32.2971H20.2536C20.2807 32.2971 20.3074 32.2901 20.3311 32.2767C20.3548 32.2633 20.3748 32.2441 20.3891 32.2207C20.4033 32.1973 20.4115 32.1707 20.4128 32.1432C20.4141 32.1158 20.4085 32.0884 20.3964 32.0638L20.1396 31.5417C20.1314 31.5253 20.1276 31.507 20.1284 31.4886C20.1291 31.4703 20.1346 31.4524 20.1441 31.4367C20.1536 31.4211 20.1669 31.4081 20.1827 31.3991C20.1986 31.3902 20.2164 31.3854 20.2346 31.3854H39.1854C39.2548 31.3855 39.3228 31.366 39.3818 31.3291C39.4408 31.2922 39.4884 31.2394 39.5194 31.1766L39.7071 30.8213C39.7425 30.7497 39.7968 30.6894 39.864 30.6473C39.9312 30.6052 40.0087 30.5828 40.0878 30.5827H49.9162L50.4649 29.9994L49.8948 29.4161" fill="white"/>
<path d="M12.1694 33.2077L15.7713 36.8565H36.4732C36.5424 36.8565 36.6103 36.8371 36.6691 36.8003C36.728 36.7635 36.7756 36.7109 36.8067 36.6482L37.3785 35.4816C37.4139 35.41 37.4682 35.3498 37.5354 35.3077C37.6026 35.2655 37.6801 35.2431 37.7591 35.243H45.2905L46.4116 34.1037H21.6022C21.5426 34.1042 21.484 34.0878 21.4331 34.0562C21.3822 34.0247 21.341 33.9793 21.3143 33.9252L21.0782 33.4463C21.0429 33.375 20.9889 33.315 20.922 33.2729C20.8551 33.2308 20.7781 33.2082 20.6993 33.2077H12.1694Z" fill="white"/>
<path d="M22.9756 37.7711C23.0492 37.7755 23.1205 37.7993 23.1822 37.8403C23.2439 37.8812 23.294 37.9378 23.3274 38.0045L23.7961 38.9547C23.8228 39.0088 23.8639 39.0543 23.9148 39.086C23.9657 39.1176 24.0243 39.1342 24.084 39.1338H41.445L40.3215 40.276L35.2731 40.2795C35.1941 40.2795 35.1167 40.3017 35.0495 40.3437C34.9822 40.3858 34.9279 40.4459 34.8925 40.5175L34.558 41.2128C34.5269 41.2755 34.4793 41.3282 34.4204 41.3651C34.3616 41.4019 34.2938 41.4215 34.2245 41.4216H20.2754L16.6736 37.7711H22.9756Z" fill="white"/>
<path d="M25.219 42.334C25.2937 42.3374 25.3662 42.3608 25.4291 42.4018C25.492 42.4428 25.5431 42.4999 25.5771 42.5673L26.0447 43.5158C26.0714 43.5699 26.1125 43.6154 26.1634 43.6471C26.2143 43.6787 26.2729 43.6953 26.3326 43.6949H36.9413L35.819 44.8376L33.04 44.8423C32.9609 44.8424 32.8833 44.8647 32.816 44.9068C32.7487 44.949 32.6942 45.0092 32.6588 45.0809L32.307 45.7716C32.276 45.8341 32.2285 45.8867 32.1697 45.9235C32.1109 45.9603 32.0432 45.9798 31.9741 45.9798H24.7761L21.1777 42.334H25.219Z" fill="white"/>
<path d="M29.7325 51L25.6792 46.8939H27.4464C27.5254 46.894 27.6028 46.9164 27.6699 46.9585C27.737 47.0007 27.7912 47.0609 27.8265 47.1325L28.2947 48.0827C28.3214 48.1368 28.3625 48.1822 28.4134 48.2137C28.4643 48.2453 28.5229 48.2617 28.5826 48.2612H32.4407L29.7342 51" fill="white"/>
</g>
<defs>
<clipPath id="clip0_168_292">
<rect width="42" height="42" fill="white" transform="translate(9 9)"/>
</clipPath>
</defs>
</svg>
