<svg width="60" height="60" viewBox="0 0 60 60" fill="none" xmlns="http://www.w3.org/2000/svg">
<rect width="60" height="60" fill="#17468F"/>
<g clip-path="url(#clip0_402_235)">
<path d="M14.0876 34.1406C14.0178 34.3075 13.962 34.4046 13.8226 34.4046C13.6833 34.4046 13.6275 34.3075 13.5574 34.1406L10.0568 25.7145C9.69366 24.8396 9.0802 25.2007 9.0802 24.8951C9.0802 24.812 9.136 24.7428 9.24759 24.7428C9.98667 24.7428 10.7261 24.7704 11.4651 24.7704C12.1768 24.7704 12.8881 24.7428 13.5994 24.7428C13.8086 24.7428 13.9062 24.7704 13.9062 24.8815C13.9062 25.1452 13.0555 24.9926 13.0555 25.6589C13.0555 25.9229 13.2787 26.4919 15.0084 30.837H15.0358C16.2496 27.7691 16.7097 26.8527 16.7097 26.2142C16.7097 24.8263 15.5105 25.2566 15.5105 24.8954C15.5105 24.7844 15.5663 24.7428 15.7475 24.7428C16.2359 24.7428 16.8076 24.7707 17.1701 24.7707C17.8119 24.7707 18.2443 24.7428 18.7184 24.7428C18.844 24.7428 18.9419 24.7707 18.9419 24.8539C18.9419 25.215 17.9235 24.7983 17.1283 26.7419L14.0876 34.1406ZM20.4886 28.6713C20.4886 28.227 20.3493 28.102 20.0703 28.102C19.624 28.102 19.2895 28.3381 19.2895 28.7544C19.2895 29.0739 19.345 29.4208 19.345 29.754C19.345 30.3785 18.9126 30.823 18.1595 30.823C17.3921 30.823 17.0854 30.4898 17.0854 29.9761C17.0854 28.8655 19.1358 27.7688 20.949 27.7688C22.4833 27.7688 23.0272 28.3933 23.0272 29.5179V33.2524C23.0272 33.4187 23.1111 33.5164 23.2645 33.5164C23.641 33.5164 23.6968 33.0163 23.906 33.0163C23.9758 33.0163 24.0316 33.0858 24.0316 33.141C24.0316 33.28 23.5575 34.2932 22.065 34.2932C21.1582 34.2932 20.7539 33.9601 20.5865 33.4047C19.8334 34.0019 19.1779 34.2932 18.4803 34.2932C17.3085 34.2932 16.8344 33.6272 16.8344 33.03C16.8344 31.9473 17.6436 31.6141 20.4886 30.6145V28.6713ZM20.4886 30.9062C19.624 31.2533 19.3727 31.6557 19.3727 32.2808C19.3727 33.1969 19.5822 33.4327 19.9447 33.4327C20.1819 33.4327 20.3633 33.2661 20.4886 33.1414V30.9062ZM39.4199 27.7688C41.2054 27.7688 42.196 28.9626 42.196 29.865C42.196 30.6561 41.7216 31.0172 41.1078 31.0172C40.5358 31.0172 40.0477 30.6145 40.0477 29.865C40.0477 29.4208 40.1315 28.9626 40.1315 28.6849C40.1315 28.227 39.8526 28.0185 39.4339 28.0185C38.7647 28.0185 38.2348 28.9073 38.2348 29.9621C38.2348 31.8223 39.3507 32.7939 40.4105 32.7939C41.8332 32.7939 41.7634 31.8918 42.0704 31.8918C42.168 31.8918 42.196 31.9473 42.196 32.0307C42.196 32.3918 41.3591 34.2935 39.0714 34.2935C37.5649 34.2935 35.9748 33.1969 35.9748 31.1702C35.9748 29.1847 37.6768 27.7688 39.4202 27.7688H39.4199ZM45.6274 33.3635C45.6274 34.0435 46.4363 33.7798 46.4363 34.0714C46.4363 34.1406 46.4085 34.2101 46.2829 34.2101C45.7527 34.2101 45.1532 34.1822 44.4416 34.1822C43.7306 34.1822 43.1305 34.2101 42.6006 34.2101C42.475 34.2101 42.4473 34.1406 42.4473 34.0714C42.4473 33.7798 43.2562 34.0435 43.2562 33.3635V25.6865C43.2562 24.9926 42.3912 25.1731 42.3912 24.9091C42.3912 24.5899 43.2281 24.951 45.6274 24.0485V33.3635ZM46.1015 30.7951C47.3571 29.726 47.6641 29.4487 47.6641 28.9765C47.6641 28.0185 46.8549 28.2825 46.8549 27.977C46.8549 27.8799 46.9244 27.8519 47.05 27.8519C47.3153 27.8519 47.887 27.8799 48.459 27.8799C49.1426 27.8799 49.6307 27.8519 49.9097 27.8519C50.0768 27.8519 50.1329 27.9078 50.1329 27.9909C50.1329 28.2686 49.1703 27.977 47.8034 29.49L50.0353 33.3771C50.4393 34.0714 50.9558 33.7519 50.9558 34.0714C50.9558 34.1822 50.8857 34.2101 50.607 34.2101C50.063 34.2101 49.5051 34.1822 48.8496 34.1822C48.2776 34.1822 47.7196 34.2101 47.1476 34.2101C47.0083 34.2101 46.9244 34.1822 46.9244 34.0575C46.9244 33.8353 47.3988 33.974 47.3988 33.5716C47.3988 33.3635 47.2592 33.1134 47.1336 32.8634L46.1015 30.7951ZM35.2906 26.9252C35.3202 27.009 35.4446 26.9868 35.444 26.8979L35.4254 24.7883C35.4254 24.7865 35.4251 24.778 35.4208 24.7689C35.4129 24.7531 35.3964 24.7428 35.3775 24.7431C33.6771 24.7568 31.9627 24.7704 30.1799 24.7704C29.1615 24.7704 28.3667 24.7425 27.8227 24.7425C27.669 24.7425 27.6136 24.7841 27.6136 24.9094C27.6136 25.3534 28.7853 24.826 28.7853 25.7976V26.8682C28.7853 26.955 28.8716 27.0175 28.953 26.9871C29.1969 26.8967 29.4591 26.8469 29.7326 26.8469C30.365 26.8469 30.9379 27.1097 31.3596 27.5358C31.4388 27.6153 31.5748 27.5573 31.5748 27.4456V25.2059C31.5748 25.1346 31.6327 25.0766 31.7044 25.0793C32.3511 25.1012 33.2438 25.2038 33.7893 25.4696C34.2982 25.7178 34.6061 25.8677 34.8946 26.2139C35.1126 26.4755 35.222 26.7322 35.2906 26.9252ZM28.4953 34.2101C28.3694 34.2101 28.3417 34.1406 28.3417 34.0714C28.3417 33.7798 29.039 34.0435 29.039 33.3635V29.4626C29.039 28.8518 28.7182 28.6297 28.3834 28.6297C28.0206 28.6297 27.6303 28.8934 27.3373 29.171V33.3635C27.3373 34.0435 28.0346 33.7798 28.0346 34.0714C28.0346 34.1406 28.0069 34.2101 27.8816 34.2101C27.4629 34.2101 26.8632 34.1822 26.1519 34.1822C25.4405 34.1822 24.8408 34.2101 24.3106 34.2101C24.185 34.2101 24.1572 34.1406 24.1572 34.0714C24.1572 33.7798 24.9661 34.0435 24.9661 33.3635V29.3932C24.9661 28.4494 24.0456 28.6157 24.0456 28.352C24.0456 28.1299 24.9243 28.3799 27.3373 27.7691V28.7268C28.3139 27.9773 28.8719 27.7691 29.639 27.7691C31.0339 27.7691 31.4105 28.6297 31.4105 29.8374V33.3635C31.4105 33.7255 31.6395 33.8196 31.8538 33.873C32.4438 33.9127 33.1954 33.7197 33.6673 33.4867C34.175 33.236 34.482 33.0843 34.769 32.7372C34.9854 32.4744 35.094 32.217 35.1617 32.0234C35.1909 31.9397 35.3153 31.9615 35.315 32.0502L35.3071 34.1597C35.3071 34.1618 35.3071 34.17 35.3025 34.1791C35.2949 34.1949 35.2784 34.2055 35.2592 34.2055L28.4953 34.2101Z" fill="white"/>
<path d="M33.693 30.8018C33.718 30.9705 33.718 31.1292 33.8561 31.1292C33.9311 31.1292 33.9814 31.1079 33.9814 30.9917V27.5306C33.9814 27.4144 33.9311 27.3934 33.8561 27.3934C33.718 27.3934 33.718 27.5518 33.693 27.7205C33.596 28.3535 32.9825 28.8934 32.1532 29.0348C32.1224 29.0402 32.1078 29.0642 32.1105 29.0912C32.1206 29.1938 32.1246 29.2338 32.1358 29.3155C32.1383 29.3349 32.1553 29.3507 32.1782 29.3549C32.9752 29.5066 33.5768 30.0498 33.693 30.8018Z" fill="white"/>
</g>
<defs>
<clipPath id="clip0_402_235">
<rect width="42" height="11" fill="white" transform="translate(9 24)"/>
</clipPath>
</defs>
</svg>
