<svg width="60" height="60" viewBox="0 0 60 60" fill="none" xmlns="http://www.w3.org/2000/svg">
<rect width="60" height="60" fill="black"/>
<path d="M39.568 12.248C25.9433 12.248 12.6842 23.3093 12.6842 25.1802C12.6842 25.4567 12.8655 25.5696 13.075 25.5696C13.4302 25.5696 13.8573 24.9601 14.8342 24.0357C21.7404 17.4975 31.9071 13.6503 38.9652 13.6503C44.0667 13.6503 46.2513 16.3094 46.2513 19.5541C46.2513 28.8812 27.573 42.7214 17.9267 42.7214C15.4145 42.7214 13.7474 41.5368 13.7474 39.5076C13.7474 38.3725 14.2292 37.1774 15.0311 36.0039C15.6292 36.5371 16.788 36.9865 18.2663 36.9865C24.5312 36.9865 31.4702 32.0403 31.4564 28.6303C31.4523 27.6442 30.5906 26.5807 28.6967 26.5807C25.5605 26.5807 20.0031 29.1455 15.9861 32.7545C15.5101 31.5845 16.3189 29.7107 17.8323 28.0919C20.9638 24.7447 26.9397 21.6048 30.126 21.6048C30.4397 21.6048 30.5733 21.7638 30.5733 21.9442C30.5733 22.2289 30.1634 22.3773 30.1634 22.7481C30.1634 22.9501 30.3304 23.1102 30.5675 23.1102C31.1242 23.1102 31.918 22.2149 31.918 21.4355C31.918 20.8417 31.4293 20.4208 30.5272 20.4208C27.2132 20.4208 20.5569 23.382 16.6205 27.2513C14.262 29.5687 12.8833 32.5019 14.0013 34.7535C12.1465 36.8951 10.9192 39.2794 10.9192 41.6759C10.9192 44.6732 13.1717 46.7816 17.2019 46.7816C24.0787 46.7816 31.6647 43.0555 37.6746 37.965L37.8559 37.1064L38.6607 37.1029C44.5854 31.7807 48.7497 25.1848 48.7497 19.7927C48.7497 15.966 46.2836 12.248 39.568 12.248ZM28.2574 27.8363C29.1946 27.8363 29.5037 28.3323 29.5037 28.7828C29.5037 30.7317 23.723 34.6388 18.8621 34.6388C17.8357 34.6388 16.9901 34.2471 16.7604 33.9572C20.1194 30.5681 25.4453 27.8363 28.2574 27.8363Z" fill="#FDBF57" stroke="#FDBF57" stroke-width="0.4513"/>
</svg>
