<svg width="60" height="60" viewBox="0 0 60 60" fill="none" xmlns="http://www.w3.org/2000/svg">
<rect width="60" height="60" fill="#F27321"/>
<path d="M29.4957 49.9954C21.8517 49.9954 14.8886 45.6146 11.5924 38.6638C11.0224 37.4583 11.5369 36.0182 12.7424 35.4457C13.9453 34.8757 15.3854 35.3902 15.9579 36.5932C18.5378 42.0408 24.1012 45.4002 30.1211 45.153C35.7098 44.921 40.6654 41.6348 43.0562 36.5781C43.6262 35.37 45.0637 34.8555 46.2692 35.4255C47.4747 35.9955 47.9917 37.4356 47.4217 38.6411C44.2617 45.3271 37.7097 49.6725 30.3204 49.9777C30.0455 49.9903 29.7706 49.9954 29.4957 49.9954Z" fill="white"/>
<path d="M46.5683 32.194H12.416C11.0819 32.194 10 31.1121 10 29.7779C10 28.4463 11.0819 27.3643 12.416 27.3643H43.953C42.7828 20.2648 36.594 14.8298 29.1719 14.8298C23.5807 14.8298 18.4939 17.9066 15.8963 22.865C15.2784 24.0453 13.8182 24.5018 12.638 23.8814C11.4552 23.2635 11.0012 21.8032 11.6191 20.6229C15.054 14.0706 21.78 10 29.1719 10C40.0768 10 48.9641 18.8701 48.9818 29.7754C48.9843 30.416 48.7296 31.0314 48.2782 31.4853C47.8242 31.9393 47.2089 32.194 46.5683 32.194Z" fill="white"/>
</svg>
