<svg width="60" height="60" viewBox="0 0 60 60" fill="none" xmlns="http://www.w3.org/2000/svg">
<rect width="60" height="60" fill="#AB0D1C"/>
<g clip-path="url(#clip0_1772_9426)">
<path d="M33.0394 24.1547C33.0394 24.2365 33.0386 24.3182 33.0369 24.4C33.0352 24.4818 33.0326 24.5636 33.0292 24.6454C33.0258 24.7272 33.0216 24.809 33.0164 24.8908C32.8095 27.9502 31.2412 31.577 28.5133 34.8384C28.1761 34.639 27.8645 34.4345 27.5656 34.2173C29.9794 31.3777 31.4098 28.1598 31.3332 25.6371C31.3315 25.5894 31.3298 25.5417 31.3281 25.494C31.3247 25.4445 31.3213 25.396 31.3178 25.3483C31.3127 25.3006 31.3076 25.2529 31.3025 25.2051C31.2974 25.1574 31.2915 25.1097 31.2846 25.062C31.2744 24.9768 31.2608 24.8925 31.2438 24.809C31.2285 24.7238 31.2106 24.6394 31.1901 24.5559C31.1697 24.4724 31.1467 24.3898 31.1212 24.308C31.0956 24.2262 31.0675 24.1453 31.0369 24.0652C30.9943 23.9476 30.9458 23.8335 30.8913 23.7227C30.8351 23.612 30.7729 23.5038 30.7048 23.3981C30.6384 23.2942 30.5652 23.1945 30.4852 23.0991C30.4051 23.0019 30.3208 22.9108 30.2323 22.8256C30.0382 22.6569 29.8313 22.5061 29.6065 22.3783C29.3843 22.2505 29.1518 22.1457 28.9066 22.0665C28.664 21.9847 28.4136 21.9285 28.1582 21.8978C27.9053 21.8671 27.6474 21.862 27.3919 21.8825C24.6844 21.9642 21.2514 23.8837 18.4519 26.8844C15.6525 29.8876 13.959 33.4531 14.0407 36.193C14.033 36.4511 14.0535 36.7093 14.0995 36.9623C14.1454 37.2179 14.217 37.4658 14.3089 37.7061C14.4034 37.9489 14.5235 38.1789 14.6614 38.3962C14.8019 38.6134 14.9628 38.8154 15.1416 39.0019C15.3332 39.1706 15.5426 39.3214 15.7648 39.4492C15.9871 39.577 16.2221 39.6818 16.4647 39.7636C16.7099 39.8454 16.9603 39.9016 17.2157 39.9323C17.4686 39.963 17.7265 39.9681 17.982 39.9476C20.056 39.8888 22.5465 38.7489 24.8581 36.8729C25.1544 37.1234 25.4711 37.3662 25.8032 37.5988C20.7304 42.0026 14.7559 43.347 11.7546 40.4895C11.4711 40.2007 11.2182 39.8837 10.996 39.5438C10.7763 39.2039 10.5899 38.8435 10.4392 38.4678C10.2885 38.0895 10.1761 37.6984 10.1046 37.2997C10.0305 36.901 9.99729 36.4972 10.005 36.0908C9.89767 32.4511 11.9692 27.894 15.4149 24.2007C18.8606 20.5048 23.2412 18.1457 26.8453 18.0384C27.2489 18.0077 27.6499 18.0179 28.0509 18.069C28.4494 18.1202 28.8428 18.2122 29.2233 18.3425C29.6039 18.4703 29.9717 18.639 30.3191 18.8409C30.6665 19.0428 30.9935 19.2805 31.2949 19.5489C31.5758 19.8352 31.8287 20.1496 32.0484 20.4869C32.2655 20.8243 32.4519 21.1821 32.6001 21.5553C32.7508 21.9285 32.8632 22.317 32.9347 22.7106C33.0088 23.1067 33.042 23.508 33.0369 23.9093C33.0386 23.9911 33.0394 24.0729 33.0394 24.1547Z" fill="white"/>
<path d="M49.2818 31.0327C49.4709 31.3905 49.6241 31.7688 49.7391 32.1573C49.854 32.5458 49.9306 32.9445 49.969 33.3483C50.0047 33.7522 50.0022 34.1611 49.9587 34.5624C49.3074 39.1937 42.4492 42.0538 34.679 40.9394C33.8872 40.8371 33.103 40.6889 32.3291 40.4972C31.5577 40.3055 30.794 40.0678 30.0481 39.7867C29.3023 39.5081 28.5718 39.1835 27.8642 38.8205C27.1541 38.455 26.467 38.0487 25.8029 37.6065C25.4709 37.3696 25.155 37.126 24.8553 36.8755C22.6484 35.0148 21.4428 32.7656 21.7595 30.5164C22.2371 27.1349 26.0175 24.7017 31.0417 24.0653C31.0724 24.1454 31.0996 24.2263 31.1235 24.3081C31.149 24.3916 31.172 24.4742 31.1924 24.556C31.2129 24.6395 31.2316 24.7238 31.2486 24.809C31.264 24.8925 31.2767 24.9769 31.287 25.0621C30.8655 25.1106 30.4466 25.1848 30.0354 25.2844C29.6216 25.3867 29.2154 25.5094 28.817 25.6602C28.4185 25.8084 28.0303 25.9822 27.6548 26.179C27.2767 26.3758 26.914 26.5956 26.5641 26.8384C26.3419 26.9892 26.135 27.163 25.9485 27.3573C25.7621 27.549 25.5935 27.7611 25.4479 27.986C25.3023 28.211 25.1797 28.4512 25.0801 28.7017C24.983 28.9522 24.9089 29.2129 24.8604 29.4761C24.8348 29.7445 24.8323 30.0154 24.8578 30.2838C24.8834 30.5522 24.937 30.8154 25.0136 31.0736C25.0903 31.3317 25.195 31.5822 25.3202 31.8199C25.4479 32.0576 25.596 32.28 25.7672 32.4895C25.8949 32.6548 26.0285 32.815 26.1682 32.9701C26.3061 33.1268 26.4509 33.2776 26.6024 33.4225C26.7523 33.5673 26.9072 33.7062 27.0673 33.8391C27.2291 33.972 27.3951 34.0989 27.5654 34.2199C27.8617 34.4371 28.1758 34.6467 28.5105 34.8435C29.0136 35.1298 29.5322 35.3905 30.0635 35.6282C30.5922 35.8659 31.1337 36.0755 31.6854 36.2621C32.2346 36.4461 32.794 36.6046 33.3585 36.7349C33.9255 36.8653 34.4977 36.9675 35.0724 37.0442C41.1644 37.9183 46.5028 35.9528 46.9651 32.6531C47.4274 29.3534 42.8476 25.9566 36.7557 25.0825C36.4475 25.0382 36.1375 25.0007 35.8259 24.9701C35.516 24.9394 35.2044 24.9155 34.891 24.8985C34.5794 24.8832 34.2669 24.8755 33.9536 24.8755C33.642 24.8738 33.3295 24.8797 33.0162 24.8934C33.04 24.5594 33.0469 24.2314 33.0366 23.9094C33.3721 23.9008 33.7067 23.8991 34.0405 23.9042C34.3759 23.9094 34.7105 23.9213 35.0443 23.94C35.3798 23.9588 35.7135 23.9852 36.0456 24.0193C36.3793 24.0516 36.7114 24.0917 37.0417 24.1394C42.0149 24.8525 46.4492 27.1068 48.6126 30.0231C48.8681 30.3349 49.0928 30.6723 49.2818 31.0327Z" fill="white"/>
</g>
<defs>
<clipPath id="clip0_1772_9426">
<rect width="40" height="24" fill="white" transform="translate(10 18)"/>
</clipPath>
</defs>
</svg>
