<svg width="60" height="60" viewBox="0 0 60 60" fill="none" xmlns="http://www.w3.org/2000/svg">
<rect width="60" height="60" fill="#827A71"/>
<g clip-path="url(#clip0_168_147)">
<mask id="mask0_168_147" style="mask-type:luminance" maskUnits="userSpaceOnUse" x="9" y="9" width="42" height="42">
<path d="M9.04065 50.4567H50.4683V9.02794H9.04065V50.4567Z" fill="white"/>
</mask>
<g mask="url(#mask0_168_147)">
<path d="M19.3689 9.02774V50.4565M25.7158 9.02774L25.7127 15.4537M9.03979 15.4797H50.4713M9.03979 43.8649H50.4713M41.0971 8.91806L37.4562 50.5401M38.1741 35.3266H50.4713M19.3689 33.1031C19.3689 23.4496 27.1953 15.6193 36.8525 15.6193C46.5121 15.6193 54.3377 23.4496 54.3377 33.1031C54.3377 42.7581 46.5121 50.5907 36.8525 50.5907C27.1953 50.5907 19.3689 42.7581 19.3689 33.1031ZM50.6201 19.4313C50.6201 25.1455 45.9867 29.7782 40.271 29.7782C34.5562 29.7782 29.9258 25.1455 29.9258 19.4313C29.9258 13.7141 34.5562 9.08143 40.271 9.08143C45.9867 9.08143 50.6201 13.7141 50.6201 19.4313Z" stroke="white" stroke-width="1.34527" stroke-miterlimit="3.864"/>
</g>
<path d="M19.3209 43.9497V42.6489H21.6173C21.8045 42.619 22.0859 42.4456 22.112 42.2224V17.1093C22.1089 16.8409 21.8045 16.6246 21.5467 16.6092H19.3209V15.3046H37.6045L38.123 22.3264H37.0784L36.6128 19.8828C36.214 17.9929 34.5082 16.61 32.5546 16.61L25.9784 16.6092V28.5936H30.1095C31.431 28.3796 31.9579 27.3534 32.2233 26.0855L32.629 24.0583H33.5901V34.8424H32.6981L32.2202 32.4018C31.9249 30.959 31.2063 29.9013 29.716 29.9013H25.9784V41.4807C25.9784 42.1143 26.4908 42.6335 27.1167 42.6489H32.8231C34.9408 42.5461 36.7861 41.0244 37.2962 38.9542L37.9758 35.0594H39.0802L38.301 43.9497H19.3209Z" fill="white"/>
<path d="M9.00073 9.01408H50.4077V50.4198H9.00073V9.01408Z" fill="#827A71"/>
<mask id="mask1_168_147" style="mask-type:luminance" maskUnits="userSpaceOnUse" x="9" y="9" width="42" height="42">
<path d="M9 50.4198H50.4069V9.01408H9V50.4198Z" fill="white"/>
</mask>
<g mask="url(#mask1_168_147)">
<path d="M19.3233 9.01544V50.4212M25.6671 9.01544L25.6656 15.4383M9.00037 15.4644H50.4111M9.00037 43.8334H50.4111M41.0446 8.90346L37.4045 50.5071M38.1201 35.2998H50.4111M19.3233 33.077C19.3233 23.4281 27.1474 15.6017 36.8001 15.6017C46.455 15.6017 54.2753 23.4281 54.2753 33.077C54.2753 42.7274 46.455 50.5562 36.8001 50.5562C27.1474 50.5562 19.3233 42.7274 19.3233 33.077ZM50.5607 19.4121C50.5607 25.1232 45.9296 29.7544 40.217 29.7544C34.5045 29.7544 29.8756 25.1232 29.8756 19.4121C29.8756 13.698 34.5045 9.06836 40.217 9.06836C45.9296 9.06836 50.5607 13.698 50.5607 19.4121Z" stroke="white" stroke-width="1.34527" stroke-miterlimit="3.864"/>
</g>
<path d="M19.2776 43.9191V42.6175H21.5701C21.7573 42.5891 22.0403 42.4157 22.0656 42.1918V17.0917C22.0641 16.8217 21.7588 16.6062 21.4996 16.5909H19.2776V15.2862H37.5497L38.0697 22.3058H37.0266L36.558 19.8636C36.1622 17.9761 34.4564 16.5916 32.5059 16.5916L25.9305 16.5909V28.5706H30.0608C31.3792 28.3566 31.9077 27.3296 32.1723 26.0633L32.578 24.0369H33.5368V34.8148H32.6478L32.1708 32.3765C31.8762 30.933 31.156 29.8768 29.6665 29.8768H25.9305V41.4509C25.9305 42.0844 26.4428 42.6021 27.0702 42.6175H32.7713C34.8882 42.5155 36.7336 40.9945 37.2429 38.9251L37.924 35.0318H39.0254L38.2461 43.9191H19.2776Z" fill="white"/>
</g>
<defs>
<clipPath id="clip0_168_147">
<rect width="42" height="42" fill="white" transform="translate(9 9)"/>
</clipPath>
</defs>
</svg>
