<svg width="60" height="60" viewBox="0 0 60 60" fill="none" xmlns="http://www.w3.org/2000/svg">
<rect width="60" height="60" fill="black"/>
<path d="M14.708 33.5993V33.498C14.7167 32.4084 13.8256 31.6083 12.4123 31.6101C11.1269 31.6101 10.1931 32.404 10.2018 33.451C10.2105 34.434 10.8954 34.9011 12.1721 35.2031L12.3783 35.2519C13.2347 35.4561 13.6028 35.5965 13.6028 36.0467C13.6028 36.48 13.1755 36.7171 12.5585 36.7171C11.7857 36.7171 11.2809 36.3566 11.2809 35.6861V35.6284H10.0216V35.6355C10.0216 37.0262 11.0329 37.813 12.5567 37.8112C13.9274 37.8112 14.8786 37.107 14.8699 35.9357C14.8612 34.9624 14.1589 34.4465 12.9335 34.1507L12.7282 34.1028C12.0763 33.9465 11.4776 33.8239 11.4689 33.3488C11.4602 32.9901 11.8022 32.7112 12.3853 32.7112C13.0876 32.7112 13.4566 33.0398 13.4566 33.5389V33.6117H14.7167L14.708 33.5993ZM15.5156 33.9483V35.4783C15.5017 35.7954 15.5574 36.1106 15.6801 36.4046C15.802 36.6976 15.9873 36.964 16.224 37.1851C16.4608 37.4063 16.7436 37.5768 17.0543 37.6869C17.365 37.7961 17.6957 37.8423 18.0264 37.8219C19.5676 37.8299 20.4649 36.8717 20.4649 35.529H19.2326C19.2152 36.2829 18.7879 36.7322 18.0246 36.7243C17.244 36.7314 16.7732 36.2332 16.7732 35.4224V34.0131C16.7732 33.2103 17.2457 32.7112 18.0246 32.7112C18.7879 32.7112 19.2169 33.1624 19.2326 33.9074H20.4649C20.4649 32.5807 19.5685 31.6101 18.0255 31.6101C17.697 31.5921 17.3682 31.6401 17.0578 31.7513C16.7519 31.8589 16.4707 32.0287 16.231 32.2504C15.9969 32.4667 15.8108 32.7316 15.6853 33.0274C15.5618 33.3195 15.5043 33.633 15.5156 33.9483ZM21.3351 37.8263H22.6014V31.6101H21.3351V37.8263ZM27.9135 32.8507V31.6101H23.7197V37.8263H27.9466V36.5848H24.9616V35.1915H27.6846V34.1277H24.9624V32.8507H27.9135ZM32.485 35.5245V31.6101H33.7182V37.8263H32.519L30.077 33.9101V37.8263H28.8438V31.6101H30.0431L32.485 35.5245ZM34.6346 33.9483V35.4792C34.6207 35.7954 34.6772 36.1097 34.8 36.4046C34.9218 36.6976 35.1072 36.964 35.3439 37.1851C35.5806 37.4063 35.8634 37.5768 36.1741 37.6869C36.4839 37.7961 36.8155 37.8423 37.1453 37.8219C38.6875 37.8299 39.6039 36.8717 39.6039 35.529H38.3524C38.335 36.2829 37.9068 36.7322 37.1445 36.7243C36.3638 36.7314 35.893 36.2332 35.893 35.4224V34.0131C35.893 33.2103 36.3647 32.7112 37.1445 32.7112C37.9068 32.7112 38.3367 33.1624 38.3524 33.9074H39.603C39.603 32.5807 38.6875 31.6101 37.1453 31.6101C36.8165 31.592 36.4874 31.64 36.1767 31.7513C35.8709 31.8589 35.5897 32.0287 35.35 32.2504C35.1158 32.4667 34.9298 32.7316 34.8043 33.0274C34.6816 33.3195 34.6233 33.633 34.6346 33.9483ZM44.6636 32.8507V31.6101H40.4811V37.8263H44.6984V36.5848H41.7134V35.1915H44.4356V34.1277H41.7134V32.8507H44.6636ZM49.9 33.6126V33.498C49.9 32.4084 49.0097 31.611 47.5955 31.6101C46.3102 31.6101 45.3764 32.4004 45.3851 33.4483C45.3938 34.4305 46.0787 34.8985 47.3553 35.2004L47.5607 35.2492C48.4179 35.4535 48.7861 35.5929 48.7861 36.0431C48.7861 36.4774 48.3579 36.7145 47.7409 36.7145C46.9698 36.7145 46.4651 36.3539 46.4651 35.6826V35.6249H45.2058V35.6337C45.2058 37.0244 46.2153 37.8263 47.7409 37.8263C49.1116 37.8263 50.0628 37.107 50.0541 35.9357C50.0454 34.9624 49.343 34.4465 48.1177 34.1507L47.9123 34.1028C47.2605 33.9465 46.6617 33.8239 46.653 33.3488C46.6443 32.9901 46.9864 32.7112 47.5694 32.7112C48.2717 32.7112 48.6407 33.0398 48.6407 33.5389V33.6117L49.9 33.6126ZM14.6758 23.6178V24.8584H11.7622V26.1354H14.373V27.1992H11.7622V28.5917H14.7106V29.834H10.4829V23.6178H14.6758ZM25.3027 29.834H26.622L24.6857 23.6178H22.8773L20.9426 29.834H22.2367L22.6284 28.4443H24.9067L25.3027 29.834ZM22.9669 27.3706L23.7693 24.8202L24.5699 27.3706H22.9669ZM26.8701 27.4861V25.956C26.8591 25.64 26.9171 25.3255 27.0398 25.0351C27.1625 24.7421 27.3487 24.4783 27.5845 24.2581C27.8213 24.0387 28.1032 23.8682 28.4113 23.759C28.7211 23.6498 29.051 23.5992 29.3799 23.6178C30.922 23.6178 31.8384 24.5884 31.8384 25.9151H30.5879C30.5704 25.1701 30.1431 24.7199 29.379 24.7199C28.6002 24.7199 28.1276 25.2189 28.1276 26.0208V27.431C28.1276 28.2409 28.5984 28.7391 29.379 28.732C30.1414 28.7409 30.5696 28.2906 30.5879 27.5367H31.8384C31.8384 28.8785 30.922 29.842 29.3808 29.834C29.0501 29.8544 28.7194 29.8038 28.4087 29.6937C28.1015 29.5861 27.819 29.4157 27.5785 29.1929C27.3443 28.9753 27.1587 28.7087 27.0345 28.4114C26.9126 28.1197 26.8561 27.8038 26.8692 27.487V27.4852L26.8701 27.4861ZM37 23.6178V24.8584H35.2769V29.834H34.0254V24.8584H32.3197V23.6178H37ZM17.1274 26.6424L17.0682 26.6913C16.5945 26.353 16.2023 25.9094 15.9212 25.3939C15.6453 24.8859 15.4921 24.1897 15.4739 23.6169H16.7758C16.7758 24.4961 17.1343 25.2882 17.9968 25.9649C17.984 25.9753 17.9709 25.9853 17.9576 25.9951L17.1274 26.6424ZM18.9262 26.6913L18.8749 26.733L18.0438 27.3813C18.0264 27.3928 18.0124 27.4061 17.9968 27.4186C18.8523 28.0953 19.2256 28.9575 19.2169 29.834H20.5188C20.5014 29.2515 20.3491 28.5446 20.0732 28.0251C19.7927 27.4991 19.4009 27.0435 18.9262 26.6913Z" fill="#FEFEFD"/>
<path d="M19.2091 23.6052C19.2178 24.5385 18.8583 25.225 17.9968 25.9319C17.9843 25.9432 17.9715 25.9541 17.9585 25.9647L17.1265 26.6405C17.1065 26.6574 17.0873 26.676 17.0673 26.6911C16.5887 27.0677 16.1971 27.5436 15.9221 28.0862C15.6473 28.6276 15.4942 29.2246 15.4739 29.8339H16.7758C16.7671 28.9174 17.1396 28.1582 17.9959 27.4495C18.0116 27.4371 18.0264 27.4229 18.0429 27.4104L18.8749 26.7338C18.8923 26.7204 18.9097 26.7053 18.9254 26.6902C19.4029 26.3326 19.7953 25.8697 20.0732 25.336C20.3491 24.8032 20.5014 24.2171 20.5197 23.6177H19.2178L19.2091 23.6052Z" fill="#A174FD"/>
</svg>
