<svg width="60" height="60" viewBox="0 0 60 60" fill="none" xmlns="http://www.w3.org/2000/svg">
<rect width="60" height="60" fill="#102E5A"/>
<g clip-path="url(#clip0_1772_9423)">
<mask id="mask0_1772_9423" style="mask-type:luminance" maskUnits="userSpaceOnUse" x="-97" y="-26" width="294" height="163">
<path d="M-96.5322 -25.1804H196.824V136.908H-96.5322V-25.1804Z" fill="white"/>
</mask>
<g mask="url(#mask0_1772_9423)">
<path fill-rule="evenodd" clip-rule="evenodd" d="M28.2195 26.0988L29.3843 21.0156H37.3598L39.1295 25.4897L42.9474 21.0156H50.9839L46.6433 39.8959H39.3868L40.6736 34.2219L35.7811 40L33.6586 34.2532L32.3612 39.8959H25.1021L26.357 34.4145C40.1536 29.4641 42.6582 31.7155 42.6582 31.7155C43.0137 27.1217 37.1873 27.7359 37.1873 27.7359L33.9372 27.7515L36.2428 28.7744L37.1873 27.7359C37.3598 26.0259 35.4336 26.1482 35.4336 26.1482H28.2514" fill="#C1122F"/>
<path fill-rule="evenodd" clip-rule="evenodd" d="M9.00537 39.9115H25.1076L26.3572 34.4327C26.3572 34.4327 20.8121 36.2 17.1321 35.7836L17.7582 33.0221L24.4814 33.0064L25.5639 28.2486H18.8593L19.3157 26.1482H26.084L27.2328 21.0729H13.2797L9.00537 39.9115Z" fill="white"/>
</g>
</g>
<defs>
<clipPath id="clip0_1772_9423">
<rect width="42" height="19" fill="white" transform="translate(9 21)"/>
</clipPath>
</defs>
</svg>
