<svg width="60" height="60" viewBox="0 0 60 60" fill="none" xmlns="http://www.w3.org/2000/svg">
<rect width="60" height="60" fill="#79B624"/>
<g clip-path="url(#clip0_168_328)">
<path d="M50.1954 27.7438C50.2045 27.2759 49.8554 26.8919 49.3799 26.8919H38.9411C37.13 26.8919 35.657 28.0854 35.657 29.9189C35.657 31.7524 37.13 32.9459 38.9411 32.9459H46.9195C47.8824 32.9459 48.3861 33.9129 48.3861 34.6982C48.3861 35.4843 47.6951 36.3933 46.9195 36.3933H36.5181C36.0426 36.3933 35.657 36.7842 35.657 37.2642C35.657 37.7459 36.0426 38.1351 36.5172 38.1351H46.9186C48.7316 38.1351 50.2045 36.5317 50.2045 34.6982C50.2045 32.8646 48.7307 31.2162 46.9195 31.2162H38.9411C38.1656 31.2162 37.4755 30.7042 37.4755 29.9189C37.4755 29.1336 38.1665 28.6355 38.9411 28.6355H49.3799C49.8554 28.6355 50.2045 28.2376 50.2045 27.7568L50.1954 27.7438ZM31.7174 23.6512C31.7174 23.3291 31.5829 23.0201 31.3434 22.7923C31.1039 22.5645 30.7791 22.4365 30.4404 22.4365C30.1017 22.4365 29.7769 22.5645 29.5374 22.7923C29.298 23.0201 29.1634 23.3291 29.1634 23.6512C29.1634 23.9734 29.298 24.2824 29.5374 24.5102C29.7769 24.738 30.1017 24.8659 30.4404 24.8659C30.7791 24.8659 31.1039 24.738 31.3434 24.5102C31.5829 24.2824 31.7174 23.9734 31.7174 23.6512ZM26.3721 24.8655C26.2017 24.8698 26.0321 24.8416 25.8733 24.7826C25.7145 24.7235 25.5697 24.6348 25.4475 24.5217C25.3254 24.4085 25.2283 24.2733 25.162 24.1238C25.0957 23.9744 25.0615 23.8139 25.0615 23.6517C25.0615 23.4895 25.0957 23.3289 25.162 23.1795C25.2283 23.0301 25.3254 22.8948 25.4475 22.7817C25.5697 22.6685 25.7145 22.5798 25.8733 22.5208C26.0321 22.4617 26.2017 22.4335 26.3721 22.4378C26.7047 22.4463 27.0206 22.5779 27.2527 22.8046C27.4847 23.0313 27.6146 23.3352 27.6146 23.6517C27.6146 23.9681 27.4847 24.272 27.2527 24.4988C27.0206 24.7255 26.7047 24.8571 26.3721 24.8655ZM22.3034 24.8655C22.1358 24.8656 21.9698 24.8343 21.815 24.7734C21.6601 24.7125 21.5194 24.6232 21.4008 24.5106C21.2822 24.398 21.1881 24.2642 21.1239 24.117C21.0596 23.9698 21.0265 23.8119 21.0264 23.6525C21.0263 23.4931 21.0592 23.3353 21.1232 23.188C21.1872 23.0406 21.2811 22.9068 21.3995 22.794C21.5179 22.6812 21.6585 22.5917 21.8133 22.5306C21.9681 22.4695 22.134 22.438 22.3016 22.4378C22.64 22.4376 22.9647 22.5653 23.2042 22.7927C23.4436 23.0202 23.5783 23.3289 23.5786 23.6508C23.5788 23.9727 23.4446 24.2816 23.2054 24.5094C22.9663 24.7372 22.6418 24.8653 22.3034 24.8655ZM18.2346 24.8655C17.8961 24.8655 17.5714 24.7376 17.332 24.5099C17.0926 24.2821 16.9581 23.9733 16.9581 23.6512C16.9581 23.3292 17.0926 23.0203 17.332 22.7926C17.5714 22.5649 17.8961 22.437 18.2346 22.437C18.5732 22.437 18.8979 22.5649 19.1373 22.7926C19.3767 23.0203 19.5112 23.3292 19.5112 23.6512C19.5112 23.9733 19.3767 24.2821 19.1373 24.5099C18.8979 24.7376 18.5732 24.8655 18.2346 24.8655ZM14.1668 24.8655C13.9992 24.8656 13.8331 24.8343 13.6782 24.7734C13.5233 24.7125 13.3825 24.6231 13.2639 24.5105C13.0243 24.2829 12.8896 23.9742 12.8893 23.6521C12.8892 23.4926 12.9221 23.3347 12.9862 23.1874C13.0502 23.04 13.1441 22.9061 13.2626 22.7932C13.5018 22.5654 13.8264 22.4372 14.165 22.437C14.5035 22.4367 14.8283 22.5645 15.0679 22.792C15.3075 23.0196 15.4422 23.3283 15.4424 23.6504C15.4427 23.9724 15.3084 24.2814 15.0692 24.5092C14.83 24.7371 14.5054 24.8653 14.1668 24.8655ZM24.771 26.8919C21.8551 26.8919 18.9356 26.8945 16.0189 26.8919C12.572 26.8919 10.199 29.1345 10.199 32.5282V37.2737C10.199 37.797 10.5763 38.2216 11.1082 38.2216C11.641 38.2216 12.0174 37.797 12.0174 37.2737V32.5282C12.0174 30.1758 13.6104 28.6216 16.018 28.6216H24.771C24.8887 28.62 25.0049 28.5964 25.113 28.5521C25.2211 28.5078 25.3189 28.4436 25.4009 28.3633C25.4829 28.2829 25.5474 28.188 25.5908 28.084C25.6342 27.9799 25.6556 27.8687 25.6538 27.7568C25.6538 27.2768 25.2574 26.8919 24.771 26.8919Z" fill="#FEFEFD"/>
<path d="M13.8267 32.9338C13.8358 33.4086 14.2131 33.8108 14.6977 33.8108H22.9807C23.4662 33.8108 23.8371 33.4086 23.8371 32.9468C23.8371 32.4858 23.4662 32.0811 22.9807 32.0811H14.6977C14.2131 32.0811 13.8358 32.4858 13.8358 32.9468L13.8267 32.9338ZM29.2924 27.8285V37.1976C29.2924 37.7148 29.6998 38.1351 30.2017 38.1351C30.7035 38.1351 31.1109 37.7148 31.1109 37.1976V27.8285C31.1109 27.3105 30.7035 26.8919 30.2017 26.8919C29.6998 26.8919 29.2924 27.3105 29.2924 27.8285Z" fill="#FEFEFD"/>
</g>
<defs>
<clipPath id="clip0_168_328">
<rect width="41" height="17" fill="white" transform="translate(10 22)"/>
</clipPath>
</defs>
</svg>
