<svg width="60" height="60" viewBox="0 0 60 60" fill="none" xmlns="http://www.w3.org/2000/svg">
<rect width="60" height="60" fill="black"/>
<path d="M50.3441 23.1187C50.2432 17.0278 45.5008 12.0725 39.5477 12.0725H9.88281V37.8813C9.88281 43.9722 14.7261 48.8243 20.6792 48.9275H50.3441V23.1187Z" fill="#00AE64"/>
<path d="M39.5478 14.0339H11.8V37.8813C11.8 42.8366 15.7352 46.8628 20.5784 46.8628H48.3262V23.0154C48.3262 18.0601 44.391 14.0339 39.5478 14.0339Z" fill="white"/>
<path d="M39.4467 15.3761H13.1116V37.8814C13.1116 42.2173 16.5422 45.624 20.6791 45.624H47.1152V23.1187C47.1152 18.8861 43.6845 15.3761 39.4467 15.3761Z" fill="#1B459C"/>
<path d="M28.045 42.0108L34.0991 18.4731H32.6865L26.6324 42.114L28.045 42.0108ZM40.3549 33.9584C41.3639 33.752 42.272 33.339 42.9783 32.5131C43.5837 31.6873 43.8865 30.6549 43.5837 29.6226C43.3819 28.6934 42.7765 27.8676 41.9693 27.2481C41.263 26.732 40.4558 26.4223 39.6486 26.4223H33.191C34.8054 26.9384 36.0162 28.1773 36.5207 29.829C36.5207 29.829 37.5297 33.0293 33.2919 33.9584C34.0991 34.2681 34.8054 34.7843 35.5117 35.507C36.0162 36.0231 36.3189 36.7458 36.5207 37.3652C37.227 40.772 33.191 41.5979 33.191 41.5979H39.4468C41.6666 41.5979 42.5747 40.359 42.7765 40.1526C43.4828 39.4299 43.7856 38.3976 43.5837 37.3652C43.3819 36.5393 42.9783 35.7134 42.272 35.1973C41.7675 34.6811 41.0612 34.2681 40.3549 33.9584ZM27.036 32.5131C27.6414 31.8937 27.8432 30.5517 27.5405 29.4161C27.2378 28.3837 26.6324 27.4546 25.8252 26.8352C25.1189 26.319 24.3117 25.9061 23.4036 25.8029H16.5423C18.2576 26.319 19.5693 27.6611 20.1747 29.4161C20.881 33.0293 16.845 33.752 16.845 33.752H24.4126C25.3207 33.752 26.3297 33.339 27.036 32.5131ZM26.3297 19.0926L26.2288 24.3576H16.4414V19.0926H26.3297Z" fill="white"/>
</svg>
