<svg width="60" height="60" viewBox="0 0 60 60" fill="none" xmlns="http://www.w3.org/2000/svg">
<rect width="60" height="60" fill="#E2231A"/>
<g clip-path="url(#clip0_1772_9437)">
<path d="M29.3169 26.6137C27.7021 24.6069 24.5379 23 21.0057 23C18.7863 23 16.7121 23.6346 14.9473 24.7356L15.696 25.7935C17.2489 24.8455 19.0644 24.2998 21.0053 24.2998C23.7369 24.2998 26.2211 25.3798 27.5534 26.6134H29.3169V26.6137Z" fill="white"/>
<path d="M34.399 34.2618C35.7635 35.5781 38.2906 36.6995 41.0748 36.6995C43.0884 36.6995 44.9661 36.1116 46.5564 35.0975L47.2542 36.1847C45.4635 37.3324 43.3458 37.9993 41.0748 37.9993C37.4955 37.9993 34.2951 36.3493 32.6577 34.2615L34.399 34.2618Z" fill="white"/>
<path d="M11.3623 28.9286V29.8219H12.8565V30.9993H11.3623V33.0986H10V27.7516H13.0094V28.929H11.3623V28.9286Z" fill="white"/>
<path d="M14.8979 31.9213H16.5311V33.0986H13.5356V27.7516H14.8979V31.9213Z" fill="white"/>
<path d="M22.0933 30.3255C22.0933 32.0559 20.8769 33.2757 19.1953 33.2757C17.5133 33.2757 16.2969 32.0559 16.2969 30.3255C16.2969 28.7084 17.6872 27.5739 19.1953 27.5739C20.7033 27.5742 22.0933 28.7088 22.0933 30.3255ZM17.7146 30.3325C17.7146 31.2547 18.382 31.9282 19.1949 31.9282C20.0082 31.9282 20.6753 31.2547 20.6753 30.3325C20.6753 29.5952 20.0082 28.9214 19.1949 28.9214C18.382 28.9214 17.7146 29.5952 17.7146 30.3325Z" fill="white"/>
<path d="M24.1651 31.205H24.179L25.2771 27.7516H26.3613L27.39 31.205H27.4038L28.3909 27.7516H29.8087L28.1335 33.0986H26.7435L25.8261 29.9997H25.8122L24.7835 33.0986H23.4003L21.8364 27.7516H23.2542L24.1651 31.205Z" fill="white"/>
<path d="M32.6866 29.1271C32.436 28.9142 32.1166 28.7726 31.7831 28.7726C31.5328 28.7726 31.1992 28.9214 31.1992 29.2193C31.1992 29.5313 31.5676 29.6518 31.804 29.7298L32.1515 29.8364C32.8811 30.0563 33.4444 30.4319 33.4444 31.2972C33.4444 31.8294 33.3192 32.3752 32.9021 32.7369C32.4921 33.0917 31.9431 33.2405 31.4147 33.2405C30.7544 33.2405 30.1079 33.0134 29.5728 32.6306L30.1566 31.5102C30.4973 31.815 30.9005 32.0635 31.366 32.0635C31.6857 32.0635 32.0263 31.9002 32.0263 31.5243C32.0263 31.1346 31.4911 30.9993 31.1992 30.9144C30.3444 30.6662 29.7815 30.4394 29.7815 29.4039C29.7815 28.3191 30.5392 27.6097 31.5886 27.6097C32.1169 27.6097 32.7631 27.7799 33.2286 28.0495L32.6866 29.1271Z" fill="white"/>
<path d="M35.2993 28.9286V29.8219H36.8351V30.9993H35.2993V31.9213H36.9189V33.0986H33.937V27.7516H36.9189V28.929H35.2993V28.9286Z" fill="white"/>
<path d="M41.9842 33.0986H40.2884L39.0026 31.0421H38.9887V33.0986H37.6265V27.7516H39.6629C40.6984 27.7516 41.4836 28.2552 41.4836 29.3967C41.4836 30.134 41.081 30.7725 40.3368 30.9068L41.9842 33.0986ZM38.9887 30.1485H39.1207C39.5655 30.1485 40.0658 30.0632 40.0658 29.4816C40.0658 28.9003 39.5655 28.8151 39.1207 28.8151H38.9887V30.1485Z" fill="white"/>
<path d="M44.057 30.9993L45.3286 27.7516H46.8089L44.5709 33.0986H43.5144L41.3115 27.7516H42.7915L44.057 30.9993Z" fill="white"/>
<path d="M48.3803 28.9286V29.8219H49.9161V30.9993H48.3803V31.9213H50V33.0986H47.0181V27.7516H50V28.929H48.3803V28.9286Z" fill="white"/>
</g>
<defs>
<clipPath id="clip0_1772_9437">
<rect width="40" height="15" fill="white" transform="translate(10 23)"/>
</clipPath>
</defs>
</svg>
