<svg width="60" height="60" viewBox="0 0 60 60" fill="none" xmlns="http://www.w3.org/2000/svg">
<rect width="60" height="60" fill="black"/>
<g clip-path="url(#clip0_1403_9026)">
<path fill-rule="evenodd" clip-rule="evenodd" d="M9.50131 29.198L10.1055 26.281L11.792 26.3184C12.3038 23.1436 14.4267 21.926 18.0473 22.4039L17.4935 25.3085L16.1342 25.2835C15.4615 25.309 15.1017 25.6733 15.0015 26.3183L16.7635 26.3068L16.2097 29.1865L14.4099 29.2115L12.5849 38.4116L9.42578 38.4231L11.2256 29.1855L9.50131 29.198ZM17.7982 26.1809H21.121L19.8497 32.6633C19.598 34.0347 19.3337 35.5556 20.9825 35.8423C21.4401 35.9075 21.9105 35.8429 22.3556 35.6364C23.6976 35.0136 24.0244 33.6957 24.2957 32.3729L25.5639 26.1934L28.7482 26.1819L26.3064 38.3366L23.3865 38.374L23.5123 37.7757C21.5703 39.0439 19.2086 38.8742 17.7995 37.9526C16.4309 36.9969 16.119 35.323 16.4621 33.2039L17.7982 26.1809ZM27.3866 38.3745L30.5079 38.3631L30.6967 37.3783C32.614 39.4311 36.9982 38.7538 38.5253 37.4033C37.684 36.5493 37.3274 35.5355 37.1912 34.4488C36.1046 35.8533 33.9733 36.0237 32.8741 35.1843C31.8421 34.4576 31.5745 33.0094 31.8431 31.7544C32.0856 30.6208 32.8371 29.6171 33.9349 29.1807C35.2341 28.6645 36.7916 28.9947 37.5562 29.9983C38.8433 32.0721 37.8085 33.7975 38.7087 35.6549C39.2444 36.7605 40.3016 37.6993 41.4259 38.179C42.7791 38.7564 44.4322 38.8674 45.9622 38.4268C47.7591 37.9094 49.2361 36.6287 50.0509 34.9674C51.0201 32.9917 51.0882 30.5527 50.0711 28.7191C48.3874 25.6841 43.8088 24.9427 40.9797 27.0936C41.6919 27.9673 42.0128 28.9667 42.2384 30.0232C43.413 28.4857 45.6828 28.6686 46.7442 29.5994C47.6549 30.3938 47.9087 32.2509 47.2257 33.7126C46.696 34.8459 45.7298 35.4592 44.5086 35.6463C42.3585 35.9758 41.2098 34.2617 41.1056 32.4791C41.0813 30.7 40.9367 29.4187 40.2734 28.3829C39.8174 27.6704 39.0794 27.0211 38.3239 26.6365C36.688 25.8039 34.3877 25.7433 32.7987 26.7197L33.642 22.4312L30.508 22.4197L27.3866 38.3745Z" fill="white"/>
</g>
<defs>
<clipPath id="clip0_1403_9026">
<rect width="42" height="17" fill="white" transform="translate(9 22)"/>
</clipPath>
</defs>
</svg>
