<svg width="60" height="60" viewBox="0 0 60 60" fill="none" xmlns="http://www.w3.org/2000/svg">
<g clip-path="url(#clip0_150_819)">
<rect width="60" height="60" fill="#1DBF73"/>
<g clip-path="url(#clip1_150_819)">
<path d="M30 60C46.5685 60 60 46.5685 60 30C60 13.4315 46.5685 0 30 0C13.4315 0 0 13.4315 0 30C0 46.5685 13.4315 60 30 60Z" fill="#1DBF73"/>
<path d="M37.3178 22.329C39.0705 22.329 40.4913 20.9082 40.4913 19.1556C40.4913 17.4029 39.0705 15.9821 37.3178 15.9821C35.5651 15.9821 34.1443 17.4029 34.1443 19.1556C34.1443 20.9082 35.5651 22.329 37.3178 22.329Z" fill="white"/>
<path d="M45.4184 21.6308H24.3501V20.2538C24.3501 17.5495 27.0616 17.4982 28.4421 17.4982C30.0265 17.4982 30.7442 17.652 30.7442 17.652V10.2034C29.6244 10.0643 28.4967 9.99638 27.3682 10.0001C22.9695 10.0001 14.8368 11.2233 14.8368 20.5084V21.6888H11V28.5753H14.8368V43.1135H11.2569V50H28.5415V43.1067H24.3467V28.5685H35.8486V43.1067H32.2738V49.9932H49V43.1067H45.4184V21.6308Z" fill="white"/>
</g>
</g>
<defs>
<clipPath id="clip0_150_819">
<rect width="60" height="60" fill="white"/>
</clipPath>
<clipPath id="clip1_150_819">
<rect width="60" height="60" fill="white"/>
</clipPath>
</defs>
</svg>
