<svg width="60" height="60" viewBox="0 0 60 60" fill="none" xmlns="http://www.w3.org/2000/svg">
<rect width="60" height="60" fill="#102F82"/>
<g clip-path="url(#clip0_168_585)">
<path fill-rule="evenodd" clip-rule="evenodd" d="M16.2411 22.016H29.377V26.2835H16.1751C13.9866 26.2835 13.5484 27.5641 13.5484 29.9228C13.5484 30.8706 13.068 34.0919 16.3731 34.0919C18.2764 34.0919 25.1717 34.0919 25.1717 34.0919V32.1751H18.4744V28.0699H29.377V37.9947C29.377 37.9947 19.921 37.9947 15.4544 37.9947C9.76287 37.9947 9.01843 33.5621 9.01843 29.8563C9.01843 25.0935 11.0564 22.016 16.2411 22.016Z" fill="white"/>
<path fill-rule="evenodd" clip-rule="evenodd" d="M50.9762 29.8563C50.9762 34.619 49.8833 37.9947 44.5403 37.9947C40.0763 37.9947 30.6204 37.9947 30.6204 37.9947V22.016H43.751C48.9409 22.016 50.9762 25.0935 50.9762 29.8563ZM46.4436 29.9228C46.4436 27.8276 46.2694 26.2835 43.817 26.2835H34.8204V34.0892C34.8204 34.0892 41.7156 34.0892 43.619 34.0892C46.4885 34.0892 46.4436 31.8396 46.4436 29.9228Z" fill="white"/>
</g>
<defs>
<clipPath id="clip0_168_585">
<rect width="42" height="16" fill="white" transform="translate(9 22)"/>
</clipPath>
</defs>
</svg>
