<svg width="60" height="60" viewBox="0 0 60 60" fill="none" xmlns="http://www.w3.org/2000/svg">
<rect width="60" height="60" fill="#1762BD"/>
<g clip-path="url(#clip0_1772_9464)">
<path d="M35.3362 48.4382C20.1528 52.6157 6.47159 39.352 10.8174 24.5217C12.5879 18.4121 17.5775 13.5557 23.9084 11.7802C39.0918 7.60269 52.773 20.8664 48.4272 35.6967C46.6567 41.8063 41.6671 46.6627 35.3362 48.4382ZM31.0441 13.399C20.421 12.5635 11.5685 21.1797 12.4269 31.4669C13.1244 39.6131 19.8845 46.1928 28.2005 46.8194C38.8235 47.6549 47.6224 39.0387 46.764 28.7515C46.1202 20.6053 39.3601 14.0257 31.0441 13.399Z" fill="white"/>
<path d="M37.398 35.2324C37.398 32.2037 35.7885 30.0627 33.857 26.7206C31.2817 22.282 29.6722 18 29.6722 18C29.6722 18 28.3845 21.812 25.541 26.6684C24.5753 28.3394 22 32.1514 22 35.1802C22 37.7911 24.2534 42.5431 29.6722 42.5431C35.091 42.5431 37.398 37.8433 37.398 35.2324Z" fill="#EB1B2E"/>
</g>
<defs>
<clipPath id="clip0_1772_9464">
<rect width="40" height="39" fill="white" transform="translate(10 11)"/>
</clipPath>
</defs>
</svg>
