<svg width="60" height="60" viewBox="0 0 60 60" fill="none" xmlns="http://www.w3.org/2000/svg">
<rect width="60" height="60" fill="#234291"/>
<g clip-path="url(#clip0_168_715)">
<mask id="mask0_168_715" style="mask-type:luminance" maskUnits="userSpaceOnUse" x="15" y="13" width="29" height="38">
<path d="M15.1241 13.1173H43.2204V51H15.1241V13.1173Z" fill="white"/>
</mask>
<g mask="url(#mask0_168_715)">
<path d="M28.4525 13.144H29.6116C30.7636 13.2405 31.9167 13.5631 32.8808 14.223C34.0381 14.9878 34.8615 16.2143 35.206 17.5591C35.6365 19.2336 35.4557 21.0342 34.8479 22.6401C34.65 23.2077 34.4445 23.7736 34.2437 24.3401C35.1789 24.0938 36.0935 23.6612 36.7602 22.9402C37.4817 22.2003 37.8486 21.2 38.0842 20.2097C39.7833 20.2008 41.4818 20.2079 43.1803 20.2055C42.3022 22.5507 41.655 25.0279 41.6997 27.5518C41.7156 30.4646 42.7728 33.2295 43.0608 36.1091C43.274 38.0571 43.2127 40.0608 42.6568 41.9502C42.1473 43.7159 41.2168 45.362 39.9447 46.6825C38.6696 48.0232 37.0765 49.036 35.3627 49.7043C33.1647 50.5661 30.7854 50.8929 28.4366 50.8443C25.6356 50.7857 22.7951 50.1453 20.3887 48.6607C18.3103 47.3952 16.5953 45.4679 15.7419 43.1624C14.8826 40.8735 14.9421 38.2324 15.9769 36.0115C16.779 34.2742 18.2196 32.8696 19.9264 32.0403C22.0336 31.0187 24.4418 30.7612 26.7493 31.0003C27.0715 30.1586 27.3877 29.314 27.7164 28.4746C25.774 27.6388 24.0066 26.2537 22.9901 24.359C21.4341 21.5143 21.7863 17.6633 24.0184 15.2772C25.1521 14.0212 26.7805 13.2701 28.4525 13.144ZM27.1787 19.1099C26.7923 19.9711 26.7493 21.0034 27.1669 21.8611C27.6192 22.8094 28.3365 23.6907 29.3071 24.1228C29.5044 23.67 29.6675 23.2018 29.8466 22.7419C30.1193 22.0079 30.4526 21.2828 30.5439 20.4968C30.6381 19.8445 30.5386 19.1247 30.114 18.6015C29.6723 18.0723 28.899 17.8639 28.2511 18.0823C27.7605 18.2392 27.3883 18.6494 27.1787 19.1099ZM32.4892 29.089C32.1076 30.1503 31.6935 31.2004 31.3231 32.267C32.4939 32.8205 33.706 33.3923 34.6259 34.3364C34.0481 35.8144 33.4716 37.2924 32.8714 38.7615C31.9633 37.8589 30.9049 37.0917 29.7105 36.6253C29.0627 38.3519 28.4284 40.0821 27.7912 41.8129C26.1274 41.817 24.4636 41.8152 22.7998 41.8141C23.5431 39.8146 24.2822 37.8127 25.0219 35.8109C23.3882 35.7611 21.748 36.594 20.8646 37.9879C20.4888 38.5704 20.2609 39.2742 20.3557 39.9732C20.4464 41.4506 21.2062 42.841 22.3387 43.7721C23.8859 45.0596 25.9154 45.5852 27.8819 45.7332C29.5074 45.845 31.1729 45.7479 32.7259 45.22C34.1247 44.7654 35.4186 43.9272 36.3279 42.7534C37.5182 41.2411 37.9835 39.2416 37.8474 37.3392C37.7149 35.8807 37.3657 34.4536 37.1018 33.0158C36.795 31.3969 36.54 29.7561 36.54 28.1029C35.2396 28.6084 33.8756 28.9416 32.4892 29.089Z" fill="white"/>
</g>
<path d="M40.6355 18.3469C43.2021 16.3865 44.5042 15.2926 45.3347 13.843C46.5031 11.8045 45.7952 10.0749 44.3146 9.39952C42.9265 8.76498 41.2786 9.36045 40.6355 10.7284C39.9917 9.36045 38.3439 8.76498 36.9557 9.39952C35.4751 10.0749 34.7672 11.8045 35.9363 13.843C36.7667 15.2926 38.0682 16.3865 40.6355 18.3469Z" fill="#E32123"/>
</g>
<defs>
<clipPath id="clip0_168_715">
<rect width="31" height="42" fill="white" transform="translate(15 9)"/>
</clipPath>
</defs>
</svg>
