<svg width="60" height="60" viewBox="0 0 60 60" fill="none" xmlns="http://www.w3.org/2000/svg">
<rect width="60" height="60" fill="black"/>
<g clip-path="url(#clip0_150_997)">
<path d="M14.6763 31.2346C14.5024 31.8215 14.2453 32.5972 12.9433 32.5972C11.7102 32.5972 10.8921 31.5294 10.8821 30.0275C10.8725 28.4343 11.6431 27.3972 12.9969 27.3972C14.1411 27.3972 14.4802 28.111 14.6027 28.8715H14.8838V27.435C14.5682 27.2494 13.7091 27 12.9791 27C11.1981 27 9.97765 28.2321 10.0003 30.0618C10.0238 31.8327 11.0974 32.9962 12.8636 32.9962C13.8634 32.9962 14.4126 32.7259 14.9339 32.4543C14.9379 32.4539 15.0625 30.9194 15.0625 30.9194H14.7679L14.6763 31.2346Z" fill="white"/>
<path d="M18.789 32.5972C17.5167 32.5972 16.7282 31.598 16.7282 29.9883C16.7282 28.3893 17.5167 27.3972 18.789 27.3972C20.1018 27.3972 20.8864 28.371 20.8864 30.0052C20.8864 31.6287 20.1018 32.5972 18.789 32.5972ZM21.7664 29.9073C21.7664 28.1132 20.6798 27 18.9293 27C17.0573 27 15.8451 28.1902 15.8451 30.0333C15.8451 31.887 16.9099 32.9953 18.6918 32.9953C20.5882 32.9953 21.7664 31.8108 21.7664 29.9073Z" fill="white"/>
<path d="M31.4408 27.3699L32.6582 27.5854L32.7938 31.3628L29.3983 27.125H27.6867V27.3672L28.6046 27.581L28.5693 32.411L27.7494 32.6127C27.518 32.545 27.151 32.4457 26.6628 31.8241C26.6628 31.8241 25.3927 30.2184 25.2332 30.0162C25.7366 29.8742 26.5499 29.4948 26.5499 28.5214C26.5499 27.8829 26.2113 27.125 24.5959 27.125H22.0748V27.3672L22.9906 27.581L22.99 32.4096L22.0751 32.6269V32.8705H24.5766V32.6291L23.7668 32.4114V27.5511C24.0082 27.5106 24.2471 27.4839 24.4088 27.4839C25.305 27.4839 25.7404 27.8263 25.7404 28.529C25.7404 29.6199 24.8795 29.7767 24.5269 29.8248C24.4071 29.8403 24.2658 29.8475 24.1399 29.8475V30.0893L24.4533 30.1912L25.7766 31.9465C26.2185 32.533 26.5398 32.8705 28.0379 32.8705H30.2503V32.6256L29.1485 32.407L29.0125 27.8731L33.0609 32.9912H33.1694L33.2374 27.5796L33.9792 27.3641V27.125H31.4407V27.3699" fill="white"/>
<path d="M37.1097 32.6277L36.1935 32.4108L36.1924 27.5813L37.1108 27.3676V27.1249H34.5021V27.3676L35.4161 27.5813V32.4108L34.5021 32.6277V32.8704L37.1099 32.8689V32.6275" fill="white"/>
<path d="M40.1989 32.6265L39.0962 32.4092L38.9602 27.8744L43.0077 32.9912H43.1149L43.1851 27.5801L43.9261 27.3641V27.125H41.3893L41.3884 27.3699L42.6036 27.5854L42.7401 31.3628L39.3477 27.125H37.6351V27.3672L38.5492 27.581L38.5152 32.411L37.6351 32.6269V32.8692H40.1989L40.1989 32.6265Z" fill="white"/>
<path d="M49.2761 30.6436L50 30.4294V30.1903L47.4258 30.1899V30.4326L48.5006 30.6477V32.1385C48.1227 32.4439 47.7026 32.6229 47.0475 32.6011C45.8741 32.5628 45.0459 31.5356 45.0459 30.0332C45.0468 28.3745 45.8087 27.4007 47.1948 27.4007C48.4139 27.4007 48.7543 28.2075 48.8755 28.8679H49.1348V27.4483C48.7713 27.2386 47.9841 27.0039 47.0767 27.0039C45.2952 27.0039 44.1559 28.2004 44.1655 30.0692C44.1729 31.8041 45.2835 32.9716 46.9973 32.9992C48.1733 33.0192 48.7896 32.6822 49.2743 32.3874C49.2717 32.3927 49.2761 30.6436 49.2761 30.6436Z" fill="white"/>
</g>
<defs>
<clipPath id="clip0_150_997">
<rect width="40" height="6" fill="white" transform="translate(10 27)"/>
</clipPath>
</defs>
</svg>
