<svg width="60" height="60" viewBox="0 0 60 60" fill="none" xmlns="http://www.w3.org/2000/svg">
<rect width="60" height="60" fill="black"/>
<g clip-path="url(#clip0_1772_9449)">
<path d="M10 31.0467C10 32.3982 10.8 32.7185 12.1404 32.7185H13.9324C15.6096 32.7185 16.3344 32.655 16.3344 31.329V30.0137H12.9924V30.97H14.8448V31.1041C14.8448 31.5498 14.4556 31.6075 14.0664 31.6075H12.476C11.7244 31.6075 11.53 31.4358 11.53 30.6451V30.0714C11.53 29.2808 11.7244 29.109 12.476 29.109H14.0932C14.57 29.109 14.8448 29.1664 14.8448 29.6254H16.308V29.4787C16.308 28.5802 16.0728 28 14.382 28H12.142C10.8 28 10 28.3188 10 29.6717V31.0467Z" fill="white"/>
<path d="M17.2158 28.0513V32.6653H22.6178V31.5562H18.7054V30.8168H22.329V29.8613H18.7054V29.1216H22.5302V28.0513H17.2158Z" fill="white"/>
<path d="M28.4818 28.0513V31.4039H28.4682L25.6706 28.0513H23.3618V32.6653H24.851V29.313H24.865L27.6638 32.6653H29.9714V28.0513H28.4818Z" fill="white"/>
<path d="M30.6099 28.0513V29.1975H32.7039V32.6653H34.1935V29.1975H36.2867V28.0513H30.6099Z" fill="white"/>
<path d="M36.9487 28.0513V32.6653H42.3503V31.5562H38.4383V30.8168H42.0615V29.8613H38.4383V29.1216H42.2627V28.0513H36.9487Z" fill="white"/>
<path d="M47.9063 28.0513L46.3967 29.6634L44.8871 28.0513H42.9611L45.1755 30.3514L42.7935 32.6653H44.7919L46.3967 30.989L48.0007 32.6653H49.9999L47.6179 30.3514L49.8315 28.0513H47.9063Z" fill="white"/>
</g>
<defs>
<clipPath id="clip0_1772_9449">
<rect width="40" height="5" fill="white" transform="translate(10 28)"/>
</clipPath>
</defs>
</svg>
