<svg width="60" height="60" viewBox="0 0 60 60" fill="none" xmlns="http://www.w3.org/2000/svg">
<rect width="60" height="60" fill="#001B71"/>
<g clip-path="url(#clip0_168_168)">
<path fill-rule="evenodd" clip-rule="evenodd" d="M30.0001 49.1778C19.3944 49.1778 10.8223 40.6056 10.8223 30C10.8223 19.3943 19.3944 10.8221 30.0001 10.8221C40.6058 10.8221 49.1779 19.3943 49.1779 30C49.1779 40.6056 40.6058 49.1778 30.0001 49.1778Z" fill="white"/>
<path fill-rule="evenodd" clip-rule="evenodd" d="M29.9999 42.3686C23.1597 42.3686 17.6313 36.8402 17.6313 30C17.6313 23.1598 23.1597 17.6315 29.9999 17.6315C36.8401 17.6315 42.3685 23.1598 42.3685 30C42.3685 36.8402 36.8401 42.3686 29.9999 42.3686Z" fill="#001B71"/>
<path fill-rule="evenodd" clip-rule="evenodd" d="M30 30.7371C29.5954 30.7371 29.2681 30.4098 29.2681 30.0052C29.2681 29.6005 29.5954 29.2732 30 29.2732C30.4047 29.2732 30.732 29.6005 30.732 30.0052C30.732 30.4098 30.4047 30.7371 30 30.7371Z" fill="#474442"/>
<path d="M30 17.3119C23.0155 17.3119 17.3325 22.9949 17.3325 29.9794C17.3325 36.9665 23.0155 42.6469 30 42.6469C36.9846 42.6469 42.6676 36.964 42.6676 29.9794C42.6676 22.9949 36.9846 17.3119 30 17.3119ZM38.6366 34.6341C38.8325 34.598 39.0155 34.6109 39.1495 34.549C39.433 34.415 39.4202 34.1289 39.8403 33.866C39.9614 33.7913 40.2294 33.7294 40.2217 33.5207C40.1959 32.8222 39.8995 32.6779 39.9021 32.3531C39.9073 32.0645 40.0877 31.6109 39.9459 31.3841C39.8763 31.2732 39.6882 31.3274 39.5593 31.2423C39.3119 31.0825 39.5387 30.8505 39.4485 30.5928C39.4201 30.5026 39.3686 30.4098 39.3067 30.3119H42.0104C41.9614 32.2758 41.4408 34.1186 40.5567 35.7397L38.6366 34.6341ZM32.0722 32.8402C32.0851 32.8196 32.1031 32.799 32.1315 32.7784C32.4253 32.5748 32.5619 33.0696 33.0387 33.5438C33.3299 33.8377 33.7165 33.3505 33.9537 33.5774C34.3196 33.9253 34.4176 34.2449 35.2372 34.5877C35.6186 34.7449 34.8042 35.3841 35.433 35.5722C35.7062 35.6521 36.1856 35.6392 36.3171 35.7732C36.4588 35.915 36.1598 36.1418 36.5825 36.2707C36.8506 36.3505 37.2732 36.348 37.5748 36.0516C37.8738 35.7578 37.647 35.4176 38.0232 34.9975L40.2449 36.281C39.2629 37.8763 37.9201 39.2268 36.3299 40.2165L32.0722 32.8402ZM30.3583 34.1856C30.5026 34.1109 30.5645 33.9923 30.6186 33.9485C30.982 33.6341 31.4614 33.781 31.7939 33.6031L35.7964 40.5335C34.1753 41.4304 32.3274 41.9588 30.3583 42.0181V34.1856ZM33.6598 23.0438C33.6186 23.0078 33.5645 22.982 33.4923 22.982C33.1573 22.982 33.2217 23.3789 33.0413 23.3789C32.9227 23.3789 32.9021 23.1779 32.5671 23.1779C32.4176 23.1779 32.1006 23.2062 31.9073 23.2913C31.6392 23.4098 31.75 23.8248 31.2011 23.9176C31.0052 23.9511 30.8686 23.9871 30.7243 23.8995C30.5104 23.7758 30.6057 23.3969 30.3557 23.2268C30.3403 23.2165 30.3248 23.2088 30.3093 23.2011V17.9923C32.2707 18.0438 34.116 18.5645 35.7372 19.4485L33.6598 23.0438ZM36.7836 24.2603C36.7217 24.0722 36.8506 23.8016 36.5516 23.6031C36.2526 23.3995 35.7088 23.3918 35.5387 23.9923C35.5078 24.1031 35.4047 24.2475 35.1109 24.1521C34.8016 24.0542 34.7191 24.0361 34.6238 23.7603C34.5284 23.482 34.5722 23.2191 34.2681 23.2346L36.2758 19.7578C37.8918 20.75 39.2552 22.1134 40.2475 23.7294L38.2552 24.8841C38.0516 24.7629 37.7578 24.6444 37.2681 24.5232C37.0696 24.4717 36.8454 24.4562 36.7836 24.2603ZM29.6057 31.0078L29.3866 31.3892L29.1057 31.2268L29.3274 30.8428C29.2655 30.7947 29.2097 30.7389 29.1598 30.6753L28.7758 30.8995L28.6134 30.6186L28.9949 30.3995C28.9665 30.3299 28.9485 30.2603 28.9356 30.1856H28.0542V29.8274H28.933C28.9468 29.7535 28.9657 29.6822 28.9897 29.6134L28.6134 29.3944L28.7758 29.1134L29.1547 29.3325C29.2062 29.2707 29.2604 29.214 29.3248 29.165L29.1057 28.7835L29.3866 28.6237L29.6031 29C29.6727 28.9717 29.7449 28.9536 29.8196 28.9408V28.0645H30.1779V28.9408C30.2526 28.9536 30.3248 28.9717 30.3944 29L30.6109 28.6237L30.8918 28.7835L30.6727 29.165C30.7346 29.214 30.7913 29.2707 30.8428 29.3325L31.2217 29.1134L31.3841 29.3944L31.0078 29.6134C31.0336 29.6822 31.0525 29.7535 31.0645 29.8274H31.9433V30.1856H31.0619C31.049 30.2603 31.031 30.3325 31.0026 30.3995L31.3841 30.6186L31.2217 30.8995L30.8377 30.6753C30.7887 30.7397 30.732 30.7938 30.6701 30.8428L30.8918 31.2268L30.6109 31.3892L30.3918 31.0078C30.3222 31.0335 30.2526 31.0516 30.1805 31.0645V31.9485H29.8222V31.0645C29.7449 31.0516 29.6753 31.031 29.6057 31.0078ZM21.9433 35.0129C21.9408 35.232 21.8712 35.4485 21.9769 35.6212C22.049 35.7397 22.1959 35.7346 22.5026 35.6753C22.9433 35.5902 23.1495 36.6057 23.8712 36.1392C24.1985 35.9304 24.2114 35.4717 24.5207 35.1727C24.9408 34.7655 25.4743 34.5851 25.8325 34.4691C26.4846 34.2629 26.8119 34.2552 27.1006 34.3737C27.1092 34.3789 27.1186 34.3832 27.1289 34.3866L23.7372 40.2603C22.1134 39.2681 20.7475 37.8995 19.75 36.281L21.9433 35.0129ZM20.1959 30.3145C20.214 30.4047 20.232 30.4975 20.2707 30.5799C20.3634 30.7732 20.6521 30.9176 20.5722 31.098C20.1444 32.049 20.7165 31.9794 20.7165 32.3222C20.7165 32.5902 20.2578 32.7011 20.8248 33.2165C21.2604 33.6134 20.9717 33.8944 21.6444 34.4691L19.4408 35.7397C18.5567 34.1186 18.0361 32.2758 17.9872 30.3145H20.1959ZM21.7449 25.5954C21.5026 25.9871 21.5954 26.4691 21.0593 27.1237C20.4253 27.8944 20.5026 28.5129 20.1805 28.4536C19.6315 28.3531 19.6366 28.6444 19.5748 29.0155C19.5284 29.2887 19.5181 29.5438 19.6186 29.6933H17.9872C18.0361 27.732 18.5567 25.8866 19.4408 24.2681L21.7449 25.5954ZM23.7243 19.7552L25.6727 23.0902C25.232 23.0284 25.1006 23.2397 24.9408 23.6933C24.8428 23.9717 24.9459 24.4176 24.5696 24.4098C23.9923 24.3995 23.7062 24.3248 23.3299 24.6573C23.1547 24.7887 22.9691 25.1315 22.7681 25.2475C22.6418 25.3222 22.4872 25.1005 22.2552 25.1727L19.7526 23.7268C20.7449 22.1109 22.1057 20.7475 23.7243 19.7552ZM27.1521 23.0799C26.8531 23.0181 26.6212 23.1031 26.4021 23.1547L24.2629 19.4459C25.8815 18.5593 27.7269 18.0413 29.6882 17.9897V23.2088C29.5155 23.2861 29.3583 23.3815 29.2088 23.3763C28.8531 23.3686 29.0671 22.9665 28.6933 22.9665C28.4743 22.9665 28.3815 23.281 28.1315 23.3454C27.7784 23.4304 27.5232 23.1521 27.1521 23.0799ZM27.6933 34.6469C27.9382 34.714 28.1315 34.5799 28.3944 33.8428C28.5439 33.433 29.3248 33.4871 29.482 33.7217C29.5954 33.8866 29.6727 34 29.7372 34.0799V42.0181C27.7629 41.9743 25.9073 41.4536 24.2758 40.567L27.6933 34.6469ZM38.8841 29.6908C38.8248 29.6005 38.7758 29.5129 38.7449 29.433C38.6805 29.2732 38.6109 28.9975 38.6933 28.75C38.799 28.4433 39.0877 27.9588 39.1856 27.6908C39.4047 27.0799 39.299 26.0722 38.7887 25.4201C38.7604 25.3866 38.7372 25.3583 38.714 25.3248L40.5567 24.2655C41.4408 25.8866 41.9614 27.7294 42.0104 29.6908H38.8841Z" fill="#AC1924"/>
<path d="M39.9021 32.3454C39.9021 32.0567 40.085 31.6005 39.9433 31.3763C39.8763 31.2655 39.6856 31.3196 39.5567 31.2345C39.3093 31.0747 39.5361 30.8402 39.4484 30.5876C39.3196 30.2165 38.8737 29.7629 38.7423 29.4278C38.6804 29.2655 38.6057 28.9897 38.6907 28.7423C38.7964 28.4356 39.085 27.951 39.183 27.683C39.4021 27.0722 39.299 26.0644 38.7861 25.4124C38.5103 25.0644 38.4278 24.8041 37.2655 24.5103C37.067 24.4613 36.8454 24.4484 36.7809 24.25C36.7191 24.0618 36.8479 23.7912 36.5515 23.5902C36.2526 23.3892 35.7062 23.3789 35.5361 23.9819C35.5026 24.0928 35.3995 24.2345 35.1057 24.1417C34.7964 24.0438 34.7139 24.0232 34.6186 23.7474C34.5232 23.4716 34.5051 23.25 34.3531 23.25C34.201 23.25 34.2165 23.5747 33.9613 23.5747C33.7629 23.5747 33.8531 22.9691 33.4897 22.9691C33.1546 22.9691 33.2165 23.3685 33.0361 23.3685C32.9149 23.3685 32.8995 23.1649 32.5618 23.1649C32.4124 23.1649 32.0954 23.1933 31.9021 23.2783C31.634 23.3969 31.7448 23.8118 31.1933 23.9072C31.0026 23.9381 30.8634 23.9716 30.7191 23.8892C30.5051 23.7629 30.5979 23.384 30.3479 23.2165C29.8943 22.9072 29.5232 23.3763 29.201 23.3685C28.8454 23.3557 29.0593 22.9562 28.683 22.9562C28.4639 22.9562 28.3711 23.2706 28.1211 23.335C27.7706 23.4227 27.5155 23.1469 27.1443 23.0696C26.6598 22.9716 26.3428 23.2655 25.9845 23.1546C25.2706 22.9381 25.1289 23.1366 24.933 23.6881C24.835 23.9639 24.9407 24.4124 24.5618 24.4046C23.9845 24.3917 23.6959 24.3196 23.3196 24.6495C23.1443 24.7835 22.9588 25.1263 22.7577 25.2423C22.6186 25.3247 22.4459 25.0438 22.1727 25.1933C21.3402 25.6521 21.7809 26.2242 21.049 27.116C20.4149 27.8866 20.4948 28.5051 20.1701 28.4484C19.6211 28.3479 19.6263 28.6366 19.5644 29.0077C19.4948 29.4304 19.5 29.8196 19.8789 29.8196C20.2371 29.8196 20.1108 30.2629 20.2603 30.5722C20.3531 30.7655 20.6417 30.9124 20.5618 31.0902C20.134 32.0387 20.7036 31.9716 20.7036 32.3144C20.7036 32.585 20.2448 32.6959 20.8118 33.2088C21.268 33.6237 20.933 33.9072 21.7191 34.5335C22.1469 34.8737 21.7835 35.3144 21.9639 35.6134C22.0361 35.7294 22.1856 35.7242 22.4923 35.6675C22.933 35.5799 23.1392 36.5979 23.8634 36.134C24.1907 35.9227 24.2036 35.4639 24.5155 35.1624C24.9356 34.7577 25.4665 34.5799 25.8273 34.4639C26.4768 34.2551 26.8067 34.2448 27.0928 34.366C27.7036 34.6211 27.9484 35.0644 28.3892 33.8376C28.5361 33.4278 29.317 33.4819 29.4768 33.7165C29.768 34.1443 29.8222 34.2397 30.0696 34.2397C30.4356 34.2397 30.5335 34.0051 30.6134 33.9381C31.0129 33.5928 31.5541 33.8118 31.8866 33.5309C32.3505 33.1417 31.8686 32.9433 32.1237 32.768C32.4175 32.5644 32.5567 33.0567 33.0309 33.5335C33.3247 33.8247 33.7088 33.3376 33.9484 33.567C34.317 33.9149 34.4124 34.2371 35.2345 34.5773C35.6185 34.7371 34.8015 35.3737 35.4304 35.5644C35.7036 35.6443 36.1804 35.6289 36.3144 35.7629C36.4562 35.9046 36.1546 36.1314 36.5773 36.2629C36.8479 36.3454 37.2706 36.3376 37.5722 36.0438C37.9227 35.6984 37.5438 35.2887 38.2706 34.768C38.5825 34.5438 38.9304 34.6392 39.1469 34.5386C39.4304 34.4098 39.4149 34.1211 39.8376 33.8582C39.9562 33.7835 40.2242 33.7216 40.2165 33.5129C40.1933 32.8118 39.8995 32.6701 39.9021 32.3454Z" fill="white"/>
<path d="M31.9434 30.1856V29.8273H31.0645C31.0508 29.7517 31.031 29.6804 31.0052 29.6134L31.3841 29.3943L31.2217 29.1134L30.8429 29.3325C30.7913 29.2706 30.7372 29.2139 30.6728 29.1624L30.8918 28.7835L30.6109 28.6212L30.3944 28.9974C30.3248 28.9717 30.2527 28.9511 30.1779 28.9407V28.0645H29.8197V28.9407C29.7449 28.9511 29.6702 28.9717 29.6032 28.9974L29.3867 28.6212L29.1057 28.7835L29.3248 29.1624C29.263 29.2139 29.2037 29.2706 29.1547 29.3325L28.7758 29.1134L28.6135 29.3943L28.9898 29.6134C28.964 29.6804 28.9451 29.7517 28.9331 29.8273H28.0542V30.1856H28.9356C28.9485 30.2603 28.9666 30.3325 28.9949 30.3995L28.6135 30.6186L28.7758 30.8995L29.1599 30.6753C29.2088 30.7371 29.2655 30.7938 29.3274 30.8428L29.1057 31.2268L29.3867 31.3892L29.6057 31.0052C29.6753 31.0309 29.7449 31.0516 29.8171 31.0645V31.9485H30.1753V31.0645C30.2501 31.0516 30.3197 31.0309 30.3867 31.0052L30.6083 31.3892L30.8893 31.2268L30.6676 30.8428C30.7295 30.7938 30.7862 30.7371 30.8351 30.6753L31.2191 30.8995L31.3815 30.6186L31.0001 30.3995C31.0258 30.3299 31.0465 30.2578 31.0594 30.1856H31.9434ZM30.0001 30.7371C29.6032 30.7371 29.2681 30.4021 29.2681 30.0052C29.2681 29.6083 29.6032 29.2732 30.0001 29.2732C30.397 29.2732 30.732 29.6083 30.732 30.0052C30.732 30.4021 30.397 30.7371 30.0001 30.7371Z" fill="#AC1924"/>
<path d="M30 10C19.1985 10 10 19.1985 10 30C10 40.8015 19.1985 50 30 50C40.8015 50 50 40.8015 50 30C50 19.1985 40.8015 10 30 10ZM30 48.4613C19.8041 48.4613 11.5387 40.1959 11.5387 30C11.5387 19.8041 19.8041 11.5387 30 11.5387C40.1959 11.5387 48.4613 19.8041 48.4613 30C48.4613 40.1959 40.1959 48.4613 30 48.4613Z" fill="#AC1924"/>
<path d="M35.9226 30.7293C35.8633 30.7886 35.5257 30.6958 35.3504 30.8479C35.3375 30.8608 35.3195 30.8737 35.3066 30.8891C35.2782 30.9201 35.2499 30.9587 35.2267 31C35.1803 31.0799 35.1159 31.1494 35.0514 31.2113C35.0102 31.25 34.9715 31.2912 34.9303 31.3273C34.8349 31.4046 34.7293 31.4458 34.6184 31.4355C34.5231 31.4304 34.4226 31.3891 34.3401 31.3015C34.1674 31.1082 34.1468 30.9819 34.0463 30.8376C33.9535 30.7113 33.8478 30.6443 33.7757 30.5902C33.6648 30.5077 33.6391 30.3479 33.7757 30.1391C33.9174 29.9278 34.1287 30.0438 34.3246 30.067C34.3375 30.067 34.353 30.067 34.3659 30.067C34.3942 30.0695 34.4226 30.0773 34.4483 30.0721C34.4535 30.0704 34.4595 30.0704 34.4664 30.0721C34.4689 30.0721 34.4715 30.0721 34.4741 30.0695C34.6958 30.0309 34.9715 30.0386 35.0927 30.0025C35.2138 29.9639 35.3375 29.8634 35.6468 30.1056C35.9561 30.3479 35.9921 30.6598 35.9226 30.7293Z" fill="#009ACA"/>
<path d="M26.3635 26.5154C26.3429 26.5386 26.1753 26.7268 26.1444 26.7371C26.1289 26.7526 26.1135 26.7654 26.0929 26.7732C26.0774 26.7783 25.9485 26.8428 25.9305 26.8479C25.8764 26.8685 25.8377 26.9149 25.8197 26.9665C25.8068 26.969 25.7965 27.067 25.7836 27.0747C25.7269 27.1598 25.6702 27.2422 25.5929 27.2964C25.5722 27.3093 25.4769 27.3428 25.4408 27.3453C25.4408 27.3453 25.3454 27.3685 25.2784 27.4201C25.232 27.4562 25.1547 27.4562 25.1212 27.4484C25.1058 27.4407 25.0387 27.4484 25.0284 27.4355C25.0198 27.4338 25.0121 27.4312 25.0052 27.4278C24.9898 27.4304 24.9485 27.3943 24.9356 27.384C24.9021 27.3634 24.8738 27.3299 24.848 27.3015C24.8326 27.2809 24.8068 27.2629 24.781 27.2551C24.7733 27.2526 24.7475 27.2397 24.7372 27.2422L24.6599 27.2165C24.5954 27.2062 24.5362 27.1752 24.4923 27.1314C24.4846 27.1263 24.4666 27.1031 24.4588 27.0979C24.3944 27.0361 24.3661 26.9458 24.3583 26.8505C24.3532 26.8196 24.348 26.6366 24.3557 26.6056C24.3532 26.5721 24.3712 26.4871 24.3815 26.4587C24.3944 26.4252 24.4099 26.3943 24.4331 26.3685C24.4692 26.3273 24.5155 26.2964 24.5645 26.2809C24.58 26.2757 24.6289 26.2654 24.647 26.2629L24.781 26.2422C24.781 26.2422 24.7819 26.2422 24.7836 26.2422C24.8661 26.2268 24.9279 26.1623 24.946 26.0824C24.9485 26.0773 24.9511 26.0464 24.9511 26.0386L24.964 25.8917C24.9692 25.8196 25.0052 25.7551 25.0645 25.7139C25.08 25.701 25.1006 25.6907 25.1212 25.6804C25.147 25.6675 25.2527 25.6366 25.2784 25.6366C25.3197 25.6263 25.4717 25.6185 25.5155 25.6185C25.5619 25.6185 25.6083 25.6237 25.6547 25.634C25.714 25.6211 25.7655 25.6417 25.8274 25.634L25.8326 25.6366C25.8403 25.6366 25.8738 25.6469 25.8815 25.6469C25.9511 25.6623 26.0104 25.7062 26.0645 25.75C26.0851 25.768 26.1702 25.8582 26.1882 25.8763C26.2192 25.9098 26.2552 25.9407 26.2913 25.969C26.3944 26.0438 26.4485 26.1727 26.4485 26.2861C26.4485 26.2878 26.4485 26.2895 26.4485 26.2912C26.4485 26.3144 26.4202 26.4123 26.4099 26.4355C26.3996 26.4639 26.3841 26.4897 26.3635 26.5154Z" fill="#009ACA"/>
<path d="M30.7783 26.4561C30.7087 26.6572 30.5463 27.0025 30.2448 27.1159C30.0438 27.1933 29.6829 27.1572 29.6804 26.8711C29.6804 26.6469 29.786 26.7345 29.7422 26.5773C29.719 26.5025 29.6804 26.3608 29.6597 26.1881C29.6494 26.1134 29.6417 26.0438 29.6417 25.9845C29.6391 25.8917 29.5824 25.8376 29.5463 25.853C29.5154 25.8634 29.4561 25.8118 29.4484 25.7268C29.4432 25.6804 29.3633 25.5799 29.3453 25.5463C29.335 25.5309 29.3324 25.5128 29.3298 25.4948C29.3195 25.3917 29.3247 25.2371 29.4587 25.1469C29.5566 24.9896 29.7036 24.8376 29.9484 24.8195C30.2757 24.7938 30.4278 24.8737 30.5128 24.9355C30.6005 24.9974 30.5721 25.152 30.6469 25.2293C30.7113 25.2938 30.6804 25.2963 30.7835 25.3402C30.8195 25.384 30.8376 25.5 30.8402 25.6391C30.8453 25.9149 30.8762 26.2268 30.7783 26.4561Z" fill="#009ACA"/>
<path d="M36.1882 25.9175C36.1753 26.0386 36.1547 26.1623 36.1083 26.2706C36.1032 26.5309 35.9795 26.7835 35.6212 26.866C35.5774 26.8763 35.5336 26.8995 35.4898 26.9278C35.4872 26.9484 35.4846 26.969 35.4795 26.9871C35.4279 27.1855 35.4408 27.335 35.031 27.3608C34.8248 27.3737 34.6212 27.3608 34.4202 27.317C34.3094 27.2938 34.2011 27.2654 34.1006 27.2165C33.9408 27.2036 33.7991 27.1907 33.7166 27.1804C33.4125 27.1469 33.2449 27.0206 33.1418 26.9175C32.5104 26.2783 33.1161 25.7758 33.3815 25.7706C33.6238 25.7654 33.7114 25.884 33.8583 26.0051C34.0156 26.1392 34.3996 26.1959 34.5542 26.0618C34.6393 25.9897 34.7424 25.8247 34.8197 25.7448C34.8996 25.6598 35.013 25.6031 35.1393 25.5799C35.2037 25.4948 35.2862 25.4278 35.415 25.3763C35.8686 25.2062 36.2424 25.4355 36.1882 25.9175Z" fill="#009ACA"/>
<path d="M46.3169 33.1753L46.3298 32.8995L45.8092 33.2294C45.7654 33.2552 45.7112 33.2423 45.6829 33.201C45.67 33.1804 45.6674 33.1521 45.6752 33.1289L45.9509 32.2629L45.621 32.3634L45.4999 31.7938L45.1417 32.2552L44.8891 32.0232L44.7679 32.9227C44.7654 32.9485 44.7499 32.9717 44.7267 32.9845C44.6829 33.0129 44.6288 33 44.603 32.9588L44.2731 32.4356L44.1674 32.6907L43.7241 32.4562L43.8891 32.982L43.6313 33.1418L44.2705 33.7345L43.7422 34.067L44.902 34.0232L44.7164 34.8454L44.8994 34.8815L45.0824 34.0619L46.1082 34.6005L45.7757 34.0722L46.6082 33.8119L46.4458 33.5567L46.8195 33.1546L46.3169 33.1753Z" fill="#A92337"/>
<path d="M44.9691 37.2242L45.0515 36.9614L44.4639 37.1444C44.4149 37.1572 44.366 37.134 44.3505 37.0851C44.3419 37.0593 44.3454 37.0344 44.3608 37.0103L44.8505 36.2449L44.5052 36.2603L44.5361 35.6779L44.0722 36.0309L43.8866 35.7423L43.5361 36.5799C43.5283 36.6057 43.5077 36.6212 43.482 36.6315C43.4588 36.6392 43.4356 36.6366 43.4149 36.6263C43.3943 36.6134 43.3789 36.5954 43.3711 36.5722L43.1856 35.9846L43.018 36.2036L42.6495 35.8608L42.6727 36.4098L42.3814 36.5026L42.8479 37.2371L42.25 37.4227L43.3814 37.6779L42.9923 38.4253L43.1546 38.5103L43.5464 37.7655L44.3995 38.5516L44.2113 37.9536L45.0851 37.9175L44.9948 37.6289L45.4613 37.3351L44.9691 37.2242Z" fill="#A92337"/>
<path d="M46.8068 29.2526L47.0645 28.7655L46.5825 28.915L46.5233 28.6469L46.1083 29.0979C46.0722 29.134 46.0155 29.1392 45.982 29.1031C45.9614 29.0851 45.9511 29.0619 45.9537 29.0361L45.9949 28.1263L45.7037 28.3119L45.4356 27.7938L45.214 28.3325L44.9073 28.1701L45.0233 29.0747C45.0258 29.1005 45.0181 29.1263 45.0001 29.1443C44.9846 29.1624 44.9614 29.1701 44.9382 29.1727C44.915 29.1727 44.8918 29.165 44.8764 29.1495L44.4227 28.7345L44.3867 29.0052L43.897 28.8969L44.1908 29.3608L43.9846 29.5825L44.7578 29.9897L44.3325 30.4485L45.4408 30.1031L45.4743 30.9433L45.6599 30.9356L45.6264 30.0954L46.7552 30.3479L46.299 29.9278L47.0361 29.4613L46.8068 29.2526Z" fill="#A92337"/>
<path d="M42.0799 22.4949L42.0129 22.7887L42.8866 22.7552L42.7448 23.366L43.5361 22.5129L43.9845 23.2243L44.1417 23.1238L43.6933 22.4124L44.7964 22.0696L44.1907 21.9279L44.5954 21.1573L44.299 21.0902L44.2783 20.5439L43.9356 20.9124L43.75 20.7062L43.616 21.3093C43.6031 21.3557 43.5567 21.3866 43.5103 21.3738C43.4845 21.3712 43.4613 21.3531 43.4484 21.3299L43.0309 20.5232L42.8711 20.8299L42.3814 20.5155L42.4562 21.0928L42.1108 21.1057L42.6624 21.8299C42.6778 21.8506 42.683 21.8789 42.6778 21.9047C42.6675 21.9511 42.6185 21.982 42.5696 21.9691L41.9665 21.8351L42.0722 22.0902L41.5928 22.2372L42.0799 22.4949Z" fill="#A92337"/>
<path d="M44.3815 23.9407L44.3016 24.5154L43.964 24.4407L44.3119 25.2835C44.3196 25.3067 44.3196 25.3324 44.3042 25.3582C44.2939 25.3788 44.2758 25.3943 44.2552 25.3994C44.232 25.4072 44.2062 25.4072 44.1856 25.3943L43.6392 25.1056L43.6753 25.3788L43.1753 25.402L43.5799 25.7757L43.4382 26.0412L44.2861 26.2345L43.9949 26.7886L44.9768 26.1675L45.2268 26.9716L45.4021 26.9201L45.1521 26.1159L46.3093 26.0695L45.7578 25.7783L46.348 25.1391L46.0799 24.9948L46.2011 24.4613L45.7784 24.7293L45.6495 24.4845L45.3634 25.0309C45.3402 25.0721 45.2861 25.0902 45.2423 25.067C45.2191 25.0541 45.2036 25.0335 45.1985 25.0077L45.0026 24.1185L44.7707 24.3711L44.3815 23.9407Z" fill="#A92337"/>
<path d="M13.683 33.1753L13.6701 32.8995L14.1907 33.2294C14.2345 33.2552 14.2887 33.2423 14.317 33.201C14.3299 33.1804 14.3325 33.1521 14.3247 33.1289L14.049 32.2629L14.3789 32.3634L14.5 31.7938L14.8557 32.2552L15.1108 32.0232L15.2294 32.9227C15.2345 32.9485 15.2474 32.9717 15.2706 32.9845C15.3144 33.0129 15.3711 33 15.3943 32.9588L15.7242 32.4356L15.8325 32.6907L16.2758 32.4562L16.1108 32.982L16.366 33.1418L15.7268 33.7345L16.2577 34.067L15.0979 34.0232L15.2809 34.8454L15.1005 34.8815L14.915 34.0619L13.8918 34.6005L14.2242 34.0722L13.3918 33.8119L13.5541 33.5567L13.1804 33.1546L13.683 33.1753Z" fill="#A92337"/>
<path d="M15.0308 37.2242L14.9484 36.9614L15.536 37.1444C15.585 37.1572 15.6339 37.134 15.6494 37.0851C15.658 37.0593 15.6546 37.0344 15.6391 37.0103L15.1494 36.2449L15.4948 36.2603L15.4638 35.6779L15.9277 36.0309L16.1133 35.7423L16.4638 36.5799C16.4716 36.6057 16.4922 36.6212 16.518 36.6315C16.5412 36.6392 16.5643 36.6366 16.585 36.6263C16.6056 36.6134 16.621 36.5954 16.6288 36.5722L16.8143 35.9846L16.9819 36.2036L17.3504 35.8608L17.3272 36.4098L17.6185 36.5026L17.152 37.2371L17.7499 37.4227L16.6159 37.6779L17.0051 38.4253L16.8427 38.5103L16.4509 37.7655L15.5979 38.5516L15.786 37.9536L14.9123 37.9175L15.0051 37.6289L14.5386 37.3351L15.0308 37.2242Z" fill="#A92337"/>
<path d="M13.1933 29.2526L12.9355 28.7655L13.4175 28.915L13.4768 28.6469L13.8917 29.0979C13.9278 29.134 13.9845 29.1392 14.018 29.1031C14.0386 29.0851 14.0489 29.0619 14.0464 29.0361L14.0051 28.1263L14.2964 28.3119L14.5644 27.7938L14.7861 28.3325L15.0928 28.1701L14.9768 29.0747C14.9742 29.1005 14.9819 29.1263 15 29.1443C15.0154 29.1624 15.0386 29.1701 15.0618 29.1727C15.085 29.1727 15.1082 29.165 15.1237 29.1495L15.5773 28.7345L15.6134 29.0052L16.1031 28.8969L15.8093 29.3608L16.0154 29.5825L15.2422 29.9897L15.6675 30.4485L14.5593 30.1031L14.5258 30.9433L14.3402 30.9356L14.3737 30.0954L13.2448 30.3479L13.701 29.9278L12.9639 29.4613L13.1933 29.2526Z" fill="#A92337"/>
<path d="M17.9201 22.4949L17.9871 22.7887L17.1134 22.7552L17.2552 23.366L16.4639 22.5129L16.0155 23.2243L15.8583 23.1238L16.3093 22.4124L15.2036 22.0696L15.8093 21.9279L15.4046 21.1573L15.701 21.0902L15.7217 20.5439L16.0644 20.9124L16.25 20.7062L16.384 21.3093C16.3969 21.3557 16.4433 21.3866 16.4897 21.3738C16.5155 21.3712 16.5387 21.3531 16.5516 21.3299L16.9691 20.5232L17.1289 20.8299L17.6186 20.5155L17.5438 21.0928L17.8892 21.1057L17.3376 21.8299C17.3222 21.8506 17.317 21.8789 17.3222 21.9047C17.3325 21.9511 17.3814 21.982 17.4304 21.9691L18.0335 21.8351L17.9278 22.0902L18.4072 22.2372L17.9201 22.4949Z" fill="#A92337"/>
<path d="M15.6186 23.9407L15.6959 24.5154L16.0335 24.4407L15.6882 25.2835C15.6779 25.3067 15.6804 25.3324 15.6933 25.3582C15.7036 25.3788 15.7217 25.3943 15.7449 25.3994C15.7655 25.4072 15.7913 25.4072 15.8119 25.3943L16.3609 25.1056L16.3248 25.3788L16.8248 25.3994L16.4201 25.7706L16.5619 26.0386L15.714 26.2293L16.0052 26.786L15.0232 26.1649L14.7732 26.969L14.598 26.9149L14.848 26.1134L13.6908 26.0644L14.2423 25.7757L13.6521 25.134L13.9201 24.9922L13.799 24.4561L14.2217 24.7268L14.348 24.4819L14.6341 25.0283C14.6598 25.0695 14.714 25.0876 14.7552 25.0644C14.7784 25.0515 14.7964 25.0309 14.799 25.0025L14.9949 24.1134L15.2294 24.3659L15.6186 23.9407Z" fill="#A92337"/>
<path d="M18.6418 19.3299C18.2165 18.8788 18.2139 18.2525 18.665 17.8273C18.8299 17.6726 19.0155 17.5773 19.1959 17.5489C19.4536 17.5103 19.7036 17.5927 19.9021 17.768L19.4614 18.1804C19.3402 18.0721 19.1418 18.0592 19 18.1958C18.7912 18.3917 18.8583 18.6623 19.0902 18.9097C19.3196 19.1546 19.6057 19.2216 19.799 19.0386C19.9536 18.8943 19.951 18.7061 19.8402 18.5567L20.2835 18.1391C20.4278 18.317 20.4897 18.536 20.482 18.7422C20.4691 18.9871 20.3608 19.1933 20.1418 19.3969C19.6804 19.8247 19.0644 19.7783 18.6418 19.3299Z" fill="#A92337"/>
<path d="M20.2346 16.5722L20.7372 16.2191L22.5516 17.4691L22.0259 17.8351L21.7707 17.647L21.1985 18.0464L21.2913 18.3531L20.7991 18.7011L20.2346 16.5722ZM21.0697 17.6289L21.4202 17.3841L21.08 17.1289C20.9949 17.0619 20.8635 16.9562 20.8635 16.9562L20.8583 16.9588C20.8583 16.9588 20.9176 17.1186 20.9485 17.2191L21.0697 17.6289Z" fill="#A92337"/>
<path d="M21.8401 15.5103L22.3813 15.2423L23.5025 15.9845L23.505 15.982L22.9922 14.9407L23.5153 14.683L24.4303 16.5335L23.871 16.8118L22.7653 16.0515L22.7576 16.0541L23.2782 17.1031L22.755 17.3608L21.8401 15.5103Z" fill="#A92337"/>
<path d="M24.683 14.2629L25.2707 14.0747L26.6263 15.8118L26.0155 16.0051L25.8274 15.7474L25.1598 15.9587L25.1547 16.2783L24.5825 16.4613L24.683 14.2629ZM25.1624 15.5232L25.5696 15.3943L25.3248 15.0464C25.2629 14.9587 25.1676 14.817 25.1676 14.817L25.1624 14.8196C25.1624 14.8196 25.1701 14.9897 25.1676 15.0953L25.1624 15.5232Z" fill="#A92337"/>
<path d="M26.5181 13.732L27.4614 13.5851C28.0516 13.4949 28.5181 13.8093 28.6186 14.4562C28.7165 15.1083 28.3866 15.5335 27.7526 15.6315L26.8377 15.7732L26.5181 13.732ZM27.6237 15.1469C27.8995 15.1031 28.0619 14.8969 28.0078 14.5516C27.9562 14.2165 27.7474 14.049 27.4614 14.0928L27.1907 14.134L27.3531 15.1882L27.6237 15.1469Z" fill="#A92337"/>
<path d="M29.4821 13.3969L30.098 13.3892L30.897 15.4407L30.2553 15.451L30.1496 15.1495L29.4511 15.1624L29.3532 15.4665L28.7527 15.4768L29.4821 13.3969ZM29.58 14.7397L30.0078 14.7345L29.8712 14.3299C29.8377 14.2319 29.7888 14.067 29.7888 14.067H29.781C29.781 14.067 29.7398 14.2319 29.7089 14.3325L29.58 14.7397Z" fill="#A92337"/>
<path d="M33.0593 15.5464H33.0515C32.8917 15.7088 32.6701 15.7526 32.4227 15.7088C32.1495 15.6624 31.933 15.5284 31.7964 15.3248C31.6417 15.0928 31.5979 14.8016 31.6521 14.4871C31.7551 13.884 32.2165 13.4897 32.8454 13.5979C33.3789 13.6907 33.6675 14.0232 33.6546 14.4897L33.0773 14.3918C33.0696 14.2552 32.9639 14.1263 32.7835 14.0928C32.4974 14.0438 32.3118 14.2577 32.2551 14.5928C32.1959 14.9253 32.3196 15.201 32.6057 15.25C32.8222 15.2887 32.9484 15.1882 33.0103 15.0593L32.7371 15.0129L32.8118 14.5902L33.6521 14.7371L33.4613 15.8402L33.0644 15.7732L33.0593 15.5464Z" fill="#A92337"/>
<path d="M33.9408 14.8995C34.1367 14.3144 34.665 14.0077 35.2759 14.2113C35.8815 14.415 36.1264 14.982 35.9279 15.5696C35.732 16.1546 35.196 16.4562 34.5903 16.2526C33.982 16.049 33.7424 15.4871 33.9408 14.8995ZM35.348 15.3711C35.4563 15.0516 35.397 14.7603 35.1238 14.6675C34.848 14.5773 34.6289 14.7732 34.5207 15.0928C34.4125 15.415 34.4717 15.701 34.7449 15.7938C35.0181 15.8866 35.2398 15.6933 35.348 15.3711Z" fill="#A92337"/>
<path d="M36.1546 15.6624C36.4381 15.1108 37.0103 14.8892 37.5799 15.183C38.1521 15.4768 38.3041 16.0722 38.0232 16.6211C37.7371 17.1727 37.1649 17.3918 36.5954 17.098C36.0232 16.8041 35.8737 16.2114 36.1546 15.6624ZM37.4768 16.3402C37.634 16.0413 37.6186 15.7449 37.3608 15.6134C37.1057 15.482 36.8557 15.6418 36.701 15.9433C36.5464 16.2423 36.5619 16.5361 36.8196 16.6701C37.0747 16.8016 37.3222 16.6418 37.4768 16.3402Z" fill="#A92337"/>
<path d="M37.9896 17.0386L38.4948 17.3969C38.4149 17.5438 38.4742 17.6804 38.6365 17.7964C38.7345 17.8634 38.8788 17.9098 38.9484 17.8093C39.0206 17.7062 38.9252 17.6005 38.7551 17.402C38.5231 17.1314 38.2499 16.7912 38.5025 16.433C38.7757 16.049 39.1958 16.1237 39.5773 16.3943C39.9252 16.6417 40.1417 17.0129 39.8891 17.3866L39.402 17.0412C39.4536 16.9407 39.4278 16.8325 39.2938 16.7371C39.1855 16.6624 39.0747 16.6572 39.0257 16.7242C38.9561 16.8247 39.0901 16.9407 39.2989 17.1804C39.536 17.4484 39.7396 17.7577 39.4845 18.1185C39.2242 18.4871 38.7577 18.4484 38.3608 18.1675C37.92 17.8582 37.7216 17.433 37.9896 17.0386Z" fill="#A92337"/>
<path d="M40.6958 17.2834L41.8736 18.3788L41.5386 18.7371L40.804 18.0541L40.6133 18.2577L41.2267 18.8324L40.92 19.1649L40.304 18.5901L40.0824 18.8298L40.8401 19.5309L40.4896 19.9123L39.2886 18.7963L40.6958 17.2834Z" fill="#A92337"/>
<path d="M18.9845 39.4562L19.3865 39.9227L18.3195 41.8505L17.902 41.366L18.0644 41.0902L17.6082 40.5618L17.3144 40.683L16.9226 40.2268L18.9845 39.4562ZM18.0128 40.3917L18.2937 40.7165L18.5128 40.3531C18.5695 40.2629 18.6649 40.1211 18.6649 40.1211L18.6623 40.116C18.6623 40.116 18.5102 40.1907 18.4097 40.2319L18.0128 40.3917Z" fill="#A92337"/>
<path d="M19.8867 40.5L20.6882 41.1392C21.0181 41.3995 21.1805 41.7758 20.915 42.1057C20.7681 42.2912 20.5697 42.3454 20.3377 42.2861L20.3325 42.2938C20.4253 42.4485 20.4202 42.5928 20.348 42.7397C20.2372 42.9691 20.0155 43.1727 20.0593 43.2345L20.0413 43.2603L19.5774 42.8892C19.5568 42.8222 19.732 42.6392 19.8119 42.4665C19.8815 42.3196 19.8789 42.2113 19.7398 42.1031L19.5207 41.9278L19.0722 42.4923L18.6006 42.116L19.8867 40.5ZM19.7887 41.5928L20.0439 41.7938C20.1805 41.9021 20.3016 41.9021 20.3918 41.7912C20.4743 41.683 20.4614 41.5619 20.3248 41.4536L20.0645 41.2474L19.7887 41.5928Z" fill="#A92337"/>
<path d="M20.8377 42.7242C21.1212 42.1752 21.7089 41.9639 22.2604 42.2474C22.4614 42.3505 22.6135 42.4948 22.7011 42.6572C22.8223 42.8866 22.8274 43.1494 22.7295 43.3943L22.1934 43.1159C22.2553 42.9639 22.2011 42.7731 22.0259 42.6829C21.7707 42.5541 21.5362 42.7036 21.3815 43.0051C21.2243 43.3041 21.2578 43.5953 21.4975 43.7164C21.6831 43.8144 21.8609 43.75 21.964 43.5927L22.5053 43.8737C22.3841 44.067 22.2011 44.201 22.0027 44.2577C21.7681 44.3273 21.5388 44.2938 21.2707 44.1546C20.714 43.8711 20.5542 43.2731 20.8377 42.7242Z" fill="#A92337"/>
<path d="M23.2552 42.8995L24.8789 43.6289L24.6676 44.098L24.1289 43.8557L23.4949 45.2707L22.9434 45.0232L23.5774 43.6083L23.0465 43.3686L23.2552 42.8995Z" fill="#A92337"/>
<path d="M25.196 43.7191L24.5723 45.6882L25.147 45.8712L25.7707 43.9021L25.196 43.7191Z" fill="#A92337"/>
<path d="M25.7991 45.0283C25.9253 44.4227 26.4357 44.0593 27.0439 44.1881C27.2655 44.2345 27.4511 44.3325 27.5774 44.4665C27.7552 44.6546 27.8274 44.9072 27.7991 45.1701L27.2088 45.0438C27.2295 44.884 27.1264 44.7139 26.9331 44.6727C26.6547 44.6134 26.4666 44.8221 26.397 45.1546C26.3274 45.4845 26.4357 45.7551 26.6985 45.8118C26.9047 45.8556 27.0594 45.7448 27.1161 45.5696L27.714 45.6933C27.6496 45.9149 27.5052 46.0902 27.3326 46.1984C27.1238 46.3299 26.8944 46.3582 26.6006 46.2964C25.9846 46.1649 25.6702 45.6314 25.7991 45.0283Z" fill="#A92337"/>
<path d="M28.7113 44.4949L29.6623 44.5232C29.9226 44.531 30.1133 44.6057 30.2448 44.732C30.3891 44.866 30.4664 45.0567 30.4613 45.2861C30.4484 45.683 30.1443 45.9768 29.7293 45.9639L29.2705 45.9485L29.2525 46.5799L28.6494 46.5593L28.7113 44.4949ZM29.286 45.482L29.6133 45.4923C29.7602 45.4949 29.8556 45.3995 29.8608 45.2603C29.8659 45.1212 29.7783 45.0284 29.6211 45.0232L29.3015 45.0129L29.286 45.482Z" fill="#A92337"/>
<path d="M30.6211 44.5387L31.6417 44.4356C32.0618 44.3943 32.4381 44.5515 32.4819 44.9691C32.5051 45.2062 32.402 45.384 32.1958 45.5051V45.5129C32.3711 45.5593 32.469 45.6649 32.518 45.8222C32.5979 46.0644 32.5824 46.366 32.6598 46.3789L32.6623 46.4098L32.0721 46.4691C32.0103 46.4356 32.0077 46.1804 31.9458 46C31.8917 45.8454 31.817 45.7706 31.6391 45.7912L31.3608 45.8196L31.4329 46.5361L30.8324 46.5954L30.6211 44.5387ZM31.3144 45.3892L31.6366 45.3557C31.8092 45.3376 31.8969 45.2551 31.8814 45.1108C31.8685 44.9742 31.7732 44.8969 31.6005 44.9149L31.2706 44.9484L31.3144 45.3892Z" fill="#A92337"/>
<path d="M32.763 45.3583C32.6109 44.7578 32.8918 44.214 33.5155 44.0593C34.1367 43.9021 34.647 44.25 34.7965 44.8506C34.9485 45.4485 34.6599 45.9923 34.0387 46.1469C33.415 46.3042 32.9125 45.9588 32.763 45.3583ZM34.2037 44.9975C34.1212 44.6701 33.915 44.4562 33.6341 44.5258C33.3532 44.598 33.2759 44.8815 33.3557 45.2114C33.4382 45.5387 33.6418 45.75 33.9228 45.6805C34.2037 45.6109 34.2862 45.3274 34.2037 44.9975Z" fill="#A92337"/>
<path d="M36.8093 44.9021L36.8042 44.9073C36.7578 45.1289 36.5928 45.2861 36.3609 45.3815C36.1057 45.4897 35.8506 45.4923 35.6263 45.3918C35.3738 45.2784 35.1779 45.0593 35.0542 44.7629C34.8196 44.2011 34.9949 43.6212 35.5851 43.3738C36.0825 43.165 36.5052 43.2913 36.7449 43.6882L36.2062 43.915C36.1263 43.8042 35.9691 43.7501 35.799 43.8222C35.531 43.933 35.4897 44.214 35.6212 44.5258C35.75 44.8403 36.0026 45.0052 36.2707 44.8944C36.4743 44.8093 36.5258 44.6573 36.5078 44.5155L36.2552 44.6212L36.0877 44.2269L36.8738 43.897L37.3067 44.9305L36.9382 45.0877L36.8093 44.9021Z" fill="#A92337"/>
<path d="M36.7217 42.9073L37.6005 42.3763C37.9639 42.1598 38.3712 42.1418 38.5877 42.5026C38.7088 42.7062 38.6933 42.9124 38.5567 43.1083L38.5619 43.116C38.7371 43.0851 38.8712 43.1367 38.9846 43.2578C39.1598 43.4434 39.2758 43.7217 39.3505 43.6985L39.366 43.7269L38.8583 44.0336C38.7861 44.0284 38.6753 43.799 38.5438 43.6624C38.4279 43.5464 38.3273 43.5129 38.1753 43.6057L37.9356 43.7501L38.3093 44.366L37.7913 44.6753L36.7217 42.9073ZM37.7114 43.3815L37.9897 43.214C38.1392 43.1263 38.1804 43.0104 38.1057 42.8867C38.0361 42.7707 37.9176 42.7423 37.7681 42.83L37.4846 43.0026L37.7114 43.3815Z" fill="#A92337"/>
<path d="M38.9021 41.4768L39.3815 41.0876L41.2784 42.2088L40.781 42.6134L40.5103 42.4407L39.9691 42.8815L40.0799 43.183L39.6134 43.5619L38.9021 41.4768ZM39.8119 42.4742L40.1418 42.2036L39.7861 41.9717C39.6985 41.9124 39.5593 41.8145 39.5593 41.8145L39.5542 41.817C39.5542 41.817 39.6237 41.9742 39.6624 42.0748L39.8119 42.4742Z" fill="#A92337"/>
<path d="M39.9485 40.6366L40.482 40.0567L41.5464 40.6031L41.5516 40.5979L40.9124 39.5851L41.4485 39L42.9691 40.3943L42.6005 40.7964L41.6469 39.9253L41.6418 39.9278L42.366 41.0541L42.067 41.3814L40.8815 40.7603L40.8789 40.7655L41.8325 41.6392L41.4743 42.0309L39.9485 40.6366Z" fill="#A92337"/>
</g>
<defs>
<clipPath id="clip0_168_168">
<rect width="40" height="40" fill="white" transform="translate(10 10)"/>
</clipPath>
</defs>
</svg>
