<svg width="60" height="60" viewBox="0 0 60 60" fill="none" xmlns="http://www.w3.org/2000/svg">
<rect width="60" height="60" fill="#1C3A8E"/>
<g clip-path="url(#clip0_150_1057)">
<path d="M14.6097 21.3718L13.6582 23.1996H15.4485L15.4626 37.9003H13.6582L14.7014 39.7352H45.2635L46.2855 37.9003H44.4811L44.4952 23.1996H46.2855L45.2776 21.3718H14.6097Z" fill="white"/>
<path d="M44.481 37.9003H46.2854L49.2247 32.7383C50.0634 31.2461 50.2326 29.9966 49.3163 28.433L46.2784 23.2067H44.4881C44.481 23.1996 44.481 37.9003 44.481 37.9003ZM45.2634 39.7352L42.1269 45.2471C41.4713 46.2895 40.2661 46.9535 39.0467 46.982H20.904C19.7621 46.982 18.5427 46.3823 17.8872 45.3827L14.7013 39.7281H45.2634V39.7352ZM45.2775 21.3718L41.9859 15.6457C41.3304 14.6033 40.2097 14.0107 39.0255 14.0107H20.8476C19.5436 14.0107 18.437 14.6533 17.704 15.9385L14.6026 21.3647H45.2775V21.3718ZM15.4625 37.9003H13.6581L10.7189 32.7383C9.87312 31.2461 9.70395 29.9895 10.6203 28.4259L13.6581 23.1996H15.4484C15.4625 23.1996 15.4625 37.9003 15.4625 37.9003Z" fill="#FFCA38" stroke="#FFCA38" stroke-width="0.097063" stroke-miterlimit="3.8637"/>
<path fill-rule="evenodd" clip-rule="evenodd" d="M33.8097 26.1054C33.8097 23.9492 32.4071 23.221 29.6441 23.221H26.8599V38.0002H29.5172V32.3313H30.6238C32.682 32.3313 33.8097 31.3317 33.8097 29.2969V26.1054ZM29.5172 24.9845H29.9965C30.8987 24.9845 31.1525 25.3772 31.1525 26.3981V29.9037C31.1525 30.5677 30.2996 30.5677 29.5243 30.5677V24.9845H29.5172ZM41.7886 28.6186V25.42C41.7886 23.4923 39.956 22.9282 38.2996 22.9282C36.6714 22.9282 34.8388 23.4923 34.8388 25.42V35.8012C34.8388 37.7289 36.6714 38.2929 38.2996 38.2929C39.956 38.2929 41.7886 37.7289 41.7886 35.8012V32.4169H39.1313V35.6155C39.1313 36.3652 38.8564 36.5294 38.3278 36.5294C37.778 36.5294 37.5031 36.3652 37.5031 35.6155V25.6056C37.5031 24.856 37.778 24.6917 38.3278 24.6917C38.8564 24.6917 39.1313 24.856 39.1313 25.6056V28.6186H41.7886ZM25.5207 30.632H21.8132V32.3955H22.8635L22.8705 35.6155C22.8705 36.3652 22.5956 36.5294 22.067 36.5294C21.5172 36.5294 21.2423 36.3652 21.2423 35.6155V25.6056C21.2423 24.856 21.5172 24.6917 22.067 24.6917C22.5956 24.6917 22.8705 24.856 22.8705 25.6056V28.6186H25.5278V25.42C25.5278 23.4923 23.6952 22.9282 22.0388 22.9282C20.4106 22.9282 18.578 23.4923 18.578 25.42V35.8012C18.578 37.7289 20.4106 38.2929 22.0388 38.2929C23.6952 38.2929 25.5278 37.7289 25.5278 35.8012L25.5207 30.632Z" fill="#1C3A8E"/>
</g>
<defs>
<clipPath id="clip0_150_1057">
<rect width="40" height="33" fill="white" transform="translate(10 14)"/>
</clipPath>
</defs>
</svg>
