<svg width="60" height="60" viewBox="0 0 60 60" fill="none" xmlns="http://www.w3.org/2000/svg">
<rect width="60" height="60" fill="#0072CE"/>
<path d="M13.1115 28.9175H10.7815V25.0005H9V33.576H10.7815V29.691H13.1115V33.576H14.8885V25.001H13.1115V28.9175ZM36.3275 25.775H38.2775V33.576H40.0595V25.769H42.01V25H36.3275V25.775ZM44.798 25.775H46.748V33.576H48.53V25.769H50.4805V25H44.798V25.775ZM29.107 30.5655L30.053 27.785L30.943 30.5655H29.107ZM31.907 33.5765H33.7535L31.0085 25.0015L29.875 25.0005L26.956 33.5765H28.082L28.8465 31.33H31.188L31.907 33.5765ZM24.0785 25.0005L22.093 28.6755L20.0845 25.0005H18.158L20.684 29.597V33.576H22.4805V29.657L24.9915 25.0005H24.0785Z" fill="white"/>
</svg>
