<svg width="60" height="60" viewBox="0 0 60 60" fill="none" xmlns="http://www.w3.org/2000/svg">
<rect width="60" height="60" fill="#131313"/>
<g clip-path="url(#clip0_150_992)">
<path opacity="0.9" d="M43.1404 35.9955C43.1404 35.3573 43.5156 34.9346 44.2553 34.9346C45.1211 34.9346 45.3703 35.2482 45.672 36.5491C45.7769 36.9937 46.0366 37.2637 46.7134 37.2637C47.6316 37.2637 48.13 36.7428 48.13 35.9737C48.13 35.3028 47.4742 34.7628 46.194 33.9173C44.7879 33.0173 44.0166 32.1637 44.0166 30.9064C44.0166 28.9564 46.0996 27.7864 48.0067 27.7864C50.15 27.7864 50.9738 28.7409 50.9738 29.6382C50.9738 30.2355 50.5986 30.56 49.9533 30.56C49.14 30.56 48.8908 30.2246 48.6206 29.2155C48.4947 28.7082 48.2455 28.5009 47.7549 28.5009C46.9863 28.5009 46.4642 28.9128 46.4642 29.66C46.4642 30.3746 47.141 30.8191 48.6311 31.7928C50.0372 32.6491 50.6616 33.5928 50.6616 34.6973C50.6616 36.5164 48.7754 37.9891 46.4222 37.9891C44.0796 37.9564 43.1404 36.9609 43.1404 35.9955ZM9.97852 27.5709C9.97852 27.1482 9.97852 25.8364 9.93654 25.5773C9.87358 25.22 9.78177 25.1982 9.23873 25.0564C9.05247 25.0155 9.0105 24.8737 9.0105 24.7209C9.0105 24.5273 9.03149 24.5055 9.60338 24.3855C10.7288 24.1155 11.6758 23.7146 12.594 23.1609C12.7803 23.0219 12.8222 23.0219 12.8642 23.0219C13.019 23.0219 13.019 23.2046 13.019 23.4446V25.5446L12.998 28.9673C12.998 29.1828 12.998 29.2919 13.0924 29.2919C13.1134 29.2919 13.1554 29.2919 13.4046 29.0546C14.2913 28.2746 15.2908 27.8082 16.4477 27.8082C17.3108 27.8082 18.1031 28.0891 18.6959 28.7519C19.218 29.3137 19.2914 30.1482 19.2914 31.0673V36.4073C19.2914 36.8846 19.3833 37.0673 19.9683 37.2309C19.9683 37.2309 20.1231 37.3073 20.4667 37.3073C20.8104 37.3073 20.9468 37.2528 20.9468 37.2528C21.5816 37.0591 21.5816 36.8082 21.5816 35.7691L21.5607 33.17C21.5607 32.7473 21.5397 30.6473 21.4977 30.3855C21.4347 30.0282 21.3429 30.0064 20.7999 29.8673C20.6136 29.8237 20.5716 29.6819 20.5716 29.5319C20.5716 29.3355 20.5926 29.3137 21.1645 29.1937C22.2795 28.9346 23.2265 28.5337 24.1447 27.9719C24.3309 27.83 24.3729 27.83 24.4149 27.83C24.5696 27.83 24.5696 28.0155 24.5696 28.2528V35.93C24.5696 36.8737 24.6431 37.0482 25.2989 37.2309C25.2989 37.2309 25.5088 37.3073 25.8944 37.3073C26.2696 37.3073 26.4768 37.2309 26.4768 37.2309C27.2481 37.0373 27.2481 36.7537 27.2481 35.7909C27.2481 34.1109 27.2481 31.9455 27.1851 30.7428C27.1642 30.0173 27.1432 30.0064 26.2276 29.8455C25.9968 29.8019 25.9758 29.6819 25.9758 29.5209C25.9758 29.2809 26.0702 29.2591 26.4139 29.1937C27.2271 29.0109 28.4758 28.6755 29.5698 28.0155C29.9134 27.7973 29.9554 27.7973 30.0079 27.7973C30.1443 27.7973 30.1443 27.9609 30.1443 28.0782V28.9346C30.1443 29.1309 30.1443 29.2155 30.2361 29.2155C30.2991 29.2155 30.3305 29.2155 30.467 29.0764C31.414 28.1982 32.2377 27.7755 33.3002 27.7755C34.2577 27.7755 35.029 28.1 35.5904 28.8909C35.8816 29.2919 35.9026 29.3137 35.976 29.3137C36.018 29.3137 36.0495 29.3137 36.4036 28.9782C36.9965 28.3946 37.996 27.7537 39.3077 27.7537C39.4861 27.7537 41.1729 27.7755 41.8497 29.0109C42.0989 29.4664 42.2354 29.7146 42.2354 32.3682V36.3528C42.2354 36.6882 42.2354 37.0155 42.8492 37.1764C43.0801 37.2419 43.2139 37.2746 43.2139 37.5555C43.2139 37.7409 43.1719 37.8582 42.9017 37.88H42.3298H40.2154H38.6413C38.4551 37.88 38.2164 37.8364 38.2164 37.5009C38.2164 37.3073 38.3292 37.2637 38.539 37.1982C38.9247 37.0782 39.1739 37.0155 39.1739 36.0391V34.1C39.1739 33.5382 39.1739 31.0046 39.1319 30.6582C39.1109 30.32 39.0165 29.1419 37.7258 29.1419C37.3402 29.1419 36.2042 29.4446 36.2042 30.56V36.3009C36.2042 36.8846 36.2987 37.0264 36.9126 37.1764C37.1224 37.2419 37.2562 37.2746 37.2562 37.5009C37.2562 37.8364 37.0805 37.88 36.5689 37.88H34.8926H32.6942C32.424 37.88 32.2167 37.8582 32.2167 37.5446C32.2167 37.3509 32.2876 37.3073 32.4869 37.2419C33.1848 37.0264 33.1848 36.7428 33.1848 35.8455C33.1848 34.9019 33.1848 31.0046 33.0903 30.3637C32.9565 29.54 32.2771 29.2809 31.7681 29.2809C31.1123 29.2809 30.4775 29.7582 30.2886 30.2682C30.2256 30.4291 30.2256 32.5509 30.2256 32.8891C30.2256 33.4837 30.2256 36.0719 30.2676 36.4728C30.3096 37.0155 30.7267 37.1328 31.1333 37.2309C31.3196 37.2964 31.4245 37.3073 31.4245 37.5555C31.4245 37.88 31.1753 37.8909 30.9024 37.8909H28.6962H26.7575H24.9448H23.237H21.0412H20.0181H19.4672H17.7174H16.0201H15.4771C15.3223 37.8691 15.2698 37.7082 15.2698 37.5664C15.2698 37.3728 15.3643 37.3073 15.54 37.2637C15.8312 37.1873 16.0201 37.1219 16.1041 36.9064C16.1959 36.6255 16.1959 36.0828 16.2169 35.66C16.2379 33.6991 16.2379 33.6582 16.2379 31.4573C16.2379 30.6037 16.2379 29.2155 14.7898 29.2155C14.1339 29.2155 13.6565 29.6164 13.4991 29.78C13.1344 30.1373 12.998 30.2791 12.998 31.0264V36.3419C12.998 36.8409 13.061 37.0482 13.7063 37.22C13.8847 37.2637 14.071 37.2964 14.071 37.5009C14.071 37.8582 13.8217 37.88 13.4781 37.88H11.8857H9.51943C9.17577 37.88 9.02099 37.88 9.02099 37.5555C9.02099 37.3619 9.1338 37.3182 9.34366 37.2528C9.97852 37.0155 9.97852 36.7537 9.97852 35.7691V33.3419V29.0437V27.5709ZM24.6851 25.4164C24.6851 26.4446 23.8928 27.1809 23.0297 27.1809C22.2795 27.1809 21.4347 26.6055 21.4347 25.5009C21.4347 24.6037 22.143 23.7582 23.0927 23.7582C24.0082 23.7582 24.6851 24.5382 24.6851 25.4164Z" fill="white"/>
</g>
<defs>
<clipPath id="clip0_150_992">
<rect width="42" height="15" fill="white" transform="translate(9 23)"/>
</clipPath>
</defs>
</svg>
