<svg width="60" height="60" viewBox="0 0 60 60" fill="none" xmlns="http://www.w3.org/2000/svg">
<rect width="60" height="60" fill="#0096D6"/>
<g clip-path="url(#clip0_150_828)">
<path d="M50.958 30C50.958 18.4248 41.5752 9.04201 30 9.04201C29.6844 9.04201 29.3704 9.04998 29.058 9.06432L24.7711 20.8468H28.5049C30.726 20.8468 31.9231 22.5571 31.1628 24.6459L25.8749 39.1779L21.4349 39.1772L27.1094 23.6011H23.7709L18.0964 39.1772H13.6549L20.3271 20.8468L24.3415 9.81587C15.5158 12.2849 9.04199 20.3861 9.04199 30C9.04199 39.8992 15.9063 48.1949 25.1345 50.389L29.0237 39.7008H29.0269L35.888 20.8468H44.0658C46.2893 20.8468 47.4856 22.5571 46.7253 24.6459L42.0789 37.4095C41.7251 38.3818 40.5894 39.1772 39.5549 39.1772H33.6605L29.3776 50.9484C29.584 50.954 29.792 50.958 30 50.958C41.5752 50.958 50.958 41.5744 50.958 30Z" fill="white"/>
<path d="M42.6814 23.59H39.3445L34.671 36.4125H38.0079L42.6814 23.59Z" fill="white"/>
</g>
<defs>
<clipPath id="clip0_150_828">
<rect width="42" height="42" fill="white" transform="translate(9 9)"/>
</clipPath>
</defs>
</svg>
