<svg width="60" height="60" viewBox="0 0 60 60" fill="none" xmlns="http://www.w3.org/2000/svg">
<rect width="60" height="60" fill="#FF7A59"/>
<path d="M40.4418 24.2107V19.5524C41.047 19.2647 41.5594 18.8081 41.9194 18.2357C42.2795 17.6633 42.4722 16.9987 42.4753 16.3192V16.2122C42.4753 14.2311 40.8962 12.625 38.9484 12.625H38.8432C37.9078 12.625 37.0108 13.003 36.3493 13.6757C35.6879 14.3484 35.3164 15.2608 35.3164 16.2122V16.3192C35.3194 16.9987 35.5122 17.6633 35.8722 18.2357C36.2322 18.8081 36.7447 19.2647 37.3499 19.5524V24.2107C35.6104 24.4816 33.9722 25.2151 32.6011 26.3371L20.0401 16.3865C20.1297 16.0577 20.1765 15.7196 20.1817 15.3801C20.1832 14.5807 19.9516 13.7987 19.5161 13.1332C19.0807 12.4676 18.4609 11.9484 17.7353 11.6411C17.0097 11.3339 16.2107 11.2524 15.4396 11.407C14.6684 11.5616 13.9596 11.9454 13.4029 12.5098C12.8462 13.0741 12.4666 13.7937 12.3121 14.5776C12.1575 15.3614 12.235 16.1743 12.5347 16.9133C12.8345 17.6524 13.3429 18.2844 13.9959 18.7295C14.6488 19.1745 15.4169 19.4127 16.2029 19.4137C16.8905 19.4104 17.5653 19.2237 18.1598 18.8722L30.5286 28.6616C29.4174 30.3689 28.8378 32.3771 28.8651 34.4243C28.8924 36.4716 29.5255 38.463 30.6818 40.139L26.9199 43.9665C26.6158 43.8676 26.299 43.8151 25.9797 43.8107C25.3345 43.8112 24.704 44.0062 24.1677 44.3712C23.6315 44.7361 23.2136 45.2544 22.9669 45.8608C22.7203 46.4672 22.6559 47.1343 22.7819 47.7779C22.9079 48.4215 23.2186 49.0127 23.6748 49.4767C24.1311 49.9407 24.7123 50.2567 25.345 50.3849C25.9778 50.5131 26.6337 50.4475 27.2299 50.1967C27.8261 49.9458 28.3358 49.5208 28.6946 48.9754C29.0533 48.43 29.2451 47.7886 29.2456 47.1324C29.2414 46.8077 29.1898 46.4854 29.0924 46.1762L32.814 42.3896C34.0276 43.3398 35.439 43.995 36.94 44.3048C38.441 44.6146 39.9918 44.5709 41.4736 44.1769C42.9555 43.783 44.329 43.0493 45.4889 42.032C46.6489 41.0148 47.5645 39.741 48.1657 38.3082C48.7669 36.8755 49.0376 35.3218 48.9572 33.7661C48.8768 32.2105 48.4474 30.6942 47.7019 29.3334C46.9563 27.9727 45.9144 26.8035 44.656 25.9156C43.3976 25.0277 41.956 24.4445 40.4418 24.2107ZM38.8991 39.5314C38.2113 39.5507 37.5266 39.4295 36.8857 39.1751C36.2447 38.9207 35.6603 38.5382 35.1671 38.0502C34.674 37.5622 34.2819 36.9786 34.0143 36.3339C33.7466 35.6892 33.6087 34.9965 33.6087 34.2966C33.6087 33.5968 33.7466 32.9041 34.0143 32.2594C34.2819 31.6147 34.674 31.0311 35.1671 30.5431C35.6603 30.0551 36.2447 29.6726 36.8857 29.4182C37.5266 29.1637 38.2113 29.0426 38.8991 29.0618C40.2321 29.1093 41.4951 29.6811 42.4219 30.6569C43.3487 31.6326 43.867 32.9361 43.8677 34.2928C43.8683 35.6495 43.3513 36.9535 42.4255 37.9301C41.4996 38.9068 40.2373 39.48 38.9043 39.5288" fill="white"/>
</svg>
