<svg width="60" height="60" viewBox="0 0 60 60" fill="none" xmlns="http://www.w3.org/2000/svg">
<rect width="60" height="60" fill="black"/>
<g clip-path="url(#clip0_1534_8441)">
<path fill-rule="evenodd" clip-rule="evenodd" d="M29.2775 17.8676L26.9862 9.31605L28.1657 9L30.4571 17.5515L29.8683 17.7093L31.1389 22.4512C30.9248 22.4192 30.7078 22.3961 30.4883 22.3823L29.2785 17.8673L29.2775 17.8676ZM29.1467 22.4141L26.692 18.1625L27.2198 17.8578L22.7932 10.1907L21.7356 10.8013L26.1623 18.4684L26.1632 18.4678L28.4996 22.5144C28.7122 22.472 28.928 22.4385 29.1467 22.4141ZM27.209 22.8935L23.7403 19.4249L23.3085 19.8565L26.6109 23.1589C26.8057 23.0623 27.0052 22.9736 27.209 22.8935ZM25.4694 23.8568L21.2164 21.4014L21.5209 20.874L13.8538 16.4474L13.2432 17.5049L20.9103 21.9315L20.9111 21.9302L24.9602 24.2679C25.1239 24.1238 25.2937 23.9866 25.4694 23.8568ZM24.032 25.2419L19.2901 23.9713L19.132 24.5611L23.6458 25.7705C23.7671 25.5886 23.8959 25.4123 24.032 25.2419ZM23.0032 26.9467H18.0945V26.3361L9.24128 26.3361V27.5572H18.0944H22.7673C22.8374 27.3496 22.9161 27.1459 23.0032 26.9467ZM22.4525 28.8617L17.7099 30.1325L17.868 30.7222L22.3836 29.5123C22.3974 29.2928 22.4205 29.0758 22.4525 28.8617ZM22.4158 30.8548L18.1638 33.3097L17.8574 32.779L10.1903 37.2056L10.8009 38.2632L18.4673 33.8369L18.4684 33.8389L22.5163 31.5018C22.4738 31.2892 22.4402 31.0734 22.4158 30.8548ZM22.894 32.788L19.4228 36.2592L18.9909 35.8273L12.7307 42.0875L13.5942 42.9509L19.854 36.6911L23.1593 33.3862C23.0626 33.1913 22.974 32.9918 22.894 32.788ZM23.8578 34.5294L21.4026 38.782L21.9313 39.0873L24.2688 35.0387C24.1248 34.875 23.9876 34.7051 23.8578 34.5294ZM25.2411 35.9656L23.9699 40.7099L24.5596 40.868L25.7697 36.352C25.5878 36.2307 25.4115 36.1017 25.2411 35.9656ZM26.9473 36.9958V41.9046H27.5578V37.2318C27.3501 37.1617 27.1465 37.0829 26.9473 36.9958ZM28.8616 37.5467L30.1325 42.2898L30.7223 42.1318L29.5122 37.6157C29.2927 37.6018 29.0757 37.5787 28.8616 37.5467ZM30.8537 37.5838L33.3081 41.8351L32.7806 42.1396L37.2072 49.8067L38.2647 49.1962L33.8381 41.5291L33.8369 41.5298L31.5008 37.4836C31.2882 37.526 31.0724 37.5595 30.8537 37.5838ZM32.79 37.1052L36.2604 40.5755L36.6921 40.1437L33.3882 36.8398C33.1934 36.9365 32.9939 37.0251 32.79 37.1052ZM34.529 36.1429L38.7838 38.5994L38.4792 39.1271L46.1463 43.5536L46.7569 42.4961L39.0898 38.0695L39.0891 38.0707L35.0385 35.732C34.8747 35.876 34.7047 36.0132 34.529 36.1429ZM35.9671 34.7583L40.7097 36.029L40.8677 35.4393L36.3535 34.2297C36.2322 34.4115 36.1032 34.5879 35.9671 34.7583ZM36.9969 33.0531H41.906V32.4426H37.2329C37.1628 32.6503 37.0839 32.8539 36.9969 33.0531ZM37.548 31.1381L42.2904 29.8674L42.4482 30.4562L50.9998 28.1648L50.6837 26.9853L42.1322 29.2767L42.1324 29.2776L37.6171 30.4875C37.6033 30.707 37.5801 30.924 37.548 31.1381ZM37.5853 29.1458L41.8367 26.6913L42.1427 27.2213L49.8098 22.7947L49.1992 21.7372L41.533 26.1632L41.5323 26.162L37.4851 28.4987C37.5274 28.7113 37.561 28.9272 37.5853 29.1458ZM37.1064 27.2089L40.5773 23.738L41.0092 24.1699L47.2694 17.9098L46.4059 17.0463L40.1458 23.3064L36.8411 26.6108C36.9377 26.8056 37.0263 27.0051 37.1064 27.2089ZM36.1423 25.4676L38.5972 21.2155L38.0685 20.9102L35.7312 24.9584C35.8753 25.122 36.0125 25.2919 36.1423 25.4676ZM34.7591 24.0317L36.0294 19.2906L36.6194 19.4486L38.9108 10.8971L37.7312 10.5811L35.4404 19.1306L34.2304 23.6454C34.4123 23.7667 34.5887 23.8956 34.7591 24.0317ZM33.0531 23.0019V18.093H33.6637V9.23979H32.4425V18.0927V22.766C32.6502 22.836 32.8538 22.9148 33.0531 23.0019ZM42.4947 13.2421L38.068 20.9092L39.1256 21.5197L43.5522 13.8526L42.4947 13.2421ZM50.7594 32.4426H41.906L41.9063 33.6637H50.7594V32.4426ZM23.3078 19.8516L17.0476 13.5914L17.911 12.728L24.1712 18.9881L23.3078 19.8516ZM19.1317 24.5604L10.5802 22.269L10.8962 21.0895L19.4477 23.3809L19.1317 24.5604ZM17.8676 30.7236L9.31605 33.015L9 31.8355L17.5515 29.5441L17.8676 30.7236ZM17.5049 46.7554L21.9315 39.0883L20.874 38.4778L16.4474 46.1448L17.5049 46.7554ZM24.5596 40.868L22.2683 49.4198L21.0888 49.1038L23.3802 40.5522L24.5596 40.868ZM27.5578 50.76V41.9068H26.3367V50.76H27.5578ZM30.7222 42.1333L33.0136 50.6848L31.834 51.0009L29.5427 42.4494L30.7222 42.1333ZM36.6921 40.1437L42.9525 46.4042L42.0891 47.2677L35.8289 41.0075L36.6921 40.1437ZM40.8681 35.4407L49.4196 37.7321L49.1035 38.9116L40.552 36.6202L40.8681 35.4407Z" fill="#F8F8F8"/>
</g>
<defs>
<clipPath id="clip0_1534_8441">
<rect width="42" height="42" fill="white" transform="translate(9 9)"/>
</clipPath>
</defs>
</svg>
