<svg width="60" height="60" viewBox="0 0 60 60" fill="none" xmlns="http://www.w3.org/2000/svg">
<rect width="60" height="60" fill="#00A9E0"/>
<g clip-path="url(#clip0_402_131)">
<path fill-rule="evenodd" clip-rule="evenodd" d="M9.12051 26.6728V25.1467H11.0999V26.6728H9.12051ZM9.12051 33.599V27.3443H11.0999V33.5967L9.12051 33.599ZM44.3357 30.9682H39.8916C39.9733 31.6327 40.4789 32.1422 41.453 32.1422C42.0488 32.1576 42.6237 31.9276 43.0373 31.5082L44.2216 32.6916C43.6138 33.3607 42.6505 33.7681 41.459 33.7681C39.1902 33.7681 37.8557 32.4896 37.8557 30.4294C37.8557 28.5265 39.1433 27.1424 41.1828 27.1424C43.2223 27.1424 44.4078 28.3574 44.4078 30.1688C44.4141 30.4371 44.3899 30.7052 44.3357 30.9682ZM42.4367 29.7708C42.3923 29.1217 41.9503 28.6591 41.19 28.6591C40.4297 28.6591 39.9889 29.117 39.8952 29.7708H42.4367ZM47.7048 33.7622C46.7271 33.7622 45.532 33.5121 44.6492 32.6904L45.7782 31.5047C46.2991 31.9828 46.9855 32.2511 47.7 32.256C48.3894 32.256 48.6897 32.0811 48.6897 31.8135C48.6897 31.6104 48.5396 31.4953 48.1624 31.385C47.8333 31.2887 47.3144 31.2042 46.8772 31.0786C45.9272 30.8074 44.9831 30.4212 44.9831 29.1099C44.9806 27.8961 45.9944 27.1518 47.6868 27.1518C48.6236 27.1518 49.6806 27.3385 50.5694 28.1086L49.4284 29.2649C48.9299 28.7953 48.2345 28.6263 47.6712 28.6263C47.1619 28.6263 46.8796 28.8012 46.8796 29.0442C46.8796 29.2461 47.0298 29.3647 47.4141 29.4867C47.748 29.5912 48.3005 29.6934 48.7353 29.8143C49.647 30.0655 50.5911 30.4447 50.5911 31.6926C50.5959 33.0883 49.3887 33.7634 47.7048 33.7634V33.7622ZM17.2256 27.5897C16.7238 27.0189 15.9844 26.7011 15.2149 26.7257C14.3801 26.7257 13.9441 27.0192 13.9441 27.4371C13.9441 28.0029 14.6036 28.1989 15.8659 28.5453C17.252 28.9268 18.8266 29.3576 18.8266 31.1432C18.8266 32.9287 17.3084 33.754 15.3879 33.754C13.7676 33.754 12.4452 33.302 11.5948 32.1797L13.0721 30.9823C13.6355 31.7231 14.4919 32.0248 15.3639 32.0248C16.4004 32.0248 16.7788 31.6726 16.7788 31.2911C16.7788 30.737 16.1782 30.602 14.7237 30.2064C13.2271 29.799 11.9275 29.2355 11.9275 27.5063C11.9275 25.9884 13.1995 25 15.2798 25C16.601 25 17.8129 25.3428 18.6873 26.4087L17.2256 27.5897ZM37.1062 27.2246C37.4843 27.2101 37.8497 27.3596 38.1044 27.6331L37.3104 29.2649C37.1132 29.1203 36.8723 29.0443 36.6258 29.0489C36.1213 29.0489 35.6889 29.4738 35.6889 30.2463V33.5967H33.6927V27.3443H35.6553V28.2213C36.006 27.6214 36.454 27.2246 37.1062 27.2246ZM25.5756 29.3823V33.5967H23.6046V30.0631C23.6046 29.3846 23.2323 28.969 22.5741 28.969C21.9159 28.969 21.4679 29.3694 21.4679 30.0866V33.5967H19.4933V25.1444H21.4679V28.1849C21.9299 27.5707 22.6662 27.2116 23.4461 27.2199C24.6508 27.2199 25.5756 27.99 25.5756 29.3823ZM33.0477 32.1469V33.4722C32.6782 33.6105 32.2856 33.6806 31.8898 33.6788C31.3457 33.6788 30.7992 33.5121 30.5434 32.8958C30.1158 33.3654 29.3171 33.7258 28.4114 33.7258C27.0902 33.7258 26.2411 33.066 26.2411 31.8099C26.2411 30.5808 27.2596 29.846 28.833 29.846C29.3554 29.8468 29.8757 29.9099 30.3825 30.0338V29.8295C30.3825 29.1252 29.9669 28.7096 29.1057 28.7096C28.5251 28.7267 27.9692 28.9432 27.5358 29.3212L26.4549 28.1238C27.0998 27.5533 28.1472 27.1283 29.3555 27.1283C31.2172 27.1283 32.3415 28.0041 32.3415 29.6441V31.8346C32.3415 32.0694 32.4616 32.1868 32.7222 32.1868C32.8331 32.1864 32.9436 32.1729 33.0513 32.1469H33.0477ZM30.3837 31.0751C30.022 30.9875 29.6512 30.9406 29.2786 30.9354C28.5988 30.9354 28.2625 31.2617 28.2625 31.709C28.2625 32.1328 28.5604 32.4392 29.1705 32.4392C29.8167 32.4392 30.3837 32.0612 30.3837 31.4883V31.0751Z" fill="black"/>
</g>
<defs>
<clipPath id="clip0_402_131">
<rect width="42" height="9" fill="white" transform="translate(9 25)"/>
</clipPath>
</defs>
</svg>
