<svg width="60" height="60" viewBox="0 0 60 60" fill="none" xmlns="http://www.w3.org/2000/svg">
<rect width="60" height="60" fill="#2F63B6"/>
<g clip-path="url(#clip0_150_1065)">
<path fill-rule="evenodd" clip-rule="evenodd" d="M29.7644 31.5419V32.7385C29.5021 32.8643 28.7713 33.0704 27.8344 33.0704C25.8776 33.0704 24.582 31.8524 24.582 30.2356C24.582 28.6188 25.8964 27.3981 27.7809 27.3981C28.5813 27.3981 29.3442 27.5882 29.553 27.6658V28.8195C29.553 28.8784 29.5128 28.8704 29.4646 28.841C28.9694 28.5786 28.4795 28.4849 27.9522 28.4849C26.9885 28.4849 26.1855 29.1435 26.1855 30.2356C26.1855 31.2849 27.0313 31.9515 27.9013 31.9515C28.5197 31.9515 28.9105 31.8631 29.6788 31.5098C29.7109 31.483 29.7644 31.483 29.7644 31.5419ZM45.847 31.4616V32.6153C45.5312 32.7412 44.7361 33.0731 43.5128 33.0731C41.7273 33.0731 40.4344 31.8792 40.4344 30.2356C40.4344 28.6188 41.5052 27.4008 43.3147 27.4008C45.0466 27.4008 46.0692 28.6509 46.0692 30.3507V30.7148H42.0405C42.0405 31.1886 42.4153 31.997 43.5797 31.997C44.4122 31.997 45.0627 31.8069 45.7453 31.4295C45.7828 31.4027 45.847 31.4027 45.847 31.4616ZM44.5487 29.6306C44.5487 29.3094 44.3507 28.402 43.3147 28.402C42.434 28.402 42.0914 29.2746 42.078 29.6306H44.5487ZM14.5759 25.0184H16.1017V32.8884H14.5759V25.0184ZM39.6581 31.7935V32.9098C38.5981 33.1935 37.4095 33.1079 36.9117 32.6957C36.8563 32.6475 36.8055 32.5957 36.7591 32.5404C36.2639 35.2333 34.9763 37.8111 32.891 39.8937C27.4249 45.3545 18.5618 45.3545 13.0956 39.8911C7.63212 34.4303 7.63212 25.5725 13.0956 20.109C16.7602 16.4471 21.948 15.2425 26.6164 16.4872L26.5897 16.5863C22.2451 15.545 17.4776 16.7201 14.086 20.109C8.89292 25.2995 8.89292 33.7129 14.086 38.9033C19.2792 44.0911 27.6979 44.0911 32.891 38.9033C36.2799 35.5171 37.4524 30.7603 36.4218 26.4211L37.9315 25.6742C37.9663 25.6635 38.0065 25.6769 38.0065 25.7171V27.6417C38.135 27.6417 39.6501 27.6417 39.6501 27.6417V28.7125H38.0065V31.2475C38.0065 31.5312 38.0788 31.7373 38.2367 31.8524C38.4723 32.0291 39.0826 32.0023 39.5858 31.7748C39.6099 31.7561 39.6581 31.7614 39.6581 31.7935ZM46.8883 39.8937C43.2237 43.5557 38.0359 44.7603 33.3675 43.5155L33.3943 43.4192C37.7388 44.4578 42.5063 43.2826 45.8979 39.8937C51.091 34.7033 51.091 26.2899 45.8979 21.0995C40.7048 15.909 32.286 15.909 27.0929 21.0995C23.8834 24.3064 22.6627 28.7419 23.4203 32.8884H21.857V29.4192C21.857 28.9695 21.4715 28.5358 20.8478 28.5358C20.2214 28.5358 19.6164 29.1113 19.3809 29.3656V32.8884H17.8524V27.6417H19.2497C19.2497 27.6417 19.2497 28.0111 19.2497 28.1905C19.6967 27.7863 20.4489 27.3901 21.1449 27.3901C22.1006 27.3901 22.7564 27.7087 23.099 28.2895C23.4658 25.3022 24.7962 22.4058 27.0929 20.1117C32.5591 14.6482 41.4222 14.6482 46.8883 20.1117C52.3518 25.5725 52.3518 34.4303 46.8883 39.8937ZM36.1434 27.6417L31.9487 35.841H30.4283L32.4306 31.9194L30.2115 27.6417H31.7614L33.1748 30.4658L34.6203 27.6417H36.1434Z" fill="white"/>
</g>
<defs>
<clipPath id="clip0_150_1065">
<rect width="42" height="28" fill="white" transform="translate(9 16)"/>
</clipPath>
</defs>
</svg>
