<svg width="60" height="60" viewBox="0 0 60 60" fill="none" xmlns="http://www.w3.org/2000/svg">
<rect width="60" height="60" fill="#6CB33F"/>
<g clip-path="url(#clip0_150_991)">
<path fill-rule="evenodd" clip-rule="evenodd" d="M49.4728 34.4896C48.0089 40.935 43.4765 46.2347 36.8626 48.7735C38.0152 41.9823 42.9116 36.4378 49.4728 34.4896ZM35.8733 49.1066C21.1464 53.6441 6.19343 40.1855 10.8789 24.1249C27.6975 24.1249 36.4106 38.5602 35.8733 49.1066ZM36.6015 43.7791C35.8231 32.723 25.4351 21.0586 12.9078 19.6378C14.1181 17.6593 15.6523 15.9028 17.4602 14.4517C29.3422 18.9186 37.297 31.1507 36.6015 43.7791ZM23.4765 11.123C25.5155 10.4214 29.3221 9.70974 32.2098 10.1564C36.0365 16.4 40.6492 29.3337 37.6008 41.311C38.6806 30.0832 31.9461 17.3236 23.4765 11.123ZM38.0754 11.7413C45.8595 15.2138 50.6027 23.2618 49.9172 31.7993C45.1313 32.6523 41.0434 36.0744 38.7308 40.1653C43.1526 27.2921 40.034 15.9331 38.0754 11.7413Z" fill="white"/>
</g>
<defs>
<clipPath id="clip0_150_991">
<rect width="40" height="40" fill="white" transform="translate(10 10)"/>
</clipPath>
</defs>
</svg>
