<svg width="60" height="60" viewBox="0 0 60 60" fill="none" xmlns="http://www.w3.org/2000/svg">
<rect width="60" height="60" fill="black"/>
<g clip-path="url(#clip0_168_359)">
<path d="M33.2816 22.8309C32.7567 22.3242 32.1589 21.899 31.5081 21.5692C30.3935 20.943 29.0807 20.5731 27.6362 20.52C27.5433 20.5146 27.4503 20.5115 27.3573 20.5108L26.7984 20.5118H17.9675V39.9216H23.0756V35.8351H27.4747C28.7456 35.8351 29.9368 35.4612 30.9891 34.9688C30.2253 33.5462 29.8259 31.9565 29.8265 30.3419C29.8265 27.3567 31.1699 24.6749 33.2919 22.8462L33.2816 22.8309ZM27.0334 30.727C26.9547 30.7291 27.1151 30.727 27.0334 30.727H23.0756V25.6189H26.918C28.4289 25.6189 29.9879 25.9438 29.9879 28.1086C29.9879 30.2234 28.4943 30.727 27.0334 30.727Z" fill="#82C1EA"/>
<path d="M39.9079 40.3027C38.0746 40.3055 36.2749 39.8108 34.7007 38.8713C33.1264 37.9318 31.8366 36.5827 30.9688 34.9678C33.5422 33.7582 35.2749 31.2389 35.2749 28.2608C35.2749 28.2087 35.2718 28.1576 35.2708 28.1055V28.1025V28.0759C35.2691 27.9856 35.2661 27.8954 35.2616 27.8052C35.1952 25.5137 34.3697 23.9271 33.2633 22.836C35.1105 21.2351 37.4738 20.3552 39.9182 20.3586C42.5534 20.3544 45.0866 21.3767 46.9806 23.2089L42.9514 26.6416L42.9309 26.6293C42.0743 25.9481 41.0116 25.5781 39.9171 25.5801C37.2609 25.5801 35.0992 27.7143 35.0992 30.3368C35.0992 32.9623 37.2609 35.0965 39.9182 35.0965C41.4761 35.0965 43.2568 34.3354 43.7411 32.7703H40.4433V28.6838H49.8974L49.93 28.9474C49.9668 29.2038 49.9913 29.4653 50.0067 29.7279C50.02 29.9291 50.0302 30.1365 50.0302 30.3276C50.0302 30.4195 50.0251 30.5401 50.0159 30.6821C49.9755 31.9052 49.7067 33.11 49.2231 34.2343C49.1177 34.4945 48.9969 34.7484 48.8614 34.9943L48.8604 34.9831C47.9921 36.5982 46.7017 37.9475 45.1269 38.887C43.5521 39.8265 41.7519 40.3211 39.9182 40.318L39.9079 40.3027Z" fill="#1376C4"/>
<path d="M35.2737 28.2455L35.2809 28.1045V28.1025L35.2799 28.0759C35.2799 27.985 35.2768 27.8951 35.2717 27.8052C35.2053 25.5116 34.3798 23.9251 33.2734 22.8319C31.1586 24.6637 29.8203 27.3495 29.8203 30.3388C29.8203 32.0102 30.2412 33.5855 30.9788 34.9719C33.5513 33.7623 35.2839 31.2419 35.2839 28.2608L35.2737 28.2455Z" fill="#0A325C"/>
<path d="M9.78442 20.4955V39.9216H14.9027V20.5108H9.79464L9.78442 20.4955Z" fill="#82C1EA"/>
</g>
<defs>
<clipPath id="clip0_168_359">
<rect width="42" height="21" fill="white" transform="translate(9 20)"/>
</clipPath>
</defs>
</svg>
