<svg width="60" height="60" viewBox="0 0 60 60" fill="none" xmlns="http://www.w3.org/2000/svg">
<rect width="60" height="60" fill="black"/>
<g clip-path="url(#clip0_1403_9027)">
<path d="M38.372 39.355H18.9534C18.1976 39.355 17.6162 39.93 17.6162 40.6775C17.6162 41.425 18.1976 42 18.9534 42H38.372C39.1278 42 39.7092 41.425 39.7092 40.6775C39.7092 39.93 39.1278 39.355 38.372 39.355Z" fill="white"/>
<path d="M43.0232 42C42.2674 42 41.686 41.425 41.686 40.6775C41.686 39.93 42.2674 39.355 43.0232 39.355H48.6628C49.4186 39.355 50 39.93 50 40.6775C50 41.425 49.4186 42 48.6628 42H43.0232Z" fill="white"/>
<path d="M45.6976 36.94C44.9417 36.94 44.3604 36.365 44.3604 35.6175C44.3604 34.87 44.9417 34.295 45.6976 34.295H48.7208C49.4766 34.295 50.058 34.87 50.058 35.6175C50.058 36.365 49.4766 36.94 48.7208 36.94H45.6976Z" fill="white"/>
<path d="M46.4534 31.8225C45.6976 31.8225 45.1162 31.2475 45.1162 30.5C45.1162 29.7525 45.6976 29.1775 46.4534 29.1775H48.7209C49.4767 29.1775 50.0581 29.7525 50.0581 30.5C50.0581 31.2475 49.4767 31.8225 48.7209 31.8225H46.4534Z" fill="white"/>
<path d="M45.7557 26.7625C44.9999 26.7625 44.4185 26.1875 44.4185 25.44C44.4185 24.6925 44.9999 24.1175 45.7557 24.1175H48.7208C49.4766 24.1175 50.058 24.6925 50.058 25.44C50.058 26.1875 49.4766 26.7625 48.7208 26.7625H45.7557Z" fill="white"/>
<path d="M43.1395 21.645C42.3836 21.645 41.8022 21.07 41.8022 20.3225C41.8022 19.575 42.4418 19 43.1395 19H48.6627C49.4185 19 49.9999 19.575 49.9999 20.3225C49.9999 21.07 49.4185 21.645 48.6627 21.645H43.1395Z" fill="white"/>
<path d="M41.0467 34.295H15.1746C14.4188 34.295 13.8374 34.87 13.8374 35.6175C13.8374 36.365 14.4188 36.94 15.1746 36.94H41.0467C41.8025 36.94 42.3839 36.365 42.3839 35.6175C42.3839 34.87 41.7444 34.295 41.0467 34.295Z" fill="white"/>
<path d="M41.8023 29.1775H11.3372C10.5814 29.1775 10 29.7525 10 30.5C10 31.2475 10.5814 31.8225 11.3372 31.8225H41.7442C42.5 31.8225 43.0814 31.2475 43.0814 30.5C43.1395 29.7525 42.5 29.1775 41.8023 29.1775Z" fill="white"/>
<path d="M41.0464 24.1175H13.2557C12.4999 24.1175 11.9185 24.6925 11.9185 25.44C11.9185 26.1875 12.4999 26.7625 13.2557 26.7625H41.0464C41.8022 26.7625 42.3836 26.1875 42.3836 25.44C42.4417 24.6925 41.8022 24.1175 41.0464 24.1175Z" fill="white"/>
<path d="M38.4884 19H23.0232C22.2674 19 21.686 19.575 21.686 20.3225C21.686 21.07 22.2674 21.645 23.0232 21.645H38.4884C39.2442 21.645 39.8256 21.07 39.8256 20.3225C39.8256 19.575 39.2442 19 38.4884 19Z" fill="white"/>
</g>
<defs>
<clipPath id="clip0_1403_9027">
<rect width="40" height="23" fill="white" transform="translate(10 19)"/>
</clipPath>
</defs>
</svg>
