<svg width="60" height="60" viewBox="0 0 60 60" fill="none" xmlns="http://www.w3.org/2000/svg">
<rect width="60" height="60" fill="#D52B1E"/>
<g clip-path="url(#clip0_1403_8893)">
<path d="M49.6358 24.4339C48.4156 18.4 38.7505 16.0007 28.0432 19.0744C25.8282 19.7106 23.744 20.5341 21.8395 21.4889H23.1499C24.6789 20.6832 26.3497 20.0004 28.1268 19.4904C37.0156 16.9377 45.1703 19.5742 46.3449 25.3793C47.0183 28.7063 45.2462 32.3519 41.9385 35.34L41.6271 36.8269C47.1778 33.2567 50.4644 28.5352 49.6358 24.4339ZM37.3528 38.5109C35.8246 39.3166 34.1547 39.9986 32.3759 40.5086C23.4896 43.0612 15.3333 40.4256 14.1603 34.6222C13.487 31.2875 15.2641 27.6361 18.5828 24.6462L18.8933 23.1636C13.3342 26.7363 10.0408 31.4638 10.8703 35.5668C12.0896 41.6006 21.7573 43.9991 32.4612 40.9254C34.6762 40.2892 36.7596 39.4657 38.6658 38.5109H37.3528ZM33.195 28.4473L33.8802 25.1796C35.6396 25.1975 37.0386 25.1246 36.7205 26.6369C36.3113 28.5922 35.6269 28.4109 33.195 28.4473ZM25.1627 37.5371H31.2897L32.5073 31.7235C34.8278 31.6481 35.6151 31.9124 35.3679 33.0926L34.4363 37.5371H40.5371L41.559 32.6554C41.6957 32.0065 42.0299 30.412 39.3575 29.6902C42.0737 28.948 42.6627 27.3875 42.8897 26.3047C43.4188 23.7758 41.3565 22.4635 38.1795 22.4635H28.3211L25.1627 37.5371ZM19.9815 22.4631H26.484L23.3256 37.5367H16.8231L19.9815 22.4631Z" fill="white"/>
</g>
<defs>
<clipPath id="clip0_1403_8893">
<rect width="40" height="26" fill="white" transform="translate(10 17)"/>
</clipPath>
</defs>
</svg>
