<svg width="60" height="60" viewBox="0 0 60 60" fill="none" xmlns="http://www.w3.org/2000/svg">
<rect width="60" height="60" fill="black"/>
<path d="M45.4463 15.5117L45.2349 15.3201L45.0103 15.1087L44.7856 14.8709L44.5478 14.6595L43.9268 14.9502L43.3322 15.2673L42.7376 15.5844L42.1562 15.9147L41.6012 16.245L41.0463 16.5886L40.5178 16.9453L40.0025 17.3021L39.5003 17.6853L39.0115 18.0685L38.5358 18.4517L38.0733 18.8481L37.6241 19.2444L37.2013 19.6673L36.7784 20.0901L36.382 20.5261L36.4877 21.2L36.567 21.8871L36.6463 22.5874L36.7256 23.2877L36.7916 23.9748L36.8313 24.6751L36.8973 25.3886L36.9238 26.0889L36.9502 26.7099V27.3177L36.9766 27.9255V28.5201L36.9634 29.1147V29.6961L36.937 30.2643L36.9106 30.8456L36.8841 31.4138L36.8313 31.9688L36.7916 32.5237L36.7388 33.0655L36.6727 33.6072L36.6067 34.149L36.5274 34.6775L36.4481 35.1928L36.3688 35.7213L36.2763 36.2234L36.1838 36.7255L36.0781 37.2144L35.9592 37.7165L35.8535 38.1922L35.7214 38.6811L35.5892 39.1435L35.4571 39.6192L35.3118 40.0817L35.1664 40.5309L35.0079 40.967L34.8493 41.4294L34.6775 41.8523L34.519 42.2883L34.334 42.6979L34.6115 43.1604L34.8889 43.5964L35.2061 44.0324L35.4967 44.4685L35.8271 44.8781L36.1574 45.3009L36.5142 45.7105L36.8709 46.1333L37.2541 46.5165L37.6373 46.9129L38.0337 47.2961L38.4565 47.6661L38.8925 48.036L39.3418 48.3796L39.791 48.7363L40.2535 49.0799L40.531 48.9345L40.7952 48.776L41.0595 48.6306L41.3238 48.4721L41.588 48.3003L41.8391 48.1285L42.1034 47.97L42.3412 47.7982L41.9844 47.3622L41.6409 46.9393L41.2973 46.5033L40.9934 46.0541L40.6763 45.618L40.3724 45.1556L40.1082 44.6931L39.8307 44.2306L39.5664 43.755L39.3022 43.2793L39.0643 42.8036L38.8397 42.3147L38.6283 41.8258L38.4301 41.3237L38.2451 40.8216L38.0601 40.3195L37.9016 39.8174L37.743 39.2889L37.6109 38.7868L37.4787 38.2583L37.3598 37.7429L37.2541 37.2144L37.1616 36.6859L37.0955 36.1574L37.0295 35.6024L36.9766 35.0739L36.937 34.5321L36.8973 33.9772V32.3255L36.9238 31.7574L36.9634 31.1628L37.0295 30.5682L37.1088 29.9736L37.2013 29.3922L37.2937 28.8108L37.4259 28.2294L37.558 27.648L37.7034 27.0931L37.8751 26.5381L38.0469 25.9832L38.2583 25.4282L38.4697 24.8997L38.6943 24.358L38.9322 23.8294L39.1964 23.3009L39.4607 22.7724L39.7382 22.2835L40.0289 21.7682L40.3328 21.2793L40.6631 20.7904L41.0067 20.3147L41.3502 19.839L41.707 19.3766L42.0769 18.9141L42.4601 18.4649L42.8565 18.0288L43.2661 17.5796L43.6757 17.1832L44.1118 16.7471L44.5478 16.3508L45.0103 15.9544L45.4595 15.5447L45.4463 15.5117Z" fill="#28B480"/>
<path d="M40.531 11.7592L40.2667 11.6336L39.976 11.4751L39.6854 11.3429L39.4079 11.1844L38.8001 11.4751L38.2055 11.7658L37.6373 12.0697L37.0691 12.3736L36.5142 12.7039L35.9592 13.0474L35.4307 13.391L34.889 13.7477L34.9947 14.1045L35.1004 14.4745L35.1929 14.8312L35.2986 15.2012L35.3911 15.5712L35.4703 15.9411L35.5628 16.3111L35.6553 16.6943L36.2367 16.0336L36.8313 15.3994L37.4523 14.7652L38.0469 14.1441L38.6679 13.5363L39.3022 12.9417L39.91 12.3604L40.5442 11.779L40.531 11.7592ZM34.4133 51.1676L34.7436 51.0883L35.0872 51.0222L35.4043 50.9562L35.7346 50.8504L36.0517 50.7712L36.3821 50.6655L36.6992 50.573L37.0163 50.4673L36.4878 49.8727L35.9857 49.2781L35.4571 48.6438L34.9682 48.0096L34.4661 47.3622L33.9773 46.7015L33.5148 46.0144L33.0523 45.3405L32.8145 45.7369L32.5767 46.1333L32.3388 46.5165L32.0878 46.8997L31.8367 47.2697L31.5724 47.6264L31.3214 47.9832L31.0571 48.3399L31.4403 48.7099L31.8367 49.0799L32.2463 49.4499L32.6691 49.8066L33.0788 50.1502L33.528 50.4937L33.964 50.8372L34.4133 51.1676Z" fill="#01B4C0"/>
<path d="M50.9032 25.4745L50.5068 25.8378L50.1104 26.2078L49.7669 26.6042L49.4101 26.9874L49.2516 27.1856L49.0798 27.3838L48.9344 27.5952L48.7759 27.7934L48.6305 28.018L48.472 28.2294L48.3398 28.4408L48.2077 28.6522L48.0756 28.8769L47.9567 29.1147L47.8377 29.3261L47.7188 29.5507L47.5999 29.7886L47.5074 30.0132L47.4149 30.2643L47.3224 30.5153L47.2299 30.7399L47.1507 30.991L47.0714 31.2288L46.9921 31.4931L46.926 31.7309L46.86 31.9952L46.8203 32.2462L46.7543 32.4841L46.7146 32.7748L46.675 33.039L46.6486 33.3165L46.6221 33.6072L46.6089 33.8715L46.5957 34.1489V34.9682L46.6221 35.2589L46.6486 35.5231L46.675 35.8006L46.7014 36.0649L46.7543 36.3291L46.7939 36.6066L46.86 36.8709L46.926 37.1351L47.0053 37.4126L47.0714 37.6769L47.1639 37.9411L47.2431 38.2054L47.3356 38.4697L47.4413 38.7339L47.5471 38.9982L47.666 39.236L47.7717 39.5003L47.9038 39.7646L48.0227 40.0024L48.1549 40.2667L48.3002 40.5045L48.4323 40.7688L48.6041 41.0066L48.9344 40.412L49.2516 39.8042L49.3969 39.5003L49.5422 39.1964L49.6744 38.8925L49.8197 38.5622L49.9519 38.2583L50.0708 37.9279L50.2029 37.624L50.3086 37.2937L50.4143 36.9634L50.52 36.6198L50.6257 36.3027L50.7182 35.9724L50.7975 35.6288L50.8768 35.2721L50.9693 34.955L51.0486 34.5982L51.1014 34.2547L51.1675 33.9111L51.2203 33.5676L51.2732 33.2108L51.3128 32.8673L51.3525 32.5105L51.3921 32.1537L51.4185 31.797L51.4317 31.4402L51.4582 31.0703V30.7135L51.4714 30.3435V29.7225L51.4317 29.1147L51.3921 28.4937L51.326 27.8859L51.2468 27.2781L51.141 26.6703L51.0353 26.0889L50.9032 25.4943V25.4745Z" fill="#7CB902"/>
<path d="M44.3894 32.0943L44.4555 31.7309L44.4951 31.3345L44.548 30.9646L44.6141 30.5682L44.6801 30.1982L44.7594 29.8018L44.8387 29.4318L44.9312 29.0354L45.0237 28.6655L45.1294 28.2823L45.2351 27.9123L45.3408 27.5159L45.4729 27.1459L45.605 26.776L45.7372 26.406L45.8825 26.036L46.0279 25.6661L46.1864 25.2961L46.3318 24.9261L46.5035 24.5694L46.6885 24.2126L46.8603 23.8559L47.0717 23.5123L47.2567 23.1688L47.4681 22.812L47.6795 22.4817L47.8909 22.1514L48.1023 21.821L48.3402 21.4907L48.5912 21.1736L48.8159 20.8697L49.0801 20.5658L48.9083 20.2487L48.763 19.9447L48.5912 19.6541L48.4195 19.3634L47.9306 19.6276L47.4681 19.9183L46.9924 20.209L46.5432 20.5261L46.1071 20.83L45.6711 21.1471L45.2615 21.4775L44.8651 21.821L44.4687 22.1646L44.0855 22.5213L43.7156 22.8913L43.372 23.2613L43.0285 23.6312L42.6981 24.0276L42.381 24.424L42.0903 24.8336L41.7996 25.2565L41.5222 25.6661L41.2579 26.1021L41.0333 26.5381L40.7954 26.9874L40.584 27.4366L40.3726 27.8859L40.2008 28.3616L40.0291 28.8372L39.8705 29.2997L39.7384 29.8018L39.6195 30.3039L39.527 30.7796L39.4345 31.3081L39.3684 31.797L39.3023 32.3255L39.2759 32.8012L39.2627 33.2372V34.1622L39.2891 34.6246L39.342 35.0871L39.3948 35.5496L39.4741 35.9856L39.5534 36.4481L39.6591 36.8973L39.778 37.3333L39.9101 37.7958L40.0423 38.2318L40.2008 38.6811L40.3594 39.1039L40.5444 39.5267L40.7294 39.9628L40.9408 40.3856L41.139 40.7952L41.3768 41.218L41.6147 41.6144L41.8789 42.0108L42.1167 42.4072L42.3942 42.8036L42.6849 43.1868L42.9756 43.57L43.2795 43.9399L43.5834 44.3099L43.9137 44.6535L44.2441 44.997L44.5876 45.3405L44.9312 45.6709L45.1426 45.4595L45.354 45.2481L45.5654 45.0366L45.7768 44.812L45.9882 44.6006L46.1864 44.376L46.3846 44.1381L46.5828 43.9135L46.411 43.5832L46.2525 43.2529L46.0939 42.9093L45.9486 42.579L45.8165 42.2354L45.6579 41.8919L45.5258 41.5484L45.4068 41.1916L45.2747 40.848L45.169 40.5045L45.0633 40.1345L44.9708 39.791L44.8783 39.421L44.799 39.0643L44.7065 38.6943L44.6405 38.3243L44.5744 37.9544L44.5083 37.5844L44.4555 37.2012L44.4159 36.818L44.3762 36.4481L44.3366 36.0649L44.3101 35.6685L44.2969 35.2985L44.2837 34.9021V33.7129L44.3101 33.3165L44.3366 32.9201L44.363 32.5105L44.4026 32.1141L44.3894 32.0943Z" fill="#53B73E"/>
<path d="M15.5976 15.0625L15.2673 15.4126L14.937 15.7562L14.6066 16.0997L14.3027 16.4697L13.9856 16.8132L13.6817 17.2096L13.391 17.5796L13.1267 17.9628L12.8361 18.3592L12.5718 18.7556L12.3075 19.1652L12.0697 19.5616L11.8319 19.9844L11.594 20.4072L11.3694 20.8432L11.1712 21.2793L10.9598 21.7153L10.7616 22.1514L10.5898 22.6138L10.418 23.0631L10.2595 23.5255L10.1009 23.988L9.96879 24.4504L9.83666 24.9261L9.70452 25.415L9.61203 25.8907L9.50633 26.3796L9.41383 26.8685L9.34777 27.3574L9.2817 27.8595L9.22885 28.3616L9.18921 28.8637L9.50633 28.5465L9.83666 28.2162L10.1406 27.8595L10.4445 27.5159L10.7352 27.1459L11.0258 26.7628L11.3165 26.3796L11.5808 25.9832L11.8451 25.5868L12.1093 25.1904L12.3472 24.7676L12.585 24.3315L12.8096 23.9087L13.0475 23.4595L13.2457 23.0234L13.4571 22.5742L13.6553 22.1249L13.8535 21.6625L14.0252 21.2L14.197 20.7375L14.3556 20.2751L14.5273 19.8126L14.6595 19.3369L14.818 18.8613L14.9502 18.3856L15.0691 17.9099L15.1616 17.4342L15.2673 16.9586L15.373 16.4829L15.4523 16.0072L15.5315 15.5447L15.6108 15.0823L15.5976 15.0625Z" fill="#01B7DE"/>
<path d="M19.7465 11.9177L19.5351 12.0697L19.2973 12.2282L19.0462 12.3604L18.8216 12.5321L18.6102 13.4174L18.412 14.2763L18.2006 15.1219L17.9892 15.9676L17.7645 16.7604L17.5531 17.5664L17.3021 18.3459L17.0642 19.1123L16.8 19.8523L16.5489 20.5922L16.2847 21.3057L16.0204 22.006L15.7429 22.6931L15.4522 23.3538L15.1615 24.0144L14.8576 24.6487L14.5537 25.2829L14.2366 25.8907L13.9327 26.4985L13.6024 27.0799L13.2853 27.648L12.9417 28.2294L12.6114 28.7712L12.2678 29.3261L11.9111 29.8547L11.5675 30.3568L11.1976 30.8721L10.8408 31.361L10.4708 31.8631L10.1009 32.3387L9.71768 32.8012L9.32129 33.2637L9.40057 33.6601L9.45342 34.0565L9.5327 34.4529L9.61198 34.8492L9.70447 35.2456L9.79696 35.642L9.88946 36.012L10.0084 36.3952L10.8012 35.8667L11.5543 35.3249L12.2678 34.7171L12.9285 34.1093L13.5892 33.4487L14.1838 32.7748L14.7387 32.0745L15.2804 31.3345L15.7825 30.5946L16.245 29.8018L16.681 29.0222L17.0774 28.2294L17.4738 27.397L17.8042 26.5646L18.1081 25.7321L18.3988 24.8733L18.663 24.0276L18.8877 23.1688L19.0991 22.3099L19.2708 21.4511L19.4294 20.5922L19.5615 19.7333L19.6672 18.8877L19.7597 18.0685L19.8258 17.236L19.8786 16.43L19.8919 15.624L19.9183 14.8577L19.8919 14.0913V13.3514L19.839 12.6246L19.7729 11.9375L19.7465 11.9177Z" fill="#0298CA"/>
<path d="M37.3598 26.0823L37.3333 25.5207L37.3069 24.9658L37.2673 24.3976L37.2276 23.8294L37.1616 23.2877L37.1219 22.7195L37.0559 22.1646L36.9766 21.6228L36.9105 21.0811L36.8444 20.5261L36.752 19.9844L36.6595 19.4559L36.567 18.9141L36.4745 18.3856L36.3423 17.8306L36.2498 17.3153L36.1309 16.7868L35.9988 16.2715L35.8799 15.7429L35.7477 15.2408L35.6156 14.7255L35.4835 14.2234L35.3381 13.7213L35.1796 13.2192L35.0342 12.7303L34.8625 12.2282L34.7039 11.7393L34.5453 11.2504L34.3604 10.788L34.1886 10.2991L34.0168 9.82342L33.8186 9.36096L33.5147 9.30811L33.2108 9.28168L32.8937 9.24204L32.5898 9.21561L32.7483 10.7219L32.8937 12.2282L33.0258 13.7213L33.1183 15.2144L33.1844 16.6943L33.2372 18.161L33.2504 19.6408V21.0811L33.2108 22.5213L33.1447 23.9483L33.0655 25.3754L32.9333 26.7628L32.8012 28.1502L32.6162 29.5243L32.3916 30.8853L32.1538 32.2066L31.8763 33.5279L31.5592 34.8228L31.2024 36.0913L30.8324 37.3465L30.4096 38.5622L29.9604 39.7778L29.4715 40.9538L28.9429 42.0901L28.3748 43.2132L27.767 44.3099L27.1063 45.367L26.4192 46.4108L25.7057 47.4018L24.9261 48.3796L24.1069 49.3045L23.248 50.203L23.5784 50.3219L23.8823 50.4408L24.2126 50.5465L24.5297 50.6523L24.8601 50.7447L25.1904 50.8372L25.5207 50.9165L25.8511 51.009L26.1814 51.0751L26.5117 51.1411L26.8553 51.2204L27.1988 51.2733L27.5423 51.3261L27.8859 51.379L28.2426 51.4186L28.5862 51.4583L29.1147 50.9562L29.6432 50.4541L30.1453 49.9255L30.6342 49.397L31.1099 48.8288L31.5724 48.2342L32.0348 47.6396L32.4577 47.0054L32.8805 46.3712L33.2769 45.7105L33.6601 45.0234L34.03 44.3099L34.3868 43.5964L34.7171 42.8565L35.0342 42.0769L35.3249 41.3105L35.6156 40.5177L35.8799 39.6853L36.1045 38.8396L36.3423 37.9676L36.5273 37.0955L36.7255 36.1838L36.8841 35.2589L37.0162 34.3339L37.1483 33.3694L37.2408 32.3916L37.3201 31.3874L37.373 30.37L37.3994 29.3129V27.1724L37.373 26.0757L37.3598 26.0823Z" fill="#07328D"/>
<path d="M28.7315 9.16937L28.454 9.20241L28.1501 9.24205L27.833 9.26847L27.5423 9.30811L27.582 10.3123V13.5363L27.5291 14.6595L27.4895 15.8222L27.4234 17.0114L27.3177 18.2138L27.212 19.4294L27.0799 20.6715L26.9213 21.9267L26.7363 23.182L26.5249 24.4372L26.2739 25.7057L26.0096 26.9874L25.7057 28.2426L25.3754 29.5111L25.0054 30.7664L24.609 32.0084L24.1862 33.2372L23.7237 34.4396L23.2084 35.6288L22.6799 36.8048L22.0853 37.9411L21.451 39.0643L20.7904 40.1345L20.0769 41.1916L19.3237 42.209L18.5309 43.1868L17.6853 44.1117L16.8 44.997L15.8486 45.8426L16.2054 46.1862L16.5886 46.5033L16.9585 46.8204L17.3549 47.1243L17.7381 47.415L18.1345 47.7057L18.5309 47.9832L18.9537 48.2475L20.1694 47.3886L21.3057 46.4505L22.3627 45.4859L23.3537 44.4685L24.2787 43.4114L25.1243 42.3147L25.9171 41.1784L26.6174 40.0156L27.2781 38.8264L27.8594 37.6108L28.388 36.3556L28.8504 35.0871L29.26 33.8186L29.63 32.4973L29.9339 31.2024L30.185 29.8547L30.3964 28.5333L30.5417 27.1856L30.6474 25.8246L30.7135 24.4901L30.7399 23.1423L30.7267 21.7946L30.6739 20.4733L30.5682 19.1387L30.4492 17.8174L30.2907 16.5225L30.1057 15.2408L29.8943 13.9724L29.63 12.7435L29.3657 11.5279L29.0618 10.3387L28.7579 9.18919L28.7315 9.16937Z" fill="#0453A1"/>
<path d="M24.0541 10.0414L23.8031 10.1538L23.5388 10.233L23.2746 10.3255L23.0103 10.418L22.9574 11.4222L22.8782 12.4396L22.7857 13.4571L22.68 14.4877L22.5478 15.5051L22.4157 16.5225L22.2571 17.5399L22.0854 18.5574L21.9004 19.5616L21.689 20.579L21.4643 21.5832L21.2265 22.5742L20.949 23.5784L20.6583 24.5562L20.3544 25.5339L20.0373 26.4985L19.6806 27.4631L19.3106 28.4012L18.9142 29.3261L18.4914 30.2643L18.0553 31.1628L17.5929 32.0613L17.0908 32.9333L16.5887 33.7922L16.0337 34.6511L15.4655 35.4703L14.8577 36.2763L14.2367 37.0691L13.5761 37.8354L12.9154 38.5754L12.2019 39.3021L11.4487 40.0024L11.6469 40.3988L11.8583 40.7688L12.0698 41.1519L12.3076 41.5219L12.5454 41.8919L12.7833 42.2486L13.0211 42.5922L13.2722 42.9489L14.2764 42.3015L15.2145 41.6012L16.1262 40.848L16.9851 40.0685L17.7779 39.236L18.5442 38.3507L19.2577 37.4523L19.9184 36.5009L20.5262 35.5231L21.1076 34.5057L21.6361 33.4751L22.1382 32.418L22.5743 31.3345L22.9707 30.2246L23.3538 29.1147L23.671 27.9784L23.9484 26.842L24.2127 25.6793L24.4109 24.5297L24.5959 23.367L24.728 22.191L24.8205 21.0282L24.8998 19.8787L24.9262 18.7159V17.5796L24.8998 16.4565L24.8337 15.3333L24.7412 14.2366L24.6091 13.1532L24.4637 12.0961L24.2788 11.0655L24.0673 10.0613L24.0541 10.0414Z" fill="#0474B6"/>
</svg>
