<svg width="60" height="60" viewBox="0 0 60 60" fill="none" xmlns="http://www.w3.org/2000/svg">
<rect width="60" height="60" fill="black"/>
<g clip-path="url(#clip0_1403_9030)">
<path d="M50.0476 18.6471C49.3832 17.7983 47.7774 16.8876 44.444 18.2817C41.7086 19.4398 37.1126 23.0039 35.3739 24.2406C33.4721 25.6606 31.4309 26.8776 29.283 27.8722C27.4785 28.7281 25.5044 29.1512 23.5132 29.109C23.347 29.0865 23.3249 29.0752 23.2474 28.9178C20.955 23.8584 19.6149 21.5198 16.8685 19.4735C13.1031 16.8426 9.29352 16.7302 9.7808 20.5079C9.91369 21.5198 11.6081 26.613 18.3192 29.6599C19.6482 30.2221 21.0436 30.6043 22.4832 30.7617C22.6383 30.7617 22.6272 30.8179 22.6826 30.9191C26.7137 41.1055 29.8699 42.1286 32.406 42.2861C36.9908 42.5784 42.6388 36.2709 43.9124 34.7868C47.9767 30.0084 49.6268 26.0845 50.1141 24.488C51.2991 20.6091 50.4463 19.1812 50.0476 18.664V18.6471ZM15.3291 23.6897C13.8673 21.1038 15.2737 19.6084 16.9571 21.1937C17.7655 21.9695 18.7622 23.1163 19.9804 25.2301C20.6449 26.3881 21.2429 27.5911 21.7634 28.8279C20.0911 28.3782 17.4665 27.4787 15.3291 23.6897ZM43.6687 28.3894C42.5613 30.312 41.177 32.0322 39.7484 33.7299C37.2566 36.6757 34.2665 38.5645 33.0815 39.003C30.2465 40.0262 27.9873 40.2173 24.078 30.8292C30.6451 30.8292 37.0019 25.1626 40.291 22.869C44.5879 19.867 45.341 21.576 45.496 22.2394C45.6732 22.9589 45.6843 24.904 43.6687 28.3894Z" fill="white"/>
</g>
<defs>
<clipPath id="clip0_1403_9030">
<rect width="42" height="26" fill="white" transform="translate(9 17)"/>
</clipPath>
</defs>
</svg>
