<svg width="60" height="60" viewBox="0 0 60 60" fill="none" xmlns="http://www.w3.org/2000/svg">
<rect width="60" height="60" fill="#53284F"/>
<g clip-path="url(#clip0_1354_8298)">
<path d="M47.9169 34.7084L45.3793 31.1186H40.6354V34.7084H39.0818V25.2915H46.4794C48.449 25.2915 49.6397 26.4365 49.6397 28.2575C49.6397 29.9216 48.6039 30.8071 47.204 31.0402L49.7186 34.7084H47.9169ZM48.0476 28.2575C48.0476 27.2156 47.4116 26.7091 46.1052 26.7091H40.6354V29.7002H46.2451C47.4116 29.7002 48.0476 29.1799 48.0476 28.2575ZM33.7269 34.7084L29.2193 29.753L26.3944 31.8469V34.7084H24.8383V25.2915H26.3944V30.1685L32.9634 25.2915H35.2045L30.4104 28.8553L35.7236 34.7084H33.7269ZM19.1691 34.7084L14.6612 29.753L11.8375 31.8469V34.7084H10.2814V25.2915H11.8375V30.1685L18.4049 25.2915H20.6468L15.8527 28.8553L21.1659 34.7084H19.1691Z" fill="white"/>
</g>
<defs>
<clipPath id="clip0_1354_8298">
<rect width="40" height="10" fill="white" transform="translate(10 25)"/>
</clipPath>
</defs>
</svg>
