<svg width="60" height="60" viewBox="0 0 60 60" fill="none" xmlns="http://www.w3.org/2000/svg">
<rect width="60" height="60" fill="#0F059E"/>
<g clip-path="url(#clip0_150_848)">
<path d="M25.8976 15.9032V27.027C25.0168 25.0104 23.0596 23.2215 21.0697 22.018H12.6862C15.3937 24.0346 19.6996 27.1896 19.6996 29.7266C19.6996 30.9951 18.1664 31.2228 17.2857 31.2228H12.0011V37.2726H20.2868C22.1462 37.2726 24.8211 36.5895 25.8976 33.7598V41.8587H33.5961V33.7598C34.6726 36.6221 37.3475 37.2726 39.2069 37.2726H47.4926V31.2228H42.208C41.3272 31.2228 39.7941 30.9626 39.7941 29.7266C39.7941 27.1896 44.1 24.0346 46.8075 22.018H38.424C36.4341 23.2215 34.4769 25.0104 33.5961 27.027V15.9032H25.8976ZM29.7468 12.0001C41.1967 12.0001 50.4937 19.9689 50.4937 29.7917C50.4937 39.6144 41.1967 47.5832 29.7468 47.5832C18.2969 47.5832 9 39.6144 9 29.7917C9 19.9364 18.2643 11.9676 29.7468 12.0001Z" fill="white"/>
</g>
<defs>
<clipPath id="clip0_150_848">
<rect width="42" height="36" fill="white" transform="translate(9 12)"/>
</clipPath>
</defs>
</svg>
