<svg width="60" height="60" viewBox="0 0 60 60" fill="none" xmlns="http://www.w3.org/2000/svg">
<rect width="60" height="60" fill="white"/>
<path d="M13.188 16.3083H8V20.8669C8 20.8669 11.825 20.4285 11.825 22.2258C11.825 24.023 11.825 45.3689 11.825 45.3689C11.825 45.3689 11.6051 46.2018 9.89062 46.2454C8.17613 46.289 8.17613 46.2454 8.17613 46.2454V50.8916H51.3499V46.1578L48.8438 46.2018C48.8438 46.2018 37.4567 34.2356 37.3689 33.7535C37.281 33.2715 37.3689 31.1238 37.3689 31.1238C37.3689 31.1238 37.5009 30.2033 38.0285 29.8089C38.5561 29.4145 46.6896 20.9109 46.6896 20.9109H49.7671V16.2647H38.7756V12.1005C38.7756 12.1005 39.2591 9.07591 36.3574 9.07591C36.3574 9.07591 34.291 8.76909 34.291 12.2757V16.1767H28.7078C28.7078 16.1767 28.4442 11.5304 23.6077 11.5304C23.6077 11.5304 20.6618 11.8373 18.1998 11.4864C16.144 11.1935 14.9945 9.65683 15.0345 8.7251C15.0345 8.7251 10.33 11.3116 13.188 16.3083Z" fill="#E3E4E5"/>
<path d="M27.4285 20.1119C28.6319 20.6556 29.9131 20.8549 31.0604 21.4712C32.0236 21.9885 32.3464 22.4454 31.6053 23.5038C30.3091 25.3549 30.644 27.5202 32.2201 28.7216C33.8324 29.9507 35.8504 29.6822 37.4461 28.0038C39.5925 25.7455 41.7293 23.4782 43.8628 21.208C44.8521 20.1552 45.7923 19.0463 47.3771 18.882C47.7961 18.8384 48.0646 18.5955 48.0092 18.1304C47.9462 17.601 47.5192 17.6608 47.1591 17.6386C46.8807 17.6217 46.6005 17.6367 46.3211 17.6356C43.5264 17.6247 41.1746 17.6104 38.3799 17.6232C37.4292 17.6277 36.9547 17.3201 36.9076 16.2794C36.8408 14.8009 36.6123 13.33 36.4527 11.8557C36.3596 11.8557 36.2661 11.8557 36.1729 11.8557C36.0567 13.1901 35.8467 14.5219 35.8406 15.8594C35.8331 17.5047 34.3351 17.6672 34.3351 17.6672H29.9387C29.9387 17.6672 31.5205 19.3359 31.3455 20.4285C30.0225 20.3074 28.9714 19.6837 27.4285 20.1119Z" fill="#B20838"/>
<path d="M45.8523 45.1392C43.0644 41.8954 40.2046 38.7133 37.3662 35.5132C37.2006 35.3267 37.0773 34.9992 36.4844 35.2323C36.4844 39.3089 36.4867 43.4686 36.4825 47.6283C36.4818 48.3953 36.9615 48.5375 37.5898 48.5352C39.1267 48.5303 40.6643 48.5642 42.2004 48.5307C44.7095 48.4762 47.2236 48.6973 49.7286 48.4074C49.7286 48.0351 49.7286 47.6629 49.7286 47.291C48.0695 47.2294 46.9041 46.363 45.8523 45.1392Z" fill="#B20838"/>
<path d="M32.647 30.3113C31.7143 29.433 30.5592 28.9295 29.33 28.6005C27.1219 28.0095 24.9209 28.1576 22.5694 28.822C23.3893 27.1533 24.0146 25.5854 23.2456 23.9208C22.2209 21.7024 22.4227 19.6995 24.4419 17.6424C19.6235 17.6424 15.2034 17.6394 10.7833 17.6476C10.4144 17.6484 10.023 17.6672 9.99167 18.2071C9.95848 18.7745 10.3609 18.8956 10.7671 19.0249C13.3807 19.8581 13.7476 20.2928 13.7552 22.9252C13.7744 29.48 13.7329 36.0355 13.7767 42.59C13.7918 44.8497 13.3652 46.6737 10.7064 47.0708C10.2775 47.1347 9.93811 47.4171 9.99921 47.9495C10.0611 48.4883 10.4887 48.4435 10.8433 48.4443C15.7857 48.4575 20.7278 48.4601 25.6702 48.4639C26.0662 48.4642 26.42 48.4056 26.4675 47.8999C26.5109 47.4411 26.2688 47.1933 25.8607 47.1091C25.4975 47.0343 25.1113 47.061 24.7534 46.9708C23.8924 46.7534 23.0182 46.5305 22.6071 45.601C21.6118 43.3499 23.7472 39.6493 26.2145 39.3267C26.7002 39.2631 27.1641 39.3101 27.0551 39.8903C26.5912 42.3625 28.1013 43.6759 29.8788 44.8576C30.1948 45.0678 30.4419 45.2806 30.4358 45.7375C30.4087 47.7472 31.5231 48.7797 33.5586 48.6789C35.0924 48.603 35.528 48.1518 35.5299 46.6256C35.5363 41.6515 35.5457 36.6774 35.5378 31.7029C35.5371 31.2649 35.7004 30.7828 35.2278 30.2222C34.3939 31.9071 33.548 31.16 32.647 30.3113ZM22.2492 32.6696C21.949 31.5736 21.9795 31.3668 22.4687 30.9178C23.774 29.7202 27.4157 29.263 29.2629 30.1887C26.4679 30.0504 24.1847 30.8723 22.2492 32.6696Z" fill="#B20838"/>
<path d="M17.1374 14.6794C16.3537 15.2126 13.9355 14.6866 13.9355 14.6866C13.9355 14.6866 14.551 16.4399 17.6179 16.77C19.4059 16.9625 21.0231 16.4891 22.6196 15.8044C23.8487 15.2773 25.0427 15.1498 26.1681 16.059C26.2873 16.1552 26.8172 16.747 26.8172 16.747C26.8172 16.747 27.2128 15.9142 27.0133 15.3788C26.6648 14.4444 26.0161 13.8173 25.1129 13.4664C23.9611 13.019 22.7618 12.9197 21.524 13.031C20.494 13.1235 19.4584 13.0972 18.4261 13.1593C15.6059 13.3285 14.9787 11.2642 14.5778 11.248C13.056 13.6785 15.4742 14.5113 17.1374 14.6794Z" fill="#F9A533"/>
</svg>
