<svg width="60" height="60" viewBox="0 0 60 60" fill="none" xmlns="http://www.w3.org/2000/svg">
<rect width="60" height="60" fill="#21409A"/>
<path d="M25.3053 42.6407C25.2822 44.0276 24.1285 45.1644 22.6978 45.1417C21.2672 45.119 20.1366 43.9822 20.1596 42.5725C20.1827 41.1856 21.3134 40.0715 22.7209 40.0715C24.1285 40.0715 25.2822 41.2083 25.2822 42.5952C25.3053 42.618 25.3053 42.618 25.3053 42.6407Z" fill="white"/>
<path d="M43.9725 45.2099C45.3871 45.2099 46.5338 44.0596 46.5338 42.6407C46.5338 41.2218 45.3871 40.0715 43.9725 40.0715C42.558 40.0715 41.4113 41.2218 41.4113 42.6407C41.4113 44.0596 42.558 45.2099 43.9725 45.2099Z" fill="white"/>
<path d="M22.6056 25.816C22.5825 25.6568 22.6287 25.4749 22.7441 25.3612C22.8594 25.2248 23.021 25.1566 23.1825 25.1566H30.1279C30.3356 25.1566 30.5432 25.2703 30.6355 25.4522C30.7278 25.6341 30.7278 25.8614 30.6355 26.0433L27.059 32.2503C26.8975 32.5231 26.5514 32.6368 26.2745 32.4777C26.2514 32.4549 26.2052 32.4322 26.1822 32.4095C24.267 30.7952 23.021 28.567 22.6518 26.1115C22.6287 26.0433 22.6056 25.9296 22.6056 25.816ZM33.8429 34.8422C32.1354 35.0014 30.4048 34.7285 28.8357 34.0692C28.6742 34.001 28.5588 33.8646 28.5127 33.7281C28.4665 33.569 28.4665 33.3871 28.5588 33.2507L32.7122 26.0888C32.8738 25.816 33.2199 25.725 33.4968 25.8614C33.5891 25.9069 33.6583 25.9979 33.7275 26.0888L37.7425 33.0233C37.904 33.2962 37.8117 33.6599 37.5348 33.8191L37.5117 33.8418C36.358 34.3648 35.112 34.7058 33.8429 34.8422ZM40.8806 31.1362C40.6268 31.4318 40.3499 31.7274 40.073 32.0002C39.9576 32.1366 39.773 32.1821 39.5884 32.1594C39.4039 32.1366 39.2423 32.0229 39.1731 31.8638L35.8042 26.0433C35.6889 25.8614 35.6889 25.6341 35.8042 25.4522C35.8965 25.2703 36.1042 25.1566 36.3119 25.1566H42.6343C42.7958 25.1566 42.9573 25.2248 43.0727 25.3612C43.1881 25.4977 43.2342 25.6568 43.2111 25.816C42.9573 27.7713 42.1497 29.6129 40.8806 31.1362Z" fill="white"/>
<path d="M45.2878 25.1793C44.8725 31.0907 40.2114 36.0245 34.1198 36.5929C27.3589 37.2068 21.3365 32.2275 20.7135 25.4522C20.1366 19.3361 16.1678 15.3573 10.3069 15.0845V19.3361C13.9296 19.5862 16.1217 21.8826 16.4908 25.8387C17.2754 34.4102 24.5208 40.89 32.9891 40.89C33.4967 40.89 34.0044 40.8673 34.512 40.8218C42.8188 40.0488 49.1413 33.2734 49.5566 25.1793H45.2878Z" fill="white"/>
</svg>
