<svg width="60" height="60" viewBox="0 0 60 60" fill="none" xmlns="http://www.w3.org/2000/svg">
<rect width="60" height="60" fill="black"/>
<path d="M29.9675 14.8654L29.8413 15.0476C29.4452 15.6238 28.1927 17.5046 27.3144 19.4378C26.2582 21.757 25.1954 25.2465 26.6291 28.172C26.7798 28.5123 27.8361 30.5436 28.868 32.5182H31.0648C32.0967 30.5436 33.1516 28.5123 33.3037 28.172C34.7374 25.2465 33.6753 21.757 32.6205 19.4378C31.7422 17.5046 30.4876 15.6238 30.0915 15.0476L29.9675 14.8654ZM10.0066 26.7226L11.7052 30.0152C12.4744 31.5009 14.0296 32.5203 15.8235 32.5203H26.6648L24.9641 29.2256C24.1963 27.7385 22.6418 26.7226 20.8479 26.7226H10.0066ZM39.087 26.7226C37.2931 26.7226 35.7365 27.7385 34.9687 29.2256L33.268 32.5203H44.1114C45.9053 32.5203 47.4598 31.5009 48.2276 30.0152L49.9262 26.7226H39.087ZM22.9628 34.4913C21.9036 34.4913 20.984 35.0921 20.5305 35.9701L19.5256 37.9159H23.2276C24.2868 37.9159 25.2064 37.3151 25.66 36.4371L26.6627 34.4913H22.9628ZM28.6851 34.4913C28.5373 34.7658 28.2721 35.2691 28.0754 35.6852C27.2359 37.4854 27.7969 38.7062 28.4686 40.5236C28.714 41.1899 29.6298 43.0336 29.8939 43.567L29.9675 43.7115L30.039 43.567C30.3045 43.0336 31.2175 41.1899 31.4643 40.5236C32.136 38.7062 32.6984 37.4854 31.8574 35.6852C31.6623 35.2691 31.397 34.7658 31.2478 34.4913H28.6851ZM33.2701 34.4913L34.2729 36.4371C34.7278 37.3151 35.6467 37.9159 36.7073 37.9159H40.4073L39.4024 35.9701C38.9489 35.0921 38.0306 34.4913 36.9701 34.4913H33.2701Z" fill="white"/>
</svg>
