<svg width="60" height="60" viewBox="0 0 60 60" fill="none" xmlns="http://www.w3.org/2000/svg">
<rect width="60" height="60" fill="#003867"/>
<g clip-path="url(#clip0_168_501)">
<path fill-rule="evenodd" clip-rule="evenodd" d="M21.3582 34.5013C19.5393 34.0348 17.8504 33.7118 16.2822 33.7118C14.6304 33.7118 13.3219 34.3936 13.3219 35.4522C13.3219 36.448 14.2963 37.0401 16.0316 37.0401C17.8133 37.0401 19.6229 35.9725 21.3582 34.5013ZM16.0131 37.9552C12.7652 37.9552 10.7236 37.0222 10.7236 35.6585C10.7236 33.7118 13.9437 32.6981 17.7298 32.6981C19.2981 32.6981 21.0055 32.8865 22.8058 33.1735C23.5111 32.4828 24.207 31.7471 24.8752 31.0294C26.2114 29.5941 28.1787 27.5307 29.8213 26.3106C32.9392 24.0051 36.9202 22.3364 41.1239 22.3364C46.3484 22.3364 50.5335 24.0409 50.5335 26.5887C50.5335 28.051 49.0488 29.316 46.3948 29.4146L46.3113 28.9481C46.8681 28.6969 47.5548 28.2484 47.5548 26.8668C47.5548 25.0547 45.4483 23.2515 41.5786 23.2515C37.8575 23.2515 35.7324 24.9381 33.3383 27.3423C32.0855 28.5983 30.7399 30.1592 29.515 31.3793C28.5963 32.2854 27.6127 33.1197 26.5919 33.8643C30.7863 34.6807 35.222 35.6316 39.3237 35.6316C43.5459 35.6316 45.4668 34.573 46.4505 33.6939L46.7196 34.0707C45.6617 36.1699 42.4602 37.9552 38.3679 37.9552C33.1248 37.9552 28.4479 36.5287 24.3462 35.3356C21.4788 36.9952 18.5093 37.9552 16.0131 37.9552Z" fill="white"/>
</g>
<defs>
<clipPath id="clip0_168_501">
<rect width="41" height="16" fill="white" transform="translate(10 22)"/>
</clipPath>
</defs>
</svg>
