<svg width="60" height="60" viewBox="0 0 60 60" fill="none" xmlns="http://www.w3.org/2000/svg">
<rect width="60" height="60" fill="black"/>
<g clip-path="url(#clip0_1753_9036)">
<path d="M52.1228 29.8241C52.1228 42.1243 42.1404 52.1067 29.8402 52.1067C17.532 52.1067 7.54956 42.1243 7.54956 29.8241C7.54956 17.5159 17.532 7.53352 29.8402 7.53352C42.1404 7.53352 52.1228 17.5159 52.1228 29.8241Z" fill="white"/>
<mask id="mask0_1753_9036" style="mask-type:luminance" maskUnits="userSpaceOnUse" x="5" y="5" width="50" height="50">
<path d="M5.77368 5.77625H54.2395V54.242H5.77368V5.77625Z" fill="white"/>
</mask>
<g mask="url(#mask0_1753_9036)">
<path d="M46.7106 41.1585C44.7605 44.0757 42.2749 45.6262 39.5015 45.6262C38.2867 45.6262 37.0079 45.3305 35.6971 44.7471C34.3065 44.1317 33.0836 43.0047 32.2524 41.5741C31.4292 40.1435 31.1015 38.601 31.3333 37.2103C31.621 35.9954 32.2604 34.341 33.0037 32.4228C34.9299 27.4356 37.5754 20.6021 35.2895 17.2613C34.3304 15.8546 32.5961 15.1673 30.0066 15.1593C27.409 15.1675 25.6827 15.8546 24.7156 17.2613C22.4378 20.6021 25.0753 27.4356 27.0094 32.4308C27.7447 34.341 28.3921 35.9954 28.6718 37.2263C28.9116 38.601 28.5839 40.1435 27.7527 41.5741C26.9295 43.0047 25.7067 44.1317 24.316 44.7471C23.0052 45.3305 21.7185 45.6262 20.5116 45.6262C17.7383 45.6262 15.2447 44.0757 13.3105 41.1665L13.0867 40.7669C14.0138 41.2304 15.7801 41.9977 17.3067 41.9977C18.066 41.9977 18.7853 41.7659 19.4966 41.2944C23.4129 38.6889 22.0781 35.5559 19.4006 30.7125C18.2657 28.6584 17.0988 26.5405 16.5793 24.3505C16.0198 22.0008 15.5083 18.5721 17.5544 15.9825C18.5055 14.7597 19.9681 13.8246 21.8863 13.1932C23.8764 12.5298 26.4419 12.1782 29.511 12.1302H30.502C33.5711 12.1781 36.1367 12.5298 38.1268 13.1932C40.045 13.8246 41.4996 14.7597 42.4587 15.9825C44.5047 18.5721 43.9932 22.0008 43.4338 24.3505C42.9143 26.5405 41.7473 28.6584 40.6123 30.7125C37.9349 35.5559 36.5922 38.6889 40.5164 41.2944C41.2277 41.7659 41.9391 41.9977 42.7063 41.9977C44.2329 41.9977 45.9912 41.2304 46.9263 40.7669L46.7106 41.1585ZM30.0066 5.77625C16.6193 5.77625 5.77368 16.6219 5.77368 30.0091C5.77368 43.3884 16.6193 54.242 30.0066 54.242C43.3938 54.242 54.2395 43.3884 54.2395 30.0091C54.2395 16.6219 43.3938 5.77625 30.0066 5.77625Z" fill="black"/>
</g>
</g>
<defs>
<clipPath id="clip0_1753_9036">
<rect width="50" height="50" fill="white" transform="translate(5 5)"/>
</clipPath>
</defs>
</svg>
