<svg width="60" height="60" viewBox="0 0 60 60" fill="none" xmlns="http://www.w3.org/2000/svg">
<rect width="60" height="60" fill="#B79859"/>
<g clip-path="url(#clip0_168_240)">
<path d="M27.2749 11.7613C27.4794 10.6982 28.0266 9.67929 28.8889 9.01105C28.6844 10.0245 28.8005 11.0793 29.0216 12.0844C29.3947 13.4292 30.0553 14.6828 30.8485 15.8288C31.1774 16.3176 31.5477 16.7815 31.8656 17.2785C32.7168 18.5598 33.2005 20.0895 33.1673 21.6304C33.2254 23.3231 32.5289 25.0158 31.3405 26.217C31.5173 24.7811 31.5229 23.3037 31.1332 21.901C30.7766 20.5507 30.0028 19.3661 29.193 18.2477C28.4882 17.3144 27.8967 16.2844 27.5568 15.1606C27.2279 14.0671 27.0538 12.8963 27.2749 11.7613Z" fill="white"/>
<path d="M33.5155 13.004C34.0185 11.615 35.0992 10.389 36.5253 9.91956C36.1633 10.4663 35.9449 11.0959 35.7708 11.7227C35.616 12.2915 35.5027 12.8742 35.4944 13.4651C35.4668 14.4675 35.5718 15.4726 35.7874 16.4529C35.9974 17.4746 36.3705 18.4631 36.4783 19.5069C36.6442 20.8048 36.4286 22.133 35.9311 23.3397C35.3369 24.886 34.1097 26.159 32.6228 26.8825C33.3138 25.557 33.872 24.1377 33.9964 22.6383C34.1318 21.1637 33.7643 19.7085 33.3718 18.303C32.8992 16.5744 32.9102 14.6967 33.5155 13.004Z" fill="white"/>
<path d="M21.1916 14.8706C20.6306 13.5231 20.6112 11.8994 21.3851 10.632C21.4874 11.2974 21.7582 11.9215 22.0567 12.5207C22.253 12.899 22.4658 13.269 22.7173 13.6142C23.7509 14.9728 25.0997 16.0497 26.5203 16.9803C27.3301 17.5187 28.0929 18.14 28.7065 18.8994C29.3753 19.7168 29.8507 20.6777 30.1685 21.6801C30.5527 22.9227 30.5085 24.2785 30.0994 25.5101C30.0442 25.6785 29.9778 25.8442 29.8921 26.0016C29.4665 24.2757 28.7479 22.5775 27.5236 21.2631C26.8796 20.5645 26.114 19.9929 25.3429 19.4462C24.4916 18.8884 23.6514 18.2947 22.9522 17.5436C22.2198 16.7621 21.6007 15.8619 21.1916 14.8706Z" fill="white"/>
<path d="M40.6186 14.114C41.4312 13.5672 42.3985 13.2386 43.3825 13.2414C42.6058 13.8158 42.0365 14.6193 41.5307 15.4312C40.9503 16.4529 40.6159 17.596 40.3892 18.7448C40.1488 19.9321 40.1737 21.1637 39.8475 22.3345C39.5905 23.301 39.1372 24.2122 38.5264 25.0075C37.9571 25.7448 37.2938 26.4241 36.4923 26.9073C35.6106 27.443 34.6129 27.8047 33.5847 27.9207C34.4664 27.1172 35.2983 26.2501 35.9312 25.2339C36.4591 24.4055 36.8377 23.4805 37.0423 22.5195C37.2136 21.7215 37.3131 20.9097 37.385 20.0978C37.5204 18.7889 37.9184 17.5049 38.5872 16.3672C39.093 15.4864 39.7619 14.6773 40.6186 14.114Z" fill="white"/>
<path d="M14.9178 14.658C14.9261 14.658 14.9482 14.6525 14.9593 14.6525C15.2854 15.2103 15.7414 15.6824 16.2113 16.1243C16.5264 16.4197 16.8608 16.6959 17.2173 16.9416C18.5992 17.8391 20.1635 18.4162 21.7555 18.8193C22.8666 19.0927 23.9721 19.4655 24.9422 20.084C25.6967 20.5617 26.3656 21.1665 26.9377 21.8513C27.9824 23.058 28.5545 24.6789 28.4633 26.2722C27.5429 24.9633 26.4457 23.7428 25.0693 22.9006C24.0246 22.2489 22.8417 21.8734 21.6643 21.5475C20.509 21.2714 19.3648 20.8931 18.3394 20.2801C17.1427 19.5649 16.0178 18.626 15.3738 17.3641C14.9537 16.5385 14.752 15.5775 14.9178 14.658Z" fill="white"/>
<path d="M44.2198 19.1175C45.5298 18.3775 47.1605 18.0876 48.6032 18.5929C47.5833 18.9298 46.6823 19.5511 45.867 20.2359C45.0489 21.0008 44.3635 21.8982 43.7831 22.8564C43.3436 23.5716 42.9954 24.3392 42.5974 25.0793C42.0198 26.1175 41.2404 27.0536 40.2758 27.755C39.4522 28.3459 38.5457 28.8485 37.5617 29.1136C36.4479 29.4063 35.2567 29.4698 34.1318 29.2047C35.0024 28.8319 35.8648 28.426 36.6552 27.8986C37.6087 27.2718 38.4655 26.482 39.1178 25.5404C39.6512 24.77 40.0906 23.9388 40.5024 23.0994C41.3288 21.4564 42.6168 20.0343 44.2198 19.1175Z" fill="white"/>
<path d="M10.283 20.4126C10.7031 20.7771 11.1978 21.0394 11.6953 21.2797C12.2204 21.5227 12.7593 21.738 13.3204 21.8844C14.998 22.2875 16.742 22.3096 18.4556 22.1495C19.3566 22.0722 20.2714 22.0722 21.1641 22.224C22.2973 22.4063 23.3779 22.8453 24.3563 23.4363C25.694 24.2315 26.7387 25.5211 27.2196 27.0012C26.501 26.5152 25.7659 26.0402 24.9754 25.673C24.0495 25.2394 23.0656 24.9246 22.0513 24.7921C21.2498 24.6844 20.44 24.7037 19.6357 24.7313C19.0277 24.7562 18.4196 24.828 17.8116 24.8418C16.8443 24.8611 15.8742 24.7507 14.9372 24.5077C13.9063 24.2343 12.8948 23.8284 12.049 23.1657C11.1784 22.4836 10.4764 21.5199 10.283 20.4126Z" fill="white"/>
<path d="M47.6112 24.3365C48.9875 24.1598 50.4883 24.4249 51.5883 25.3113C50.5049 25.3057 49.4408 25.5902 48.4375 25.9685C47.3071 26.46 46.268 27.1393 45.3227 27.9235C44.5157 28.5807 43.8164 29.3649 42.9652 29.9696C42.136 30.5799 41.1963 31.03 40.2014 31.2979C39.2119 31.5602 38.1783 31.7065 37.1556 31.5961C36.0999 31.4856 35.0579 31.1515 34.1514 30.5965C35.3813 30.5136 36.6167 30.3562 37.7886 29.9558C38.6647 29.6714 39.4938 29.2545 40.2428 28.7188C40.8536 28.2825 41.423 27.7882 41.9757 27.2801C42.6667 26.6063 43.4212 25.9878 44.2614 25.5128C45.2951 24.9302 46.4283 24.4939 47.6112 24.3365Z" fill="white"/>
<path d="M16.3965 26.3329C17.4025 25.8911 18.4721 25.5598 19.5749 25.4714C20.4234 25.4051 21.2802 25.4576 22.1148 25.6178C23.7455 25.9077 25.2739 26.7858 26.3075 28.0809C25.0168 27.7274 23.6847 27.4651 22.3387 27.5038C20.5671 27.501 18.8867 28.1582 17.292 28.8651C15.5977 29.5996 13.7128 29.9116 11.8776 29.6769C10.6229 29.5112 9.38467 28.9838 8.51131 28.0477C8.3206 27.8572 8.19899 27.6087 8 27.4237V27.3961C9.11658 27.7523 10.3078 27.86 11.4714 27.7771C13.1877 27.6032 14.8322 27.0398 16.3965 26.3329Z" fill="white"/>
<path d="M17.9718 29.4201C18.953 28.8761 20.0502 28.5641 21.1613 28.4205C22.6316 28.2134 24.1628 28.4978 25.4784 29.1826C25.5972 29.2406 25.7133 29.3097 25.8128 29.3953C24.862 29.4615 23.9085 29.5665 22.9826 29.8039C21.9683 30.058 20.9844 30.4584 20.1055 31.0272C19.3814 31.5022 18.7236 32.0682 18.0851 32.6509C17.3223 33.3937 16.4904 34.0757 15.5479 34.5811C14.26 35.2631 12.8201 35.7519 11.3469 35.6966C10.2939 35.6607 9.22433 35.3404 8.39795 34.6722C9.26026 34.697 10.1088 34.4899 10.9296 34.2414C11.7228 34.0067 12.4469 33.6035 13.1462 33.1728C14.1191 32.568 14.9924 31.8197 15.8216 31.0327C16.4711 30.4142 17.1814 29.8509 17.9718 29.4201Z" fill="white"/>
<path d="M44.0595 30.6379C45.4829 30.2347 47.0002 30.1105 48.4595 30.3673C49.8553 30.6213 51.2344 31.3641 51.9806 32.6067C51.2427 32.3195 50.4467 32.2422 49.6618 32.1925C49.1339 32.1815 48.6005 32.1732 48.0781 32.2643C46.7736 32.4493 45.505 32.8442 44.2917 33.3578C43.4598 33.7168 42.6279 34.0923 41.7407 34.2994C40.2648 34.6722 38.6977 34.6032 37.2301 34.2249C35.8482 33.8383 34.5796 33.0237 33.6814 31.9053C34.9997 32.2671 36.3623 32.5322 37.7359 32.4825C38.8857 32.4687 40.0161 32.1925 41.0884 31.7866C42.0917 31.4332 43.0314 30.9168 44.0595 30.6379Z" fill="white"/>
<path d="M20.9512 31.4663C22.4382 30.6599 24.2181 30.4252 25.8708 30.7759C24.5387 31.3448 23.2286 32.024 22.1507 33.0071C21.1005 33.9238 20.3819 35.1416 19.7517 36.3676C19.2764 37.3838 18.6821 38.353 17.911 39.1704C17.198 39.9215 16.3744 40.587 15.4429 41.0453C14.1992 41.6556 12.7151 41.8517 11.3884 41.4016C12.3834 41.0592 13.2734 40.4655 14.0749 39.7972C15.3269 38.654 16.25 37.1988 16.9962 35.6883C17.4605 34.7136 18.0354 33.7775 18.8093 33.0209C19.4284 32.3858 20.1691 31.8805 20.9512 31.4663Z" fill="white"/>
<path d="M22.007 34.3381C23.1263 33.0706 24.7349 32.2671 26.407 32.0682C25.423 32.9629 24.4999 33.9515 23.8477 35.1195C23.0572 36.456 22.7891 38.0162 22.6454 39.5404C22.5542 40.6615 22.3027 41.7771 21.8301 42.8043C21.4183 43.6852 20.8987 44.5302 20.1939 45.2095C19.2542 46.1428 17.958 46.7475 16.623 46.7448C17.0542 46.4217 17.4218 46.0185 17.7534 45.5933C18.1183 45.1183 18.461 44.6213 18.7208 44.0773C19.4173 42.5751 19.7268 40.9294 19.8595 39.2864C19.9452 38.4276 20.1165 37.5688 20.4426 36.768C20.8019 35.8678 21.3547 35.0505 22.007 34.3381Z" fill="white"/>
<path d="M32.7776 32.985C33.7753 33.6808 34.8311 34.3049 35.9781 34.7108C36.9371 35.0615 37.9515 35.252 38.9685 35.2741C40.3422 35.3404 41.7103 35.0836 43.0811 35.1664C44.2336 35.2355 45.3751 35.5006 46.4391 35.9479C47.354 36.3373 48.208 36.9089 48.8299 37.6903C49.2638 38.2426 49.601 38.8887 49.7115 39.5874C49.3743 39.2698 48.9625 39.0434 48.5535 38.8335C47.9344 38.5242 47.2876 38.2591 46.6133 38.0879C45.4967 37.8367 44.3469 37.7234 43.2027 37.7511C42.4537 37.7511 41.7103 37.8339 40.9613 37.8753C39.6125 37.9471 38.2389 37.7649 36.9896 37.2375C36.1135 36.8647 35.2595 36.3952 34.5547 35.7408C33.7505 34.9897 33.1065 34.0426 32.7776 32.985Z" fill="white"/>
<path d="M23.9556 36.9254C24.5194 35.2631 25.7935 33.8686 27.3717 33.1065C26.7249 34.3546 26.186 35.6801 26.0257 37.0856C25.8792 38.1846 26.0312 39.2974 26.2827 40.3716C26.4071 40.9819 26.6144 41.5755 26.7415 42.1858C27.0538 43.5886 27.0262 45.0659 26.6531 46.4521C26.3794 47.4379 25.8681 48.374 25.1164 49.0726C24.641 49.5116 24.0855 49.8734 23.4691 50.0694C23.8036 49.5724 24.0081 49.0008 24.1794 48.4292C24.3232 47.9211 24.4392 47.4075 24.4835 46.8801C24.5526 45.701 24.4365 44.5164 24.1712 43.3676C23.9749 42.4647 23.6571 41.5893 23.541 40.6698C23.3531 39.4134 23.5078 38.1156 23.9556 36.9254Z" fill="white"/>
<path d="M31.5229 33.7029C32.1033 34.5037 32.7141 35.2907 33.4465 35.959C34.1762 36.63 35.0025 37.2043 35.9091 37.6102C36.7244 37.9775 37.5839 38.2371 38.449 38.4718C39.5297 38.7313 40.5965 39.0931 41.5611 39.6536C42.4648 40.181 43.3161 40.83 43.9822 41.6446C44.8251 42.6745 45.3171 44.0524 45.0739 45.3834C44.5128 44.4805 43.7196 43.7404 42.8711 43.1108C41.854 42.4315 40.7264 41.9262 39.5628 41.5507C38.5568 41.2083 37.4983 41.0343 36.5088 40.6339C35.4862 40.239 34.541 39.6453 33.7533 38.8832C33.0983 38.2426 32.5013 37.5246 32.1171 36.688C31.6832 35.7601 31.4814 34.7274 31.5229 33.7029Z" fill="white"/>
<path d="M26.9322 37.0359C27.1699 35.8126 27.778 34.6584 28.6541 33.7692C28.5629 34.5755 28.5048 35.3846 28.5574 36.1964C28.6209 37.3148 28.8752 38.4331 29.3699 39.4438C29.8204 40.3661 30.4091 41.2138 31.0199 42.0367C31.6639 42.9314 32.1835 43.9254 32.4847 44.9886C32.7971 46.0931 32.9435 47.2805 32.681 48.4099C32.5069 49.2024 32.1227 49.9424 31.581 50.5444C31.4345 50.699 31.2714 50.8371 31.136 51H31.1111C31.277 50.1661 31.2162 49.3045 31.0863 48.4678C30.9481 47.5483 30.5694 46.6895 30.1687 45.8584C29.7043 44.9361 29.1157 44.0856 28.5021 43.2572C27.7697 42.2548 27.1865 41.1172 26.9626 39.8884C26.794 38.9495 26.7609 37.9775 26.9322 37.0359Z" fill="white"/>
<path d="M30.0856 34.0012C30.2818 34.5948 30.4283 35.2106 30.6715 35.7905C31.0667 36.7929 31.6084 37.7455 32.3187 38.5574C33.0263 39.3692 33.8969 40.0126 34.773 40.6256C35.768 41.2635 36.716 42.0008 37.4677 42.9231C38.1283 43.7432 38.6976 44.6599 38.9989 45.6789C39.3527 46.8856 39.2863 48.2745 38.6009 49.3542C38.5456 48.871 38.366 48.4126 38.1725 47.9653C37.9127 47.3799 37.6032 46.811 37.219 46.2946C36.5723 45.4773 35.8233 44.74 35.0024 44.0994C34.4082 43.6272 33.7725 43.213 33.1479 42.785C32.1059 42.056 31.1773 41.1365 30.5582 40.0181C30.1298 39.2422 29.7954 38.4027 29.6434 37.5274C29.4582 36.3428 29.5991 35.1002 30.0856 34.0012Z" fill="white"/>
</g>
<defs>
<clipPath id="clip0_168_240">
<rect width="44" height="42" fill="white" transform="translate(8 9)"/>
</clipPath>
</defs>
</svg>
