<svg width="60" height="60" viewBox="0 0 60 60" fill="none" xmlns="http://www.w3.org/2000/svg">
<rect width="60" height="60" fill="#EA0B8C"/>
<path fill-rule="evenodd" clip-rule="evenodd" d="M10 16.4886H16.0742V32.6114C16.0742 35.1628 17.2543 36.6827 18.1874 37.3342C17.1995 38.2028 14.1806 38.9628 11.9302 37.117C10.6034 36.029 10 34.2399 10 32.557V16.4886ZM47.9613 29.8814V28.1871H49.8139V22.2429H47.7795C46.9985 18.6742 43.786 16 39.944 16C35.5181 16 31.9304 19.5485 31.9304 23.9257V37.8071C33.1913 37.9823 34.6935 37.7853 35.9715 36.7371C37.2981 35.6489 37.9015 33.86 37.9015 32.1771V31.6657H40.9352V25.7215H37.9015V23.9257H37.9088C37.9088 22.8141 38.8199 21.913 39.944 21.913C41.0679 21.913 41.9827 22.8141 41.9827 23.9257V29.8814C41.9827 34.2585 45.5743 37.8071 50 37.8071V31.8941C48.8761 31.8941 47.9613 30.993 47.9613 29.8814ZM24.9562 22.2429V30.9666C24.9562 31.4618 24.5407 31.8633 24.028 31.8633C23.5154 31.8633 23.0999 31.4618 23.0999 30.9666V22.2429H17.0896V32.5028C17.0896 34.3485 17.7225 36.6827 20.6026 37.4427C23.4857 38.2036 25.1582 36.6285 25.1582 36.6285C25.0059 37.6662 24.0177 38.4262 22.426 38.5891C21.2217 38.7122 19.6815 38.3177 18.9133 37.9919V43.4277C20.8709 43.9986 22.9415 44.1831 24.9679 43.7942C28.6453 43.0885 30.9663 40.0486 30.9663 36.0042V22.2429H24.9562Z" fill="white"/>
</svg>
