<svg width="60" height="60" viewBox="0 0 60 60" fill="none" xmlns="http://www.w3.org/2000/svg">
<rect width="60" height="60" fill="black"/>
<g clip-path="url(#clip0_168_441)">
<path d="M12.048 34.563L10.8242 35.7839L12.4861 36.3299L12.048 34.563Z" fill="#E3000B"/>
<path d="M12.6527 36.9424L11.7104 38.2807L13.0654 38.3723L12.6527 36.9424Z" fill="#E3000B"/>
<path d="M11.4252 32.2935L10.1797 33.3828L11.8857 34.0166L11.4252 32.2935Z" fill="#E3000B"/>
<path d="M14.0122 38.4468L11.2193 31.4538L10 30.8197L11.8551 29.648L10.0654 28.2752L12.039 27.3046L10.3727 25.8087L12.5477 25.1268L11.0616 23.4382L13.2624 22.9524L12.0656 21.0942L14.2623 20.8713L13.2763 18.8338L15.5866 18.8946L14.9197 16.8786L17.1826 17.0669L16.7095 14.9985L18.831 15.628L18.6691 13.4112L20.7785 14.3072L20.9321 12.1736L22.8395 13.3628L23.1856 11.1676L24.9348 12.5405L25.6021 10.4898L27.1544 12.0681L28.0269 10.1352L29.4124 11.8278L30.5133 10L31.6749 11.8501L32.9731 10.1924L33.859 12.1688L35.4636 10.6296L36.0822 12.7728L37.8315 11.4608L38.2132 13.6292L40.0634 12.5841L40.1377 14.8321L42.1727 13.9578L41.9879 16.2486L44.19 15.6801L43.6109 17.7971L45.7509 17.5914L44.9965 19.5853L47.2811 19.6733L46.2024 21.567L48.3644 21.7323L47.0221 23.4647L49.1628 24.0938L47.706 25.6726L49.6882 26.6089L48.0615 27.9904L49.9298 29.2194L48.1931 30.2297L49.9252 31.6204L47.9917 32.5256L49.5963 34.1876L47.5226 34.8479L48.8465 36.5928L46.7507 37.0688L47.9741 39.1246L45.6499 39.1202L46.593 41.1274L44.3915 41.0533L45.071 43.1474L42.9495 42.6845L43.4226 44.8753L41.2385 44.2452L41.3971 46.3484L39.3704 45.5178L39.3267 47.7961L37.4548 46.6327L37.0466 48.7013L35.3014 47.4116L34.608 49.4622L32.9821 47.9274L32.1878 49.8733L30.7188 48.1894L29.6225 50L28.4342 48.1198L27.0928 49.7856L26.2114 47.7175L24.6676 49.3264L24.0056 47.1626L22.2168 48.5785L21.9226 46.3443L20.1075 47.4772L20.0944 45.2556L17.9982 46.0998L18.2655 43.9042L16.0288 44.4596L16.6261 42.3822L14.4245 42.6536L15.1567 40.5976L12.9118 40.4884L14.0122 38.4468Z" fill="#E3000B"/>
<path d="M11.0134 30.7984L12.9032 30.2911L16.6698 35.8405L16.6956 35.8311L17.1083 29.1582L18.976 28.6599L21.0808 36.4746L19.8051 36.8198L18.1821 30.781L18.1559 30.7896L17.6476 37.3967L16.5472 37.6902L12.7933 32.2321H12.7716L14.3933 38.2676L13.1137 38.6083L11.0134 30.7984Z" fill="white"/>
<path d="M22.3653 27.7496L23.7996 27.3743L28.8599 34.3885L27.4216 34.7729L26.1414 32.9021L23.0763 33.7195L22.9088 35.9887L21.5237 36.3563L22.3653 27.7496ZM23.1638 32.5821L25.5092 31.9526L23.4486 28.9049H23.4396L23.4179 28.9134L23.1638 32.5821Z" fill="white"/>
<path d="M24.791 27.1029L31.0084 25.4321L31.3288 26.6131L28.886 27.2696L30.6753 33.8984L29.329 34.2614L27.5401 27.6318L25.1109 28.2839L24.791 27.1029Z" fill="white"/>
<path d="M29.8906 25.7345L36.113 24.0728L36.4285 25.2532L33.9862 25.9048L35.7755 32.534L34.4287 32.893L32.6442 26.2679L30.215 26.919L29.8906 25.7345Z" fill="white"/>
<path d="M36.6123 23.9409L41.9542 22.4976L42.2737 23.6789L38.2697 24.7583L38.8229 26.8057L42.5147 25.8126L42.813 26.9279L39.1253 27.9202L39.739 30.203L43.8125 29.1057L44.1373 30.2907L38.7171 31.7467L36.6123 23.9409Z" fill="white"/>
<path d="M42.6421 22.3189L43.984 21.9602L45.7724 28.5895L49.6755 27.5444L50 28.7251L44.7424 30.1331L42.6421 22.3189Z" fill="white"/>
</g>
<defs>
<clipPath id="clip0_168_441">
<rect width="40" height="40" fill="white" transform="translate(10 10)"/>
</clipPath>
</defs>
</svg>
