<svg width="60" height="60" viewBox="0 0 60 60" fill="none" xmlns="http://www.w3.org/2000/svg">
<rect width="60" height="60" fill="#1E3F2A"/>
<g clip-path="url(#clip0_146_181)">
<path d="M38.7537 14.3841C42.2019 14.3841 44.9989 29.0307 44.9989 47.119H50.0306C50.0306 27.645 44.9545 11.881 38.7389 11.881C35.1871 11.881 32.0497 16.6042 29.9778 24.0243C27.9059 16.6042 24.7685 11.881 21.2463 11.881C15.0306 11.881 9.96933 27.6301 9.96933 47.1041H15.001C15.001 29.0158 17.7685 14.3841 21.2167 14.3841C24.6649 14.3841 27.4619 27.9132 27.4619 44.601H32.464C32.464 27.9132 35.2759 14.3841 38.7241 14.3841" fill="#FFCC00"/>
</g>
<defs>
<clipPath id="clip0_146_181">
<rect width="42" height="37" fill="white" transform="translate(9 11)"/>
</clipPath>
</defs>
</svg>
