<svg width="60" height="60" viewBox="0 0 60 60" fill="none" xmlns="http://www.w3.org/2000/svg">
<rect width="60" height="60" fill="#074395"/>
<g clip-path="url(#clip0_150_1088)">
<path d="M9.17993 26.9233V33.2792H10.339V29.0606C10.339 28.8694 10.325 28.4228 10.2822 27.7124C10.346 28.1591 10.4308 28.5279 10.4885 28.8232L11.346 33.2792H12.5251L13.4045 28.7508C13.4657 28.4336 13.5531 28.0948 13.6178 27.7124C13.5819 28.1673 13.5609 28.6049 13.5609 29.0325V33.2792H14.7961V26.9368H12.8223L12.1493 30.7178C12.1038 30.9679 12.0356 31.3466 11.9998 31.8748C11.9884 31.4977 11.9431 31.1224 11.8643 30.754L10.9631 26.9368H9.18867L9.17993 26.9233ZM18.9376 26.9776C18.546 26.8191 18.1841 26.7402 17.8537 26.7402C16.4595 26.7402 15.6308 27.6644 15.6308 29.1349C15.6308 30.5529 16.4892 31.5142 17.747 31.5142C18.2217 31.5142 18.636 31.4435 18.9752 31.3013L18.9454 30.1125C18.7097 30.285 18.428 30.3772 18.1395 30.3762C17.4385 30.3762 17.0014 29.8752 17.0014 29.1259C17.0014 28.3602 17.4157 27.8665 18.0792 27.8665C18.3274 27.8665 18.5836 27.9462 18.8467 28.1138L18.9376 26.9776ZM20.0092 26.9368V33.2774H21.4296V30.3445L23.1035 33.2774H24.8692L22.712 29.8616L24.6691 26.9368H23.0791L21.4288 29.6894V26.9368H20.0092ZM25.7967 26.9568V33.2774H29.2931V32.0569H27.1542V30.6181H29.1821V29.4158H27.1542V28.1419H29.2931V26.9577H25.7967V26.9568ZM34.0893 27.0275C33.6104 26.8726 33.1111 26.7962 32.6094 26.8009C31.1444 26.8009 30.3577 27.5203 30.3577 28.777C30.3577 29.7148 30.8175 30.2158 31.7913 30.6254C32.4538 30.9081 32.8743 30.9905 32.8743 31.4644C32.8743 31.883 32.5308 32.1566 31.9547 32.1566C31.5492 32.1566 31.0666 32.0297 30.5369 31.7462L30.4119 33.1587C30.9384 33.3332 31.4877 33.4227 32.0404 33.4242C33.5596 33.4242 34.3542 32.6576 34.3542 31.2823C34.3542 30.6897 34.1828 30.262 33.8008 29.9159C33.4512 29.6061 32.9442 29.4421 32.3289 29.2056C31.9932 29.0787 31.8306 28.8776 31.8306 28.613C31.8306 28.2397 32.1575 28.0033 32.7572 28.0033C33.1383 28.0033 33.5439 28.112 33.9809 28.3313L34.0893 27.0275ZM38.91 27.0275C38.4308 26.8725 37.9312 26.7961 37.4293 26.8009C35.9651 26.8009 35.1776 27.5203 35.1776 28.777C35.1776 29.7148 35.6373 30.2158 36.6111 30.6254C37.2737 30.9081 37.695 30.9905 37.695 31.4644C37.695 31.883 37.3515 32.1566 36.7754 32.1566C36.3698 32.1566 35.8873 32.0297 35.3568 31.7462L35.2326 33.1587C35.7591 33.3332 36.3083 33.4228 36.8611 33.4242C38.3803 33.4242 39.1748 32.6576 39.1748 31.2823C39.1748 30.6897 39.0035 30.262 38.6215 29.9159C38.2719 29.6061 37.7649 29.4421 37.1495 29.2056C36.8139 29.0787 36.6513 28.8776 36.6513 28.613C36.6513 28.2397 36.9782 28.0033 37.5779 28.0033C37.9598 28.0033 38.3645 28.112 38.8016 28.3313L38.91 27.0275ZM42.687 26.8009C41.0113 26.8009 39.9991 28.0304 39.9991 30.1162C39.9991 32.2019 41.0043 33.4233 42.687 33.4233C44.3618 33.4233 45.367 32.2019 45.367 30.1162C45.367 28.0304 44.3618 26.8009 42.687 26.8009ZM42.687 28.0304C43.4038 28.0304 43.9177 28.8042 43.9177 30.0981C43.9177 31.4 43.4108 32.1738 42.687 32.1738C41.9615 32.1738 41.4475 31.4 41.4475 30.0981C41.4475 28.7952 41.9702 28.0304 42.687 28.0304ZM46.3993 26.9368V33.2792H47.6458V29.9449C47.6458 29.4792 47.6012 28.8513 47.5042 28.0676C47.6003 28.5505 47.7201 28.9782 47.8696 29.3515L49.429 33.2792H51.1457V26.9368H49.8992V30.5366C49.8992 30.9824 49.9447 31.5106 50.026 32.1122C49.8625 31.4562 49.7279 31.0005 49.6239 30.7459L48.1231 26.9368H46.3993Z" fill="#FEFEFD"/>
<path d="M16.1729 32.3596H18.8039V33.2865H16.1816V32.3732L16.1729 32.3596Z" fill="#FE703B"/>
</g>
<defs>
<clipPath id="clip0_150_1088">
<rect width="43" height="8" fill="white" transform="translate(9 26)"/>
</clipPath>
</defs>
</svg>
