<svg width="60" height="60" viewBox="0 0 60 60" fill="none" xmlns="http://www.w3.org/2000/svg">
<rect width="60" height="60" fill="#4A7DFF"/>
<g clip-path="url(#clip0_150_776)">
<path d="M51 28.5714C51 27.7045 50.9016 27.0086 50.8893 26.5812C50.877 26.1539 50.6434 25.2015 49.6721 25.2015C48.6885 25.2015 48.5041 26.1294 48.4057 26.5324C48.3074 26.9353 48.3197 26.9963 47.9754 27.497C47.877 27.6435 47.7664 27.8144 47.6557 27.9976C46.9057 19.4506 40.1311 12.6129 31.5615 11.7216C31.5246 11.6239 31.5 11.514 31.4877 11.4408C31.4631 11.1966 31.0943 9.98779 29.1148 9.98779C27.6762 10 26.9508 10.7082 26.8279 11.8559C23.9877 12.2955 21.3689 13.3944 19.1311 14.9939C19.1189 14.9939 19.1066 14.9817 19.0943 14.9817C18.7992 14.7863 18.0246 14.2613 17.127 14.2613C16.2172 14.2613 15.3443 14.7863 14.668 15.4579C13.6844 16.4591 13.0082 18.1319 14.5574 19.7192C13.2049 21.7582 12.2582 24.0781 11.8402 26.569C9.59016 26.8132 9 28.6203 9 29.8901C9 32.0147 10.1926 32.9426 11.9385 33.1258C13.4631 40.6471 19.7213 46.4835 27.5041 47.3993C27.5164 47.4847 27.5164 47.558 27.5164 47.6191C27.5164 48.4493 27.2336 48.9255 27.2336 49.3529C27.2336 49.5604 27.3074 49.9023 27.8607 49.9023C28.291 49.9023 28.4016 49.8046 28.7459 49.8046C29.3361 49.8046 29.7049 50 30.5164 50C30.8361 50 32.2254 49.9023 32.791 49.8657C33.0246 49.8535 33.1107 49.4872 32.8648 49.3895C32.7664 49.3407 32.1148 49.2308 31.8197 49.1331C31.5246 49.0232 30.8607 48.547 30.4672 48.3394C30.123 48.1685 29.7295 47.9731 29.4836 47.5214H29.6557C32.9385 47.5214 36.0246 46.6545 38.6803 45.1282C38.8033 45.6899 38.7049 45.812 38.9016 46.3492C39.209 47.2283 39.9221 47.4359 40.7336 47.1551C41.1762 46.9963 41.5328 46.7399 41.8156 46.6423C42.0984 46.5446 42.5779 46.569 43.4016 46.276C44.2254 45.9829 44.9262 45.6532 45.3074 45.4701C45.6516 45.3114 46.5369 44.823 46.2049 43.9072C45.8484 42.9304 45.0369 43.0891 44.5574 43.138C43.709 43.2234 43.9918 43.2234 42.5656 42.9792C42.3566 42.9426 42.1598 42.8571 41.9754 42.6984C44.791 40.0855 46.7705 36.5812 47.4467 32.6374C47.582 32.6252 47.7049 32.6129 47.7787 32.6129C48.5041 32.6129 48.9221 32.906 49.4262 32.906C50.3607 32.906 50.8893 32.1245 50.8893 31.2698C50.8893 30.8059 50.7787 30.525 50.7787 30.232C50.791 29.939 51 29.4383 51 28.5714ZM26.9508 12.9548C27.1844 13.5043 27.6025 13.9683 27.6025 14.8596C27.6025 16.044 26.1393 17.1673 26.1393 19.1087C26.1393 19.9023 26.2131 20.5983 26.3115 21.221C24.6762 20.0366 24.7869 19.6215 21.2951 19.1819L21.123 18.8767C21.123 18.8767 21.4672 18.5959 21.4672 17.9609C21.4672 17.4115 20.9016 16.7399 20.9016 16.7399C20.9016 16.5812 20.9508 16.1538 20.1885 15.5922C22.1926 14.2613 24.4918 13.3455 26.9508 12.9548ZM15.4918 16.2149C16.709 14.9084 17.8279 15.348 18.7869 16.2271C19.2541 16.6545 19.5369 16.4835 19.7459 16.6789C19.8934 16.8132 19.5861 16.9353 19.8934 17.2528C20.1148 17.4847 20.5943 17.8388 20.2869 18.1685C20.0164 18.4493 18.9344 18.8889 18.7746 18.9622C18.5902 19.0354 18.4918 19.2552 18.5779 19.4506C18.6516 19.6337 18.873 19.7192 19.0574 19.6459C19.8811 19.3651 19.9672 19.2552 19.9672 19.2552C20.3729 19.7558 20.2869 20.1465 21.0615 20.3053C22.6475 20.6349 23.6557 20.3419 25.0082 21.6728C25.4631 22.1123 26.0902 22.5031 26.6926 22.7595C27.0615 23.9805 27.4795 24.8107 27.4795 25.4212C27.4795 25.6288 27.4672 25.8242 27.4549 25.9951C27.0492 25.7143 26.8279 25.4823 26.5697 25.2137C26.459 25.0916 26.3361 24.9817 26.2008 24.8474C26.0533 24.7131 25.8197 24.5665 25.4631 24.3468C25.1926 24.1758 24.8115 23.956 24.6762 23.8217C24.5656 23.7118 24.4426 23.5653 24.2828 23.3944C23.6066 22.6374 22.6844 21.5995 21.6762 21.5995C20.9754 21.5995 20.5697 21.8193 20.4959 21.8559C20.2254 22.0024 20.127 22.3321 20.2746 22.6007C20.4221 22.8694 20.7541 22.967 21.0246 22.8327C21.0369 22.8205 21.2582 22.6984 21.6762 22.6984C22.1926 22.6984 22.9795 23.5897 23.459 24.1148C23.6189 24.2979 23.7664 24.4567 23.9016 24.591C24.1352 24.823 24.5164 25.0549 24.8975 25.2747C25.1066 25.3968 25.377 25.5678 25.4508 25.6288C25.5738 25.7387 25.6721 25.8486 25.7828 25.9585C26.1025 26.2882 26.4467 26.63 27.1352 27.0818C27.1598 27.094 27.1844 27.1184 27.209 27.1307C26.9262 27.8388 26.5082 28.0342 26.4713 29.0476V29.0354C25.4631 28.2784 25.4631 27.9121 24.6762 27.3382C24.2828 27.0574 23.9139 27.0208 22.9057 26.4835L21.3074 25.4823C17.6803 22.8327 19.2172 22.0513 17.8033 20.3053C17.1148 19.4506 16.5 19.8657 15.4918 19.072C14.5082 18.2906 14.6189 17.1551 15.4918 16.2149ZM15.4303 20.4029C15.9959 20.6716 16.6598 20.696 16.9918 21.0989C17.8156 22.1245 16.9672 23.6996 20.4959 26.2882C19.0328 26.2882 18.2951 26.8498 16.4139 28.0952L16.0943 28.0098C15.9344 26.8742 15.3074 26.7766 14.4713 26.6056C14.2992 26.4347 14.041 26.2149 13.5492 26.2149C13.2787 26.2149 13.2418 26.2759 13.0082 26.3492C13.4262 24.188 14.2746 22.1856 15.4303 20.4029ZM10.168 29.8901C10.168 28.1075 11.2008 27.6923 12.5041 27.6923C13.1311 27.6923 13.2295 27.3749 13.5123 27.3749C13.709 27.3749 13.5738 27.6679 14.0164 27.6923C14.3361 27.7045 14.9262 27.6435 14.9262 28.0952C14.9262 28.486 14.7541 28.6447 14.7541 28.8034C14.7541 29.1331 15.209 29.1697 15.5779 29.1697C16.2787 29.1697 15.959 29.2796 16.3525 29.2796C17.5205 29.2796 18.0861 27.5702 20.6066 27.3993C20.9754 27.3749 22.082 27.2894 22.082 27.2894C23.0902 27.8266 23.459 27.8633 23.8525 28.1441C24.8238 28.8401 24.6762 29.3162 26.5697 30.4274C26.8033 31.3797 27.3197 31.5507 27.5533 31.9414C26.3115 31.9414 25.4754 31.6728 25.0451 31.6728C24.0861 31.6728 22.0328 32.8083 18.9713 32.8083C16.3156 32.8083 16.0205 31.2821 14.5697 31.2821C13.1926 31.2821 13.4385 31.9658 11.9385 31.9658C10.8197 31.9658 10.168 31.2454 10.168 29.8901ZM26.7049 42.2344C26.7049 43.0525 27.0984 44.9206 27.332 46.2637C20.2008 45.2869 14.4713 39.9145 13.0451 32.9792C13.5984 32.7717 14.0287 32.442 14.6066 32.442C15.4549 32.442 16.4754 33.9683 19.0082 33.9683C22.0574 33.9683 24.1107 32.8327 25.082 32.8327C25.5246 32.8327 26.3607 33.1013 27.627 33.1013C27.5779 33.5653 27.5287 34.1636 27.5287 34.7131C27.5287 36.1905 27.75 36.6178 27.75 37.0086C27.7254 39.8413 26.7049 40.3785 26.7049 42.2344ZM29.1516 14.6276C29.2623 14.4933 29.4098 14.5055 29.5574 14.6154C29.7295 14.7497 30.6148 15.2381 31.1434 15.2381C31.6598 15.2381 31.5492 14.8962 31.5984 14.6886C31.6229 14.591 31.6967 14.4322 31.7336 14.2002C31.7459 14.1148 31.6967 13.9194 31.7582 13.8584C31.8566 13.7363 32.0902 13.8339 32.0656 13.602C32.0533 13.4188 31.8566 13.138 31.7459 12.8571C39.8975 13.8462 46.2664 20.5861 46.6107 28.8645C46.5615 28.8767 46.5246 28.8523 46.4754 28.8523C45.7377 28.8523 45.627 28.8156 43.8689 28.5714C41.2623 28.1929 42.5779 28.718 40.4754 28.1319C39.4672 27.851 39.4918 27.7656 39.0246 27.5824C38.5574 27.3871 38.2008 27.497 37.9795 27.4115C35.4098 26.4591 34.9549 26.3126 32.4221 26.1294C32.4467 25.6777 32.459 25.1404 32.459 24.4567C32.459 23.4432 32.2869 22.5397 32.1885 21.8071C32.0902 21.0745 32.0902 20.4884 31.9303 19.9756C31.2541 17.6923 30.0984 17.4237 30.0984 16.6056C30.0984 16.2515 30.209 16.7033 30.3197 15.5678C30 15.4457 29.4713 15.177 29.2623 15.0183C29.127 14.9084 29.0533 14.7619 29.1516 14.6276ZM28.4385 33.1136C28.2541 32.5641 28.3279 31.8193 28.3279 31.7827C28.3402 31.6239 28.4877 31.514 28.6352 31.5385C28.7951 31.5507 28.9057 31.6972 28.8811 31.8437C28.8811 31.8437 28.8197 32.5031 28.9672 32.9304C29.1885 33.5653 29.4836 34.1636 29.6557 34.3101C29.8279 34.4689 30.1598 34.5543 30.3566 34.5543C30.3811 34.3101 30.1844 33.663 30.0861 33.2967C29.8648 32.5397 29.7664 32.1978 30.0123 32.0147C30.0615 31.978 30.209 31.8926 30.4057 32.0024C30.2336 31.6972 30.0123 31.3919 29.5697 30.928C29.3484 30.7082 29.2746 30.293 29.3115 29.4261C29.3238 28.9377 29.3607 28.4615 29.3852 28.0464C29.4098 27.558 29.4467 27.1429 29.4467 26.801C29.4467 26.0073 29.3975 25.7631 29.3484 25.5067C29.2869 25.2137 29.2254 24.9084 29.2254 23.8828C29.2254 22.9426 29.1762 22.5153 29.1393 22.2344C29.127 22.0879 29.1025 21.978 29.1025 21.8681C29.1025 21.4286 29.1516 21.1111 29.1885 20.8059C29.2254 20.5128 29.2746 20.2198 29.2746 19.8291C29.2746 18.8767 29.1148 18.7668 28.4262 18.3028L28.4016 18.2906C28.2664 18.2051 28.2418 18.022 28.3279 17.8999C28.4139 17.7778 28.5984 17.7412 28.7213 17.8266L28.7459 17.8388C29.5205 18.3639 29.8402 18.6325 29.8402 19.8291C29.8402 20.2686 29.791 20.5861 29.7541 20.8791C29.7172 21.1844 29.668 21.4652 29.668 21.8559C29.668 21.9414 29.6803 22.0269 29.6926 22.149C29.7295 22.442 29.791 22.8938 29.791 23.8706C29.791 24.8474 29.8402 25.116 29.9016 25.3846C29.9508 25.6532 30.0123 25.9219 30.0123 26.7888C30.0123 27.1429 29.9877 27.5824 29.9508 28.0708C29.9262 28.486 29.8893 28.9622 29.877 29.4383C29.8525 30.3053 29.9385 30.4884 29.9877 30.5372C30.7131 31.2821 30.9098 31.6728 31.1803 32.2344C31.2418 32.3565 31.3033 32.4786 31.3648 32.6129C31.4262 32.7228 31.4016 32.8571 31.3033 32.9426C31.2172 33.0281 31.0697 33.0403 30.9713 32.9792C30.959 32.9792 30.75 32.8571 30.5164 32.7228C30.5533 32.8571 30.6025 33.0159 30.6393 33.138C30.8975 34.0293 31.0451 34.6032 30.8361 34.9084C30.7623 35.0183 30.6516 35.0916 30.5164 35.1038C30.2336 35.1404 29.6434 35.0427 29.2869 34.7253C28.8934 34.3834 28.5123 33.3211 28.4385 33.1136ZM29.6557 46.4225C29.5205 46.4225 29.373 46.4225 29.2377 46.4225C29.2869 44.6276 29.6557 43.3822 29.6557 42.1734C29.6557 40.232 30.6885 38.6569 30.6885 38.3028C30.6885 37.5458 31.4016 35.873 31.8074 34.4078C32.6557 35.0427 33.3934 35.3968 34.4877 35.8608C35.6066 36.337 34.5861 36.7399 35.7295 39.8413C36.3197 41.4164 37.8074 42.5641 38.3484 44.0415C35.8156 45.5556 32.8402 46.4225 29.6557 46.4225ZM42.4795 44.0415C43.8689 44.2857 43.6352 44.3223 44.9385 44.188C45.2336 44.1514 45.2336 44.3101 45.0246 44.4078C41.7172 45.9096 42.3443 45.348 41.3975 45.6288C40.7582 45.8242 40.5246 46.1539 40.1189 46.1539C39.6148 46.1539 40.0451 45.4335 39.3934 43.6508C38.8525 42.1734 37.3525 41.0134 36.7623 39.4261C35.7541 36.7155 36.7377 35.6777 35.041 34.9206C33.9467 34.4444 32.9139 33.9072 32.0533 33.2601C32.0779 33.0891 32.0902 32.9426 32.0902 32.7961C32.0902 31.5995 31.9795 29.5116 31.9795 28.8401C31.9795 28.8156 31.9795 28.779 31.9795 28.7546C36.3197 31.2454 35.0656 30.8303 37.2664 33.1258C37.4877 33.3578 38.7787 34.1026 38.7787 36.0317C38.7787 36.8376 38.7787 37.2039 39.1967 38.5104C39.6148 39.8291 40.1066 41.6606 40.4631 42.3443C40.8197 43.0281 41.2623 43.8339 42.4795 44.0415ZM41.3729 41.7582C41.0287 40.928 40.6229 39.4017 40.2541 38.2662C39.8361 36.9475 39.8361 36.5934 39.8361 35.7875C39.8361 34.2247 38.7541 33.0159 38.1885 32.4786C39.3934 32.4786 40.4508 33.4188 42.2336 33.4188C43.0082 33.4188 44.9139 33.0647 46.3033 32.8205C45.627 36.3004 43.8566 39.4017 41.3729 41.7582ZM49.7705 31.6361C49.6107 32.0635 48.7746 31.5263 47.8033 31.5263C47.0779 31.5263 43.4016 32.3321 42.2459 32.3321C40.4139 32.3321 39.8607 31.3065 37.2049 31.3065C35.0656 28.9866 33.8975 28.6569 32.2377 27.6679L32.3115 27.2161C34.6598 27.3749 35.1148 27.5092 37.6844 28.4738C37.9057 28.5592 38.2746 28.4493 38.7295 28.6447C39.1967 28.8278 39.1598 28.9377 40.1803 29.2186C42.2828 29.8046 40.9672 29.2796 43.5738 29.6581C45.3197 29.9145 45.4426 29.939 46.1803 29.939C47.3115 29.939 47.9139 29.8657 48.5902 28.718C49.3033 27.5092 49.2541 27.7412 49.5861 26.4835C49.6598 26.1905 49.8074 26.2515 49.8197 26.4713C50.0902 30.0733 49.7705 29.2918 49.709 30.2808C49.6844 30.9158 49.9057 31.2576 49.7705 31.6361Z" fill="white"/>
</g>
<defs>
<clipPath id="clip0_150_776">
<rect width="42" height="40" fill="white" transform="translate(9 10)"/>
</clipPath>
</defs>
</svg>
