<svg width="60" height="60" viewBox="0 0 60 60" fill="none" xmlns="http://www.w3.org/2000/svg">
<rect width="60" height="60" fill="white"/>
<g clip-path="url(#clip0_168_446)">
<path d="M12.0564 26.425C12.0564 29.925 12.6332 33.225 14.4388 35.95V33.575C14.4388 30.625 16.8213 28.6 19.2037 27.225C16.6959 28.125 13.9874 27.55 12.0564 26.425Z" fill="#927239"/>
<path d="M14.0877 23.9251H13.2852C13.1598 23.4751 14.4137 22.6751 14.7648 23.2501L14.0877 23.9251ZM11.5798 23.5751C12.2569 24.0251 13.1598 24.2501 14.188 24.1501C14.9905 24.7251 16.119 23.1251 17.2475 23.1251C18.9529 22.9001 21.1096 22.6751 22.2381 24.1501L21.6613 23.0251C20.0814 22.9001 18.7021 22.3501 17.4482 21.6751C14.9905 20.5251 13.7617 24.1501 11.5798 23.5751Z" fill="#927239"/>
<path d="M10.1254 17.8C10.9279 18.025 11.7053 18.25 12.5078 18.25C14.2131 17.575 14.6646 16.2 13.9874 14.4C12.9592 12.925 11.605 12.125 10.1254 11.8V17.8Z" fill="#927239"/>
<path d="M21.4858 49.9751C21.7115 49.7501 22.0626 49.4001 22.2883 49.0751C26.8275 43.1751 17.9748 39.7751 18.2006 34.1251C18.4012 31.8501 19.6551 30.1501 21.1347 28.3501L21.0344 28.2251C19.6802 29.5751 19.1034 30.5001 18.2006 31.8501C15.467 37.4001 19.3291 45.1001 15.3667 49.8501L21.4858 49.9751Z" fill="#927239"/>
<path d="M39.8933 30.0501C39.8933 38.2001 36.0313 45.3501 30.0125 50.0001H49.9999V10.1001H30.0125C36.0313 14.6501 39.8933 21.9001 39.8933 30.0501Z" fill="#927239"/>
<path d="M10.1253 49.975H13.536L14.3385 49.175C19.0031 42.825 13.4357 38.425 10.025 33.425L10.1253 49.975Z" fill="#927239"/>
<path d="M19.5548 10.1001H10.1254V10.7751C11.0282 10.9001 12.0564 11.2251 12.8589 11.5751C14.7899 12.7001 16.2696 14.5251 16.0439 16.7751L20.257 16.3251C20.8338 14.9751 21.0595 12.8251 20.4827 11.6751C20.232 11.0251 19.8809 10.4501 19.5548 10.1001Z" fill="#927239"/>
<path d="M21.4858 10.1001C22.3887 11.3501 22.3887 12.9251 22.5141 14.1751C24.2194 12.9251 26.2758 12.1251 28.4325 12.7001C26.9529 11.5751 25.9247 10.6501 24.1191 9.9751L21.4858 10.1001Z" fill="#927239"/>
<path d="M29.8872 30.3751L29.5361 31.2751L29.0846 30.1501C28.0564 30.3751 27.0282 30.7251 26.4765 31.8501C26.3511 32.2001 26.6019 32.7501 26.2508 32.9751C25.5737 32.8501 25.8997 31.7251 25.8997 31.0501C26.7022 30.2501 28.8589 28.5501 29.6614 29.2251C29.8872 29.3751 30.0125 29.9251 29.8872 30.3751ZM25.348 38.5501C24.7712 38.1001 24.9969 37.3001 24.9969 36.7501L25.348 36.4001C25.9248 38.2251 27.4044 36.0501 28.5329 36.2751C29.1097 36.0501 28.884 35.2501 29.4357 35.3751C30.3386 38.2001 26.9279 37.6251 25.348 38.5501ZM33.5235 38.8751C33.9749 35.1251 33.6489 31.1751 30.9154 28.5751C30.3386 28.4501 29.5611 28.8001 29.0846 28.2251C27.8307 29.3501 26.2508 29.8001 25.0972 31.0501C23.8433 31.4001 22.5893 30.6001 21.3354 30.3751C21.3354 30.1501 21.3354 30.0251 21.3354 29.9251C19.6301 31.0501 20.0815 33.3251 19.7555 35.0251C20.2069 36.9501 22.3636 37.7501 23.743 38.8751C25.8997 39.2251 27.8307 38.3001 29.6614 37.6251C30.0125 37.9751 30.464 38.2001 30.2383 38.6501C28.7586 40.7001 26.6019 41.6001 24.0941 41.3751C25.5737 44.2001 24.5455 47.5001 22.9655 49.9751H24.4201C28.9843 47.9501 33.1724 44.7751 33.5235 38.8751Z" fill="#927239"/>
<path d="M36.8088 23.5751C35.5548 19.2751 31.6928 13.5001 26.5768 13.8251C24.6708 13.9501 22.7398 15.4251 22.0376 16.5751C23.3918 17.3751 24.8715 18.5001 26.1254 19.6251C26 20.0751 26.3511 20.6501 25.7743 20.8751C25.0972 20.3001 24.5204 18.9501 23.6175 19.4001C24.2947 20.8751 26.1254 20.9751 27.4796 21.3251C28.0564 21.9001 27.8307 22.8001 28.9592 22.3501C29.536 22.4751 29.7617 23.1501 29.862 23.6001C28.9592 25.3001 26.4514 24.1751 25.0972 24.5001C26.2257 24.9501 27.4796 25.0751 28.5078 25.7501C29.536 26.4251 29.862 24.8501 30.3385 24.2751C32.1442 24.7251 31.141 26.6501 31.9185 27.6751C35.7805 31.6501 34.978 38.6751 33.047 43.2001C38.4138 38.5501 37.9624 27.9001 36.8088 23.5751Z" fill="#927239"/>
</g>
<defs>
<clipPath id="clip0_168_446">
<rect width="40" height="40" fill="white" transform="translate(10 10)"/>
</clipPath>
</defs>
</svg>
