<svg width="60" height="60" viewBox="0 0 60 60" fill="none" xmlns="http://www.w3.org/2000/svg">
<g clip-path="url(#clip0_150_655)">
<rect width="60" height="60" fill="white"/>
<g clip-path="url(#clip1_150_655)">
<path d="M0 12.0053H11.9965V0.00881958H0V12.0053Z" fill="#004F7F"/>
<path d="M0 24.0017H11.9965V12.0051H0V24.0017Z" fill="#0084C3"/>
<path d="M0 35.9983H11.9965V24.0017H0V35.9983Z" fill="#76CCCD"/>
<path d="M0 47.9948H11.9965V35.9983H0V47.9948Z" fill="#75C043"/>
<path d="M0 59.9914H11.9965V47.9948H0V59.9914Z" fill="#00AA4F"/>
<path d="M11.9965 59.9914H23.9931V47.9948H11.9965V59.9914Z" fill="#75C043"/>
<path d="M23.9931 59.9914H35.9896V47.9948H23.9931V59.9914Z" fill="#C4D92D"/>
<path d="M35.9896 59.9914H47.9861V47.9948H35.9896V59.9914Z" fill="#D7A96F"/>
<path d="M47.9861 59.9914H59.9827V47.9948H47.9861V59.9914Z" fill="#EEE1C5"/>
<path d="M11.9965 47.9948H23.9931V35.9983H11.9965V47.9948Z" fill="#C4D92D"/>
<path d="M23.9931 47.9948H35.9896V35.9983H23.9931V47.9948Z" fill="#EEE1C5"/>
<path d="M35.9896 47.9948H47.9861V35.9983H35.9896V47.9948Z" fill="#E2C197"/>
<path d="M47.9861 47.9948H59.9827V35.9983H47.9861V47.9948Z" fill="#D7A96F"/>
<path d="M11.9965 35.9983H23.9931V24.0017H11.9965V35.9983Z" fill="#00B3C2"/>
<path d="M23.9931 35.9983H35.9896V24.0017H23.9931V35.9983Z" fill="#E2C197"/>
<path d="M35.9896 35.9983H47.9861V24.0017H35.9896V35.9983Z" fill="#DF9D88"/>
<path d="M47.9861 35.9983H59.9827V24.0017H47.9861V35.9983Z" fill="#ED1C24"/>
<path d="M11.9965 24.0017H23.9931V12.0051H11.9965V24.0017Z" fill="#68C3EE"/>
<path d="M23.9931 24.0017H35.9896V12.0051H23.9931V24.0017Z" fill="#F58020"/>
<path d="M35.9896 24.0017H47.9861V12.0051H35.9896V24.0017Z" fill="#ED1C24"/>
<path d="M47.9861 24.0017H59.9827V12.0051H47.9861V24.0017Z" fill="#C3262D"/>
<path d="M11.9965 12.0051H23.9931V0.00866699H11.9965V12.0051Z" fill="#0084C3"/>
<path d="M23.9931 12.0051H35.9896V0.00866699H23.9931V12.0051Z" fill="#FAA61A"/>
<path d="M35.9896 12.0051H47.9861V0.00866699H35.9896V12.0051Z" fill="#C3262D"/>
<path d="M47.9861 12.0051H59.9827V0.00866699H47.9861V12.0051Z" fill="#8E181B"/>
</g>
</g>
<defs>
<clipPath id="clip0_150_655">
<rect width="60" height="60" fill="white"/>
</clipPath>
<clipPath id="clip1_150_655">
<rect width="60" height="60" fill="white"/>
</clipPath>
</defs>
</svg>
