<svg width="60" height="60" viewBox="0 0 60 60" fill="none" xmlns="http://www.w3.org/2000/svg">
<rect width="60" height="60" fill="#1D58AC"/>
<path d="M40.6135 14.3357C41.736 14.442 42.8207 15.3851 43.1398 16.4613L49.6252 31.1218C50.0213 31.9546 50.7023 32.954 50.435 34.0751L50.0742 35.587L48.1168 42.9544C47.862 44.0422 46.7659 44.9173 45.7254 45.0967L15.3757 45.1031C14.4096 45.0852 13.5418 44.7097 12.9553 43.8705C12.3701 42.889 10.1553 34.1187 10.1553 34.1187C10.0494 33.2615 10.3861 32.5119 10.7052 31.797L16.1816 19.0572L17.5261 15.9565C18.0798 14.9443 19.1279 14.4164 20.1874 14.3523L40.6261 14.3549L40.6135 14.3357Z" fill="#FEFEFD"/>
<path d="M30.3027 27.1458L34.0991 16.9148H40.4054L45.4505 34.8527H37.8829L36.6216 24.6025L32.8378 34.8527H27.7928L24.009 24.6025L22.7477 34.8527H15.1764L20.2252 16.9148H26.5315L30.3153 27.165L30.3027 27.1458Z" fill="#EC104A"/>
<path d="M16.4288 39.9742L17.009 37.4142L18.4721 37.4155L18.969 42.5407H17.8339L17.5791 39.2554C17.3924 40.3356 17.1894 41.4554 17.0279 42.5407H15.9117L15.411 39.2734C15.2697 40.3497 15.1777 41.4554 15.0578 42.5407H13.9189L14.5407 37.4104L16.0063 37.4142L16.4414 39.9935L16.4288 39.9742ZM34.0991 38.6968H33.109V42.5394L31.9915 42.5368L31.9878 38.6968H30.9813L30.9863 37.4194H34.0991V38.6968ZM35.6656 39.463L36.6216 39.472V37.4258L37.8917 37.4219V42.5381L36.6216 42.5471V40.5547H35.6668L35.6593 42.5368L34.4712 42.5394L34.475 37.4232L35.6593 37.4207L35.6656 39.463ZM45.4505 40.0447V37.4155H46.7218V42.5445H45.0822L44.2119 39.6129V42.5445H42.9279V37.4155H44.7744L45.4505 40.0447Z" fill="#1D58AC"/>
<path fill-rule="evenodd" clip-rule="evenodd" d="M22.1045 42.515L23.3683 42.5406L22.3038 37.4078H20.4686L19.4521 42.5406L20.6604 42.5342L20.8874 41.2632H21.9103L22.1159 42.5316L22.1045 42.515ZM21.0324 40.3048H21.7387L21.4045 38.5046L21.0324 40.3048ZM30.0732 42.5342L31.318 42.5406L30.2586 37.4078H28.436L27.4245 42.5406L28.6265 42.5342L28.8523 41.2632H29.8688L30.0732 42.5316V42.5342ZM28.996 40.3048H29.6998L29.3656 38.5046L28.996 40.3048ZM27.2757 39.536C27.3173 38.8518 27.2416 37.9575 26.5656 37.5897C25.8744 37.2771 24.0178 37.4398 24.0178 37.4398L24.0141 42.5406H25.2741V40.7058H25.4721L25.9968 42.5406H27.2391L26.6236 40.6494V40.5149C27.0095 40.3829 27.2025 39.9088 27.2757 39.536ZM26.0056 39.7102C26.1027 39.422 26.0888 39.0132 25.8921 38.7775C25.7231 38.657 25.2741 38.6968 25.2741 38.6968V39.9729H25.7231C25.8668 39.9486 25.9198 39.8486 25.9728 39.7615L26.0056 39.7102ZM41.9643 37.8075C42.4827 38.5558 42.4411 39.5988 42.4032 40.5469L42.3932 40.7993C42.3515 41.522 42.098 42.3446 41.34 42.5752C40.5492 42.7828 39.7281 42.8033 39.0622 42.3036C38.458 41.6873 38.4782 40.7545 38.4971 39.8627C38.5009 39.6347 38.5059 39.4091 38.4996 39.1926C38.5501 38.5622 38.6838 37.9011 39.2551 37.5398C40.0321 37.1092 41.2605 37.1169 41.9643 37.8075ZM40.4395 38.3547C40.0207 38.3547 39.6802 38.6801 39.6802 39.0824V41.0005C39.6802 41.4028 40.0207 41.7283 40.4395 41.7283C40.8595 41.7283 41.1987 41.4028 41.1987 41.0005V39.0824C41.1987 38.6801 40.8582 38.3547 40.4395 38.3547Z" fill="#1D58AC"/>
</svg>
