<svg width="60" height="60" viewBox="0 0 60 60" fill="none" xmlns="http://www.w3.org/2000/svg">
<rect width="60" height="60" fill="#ECECEC"/>
<g clip-path="url(#clip0_1772_9493)">
<path d="M49.5804 28.47V43.9367H43.1106V28.47C43.1106 25.7633 41.0174 23.6367 38.3533 23.6367C35.6893 23.6367 33.5961 25.7633 33.5961 28.47V43.9367H27.1263V28.47C27.1263 25.7633 25.0331 23.6367 22.369 23.6367C19.705 23.6367 17.6118 25.7633 17.6118 28.47V43.9367H10.9517V28.47C10.9517 22.09 15.9943 16.9667 22.2739 16.9667C25.4136 16.9667 28.268 18.32 30.266 20.35C32.2641 18.32 35.1184 16.9667 38.2582 16.9667C44.4426 16.9667 49.5804 22.09 49.5804 28.47Z" fill="url(#paint0_linear_1772_9493)"/>
</g>
<defs>
<linearGradient id="paint0_linear_1772_9493" x1="10.9517" y1="35.1526" x2="201.241" y2="35.1526" gradientUnits="userSpaceOnUse">
<stop stop-color="#1B1464"/>
<stop offset="0.056" stop-color="#172372"/>
<stop offset="0.288" stop-color="#065BA7"/>
<stop offset="0.4" stop-color="#0071BC"/>
<stop offset="0.558" stop-color="#0D8FB7"/>
<stop offset="0.722" stop-color="#17A7B3"/>
<stop offset="0.874" stop-color="#1DB6B1"/>
<stop offset="1" stop-color="#1FBBB0"/>
</linearGradient>
<clipPath id="clip0_1772_9493">
<rect width="40" height="28" fill="white" transform="translate(10 16)"/>
</clipPath>
</defs>
</svg>
