<svg width="60" height="60" viewBox="0 0 60 60" fill="none" xmlns="http://www.w3.org/2000/svg">
<rect width="60" height="60" fill="#449226"/>
<g clip-path="url(#clip0_1403_8890)">
<path fill-rule="evenodd" clip-rule="evenodd" d="M33.2854 27.188L25.0967 35.3567L29.3269 31.8726H28.8223L29.1909 31.6402L29.5597 31.3499L29.7149 30.9821V31.6402L33.2854 27.188Z" fill="black"/>
<path d="M33.2854 27.188L25.0967 35.3567L29.3269 31.8726H28.8223L29.1909 31.6402L29.5597 31.3499L29.7149 30.9821V31.6402L33.2854 27.188Z" stroke="black" stroke-width="0.000352946" stroke-miterlimit="2.6131"/>
<path fill-rule="evenodd" clip-rule="evenodd" d="M24.5728 34.8341L28.1431 31.8726H27.6968L28.1431 31.5823L29.5596 30.1691L29.7148 29.8013V30.4595L32.7613 26.685L24.5728 34.8341Z" fill="black"/>
<path d="M24.5728 34.8341L28.1431 31.8726H27.6968L28.1431 31.5823L29.5596 30.1691L29.7148 29.8013V30.4595L32.7613 26.685L24.5728 34.8341Z" stroke="black" stroke-width="0.000352946" stroke-miterlimit="2.6131"/>
<path fill-rule="evenodd" clip-rule="evenodd" d="M23.4668 33.7307L25.7564 31.8725H25.4655L25.6983 31.7176L29.5597 27.8657L29.715 27.6332V28.0206L31.5584 25.6396L23.4668 33.7307Z" fill="black"/>
<path d="M23.4668 33.7307L25.7564 31.8725H25.4655L25.6983 31.7176L29.5597 27.8657L29.715 27.6332V28.0206L31.5584 25.6396L23.4668 33.7307Z" stroke="black" stroke-width="0.000352946" stroke-miterlimit="2.6131"/>
<path fill-rule="evenodd" clip-rule="evenodd" d="M22.8652 33.2081L24.573 31.8726H24.3595L24.4953 31.7952L29.5598 26.7429L29.7733 26.4526V26.7429L31.054 25.0396L22.8652 33.2081Z" fill="black"/>
<path d="M22.8652 33.2081L24.573 31.8726H24.3595L24.4953 31.7952L29.5598 26.7429L29.7733 26.4526V26.7429L31.054 25.0396L22.8652 33.2081Z" stroke="black" stroke-width="0.000352946" stroke-miterlimit="2.6131"/>
<path fill-rule="evenodd" clip-rule="evenodd" d="M25.6982 35.9568L29.4821 32.8404L29.7149 32.3178V32.7629L30.6658 31.8726H30.297L30.8987 31.5048L33.8675 27.7882L25.6982 35.9568Z" fill="black"/>
<path d="M25.6982 35.9568L29.4821 32.8404L29.7149 32.3178V32.7629L30.6658 31.8726H30.297L30.8987 31.5048L33.8675 27.7882L25.6982 35.9568Z" stroke="black" stroke-width="0.000352946" stroke-miterlimit="2.6131"/>
<path fill-rule="evenodd" clip-rule="evenodd" d="M26.2026 36.5376L29.5596 33.7308L29.7149 33.363V33.8082L31.636 31.8726H31.2672L31.7912 31.5823L34.3913 28.3883L26.2026 36.5376Z" fill="black"/>
<path d="M26.2026 36.5376L29.5596 33.7308L29.7149 33.363V33.8082L31.636 31.8726H31.2672L31.7912 31.5823L34.3913 28.3883L26.2026 36.5376Z" stroke="black" stroke-width="0.000352946" stroke-miterlimit="2.6131"/>
<path fill-rule="evenodd" clip-rule="evenodd" d="M26.7266 37.0601L29.5596 34.7566L29.7148 34.3889V34.7566L32.6061 31.8725H32.3926L32.7613 31.6402L34.9929 28.911L26.7266 37.0601Z" fill="black"/>
<path d="M26.7266 37.0601L29.5596 34.7566L29.7148 34.3889V34.7566L32.6061 31.8725H32.3926L32.7613 31.6402L34.9929 28.911L26.7266 37.0601Z" stroke="black" stroke-width="0.000352946" stroke-miterlimit="2.6131"/>
<path fill-rule="evenodd" clip-rule="evenodd" d="M27.3281 37.5826L29.6373 35.7245L29.7149 35.4341V35.7245L33.654 31.8725H33.3435L33.7316 31.6402L35.5168 29.4141L27.3281 37.5826Z" fill="black"/>
<path d="M27.3281 37.5826L29.6373 35.7245L29.7149 35.4341V35.7245L33.654 31.8725H33.3435L33.7316 31.6402L35.5168 29.4141L27.3281 37.5826Z" stroke="black" stroke-width="0.000352946" stroke-miterlimit="2.6131"/>
<path fill-rule="evenodd" clip-rule="evenodd" d="M27.8521 38.1829L29.6372 36.7698L29.7148 36.4794V36.7698L34.6242 31.8726H34.3913L34.76 31.6403L36.0212 30.0142L27.8521 38.1829Z" fill="black"/>
<path d="M27.8521 38.1829L29.6372 36.7698L29.7148 36.4794V36.7698L34.6242 31.8726H34.3913L34.76 31.6403L36.0212 30.0142L27.8521 38.1829Z" stroke="black" stroke-width="0.000352946" stroke-miterlimit="2.6131"/>
<path fill-rule="evenodd" clip-rule="evenodd" d="M28.4341 38.7054L29.6372 37.7376L29.7147 37.5053V37.7376L35.575 31.8726H35.439L35.6525 31.7951L36.6227 30.5369L28.4341 38.7054Z" fill="black"/>
<path d="M28.4341 38.7054L29.6372 37.7376L29.7147 37.5053V37.7376L35.575 31.8726H35.439L35.6525 31.7951L36.6227 30.5369L28.4341 38.7054Z" stroke="black" stroke-width="0.000352946" stroke-miterlimit="2.6131"/>
<path fill-rule="evenodd" clip-rule="evenodd" d="M28.958 39.2861L29.6372 38.7055L29.7148 38.5506V38.7055L36.6228 31.8726H36.4675L36.6228 31.7952L37.1466 31.137L28.958 39.2861Z" fill="black"/>
<path d="M28.958 39.2861L29.6372 38.7055L29.7148 38.5506V38.7055L36.6228 31.8726H36.4675L36.6228 31.7952L37.1466 31.137L28.958 39.2861Z" stroke="black" stroke-width="0.000352946" stroke-miterlimit="2.6131"/>
<path fill-rule="evenodd" clip-rule="evenodd" d="M22.3413 32.6082L23.3116 31.8726H23.2339L29.7732 25.3494V25.4848L30.4523 24.517L22.3413 32.6082Z" fill="black"/>
<path d="M22.3413 32.6082L23.3116 31.8726H23.2339L29.7732 25.3494V25.4848L30.4523 24.517L22.3413 32.6082Z" stroke="black" stroke-width="0.000352946" stroke-miterlimit="2.6131"/>
<path fill-rule="evenodd" clip-rule="evenodd" d="M23.9712 34.3114L26.9595 31.8725H26.5908L26.8819 31.6402L29.5597 29.0465L29.7732 28.7561V29.2014L32.1599 26.1621L23.9712 34.3114Z" fill="black"/>
<path d="M23.9712 34.3114L26.9595 31.8725H26.5908L26.8819 31.6402L29.5597 29.0465L29.7732 28.7561V29.2014L32.1599 26.1621L23.9712 34.3114Z" stroke="black" stroke-width="0.000352946" stroke-miterlimit="2.6131"/>
<path fill-rule="evenodd" clip-rule="evenodd" d="M22.2873 39.3219L46.6927 15.0002H46.5764L22.2295 39.2639L22.2873 39.3219Z" fill="black"/>
<path fill-rule="evenodd" clip-rule="evenodd" d="M21.7057 38.8767L45.6411 15.0002H45.5245L21.6475 38.8187L21.7057 38.8767Z" fill="black"/>
<path fill-rule="evenodd" clip-rule="evenodd" d="M21.1816 38.2961L44.5349 15.0003H44.4186L21.1235 38.2379L21.1816 38.2961Z" fill="black"/>
<path fill-rule="evenodd" clip-rule="evenodd" d="M20.6576 37.6185L43.3495 15.0003L43.2332 15.0006L20.5996 37.5605L20.6576 37.6185Z" fill="black"/>
<path fill-rule="evenodd" clip-rule="evenodd" d="M20.0561 37.1733L42.2886 15.0003H42.172L19.998 37.1153L20.0561 37.1733Z" fill="black"/>
<path fill-rule="evenodd" clip-rule="evenodd" d="M19.4738 36.6508L41.1775 15.0003H41.0613L19.4155 36.5925L19.4738 36.6508Z" fill="black"/>
<path fill-rule="evenodd" clip-rule="evenodd" d="M18.9498 36.0698L40.0716 15.0002H39.9551L18.8916 36.0121L18.9498 36.0698Z" fill="black"/>
<path fill-rule="evenodd" clip-rule="evenodd" d="M18.3483 35.5474L38.9461 15.0002L38.8296 15.0005L18.29 35.4892L18.3483 35.5474Z" fill="black"/>
<path fill-rule="evenodd" clip-rule="evenodd" d="M17.8243 34.9474L37.8366 15.0002H37.7206L17.7666 34.8892L17.8243 34.9474Z" fill="black"/>
<path fill-rule="evenodd" clip-rule="evenodd" d="M17.32 34.4247L36.7922 15.0003H36.6759L17.2617 34.3667L17.32 34.4247Z" fill="black"/>
<path fill-rule="evenodd" clip-rule="evenodd" d="M16.7182 33.9021L35.6668 15.0003H35.5504L16.6602 33.844L16.7182 33.9021Z" fill="black"/>
<path fill-rule="evenodd" clip-rule="evenodd" d="M16.1947 33.3215L34.561 15.0003H34.4445L16.1367 33.2633L16.1947 33.3215Z" fill="black"/>
<path fill-rule="evenodd" clip-rule="evenodd" d="M15.5929 32.7987L33.4352 15L33.3187 15.0003L15.5347 32.7406L15.5929 32.7987Z" fill="black"/>
<path fill-rule="evenodd" clip-rule="evenodd" d="M15.0886 32.1987L32.3295 15.0002H32.213L15.0303 32.1406L15.0886 32.1987Z" fill="black"/>
<path fill-rule="evenodd" clip-rule="evenodd" d="M14.4869 31.676L31.2179 15.0002H31.1017L14.4292 31.6179L14.4869 31.676Z" fill="black"/>
<path fill-rule="evenodd" clip-rule="evenodd" d="M13.963 31.1726L30.1754 15.0002H30.0588L13.9048 31.1147L13.963 31.1726Z" fill="black"/>
<path fill-rule="evenodd" clip-rule="evenodd" d="M13.3612 30.5728L28.9852 15.0003H28.8691L13.3032 30.5148L13.3612 30.5728Z" fill="black"/>
<path fill-rule="evenodd" clip-rule="evenodd" d="M12.857 30.05L27.9439 15.0003H27.8275L12.7988 29.992L12.857 30.05Z" fill="black"/>
<path fill-rule="evenodd" clip-rule="evenodd" d="M22.8117 39.922L47.7949 15.0003H47.6783L22.7534 39.864L22.8117 39.922Z" fill="black"/>
<path fill-rule="evenodd" clip-rule="evenodd" d="M23.3355 40.5221L48.9202 15.0003H48.804L23.2773 40.4641L23.3355 40.5221Z" fill="black"/>
<path fill-rule="evenodd" clip-rule="evenodd" d="M23.9373 41.0254L50.0262 15.0002H49.9099L23.8789 40.9672L23.9373 41.0254Z" fill="black"/>
<path fill-rule="evenodd" clip-rule="evenodd" d="M24.461 41.6254L51.1518 15.0002H51.0353L24.4028 41.5672L24.461 41.6254Z" fill="black"/>
<path fill-rule="evenodd" clip-rule="evenodd" d="M25.043 42.1481L52.2577 15.0003H52.1415L24.9849 42.09L25.043 42.1481Z" fill="black"/>
<path fill-rule="evenodd" clip-rule="evenodd" d="M25.5671 42.748L53.3834 15.0003H53.2669L25.5088 42.6899L25.5671 42.748Z" fill="black"/>
<path fill-rule="evenodd" clip-rule="evenodd" d="M26.0907 43.2513L54.4325 15.0003H54.3162L26.0327 43.1932L26.0907 43.2513Z" fill="black"/>
<path fill-rule="evenodd" clip-rule="evenodd" d="M26.6924 43.7739L55.5372 15.0003H55.4206L26.6343 43.7158L26.6924 43.7739Z" fill="black"/>
<path fill-rule="evenodd" clip-rule="evenodd" d="M27.1968 44.3741L56.643 15.0002H56.5265L27.1387 44.3159L27.1968 44.3741Z" fill="black"/>
<path fill-rule="evenodd" clip-rule="evenodd" d="M27.7984 44.8967L57.7684 15.0003H57.6519L27.7402 44.8386L27.7984 44.8967Z" fill="black"/>
<path fill-rule="evenodd" clip-rule="evenodd" d="M28.3224 45.4773L58.8746 15.0002H58.7581L28.2642 45.4193L28.3224 45.4773Z" fill="black"/>
<path fill-rule="evenodd" clip-rule="evenodd" d="M28.924 46L60 15.0003H59.8835L28.8657 45.9419L28.924 46Z" fill="black"/>
<path fill-rule="evenodd" clip-rule="evenodd" d="M43.6862 40.2982C44.1905 40.2982 44.3848 39.7757 44.3653 39.195C44.3848 38.5949 44.1905 38.111 43.6862 38.0722H43.4066V40.2982H43.6862ZM43.6084 40.9758H42.6575V37.4722H43.6084C44.7338 37.4142 45.1219 38.1883 45.1801 39.195C45.1801 40.1047 44.7146 41.0145 43.6084 40.9758ZM38.3303 39.1562C38.2916 38.111 37.826 37.3561 36.9914 37.3367C36.06 37.3561 35.5944 38.1497 35.5751 39.195C35.5944 40.2016 36.099 41.0338 36.9914 41.0338C37.826 41.0338 38.3111 40.1821 38.3303 39.1562ZM36.9139 37.9949C37.3602 38.0142 37.5542 38.4594 37.5155 39.195C37.535 39.8338 37.3797 40.3563 36.9139 40.3757C36.5258 40.3563 36.3706 39.8338 36.4093 39.195C36.3706 38.4981 36.5258 38.0142 36.9139 37.9949ZM48.0812 39.1934C48.0424 38.1482 47.5766 37.3932 46.7422 37.3739C45.8108 37.3932 45.345 38.1869 45.3258 39.2322C45.345 40.2388 45.8496 41.071 46.7422 41.071C47.5766 41.071 48.0617 40.2194 48.0812 39.1934ZM46.6647 38.032C47.111 38.0514 47.3051 38.4966 47.266 39.2322C47.2856 39.871 47.1303 40.3935 46.6647 40.4129C46.2767 40.3935 46.1214 39.871 46.1601 39.2322C46.1214 38.5354 46.2767 38.0514 46.6647 38.032ZM38.6409 37.4142H39.3783V40.2209H40.2709V40.9758H38.6409V37.4142ZM33.6539 37.4142H35.5751V38.1497H34.9929V40.9758H34.2361V38.1497H33.6539V37.4142ZM40.5619 37.4142H42.2694V38.0722H41.3188V38.7498H42.2694V39.408H41.3188V40.2209H42.2694V40.9758H40.5619V37.4142ZM15.3556 37.4142H17.2767V38.1497H16.7721V40.9758H15.9377V38.1497H15.3556V37.4142ZM19.5857 37.4142H20.3426V40.2209H21.1575V40.9758H19.5857V37.4142ZM13.5704 37.4142H15.2004V38.0722H14.3078V38.7498H15.2004V39.408H14.3078V40.2209H15.2004V40.9758H13.5704V37.4142ZM11.6299 39.6402L12.1538 37.4142H13.2017V40.9758H12.4449V38.3626L11.921 40.9758H11.3389L10.7374 38.3626V40.9758H10V37.4142H11.1061L11.6299 39.6402ZM17.4319 37.4142H19.3723V38.1497H18.7708V40.9758H18.0334V38.1497H17.4319V37.4142ZM21.371 37.4142H23.0785V38.0722H22.1277V38.7498H23.0785V39.408H22.1277V40.2209H23.0785V40.9758H21.371V37.4142ZM24.4951 38.0722H24.204V38.9657L24.4951 38.9627C24.7473 38.9627 24.922 38.7691 24.9414 38.5175C24.922 38.2658 24.7667 38.0722 24.4951 38.0722ZM24.204 39.6096V40.9758H23.389V37.4142H24.6503C25.2324 37.3948 25.7082 37.8562 25.6982 38.5175C25.6899 39.0625 25.3877 39.3692 24.9414 39.4853L25.834 40.9758H25.0191L24.2157 39.6096H24.204Z" fill="#244BA6"/>
</g>
<defs>
<clipPath id="clip0_1403_8890">
<rect width="50" height="31" fill="white" transform="translate(10 15)"/>
</clipPath>
</defs>
</svg>
