<svg width="60" height="60" viewBox="0 0 60 60" fill="none" xmlns="http://www.w3.org/2000/svg">
<rect width="60" height="60" fill="#820AD1"/>
<g clip-path="url(#clip0_150_830)">
<path d="M16.5817 21.194C17.9098 19.809 19.6716 19 21.7413 19C25.7734 19 28.4467 21.922 28.9581 26.2994C29.1239 27.721 29.1224 29.7252 29.1208 32.0465C29.1204 32.2846 29.1204 32.526 29.1204 32.7705V41.4667H23.5756V35.0347C23.5756 35.0347 23.5643 29.5298 23.5304 28.501C23.3816 24.0201 20.709 21.2046 16.5811 21.2016C15.3357 22.5076 14.6684 24.1044 14.57 26.546C14.5565 26.8865 14.5599 28.0936 14.5644 29.6845C14.5667 30.5088 14.5693 31.4361 14.57 32.3993C14.5741 36.5917 14.57 41.4676 14.57 41.4676H9.0251V31.5688C9.0251 31.2297 9.01887 30.8876 9.01263 30.5442C9.00005 29.8534 8.98737 29.1573 9.0251 28.468C9.08775 27.3189 9.28802 26.1893 9.82822 25.14C11.0647 22.7359 13.5984 21.1881 16.2995 21.1881C16.3938 21.1881 16.4882 21.1904 16.5817 21.194Z" fill="white"/>
<path d="M50.9749 32.5321C51.0126 31.8429 51 31.1467 50.9874 30.4559C50.9811 30.1125 50.9749 29.7705 50.9749 29.4313V19.5325H45.4301C45.4301 19.5325 45.426 24.4084 45.4301 28.6008C45.4307 29.564 45.4334 30.4912 45.4357 31.3155C45.4402 32.9065 45.4436 34.1135 45.4301 34.4541C45.3317 36.8958 44.6643 38.4925 43.419 39.7986C39.2912 39.7957 36.6186 36.9799 36.4698 32.4991C36.4359 31.4703 36.4215 28.9172 36.4215 25.9603V19.5283L30.8808 19.5333V28.2296C30.8808 28.474 30.8805 28.7154 30.8805 28.9535C30.8787 31.2749 30.8773 33.279 31.0431 34.7006C31.5535 39.078 34.2268 42 38.2589 42C40.3287 42 42.0904 41.191 43.4186 39.806C43.5119 39.8096 43.6063 39.8118 43.7006 39.8118C46.4017 39.8118 48.9353 38.2639 50.1719 35.8599C50.7121 34.8105 50.9123 33.681 50.9749 32.5319L50.9749 32.5321Z" fill="white"/>
</g>
<defs>
<clipPath id="clip0_150_830">
<rect width="42" height="23" fill="white" transform="translate(9 19)"/>
</clipPath>
</defs>
</svg>
