<svg width="60" height="60" viewBox="0 0 60 60" fill="none" xmlns="http://www.w3.org/2000/svg">
<rect width="60" height="60" fill="black"/>
<g clip-path="url(#clip0_168_335)">
<path d="M9.17993 33.2657V26.9369L10.9456 26.9342V27.6681C12.0444 26.2112 14.123 27.1598 14.4333 28.7463V33.2793H12.6825V30.2712C12.6825 29.6587 12.623 28.7074 11.8127 28.7463C10.9552 28.6784 10.9456 29.7711 10.9456 30.3863V33.2793H9.18867L9.17993 33.2657ZM17.6587 26.9369C19.3082 26.9369 20.5407 28.4383 20.5407 30.1126C20.5407 31.749 19.3152 33.2793 17.6692 33.2793C16.0399 33.2793 14.7996 31.7453 14.7996 30.1009C14.7996 28.4845 16.032 26.9369 17.6587 26.9369ZM17.6684 31.8794C19.6264 31.8794 19.7645 28.3341 17.699 28.3341C15.7366 28.3341 15.5723 31.8794 17.6684 31.8794ZM22.3002 33.2793L19.6779 26.9369H21.4261L23.1743 31.4672L24.9226 26.9369H26.6708L24.0485 33.2793H22.3002ZM39.7832 26.9369H41.5305V33.2793H39.7832V32.453C39.4799 33.0174 38.9222 33.2793 38.3034 33.2793C36.8279 33.2793 36.2859 31.7616 36.2859 30.4905V26.9369H38.0341V30.0565C38.0341 30.7206 37.9913 31.4744 38.8401 31.4744C39.7159 31.4744 39.7841 30.8058 39.7841 30.0565L39.7832 26.9369ZM42.4047 33.2793V26.9369H44.1511V27.6708C44.5217 27.0783 45.2717 26.9369 45.9011 26.9369V28.4827C44.7752 28.5307 44.1511 28.8424 44.1511 30.032V33.2793H42.4047Z" fill="white"/>
<path d="M51.0636 30.7287H46.8801C47.2691 31.8595 48.7018 32.3624 49.5234 31.4672H50.9578C50.5627 32.5182 49.4037 33.2793 48.3373 33.2793C46.0497 33.2793 44.8819 30.4741 45.8924 28.5334C46.3819 27.5929 47.3128 26.9369 48.3574 26.9369C49.9395 26.9369 51.1458 28.46 51.1458 30.0311C51.1458 30.2694 51.1064 30.5077 51.0723 30.7423L51.0636 30.7287ZM46.8592 29.4712H49.8355C49.3661 28.0622 47.3609 27.9798 46.8592 29.4712Z" fill="white"/>
<path d="M28.7564 26.9233C29.8402 26.9369 30.8367 27.5349 31.3621 28.508C32.4643 30.5448 31.0885 33.2793 28.7756 33.2793C27.1305 33.2793 25.7966 31.7952 25.7966 30.1009C25.7966 28.4364 27.1226 26.9369 28.7651 26.9369L28.7564 26.9233ZM28.7756 31.8794C30.897 31.8794 30.8997 28.3341 28.8079 28.3341C26.641 28.3341 26.7171 31.8794 28.7756 31.8794Z" fill="#747BB9"/>
<path d="M34.7669 31.1319H36.2861C35.849 32.375 34.7984 33.2793 33.5099 33.2793C31.8526 33.2793 30.51 31.8024 30.51 30.09C30.51 28.3957 31.8386 26.9369 33.4785 26.9369C34.7984 26.9369 35.8919 27.8375 36.2861 29.1042H34.7756C34.4496 28.557 34.0816 28.3341 33.489 28.3341C32.5239 28.3341 31.8596 29.1259 31.8596 30.09C31.8596 31.0622 32.5502 31.8794 33.5099 31.8794C34.0396 31.8794 34.461 31.6348 34.7756 31.1455L34.7669 31.1319Z" fill="#747BB9"/>
<path d="M31.1419 28.8668C31.1419 28.8668 30.3989 29.8553 31.1069 31.0885C31.8105 29.7067 31.1506 28.8804 31.1506 28.8804L31.1419 28.8668Z" fill="black" stroke="#01375D"/>
</g>
<defs>
<clipPath id="clip0_168_335">
<rect width="43" height="8" fill="white" transform="translate(9 26)"/>
</clipPath>
</defs>
</svg>
