<svg width="60" height="60" viewBox="0 0 60 60" fill="none" xmlns="http://www.w3.org/2000/svg">
<rect width="60" height="60" fill="black"/>
<g clip-path="url(#clip0_1568_8359)">
<path d="M27.7254 9.016C26.8347 9.016 26.1414 9.41067 25.7467 10.104L19.2134 21.4853L30.0027 16.736C30.0027 16.736 31.7867 10.4 31.8854 10.0053C32.1814 9.016 33.072 9.016 33.072 9.016H27.7254Z" fill="url(#paint0_linear_1568_8359)"/>
<path d="M33.072 9.016C32.6774 9.016 32.0827 9.312 31.8854 10.0053C31.7867 10.5013 30.0027 16.736 30.0027 16.736C30.0027 16.736 32.6774 25.9387 32.776 26.336C32.8747 26.7307 33.1707 27.0267 33.6667 27.1253C33.9627 27.2267 43.2694 29.9973 43.2694 29.9973C43.2694 29.9973 34.656 10.5013 34.2614 9.70933C34.1627 9.312 33.6667 9.016 33.1707 9.016H33.072Z" fill="url(#paint1_linear_1568_8359)"/>
<path d="M9.01611 32.5707C9.11478 33.2613 9.51211 33.856 10.1041 34.2533L21.3894 40.6853L16.7388 29.9973C16.7388 29.9973 10.3041 28.1173 10.0054 28.016C9.21345 27.8187 9.01611 27.3253 9.01611 27.0267V32.5707Z" fill="url(#paint2_linear_1568_8359)"/>
<path d="M9.70945 25.6427C9.41078 25.84 9.11478 26.136 9.01611 26.632V27.0267C9.11478 27.424 9.41078 27.9173 10.0054 28.016C10.5014 28.216 16.7388 29.9973 16.7388 29.9973C16.7388 29.9973 25.9441 27.3253 26.2428 27.1253C26.6374 27.0267 27.0348 26.7307 27.1334 26.336C27.2321 25.9387 30.0028 16.736 30.0028 16.736C30.0028 16.736 10.5014 25.344 9.70945 25.6427Z" fill="url(#paint3_linear_1568_8359)"/>
<path d="M30.0027 43.2587C30.0027 43.2587 28.1227 49.592 28.0241 49.9867C27.7254 50.976 26.8347 50.976 26.8347 50.976H32.2801C33.0721 50.976 33.8641 50.4827 34.2614 49.7893L40.696 38.5067L30.0027 43.2587Z" fill="url(#paint4_linear_1568_8359)"/>
<path d="M16.7388 29.9973C16.7388 29.9973 25.3494 49.4933 25.6481 50.1867C25.8454 50.5813 26.2428 50.976 26.8348 50.976C27.3308 50.976 27.8268 50.68 28.0241 49.9867C28.2214 49.3947 30.0028 43.2587 30.0028 43.2587C30.0028 43.2587 27.2321 34.0533 27.1334 33.6587C27.0348 33.2613 26.7361 32.9653 26.3414 32.768C25.9441 32.6693 16.7388 29.9973 16.7388 29.9973Z" fill="url(#paint5_linear_1568_8359)"/>
<path d="M38.5173 19.3093L43.2693 29.9973C43.2693 29.9973 49.6053 31.7787 50 31.8773C50.992 32.1733 50.992 33.064 50.992 33.064V27.72C50.992 26.928 50.496 26.136 49.8027 25.7413L38.5173 19.3093Z" fill="url(#paint6_linear_1568_8359)"/>
<path d="M33.6667 32.768C33.2694 32.8667 32.8747 33.2613 32.776 33.6587C32.6774 34.0533 30.0027 43.2587 30.0027 43.2587C30.0027 43.2587 49.5067 34.648 50.2 34.352C50.5947 34.152 50.992 33.6587 50.992 33.1627C50.8934 32.6693 50.5947 32.0747 50 31.8773C49.408 31.7787 43.2694 29.9973 43.2694 29.9973C43.2694 29.9973 34.0614 32.6693 33.6667 32.768Z" fill="url(#paint7_linear_1568_8359)"/>
</g>
<defs>
<linearGradient id="paint0_linear_1568_8359" x1="23.9395" y1="10.5062" x2="27.4092" y2="17.8435" gradientUnits="userSpaceOnUse">
<stop stop-color="#FFB639"/>
<stop offset="0.989" stop-color="#FFD452"/>
<stop offset="1" stop-color="#FFD452"/>
</linearGradient>
<linearGradient id="paint1_linear_1568_8359" x1="41.1676" y1="31.0377" x2="29.8479" y2="11.7512" gradientUnits="userSpaceOnUse">
<stop stop-color="#FFAA2D"/>
<stop offset="0.002" stop-color="#FFAA2D"/>
<stop offset="1" stop-color="#FF8726"/>
</linearGradient>
<linearGradient id="paint2_linear_1568_8359" x1="10.4921" y1="36.0142" x2="17.8318" y2="32.5434" gradientUnits="userSpaceOnUse">
<stop stop-color="#FFB639"/>
<stop offset="0.989" stop-color="#FFD452"/>
<stop offset="1" stop-color="#FFD452"/>
</linearGradient>
<linearGradient id="paint3_linear_1568_8359" x1="31.0292" y1="18.7868" x2="11.7365" y2="30.1102" gradientUnits="userSpaceOnUse">
<stop stop-color="#FFAA2D"/>
<stop offset="0.002" stop-color="#FFAA2D"/>
<stop offset="1" stop-color="#FF8726"/>
</linearGradient>
<linearGradient id="paint4_linear_1568_8359" x1="36.0082" y1="49.4582" x2="32.5384" y2="42.1208" gradientUnits="userSpaceOnUse">
<stop stop-color="#FFB639"/>
<stop offset="0.989" stop-color="#FFD452"/>
<stop offset="1" stop-color="#FFD452"/>
</linearGradient>
<linearGradient id="paint5_linear_1568_8359" x1="18.779" y1="28.9267" x2="30.0988" y2="48.2132" gradientUnits="userSpaceOnUse">
<stop stop-color="#FFAA2D"/>
<stop offset="0.002" stop-color="#FFAA2D"/>
<stop offset="1" stop-color="#FF8726"/>
</linearGradient>
<linearGradient id="paint6_linear_1568_8359" x1="49.4555" y1="23.9492" x2="42.1158" y2="27.42" gradientUnits="userSpaceOnUse">
<stop stop-color="#FFB639"/>
<stop offset="0.989" stop-color="#FFD452"/>
<stop offset="1" stop-color="#FFD452"/>
</linearGradient>
<linearGradient id="paint7_linear_1568_8359" x1="28.9175" y1="41.1775" x2="48.2102" y2="29.8542" gradientUnits="userSpaceOnUse">
<stop stop-color="#FFAA2D"/>
<stop offset="0.002" stop-color="#FFAA2D"/>
<stop offset="1" stop-color="#FF8726"/>
</linearGradient>
<clipPath id="clip0_1568_8359">
<rect width="42" height="42" fill="white" transform="translate(9 9)"/>
</clipPath>
</defs>
</svg>
