<svg width="60" height="60" viewBox="0 0 60 60" fill="none" xmlns="http://www.w3.org/2000/svg">
<rect width="60" height="60" fill="#191919"/>
<g clip-path="url(#clip0_168_387)">
<path fill-rule="evenodd" clip-rule="evenodd" d="M31.844 9.29997L30.9903 19.8221C30.5864 19.7759 30.1826 19.7529 29.7673 19.7529C29.2481 19.7529 28.7405 19.7875 28.2444 19.8682L27.7598 14.7687C27.7482 14.6072 27.8752 14.4687 28.0367 14.4687H28.902L28.4866 9.31151C28.4751 9.14998 28.602 9.01154 28.752 9.01154H31.5787C31.7402 9.01154 31.8671 9.14998 31.844 9.31151V9.29997ZM24.7139 9.81915C24.6678 9.66917 24.5062 9.57687 24.3563 9.63456L21.7026 10.6037C21.5527 10.6614 21.4834 10.8344 21.5527 10.9729L23.7102 15.6802L22.891 15.9801C22.741 16.0378 22.6718 16.2109 22.741 16.3493L24.9447 20.9758C25.7407 20.5374 26.606 20.2028 27.5175 19.9951L24.7254 9.81915H24.7139ZM18.2068 12.7497L24.3101 21.3566C23.5371 21.8642 22.8333 22.4641 22.2334 23.1564L18.576 19.5567C18.4606 19.4413 18.4722 19.2568 18.5875 19.1529L19.2567 18.5991L15.6224 14.9187C15.5071 14.8033 15.5186 14.6187 15.6455 14.5149L17.803 12.7035C17.9299 12.5997 18.103 12.6227 18.1953 12.7497H18.2068ZM13.0842 17.7338C12.9573 17.6415 12.7727 17.6877 12.6919 17.8261L11.2844 20.272C11.2036 20.4105 11.2613 20.5836 11.3997 20.6528L16.0839 22.868L15.6455 23.6179C15.5647 23.7563 15.6224 23.9409 15.7724 23.9986L20.4335 26.133C20.7681 25.2677 21.2181 24.4601 21.7719 23.7333L13.0842 17.7338ZM9.63452 24.3794C9.6576 24.2178 9.81912 24.1255 9.96911 24.1601L20.1797 26.8253C19.9143 27.6906 19.7644 28.602 19.7413 29.5481L14.6302 29.1328C14.4687 29.1212 14.3533 28.9712 14.3879 28.8097L14.5379 27.956L9.3807 27.4714C9.21917 27.4598 9.11534 27.3099 9.13841 27.1483L9.62298 24.3678L9.63452 24.3794ZM9.25379 31.2787C9.09226 31.2903 8.98843 31.4402 9.0115 31.6018L9.50761 34.3823C9.53068 34.5438 9.69221 34.6361 9.84219 34.6015L14.8494 33.2978L14.9994 34.1515C15.0225 34.3131 15.184 34.4054 15.334 34.3707L20.272 33.0093C19.9836 32.1556 19.799 31.2441 19.7528 30.3096L9.24225 31.2787H9.25379ZM10.8921 38.5934C10.8113 38.455 10.869 38.2819 11.0075 38.2127L20.5374 33.69C20.895 34.5438 21.3796 35.3399 21.9565 36.0552L17.7799 39.0319C17.653 39.1242 17.4684 39.0895 17.3877 38.9511L16.9492 38.1896L12.6919 41.1317C12.565 41.224 12.3804 41.1778 12.2997 41.0394L10.8806 38.5934H10.8921ZM22.441 36.609L15.0225 44.1199C14.9071 44.2352 14.9187 44.4198 15.0456 44.5237L17.2146 46.335C17.3415 46.4389 17.5146 46.4158 17.6069 46.2889L20.6066 42.0662L21.2758 42.6315C21.4027 42.7354 21.5873 42.7123 21.6796 42.5738L24.587 38.3512C23.8025 37.8666 23.0756 37.2782 22.4526 36.609H22.441ZM20.9758 48.6656C20.8258 48.6079 20.7566 48.4348 20.8258 48.2964L25.2216 38.6973C26.0292 39.1126 26.906 39.4241 27.8175 39.5972L26.5253 44.5583C26.4907 44.7083 26.3176 44.8006 26.1676 44.7429L25.3485 44.4429L23.9755 49.4386C23.9294 49.5886 23.7678 49.6809 23.6179 49.6232L20.9643 48.6541L20.9758 48.6656ZM28.5443 39.7241L27.6906 50.2462C27.679 50.4077 27.8059 50.5462 27.9559 50.5462H30.7826C30.9441 50.5462 31.071 50.4077 31.0479 50.2462L30.6326 45.089H31.4979C31.6594 45.089 31.7863 44.9506 31.7748 44.789L31.2902 39.6895C30.7941 39.7703 30.2865 39.8049 29.7673 39.8049C29.3519 39.8049 28.9481 39.7818 28.5443 39.7241ZM38.7203 11.2383C38.7895 11.0883 38.7203 10.9267 38.5703 10.8691L35.9167 9.89992C35.7667 9.84223 35.6052 9.93453 35.5591 10.0845L34.1861 15.0802L33.367 14.7802C33.217 14.7226 33.0555 14.8148 33.0093 14.9648L31.7171 19.9259C32.6401 20.1105 33.5054 20.422 34.313 20.8258L38.7203 11.2383ZM44.5121 15.4263L37.0935 22.9372C36.4705 22.268 35.7552 21.6796 34.9591 21.195L37.8666 16.9723C37.9589 16.8454 38.1435 16.8108 38.2704 16.9147L38.9395 17.48L41.9393 13.2573C42.0316 13.1304 42.2162 13.1073 42.3315 13.2112L44.5006 15.0225C44.6275 15.1264 44.6275 15.311 44.5236 15.4263H44.5121ZM48.5271 21.3335C48.6771 21.2643 48.7233 21.0912 48.6425 20.9527L47.2234 18.5068C47.1426 18.3684 46.958 18.3338 46.8311 18.4145L42.5738 21.3566L42.1354 20.6066C42.0546 20.4682 41.87 20.422 41.7431 20.5259L37.5666 23.5025C38.1435 24.2178 38.6165 25.0139 38.9857 25.8677L48.5156 21.345L48.5271 21.3335ZM50.027 25.1639L50.5115 27.9444C50.5346 28.1059 50.4308 28.2444 50.2693 28.2675L39.7587 29.2481C39.7125 28.3021 39.5279 27.4022 39.2395 26.5484L44.1775 25.187C44.3275 25.1408 44.489 25.2447 44.5121 25.4062L44.6621 26.26L49.6693 24.9562C49.8193 24.9216 49.9808 25.0139 50.0039 25.1754L50.027 25.1639ZM49.5539 35.3745C49.7039 35.4091 49.8655 35.3168 49.8885 35.1553L50.3731 32.3748C50.3962 32.2133 50.2923 32.0748 50.1308 32.0517L44.9736 31.5672L45.1236 30.7134C45.1467 30.5519 45.0428 30.4134 44.8813 30.3903L39.7702 29.975C39.7472 30.9211 39.5972 31.8325 39.3318 32.6978L49.5424 35.363L49.5539 35.3745ZM46.8311 41.7201C46.7504 41.8585 46.5658 41.8931 46.4388 41.8124L37.7512 35.8129C38.305 35.0861 38.7549 34.2785 39.0895 33.4131L43.7506 35.5476C43.9006 35.6168 43.9583 35.7899 43.8775 35.9283L43.4391 36.6782L48.1233 38.8934C48.2618 38.9626 48.3194 39.1357 48.2387 39.2741L46.8311 41.7201ZM35.2129 38.1781L41.3162 46.785C41.4085 46.9119 41.5931 46.935 41.7085 46.8312L43.866 45.0198C43.9929 44.9159 43.9929 44.7313 43.8891 44.616L40.2548 40.9355L40.924 40.3817C41.0509 40.2779 41.0509 40.0933 40.9355 39.9779L37.2781 36.3783C36.6667 37.0705 35.9744 37.682 35.2014 38.1781H35.2129ZM35.1553 49.9001C35.0053 49.9578 34.8438 49.8655 34.7976 49.7155L32.0056 39.5395C32.917 39.3318 33.7823 38.9972 34.5784 38.5588L36.782 43.1853C36.8513 43.3353 36.782 43.5084 36.6321 43.5545L35.8129 43.8545L37.9704 48.5618C38.0396 48.7117 37.9704 48.8733 37.8204 48.931L35.1668 49.9001H35.1553Z" fill="white"/>
</g>
<defs>
<clipPath id="clip0_168_387">
<rect width="42" height="42" fill="white" transform="translate(9 9)"/>
</clipPath>
</defs>
</svg>
