<svg width="60" height="60" viewBox="0 0 60 60" fill="none" xmlns="http://www.w3.org/2000/svg">
<rect width="60" height="60" fill="#2659D9"/>
<g clip-path="url(#clip0_168_221)">
<path fill-rule="evenodd" clip-rule="evenodd" d="M50.8755 24.1487C50.8755 24.4297 50.5397 24.5 49.9954 24.5H41.6279V28.9757H49.1154C49.5513 28.9757 49.768 29.1162 49.768 29.327V30.0406C49.768 30.3189 49.6597 30.3973 49.2237 30.3973H41.7362V36.5676C41.7362 36.9243 41.6279 36.9946 41.0755 36.9946H39.4264C38.8713 36.9946 38.7629 36.9243 38.7629 36.5676V23.4351C38.7629 23.1541 38.8713 23.0081 39.3181 23.0081H50.4287C50.7645 23.0081 50.9838 23.0784 50.9838 23.2946V23.3649L50.8755 24.1487Z" fill="white"/>
<path fill-rule="evenodd" clip-rule="evenodd" d="M36.9595 36.6648H35.0395C34.5467 36.6648 34.4248 36.4216 34.4248 35.8621L34.2407 29.2594H34.173L31.2701 36.2324C31.0805 36.6027 30.8368 36.6648 30.5877 36.6648H29.8484C29.4774 36.6648 29.2879 36.6027 29.0442 36.2324L25.7026 29.2594H25.6403L25.5185 36.0486C25.5185 36.6027 25.2693 36.6648 24.8361 36.6648H23.233C22.7997 36.6648 22.5479 36.4811 22.5479 36.1108V36.0486L23.0434 23.8865C23.0434 23.3946 23.2925 23.2729 23.6635 23.2729H25.0852C25.5185 23.2729 25.7026 23.4567 25.8921 23.7648L30.1544 32.4675H30.2167L34.173 23.7648C34.3626 23.4567 34.5467 23.2729 34.98 23.2729H36.3393C36.7103 23.2729 36.8322 23.3946 36.8999 23.7648L37.5146 36.1108C37.5146 36.4802 37.3295 36.6648 36.9595 36.6648Z" fill="white"/>
<path fill-rule="evenodd" clip-rule="evenodd" d="M15.204 23.0135C19.2225 23.0135 21.2589 26.0378 21.2589 29.9243C21.2589 34.3108 18.7297 36.9648 15.0767 36.9648C11.18 36.9648 9.01904 34.1838 9.01904 30.0513C9.01904 25.9162 11.3668 23.0135 15.204 23.0135ZM15.204 34.3108C16.9343 34.3108 17.985 32.9486 17.985 29.9243C17.985 26.9027 16.9966 25.6054 15.1363 25.6054C13.4709 25.6054 12.2956 27.0892 12.2956 29.9243C12.2956 33.0162 13.3436 34.3108 15.204 34.3108Z" fill="white"/>
</g>
<defs>
<clipPath id="clip0_168_221">
<rect width="42" height="14" fill="white" transform="translate(9 23)"/>
</clipPath>
</defs>
</svg>
