<svg width="60" height="60" viewBox="0 0 60 60" fill="none" xmlns="http://www.w3.org/2000/svg">
<rect width="60" height="60" fill="#3A4D54"/>
<g clip-path="url(#clip0_150_1093)">
<path d="M48.578 26.9003C48.578 27.391 48.578 29.2284 48.578 29.3631C48.8266 28.555 49.754 26.8426 49.8018 26.7464H48.7405C48.6545 26.7368 48.578 26.8138 48.578 26.9003Z" fill="#DA7F3A"/>
<path d="M36.5983 27.8334C35.929 27.1216 35.1259 26.7752 34.1889 26.7752C33.2328 26.7752 32.4297 27.1312 31.7605 27.8334C31.0912 28.5453 30.7661 29.3919 30.7661 30.3924C30.7661 31.3928 31.1008 32.2298 31.7605 32.9224C32.4202 33.6343 33.2233 33.9806 34.1889 33.9806C34.906 33.9806 35.5561 33.769 36.1298 33.3457C36.7034 32.9224 37.1145 32.3741 37.3631 31.7007L37.4396 31.489C37.4683 31.4121 37.4109 31.3351 37.3344 31.3351H36.2923C36.2445 31.3351 36.2063 31.364 36.1871 31.4025L36.1489 31.489C35.9577 31.8931 35.6804 32.2105 35.3362 32.4318C34.992 32.6627 34.6096 32.7781 34.1889 32.7781C33.5675 32.7781 33.0512 32.5472 32.6209 32.0759C32.2672 31.6911 32.0473 31.2485 31.9804 30.7387C31.9708 30.6713 32.0282 30.6136 32.0951 30.6136H37.4874C37.5448 30.6136 37.6021 30.5655 37.6021 30.4982V30.3443C37.6021 29.3823 37.2675 28.5357 36.5983 27.8334ZM36.0724 29.44H32.2959C32.2098 29.44 32.162 29.3534 32.2003 29.2764C32.3532 28.9686 32.5636 28.6992 32.8217 28.4684C33.2233 28.1317 33.6726 27.9681 34.1794 27.9681C34.6861 27.9681 35.145 28.1317 35.5466 28.4684C35.8143 28.6992 36.015 28.9686 36.168 29.2764C36.2063 29.3534 36.1489 29.44 36.0724 29.44ZM29.8865 31.0658C29.7623 30.8253 29.5615 30.604 29.2842 30.402C29.2173 30.3539 29.1504 30.3058 29.0739 30.2673C28.9974 30.2192 28.9209 30.1807 28.8253 30.1422C28.6532 30.0653 28.5098 30.0076 28.4046 29.9691L27.8501 29.7863C27.2669 29.6228 26.8366 29.4304 26.5689 29.2091C26.2725 28.9686 26.2056 28.6896 26.3777 28.3625C26.4542 28.2182 26.5976 28.1028 26.7888 28.0162C27.0087 27.9296 27.2382 27.8815 27.4868 27.8815C27.8118 27.8815 28.1082 27.9777 28.3568 28.1605C28.5767 28.3337 28.6819 28.5453 28.6819 28.8147V28.9975C28.6819 29.0552 28.7297 29.0937 28.7775 29.0937H29.8196C29.877 29.0937 29.9152 29.0456 29.9152 28.9975V28.8147C29.9152 28.2182 29.6762 27.7276 29.1982 27.3236C28.7488 26.9292 28.1847 26.7368 27.4868 26.7368C26.98 26.7368 26.5211 26.8522 26.11 27.0831C25.6798 27.3236 25.3834 27.641 25.2113 28.0451C25.0201 28.5068 25.0201 28.959 25.2113 29.3823C25.4312 29.8825 25.8614 30.2769 26.5116 30.5848L26.9036 30.7387C27.047 30.7868 27.2095 30.8349 27.3816 30.8926C27.7162 30.9888 27.9457 31.0658 28.0604 31.1139C28.5863 31.3447 28.854 31.6237 28.854 31.9412C28.854 32.1817 28.7297 32.3837 28.4715 32.5569C28.1847 32.7493 27.8501 32.8455 27.4772 32.8455C27.1235 32.8455 26.7984 32.7493 26.5116 32.5472C26.2439 32.3548 26.1196 32.1336 26.1196 31.8835V31.7199C26.1196 31.6622 26.0718 31.6237 26.024 31.6237H25.0105C24.9532 31.6237 24.9149 31.6718 24.9149 31.7199V31.8835C24.9149 32.2009 24.9914 32.4895 25.1348 32.7493C25.2687 33.009 25.4694 33.2302 25.7467 33.4226C26.263 33.7882 26.8558 33.9806 27.5059 33.9806C28.1656 33.9806 28.7584 33.7978 29.2747 33.4226C29.5519 33.2206 29.7527 32.9994 29.8865 32.7493C30.03 32.4799 30.1064 32.1913 30.1064 31.8835C30.0969 31.5949 30.03 31.3159 29.8865 31.0658ZM24.217 29.8536C24.2265 29.2861 24.1309 28.3914 23.2704 27.5641C22.7064 27.0157 21.951 26.7368 21.0236 26.7368C20.0962 26.7368 19.3409 27.0157 18.7768 27.5545C17.9355 28.3722 17.8208 29.2861 17.8303 29.844C17.8303 29.8825 17.8303 33.2495 17.8208 33.8844C17.8208 33.9421 17.8686 33.9902 17.9259 33.9902H19.0541C19.1115 33.9902 19.1593 33.9421 19.1593 33.8844C19.1593 33.2399 19.1497 30.8253 19.1593 30.0268C19.1593 29.4111 19.3601 28.8435 19.6947 28.5068C19.6947 28.5068 20.2301 27.92 21.0236 27.9393C21.6164 27.9585 22.0084 28.1701 22.3622 28.5165C22.6585 28.7954 22.888 29.4496 22.8976 30.0557C22.8976 30.6617 22.8976 33.8652 22.8976 33.8652C22.8976 33.9229 22.9454 33.971 23.0027 33.971L24.1309 33.9806C24.1883 33.9806 24.2361 33.9325 24.2361 33.8748L24.217 29.8536ZM16.7308 28.4876C16.4153 27.9489 15.9946 27.516 15.4497 27.2081C14.9143 26.9003 14.2928 26.7464 13.5949 26.7464C12.8874 26.7464 12.2659 26.9003 11.7305 27.2081C11.1951 27.516 10.7744 27.9489 10.4589 28.4876C10.153 29.0359 10 29.6612 10 30.3827C10 31.085 10.153 31.7103 10.4589 32.2586C10.7649 32.807 11.1951 33.2303 11.7305 33.5381C12.2659 33.8459 12.8874 33.9998 13.5949 33.9998C14.3024 33.9998 14.9238 33.8459 15.4592 33.5381C15.9946 33.2303 16.4249 32.807 16.7213 32.2586C17.0272 31.7103 17.1802 31.0946 17.1802 30.3827C17.1897 29.6612 17.0368 29.0359 16.7308 28.4876ZM15.6218 31.643C15.4306 32.0085 15.1533 32.2971 14.8091 32.5088C14.4649 32.7204 14.0634 32.8262 13.6044 32.8262C13.1551 32.8262 12.7535 32.7204 12.3998 32.5088C12.0556 32.2971 11.7783 32.0085 11.5775 31.643C11.3768 31.2774 11.2812 30.8541 11.2812 30.3731C11.2812 29.8921 11.3768 29.4688 11.5775 29.1033C11.7783 28.7377 12.0556 28.4395 12.3998 28.2375C12.744 28.0258 13.1455 27.92 13.6044 27.92C14.0538 27.92 14.4554 28.0258 14.8091 28.2375C15.1533 28.4491 15.4306 28.7377 15.6218 29.1033C15.813 29.4688 15.9182 29.9017 15.9182 30.3731C15.9086 30.8541 15.813 31.2774 15.6218 31.643ZM49.7348 33.9421H48.7214C48.6449 33.9421 48.5875 33.8844 48.5971 33.8074C48.7023 31.9797 49.0273 29.2861 49.8878 27.439C49.8974 27.4294 49.9165 27.4294 49.9165 27.4486V33.7593C49.9069 33.8652 49.8305 33.9421 49.7348 33.9421ZM47.9087 29.4592V33.7882C47.9087 33.8844 47.8322 33.971 47.7271 33.971H46.8092C46.7136 33.971 46.6276 33.894 46.6276 33.7882V29.4592C46.6276 29.0552 46.4842 28.7089 46.1973 28.4203C45.9201 28.1413 45.5759 27.997 45.1743 27.997C44.7728 27.997 44.4286 28.1413 44.1513 28.4299C43.8645 28.7089 43.7211 29.0552 43.7211 29.4592V33.7882C43.7211 33.8844 43.6446 33.971 43.5394 33.971H42.6407C42.5451 33.971 42.459 33.894 42.459 33.7882V29.4592C42.459 29.0744 42.3156 28.7185 42.0288 28.4203C41.7324 28.1413 41.3882 27.997 40.9867 27.997C40.5851 27.997 40.2409 28.1413 39.9637 28.4203C39.6768 28.7281 39.5334 29.0744 39.5334 29.4592V33.7882C39.5334 33.8844 39.4569 33.971 39.3518 33.971H38.4435C38.3479 33.971 38.2618 33.894 38.2618 33.7882V29.4592C38.2618 28.7089 38.5295 28.0643 39.0649 27.5256C39.6004 26.9869 40.2314 26.7271 40.9867 26.7271C41.4647 26.7271 41.9236 26.8618 42.3443 27.1312C42.5642 27.2755 42.7746 27.4486 42.9562 27.641C43.0231 27.718 43.1474 27.718 43.2144 27.641C43.2813 27.5641 43.3578 27.4967 43.4247 27.4294C43.5394 27.3236 43.6733 27.2178 43.8167 27.1216C44.2374 26.8522 44.6963 26.7175 45.1743 26.7175C45.9392 26.7175 46.5798 26.9869 47.1152 27.516C47.641 28.0739 47.9087 28.7185 47.9087 29.4592Z" fill="white"/>
</g>
<defs>
<clipPath id="clip0_150_1093">
<rect width="40" height="8" fill="white" transform="translate(10 26)"/>
</clipPath>
</defs>
</svg>
