<svg width="60" height="60" viewBox="0 0 60 60" fill="none" xmlns="http://www.w3.org/2000/svg">
<rect width="60" height="60" fill="#00833E"/>
<g clip-path="url(#clip0_150_1005)">
<path d="M42.0599 10C40.6893 10 39.5679 10 39.5679 10C39.5679 10 38.4465 10 37.0759 10H12.492C11.1214 10 10 11.1214 10 12.492V46.5206C10 47.8912 11.1214 49.0127 12.492 49.0127H17.744C19.1146 49.0127 20.236 47.8912 20.236 46.5206V22.7342C20.236 21.3636 21.3574 20.2422 22.728 20.2422H36.2784C37.649 20.2422 38.7704 21.3636 38.7704 22.7342V36.2535C38.7704 37.6241 37.649 38.7455 36.2784 38.7455H28.4784C27.1078 38.7455 25.9863 39.8669 25.9863 41.2375V46.4895C25.9863 47.8601 27.1078 48.9815 28.4784 48.9815H38.7704C38.7704 48.9815 39.8918 48.9815 41.2625 48.9815H46.5144C47.885 48.9815 49.0064 47.8601 49.0064 46.4895V12.4983C49.0064 11.1276 47.885 10 46.5144 10H42.0537H42.0599Z" fill="white"/>
</g>
<defs>
<clipPath id="clip0_150_1005">
<rect width="40" height="40" fill="white" transform="translate(10 10)"/>
</clipPath>
</defs>
</svg>
