<svg width="60" height="60" viewBox="0 0 60 60" fill="none" xmlns="http://www.w3.org/2000/svg">
<rect width="60" height="60" fill="#A82736"/>
<g clip-path="url(#clip0_1772_9340)">
<path d="M11.9056 27.8458L11.9169 27.8846L20.394 28.4669L23.9654 29.7027H28.1355L28.4689 27.8458L11.9056 27.8458ZM15.6401 30.3339L21.7494 30.871L24.8556 32.1517H27.6954L28.0291 30.2951H15.6288L15.6401 30.3339ZM19.1848 32.7832L22.3091 33.0984L25.4773 34.601H27.2553L27.589 32.7448H19.1738L19.1848 32.7832ZM23.822 27.2527H28.5757L28.909 25.3958H9.23486L9.24582 25.4349L20.1589 26.123L23.822 27.2527ZM46.1097 31.2228H47.1558C47.0722 31.7602 46.6944 32.5437 45.9409 32.5437C44.8397 32.5437 45.1872 30.9291 45.2642 30.2687C45.39 29.5716 45.6602 27.4565 46.9714 27.4565C47.4726 27.4565 47.6479 28.0312 47.6097 28.3983H50.5575C50.5575 28.3983 50.5318 27.8778 50.4442 27.5146C50.0704 26.1814 49.0459 25.2307 47.3446 25.2307C44.2634 25.2307 42.816 27.7621 42.4037 30.0492C41.9818 32.3847 42.5552 34.7695 45.6508 34.7695C48.9416 34.7695 49.9537 31.9441 50.3634 29.6697L50.4204 29.2783H46.4609L46.1097 31.2228ZM42.1032 27.5666L42.4961 25.39H37.477L35.8116 34.6102H38.6561L39.2947 31.0755H41.33L41.7229 28.8992H39.6869L39.9286 27.5666H42.1032ZM33.457 28.4838C33.3331 29.1685 32.7768 29.5473 32.0024 29.5105L32.3865 27.383L32.5978 27.371C33.2949 27.371 33.5628 27.8971 33.457 28.4838ZM32.496 25.39H29.902L28.2379 34.6102H31.0821L31.6271 31.5896C34.0844 31.6508 35.8902 30.9168 36.3225 28.5198C36.7601 26.099 34.9777 25.39 32.496 25.39Z" fill="white"/>
</g>
<defs>
<clipPath id="clip0_1772_9340">
<rect width="42" height="10" fill="white" transform="translate(9 25)"/>
</clipPath>
</defs>
</svg>
