<svg width="60" height="60" viewBox="0 0 60 60" fill="none" xmlns="http://www.w3.org/2000/svg">
<rect width="60" height="60" fill="black"/>
<g clip-path="url(#clip0_150_899)">
<path d="M23.7965 15.368C28.1783 15.368 32.563 15.368 36.9478 15.368C38.2113 15.3741 39.4868 15.3254 40.7383 15.5323C42.1999 15.7634 43.6525 16.244 44.868 17.1169C46.4556 18.2241 47.575 19.9213 48.1993 21.7523C48.8025 23.4921 49.0396 25.3445 49.0876 27.1816C49.1747 28.6629 49.0576 30.1532 48.7455 31.601C48.3343 33.5081 47.47 35.3422 46.1165 36.7474C45.4532 37.4348 44.6939 38.0219 43.8626 38.4812C42.2089 39.3845 40.3361 39.862 38.4574 39.9168C37.419 39.9137 36.3776 39.9168 35.3391 39.9137C35.3391 41.7174 35.3391 43.5241 35.3391 45.3278C31.4916 45.3278 27.6441 45.3278 23.7965 45.3278C23.7965 41.2156 23.7965 37.1033 23.7965 32.9911C28.3563 32.9911 32.9152 32.9911 37.473 32.9911C37.473 29.7122 37.473 26.4344 37.473 23.1576C32.9142 23.1545 28.3553 23.1576 23.7965 23.1545C23.7965 20.56 23.7965 17.9656 23.7965 15.368Z" fill="white"/>
<path d="M10 24.6661C18.6595 24.6661 27.3179 24.6661 35.9754 24.6661C35.9774 26.9433 35.9774 29.2194 35.9754 31.4945C27.3179 31.4945 18.6595 31.4945 10 31.4945V24.6661Z" fill="white"/>
</g>
<defs>
<clipPath id="clip0_150_899">
<rect width="40" height="31" fill="white" transform="translate(10 15)"/>
</clipPath>
</defs>
</svg>
