<svg width="60" height="60" viewBox="0 0 60 60" fill="none" xmlns="http://www.w3.org/2000/svg">
<rect width="60" height="60" fill="#E60023"/>
<g clip-path="url(#clip0_168_366)">
<path d="M50.4599 30.1499C50.4599 41.5496 41.2186 50.7909 29.8189 50.7909C18.4193 50.7909 9.17798 41.5496 9.17798 30.1499C9.17798 18.7501 18.4193 9.50897 29.8189 9.50897C41.2186 9.50897 50.4599 18.7501 50.4599 30.1499Z" fill="white"/>
<path d="M29.8187 9.50848C18.4191 9.50848 9.17773 18.7498 9.17773 30.1494C9.17773 38.894 14.6183 46.3694 22.2966 49.3769C22.1162 47.7438 21.9531 45.2322 22.3682 43.4494C22.7433 41.8384 24.7886 33.1895 24.7886 33.1895C24.7886 33.1895 24.1712 31.9529 24.1712 30.1249C24.1712 27.2548 25.8347 25.112 27.9061 25.112C29.6671 25.112 30.5177 26.4342 30.5177 28.0196C30.5177 29.7906 29.3901 32.4384 28.8082 34.8921C28.322 36.9465 29.8385 38.6219 31.8648 38.6219C35.5334 38.6219 38.3534 34.7537 38.3534 29.17C38.3534 24.2278 34.8023 20.7724 29.7316 20.7724C23.8585 20.7724 20.4112 25.1775 20.4112 29.73C20.4112 31.5041 21.0946 33.4064 21.9474 34.4405C22.1161 34.6449 22.1408 34.8239 22.0905 35.0325C21.9338 35.6845 21.5856 37.0864 21.5173 37.3734C21.4273 37.7512 21.2181 37.8314 20.8269 37.6494C18.249 36.4494 16.6372 32.6803 16.6372 29.653C16.6372 23.1419 21.368 17.1622 30.2755 17.1622C37.4359 17.1622 43.0003 22.2646 43.0003 29.0835C43.0003 36.1971 38.515 41.9222 32.2895 41.9222C30.1979 41.9222 28.2316 40.8356 27.5585 39.552C27.5585 39.552 26.5235 43.493 26.2726 44.4588C25.8066 46.2516 24.5486 48.4989 23.7072 49.87C25.6385 50.4679 27.6908 50.7904 29.8187 50.7904C41.2185 50.7904 50.4598 41.5491 50.4598 30.1494C50.4598 18.7498 41.2185 9.50848 29.8187 9.50848Z" fill="#E60023"/>
</g>
<defs>
<clipPath id="clip0_168_366">
<rect width="42" height="42" fill="white" transform="translate(9 9)"/>
</clipPath>
</defs>
</svg>
