<svg width="60" height="60" viewBox="0 0 60 60" fill="none" xmlns="http://www.w3.org/2000/svg">
<rect width="60" height="60" fill="white"/>
<g clip-path="url(#clip0_150_925)">
<path d="M49.0692 24.5983C42.9169 24.5983 38.2818 28.4569 32.2746 29.1076C25.5798 29.7556 22.1049 24.4189 15.8451 23.9503C14.7575 23.878 13.7451 23.9128 12.7327 24.0574L14.3601 16.0161H50.9866M45.3767 44.9733H9.00537L10.7402 35.4887C13.7102 33.9035 16.7501 32.8565 20.3674 33.1082C26.5922 33.542 30.1047 38.8439 36.7619 38.1932C40.5645 37.7969 43.8192 36.1019 47.2216 34.913" fill="#221E1F"/>
<path d="M47.6217 31.5951C44.1817 32.9661 40.8894 34.8754 37.0519 35.344C30.3921 36.067 27.4972 32.3529 20.695 30.6927C17.2926 29.8626 14.1077 30.441 11.0678 32.2806L12.0802 27.0858C13.7102 26.5824 15.445 26.3307 17.3275 26.4726C23.5523 26.9439 26.9198 32.9661 33.577 32.2431C38.9344 31.5951 43.2418 28.0605 48.4542 27.3402L47.6217 31.5951Z" fill="#2F5C9C"/>
</g>
<defs>
<clipPath id="clip0_150_925">
<rect width="42" height="29" fill="white" transform="translate(9 16)"/>
</clipPath>
</defs>
</svg>
