<svg width="60" height="60" viewBox="0 0 60 60" fill="none" xmlns="http://www.w3.org/2000/svg">
<g clip-path="url(#clip0_168_480)">
<rect width="60" height="60" fill="#F44F00"/>
<path d="M31.1552 48.9827H21.9412C21.001 48.9811 20.0774 48.7377 19.2606 48.2762C18.4439 47.8147 17.762 47.1509 17.2817 46.3499L9.71614 33.1339C9.24709 32.3344 9 31.426 9 30.5012C9 29.5763 9.24709 28.6679 9.71614 27.8684L17.529 14.6339C18.0074 13.8311 18.6888 13.1659 19.506 12.704C20.3232 12.242 21.2478 11.9994 22.1885 12H37.8096C38.7506 11.9996 39.6755 12.2423 40.493 12.7042C41.3105 13.166 41.9924 13.8312 42.4714 14.6339L50.282 27.8684C50.7522 28.6673 51 29.5757 51 30.5006C51 31.4255 50.7522 32.3339 50.282 33.1328L48.2614 36.2847C47.3211 37.8792 45.9165 38.5938 43.9997 38.5938H34.6667L39.3332 30.5L34.6667 22.5311H25.3337L20.6672 30.5L31.1669 49L31.1552 48.9827Z" fill="#F5F7FB"/>
</g>
<defs>
<clipPath id="clip0_168_480">
<rect width="60" height="60" fill="white"/>
</clipPath>
</defs>
</svg>
