<svg width="60" height="60" viewBox="0 0 60 60" fill="none" xmlns="http://www.w3.org/2000/svg">
<rect width="60" height="60" fill="black"/>
<g clip-path="url(#clip0_150_757)">
<path d="M39.6722 19.5561L42.6041 14.4018C43.4586 12.8973 42.9577 10.9756 41.4697 10.0967C39.9816 9.23264 38.0811 9.73913 37.2265 11.2437L34.2799 16.4129C28.0184 14.4167 21.0202 16.9939 17.6021 22.9824C15.4363 26.7811 15.1564 31.1607 16.4824 35.0041L21.9041 25.4999C23.1564 23.3101 25.1601 21.7608 27.5616 21.1054C29.9631 20.4499 32.4825 20.7925 34.6483 22.0439C39.0976 24.6508 40.6299 30.4308 38.0663 34.9445C35.488 39.4582 29.7716 41.0075 25.3222 38.4006L28.4309 32.9483C29.9189 33.8123 31.8195 33.3059 32.674 31.8013C33.5285 30.2967 33.0276 28.375 31.5396 27.4961C30.0515 26.6321 28.151 27.1386 27.2964 28.6432L17.3811 46.0277C16.5266 47.5323 17.0275 49.454 18.5155 50.318C20.0036 51.182 21.9041 50.6755 22.7587 49.1709L25.6905 44.0315C31.9521 46.0277 38.9503 43.4506 42.3684 37.4621C45.8012 31.4735 44.5047 24.0549 39.6722 19.5561Z" fill="white"/>
</g>
<defs>
<clipPath id="clip0_150_757">
<rect width="30" height="42" fill="white" transform="translate(15 9)"/>
</clipPath>
</defs>
</svg>
