<svg width="60" height="60" viewBox="0 0 60 60" fill="none" xmlns="http://www.w3.org/2000/svg">
<rect width="60" height="60" fill="#07080B"/>
<path d="M13.6093 29.8207H14.5866C15.8987 29.834 17.1903 29.9903 17.1903 28.4069C17.1903 27.1699 15.9925 27.1699 14.5866 27.1699H13.6182V29.834L13.6093 29.8207ZM10.0479 23.6178H15.5935C18.589 23.6178 20.658 25.0297 20.658 28.2932C20.658 31.6465 18.8853 33.3861 15.7238 33.3861H13.6182V37.8263H10.0479M29.2384 32.4981L32.3625 23.6178H36.8352L30.8995 37.8263H27.6594L21.6497 23.6178H26.1144M46.6438 28.946V23.6178H50.2142V37.8263H46.6438V32.4981H42.1809V37.8263H38.6106V23.6178H42.1809V28.946" fill="#FEFEFD"/>
</svg>
