<svg width="60" height="60" viewBox="0 0 60 60" fill="none" xmlns="http://www.w3.org/2000/svg">
<rect width="60" height="60" fill="#D6001C"/>
<path d="M45.1365 26.1966C46.8899 26.1966 48.3112 24.8335 48.3112 23.1524C48.3112 21.471 46.8899 20.1079 45.1365 20.1079C43.3831 20.1079 41.9622 21.471 41.9622 23.1524C41.9622 24.8335 43.3831 26.1966 45.1365 26.1966ZM42.5425 41.8379H47.7305V26.1537L42.5425 29.0296V41.8379ZM19.8474 26.0981C18.094 26.0981 16.6727 27.4611 16.6727 29.1422C16.6727 30.8237 18.094 32.1867 19.8474 32.1867C21.6008 32.1867 23.0221 30.8237 23.0221 29.1422C23.0221 27.4611 21.6008 26.0981 19.8474 26.0981ZM32.6153 26.1005C31.4767 26.1005 30.3911 26.3199 29.401 26.7155V18.7075L24.2131 21.583V34.1964C24.2131 38.6677 27.9748 42.2924 32.6153 42.2924C37.2558 42.2924 41.0175 38.6677 41.0175 34.1964C41.0175 29.7252 37.2558 26.1005 32.6153 26.1005ZM32.6153 37.2409C30.8619 37.2409 29.441 35.8779 29.441 34.1964C29.441 32.5154 30.8619 31.1523 32.6153 31.1523C34.3687 31.1523 35.79 32.5154 35.79 34.1964C35.79 35.8779 34.3687 37.2409 32.6153 37.2409ZM10.7795 41.8379H15.9675V26.1538L10.7795 29.0297V41.8379Z" fill="white"/>
</svg>
