<svg width="60" height="60" viewBox="0 0 60 60" fill="none" xmlns="http://www.w3.org/2000/svg">
<g clip-path="url(#clip0_150_714)">
<path d="M29.4994 13.2775C20.2768 13.2775 14.7735 16.5916 14.7735 16.5916L14.8857 24.1383C14.8857 27.6025 15.9995 42.3421 29.4993 50.3668C43.0064 42.3421 44.1134 27.6073 44.1134 24.1375L44.225 16.5915C44.225 16.5915 38.7259 13.2775 29.4994 13.2775Z" fill="#231F20"/>
<path d="M43.6711 17.1333C43.6711 17.1333 38.8738 14.0276 29.4994 14.0276C20.1262 14.0276 15.3284 17.1333 15.3284 17.1333L15.4756 24.1377C15.4756 26.8821 15.9926 41.5835 29.4994 49.5618C43.0066 41.5848 43.5228 26.8829 43.5228 24.1377L43.6711 17.1333Z" fill="#FFF200"/>
<path d="M44.2622 14.1327L29.4994 11.583L14.7379 14.1327L14.7749 16.6497C14.7749 16.6497 22.193 13.3779 29.4994 13.3787C36.8064 13.3787 44.2244 16.6497 44.2244 16.6497L44.2622 14.1327Z" fill="#ED1C24"/>
<path d="M14.7379 13.3828V12.4833L29.5006 9.633L44.2622 12.4833V13.3834L29.4994 10.6083L14.7379 13.3828Z" fill="#009A4E"/>
<path d="M29.167 15.1895C29.167 15.1895 29.1512 15.3519 29.1132 15.4469C29.079 15.5337 28.9851 15.5937 28.9916 15.6518C28.9977 15.7106 29.0592 15.7788 29.1519 15.828C29.2446 15.8765 29.282 15.9141 29.3759 15.9387C29.4632 15.9599 29.5738 16.0262 29.6064 15.951C29.6382 15.8765 29.59 15.7829 29.5362 15.6942C29.4438 15.5406 29.3977 15.5036 29.2609 15.2906C29.2318 15.2454 29.2083 15.1955 29.167 15.1895ZM28.4752 31.8633C28.4839 31.8366 28.7037 31.976 28.8167 32.0444C29.0554 32.1891 29.1636 32.2752 29.375 32.4377C29.5407 32.5656 29.6219 32.6324 29.7907 32.7806C29.997 32.9607 30.108 33.1146 30.1637 33.0782C30.243 32.9801 30.0319 32.6943 29.8448 32.5386C29.6627 32.3876 29.4748 32.2632 29.3286 32.1644C29.142 32.0402 29.1256 32.01 28.8456 31.8194C28.5455 31.6151 28.286 31.359 28.286 31.359L27.9933 31.1247L27.5355 30.7319L27.0277 30.2552L26.6428 29.8208C26.6428 29.8208 26.3441 29.4492 26.2967 29.3789C26.2493 29.3072 26.1089 29.0777 25.9918 28.883C25.8876 28.7088 25.6867 28.4376 25.6675 28.4144C25.5593 28.2804 25.3109 28.3344 25.0233 28.1616C24.6724 27.9519 24.5884 27.7607 24.5884 27.7607C24.5884 27.7607 24.5747 27.732 24.5623 27.7169C24.5492 27.7005 24.5223 27.6825 24.5223 27.6825L24.3398 27.5513L24.2346 27.4809C24.2346 27.4809 24.154 27.414 24.0534 27.3702C23.9537 27.3258 23.7294 27.1934 23.7294 27.1934L23.3288 26.9339C23.3288 26.9339 23.1719 26.8055 23.1195 26.7632C23.0674 26.7215 22.9683 26.6642 22.9683 26.6642C22.9683 26.6642 22.9054 26.6313 22.8862 26.6307C22.8672 26.6294 22.7845 26.6211 22.7845 26.6211C22.7845 26.6211 22.7076 26.6013 22.6289 26.6949C22.5499 26.7885 22.5684 26.7387 22.6965 27.2667C22.7466 27.4764 22.7419 28.2113 22.7963 28.434C22.8666 28.7222 23.0638 29.0937 23.084 29.1375C23.1046 29.1806 23.1183 29.3418 23.1183 29.3418C23.1183 29.3418 23.1102 29.4716 23.124 29.5535C23.1846 29.9325 23.731 29.6832 23.8514 30.2036C23.9706 30.7175 23.7805 31.2303 23.7805 31.2303C23.7805 31.2303 23.6623 31.4844 23.4972 31.5255C23.3311 31.5651 23.0744 31.1928 22.8884 30.8904C22.7052 30.5939 22.5547 30.2048 22.5067 30.081C22.4583 29.958 22.4335 29.9307 22.378 29.84C22.2959 29.7075 22.229 29.7306 22.1376 29.5211C22.0458 29.31 22.1272 29.2253 22.0852 29.0415C22.0621 28.9398 22.0399 28.9289 22.0089 28.7834C21.9781 28.6379 21.9373 28.1775 21.9373 28.1775L21.8795 27.7472C21.8795 27.7472 21.8586 27.5511 21.8328 27.4289C21.7397 26.9993 21.7088 26.5839 21.7088 26.5839L21.6917 26.4138L21.6846 26.2376C21.6846 26.2376 21.6793 26.1522 21.6998 26.0655C21.7206 25.9781 21.7627 25.9058 21.7627 25.9058C21.7627 25.9058 21.8474 25.7603 21.8619 25.7247C21.8764 25.6899 22.0511 25.4843 22.0511 25.4843C22.0511 25.4843 22.1412 25.4085 22.2904 25.3142C22.4392 25.2213 22.574 25.2288 22.574 25.2288C22.574 25.2288 22.6127 25.224 22.8768 25.2575C23.1419 25.2917 23.6857 25.4378 23.8218 25.4747C23.9576 25.511 24.1185 25.5689 24.2245 25.6277C24.5267 25.7951 24.6184 25.724 24.3775 25.5335C24.2158 25.4045 24.1705 25.347 24.04 25.2255C23.93 25.1237 23.8434 25.0547 23.7615 24.9599C23.6801 24.8642 23.4448 24.5126 23.4448 24.5126L23.299 24.2927C23.299 24.2927 23.2195 24.2039 23.2071 24.197C23.195 24.1902 23.155 24.1587 23.155 24.1587C23.155 24.1587 23.0586 24.1643 22.9581 24.1437C22.8576 24.1247 22.8102 24.2673 22.8102 24.2673C22.8102 24.2673 22.5928 24.6798 22.3716 24.9326C22.0144 25.3424 21.7575 25.6217 21.6256 25.8389C21.441 26.1414 21.481 26.4728 21.3858 26.6258C21.3305 26.7159 21.3005 26.729 21.2702 26.8074C21.1775 27.045 21.5145 27.1755 21.4376 27.4392C21.315 27.8573 20.3507 28.2711 20.2227 28.2015C20.0906 28.1304 20.1988 27.5657 20.2435 27.3819C20.289 27.1982 20.4238 26.9285 20.4362 26.9141C20.4486 26.9004 20.4809 26.837 20.4914 26.783C20.5017 26.7284 20.5051 26.6067 20.5119 26.5377C20.5183 26.4701 20.5453 26.3622 20.5453 26.3622C20.5453 26.3622 20.55 26.3403 20.6346 26.1512C20.7201 25.9626 21.0339 25.5234 21.2598 25.1042C21.4063 24.8303 21.4688 24.6642 21.6167 24.3917C21.7538 24.1389 21.9871 23.7558 21.9871 23.7558C21.9871 23.7558 22.0863 23.5598 22.1329 23.4867C22.18 23.4122 22.2785 23.2703 22.3704 23.1315C22.4636 22.9929 22.4868 22.8884 22.6087 22.7742C22.71 22.6793 22.7779 22.6287 22.9095 22.5851C23.1056 22.5195 23.2399 22.5557 23.4389 22.6118C23.6473 22.6698 23.7898 22.7661 23.9252 22.8809C24.0604 22.9956 24.1615 23.1234 24.1615 23.1234L24.227 23.2218L24.2673 23.2464L24.394 23.3283L24.6825 23.523C24.6825 23.523 25.3667 23.9957 25.404 24.0209C25.4409 24.0455 25.563 24.1479 25.5882 24.1568C25.613 24.1637 25.7956 23.9634 26.1529 23.7122C26.5667 23.4213 26.7138 23.4437 26.8492 23.3679C26.985 23.2922 27.0414 23.2286 27.1474 23.1207C27.3077 22.9568 27.3084 22.8707 27.4909 22.6427C27.6741 22.4145 27.8461 22.2875 27.8461 22.2875C27.8461 22.2875 27.8709 22.2623 28.1976 21.8879C28.5245 21.5129 28.6685 21.2294 28.6685 21.2294L28.8483 20.8653C28.8483 20.8653 29.1078 20.2991 29.191 20.075C29.2741 19.8503 29.2741 19.7745 29.2741 19.7745C29.2741 19.7745 29.2865 19.7165 29.2228 19.6025C29.1586 19.4883 29.092 19.5402 28.9687 19.5662C28.73 19.6175 28.5859 19.5546 28.3459 19.5123C28.1254 19.4741 28.0105 19.4085 27.7903 19.3703C27.5671 19.332 27.4364 19.2959 27.2128 19.3176C27.1782 19.3211 27.1096 19.3347 27.0764 19.3463C26.9511 19.3893 26.9155 19.3989 26.8216 19.4535C26.7131 19.5062 26.6415 19.5231 26.5208 19.5258C26.4376 19.5272 26.3866 19.5299 26.3097 19.4993C26.2565 19.4787 26.227 19.463 26.1842 19.4247C26.1586 19.4009 26.1455 19.3859 26.1257 19.3563C26.1237 19.3317 26.116 19.3331 26.1389 19.2948C26.1607 19.2552 26.1896 19.2483 26.1896 19.2483L26.2925 19.2224C26.2925 19.2224 26.4371 19.1834 26.4492 19.1807C26.4623 19.1772 26.6 19.1315 26.6605 19.1123C26.7221 19.0925 26.7887 19.0569 26.7887 19.0569C26.7887 19.0569 26.8266 18.9975 26.8116 18.962C26.7944 18.923 26.7125 18.9203 26.7125 18.9203C26.7125 18.9203 26.5969 18.962 26.5838 18.9647C26.5714 18.9687 26.3888 19.0275 26.3888 19.0275C26.3888 19.0275 26.2443 19.0596 26.1327 19.0863C26.0208 19.1123 25.8602 19.1252 25.8602 19.1252L25.812 19.1123C25.812 19.1123 25.7562 19.0748 25.7481 19.0373C25.7404 19.0025 25.735 18.9758 25.7286 18.9369C25.7055 18.7928 25.6771 18.7047 25.7094 18.5625C25.7232 18.5031 25.737 18.471 25.7626 18.4151C25.7837 18.368 25.7976 18.342 25.825 18.2982L25.9143 18.1521L26.081 17.9015C26.1381 17.8421 26.1758 17.8127 26.2474 17.7731C26.3542 17.7123 26.4161 17.6946 26.5482 17.6795C26.6793 17.6658 26.6964 17.6672 26.8817 17.6249C27.0675 17.5826 27.1989 17.5074 27.1989 17.5074C27.1989 17.5074 27.6422 17.3421 27.9128 17.207C28.1955 17.0663 28.3201 16.9146 28.6138 16.7978C28.7378 16.7486 28.8094 16.7261 28.9376 16.6932C28.954 16.6823 28.9618 16.6721 28.9665 16.6536C28.9796 16.6059 28.9067 16.5833 28.8576 16.5888C28.8142 16.5929 28.713 16.64 28.6899 16.5894C28.6717 16.5491 28.7826 16.526 28.7826 16.526C28.7826 16.526 28.8344 16.5014 28.835 16.4714C28.8369 16.427 28.76 16.4556 28.726 16.4522C28.5546 16.4331 28.5409 16.401 28.4218 16.3709C28.2807 16.3353 28.2043 16.2917 28.0598 16.2861C27.9305 16.28 27.8098 16.3086 27.7302 16.3284C27.6496 16.3482 27.6469 16.2684 27.6784 16.2534C27.9042 16.1462 27.909 16.1366 28.0679 16.1298C28.1553 16.1264 28.2773 16.1462 28.2904 16.1523C28.3035 16.1592 28.4776 16.1504 28.5231 16.1046C28.5678 16.0595 28.3791 16.0616 28.2904 16.026C28.2091 15.9926 28.0837 15.9837 28.0867 15.9284C28.0901 15.873 28.1512 15.9032 28.194 15.8928C28.2477 15.8799 28.2801 15.8805 28.3351 15.8723C28.4349 15.8586 28.4441 15.8504 28.5918 15.8367C28.7392 15.8238 28.9506 15.8859 28.9506 15.8859C28.9506 15.8859 29.1714 15.9863 29.2802 16.0382C29.389 16.0908 29.5205 16.1168 29.5205 16.1168C29.5205 16.1168 29.6736 16.14 29.7923 16.0641C29.9116 15.989 29.8445 15.9411 29.8017 15.8729C29.7611 15.8079 29.7095 15.7166 29.7859 15.5403C29.8534 15.3867 29.8876 15.2091 29.9079 15.1926C29.9303 15.1728 30.0255 15.3095 30.0852 15.3668C30.3011 15.5717 30.5888 15.6741 30.8581 16.1045C30.8792 16.1393 30.9812 16.0839 31.2946 16.1325C31.6083 16.1817 31.8808 16.5231 31.9511 16.6044C32.0218 16.6857 32.1143 16.6829 32.1143 16.6829L32.2651 16.7027L32.8123 16.7121C32.8123 16.7121 33.0609 16.6677 33.2039 16.7223C33.3041 16.7598 33.6376 16.9866 33.4856 17.0735C33.379 17.1335 33.2788 17.001 33.1831 16.9943C33.0693 16.9868 33.0191 17.0079 32.918 17.0339C32.7057 17.0885 32.2501 17.2286 32.4153 17.2853C32.4289 17.2893 32.4503 17.2941 32.4503 17.2941L32.5336 17.3078C32.5336 17.3078 32.7336 17.3543 32.8533 17.4027C33.037 17.4765 33.1217 17.5577 33.2925 17.6582C33.3873 17.7149 33.4305 17.7716 33.5352 17.8029C33.632 17.8316 33.6931 17.8023 33.792 17.82C33.9218 17.8433 33.995 17.8692 34.1132 17.9273C34.2885 18.014 34.354 18.1178 34.5126 18.2333C34.5905 18.2913 34.6566 18.3009 34.7155 18.3788C34.7291 18.3965 34.7412 18.4047 34.7467 18.4259C34.7682 18.4976 34.6312 18.4553 34.5586 18.4437C34.4785 18.4301 34.4436 18.3897 34.3704 18.3549C34.2615 18.3038 34.2089 18.245 34.0893 18.2225C34.0019 18.2061 33.9509 18.2198 33.8621 18.2238C33.7768 18.2279 33.7299 18.2415 33.6444 18.2429C33.4971 18.245 33.4132 18.2312 33.2693 18.2012C33.1081 18.167 33.0288 18.1022 32.866 18.0687C32.6861 18.0305 32.3632 17.8727 32.3954 18.0297C32.4109 18.1062 32.5823 18.1698 32.5823 18.1698C32.5823 18.1698 32.6973 18.2348 32.8095 18.2838C32.922 18.333 32.9825 18.4074 32.9825 18.4074L33.0597 18.4662C33.0597 18.4662 33.139 18.5769 33.2418 18.7005C33.3443 18.8249 33.5231 18.8214 33.5231 18.8214C33.5231 18.8214 33.632 18.8214 33.8667 18.8699C34.1 18.9191 34.3404 19.0652 34.3404 19.0652C34.3404 19.0652 34.5233 19.1915 34.6281 19.3193C34.7337 19.4456 34.6732 19.5105 34.6605 19.5242C34.6478 19.5371 34.6512 19.5303 34.6385 19.5371C34.6258 19.5432 34.494 19.3779 34.494 19.3779L34.4011 19.296C34.4011 19.296 34.3081 19.2311 34.1893 19.1915C34.0707 19.1526 34.0326 19.1792 34.0326 19.1792C34.0326 19.1792 33.7798 19.2503 33.562 19.2441C33.3439 19.238 33.2283 19.1499 33.2283 19.1499L33.0904 19.0557C33.0904 19.0557 32.8828 18.8577 32.8762 18.9512C32.8713 19.0148 32.9676 19.0851 32.9676 19.0851C32.9676 19.0851 33.0353 19.1541 33.0792 19.1972C33.1623 19.2804 33.1959 19.3229 33.292 19.4102C33.388 19.4982 33.4488 19.4982 33.4488 19.4982C33.4488 19.4982 33.5006 19.5105 33.5198 19.514C33.5386 19.5173 33.5737 19.5276 33.5737 19.5276C33.5737 19.5276 33.606 19.5399 33.7564 19.6022C33.907 19.6643 34.0675 19.7975 34.0675 19.7975C34.0675 19.7975 34.0828 19.8111 34.1053 19.8138C34.128 19.8171 34.173 19.839 34.1857 19.8432C34.1987 19.8465 34.2371 19.8465 34.3236 19.8588C34.4098 19.8725 34.3781 19.9278 34.3781 19.9278L34.362 19.9503L34.2916 19.9988C34.2916 19.9988 34.1987 20.0255 34.1342 20.0282C34.0701 20.0315 33.9808 19.9961 33.9808 19.9961L33.7855 19.9211C33.7855 19.9211 33.5901 19.8692 33.5487 19.8623C33.5064 19.8561 33.3304 19.8206 33.3022 19.8138C33.2731 19.8069 33.1831 19.7742 33.161 19.7619C33.1382 19.7483 33.0938 19.7387 32.9888 19.6868C32.8827 19.6341 32.8403 19.5728 32.7091 19.5303C32.5782 19.488 32.498 19.4792 32.3985 19.5501C32.2293 19.6689 32.6552 19.6881 32.8685 19.7954C33.181 19.9517 33.3576 20.0679 33.433 20.2373C33.5077 20.4074 33.5837 20.4695 33.5837 20.4695C33.5837 20.4695 33.8032 20.5821 33.9035 20.7003C33.9572 20.7638 33.9661 20.8172 34.0189 20.8814C34.1406 21.0249 34.3747 21.018 34.4219 21.1403C34.4663 21.2543 34.2322 21.2031 34.11 21.1914C33.8895 21.1695 33.8368 20.9654 33.6314 20.882C33.5158 20.8355 33.4411 20.8349 33.3223 20.7945C33.1072 20.7222 33.0061 20.6271 32.7898 20.5589C32.6595 20.5185 32.4217 20.3424 32.4499 20.4776C32.4571 20.511 32.4753 20.5356 32.4853 20.5554C32.4946 20.5752 32.5494 20.6462 32.5494 20.6462C32.5494 20.6462 32.6232 20.7446 32.6555 20.7698C32.6872 20.7965 32.8276 20.9037 33.0266 21.0143C33.2256 21.1248 33.3977 21.3366 33.3977 21.3366C33.3977 21.3366 33.4568 21.4227 33.4853 21.4835C33.5145 21.5504 33.4946 21.5709 33.5387 21.6651C33.5842 21.7593 33.6062 21.7772 33.664 21.8345C33.8091 21.9779 33.9612 21.9492 34.1479 22.0271C34.1977 22.0469 34.2015 22.0557 34.2566 22.1145C34.3105 22.1733 34.2465 22.1993 34.2465 22.1993C34.2465 22.1993 34.0405 22.2519 33.9072 22.241C33.7336 22.2266 33.6574 22.1733 33.4876 22.0886C33.3185 22.004 33.2281 21.851 33.212 21.8406C33.1961 21.831 33.1549 21.7853 33.1229 21.762C33.0905 21.7401 33.0089 21.7217 32.9342 21.7005C32.8604 21.68 32.8158 21.6767 32.7417 21.6555C32.6399 21.6261 32.5336 21.5804 32.4859 21.5646C32.4375 21.5483 32.3268 21.5277 32.2472 21.5763C32.086 21.6726 32.4955 21.7388 32.6238 21.8762C32.6889 21.9473 32.7151 21.9963 32.7771 22.0688C32.8241 22.1249 32.8434 22.1645 32.902 22.2089C32.9423 22.239 33.0145 22.2704 33.0145 22.2704C33.0145 22.2704 33.1131 22.3169 33.2572 22.3974C33.4023 22.4787 33.5718 22.7069 33.5718 22.7069L33.6739 22.866L33.7356 22.9575L33.7511 22.9998L33.7733 23.0517C33.7733 23.0517 33.8471 23.1494 33.9016 23.1815C33.956 23.2142 33.9466 23.2436 33.9466 23.2436C33.9466 23.2436 33.9399 23.2634 33.9016 23.286C33.8632 23.3093 33.8434 23.2893 33.7894 23.273C33.734 23.2574 33.7001 23.2047 33.6519 23.1657C33.6035 23.1261 33.5508 23.0285 33.4625 22.9731C33.3852 22.926 33.2835 22.9089 33.2445 22.8953C33.206 22.8824 33.1102 22.8209 33.0716 22.8045C33.0333 22.7882 32.9338 22.7423 32.9338 22.7423C32.9338 22.7423 32.7402 22.6317 32.6354 22.6023C32.5291 22.5729 32.5963 22.6392 32.5963 22.6392C32.5963 22.6392 32.6923 22.7895 32.7833 22.8503C32.9016 22.9302 33.0677 23.0004 33.0141 23.0648C32.9778 23.1078 32.9279 23.0921 32.8734 23.0853C32.7847 23.0757 32.6774 22.9671 32.6774 22.9671C32.6774 22.9671 32.6329 22.9377 32.4344 22.8729C32.2354 22.8072 32.3085 22.9187 32.3536 22.9767C32.3988 23.0355 32.4602 23.0682 32.4602 23.0682L32.5935 23.1297L32.6555 23.1495C32.6555 23.1495 32.7091 23.1591 32.8893 23.2014C33.0681 23.2437 33.1677 23.3312 33.1677 23.3312C33.1677 23.3312 33.2638 23.4234 33.3979 23.5238C33.5337 23.6241 33.6674 23.6508 33.7407 23.661C33.8145 23.6699 33.8114 23.7225 33.8114 23.7225C33.8114 23.7225 33.8214 23.771 33.818 23.7873C33.8146 23.8037 33.7984 23.8167 33.7832 23.8167C33.7662 23.8167 33.7601 23.8229 33.7408 23.8331C33.7221 23.8427 33.6447 23.8556 33.6447 23.8556C33.6447 23.8556 33.4432 23.8488 33.2864 23.8106C33.1292 23.771 32.9922 23.6609 32.9785 23.6535C32.9664 23.6474 32.8185 23.5661 32.7196 23.5332C32.6195 23.5005 32.4632 23.5142 32.4474 23.5203C32.4313 23.5271 32.3767 23.5367 32.2834 23.5626C32.1908 23.5886 32.3064 23.6241 32.3064 23.6241L32.3736 23.6316L32.5336 23.6439C32.5336 23.6439 32.6967 23.6637 32.8381 23.7164C32.9783 23.7675 33.0685 23.8721 33.1611 23.9664C33.254 24.0608 33.3568 24.1227 33.3568 24.1227L33.4301 24.1712L33.469 24.2006L33.4785 24.2265C33.4785 24.2265 33.4755 24.2402 33.469 24.2559C33.4624 24.273 33.4402 24.2853 33.4402 24.2853C33.4402 24.2853 33.4047 24.2792 33.3883 24.2792C33.3722 24.2792 33.2681 24.2225 33.1908 24.1877C33.1085 24.1508 33.0677 24.1181 32.9817 24.0969C32.907 24.0785 32.8087 24.071 32.7875 24.0771C32.7649 24.0833 32.6012 24.1065 32.4757 24.1161C32.3513 24.1263 32.2408 24.1278 32.0932 24.1094C31.8812 24.0834 31.6011 23.9141 31.5655 23.9618C31.4923 24.0594 31.7166 24.0888 31.8238 24.1517C31.9723 24.2384 32.2298 24.3183 32.2298 24.3183C32.2298 24.3183 32.4168 24.3608 32.5268 24.4125C32.7677 24.5259 32.8408 24.6933 33.0339 24.8709C33.1415 24.9707 33.2262 25.013 33.3698 25.0341C33.4931 25.0518 33.4915 25.0374 33.6869 24.9986C33.8816 24.959 34.0015 24.7704 34.058 24.8387C34.0695 24.8531 34.0651 24.8646 34.0611 24.8844C34.058 24.9035 34.0421 24.9398 34.0421 24.9398C34.0421 24.9398 34.0199 24.9725 33.9848 25.008C33.9498 25.0436 33.8149 25.1187 33.7449 25.1481C33.6742 25.1775 33.5009 25.226 33.2836 25.2192C33.0653 25.2131 32.7611 25.0437 32.7611 25.0437L32.5405 24.9495C32.5405 24.9495 32.4385 24.9003 32.371 24.8744C32.1883 24.8055 32.0727 24.8115 31.8838 24.7604C31.7661 24.729 31.6914 24.6954 31.5857 24.6729C31.4796 24.651 31.5389 24.6927 31.5504 24.7092C31.6009 24.7769 31.6659 24.7986 31.7494 24.839C31.8604 24.8936 31.9382 24.8828 32.054 24.9299C32.1802 24.9831 32.2907 25.0577 32.3604 25.1027C32.4311 25.1484 32.4826 25.199 32.5501 25.272L32.7839 25.4735C32.7839 25.4735 32.8384 25.5192 32.8445 25.5384C32.8511 25.5582 32.8768 25.6067 32.8638 25.6853C32.8511 25.7637 32.7879 25.7085 32.7879 25.7085L32.7259 25.6695L32.6657 25.6107L32.5662 25.5288C32.5662 25.5288 32.4826 25.451 32.339 25.3758C32.1949 25.3014 32.0216 25.2816 32.0216 25.2816C32.0216 25.2816 31.8677 25.2584 31.8737 25.3076C31.8807 25.3568 31.9161 25.3602 32.0371 25.3922C32.1588 25.425 32.2392 25.4864 32.2392 25.4864C32.2392 25.4864 32.3644 25.5813 32.453 25.6851C32.5438 25.7897 32.5686 25.89 32.5686 25.89C32.5686 25.89 32.6137 25.9748 32.7292 26.0888C32.8442 26.2029 32.9059 26.1639 32.8985 26.2185C32.8924 26.2739 32.8405 26.2841 32.8405 26.2841C32.8405 26.2841 32.8123 26.2808 32.7996 26.2808C32.7875 26.2808 32.7572 26.2644 32.7255 26.2521C32.694 26.2385 32.5724 26.1537 32.5724 26.1537C32.5724 26.1537 32.3829 25.998 32.3601 25.9809C32.3386 25.9652 32.1588 25.8285 32.1588 25.8285C32.1588 25.8285 32.0538 25.7603 31.9766 25.7207C31.9004 25.6817 31.7978 25.6428 31.7394 25.623C31.6814 25.604 31.5767 25.5971 31.5767 25.5971C31.5767 25.5971 31.4475 25.578 31.3717 25.5486C31.2485 25.5015 31.1059 25.3683 31.0906 25.3622C31.0752 25.3554 30.9597 25.3164 30.9375 25.3199C30.9154 25.3232 30.864 25.5411 30.8522 25.6668C30.7998 26.1954 30.9381 26.5458 31.1517 27.0302C31.4629 27.7343 32.3254 28.6092 32.3254 28.6092C32.3254 28.6092 32.542 28.7349 32.6345 28.8087C32.8929 29.0144 33.3202 29.3046 33.6981 29.6885C34.0217 30.0176 34.4535 30.6026 34.4535 30.6026C34.4535 30.6026 34.7015 30.9557 34.8165 31.205C34.9584 31.5117 35.0714 31.9775 35.0714 31.9775C35.0714 31.9775 35.0815 32.0586 35.0908 32.0748C35.0995 32.0919 35.1204 32.1125 35.1367 32.1132L35.2874 32.1186C35.3033 32.1186 35.4744 32.1048 35.5871 32.0763C35.7 32.0478 35.9673 31.9239 36.1437 31.8293C36.3199 31.7355 36.5317 31.5533 36.5317 31.5533C36.5317 31.5533 36.5715 31.5189 36.7785 31.2855C36.9853 31.0518 37.1188 30.7014 37.1684 30.5702C37.2168 30.4377 37.2577 30.1857 37.2885 29.7534C37.3203 29.321 37.2624 28.8633 37.2624 28.8633C37.2624 28.8633 37.1845 28.2254 37.1371 28.0089C37.0903 27.7917 36.9771 27.4394 36.9771 27.4394C36.9771 27.4394 36.8979 27.1238 36.8721 26.925C36.8479 26.7255 36.8429 26.4026 36.8429 26.4026C36.8429 26.4026 36.8429 26.2044 36.9075 25.8384C36.9713 25.4729 37.1924 25.1055 37.1924 25.1055C37.1924 25.1055 37.2535 24.9827 37.4922 24.693C37.7342 24.3986 37.8123 24.3509 38.0516 24.1752C38.2408 24.0359 38.4878 23.8139 38.5676 23.8658C38.6565 23.9231 38.4807 24.0359 38.4227 24.0945C38.2733 24.2441 37.9931 24.5111 37.7665 24.9114C37.5696 25.2584 37.4964 25.4879 37.4465 25.7139C37.3975 25.9407 37.4183 26.1879 37.4243 26.2733C37.4313 26.3579 37.4776 26.3273 37.4776 26.3273C37.4776 26.3273 37.9574 25.9359 38.2184 25.638C38.5021 25.317 38.7526 24.7454 38.8515 24.7406C38.9172 24.7371 38.9489 24.8901 38.9334 24.9597C38.8703 25.2569 38.8503 25.2944 38.7563 25.4898C38.6462 25.7172 38.5464 25.8183 38.3961 26.0253C38.2361 26.2439 38.1595 26.3279 38.0318 26.6168C37.8476 27.0327 37.9549 27.3537 37.9549 27.3537C37.9549 27.3537 37.977 27.549 38.0638 27.5463C38.2088 27.5415 38.5263 27.1344 38.7333 26.8019C38.8858 26.5566 38.9414 26.2746 39.0424 26.127C39.1323 25.9953 39.213 26.3408 39.1747 26.5443C39.1296 26.7854 39.0115 27.002 38.7534 27.3435C38.5005 27.6776 38.5092 27.9951 38.5092 27.9951C38.5092 27.9951 38.4817 28.1406 38.4617 28.4561C38.4414 28.7717 38.5303 29.2499 38.5303 29.2499C38.5303 29.2499 38.6108 29.6495 38.6257 29.9534C38.6404 30.2565 38.6302 30.95 38.3506 31.4876C38.2396 31.704 37.9998 32.0033 37.9998 32.0033C37.9998 32.0033 37.8176 32.1944 37.6655 32.3064C37.5145 32.4185 37.1535 32.5911 37.1535 32.5911C37.1535 32.5911 36.9035 32.6799 36.8672 32.688C36.8321 32.6975 36.8082 32.7287 36.8082 32.7287C36.8082 32.7287 36.8321 32.7778 36.8417 32.7978C36.8505 32.8183 36.921 32.9933 36.921 32.9933C36.921 32.9933 36.9964 33.2426 37.0244 33.4401C37.0526 33.6362 37.0199 33.681 36.9915 33.8327C36.9647 33.9768 36.9022 33.9101 36.8866 34.194C36.8724 34.4447 36.9855 34.5698 36.9647 34.8504C36.9555 34.9731 36.8182 34.697 36.7525 34.5785C36.6117 34.3202 36.6458 33.9275 36.6425 33.83C36.6386 33.7323 36.6319 33.625 36.5962 33.4993C36.5512 33.3407 36.4881 33.215 36.414 33.1182C36.3402 33.0213 36.2621 32.9666 36.2353 32.9756C36.2099 32.9846 36.2084 33.0363 36.2071 33.0623C36.2059 33.0882 36.2576 33.1811 36.2704 33.2016C36.2818 33.2216 36.3754 33.3942 36.3754 33.3942C36.3754 33.3942 36.4161 33.5261 36.4335 33.7838C36.4495 34.0419 36.3714 34.358 36.3714 34.358C36.3714 34.358 36.2704 34.7174 36.1631 34.9269C36.0441 35.1599 35.7813 35.4768 35.7813 35.4768C35.7813 35.4768 35.5931 35.6523 35.4521 35.9406C35.3109 36.2289 35.4319 36.3552 35.3795 36.3906C35.3259 36.4284 35.2143 36.2253 35.1841 36.0875C35.1563 35.9604 35.1711 35.9004 35.221 35.7563C35.27 35.619 35.3837 35.4202 35.3837 35.4202L35.5543 35.1266C35.5543 35.1266 35.7567 34.7297 35.8205 34.4427C35.8851 34.1552 35.8123 33.8368 35.8123 33.8368C35.8123 33.8368 35.803 33.7317 35.7331 33.7356C35.6621 33.7397 35.6108 33.8042 35.5825 33.8798C35.5234 34.0377 35.6067 34.0095 35.5178 34.272C35.4471 34.4788 35.4291 34.4514 35.3919 34.5739C35.3484 34.7214 35.3242 34.8714 35.327 34.964C35.3302 35.0555 35.2806 35.0171 35.2806 35.0171C35.2806 35.0171 35.1953 34.8533 35.1953 34.6505C35.1953 34.5398 35.1993 34.4778 35.2123 34.3676C35.2316 34.1906 35.3022 33.9197 35.3022 33.9197C35.3022 33.9197 35.3792 33.6525 35.3625 33.4074C35.3457 33.1628 35.261 33.1169 35.261 33.1169C35.261 33.1169 35.2394 33.0833 35.1455 33.0894C35.0527 33.0956 35.0565 33.2657 35.0565 33.2657C35.0565 33.2657 35.0285 33.5075 34.9916 33.6578C34.8887 34.0743 34.7529 34.2921 34.5093 34.6425C34.2904 34.9594 33.9918 35.2376 33.8432 35.3687C33.6947 35.5005 33.2374 35.8394 33.2374 35.8394L32.7023 36.2013C32.7023 36.2013 32.49 36.4116 32.3917 36.6623C32.2931 36.9123 32.2992 37.1084 32.3555 37.3385C32.4121 37.568 32.4946 37.676 32.537 37.7388C32.5799 37.8022 32.6627 37.9156 32.6893 38.0469C32.706 38.129 32.6939 38.1788 32.6988 38.2626C32.7033 38.3348 32.7129 38.376 32.7115 38.4476C32.7088 38.5632 32.7296 38.6456 32.6658 38.7399C32.6174 38.8122 32.4883 38.8739 32.4883 38.8739C32.4883 38.8739 32.3437 38.9396 32.2571 38.9928C31.3457 39.5522 31.0217 39.9135 30.5087 40.5371C30.3447 40.7351 30.4651 40.7234 30.2896 40.9592C30.1855 41.0999 29.9415 41.0993 29.8528 41.2679C29.7309 41.4965 30.1305 41.7227 29.6683 41.925C29.0746 42.1859 28.0507 41.9994 28.0307 41.9181C27.9749 41.6925 28.2305 41.4359 28.3204 41.3348C28.7375 40.8716 29.1098 40.8602 29.2457 40.4775C29.2746 40.3955 29.2641 40.3251 29.5945 40.0764C29.8277 39.9009 30.7582 39.1899 31.1641 38.7146C31.3026 38.5527 31.4236 38.444 31.4841 38.2677C31.5447 38.0909 31.4236 37.9787 31.4236 37.9787L31.2564 37.7021L30.9369 37.1214C30.9369 37.1214 30.8032 36.8133 30.7288 36.6351C30.6553 36.4575 30.5149 35.976 30.5149 35.976C30.5149 35.976 30.4114 35.5464 30.3947 35.2658C30.363 34.7604 30.4316 34.4666 30.562 33.9782C30.7314 33.341 31.1158 33.0752 31.2692 32.4462C31.3138 32.2638 31.3228 31.9503 31.2323 31.9655C31.1449 31.9806 31.1374 32.2292 31.0729 32.3942C30.8255 33.0185 30.4988 33.2924 30.3194 33.9401C30.199 34.3772 30.1507 34.6373 30.1519 35.0918C30.1519 35.3511 30.1426 35.3032 30.2084 35.7542C30.2326 35.9207 30.2744 36.009 30.3225 36.1707C30.3563 36.2856 30.4477 36.4998 30.4477 36.4998C30.4477 36.4998 30.5769 36.7868 30.6198 36.9869C30.6346 37.0542 30.6507 37.0941 30.6467 37.1631C30.6386 37.2826 30.6582 37.3086 30.6017 37.4163C30.531 37.5497 30.5748 37.6287 30.3488 37.6785C30.1507 37.721 29.7414 37.5879 29.7414 37.5879C29.7414 37.5879 28.0612 37.0695 26.9887 37.2183C26.776 37.2476 26.6623 37.3263 26.4475 37.322C26.2543 37.3191 26.1545 37.1649 25.9608 37.2239C25.9205 37.2362 25.9081 37.2642 25.8734 37.2881C25.5884 37.4895 25.8061 37.8242 25.0577 37.65C24.598 37.5428 24.0413 37.2581 24.1382 37.0778C24.2669 36.8394 24.4404 36.8004 24.8034 36.6491C25.1914 36.4878 25.7742 36.5334 25.8886 36.5247C26.0292 36.5153 26.2314 36.4149 26.4815 36.4104C26.9145 36.403 26.992 36.455 26.992 36.455L27.7286 36.5205L29.1361 36.5397C29.1361 36.5397 29.3878 36.5192 29.4894 36.5C29.5899 36.4802 29.6701 36.2786 29.7245 36.1824C29.7787 36.0869 29.7231 35.9448 29.7231 35.9448L29.6804 35.8785L29.5469 35.6586L29.2988 35.2346L29.0242 34.6785C29.0242 34.6785 28.8447 34.2899 28.7483 34.0352C28.6531 33.7823 28.598 33.6396 28.5343 33.3773C28.468 33.1068 28.4284 32.8875 28.42 32.672C28.4091 32.3612 28.3899 32.1174 28.4752 31.8633Z" fill="#231F20"/>
<path d="M37.6196 31.3468C37.9146 30.9595 37.9437 30.6016 37.9611 30.0948C37.9748 29.7273 37.8374 29.1604 37.8374 29.1604L37.8186 29.1195C37.8186 29.1195 37.7667 29.0512 37.7349 29.1414C37.74 29.2213 37.7503 29.2855 37.7503 29.2855L37.7677 30.0156C37.7677 30.0156 37.7448 30.3832 37.622 30.7623C37.4142 31.4016 36.8629 31.6878 36.7823 31.9165C36.6462 32.3004 37.2648 31.812 37.6196 31.3468ZM34.5115 32.5281C34.5115 32.5281 34.3899 32.5627 34.3878 32.6845C34.3847 32.8065 34.4172 32.9127 34.4147 33.0586C34.4113 33.2443 34.242 33.4618 34.3506 33.5311C34.5382 33.6514 34.6987 32.803 34.6419 32.6775C34.5847 32.5521 34.5294 32.5266 34.5115 32.5281ZM32.4195 38.4099C32.4195 38.4099 32.3852 38.3908 32.3175 38.4166C32.2503 38.4421 32.2543 38.5132 32.2543 38.5132C32.2543 38.5132 32.2413 38.5884 32.2958 38.5972C32.3502 38.6049 32.4403 38.4709 32.4397 38.4547C32.4385 38.4396 32.4195 38.4099 32.4195 38.4099ZM30.4529 39.8293C30.4529 39.8293 30.4318 39.8505 30.4499 39.8653C30.4675 39.8791 30.4923 39.8601 30.4923 39.8601C30.4923 39.8601 30.8326 39.5908 31.0335 39.4005C31.2469 39.1974 31.5525 38.8485 31.5525 38.8485C31.5525 38.8485 31.5733 38.8212 31.5494 38.7987C31.5268 38.7768 31.4669 38.811 31.4191 38.8341C31.3767 38.856 31.3519 38.881 31.321 38.9079C31.2893 38.9346 31.1907 39.0388 31.1907 39.0388L30.9272 39.2989L30.7633 39.4554L30.6027 39.6118L30.5345 39.6903C30.5345 39.6903 30.5165 39.7201 30.5125 39.7278C30.5079 39.7354 30.4898 39.7591 30.4898 39.7591C30.4898 39.7591 30.4662 39.7831 30.4662 39.7893C30.4662 39.7954 30.458 39.8037 30.4575 39.8112C30.4575 39.8191 30.4529 39.8293 30.4529 39.8293ZM29.8645 40.2214C29.8645 40.2214 29.827 40.1907 29.7699 40.2214C29.7118 40.2514 29.6501 40.3327 29.6453 40.3419C29.6405 40.3507 29.6081 40.395 29.6299 40.4325C29.6515 40.47 29.7251 40.4148 29.7355 40.4127C29.7461 40.4112 29.8422 40.3353 29.8422 40.3353C29.8422 40.3353 29.8978 40.2999 29.8645 40.2214ZM28.7395 41.3797C28.7395 41.3797 28.6921 41.2876 28.6289 41.3259C28.5647 41.3634 28.531 41.3764 28.4733 41.457C28.4636 41.4721 28.4011 41.5539 28.3893 41.5744C28.3782 41.5957 28.3171 41.7151 28.4425 41.7225C28.6599 41.737 28.518 41.5942 28.5924 41.5393C28.653 41.4966 28.7659 41.5072 28.7672 41.4621C28.769 41.418 28.7395 41.3797 28.7395 41.3797ZM24.8865 36.7564C24.8865 36.7564 24.7554 36.7879 24.7459 36.8349C24.7362 36.8818 24.8222 36.9277 24.836 36.9298C24.8504 36.9327 24.8807 36.9667 24.9668 36.9073C25.0528 36.8479 25.0494 36.7969 25.0494 36.7969C25.0494 36.7969 25.1002 36.7372 24.8865 36.7564ZM27.0061 36.6861C27.0061 36.6861 27.0048 36.6376 26.9121 36.643C26.8189 36.6484 26.7984 36.6661 26.7965 36.6799C26.7937 36.6949 26.8005 36.7189 26.8845 36.7257C26.9692 36.7326 27.0035 36.7251 27.0061 36.6861ZM29.0086 36.7456C28.8404 36.7434 28.8943 36.7489 28.7904 36.7545C28.6019 36.7647 28.499 36.7567 28.3134 36.7444C28.053 36.7276 27.6496 36.6604 27.6496 36.6604C27.6496 36.6604 27.5988 36.6495 27.5787 36.6816C27.5597 36.7159 27.6279 36.7861 27.689 36.8059C28.0186 36.9103 28.0359 36.8913 28.2616 36.8955C28.387 36.8976 28.4572 36.8847 28.5815 36.8763C28.7392 36.8653 28.8134 36.8899 28.9848 36.8434C29.0298 36.8316 29.0735 36.7462 29.0086 36.7456ZM30.1383 36.4039C30.1383 36.4039 30.1044 36.3649 30.0351 36.3991C29.9653 36.4338 29.9235 36.5112 29.9235 36.5112C29.9235 36.5112 29.8912 36.5625 29.9598 36.5542C30.0288 36.546 30.0884 36.5158 30.106 36.505C30.1234 36.4957 30.1733 36.447 30.1383 36.4039ZM29.1552 22.639C29.1552 22.639 29.6332 22.1841 29.9734 21.5844C30.1764 21.2272 30.2647 20.3946 30.0905 20.6029C30.0115 20.6965 29.9172 21.1296 29.7665 21.4485C29.5518 21.9033 29.0929 22.5481 29.0929 22.5481C29.0929 22.5481 28.9941 22.7634 29.1552 22.639ZM27.2506 23.7913C27.2506 23.7913 27.1998 23.8303 27.2224 23.8959C27.246 23.9614 27.3445 23.9115 27.3445 23.9115C27.3445 23.9115 27.5632 23.8275 27.7944 23.8179C28.0266 23.8083 28.3474 23.8786 28.3474 23.8786C28.3474 23.8786 28.5003 23.9217 28.5262 23.9313C28.5517 23.9407 28.6351 23.9824 28.6482 23.9874C28.662 23.9922 28.7404 24.0324 28.7849 23.9914C28.8307 23.9505 28.507 23.6527 28.1773 23.6076C27.6289 23.5317 27.2676 23.7708 27.2676 23.7708L27.2506 23.7913ZM24.9883 25.7563C25.028 25.789 25.2118 25.4346 25.3655 25.2106C25.4777 25.0453 25.6827 24.7701 25.6827 24.7701C25.6827 24.7701 25.7741 24.6436 25.6182 24.7147C25.554 24.7434 25.38 24.8779 25.2573 25.1259C25.1526 25.3363 24.9489 25.7221 24.9883 25.7563ZM23.7203 24.2134C23.7203 24.2134 23.681 24.3493 23.8397 24.5221C23.9987 24.6942 24.0396 24.837 24.1411 24.7339C24.1693 24.7066 24.0421 24.4731 23.9771 24.4089C23.9119 24.3454 23.8642 24.2914 23.8642 24.2914L23.8236 24.2572L23.7702 24.2278L23.7406 24.2155C23.7403 24.2155 23.7313 24.2073 23.7203 24.2134ZM23.2067 22.8952C23.2067 22.8952 23.0353 22.9281 22.9925 23.0121C22.9501 23.0967 23.1902 23.0455 23.1902 23.0455C23.1902 23.0455 23.3499 23.055 23.3534 22.9929C23.3576 22.9308 23.3328 22.9231 23.2067 22.8952ZM20.479 27.4885C20.3923 27.4618 20.3771 27.6375 20.3661 27.6934C20.3553 27.7501 20.4047 27.8641 20.4245 27.8628C20.4453 27.8622 20.515 27.7515 20.519 27.6969C20.523 27.6421 20.5569 27.5124 20.479 27.4885ZM23.3115 30.9091C23.3115 30.9091 23.1552 30.7834 23.1311 30.8335C23.1079 30.8824 23.2604 31.1047 23.2604 31.1047C23.2604 31.1047 23.3065 31.1769 23.3787 31.1436C23.4503 31.1101 23.4244 31.0302 23.4244 31.0302C23.4244 31.0302 23.3762 30.9262 23.3115 30.9091ZM22.1295 27.2085C22.1295 27.2085 22.0898 27.1989 22.0745 27.2473C22.06 27.2958 22.0618 27.3765 22.0513 27.472C22.0421 27.5478 22.0705 27.7486 22.0705 27.7486C22.0705 27.7486 22.0857 27.9072 22.1165 28.0041C22.1505 28.1073 22.2413 28.2541 22.2413 28.2541C22.2413 28.2541 22.2755 28.3306 22.3169 28.3272C22.3582 28.3231 22.3487 28.2726 22.3487 28.2726C22.3487 28.2726 22.2177 27.7432 22.2129 27.6892C22.1971 27.5137 22.1985 27.2986 22.1985 27.2986L22.1971 27.2658C22.1971 27.2658 22.1958 27.2106 22.1295 27.2085ZM22.3349 25.5937C22.3349 25.5937 22.2619 25.5787 22.1958 25.7208C22.1289 25.8636 22.1427 25.9209 22.1484 25.9276C22.1537 25.9345 22.2075 25.9324 22.2922 25.8006C22.3759 25.6693 22.3575 25.6203 22.3575 25.6203C22.3575 25.6203 22.3527 25.5937 22.3349 25.5937ZM24.3211 27.0576C24.3211 27.0576 24.4092 27.1894 24.2414 27.1593C24.074 27.1285 23.722 26.8471 23.5796 26.7714C23.4382 26.6956 23.2058 26.6703 23.3037 26.5828C23.3208 26.5672 23.3252 26.5528 23.3542 26.5515C23.3831 26.5501 23.4785 26.589 23.4848 26.5918C23.4903 26.5951 23.7378 26.6983 23.747 26.7018C23.7561 26.7058 23.8943 26.766 23.9934 26.8248C24.0926 26.8842 24.2529 26.9982 24.2529 26.9982L24.3211 27.0576ZM28.9535 31.1092C28.999 31.2561 28.4262 30.8019 28.1193 30.5617C27.3056 29.9259 26.3098 28.6212 26.4341 28.5064C26.5376 28.4109 26.9456 29.0085 27.5439 29.6662C28.1825 30.3681 28.9266 31.0224 28.9535 31.1092ZM31.3447 30.4854C31.168 30.6781 31.1048 30.9247 31.2068 31.1091C31.3077 31.2879 31.3386 30.8475 31.4499 30.7162C31.545 30.6043 31.6033 30.6213 31.7618 30.5079C32.0311 30.315 31.5698 30.2406 31.3447 30.4854ZM30.3264 26.3691C30.2056 26.3485 30.2096 26.5363 30.2269 26.6709C30.3076 27.2692 30.5717 27.7303 30.9247 28.1653C31.1398 28.4289 31.7288 28.9002 31.798 28.825C31.8228 28.7977 31.2366 28.3387 30.8643 27.7479C30.6002 27.3291 30.4583 26.9733 30.4259 26.6277C30.4217 26.5848 30.4319 26.3862 30.3264 26.3691ZM28.0471 17.4972C27.7813 17.644 27.3208 17.7724 27.3208 17.7724C27.3208 17.7724 27.2996 17.8182 27.3588 17.8134C27.7531 17.782 27.9032 17.7307 28.114 17.6371C28.3236 17.5443 28.4773 17.2881 28.4773 17.2881C28.4773 17.2881 28.562 17.1303 28.403 17.2608C28.3546 17.3005 28.1922 17.416 28.0471 17.4972ZM31.25 16.4686C31.25 16.4686 31.1598 16.4481 31.0993 16.4865C31.0391 16.5253 31.0563 16.5568 31.0563 16.5568C31.0563 16.5568 31.1492 16.6306 31.2164 16.6416C31.2835 16.6518 31.4275 16.7154 31.4208 16.6662C31.4154 16.6164 31.3346 16.5255 31.3077 16.5009C31.2796 16.4761 31.25 16.4686 31.25 16.4686ZM29.7422 19.2793C29.758 19.3114 30.0274 19.237 30.1303 19.1782C30.2124 19.1317 30.2433 18.9768 30.2433 18.9768C30.2433 18.9768 30.2661 18.8259 30.2312 18.8838C30.0769 19.1386 29.7272 19.2465 29.7422 19.2793ZM29.7335 18.5772C29.8422 18.3661 29.4348 18.7978 29.2274 18.9099C29.1007 18.9781 28.8951 19.0677 28.8951 19.0677C28.8951 19.0677 28.8406 19.1367 28.9166 19.1311C28.9929 19.125 29.1869 19.1926 29.3425 19.0683C29.3791 19.0396 29.5434 18.7978 29.5434 18.7978C29.5434 18.7978 29.6811 18.6789 29.7335 18.5772ZM29.6706 19.48C29.6785 19.5148 30.1362 19.5025 30.2505 19.4691C30.3398 19.4425 30.3884 19.2799 30.3884 19.2799C30.3884 19.2799 30.4434 19.1386 30.3972 19.1871C30.1906 19.4008 29.6631 19.4446 29.6706 19.48ZM22.3422 23.7264C22.3422 23.7264 22.2727 23.7012 22.1867 23.8329C22.1013 23.9634 21.7175 24.5548 21.786 24.6429C21.8666 24.7461 22.1991 24.1135 22.3002 23.9947C22.402 23.8765 22.3614 23.755 22.3614 23.755C22.3614 23.755 22.3601 23.7285 22.3422 23.7264ZM30.7069 34.4178C30.6666 34.6146 30.7164 35.0158 30.7822 35.0953C30.945 35.2948 30.8454 34.7839 30.8681 34.6048C30.8878 34.4368 30.9093 34.3795 30.9892 34.2006C31.1344 33.8794 30.7929 33.9984 30.7069 34.4178ZM29.3068 17.2848C29.3068 17.2848 29.1801 17.2876 29.0809 17.3428C28.9819 17.3989 28.9556 17.476 28.9556 17.476C28.9556 17.476 28.9358 17.5321 28.9495 17.5635C28.9785 17.6319 29.1146 17.5287 29.211 17.5629C29.2889 17.5909 29.326 17.6134 29.3844 17.6857C29.4362 17.7493 29.5276 17.8395 29.5847 17.7882C29.6419 17.737 29.6213 17.6092 29.6213 17.6092C29.6213 17.6092 29.5537 17.4001 29.4658 17.3401C29.3776 17.2807 29.3068 17.2848 29.3068 17.2848ZM27.2032 18.7581C27.2032 18.7581 27.1329 18.7698 27.1495 18.8565C27.1663 18.9433 27.2122 18.9295 27.2122 18.9295C27.2122 18.9295 27.3588 18.8661 27.349 18.7765C27.3403 18.6858 27.2032 18.7581 27.2032 18.7581ZM26.1761 18.2902C26.1761 18.2902 26.0992 18.2931 26.0453 18.39C25.9912 18.4869 25.9599 18.5868 25.9599 18.5868C25.9599 18.5868 25.9341 18.7144 25.9794 18.754C26.0249 18.7944 26.0736 18.6714 26.1384 18.625C26.1777 18.5964 26.2016 18.5827 26.2416 18.5547C26.2968 18.5158 26.3861 18.5656 26.3795 18.4522C26.3724 18.3388 26.2534 18.2848 26.1761 18.2902ZM29.4945 17.0758C29.4945 17.0758 29.3198 17.0506 29.3265 17.1189C29.3323 17.1817 29.4216 17.1441 29.4787 17.1702C29.5345 17.1948 29.5701 17.205 29.6147 17.2473C29.6475 17.2767 29.6435 17.3347 29.6838 17.3353C29.7394 17.3361 29.7276 17.3134 29.7276 17.3134C29.7276 17.3134 29.6777 17.1604 29.612 17.116C29.5471 17.0731 29.4945 17.0758 29.4945 17.0758ZM31.445 17.7916C31.4193 17.8879 31.4041 17.9221 31.4041 17.9221C31.4041 17.9221 31.3548 18.1182 31.5506 18.0457C31.7454 17.9719 31.6456 18.0034 31.785 17.9344C31.9242 17.8654 31.9196 17.9031 32.0218 17.9077C32.0565 17.9091 32.0783 17.9112 32.1306 17.9002C32.1743 17.8914 32.1561 17.8375 32.0581 17.8108C31.9524 17.7822 31.8213 17.7897 31.6709 17.7876C31.5834 17.7868 31.4704 17.6961 31.445 17.7916ZM31.5309 17.0649C31.5309 17.0649 31.441 17.0451 31.3804 17.0833C31.3193 17.1223 31.3374 17.1529 31.3374 17.1529C31.3374 17.1529 31.4309 17.2275 31.4974 17.2377C31.5646 17.2492 31.7085 17.3121 31.7031 17.2623C31.6964 17.2125 31.6157 17.1223 31.589 17.097C31.5618 17.0731 31.5309 17.0649 31.5309 17.0649ZM31.8752 18.4282C31.8752 18.4282 31.7789 18.4092 31.7137 18.4467C31.648 18.4836 31.6673 18.5122 31.6673 18.5122C31.6673 18.5122 31.7677 18.5818 31.8389 18.5922C31.91 18.6018 32.0646 18.6612 32.0585 18.6141C32.0525 18.5676 31.9666 18.4822 31.9369 18.4582C31.9075 18.435 31.8752 18.4282 31.8752 18.4282ZM31.9034 18.9234C31.9034 18.9234 31.8018 18.9009 31.7327 18.9432C31.6641 18.9847 31.6849 19.0189 31.6849 19.0189C31.6849 19.0189 31.7905 19.0989 31.8657 19.1112C31.9421 19.1227 32.1039 19.1904 32.0969 19.1364C32.0903 19.0831 32.0004 18.9847 31.9692 18.9574C31.9384 18.931 31.9034 18.9234 31.9034 18.9234ZM31.9499 19.4056C31.9499 19.4056 31.8395 19.3804 31.7651 19.4275C31.6904 19.4754 31.7127 19.5129 31.7127 19.5129C31.7127 19.5129 31.8274 19.6036 31.9087 19.6167C31.9911 19.6296 32.167 19.7074 32.1601 19.6474C32.1529 19.5867 32.054 19.4754 32.0204 19.4446C31.9868 19.4145 31.9499 19.4056 31.9499 19.4056ZM31.9384 20.0019C31.9384 20.0019 31.8288 19.9767 31.7536 20.0244C31.6789 20.0715 31.7016 20.1097 31.7016 20.1097C31.7016 20.1097 31.816 20.1999 31.8979 20.2129C31.9802 20.2266 32.1574 20.3037 32.1493 20.2429C32.1418 20.1822 32.0432 20.0715 32.0095 20.0407C31.976 20.0107 31.9384 20.0019 31.9384 20.0019ZM31.8585 21.1638C31.8585 21.1638 31.7481 21.1386 31.6734 21.1863C31.599 21.2334 31.6211 21.2716 31.6211 21.2716C31.6211 21.2716 31.7352 21.3625 31.8172 21.3754C31.8994 21.3891 32.0767 21.4656 32.0686 21.4054C32.0613 21.3447 31.9624 21.2334 31.9288 21.2025C31.8954 21.1726 31.8585 21.1638 31.8585 21.1638ZM31.9328 20.5818C31.9328 20.5818 31.806 20.5531 31.7192 20.6077C31.6332 20.6623 31.6592 20.7061 31.6592 20.7061C31.6592 20.7061 31.7918 20.8113 31.8858 20.8263C31.9807 20.8413 32.1856 20.9308 32.1762 20.8611C32.1681 20.7907 32.054 20.6623 32.015 20.6274C31.976 20.592 31.9328 20.5818 31.9328 20.5818ZM31.8039 21.6883C31.8039 21.6883 31.7137 21.6672 31.652 21.7068C31.59 21.7456 31.609 21.7771 31.609 21.7771C31.609 21.7771 31.7031 21.8517 31.7711 21.8625C31.8383 21.8734 31.9834 21.9376 31.9772 21.8871C31.9711 21.8371 31.8898 21.7456 31.8625 21.7204C31.8347 21.6951 31.8039 21.6883 31.8039 21.6883ZM31.7186 22.1923C31.7186 22.1923 31.6439 22.1752 31.5928 22.2081C31.5416 22.2402 31.5565 22.2661 31.5565 22.2661C31.5565 22.2661 31.635 22.3284 31.6907 22.3372C31.7468 22.3461 31.8674 22.3987 31.8622 22.3578C31.8575 22.3161 31.7903 22.2403 31.7671 22.2192C31.744 22.1985 31.7186 22.1923 31.7186 22.1923ZM31.613 22.6513C31.613 22.6513 31.545 22.6356 31.4986 22.665C31.453 22.6936 31.4663 22.7176 31.4663 22.7176C31.4663 22.7176 31.5364 22.7737 31.5873 22.7812C31.6378 22.7901 31.7468 22.8372 31.7428 22.8003C31.7379 22.7628 31.6774 22.6938 31.6566 22.6759C31.6359 22.6567 31.613 22.6513 31.613 22.6513ZM31.5056 23.0277C31.5056 23.0277 31.4369 23.0121 31.3911 23.0406C31.3455 23.07 31.3588 23.0938 31.3588 23.0938C31.3588 23.0938 31.4295 23.1492 31.4799 23.1573C31.5309 23.1661 31.6393 23.2134 31.6344 23.1757C31.6299 23.1388 31.5693 23.0698 31.5485 23.0514C31.5283 23.0332 31.5056 23.0277 31.5056 23.0277ZM31.3764 23.4642C31.3764 23.4642 31.3213 23.4513 31.285 23.4751C31.2472 23.4991 31.2587 23.5182 31.2587 23.5182C31.2587 23.5182 31.3159 23.5626 31.3562 23.5701C31.3971 23.5762 31.4853 23.6145 31.4813 23.5843C31.4774 23.5543 31.4284 23.499 31.4112 23.484C31.3951 23.4688 31.3764 23.4642 31.3764 23.4642ZM31.2218 23.8732C31.2218 23.8732 31.1749 23.863 31.1431 23.8828C31.1108 23.9026 31.1204 23.9197 31.1204 23.9197C31.1204 23.9197 31.1694 23.958 31.2043 23.9635C31.2391 23.9697 31.3153 24.0025 31.3126 23.9764C31.3092 23.9512 31.2663 23.9026 31.2527 23.8897C31.2379 23.8767 31.2218 23.8732 31.2218 23.8732ZM31.0624 24.2613C31.0624 24.2613 31.0149 24.2511 30.9837 24.2715C30.9508 24.2913 30.961 24.3076 30.961 24.3076C30.961 24.3076 31.0109 24.3466 31.0457 24.352C31.0806 24.3582 31.1558 24.3916 31.1533 24.3651C31.1494 24.3391 31.1073 24.2913 31.0928 24.2782C31.0783 24.2652 31.0624 24.2613 31.0624 24.2613ZM20.7246 26.2372C20.7246 26.2372 20.6449 26.3943 20.684 26.4804C20.7235 26.5665 20.8309 26.343 20.8309 26.343C20.8309 26.343 20.9421 26.1196 20.8968 26.0787C20.8507 26.0371 20.8244 26.1532 20.7246 26.2372Z" fill="white"/>
<path d="M26.786 40.0623C26.786 40.0623 26.7262 39.9839 26.6697 40.0409C26.6132 40.0985 26.5396 40.19 26.4089 40.1811C26.2775 40.1711 26.2211 40.1504 26.1471 40.1183C26.0742 40.0854 25.9718 40.0364 25.9718 40.0364C25.9718 40.0364 25.7049 39.9318 25.4784 39.9264C25.2526 39.9203 24.8829 40.0161 24.704 40.2132C24.5249 40.4093 24.4795 40.6136 24.4795 40.6136C24.4795 40.6136 24.4197 40.9724 24.5223 41.136C24.6247 41.3013 24.7363 41.4782 24.9848 41.6331C25.2341 41.7881 25.3426 41.8455 25.3426 41.8455L25.7751 42.0477L26.1749 42.2009C26.1749 42.2009 26.7527 42.3764 26.8228 42.8204C26.8927 43.2645 26.6306 43.8387 25.833 43.8915C25.0482 43.9436 24.6661 43.5563 24.5438 43.3082C24.4218 43.0589 24.492 42.8486 24.492 42.8486L24.5249 42.7803L24.5558 42.7647C24.5558 42.7647 24.6779 42.8487 24.7974 42.8328C24.9167 42.8172 25.1362 42.671 25.0908 42.4326C25.0447 42.1935 24.8341 42.141 24.7328 42.1497C24.6323 42.1589 24.1826 42.2769 24.1739 42.9413C24.1647 43.6053 24.7604 43.959 24.7604 43.959C24.7604 43.959 25.1821 44.2259 25.6584 44.2049C26.1349 44.183 26.5292 43.9904 26.5292 43.9904C26.5292 43.9904 27.2346 43.6338 27.2534 42.8546C27.2712 42.0761 26.7859 41.8019 26.7859 41.8019C26.7859 41.8019 26.6118 41.6783 26.4528 41.6033C26.2939 41.5295 25.9124 41.3424 25.9124 41.3424L25.5243 41.1627L25.289 41.0295L25.1572 40.9394C25.1572 40.9394 24.8431 40.6878 25.0106 40.4147C25.1787 40.1417 25.6647 40.2438 25.6647 40.2438C25.6647 40.2438 26.0404 40.3244 26.3336 40.5389C26.627 40.7528 26.7984 41.0103 26.7984 41.0103L26.9201 41.2127L26.9351 41.2407L27.0393 41.2038C27.0393 41.2038 26.8773 40.7444 26.8464 40.5515C26.8163 40.3595 26.786 40.0623 26.786 40.0623Z" fill="#231F20"/>
<path d="M31.4369 42.69C31.4369 42.69 31.5419 42.808 31.6814 42.808C31.8226 42.808 32.0228 42.7084 32.0202 42.4507C32.0175 42.1933 31.7609 42.1243 31.7609 42.1243C31.7609 42.1243 31.3728 42.0315 31.184 42.4324C30.9946 42.8326 31.0981 43.1802 31.0981 43.1802C31.0981 43.1802 31.187 43.7206 31.7488 44.0401C32.3107 44.3595 32.9131 44.1241 32.9131 44.1241C32.9131 44.1241 33.3647 43.9716 33.7559 43.5244C34.147 43.0777 34.3333 42.5469 34.3333 42.5469L34.4703 42.1995L34.6352 42.2026C34.6352 42.2026 34.8651 42.2245 35.0261 42.0907C35.1891 41.9566 35.2896 41.7739 35.2896 41.7739L35.3107 41.7186L35.2064 41.6694C35.2064 41.6694 35.0881 41.8272 34.9226 41.8429C34.758 41.8579 34.5868 41.8299 34.5868 41.8299L34.7453 41.3982C34.7453 41.3982 34.9287 41.0226 34.9812 40.9356C35.0332 40.849 35.2468 40.5697 35.2468 40.5697C35.2468 40.5697 35.6866 40.567 36.1111 40.4769C36.5361 40.3867 36.7981 40.2783 36.7981 40.2783L37.3238 40.0575L37.4521 39.9864L37.4125 39.8805C37.4125 39.8805 36.9391 40.0513 36.2388 40.1326C35.54 40.2132 35.1002 40.1265 35.1002 40.1265L34.3056 40.0015C34.3056 40.0015 34.0641 39.9618 33.8781 39.9586C33.6921 39.9556 33.3121 40.0261 33.3121 40.0261C33.3121 40.0261 32.9344 40.1134 32.7637 40.2439C32.5916 40.3744 32.1856 40.6789 32.3725 41.1442C32.5582 41.61 33.3191 41.3613 33.4267 41.0164C33.4228 41.0196 33.469 40.9051 33.469 40.9051L33.4817 40.8429L33.4168 40.8177L33.3405 40.9078C33.3405 40.9078 33.0567 41.1504 32.8365 40.9945C32.6176 40.8396 32.7664 40.623 32.7881 40.5976C32.809 40.5733 32.9279 40.4271 33.2122 40.3623C33.4965 40.2975 33.924 40.4026 33.924 40.4026L34.3884 40.4893C34.3884 40.4893 34.645 40.5391 34.6565 40.5391C34.6692 40.5391 34.7518 40.5514 34.7518 40.5514L34.5896 40.7346C34.5896 40.7346 34.3543 40.9641 34.1891 41.2968C34.0245 41.6287 33.9484 41.8021 33.9484 41.8021L33.9323 41.8273C33.9323 41.8273 33.7254 41.8519 33.5944 41.9325C33.4625 42.0132 33.3772 42.1374 33.3772 42.1374L33.3158 42.2494L33.3982 42.3205C33.3982 42.3205 33.4931 42.2118 33.6093 42.1812C33.7254 42.1497 33.8139 42.1968 33.8139 42.1968C33.8139 42.1968 33.6456 42.6184 33.5663 42.7705C33.487 42.9226 33.3526 43.2022 33.1632 43.41C32.9744 43.6176 32.8365 43.7985 32.4029 43.8606C31.9692 43.9221 31.6634 43.6393 31.5507 43.5001C31.4371 43.3608 31.3705 43.1491 31.3644 42.9948C31.3576 42.8388 31.4369 42.69 31.4369 42.69Z" fill="#231F20"/>
</g>
<defs>
<clipPath id="clip0_150_714">
<rect width="31" height="42" fill="white" transform="translate(14 9)"/>
</clipPath>
</defs>
</svg>
