<svg width="60" height="60" viewBox="0 0 60 60" fill="none" xmlns="http://www.w3.org/2000/svg">
<rect width="60" height="60" fill="black"/>
<g clip-path="url(#clip0_168_594)">
<path d="M11.7517 28.7667V29.5165H9.40698V28.7667H10.0703V22.8896H9.40698V22.1412H12.6526C14.7279 22.1412 15.3058 23.1495 15.3058 24.1718C15.3058 25.0191 14.8539 25.8268 13.7764 26.0273C14.4064 26.1388 14.5498 26.4071 14.7902 26.9889L15.3406 28.7667H16.0126V29.5165H14.5426L13.7793 27.1569C13.4404 26.4509 12.9306 26.3408 12.0819 26.3408H11.0797V28.7667H11.7517ZM11.0855 25.5924H12.2543C13.5577 25.5924 14.2573 25.1221 14.2573 24.2735C14.2573 23.3231 13.5621 22.891 12.2543 22.891H11.0797L11.0855 25.5924Z" fill="#E6602C"/>
<path d="M21.1771 27.9279C20.9366 29.0576 20.0764 29.6492 18.6542 29.6492C17.0031 29.6492 16.0168 28.6099 16.0168 26.9663C16.0168 25.3678 17.0726 24.2833 18.6773 24.2833C20.3631 24.2833 21.3262 25.3226 21.3262 27.1908H17.0031C17.0379 28.319 17.6809 28.9728 18.6889 28.9728C19.584 28.9728 20.1691 28.5704 20.3066 27.9208H21.1756M20.3385 26.5088C20.1937 25.4808 19.6144 24.9442 18.6759 24.9442C17.7374 24.9442 17.1045 25.509 17.0248 26.5088H20.3385Z" fill="#E6602C"/>
<path d="M33.1861 27.9279C32.9457 29.0576 32.0854 29.6492 30.6632 29.6492C29.0122 29.6492 28.0259 28.6099 28.0259 26.9663C28.0259 25.3678 29.0802 24.2833 30.6864 24.2833C32.3721 24.2833 33.3353 25.3226 33.3353 27.1908H29.015C29.0498 28.3205 29.6914 28.9799 30.7008 28.9799C31.593 28.9729 32.1795 28.576 32.3171 27.9279H33.1861ZM32.349 26.5158C32.2114 25.4878 31.6248 24.9512 30.6864 24.9512C29.7479 24.9512 29.115 25.5161 29.0353 26.5158H32.349Z" fill="#E6602C"/>
<path d="M33.6829 28.874H34.1999V25.1179H33.6858V24.4471H35.0949V25.3297C35.4193 24.577 36.1377 24.313 36.9067 24.313C38.1754 24.313 38.9792 24.9046 38.9792 26.1487V28.874H39.4456V29.5447H37.5903V28.874H38.0465V26.1487C38.0465 25.3777 37.431 24.9865 36.6735 24.9865C35.7684 24.9865 35.1253 25.5895 35.1253 26.5963V28.874H35.6235V29.5447H33.6829V28.874Z" fill="#E6602C"/>
<path d="M24.4111 29.5942C22.9034 29.5942 21.9114 28.5493 21.9114 26.9437C21.9114 25.3227 22.8861 24.282 24.4574 24.282C25.283 24.282 25.9419 24.6364 26.2837 25.3891V24.4175H27.8131V25.0883H27.1788V29.1579C27.1788 30.7564 26.3417 31.5062 24.553 31.5062C23.0164 31.5062 22.2821 31.0586 22.2126 29.9741H23.1424C23.2684 30.5996 23.6812 30.8354 24.5067 30.8354C25.7797 30.8354 26.2446 30.3539 26.2446 29.1579V28.5493C25.8782 29.2285 25.4539 29.5999 24.4053 29.5999M24.5675 25.0106C23.5537 25.005 22.9035 25.7251 22.9035 26.9437C22.9035 28.1398 23.5668 28.8924 24.5994 28.8924C25.6132 28.8924 26.207 28.12 26.207 26.9579C26.207 25.7957 25.5712 25.005 24.5733 25.005L24.5675 25.0106Z" fill="#E6602C"/>
<path d="M43.8294 27.8051C43.715 28.4985 43.1762 28.9221 42.3811 28.9221C41.4065 28.9221 40.7634 28.2062 40.7634 26.9551C40.7634 25.704 41.4036 25.0191 42.3898 25.0106C43.1618 25.0233 43.6933 25.4441 43.8005 26.1262H44.6694C44.4985 24.8906 43.7237 24.2905 42.3522 24.282H42.3348C40.7852 24.2905 39.783 25.3269 39.783 26.9536C39.783 28.6199 40.7968 29.6479 42.3623 29.6479C43.7498 29.6479 44.5348 29.0449 44.7013 27.8037H43.8323" fill="#E6602C"/>
<path d="M44.6884 24.4175H46.8347V25.0882H46.2699L47.7703 28.3586L49.262 25.0882H48.6827V24.4175H50.7393V25.0882H50.202L47.8254 30.2776C47.5502 30.9145 47.1895 31.4073 46.1946 31.4073C46.0147 31.4019 45.8356 31.383 45.6587 31.3508V30.625C45.8055 30.6589 45.9555 30.6778 46.1062 30.6815C46.2839 30.6887 46.4596 30.6426 46.6095 30.5494C46.7595 30.4563 46.8765 30.3205 46.9448 30.1604L47.262 29.4544L45.2344 25.0769H44.6797V24.4175" fill="#E6602C"/>
<path d="M21.9722 37.136C21.7318 38.2643 20.8759 38.8574 19.4493 38.8574C17.7983 38.8574 16.812 37.8181 16.812 36.1744C16.812 34.5759 17.8664 33.4915 19.4725 33.4915C21.1583 33.4915 22.1214 34.5307 22.1214 36.3975H17.7983C17.833 37.5272 18.4746 38.1866 19.4841 38.1866C20.3791 38.1866 20.9642 37.7842 21.1018 37.136H21.9708M21.1337 35.724C20.9888 34.696 20.4095 34.158 19.4711 34.158C18.5326 34.158 17.8997 34.7228 17.82 35.724H21.1337Z" fill="#DC9B19"/>
<path d="M22.6948 38.0525H23.209V34.295H22.6948V33.6243H24.104V34.5068C24.4299 33.7542 25.1482 33.4901 25.9158 33.4901C27.1888 33.4901 27.9883 34.0818 27.9883 35.3258V38.0525H28.4546V38.7162H26.6008V38.0525H27.0585V35.3272C27.0585 34.5548 26.4415 34.1651 25.6855 34.1651C24.7803 34.1651 24.1373 34.7681 24.1373 35.7749V38.0525H24.6413V38.7162H22.6948V38.0525Z" fill="#DC9B19"/>
<path d="M38.6273 37.136C38.3854 38.2657 37.5266 38.8574 36.1044 38.8574C34.4533 38.8574 33.467 37.8181 33.467 36.1744C33.467 34.5759 34.5214 33.4915 36.1275 33.4915C37.8133 33.4915 38.7764 34.5307 38.7764 36.3975H34.4519C34.4866 37.5272 35.1282 38.1866 36.1377 38.1866C37.0327 38.1866 37.6164 37.7842 37.7539 37.136H38.6229M37.7858 35.724C37.641 34.696 37.0617 34.158 36.1232 34.158C35.1847 34.158 34.5518 34.7228 34.4721 35.724H37.7858Z" fill="#DC9B19"/>
<path d="M41.3341 38.0581V38.7289H39.2139V38.0581H39.8178V34.302H39.2139V33.6327H40.7172V34.4799C41.1299 33.7739 41.6571 33.4915 42.4826 33.4915C43.0619 33.4915 43.1981 33.6934 43.2285 33.7019V34.511C43.1257 34.5195 42.9026 34.2173 42.4044 34.2173C41.5615 34.2173 40.7534 34.9445 40.7534 36.2295V38.0652H41.3414" fill="#DC9B19"/>
<path d="M50.8552 37.8449C50.8552 37.6578 50.7983 37.4749 50.6917 37.3193C50.5851 37.1637 50.4335 37.0424 50.2562 36.9708C50.0789 36.8992 49.8838 36.8805 49.6956 36.917C49.5074 36.9535 49.3345 37.0436 49.1987 37.1759C49.063 37.3082 48.9706 37.4768 48.9332 37.6603C48.8958 37.8438 48.915 38.0341 48.9884 38.2069C49.0619 38.3798 49.1862 38.5276 49.3458 38.6315C49.5054 38.7355 49.693 38.791 49.8849 38.791C50.0123 38.791 50.1385 38.7665 50.2562 38.719C50.374 38.6714 50.4809 38.6017 50.571 38.5139C50.6611 38.426 50.7326 38.3217 50.7814 38.2069C50.8301 38.0922 50.8552 37.9691 50.8552 37.8449Z" fill="#DC9B19"/>
<path d="M46.0614 38.7995C47.2707 38.7995 48.2136 38.2347 48.2136 37.2787C48.2136 36.7012 47.9239 35.9358 46.4916 35.7254C46.3612 35.7057 45.4503 35.5842 45.3518 35.5644C44.8796 35.4896 44.5726 35.2594 44.5726 34.888C44.5726 34.5167 44.8622 34.2074 45.611 34.2074C46.8087 34.2074 47.0405 34.7327 47.165 34.9629H47.9022V33.6327H47.165V33.9151C46.9174 33.7923 46.6031 33.5452 45.5487 33.5452C44.3496 33.5452 43.6443 34.2004 43.6443 35.042C43.6443 35.6223 44.0034 36.2846 45.1403 36.4456L46.2584 36.608C46.9507 36.7068 47.2838 36.9299 47.2838 37.3564C47.2838 37.7828 46.8029 38.0991 45.9152 38.0991C44.6856 38.0991 44.322 37.5837 44.322 37.177V37.0979H43.5776V38.7162H44.3235V38.3378C44.5523 38.4888 44.9028 38.8051 46.0614 38.8051" fill="#DC9B19"/>
<path d="M16.137 36.2931C15.9705 37.9438 14.7351 38.8348 12.8755 38.8348C10.6582 38.8348 9.14478 37.4453 9.14478 35.1634C9.14478 32.8815 10.6568 31.4708 12.8089 31.4708C14.4614 31.4708 15.1117 32.2192 15.271 32.3732V31.8493H16.0632V34.1086H15.2275C15.1522 33.5663 14.7177 32.2644 12.8683 32.2644C11.2752 32.2644 10.2614 33.2938 10.2614 35.0759C10.2614 36.9977 11.323 37.9381 12.9393 37.9381C14.0313 37.9381 14.8423 37.4919 15.1117 36.2917H16.1356" fill="#DC9B19"/>
<path d="M32.3476 37.136C32.3056 37.6599 32.1158 38.1866 31.3483 38.1866C30.6458 38.1866 30.3895 37.7475 30.3895 37.1262V34.3218H32.5011V33.651H30.404V32.1133L29.4742 32.4607V33.6525H28.6689V34.3232H29.4843V37.1262C29.4843 38.205 30.1375 38.8588 31.3584 38.8588C32.9066 38.8588 33.2078 37.835 33.218 37.1375H32.349" fill="#DC9B19"/>
</g>
<defs>
<clipPath id="clip0_168_594">
<rect width="42" height="17" fill="white" transform="translate(9 22)"/>
</clipPath>
</defs>
</svg>
