<svg width="60" height="60" viewBox="0 0 60 60" fill="none" xmlns="http://www.w3.org/2000/svg">
<g clip-path="url(#clip0_1399_8406)">
<rect width="60" height="60" fill="white"/>
<g clip-path="url(#clip1_1399_8406)">
<rect width="60" height="60" fill="white"/>
<g clip-path="url(#clip2_1399_8406)">
<path d="M0 0H60V60H0V0Z" fill="#E60D2E"/>
<path d="M24.3632 17.6893V37.5346C24.3632 39.8901 25.6429 40.3909 26.663 40.3909V41.9303H17V40.3909C17.983 40.3909 19.2998 39.8901 19.2998 37.5346V19.3956C19.2998 17.0402 18.0201 16.5209 17 16.5209V15H29.0185C36.4373 15 38.0879 18.932 38.0879 21.9922C38.0694 23.6066 37.4584 25.1579 36.371 26.3513C35.2837 27.5447 33.7957 28.297 32.19 28.4651C35.8994 28.6877 37.9767 38.1281 40.6289 41.5964C40.9045 41.9571 41.2505 42.2581 41.6458 42.4812C42.0411 42.7044 42.4775 42.845 42.9287 42.8947H43.04V44.4526H40.1838C39.2141 44.4797 38.2502 44.2945 37.3596 43.91C36.469 43.5256 35.6731 42.9512 35.0277 42.227C31.8932 37.9241 30.6877 29.0586 26.867 28.7804H26.5332V27.1668H26.8114C31.5409 27.1668 32.3755 24.5332 32.3755 22.4003C32.3755 19.915 31.4852 17.6522 27.1638 17.6522H24.3632" fill="white"/>
</g>
</g>
</g>
<defs>
<clipPath id="clip0_1399_8406">
<rect width="60" height="60" fill="white"/>
</clipPath>
<clipPath id="clip1_1399_8406">
<rect width="60" height="60" fill="white"/>
</clipPath>
<clipPath id="clip2_1399_8406">
<rect width="60" height="60" fill="white"/>
</clipPath>
</defs>
</svg>
