<svg width="60" height="60" viewBox="0 0 60 60" fill="none" xmlns="http://www.w3.org/2000/svg">
<rect width="60" height="60" fill="#032A33"/>
<g clip-path="url(#clip0_1772_9097)">
<path fill-rule="evenodd" clip-rule="evenodd" d="M10.0467 33.6065L19.5464 33.632C20.3324 35.3439 21.7054 36.7155 23.4378 37.5036C27.4016 39.3255 32.0997 37.6136 33.9407 33.7037L43.4145 33.7293L49.9329 42.9795L10.0234 42.8567L10.0467 33.6065ZM10.0958 18.0205L49.9924 18.1407L43.4274 27.3424L34.0131 27.3194C32.2704 23.3608 27.6084 21.5517 23.5955 23.2764C21.7778 24.0543 20.3195 25.4847 19.5076 27.281L10.07 27.2579L10.0958 18.0205ZM27.9291 30.5L30.8741 34.6633H27.867L25.7804 31.5568L25.4624 34.6761H22.7138L23.5722 26.1653L26.3208 26.1781L26.0519 28.9954L27.9653 26.1781L30.9724 26.1909L27.9291 30.5Z" fill="white"/>
</g>
<defs>
<clipPath id="clip0_1772_9097">
<rect width="40" height="25" fill="white" transform="translate(10 18)"/>
</clipPath>
</defs>
</svg>
