<svg width="60" height="60" viewBox="0 0 60 60" fill="none" xmlns="http://www.w3.org/2000/svg">
<rect width="60" height="60" fill="white"/>
<path d="M50 42H10V50H50V42Z" fill="#EB1A5C"/>
<path d="M10 40V33.1429C19.2632 29.7143 24.7368 28 30 28C35.2632 28 40.7368 29.7143 50 33.1429V40C44.9474 38.0714 35.6842 34.2143 30 34.2143C24.3158 34.2143 15.0526 38.0714 10 40Z" fill="#B83593"/>
<path d="M30 18C35.2632 18 40.7368 20.5574 50 25.6721V31C39.8947 25.459 34.8421 22.4754 30 22.4754C25.1579 22.4754 20.1053 25.2459 10 31V25.6721C19.2632 20.5574 24.7368 18 30 18Z" fill="#766BB0"/>
<path d="M30 13.8361C37.5789 13.8361 44.9474 17.2459 50 23V17.6721C44.9474 12.7705 37.1579 10.2131 30 10C22.8421 10 15.0526 12.7705 10 17.6721V23C15.0526 17.2459 22.4211 13.8361 30 13.8361Z" fill="#4478BC"/>
</svg>
