<svg width="60" height="60" viewBox="0 0 60 60" fill="none" xmlns="http://www.w3.org/2000/svg">
<rect width="60" height="60" fill="black"/>
<g clip-path="url(#clip0_150_1048)">
<path fill-rule="evenodd" clip-rule="evenodd" d="M38.7228 27.7979H44.109V49.9671H38.7228V27.7979ZM34.68 41.8409V49.9899H29.1084V41.8409C29.1084 38.6994 27.5288 37.1287 24.3698 37.1287H17.5868V49.9671H12.0153V17.6338H23.9965C31.0562 17.6338 34.8679 21.3333 34.8679 26.4141C34.8679 31.356 32.6357 33.558 29.342 34.4621V34.6792C32.7271 35.4217 34.68 37.2702 34.68 41.8409ZM29.0347 27.3914C29.0347 23.8813 26.7137 22.6338 23.6968 22.6338H17.5868V32.1388H23.6968C26.6908 32.1388 29.0347 30.8989 29.0347 27.3914Z" fill="#0684BC"/>
<path fill-rule="evenodd" clip-rule="evenodd" d="M40.0433 23.9773C39.3856 23.7122 38.8269 23.2551 38.4333 22.6692C38.0397 22.0808 37.834 21.3915 37.8391 20.6869C37.8391 19.9824 38.0473 19.293 38.4409 18.7071C38.8345 18.1213 39.3932 17.6642 40.0459 17.394C40.701 17.1238 41.4197 17.0531 42.1155 17.192C42.8088 17.3283 43.4462 17.6667 43.9465 18.1642C44.4493 18.6642 44.7896 19.298 44.9267 19.9874C45.0638 20.6793 44.9927 21.394 44.721 22.0455C44.4518 22.6945 43.9922 23.2526 43.403 23.6415C42.8139 24.0329 42.1206 24.2399 41.4121 24.2399C40.9423 24.245 40.4776 24.1566 40.0433 23.9773ZM37.3058 10.8258C36.003 11.3687 34.8171 12.1617 33.8191 13.1566L36.3459 15.6692C37.0087 15.0076 37.7959 14.4824 38.6619 14.1213C39.5303 13.7627 40.4598 13.5758 41.3994 13.5733C42.3365 13.5707 43.2684 13.7526 44.1369 14.1061C45.0054 14.4622 45.7952 14.9849 46.4605 15.644L48.9873 13.1314C47.4865 11.6415 45.5768 10.6288 43.4995 10.2172C41.4197 9.80812 39.2637 10.0202 37.3058 10.8258Z" fill="#FF7A00"/>
</g>
<defs>
<clipPath id="clip0_150_1048">
<rect width="37" height="40" fill="white" transform="translate(12 10)"/>
</clipPath>
</defs>
</svg>
