<svg width="60" height="60" viewBox="0 0 60 60" fill="none" xmlns="http://www.w3.org/2000/svg">
<rect width="60" height="60" fill="black"/>
<g clip-path="url(#clip0_168_571)">
<path d="M41.6735 45.5246C40.9954 44.1427 40.1975 42.385 39.4569 40.4221C37.6965 35.7552 36.9392 31.7184 36.9392 31.7184C36.9392 31.7184 39.034 35.2464 40.7944 39.9134C41.3319 41.3382 41.7746 42.7022 42.1318 43.9135V14.222C42.1318 13.2327 41.3267 12.4235 40.3423 12.4235H16.7896C15.8052 12.4235 15 13.2327 15 14.222V16.3346H31.0841V16.3399C35.1893 16.3399 38.5173 19.6836 38.5173 23.8093C38.5173 27.935 35.1893 31.2787 31.0841 31.2787V31.284H15V44.3343C15 45.3236 15.8052 46.1339 16.7896 46.1339C16.7896 46.1339 22.8259 46.1161 28.8508 46.0973C29.9716 48.4695 30.8789 50 30.8789 50C30.8789 50 30.5831 48.4203 29.93 46.0941C30.3998 46.0931 30.8664 46.091 31.3289 46.0899C30.5987 44.6379 29.6769 42.6646 28.831 40.4221C27.0706 35.7552 26.3133 31.7184 26.3133 31.7184C26.3133 31.7184 28.4081 35.2464 30.1685 39.9134C31.0622 42.2835 31.6966 44.4882 32.106 46.0878C32.1997 46.0868 32.2945 46.0868 32.3882 46.0868C33.5111 48.4642 34.4205 50 34.4205 50C34.4205 50 34.1237 48.415 33.4685 46.0836C33.9487 46.0816 34.4132 46.0805 34.8653 46.0784C34.1362 44.6274 33.2174 42.6593 32.3726 40.4221C30.6133 35.7552 29.855 31.7184 29.855 31.7184C29.855 31.7184 31.9508 35.2464 33.7112 39.9134C34.6028 42.2783 35.2361 44.4777 35.6455 46.0763C35.7361 46.0763 35.834 46.0763 35.9247 46.0753C37.0507 48.46 37.9632 50 37.9632 50C37.9632 50 37.6642 48.4098 37.0069 46.0721C37.5121 46.07 37.9788 46.069 38.4017 46.0669C37.6725 44.618 36.7559 42.653 35.9153 40.4221C34.1549 35.7552 33.3966 31.7184 33.3966 31.7184C33.3966 31.7184 35.4924 35.2464 37.2528 39.9134C38.1423 42.272 38.7746 44.4673 39.184 46.0648C39.2767 46.0648 39.3746 46.0648 39.4611 46.0638C40.5892 48.4548 41.5048 50 41.5048 50C41.5048 50 41.2048 48.4046 40.5454 46.0606C40.7423 46.0596 40.8496 46.0596 40.8496 46.0585C41.1725 45.9612 41.4548 45.7717 41.6735 45.5246Z" fill="#DAD9D9"/>
<path d="M42.7799 9.99997H19.2271C18.2428 9.99997 17.4365 10.8102 17.4365 11.7995V13.9111H33.5227V13.9163C37.6268 13.9163 40.9539 17.2611 40.9539 21.3868C40.9539 25.5126 37.6268 28.8563 33.5227 28.8563V28.8615H17.4365V41.9118C17.4365 42.9011 18.2428 43.7114 19.2271 43.7114C19.2271 43.7114 24.2739 43.6957 29.7447 43.679C30.8644 46.048 31.7717 47.5775 31.7717 47.5775C31.7717 47.5775 31.5727 46.5212 31.1446 44.8661C30.4467 43.456 29.6072 41.6239 28.8322 39.57C27.0718 34.903 26.3145 30.8652 26.3145 30.8652C26.3145 30.8652 28.4103 34.3942 30.1696 39.0612C30.8009 40.732 31.2998 42.3191 31.6853 43.6727C32.2186 43.6716 32.755 43.6695 33.2821 43.6674C34.405 46.0438 35.3133 47.5775 35.3133 47.5775C35.3133 47.5775 35.1154 46.5212 34.6852 44.8651C33.9884 43.456 33.1488 41.6229 32.3748 39.57C30.6144 34.903 29.8561 30.8652 29.8561 30.8652C29.8561 30.8652 31.9519 34.3942 33.7123 39.0612C34.3404 40.7289 34.8394 42.3107 35.2237 43.6622C35.7675 43.6601 36.3039 43.658 36.8185 43.657C37.9435 46.0386 38.8549 47.5775 38.8549 47.5775C38.8549 47.5775 38.657 46.5212 38.2268 44.8651C37.53 43.456 36.6904 41.6229 35.9154 39.57C34.1561 34.903 33.3977 30.8652 33.3977 30.8652C33.3977 30.8652 35.4935 34.3942 37.2539 39.0612C37.881 40.7236 38.3779 42.3023 38.7622 43.6507C39.3331 43.6496 39.8685 43.6476 40.3549 43.6465C41.482 46.0344 42.3965 47.5775 42.3965 47.5775C42.3965 47.5775 42.1986 46.5212 41.7695 44.8651C41.0726 43.456 40.233 41.6239 39.4581 39.57C37.6977 34.903 36.9404 30.8652 36.9404 30.8652C36.9404 30.8652 39.0351 34.3942 40.7955 39.0612C41.4205 40.7184 41.9174 42.2929 42.3007 43.6392C42.9257 43.6371 43.2871 43.635 43.2861 43.635C44.0257 43.4151 44.5694 42.7232 44.5694 41.9118V11.7995C44.5694 10.8102 43.7642 9.99997 42.7799 9.99997Z" fill="#00A363"/>
</g>
<defs>
<clipPath id="clip0_168_571">
<rect width="30" height="40" fill="white" transform="translate(15 10)"/>
</clipPath>
</defs>
</svg>
