<svg width="60" height="60" viewBox="0 0 60 60" fill="none" xmlns="http://www.w3.org/2000/svg">
<rect width="60" height="60" fill="#6C3C97"/>
<g clip-path="url(#clip0_150_767)">
<mask id="mask0_150_767" style="mask-type:luminance" maskUnits="userSpaceOnUse" x="4" y="19" width="52" height="23">
<path d="M4.02026 41.6022H55.98V19.171H4.02026V41.6022Z" fill="white"/>
</mask>
<g mask="url(#mask0_150_767)">
<path d="M15.6293 27.9523C15.6293 26.8579 14.6703 25.9765 13.4977 25.9765H12.4407V29.9107H13.4977C14.6703 29.9107 15.6293 29.0287 15.6293 27.9523ZM20.4377 35.7954H16.5574L13.4768 31.8699H12.4407V35.7869H9.021V24.0193H13.9199C16.7441 24.0193 19.0492 25.7827 19.0492 27.9523C19.0492 29.2756 18.1655 30.4575 16.8206 31.1806L20.4377 35.7954Z" fill="white"/>
<path d="M24.2943 28.6585C23.3912 28.6585 22.623 29.7856 22.623 31.1809C22.623 32.5761 23.3912 33.7047 24.2943 33.7047C25.2183 33.7047 25.9852 32.5761 25.9852 31.1809C25.9852 29.7856 25.2183 28.6585 24.2943 28.6585ZM29.5579 31.1809C29.5579 33.8463 27.1972 35.9807 24.2943 35.9807C21.3923 35.9807 19.0491 33.8463 19.0491 31.1809C19.0491 28.5174 21.3923 26.3819 24.2943 26.3819C27.1972 26.3819 29.5579 28.5174 29.5579 31.1809Z" fill="white"/>
<path d="M37.5828 26.5771L33.6435 30.1936V26.5651H30.2245V35.7868H33.6435V32.0462L37.7561 35.7868H42.0595L36.8334 30.9876L41.1622 27.0143V32.4869C41.1622 34.3038 42.3522 35.9807 45.3491 35.9807C46.7718 35.9807 48.0774 35.2397 48.7119 34.5694L50.2492 35.7868H50.979V26.5771H47.56V31.3752V32.5399C47.1749 33.1569 46.6385 33.5449 45.8093 33.5449C44.9681 33.5449 44.5822 33.087 44.5822 31.6224V31.2359V26.5771H37.5828Z" fill="white"/>
</g>
</g>
<defs>
<clipPath id="clip0_150_767">
<rect width="42" height="12" fill="white" transform="translate(9 24)"/>
</clipPath>
</defs>
</svg>
