<svg width="60" height="60" viewBox="0 0 60 60" fill="none" xmlns="http://www.w3.org/2000/svg">
<rect width="60" height="60" fill="black"/>
<g clip-path="url(#clip0_150_898)">
<mask id="mask0_150_898" style="mask-type:luminance" maskUnits="userSpaceOnUse" x="9" y="20" width="42" height="21">
<path d="M9 20H50.7622V41H9V20Z" fill="white"/>
</mask>
<g mask="url(#mask0_150_898)">
<path d="M29.6007 20L9 30.5V30.574L29.6007 41L50.7622 30.5L29.6007 20Z" fill="#CE0E2D"/>
<path d="M41.5274 29.7605C40.8544 29.7235 40.9666 28.9841 41.4527 28.8732C42.2377 28.6514 43.0603 29.3907 43.0603 29.3907L43.995 28.9471C43.995 28.9471 43.5463 27.9119 41.9387 27.801C40.9666 27.727 39.7702 28.4665 39.8076 29.4647C39.845 31.1285 41.7143 30.7957 42.4995 31.0545C43.2847 31.3134 42.7986 32.1636 42.0508 32.0897C40.9666 32.0157 40.6675 31.2764 40.6675 31.2764L39.7328 31.794C39.7328 31.794 40.1815 33.014 42.0135 33.051C43.4716 33.088 44.0697 32.2006 44.1446 31.6461C44.3315 29.9454 42.9107 29.8714 41.5274 29.7605ZM23.2074 27.838C21.8614 27.838 20.7398 29.0211 20.7398 30.5C20.7398 31.9788 21.8241 33.1619 23.2074 33.1619C24.5533 33.1619 25.675 31.9788 25.675 30.5C25.675 29.0211 24.5907 27.838 23.2074 27.838ZM23.2074 32.0897C22.5344 32.0897 21.9736 31.3872 21.9736 30.5C21.9736 29.6126 22.5344 28.9101 23.2074 28.9101C23.8804 28.9101 24.4412 29.6126 24.4412 30.5C24.4412 31.3872 23.9177 32.0897 23.2074 32.0897ZM20.4033 29.5017C20.4033 28.3556 19.0573 27.9489 19.0573 27.9489H16.4028V32.977H17.4871L17.4497 31.3134L18.3096 31.2764L19.2443 32.977L20.5529 33.014L19.4687 31.1285C19.4687 31.1285 20.4033 30.463 20.4033 29.5017ZM18.833 30.3151C18.3844 30.426 17.5992 30.352 17.5992 30.352L17.5618 28.9471H18.7582C19.506 29.5017 19.1695 29.9824 18.833 30.3151ZM30.8345 27.9859H29.6381V32.9401H32.5917V31.9788H30.8345V27.9859ZM32.9656 32.9031H34.1994V27.9859H32.9656V32.9031ZM29.2268 31.9788H27.4696V27.9859H26.2732V32.9401H29.2268V31.9788ZM38.1252 30.5H37.9756L36.2557 27.9859H35.0967V32.9401H36.2932V30.2411H36.4801L38.1252 32.9031H39.172V27.9859H38.1252V30.5Z" fill="white"/>
</g>
</g>
<defs>
<clipPath id="clip0_150_898">
<rect width="42" height="21" fill="white" transform="translate(9 20)"/>
</clipPath>
</defs>
</svg>
