<svg width="60" height="60" viewBox="0 0 60 60" fill="none" xmlns="http://www.w3.org/2000/svg">
<rect width="60" height="60" fill="black"/>
<g clip-path="url(#clip0_2190_9815)">
<path fill-rule="evenodd" clip-rule="evenodd" d="M13.0024 10.0051C19.0002 10.0051 25.003 10.0051 31.0008 10.0051C33.8828 10.0329 36.815 10.8076 39.1588 12.5367C41.7868 14.4253 43.5345 17.5266 43.7131 20.7797C43.9118 23.4886 43.097 26.3418 41.1832 28.3089C40.0264 29.5823 38.5603 30.5316 37.0112 31.2557C39.4354 32.5291 40.8362 35.0101 42.0307 37.3772C43.7634 40.9241 45.2924 44.5646 46.9773 48.1316C44.8171 48.7139 42.6619 49.3114 40.5067 49.9038C39.3097 50.0557 38.0976 49.9266 36.893 49.9722C34.9817 46.1772 33.5659 42.1468 31.5817 38.3848C30.5381 36.5013 29.1776 34.481 26.9847 33.9013C25.6518 33.6278 24.2788 33.8253 22.9283 33.7671C22.9283 39.1671 22.9283 44.5671 22.9308 49.9696C19.6214 49.9722 16.3119 49.9696 13.0024 49.9696C13.0024 36.6481 13.0024 23.3266 13.0024 10.0051ZM22.9283 17.357C22.9283 20.3595 22.9283 23.362 22.9283 26.3646C24.7289 26.3646 26.527 26.362 28.3276 26.3646C29.6982 26.3595 31.1442 26.0177 32.1953 25.0861C33.6916 23.7443 33.8702 21.3494 33.0101 19.6051C32.1979 18.0506 30.3495 17.4861 28.7174 17.4C26.7911 17.3038 24.8572 17.3797 22.9283 17.357Z" fill="#2FAEF3"/>
</g>
<defs>
<clipPath id="clip0_2190_9815">
<rect width="34" height="40" fill="white" transform="translate(13 10)"/>
</clipPath>
</defs>
</svg>
