<svg width="60" height="60" viewBox="0 0 60 60" fill="none" xmlns="http://www.w3.org/2000/svg">
<rect width="60" height="60" fill="black"/>
<g clip-path="url(#clip0_1772_9330)">
<path fill-rule="evenodd" clip-rule="evenodd" d="M32.6149 10.0259C34.8803 10.6947 39.543 12.8101 39.4136 18.6143C39.4136 27.5113 25.6608 28.232 25.6608 28.232C25.6608 28.232 30.0388 28.4394 32.3819 29.5489C33.5676 30.0907 34.8052 30.5288 36.6071 32.4627C38.3832 34.267 38.6939 37.5955 38.7197 37.5696V40.766C38.7456 40.8178 38.334 44.9189 40.5217 47.2909C42.1968 49.1756 44.6951 49.8185 45.3657 49.974H49.9741V10.0259H32.6149ZM29.5754 46.9825C27.9547 44.9708 28.0324 41.4633 28.0816 41.4893L27.877 38.1633C27.8252 34.5521 26.6654 32.3331 23.7553 30.451C20.4595 28.4394 15.2039 28.232 15.2298 28.232C15.2039 28.232 29.112 27.151 28.778 18.3033C28.6744 12.6545 24.2964 10.6947 22.1579 10.0259H10V49.974H34.5748C33.6453 49.8444 31.4835 49.3026 29.5754 46.9825Z" fill="#0081C6"/>
</g>
<defs>
<clipPath id="clip0_1772_9330">
<rect width="40" height="40" fill="white" transform="translate(10 10)"/>
</clipPath>
</defs>
</svg>
