<svg width="60" height="60" viewBox="0 0 60 60" fill="none" xmlns="http://www.w3.org/2000/svg">
<rect width="60" height="60" fill="black"/>
<g clip-path="url(#clip0_1759_9191)">
<path fill-rule="evenodd" clip-rule="evenodd" d="M25.8454 10.2496C26.2913 10.1338 26.7423 10.0798 27.1959 10.0206L29.2836 21.9589C28.83 22.0129 28.3789 22.0747 27.9253 22.1827L25.8454 10.2496ZM19.3119 12.8991C19.7578 12.6161 20.2655 12.3949 20.7165 12.112L26.7501 22.6406C26.2449 22.8618 25.7913 23.0933 25.3403 23.4303L19.3119 12.8991ZM22.0207 31.137H10.0671C10.0129 30.746 10.0129 30.3473 10.0129 29.9563C10.0129 29.5062 10.0129 29.1152 10.0671 28.7165H22.0207C21.9588 29.1152 21.9047 29.5602 21.9047 30.0103C21.9047 30.4091 21.9588 30.746 22.0207 31.137ZM37.6882 27.2528H49.8119C49.9253 28.0965 49.9872 28.9994 49.9872 29.8972C49.9872 30.6869 49.9253 31.474 49.8712 32.2097H43.33L49.4717 34.4631C49.1341 35.9808 48.6882 37.3904 48.0078 38.7409L41.0207 36.1505L46.7707 40.9917C45.9794 42.1724 45.08 43.2991 44.0619 44.3126L37.6341 38.9081L41.8119 46.2264C40.683 47.0702 39.5001 47.7518 38.2578 48.3126L33.6882 40.3718L35.2707 49.3827C34.08 49.6605 32.8995 49.8895 31.6624 49.9975L29.9666 40.2586L28.2758 49.9975C27.0954 49.8895 25.9665 49.6605 24.8377 49.3827L26.6418 38.9621L21.3995 48.1428C20.3841 47.6901 19.4794 47.1319 18.58 46.5094L24.1624 36.7705L15.6495 43.973C14.9717 43.2451 14.2964 42.4554 13.7294 41.6682L22.8119 33.8972L11.6495 38.0052C11.3042 37.2232 10.9665 36.3718 10.7423 35.474L22.0207 31.366C22.6959 35.1911 26.0207 38.1184 30.0258 38.1184C34.5336 38.1184 38.1418 34.5171 38.1418 30.0103C38.1418 29.0534 37.9717 28.1557 37.6882 27.2528ZM10.9124 24.0425C11.1341 23.366 11.366 22.692 11.6495 22.0181L22.9176 26.1261C22.58 26.746 22.3042 27.42 22.1341 28.1557L10.9124 24.0425ZM45.7501 17.4521L36.5619 25.1692C36.3944 24.9403 36.1702 24.6624 35.9408 24.4335L45.1289 16.7242C45.3583 16.948 45.5825 17.2309 45.7501 17.4521ZM34.5903 23.2528C34.2501 23.0239 33.9124 22.8567 33.5748 22.6869L39.6083 12.2714C39.8867 12.4412 40.2243 12.611 40.5696 12.8399L34.5903 23.2528ZM23.2526 25.5062L14.0619 17.7351C14.4614 17.2206 14.8531 16.7165 15.3068 16.2714L24.549 24.0348C24.0413 24.4875 23.6495 24.9377 23.2526 25.5062ZM32.9537 10.0181C33.3454 10.0721 33.7372 10.1853 34.1367 10.2393L32.049 22.1801C31.6573 22.0644 31.2578 22.0103 30.866 21.9563L32.9537 10.0181Z" fill="white"/>
</g>
<defs>
<clipPath id="clip0_1759_9191">
<rect width="40" height="40" fill="white" transform="translate(10 10)"/>
</clipPath>
</defs>
</svg>
