<svg width="60" height="60" viewBox="0 0 60 60" fill="none" xmlns="http://www.w3.org/2000/svg">
<rect width="60" height="60" fill="black"/>
<g clip-path="url(#clip0_1772_9346)">
<mask id="mask0_1772_9346" style="mask-type:luminance" maskUnits="userSpaceOnUse" x="13" y="17" width="34" height="34">
<path d="M29.9961 17.8987C29.8678 17.8987 29.7395 17.9379 29.6297 18.0153L14.3763 28.7869C13.5233 29.3885 13.0146 30.3712 13.0146 31.4207V37.1496C13.0146 38.0933 13.4722 38.9761 14.2383 39.5174L28.3453 49.477C28.8408 49.827 29.4191 50.0023 29.9969 50.0023C30.5744 50.0023 31.1522 49.827 31.6477 49.477L45.7652 39.513C46.5324 38.9718 46.9896 38.0879 46.9896 37.1441V32.5877C46.9896 31.8543 46.3909 31.3414 45.7485 31.3414C45.5097 31.3414 45.2646 31.4126 45.0427 31.5693L30.3622 41.9306C30.2516 42.008 30.1233 42.0473 29.995 42.0473C29.8667 42.0473 29.7387 42.008 29.6281 41.9306L29.6297 41.9314L18.6701 34.1996L29.6297 26.4494C29.7395 26.3709 29.8694 26.3328 29.9977 26.3328C30.126 26.3328 30.2524 26.3709 30.3622 26.4475L34.6305 29.4402C34.85 29.5942 35.1055 29.6708 35.3613 29.6708C35.6177 29.6708 35.8743 29.5931 36.0946 29.4383L41.3326 25.7433L30.3622 18.0153C30.2516 17.9379 30.1241 17.8987 29.9961 17.8987Z" fill="white"/>
</mask>
<g mask="url(#mask0_1772_9346)">
<path d="M-37.6719 10.8066H96.9482V56.7227H-37.6719V10.8066Z" fill="url(#paint0_linear_1772_9346)"/>
</g>
<mask id="mask1_1772_9346" style="mask-type:luminance" maskUnits="userSpaceOnUse" x="13" y="9" width="34" height="34">
<path d="M29.9977 9.99951C29.4202 9.99951 28.8416 10.1749 28.3461 10.5245L14.2391 20.4818C13.4722 21.0228 13.0146 21.9067 13.0146 22.8504V27.4095C13.0146 28.1432 13.6137 28.655 14.2549 28.655C14.4938 28.655 14.7389 28.5838 14.9608 28.4271L29.6297 18.0685C29.7403 17.9911 29.8686 17.9519 29.9969 17.9519C30.1252 17.9519 30.2535 17.9911 30.363 18.0685L41.3334 25.7968L30.3614 33.5373C30.2516 33.6147 30.1225 33.6539 29.9942 33.6539C29.8667 33.6539 29.7395 33.6158 29.6297 33.5383L25.5551 30.6818C25.281 30.4896 24.9617 30.3933 24.6422 30.3933C24.321 30.3933 24.0009 30.4913 23.7257 30.6853L18.6701 34.252L29.6297 41.9846C29.7403 42.0623 29.8678 42.1013 29.9961 42.1013C30.1241 42.1013 30.2524 42.0623 30.363 41.9846L45.6272 31.2106C46.481 30.6079 46.9896 29.6252 46.9896 28.5757V22.8388C46.9896 21.8942 46.5313 21.0103 45.7636 20.4693L31.6466 10.5229C31.1522 10.1738 30.5744 9.99951 29.9977 9.99951Z" fill="white"/>
</mask>
<g mask="url(#mask1_1772_9346)">
<path d="M-35.0171 4.6875H93.8763V45.973H-35.0171V4.6875Z" fill="url(#paint1_linear_1772_9346)"/>
</g>
</g>
<defs>
<linearGradient id="paint0_linear_1772_9346" x1="52.6026" y1="16.3222" x2="18.5466" y2="41.4189" gradientUnits="userSpaceOnUse">
<stop stop-color="white"/>
<stop offset="0.5" stop-color="#86A1A1"/>
<stop offset="1" stop-color="#0E4343"/>
</linearGradient>
<linearGradient id="paint1_linear_1772_9346" x1="4.61161" y1="44.4122" x2="41.2962" y2="17.3476" gradientUnits="userSpaceOnUse">
<stop stop-color="white"/>
<stop offset="0.5" stop-color="#86A1A1"/>
<stop offset="1" stop-color="#0E4343"/>
</linearGradient>
<clipPath id="clip0_1772_9346">
<rect width="34" height="40" fill="white" transform="translate(13 10)"/>
</clipPath>
</defs>
</svg>
