<svg width="60" height="60" viewBox="0 0 60 60" fill="none" xmlns="http://www.w3.org/2000/svg">
<rect width="60" height="60" fill="#0158B1"/>
<path d="M48.3085 48.8546H48.7524L49.5521 46.1744C48.9398 45.2946 48.0432 44.6524 47.0132 44.3557C47.9993 43.5983 48.8175 42.6444 49.4159 41.5544C50.0101 40.4748 50.3686 39.2814 50.4678 38.0531C50.5669 36.8247 50.4044 35.5893 49.991 34.4283C49.5753 33.2613 48.9201 32.1942 48.0676 31.2953L49.6921 28.6946C49.9103 28.32 50.0528 27.1307 49.991 26.7018C49.9619 26.4702 49.8718 26.2504 49.7299 26.0649C49.5863 25.8771 49.3964 25.7297 49.1788 25.6373L44.8993 24.0242H37.0467L34.0991 25.7067V21.4865H32.3863C32.6247 21.3099 32.8303 21.0501 32.9955 20.8067L32.9324 20.5595C31.9714 21.2166 31.5564 21.0362 30.676 20.6553C30.2245 20.4522 29.7612 20.2762 29.2887 20.1281C28.7984 19.9853 28.281 19.9628 27.7802 20.0626C27.2813 20.1608 26.8138 20.3789 26.418 20.6982C26.4054 20.591 26.4054 20.4838 26.418 20.3766C26.4811 19.8444 26.9137 19.2617 28.4373 19.3613C29.2402 19.421 30.045 19.45 30.8501 19.4483C31.5526 19.5164 32.5629 19.3638 33.1721 19.0144C33.4105 18.8404 33.6072 18.6184 33.7523 18.3649C33.896 18.112 33.9838 17.8311 34.0096 17.5413C34.0991 17.0721 34.0991 16.3166 34.0991 15.7478V11.3964H20.2252V10.139H16.9712C16.4642 10.1168 15.9578 10.194 15.4804 10.366C15.0058 10.5374 14.5699 10.801 14.1977 11.1417C13.8281 11.4822 13.5305 11.8896 13.3249 12.3424C13.1188 12.7934 13.0072 13.2819 12.997 13.7777C12.9886 14.237 13.0753 14.693 13.2517 15.1172C13.4283 15.5422 13.6906 15.9281 14.0236 16.2523C14.3579 16.5764 14.7552 16.8312 15.1915 17.0015C15.3908 17.0797 16.1451 17.1087 16.3973 17.1188L16.4415 17.12V17.1226C16.497 17.1226 16.4894 17.1226 16.4415 17.12V15.8108C16.4415 15.8108 16.2296 15.7503 16.077 15.6746C15.8535 15.564 15.6575 15.405 15.5031 15.2092C15.3507 15.0157 15.2442 14.7902 15.1915 14.5496C15.1388 14.2345 15.1418 13.9126 15.2004 13.5986C15.2294 13.1218 15.4476 12.6728 15.8058 12.3487C16.1665 12.0233 16.6609 11.9325 16.8955 11.9325H17.7027V13.919H21.4865V15.5271H20.7512V16.4415L24.009 17.3244V13.919H31.5766V15.9937C31.6056 16.328 31.6056 16.5247 31.5766 16.859C31.5677 16.9798 31.5351 17.0977 31.4805 17.206C31.426 17.3142 31.3506 17.4106 31.2588 17.4896C31.0406 17.6556 30.7708 17.7392 30.4969 17.7254H28.0198C26.4962 17.7254 24.6296 18.1845 24.6296 20.3388C24.6321 20.7726 24.7254 21.2002 24.9045 21.5962C25.0836 21.9923 25.3447 22.3492 25.6714 22.6431C25.9968 22.9357 26.3815 23.1615 26.8015 23.304C27.2214 23.4467 27.6657 23.5038 28.1081 23.4717C28.9027 23.497 29.6822 23.1817 30.3179 22.7175H31.5766V24.3874C30.0681 24.0532 28.2784 24.1099 26.7989 24.5476C25.5932 24.7999 24.3647 24.9361 23.1299 24.9562C21.9645 24.9613 21.2342 24.6775 20.3867 23.8993C19.5423 23.1291 19.0319 22.0598 18.964 20.919L17.5425 20.1786C17.3533 23.0013 18.3043 24.8453 21.3515 26.3676C25.047 28.2254 27.1042 29.7554 28.1069 32.8379H29.0465V30.6761C32.1063 32.5579 33.6816 34.1786 34.4813 36.0112C34.9038 37.0139 35.1624 38.0746 35.2431 39.1555H35.5357C35.856 37.6485 35.7856 36.0846 35.3314 34.6125C35.2242 34.3475 35.0969 34.0911 34.9505 33.8456L37.8337 33.9692C37.7732 35.1296 37.8072 36.2925 37.9346 37.4478H36.9067V37.8312H37.9851C38.0481 38.3017 38.1377 38.7721 38.2398 39.2552H38.5438V37.8678L43.4829 38.1402C43.4577 39.1669 43.3479 40.1898 43.1537 41.1988L42.0867 41.3224V41.5204L43.0894 41.5948C43.0137 41.9782 42.9128 42.3617 42.8106 42.7463H43.1789C43.3933 42.3881 43.5888 42.0211 43.7629 41.644L47.6854 41.9417C47.0903 42.8266 46.3165 43.5771 45.4139 44.1451L44.6269 44.2308L36.8045 45.4076C36.6556 44.8739 36.4558 44.3556 36.2079 43.86C34.562 40.5681 32.4746 39.1429 22.2407 32.4582C18.9526 30.3166 13.7726 26.8141 12.2364 23.9535C11.7603 23.0445 11.5119 22.0334 11.5124 21.0072C11.5024 19.9717 12.0296 18.9602 12.6577 18.1227V17.1705C11.9097 17.6397 11.1063 18.293 10.7002 19.0649C10.2927 19.8329 10.0993 20.6963 10.1402 21.5647C10.1515 22.5599 10.3584 23.5436 10.7506 24.4618C11.4103 26.1204 12.4899 27.5444 15.2193 29.9458C17.7595 32.1744 19.4861 34.0184 20.4636 36.4943H20.8193V34.0184L22.6986 35.3175C25.1372 36.8967 27.1441 39.0584 28.5382 41.6074H28.8813V39.2665C33.046 41.9908 36.0301 44.5411 36.6771 49.6782H37.0328C37.1891 48.4403 37.138 47.1849 36.8815 45.9638H43.9155C46.1757 45.9638 48.3211 46.5831 48.3211 48.8735L48.3085 48.8546ZM27.1672 21.6517C27.4964 21.339 27.9088 21.0728 28.3591 20.9795C28.6618 20.9164 29.5914 20.8067 29.7452 21.1561C29.5901 21.3579 29.3946 21.5231 29.1688 21.6454C28.9426 21.7674 28.6935 21.8413 28.4373 21.8624C28.0028 21.9045 27.5649 21.8319 27.1672 21.6517ZM32.4242 26.5908L29.0213 28.5458L29.0465 28.571C28.0186 27.9404 26.5076 26.9995 26.0888 26.7018C27.4307 26.3934 28.7923 26.1784 30.164 26.0586C30.9479 26.0629 31.7207 26.2449 32.4242 26.5908ZM44.5499 28.1132L44.0807 28.7564L44.106 28.7817C43.1611 28.5102 42.1802 28.3852 41.1975 28.4108C39.7524 28.4303 38.3316 28.7848 37.0467 29.4463C35.7724 30.1016 34.6712 31.0489 33.833 32.211C32.9526 31.2726 32.3447 30.6887 31.26 29.9824L37.2523 26.5316H44.3847L47.8645 27.8786L46.5944 29.9824C46.2658 29.7577 45.9224 29.5554 45.5665 29.377L45.9726 28.0274L43.9407 26.9617L43.8272 27.1723L44.5499 28.1132ZM43.1537 34.142C43.3442 35.1094 43.4501 36.0907 43.4703 37.0757L38.5955 37.4099C38.695 36.2677 38.8775 35.1342 39.1416 34.0184L43.1537 34.142ZM44.893 37.0013C44.9624 36.0654 44.9371 35.1233 44.8173 34.1912L48.1054 34.3161C48.4964 35.093 48.7461 35.9305 48.842 36.7919L44.893 37.0013ZM41.6301 30.1438C42.1233 31.0355 42.5155 31.9777 42.798 32.9539L39.3447 33.1519C39.6096 32.1505 39.94 31.1654 40.3348 30.2056C40.6085 30.1703 40.8834 30.1501 41.1597 30.1426L41.6301 30.1438ZM44.5625 32.8555C44.3923 32.0933 44.1677 31.3443 43.8903 30.6143L43.9281 30.6269C45.1049 31.0923 46.1467 31.8314 46.9627 32.7799L44.5625 32.8555ZM48.8433 38.3874C48.8023 39.1217 48.6301 39.8428 48.335 40.5164L43.9294 41.0613C44.3078 40.128 44.5789 39.1555 44.7416 38.1642L48.8433 38.3874ZM35.0034 33.3235C35.7943 32.1775 36.8949 31.2802 38.1768 30.7366L38.2398 30.7744C38.0415 31.5641 37.8978 32.3665 37.8097 33.1759L35.0034 33.3235ZM11.3195 31.2928C11.5112 34.0008 13.6869 35.8296 20.5305 39.9526C27.7285 44.3305 29.7263 46.9993 30.3153 50.4955H29.9319C28.3717 47.1456 25.2097 45.2777 21.6101 43.2899V45.9588H21.2279C20.0158 43.3171 18.127 41.0427 15.7528 39.3662C14.0072 38.2954 12.4869 36.895 11.2766 35.2431C10.5284 34.1567 10.1321 32.8667 10.1415 31.5476C10.1639 30.5517 10.4621 29.5816 11.0029 28.7451L11.6461 29.1588C11.4154 29.8465 11.3044 30.5688 11.3182 31.2941L11.3195 31.2928Z" fill="#FEDC02"/>
</svg>
