<svg width="60" height="60" viewBox="0 0 60 60" fill="none" xmlns="http://www.w3.org/2000/svg">
<rect width="60" height="60" fill="#FEEB02"/>
<g clip-path="url(#clip0_168_388)">
<path d="M17.4017 28.8027V28.6163C17.4101 27.2968 16.2419 26.6503 13.8909 26.6503C12.0637 26.6503 10.0421 27.1641 10.0421 29.0398C10.0421 30.0559 10.7307 30.196 12.1231 30.4339C13.3373 30.6452 14.1006 30.685 14.1006 31.1865C14.1006 31.5296 13.7406 31.7277 13.1267 31.7277C12.3931 31.7277 12.0637 31.5039 12.0637 30.9884V30.9088H9.33828C9.33828 31.0281 9.323 31.0679 9.323 31.1334C9.323 32.9419 11.3599 33.3514 12.9917 33.3514C14.8494 33.3514 16.9907 32.7438 16.9907 30.8301C16.9907 29.1533 15.4624 29.3962 13.9656 29.1716C13.6064 29.1185 13.007 29.0787 13.007 28.6436C13.007 28.3262 13.3364 28.1156 13.8459 28.1156C14.4444 28.1156 14.7441 28.3005 14.7441 28.7091C14.7441 28.7356 14.7441 28.7754 14.7297 28.8152H17.4101L17.4017 28.8027ZM22.0773 26.7207H19.2169L16.9907 35.8378H19.9556L20.7155 32.5366C21.1655 33.2096 21.8838 33.513 22.9765 33.513C25.6272 33.513 26.8846 31.4683 26.8846 29.4749C26.8846 27.7592 25.7919 26.6503 24.1295 26.6503C23.2456 26.6503 22.5121 26.9404 21.9135 27.5346L22.0773 26.7207ZM22.9009 28.6826C23.5301 28.6826 23.89 29.1053 23.89 29.765C23.89 30.5706 23.4706 31.5859 22.3329 31.5859C21.6138 31.5859 21.2096 31.1765 21.2096 30.4505C21.2096 29.7244 21.6282 28.6826 22.9009 28.6826ZM31.9679 26.7207H29.0183L27.3711 33.3514H30.336L31.9679 26.7207ZM32.597 24.2342H29.6321L29.1974 25.8919H32.1631L32.597 24.2342ZM39.5524 26.729C37.7125 26.3809 36.9534 27.6905 35.9898 28.8541L36.4678 26.7207H33.6371L32.0044 33.3514H34.9404L35.6739 30.6104C36.0305 29.1144 37.4153 28.5773 38.9988 29.0265L39.5524 26.729ZM43.3467 26.729H40.3963L38.7492 33.3514H41.714L43.3467 26.729ZM43.975 24.2342H41.0102L40.5763 25.8919H43.5412L43.975 24.2342ZM50.0516 26.7207H48.4639L48.9734 25.0631H46.0221L45.4838 26.7207H44.1958L43.7764 28.3784H45.0644L44.4802 30.4471C44.2552 31.3448 44.2255 31.5031 44.2255 31.7675C44.2255 33.1135 45.5729 33.3514 46.8015 33.3514C47.6395 33.3514 47.8942 33.3381 48.5234 33.2461L48.9734 31.3978C48.7034 31.4243 48.4334 31.4243 48.1642 31.4243C47.7295 31.4243 47.3406 31.4111 47.3406 30.9486C47.3406 30.8566 47.4001 30.5524 47.4748 30.2888L48.0437 28.3784H49.6314L50.0516 26.7207Z" fill="black"/>
</g>
<defs>
<clipPath id="clip0_168_388">
<rect width="42" height="12" fill="white" transform="translate(9 24)"/>
</clipPath>
</defs>
</svg>
