<svg width="60" height="60" viewBox="0 0 60 60" fill="none" xmlns="http://www.w3.org/2000/svg">
<rect width="60" height="60" fill="#223F55"/>
<g clip-path="url(#clip0_168_647)">
<path d="M32.9287 26.8571C32.9287 26.8571 33.4309 26.6364 33.9338 26.6811C34.3878 26.7204 34.3041 27.0331 34.3041 27.0331L33.5839 29.281C33.5839 29.281 33.4529 29.8321 33.2784 29.2157C33.2784 29.2157 33.1032 28.0248 32.841 27.4735C32.841 27.4735 32.4692 27.0116 32.9287 26.8571ZM29.084 29.5016C29.4768 29.8983 29.3023 31.485 29.3023 31.485C28.5594 34.3287 26.4837 33.6452 26.4837 33.6452C27.0083 31.3536 29.084 29.5016 29.084 29.5016ZM48.3034 39.1574C48.3034 39.1574 48.0192 46.4745 40.5477 47.3786L19.4497 47.3754C11.979 46.472 11.6948 39.1549 11.6948 39.1549L11.7011 20.8399C11.7011 20.8399 11.9846 13.5236 19.4559 12.6195H35.6597C35.2879 16.5863 32.5789 15.6831 32.5789 15.6831C31.8147 15.3525 30.2853 14.8236 30.2853 14.8236C25.7632 13.8757 23.7535 16.9834 23.7535 16.9834C21.4377 20.6635 24.4964 23.6175 24.4964 23.6175L28.0793 27.2975C23.7093 30.1412 22.8139 32.6974 22.8139 32.6974C22.5517 33.2262 22.1148 32.8957 22.1148 32.8957C21.6564 32.7858 20.8045 31.9693 20.5424 30.9784C20.2803 29.9867 20.979 28.157 20.979 28.157H20.302L18.3798 34.5708H19.0565C19.1441 34.3725 19.6029 33.4031 21.0879 33.4246C22.5739 33.447 22.2241 34.2618 22.2241 34.2618C21.2195 38.141 23.2513 40.9838 23.2513 40.9838C23.2513 40.9838 24.7585 43.8274 28.7777 44.7308C28.7777 44.7308 33.7806 46.0754 37.3194 41.2929H36.7729C34.5449 44.1572 31.5312 44.0474 31.5312 44.0474C31.5312 44.0474 24.0811 44.0036 26.2878 34.5932C30.7219 34.7906 32.3823 32.08 32.3823 32.08C32.7542 31.5073 32.8189 32.213 32.8189 32.213L30.744 39.0665C30.2419 40.2566 28.6485 40.3474 28.6485 40.3474L28.6471 40.7417L35.6377 40.7473V40.3451C33.6062 40.2932 34.1739 38.7798 34.1739 38.7798L37.5594 27.3199C37.5594 27.3199 40.2028 27.143 39.1764 31.2428H39.6573L41.3831 25.1819H40.9892C39.8096 27.2975 37.8445 26.3059 37.8445 26.3059L38.6299 23.7712C39.2854 22.4275 41.0548 22.2506 41.0548 22.2506V21.8102H34.2394V22.1626C36.1177 22.7357 34.6539 25.865 34.6539 25.865C33.2785 25.7331 31.9458 25.9753 31.9458 25.9753L27.4011 21.3912C25.8217 19.759 26.1122 17.253 27.5962 16.2112C28.9905 15.233 31.1001 15.2696 32.5221 16.7863C33.8288 18.1803 33.8785 19.2623 33.6274 20.6201H34.3924L36.7705 12.6195H40.5486C48.0199 13.5236 48.3042 20.8399 48.3042 20.8399L48.3034 39.1574ZM41.4225 11.1814H18.5835C10.4931 12.1599 10.186 20.0824 10.186 20.0824L10.1797 39.9141C10.1797 39.9141 10.4876 47.8374 18.5768 48.8155L41.4225 48.8187C49.5114 47.8406 49.8193 39.9173 49.8193 39.9173L49.8202 20.0824C49.8202 20.0824 49.5122 12.1599 41.4225 11.1814Z" fill="white"/>
</g>
<defs>
<clipPath id="clip0_168_647">
<rect width="40" height="38" fill="white" transform="translate(10 11)"/>
</clipPath>
</defs>
</svg>
