<svg width="60" height="60" viewBox="0 0 60 60" fill="none" xmlns="http://www.w3.org/2000/svg">
<g clip-path="url(#clip0_150_759)">
<rect width="60" height="60" fill="white"/>
<g clip-path="url(#clip1_150_759)">
<mask id="mask0_150_759" style="mask-type:luminance" maskUnits="userSpaceOnUse" x="0" y="0" width="60" height="60">
<path d="M0.0698242 30.1452C0.0698242 46.5592 13.3781 59.8652 29.7901 59.8652C46.2061 59.8652 59.5103 46.5592 59.5103 30.1452C59.5103 13.7312 46.2061 0.424595 29.7901 0.424595C13.3781 0.424595 0.0698242 13.7312 0.0698242 30.1452Z" fill="white"/>
</mask>
<g mask="url(#mask0_150_759)">
<path d="M63.8214 50.8357H-3.97595V-1.83819H63.8214V50.8357Z" fill="#FF5621"/>
<path d="M76.3578 19.7684C71.056 17.6047 65.9507 16.5675 61.6618 16.1137C60.8393 16.0063 58.8174 15.7895 55.9791 15.7996C53.1449 15.7895 51.123 16.0063 50.3005 16.1137C46.0116 16.5675 40.9043 17.6047 35.6024 19.7684C30.4931 21.8531 25.5681 22.8924 21.3764 23.3725V23.3644C21.3764 23.3644 21.3217 23.3746 21.2164 23.3908C18.9899 23.6379 16.9741 23.7291 15.2561 23.7372C13.5382 23.7291 11.5244 23.6379 9.29588 23.3908C9.19053 23.3746 9.1338 23.3644 9.1338 23.3644V23.3725C4.94624 22.8924 0.0171738 21.8531 -5.09016 19.7684C-10.392 17.6047 -15.4973 16.5675 -19.7862 16.1137C-20.6087 16.0063 -22.6306 15.7895 -25.4689 15.7996C-28.3032 15.7895 -30.325 16.0063 -31.1475 16.1137C-35.4384 16.5675 -40.5437 17.6047 -45.8456 19.7684C-59.7535 25.445 -72.3142 23.3644 -72.3142 23.3644V61.634H102.824V23.3644C102.824 23.3644 90.2637 25.445 76.3578 19.7684Z" fill="#06A449"/>
<path d="M105.993 19.7684C100.691 17.6047 95.5836 16.5675 91.2947 16.1137C90.4722 16.0063 88.4523 15.7895 85.614 15.7996C82.7777 15.7895 80.7579 16.0063 79.9354 16.1137C75.6465 16.5675 70.5391 17.6047 65.2373 19.7684C60.128 21.8531 55.2029 22.8924 51.0113 23.3725V23.3644C51.0113 23.3644 50.9566 23.3746 50.8492 23.3908C48.6248 23.6379 46.609 23.7291 44.891 23.7372C43.173 23.7291 41.1572 23.6379 38.9308 23.3908C38.8254 23.3746 38.7687 23.3644 38.7687 23.3644V23.3725C34.5791 22.8924 29.6521 21.8531 24.5447 19.7684C19.2429 17.6047 14.1355 16.5675 9.84668 16.1137C9.02415 16.0063 7.00431 15.7895 4.166 15.7996C1.32971 15.7895 -0.690125 16.0063 -1.51265 16.1137C-5.80354 16.5675 -10.9089 17.6047 -16.2107 19.7684C-30.1186 25.445 -42.6793 23.3644 -42.6793 23.3644V61.634H132.459V23.3644C132.459 23.3644 119.899 25.445 105.993 19.7684Z" fill="#08E8FF"/>
<path d="M-5.56934 8.11688C-0.269533 10.2806 4.83781 11.3178 9.12668 11.7716C9.9492 11.879 11.9711 12.0958 14.8074 12.0857C17.6436 12.0958 19.6655 11.879 20.488 11.7716C24.7769 11.3178 29.8842 10.2806 35.184 8.11688C40.2954 6.03221 45.2204 4.99291 49.41 4.51277V4.52087C49.41 4.52087 49.4647 4.51075 49.5721 4.49656C51.7986 4.24738 53.8144 4.15621 55.5324 4.15013C57.2504 4.15621 59.2641 4.24738 61.4926 4.49656C61.598 4.51075 61.6547 4.52087 61.6547 4.52087V4.51277C65.8423 4.99291 70.7713 6.03221 75.8787 8.11688C81.1785 10.2806 86.2858 11.3178 90.5747 11.7716C91.3972 11.879 93.4191 12.0958 96.2574 12.0857C99.0916 12.0958 101.114 11.879 101.936 11.7716C106.227 11.3178 111.332 10.2806 116.632 8.11688C130.542 2.44026 143.103 4.52087 143.103 4.52087V-33.7487H-32.038V4.52087C-32.038 4.52087 -19.4773 2.44026 -5.56934 8.11688Z" fill="#E31D25"/>
<path d="M78.5617 32.4766C73.2599 30.3129 68.1525 29.2756 63.8637 28.8218C63.0411 28.7144 61.0213 28.4976 58.183 28.5078C55.3467 28.4976 53.3269 28.7144 52.5043 28.8218C48.2155 29.2756 43.1081 30.3129 37.8063 32.4766C32.6969 34.5612 27.7719 35.6005 23.5803 36.0807V36.0726C23.5803 36.0726 23.5256 36.0827 23.4182 36.0969C21.1938 36.3461 19.178 36.4372 17.46 36.4433C15.742 36.4372 13.7262 36.3461 11.4997 36.0969C11.3944 36.0827 11.3377 36.0726 11.3377 36.0726V36.0807C7.14806 35.6005 2.22103 34.5612 -2.88631 32.4766C-8.18814 30.3129 -13.2955 29.2756 -17.5844 28.8218C-18.4069 28.7144 -20.4267 28.4976 -23.265 28.5078C-26.1013 28.4976 -28.1212 28.7144 -28.9437 28.8218C-33.2346 29.2756 -38.3399 30.3129 -43.6417 32.4766C-57.5497 38.1532 -70.1104 36.0726 -70.1104 36.0726V74.3422H105.028V36.0726C105.028 36.0726 92.4676 38.1532 78.5617 32.4766Z" fill="#468EF7"/>
<path d="M105.603 46.4402C100.303 44.2765 95.1958 43.2392 90.907 42.7854C90.0844 42.678 88.0626 42.4613 85.2263 42.4714C82.39 42.4613 80.3681 42.678 79.5456 42.7854C75.2567 43.2392 70.1494 44.2765 64.8496 46.4402C59.7402 48.5248 54.8132 49.5641 50.6236 50.0443V50.0362C50.6236 50.0362 50.5689 50.0463 50.4615 50.0605C48.235 50.3097 46.2192 50.4008 44.5033 50.4089C42.7833 50.4008 40.7695 50.3097 38.541 50.0605C38.4356 50.0463 38.3789 50.0362 38.3789 50.0362V50.0443C34.1914 49.5641 29.2623 48.5248 24.155 46.4402C18.8551 44.2765 13.7478 43.2392 9.45893 42.7854C8.63641 42.678 6.61454 42.4613 3.77623 42.4714C0.941967 42.4613 -1.0799 42.678 -1.90242 42.7854C-6.19331 43.2392 -11.2986 44.2765 -16.5984 46.4402C-30.5084 52.1168 -43.0691 50.0362 -43.0691 50.0362V88.3058H132.072V50.0362C132.072 50.0362 119.511 52.1168 105.603 46.4402Z" fill="#000184"/>
</g>
</g>
</g>
<defs>
<clipPath id="clip0_150_759">
<rect width="60" height="60" fill="white"/>
</clipPath>
<clipPath id="clip1_150_759">
<rect width="60" height="60" fill="white"/>
</clipPath>
</defs>
</svg>
