<svg width="60" height="60" viewBox="0 0 60 60" fill="none" xmlns="http://www.w3.org/2000/svg">
<rect width="60" height="60" fill="#86C8BC"/>
<g clip-path="url(#clip0_1772_9383)">
<path d="M44.2229 29.3695H32.1377L36.7394 23.0121H44.3792C47.3504 23.0121 49.9193 20.5721 49.9193 17.5948C49.9193 14.5728 47.4398 12.1105 44.4016 12.1776C42.704 12.2 41.1401 13.0954 40.1573 14.4609L35.6002 20.7959H15.5177C12.569 20.7959 10.1564 23.1688 10.1117 26.1236C10.067 29.1457 12.6136 31.6304 15.6517 31.6304H27.7816L23.1798 37.9879H15.54C12.569 37.9879 10 40.4279 10 43.4051C10 46.3376 12.3232 48.7327 15.2496 48.8223C17.059 48.867 18.7568 47.9716 19.8067 46.5167L24.3415 40.2264H44.3792C47.328 40.2264 49.7406 37.8534 49.7854 34.8987C49.8075 31.8543 47.261 29.3695 44.2229 29.3695ZM42.0338 15.6697C42.6146 14.8862 43.5305 14.4161 44.491 14.4161C46.2558 14.4161 47.6631 15.8488 47.6631 17.5948C47.6631 19.3633 46.2334 20.7735 44.491 20.7735H38.3479L42.0338 15.6697ZM17.9526 45.2182C17.3494 46.0689 16.3665 46.6063 15.3166 46.5838C13.5965 46.5389 12.2115 45.1287 12.2115 43.4051C12.2115 41.659 13.6412 40.2264 15.3836 40.2264H21.5491L17.9526 45.2182ZM15.5177 29.3695C13.7752 29.3695 12.3456 27.9368 12.3456 26.1908C12.3456 24.4447 13.7752 23.0121 15.5177 23.0121H33.9918L29.39 29.3695H15.5177ZM44.357 37.9879H25.9275L30.5293 31.6304H44.357C46.0994 31.6304 47.5291 33.0631 47.5291 34.8091C47.5291 36.5552 46.0994 37.9879 44.357 37.9879Z" fill="black"/>
</g>
<defs>
<clipPath id="clip0_1772_9383">
<rect width="40" height="37" fill="white" transform="translate(10 12)"/>
</clipPath>
</defs>
</svg>
