<svg width="60" height="60" viewBox="0 0 60 60" fill="none" xmlns="http://www.w3.org/2000/svg">
<rect width="60" height="60" fill="#0000EB"/>
<g clip-path="url(#clip0_168_422)">
<path d="M48.3957 31.9821C49.322 33.3625 49.8748 35.048 49.8748 37.1259C49.815 44.7979 43.2863 49.9998 29.2427 49.9998C20.458 49.9998 10.8068 47.3989 10 37.4746V36.9806H23.1621L20.2488 45.3356L29.8552 38.8405L39.4616 45.3356L36.9667 38.1575C36.5782 37.4165 35.5772 37.0096 35.5772 37.0096C30.3333 34.1762 11.1952 35.7164 11.1952 23.1912C11.1952 13.7609 21.3693 11.0146 29.3473 11.0146C37.6987 11.0146 47.4993 12.8455 48.3808 22.6245V23.0023H33.5603L29.8851 12.4822L26.2099 23.0023H14.3326L20.9659 27.4486C22.9081 26.693 24.9848 26.3588 27.0614 26.1408C29.2875 25.9084 31.5285 25.8648 33.7695 26.0101C35.6519 26.1263 37.5194 26.3879 39.357 26.8092C41.0154 27.187 42.7036 27.6084 44.2125 28.4076C45.9008 29.3085 47.3798 30.4564 48.3957 31.9821Z" fill="white"/>
</g>
<defs>
<clipPath id="clip0_168_422">
<rect width="40" height="39" fill="white" transform="translate(10 11)"/>
</clipPath>
</defs>
</svg>
