<svg width="60" height="60" viewBox="0 0 60 60" fill="none" xmlns="http://www.w3.org/2000/svg">
<rect width="60" height="60" fill="black"/>
<g clip-path="url(#clip0_150_1081)">
<path fill-rule="evenodd" clip-rule="evenodd" d="M31.184 29.5508C26.7151 22.5978 33.9843 20.0535 37.5494 16.0867C38.9875 19.3108 41.2822 25.6546 35.3124 27.5059C33.6673 28.0655 31.962 28.8761 31.184 29.5508Z" fill="#00A69D"/>
<path fill-rule="evenodd" clip-rule="evenodd" d="M28.4126 35.9311C35.4355 26.0206 42.7047 28.8316 49.9948 31.4858C42.647 38.478 35.2024 41.5923 28.4126 35.9311Z" fill="#8CC33D"/>
<path fill-rule="evenodd" clip-rule="evenodd" d="M28.0878 24.9223C21.9031 22.3153 21.9817 17.7392 23.6005 14.0051C23.6005 14.0051 31.9306 16.0997 28.0878 24.9223Z" fill="#AB3B65"/>
<path fill-rule="evenodd" clip-rule="evenodd" d="M25.7511 42.9991C25.8323 47.6563 22.9587 47.9047 18.6549 45.4859C14.351 43.0645 9.88212 39.9554 10.0052 36.7365C10.0419 35.8134 10.3301 35.0185 10.7858 34.3072C11.3307 33.3789 12.3287 32.1238 14.0969 30.9209C15.962 29.6527 17.6961 29.1166 18.7806 28.9205C20.5593 28.5544 21.924 29.1062 23.1028 30.4869C25.1644 32.8978 25.704 40.3476 25.7511 42.9991Z" fill="#E71324"/>
<path fill-rule="evenodd" clip-rule="evenodd" d="M36.2999 36.6738C35.3674 39.2521 31.1342 40.9361 27.2914 42.5494C22.8382 44.4191 20.2004 43.9066 21.2744 39.1998C21.7171 37.2621 22.1729 35.314 22.8251 33.4365C23.6791 30.9759 24.7007 28.5441 27.1578 27.3203C29.7564 26.0233 32.8055 27.1059 34.9404 29.0827C37.3896 31.3525 37.2351 34.6289 36.2999 36.6738Z" fill="#D6DE23"/>
<path fill-rule="evenodd" clip-rule="evenodd" d="M33.7197 28.1178C32.6536 28.5781 31.7079 29.0958 31.184 29.5508C30.5317 28.5336 30.1283 27.6132 29.9293 26.7686C31.2469 26.8418 32.5619 27.3464 33.7197 28.1178Z" fill="#00974A"/>
<path fill-rule="evenodd" clip-rule="evenodd" d="M36.3 36.6736C36.017 37.4528 35.4355 38.1484 34.6523 38.7864C32.5279 38.5301 30.4401 37.6228 28.4126 35.9309C30.7728 32.5995 33.1644 30.7037 35.5717 29.7598C37.353 31.9667 37.1461 34.8248 36.3 36.6736Z" fill="#6FBB43"/>
<path fill-rule="evenodd" clip-rule="evenodd" d="M25.7538 43.122C22.2515 44.2333 20.3314 43.3338 21.277 39.1996C21.7171 37.262 22.1729 35.3113 22.8251 33.4364C23.0766 32.7147 23.3412 31.9956 23.6529 31.3079C25.2613 34.2784 25.7092 40.5986 25.7511 42.9991C25.7538 43.0409 25.7538 43.0827 25.7538 43.122Z" fill="#B7292F"/>
</g>
<defs>
<clipPath id="clip0_150_1081">
<rect width="40" height="33" fill="white" transform="translate(10 14)"/>
</clipPath>
</defs>
</svg>
