<svg width="60" height="60" viewBox="0 0 60 60" fill="none" xmlns="http://www.w3.org/2000/svg">
<rect width="60" height="60" fill="#012F57"/>
<path d="M20.2884 26.6376C20.2884 26.6376 21.9686 24.212 24.2131 24.1463C27.6777 24.0794 30.5009 30.4875 30.9503 31.4111C34.8002 22.5619 41.2149 15.0975 46.3478 10.0754H14.3338V46.5192C14.3338 48.5003 14.0777 49.9545 13.9485 50.6152C15.3595 50.4169 21.0698 49.5124 26.4588 47.5301C36.0832 43.9633 39.8679 40.1983 39.8679 40.1326L40.124 39.8673L40.2533 40.1983C40.2533 40.1983 41.4722 42.9728 42.6271 44.4258C43.974 46.0114 44.6795 46.2097 45.0649 46.0771C45.5783 45.8787 45.9624 45.0196 46.0905 43.5009C46.2197 42.048 46.3478 38.6784 46.3478 34.6493V12.9156C37.1088 24.6732 30.2448 42.3777 30.2448 42.3777C30.2448 42.3777 25.6893 26.5241 20.3003 26.6555L20.2884 26.6376Z" fill="#FEFEFD"/>
</svg>
