<svg width="60" height="60" viewBox="0 0 60 60" fill="none" xmlns="http://www.w3.org/2000/svg">
<rect width="60" height="60" fill="#003A70"/>
<g clip-path="url(#clip0_1762_9226)">
<path d="M48.9153 27.5899C49.6223 33.4662 41.2477 39.3613 30.2084 40.7649C19.1691 42.1684 9.74312 38.5378 9.03617 32.6615C8.32922 26.7852 16.6495 20.8902 27.6887 19.4866C38.728 18.083 48.2265 21.7136 48.9153 27.5899ZM29.7552 20.1042C19.6948 21.0212 11.9002 25.9805 12.3534 31.1831C12.8066 36.3857 21.3081 39.8666 31.3685 38.9496C41.4289 38.0326 49.2235 33.0732 48.7703 27.8706C48.3171 22.6493 39.8156 19.1872 29.7552 20.1042Z" fill="#00953B"/>
<path d="M48.6797 32.6989C49.841 32.6989 50.7825 31.727 50.7825 30.5281C50.7825 29.3291 49.841 28.3572 48.6797 28.3572C47.5184 28.3572 46.577 29.3291 46.577 30.5281C46.577 31.727 47.5184 32.6989 48.6797 32.6989Z" fill="#D7282F"/>
<path d="M19.7492 28.6941H19.8218C20.0574 28.7128 20.1662 28.7876 20.2024 28.8251C20.2387 28.8625 20.2931 28.9935 20.2931 29.3865V30.9585C20.2931 31.3328 20.2568 31.6135 20.1662 31.782C20.0211 32.0814 19.7311 32.2311 19.2779 32.2311C18.8792 32.2311 18.6073 32.0814 18.4622 31.8007C18.3897 31.6322 18.3535 31.4077 18.3535 31.0895V29.1432C18.3535 28.8812 18.4079 28.8064 18.426 28.7876C18.4622 28.7689 18.5529 28.7128 18.8066 28.6941H18.8792V28.4134H17.0483V28.6941H17.1208C17.3928 28.7128 17.4653 28.7689 17.5015 28.7876C17.5196 28.8064 17.574 28.8812 17.574 29.1432V31.0334C17.574 31.4264 17.6465 31.7445 17.7734 31.9878C18.0272 32.437 18.4804 32.6802 19.1511 32.6802C19.8218 32.6802 20.2931 32.4557 20.5287 31.9878C20.6556 31.7445 20.7281 31.389 20.7281 30.9585V29.3865C20.7281 28.9935 20.7825 28.8812 20.8187 28.8438C20.855 28.7876 20.9456 28.7315 21.1994 28.7128H21.2719V28.4321H19.7311V28.6941H19.7492Z" fill="white"/>
<path d="M15.9426 29.7046L15.3082 29.2929C15.0725 29.1432 14.9094 29.0122 14.8006 28.8812C14.6919 28.7689 14.6556 28.6192 14.6556 28.4508C14.6556 28.2636 14.71 28.1139 14.8369 28.0204C14.9638 27.9081 15.1269 27.8519 15.3082 27.8519C15.5438 27.8519 15.7795 27.9455 16.0333 28.1139C16.2689 28.2824 16.4502 28.6192 16.5589 29.0684L16.5771 29.1432H16.9215L16.7402 27.3841H16.432V27.4402C16.4139 27.5151 16.3958 27.5525 16.3595 27.5899C16.3414 27.6086 16.3052 27.6274 16.2508 27.6274C16.2508 27.6274 16.1783 27.6086 15.8701 27.5151C15.6345 27.4215 15.4169 27.3841 15.2538 27.3841C14.8369 27.3841 14.4925 27.5151 14.2206 27.7771C13.9668 28.0391 13.8399 28.3759 13.8399 28.7876C13.8399 29.0871 13.9487 29.3678 14.1662 29.6298C14.2749 29.7608 14.4381 29.8918 14.6194 30.0228L15.2357 30.4158C15.5801 30.6404 15.8157 30.8088 15.9245 30.9211C16.0876 31.0895 16.1601 31.2767 16.1601 31.5012C16.1601 31.7445 16.0876 31.9317 15.9426 32.0627C15.7976 32.1937 15.6163 32.2685 15.3988 32.2685C15 32.2685 14.6737 32.1001 14.4018 31.7819C14.2387 31.5948 14.1118 31.3328 13.9849 31.0147L13.9668 30.9585H13.6405L13.8762 32.7364H14.1843L14.2024 32.6615C14.2024 32.6054 14.2206 32.568 14.2568 32.5118C14.2749 32.4931 14.3112 32.4744 14.3475 32.4744C14.3475 32.4744 14.42 32.4744 14.7462 32.6054C15 32.699 15.2538 32.7364 15.4713 32.7364C15.9426 32.7364 16.3233 32.5867 16.6314 32.3247C16.9396 32.0439 17.0846 31.6884 17.0846 31.2767C17.0846 30.9585 16.994 30.6965 16.8308 30.4719C16.6314 30.1912 16.3595 29.9479 15.9426 29.7046Z" fill="white"/>
<path d="M22.849 30.8462C22.9397 30.8462 23.0303 30.8462 23.1028 30.8462C23.556 30.8462 23.9366 30.7527 24.2448 30.5468C24.5711 30.341 24.7161 30.0228 24.7161 29.5737C24.7161 29.2181 24.5711 28.9374 24.281 28.7128C24.0091 28.5069 23.6103 28.3947 23.0847 28.3947H21.4532V28.6754H21.5258C21.7795 28.6941 21.852 28.7502 21.8702 28.7689C21.8883 28.7877 21.9427 28.8812 21.9427 29.1245V31.7445C21.9427 32.044 21.9064 32.1375 21.8883 32.175C21.8702 32.1937 21.7977 32.2498 21.5258 32.2872H21.4532V32.568H23.2659V32.2872H23.1934C22.9034 32.2685 22.8128 32.2124 22.7946 32.1937C22.7765 32.175 22.7221 32.1001 22.7221 31.8381V30.8275C22.7584 30.8275 22.7946 30.8462 22.849 30.8462ZM22.7221 28.9187C22.7221 28.8438 22.7403 28.8251 22.7403 28.8251C22.7403 28.8251 22.7765 28.8064 22.9034 28.8064C23.139 28.8064 23.3384 28.8438 23.5016 28.9187C23.7735 29.0497 23.9185 29.2742 23.9185 29.5924C23.9185 29.9479 23.7916 30.1912 23.5378 30.3222C23.3928 30.3971 23.1934 30.4345 22.9397 30.4345C22.9034 30.4345 22.8853 30.4345 22.849 30.4345C22.8309 30.4345 22.7765 30.4345 22.7221 30.4158V28.9187Z" fill="white"/>
<path d="M27.707 31.389L27.6889 31.4451C27.5438 31.7632 27.3988 31.9691 27.2176 32.044C27.0363 32.1188 26.7644 32.175 26.3656 32.175C25.8943 32.175 25.7674 32.1562 25.7312 32.1375C25.713 32.1375 25.6768 32.1188 25.6768 32.0065V30.603H26.4925C26.7825 30.603 26.8732 30.6591 26.9094 30.6965C26.9457 30.734 27 30.8462 27.0544 31.127L27.0725 31.2018H27.3626V29.6298H27.0725L27.0544 29.7047C27 29.9667 26.9457 30.0789 26.9094 30.1164C26.8732 30.1538 26.7825 30.21 26.4925 30.21H25.6768V28.9187C25.6768 28.8438 25.6949 28.8251 25.6768 28.8251C25.6768 28.8251 25.713 28.8064 25.7674 28.8064H26.565C26.9819 28.8064 27.1269 28.8625 27.1813 28.8999C27.2357 28.9374 27.3082 29.0684 27.3807 29.3678L27.3988 29.4427H27.707L27.6889 28.3947H24.4079V28.6754H24.4804C24.7342 28.6941 24.8248 28.7502 24.8429 28.7689C24.8611 28.7877 24.9155 28.8812 24.9155 29.1245V31.8194C24.9155 32.1001 24.8611 32.1562 24.8429 32.175C24.8067 32.1937 24.7342 32.2498 24.4623 32.2685H24.3898V32.5493H27.7251L28.0333 31.3515H27.707V31.389Z" fill="white"/>
<path d="M31.5136 32.2311C31.4411 32.1937 31.3867 32.1375 31.3142 32.044L30.1903 30.6217C30.4622 30.5655 30.6979 30.4532 30.861 30.3035C31.0785 30.1164 31.1873 29.8731 31.1873 29.5362C31.1873 29.0497 30.9516 28.7128 30.4803 28.5257C30.2447 28.4321 29.9546 28.3947 29.6102 28.3947H27.8882V28.6754H27.9607C28.2145 28.6941 28.287 28.7502 28.3232 28.7689C28.3414 28.7877 28.3957 28.8812 28.3957 29.1245V31.7445C28.3957 32.0627 28.3595 32.1375 28.3414 32.175C28.3232 32.1937 28.2507 32.2498 27.9788 32.2872H27.9063V32.568H29.719V32.2872H29.6465C29.3746 32.2685 29.3021 32.2124 29.2658 32.1937C29.2477 32.175 29.1933 32.1001 29.1933 31.8381V30.734H29.3202L30.7885 32.6054H31.858V32.3247H31.7855C31.6767 32.2872 31.5861 32.2685 31.5136 32.2311ZM29.1752 30.3222V28.9187C29.1752 28.8438 29.1933 28.8251 29.1933 28.8251C29.1933 28.8251 29.2477 28.8064 29.4471 28.8064C29.6827 28.8064 29.864 28.8438 30.009 28.8999C30.2628 29.0122 30.3716 29.2181 30.3716 29.5362C30.3716 29.8544 30.2447 30.0789 29.9546 30.1912C29.8096 30.2661 29.5377 30.3222 29.1752 30.3222Z" fill="white"/>
<path d="M34.6314 31.2954L33.3444 28.3947H32.0392V28.6754H32.1299C32.4199 28.6941 32.5105 28.7502 32.5287 28.7689C32.5649 28.7877 32.6012 28.8812 32.6012 29.1245V31.5948C32.6012 31.9878 32.5468 32.1001 32.5105 32.1562C32.4743 32.1937 32.3837 32.2685 32.0936 32.2872H32.0211V32.568H33.58V32.2872H33.5075C33.2537 32.2685 33.1812 32.2124 33.145 32.175C33.0906 32.1188 33.0362 31.9691 33.0362 31.5948V29.6111L34.3776 32.6054H34.577L35.9365 29.4801V31.782C35.9365 32.1001 35.8821 32.1937 35.864 32.2124C35.8459 32.2311 35.7734 32.2872 35.4834 32.306H35.4108V32.5867H37.2235V32.306H37.151C36.8973 32.2872 36.8066 32.2311 36.7885 32.2124C36.7704 32.1937 36.716 32.1188 36.716 31.8568V29.1432C36.716 28.8999 36.7522 28.8064 36.7885 28.7877C36.8066 28.7689 36.8973 28.7128 37.151 28.6941H37.2235V28.4134H35.9184L34.6314 31.2954Z" fill="white"/>
<path d="M38.8007 32.2124C38.7826 32.1937 38.7282 32.1375 38.7282 31.8568V29.1432C38.7282 28.8812 38.7826 28.8064 38.8007 28.7876C38.8369 28.7502 38.9276 28.7128 39.2176 28.6941H39.3082V28.4134H37.4049V28.6941H37.4955C37.7856 28.7128 37.8762 28.7502 37.9125 28.7876C37.9306 28.8064 37.985 28.8812 37.985 29.1432V31.8381C37.985 32.1188 37.9306 32.1937 37.9125 32.1937C37.8762 32.2124 37.7856 32.2685 37.4955 32.2872H37.423V32.568H39.3264V32.2872H39.2538C38.9276 32.2872 38.8188 32.2311 38.8007 32.2124Z" fill="white"/>
<path d="M42.4079 31.651C42.2447 31.8194 42.0816 31.9504 41.9366 32.0252C41.7009 32.175 41.429 32.2311 41.139 32.2311C40.7402 32.2311 40.4139 32.0814 40.1601 31.782C39.9063 31.4825 39.7613 31.0708 39.7613 30.5468C39.7613 29.9854 39.8882 29.5362 40.142 29.2181C40.3958 28.8999 40.7039 28.7502 41.0846 28.7502C41.4653 28.7502 41.7553 28.8999 41.9909 29.1807C42.1178 29.3304 42.2085 29.5549 42.281 29.7982L42.2991 29.8544H42.5891L42.5347 28.3198H42.2628L42.2447 28.3759C42.2266 28.4134 42.2085 28.4508 42.1722 28.4695C42.1359 28.4882 42.0997 28.5069 42.0634 28.5069C42.0453 28.5069 41.9909 28.4882 41.7009 28.4134C41.4653 28.3385 41.2477 28.3198 41.0302 28.3198C40.3958 28.3198 39.8701 28.5444 39.4894 28.9748C39.1088 29.3865 38.9275 29.9105 38.9275 30.5281C38.9275 31.127 39.1088 31.6322 39.4713 32.0252C39.852 32.4557 40.3776 32.6802 41.0302 32.6802C41.429 32.6802 41.8097 32.568 42.1541 32.3434C42.3535 32.2124 42.5166 32.044 42.6616 31.8755L42.716 31.8194L42.4985 31.5948L42.4079 31.651Z" fill="white"/>
<path d="M46.5771 32.306C46.4683 32.2872 46.3958 32.2685 46.3233 32.2311C46.2508 32.1937 46.1964 32.1375 46.1239 32.044L45.0001 30.6217C45.272 30.5655 45.5076 30.4532 45.6707 30.3035C45.8883 30.1164 45.997 29.8731 45.997 29.5362C45.997 29.0497 45.7614 28.7128 45.2901 28.5257C45.0544 28.4321 44.7644 28.3947 44.42 28.3947H42.7161V28.6754H42.7886C43.0423 28.6941 43.1149 28.7502 43.1511 28.7689C43.1692 28.7877 43.2236 28.8812 43.2236 29.1245V31.7445C43.2236 32.0627 43.1874 32.1375 43.1692 32.175C43.1511 32.1937 43.0786 32.2498 42.8067 32.2872H42.7342V32.568H44.5469V32.2872H44.4744C44.2025 32.2685 44.13 32.2124 44.0937 32.1937C44.0756 32.175 44.0212 32.1001 44.0212 31.8381V30.734H44.1481L45.6164 32.6054H46.6859V32.3247L46.5771 32.306ZM43.9849 30.3222V28.9187C43.9849 28.8438 44.0031 28.8251 44.0031 28.8251C44.0031 28.8251 44.0575 28.8064 44.2569 28.8064C44.4925 28.8064 44.6738 28.8438 44.8188 28.8999C45.0726 29.0122 45.1813 29.2181 45.1813 29.5362C45.1813 29.8544 45.0544 30.0789 44.7644 30.1912C44.6194 30.2661 44.3475 30.3222 43.9849 30.3222Z" fill="white"/>
</g>
<defs>
<clipPath id="clip0_1762_9226">
<rect width="42" height="23" fill="white" transform="translate(9 19)"/>
</clipPath>
</defs>
</svg>
