<svg width="60" height="60" viewBox="0 0 60 60" fill="none" xmlns="http://www.w3.org/2000/svg">
<rect width="60" height="60" fill="#00AFAA"/>
<g clip-path="url(#clip0_1403_9017)">
<path d="M22.2036 24.1226C23.2031 25.3311 23.4052 26.888 22.9207 28.2463C22.6134 29.0764 22.7934 30.0073 23.3803 30.6606L23.4329 30.7096C24.0199 31.4146 24.9667 31.6895 25.8887 31.4391C28.3971 30.7858 31.2127 31.9181 32.3645 34.6073C33.1314 36.3929 32.8241 38.4534 31.5699 39.9613C29.1917 42.803 25.0193 42.577 22.9207 39.8851C21.6416 38.2275 21.4866 36.0908 22.331 34.3297C22.7408 33.4995 22.5885 32.5441 21.9988 31.8419L21.9739 31.8174C21.3841 31.1369 20.4899 30.8103 19.5928 30.9627C18.7733 31.0879 17.9566 30.9872 17.1869 30.6606C16.5723 30.383 15.8303 30.4837 15.3181 30.911L15.1907 31.0117C14.781 31.3628 14.5263 31.8664 14.5512 32.3944C14.5761 33.2736 14.1663 34.1555 13.3745 34.708C12.1702 35.5382 10.509 35.2851 9.58704 34.1555C8.61525 32.9225 8.89488 31.1614 10.174 30.2822C10.8911 29.7787 11.7632 29.6535 12.5301 29.8794C13.0921 30.0318 13.7067 29.9066 14.1414 29.5283C14.6536 29.1009 14.8834 28.4232 14.7311 27.7944C14.3214 26.1586 14.936 24.4002 16.42 23.3441C18.2611 22.0621 20.7972 22.4133 22.2036 24.1226ZM37.8159 36.8692C36.8164 35.6634 36.6116 34.1038 37.0988 32.7456C37.4062 31.9181 37.2262 30.9872 36.6392 30.334L36.5866 30.2822C35.9969 29.58 35.0501 29.3024 34.1309 29.5528C31.6225 30.206 28.8068 29.0764 27.6551 26.3872C26.8882 24.6017 27.1955 22.5385 28.4469 21.0305C30.803 18.2161 34.9753 18.4175 37.0739 21.1312C38.353 22.7916 38.5053 24.9283 37.6609 26.6866C37.2511 27.5168 37.4062 28.4722 37.9931 29.1772L38.0208 29.2017C38.6077 29.8794 39.5048 30.206 40.399 30.0563C41.2185 29.9311 42.0381 30.0318 42.805 30.3585C43.4196 30.6334 44.1616 30.5354 44.6738 30.108L44.8011 30.0073C45.2109 29.6535 45.4684 29.1527 45.4407 28.6246C45.4158 27.7427 45.8255 26.8636 46.6201 26.311C47.8217 25.4808 49.4856 25.7312 50.4076 26.8636C51.3794 28.0966 51.097 29.8549 49.8179 30.7341C49.1008 31.2376 48.2315 31.3628 47.4646 31.1369C46.8998 30.9872 46.2851 31.1124 45.8504 31.488C45.3383 31.9181 45.1085 32.5959 45.2635 33.2246C45.6733 34.8578 45.0586 36.6188 43.5746 37.6749C41.7833 38.9297 39.2224 38.5786 37.8159 36.8692Z" fill="white"/>
</g>
<defs>
<clipPath id="clip0_1403_9017">
<rect width="42" height="23" fill="white" transform="translate(9 19)"/>
</clipPath>
</defs>
</svg>
