<svg width="60" height="60" viewBox="0 0 60 60" fill="none" xmlns="http://www.w3.org/2000/svg">
<rect width="60" height="60" fill="#FD0400"/>
<g clip-path="url(#clip0_150_897)">
<path d="M41.3627 33.6618C41.3627 33.6618 43.3409 30.6329 42.7657 29.148C42.0191 27.2212 40.2074 27.4554 40.2074 27.4554L27.919 27.4151C27.919 27.4151 27.3414 27.5762 27.1764 26.8509C27.0113 26.1254 27.8366 25.2388 27.8366 25.2388C27.8366 25.2388 28.1666 24.594 28.6617 24.191C29.1567 23.788 30.2294 23.788 30.2294 23.788H31.3846H44.5873C44.5873 23.788 44.9997 23.7073 45.7421 23.9491C46.1986 24.0977 46.65 24.7552 46.65 24.7552L50.693 17.9846H31.7971C31.7971 17.9846 28.6739 17.7248 26.9289 18.71C24.8239 19.8983 24.3709 20.4027 23.4632 21.7729C22.962 22.5295 22.3905 23.6268 22.3905 23.6268L18.5124 29.9943C18.5124 29.9943 17.5429 31.2642 17.6872 32.2512C17.7697 32.8154 17.9348 33.2991 18.6774 33.6214C19.42 33.9439 20.7402 33.8632 20.7402 33.8632H25.9387C25.9387 33.8632 26.9289 33.9439 27.3414 33.6214C28.1815 32.9649 29.1701 31.9032 29.9819 31.687C30.8896 31.4452 32.1248 31.4233 33.0349 32.017C33.9274 32.5993 33.7195 32.5695 34.4377 33.5409C35.0171 34.3248 35.0153 34.8304 35.0153 34.8304L32.7874 34.0244C32.7874 34.0244 32.0199 33.6453 31.6321 33.7826C31.2243 33.9271 30.6296 33.7891 30.0644 35.3141C29.6318 36.4816 29.6786 37.2617 30.477 37.6515C31.6321 38.2159 33.7776 38.6994 33.7776 38.6994C33.7776 38.6994 32.6223 39.7472 31.0546 39.9084C29.6595 40.0519 28.4331 39.4927 27.8366 38.9412C26.9735 38.1435 27.5226 38.3337 26.8463 37.8934C26.1037 37.4098 24.7009 37.4098 24.7009 37.4098H16.202C16.202 37.4098 15.7894 37.571 14.7992 37.2485C13.9525 36.973 14.0566 36.765 14.0566 36.765L10.0134 43.3783H29.3217C29.3217 43.3783 32.432 43.5373 34.2726 42.7295C36.3839 41.8029 37.6557 39.7472 37.6557 39.7472L41.3627 33.6618Z" fill="white"/>
</g>
<defs>
<clipPath id="clip0_150_897">
<rect width="41" height="27" fill="white" transform="translate(10 17)"/>
</clipPath>
</defs>
</svg>
