<svg width="60" height="60" viewBox="0 0 60 60" fill="none" xmlns="http://www.w3.org/2000/svg">
<rect width="60" height="60" fill="black"/>
<g clip-path="url(#clip0_150_975)">
<path d="M31.3086 29.8205L26.438 26.027V33.1621H28.0642V29.5945L32.9429 33.1621V26.027H31.3167V29.8324L31.3086 29.8205ZM20.3396 26.027C19.8554 26.0139 19.3736 26.0972 18.9236 26.2718C18.4735 26.4464 18.0648 26.7088 17.7223 27.0427C17.3798 27.3766 17.1108 27.7752 16.9316 28.2139C16.7525 28.6527 16.6671 29.1225 16.6805 29.5945C16.6805 31.5131 18.2986 33.1621 20.3396 33.1621C22.4781 33.1621 23.9986 31.6082 23.9986 29.5945C23.9986 27.5808 22.4781 26.027 20.3396 26.027ZM20.3396 31.5765C20.0696 31.5877 19.8001 31.5442 19.5482 31.4485C19.2964 31.3529 19.0677 31.2073 18.8766 31.021C18.6855 30.8346 18.5361 30.6116 18.4381 30.3661C18.34 30.1205 18.2953 29.8578 18.3068 29.5945C18.3068 28.5084 19.0386 27.6126 20.3396 27.6126C21.6406 27.6126 22.3724 28.4688 22.3724 29.5945C22.3724 30.7203 21.5918 31.5765 20.3396 31.5765ZM12.9971 28.9603C11.8018 28.5798 11.8018 28.2785 11.8018 28.0962C11.8018 27.779 12.1271 27.6046 12.8019 27.6046C13.2538 27.6223 13.6922 27.7593 14.0704 28.001L14.168 28.0962L15.2332 27.0259L15.1356 26.9308C15.1356 26.9308 14.2656 26.027 12.8019 26.027C11.6067 26.027 10.1756 26.7008 10.1756 28.0407C10.1756 29.436 11.3139 30.0227 12.5092 30.3398C13.5338 30.6172 13.672 30.9344 13.672 31.1167C13.672 31.3863 13.3874 31.5765 12.7044 31.5765C12.184 31.5765 11.7449 31.3545 11.5172 31.2436L11.4359 31.2118L11.3465 31.1167L10.2731 32.0681L10.3707 32.1553C10.3707 32.1553 11.2489 33.0749 12.7044 33.0749C13.8509 33.0749 15.2332 32.4248 15.2332 31.1167C15.2332 29.8245 14.0867 29.2457 12.9971 28.9524V28.9603ZM46.9693 28.992C45.774 28.6194 45.774 28.3102 45.774 28.1279C45.774 27.8108 46.0911 27.6363 46.7741 27.6363C47.262 27.6363 47.693 27.8583 47.9288 27.9772L48.0345 28.0327L48.132 28.1279L49.2054 27.0497L49.1078 26.9545C49.1078 26.9545 48.2296 26.027 46.7741 26.027C45.5707 26.027 44.1478 26.7088 44.1478 28.0645C44.1478 29.4756 45.2861 30.0702 46.4814 30.3953C47.4978 30.6727 47.636 30.9978 47.636 31.1881C47.636 31.4576 47.3596 31.6479 46.6766 31.6479C46.1562 31.6479 45.7089 31.4259 45.4813 31.3149L45.4081 31.2753L45.3105 31.1801L44.2372 32.1394L44.3348 32.2345C44.3348 32.2345 45.2211 33.1621 46.6847 33.1621C47.8231 33.1621 49.2135 32.5041 49.2135 31.1801C49.2135 29.872 48.0589 29.2854 46.9774 28.992H46.9693ZM35.3823 29.5945C35.3823 27.5808 36.9028 26.027 39.0414 26.027C41.1799 26.027 42.7004 27.5808 42.7004 29.5945C42.7004 31.6082 41.1799 33.1621 39.0414 33.1621C38.0722 33.1579 37.144 32.7807 36.4587 32.1126C35.7735 31.4444 35.3866 30.5394 35.3823 29.5945ZM37.0086 29.5945C37.0086 30.6807 37.7891 31.5765 39.0414 31.5765C40.2936 31.5765 41.0742 30.7203 41.0742 29.5945C41.0742 28.4688 40.3423 27.6126 39.0414 27.6126C37.7404 27.6126 37.0086 28.5084 37.0086 29.5945Z" fill="#FEFEFD"/>
</g>
<defs>
<clipPath id="clip0_150_975">
<rect width="40" height="8" fill="white" transform="translate(10 26)"/>
</clipPath>
</defs>
</svg>
