<svg width="60" height="60" viewBox="0 0 60 60" fill="none" xmlns="http://www.w3.org/2000/svg">
<rect width="60" height="60" fill="#381B82"/>
<path d="M28.3267 30.9593V32.856H27.4V28.0654H28.3267V30.0594H30.1286V28.0654H31.0552V32.856H30.1286V30.9593H28.3267Z" fill="white"/>
<path d="M8.7196 32.0946L9.39821 31.4716C9.75063 31.7625 10.1293 31.9283 10.5729 31.9283C10.9647 31.9283 11.1996 31.762 11.1996 31.4989V31.485C11.1996 31.2219 11.0559 31.0973 10.3249 30.9038C9.45014 30.6685 8.889 30.4054 8.889 29.4916V29.4777C8.889 28.6467 9.51568 28.0933 10.4035 28.0933C11.0302 28.0933 11.5782 28.3007 12.0093 28.6745L11.3176 29.2975C11.0045 29.1039 10.6909 28.9788 10.3778 28.9788C10.0123 28.9788 9.81667 29.159 9.81667 29.3803V29.3942C9.81667 29.699 9.99918 29.7958 10.7564 30.0033C11.6312 30.2525 12.1273 30.5845 12.1273 31.3877V31.4016C12.1273 32.3154 11.4744 32.8277 10.5346 32.8277C9.90793 32.8277 9.24243 32.5924 8.72011 32.0941L8.7196 32.0946Z" fill="white"/>
<path d="M15.7165 30.4054C15.6252 30.1979 15.4947 30.0177 15.351 29.8653C15.1942 29.7129 15.0117 29.6022 14.8155 29.5054C14.6068 29.4226 14.3976 29.3809 14.1626 29.3809C13.9408 29.3809 13.7321 29.4226 13.536 29.5054C13.3272 29.5883 13.1573 29.7129 13.0005 29.8653C12.8437 30.0177 12.7263 30.1974 12.635 30.4054C12.5438 30.6134 12.4913 30.8487 12.4913 31.1118V31.1257C12.4913 31.3887 12.5438 31.624 12.635 31.832C12.7263 32.04 12.8569 32.2197 13.0005 32.3721C13.1573 32.5245 13.3398 32.6352 13.536 32.732C13.7447 32.8148 13.9539 32.8566 14.1626 32.8566C14.3976 32.8566 14.6063 32.8148 14.8155 32.732C15.0243 32.6491 15.1942 32.5245 15.351 32.3721C15.5078 32.2197 15.6252 32.04 15.7165 31.832C15.8077 31.624 15.8471 31.3887 15.8471 31.1257V31.1118C15.8471 30.8487 15.8077 30.6134 15.7165 30.4054ZM14.8423 31.4577C14.8029 31.5684 14.751 31.6513 14.6855 31.7347C14.6199 31.8181 14.5418 31.8732 14.4374 31.9149C14.3462 31.9566 14.2418 31.9839 14.1369 31.9839C14.0321 31.9839 13.9282 31.97 13.8364 31.9149C13.7452 31.8732 13.6665 31.8042 13.5884 31.7347C13.5234 31.6518 13.4578 31.5684 13.4316 31.4577C13.3923 31.347 13.3792 31.2363 13.3792 31.1118C13.3792 30.9872 13.3923 30.8765 13.4316 30.7658C13.4709 30.6551 13.5229 30.5722 13.5884 30.4888C13.6539 30.4054 13.7321 30.3503 13.8364 30.3086C13.9277 30.2669 14.0321 30.2396 14.1369 30.2396C14.2418 30.2396 14.3457 30.2535 14.4374 30.3086C14.5287 30.3503 14.6073 30.4193 14.6855 30.4888C14.7505 30.5717 14.816 30.6551 14.8423 30.7658C14.8816 30.8765 14.8947 30.9872 14.8947 31.1118C14.9078 31.2363 14.8816 31.347 14.8423 31.4577Z" fill="white"/>
<path d="M34.7236 30.4054C34.6323 30.1979 34.5017 30.0177 34.358 29.8653C34.2013 29.7129 34.0187 29.6022 33.8226 29.5054C33.6139 29.4226 33.4047 29.3809 33.1697 29.3809C32.9479 29.3809 32.7392 29.4226 32.543 29.5054C32.3343 29.5883 32.1644 29.7129 32.0076 29.8653C31.8508 30.0177 31.7334 30.1974 31.6421 30.4054C31.5508 30.6134 31.4984 30.8487 31.4984 31.1118V31.1257C31.4984 31.3887 31.5508 31.624 31.6421 31.832C31.7334 32.0395 31.8639 32.2197 32.0076 32.3721C32.1513 32.5245 32.3469 32.6352 32.543 32.732C32.7518 32.8148 32.961 32.8566 33.1697 32.8566C33.4047 32.8566 33.6134 32.8148 33.8226 32.732C34.0313 32.6491 34.2013 32.5245 34.358 32.3721C34.5148 32.2197 34.6323 32.04 34.7236 31.832C34.8148 31.624 34.8541 31.3887 34.8541 31.1257V31.1118C34.8541 30.8487 34.8148 30.6134 34.7236 30.4054ZM33.8619 31.4577C33.8226 31.5684 33.7707 31.6513 33.7052 31.7347C33.6396 31.8181 33.5615 31.8732 33.4571 31.9149C33.3658 31.9566 33.2615 31.9839 33.1566 31.9839C33.0517 31.9839 32.9479 31.97 32.8561 31.9149C32.7649 31.8732 32.6862 31.8042 32.6081 31.7347C32.543 31.6518 32.4775 31.5684 32.4513 31.4577C32.412 31.347 32.3989 31.2363 32.3989 31.1118C32.3989 30.9872 32.412 30.8765 32.4513 30.7658C32.4906 30.6551 32.5425 30.5722 32.6081 30.4888C32.6736 30.4054 32.7518 30.3503 32.8561 30.3086C32.9474 30.2669 33.0517 30.2396 33.1566 30.2396C33.2615 30.2396 33.3653 30.2535 33.4571 30.3086C33.5484 30.3503 33.627 30.4193 33.7052 30.4888C33.7702 30.5717 33.8357 30.6551 33.8619 30.7658C33.9013 30.8765 33.9144 30.9872 33.9144 31.1118C33.9144 31.2363 33.9013 31.347 33.8619 31.4577Z" fill="white"/>
<path d="M26.7733 28.0654H25.8466V29.6022C25.8073 29.5883 25.7685 29.5605 25.7161 29.5466C25.5073 29.4637 25.2981 29.422 25.0632 29.422C24.8413 29.422 24.6326 29.4637 24.4365 29.5466C24.2278 29.6295 24.0579 29.7541 23.9011 29.9065C23.7443 30.0589 23.6268 30.2385 23.5355 30.4465C23.4443 30.654 23.3918 30.8898 23.3918 31.1529V31.1668C23.3918 31.4299 23.4443 31.6652 23.5355 31.8732C23.6268 32.0812 23.7574 32.2609 23.9011 32.4133C24.0579 32.5657 24.2404 32.6763 24.4365 32.7731C24.6452 32.856 24.8544 32.8977 25.0632 32.8977C25.2981 32.8977 25.5068 32.856 25.7161 32.7731C25.9248 32.6902 26.0947 32.5657 26.2515 32.4133C26.4083 32.2609 26.5257 32.0812 26.617 31.8732C26.7083 31.6657 26.7476 31.4299 26.7476 31.1668V31.0978V28.066H26.7738L26.7733 28.0654ZM25.7685 31.4994C25.7292 31.6101 25.6772 31.693 25.6117 31.7764C25.5461 31.8598 25.468 31.9149 25.3636 31.9566C25.2724 31.9983 25.168 32.0256 25.0632 32.0256C24.9583 32.0256 24.8544 32.0117 24.7627 31.9566C24.6714 31.9149 24.5928 31.8459 24.5146 31.7764C24.4496 31.6935 24.384 31.6101 24.3578 31.4994C24.3185 31.3887 24.3054 31.278 24.3054 31.1535C24.3054 31.0289 24.3185 30.9182 24.3578 30.8075C24.3972 30.6968 24.4491 30.6139 24.5146 30.5305C24.5802 30.4471 24.6583 30.392 24.7627 30.3503C24.8539 30.3086 24.9583 30.2813 25.0632 30.2813C25.168 30.2813 25.2719 30.2952 25.3636 30.3503C25.4549 30.392 25.5335 30.461 25.6117 30.5305C25.6767 30.6134 25.7423 30.6968 25.7685 30.8075C25.8078 30.9182 25.8209 31.0289 25.8209 31.1535C25.834 31.278 25.8078 31.3887 25.7685 31.4994Z" fill="white"/>
<path d="M45.7931 28.0654H44.8664V29.6022C44.8271 29.5883 44.7883 29.5605 44.7358 29.5466C44.5271 29.4637 44.3179 29.422 44.0829 29.422C43.8611 29.422 43.6524 29.4637 43.4563 29.5466C43.2475 29.6295 43.0776 29.7541 42.9208 29.9065C42.764 30.0589 42.6466 30.2385 42.5553 30.4465C42.4641 30.654 42.4116 30.8898 42.4116 31.1529V31.1668C42.4116 31.4299 42.4641 31.6652 42.5553 31.8732C42.6466 32.0812 42.7771 32.2609 42.9208 32.4133C43.0776 32.5657 43.2601 32.6763 43.4563 32.7731C43.665 32.856 43.8742 32.8977 44.0829 32.8977C44.3179 32.8977 44.5266 32.856 44.7358 32.7731C44.9446 32.6902 45.1145 32.5657 45.2713 32.4133C45.4281 32.2609 45.5455 32.0812 45.6368 31.8732C45.728 31.6657 45.7674 31.4299 45.7674 31.1668V31.0978L45.7936 28.066L45.7931 28.0654ZM44.8009 31.4994C44.7615 31.6101 44.7096 31.693 44.6441 31.7764C44.5785 31.8598 44.5004 31.9149 44.396 31.9566C44.3048 31.9983 44.2004 32.0256 44.0955 32.0256C43.9907 32.0256 43.8868 32.0117 43.7951 31.9566C43.7038 31.9149 43.6252 31.8459 43.547 31.7764C43.482 31.6935 43.4164 31.6101 43.3902 31.4994C43.3509 31.3887 43.3378 31.278 43.3378 31.1535C43.3378 31.0289 43.3509 30.9182 43.3902 30.8075C43.4295 30.6968 43.4815 30.6139 43.547 30.5305C43.6125 30.4471 43.6907 30.392 43.7951 30.3503C43.8863 30.3086 43.9907 30.2813 44.0955 30.2813C44.2004 30.2813 44.3043 30.2952 44.396 30.3503C44.4873 30.392 44.5659 30.461 44.6441 30.5305C44.7091 30.6134 44.7747 30.6968 44.8009 30.8075C44.8402 30.9182 44.8533 31.0289 44.8533 31.1535C44.8533 31.278 44.8402 31.3887 44.8009 31.4994Z" fill="white"/>
<path d="M18.5101 29.4915V31.2635C18.5101 31.402 18.497 31.5127 18.4577 31.6234C18.4315 31.7202 18.3795 31.8036 18.3271 31.8726C18.2747 31.9416 18.1965 31.9833 18.1184 32.0111C18.0271 32.0528 17.9359 32.0667 17.8441 32.0667C17.7397 32.0667 17.6485 32.0528 17.5698 32.025C17.4786 31.9833 17.3999 31.9421 17.3349 31.8726C17.2699 31.8031 17.2174 31.7202 17.1781 31.6234C17.1388 31.5127 17.1257 31.402 17.1257 31.2635V29.4915H16.264V31.3191C16.264 31.5683 16.3034 31.8036 16.3815 32.0116C16.4597 32.2191 16.5771 32.3854 16.7077 32.5239C16.8514 32.6624 17.0208 32.7591 17.2169 32.8287C17.413 32.8982 17.6218 32.9393 17.8567 32.9393C18.0916 32.9393 18.2873 32.9115 18.4703 32.8287C18.6659 32.7597 18.8227 32.6485 18.9533 32.5239C19.097 32.3854 19.2013 32.2191 19.2664 32.0116C19.3445 31.8041 19.3707 31.5822 19.3707 31.3191V29.4915H18.5091H18.5101Z" fill="white"/>
<path d="M20.7687 32.7174V30.9454C20.7687 30.8069 20.7818 30.6962 20.8211 30.5855C20.8473 30.4887 20.8993 30.4053 20.9517 30.3363C21.0041 30.2673 21.0823 30.2256 21.1604 30.1978C21.2386 30.17 21.3303 30.1561 21.4347 30.1561C21.5391 30.1561 21.6303 30.17 21.709 30.1978C21.8002 30.2395 21.8789 30.2807 21.9439 30.3502C22.0089 30.4197 22.0614 30.5026 22.1007 30.5994C22.14 30.7101 22.1531 30.8208 22.1531 30.9593V32.7313H23.0148V30.8897C23.0148 30.6406 22.9754 30.4053 22.8973 30.1973C22.8191 29.9893 22.7017 29.8235 22.5711 29.685C22.4274 29.5465 22.258 29.4497 22.0619 29.3802C21.8658 29.3107 21.657 29.2695 21.4221 29.2695C21.1872 29.2695 20.9915 29.2973 20.8085 29.3802C20.6129 29.4492 20.4561 29.5604 20.3255 29.685C20.1818 29.8235 20.0775 29.9898 20.0124 30.1973C19.9343 30.4047 19.9081 30.6267 19.9081 30.8897V32.7313L20.7697 32.7174H20.7687Z" fill="white"/>
<path d="M37.5172 29.4915V31.2635C37.5172 31.402 37.5041 31.5127 37.4647 31.6234C37.4385 31.7202 37.3866 31.8036 37.3342 31.8726C37.2817 31.9416 37.2036 31.9833 37.1254 32.0111C37.0473 32.0389 36.9555 32.0528 36.8512 32.0528C36.7468 32.0528 36.6556 32.0389 36.5769 32.0111C36.4857 31.9694 36.407 31.9282 36.342 31.8587C36.2769 31.7892 36.2245 31.7063 36.1852 31.6095C36.1458 31.4988 36.1327 31.3881 36.1327 31.2496V29.4915H35.2711V31.3191C35.2711 31.5683 35.3104 31.8036 35.3886 32.0116C35.4667 32.2191 35.5842 32.3854 35.7148 32.5239C35.8585 32.6624 36.0279 32.7591 36.224 32.8287C36.4201 32.8982 36.6288 32.9393 36.8638 32.9393C37.0987 32.9393 37.2943 32.9115 37.4774 32.8287C37.673 32.7597 37.8298 32.6485 37.9603 32.5239C38.104 32.3854 38.2084 32.2191 38.2734 32.0116C38.3516 31.8041 38.3778 31.5822 38.3778 31.3191V29.4915H37.5162H37.5172Z" fill="white"/>
<path d="M39.7753 32.7174V30.9454C39.7753 30.8069 39.7884 30.6962 39.8277 30.5855C39.8539 30.4887 39.9059 30.4053 39.9583 30.3363C40.0107 30.2673 40.0889 30.2256 40.167 30.1978C40.2452 30.17 40.3369 30.1561 40.4413 30.1561C40.5457 30.1561 40.6369 30.17 40.7156 30.1978C40.8068 30.2395 40.8855 30.2807 40.9505 30.3502C41.0155 30.4197 41.068 30.5026 41.1073 30.5994C41.1466 30.7101 41.1597 30.8208 41.1597 30.9593V32.7313H42.0213V30.8897C42.0213 30.6406 41.982 30.4053 41.9039 30.1973C41.8257 29.9893 41.7083 29.8235 41.5777 29.685C41.434 29.5465 41.2646 29.4497 41.0685 29.3802C40.8724 29.3107 40.6636 29.2695 40.4287 29.2695C40.1937 29.2695 39.9981 29.2973 39.8151 29.3802C39.6195 29.4492 39.4627 29.5604 39.3321 29.685C39.1884 29.8235 39.0841 29.9898 39.019 30.1973C38.9409 30.4047 38.9147 30.6267 38.9147 30.8897V32.7313L39.7763 32.7174H39.7753Z" fill="white"/>
<path d="M48.1822 28.3562H48.574V29.0209H48.4434L47.1769 32.8281H46.6289L48.1822 28.3562ZM47.5162 31.0699H49.3832L49.5531 31.5405H47.3337L47.5162 31.0699ZM48.456 29.0209V28.3562H48.7041L50.2705 32.8281H49.7225L48.456 29.0209Z" fill="white"/>
<path d="M50.7535 28.3562H51.2759V32.8281H50.7535V28.3562Z" fill="white"/>
</svg>
