<svg width="60" height="60" viewBox="0 0 60 60" fill="none" xmlns="http://www.w3.org/2000/svg">
<rect width="60" height="60" fill="#0047BA"/>
<g clip-path="url(#clip0_1772_9366)">
<path d="M28.2964 25.4178C28.2645 25.4629 28.2372 25.4862 28.1715 25.4998L10.4214 29.0664C10.1632 29.1196 10.1581 29.397 10.4121 29.4639L24.4986 33.1124C24.5842 33.1334 24.6234 33.126 24.6899 33.0643L31.4761 25.7123C31.6729 25.5274 31.9168 25.7046 31.7993 25.9478L20.7642 48.7702C20.6448 49.0224 20.9528 49.2054 21.115 48.9758L31.6391 34.1794C31.6768 34.127 31.699 34.1134 31.7628 34.0986L49.6163 30.396C49.8746 30.342 49.8816 30.0646 49.6253 29.9981L35.6247 26.3717C35.4715 26.3317 35.4485 26.2419 35.4789 26.1246L39.3875 10.4688C39.4524 10.2065 39.1802 10.0806 39.023 10.3017L28.2964 25.4178Z" fill="white"/>
</g>
<defs>
<clipPath id="clip0_1772_9366">
<rect width="40" height="40" fill="white" transform="translate(10 10)"/>
</clipPath>
</defs>
</svg>
