<svg width="60" height="60" viewBox="0 0 60 60" fill="none" xmlns="http://www.w3.org/2000/svg">
<g clip-path="url(#clip0_1779_9229)">
<rect width="60" height="60" fill="white"/>
<rect width="60" height="60" fill="#001AFF"/>
<g clip-path="url(#clip1_1779_9229)">
<path d="M49.5364 10.2722C41.62 10.2722 35.1037 12.6231 28.9182 14.7697C22.7837 16.9162 17.0562 18.9607 10.1326 18.9607V24.4549C18.0489 24.4549 24.5909 22.1035 30.7 19.9569C36.8855 17.8104 42.6128 15.7664 49.5364 15.7664V10.2722ZM10.1326 27.2145V32.76H46.6598H49.5364V27.2145H10.1326ZM49.5364 35.5196C41.62 35.5196 35.1037 37.8705 28.9182 40.0171C22.7837 42.1637 17.0562 44.2081 10.1326 44.2081V49.7023C18.0489 49.7023 24.5655 47.3514 30.7 45.2048C36.8855 43.0583 42.6128 41.0138 49.5364 41.0138V35.5196Z" fill="white"/>
</g>
</g>
<defs>
<clipPath id="clip0_1779_9229">
<rect width="60" height="60" fill="white"/>
</clipPath>
<clipPath id="clip1_1779_9229">
<rect width="40" height="40" fill="white" transform="translate(10 10)"/>
</clipPath>
</defs>
</svg>
