<svg width="60" height="60" viewBox="0 0 60 60" fill="none" xmlns="http://www.w3.org/2000/svg">
<rect width="60" height="60" fill="#204587"/>
<g clip-path="url(#clip0_168_646)">
<path fill-rule="evenodd" clip-rule="evenodd" d="M47.9924 49.9745H33.4037L32.6592 42.9072H27.3408L26.6321 49.9745H12.0077L15.7071 29.3443C20.4009 29.8322 22.8663 33.5933 23.0015 33.8373C23.1442 34.0889 23.1442 34.2998 22.8332 34.2998C21.4896 32.9606 18.7029 31.5222 18.1802 31.3799C17.6142 31.2376 17.5377 31.4459 17.6142 31.8348C20.6788 32.9606 23.8862 37.9847 23.8862 37.9847L25.7193 37.3189L23.8122 31.3468C23.8122 31.3468 27.0629 31.944 27.9731 32.2973C28.8935 32.6073 28.7508 32.9275 28.608 33.2045C28.506 33.4917 27.6952 34.4015 27.0961 35.2503C26.5301 36.0152 26.808 36.8665 26.808 36.8665C26.808 36.8665 29.1383 36.1245 30.8287 35.5603C32.5573 35.0317 33.8244 34.4015 34.2476 34.0457C34.4924 33.8373 34.5332 33.4154 34.1788 32.6073C35.3771 33.0622 38.4085 34.0889 40.0301 32.9961C41.9626 31.7331 37.9522 26.4904 37.9522 26.4904C37.9522 26.4904 40.7312 31.2706 38.8981 32.155C37.2765 32.8945 34.036 31.4129 33.2915 31.0597C33.0842 30.7344 32.8513 30.3837 32.593 30.0076C30.7598 27.5095 28.8935 26.8437 27.7284 26.0025C27.0961 22.6963 26.2853 21.8881 22.5119 21.2249C19.8349 20.7623 18.3153 19.3214 17.6474 18.5158L19.1592 10.0076H40.2417L42.6383 22.4523C41.0524 22.066 34.3573 20.5514 31.9938 22.5209C29.5615 24.5641 36.5423 30.6404 36.5423 30.6404V29.1994C36.5423 29.1994 31.9938 24.9097 32.7357 23.2274C33.8575 20.5184 41.0856 22.1651 42.674 22.5946L47.9924 49.9745Z" fill="white"/>
</g>
<defs>
<clipPath id="clip0_168_646">
<rect width="36" height="40" fill="white" transform="translate(12 10)"/>
</clipPath>
</defs>
</svg>
