<svg width="60" height="60" viewBox="0 0 60 60" fill="none" xmlns="http://www.w3.org/2000/svg">
<rect width="60" height="60" fill="#243882"/>
<path d="M48.4028 24.7385C48.5594 24.7244 48.6732 24.5978 48.659 24.443C48.6448 24.2881 48.5167 24.1755 48.3601 24.1896C48.2036 24.2037 48.0897 24.3304 48.104 24.4852C48.1182 24.6259 48.2605 24.7385 48.4028 24.7385ZM30.7988 15.8576C30.7988 16.2939 31.1546 16.6598 31.61 16.6598C32.0653 16.6598 32.4211 16.308 32.4211 15.8576C32.4211 15.4213 32.0653 15.0553 31.61 15.0553C31.1688 15.0553 30.7988 15.4213 30.7988 15.8576ZM35.922 17.5747C35.922 18.011 36.2778 18.3769 36.7332 18.3769C37.1744 18.3769 37.5444 18.025 37.5444 17.5747C37.5444 17.1383 37.1886 16.7724 36.7332 16.7724C36.292 16.7724 35.922 17.1243 35.922 17.5747C35.922 17.5606 35.922 17.5606 35.922 17.5747ZM16.6529 38.4188C16.6529 38.8552 17.0087 39.2211 17.4641 39.2211C17.9053 39.2211 18.2753 38.8692 18.2753 38.4188C18.2753 37.9825 17.9195 37.6166 17.4641 37.6166C17.0229 37.6307 16.6671 37.9825 16.6529 38.4188ZM20.6377 41.7263C20.6377 42.1626 20.9934 42.5286 21.4488 42.5286C21.89 42.5286 22.26 42.1767 22.26 41.7263C22.26 41.29 21.9042 40.9241 21.4488 40.9241C21.0077 40.9382 20.6377 41.29 20.6377 41.7263ZM25.704 43.2745C25.704 43.7108 26.0598 44.0768 26.5152 44.0768C26.9563 44.0768 27.3263 43.7249 27.3263 43.2745C27.3263 42.8382 26.9706 42.4723 26.5152 42.4723C26.074 42.4723 25.7182 42.8241 25.704 43.2745ZM30.9126 43.2182C30.9269 43.6545 31.2969 44.0064 31.738 43.9923C32.1792 43.9782 32.535 43.6123 32.5208 43.176C32.5065 42.7397 32.1507 42.4019 31.7238 42.4019C31.2826 42.4019 30.9126 42.7538 30.9126 43.1901C30.9126 43.1901 30.9126 43.2041 30.9126 43.2182ZM35.922 41.6419C35.922 42.0782 36.292 42.4441 36.7474 42.4301C37.1886 42.4301 37.5586 42.0641 37.5444 41.6137C37.5444 41.1774 37.1886 40.8256 36.7474 40.8256C36.3063 40.8256 35.9363 41.1774 35.9363 41.6137C35.9363 41.6278 35.9363 41.6278 35.922 41.6419ZM39.9068 38.4751C39.9068 38.9114 40.2626 39.2774 40.718 39.2774C41.1591 39.2774 41.5291 38.9255 41.5291 38.4751C41.5291 38.0248 41.1734 37.6729 40.718 37.6729C40.2768 37.6588 39.921 38.0248 39.9068 38.4751C39.9068 38.4611 39.9068 38.4611 39.9068 38.4751ZM39.8641 20.7273C39.8641 21.1636 40.2341 21.5155 40.6753 21.5155C41.1164 21.5155 41.4722 21.1496 41.4722 20.7132C41.4722 20.2769 41.1164 19.9251 40.661 19.9251C40.2199 19.9251 39.8641 20.291 39.8641 20.7273ZM34.2 18.6162C34.2 18.0532 33.7304 17.6028 33.1612 17.6028C32.5919 17.6028 32.1365 18.0673 32.1365 18.6302C32.1365 19.1932 32.5919 19.6436 33.1612 19.6436C33.7446 19.6436 34.2 19.1791 34.2 18.6162ZM37.6582 20.7273C37.6582 20.1643 37.1886 19.714 36.6194 19.714C36.0501 19.714 35.5947 20.1784 35.5947 20.7414C35.5947 21.3044 36.0501 21.7548 36.6194 21.7548C37.2028 21.7407 37.6582 21.2903 37.6582 20.7273ZM40.3622 23.7252C40.3622 23.1622 39.9068 22.6977 39.3233 22.6977C38.754 22.6977 38.2844 23.1481 38.2844 23.7252C38.2844 24.3022 38.7398 24.7526 39.3233 24.7526C39.8925 24.7526 40.3479 24.3022 40.3622 23.7252C40.3622 23.7392 40.3622 23.7392 40.3622 23.7252ZM32.9619 12.2968C32.9761 12.1419 32.8623 12.0153 32.72 12.0012C32.5635 11.9871 32.4354 12.0997 32.4211 12.2545C32.4069 12.4093 32.5208 12.536 32.6773 12.5501C32.8196 12.5642 32.9477 12.4516 32.9619 12.2968C32.9619 12.3108 32.9619 12.3108 32.9619 12.2968ZM39.8498 14.7738C39.8641 14.6331 39.7502 14.4924 39.6079 14.4783C39.4514 14.4783 39.3375 14.605 39.3375 14.7598C39.3375 14.8864 39.4371 14.999 39.5652 15.0272C39.7075 15.0413 39.8498 14.9287 39.8498 14.7738ZM45.272 18.6162C45.2862 18.4613 45.1723 18.3347 45.0158 18.3206C44.8735 18.3065 44.7312 18.4191 44.7169 18.5599C44.6885 18.7147 44.7881 18.8554 44.9304 18.8836C45.087 18.9117 45.2293 18.8132 45.2577 18.6584C45.272 18.6443 45.272 18.6302 45.272 18.6162ZM35.8936 15.0694C35.9078 14.7879 35.6801 14.5346 35.3955 14.5205C35.1108 14.5064 34.8547 14.7316 34.8404 15.0131C34.8262 15.2946 35.0397 15.5339 35.3243 15.562C35.6089 15.5902 35.8651 15.379 35.8936 15.0976C35.8936 15.0835 35.8936 15.0694 35.8936 15.0694ZM41.1591 17.6591C41.1876 17.3776 40.9741 17.1243 40.6895 17.0961H40.6753C40.3906 17.0539 40.1202 17.2369 40.0776 17.5184C40.0349 17.7998 40.2199 18.0673 40.5045 18.1095C40.5187 18.1095 40.533 18.1095 40.5472 18.1095H40.5899C40.8745 18.1376 41.1307 17.9265 41.1449 17.645C41.1449 17.6309 41.1449 17.6309 41.1449 17.6169M44.7312 21.3466C44.4465 21.3325 44.1904 21.5577 44.1762 21.8392C44.1619 22.1207 44.3896 22.374 44.6742 22.3881C44.9589 22.4022 45.2008 22.1911 45.2293 21.9096C45.2577 21.6281 45.0443 21.3747 44.7596 21.3466C44.7454 21.3466 44.7312 21.3466 44.7312 21.3466ZM29.0626 13.6338C28.7637 13.6338 28.536 13.859 28.536 14.1546C28.536 14.4501 28.7637 14.6753 29.0626 14.6753C29.3614 14.6753 29.5891 14.4501 29.5891 14.1546C29.5891 13.8872 29.3614 13.6479 29.0626 13.6338C29.0626 13.6479 29.0626 13.6479 29.0626 13.6338ZM26.5152 15.0694C26.074 15.0694 25.704 15.4213 25.704 15.8716C25.704 16.308 26.0598 16.6739 26.5152 16.6739C26.9563 16.6739 27.3263 16.322 27.3263 15.8716C27.3121 15.4353 26.9563 15.0835 26.5152 15.0694ZM21.3919 16.7724C20.9507 16.7724 20.5807 17.1243 20.5807 17.5747C20.5807 18.011 20.9365 18.3769 21.3919 18.3769C21.8331 18.3769 22.2031 18.025 22.2031 17.5747C22.2031 17.1383 21.8473 16.7724 21.3919 16.7724ZM13.9063 28.8201C13.4651 28.8201 13.0951 29.172 13.0951 29.6223C13.0951 30.0586 13.4509 30.4246 13.9063 30.4246C14.3474 30.4246 14.7175 30.0727 14.7175 29.6223C14.7175 29.2001 14.3617 28.8342 13.9063 28.8201ZM14.9025 24.1333C14.4613 24.1333 14.0913 24.4852 14.0913 24.9356C14.0913 25.3719 14.4471 25.7378 14.9025 25.7378C15.3436 25.7378 15.7136 25.3859 15.7136 24.9356C15.7279 24.4993 15.3721 24.1333 14.9309 24.1193M17.5068 19.9251C17.0656 19.9251 16.6956 20.2769 16.6956 20.7273C16.6956 21.1636 17.0514 21.5296 17.5068 21.5296C17.9479 21.5296 18.318 21.1777 18.318 20.7273C18.3037 20.291 17.9479 19.9392 17.5068 19.9251ZM29.0626 42.2471C29.6318 42.2471 30.1014 41.7967 30.1014 41.2337C30.1014 40.6708 29.646 40.2063 29.0768 40.2063C28.5075 40.2063 28.0379 40.6567 28.0379 41.2197C28.0379 41.7826 28.4933 42.233 29.0626 42.2471ZM29.0626 19.0384C29.6318 19.0384 30.1014 18.588 30.1014 18.025C30.1014 17.4621 29.646 16.9976 29.0768 16.9976C28.5075 16.9976 28.0379 17.448 28.0379 18.011C28.0379 18.5739 28.4933 19.0243 29.0626 19.0384ZM24.964 19.6295C25.5332 19.6295 26.0028 19.1791 26.0028 18.6162C26.0028 18.0532 25.5474 17.5887 24.9782 17.5887C24.4089 17.5887 23.9393 18.0391 23.9393 18.6021C23.9251 19.1651 24.3805 19.6295 24.964 19.6295C24.9497 19.6295 24.9497 19.6295 24.964 19.6295ZM21.4915 21.7266C22.0608 21.7266 22.5304 21.2762 22.5304 20.7132C22.5304 20.1503 22.075 19.6858 21.5058 19.6858C20.9365 19.6858 20.4669 20.1362 20.4669 20.6992C20.4669 21.2621 20.9223 21.7266 21.4915 21.7266ZM18.7591 24.7526C19.3284 24.7807 19.8122 24.3444 19.8407 23.7815C19.8692 23.2185 19.428 22.74 18.8587 22.7118C18.2895 22.6837 17.8056 23.12 17.7772 23.6829V23.697C17.7772 24.26 18.2326 24.7104 18.8018 24.7245M17.6776 28.5245C18.2468 28.5245 18.7164 28.0742 18.7164 27.5112C18.7164 26.9482 18.261 26.4838 17.6918 26.4838C17.1225 26.4838 16.6529 26.9341 16.6529 27.4971C16.6529 28.0601 17.1083 28.5105 17.6776 28.5245ZM25.462 12.5501C25.6186 12.536 25.7324 12.4093 25.7182 12.2545C25.704 12.0997 25.5759 11.9871 25.4194 12.0012C25.2628 12.0153 25.1632 12.1419 25.1774 12.2968C25.1774 12.2968 25.1774 12.2968 25.1774 12.3108C25.1774 12.4516 25.3055 12.5642 25.462 12.5501C25.4478 12.5501 25.4478 12.5501 25.462 12.5501ZM18.5741 15.0272C18.7307 15.0131 18.8303 14.8864 18.8303 14.7457C18.8161 14.5909 18.688 14.4783 18.5314 14.4924C18.3749 14.5064 18.2753 14.6331 18.2753 14.7738C18.2895 14.9287 18.4176 15.0272 18.5741 15.0272ZM48.4028 36.3781C48.5594 36.3781 48.6732 36.2514 48.6732 36.1106C48.6732 35.9558 48.5452 35.8432 48.4028 35.8432H48.3459C48.1894 35.8573 48.0898 35.984 48.0898 36.1247C48.104 36.2795 48.2321 36.3921 48.3886 36.3781M45.0869 40.91C45.2435 40.8959 45.3431 40.7552 45.3431 40.6145C45.3289 40.4596 45.2008 40.347 45.0443 40.3611C44.8877 40.3752 44.7739 40.5019 44.7881 40.6567C44.8023 40.8115 44.9304 40.9241 45.0869 40.91ZM39.5937 44.7383C39.7502 44.7242 39.8498 44.5975 39.8498 44.4568C39.8498 44.3019 39.7218 44.1894 39.5795 44.1753C39.4229 44.1753 39.3091 44.3019 39.2948 44.4427C39.2948 44.4568 39.2948 44.4849 39.2948 44.499C39.3091 44.6538 39.4372 44.7664 39.5937 44.7383C39.5937 44.7523 39.5937 44.7523 39.5937 44.7383ZM32.72 47.1872C32.8765 47.1731 32.9904 47.0465 32.9762 46.8916C32.9619 46.7368 32.8338 46.6242 32.6773 46.6383C32.5208 46.6524 32.4069 46.779 32.4211 46.9339C32.4354 47.0887 32.5635 47.2013 32.72 47.1872ZM25.462 47.1872C25.6186 47.1731 25.7324 47.0465 25.7182 46.8916C25.704 46.7368 25.5759 46.6242 25.4194 46.6383C25.2628 46.6524 25.149 46.779 25.1632 46.9339C25.1774 47.0887 25.3055 47.2013 25.462 47.1872ZM18.5741 44.7101C18.7307 44.696 18.8303 44.5694 18.8303 44.4286C18.8161 44.2738 18.688 44.1612 18.5314 44.1753C18.3749 44.1894 18.2753 44.316 18.2753 44.4568C18.2895 44.6116 18.4176 44.7242 18.5741 44.7101ZM13.1378 40.8678C13.2943 40.8537 13.4082 40.727 13.3939 40.5722C13.3797 40.4174 13.2516 40.3048 13.0951 40.3189C12.9385 40.333 12.8247 40.4596 12.8389 40.6145C12.8532 40.7693 12.9812 40.8819 13.1378 40.8678ZM9.73652 36.3781C9.89306 36.3781 10.0069 36.2514 10.0069 36.1106C10.0069 35.9558 9.87883 35.8432 9.73652 35.8432H9.67958C9.52304 35.8714 9.43765 36.0121 9.46612 36.1669C9.49458 36.2936 9.5942 36.3921 9.73652 36.3921M13.1662 18.8413C13.3228 18.8273 13.4366 18.7006 13.4224 18.5458C13.4082 18.391 13.2801 18.2784 13.1236 18.2924C12.967 18.3065 12.8532 18.4332 12.8674 18.588C12.8816 18.7428 13.0097 18.8554 13.1662 18.8413ZM22.7866 15.5057C23.0712 15.4635 23.2704 15.2102 23.242 14.9287C23.1993 14.6613 22.9716 14.4642 22.7012 14.4783C22.4166 14.5205 22.2173 14.7738 22.26 15.0553C22.3027 15.3087 22.5162 15.5057 22.7723 15.5057M17.5068 18.1095C17.7772 18.0954 17.9906 17.8702 17.9764 17.6028C17.9622 17.3354 17.7345 17.1243 17.4641 17.1383C17.1937 17.1524 16.9802 17.3776 16.9945 17.645C17.0087 17.8984 17.2079 18.0954 17.4641 18.1095H17.5068ZM12.8816 21.8955C12.8816 22.1629 13.1093 22.3881 13.3797 22.3881H13.4509C13.7355 22.3881 13.9774 22.1488 13.9632 21.8673C13.9632 21.5859 13.7213 21.3466 13.4366 21.3607C13.4224 21.3607 13.3939 21.3607 13.3797 21.3607C13.0809 21.3747 12.8532 21.614 12.8816 21.8955ZM46.7947 31.7476C46.5101 31.7757 46.2966 32.0291 46.3108 32.3106C46.3393 32.592 46.5955 32.8032 46.8801 32.7891C47.1647 32.7609 47.3782 32.5076 47.364 32.2261C47.3355 31.9305 47.0793 31.7194 46.7947 31.7476ZM44.7596 36.7721C44.475 36.8144 44.2758 37.0677 44.3042 37.3492C44.3327 37.6166 44.5746 37.8136 44.845 37.7996C45.1296 37.7573 45.3289 37.504 45.2862 37.2225C45.2435 36.9692 45.03 36.7721 44.7739 36.7721M40.718 41.0508C40.4333 41.0508 40.1914 41.29 40.2056 41.5715C40.2056 41.853 40.4476 42.0923 40.7322 42.0782C40.7464 42.0782 40.7749 42.0782 40.7891 42.0782C41.0737 42.0641 41.3014 41.8249 41.2872 41.5293C41.2872 41.2619 41.0595 41.0367 40.7891 41.0367H40.718M35.3385 43.6545C35.0539 43.6686 34.8262 43.9079 34.8404 44.2034C34.8547 44.4849 35.0966 44.7101 35.3812 44.696C35.6659 44.682 35.8936 44.4427 35.8793 44.1612C35.8793 44.1612 35.8793 44.1331 35.8793 44.119C35.8651 43.8375 35.6232 43.6123 35.3385 43.6264M29.0056 44.499C28.721 44.5131 28.4933 44.7523 28.5075 45.0338C28.5218 45.3153 28.7637 45.5405 29.0483 45.5264H29.091C29.3757 45.4842 29.5749 45.2309 29.5464 44.9494C29.5037 44.682 29.276 44.499 29.0056 44.499ZM22.9289 43.8093C22.6443 43.8375 22.4308 44.0908 22.4593 44.3723C22.4877 44.6538 22.7439 44.8649 23.0285 44.8368C23.3131 44.8086 23.5266 44.5694 23.5124 44.2879C23.4981 44.0064 23.2562 43.7812 22.9573 43.7953C22.9431 43.8093 22.9431 43.8093 22.9289 43.8093ZM17.4499 41.0789C17.1652 41.093 16.9375 41.3322 16.9518 41.6137C16.966 41.8952 17.2079 42.1204 17.4925 42.1063H17.5352C17.8199 42.0641 18.0191 41.8108 17.9906 41.5293C17.9479 41.2619 17.7202 41.0648 17.4499 41.0789ZM13.3655 36.8003C13.0809 36.8425 12.8816 37.0959 12.9101 37.3773C12.9385 37.6448 13.1805 37.8418 13.4509 37.8277C13.7355 37.7855 13.9347 37.5322 13.892 37.2507C13.8493 36.9973 13.6359 36.8003 13.3797 36.8003M11.1169 26.8778C10.8323 26.9201 10.6331 27.1734 10.6615 27.4549C10.69 27.7223 10.9319 27.9193 11.2023 27.9053C11.487 27.863 11.6862 27.6097 11.6435 27.3282C11.6008 27.0749 11.3873 26.8778 11.1312 26.8778M26.0313 40.5582C26.0313 39.9952 25.5759 39.5448 25.0066 39.5448C24.4374 39.5448 23.982 39.9952 23.982 40.5582C23.982 41.1211 24.4374 41.5715 25.0066 41.5715C25.5617 41.5715 26.0313 41.1211 26.0313 40.5582ZM33.1185 39.5307C32.5492 39.5307 32.0796 39.9811 32.0796 40.5441C32.0796 41.1071 32.535 41.5715 33.1042 41.5715C33.6735 41.5715 34.1431 41.1211 34.1431 40.5582C34.1574 39.9952 33.702 39.5448 33.1185 39.5307C33.1327 39.5448 33.1327 39.5448 33.1185 39.5307ZM36.6478 37.5181C36.0786 37.504 35.6089 37.9544 35.5947 38.5174C35.5805 39.0803 36.0359 39.5448 36.6051 39.5589C37.1744 39.5729 37.644 39.1226 37.6582 38.5596V38.5455C37.6725 37.9825 37.2028 37.5181 36.6336 37.504C36.6194 37.504 36.6194 37.504 36.6051 37.504M40.3479 35.4632C40.3479 34.9002 39.8783 34.4499 39.3091 34.4499C38.7398 34.4499 38.2844 34.9143 38.2844 35.4773C38.2844 36.0403 38.7398 36.4907 39.3091 36.4907C39.8783 36.4766 40.3479 36.0262 40.3479 35.4632ZM21.52 37.4618C20.9507 37.4618 20.4811 37.9122 20.4811 38.4751C20.4811 39.0381 20.9365 39.5026 21.5058 39.5026C22.075 39.5026 22.5446 39.0522 22.5446 38.4892C22.5446 37.9262 22.0892 37.4759 21.52 37.4618ZM18.8018 34.4499C18.2326 34.4499 17.7629 34.9002 17.7629 35.4632C17.7629 36.0262 18.2183 36.4907 18.7876 36.4907C19.3568 36.4907 19.8265 36.0403 19.8265 35.4773V35.4632C19.8265 34.9002 19.3568 34.4358 18.8018 34.4499ZM29.2191 24.2178L34.6128 33.9854H37.0036L31.61 24.2459L29.2191 24.2178ZM21.0646 33.9854H23.4554L28.8491 24.2459H26.4582L21.0646 33.9854Z" fill="white"/>
</svg>
