<svg width="60" height="60" viewBox="0 0 60 60" fill="none" xmlns="http://www.w3.org/2000/svg">
<rect width="60" height="60" fill="#11386D"/>
<g clip-path="url(#clip0_1746_9098)">
<mask id="mask0_1746_9098" style="mask-type:luminance" maskUnits="userSpaceOnUse" x="-123" y="-213" width="1195" height="1519">
<path d="M-122.637 -212.221H1071.67V1305.57H-122.637V-212.221Z" fill="white"/>
</mask>
<g mask="url(#mask0_1746_9098)">
<path d="M10.0049 10.0249H49.9949V49.9601H10.0049V10.0249Z" fill="white"/>
<path fill-rule="evenodd" clip-rule="evenodd" d="M10.0049 43.0909V10.0249H49.9949V49.9601H20.5917C20.7714 41.0137 24.4818 32.3412 31.9874 26.1096C33.5588 24.8443 35.1584 23.7302 36.7864 22.7671C34.9753 23.428 33.1959 24.21 31.4481 25.1133C21.5854 30.533 15.9774 39.8431 14.7989 49.9601H12.3569C13.2608 43.2752 16.1572 36.8593 21.3157 31.5293C22.7007 30.0847 24.1772 28.7895 25.7452 27.6438C23.9974 28.4873 22.3095 29.4819 20.6815 30.6276C15.8825 34.0598 12.3569 38.3039 10.0049 43.0909ZM34.4343 19.9626L38.7739 21.8605L38.2346 26.6525L41.4905 23.1258L45.8351 25.1133L43.3882 20.9589L46.6491 17.4371L41.94 18.4284L39.6828 14.1843L39.1385 18.9714L34.4343 19.9626Z" fill="#11386D"/>
</g>
</g>
<defs>
<clipPath id="clip0_1746_9098">
<rect width="40" height="40" fill="white" transform="translate(10 10)"/>
</clipPath>
</defs>
</svg>
