<svg width="60" height="60" viewBox="0 0 60 60" fill="none" xmlns="http://www.w3.org/2000/svg">
<rect width="60" height="60" fill="#005E97"/>
<g clip-path="url(#clip0_150_1018)">
<path fill-rule="evenodd" clip-rule="evenodd" d="M10.247 33.5999C10.8948 33.7248 11.2651 33.7559 11.7586 33.7559C12.5608 33.7559 12.9002 33.6936 13.0853 33.4755C13.1779 33.3817 13.2396 33.2881 13.2396 33.1319C13.2396 32.664 12.9311 32.5391 12.6534 32.5083L11.6352 32.2585C10.3394 31.9466 10 30.9485 10 30.3554C10 29.6067 10.247 29.0765 10.648 28.7022C11.1418 28.2029 11.8512 27.9221 13.1163 27.9221C13.8566 27.9221 14.5972 27.9846 15.3377 28.1093L15.2143 29.638C14.6897 29.5443 14.1343 29.482 13.5791 29.482C12.9311 29.482 12.2833 29.5756 12.2833 30.1684C12.2833 30.6053 12.7151 30.6987 12.8695 30.73L14.0418 30.9485C15.0291 31.1354 15.5845 31.8219 15.5845 32.8827C15.5845 34.5675 14.6279 35.3785 12.6534 35.3785C11.6352 35.3785 10.7405 35.2846 10.0309 35.1597L10.247 33.5999Z" fill="white"/>
<path fill-rule="evenodd" clip-rule="evenodd" d="M18.176 29.4509L18.1451 31.7282C18.1451 32.1025 18.1451 32.4459 18.1451 32.7892C18.1451 33.2882 18.3611 33.5379 18.9166 33.5379C19.4101 33.5379 19.657 33.2569 19.657 32.6954L19.6879 29.4509H21.7242L21.6933 32.5084C21.6933 34.2866 21.0762 35.3472 18.7931 35.3472C16.726 35.3472 16.078 34.0679 16.078 33.0382C16.078 32.664 16.078 32.1963 16.109 31.7908L16.1397 29.4509H18.176L18.176 29.4509Z" fill="white"/>
<path fill-rule="evenodd" clip-rule="evenodd" d="M22.4955 29.4509H25.0257L26.2286 32.7578H26.2596V29.4509H28.0801L28.0182 35.1912H25.5192L24.1925 31.8531L24.2541 35.1912H22.4338L22.4955 29.4509Z" fill="white"/>
<path fill-rule="evenodd" clip-rule="evenodd" d="M33.2324 35.1912C32.9856 35.2225 32.7077 35.2847 32.4302 35.3161C32.1832 35.3161 31.8748 35.3472 31.5356 35.3472C29.5609 35.3472 28.5117 33.9747 28.5117 32.3211C28.5117 30.4804 29.5609 29.2949 31.7824 29.2949C32.3993 29.2949 32.7698 29.3574 33.2633 29.451L32.9856 31.1667C32.7077 31.1042 32.3684 31.0731 32.1525 31.0731C30.8567 31.0731 30.6099 31.822 30.6099 32.3211C30.6099 32.9139 30.8876 33.5688 32.0601 33.5688C32.3684 33.5688 32.677 33.5379 32.9547 33.5068L33.2324 35.1912Z" fill="white"/>
<path fill-rule="evenodd" clip-rule="evenodd" d="M36.3794 29.2949C38.3542 29.2949 39.4032 30.6676 39.4032 32.3211C39.4032 33.9747 38.3542 35.3472 36.3794 35.3472C34.3741 35.3472 33.325 33.9747 33.325 32.3211C33.325 30.6676 34.3741 29.2949 36.3794 29.2949ZM36.3794 30.9797C35.6699 30.9797 35.4541 31.5722 35.4541 32.3211C35.4541 33.0698 35.6699 33.6624 36.3794 33.6624C37.0892 33.6624 37.2743 33.0698 37.2743 32.3211C37.2743 31.5722 37.0892 30.9797 36.3794 30.9797Z" fill="white"/>
<path fill-rule="evenodd" clip-rule="evenodd" d="M45.2962 35.1911H43.0438L41.8406 32.7578L41.8097 35.1911H39.8352L39.8661 29.4509H42.8586C44.4324 29.4509 44.9259 30.2307 44.9259 31.1667C44.9259 31.9466 44.4324 32.6016 43.7225 32.6327L45.2962 35.1911ZM41.8715 31.978H42.2725C42.6428 31.978 42.9514 31.9466 42.9514 31.4476C42.9514 31.0731 42.828 30.8236 42.3342 30.8236H41.8715V31.978Z" fill="white"/>
<path fill-rule="evenodd" clip-rule="evenodd" d="M45.0512 38.9865H46.1402C47.4269 38.0126 48.4166 36.809 49.0956 35.4336C50.453 32.8402 50.255 29.0004 48.6855 26.5647C46.9545 23.8439 44.2154 22.1215 40.9839 22.0027H40.26C40.1372 22.0072 40.0138 22.0138 39.8898 22.0229C36.5524 22.3093 33.2717 24.745 32.1263 28.0117H33.7526L34.601 26.7079C36.7787 23.9858 40.3705 22.9398 43.6655 24.0574C46.5359 24.9886 48.7279 27.9545 49.0249 30.9347C49.3642 34.2729 47.7945 37.2531 45.0512 38.9865Z" fill="url(#paint0_linear_150_1018)"/>
</g>
<defs>
<linearGradient id="paint0_linear_150_1018" x1="32.6929" y1="21.7843" x2="50.1119" y2="38.9766" gradientUnits="userSpaceOnUse">
<stop stop-color="#F3AE18"/>
<stop offset="1" stop-color="#DD3E31"/>
</linearGradient>
<clipPath id="clip0_150_1018">
<rect width="40" height="17" fill="white" transform="translate(10 22)"/>
</clipPath>
</defs>
</svg>
