<svg width="60" height="60" viewBox="0 0 60 60" fill="none" xmlns="http://www.w3.org/2000/svg">
<rect width="60" height="60" fill="#2C88B5"/>
<path d="M50.3498 19.729C50.3498 19.729 41.0558 24.2439 33.1749 28.2544H29.1672C27.7863 27.2712 26.3405 26.2526 25.0258 25.3505C20.6351 22.3322 14.5111 18.4084 14.5111 18.4084C14.2772 18.2625 14.2397 18.3165 14.4599 18.4812C14.4599 18.4812 20.31 22.7835 24.7042 25.8009C25.9836 26.6819 27.4131 27.6409 28.794 28.5564L28.1714 30.8413C27.2511 31.3236 26.3269 31.8133 25.3615 32.3276H23.2337C19.5406 29.8663 15.8734 27.5154 15.8734 27.5154C15.607 27.3407 15.5567 27.3971 15.8196 27.5891C15.8196 27.5891 19.0698 29.9771 22.5362 32.4375L22.0831 34.0839C15.5033 37.6281 9.28258 41.0808 9.28258 41.0808C8.97993 41.2486 9.00949 41.3039 9.32009 41.1489C9.32009 41.1489 15.9806 37.9128 22.808 34.4859H25.4524C25.6593 34.6287 25.8627 34.7707 26.0635 34.9079C27.0482 35.5852 28.1269 36.3074 29.1972 37.0206L28.9285 38.0064C27.9923 38.5086 27.0482 39.025 26.1844 39.506H24.5198L24.2233 40.6053C23.2152 41.1718 22.5631 41.5471 22.5631 41.5471C22.1828 41.7521 22.2287 41.8323 22.6196 41.6511C22.6196 41.6511 23.4225 41.2775 24.6098 40.7084H26.1627L26.4014 39.8443C27.3301 39.3926 28.3382 38.8947 29.3313 38.396H31.2677C34.157 40.2981 36.5791 41.8513 36.5791 41.8513C36.8826 42.048 36.9254 41.9863 36.6298 41.7779C36.6298 41.7779 34.3899 40.1298 31.6405 38.1586L31.9458 37.0378C35.2423 35.2823 38.7996 33.239 38.7996 33.239C39.1909 33.0143 39.1508 32.9457 38.7435 33.1346C38.7435 33.1346 34.7976 34.9768 31.3965 36.7142H29.6154C28.5235 35.9376 27.4157 35.1628 26.3882 34.4569C26.1469 34.293 25.9029 34.1243 25.6558 33.9552L25.943 32.9016C26.963 32.3856 27.9628 31.8748 28.9179 31.3813H33.1083C34.3816 32.2079 35.2189 32.7433 35.2189 32.7433C35.44 32.8835 35.4854 32.8257 35.2692 32.6708C35.2692 32.6708 34.4597 32.075 33.2204 31.1737L33.8751 28.7814C41.6055 24.672 50.3851 19.7969 50.3851 19.7969C50.7822 19.5743 50.7561 19.5283 50.3498 19.729Z" fill="white"/>
</svg>
