<svg width="60" height="60" viewBox="0 0 60 60" fill="none" xmlns="http://www.w3.org/2000/svg">
<rect width="60" height="60" fill="#0052CC"/>
<g clip-path="url(#clip0_715_8015)">
<path d="M21.7935 28.9085C21.6755 28.7575 21.5195 28.6388 21.3408 28.5639C21.162 28.4891 20.9665 28.4606 20.7732 28.4813C20.5799 28.5019 20.3953 28.571 20.2373 28.6819C20.0793 28.7927 19.9534 28.9415 19.8716 29.1139L10.1237 48.1618C10.0347 48.3352 9.99248 48.5279 10.0011 48.7217C10.0097 48.9155 10.0689 49.104 10.173 49.2691C10.2771 49.4343 10.4226 49.5708 10.5959 49.6656C10.7691 49.7604 10.9642 49.8103 11.1628 49.8107H24.7365C24.9562 49.8148 25.1723 49.7558 25.3581 49.6411C25.5438 49.5264 25.6911 49.3609 25.7815 49.1652C28.7065 43.2971 26.9347 34.2779 21.7935 28.9085Z" fill="url(#paint0_linear_715_8015)"/>
<path d="M28.9467 11.6094C26.5167 15.2619 25.1005 19.4689 24.8373 23.8176C24.574 28.1662 25.4727 32.5071 27.4452 36.4139L34.0218 49.1653C34.1177 49.3547 34.2657 49.5144 34.4492 49.6263C34.6327 49.7382 34.8445 49.798 35.0608 49.799H48.6345C48.8248 49.7837 49.0086 49.7243 49.1706 49.6257C49.3327 49.5271 49.4684 49.3922 49.5664 49.2321C49.6645 49.0721 49.7221 48.8915 49.7344 48.7054C49.7468 48.5192 49.7136 48.3329 49.6375 48.1618L30.9287 11.6094C30.8391 11.4269 30.6985 11.2729 30.5232 11.165C30.3478 11.0572 30.1449 11 29.9377 11C29.7305 11 29.5275 11.0572 29.3522 11.165C29.1769 11.2729 29.0363 11.4269 28.9467 11.6094Z" fill="white"/>
</g>
<defs>
<linearGradient id="paint0_linear_715_8015" x1="27.1389" y1="31.8485" x2="17.205" y2="49.4649" gradientUnits="userSpaceOnUse">
<stop stop-color="#0052CC"/>
<stop offset="0.92" stop-color="white"/>
</linearGradient>
<clipPath id="clip0_715_8015">
<rect width="40" height="39" fill="white" transform="translate(10 11)"/>
</clipPath>
</defs>
</svg>
