<svg width="60" height="60" viewBox="0 0 60 60" fill="none" xmlns="http://www.w3.org/2000/svg">
<rect width="60" height="60" fill="#005F9E"/>
<g clip-path="url(#clip0_168_610)">
<path fill-rule="evenodd" clip-rule="evenodd" d="M10.2385 33.875H9.0271V27.0225H10.2412V29.6025C10.4707 29.2325 10.7011 28.9883 10.9323 28.87C11.1817 28.75 11.4581 28.69 11.74 28.695C12.329 28.695 12.8168 28.925 13.2034 29.385C13.5883 29.8466 13.7807 30.485 13.7807 31.3C13.7807 32.0383 13.5901 32.6691 13.2089 33.1925C12.8294 33.7158 12.2829 33.9775 11.5692 33.9775C11.2955 33.9775 11.0218 33.9275 10.7697 33.825C10.5692 33.7375 10.3903 33.6175 10.2385 33.47V33.875ZM10.2385 31.7625C10.2385 32.2041 10.3406 32.53 10.5448 32.74C10.7508 32.95 11.0434 33.065 11.3497 33.0575C11.6641 33.06 11.9622 32.925 12.1546 32.695C12.3696 32.4516 12.4843 31.9775 12.4988 31.2725C12.4988 30.7558 12.4012 30.3583 12.2061 30.08C12.0354 29.81 11.7183 29.65 11.3822 29.66C11.0624 29.655 10.7589 29.785 10.5583 30.015C10.3415 30.2533 10.2331 30.59 10.2331 31.025L10.2385 31.7625ZM22.4152 31.775H21.2905C21.22 32.3775 20.9788 32.875 20.5615 33.265C20.0574 33.7333 19.4205 33.9675 18.6508 33.9675C17.8215 33.9675 17.1882 33.7075 16.751 33.1875C16.3174 32.68 16.087 32.05 16.0952 31.405C16.0952 30.6833 16.3373 30.0825 16.8215 29.6025C17.3039 29.1241 17.9417 28.885 18.7348 28.885C19.4864 28.885 20.1044 29.1175 20.5886 29.5825C20.9517 29.935 21.1875 30.38 21.2661 30.86H22.4152V31.775ZM18.6969 33.0575C19.4485 33.0575 19.8686 32.63 19.9571 31.775H18.6183L18.7836 30.8575H19.9192C19.8812 30.6325 19.7972 30.415 19.6671 30.22C19.4648 29.9316 19.1522 29.7875 18.7294 29.7875C18.2904 29.7875 17.9661 29.9366 17.7565 30.235C17.5451 30.5333 17.4394 30.9283 17.4394 31.42C17.4394 31.9516 17.5505 32.3575 17.7727 32.6375C17.9841 32.9125 18.331 33.07 18.6969 33.0575ZM14.3498 29.41H15.564V33.8725H14.3498V29.41Z" fill="white"/>
<path fill-rule="evenodd" clip-rule="evenodd" d="M25.269 32.9925V33.865C24.9925 33.925 24.7107 33.9625 24.4288 33.9725C24.1361 33.98 23.8461 33.9175 23.5887 33.7925C23.3637 33.685 23.1849 33.5125 23.0765 33.3025C22.9681 33.0958 22.913 32.7767 22.9111 32.345V29.7825H22.0791V28.915H22.9816L23.0927 27.625L24.0874 27.5425V28.915H25.1633V29.7825H24.0874V32.1975C24.0874 32.5075 24.1488 32.7192 24.2716 32.8325C24.3945 32.9442 24.6249 33.0008 24.9627 33.0025C25.0603 33.005 25.1633 32.9975 25.269 32.9925ZM29.1309 32.285L30.2258 32.4225C30.0876 32.865 29.7976 33.255 29.3965 33.53C28.9864 33.8217 28.4706 33.9675 27.849 33.9675C27.1046 33.9675 26.5057 33.7367 26.0522 33.275C25.5987 32.815 25.372 32.1917 25.372 31.405C25.372 30.655 25.6005 30.0358 26.0576 29.5475C26.5147 29.0575 27.1354 28.8125 27.9195 28.8125C28.6856 28.8125 29.2773 29.0542 29.6946 29.5375C30.112 30.0208 30.3216 30.6417 30.3234 31.4L30.318 31.5275H26.6349C26.6268 31.8 26.662 32.0725 26.7379 32.335C26.8138 32.545 26.9574 32.73 27.1498 32.8625C27.372 33.0175 27.6431 33.0975 27.9195 33.0875C28.523 33.0892 28.9268 32.8217 29.1309 32.285ZM29.055 30.805C29.0514 30.4483 28.9349 30.1575 28.7054 29.9325C28.2583 29.5 27.5157 29.48 27.0441 29.8925C27.0369 29.8992 27.0297 29.9058 27.0224 29.9125C26.802 30.1225 26.6728 30.4208 26.6349 30.8075L29.055 30.805ZM34.1311 32.0425L35.1745 32.1425C35.039 32.7642 34.778 33.2233 34.3913 33.52C33.9983 33.82 33.5024 33.9775 32.9929 33.965C32.2521 33.965 31.683 33.715 31.2855 33.215C30.888 32.715 30.6884 32.105 30.6866 31.385C30.6866 30.64 30.9052 30.0242 31.3424 29.5375C31.7778 29.0508 32.3587 28.8075 33.085 28.8075C34.2558 28.8075 34.9523 29.375 35.1745 30.51L34.1311 30.6475C34.039 30.0325 33.7111 29.725 33.1474 29.725C32.7679 29.7075 32.4129 29.905 32.253 30.2225C32.0669 30.5525 31.9739 30.9542 31.9739 31.4275C31.9739 31.9275 32.0705 32.3133 32.2639 32.585C32.4346 32.845 32.7435 33 33.0742 32.99C33.6054 32.99 33.9577 32.6742 34.1311 32.0425ZM40.0989 33.8725H38.8847V30.6325C38.8847 30.2825 38.8043 30.0367 38.6435 29.895C38.4945 29.7575 38.2885 29.68 38.0771 29.6825C37.7411 29.6775 37.4213 29.8175 37.2099 30.06C36.975 30.3117 36.8575 30.7267 36.8575 31.305V33.8725H35.6461V27.1825H36.8603V29.79C37.162 29.0783 37.6905 28.7225 38.4457 28.7225C39.5478 28.7225 40.0989 29.305 40.0989 30.47V33.8725ZM45.194 33.8725H43.9798V30.78C43.9798 30.4533 43.8976 30.2075 43.7332 30.0425C43.5868 29.885 43.37 29.795 43.1451 29.795C42.8289 29.795 42.5516 29.9225 42.3131 30.1775C42.0764 30.4325 41.958 30.8167 41.958 31.33V33.8725H40.7466V28.9225H41.8551V30.07C42.2417 29.2367 42.7837 28.82 43.4811 28.82C43.9256 28.8125 44.3592 28.96 44.6926 29.2325C45.0268 29.5075 45.194 29.9892 45.194 30.6775V33.8725ZM49.4028 32.285L50.4977 32.4225C50.3622 32.865 50.0695 33.255 49.6711 33.53C49.261 33.8217 48.7451 33.9675 48.1236 33.9675C47.3774 33.9675 46.7785 33.7367 46.3268 33.275C45.8733 32.815 45.6456 32.1908 45.6438 31.4025C45.6438 30.6542 45.8733 30.035 46.3322 29.545C46.7893 29.0567 47.409 28.8117 48.1914 28.81C48.9574 28.81 49.5501 29.0517 49.9692 29.535C50.3866 30.02 50.5953 30.6408 50.5953 31.3975L50.5898 31.525H46.9013C46.8932 31.8 46.9284 32.07 47.0043 32.335C47.0829 32.545 47.2266 32.73 47.419 32.8625C47.6412 33.0175 47.9122 33.0975 48.1887 33.0875C48.7903 33.0892 49.195 32.8217 49.4028 32.285ZM49.3269 30.805C49.3351 30.485 49.2131 30.1725 48.98 29.9325C48.5328 29.5 47.7876 29.48 47.316 29.8925C47.3088 29.8992 47.3015 29.9058 47.2943 29.9125C47.0739 30.1225 46.9429 30.4208 46.9013 30.8075L49.3269 30.805ZM15.5938 28.375C15.5938 28.695 15.3119 28.9575 14.9623 28.9575C14.6127 28.9575 14.3281 28.695 14.3281 28.375C14.3281 28.0525 14.61 27.79 14.9623 27.79C15.3092 27.79 15.5938 28.0525 15.5938 28.375Z" fill="white"/>
</g>
<defs>
<clipPath id="clip0_168_610">
<rect width="42" height="7" fill="white" transform="translate(9 27)"/>
</clipPath>
</defs>
</svg>
