<svg width="60" height="60" viewBox="0 0 60 60" fill="none" xmlns="http://www.w3.org/2000/svg">
<rect width="60" height="60" fill="#C2112E"/>
<g clip-path="url(#clip0_150_1096)">
<path d="M42.4637 24.4271L45.5524 18.5913H50.6954L45.7687 28.6099L50.6954 37.8481H45.2853L42.4537 32.3913L37.0216 42.9156H31.2597L39.044 28.6322L33.589 18.5913H39.4157L42.4726 24.4423L42.4637 24.4271Z" fill="#FEFEFD"/>
<path d="M27.7613 18.5759H32.7548V33.6317C32.7548 40.5114 29.656 42.9155 24.6715 42.9155C23.4934 42.9155 22.8017 42.878 21.791 42.5182L21.793 38.2513C23.4037 38.2878 23.919 38.2249 24.213 38.2016C25.8466 38.0719 27.7712 37.3239 27.7712 33.5597V18.5911L27.7613 18.5759Z" fill="#FEFEFD"/>
<path d="M9.82062 18.5759V23.6587H15.8108V42.9155H20.7943V23.6587H26.7746V18.5911H9.83058L9.82062 18.5759Z" fill="#FEFEFD"/>
</g>
<defs>
<clipPath id="clip0_150_1096">
<rect width="42" height="25" fill="white" transform="translate(9 18)"/>
</clipPath>
</defs>
</svg>
