<svg width="60" height="60" viewBox="0 0 60 60" fill="none" xmlns="http://www.w3.org/2000/svg">
<g clip-path="url(#clip0_150_977)">
<rect width="60" height="60" fill="white"/>
<g clip-path="url(#clip1_150_977)">
<path d="M0 0H60V60H0V0Z" fill="#A20C31"/>
<path fill-rule="evenodd" clip-rule="evenodd" d="M32.347 21.6055L41.3168 21.625C42.7254 21.625 43.2443 22.4336 43.2433 23.2434C43.2433 24.0542 42.72 24.865 41.3168 24.865H37.0033C34.5406 24.8758 32.4324 26.4704 32.4324 28.7698V41.1623C32.4324 42.3126 31.4995 43.2434 30.2703 43.2434C29.0411 43.2434 28.1081 42.3136 28.1081 41.1623V28.7698C28.1081 26.3936 26.0119 24.865 23.5524 24.865L19.2249 24.8758C17.8184 24.8758 17.2951 24.0585 17.2973 23.2434C17.2995 22.4326 17.8173 21.6261 19.2249 21.6261L28.227 21.6217C27.2541 18.3461 24.026 15.1353 20.2162 15.1353C15.6681 15.1353 11.8919 18.9763 11.8919 23.2261V38.8898C11.8919 41.4012 14.066 43.2434 16.7568 43.2434C19.4465 43.2434 21.6216 41.3947 21.6216 38.8823V28.5882C21.6216 27.6585 22.2487 27.0271 23.2433 27.0271C24.2379 27.0271 24.8649 27.6596 24.8649 28.5882V41.9288C24.8649 44.4412 27.5806 46.4866 30.2703 46.4866C32.96 46.4866 35.6724 44.4412 35.6724 41.9288L35.6757 28.5839C35.6757 27.6553 36.3027 27.0271 37.2973 27.0271C38.2919 27.0271 38.9189 27.6553 38.9189 28.5839V39.1212C38.9189 41.6336 41.0941 43.2434 43.7838 43.2434C46.4735 43.2434 48.6487 41.6326 48.6487 39.1212V22.9266C48.6487 18.6747 44.8314 15.172 40.3276 15.172C36.5373 15.172 33.347 18.3655 32.3579 21.6217L32.347 21.6055Z" fill="#FEFEFD"/>
</g>
</g>
<defs>
<clipPath id="clip0_150_977">
<rect width="60" height="60" fill="white"/>
</clipPath>
<clipPath id="clip1_150_977">
<rect width="60" height="60" fill="white"/>
</clipPath>
</defs>
</svg>
