<svg width="60" height="60" viewBox="0 0 60 60" fill="none" xmlns="http://www.w3.org/2000/svg">
<rect width="60" height="60" fill="#E71316"/>
<g clip-path="url(#clip0_1763_9079)">
<path d="M13.3799 26.2858V25.4071H9.42535V26.2882H10.7847V30.1192H12.0106V26.2882L13.3799 26.2858ZM28.6419 30.1167C28.6097 29.804 28.59 29.5618 28.59 29.3987V27.8119C28.59 27.1533 28.1068 26.743 27.4679 26.743C27.2518 26.7381 27.038 26.7889 26.8472 26.8904C26.6563 26.9919 26.4947 27.1407 26.3779 27.3226C26.2407 26.9518 25.8366 26.7615 25.4585 26.7615C25.0012 26.7615 24.6169 26.9123 24.4019 27.3226L24.3747 26.8283H23.2538V30.1155H24.4142V28.1382C24.4142 28.0344 24.3685 27.4733 24.9085 27.4733C25.2682 27.4733 25.3522 27.7934 25.3522 28.1061V30.1155H26.5064V28.1382C26.5064 28.0344 26.4607 27.4733 27.0007 27.4733C27.3604 27.4733 27.4456 27.7934 27.4456 28.1061V30.1155L28.6419 30.1167ZM22.9857 27.7984V26.8011C22.4827 26.8011 22.0984 26.958 21.9488 27.4597L21.9216 26.8332H20.7612C20.7872 27.1014 20.7872 27.4597 20.7872 27.676V30.1155H21.9488V28.6795C21.9488 28.1382 22.1045 27.8058 22.7447 27.7934H22.9857M30.6476 26.738C29.5774 26.738 28.8791 27.3312 28.8791 28.4595C28.8791 29.6211 29.5848 30.202 30.6476 30.202C31.7103 30.202 32.416 29.6211 32.416 28.4595C32.416 27.3312 31.7177 26.738 30.6476 26.738ZM30.6476 27.4289C31.1419 27.4289 31.2284 27.9306 31.2284 28.4459C31.2284 29.0465 31.1233 29.5161 30.6476 29.5161C30.1718 29.5161 30.0667 29.0465 30.0667 28.4459C30.0667 27.9244 30.1582 27.4227 30.6476 27.4227V27.4289ZM16.9563 30.1155C16.9289 29.8771 16.9136 29.6374 16.9105 29.3975V27.8119C16.9105 27.1533 16.4162 26.743 15.7823 26.743C15.5942 26.7397 15.4074 26.775 15.2336 26.8468C15.0708 26.9244 14.928 27.0381 14.8159 27.1792V25.4071H13.6555V30.1155H14.8159V28.1382C14.8159 28.0344 14.7714 27.4733 15.3102 27.4733C15.6809 27.4733 15.7538 27.7934 15.7538 28.1061V30.1155H16.9563ZM20.5054 28.6992C20.5054 27.5191 20.1594 26.743 18.8482 26.743C17.8114 26.743 17.191 27.3819 17.191 28.3804C17.191 29.6063 17.6285 30.2069 18.9063 30.2069C19.2656 30.2198 19.6204 30.1242 19.9246 29.9326C20.0806 29.8357 20.212 29.7039 20.3083 29.5476C20.4046 29.3912 20.4632 29.2146 20.4795 29.0317H19.3833C19.3822 29.1019 19.3667 29.1711 19.3377 29.2351C19.3088 29.299 19.267 29.3563 19.215 29.4035C19.163 29.4506 19.1018 29.4866 19.0353 29.5092C18.9689 29.5317 18.8984 29.5404 18.8285 29.5346C18.3848 29.5346 18.2946 29.1108 18.3008 28.6992H20.5054ZM19.3932 28.0665H18.3169C18.3428 27.7205 18.4207 27.3683 18.8507 27.3498C18.934 27.3438 19.0171 27.3621 19.0902 27.4025C19.1632 27.4428 19.223 27.5035 19.2622 27.5771C19.3523 27.726 19.3977 27.8976 19.3932 28.0715V28.0665Z" fill="white"/>
<path d="M50.5796 27.7403V26.743C50.0778 26.7356 49.6923 26.8987 49.5427 27.4017L49.5168 26.8332H48.3564C48.3811 27.1014 48.3811 27.4597 48.3811 27.6748V30.1142H49.5427V28.6795C49.5427 28.1382 49.6997 27.7477 50.3386 27.7341H50.5858M44.5465 30.108C44.5185 29.8701 44.5032 29.6308 44.5007 29.3913V27.8132C44.5007 27.1533 44.0064 26.743 43.3725 26.743C43.1888 26.7394 43.0064 26.7748 42.8374 26.8468C42.6701 26.9232 42.5225 27.0369 42.4061 27.1792V25.4071H41.2457V30.1167H42.4061V28.1394C42.4061 28.0356 42.3603 27.4746 42.9004 27.4746C43.2649 27.4746 43.344 27.7934 43.344 28.1073V30.1155L44.5465 30.108ZM40.9627 29.1305C40.9627 28.6214 40.6957 28.3742 40.3238 28.2371C39.6255 27.9899 39.1028 27.9763 39.1028 27.7143C39.0982 27.6734 39.1028 27.6319 39.1163 27.593C39.1297 27.5541 39.1517 27.5186 39.1806 27.4893C39.2095 27.4599 39.2445 27.4373 39.2833 27.4233C39.322 27.4092 39.3633 27.4039 39.4043 27.4078C39.4607 27.4031 39.5174 27.41 39.571 27.428C39.6245 27.4461 39.6738 27.475 39.7158 27.5129C39.7814 27.6032 39.8117 27.7144 39.801 27.8255H40.9033C40.8774 26.9605 40.199 26.7368 39.455 26.7368C38.8223 26.7368 38.0017 26.958 38.0017 27.7477C38.0017 28.8957 39.8554 28.5954 39.8554 29.2084C39.8554 29.4247 39.6787 29.521 39.4501 29.521C39.3913 29.5214 39.3333 29.5074 39.2812 29.4803C39.2291 29.4531 39.1844 29.4137 39.151 29.3653C39.1179 29.3196 39.0945 29.2677 39.0822 29.2127C39.0699 29.1576 39.0689 29.1007 39.0793 29.0453H37.9671C37.9473 30.024 38.6715 30.2007 39.4735 30.2007C40.2249 30.2007 40.9565 29.9264 40.9565 29.1305M48.0969 28.6931C48.1043 27.5129 47.7521 26.7368 46.4397 26.7368C45.4029 26.7368 44.7825 27.3757 44.7825 28.3742C44.7825 29.6001 45.22 30.2007 46.499 30.2007C46.8578 30.2128 47.212 30.1172 47.5161 29.9264C47.6725 29.83 47.8041 29.6983 47.9005 29.5418C47.9968 29.3854 48.0552 29.2086 48.0709 29.0255H46.9723C46.9714 29.0956 46.956 29.1648 46.9272 29.2288C46.8984 29.2927 46.8567 29.3501 46.8048 29.3973C46.7528 29.4444 46.6918 29.4804 46.6254 29.503C46.5589 29.5256 46.4886 29.5342 46.4187 29.5285C45.975 29.5285 45.8836 29.1046 45.8898 28.6931H48.0969ZM46.9847 28.0603H45.9095C45.9355 27.7143 46.0133 27.3621 46.4446 27.3436C46.5279 27.338 46.6111 27.3567 46.6841 27.3972C46.7571 27.4378 46.8168 27.4985 46.8561 27.5722C46.9435 27.7219 46.9863 27.8934 46.9797 28.0665L46.9847 28.0603ZM37.6681 26.8246H36.5077V30.1155H37.6681V26.8246ZM36.1468 26.2722L36.4211 25.4071H33.3008V30.1167H34.5267V28.263H35.5153L35.7884 27.398H34.5267V26.2722H36.1468ZM37.6693 26.2722L37.9449 25.4071H36.7968L36.5225 26.2722H37.6693Z" fill="white"/>
<path d="M20.0754 31.4946H20.5005V34.1652H20.0754V31.4946ZM48.7457 34.2133C47.8547 34.2133 47.1898 33.719 47.1898 32.854C47.1898 31.9889 47.9313 31.4427 48.7729 31.4427C49.0681 31.4449 49.3574 31.526 49.6107 31.6775L49.392 31.9358C49.204 31.8266 48.9914 31.7666 48.7741 31.7615C48.618 31.7534 48.4619 31.7782 48.3161 31.8344C48.1702 31.8906 48.0378 31.977 47.9276 32.0878C47.7393 32.3035 47.6426 32.5842 47.6582 32.87C47.6496 33.0152 47.6736 33.1604 47.7283 33.2951C47.783 33.4298 47.8672 33.5506 47.9745 33.6486C48.1784 33.85 48.4911 33.9056 48.7976 33.9056C49.0345 33.8962 49.2658 33.8305 49.4723 33.7141L49.6799 33.9612C49.3956 34.1275 49.0713 34.2129 48.742 34.2084M44.2635 31.4897H44.6886V34.1602H44.2635V31.4897ZM34.6342 31.8085H33.6394V34.1565H33.2242V31.8085H32.2355V31.4897H34.6787L34.6342 31.8085ZM12.4543 34.07C12.2183 34.1774 11.9608 34.229 11.7017 34.2208C11.3302 34.2216 10.9633 34.1393 10.6278 33.9798L10.8045 33.677C11.0925 33.8259 11.4121 33.903 11.7363 33.9019C11.905 33.9097 12.0727 33.8722 12.2219 33.7932C12.2898 33.764 12.348 33.7161 12.3896 33.655C12.4312 33.5939 12.4545 33.5223 12.4567 33.4484C12.4567 33.2247 12.285 33.0863 11.8722 32.9899L11.4385 32.8886C11.0059 32.7872 10.7341 32.5178 10.7341 32.2015C10.7341 31.7467 11.1814 31.4242 11.8191 31.4242C12.1771 31.417 12.5306 31.5048 12.8435 31.6787L12.6458 31.9568C12.3986 31.8177 12.12 31.7441 11.8364 31.743C11.457 31.743 11.1938 31.8901 11.1938 32.1409C11.1938 32.3337 11.3544 32.4486 11.7264 32.5389L12.128 32.6352C12.3433 32.6775 12.5457 32.7698 12.7187 32.9046C12.7836 32.9661 12.8355 33.04 12.8711 33.122C12.9068 33.204 12.9256 33.2923 12.9263 33.3817C12.9197 33.529 12.8719 33.6715 12.7885 33.7932C12.7051 33.9148 12.5893 34.0107 12.4543 34.07ZM29.5588 34.1652L28.4985 32.7415C28.2996 32.4746 27.9634 31.9531 27.9634 31.9531C27.9634 31.9531 28.0005 32.4042 28.003 32.7996L28.0141 34.1652H27.5902V31.4946H28.0956L29.1646 32.9454C29.3735 33.2284 29.6589 33.677 29.6589 33.677C29.6589 33.677 29.5947 33.1827 29.5922 32.8317L29.5823 31.4909H30.0025V34.1614L29.5588 34.1652ZM36.8747 31.4946H37.301V34.1652H36.8747V31.4946ZM41.9414 31.8085H40.4795V32.5994H41.7153V32.9133H40.4795V34.1652H40.0531V31.4946H42.0007L41.9414 31.8085ZM23.2538 34.1652V31.4946H25.2224L25.1656 31.8134H23.6826V32.6093H24.9481V32.9281H23.6876V33.8303H25.2768V34.1652H23.2538ZM16.7832 34.2109C15.8935 34.2109 15.2286 33.7166 15.2286 32.8515C15.2286 31.9865 15.9701 31.4402 16.8104 31.4402C17.1057 31.4424 17.3949 31.5235 17.6483 31.675L17.4308 31.9333C17.2428 31.8241 17.0303 31.7642 16.8129 31.7591C16.6566 31.7507 16.5003 31.7755 16.3542 31.8317C16.2081 31.8879 16.0755 31.9743 15.9651 32.0853C15.7768 32.301 15.6802 32.5817 15.6957 32.8676C15.6873 33.0128 15.7115 33.1581 15.7664 33.2928C15.8214 33.4275 15.9057 33.5482 16.0133 33.6461C16.2172 33.8476 16.5287 33.9032 16.8351 33.9032C17.0721 33.8937 17.3033 33.8281 17.5099 33.7116L17.7175 33.9588C17.4333 34.1253 17.1089 34.2108 16.7795 34.2059" fill="white"/>
</g>
<defs>
<clipPath id="clip0_1763_9079">
<rect width="42" height="10" fill="white" transform="translate(9 25)"/>
</clipPath>
</defs>
</svg>
