<svg width="60" height="60" viewBox="0 0 60 60" fill="none" xmlns="http://www.w3.org/2000/svg">
<rect width="60" height="60" fill="#0B0134"/>
<g clip-path="url(#clip0_1772_9388)">
<path fill-rule="evenodd" clip-rule="evenodd" d="M22.2585 27.486H24.6554V35.791H22.2585V27.486ZM23.4543 26.8561C22.6867 26.8561 22.0653 26.2181 22.0653 25.4281C22.0653 24.638 22.6867 23.9973 23.4543 23.9973C24.2245 23.9973 24.846 24.638 24.846 25.4281C24.846 26.2181 24.2245 26.8561 23.4543 26.8561ZM20.7859 27.372C20.9608 27.372 21.154 27.4046 21.201 27.4208V29.9294C21.0888 29.8969 20.8355 29.8616 20.5953 29.8616C19.2846 29.8616 18.5483 30.8579 18.5483 32.5032V35.791H16.1514V27.486H18.4856V28.7973C18.9817 27.7195 19.8277 27.372 20.7859 27.372ZM12.3969 27.486H14.9869V29.6118H12.3969V31.7539C12.3969 33.0163 13.0209 33.7303 14.2846 33.7303C14.5535 33.7303 14.7781 33.7141 14.9869 33.6788V35.8398C14.7154 35.8887 14.3316 35.9213 13.9164 35.9213C11.1984 35.9213 10 34.2951 10 32.0036V24.7466H12.3969V27.486ZM47.4256 28.6806H44.5666V32.3349C44.5666 33.8444 45.2533 34.7267 46.8198 34.7267C47.0287 34.7267 47.2663 34.7104 47.4256 34.6751V35.8534C47.2037 35.905 46.9321 35.9213 46.6919 35.9213C44.5039 35.9213 43.2872 34.6589 43.2872 32.5168V24.7466H44.5666V27.4833H47.4256V28.6806ZM30.1358 27.2851C32.1828 27.2851 33.4778 28.781 33.4778 30.8227V35.7883H32.1984V31.1213C32.1984 29.5276 31.3655 28.515 29.9295 28.515C28.4909 28.515 27.4674 29.5928 27.4674 31.3548V35.7883H26.188V27.4833H27.4674V28.6806C27.9295 27.8335 28.953 27.2851 30.1358 27.2851ZM42.3133 31.4525C42.3133 31.5693 42.3133 31.9168 42.2976 32.0987H35.7154C35.8695 33.7276 37.0104 34.7892 38.5248 34.7892C39.7389 34.7892 40.5065 34.2245 41.0026 33.2607L42.0418 33.8417C41.3864 35.2208 40.154 35.9837 38.5405 35.9837C35.953 35.9837 34.4334 34.1403 34.4334 31.6344C34.4334 29.1258 36.1123 27.2824 38.4125 27.2824C40.7154 27.2824 42.3133 29.0932 42.3133 31.4498V31.4525ZM40.9843 30.9557C40.8721 29.5276 39.9608 28.4797 38.4125 28.4797C36.9713 28.4797 35.9217 29.5711 35.7285 30.9557H40.9843Z" fill="white"/>
<path d="M46.0054 24.7466V25.9764H48.7861V28.6832H50.0001V24.7466H46.0054Z" fill="#E14700"/>
</g>
<defs>
<clipPath id="clip0_1772_9388">
<rect width="40" height="13" fill="white" transform="translate(10 23)"/>
</clipPath>
</defs>
</svg>
