<svg width="60" height="60" viewBox="0 0 60 60" fill="none" xmlns="http://www.w3.org/2000/svg">
<rect width="60" height="60" fill="black"/>
<g clip-path="url(#clip0_1772_9389)">
<path d="M46.7985 33.908H50.1002V34.9441H45.6318V30.7833H50.0011V31.8195H46.7909V32.3699H49.4139V33.3089H46.7909V33.908H46.7985ZM42.6808 32.1999C42.6808 31.9571 42.536 31.8195 42.1776 31.8195H40.2026V32.5804H42.1776C42.536 32.5804 42.6808 32.4428 42.6808 32.1999ZM41.8878 33.5842H40.195V34.936H39.036V30.7833H42.1242C43.3061 30.7833 43.8856 31.3986 43.8856 32.1838C43.8856 32.7423 43.5654 33.1632 42.9935 33.3737L44.1754 34.9441H42.8791L41.8878 33.5842ZM36.1155 33.0742V30.7833H37.2745V33.1228C37.2745 34.3937 36.4739 35.0413 34.8497 35.0413C33.2255 35.0413 32.4248 34.3937 32.4248 33.1228V30.7833H33.5839V33.0742C33.5839 33.6975 33.9423 33.9646 34.8497 33.9646C35.7495 33.9565 36.1155 33.6894 36.1155 33.0742ZM30.1373 32.0866C29.2451 31.7628 28.7647 31.6738 28.1776 31.6738C27.4379 31.6738 27.2778 31.8033 27.2778 31.9814C27.2778 32.1109 27.3693 32.1838 27.6743 32.2161L29.3671 32.3699C30.5338 32.4752 30.9455 32.9771 30.9455 33.657C30.9455 34.4584 30.1296 35.0493 28.475 35.0493C27.7201 35.0493 26.7211 34.8794 25.8366 34.5718L26.4466 33.5599C27.3159 33.8999 28.1547 34.0537 28.7647 34.0537C29.5654 34.0537 29.7408 33.9242 29.7408 33.7542C29.7408 33.6246 29.6492 33.5194 29.3061 33.487L27.659 33.3251C26.5381 33.2199 26.1187 32.7666 26.1187 32.0947C26.1187 31.3824 26.7516 30.7024 28.4063 30.7024C29.1231 30.7024 29.8856 30.8481 30.7015 31.1719L30.1373 32.0866ZM24.1819 34.9441H23.0229V30.7833H24.1819V34.9441ZM17.9445 33.908H21.2462V34.9441H16.7778V30.7833H21.1547V31.8195H17.9445V32.3699H20.5675V33.3089H17.9445V33.908ZM15.2527 34.9441H10.8301V30.7833H11.9891V33.908H15.2451V34.9441H15.2527Z" fill="white"/>
<path d="M46.4629 26.6227H47.7744V25.4084H48.7047V26.6227H50.0163V27.5617H48.7047V28.7759H47.7744V27.5617H46.4629V26.6227Z" fill="white"/>
<path d="M45.4792 29.2697H41.0566V25.1089H42.2156V28.2335H45.4792V29.2697ZM35.9858 28.2335H39.2875V29.2697H34.8191V25.1089H39.1884V26.145H35.9781V26.6955H38.6012V27.6345H35.9781V28.2335H35.9858ZM31.4487 29.2697H30.4041L28.0402 25.1089H29.3518L30.9455 27.9583L32.5392 25.1089H33.8126L31.4487 29.2697ZM26.1949 27.5778L25.501 26.2988L24.8071 27.5778H26.1949ZM26.7363 28.5654H24.2657L23.8768 29.2697H22.6263L24.9901 25.1089H26.0348L28.4063 29.2697H27.1176L26.7363 28.5654ZM20.4302 26.5255C20.4302 26.2826 20.2853 26.145 19.9269 26.145H17.952V26.906H19.9269C20.2777 26.906 20.4302 26.7683 20.4302 26.5255ZM19.6372 27.9097H17.9444V29.2697H16.7853V25.1089H19.8736C21.0555 25.1089 21.635 25.7241 21.635 26.5093C21.635 27.0679 21.3147 27.4888 20.7352 27.6993L21.9171 29.2697H20.6208L19.6372 27.9097ZM9.89209 25.1089H15.2527V26.145H13.1557V29.2697H11.989V26.145H9.89209V25.1089Z" fill="white"/>
</g>
<defs>
<clipPath id="clip0_1772_9389">
<rect width="42" height="11" fill="white" transform="translate(9 25)"/>
</clipPath>
</defs>
</svg>
