<svg width="60" height="60" viewBox="0 0 60 60" fill="none" xmlns="http://www.w3.org/2000/svg">
<rect width="60" height="60" fill="black"/>
<path fill-rule="evenodd" clip-rule="evenodd" d="M30.1308 27.8963C29.3511 27.9994 28.3396 28.2488 27.561 28.663C24.99 29.9906 23.9376 32.1265 23.7063 34.491C23.6002 35.5906 23.8955 37.1043 25.012 37.9965C26.2548 38.9907 28.9509 38.9711 30.215 38.5973C32.6793 37.8301 34.5127 35.901 35.2491 33.3505C35.5865 32.1265 35.376 30.2608 34.5121 29.2856C33.29 27.8963 31.1839 27.7506 30.1308 27.8963ZM26.5501 35.8596C26.4445 34.5739 27.3292 30.3846 29.4567 29.4924C30.1101 29.2021 31.0997 29.0782 31.7745 29.5552C32.6165 30.156 32.6384 31.1098 32.6164 31.5044C32.5121 32.915 31.7531 36.109 29.8782 37.2495C29.3102 37.5812 28.0876 37.727 27.5189 37.4366C26.8869 37.1043 26.6129 36.5646 26.5501 35.8596Z" fill="white"/>
<path fill-rule="evenodd" clip-rule="evenodd" d="M41.9678 24.1721L40.9995 24.1744L37.4691 25.6948L37.2752 26.531C38.7066 26.5276 38.7078 26.5478 38.4427 27.6614L36.4979 36.6862C36.3247 37.5224 36.2856 37.5823 34.9047 37.765L34.7131 38.6404L40.2061 38.6264L40.3983 37.7505C39.1045 37.5554 39.0819 37.5151 39.29 36.5399L41.9678 24.1721Z" fill="white"/>
<path fill-rule="evenodd" clip-rule="evenodd" d="M20.6676 25.5497L17.975 35.5457C17.49 37.3363 17.1538 37.496 15.4491 37.635L15.1971 38.6102H22.3521L22.6041 37.635C20.9842 37.4966 20.626 37.8144 21.2148 35.5272C21.2148 35.5272 23.691 26.243 23.7348 26.0255C26.8252 26.5243 28.7873 25.488 30.4256 24.2484C30.776 23.9838 30.7831 23.4509 30.4072 23.4223C29.672 23.3662 30.0271 24.1525 29.8083 24.2035C26.5644 24.9685 24.0183 23.7137 21.1425 23.0372L20.0811 22.7935C17.9139 22.2263 14.1233 21.7169 12.0023 22.8103C10.329 23.661 9.59793 25.2807 9.50365 26.2536C9.43309 27.1851 9.71593 28.6231 11.1532 29.5339C12.2383 30.203 13.2398 30.2428 14.5881 30.0837C15.3483 29.9934 15.9371 29.5372 16.2507 29.0065C16.476 28.6231 16.7358 27.9226 16.1707 27.4165C15.7936 27.0528 15.3453 26.9906 14.9688 27.0315C14.1665 27.1537 13.892 27.7707 13.544 28.3334C13.0844 28.7128 12.2816 28.7156 11.8339 28.5127C10.9107 28.0947 10.8129 27.1699 10.7417 26.5826C10.6468 25.8529 11.1307 24.8772 11.9323 24.4512C13.7461 23.499 18.2632 24.7802 20.6676 25.5497Z" fill="white"/>
<path fill-rule="evenodd" clip-rule="evenodd" d="M48.5916 24.157L47.6227 24.1592L44.0935 25.6797L43.9008 26.5159C45.3316 26.5119 45.3322 26.5316 45.0665 27.6457L43.1223 36.671C42.9492 37.5067 42.91 37.5666 41.5297 37.7493L41.3381 38.6247L46.8305 38.6118L47.0221 37.7359C45.7295 37.5403 45.7069 37.5005 45.915 36.5253L48.5916 24.157Z" fill="white"/>
</svg>
