<svg width="60" height="60" viewBox="0 0 60 60" fill="none" xmlns="http://www.w3.org/2000/svg">
<rect width="60" height="60" fill="#FEDC02"/>
<g clip-path="url(#clip0_168_424)">
<path d="M11.48 31.2841C11.1002 31.2976 11.0068 30.9812 11.0068 30.3455V27.6854H12.7858V26.7813H11.0068L10.9819 24.9729H9.68326L9.22785 26.7813H8.33838V27.6854H9.22785V30.6837C9.22785 31.6964 9.69127 32.3709 10.981 32.3709C11.6606 32.3709 12.2823 31.9911 12.679 31.5309L12.4166 30.9477C12.1195 31.2153 11.8474 31.2976 11.4889 31.2976L11.48 31.2841ZM39.0857 31.2976C38.6979 31.2976 38.5787 30.9812 38.5787 30.3455V27.6854H40.3595V26.7813H38.5787V24.9729H37.2819L36.8016 26.7813H35.9121V27.6854H36.8016V30.6837C36.8016 31.6964 37.289 32.3709 38.5787 32.3709C39.2574 32.3709 39.88 31.9911 40.2759 31.5309L40.0135 30.9477C39.7173 31.2153 39.4442 31.2976 39.0857 31.2976ZM49.9569 26.0923C49.4241 26.0923 48.9909 26.5019 48.9909 27.0127C48.9909 27.4223 49.2862 27.7505 49.6705 27.7505C49.8423 27.7504 50.0077 27.6845 50.1339 27.5661C50.1828 28.435 49.7203 29.7135 48.5275 31.0571L47.759 26.7776H45.6999V27.4015C46.1624 27.4937 46.2691 27.586 46.4168 28.3129L47.1951 32.1828C46.0228 33.0119 45.4313 33.6367 45.4313 34.2787C45.4313 34.6991 45.6572 35.0364 46.0717 35.0364C46.7219 35.0364 47.3143 34.3212 47.767 32.6412C50.0628 30.7271 51.0296 28.9667 51.0296 27.4711C51.0278 26.6248 50.6249 26.0923 49.9569 26.0923ZM18.1226 30.8166V28.5227C18.1226 27.3654 17.1468 26.557 15.7228 26.557C14.4927 26.557 13.524 27.0281 13.524 27.9088C13.524 28.3392 13.8051 28.6665 14.2223 28.6665C14.3177 28.6687 14.4126 28.6512 14.5011 28.6148C14.5896 28.5785 14.6699 28.5242 14.737 28.4552C14.8042 28.3862 14.8567 28.304 14.8915 28.2136C14.9262 28.1232 14.9425 28.0265 14.9392 27.9296C14.9392 27.6936 14.8618 27.52 14.7355 27.4069C14.9164 27.3441 15.1065 27.3129 15.2976 27.3147C16.0234 27.3147 16.3437 27.7352 16.3437 28.4395V29.0435C14.1351 28.8898 13.2038 29.5969 13.2038 30.7632C13.2038 31.6837 13.8442 32.3609 14.9187 32.3609C15.5778 32.3609 16.1586 32.0644 16.4886 31.5942L16.7697 32.2063H18.5415V31.6358C18.152 31.5942 18.1235 31.4097 18.1235 30.8166H18.1226ZM16.3437 30.6737C16.3437 31.0526 15.9968 31.37 15.5609 31.37C15.0664 31.37 14.8049 31.0625 14.8049 30.6032C14.8049 29.9685 15.1331 29.6104 16.3437 29.6918V30.6737Z" fill="black"/>
<path d="M22.3778 26.691C21.6289 26.7046 21.1583 27.0328 20.791 27.7109V26.7814H18.5602V27.4144C19.0449 27.4858 19.012 27.6494 19.012 28.2462V34.1487L18.5015 34.3232V34.919H21.6386V34.3232L20.791 34.1387V32.1667C21.1023 32.3512 21.4937 32.4741 22.0184 32.4741C23.5421 32.4741 24.678 31.2716 24.678 29.4343C24.6798 27.6983 23.7262 26.7037 22.3867 26.7037L22.3778 26.691ZM21.668 31.6016C21.3475 31.6074 21.0358 31.4946 20.791 31.2842V29.3131C20.791 28.3267 21.2019 27.7308 21.9206 27.7308C22.6099 27.7308 23.028 28.3873 23.028 29.4967C23.028 30.8629 22.4934 31.6034 21.6671 31.6034L21.668 31.6016ZM44.6627 26.6793C44.0899 26.6793 43.5473 27.116 43.2644 27.8809V26.7778H41.0505V27.3836C41.5362 27.4532 41.7016 27.6124 41.7016 28.1883V31.4651L40.9927 31.6332V32.2101H44.2927V31.6342L43.4388 31.4551V29.1513C43.4388 28.4858 43.6914 27.9994 44.0792 27.7815C44.1146 27.9373 44.2012 28.0763 44.3248 28.1754C44.4483 28.2745 44.6014 28.3279 44.7588 28.3267C45.2053 28.3267 45.5166 27.9596 45.5166 27.522C45.5166 27.0852 45.2257 26.6793 44.6627 26.6793ZM34.0486 28.5835C33.2321 28.4099 32.7873 28.493 32.7873 27.9921C32.7873 27.6232 33.0693 27.3375 33.5932 27.3375C34.2638 27.3375 34.6606 27.6341 34.8367 28.248H35.3801V26.8863C34.9141 26.6919 34.2434 26.559 33.6341 26.559C32.2065 26.559 31.3908 27.2453 31.3908 28.4126C31.3908 29.7417 32.3328 30.0139 33.168 30.1884C33.9837 30.362 34.4293 30.3566 34.4293 30.8575C34.4293 31.3077 34.0602 31.5844 33.4482 31.5844C32.613 31.5844 32.2358 31.145 32.0019 30.3981H31.4682V31.872C31.8071 32.0862 32.4867 32.3629 33.4073 32.3629C34.9229 32.3629 35.8267 31.6559 35.8267 30.4379C35.8267 29.107 34.8856 28.7562 34.0486 28.5835ZM28.1425 26.5581C26.4338 26.5581 25.2383 27.776 25.2383 29.5166C25.2383 31.1757 26.4329 32.3629 28.1425 32.3629C29.2694 32.3629 29.997 31.8204 30.4542 31.0844L30.0753 30.7056C29.6573 31.136 29.1823 31.3502 28.7055 31.3502C27.736 31.3502 27.1427 30.6793 27.0458 29.494H30.4934C30.7255 28.1802 30.1047 26.5581 28.1425 26.5581ZM27.0351 28.5898C27.1027 27.7643 27.5599 27.3583 28.074 27.3583C28.6175 27.3583 28.9768 27.7643 28.9768 28.5898H27.0351Z" fill="black"/>
</g>
<defs>
<clipPath id="clip0_168_424">
<rect width="44" height="12" fill="white" transform="translate(8 24)"/>
</clipPath>
</defs>
</svg>
