<svg width="60" height="60" viewBox="0 0 60 60" fill="none" xmlns="http://www.w3.org/2000/svg">
<rect width="60" height="60" fill="#0099FA"/>
<path d="M19.6041 9.75323V16.0781H26.0448V32.5851H32.2438V15.9792V9.75323H19.6041Z" fill="white"/>
<path d="M16.2016 31.1169C16.2016 26.1931 18.9258 21.9085 22.9431 19.7026L13.7446 19.7019C11.3921 22.8941 10 26.8406 10 31.1169C10 39.6016 15.4727 46.8007 23.0646 49.3532V42.5956C18.9813 40.4081 16.2016 36.0899 16.2016 31.1169Z" fill="white"/>
<path d="M35.3468 12.9249V19.7012C39.3649 21.9084 42.0924 26.1922 42.0924 31.1178C42.0924 38.2959 36.2943 44.1177 29.1451 44.1177C28.0788 44.1177 27.0428 43.9873 26.0516 43.7436V50.0947C27.0594 50.2578 28.0915 50.3457 29.1451 50.3457C39.7183 50.3457 48.2907 41.7368 48.2907 31.118C48.2905 22.6773 42.8762 15.5129 35.3468 12.9249Z" fill="white"/>
</svg>
