<svg width="60" height="60" viewBox="0 0 60 60" fill="none" xmlns="http://www.w3.org/2000/svg">
<rect width="60" height="60" fill="#F22F46"/>
<g clip-path="url(#clip0_168_367)">
<path d="M29.16 24.82C29.16 27.2 27.2 29.16 24.82 29.16C22.44 29.16 20.48 27.2 20.48 24.82C20.48 22.44 22.44 20.48 24.82 20.48C27.2 20.48 29.16 22.44 29.16 24.82ZM24.82 30.84C22.44 30.84 20.48 32.8 20.48 35.18C20.48 37.56 22.44 39.52 24.82 39.52C27.2 39.52 29.16 37.56 29.16 35.18C29.16 32.8 27.2 30.84 24.82 30.84ZM51 30C51 41.62 41.62 51 30 51C18.38 51 9 41.62 9 30C9 18.38 18.38 9 30 9C41.62 9 51 18.38 51 30ZM45.4 30C45.4 21.46 38.54 14.6 30 14.6C21.46 14.6 14.6 21.46 14.6 30C14.6 38.54 21.46 45.4 30 45.4C38.54 45.4 45.4 38.54 45.4 30ZM35.18 30.84C32.8 30.84 30.84 32.8 30.84 35.18C30.84 37.56 32.8 39.52 35.18 39.52C37.56 39.52 39.52 37.56 39.52 35.18C39.52 32.8 37.56 30.84 35.18 30.84ZM35.18 20.48C32.8 20.48 30.84 22.44 30.84 24.82C30.84 27.2 32.8 29.16 35.18 29.16C37.56 29.16 39.52 27.2 39.52 24.82C39.52 22.44 37.56 20.48 35.18 20.48Z" fill="white"/>
</g>
<defs>
<clipPath id="clip0_168_367">
<rect width="42" height="42" fill="white" transform="translate(9 9)"/>
</clipPath>
</defs>
</svg>
