<svg width="60" height="60" viewBox="0 0 60 60" fill="none" xmlns="http://www.w3.org/2000/svg">
<rect width="60" height="60" fill="#110B09"/>
<g clip-path="url(#clip0_168_327)">
<path d="M43.4782 42.2565L36.0327 29.7327L43.4782 17.209L47.0674 29.7327L43.4782 42.2565ZM26.9074 41.0344L17.5526 31.7562H32.4435L39.889 44.28L26.9074 41.0344ZM26.9074 18.3927L39.851 15.1471L32.4056 27.6709H17.5147L26.9074 18.3927ZM45.922 9L29.0071 13.391L26.4871 17.7055L21.4092 17.6671L9 29.7327L21.4092 41.7983L26.4871 41.76L29.0071 46.0744L45.922 50.5038L50.4655 34.0471L47.9071 29.771L50.4655 25.4945L45.922 9Z" fill="white"/>
</g>
<defs>
<clipPath id="clip0_168_327">
<rect width="42" height="42" fill="white" transform="translate(9 9)"/>
</clipPath>
</defs>
</svg>
