<svg width="60" height="60" viewBox="0 0 60 60" fill="none" xmlns="http://www.w3.org/2000/svg">
<rect width="60" height="60" fill="#010202"/>
<g clip-path="url(#clip0_1763_9101)">
<path d="M12.3013 32.9986C12.4704 33.4509 12.7044 33.8376 13.0035 34.1587C13.3025 34.4799 13.6568 34.7257 14.0663 34.8961C14.4759 35.0665 14.9212 35.1517 15.4023 35.1517C15.8704 35.1517 16.3092 35.0632 16.7188 34.8862C17.1284 34.7092 17.4859 34.4602 17.7914 34.1391C18.097 33.8179 18.3343 33.4345 18.5033 32.9888C18.6723 32.5431 18.7568 32.045 18.7568 31.4944V23H20.8046V36.7641H18.7763V35.486C18.3213 35.9709 17.7849 36.3445 17.1673 36.6068C16.5497 36.8689 15.8834 37 15.1683 37C14.4401 37 13.7608 36.8722 13.1302 36.6166C12.4996 36.3609 11.9535 35.9972 11.492 35.5253C11.0304 35.0533 10.6663 34.4865 10.3998 33.8245C10.1333 33.1625 10 32.4251 10 31.6124V23H12.0478V31.4944C12.0478 32.045 12.1323 32.5464 12.3013 32.9986Z" fill="white"/>
<path d="M24.3345 23V28.014C24.7895 27.5552 25.3161 27.1915 25.9142 26.9228C26.5123 26.654 27.1624 26.5197 27.8645 26.5197C28.5926 26.5197 29.2752 26.6573 29.9123 26.9325C30.5494 27.2078 31.1019 27.5814 31.57 28.0534C32.0381 28.5253 32.4087 29.0824 32.6817 29.7247C32.9548 30.3671 33.0913 31.0487 33.0913 31.7697C33.0913 32.4906 32.9548 33.169 32.6817 33.8047C32.4087 34.4405 32.0381 34.9944 31.57 35.4662C31.1019 35.9382 30.5494 36.3118 29.9123 36.5871C29.2752 36.8623 28.5926 37 27.8645 37C27.1624 37 26.5091 36.8656 25.9045 36.5969C25.2999 36.3281 24.77 35.9644 24.315 35.5056V36.764H22.3647V23H24.3345ZM24.5587 33.1264C24.7342 33.5459 24.9781 33.9129 25.2901 34.2276C25.6022 34.5422 25.9662 34.7913 26.3823 34.9748C26.7984 35.1583 27.2469 35.25 27.728 35.25C28.1961 35.25 28.6381 35.1583 29.0542 34.9748C29.4702 34.7913 29.831 34.5422 30.1366 34.2276C30.4421 33.913 30.6859 33.5459 30.8679 33.1264C31.05 32.7069 31.141 32.2547 31.141 31.7697C31.141 31.2847 31.05 30.8291 30.8679 30.4031C30.6859 29.977 30.4421 29.6067 30.1366 29.2921C29.831 28.9776 29.4703 28.7318 29.0542 28.5548C28.6381 28.3779 28.196 28.2893 27.728 28.2893C27.2599 28.2893 26.8179 28.3778 26.4018 28.5548C25.9858 28.7318 25.6217 28.9776 25.3096 29.2921C24.9976 29.6067 24.7506 29.977 24.5685 30.4031C24.3865 30.8291 24.2955 31.2847 24.2955 31.7697C24.2955 32.2547 24.3832 32.7069 24.5587 33.1264Z" fill="white"/>
<path d="M34.2027 29.7444C34.4627 29.1152 34.8204 28.5614 35.2754 28.0829C35.7304 27.6044 36.27 27.2276 36.8941 26.9523C37.5182 26.677 38.1943 26.5394 38.9224 26.5394C39.6375 26.5394 40.3007 26.6705 40.9118 26.9326C41.5228 27.1948 42.0494 27.5586 42.4915 28.024C42.9335 28.4893 43.2781 29.0399 43.5251 29.6756C43.7722 30.3114 43.8957 31.0029 43.8957 31.7501V32.399H35.802C35.867 32.8054 35.997 33.1822 36.1921 33.5296C36.3871 33.8769 36.6309 34.1784 36.9234 34.434C37.2159 34.6897 37.5475 34.8896 37.9181 35.0338C38.2886 35.178 38.6819 35.2501 39.098 35.2501C40.2812 35.2501 41.2368 34.7585 41.9649 33.7753L43.3886 34.8371C42.8946 35.5057 42.2835 36.03 41.5554 36.4102C40.8273 36.7903 40.0082 36.9804 39.098 36.9804C38.3569 36.9804 37.6646 36.8492 37.021 36.5871C36.3774 36.325 35.8183 35.9579 35.3437 35.486C34.8692 35.014 34.4954 34.4602 34.2223 33.8245C33.9493 33.1887 33.8127 32.4972 33.8127 31.75C33.8127 31.0422 33.9427 30.3736 34.2027 29.7444ZM36.9429 28.9677C36.3903 29.4331 36.023 30.0524 35.841 30.8259H41.9064C41.7374 30.0524 41.3766 29.4331 40.824 28.9677C40.2714 28.5024 39.6246 28.2697 38.8835 28.2697C38.1423 28.2697 37.4955 28.5024 36.9429 28.9677Z" fill="white"/>
<path d="M47.5817 29.1938C47.1656 29.6526 46.9576 30.2753 46.9576 31.0618V36.7641H44.9877V26.736H46.938V27.9747C47.1851 27.5684 47.5069 27.2472 47.9034 27.0113C48.3 26.7753 48.7713 26.6573 49.3174 26.6573H50V28.5056H49.1809C48.5308 28.5056 47.9977 28.735 47.5817 29.1938Z" fill="white"/>
</g>
<defs>
<clipPath id="clip0_1763_9101">
<rect width="40" height="14" fill="white" transform="translate(10 23)"/>
</clipPath>
</defs>
</svg>
