<svg width="60" height="60" viewBox="0 0 60 60" fill="none" xmlns="http://www.w3.org/2000/svg">
<rect width="60" height="60" fill="black"/>
<g clip-path="url(#clip0_315_381)">
<path d="M41.6094 20.9957L40.8913 21.6271L41.6992 24.2427L39.3654 22.98L38.5575 23.6113L41.1606 25.0544L38.378 27.3092L37.6598 26.3171L38.6472 25.5054L37.9291 24.6034L36.9417 25.4152L36.1339 24.3329L37.1213 23.5211L36.4031 22.529L31.3764 26.7681L36.2236 30.6464L37.1213 29.5641C37.7496 29.5641 38.1984 30.1052 38.4677 30.6464L37.5701 31.7287L38.1087 32.1797C39.2756 31.0974 40.8913 30.3758 42.5071 30.3758C45.9181 30.3758 48.5213 33.1718 48.5213 36.5991C48.5213 37.6815 48.252 38.9442 47.6236 39.9363L48.5213 40.6578C48.5213 41.2892 47.8929 42.0107 47.2646 42.1911L46.3669 41.4696C45.2 42.6421 43.5843 43.2734 41.9685 43.2734C38.5575 43.2734 35.9543 40.5676 35.9543 37.1403C35.9543 36.058 36.3134 34.8855 36.7622 33.8933L36.1339 33.4424L35.2362 34.6149C34.6079 34.5247 34.0693 34.0737 33.8898 33.4424L34.7874 32.4502L30.748 29.0229V34.4345H32.0945C32.274 34.7051 32.3638 34.9757 32.3638 35.2462C32.3638 35.5168 32.274 35.8776 32.0945 36.1482H30.748V36.7795C33.7102 37.3207 36.2236 39.8461 36.2236 42.9127C36.2236 46.0694 33.8 48.5948 30.748 49.136V50.2183C30.4787 50.3987 30.1197 50.4889 29.7606 50.4889C29.4016 50.4889 28.9528 50.3987 28.6835 50.2183V49.136C25.6315 48.685 23.2976 46.0694 23.2976 42.9127C23.2976 39.8461 25.6315 37.3207 28.6835 36.8697V36.1482H27.2472C27.0677 35.8776 26.978 35.607 26.978 35.2462C26.978 34.8855 27.0677 34.6149 27.2472 34.3443H28.6835V28.9327L24.5543 32.3601L25.452 33.3522C25.2724 33.9835 24.7339 34.4345 24.1055 34.5247L23.2079 33.3522L22.6693 33.8933C23.2079 34.8855 23.5669 35.9678 23.5669 37.1403C23.5669 40.5676 20.874 43.2734 17.5528 43.2734C15.937 43.2734 14.3213 42.6421 13.1543 41.4696L12.2567 42.1911C11.7181 42.0107 11.0898 41.2892 11 40.6578L11.8976 39.9363C11.3591 38.9442 11 37.7717 11 36.5991C11 33.1718 13.6031 30.3758 17.0142 30.3758C18.6299 30.3758 20.2457 31.0974 21.4126 32.1797L21.9512 31.8189L21.0535 30.7366C21.2331 30.1954 21.7717 29.7445 22.4 29.6543L23.2976 30.7366L28.1449 26.8583L23.1181 22.6192L22.4 23.6113L23.3874 24.423L22.6693 25.4152L21.6819 24.6034L20.9638 25.5054L21.7717 26.1367L21.0535 27.1288L18.3606 24.874L20.874 23.4309L20.1559 22.7996L17.822 24.0623L18.5402 21.6271L17.822 20.9957L16.9244 23.7917L14.1417 21.5369L14.8598 20.6349L15.8472 21.4467L16.6551 20.5447L15.6677 19.6428L16.3858 18.7409L17.3732 19.4624L18.0913 18.5605L15.937 16.937C16.1165 16.2155 16.5654 15.6743 17.2835 15.2233L28.6835 24.6034V18.3801H27.5165V19.5526H26.3496V18.3801H25.1827V19.5526H24.0157V16.0351L26.7087 17.2076V16.2155L24.1953 15.1331L26.7087 14.141V13.2391L24.0157 14.3214V10.7137H25.1827V11.9764H26.3496V10.7137H27.5165V11.9764H28.6835V9.18039C29.0425 9.09019 29.4016 9 29.7606 9C30.1197 9 30.4787 9.09019 30.748 9.18039V24.6034L42.148 15.2233C42.7764 15.6743 43.2252 16.2155 43.4945 16.937L41.3402 18.6507L42.0583 19.5526L43.0457 18.8311L43.7638 19.733L42.7764 20.6349L43.4945 21.5369L44.4819 20.7251L45.2 21.6271L42.4173 23.8819L41.6094 20.9957ZM18.3606 37.952C18.3606 38.9442 19.0787 39.5755 19.9764 39.6657L18.5402 40.748C17.5528 40.3873 16.6551 39.2147 16.6551 38.1324C16.6551 37.7717 16.7449 37.5913 16.8346 37.3207H16.5654C15.2189 37.3207 14.1417 36.058 13.8724 34.7953L15.3984 33.6228V34.0737C15.3984 34.8855 16.2063 35.607 17.0142 35.607C17.9118 35.607 18.7197 34.8855 18.7197 33.9835C18.7197 32.9012 17.9118 32.1797 16.8346 32.1797C14.8598 32.1797 12.885 34.1639 12.885 36.6893C12.885 37.4109 13.0646 38.1324 13.3339 38.7638L14.2315 38.0422C14.8598 38.3128 15.3087 38.9442 15.4882 39.6657L14.5906 40.3873C15.4882 41.1088 16.5654 41.4696 17.6425 41.4696C19.9764 41.4696 21.7717 39.5755 21.7717 37.952C21.7717 36.9599 21.1433 36.1482 20.1559 36.1482C19.0787 36.3286 18.3606 37.0501 18.3606 37.952ZM30.5685 41.5598C30.5685 42.4617 31.2866 43.1833 32.1843 43.1833C32.8126 43.1833 33.0819 42.9127 33.5307 42.5519V44.446C33.0819 44.7165 32.6331 44.8067 32.0945 44.8067C31.1071 44.8067 30.2992 44.5361 29.7606 43.6342C29.222 44.5361 28.3244 44.8067 27.337 44.8067C26.8882 44.8067 26.3496 44.7165 25.9008 44.446V42.5519C26.3496 43.0029 26.6189 43.1833 27.2472 43.1833C28.1449 43.1833 28.863 42.4617 28.863 41.5598C28.863 40.6578 28.3244 39.9363 27.337 39.9363C25.6315 39.9363 24.9134 41.5598 24.9134 43.0931C24.9134 45.2577 26.5291 47.1518 28.5937 47.5125V46.4302C28.9528 46.2498 29.3118 46.2498 29.5811 46.2498C29.9402 46.2498 30.2992 46.2498 30.6583 46.4302V47.5125C32.6331 47.2419 34.3386 45.1675 34.3386 43.0931C34.3386 41.5598 33.7102 39.9363 31.915 39.9363C31.1968 39.8461 30.5685 40.6578 30.5685 41.5598ZM40.8016 34.0737C40.8016 34.8855 41.6992 35.6972 42.5071 35.6972C43.315 35.6972 44.1228 34.9757 44.1228 34.1639V33.713L45.5591 34.8855C45.2898 36.3286 44.0331 37.5011 42.5969 37.4109C42.6866 37.6815 42.6866 37.952 42.6866 38.2226C42.6866 39.3049 41.789 40.4774 40.8016 40.8382L39.4551 39.6657C40.3528 39.5755 41.0709 38.9442 41.0709 37.952C41.0709 36.9599 40.263 36.3286 39.3654 36.3286C38.378 36.3286 37.7496 37.1403 37.7496 38.1324C37.7496 39.3049 39.1858 41.65 41.9685 41.65C43.0457 41.65 44.1228 41.2892 44.9307 40.5676L44.0331 39.8461C44.2126 39.1246 44.6614 38.4932 45.2898 38.2226L46.1874 38.9442C46.5465 38.3128 46.726 37.5913 46.726 36.8697C46.726 34.8855 45.2 32.3601 42.7764 32.3601C41.6992 32.3601 40.8016 32.9914 40.8016 34.0737Z" fill="white"/>
</g>
<defs>
<clipPath id="clip0_315_381">
<rect width="38" height="42" fill="white" transform="translate(11 9)"/>
</clipPath>
</defs>
</svg>
