<svg width="60" height="60" viewBox="0 0 60 60" fill="none" xmlns="http://www.w3.org/2000/svg">
<rect width="60" height="60" fill="#F37C36"/>
<g clip-path="url(#clip0_150_973)">
<path d="M23.7216 33.816C23.7301 33.4198 23.7216 33.1386 23.6986 32.8188C23.7814 32.8264 24.4746 32.8188 24.6889 32.8188C25.1431 32.8188 25.4531 32.9867 25.4531 33.3837C25.4531 33.7825 25.0706 33.9504 24.8375 33.9865V33.9932C25.068 34.0058 25.5171 34.1661 25.5171 34.6068C25.5171 35.1281 25.0859 35.3371 24.636 35.3371C24.4362 35.3371 23.7814 35.3295 23.6986 35.3371C23.7207 35.0156 23.7301 34.7344 23.7301 34.3273V33.8295L23.7216 33.816ZM24.4883 33.0261C24.4263 33.024 24.3643 33.0276 24.303 33.0371C24.2962 33.2175 24.2885 33.4198 24.2885 33.5449C24.2885 33.6767 24.2928 33.7925 24.2928 33.9176H24.4627C24.6778 33.9176 24.893 33.764 24.893 33.4543C24.893 33.2192 24.7871 33.0261 24.4883 33.0261ZM24.4541 34.1258C24.3867 34.1258 24.3372 34.1283 24.2928 34.1283C24.2928 34.2307 24.2885 34.3331 24.2885 34.4826C24.2885 34.7117 24.297 34.9946 24.297 35.123C24.3654 35.1247 24.4217 35.1289 24.5045 35.1289C24.7265 35.1289 24.9195 34.9518 24.9195 34.6337C24.9195 34.2937 24.7572 34.1258 24.4541 34.1258ZM28.2424 33.8286C28.2424 33.4198 28.2347 33.1386 28.2125 32.8188C28.4345 32.8222 29.5734 32.828 29.675 32.8188C29.6665 32.8608 29.6665 33.0807 29.675 33.1361C29.3873 33.1176 28.91 33.1185 28.7982 33.1185C28.7794 33.3846 28.8016 33.6221 28.8016 33.8874C29.1303 33.8798 29.3728 33.874 29.6596 33.8589C29.6451 33.9428 29.6485 34.0964 29.6596 34.1728C29.3742 34.1507 29.0879 34.1395 28.8016 34.1392C28.8016 34.2937 28.7982 34.4507 28.7982 34.6068C28.7982 34.7612 28.799 34.888 28.8067 35.0332C29.0902 35.0332 29.3839 35.0492 29.675 35.0156C29.6665 35.0668 29.6665 35.2943 29.675 35.3371C29.1875 35.332 28.7 35.332 28.2125 35.3371C28.2347 35.0156 28.2424 34.7344 28.2424 34.3273V33.8286ZM35.1084 35.3371C34.8902 35.3298 34.6718 35.3298 34.4536 35.3371C34.374 35.0873 34.2872 34.8399 34.1932 34.595C34.031 34.5908 33.4487 34.5908 33.3155 34.595C33.213 34.8402 33.1294 35.0869 33.0594 35.3371C32.9371 35.3297 32.8145 35.3297 32.6922 35.3371C32.8767 34.935 33.4436 33.6448 33.7697 32.8188C33.8175 32.8255 34.0079 32.8255 34.0566 32.8188C34.3776 33.6448 34.8216 34.747 35.1084 35.3371ZM34.1061 34.3801C33.996 34.0863 33.8901 33.8001 33.7697 33.5181C33.6416 33.8001 33.5238 34.0863 33.4145 34.3801H34.1061ZM37.972 34.3944C37.972 34.0074 37.9805 33.8152 37.9805 33.555C37.9805 33.1772 37.972 32.9372 37.9652 32.8188C38.0676 32.828 38.1726 32.8364 38.2742 32.8364C38.3767 32.8364 38.4825 32.828 38.5833 32.8188C38.5363 33.2839 38.5321 33.6566 38.5321 34.0729C38.5321 34.9459 38.7959 35.0895 39.2877 35.0895C39.893 35.0895 39.934 34.47 39.934 33.8043C39.934 33.4744 39.9229 33.1487 39.9041 32.8188C39.9681 32.828 40.0322 32.8364 40.097 32.8364C40.1611 32.8364 40.2208 32.828 40.2857 32.8188C40.2635 33.0303 40.2362 33.5416 40.2362 34.1619C40.2362 34.9929 39.8537 35.3371 39.122 35.3371C38.4749 35.3371 37.972 35.0676 37.972 34.3944ZM43.8468 33.414C43.8468 33.2755 43.8511 33.1579 43.8391 33.1084C43.6914 33.1084 43.3696 33.1143 43.1433 33.1395C43.1546 33.0329 43.1546 32.9254 43.1433 32.8188C43.4865 32.8289 44.7655 32.8289 45.0865 32.8188C45.0748 32.9254 45.0748 33.0329 45.0865 33.1395C44.8606 33.1192 44.6338 33.1102 44.4069 33.1126C44.4009 33.1647 44.4069 33.2755 44.4069 33.4131V34.3273C44.4069 34.7344 44.4137 35.0156 44.4359 35.3371C44.2294 35.3297 44.0226 35.3297 43.8161 35.3371C43.8391 35.0156 43.846 34.7344 43.846 34.3273L43.8468 33.414ZM49.1906 33.9134C49.3955 33.6364 49.5945 33.1747 49.7609 32.8188C49.8181 32.8264 50.0512 32.8264 50.1161 32.8188C49.8414 33.29 49.5769 33.7669 49.323 34.2492C49.323 34.3667 49.3187 34.4549 49.3187 34.5741C49.3187 34.815 49.3221 35.0643 49.3571 35.3371C49.2512 35.3295 48.8192 35.3295 48.7142 35.3371C48.7253 35.1037 48.7595 34.8586 48.7595 34.632C48.7595 34.5195 48.7552 34.407 48.7518 34.2937C48.4914 33.8068 48.0602 33.0261 47.9433 32.8188C48.056 32.8264 48.5059 32.8264 48.6194 32.8188C48.7928 33.1789 49.0771 33.7464 49.1829 33.9134H49.1906ZM17.2585 26.8186C17.2585 29.1589 17.1928 29.6886 17.6427 30.2619C18.0927 30.8352 18.9302 31.1576 20.0162 31.1576C21.273 31.1576 22.2651 30.5414 22.6066 29.6441C22.7312 29.3201 22.8397 28.8634 22.8397 27.658V21.9062H23.6986V28.3933C23.6678 30.1284 23.3357 30.9242 22.312 31.5412C21.5829 31.9836 20.543 32.1741 19.7063 32.1741C17.8451 32.1741 15.5006 31.542 15.1608 29.2613V21.9062H17.256C17.256 21.9062 17.2585 25.18 17.2585 26.8186ZM26.2599 21.9062H28.443L28.3943 31.1148L32.2363 31.14V31.9794H26.2599V21.9062ZM36.5052 31.9794H34.3708V22.7457H31.3825V21.9062H39.9203V22.7457H36.5052V31.9794ZM44.9149 28.6217H41.2804L39.9109 31.9794H38.4817L43.075 21.9062H44.0774L48.4555 31.9794H46.2442L44.9149 28.6217ZM43.0614 24.4128L41.5263 27.7932H44.5392L43.0614 24.4128Z" fill="#FEFEFD"/>
<path d="M12.9896 22.4165C10.5956 24.0299 9.18434 26.0445 9.18434 28.5066C9.18434 34.0938 16.0461 38.2229 25.8296 38.2229C30.2146 38.2229 33.8773 37.1082 36.5914 35.7332L36.4224 35.7357C33.1473 36.7052 29.8346 37.104 26.4298 37.104C16.596 37.104 9.82382 32.566 9.81528 28.3714C9.81016 26.0453 10.9115 24.0374 12.9999 22.5693L12.9982 22.4291L12.9896 22.4165Z" fill="#FEFEFD"/>
</g>
<defs>
<clipPath id="clip0_150_973">
<rect width="42" height="18" fill="white" transform="translate(9 21)"/>
</clipPath>
</defs>
</svg>
