<svg width="60" height="60" viewBox="0 0 60 60" fill="none" xmlns="http://www.w3.org/2000/svg">
<rect width="60" height="60" fill="#F7B80A"/>
<g clip-path="url(#clip0_147_204)">
<path d="M39.8731 9.1395C36.9937 10.7205 33.7284 11.5574 30.416 11.5574C27.1037 11.5574 23.8384 10.7205 20.9589 9.1395L20.7048 9L13.1767 16.9327L13.4308 17.1745C14.9082 18.616 15.7269 20.5504 15.7269 22.5963C15.7269 24.6051 14.9552 26.4465 14.146 28.3901C13.1767 30.6965 12.1887 33.0772 12.1887 36.1462C12.1887 39.4383 13.6566 42.5537 16.2068 44.702C19.2462 47.2594 22.4268 47.464 24.9676 47.6314C27.273 47.7802 29.0986 47.9011 30.1055 49.603L30.416 50.1331L30.7265 49.603C31.7334 47.9011 33.559 47.7802 35.8644 47.6314C38.4146 47.464 41.5858 47.2594 44.6346 44.702C47.1848 42.5537 48.6528 39.4383 48.6528 36.1462C48.6528 33.0772 47.6553 30.6965 46.6955 28.3901C45.8768 26.4465 45.1146 24.6051 45.1146 22.5963C45.1146 20.5411 45.9332 18.616 47.4106 17.1745L47.6647 16.9327L40.1366 9L39.8731 9.1395Z" fill="#00339A"/>
<path d="M46.0932 29.0969C45.8956 28.6133 45.698 28.1483 45.5098 27.674H15.3222C15.134 28.1483 14.9364 28.6133 14.7388 29.0969C13.8542 31.2173 12.9979 33.4306 12.9979 36.1648C12.9979 38.6757 13.9013 40.9728 15.3975 42.7676C15.8021 43.2512 16.2444 43.6976 16.7337 44.1068C17.1948 44.4974 17.6747 44.8229 18.1452 45.1019C19.0674 45.6599 19.9708 46.0319 20.8836 46.2737C21.8152 46.5248 22.7185 46.655 23.6125 46.7387C23.9889 46.7759 24.3747 46.8038 24.7417 46.8224C25.2969 46.8596 25.8333 46.8968 26.3508 46.9433L26.5485 46.9619C27.1413 47.027 27.6965 47.1107 28.2046 47.2595C28.5152 47.3432 28.8069 47.4548 29.0892 47.5942C29.5973 47.8453 30.049 48.1801 30.4442 48.6544C30.83 48.1801 31.2911 47.8453 31.7993 47.5942C32.0816 47.4548 32.3733 47.3432 32.6838 47.2595C33.192 47.1107 33.7472 47.027 34.34 46.9619L34.5376 46.934C35.0458 46.8875 35.5916 46.8503 36.1467 46.8131C36.5137 46.7945 36.8996 46.7666 37.276 46.7294C38.1605 46.6457 39.0733 46.5155 39.9955 46.2644C40.8988 46.0133 41.8116 45.6506 42.7338 45.0926C43.1949 44.8136 43.6748 44.4788 44.1453 44.0882C44.6252 43.679 45.0769 43.2326 45.4816 42.749H45.4721C46.9683 40.9542 47.8717 38.6478 47.8717 36.1462C47.8341 33.4306 46.9778 31.2173 46.0932 29.0969Z" fill="white"/>
<path d="M15.3222 27.674C15.134 28.1483 14.9364 28.6133 14.7388 29.0969C13.8542 31.2173 12.9979 33.4306 12.9979 36.1648C12.9979 38.6757 13.9013 40.9728 15.4069 42.7769V27.674H15.3222Z" fill="#CD0000"/>
<path d="M18.1264 27.674V45.1019C19.0486 45.6599 19.952 46.0319 20.8648 46.2737V27.674H18.1264Z" fill="#CD0000"/>
<path d="M23.5843 27.674V46.748C23.9607 46.7852 24.3465 46.7945 24.7135 46.8224C25.2687 46.8596 25.8051 46.8968 26.3226 46.9433V27.674H23.5843Z" fill="#CD0000"/>
<path d="M29.061 27.674V47.5942C29.5691 47.8453 30.0208 48.1801 30.416 48.6544C30.8018 48.1801 31.2629 47.8453 31.7711 47.5942V27.674H29.061Z" fill="#CD0000"/>
<path d="M34.5 27.674V46.9433C35.0081 46.8968 35.5539 46.8596 36.1091 46.8224C36.4761 46.8038 36.8619 46.7852 37.2383 46.748V27.674H34.5Z" fill="#CD0000"/>
<path d="M39.9579 27.674V46.2737C40.8612 46.0226 41.774 45.6599 42.6962 45.1019V27.674H39.9579Z" fill="#CD0000"/>
<path d="M45.5004 27.674H45.4157V42.7676C46.9119 40.9728 47.8247 38.6664 47.8247 36.1555C47.8247 33.4306 46.9684 31.2173 46.0838 29.0876C45.8862 28.6133 45.698 28.139 45.5004 27.674Z" fill="#CD0000"/>
<path fill-rule="evenodd" clip-rule="evenodd" d="M27.6212 22.5219C27.6024 21.8802 28.0823 21.4339 28.6846 21.4246C28.9857 21.4153 29.3715 21.5734 29.7761 21.6756V20.4946C29.5785 20.3737 29.061 20.2249 28.7316 20.2249C27.5083 20.2249 26.4261 21.1456 26.4261 22.5126C26.4261 23.889 27.5083 24.8097 28.7316 24.8097C29.061 24.8097 29.5879 24.6609 29.7761 24.54V23.3589C29.3715 23.4612 28.9857 23.6193 28.6846 23.61C28.0823 23.5914 27.6024 23.1543 27.6212 22.5126V22.5219Z" fill="white"/>
<path d="M30.6983 14.5985H29.4185V18.895H30.6983V14.5985Z" fill="white"/>
<path d="M24.3465 18.895H25.5698V16.7281H25.5886L27.0566 18.895H28.4587V14.5985H27.1319V16.8676H27.1225L25.6451 14.5985H24.3465V18.895Z" fill="white"/>
<path d="M22.1163 14.5892H23.3773V16.9792C23.3773 17.5279 23.3584 18.0673 22.9162 18.4765C22.5492 18.8299 21.9752 18.9508 21.467 18.9508C20.9589 18.9508 20.3849 18.8299 20.0179 18.4765C19.585 18.0673 19.5568 17.5186 19.5568 16.9792V14.5892H20.8177V16.6724C20.8177 17.2303 20.733 17.8255 21.467 17.8255C22.201 17.8255 22.1163 17.221 22.1163 16.6724V14.5892Z" fill="white"/>
<path fill-rule="evenodd" clip-rule="evenodd" d="M32.618 16.756C32.618 16.1702 33.1073 15.6866 33.7095 15.6866C34.3118 15.6866 34.8011 16.1609 34.8011 16.756C34.8011 17.3419 34.3118 17.8162 33.7095 17.8162C33.1073 17.8162 32.618 17.3419 32.618 16.756ZM31.3947 16.756C31.3947 15.5099 32.4298 14.4962 33.7001 14.4962C34.9799 14.4962 36.0056 15.5099 36.0056 16.756C36.0056 18.0022 34.9705 19.0159 33.7001 19.0159C32.4298 19.0159 31.3947 18.0022 31.3947 16.756Z" fill="white"/>
<path d="M36.7584 18.895H37.9911V16.7281H38.0006L39.4779 18.895H40.8706V14.5985H39.5532V16.8676H39.5344L38.057 14.5985H36.7584V18.895Z" fill="white"/>
<path d="M38.1041 20.3086H36.8243V24.6144H38.1041V20.3086Z" fill="white"/>
<path d="M35.9492 21.2758V20.3086H32.9944V24.6144H34.2836V23.1171H35.9492V22.1034H34.2836V21.2758H35.9492Z" fill="white"/>
<path d="M32.0251 20.3086H30.7454V24.6144H32.0251V20.3086Z" fill="white"/>
<path fill-rule="evenodd" clip-rule="evenodd" d="M40.1555 22.5219C40.1366 21.8802 40.6166 21.4339 41.2188 21.4246C41.5199 21.4153 41.9057 21.5734 42.3104 21.6756V20.4946C42.1128 20.3737 41.5952 20.2249 41.2659 20.2249C40.0425 20.2249 38.9604 21.1456 38.9604 22.5126C38.9604 23.889 40.0425 24.8097 41.2659 24.8097C41.5952 24.8097 42.1222 24.6609 42.3104 24.54V23.3589C41.9057 23.4612 41.5199 23.6193 41.2188 23.61C40.6166 23.5914 40.1366 23.1543 40.1555 22.5126V22.5219Z" fill="white"/>
<path fill-rule="evenodd" clip-rule="evenodd" d="M24.4218 22.8939L23.9701 21.5176L23.509 22.8939H24.4218ZM23.1608 23.8704L22.8973 24.6144H21.6834L23.2549 20.3179H24.6947L26.2662 24.6144H25.0523L24.7888 23.8704H23.1608Z" fill="white"/>
<path fill-rule="evenodd" clip-rule="evenodd" d="M19.5568 21.2665H20.319C20.5731 21.2665 20.7707 21.4711 20.7707 21.7222C20.7707 21.9732 20.5636 22.2429 20.3096 22.2429H19.5474V21.2665H19.5568ZM20.4037 20.3086C21.2129 20.3086 21.8716 20.9596 21.8716 21.7594C21.8716 22.5591 21.2129 23.2101 20.4037 23.2101H19.5662V24.6051H18.3711V20.3086H20.4037Z" fill="white"/>
</g>
<defs>
<clipPath id="clip0_147_204">
<rect width="37" height="42" fill="white" transform="translate(12 9)"/>
</clipPath>
</defs>
</svg>
