<svg width="60" height="60" viewBox="0 0 60 60" fill="none" xmlns="http://www.w3.org/2000/svg">
<rect width="60" height="60" fill="black"/>
<g clip-path="url(#clip0_168_665)">
<path d="M21.7242 13.3457C22.4043 13.1674 23.1299 12.8406 23.834 13.1026C24.3829 13.3511 24.4337 14.0424 24.4418 14.5717C24.4391 20.6913 24.4418 26.8109 24.4391 32.9332C24.4016 34.9965 24.5917 37.1489 25.5556 39.0069C26.1098 40.1034 27.0549 41.0378 28.2383 41.4078C30.0616 42.091 32.2945 41.4591 33.4645 39.8819C34.6506 38.3021 35.0415 36.2685 35.1165 34.3267C35.1299 29.7627 35.1245 25.1987 35.1191 20.6346C35.1245 19.6597 34.9558 18.4741 34.0268 17.9502C33.4431 17.5451 32.6185 17.5424 32.1606 16.9537C32.0134 16.5891 32.1151 16.1867 32.1071 15.8059C32.4953 15.4872 32.9264 15.1848 33.4404 15.1308C36.8621 14.8418 40.2517 14.2288 43.5823 13.3997C44.3588 13.2079 45.2128 12.7623 45.9946 13.162C46.6212 13.7237 46.4685 14.6311 46.4819 15.3846C46.4819 23.6539 46.4712 31.9232 46.4873 40.1925C46.5542 41.397 46.6533 42.885 47.7724 43.6007C48.4123 43.9598 49.1861 43.8761 49.8608 44.1435C50.3507 45.113 49.2316 45.7747 48.5515 46.223C45.8929 47.6786 42.5863 48.2214 39.7108 47.0953C37.6787 46.3553 36.1258 44.5648 35.585 42.4637C33.7349 45.456 30.5355 47.6273 27.0228 47.9325C24.3266 48.1377 21.4993 47.846 19.0977 46.5092C16.4739 45.1103 14.7015 42.4502 13.9277 39.6092C13.2477 37.4541 13.1352 35.172 13.079 32.9278C13.0602 28.7662 13.087 24.5991 13.0656 20.4348C13.0147 19.5868 12.9398 18.5308 12.1339 18.0474C11.6011 17.6531 10.9237 17.5586 10.3641 17.2156C9.78581 16.7106 9.9652 15.571 10.7282 15.3387C11.6841 14.9579 12.7497 15.0551 13.7564 14.8931C16.4337 14.5015 19.1031 14.0424 21.7242 13.3457Z" fill="white"/>
</g>
<defs>
<clipPath id="clip0_168_665">
<rect width="40" height="35" fill="white" transform="translate(10 13)"/>
</clipPath>
</defs>
</svg>
