<svg width="60" height="60" viewBox="0 0 60 60" fill="none" xmlns="http://www.w3.org/2000/svg">
<rect width="60" height="60" fill="black"/>
<g clip-path="url(#clip0_1772_9401)">
<path d="M43.3934 43.1099C42.2903 42.675 41.8223 42.4962 41.8223 42.0319C41.8223 41.6225 42.2127 41.3474 42.9258 41.3474C43.7933 41.3474 44.4426 41.6061 44.8183 41.7857L45.3114 39.8021C44.7397 39.5429 43.9876 39.3386 42.9523 39.3386C41.153 39.3386 39.9511 40.1752 39.569 41.3677C39.3126 40.9453 38.9877 40.5972 38.6086 40.3216C37.752 39.6945 36.6906 39.4073 35.0171 39.4073C33.9805 39.4073 32.9824 39.4743 32.2303 39.6116V42.3174C31.7184 40.6132 30.3816 39.3257 28.2306 39.3257C26.2414 39.3257 24.8174 40.4965 24.2119 42.1926C23.6727 40.5501 22.3472 39.3257 20.25 39.3257C17.8886 39.3257 16.3223 40.9734 15.9788 43.1937H13.0331V41.4985H16.3002V39.4743H10.6865V48.6886H13.0331V45.189H15.9979C16.3544 47.2543 17.7788 48.8381 20.1055 48.8381H20.1198C22.1294 48.8381 23.5794 47.7799 24.1806 46.001C24.7376 47.6551 26.0757 48.8381 28.0875 48.8381H28.1C30.1955 48.8381 31.6794 47.684 32.2303 45.7656V48.6321C32.6827 48.7149 33.4378 48.7979 34.5634 48.7979C36.2755 48.7979 37.7147 48.4554 38.6733 47.6612C39.4987 46.9809 40.1593 45.801 40.1875 43.9827C40.6143 44.4017 41.2021 44.7325 41.9013 44.9981C42.8881 45.3518 43.2754 45.5989 43.2754 46.0489C43.2754 46.5136 42.8881 46.803 42.0821 46.803C41.6067 46.803 41.1409 46.7174 40.7275 46.5961C40.41 47.2906 39.975 47.8447 39.477 48.252C39.4609 48.2662 39.4432 48.2779 39.4267 48.2899C39.9355 48.5555 40.9249 48.8242 41.9403 48.8242C44.4943 48.8242 45.6602 47.4719 45.6602 45.886C45.6602 44.6003 44.9614 43.7267 43.3934 43.1099ZM20.2231 46.8841H20.1962C19.0689 46.8841 18.3692 45.7362 18.3818 44.0829C18.3818 42.4827 19.0689 41.2799 20.1962 41.2799C21.3391 41.2799 22.0132 42.4827 22.0132 44.0686C22.0132 45.7362 21.3504 46.8841 20.2231 46.8841ZM28.2033 46.8841H28.1786C27.0499 46.8841 26.3499 45.7362 26.362 44.0829C26.362 42.4827 27.0499 41.2799 28.1786 41.2799C29.3189 41.2799 29.9934 42.4827 29.9934 44.0686C29.9934 45.7362 29.3311 46.8841 28.2033 46.8841ZM35.0696 46.8841C34.9131 46.8841 34.6936 46.8841 34.5791 46.8556V41.3481C34.6936 41.321 34.9261 41.2946 35.2904 41.2946C36.6906 41.2946 37.7147 42.1424 37.7147 43.9443C37.7147 46.0217 36.5869 46.9113 35.0696 46.8841Z" fill="#EC4025"/>
<path d="M47.2105 37.8787C45.5852 37.8787 44.6938 36.6465 44.6938 35.1802C44.6938 33.6431 45.688 32.4204 47.2951 32.4204C48.9819 32.4204 49.8373 33.682 49.8373 35.0942C49.8373 36.7959 48.8262 37.8787 47.2183 37.8787" fill="#558618"/>
<path d="M38.9921 22.4249C36.0621 21.2385 35.1473 20.718 35.1473 19.4599C35.1473 18.3478 36.1822 17.6059 38.0782 17.6059C40.42 17.6059 42.1433 18.3478 43.1436 18.7935L44.4522 13.4588C42.9028 12.7168 40.9371 12.1619 38.145 12.1619C34.2863 12.1619 31.46 13.6411 29.9796 15.9111V12.567H23.7426V26.7593C23.7426 30.7232 22.5359 32.6507 20.0526 32.6507C17.6058 32.6507 16.3662 30.5021 16.3662 26.7222V12.567H10.1626V26.2035C10.1626 34.2073 13.5055 37.9483 19.8826 37.9483C26.3954 37.9483 29.9796 34.0569 29.9796 26.352V23.9922C31.0297 25.5314 32.7517 26.6781 35.0267 27.5363C37.6462 28.5016 38.6798 29.2051 38.6798 30.3928C38.6798 31.6483 37.6748 32.4283 35.5412 32.4283C34.426 32.4283 33.093 32.2124 31.8317 31.8478C31.5484 32.8874 31.1737 33.8639 30.6913 34.7653C30.255 35.5884 29.7236 36.3334 29.1203 36.9981C31.1633 37.646 33.4648 37.953 35.1829 37.953C41.9711 37.953 45.0564 34.2435 45.0564 29.9445C45.0564 26.4617 43.1609 24.0915 38.9921 22.4249Z" fill="#558618"/>
</g>
<defs>
<clipPath id="clip0_1772_9401">
<rect width="40" height="37" fill="white" transform="translate(10 12)"/>
</clipPath>
</defs>
</svg>
