<svg width="60" height="60" viewBox="0 0 60 60" fill="none" xmlns="http://www.w3.org/2000/svg">
<rect width="60" height="60" fill="white"/>
<mask id="mask0_168_307" style="mask-type:luminance" maskUnits="userSpaceOnUse" x="6" y="6" width="48" height="48">
<path fill-rule="evenodd" clip-rule="evenodd" d="M6.41504 6.4151H53.5848V53.5849H6.41504V6.4151Z" fill="white"/>
</mask>
<g mask="url(#mask0_168_307)">
<path fill-rule="evenodd" clip-rule="evenodd" d="M50.8783 19.0314L49.0618 23.4722L39.5979 23.478L41.4355 18.9198H50.8212C46.8537 11.4811 39.0199 6.4151 29.9999 6.4151C20.9806 6.4151 13.1472 11.4796 9.17973 18.9182H16.3066C17.6782 18.9182 18.5152 19.5697 18.8003 20.479L24.4313 36.4077L24.9999 38.1929L25.6567 36.3317L30.6304 23.5901C31.6509 21.1373 31.7678 18.9182 36.9737 18.9182H38.8448L34.2164 30.2285H45.8427L43.9758 34.783L32.3511 34.7872L26.6656 48.6797H23.1954L12.5309 22.294C11.8396 20.6761 10.849 20.0776 8.81023 19.6384C7.22999 22.8636 6.41059 26.4084 6.41506 30C6.41506 43.0257 16.9743 53.5849 29.9999 53.5849C43.0256 53.5849 53.5848 43.0257 53.5848 30C53.5891 26.178 52.66 22.4128 50.8783 19.0314Z" fill="#004C97"/>
</g>
</svg>
