<svg width="60" height="60" viewBox="0 0 60 60" fill="none" xmlns="http://www.w3.org/2000/svg">
<rect width="60" height="60" fill="#5D1B7E"/>
<path d="M35.6453 9.13589H50.7035V10.7912H49.6412C46.9482 10.7912 44.5024 14.6453 40.0306 26.3806L31.05 49.8388H28.1347L17.1406 21.6865C12.8788 10.7294 12.3476 10.7912 9.65471 10.7912H9V9.13589H27.6653V10.7912H25.1576C23.3788 10.7912 22.5265 11.0753 22.5265 12.6441C22.5265 13.7065 23.7494 16.4982 25.6518 21.7853L32.3471 39.9441L37.5724 26.3559C39.1412 22.1559 40.92 16.8688 40.92 14.1141C40.92 12.113 40.2035 10.8282 37.6341 10.7665H35.6329V9.13589H35.6453Z" fill="white"/>
</svg>
