<svg width="60" height="60" viewBox="0 0 60 60" fill="none" xmlns="http://www.w3.org/2000/svg">
<rect width="60" height="60" fill="#023C5B"/>
<g clip-path="url(#clip0_1772_9397)">
<path d="M15.4521 12.5075C16.3638 10.575 18.7209 9.82497 20.7074 10.0325C23.2967 10.3925 25.8688 10.905 28.4556 11.295C29.4118 11.46 30.5014 11.715 31.04 12.6175C31.4724 13.24 31.5193 14.02 31.4551 14.7525L31.5811 14.0375C32.9672 19.11 34.4076 24.1625 35.7913 29.235C30.0245 27.2775 24.2702 25.285 18.4961 23.345C16.6702 22.6825 14.6615 22.16 12.7343 22.68C12.2525 22.79 11.8819 23.1225 11.5829 23.505C11.5434 23.505 11.4668 23.505 11.4248 23.5025C12.9097 19.8975 14.0512 16.1525 15.4521 12.5075Z" fill="#81BE41"/>
<path d="M32.4113 14.6651C32.0951 14.5326 31.7047 14.2951 31.7665 13.8926C33.4812 14.2201 35.2082 14.4776 36.9278 14.7751C39.2083 15.0876 41.3035 16.6151 42.3141 18.7101C44.303 22.6826 46.3068 26.6476 48.2908 30.6226C49.0246 32.0526 49.1926 33.7776 48.6985 35.3151C48.3773 36.2376 47.6706 36.9326 47.0678 37.6701C44.1992 41.0876 41.3381 44.5101 38.4745 47.9301C36.7574 50.0151 33.4861 50.6576 31.1809 49.2126C25.6267 45.8876 20.0601 42.5776 14.5034 39.2576C11.7139 37.6026 10.2512 33.8126 11.4323 30.7201C11.9956 29.1701 12.5416 27.6151 13.1 26.0651C13.2977 25.3576 13.9969 24.9876 14.664 24.8726C16.1588 24.5976 17.7154 24.7901 19.1558 25.2626C25.2388 27.2901 31.297 29.3976 37.3726 31.4526C35.9865 26.4851 34.6128 21.5151 33.2217 16.5526C33.0414 15.8876 32.7893 15.2401 32.4113 14.6651Z" fill="white"/>
</g>
<defs>
<clipPath id="clip0_1772_9397">
<rect width="38" height="40" fill="white" transform="translate(11 10)"/>
</clipPath>
</defs>
</svg>
