<svg width="60" height="60" viewBox="0 0 60 60" fill="none" xmlns="http://www.w3.org/2000/svg">
<rect width="60" height="60" fill="#003E6C"/>
<g clip-path="url(#clip0_150_957)">
<path d="M24.548 34.3364C23.5948 34.3438 22.6864 34.154 21.9073 33.5498C21.541 33.2616 21.2663 32.8732 21.1166 32.4317C21.0677 32.2966 21.0719 32.227 21.2559 32.2162C21.9396 32.1756 22.6218 32.1168 23.3039 32.0629C23.3736 32.049 23.4459 32.0548 23.5125 32.0797C23.5791 32.1045 23.6375 32.1475 23.681 32.2038C24.0374 32.6315 25.071 32.7044 25.4995 32.3513C25.5671 32.306 25.6199 32.2417 25.6511 32.1665C25.7042 31.9402 25.8699 31.9295 26.0498 31.9253C26.7195 31.9071 27.39 31.8888 28.0597 31.8648C28.1923 31.8607 28.2172 31.898 28.1981 32.0297C28.0382 33.1072 27.3486 33.7164 26.3788 34.067C25.7941 34.2732 25.176 34.3688 24.5563 34.3488L24.548 34.3364Z" fill="#63A508"/>
<path d="M27.976 30.5521C26.6366 30.6242 25.3279 30.6889 24.0291 30.853C23.4874 30.9086 22.942 30.7923 22.4701 30.5206C21.5484 30.0507 21.1771 29.1796 21.4291 28.1203C21.5074 27.7509 21.6749 27.4062 21.917 27.1164C22.1592 26.8266 22.4686 26.6005 22.8182 26.4577C23.4121 26.195 24.0549 26.0607 24.7043 26.0635C25.3538 26.0664 25.9953 26.2064 26.5869 26.4743C26.942 26.6242 27.2523 26.8634 27.4875 27.1687C27.7228 27.4739 27.8751 27.8349 27.9296 28.2165C27.9536 28.3391 27.9279 28.3541 27.8243 28.3532C27.1099 28.3516 26.3954 28.3516 25.6802 28.3549C25.6006 28.3549 25.5674 28.3135 25.5227 28.2621C25.322 28.061 25.0625 27.9289 24.7818 27.8849C24.5011 27.841 24.2137 27.8874 23.9612 28.0176C23.8946 28.0472 23.8372 28.0942 23.795 28.1537C23.7529 28.2132 23.7275 28.2829 23.7216 28.3555C23.7156 28.4282 23.7294 28.5011 23.7613 28.5666C23.7933 28.6321 23.8422 28.6878 23.9031 28.7279C24.0921 28.8688 24.3076 28.9707 24.5364 29.0262C25.2235 29.2384 25.9387 29.3462 26.6151 29.5981C27.1157 29.7564 27.5633 30.0507 27.9064 30.4477C27.9279 30.475 27.9453 30.5057 27.9843 30.5646L27.976 30.5521Z" fill="#FEFEFD"/>
<path d="M38.4872 32.2062C38.8022 32.2046 39.108 32.217 39.4113 32.2551C39.9625 32.2883 40.5112 32.3438 41.0624 32.3795C41.1052 32.3825 41.1463 32.3976 41.1808 32.4232C41.2153 32.4487 41.2418 32.4836 41.2571 32.5237L41.8895 33.5846C41.9185 33.6326 41.9542 33.6774 42.0047 33.7487C42.1481 33.3674 42.289 33.016 42.4109 32.6571C42.4548 32.5286 42.5186 32.5079 42.6388 32.5228C43.2952 32.5991 43.9533 32.672 44.6114 32.7375C44.7639 32.7524 44.7747 32.8104 44.7332 32.9381C44.5972 33.3574 44.4676 33.7788 44.3445 34.2021C44.3047 34.3413 44.2111 34.3512 44.1075 34.3512C43.2389 34.3512 42.3703 34.3488 41.5016 34.3512C40.9861 34.3529 40.5676 34.3512 39.9559 34.3488C39.895 34.3566 39.8332 34.3452 39.7792 34.3161C39.7253 34.2869 39.6818 34.2415 39.655 34.1863C39.3003 33.5763 38.9339 32.9729 38.5709 32.367C38.546 32.3256 38.5262 32.2792 38.4955 32.2178L38.4872 32.2062ZM31.4571 34.3479C31.0982 34.3479 30.7393 34.343 30.3812 34.3512C30.2453 34.3546 30.2064 34.3048 30.2072 34.1631C30.213 33.4669 30.213 32.7723 30.2072 32.0761C30.2072 31.9294 30.247 31.8639 30.3929 31.8648C31.1106 31.8697 31.8276 31.8714 32.5445 31.8681C32.6638 31.8681 32.692 31.9261 32.692 32.0405C32.6895 32.7599 32.6887 33.4785 32.6937 34.1979C32.6945 34.3313 32.6357 34.3496 32.5329 34.3479C32.174 34.3446 31.816 34.3479 31.4571 34.3479Z" fill="#63A509"/>
<path d="M36.4052 34.3331C36.0538 34.3455 35.6941 34.3422 35.3343 34.348C35.2241 34.3497 35.1794 34.3174 35.1802 34.1872C35.1852 33.4662 35.1835 32.7451 35.1818 32.024C35.1818 31.9245 35.1901 31.8591 35.312 31.8649C36.0156 31.9013 36.7193 31.9353 37.423 31.956C37.6261 31.9627 37.6708 32.0513 37.6667 32.2586C37.6667 33.1081 37.6667 33.5225 37.6642 34.1317C37.6667 34.2958 37.631 34.3571 37.4711 34.3505C37.1188 34.3381 36.7666 34.3472 36.4135 34.3472V34.3455L36.4052 34.3331Z" fill="#63A508"/>
<path d="M19.4996 34.3364C19.1548 34.3489 18.8017 34.3431 18.4486 34.3513C18.3143 34.3538 18.2704 34.3124 18.2729 34.1748C18.2812 33.7355 18.2828 33.2979 18.2746 32.8594C18.2721 32.721 18.3301 32.6738 18.4486 32.6622C19.1805 32.5909 19.9123 32.5213 20.6425 32.4459C20.7337 32.4359 20.7627 32.4674 20.7627 32.5511C20.7627 33.1089 20.7619 33.6659 20.766 34.2229C20.7668 34.3431 20.7005 34.3505 20.611 34.3497C20.2439 34.348 19.8759 34.3497 19.5079 34.3489L19.4996 34.3364Z" fill="#63A509"/>
<path d="M14.0807 34.3331C13.6845 34.3455 13.28 34.3397 12.8756 34.3489C12.8492 34.3533 12.8223 34.3523 12.7963 34.346C12.7704 34.3397 12.746 34.3282 12.7247 34.3121C12.7034 34.296 12.6855 34.2758 12.6723 34.2526C12.659 34.2294 12.6506 34.2038 12.6476 34.1773C12.4719 33.6054 12.4686 33.6112 13.0455 33.4885C13.9356 33.2987 14.8357 33.1694 15.7325 33.0144C15.8743 32.9896 15.8983 33.0335 15.8535 33.1669C15.7408 33.5034 15.6298 33.8424 15.5369 34.1847C15.5331 34.2224 15.5178 34.258 15.493 34.2866C15.4682 34.3152 15.4352 34.3355 15.3985 34.3447C15.3741 34.3507 15.3487 34.3516 15.3239 34.3472C14.9128 34.3406 14.5009 34.3447 14.089 34.3447L14.0807 34.3331Z" fill="#63A50B"/>
<path d="M48.8294 34.3388C48.4464 34.3513 48.0975 34.343 47.7278 34.3513C47.5969 34.3546 47.5281 34.3131 47.4933 34.1789C47.413 33.87 47.3248 33.5632 47.2289 33.2589C47.1908 33.1346 47.2024 33.1039 47.3416 33.1246C48.0643 33.2324 48.7838 33.3617 49.4999 33.5117C49.6242 33.5382 49.7958 33.491 49.8646 33.6277C49.964 33.8341 50.0444 34.0504 50.1049 34.2717C50.1406 34.3927 50.0055 34.3504 49.959 34.3513C49.5819 34.3579 49.2156 34.3513 48.8376 34.3513L48.8294 34.3388Z" fill="#63A50C"/>
<path d="M14.1329 31.0856L14.7736 28.6497L15.3952 26.2395C15.4176 26.1558 15.4184 26.0654 15.5502 26.0663C16.36 26.0721 17.1706 26.0696 18.0002 26.0696L17.328 28.2942C16.9634 29.4993 16.5945 30.7036 16.2356 31.9103C16.2201 31.9811 16.1841 32.0456 16.132 32.096C16.0806 32.1457 16.016 32.1789 15.9455 32.1897C14.7918 32.4897 13.658 32.8651 12.549 33.3135C12.4437 33.3575 12.4089 33.3542 12.3725 33.2257C11.6912 30.8552 11.0049 28.4873 10.3161 26.1201C10.3137 26.1135 10.3178 26.1052 10.3195 26.092C10.3667 26.048 10.4272 26.0704 10.4819 26.0704C11.1964 26.0687 11.9116 26.0762 12.6261 26.0638C12.7894 26.0613 12.8374 26.1259 12.8739 26.2677C13.2684 27.7869 13.6663 29.3045 14.0658 30.8221L14.1404 31.0981L14.1329 31.0856ZM49.7303 33.2373C49.1501 33.0367 48.6031 32.8444 48.0544 32.6596C47.7548 32.5583 47.4522 32.4666 47.1468 32.3844C47.0866 32.3724 47.0316 32.342 46.9893 32.2974C46.946 32.2525 46.9171 32.1956 46.9064 32.1341C46.6246 31.108 46.3346 30.0844 46.0478 29.0608C46.0312 29.0028 46.0113 28.9448 45.9815 28.8478C45.7908 29.4669 45.611 30.0513 45.4328 30.6364C45.3267 30.9829 45.2214 31.3285 45.1203 31.6766C45.0897 31.7827 45.0557 31.8399 44.9247 31.8109C44.2434 31.6609 43.5596 31.5208 42.8618 31.3741L43.7039 29.0119C44.0337 28.0886 44.3677 27.1686 44.6918 26.2436C44.7033 26.1868 44.7358 26.1365 44.783 26.1027C44.8063 26.0862 44.8327 26.0745 44.8606 26.0682C44.8884 26.062 44.9173 26.0613 44.9454 26.0663C45.6375 26.0729 46.3304 26.0704 47.0233 26.0679C47.1228 26.0679 47.1999 26.0663 47.2438 26.1922C48.066 28.5295 48.8923 30.8668 49.7303 33.2373ZM31.385 26.0687C32.4542 26.0687 33.5234 26.0729 34.5917 26.0646C34.76 26.0629 34.7989 26.1094 34.7948 26.2793C34.7833 26.8558 34.7833 27.4325 34.7948 28.009C34.7973 28.1756 34.745 28.2096 34.5959 28.208C34.0206 28.1997 33.4952 28.2162 32.9216 28.198C32.7152 28.1922 32.6829 28.2627 32.6862 28.4516C32.6978 29.0509 32.6862 29.6509 32.6937 30.2502C32.6954 30.3994 32.6605 30.4334 32.5072 30.43C31.8077 30.4151 31.1231 30.4135 30.4235 30.4242C30.2412 30.4267 30.2039 30.3679 30.2072 30.1947C30.2172 29.6103 30.2047 29.026 30.2155 28.4409C30.2188 28.2585 30.179 28.1947 29.9884 28.1997C29.4066 28.2129 28.7584 28.1988 28.1766 28.208C28.0249 28.2104 27.9727 28.169 27.9743 28.009C27.9818 27.4173 27.9826 26.8246 27.9735 26.2329C27.971 26.0754 28.0365 26.0671 28.1567 26.0671C29.2333 26.0704 30.3092 26.0687 31.385 26.0687ZM18.277 28.8254C18.277 27.9676 18.2812 27.1098 18.2737 26.2527C18.2721 26.1002 18.3152 26.0646 18.4577 26.0663C19.173 26.0729 19.8875 26.0729 20.6027 26.0663C20.742 26.0646 20.7735 26.1077 20.7735 26.2453C20.7677 27.8317 20.7668 29.418 20.7702 31.0036C20.7702 31.1503 20.7204 31.1951 20.5862 31.2183C19.875 31.3376 19.1639 31.4611 18.4561 31.6012C18.2911 31.6343 18.2737 31.5887 18.2746 31.4437C18.2787 30.5709 18.277 29.699 18.277 28.8254Z" fill="#FEFEFD"/>
<path fill-rule="evenodd" clip-rule="evenodd" d="M38.3347 26.0588C38.0977 26.0729 37.8648 26.0738 37.6509 26.0696C37.4056 26.0696 37.1735 26.0696 36.9514 26.0713C36.4019 26.0729 35.9087 26.0746 35.4172 26.063C35.21 26.058 35.1719 26.1268 35.181 26.3158C35.1918 26.5296 35.1893 26.7443 35.1876 26.9589L35.186 27.2258C35.185 28.2715 35.1844 29.3172 35.1843 30.3629C35.181 30.4508 35.1785 30.5304 35.3269 30.537C37.1089 30.6282 38.8834 30.7964 40.6504 31.0426C40.8413 31.0693 41.035 31.0208 41.1908 30.9075C41.8987 30.45 42.1689 29.7504 42.2144 28.9432C42.299 27.443 41.6484 26.2345 39.8548 26.1036C39.3368 26.0655 38.8171 26.0688 38.343 26.0713L38.3347 26.0588ZM39.447 28.1185C39.1719 28.0605 38.8907 28.0377 38.6099 28.0505H38.3264C38.1325 28.0522 37.9725 28.0522 37.8125 28.0489C37.7106 28.0472 37.665 28.0721 37.6667 28.1881C37.6716 28.5321 37.6708 28.876 37.6691 29.2208V29.5043C37.6691 29.5689 37.6692 29.6245 37.7587 29.622C37.9427 29.6162 38.1275 29.6203 38.3115 29.6245C38.6894 29.6327 39.0674 29.641 39.4404 29.5648C39.6108 29.5417 39.7657 29.4539 39.873 29.3195C39.9809 29.1845 40.0334 29.0135 40.0197 28.8412C40.0239 28.4459 39.8448 28.2213 39.447 28.1185Z" fill="#FEFEFD"/>
</g>
<defs>
<clipPath id="clip0_150_957">
<rect width="41" height="9" fill="white" transform="translate(10 26)"/>
</clipPath>
</defs>
</svg>
