<svg width="60" height="60" viewBox="0 0 60 60" fill="none" xmlns="http://www.w3.org/2000/svg">
<rect width="60" height="60" fill="#016FB7"/>
<g clip-path="url(#clip0_168_334)">
<path fill-rule="evenodd" clip-rule="evenodd" d="M5.13574 32.8886C5.13574 32.8886 11.8923 30.8416 29.9509 30.8416C48.1404 30.8416 54.864 32.8762 54.864 32.8762C54.864 32.8762 46.6386 31.4801 29.9509 31.4801C13.2633 31.4801 5.13574 32.8886 5.13574 32.8886ZM15.6309 33.9499H15.9711V35.8299H15.6309V35.0376H14.7067V35.8299H14.3661V33.9499H14.7067V34.7315H15.6309V33.9499ZM18.2732 34.8953V34.8904C18.2732 34.5251 17.9995 34.2216 17.6148 34.2216C17.2301 34.2216 16.9617 34.5197 16.9617 34.885V34.8899C16.9617 35.2553 17.2358 35.5561 17.6205 35.5561C18.0049 35.5561 18.2732 35.2606 18.2732 34.8953ZM16.6048 34.8953V34.8904C16.6048 34.3612 17.0254 33.9181 17.6205 33.9181C18.2154 33.9181 18.6303 34.3558 18.6303 34.885V34.8899C18.6303 35.4191 18.2097 35.8623 17.6148 35.8623C17.0199 35.8623 16.6048 35.4244 16.6048 34.8953ZM19.6349 34.256H19.0207V33.9499H20.5925V34.256H19.978V35.83H19.6349V34.256ZM21.1737 33.9499H22.6098V34.2452H21.5142V34.7341H22.4855V35.0296H21.5142V35.5345H22.6238V35.83H21.1737V33.9499ZM23.2492 33.9499H23.5897V35.5292H24.608V35.83H23.2492V33.9499ZM25.0535 35.5561L25.2583 35.3197C25.4435 35.4754 25.6317 35.5641 25.8699 35.5641C26.08 35.5641 26.2129 35.4674 26.2129 35.3277V35.3228C26.2129 35.1885 26.1354 35.1161 25.7758 35.0355C25.3635 34.9387 25.131 34.8204 25.131 34.4741V34.4691C25.131 34.1467 25.4076 33.9239 25.7923 33.9239C26.0747 33.9239 26.2988 34.007 26.4953 34.1601L26.3125 34.41C26.1382 34.2837 25.964 34.2166 25.787 34.2166C25.5875 34.2166 25.4712 34.3159 25.4712 34.4396V34.4446C25.4712 34.5896 25.5599 34.6541 25.9335 34.7401C26.343 34.8368 26.5532 34.9791 26.5532 35.2907V35.2957C26.5532 35.6475 26.2682 35.857 25.8617 35.857C25.5653 35.857 25.2858 35.7575 25.0535 35.5561ZM29.1074 34.3957V34.3907C29.1074 34.2644 29.0162 34.1785 28.8887 34.1785C28.7503 34.1785 28.6562 34.2725 28.6562 34.4041V34.4091C28.6562 34.503 28.6951 34.573 28.8032 34.6884C29.0022 34.6187 29.1074 34.5299 29.1074 34.3957ZM29.1186 35.4191L28.6869 34.992C28.5068 35.0672 28.4296 35.1826 28.4296 35.3035V35.3085C28.4296 35.467 28.565 35.5826 28.7533 35.5826C28.8862 35.5826 29.008 35.5211 29.1186 35.4191ZM29.3122 35.6124C29.1462 35.7629 28.9523 35.8568 28.72 35.8568C28.3575 35.8568 28.0862 35.6447 28.0862 35.3197V35.3147C28.0862 35.0729 28.2331 34.8984 28.4986 34.7882C28.388 34.6514 28.338 34.5331 28.338 34.3961V34.3911C28.338 34.1387 28.5485 33.9185 28.8944 33.9185C29.2015 33.9185 29.4092 34.1198 29.4092 34.3723V34.3773C29.4092 34.6244 29.2403 34.7721 28.9828 34.8661L29.315 35.1938C29.3898 35.0863 29.4588 34.9629 29.5224 34.8312L29.7799 34.9629C29.7023 35.1133 29.6165 35.2609 29.517 35.3898L29.8241 35.6908L29.5694 35.8681L29.3122 35.6124ZM32.2648 34.8819C32.5084 34.8819 32.6635 34.7583 32.6635 34.5676V34.5626C32.6635 34.3613 32.5141 34.251 32.2623 34.251H31.7669V34.8823L32.2648 34.8819ZM31.4264 33.9499H32.29C32.5334 33.9499 32.7243 34.0196 32.8489 34.1378C32.9512 34.2398 33.009 34.3796 33.009 34.5433V34.5483C33.009 34.8573 32.8183 35.0425 32.55 35.1177L33.073 35.8295H32.6689L32.193 35.1742H31.7669V35.8295H31.4264V33.9499ZM33.6485 33.9499H35.0845V34.2452H33.989V34.7341H34.9602V35.0296H33.989V35.5345H35.0985V35.83H33.6484L33.6485 33.9499ZM35.5939 35.5561L35.7986 35.3197C35.984 35.4754 36.1722 35.5641 36.4103 35.5641C36.6205 35.5641 36.7534 35.4674 36.7534 35.3277V35.3228C36.7534 35.1885 36.6759 35.1161 36.3163 35.0355C35.9039 34.9387 35.6714 34.8204 35.6714 34.4741V34.4691C35.6714 34.1467 35.9481 33.9239 36.3328 33.9239C36.6152 33.9239 36.8392 34.007 37.0357 34.1601L36.8529 34.41C36.6786 34.2837 36.5044 34.2166 36.3274 34.2166C36.128 34.2166 36.0117 34.3159 36.0117 34.4396V34.4446C36.0117 34.5896 36.1004 34.6541 36.474 34.7401C36.8834 34.8368 37.0936 34.9791 37.0936 35.2907V35.2957C37.0936 35.6475 36.8087 35.857 36.4021 35.857C36.1058 35.857 35.8263 35.7575 35.5939 35.5561ZM39.2991 34.8953V34.8904C39.2991 34.5251 39.0253 34.2216 38.6406 34.2216C38.256 34.2216 37.9876 34.5197 37.9876 34.885V34.8899C37.9876 35.2553 38.2617 35.5561 38.6464 35.5561C39.0308 35.5561 39.2991 35.2606 39.2991 34.8953ZM37.6306 34.8953V34.8904C37.6306 34.3612 38.0512 33.9181 38.6464 33.9181C39.2412 33.9181 39.6562 34.3558 39.6562 34.885V34.8899C39.6562 35.4191 39.2355 35.8623 38.6406 35.8623C38.0458 35.8623 37.6306 35.4244 37.6306 34.8953ZM41.1282 34.8819C41.3716 34.8819 41.5269 34.7583 41.5269 34.5675V34.5626C41.5269 34.3613 41.3774 34.251 41.1257 34.251H40.6303V34.8823L41.1282 34.8819ZM40.2898 33.9499H41.1532C41.3968 33.9499 41.5876 34.0196 41.7122 34.1378C41.8145 34.2398 41.8724 34.3796 41.8724 34.5433V34.5483C41.8724 34.8572 41.6817 35.0425 41.4133 35.1177L41.9364 35.8295H41.5322L41.0563 35.1742H40.6303V35.8295H40.2898V33.9499ZM42.9798 34.256H42.3655V33.9499H43.937V34.256H43.3228V35.8299H42.9798V34.256ZM44.3465 35.556L44.5514 35.3197C44.7367 35.4753 44.9249 35.5641 45.1631 35.5641C45.3731 35.5641 45.5061 35.4673 45.5061 35.3277V35.3227C45.5061 35.1884 45.4285 35.116 45.069 35.0354C44.6565 34.9387 44.4241 34.8204 44.4241 34.474V34.4691C44.4241 34.1467 44.7008 33.9239 45.0855 33.9239C45.3679 33.9239 45.5918 34.007 45.7883 34.1601L45.6055 34.4099C45.4313 34.2836 45.2572 34.2166 45.08 34.2166C44.8807 34.2166 44.7643 34.3159 44.7643 34.4396V34.4445C44.7643 34.5896 44.8531 34.654 45.2266 34.7401C45.6361 34.8368 45.8462 34.9791 45.8462 35.2907V35.2956C45.8462 35.6474 45.5614 35.8569 45.1547 35.8569C44.8584 35.8569 44.579 35.7575 44.3465 35.556ZM10.1453 25.1666H11.0986L12.2956 28.7778L13.5286 25.1527H14.274L15.5069 28.7778L16.7039 25.1666H17.6287L15.8797 30.072H15.1198L13.887 26.5721L12.6541 30.072H11.8943L10.1453 25.1666ZM19.866 28.1168L17.8733 25.1665H18.9126L20.3176 27.3236L21.7369 25.1665H22.7474L20.7547 28.0959V30.0373H19.866V28.1168ZM23.2355 25.1666H24.0527L26.7406 28.5342V25.1666H27.608V30.0372H26.8696L24.1028 26.5721V30.0372H23.2355V25.1666ZM30.6264 29.2579C31.6802 29.2579 32.3682 28.5691 32.3682 27.6158V27.6019C32.3682 26.6486 31.6802 25.9459 30.6264 25.9459H29.6373V29.2578L30.6264 29.2579ZM28.7557 25.1666H30.6264C32.2034 25.1666 33.293 26.2173 33.293 27.5881V27.6019C33.293 28.9725 32.2034 30.0372 30.6264 30.0372H28.7557V25.1666ZM34.2186 25.1666H35.1V27.1914H37.4944V25.1666H38.3758V30.0372H37.4944V27.9845H35.1V30.0372H34.2186V25.1666ZM42.5626 28.1029L41.6953 26.1547L40.8349 28.1029H42.5626ZM41.3009 25.1319H42.1182L44.3258 30.0372H43.3939L42.8851 28.8613H40.5125L39.9963 30.0372H39.0931L41.3009 25.1319ZM44.9002 25.1666H45.839L47.3657 27.4697L48.8926 25.1666H49.8315V30.0373H48.9501V26.5443L47.3657 28.8405H47.3373L45.7673 26.5583V30.0373H44.9002V25.1666Z" fill="white"/>
</g>
<defs>
<clipPath id="clip0_168_334">
<rect width="50" height="11" fill="white" transform="translate(5 25)"/>
</clipPath>
</defs>
</svg>
