<svg width="60" height="60" viewBox="0 0 60 60" fill="none" xmlns="http://www.w3.org/2000/svg">
<rect width="60" height="60" fill="#1378C7"/>
<g clip-path="url(#clip0_168_206)">
<path d="M19.8547 24.9205H19.5414H18.0771H17.9408L17.8875 25.0453L15.9375 29.6003L16.0587 25.1308L16.0644 24.9205H15.8524H14.2408H14.105L14.0513 25.0438L12.0642 29.5982L12.2219 25.1324L12.2292 24.9205H12.0156H10.5513H10.3476L10.345 25.1225L10.2395 33.265L10.2369 33.4723H10.4458H12.0355H12.1718L12.225 33.3474L14.3098 28.4676L14.2241 33.264L14.2205 33.4723H14.4304H16.0195H16.1553L16.2091 33.3485L19.7315 25.206L19.8547 24.9205Z" fill="white"/>
<path d="M21.8081 27.199H21.5512H20.1449H19.9788L19.9433 27.3596L18.633 33.2234L18.5771 33.4726H18.8341H20.241H20.4065L20.442 33.312L21.7523 27.4482L21.8081 27.199Z" fill="white"/>
<path d="M21.7917 26.5312H21.9572L21.9933 26.3706L22.2852 25.0634L22.3411 24.8147H22.0836H20.6773H20.5117L20.4757 24.9748L20.1838 26.282L20.1284 26.5312H20.3854H21.7917Z" fill="white"/>
<path d="M25.1342 24.9205H24.8773H23.4709H23.3049L23.2693 25.0811L21.4499 33.2236L21.394 33.4723H21.6515H23.0578H23.2234L23.2589 33.3122L25.0783 25.1697L25.1342 24.9205Z" fill="white"/>
<path d="M27.951 24.9205H27.694H26.2877H26.1222L26.0861 25.0811L24.2667 33.2236L24.2108 33.4723H24.4683H25.8746H26.0402L26.0757 33.3122L27.8951 25.1697L27.951 24.9205Z" fill="white"/>
<path d="M30.2019 27.199H29.945H28.5387H28.3731L28.3371 27.3596L27.0268 33.2234L26.9709 33.4726H27.2284H28.6347H28.8003L28.8363 33.312L30.1461 27.4482L30.2019 27.199Z" fill="white"/>
<path d="M30.1856 26.5312H30.3512L30.3872 26.3706L30.6791 25.0634L30.7345 24.8147H30.4775H29.0712H28.9057L28.8696 24.9748L28.5777 26.282L28.5223 26.5312H28.7793H30.1856Z" fill="white"/>
<mask id="mask0_168_206" style="mask-type:luminance" maskUnits="userSpaceOnUse" x="7" y="18" width="46" height="25">
<path d="M7 43H53V18H7V43Z" fill="white"/>
</mask>
<g mask="url(#mask0_168_206)">
<path d="M35.4656 29.7094C35.6776 28.7597 35.6222 28.1224 35.2917 27.7043C34.9778 27.3074 34.4169 27.1141 33.5276 27.0949C32.6064 27.0706 31.4612 27.5753 30.9207 28.2442L30.8 28.3934L30.9421 28.5229L31.6962 29.2089L31.846 29.3447L31.9855 29.1991C32.2962 28.8747 32.6941 28.5431 33.291 28.5431C33.5072 28.5431 33.6759 28.5986 33.7542 28.6949C33.8106 28.7649 33.8253 28.8644 33.7971 28.9913L33.7182 29.3447C31.3139 29.6442 30.1002 30.398 29.7916 31.7799C29.6788 32.2841 29.7645 32.7452 30.0334 33.0778C30.2177 33.3053 30.5776 33.5768 31.2465 33.5768C31.9432 33.5835 32.5051 33.3768 33.0007 33.1167L32.9944 33.2571L32.9845 33.4711H33.2007H34.5731H34.8065L34.7778 33.2411C34.7527 33.0431 34.7757 32.7965 34.8499 32.4644L35.4656 29.7094ZM33.2158 31.5913C32.8132 31.8654 32.2884 32.1286 31.9667 32.1286C31.8727 32.1286 31.7463 32.111 31.6779 32.0265C31.6053 31.9364 31.6173 31.7939 31.6403 31.6903C31.7781 31.0753 32.5735 30.8696 33.4127 30.71L33.2158 31.5913Z" fill="white"/>
<path d="M44.5675 27.5466C44.332 27.2554 43.9576 27.0948 43.5132 27.0948C42.5601 27.0948 41.8995 27.4393 41.382 27.8227C41.1496 27.3673 40.6556 27.0948 40.0268 27.0948C39.3636 27.0891 38.8967 27.2538 38.4058 27.5652L38.4314 27.4497L38.4873 27.201H38.2298H36.9483H36.7827L36.7467 27.3611L35.437 33.2238L35.3811 33.4725H35.6386H37.0449H37.2104L37.2465 33.3124L38.1708 29.1751C38.6105 28.8497 39.0596 28.6331 39.3056 28.6315C39.4205 28.6372 39.5672 28.6606 39.6273 28.7383C39.6811 28.8072 39.6863 28.945 39.6435 29.1367L38.7306 33.2238L38.6748 33.4725H38.9317H40.338H40.5041L40.5396 33.3124L41.464 29.1751C41.9037 28.8497 42.3533 28.6331 42.5993 28.6315C42.7142 28.6372 42.8609 28.6606 42.921 28.7383C42.9742 28.8072 42.98 28.945 42.9371 29.1367L42.0238 33.2238L41.9684 33.4725H42.2254H43.6317H43.7972L43.8333 33.3124L44.7738 29.1015C44.9252 28.4258 44.8558 27.9025 44.5675 27.5466Z" fill="white"/>
<path d="M47.9781 28.543C48.2642 28.543 48.5175 28.7119 48.776 29.0736L48.8966 29.2435L49.0658 29.1207L50.1202 28.357L50.2753 28.2446L50.1735 28.0834C49.7787 27.4549 49.0298 27.0948 48.1191 27.0948C47.0986 27.0948 45.8709 27.6772 45.5852 28.956C45.2803 30.3207 46.3649 30.7456 47.1566 31.0565C47.7279 31.2803 47.9922 31.4099 47.9436 31.627C47.8773 31.9223 47.5524 32.1285 47.154 32.1285C46.7221 32.1285 46.403 31.8969 46.1503 31.3995L46.0474 31.1969L45.8547 31.3192L44.7586 32.015L44.6082 32.1104L44.6818 32.272C45.0719 33.1259 45.8187 33.5772 46.8417 33.5772C48.3039 33.5772 49.3369 32.8601 49.6048 31.6596C49.9265 30.2213 48.7786 29.786 48.0193 29.4985C47.4637 29.2876 47.2073 29.1653 47.2543 28.9549C47.3154 28.6819 47.5587 28.543 47.9781 28.543Z" fill="white"/>
<path fill-rule="evenodd" clip-rule="evenodd" d="M25.3745 34.8227C18.1308 37.7657 12.1863 38.4859 12.0975 36.431C12.0735 35.8844 12.4704 35.1958 13.1963 34.4248H12.1393C10.5632 35.9222 9.7496 37.2051 9.94648 38.089C10.5063 40.6072 19.052 38.9595 29.1956 34.4248H26.3265C26.0121 34.5595 25.6952 34.6927 25.3745 34.8227Z" fill="white"/>
<path fill-rule="evenodd" clip-rule="evenodd" d="M47.874 20.8904C47.3387 18.4173 39.3231 19.792 29.5137 23.9106L29.9476 24.1381C35.937 21.7723 41.1138 20.3313 43.8283 20.4386C47.0671 20.5666 46.0013 22.8681 41.7285 26.2153H43.7531C46.5627 24.022 48.1356 22.1002 47.874 20.8904Z" fill="white"/>
<path fill-rule="evenodd" clip-rule="evenodd" d="M48.6857 23.3575C48.587 23.0037 48.3232 22.7358 47.9159 22.5482C47.6595 23.041 47.2532 23.586 46.7075 24.1731C46.6385 24.7062 46.1847 25.4 45.3821 26.2156H47.3482C48.3932 25.0601 48.8852 24.0731 48.6857 23.3575Z" fill="white"/>
<path fill-rule="evenodd" clip-rule="evenodd" d="M31.3665 26.1487L31.7947 26.373C37.1161 24.2948 41.8856 22.9834 44.5677 22.9829C44.7562 22.7223 44.9025 22.4787 45.0053 22.2534C41.8281 22.4808 36.9057 23.8534 31.3665 26.1487Z" fill="white"/>
<path fill-rule="evenodd" clip-rule="evenodd" d="M32.3337 34.4248C30.73 35.272 28.9727 36.1036 27.1256 36.8725C20.6375 39.5741 15.1359 40.645 13.5452 39.6595C12.1958 39.7772 11.3675 39.6383 10.9304 39.5119C10.8505 39.6958 10.7957 39.872 10.769 40.0388C10.3252 42.8041 17.4989 42.0046 26.7924 38.2538C29.6871 37.0849 32.4455 35.7684 34.8858 34.4248H32.3337Z" fill="white"/>
<path fill-rule="evenodd" clip-rule="evenodd" d="M17.2726 34.4248H16.3921C15.0839 35.2937 13.9596 36.143 13.064 36.9399C13.265 37.0585 13.6912 37.1637 13.9596 37.1818C14.6829 36.3549 15.8223 35.4108 17.2726 34.4248Z" fill="white"/>
</g>
</g>
<defs>
<clipPath id="clip0_168_206">
<rect width="46" height="25" fill="white" transform="translate(7 18)"/>
</clipPath>
</defs>
</svg>
