<svg width="60" height="60" viewBox="0 0 60 60" fill="none" xmlns="http://www.w3.org/2000/svg">
<rect width="60" height="60" fill="#BB9A53"/>
<g clip-path="url(#clip0_150_1041)">
<path d="M15.7512 18C19.0902 18 22.4266 18.0026 25.763 18C26.8269 19.9127 27.8934 21.8202 28.9572 23.7328C28.341 24.833 27.7239 25.9331 27.106 27.0333C25.9658 25.0114 24.844 22.9766 23.7038 20.9548C21.6024 20.9574 19.501 20.9548 17.397 20.9548C16.8493 19.9725 16.2963 18.9875 15.7512 18ZM46.2949 18.0026C47.5273 18 48.7597 18.0026 49.9921 18C47.1771 23.0598 44.3542 28.1169 41.5339 33.1741C39.7038 36.4485 37.892 39.7334 36.0487 43C35.551 42.1892 35.1113 41.342 34.6373 40.5182C33.4338 38.3638 32.2199 36.2199 31.0244 34.0629C31.6458 32.9662 32.2541 31.8643 32.8729 30.7703C33.9263 32.6492 34.9796 34.5307 36.025 36.4148C39.4483 30.2765 42.8769 24.1409 46.2949 18.0026Z" fill="#7E8083"/>
<path d="M10 18.0026C11.2271 18 12.4516 18 13.6787 18.0026C17.0994 24.1383 20.5201 30.2791 23.9513 36.4148C27.3693 30.2739 30.7953 24.1383 34.2159 18C37.5523 18.0026 40.8914 18 44.2278 18.0026C43.6801 18.9867 43.1314 19.9707 42.582 20.9548C40.4753 20.9548 38.3687 20.9548 36.262 20.9548C32.1698 28.3041 28.0698 35.6507 23.9776 43H23.9513C19.2956 34.684 14.6531 26.3602 10 18.0416V18.0026Z" fill="white"/>
</g>
<defs>
<clipPath id="clip0_150_1041">
<rect width="40" height="25" fill="white" transform="translate(10 18)"/>
</clipPath>
</defs>
</svg>
