<svg width="60" height="60" viewBox="0 0 60 60" fill="none" xmlns="http://www.w3.org/2000/svg">
<rect width="60" height="60" fill="black"/>
<g clip-path="url(#clip0_1534_8431)">
<path d="M16.9585 23.8502C16.8004 23.872 16.65 23.9303 16.5195 24.0201C16.4364 24.0753 16.3644 24.1449 16.3073 24.2256C16.2444 24.3234 16.1969 24.4312 16.1672 24.5456C15.9889 25.1664 15.7817 25.8916 15.5457 26.7204C15.3096 27.5492 15.0549 28.4361 14.7824 29.3785H14.4317L13.0894 24.9633L11.6885 29.3785H11.3573L10.5855 26.4403L10.0591 24.4055C10.0257 24.2872 9.96173 24.1794 9.87325 24.0923C9.78477 24.0052 9.67481 23.9418 9.55395 23.9082C9.47949 23.8858 9.40302 23.8702 9.32556 23.8618V23.5767H11.5017V23.8626C11.3389 23.8702 11.1771 23.8904 11.0177 23.9231C10.8819 23.9513 10.8156 24.001 10.8156 24.0715C10.8161 24.1076 10.8195 24.1436 10.8258 24.1792C10.8258 24.2223 10.8403 24.258 10.8454 24.2862C10.9022 24.5232 11.0041 24.9144 11.151 25.4598L11.8031 27.9048L13.0894 23.5767H13.4579L14.846 28.001C15.0269 27.3304 15.1823 26.7469 15.313 26.2496C15.4421 25.7532 15.5525 25.3255 15.6425 24.9666C15.7036 24.7163 15.7409 24.5439 15.7545 24.4511C15.7681 24.3732 15.7758 24.2936 15.7774 24.2149C15.7725 24.163 15.7531 24.1134 15.7214 24.0715C15.6915 24.0316 15.6501 24.0013 15.6025 23.9845C15.4239 23.9082 15.232 23.866 15.0371 23.8601V23.5767H16.967V23.8626L16.9585 23.8502ZM19.9165 29.3785H17.3694V29.0884L17.6802 29.0619C17.7778 29.0577 17.8754 29.0411 17.9688 29.0121C18.0442 28.9833 18.1088 28.9327 18.1539 28.8671C18.1992 28.7672 18.2213 28.6588 18.2185 28.5496V24.4055C18.2184 24.3263 18.2011 24.248 18.1675 24.1759C18.1224 24.0981 18.0486 24.04 17.9612 24.0135C17.8656 23.9775 17.7674 23.9487 17.6674 23.9273C17.5699 23.9025 17.4705 23.8853 17.3703 23.8759V23.5767H19.9174V23.8668C19.7167 23.8761 19.5179 23.9095 19.3256 23.9662C19.2824 23.9758 19.2418 23.9945 19.2067 24.0208C19.1715 24.0471 19.1426 24.0805 19.1218 24.1187C19.0864 24.1953 19.0685 24.2784 19.0692 24.3624V28.5496C19.0673 28.6364 19.0872 28.7223 19.1269 28.8C19.1714 28.8749 19.2401 28.9332 19.3222 28.9657C19.4114 28.9972 19.5022 29.0221 19.5956 29.0387C19.7 29.0627 19.8079 29.0768 19.9148 29.0826V29.3727L19.9165 29.3785ZM32.6896 29.3785H30.1424V29.0884L30.4532 29.0619C30.5508 29.0577 30.6476 29.0411 30.7419 29.0121C30.8172 28.9833 30.8818 28.9327 30.9269 28.8671C30.9723 28.7672 30.9943 28.6588 30.9915 28.5496V24.4055C30.9915 24.3263 30.9741 24.248 30.9405 24.1759C30.8952 24.098 30.8211 24.0398 30.7334 24.0135C30.6378 23.9775 30.5396 23.9487 30.4396 23.9273C30.3421 23.9025 30.2427 23.8853 30.1424 23.8759V23.5767H32.6896V23.8668C32.4892 23.8762 32.2907 23.9096 32.0986 23.9662C32.0553 23.9757 32.0145 23.9943 31.9792 24.0206C31.9439 24.0469 31.9148 24.0804 31.894 24.1187C31.8589 24.1953 31.8412 24.2785 31.8422 24.3624V28.5496C31.8401 28.6364 31.8596 28.7223 31.8991 28.8C31.9435 28.8749 32.0122 28.9332 32.0944 28.9657C32.1835 28.9972 32.2752 29.0221 32.3678 29.0387C32.4731 29.0627 32.58 29.0768 32.6879 29.0826V29.3727L32.6896 29.3785ZM24.6058 27.7208V29.3785H20.3606V29.0975C20.7231 29.0735 21.2249 29.0395 21.2096 28.5496V24.4055C21.2164 24.0126 20.7155 23.9065 20.3597 23.8668V23.5767H22.9077V23.8668C22.5511 23.8916 22.057 23.9977 22.0587 24.4055V28.5496C22.0587 28.8207 22.3108 29.071 22.8789 29.071C23.0232 29.071 23.1641 29.0635 23.3059 29.0378C23.8901 28.9334 24.1753 28.209 24.3519 27.7208H24.6058ZM29.7001 27.7208V29.3785H25.4549V29.0975C25.8174 29.0735 26.3192 29.0395 26.3039 28.5496V24.4055C26.3107 24.0126 25.8098 23.9065 25.454 23.8668V23.5767H28.002V23.8668C27.6454 23.8916 27.1512 23.9977 27.1529 24.4055V28.5496C27.1529 28.8207 27.4051 29.071 27.9731 29.071C28.1175 29.071 28.2584 29.0635 28.4002 29.0378C28.9843 28.9334 29.2696 28.209 29.4462 27.7208H29.7001ZM38.5802 29.3785H36.4924V29.0934C36.6554 29.0851 36.6937 29.0577 36.8507 29.0121C36.9798 28.9724 37.0435 28.9226 37.0435 28.8638C37.0454 28.8351 37.0454 28.8063 37.0435 28.7776C37.039 28.7462 37.0313 28.7154 37.0205 28.6856L36.5731 27.3926H34.7111C34.6502 27.5553 34.5919 27.7188 34.5362 27.8833C34.493 28.0112 34.4534 28.1403 34.4174 28.2703C34.3901 28.3631 34.3674 28.4572 34.3494 28.5521C34.3384 28.6093 34.3325 28.6665 34.3299 28.7245C34.338 28.7869 34.3656 28.8454 34.4089 28.892C34.4513 28.9367 34.5065 28.9665 34.5659 28.9748C34.7358 29.0362 34.9124 29.0718 35.0907 29.0801V29.3652H33.0996V29.0934C33.1812 29.0842 33.2627 29.0685 33.3416 29.0461C33.4276 29.0257 33.5092 28.9906 33.5828 28.9425C33.6719 28.8795 33.7509 28.8 33.8154 28.708C33.8816 28.606 33.936 28.4958 33.9767 28.3789C34.245 27.6628 34.8623 25.9604 34.8623 25.9604L35.6434 23.5767H35.9287L37.7966 28.5016C37.8263 28.5927 37.8696 28.6773 37.9239 28.7552C37.9808 28.8281 38.0479 28.8911 38.1234 28.9425C38.1931 28.9856 38.2678 29.0171 38.3467 29.037C38.4232 29.0594 38.5013 29.0743 38.5802 29.0801V29.3785ZM36.4924 26.8945L35.6434 24.8299L34.8623 26.8945H36.4924ZM45.8319 29.3743H43.407V29.0842C43.7636 29.0784 44.15 29.0096 44.1338 28.5496V24.4055L42.3339 29.2815H42.1445L40.3055 24.4055V27.6984C40.2987 27.9545 40.3182 28.2107 40.3649 28.461C40.387 28.6052 40.4498 28.7378 40.5449 28.8422C40.6527 28.9251 40.7759 28.9806 40.9058 29.0063C41.0195 29.0445 41.1359 29.0718 41.2539 29.0892V29.3785H39.0396V29.0851C39.161 29.0726 39.2815 29.0519 39.4004 29.0237C39.5087 29.0028 39.6101 28.9564 39.6959 28.8886C39.7937 28.7939 39.8569 28.6704 39.8759 28.5372C39.9169 28.2762 39.934 28.0121 39.9268 27.7482V24.7785C39.9312 24.636 39.9117 24.4938 39.8691 24.3574C39.835 24.2557 39.7762 24.1634 39.6977 24.0887C39.6192 24.0139 39.5233 23.9588 39.4182 23.9281C39.3079 23.8949 39.155 23.8751 39.0396 23.8693V23.5767H40.9491L42.5139 27.9313L44.1338 23.5767L45.8319 23.5783V23.8668C45.4668 23.8875 44.9795 23.9513 44.9829 24.4055V28.5496C44.9727 29.0171 45.4736 29.0635 45.8319 29.0867V29.3768V29.3743ZM40.7377 36.8338H38.3128V36.5437C38.6694 36.5379 39.0557 36.4691 39.0396 36.0091V31.865L37.2396 36.741H37.0503L35.2112 31.865V35.1579C35.2044 35.414 35.224 35.6701 35.2707 35.9204C35.2927 36.0646 35.3556 36.1973 35.4507 36.3017C35.5585 36.3846 35.6816 36.4401 35.8115 36.4658C35.9253 36.5039 36.0416 36.5313 36.1596 36.5487V36.8379H33.9453V36.5445C34.0667 36.5321 34.1873 36.5114 34.3061 36.4832C34.4144 36.4623 34.5158 36.4159 34.6016 36.3481C34.6992 36.2536 34.7625 36.1304 34.7816 35.9975C34.8227 35.7362 34.8398 35.4719 34.8325 35.2076V32.2379C34.8369 32.0955 34.8174 31.9532 34.7748 31.8169C34.7408 31.7151 34.682 31.6229 34.6034 31.5481C34.5249 31.4734 34.429 31.4183 34.324 31.3876C34.2136 31.3544 34.0608 31.3345 33.9453 31.3287V31.0361H35.8548L37.4196 35.3908L39.0396 31.0361L40.7377 31.0378V31.3262C40.3726 31.3469 39.8852 31.4108 39.8886 31.865V36.0091C39.8784 36.4766 40.3794 36.523 40.7377 36.5462V36.8363V36.8338ZM49.7324 26.7047C49.847 26.8307 49.9362 26.9782 49.9931 27.1382C50.0525 27.3147 50.0805 27.4995 50.0763 27.6852C50.0813 27.9146 50.035 28.1423 49.9404 28.3524C49.8467 28.561 49.7066 28.7468 49.5304 28.8961C49.1612 29.2185 48.6797 29.3908 48.1846 29.3776C47.9329 29.377 47.6829 29.3381 47.4434 29.2624C47.2197 29.1947 47.0055 29.1 46.8058 28.9806L46.6411 29.3776H46.3278V27.352H46.585C46.6445 27.5691 46.7209 27.7813 46.8143 27.986C46.9043 28.1783 47.0206 28.3565 47.1607 28.5148C47.294 28.6657 47.4544 28.79 47.6344 28.8795C47.8306 28.9748 48.0471 29.0213 48.2644 29.0163C48.4248 29.0195 48.5845 28.9957 48.7365 28.9458C48.8562 28.908 48.9648 28.8426 49.0532 28.7552C49.1426 28.6672 49.2095 28.5598 49.2485 28.4419C49.2909 28.3126 49.3105 28.1767 49.3079 28.0407C49.31 27.8213 49.2469 27.606 49.1262 27.4208C48.9919 27.2218 48.7967 27.0692 48.5684 26.9848C48.4011 26.9185 48.2075 26.8439 47.9876 26.761C47.7677 26.6782 47.5793 26.6011 47.4213 26.529C47.135 26.4097 46.8844 26.2215 46.6928 25.9819C46.5094 25.7195 46.4185 25.4058 46.4339 25.0885C46.4339 24.8846 46.478 24.684 46.5655 24.5C46.6525 24.315 46.7763 24.1488 46.9297 24.011C47.086 23.8717 47.2668 23.764 47.4629 23.6919C47.6684 23.6156 47.8858 23.5758 48.104 23.5767C48.3379 23.5728 48.5704 23.6125 48.7891 23.6935C48.9793 23.7681 49.1627 23.8593 49.3359 23.9671L49.527 23.5775H49.8403V25.5427H49.5304C49.4766 25.3379 49.4123 25.136 49.3376 24.9376C49.2697 24.752 49.176 24.5763 49.0591 24.4154C48.9512 24.2662 48.8113 24.1418 48.649 24.0508C48.4664 23.956 48.2615 23.9097 48.0547 23.9165C47.8203 23.9125 47.5936 23.9981 47.423 24.1552C47.3384 24.2282 47.2711 24.3184 47.2261 24.4195C47.1811 24.5206 47.1593 24.6301 47.1624 24.7403C47.1539 24.9517 47.2133 25.1606 47.3305 25.3371C47.4578 25.5054 47.6268 25.6388 47.8204 25.7233C48.0029 25.812 48.1906 25.8908 48.3807 25.9604C48.5641 26.0267 48.7424 26.098 48.9148 26.1734C49.0676 26.243 49.2162 26.3209 49.3588 26.4088C49.4972 26.4892 49.6221 26.5886 49.7324 26.7047ZM16.1765 34.165C16.2903 34.2893 16.3786 34.436 16.4363 34.5951C16.4957 34.7717 16.5246 34.9573 16.5204 35.1438C16.5255 35.3742 16.4788 35.6038 16.3845 35.8135C16.2911 36.0226 16.1513 36.2088 15.9753 36.3589C15.6066 36.6806 15.1255 36.8517 14.6312 36.8371C14.3808 36.8371 14.1303 36.7973 13.8917 36.7211C13.6673 36.6549 13.4523 36.5616 13.2515 36.4434L13.086 36.7252H12.7735L12.7192 34.8197H13.0333C13.0928 35.0377 13.1692 35.2507 13.2626 35.4571C13.3517 35.6494 13.468 35.8284 13.6081 35.9876C13.7406 36.1392 13.9011 36.2636 14.0811 36.3539C14.2763 36.4492 14.492 36.4956 14.7094 36.4907C14.8698 36.494 15.0286 36.4699 15.1806 36.4194C15.2999 36.3781 15.4078 36.3103 15.4957 36.2214C15.5837 36.1326 15.6493 36.025 15.6875 35.9072C15.7299 35.777 15.7503 35.6411 15.7469 35.5043C15.7492 35.2845 15.6864 35.0686 15.566 34.8827C15.4327 34.6829 15.2381 34.5294 15.0099 34.4443C14.8148 34.3734 14.6201 34.3015 14.4258 34.2288C14.2354 34.1584 14.0477 34.0816 13.8629 33.9984C13.5765 33.8784 13.3261 33.6893 13.1352 33.4489C12.9515 33.1853 12.8603 32.8706 12.8754 32.5521C12.8746 32.3482 12.9179 32.1468 13.0045 31.9628C13.0919 31.7763 13.2159 31.6097 13.3679 31.4721C13.5241 31.3329 13.7049 31.2234 13.9011 31.1513C14.1065 31.0743 14.3247 31.0353 14.5446 31.0361C14.7773 31.0328 15.0091 31.0726 15.2281 31.1538C15.4175 31.2284 15.6 31.3196 15.7732 31.4273L15.9328 31.1605H16.2461L16.2767 33.0096H15.9693C15.9158 32.804 15.8514 32.6012 15.7766 32.402C15.7087 32.2147 15.6153 32.0374 15.499 31.8766C15.3915 31.7268 15.2518 31.6018 15.0897 31.5102C14.9078 31.415 14.7034 31.3684 14.4971 31.3751C14.263 31.3706 14.0365 31.4561 13.8663 31.613C13.783 31.6868 13.7166 31.7769 13.6716 31.8774C13.6265 31.978 13.6037 32.0867 13.6047 32.1965C13.5963 32.4087 13.6548 32.6192 13.772 32.7957C13.8977 32.9656 14.0658 33.0999 14.2585 33.1853C14.4411 33.274 14.6278 33.3535 14.8189 33.4232C15.0014 33.4903 15.1797 33.5616 15.3512 33.6378C15.5058 33.7041 15.656 33.782 15.8004 33.8682C15.9388 33.9486 16.0661 34.0481 16.1765 34.165ZM22.0332 31.8293C22.3134 32.0921 22.5316 32.402 22.6751 32.741C22.8339 33.1256 22.9128 33.5317 22.9077 33.9412C22.9137 34.3514 22.833 34.7584 22.6708 35.143C22.5209 35.4887 22.2974 35.7995 22.0154 36.0547C21.7479 36.3033 21.4278 36.5006 21.0729 36.634C20.3186 36.9117 19.4857 36.907 18.7347 36.6208C18.3856 36.4868 18.0679 36.2852 17.8007 36.0282C17.5342 35.7643 17.3261 35.4498 17.1894 35.104C17.0384 34.7354 16.9623 34.3415 16.9653 33.9445C16.9548 33.5329 17.0311 33.1235 17.1894 32.7419C17.3407 32.4003 17.5604 32.0917 17.8355 31.8341C18.1106 31.5765 18.4357 31.3751 18.7916 31.2417C19.5315 30.9669 20.3491 30.9669 21.0891 31.2417C21.4457 31.376 21.7683 31.5757 22.0341 31.8293H22.0332ZM21.3845 35.7629C21.5526 35.5143 21.6732 35.2408 21.7411 34.9565C21.894 34.2795 21.8896 33.5778 21.7284 32.9027C21.6578 32.6119 21.5342 32.3359 21.3633 32.0879C21.2017 31.8639 20.9856 31.6826 20.7344 31.5603C20.4831 31.438 20.2047 31.3787 19.9242 31.3876C19.61 31.3793 19.301 31.4539 19.0344 31.6031C18.7962 31.7465 18.5961 31.9427 18.4502 32.1758C18.2961 32.4252 18.1859 32.6981 18.1242 32.9831C18.052 33.3014 18.0164 33.6267 18.0181 33.9528C18.0147 34.2943 18.0529 34.6349 18.1327 34.9689C18.2006 35.254 18.3212 35.5267 18.491 35.7762C18.637 35.9958 18.8408 36.1807 19.0853 36.3149C19.3451 36.4476 19.6406 36.5155 19.9403 36.5081C20.2337 36.5126 20.5235 36.4453 20.7834 36.3125C21.033 36.1782 21.2393 35.9892 21.3845 35.7629Z" fill="#F5F7FB"/>
<path d="M27.9918 31.3113C27.8965 31.326 27.8033 31.3516 27.7142 31.3875C27.6174 31.4132 27.524 31.4555 27.4374 31.5143C27.3415 31.623 27.2867 31.7605 27.282 31.9039C27.2509 32.1458 27.2367 32.3895 27.2395 32.6332V36.8379H26.9449L24.0785 32.1359V35.099C24.0726 35.3559 24.0904 35.6129 24.1295 35.8648C24.1467 36.002 24.2006 36.1324 24.2857 36.2428C24.3774 36.3257 24.4835 36.382 24.5965 36.4086C24.6983 36.4467 24.8019 36.4732 24.9072 36.4906V36.8379H22.9077V36.4939C23.013 36.4782 23.1913 36.4525 23.2932 36.4144C23.3905 36.3902 23.4816 36.3464 23.5606 36.2859C23.6469 36.1877 23.7011 36.0664 23.716 35.9378C23.7517 35.675 23.7669 35.409 23.7602 35.1421V32.3175C23.7602 32.189 23.7423 32.0605 23.7067 31.9395C23.6811 31.8347 23.6324 31.7365 23.564 31.6519C23.4728 31.5548 23.3621 31.4769 23.2388 31.4231C23.1357 31.3696 23.0235 31.3345 22.9077 31.3195V31.0361H24.2543L26.9135 35.4189V32.6838C26.9195 32.4258 26.9019 32.1679 26.8609 31.913C26.847 31.7809 26.7928 31.6559 26.7055 31.5541C26.6113 31.487 26.5059 31.4365 26.3939 31.4049C26.2904 31.3653 26.1823 31.338 26.0721 31.3237V31.0361H28.002V31.3237H28.0003L27.9918 31.3113ZM33.0708 31.8284C33.3501 32.0912 33.5683 32.4012 33.7127 32.7402C33.8714 33.1239 33.9504 33.53 33.9453 33.9386C33.9512 34.3489 33.8706 34.7559 33.7084 35.1388C33.5583 35.4849 33.3346 35.796 33.0521 36.0513C32.7838 36.3 32.4629 36.4964 32.108 36.6299C31.3571 36.9092 30.5273 36.9092 29.7765 36.6299C29.4248 36.493 29.1056 36.2874 28.8383 36.0256C28.5717 35.7621 28.3636 35.4478 28.227 35.1023C28.0758 34.7345 27.9994 34.3416 28.002 33.9453C27.9935 33.5342 28.0733 33.1256 28.2363 32.741C28.388 32.3993 28.6081 32.0907 28.8836 31.8332C29.1592 31.5757 29.4847 31.3746 29.841 31.2416C30.5822 30.967 31.4008 30.967 32.1419 31.2416C32.488 31.3753 32.8032 31.5751 33.0691 31.8293L33.0708 31.8284ZM32.428 35.7596C32.5962 35.5109 32.7167 35.2374 32.7846 34.9531C32.9375 34.2752 32.9341 33.5773 32.7728 32.901C32.7022 32.6104 32.5785 32.3347 32.4077 32.087C32.2458 31.8627 32.0292 31.6812 31.7775 31.5589C31.5259 31.4367 31.247 31.3775 30.966 31.3867C30.6542 31.3776 30.3459 31.4522 30.0745 31.6022C29.8312 31.7444 29.6263 31.9413 29.4768 32.1766C29.3227 32.4257 29.2125 32.6983 29.1507 32.983C29.0785 33.3011 29.0429 33.6261 29.0446 33.9519C29.0429 34.2926 29.0837 34.6332 29.1652 34.9656C29.2331 35.2507 29.3545 35.5234 29.5235 35.772C29.6704 35.9925 29.875 36.1765 30.1195 36.3108C30.3793 36.4434 30.6756 36.5113 30.9762 36.5039C31.27 36.5072 31.5603 36.4392 31.8167 36.3083C32.0689 36.1757 32.2803 35.9867 32.428 35.7596ZM46.6793 36.8379H44.6348V36.5503C44.7867 36.542 44.937 36.5146 45.083 36.4699C45.2019 36.4301 45.2613 36.3804 45.2613 36.3207C45.2631 36.2923 45.2631 36.2638 45.2613 36.2353C45.2576 36.2038 45.2508 36.1727 45.241 36.1425L44.8317 34.862H43.0869C43.0216 35.0501 42.9681 35.2134 42.9248 35.3526C42.8846 35.4804 42.8478 35.6092 42.8144 35.7389C42.7889 35.8317 42.7677 35.9262 42.7507 36.0207C42.7405 36.0779 42.7337 36.1359 42.7329 36.1939C42.7414 36.2569 42.7669 36.3157 42.8068 36.3605C42.8458 36.4061 42.8968 36.4351 42.952 36.4434C43.109 36.5047 43.2737 36.5403 43.4393 36.5486V36.8337H41.5867V36.5486C41.6631 36.5403 41.737 36.5238 41.8108 36.5014C41.8914 36.4809 41.9674 36.4461 42.035 36.3986C42.1173 36.3373 42.1904 36.2602 42.2515 36.1715C42.3126 36.0696 42.3619 35.9585 42.4001 35.8425C42.6497 35.1264 42.9239 34.3199 43.2228 33.4231C43.5217 32.5271 43.8986 31.7315 44.1338 31.0361H44.3325L45.9533 35.961C45.9813 36.0522 46.0212 36.1367 46.0722 36.2146C46.1248 36.2875 46.1877 36.3505 46.2573 36.4019C46.3208 36.4448 46.3911 36.4773 46.4653 36.4981C46.5358 36.5204 46.6079 36.5354 46.681 36.5412V36.8263L46.6793 36.8379ZM44.6789 34.3597L44.02 32.2992L43.2763 34.3597H44.6789Z" fill="#F5F7FB"/>
</g>
<defs>
<clipPath id="clip0_1534_8431">
<rect width="42" height="14" fill="white" transform="translate(9 23)"/>
</clipPath>
</defs>
</svg>
