<svg width="60" height="60" viewBox="0 0 60 60" fill="none" xmlns="http://www.w3.org/2000/svg">
<rect width="60" height="60" fill="black"/>
<g clip-path="url(#clip0_1534_8427)">
<path d="M46.0577 15.6616L32.5357 9.79248C31.4389 9.43441 30.2549 9.43441 29.1581 9.79248L14.7263 16.0724C13.6943 16.6702 12.9393 17.6436 12.6224 18.7847C12.4518 19.5725 12.9067 21.3282 13.0886 22.251L17.1941 39.8978C17.5353 41.3496 18.32 42.3738 18.8545 42.8127C21.7432 44.7709 27.8275 48.89 29.0557 49.6328C30.2839 50.3869 31.933 49.9479 32.5926 49.6328L42.5549 43.049C43.3712 42.3972 43.986 41.5315 44.329 40.5506L48.6733 22.251C48.8667 21.5758 49.1624 19.8651 48.8439 18.5371C48.5141 17.2203 46.8651 16.0837 46.069 15.6785L46.0577 15.6616Z" fill="#9EB1C3"/>
<path d="M44.727 16.8096L32.3765 11.4244C31.3795 11.0981 30.3029 11.0981 29.3059 11.4244L16.1137 17.1866C15.1771 17.7362 14.4923 18.6237 14.2031 19.6625C14.0439 20.3828 14.4533 22.0034 14.6239 22.8475L18.3768 39.065C18.6953 40.4043 19.4004 41.3384 19.8894 41.7435C22.9736 43.8719 26.0823 45.9653 29.2149 48.0235C30.3294 48.6987 31.8306 48.3048 32.4333 48.0235L41.5314 41.9686C42.2818 41.3661 42.8455 40.5665 43.1576 39.6615L47.1153 22.8475C47.2972 22.2173 47.5702 20.6642 47.2745 19.4487C46.9788 18.222 45.4549 17.1866 44.7384 16.8152L44.727 16.8096Z" fill="url(#paint0_linear_1534_8427)"/>
<path d="M44.727 16.8096L32.3765 11.4244C31.7851 11.2443 31.2392 11.1768 30.7843 11.1768V48.4061C31.4667 48.3948 32.0921 48.1923 32.4333 48.0347L41.5314 41.9799C42.2818 41.3774 42.8455 40.5778 43.1576 39.6727L47.1153 22.8588C47.2972 22.2285 47.5702 20.6754 47.2745 19.4599C46.9788 18.2332 45.4549 17.1978 44.7384 16.8264L44.727 16.8096Z" fill="url(#paint1_linear_1534_8427)"/>
<path d="M16.671 24.1137C16.1479 24.1419 15.3177 23.928 15.022 23.793C15.5565 25.8525 19.1161 26.8316 20.822 27.0567C18.8773 27.9008 17.069 29.8591 16.4094 30.7031L16.7847 32.3913C17.9561 29.8816 22.3118 27.5632 23.8357 26.8429C21.2568 26.542 18.7944 25.6098 16.671 24.1306V24.1137Z" fill="#014CB6"/>
<path d="M39.4388 43.3472C32.6494 43.893 32.3423 39.3913 33.0816 37.1179C31.6259 37.7819 31.4098 39.2788 31.4894 39.9428C31.8647 43.3191 35.4698 44.7033 37.1302 44.9734L39.4502 43.3641L39.4388 43.3472Z" fill="#0764D2"/>
<path d="M16.7847 32.2506C17.649 30.7144 20.2533 27.4281 23.6196 26.9104C21.6863 26.7303 17.6035 25.9313 16.6255 24.1306C19.2412 23.8942 24.8592 23.1965 26.349 22.3299C28.2027 21.227 30.4773 20.698 34.5145 20.9794L40.2576 17.9745C40.9173 17.6143 42.2592 17.2992 42.4071 18.8636C42.0318 18.9761 41.1788 19.2462 40.7694 19.46H42.8051C43.2031 19.9665 43.6353 21.2607 42.1341 22.4537L41.6565 24.1306L41.0424 23.1289C40.8604 23.4216 40.4055 24.3669 40.0188 25.8412L39.109 24.7721L36.1635 28.2159L36.8914 28.5535L40.7694 26.6741L41.0424 25.2448L41.8384 26.2802L42.6686 25.8412C42.8961 26.9554 42.5549 29.7803 39.4047 32.2337C35.4698 35.3061 34.8671 37.0731 34.3325 40.9671C33.7867 40.2918 32.7859 38.6036 33.2408 37.1068C32.7266 37.4059 32.3012 37.8339 32.0077 38.3477C31.7142 38.8614 31.5629 39.4428 31.569 40.0329C31.6031 42.07 34.1506 44.5009 37.4145 44.816L32.4106 48.1586C31.7055 48.5637 30.1247 48.7551 29.1012 48.1586L19.7871 41.7436C18.9218 40.8792 18.3598 39.7628 18.1835 38.5586L16.7847 32.2787V32.2506ZM26.3149 27.3606L32.2741 25.6724L32.9223 24.8171H28.6235L29.4082 25.4473L26.3376 27.3606H26.3149Z" fill="url(#paint2_linear_1534_8427)"/>
</g>
<defs>
<linearGradient id="paint0_linear_1534_8427" x1="19.1616" y1="21.1931" x2="32.4343" y2="37.7938" gradientUnits="userSpaceOnUse">
<stop stop-color="#0986DB"/>
<stop offset="1" stop-color="#0A78DB"/>
</linearGradient>
<linearGradient id="paint1_linear_1534_8427" x1="31.7851" y1="13.9228" x2="38.7182" y2="48.4793" gradientUnits="userSpaceOnUse">
<stop stop-color="#118DF9"/>
<stop offset="1" stop-color="#0141B1"/>
</linearGradient>
<linearGradient id="paint2_linear_1534_8427" x1="29.9086" y1="17.6818" x2="29.9086" y2="48.5412" gradientUnits="userSpaceOnUse">
<stop stop-color="#EAEFF1"/>
<stop offset="1" stop-color="#9EB1C3"/>
</linearGradient>
<clipPath id="clip0_1534_8427">
<rect width="37" height="42" fill="white" transform="translate(12 9)"/>
</clipPath>
</defs>
</svg>
