<svg width="60" height="60" viewBox="0 0 60 60" fill="none" xmlns="http://www.w3.org/2000/svg">
<rect width="60" height="60" fill="#121212"/>
<g clip-path="url(#clip0_1403_9028)">
<path d="M28.4187 23.0082C31.6303 23.0082 33.7533 24.2688 33.7533 27.6457C33.7533 31.2004 31.4461 32.4609 28.1641 32.4609H26.2686V36.9945H43.0929L50.992 23.0082H28.4187Z" fill="#00AABF" fill-opacity="0.5"/>
<path d="M28.4187 23.0082C31.6303 23.0082 33.7533 24.2688 33.7533 27.6457C33.7533 31.2004 31.4461 32.4609 28.1641 32.4609H26.2686V36.9945H43.0929L50.992 23.0082H28.4187Z" fill="#00C96C" fill-opacity="0.5"/>
<path d="M28.1666 32.4609C31.4459 32.4609 33.7531 31.2004 33.7531 27.6457C33.7531 24.2688 31.6246 23.0082 28.4185 23.0082H22.5368V36.9945H26.2684V32.4609H28.1666ZM26.2711 26.1691H28.3237C29.526 26.1691 29.9863 26.7816 29.9863 27.7059C29.9863 28.7613 29.4962 29.3027 28.2668 29.3027H26.2711V26.1691ZM21.2614 36.9945L17.2293 29.8578L21.0989 23.0137H16.9098L15.1361 26.15L13.3624 23.0137H9.34109L13.1241 29.7129L9.01343 36.9945H13.1972L15.2173 33.4234L17.2374 36.9945H21.2614Z" fill="white"/>
</g>
<defs>
<clipPath id="clip0_1403_9028">
<rect width="42" height="14" fill="white" transform="translate(9 23)"/>
</clipPath>
</defs>
</svg>
