<svg width="60" height="60" viewBox="0 0 60 60" fill="none" xmlns="http://www.w3.org/2000/svg">
<rect width="60" height="60" fill="#0077C8"/>
<path d="M15.2683 11.2807C18.1132 11.2742 20.9581 11.2807 23.803 11.2758C27.9118 11.2315 32.0833 12.1617 35.656 14.2732C38.9565 16.2009 41.6404 19.241 43.0459 22.8552C44.5835 26.8157 44.7171 31.3077 43.508 35.3781C42.8592 33.616 41.7096 32.0575 40.2252 30.9386C38.1032 29.3143 35.5594 28.4087 33.0332 27.6737C30.7293 26.9994 28.3545 26.6237 26.0522 25.9494C23.5728 25.2407 21.0628 24.4352 18.9118 22.952C17.8379 22.2088 16.9009 21.2327 16.31 20.0465C15.5485 18.5585 15.3585 16.8572 15.2683 15.2051V11.2807Z" fill="white"/>
<path d="M15.2683 28.9879C17.1279 30.1215 19.0841 31.1059 21.1336 31.8327C25.0459 33.2633 29.2143 33.7489 33.1411 35.127C34.7962 35.7193 36.5286 36.387 37.7345 37.7422C38.8551 38.9956 39.0145 40.8282 38.7955 42.436C38.4316 44.7082 36.7202 46.5112 34.7689 47.5317C31.8032 49.0919 28.3739 49.4512 25.0814 49.2822C22.8016 49.0542 20.5781 48.4012 18.4465 47.5645C17.3533 47.1068 16.2536 46.6359 15.2683 45.9649V28.9879Z" fill="white"/>
</svg>
