<svg width="60" height="60" viewBox="0 0 60 60" fill="none" xmlns="http://www.w3.org/2000/svg">
<rect width="60" height="60" fill="#007FA8"/>
<g clip-path="url(#clip0_168_385)">
<path d="M21.245 32.5539H21.1857C20.7419 32.5539 20.4936 31.8957 20.053 30.7066L19.324 28.7052C18.6383 26.8421 17.943 26.0044 16.3536 26.0044C15.019 26.0044 14.3333 26.8024 13.5082 27.9136L12.9058 28.7179L10.9672 26.1316H8.89079L11.8756 30.0135L10.7092 31.5651C10.1132 32.3615 9.74474 32.5983 9.23526 32.5983H8.88599V34.0497H9.62938C10.4897 34.0497 11.0873 33.7604 11.5984 33.0467L12.8753 31.2694L14.9245 34.0513H17.0137L13.9055 29.977L14.6842 28.958C15.3875 28.0217 15.7224 27.5765 16.3184 27.5765C16.9496 27.5765 17.2636 28.1568 17.7988 29.5096L18.6864 31.7622C19.1958 33.0769 19.6957 34.0497 20.5977 34.0497H20.7131L20.2533 35.1943C19.896 36.0909 19.5563 36.6441 18.6159 36.6441H18.2041V38.1209C18.2041 38.1209 18.5261 38.1209 18.8017 38.1209C20.1972 38.1209 21.1921 37.4373 21.841 35.6474L25.2872 26.1316H23.4223L21.245 32.5539ZM26.1284 31.6509C26.1284 33.3471 26.8285 34.0497 28.2833 34.0497H29.0763V32.5586H28.703C28.1679 32.5586 27.8699 32.2963 27.8699 31.6509V21.8791H26.1284V31.6509ZM31.6478 29.4349H35.9864C35.7845 28.2585 35.0075 27.4923 33.8556 27.4923C32.6603 27.4923 31.8993 28.284 31.6478 29.4349ZM37.4636 32.8114C36.4975 33.6189 35.4545 34.169 34.0094 34.169C31.3834 34.169 29.8373 32.4759 29.8373 30.0867C29.8373 27.7419 31.502 26.0044 33.8556 26.0044C36.3004 26.0044 37.7904 27.885 37.7904 30.2218C37.7904 30.5159 37.7648 30.8084 37.7648 30.8084H31.6542C31.8833 31.9561 32.5882 32.6731 34.0094 32.6731C35.0075 32.6731 35.7092 32.2757 36.3325 31.7113L37.4636 32.8114ZM51.1139 32.5983V34.0497H50.2888C48.8934 34.0497 48.2141 33.3296 48.2141 31.7145V29.1806C48.2141 28.3905 47.9641 27.575 46.9564 27.575C45.947 27.575 45.6266 28.3905 45.6266 29.1806V34.0513H43.8674V29.1806C43.8674 28.3905 43.5181 27.575 42.4864 27.575C41.4546 27.575 41.1229 28.3905 41.1229 29.1806V34.0513H39.375V29.1265C39.375 27.1998 40.6214 26.0123 42.4783 26.0123C43.4172 26.0123 44.2023 26.3461 44.747 26.9232C45.2917 26.3461 46.0656 26.0123 47.006 26.0123C48.7235 26.0123 49.9444 27.1076 49.9444 29.1265L49.9459 31.7399C49.9459 32.3361 50.2199 32.5983 50.7293 32.5983H51.1139Z" fill="white"/>
</g>
<defs>
<clipPath id="clip0_168_385">
<rect width="44" height="18" fill="white" transform="translate(8 21)"/>
</clipPath>
</defs>
</svg>
