<svg width="60" height="60" viewBox="0 0 60 60" fill="none" xmlns="http://www.w3.org/2000/svg">
<rect width="60" height="60" fill="black"/>
<g clip-path="url(#clip0_1772_9528)">
<path fill-rule="evenodd" clip-rule="evenodd" d="M30 50C18.9395 50 10 41.0605 10 30C10 18.9395 18.9395 10 30 10C41.0605 10 50 18.9395 50 30C50 41.0605 41.0605 50 30 50ZM48.4 30C48.4 19.8237 40.1763 11.6 30 11.6C19.8237 11.6 11.6 19.8237 11.6 30C11.6 40.1763 19.8237 48.4 30 48.4C40.1763 48.4 48.4 40.1763 48.4 30ZM30.6 30.6H39.4V32.2H35.8V39.4H34.2V32.2H30.6V30.6ZM29.6 31.5316L26.1316 35L29.6 38.4684L28.4684 39.6L25 36.1316L21.5316 39.6L20.4 38.4684L23.8684 35L20.4 31.5316L21.5316 30.4L25 33.8684L28.4684 30.4L29.6 31.5316ZM30.4 24.9C30.4 22.4158 32.4132 20.4 34.9 20.4C36.4842 20.4 37.8737 21.2184 38.6763 22.4553L33.6263 27.5053C34.0105 27.6947 34.4421 27.8 34.9 27.8C36.5026 27.8 37.8 26.5026 37.8 24.9H39.4C39.4 27.3842 37.3842 29.4 34.9 29.4C32.4132 29.4 30.4 27.3842 30.4 24.9ZM32 24.9C32 25.4632 32.1605 25.9868 32.4368 26.4316L36.4316 22.4368C35.9868 22.1605 35.4632 22 34.9 22C33.2974 22 32 23.2974 32 24.9ZM28.3737 20.4L29.6 21.4289L25.8 25.9579V29.4H24.2V25.9579L20.4 21.4289L21.6263 20.4L25 24.4211L28.3737 20.4Z" fill="white"/>
</g>
<defs>
<clipPath id="clip0_1772_9528">
<rect width="40" height="40" fill="white" transform="translate(10 10)"/>
</clipPath>
</defs>
</svg>
