<svg width="60" height="60" viewBox="0 0 60 60" fill="none" xmlns="http://www.w3.org/2000/svg">
<rect width="60" height="60" fill="black"/>
<path d="M28.6613 22.0063H35.1943L32.4451 19.6345H29.0338C31.3242 19.3991 33.034 17.2841 33.034 14.8251C33.034 12.2322 31.1929 10.0754 28.6081 10.0754V19.6345L20.7946 11.7256C20.3689 11.9622 20.0095 12.1641 19.65 12.3995C19.2243 12.703 18.8649 13.0065 18.4392 13.2753L26.2433 20.6872V37.5577L30.973 42.3372V38.7525L28.6081 36.3628L28.6732 22.0242L28.6613 22.0063ZM38.0676 29.1935L35.7027 26.8037V36.3628H38.0676V29.1935Z" fill="#FEFEFD"/>
<path d="M30.9612 22.0063V36.3628H33.3379V24.414L30.9731 22.0243L30.9612 22.0063ZM39.2501 26.8038L36.8852 24.414H33.3379L35.7028 26.8038H39.2501ZM23.8785 35.1679V21.5344L16.7354 14.855C16.0791 15.6054 15.4595 16.4227 14.9854 17.3427L20.3312 22.7268V26.8504L13.7829 20.3072C13.4553 21.4328 13.2366 23.2191 13.2366 24.414C13.3099 24.414 23.5509 34.8608 23.8785 35.1679ZM13.2366 28.3332V32.4101L30.9731 50.7014V46.726L13.2366 28.3332ZM43.8379 32.7782H40.4325V36.3628H38.0677C38.0677 38.9497 40.2138 41.1423 42.7974 41.1423C45.3798 41.1423 47.5271 38.9915 47.5271 36.4058L43.8379 32.7782Z" fill="#FEFEFD"/>
</svg>
