<svg width="60" height="60" viewBox="0 0 60 60" fill="none" xmlns="http://www.w3.org/2000/svg">
<rect width="60" height="60" fill="#222D60"/>
<g clip-path="url(#clip0_168_512)">
<path fill-rule="evenodd" clip-rule="evenodd" d="M13.8481 11L12.6589 13.1028H10.1816L11.42 15.3052L10.1816 17.5013H12.6589L13.8481 19.6041L15.0374 17.5013H17.5146L16.2757 15.3052L17.5146 13.1028H15.0374L13.8481 11ZM24.6051 11L23.4159 13.1028H20.9386L22.177 15.3052L20.9386 17.5013H23.4159L24.6051 19.6041L25.7937 17.5013H28.271L27.0327 15.3052L28.271 13.1028H25.7937L24.6051 11ZM35.3603 11L34.1729 13.1028H31.6956L32.934 15.3052L31.6956 17.5013H34.1729L35.3603 19.6041L36.5489 17.5013H39.0262L37.7878 15.3052L39.0262 13.1028H36.5489L35.3603 11ZM46.1517 11L44.9625 13.1028H42.4852L43.7241 15.3052L42.4852 17.5013H44.9625L46.1517 19.6041L47.3409 17.5013H49.8182L48.5792 15.3052L49.8182 13.1028H47.3409L46.1517 11ZM19.3823 20.5311L18.1931 22.6339H15.7158L16.9547 24.8301L15.7158 27.0262H18.1931L19.3823 29.1352L20.5715 27.0262H23.0488L21.8104 24.8301L23.0488 22.6339H20.5715L19.3823 20.5311ZM29.9999 20.5311L28.8107 22.6339H26.3334L27.5724 24.8301L26.3334 27.0262H28.8107L29.9999 29.1352L31.1891 27.0262H33.6664L32.4275 24.8301L33.6664 22.6339H31.1891L29.9999 20.5311ZM40.6175 20.5311L39.4283 22.6339H36.951L38.1894 24.8301L36.951 27.0262H39.4283L40.6175 29.1352L41.8068 27.0262H44.284L43.0451 24.8301L44.284 22.6339H41.8068L40.6175 20.5311ZM10.2934 32.0406V37.0675L17.6909 37.0799L10.2934 43.8923V49H25.5353V44.1225H17.3784L25.5353 36.9617V32.0406H10.2934ZM27.4109 32.0406V49H31.6422V32.0406H27.4109ZM33.3361 32.0406V49H37.821V41.0242L40.4868 49H43.0101L45.6765 41.0242V49H49.8034V32.0406H44.5149L41.7773 39.8671L39.0372 32.0406H33.3361Z" fill="white"/>
</g>
<defs>
<clipPath id="clip0_168_512">
<rect width="40" height="38" fill="white" transform="translate(10 11)"/>
</clipPath>
</defs>
</svg>
