<svg width="60" height="60" viewBox="0 0 60 60" fill="none" xmlns="http://www.w3.org/2000/svg">
<rect width="60" height="60" fill="#F65C00"/>
<path d="M48.0177 35.7931L50.2751 39.0353C48.784 40.5623 43.5237 45.3525 35.6538 45.3525C24.5533 45.3525 23.8491 37.0691 12.8107 37.0691H9.57988L9 33.7013L21.4882 20.8579H11.7959L12.5414 16.9044H28.4053L27.7219 20.5232L15.6065 33.011C24.9053 33.011 27.1834 41.4827 36.2959 41.4827C41.8669 41.4618 46.4231 37.5502 48.0177 35.7931Z" fill="white"/>
<path d="M39.713 16.4442C32.8994 16.4442 28.1982 22.3639 28.1982 29.204C28.1982 34.0151 31.3048 37.5292 36.358 37.5292C43.1716 37.5292 47.9142 31.6514 47.9142 24.8113C47.9142 20.3349 45.0977 16.4442 39.713 16.4442ZM37.0207 33.8059C34.5976 33.8059 33.1272 31.8605 33.1272 29.0785C33.1272 25.3133 35.3432 20.1676 39.1539 20.1676C42.074 20.1676 42.9645 22.7404 42.9645 24.8113C42.9645 28.8275 40.5829 33.8059 37.0207 33.8059Z" fill="white"/>
</svg>
