<svg width="60" height="60" viewBox="0 0 60 60" fill="none" xmlns="http://www.w3.org/2000/svg">
<rect width="60" height="60" fill="#018EFC"/>
<g clip-path="url(#clip0_1403_9047)">
<path d="M30.2593 11.1514C30.3517 11.1669 30.4464 11.1622 30.5367 11.1376C30.6271 11.113 30.7111 11.0691 30.7829 11.0089C30.8546 10.9487 30.9125 10.8737 30.9524 10.789C30.9924 10.7043 31.0135 10.6119 31.0143 10.5182C31.0151 10.4246 30.9956 10.3318 30.957 10.2465C30.9185 10.1611 30.8619 10.0851 30.7912 10.0237C30.7205 9.96229 30.6372 9.91697 30.5473 9.89086C30.4573 9.86475 30.3628 9.85846 30.2702 9.87243C30.1031 9.87926 29.9452 9.95042 29.8294 10.071C29.7137 10.1916 29.649 10.3523 29.649 10.5195C29.649 10.6866 29.7137 10.8473 29.8294 10.9679C29.9452 11.0885 30.1031 11.1597 30.2702 11.1665L30.2593 11.1514ZM31.2356 14.2649C31.2399 14.3944 31.2181 14.5236 31.1715 14.6445C31.1249 14.7655 31.0545 14.8759 30.9644 14.9691C30.8742 15.0623 30.7663 15.1364 30.6469 15.187C30.5276 15.2376 30.3993 15.2637 30.2696 15.2637C30.14 15.2637 30.0117 15.2376 29.8923 15.187C29.7729 15.1364 29.665 15.0623 29.5749 14.9691C29.4847 14.8759 29.4143 14.7655 29.3677 14.6445C29.3211 14.5236 29.2993 14.3944 29.3037 14.2649C29.3121 14.0143 29.4175 13.7767 29.5977 13.6024C29.778 13.4281 30.0189 13.3307 30.2696 13.3307C30.5203 13.3307 30.7613 13.4281 30.9415 13.6024C31.1217 13.7767 31.2272 14.0143 31.2356 14.2649ZM30.2702 19.8573C30.4506 19.8573 30.6293 19.8218 30.796 19.7527C30.9627 19.6837 31.1142 19.5824 31.2418 19.4548C31.3694 19.3273 31.4706 19.1758 31.5396 19.0091C31.6087 18.8424 31.6442 18.6637 31.6442 18.4832C31.6442 18.3028 31.6087 18.1241 31.5396 17.9574C31.4706 17.7907 31.3694 17.6392 31.2418 17.5116C31.1142 17.384 30.9627 17.2828 30.796 17.2138C30.6293 17.1447 30.4506 17.1092 30.2702 17.1092C29.9057 17.1092 29.5562 17.254 29.2985 17.5116C29.0409 17.7693 28.8961 18.1188 28.8961 18.4832C28.8961 18.8477 29.0409 19.1972 29.2985 19.4548C29.5562 19.7125 29.9057 19.8573 30.2702 19.8573ZM30.2702 25.7492C30.5343 25.7554 30.7971 25.7087 31.043 25.6118C31.2889 25.515 31.5129 25.37 31.702 25.1853C31.891 25.0006 32.0412 24.78 32.1438 24.5365C32.2463 24.2929 32.2992 24.0313 32.2992 23.767C32.2992 23.5028 32.2463 23.2412 32.1438 22.9976C32.0412 22.754 31.891 22.5334 31.702 22.3488C31.5129 22.1641 31.2889 22.0191 31.043 21.9222C30.7971 21.8254 30.5343 21.7787 30.2702 21.7849C29.7525 21.797 29.2601 22.0111 28.8982 22.3815C28.5363 22.7519 28.3337 23.2492 28.3337 23.767C28.3337 24.2849 28.5363 24.7821 28.8982 25.1525C29.2601 25.523 29.7525 25.7371 30.2702 25.7492ZM32.2529 36.7719C32.2529 36.246 32.044 35.7417 31.6721 35.3699C31.3003 34.9981 30.796 34.7892 30.2702 34.7892C29.7443 34.7892 29.24 34.9981 28.8682 35.3699C28.4963 35.7417 28.2875 36.246 28.2875 36.7719C28.2875 37.2977 28.4963 37.802 28.8682 38.1739C29.24 38.5457 29.7443 38.7546 30.2702 38.7546C30.796 38.7546 31.3003 38.5457 31.6721 38.1739C32.044 37.802 32.2529 37.2977 32.2529 36.7719ZM30.2702 40.6822C30.6346 40.6822 30.9841 40.8269 31.2418 41.0846C31.4994 41.3423 31.6442 41.6918 31.6442 42.0562C31.6442 42.4206 31.4994 42.7701 31.2418 43.0278C30.9841 43.2855 30.6346 43.4303 30.2702 43.4303C29.9057 43.4303 29.5562 43.2855 29.2985 43.0278C29.0409 42.7701 28.8961 42.4206 28.8961 42.0562C28.8961 41.6918 29.0409 41.3423 29.2985 41.0846C29.5562 40.8269 29.9057 40.6822 30.2702 40.6822ZM31.2356 46.2746C31.2399 46.145 31.2181 46.0159 31.1715 45.8949C31.1249 45.7739 31.0545 45.6636 30.9644 45.5704C30.8742 45.4772 30.7663 45.4031 30.6469 45.3525C30.5276 45.3019 30.3993 45.2758 30.2696 45.2758C30.14 45.2758 30.0117 45.3019 29.8923 45.3525C29.7729 45.4031 29.665 45.4772 29.5749 45.5704C29.4847 45.6636 29.4143 45.7739 29.3677 45.8949C29.3211 46.0159 29.2993 46.145 29.3037 46.2746C29.3121 46.5252 29.4175 46.7627 29.5977 46.937C29.778 47.1113 30.0189 47.2088 30.2696 47.2088C30.5203 47.2088 30.7613 47.1113 30.9415 46.937C31.1217 46.7627 31.2272 46.5252 31.2356 46.2746ZM30.2702 49.373C30.3573 49.3694 30.4444 49.3835 30.526 49.4144C30.6076 49.4453 30.6821 49.4924 30.7451 49.5528C30.808 49.6133 30.8581 49.6858 30.8923 49.7661C30.9265 49.8464 30.9442 49.9327 30.9442 50.02C30.9442 50.1073 30.9265 50.1936 30.8923 50.2739C30.8581 50.3542 30.808 50.4267 30.7451 50.4872C30.6821 50.5476 30.6076 50.5947 30.526 50.6256C30.4444 50.6565 30.3573 50.6706 30.2702 50.667C30.1031 50.6602 29.9452 50.589 29.8294 50.4684C29.7137 50.3479 29.649 50.1872 29.649 50.02C29.649 49.8528 29.7137 49.6921 29.8294 49.5715C29.9452 49.451 30.1031 49.3798 30.2702 49.373ZM36.7729 32.2519C36.5087 32.2581 36.2459 32.2114 36 32.1145C35.7541 32.0177 35.5301 31.8727 35.341 31.688C35.152 31.5033 35.0018 31.2827 34.8992 31.0392C34.7967 30.7956 34.7439 30.534 34.7439 30.2697C34.7439 30.0055 34.7967 29.7439 34.8992 29.5003C35.0018 29.2567 35.152 29.0361 35.341 28.8515C35.5301 28.6668 35.7541 28.5218 36 28.4249C36.2459 28.3281 36.5087 28.2814 36.7729 28.2876C37.2905 28.2997 37.783 28.5138 38.1448 28.8842C38.5067 29.2546 38.7093 29.7519 38.7093 30.2697C38.7093 30.7876 38.5067 31.2848 38.1448 31.6553C37.783 32.0257 37.2905 32.2398 36.7729 32.2519ZM40.6831 30.2703C40.6831 30.6347 40.8279 30.9842 41.0856 31.2419C41.3433 31.4996 41.6928 31.6443 42.0572 31.6443C42.4216 31.6443 42.7711 31.4996 43.0288 31.2419C43.2865 30.9842 43.4312 30.6347 43.4312 30.2703C43.4312 29.9058 43.2865 29.5564 43.0288 29.2987C42.7711 29.041 42.4216 28.8962 42.0572 28.8962C41.6928 28.8962 41.3433 29.041 41.0856 29.2987C40.8279 29.5564 40.6831 29.9058 40.6831 30.2703ZM46.2756 31.2357C46.146 31.24 46.0169 31.2182 45.8959 31.1716C45.7749 31.1251 45.6645 31.0546 45.5714 30.9645C45.4782 30.8743 45.4041 30.7664 45.3534 30.647C45.3028 30.5277 45.2768 30.3994 45.2768 30.2697C45.2768 30.1401 45.3028 30.0118 45.3534 29.8924C45.4041 29.7731 45.4782 29.6651 45.5714 29.575C45.6645 29.4849 45.7749 29.4144 45.8959 29.3678C46.0169 29.3212 46.146 29.2994 46.2756 29.3038C46.5262 29.3122 46.7637 29.4176 46.938 29.5978C47.1123 29.7781 47.2097 30.019 47.2097 30.2697C47.2097 30.5205 47.1123 30.7614 46.938 30.9416C46.7637 31.1219 46.5262 31.2273 46.2756 31.2357ZM49.3729 30.2703C49.3729 30.442 49.4411 30.6067 49.5625 30.7282C49.684 30.8496 49.8487 30.9178 50.0204 30.9178C50.1922 30.9178 50.3569 30.8496 50.4783 30.7282C50.5998 30.6067 50.668 30.442 50.668 30.2703C50.668 30.0985 50.5998 29.9338 50.4783 29.8124C50.3569 29.6909 50.1922 29.6227 50.0204 29.6227C49.8487 29.6227 49.684 29.6909 49.5625 29.8124C49.4411 29.9338 49.3729 30.0985 49.3729 30.2703ZM23.7675 32.2519C24.0316 32.2581 24.2944 32.2114 24.5403 32.1145C24.7862 32.0177 25.0102 31.8727 25.1993 31.688C25.3883 31.5033 25.5385 31.2827 25.6411 31.0392C25.7436 30.7956 25.7964 30.534 25.7964 30.2697C25.7964 30.0055 25.7436 29.7439 25.6411 29.5003C25.5385 29.2567 25.3883 29.0361 25.1993 28.8515C25.0102 28.6668 24.7862 28.5218 24.5403 28.4249C24.2944 28.3281 24.0316 28.2814 23.7675 28.2876C23.2498 28.2997 22.7573 28.5138 22.3955 28.8842C22.0336 29.2546 21.831 29.7519 21.831 30.2697C21.831 30.7876 22.0336 31.2848 22.3955 31.6553C22.7573 32.0257 23.2498 32.2398 23.7675 32.2519ZM19.8572 30.2703C19.8572 30.6347 19.7124 30.9842 19.4547 31.2419C19.197 31.4996 18.8475 31.6443 18.4831 31.6443C18.1187 31.6443 17.7692 31.4996 17.5115 31.2419C17.2538 30.9842 17.1091 30.6347 17.1091 30.2703C17.1091 29.9058 17.2538 29.5564 17.5115 29.2987C17.7692 29.041 18.1187 28.8962 18.4831 28.8962C18.8475 28.8962 19.197 29.041 19.4547 29.2987C19.7124 29.5564 19.8572 29.9058 19.8572 30.2703ZM14.2647 31.2357C14.3943 31.24 14.5234 31.2182 14.6444 31.1716C14.7654 31.1251 14.8758 31.0546 14.969 30.9645C15.0621 30.8743 15.1362 30.7664 15.1869 30.647C15.2375 30.5277 15.2636 30.3994 15.2636 30.2697C15.2636 30.1401 15.2375 30.0118 15.1869 29.8924C15.1362 29.7731 15.0621 29.6651 14.969 29.575C14.8758 29.4849 14.7654 29.4144 14.6444 29.3678C14.5234 29.3212 14.3943 29.2994 14.2647 29.3038C14.0142 29.3122 13.7766 29.4176 13.6023 29.5978C13.428 29.7781 13.3306 30.019 13.3306 30.2697C13.3306 30.5205 13.428 30.7614 13.6023 30.9416C13.7766 31.1219 14.0142 31.2273 14.2647 31.2357ZM11.1674 30.2703C11.1674 30.3553 11.1507 30.4395 11.1182 30.5181C11.0856 30.5967 11.0379 30.668 10.9778 30.7282C10.9176 30.7883 10.8463 30.836 10.7677 30.8685C10.6891 30.9011 10.6049 30.9178 10.5199 30.9178C10.4348 30.9178 10.3506 30.9011 10.2721 30.8685C10.1935 30.836 10.1221 30.7883 10.062 30.7282C10.0019 30.668 9.95415 30.5967 9.92161 30.5181C9.88906 30.4395 9.87231 30.3553 9.87231 30.2703C9.87231 30.0985 9.94054 29.9338 10.062 29.8124C10.1834 29.6909 10.3481 29.6227 10.5199 29.6227C10.6916 29.6227 10.8563 29.6909 10.9778 29.8124C11.0992 29.9338 11.1674 30.0985 11.1674 30.2703ZM36.2702 27.0735C36.0861 27.2576 35.8676 27.4037 35.627 27.5034C35.3865 27.6031 35.1287 27.6544 34.8684 27.6545C34.608 27.6545 34.3502 27.6033 34.1096 27.5037C33.8691 27.4041 33.6505 27.2581 33.4664 27.0741C33.2822 26.89 33.1362 26.6715 33.0365 26.4309C32.9368 26.1904 32.8855 25.9326 32.8854 25.6723C32.8854 25.4119 32.9366 25.1541 33.0362 24.9135C33.1358 24.673 33.2818 24.4544 33.4658 24.2703C33.8376 23.8985 34.3417 23.6897 34.8675 23.6897C35.3932 23.6897 35.8973 23.8985 36.2691 24.2703C36.6408 24.642 36.8496 25.1462 36.8496 25.6719C36.8496 26.1976 36.6419 26.7018 36.2702 27.0735ZM37.6323 22.907C37.8899 23.1648 38.2394 23.3097 38.6038 23.3098C38.9683 23.3099 39.3178 23.1652 39.5756 22.9076C39.8333 22.65 39.9782 22.3005 39.9783 21.9361C39.9784 21.5716 39.8337 21.2221 39.5761 20.9643C39.3165 20.7163 38.9702 20.5797 38.6112 20.5838C38.2522 20.5879 37.9091 20.7323 37.6553 20.9862C37.4014 21.24 37.257 21.5832 37.2529 21.9422C37.2488 22.3011 37.3843 22.6475 37.6323 22.907ZM42.2702 19.6357C42.1817 19.7307 42.0749 19.8068 41.9563 19.8597C41.8377 19.9125 41.7097 19.9409 41.5799 19.9432C41.4501 19.9454 41.3212 19.9215 41.2008 19.8729C41.0804 19.8242 40.9711 19.7518 40.8794 19.66C40.7876 19.5681 40.7153 19.4588 40.6667 19.3383C40.6181 19.2179 40.5943 19.089 40.5967 18.9592C40.5991 18.8294 40.6276 18.7014 40.6805 18.5828C40.7334 18.4643 40.8097 18.3576 40.9048 18.2692C41.0873 18.0945 41.331 17.9983 41.5836 18.0011C41.8362 18.0038 42.0777 18.1054 42.2563 18.2841C42.435 18.4627 42.5366 18.7042 42.5394 18.9568C42.5421 19.2095 42.4459 19.4531 42.2712 19.6357H42.2702ZM43.7783 16.7622C43.838 16.8239 43.9095 16.8732 43.9885 16.907C44.0674 16.9409 44.1524 16.9587 44.2383 16.9594C44.3242 16.9601 44.4094 16.9437 44.489 16.9111C44.5685 16.8786 44.6407 16.8305 44.7015 16.7697C44.7623 16.709 44.8103 16.6367 44.8429 16.5572C44.8755 16.4777 44.8919 16.3925 44.8912 16.3065C44.8904 16.2206 44.8727 16.1357 44.8388 16.0567C44.8049 15.9777 44.7557 15.9062 44.6939 15.8465C44.5718 15.7283 44.4082 15.6629 44.2383 15.6643C44.0684 15.6657 43.9058 15.7338 43.7857 15.8539C43.6656 15.9741 43.5975 16.1366 43.5961 16.3065C43.5947 16.4764 43.6601 16.6401 43.7783 16.7622ZM27.0745 36.2692C27.262 36.0858 27.4113 35.8671 27.5136 35.6256C27.616 35.3842 27.6695 35.1248 27.6709 34.8625C27.6724 34.6003 27.6218 34.3403 27.522 34.0977C27.4223 33.8552 27.2755 33.6348 27.09 33.4494C26.9045 33.264 26.684 33.1172 26.4414 33.0176C26.1988 32.9179 25.9389 32.8674 25.6766 32.869C25.4143 32.8705 25.155 32.9241 24.9136 33.0265C24.6721 33.129 24.4535 33.2784 24.2702 33.4659C23.9054 33.8393 23.7025 34.3413 23.7056 34.8633C23.7087 35.3852 23.9174 35.8849 24.2865 36.2539C24.6557 36.6229 25.1554 36.8314 25.6774 36.8343C26.1993 36.8372 26.7013 36.6341 27.0745 36.2692ZM22.9069 37.6324C23.0345 37.76 23.1358 37.9114 23.2049 38.0781C23.274 38.2448 23.3096 38.4235 23.3096 38.6039C23.3097 38.7844 23.2742 38.9631 23.2052 39.1298C23.1362 39.2965 23.035 39.448 22.9075 39.5757C22.7799 39.7033 22.6284 39.8046 22.4618 39.8737C22.2951 39.9428 22.1164 39.9784 21.9359 39.9784C21.7555 39.9785 21.5768 39.943 21.4101 39.874C21.2433 39.8049 21.0918 39.7038 20.9642 39.5762C20.7064 39.3186 20.5616 38.9691 20.5615 38.6047C20.5614 38.2403 20.706 37.8907 20.9637 37.633C21.2213 37.3752 21.5707 37.2303 21.9352 37.2302C22.2996 37.2301 22.6491 37.3748 22.9069 37.6324ZM19.6356 42.2703C19.7306 42.1818 19.8069 42.0752 19.8598 41.9566C19.9127 41.8381 19.9412 41.7101 19.9436 41.5803C19.946 41.4505 19.9222 41.3215 19.8736 41.2011C19.825 41.0807 19.7527 40.9713 19.661 40.8795C19.5692 40.7877 19.4599 40.7152 19.3395 40.6666C19.2191 40.6179 19.0902 40.594 18.9604 40.5963C18.8306 40.5986 18.7026 40.627 18.584 40.6798C18.4654 40.7326 18.3587 40.8088 18.2702 40.9038C18.0955 41.0863 17.9992 41.33 18.002 41.5826C18.0048 41.8352 18.1064 42.0767 18.285 42.2554C18.4637 42.434 18.7052 42.5356 18.9578 42.5384C19.2104 42.5412 19.453 42.4449 19.6356 42.2703ZM16.762 43.7773C16.8238 43.8371 16.873 43.9085 16.9069 43.9875C16.9408 44.0665 16.9586 44.1514 16.9593 44.2373C16.96 44.3233 16.9436 44.4085 16.911 44.488C16.8784 44.5675 16.8304 44.6398 16.7696 44.7005C16.7089 44.7613 16.6366 44.8094 16.5571 44.8419C16.4775 44.8745 16.3923 44.8909 16.3064 44.8902C16.2205 44.8895 16.1355 44.8717 16.0566 44.8378C15.9776 44.804 15.9061 44.7547 15.8464 44.693C15.7282 44.5709 15.6628 44.4072 15.6642 44.2373C15.6656 44.0674 15.7337 43.9049 15.8538 43.7847C15.974 43.6646 16.1365 43.5965 16.3064 43.5951C16.4763 43.5937 16.6399 43.6591 16.762 43.7773ZM33.4669 36.2692C33.2759 36.0867 33.1233 35.8679 33.0181 35.6256C32.9129 35.3833 32.8571 35.1224 32.8541 34.8583C32.8512 34.5941 32.901 34.332 33.0007 34.0874C33.1004 33.8428 33.248 33.6206 33.4347 33.4338C33.6215 33.247 33.8438 33.0994 34.0884 32.9997C34.333 32.9 34.5951 32.8502 34.8592 32.8532C35.1234 32.8562 35.3842 32.9119 35.6265 33.0172C35.8688 33.1224 36.0877 33.275 36.2702 33.4659C36.6281 33.8405 36.8252 34.3402 36.8193 34.8583C36.8134 35.3763 36.605 35.8714 36.2387 36.2377C35.8724 36.6041 35.3772 36.8125 34.8592 36.8183C34.3412 36.8242 33.8414 36.6271 33.4669 36.2692ZM37.6334 37.6324C37.5058 37.76 37.4045 37.9114 37.3354 38.0781C37.2663 38.2448 37.2307 38.4235 37.2307 38.6039C37.2306 38.7844 37.2661 38.9631 37.3351 39.1298C37.4041 39.2965 37.5053 39.448 37.6329 39.5757C37.7604 39.7033 37.9119 39.8046 38.0786 39.8737C38.2453 39.9428 38.4239 39.9784 38.6044 39.9784C38.7848 39.9785 38.9635 39.943 39.1302 39.874C39.297 39.8049 39.4485 39.7038 39.5761 39.5762C39.8339 39.3186 39.9787 38.9691 39.9788 38.6047C39.9789 38.2403 39.8343 37.8907 39.5766 37.633C39.319 37.3752 38.9696 37.2303 38.6051 37.2302C38.2407 37.2301 37.8912 37.3748 37.6334 37.6324ZM40.9048 42.2703C40.8118 42.1813 40.7375 42.0746 40.6863 41.9565C40.635 41.8384 40.6079 41.7113 40.6065 41.5826C40.6051 41.4539 40.6294 41.3262 40.678 41.207C40.7266 41.0879 40.7985 40.9796 40.8895 40.8886C40.9805 40.7975 41.0888 40.7256 41.208 40.677C41.3272 40.6284 41.4549 40.6041 41.5836 40.6055C41.7123 40.607 41.8394 40.6341 41.9575 40.6853C42.0756 40.7365 42.1823 40.8108 42.2712 40.9038C42.4459 41.0863 42.5421 41.33 42.5394 41.5826C42.5366 41.8352 42.435 42.0767 42.2563 42.2554C42.0777 42.434 41.8362 42.5356 41.5836 42.5384C41.331 42.5412 41.0873 42.4449 40.9048 42.2703ZM43.7783 43.7773C43.7143 43.8365 43.663 43.9079 43.6273 43.9874C43.5917 44.0669 43.5724 44.1527 43.5707 44.2398C43.569 44.3269 43.5849 44.4135 43.6174 44.4943C43.6499 44.5751 43.6984 44.6485 43.76 44.7102C43.8215 44.7718 43.8949 44.8204 43.9757 44.853C44.0564 44.8856 44.143 44.9016 44.2301 44.9C44.3172 44.8984 44.403 44.8792 44.4826 44.8437C44.5621 44.8081 44.6336 44.7568 44.6929 44.693C44.8068 44.5702 44.8687 44.4081 44.8656 44.2406C44.8625 44.0732 44.7946 43.9134 44.6763 43.7949C44.5579 43.6764 44.3983 43.6084 44.2308 43.6051C44.0634 43.6018 43.9012 43.6635 43.7783 43.7773ZM24.2702 27.0746C24.4535 27.2621 24.6723 27.4114 24.9137 27.5138C25.1552 27.6161 25.4146 27.6696 25.6768 27.671C25.9391 27.6725 26.199 27.6219 26.4416 27.5222C26.6842 27.4224 26.9046 27.2756 27.09 27.0901C27.2754 26.9046 27.4222 26.6842 27.5218 26.4416C27.6214 26.1989 27.6719 25.939 27.6704 25.6767C27.6688 25.4145 27.6153 25.1551 27.5128 24.9137C27.4103 24.6723 27.261 24.4536 27.0734 24.2703C26.6989 23.9124 26.1991 23.7153 25.6811 23.7211C25.1631 23.727 24.6679 23.9354 24.3016 24.3017C23.9353 24.668 23.7269 25.1632 23.721 25.6812C23.7151 26.1992 23.9122 26.699 24.2702 27.0735V27.0746ZM22.908 22.907C22.7804 23.0347 22.6288 23.1359 22.4621 23.205C22.2953 23.274 22.1166 23.3096 21.9361 23.3096C21.7556 23.3096 21.5769 23.274 21.4101 23.205C21.2434 23.1359 21.0918 23.0347 20.9642 22.907C20.8366 22.7794 20.7353 22.6279 20.6663 22.4611C20.5972 22.2944 20.5616 22.1156 20.5616 21.9351C20.5616 21.7546 20.5972 21.5759 20.6663 21.4092C20.7353 21.2424 20.8366 21.0909 20.9642 20.9632C21.222 20.7056 21.5715 20.561 21.9359 20.5611C22.3004 20.5612 22.6498 20.706 22.9075 20.9638C23.1651 21.2215 23.3097 21.5711 23.3096 21.9355C23.3095 22.2999 23.1647 22.6494 22.9069 22.907H22.908ZM18.2702 19.6357C18.3591 19.7287 18.4658 19.803 18.5839 19.8542C18.702 19.9054 18.8291 19.9325 18.9578 19.9339C19.0865 19.9353 19.2142 19.911 19.3334 19.8624C19.4526 19.8138 19.5608 19.7419 19.6519 19.6509C19.7429 19.5599 19.8148 19.4516 19.8634 19.3324C19.912 19.2132 19.9363 19.0855 19.9349 18.9568C19.9335 18.8281 19.9064 18.701 19.8551 18.5829C19.8039 18.4648 19.7296 18.3582 19.6366 18.2692C19.4541 18.0945 19.2104 17.9983 18.9578 18.0011C18.7052 18.0038 18.4637 18.1054 18.285 18.2841C18.1064 18.4627 18.0048 18.7042 18.002 18.9568C17.9992 19.2095 18.0955 19.4531 18.2702 19.6357ZM16.762 16.7622C16.7023 16.8239 16.6308 16.8732 16.5519 16.907C16.4729 16.9409 16.3879 16.9587 16.302 16.9594C16.2161 16.9601 16.1309 16.9437 16.0513 16.9111C15.9718 16.8786 15.8996 16.8305 15.8388 16.7697C15.778 16.709 15.73 16.6367 15.6974 16.5572C15.6649 16.4777 15.6484 16.3925 15.6492 16.3065C15.6499 16.2206 15.6677 16.1357 15.7015 16.0567C15.7354 15.9777 15.7846 15.9062 15.8464 15.8465C15.9685 15.7283 16.1321 15.6629 16.302 15.6643C16.4719 15.6657 16.6345 15.7338 16.7546 15.8539C16.8747 15.9741 16.9428 16.1366 16.9442 16.3065C16.9456 16.4764 16.8802 16.6401 16.762 16.7622Z" fill="#FEFEFD"/>
</g>
<defs>
<clipPath id="clip0_1403_9047">
<rect width="42" height="42" fill="white" transform="translate(9 9)"/>
</clipPath>
</defs>
</svg>
