<svg width="60" height="60" viewBox="0 0 60 60" fill="none" xmlns="http://www.w3.org/2000/svg">
<rect width="60" height="60" fill="#000075"/>
<g clip-path="url(#clip0_168_138)">
<path d="M43.9743 14H10.0001V19.1749H42.2783V19.1795C43.2127 19.1795 43.9587 19.9222 43.9587 20.8443V38.2217L43.9545 38.2364C43.9487 39.1543 43.1952 39.8921 42.2708 39.8921H16.9045C15.9759 39.8921 15.2158 39.1484 15.2158 38.2215V31.2013C15.2158 30.2793 15.9759 29.5308 16.9045 29.5308H38.728V24.3628H15.2059C12.3307 24.3628 10 26.6688 10 29.5165V39.9066C10 42.7563 12.3307 45.0656 15.2059 45.0656H43.9742C46.8518 45.0656 49.1791 42.7563 49.1791 39.9066V19.1606C49.1791 16.3113 46.8519 14 43.9743 14Z" fill="white"/>
</g>
<defs>
<clipPath id="clip0_168_138">
<rect width="40" height="32" fill="white" transform="translate(10 14)"/>
</clipPath>
</defs>
</svg>
