<svg width="60" height="60" viewBox="0 0 60 60" fill="none" xmlns="http://www.w3.org/2000/svg">
<rect width="60" height="60" fill="#00B2E3"/>
<path d="M49.3339 27.6398V31.5073C49.3339 32.033 48.9209 32.4085 48.4328 32.4085H33.1503C32.6246 32.4085 32.2491 32.8215 32.2491 33.3097V48.5546C32.2491 49.0803 31.8361 49.4557 31.348 49.4557H27.4429C26.9172 49.4557 26.5417 49.0427 26.5417 48.5546V33.3097C26.5417 32.784 26.1287 32.4085 25.6405 32.4085H10.3581C9.8324 32.4085 9.45691 31.9955 9.45691 31.5073V27.6398C9.45691 27.1141 9.86995 26.7386 10.3581 26.7386H25.603C26.1287 26.7386 26.5041 26.3256 26.5041 25.8374V10.5174C26.5041 9.99176 26.9172 9.61627 27.4053 9.61627H31.3104C31.8361 9.61627 32.2116 10.0293 32.2116 10.5174V25.7623C32.2116 26.288 32.6246 26.6635 33.1128 26.6635H48.3577C48.9209 26.7011 49.3339 27.1141 49.3339 27.6398Z" fill="white"/>
<path d="M46.8932 42.8847H38.1443C37.9941 42.8847 37.8439 43.0349 37.8439 43.185V43.5605C37.8439 43.7107 37.9941 43.8609 38.1443 43.8609H46.8932C47.0434 43.8609 47.1936 43.7107 47.1936 43.5605V43.185C47.1936 43.0349 47.0434 42.8847 46.8932 42.8847ZM48.5454 41.2701V41.6455C48.5454 41.7957 48.3952 41.9459 48.245 41.9459H39.4961C39.3459 41.9459 39.1957 41.7957 39.1957 41.6455V41.2701C39.1957 41.1199 39.3459 40.9697 39.4961 40.9697H48.245C48.4327 40.9697 48.5454 41.1199 48.5454 41.2701ZM45.8418 45.1V45.4755C45.8418 45.6257 45.6916 45.7759 45.5415 45.7759H37.3558C36.7925 45.7759 36.2669 45.6257 35.7787 45.3629C34.8024 44.7997 34.2017 43.7858 34.2017 42.6594C34.2017 41.8333 34.5396 41.0823 35.1028 40.5191C35.2906 40.2938 35.5159 40.1436 35.7787 39.9934C36.0791 39.8056 36.3795 39.693 36.7174 39.6179C36.8301 39.5803 36.9052 39.5052 36.9427 39.4301V39.3926C37.0178 39.0922 37.1305 38.7918 37.2807 38.4914C37.8439 37.5152 38.8953 36.9144 40.0218 36.9144C40.8478 36.9144 41.5988 37.2148 42.1996 37.778C42.3498 37.9282 42.5 38.1159 42.6502 38.3037L42.7253 38.4163C42.8004 38.529 42.9506 38.5665 43.0632 38.529C43.1008 38.529 43.1008 38.529 43.1383 38.4914L43.1759 38.4539C43.4387 38.3412 43.7016 38.2661 44.0019 38.2661C44.3023 38.2661 44.5652 38.3412 44.7905 38.4539C45.0909 38.6041 45.3913 38.8669 45.5415 39.1673C45.6166 39.3175 45.6916 39.5052 45.7292 39.6554V39.7681C45.7292 39.9183 45.579 40.0685 45.4288 40.0685H45.0533C44.9407 40.0685 44.828 39.9934 44.7905 39.8807C44.7905 39.8432 44.7905 39.8432 44.7905 39.8056C44.7529 39.7305 44.7529 39.693 44.7154 39.6179C44.5652 39.3551 44.2648 39.2049 43.9644 39.2049C43.664 39.2049 43.3636 39.3551 43.2134 39.6179C43.1759 39.693 43.1383 39.7305 43.1383 39.8056C43.1008 39.9183 42.9881 40.0309 42.8379 40.0309H42.4624C42.3122 40.0309 42.1996 39.9183 42.162 39.8056C42.162 39.7681 42.162 39.7681 42.162 39.7305C42.1245 39.4677 42.0494 39.1673 41.8992 38.942C41.5237 38.2661 40.7727 37.8531 40.0218 37.8531C39.2332 37.8531 38.5198 38.2661 38.1443 38.942C37.9566 39.28 37.8439 39.6554 37.8439 40.0309V40.1811C37.8439 40.3313 37.6937 40.4815 37.5435 40.4815H37.3558C36.9803 40.4815 36.6048 40.5942 36.2669 40.7819C35.591 41.1574 35.1779 41.8708 35.1779 42.6594C35.1779 43.4479 35.591 44.1238 36.2669 44.5368C36.6048 44.7246 36.9803 44.8372 37.3558 44.8372H45.579C45.7292 44.7997 45.8418 44.9499 45.8418 45.1ZM43.1383 38.4163L43.1008 38.4539C43.0632 38.4539 43.0632 38.4914 43.0257 38.4914C43.0632 38.4163 43.1008 38.4163 43.1383 38.4163Z" fill="white"/>
<path d="M17.3798 38.0033C15.4648 38.0033 13.9253 39.5428 13.9253 41.4578C13.9253 43.3728 15.4648 44.9123 17.3798 44.9123C19.2948 44.9123 20.8343 43.3728 20.8343 41.4578C20.8718 39.5804 19.2948 38.0033 17.3798 38.0033ZM16.8916 36.9895V34.7366C16.8916 34.5864 17.0418 34.4362 17.192 34.4362H17.5675C17.7177 34.4362 17.8679 34.5864 17.8679 34.7366V36.9895C17.8679 37.1397 17.7177 37.2899 17.5675 37.2899H17.192C17.0418 37.2899 16.8916 37.1397 16.8916 36.9895ZM24.4765 41.3076V41.6831C24.4765 41.8333 24.3263 41.9835 24.1761 41.9835H21.9232C21.773 41.9835 21.6228 41.8333 21.6228 41.6831V41.3076C21.6228 41.1574 21.773 41.0072 21.9232 41.0072H24.1761C24.3263 41.0072 24.4765 41.1199 24.4765 41.3076ZM17.8679 46.0012V48.2542C17.8679 48.4044 17.7177 48.5546 17.5675 48.5546H17.192C17.0418 48.5546 16.8916 48.4044 16.8916 48.2542V46.0012C16.8916 45.8511 17.0418 45.7009 17.192 45.7009H17.5675C17.7553 45.7009 17.8679 45.8135 17.8679 46.0012ZM12.8739 41.9835H10.6209C10.4708 41.9835 10.3206 41.8333 10.3206 41.6831V41.3076C10.3206 41.1574 10.4708 41.0072 10.6209 41.0072H12.8739C13.0241 41.0072 13.1743 41.1574 13.1743 41.3076V41.6831C13.1743 41.8333 13.0241 41.9835 12.8739 41.9835ZM19.2197 37.5903C19.1821 37.5152 19.2197 37.4401 19.2572 37.365L20.4212 35.4124C20.4963 35.2622 20.6841 35.2247 20.8343 35.2998L21.1347 35.4875C21.2849 35.5626 21.3224 35.7504 21.2473 35.9006L20.0833 37.8531C20.0457 37.9282 19.9331 38.0033 19.8205 38.0033C19.7829 38.0033 19.7078 38.0033 19.6703 37.9658L19.3699 37.778C19.2948 37.7029 19.2197 37.6654 19.2197 37.5903ZM23.5754 44.9123L23.3876 45.2127C23.3501 45.2878 23.2374 45.3629 23.1248 45.3629C23.0872 45.3629 23.0121 45.3629 22.9746 45.3254L21.022 44.1613C20.8718 44.0862 20.8343 43.8985 20.9094 43.7483L21.0971 43.4479C21.1722 43.2977 21.36 43.2602 21.5102 43.3353L23.4627 44.4993C23.6129 44.5744 23.6504 44.7621 23.5754 44.9123ZM15.5399 45.6258L14.3758 47.5783C14.3383 47.6534 14.2257 47.7285 14.113 47.7285C14.0755 47.7285 14.0004 47.7285 13.9628 47.691L13.6624 47.5032C13.5873 47.4657 13.5498 47.3906 13.5122 47.3155C13.4747 47.2404 13.5122 47.1653 13.5498 47.0902L14.7138 45.1376C14.7889 44.9874 14.9766 44.9499 15.1268 45.025L15.4272 45.2127C15.5774 45.2878 15.615 45.4756 15.5399 45.6258ZM11.1842 38.0784L11.3719 37.778C11.447 37.6278 11.6348 37.5903 11.785 37.6654L13.7375 38.8294C13.8126 38.8669 13.8502 38.942 13.8877 39.0171C13.9253 39.0922 13.8877 39.1673 13.8502 39.2424L13.6624 39.5053C13.6249 39.5804 13.5122 39.6555 13.3996 39.6555C13.362 39.6555 13.2869 39.6555 13.2494 39.6179L11.2968 38.4539C11.1466 38.3788 11.1091 38.1911 11.1842 38.0784ZM21.022 38.7543L22.9746 37.5903C23.1248 37.5152 23.3125 37.5527 23.3876 37.7029L23.5754 38.0033C23.6504 38.1535 23.6129 38.3413 23.4627 38.4164L21.5102 39.5804C21.4726 39.6179 21.3975 39.6179 21.36 39.6179C21.2473 39.6179 21.1722 39.5804 21.0971 39.4677L20.9094 39.1673C20.8343 39.0547 20.8718 38.8669 21.022 38.7543ZM21.2473 47.0902C21.2849 47.1653 21.2849 47.2404 21.2849 47.3155C21.2473 47.3906 21.2098 47.4657 21.1347 47.5032L20.8343 47.691C20.7967 47.7285 20.7216 47.7285 20.6841 47.7285C20.5714 47.7285 20.4963 47.691 20.4212 47.5783L19.2572 45.6258C19.1821 45.4756 19.2197 45.2878 19.3699 45.2127L19.6703 45.025C19.8205 44.9499 20.0082 44.9874 20.0833 45.1376L21.2473 47.0902ZM13.7375 44.1989L11.785 45.3629C11.7474 45.4005 11.6723 45.4005 11.6348 45.4005C11.5221 45.4005 11.447 45.3629 11.3719 45.2503L11.1842 44.9499C11.1091 44.7997 11.1466 44.6119 11.2968 44.5368L13.2494 43.3728C13.3996 43.2977 13.5873 43.3353 13.6624 43.4855L13.8502 43.7859C13.9253 43.9361 13.8877 44.1238 13.7375 44.1989ZM13.5122 35.9006C13.4371 35.7504 13.4747 35.5626 13.6249 35.4875L13.9253 35.2998C14.0755 35.2247 14.2632 35.2622 14.3383 35.4124L15.5023 37.365C15.5399 37.4401 15.5399 37.5152 15.5399 37.5903C15.5023 37.6654 15.4648 37.7405 15.3897 37.778L15.0893 37.9658C15.0517 38.0033 14.9766 38.0033 14.9391 38.0033C14.8264 38.0033 14.7513 37.9658 14.6762 37.8531L13.5122 35.9006Z" fill="white"/>
<path d="M44.5652 19.3415V19.7169C44.5277 20.3553 44.3024 20.9561 43.9644 21.4818C43.8142 21.707 43.6265 21.9323 43.4387 22.1576C43.0633 22.5331 42.6502 22.8335 42.1621 23.0213C41.6739 23.209 41.1858 23.3217 40.6226 23.3217C39.4961 23.3217 38.5574 22.9462 37.8064 22.1952C37.6187 22.0074 37.4309 21.7821 37.2807 21.5193C36.8677 20.9185 36.6799 20.2051 36.6799 19.379C36.6799 18.8158 36.8301 18.1399 37.1305 17.464C37.2432 17.1636 37.3934 16.8632 37.5811 16.5628C37.6562 16.4502 37.8064 16.1498 38.1068 15.6992C38.257 15.4739 38.4447 15.1735 38.67 14.8356C38.8578 14.5352 39.0831 14.1597 39.3459 13.7842C39.4961 13.5589 39.6463 13.2961 39.7965 13.0332V12.9957C39.9467 12.7328 40.0969 12.47 40.2095 12.2072C40.2846 12.0194 40.3597 11.8692 40.4348 11.719C40.5475 11.5313 40.8479 11.5313 40.9605 11.7566L40.9981 11.8317C41.2609 12.3949 41.6364 13.1083 42.0119 13.7467C43.0633 15.3613 43.6265 16.3 43.7767 16.5253C44.2648 17.5767 44.5652 18.5529 44.5652 19.3415ZM43.4763 19.379C43.4763 19.3039 43.4387 19.2288 43.4012 19.1913L43.3636 19.1537C43.3261 19.1162 43.251 19.0786 43.1759 19.0786H42.8755C42.7253 19.0786 42.5751 19.1913 42.5751 19.3415V19.4166C42.5 20.5055 41.6364 21.3316 40.5475 21.4067H40.5099C40.3597 21.4442 40.2471 21.5568 40.2471 21.707V22.0074C40.2471 22.1201 40.3222 22.1952 40.3973 22.2703C40.4348 22.3078 40.4724 22.3078 40.5475 22.3078C41.2234 22.2703 41.8617 22.045 42.3874 21.5944C42.5376 21.4818 42.6502 21.3316 42.8004 21.1814C43.2135 20.6557 43.4387 20.0549 43.4763 19.379Z" fill="white"/>
<path d="M19.107 11.7565L24.101 22.5706C24.2136 22.8335 24.0259 23.0963 23.8006 23.0963H11.447C11.1842 23.0963 11.034 22.8335 11.1091 22.5706L14.526 14.1221C14.6387 13.8968 14.939 13.8217 15.0892 14.0095L16.1782 15.1735C16.3284 15.3612 16.6288 15.3237 16.7414 15.0984L18.4311 11.719C18.6189 11.4937 18.9568 11.4937 19.107 11.7565ZM18.3185 17.3889C18.4311 17.464 18.5438 17.5766 18.6564 17.6517C18.8441 17.7644 18.9943 17.6893 19.1821 17.5766C19.52 17.3889 20.2335 17.0509 19.9706 16.4502C19.7453 15.7743 19.2947 14.6478 19.0694 14.047C18.9568 13.7466 18.5813 13.7091 18.4311 14.0095C17.9805 14.9107 17.4924 15.962 17.0418 16.9008C16.9291 17.126 16.6663 17.1636 16.4786 17.0134C16.1031 16.6379 15.7276 16.3 15.3896 15.962C15.2394 15.8118 14.939 15.8118 14.864 16.0371C14.1505 17.9146 14.0379 18.0272 15.1268 18.7407C15.277 18.8533 15.4647 18.8158 15.5774 18.6656C15.7276 18.4778 15.9153 18.2901 16.0655 18.0648C16.1782 17.9146 16.4035 17.9146 16.5537 18.0272C16.6663 18.1023 16.779 18.215 16.854 18.2901C17.0042 18.4403 17.2295 18.3652 17.3797 18.215C17.5299 17.9897 17.6801 17.7644 17.8303 17.5015C17.943 17.3138 18.1683 17.2387 18.3185 17.3889Z" fill="white"/>
</svg>
