<svg width="60" height="60" viewBox="0 0 60 60" fill="none" xmlns="http://www.w3.org/2000/svg">
<rect width="60" height="60" fill="#013B68"/>
<g clip-path="url(#clip0_150_1097)">
<path d="M36.9424 34.51H39.0141L40.9159 26.2341H38.8697L36.9594 34.5224L36.9424 34.51ZM41.7904 27.6929H43.8536L44.1932 26.2341H42.1301L41.7904 27.6929ZM40.2282 34.5224H42.2829L43.6244 28.7206H41.5612L40.2282 34.5224ZM47.5979 28.3062C45.8489 28.3062 44.5159 28.3394 44.0829 30.2954C43.8112 31.5386 44.1508 32.1022 46.7658 32.1022C47.479 32.1022 47.8356 32.1022 47.6998 32.7073C47.6064 33.1797 47.4451 33.2377 46.5111 33.2377C46.0272 33.2377 45.5347 33.2377 45.6366 32.6327H43.5734C43.1829 34.5224 44.5583 34.5224 46.146 34.5224H46.2309C47.8781 34.5224 49.3554 34.2572 49.746 32.4752C50.1196 30.7678 49.2026 30.6518 47.08 30.6103C46.0357 30.5855 46.0611 30.3783 46.1206 30.0799V30.0716C46.2055 29.7152 46.2394 29.5494 47.3092 29.5494C47.6149 29.5494 48.0309 29.5909 48.0309 30.0385H49.9837L50.0347 29.8147C50.3658 28.3228 48.7356 28.3062 47.5894 28.3062H47.5979ZM12.2352 33.2377C11.9211 33.2377 11.3352 33.2377 11.4796 32.5747C11.6069 32.0194 12.0145 31.9448 12.5239 31.9448H13.6446L13.5258 32.5001C13.3814 33.13 13.1012 33.2377 12.2352 33.2377ZM13.5088 28.3062H13.4833C12.023 28.3062 10.6135 28.3062 10.1975 30.1794H12.2607C12.3796 29.6406 12.7277 29.5494 13.2456 29.5494C14.1456 29.5494 14.0946 29.881 13.9758 30.4446L13.8909 30.8424H12.0824C10.5966 30.8424 9.72204 31.2568 9.4079 32.6327C9.0513 34.1909 9.83242 34.5224 11.2758 34.5224C11.989 34.5224 12.9569 34.3815 13.2965 33.5527H13.3644L13.0927 34.5224H15.1559L15.988 30.6601C16.455 28.5631 15.6229 28.3062 13.5088 28.3062ZM21.5747 28.3062H24.2747L21.2351 31.4309L20.3436 29.6738L21.5832 28.3062H21.5747ZM17.0153 28.3062H19.7153L20.3436 29.6738L18.6625 31.4309L17.0153 28.3062ZM20.1568 34.5224L19.554 33.1963L18.3653 34.5224H15.6314L18.6625 31.4309L19.554 33.1963L21.2351 31.4309L22.8822 34.5224H20.1483H20.1568ZM34.65 30.6601C34.8538 29.7484 34.5141 29.6986 33.8264 29.6986C33.0962 29.6986 32.833 29.8644 32.6377 30.6601H34.65ZM33.1047 33.13C33.716 33.13 34.1236 33.072 34.2849 32.4918H36.3056C36.1018 33.3621 35.6773 33.8676 35.0915 34.166C34.4887 34.4561 33.7075 34.5224 32.7991 34.5224C30.3199 34.5224 29.9123 33.6936 30.4048 31.4226C30.9142 29.0853 31.6359 28.3062 34.166 28.3062C36.5179 28.3062 37.0867 28.9444 36.5433 31.4226L36.4669 31.7541H32.3915C32.1538 32.8233 32.2557 33.13 33.1047 33.13ZM27.3652 32.0359C27.2208 32.6741 27.0765 32.9974 26.202 32.9974C25.4294 32.9974 25.2935 32.8482 25.6077 31.4226C25.9048 30.0302 26.168 29.8395 26.8982 29.8395C27.3227 29.8395 27.5605 29.881 27.6708 30.0053C27.7897 30.1379 27.7812 30.3368 27.6963 30.6601H29.7595C30.2349 28.4968 29.0378 28.3062 27.2293 28.3062C24.6567 28.3062 24.003 29.3588 23.5445 31.4226C23.0181 33.8262 23.4341 34.5224 25.8709 34.5224C26.9746 34.5224 27.7472 34.4644 28.2991 34.1163C28.8425 33.8013 29.1736 33.0803 29.4199 32.0359H27.3652Z" fill="#FEFEFD"/>
</g>
<defs>
<clipPath id="clip0_150_1097">
<rect width="42" height="9" fill="white" transform="translate(9 26)"/>
</clipPath>
</defs>
</svg>
