<svg width="60" height="60" viewBox="0 0 60 60" fill="none" xmlns="http://www.w3.org/2000/svg">
<rect width="60" height="60" fill="#1D4289"/>
<g clip-path="url(#clip0_168_624)">
<path d="M46.3593 34.7707C45.2604 35.6479 43.9676 36.2973 42.561 36.6312C43.9056 36.0561 45.1079 35.2 46.0749 34.1134C47.7142 32.2979 48.7123 29.8755 48.7123 27.2119C48.7123 21.5852 44.2624 17.0212 38.7731 17.0212H31.1842H31.1738L34.2094 23.8804H38.7731C40.5649 23.8804 42.0103 25.3752 42.0103 27.2119C42.0103 28.6325 41.1441 29.8437 39.9237 30.3128L37.4776 31.2961L42.6334 42.9788H49.987L46.3593 34.7707Z" fill="#97999B"/>
<path d="M20.3994 36.1197L28.8312 17.0212H21.4776L10.0206 42.9788H30.6024L27.5798 36.1197H20.3994ZM28.8312 17.0318L25.7259 26.6473L32.9269 42.9788H40.2805L28.8312 17.0318Z" fill="white"/>
</g>
<defs>
<clipPath id="clip0_168_624">
<rect width="40" height="26" fill="white" transform="translate(10 17)"/>
</clipPath>
</defs>
</svg>
