<svg width="60" height="60" viewBox="0 0 60 60" fill="none" xmlns="http://www.w3.org/2000/svg">
<rect width="60" height="60" fill="#009C8B"/>
<path d="M31.1704 10L28.6362 14.5453L43.1471 44.184C43.882 45.7301 44.0453 48.0123 42.815 49.9809H50.989L31.1704 10Z" fill="white"/>
<path d="M40.0605 44.3503C40.0414 44.3149 26.9651 17.7109 26.9651 17.7109L24.3003 22.5126L34.9731 44.2767C35.7435 45.8609 35.67 47.9195 34.8615 49.4846L34.6057 49.9809H39.6577C39.6577 49.9809 40.153 48.9884 40.2265 48.7293C40.7219 47.3306 40.6675 45.6755 40.0605 44.3503Z" fill="white"/>
<path d="M32.1449 45.3811L22.501 25.6401L21.8041 26.8917C20.5738 29.1166 20.5003 31.8215 21.6191 34.1037L26.5431 44.1841C27.0739 45.272 26.2845 46.5208 25.0923 46.5208H14.512C13.2817 46.5208 12.4188 45.4002 12.6202 44.2768V44.2577C12.6202 44.2214 12.6266 44.1914 12.6393 44.1677C12.6747 43.9469 12.6393 43.6715 12.5086 43.6715L10.9299 46.5208L9 49.981H29.2787C31.6305 49.981 33.1901 47.497 32.1449 45.3811Z" fill="white"/>
</svg>
