<svg width="60" height="60" viewBox="0 0 60 60" fill="none" xmlns="http://www.w3.org/2000/svg">
<rect width="60" height="60" fill="white"/>
<path d="M35.9928 46.4503V49.0781C37.4363 48.6428 38.8138 48.0562 40.102 47.3355V46.4503H35.9928ZM19.9536 46.4516V47.3902C21.2409 48.1026 22.617 48.6817 24.0615 49.1061V46.4516H19.9536ZM25.3123 46.4516V49.4336C26.6377 49.7371 28.0115 49.9147 29.4215 49.9501V46.4516H25.3123ZM30.6314 46.4516V49.9461C32.0433 49.9052 33.4171 49.7218 34.7407 49.411V46.4516H30.6314Z" fill="#A5152B"/>
<path d="M19.9533 41.1878V45.2028H24.0612V41.1878H19.9533ZM25.3133 41.1878V45.2028H29.4225V41.1878H25.3133ZM30.6311 41.1878V45.2028H34.7403V41.1878H30.6311ZM35.9924 41.1878V45.2028H40.1017V41.1878H35.9924ZM41.3525 41.1878V45.2028H43.2013C44.0115 44.5294 44.7683 43.7938 45.4603 43.0049V41.1878H41.3525ZM14.5933 41.1892V43.1168C15.2592 43.8647 15.9812 44.5635 16.7542 45.2042H18.7025V41.1892H14.5933Z" fill="#C70D2C"/>
<path d="M10.4854 35.9281C10.9309 37.3385 11.5348 38.6831 12.2743 39.9418H13.3411V35.9281H10.4854ZM14.5932 35.9281V39.9418H18.7025V35.9281H14.5932ZM19.9533 35.9281V39.9418H24.0612V35.9281H19.9533ZM25.3133 35.9281V39.9418H29.4225V35.9281H25.3133ZM30.6311 35.9281V39.9418H34.7403V35.9281H30.6311ZM35.9924 35.9281V39.9418H40.1017V35.9281H35.9924ZM41.3524 35.9281V39.9418H45.4603V35.9281H41.3524ZM46.7125 35.9281V39.9405H47.6798C48.4193 38.6827 49.0232 37.3395 49.4688 35.9281H46.7125Z" fill="#E57204"/>
<path d="M9.58789 30.6657C9.63065 32.0434 9.81751 33.3862 10.1356 34.6794H13.3415V30.6657H9.58789ZM14.5937 30.6657V34.6794H18.7029V30.6657H14.5937ZM19.9537 30.6657V34.6794H24.0616V30.6657H19.9537ZM25.3137 30.6657V34.6794H29.4229V30.6657H25.3137ZM30.6315 30.6657V34.6794H34.7407V30.6657H30.6315ZM35.9928 30.6657V34.6794H40.1021V30.6657H35.9928ZM41.3528 30.6657V34.6794H45.4607V30.6657H41.3528ZM46.7129 30.6657V34.6794H49.8193C50.1374 33.3862 50.3243 32.0434 50.367 30.6657H46.7129Z" fill="#F1C403"/>
<path d="M10.1356 25.3713C9.81751 26.6646 9.63067 28.0064 9.58789 29.385H13.3415V25.3713H10.1356ZM14.5937 25.3713V29.385H18.7029V25.3713H14.5937ZM19.9537 25.3713V29.385H24.0616V25.3713H19.9537ZM25.3137 25.3713V29.385H29.4229V25.3713H25.3137ZM30.6315 25.3713V29.385H34.7407V25.3713H30.6315ZM35.9928 25.3713V29.385H40.1021V25.3713H35.9928ZM41.3528 25.3713V29.385H45.4607V25.3713H41.3528ZM46.7129 25.3713V29.385H50.367C50.3243 28.0064 50.1374 26.6646 49.8193 25.3713H46.7129Z" fill="#008262"/>
<path d="M14.5932 20.1076V24.1226H18.7025V20.1076H14.5932ZM19.9533 20.1076V24.1226H24.0612V20.1076H19.9533ZM25.3133 20.1076V24.1226H29.4225V20.1076H25.3133ZM30.6311 20.1076V24.1226H34.7403V20.1076H30.6311ZM35.9924 20.1076V24.1226H40.1017V20.1076H35.9924ZM41.3524 20.1076V24.1226H45.4603V20.1076H41.3524ZM12.2743 20.109C11.5367 21.3667 10.9327 22.7104 10.4854 24.1227H13.3411V20.109H12.2743ZM46.7125 20.109V24.1227H49.4688C49.0232 22.7104 48.4193 21.3667 47.6798 20.109H46.7125Z" fill="#0185AD"/>
<path d="M16.7555 14.8452C15.9826 15.4859 15.2592 16.185 14.5933 16.9339V18.8602H18.7025V14.8452H16.7555ZM41.3525 14.8452V18.8602H45.4603V17.047C44.7665 16.2555 44.0106 15.5177 43.1986 14.8452H41.3525ZM19.9533 14.8465V18.8616H24.0612V14.8465H19.9533ZM25.3133 14.8465V18.8616H29.4225V14.8465H25.3133ZM30.6311 14.8465V18.8616H34.7403V14.8465H30.6311ZM35.9924 14.8465V18.8616H40.1017V14.8465H35.9924Z" fill="#003058"/>
<path d="M29.4215 10.0993C28.0115 10.1347 26.6377 10.3123 25.3123 10.6158V13.5978H29.4215V10.0993ZM30.6314 10.1034V13.5979H34.7407V10.6386C33.4171 10.3277 32.0433 10.1434 30.6314 10.1034ZM24.0615 10.9434C22.617 11.3678 21.2409 11.9469 19.9536 12.6594V13.5979H24.0615V10.9434ZM35.9928 10.9714V13.5979H40.102V12.714C38.8138 11.9942 37.4363 11.4067 35.9928 10.9714Z" fill="#5F376E"/>
</svg>
