<svg width="60" height="60" viewBox="0 0 60 60" fill="none" xmlns="http://www.w3.org/2000/svg">
<rect width="60" height="60" fill="#014168"/>
<g clip-path="url(#clip0_1403_9014)">
<path d="M29.5886 24.4957L24.8041 32.7317C24.3045 33.5767 24.0298 34.4433 23.9545 35.2667H22.0776C22.2054 34.2267 22.6088 33.23 23.4251 31.8095L26.7755 26.0687C27.4449 24.9325 28.1125 24.5191 29.3226 24.5191H29.5974V24.5087L29.5886 24.4957ZM30.9974 28.9296C28.5693 28.9296 27.073 30.3813 25.7588 33.5446C25.4298 34.335 25.239 35.3213 26.3625 35.3109C26.9986 35.2996 28.0705 34.9417 28.8239 34.4095C28.76 34.6695 28.7276 35.0509 28.7495 35.2667H30.4558C30.5205 34.5846 30.7751 33.7179 31.336 32.6883L33.4684 29.0605C32.6477 28.9726 31.8228 28.9289 30.9974 28.9296ZM29.2264 33.1329C28.8764 33.4692 28.1983 33.9658 27.6251 33.9771C27.2314 33.9563 27.2113 33.5767 27.4764 33.0567C28.4853 31.0746 29.5554 30.0233 30.8591 30.0337H31.0936L29.2264 33.1329ZM48.5385 28.9296C46.1104 28.9296 44.6159 30.3813 43.2999 33.5446C42.9709 34.335 42.7792 35.3213 43.9036 35.3109C44.5406 35.2996 45.6116 34.9417 46.365 34.4095C46.3011 34.6695 46.2687 35.0509 46.2906 35.2667H47.9986C48.0616 34.5846 48.3162 33.7179 48.878 32.6883L50.9999 29.0605C50.194 28.9738 49.3662 28.9296 48.5385 28.9296ZM46.7675 33.1329C46.4175 33.4692 45.7385 33.9658 45.1662 33.9771C44.7725 33.9563 44.7524 33.5767 45.0175 33.0567C46.0264 31.0746 47.0965 30.0233 48.4011 30.0337H48.6356L46.7675 33.1329Z" fill="#FEFEFD"/>
<path d="M42.9832 36.987H42.4293C41.7083 37 41.0722 36.5025 40.8823 35.7979L40.0336 32.5271L38.4525 35.2667H36.6386L41.7083 26.4709C42.3655 25.3338 43.0445 24.9213 44.2546 24.9213H44.4453L41.0722 30.7392L43.5957 29.2H45.6231L41.3706 31.9647L42.9911 37L42.9832 36.987ZM26.2559 24C24.5496 24 23.6571 24.4663 21.9815 25.7013L16.2975 30.0667H12.6592C11.6084 30.0667 10.6634 30.0667 10.1025 30.5641L9.16012 31.4542C9.16012 31.4542 11.8954 31.345 14.4416 31.2462L9 35.2667H11.3546L16.924 31.1509C18.0046 31.1075 18.7457 31.0859 18.758 31.0859C20.0521 31.0512 20.7731 30.0667 20.7731 30.0667H18.6416L23.1374 26.5671L19.7975 32.0921C19.0861 33.36 18.7361 34.2925 18.6197 35.2667H20.5509C20.6244 34.4433 20.9009 33.5663 21.3979 32.7204L25.9487 24.9646C26.2664 24.4333 26.542 24 26.542 24H26.2559ZM35.313 30.7063C35.2911 30.8692 35.3567 30.9767 35.684 31.1933L36.2046 31.5391C36.7663 31.9196 36.9982 32.4942 36.9265 32.9587C36.734 34.2587 35.8012 35.3091 33.808 35.3091C32.9365 35.3091 32.5445 35.2788 31.5059 35.1046L32.2794 33.7717C33.0012 33.9017 33.4037 33.9675 33.9445 33.9675C34.6987 33.9675 34.9953 33.6209 35.0382 33.3383C35.0583 33.1763 34.984 32.9813 34.6243 32.7308L34.2105 32.4292C33.5525 31.9413 33.3731 31.5625 33.458 30.9663C33.6277 29.8188 34.9306 28.9287 36.734 28.9287C37.3071 28.9287 37.9222 28.9617 38.6012 29.0379L37.8697 30.2963C37.4235 30.2617 36.7033 30.2183 36.1932 30.2409C35.684 30.2513 35.3453 30.435 35.313 30.7063Z" fill="#FEFEFD"/>
</g>
<defs>
<clipPath id="clip0_1403_9014">
<rect width="42" height="13" fill="white" transform="translate(9 24)"/>
</clipPath>
</defs>
</svg>
