<svg width="60" height="60" viewBox="0 0 60 60" fill="none" xmlns="http://www.w3.org/2000/svg">
<rect width="60" height="60" fill="#F26822"/>
<g clip-path="url(#clip0_168_612)">
<path d="M22.4139 11.1619C15.7665 11.1619 10.3787 16.4475 10.3787 22.9669H22.4139V11.1619ZM23.9183 11.1619V22.9669H35.9536V21.2394V11.1619H23.9183ZM37.458 11.1619V22.9669H49.4933C49.4933 16.4475 44.1055 11.1619 37.458 11.1619ZM10.3787 24.4427V36.2463H22.4139V34.769V24.4427H10.3787ZM37.458 24.4427V36.2463H49.4933V34.3886V24.4427H37.458ZM10.3787 37.7221C10.3787 44.2424 15.7665 49.5271 22.4139 49.5271V37.7221H10.3787ZM23.9183 37.7221V49.5271C30.5638 49.5271 35.9536 44.2424 35.9536 37.7221H23.9183ZM37.458 37.7221C37.458 44.2424 42.8478 49.5271 49.4933 49.5271V37.7221H37.458Z" fill="black"/>
</g>
<defs>
<clipPath id="clip0_168_612">
<rect width="40" height="39" fill="white" transform="translate(10 11)"/>
</clipPath>
</defs>
</svg>
