<svg version="1.2" xmlns="http://www.w3.org/2000/svg" viewBox="0 0 1523 1497" width="1523" height="1497">
	<title>ALLY_BIG copy-svg</title>
	<style>
		.s0 { fill: #5c105d } 
	</style>
	<path id="Layer" fill-rule="evenodd" class="s0" d="m1522.1 1472.2h-421.9v-722.3q0-138.8-97.9-230.7-98.2-91.8-232.4-91.8-136.5 0-234.4 91.8-98.2 91.6-98.2 230.7 0 139 98.2 230.9 97.9 91.8 234.4 91.8h312.9l-394.6 424.2q-173.9-12.1-303.1-84.3-128.9-71.8-214.7-178.5-85.8-106.9-127.8-233.5-42.3-126.3-42.3-250.6 0-129 46.1-263.1 45.8-133.9 141.4-242 95.6-108 238.5-176.1 142.5-68.4 333.8-68.4 193.5 0 336.4 68.4 142.8 68.1 237 176.1 94.4 108.1 141.7 242 46.9 134.1 46.9 263.1z"/>
</svg>