<svg width="60" height="60" viewBox="0 0 60 60" fill="none" xmlns="http://www.w3.org/2000/svg">
<rect width="60" height="60" fill="black"/>
<g clip-path="url(#clip0_1772_9233)">
<path opacity="0.6" d="M38.83 40.4452C36.4593 45.5324 29.6091 49.6376 23.5622 49.6376C17.5368 49.6376 14.5642 45.5324 16.9329 40.4452C22.9603 27.586 40.9583 15.6483 40.9583 15.6483C40.9583 15.6483 44.9961 27.3054 38.83 40.4452Z" fill="#346094"/>
<path d="M43.8919 10C43.8919 10 22.6378 24.942 15.9089 39.3229C13.2587 44.9713 16.6124 49.5577 23.3414 49.6376C17.4352 49.5577 14.5642 45.4915 16.933 40.4452C22.9603 27.586 40.9584 15.6483 40.9584 15.6483C40.9584 15.6483 44.9962 27.3054 38.8691 40.4452C36.5199 45.5324 29.6893 49.6376 23.6229 49.6376C30.5336 49.6376 38.2672 45.0317 40.9193 39.3229C47.789 24.6206 43.8919 10 43.8919 10Z" fill="#346094"/>
<path d="M37.6241 41.6064C35.5348 46.0331 29.2671 49.698 23.6228 49.698C17.9589 49.698 15.086 46.0935 17.1146 41.6064C22.3583 30.3488 36.9205 21.1564 36.9205 21.1564C36.9205 21.1564 43.0084 30.0702 37.6241 41.6064Z" fill="#C1CBDD"/>
<path d="M33.8678 43.7302C32.06 47.3347 27.2385 50.1189 23.06 49.9786C18.8815 49.8383 16.974 46.7736 18.7818 43.208C23.3414 34.1559 34.6105 27.0249 34.6105 27.0249C32.099 36.6986 37.3427 36.8388 33.8678 43.7302Z" fill="white"/>
<path d="M23.3416 39.7029C23.3416 39.7029 17.2557 46.6332 22.0772 47.6542C22.0772 47.6152 20.0876 45.3921 23.3416 39.7029Z" fill="#9AACC9"/>
</g>
<defs>
<clipPath id="clip0_1772_9233">
<rect width="30" height="40" fill="white" transform="translate(15 10)"/>
</clipPath>
</defs>
</svg>
