<svg width="60" height="60" viewBox="0 0 60 60" fill="none" xmlns="http://www.w3.org/2000/svg">
<rect width="60" height="60" fill="#F50127"/>
<g clip-path="url(#clip0_150_839)">
<path d="M21.0771 24.704C20.9841 24.6905 18.7693 24.3866 16.201 25.2878C13.8225 26.1224 10.6173 28.1557 9.11533 33.1822C8.86169 34.0311 9.1186 35.1829 10.8758 35.0223H17.4604C18.1994 35.0223 18.7987 34.423 18.7987 33.684C18.7987 32.945 18.1994 32.3457 17.4604 32.3457H12.2964C14.2531 28.1666 17.7383 27.4161 19.5482 27.3255V33.7376C19.5482 34.4766 20.1473 35.0759 20.8865 35.0759C21.6255 35.0759 22.2246 34.4766 22.2246 33.7376V26.0287C22.2248 25.3631 21.736 24.7987 21.0771 24.704Z" fill="white"/>
<path d="M34.6009 24.696C34.6733 24.6907 34.6162 24.693 34.5906 24.695C34.5655 24.693 34.5088 24.6907 34.581 24.696C34.5798 24.6964 34.5822 24.6967 34.5906 24.6967C34.5994 24.6967 34.6021 24.6964 34.6009 24.696Z" fill="white"/>
<path d="M34.5906 24.6967C32.9095 24.7352 31.8246 25.2707 31.0309 26.1306C30.3269 25.3423 29.1164 24.6818 27.4708 24.6967C25.6373 24.5681 22.4746 26.2148 22.7065 29.1871V33.7376C22.7065 34.4764 23.3057 35.076 24.0447 35.076C24.7837 35.076 25.383 34.4764 25.383 33.7376V29.2C25.3894 27.6266 27.0854 27.3781 27.4706 27.3709C29.3729 27.3245 29.659 28.9648 29.6656 29.2V33.7376C29.6656 34.4766 30.2915 35.0739 31.0307 35.0739C31.7697 35.0739 32.3959 34.4766 32.3959 33.7376V29.2C32.4738 27.5194 34.0625 27.3423 34.5906 27.3709C34.9046 27.3959 36.5825 27.4838 36.6784 29.2V33.7376C36.6784 34.4766 37.2777 35.076 38.0168 35.076C38.7558 35.076 39.3551 34.4766 39.3551 33.7376V29.1871C39.4089 28.9273 39.2087 24.8358 34.5906 24.6967Z" fill="white"/>
<path d="M49.9536 30.7146C49.2946 30.3798 48.4891 30.6426 48.1542 31.3017C47.656 32.2823 46.6639 32.8912 45.5655 32.8912C44.7905 32.8912 44.0617 32.5893 43.5141 32.0413C42.9659 31.4934 42.6642 30.7648 42.6642 29.9899C42.6642 29.2151 42.9661 28.4863 43.5141 27.9386C44.0621 27.3906 44.7905 27.0887 45.5655 27.0887C46.7349 27.0887 47.8036 27.7414 48.2246 28.713C48.5187 29.3912 49.3064 29.7028 49.9845 29.409C50.6626 29.1153 50.9743 28.3272 50.6802 27.6489C49.8413 25.7129 47.7861 24.412 45.5649 24.412C42.4891 24.412 39.9869 26.9142 39.9869 29.9899C39.9869 31.4799 40.567 32.8806 41.6208 33.9342C42.6741 34.9876 44.075 35.5677 45.5647 35.5677C47.6764 35.5677 49.5832 34.3975 50.5401 32.5136C50.8753 31.855 50.6123 31.0495 49.9536 30.7146Z" fill="white"/>
</g>
<defs>
<clipPath id="clip0_150_839">
<rect width="42" height="12" fill="white" transform="translate(9 24)"/>
</clipPath>
</defs>
</svg>
