<svg width="60" height="60" viewBox="0 0 60 60" fill="none" xmlns="http://www.w3.org/2000/svg">
<rect width="60" height="60" fill="#EE0125"/>
<g clip-path="url(#clip0_168_588)">
<path fill-rule="evenodd" clip-rule="evenodd" d="M37.6547 24.288L33.9692 36.7768H30.7774L28.583 29.3297L26.3861 36.7768H23.1943L19.5114 24.288H22.468L24.7902 32.1607L27.1125 24.288H30.0536L32.3733 32.1607L34.6956 24.288H37.6547ZM46.693 32.0621H49.9871C49.271 35.0202 46.7416 36.9792 43.7621 36.9792C39.9027 36.9792 37.271 33.8551 37.271 30.4741C37.271 27.2798 39.7033 24 43.7288 24C47.5907 24 49.6547 27.0255 49.9871 28.9872H46.693C46.3426 28.0557 45.4117 26.805 43.7135 26.805C41.5984 26.805 40.4168 28.681 40.4168 30.4559C40.4168 32.3501 41.6828 34.1743 43.7288 34.1743C45.693 34.1743 46.4935 32.5006 46.693 32.0621ZM17.6572 24.288L21.3401 36.7768H18.3836L17.6521 34.2962H13.7109L12.9795 36.7768H10.0229L13.7058 24.288H17.6572ZM16.913 31.7948L15.6828 27.6172L14.4501 31.7948H16.913Z" fill="black"/>
</g>
<defs>
<clipPath id="clip0_168_588">
<rect width="40" height="13" fill="white" transform="translate(10 24)"/>
</clipPath>
</defs>
</svg>
