<svg width="60" height="60" viewBox="0 0 60 60" fill="none" xmlns="http://www.w3.org/2000/svg">
<rect width="60" height="60" fill="black"/>
<g clip-path="url(#clip0_150_1089)">
<path d="M14.1515 24.3037L10.1288 34.4692H12.8347L16.8509 24.3037H14.1515Z" fill="#FFB71B"/>
<path d="M16.1267 28.047L18.6944 34.4691H21.5913L17.5093 24.6292L16.1267 28.047Z" fill="white"/>
<path d="M26.4223 27.1988C25.9378 27.1988 25.503 27.2997 25.1179 27.5008C24.7304 27.7019 24.4173 27.9947 24.1763 28.3786V27.3728H22.1241V34.4358H24.2335V30.4693C24.2335 29.9908 24.3661 29.6069 24.631 29.3177C24.8968 29.0311 25.2471 28.8852 25.6844 28.8852C26.0471 28.8852 26.3154 28.9955 26.4869 29.2154C26.6591 29.4362 26.7453 29.786 26.7453 30.2646V34.4102H28.8546V30.1622C28.8546 29.1642 28.6541 28.4195 28.2533 27.9256C27.8533 27.4317 27.2422 27.186 26.4223 27.186V27.1988Z" fill="white"/>
<path d="M33.9006 30.2697L32.7428 29.9959C32.4645 29.9194 32.2683 29.8382 32.1565 29.7515C32.0454 29.6647 31.9895 29.545 31.9895 29.3932C31.9895 29.1826 32.0822 29.0196 32.2678 28.9044C32.4534 28.7893 32.71 28.7317 33.0355 28.7317C33.7435 28.7317 34.4591 28.9902 35.187 29.5071L35.746 28.0689C35.3734 27.79 34.9535 27.575 34.4889 27.4215C34.0243 27.2684 33.5448 27.1912 33.0504 27.1912C32.4715 27.1912 31.9597 27.2874 31.5075 27.4778C31.0554 27.6694 30.7075 27.9333 30.4616 28.2685C30.2144 28.6038 30.0914 28.9927 30.0914 29.4329C30.0914 29.9882 30.2479 30.4284 30.5585 30.7482C30.869 31.0707 31.356 31.3061 32.0193 31.4597L33.1373 31.7181C33.4827 31.7946 33.7162 31.8814 33.8429 31.9766C33.9684 32.0728 34.0315 32.2069 34.0315 32.3784C34.0315 32.5706 33.9408 32.7213 33.7582 32.8313C33.5768 32.9416 33.3234 32.9966 32.998 32.9966C32.5408 32.9966 32.0911 32.925 31.6439 32.7814C31.1967 32.6371 30.7868 32.4359 30.4141 32.1775L29.8551 33.672C30.2352 33.9509 30.6899 34.1633 31.2166 34.3117C31.7433 34.4599 32.3222 34.5344 32.9557 34.5344C33.8775 34.5344 34.6004 34.3401 35.1272 33.9509C35.6539 33.5619 35.9172 33.0271 35.9172 32.3464C35.9172 31.7808 35.7567 31.333 35.4352 31.0029C35.1122 30.6702 34.6029 30.4245 33.9048 30.2607L33.9006 30.2697Z" fill="white"/>
<path d="M49.5279 31.0376C49.2074 30.7075 48.6981 30.4592 48 30.298L46.8397 30.0242C46.5614 29.9477 46.3652 29.8666 46.2534 29.7798C46.1416 29.6931 46.0857 29.5733 46.0857 29.4215C46.0857 29.2109 46.1791 29.0479 46.3639 28.9328C46.5488 28.8176 46.8062 28.76 47.1316 28.76C47.8397 28.76 48.5552 29.0185 49.2832 29.5354L49.8422 28.0972C49.4695 27.8183 49.0496 27.6033 48.585 27.4498C48.1205 27.2968 47.6409 27.2195 47.1465 27.2195C46.5701 27.2195 46.0559 27.3157 45.6037 27.5061C45.1515 27.6978 44.8012 27.9616 44.5552 28.2968C44.3088 28.6321 44.185 29.0211 44.185 29.4612C44.185 30.0165 44.3408 30.4567 44.6521 30.7766C44.9627 31.099 45.4496 31.3344 46.1105 31.488L47.2285 31.7465C47.5739 31.823 47.8074 31.9097 47.9341 32.0049C48.0603 32.1011 48.1227 32.2352 48.1227 32.4067C48.1227 32.5989 48.032 32.7496 47.8494 32.8596C47.668 32.9699 47.4146 33.025 47.0891 33.025C46.632 33.025 46.1823 32.9533 45.7351 32.8097C45.2879 32.6654 44.878 32.4643 44.5053 32.2058L43.9463 33.7003C44.3289 33.9792 44.7811 34.1916 45.3078 34.3401C45.8345 34.4882 46.4134 34.5627 47.0469 34.5627C47.9687 34.5627 48.6916 34.3685 49.2183 33.9792C49.745 33.5902 50.0084 33.0554 50.0084 32.3747C50.0072 31.8091 49.8467 31.3613 49.5264 31.0286L49.5279 31.0376Z" fill="white"/>
<path d="M37.9851 37.0462H40.0261L43.8447 27.4165H41.8037L40.1578 31.5532L38.5118 27.4165H36.4708L39.1044 34.1302L37.9851 37.0462Z" fill="white"/>
</g>
<defs>
<clipPath id="clip0_150_1089">
<rect width="40" height="13" fill="white" transform="translate(10 24)"/>
</clipPath>
</defs>
</svg>
