<svg width="60" height="60" viewBox="0 0 60 60" fill="none" xmlns="http://www.w3.org/2000/svg">
<rect width="60" height="60" fill="#CA9D39"/>
<g clip-path="url(#clip0_150_931)">
<path fill-rule="evenodd" clip-rule="evenodd" d="M17.6288 23H19.3485C19.5354 23.4771 19.7036 23.9625 19.8852 24.4452C21.5407 28.9552 23.1963 33.4653 24.8518 37.9753C23.6502 37.9753 22.4495 37.9753 21.2497 37.9753C20.713 36.4232 20.1789 34.8739 19.6449 33.3218C19.3805 32.5649 19.1348 31.7971 18.8678 31.0402C18.3738 29.6088 17.8852 28.1746 17.3885 26.7431C16.7583 28.5777 16.1308 30.4122 15.4953 32.2441C16.3685 32.2441 17.2417 32.2441 18.1121 32.2441C18.47 33.2825 18.8269 34.3199 19.1829 35.3565C17.6021 35.3565 16.0187 35.3592 14.4379 35.3565C14.1335 36.2285 13.8344 37.1033 13.53 37.9753C12.3578 37.9726 11.1856 37.9753 10.0134 37.9753C11.7089 33.3355 13.4072 28.6984 15.1028 24.0585C15.1829 23.8583 15.2844 23.6664 15.4232 23.5018C15.6395 23.2605 15.9439 23.1152 16.2563 23.0658C16.7103 22.9945 17.1722 23.0439 17.6288 23ZM26.5421 23H31.8211C32.2697 23.0192 32.721 23.0411 33.1589 23.1481C34.283 23.3976 35.3271 24.0448 36.0294 24.9854C36.8545 26.0631 37.1802 27.4973 36.996 28.8492C36.8598 29.9241 36.3738 30.9497 35.6208 31.7121C34.8411 32.5128 33.7891 33.0119 32.6969 33.1572C32.2109 33.2285 31.7196 33.2093 31.2283 33.2121C30.761 33.2121 30.2911 33.2093 29.8211 33.2121C29.8211 34.7998 29.8211 36.3876 29.8211 37.9753C28.7281 37.9753 27.6342 37.9753 26.5394 37.9753C26.5394 32.9817 26.534 27.9909 26.5421 23ZM29.8211 26.1892C29.8211 27.4726 29.8211 28.7559 29.8211 30.0393C30.502 30.0366 31.1829 30.0393 31.8665 30.0366C32.3498 30.0311 32.8304 29.8309 33.1642 29.4689C33.7997 28.7916 33.8478 27.6426 33.2951 26.8995C32.9773 26.4689 32.4593 26.2029 31.9306 26.1892C31.2274 26.1892 30.5243 26.1892 29.8211 26.1892ZM42.753 23H44.478C44.7503 23.7102 45.004 24.4314 45.271 25.1444C46.8385 29.4223 48.4112 33.6974 49.9786 37.9726C48.7797 37.9753 47.5781 37.9753 46.3792 37.9753C46.0774 37.1005 45.773 36.2258 45.4713 35.351C43.8879 35.3428 42.3017 35.3647 40.7183 35.3565C41.0734 34.3199 41.4286 33.2806 41.7891 32.2441C42.6622 32.2441 43.5381 32.2441 44.4139 32.2441C43.7784 30.4095 43.1509 28.575 42.518 26.7404C41.5941 29.4333 40.6676 32.1261 39.741 34.819C39.3752 35.8693 39.0307 36.9278 38.6595 37.9753C37.4873 37.9753 36.3151 37.9753 35.1429 37.9753C36.8411 33.3272 38.5421 28.6819 40.2403 24.0338C40.3605 23.7514 40.5234 23.4662 40.785 23.2989C41.1509 23.0466 41.6048 23.0192 42.032 23.0247C42.2724 23.0055 42.5154 23.0329 42.753 23Z" fill="white"/>
</g>
<defs>
<clipPath id="clip0_150_931">
<rect width="40" height="15" fill="white" transform="translate(10 23)"/>
</clipPath>
</defs>
</svg>
