<svg width="60" height="60" viewBox="0 0 60 60" fill="none" xmlns="http://www.w3.org/2000/svg">
<rect width="60" height="60" fill="#017C53"/>
<g clip-path="url(#clip0_150_980)">
<path d="M11.2292 27.1324C11.1002 27.3076 10.6083 28.4756 10.1325 29.7562C8.99661 32.7656 8.85785 33.0375 8.45936 33.2458C8.18274 33.3737 8.35174 33.4211 9.27323 33.4059C9.90209 33.4059 10.2703 33.3576 10.0862 33.3254C9.4876 33.2458 9.39598 32.9086 9.70285 31.9803L9.97859 31.1165H12.2663L12.5278 31.6924C13.1086 33.422 12.8801 33.1824 12.5278 33.3254C12.2521 33.4372 12.5741 33.4211 13.4947 33.4211C14.5852 33.4372 14.6777 33.4059 14.3397 33.2297C14.0613 33.2297 13.7259 32.4293 12.8044 30.0442C12.1596 28.396 11.6063 27.0036 11.5601 26.9553C11.5147 26.907 11.3608 27.0026 11.2381 27.1466L11.2292 27.1324ZM11.6375 29.3878C11.8518 29.9324 12.0359 30.46 12.0359 30.5567C12.0359 30.6523 11.6375 30.7167 11.1002 30.7167C10.4091 30.7167 10.1787 30.6684 10.225 30.5083C10.2703 30.4127 10.4705 29.8358 10.6697 29.2438C10.8698 28.6518 11.0842 28.2198 11.1305 28.2833C11.1927 28.3477 11.4222 28.8441 11.6375 29.3878ZM47.333 26.9032C45.8591 27.1741 44.7997 28.5447 44.8309 30.1702C44.846 31.3021 45.1066 31.8913 45.9516 32.6889C47.8551 34.4735 51.0332 32.9276 51.0332 30.2175C51.0332 28.0825 49.329 26.5527 47.333 26.9032ZM48.8833 27.5246C49.8813 28.2729 50.3732 30.281 49.8973 31.6043C49.1146 33.7081 46.826 33.6124 46.0281 31.4452C45.675 30.4885 45.7826 28.6887 46.2122 28.0664C46.9034 27.0936 48.0232 26.8549 48.8833 27.5246ZM25.9856 26.8738C24.5117 27.1447 23.4524 28.5154 23.4835 30.1418C23.4986 31.2728 23.7592 31.8629 24.6042 32.6595C26.5077 34.4441 29.6858 32.8982 29.6858 30.1891C29.6858 28.0531 27.9816 26.5233 25.9856 26.8738ZM27.5368 27.4952C28.5339 28.2445 29.0258 30.2526 28.5499 31.5759C27.7672 33.6787 25.4786 33.584 24.6807 31.4158C24.3276 30.4591 24.4352 28.6593 24.8648 28.037C25.556 27.0652 26.6767 26.8255 27.5368 27.4952ZM16.55 27.0254C16.5198 27.0917 16.6425 27.158 16.8258 27.1902C17.1798 27.2404 17.1798 27.2565 17.1798 30.1323V33.0081C17.1798 33.3273 16.7395 33.3576 16.7395 33.3576C16.4059 33.4211 16.5207 33.4211 17.7935 33.4211C18.5611 33.4211 19.0228 33.4542 18.8538 33.4211C17.9714 33.1076 18.1778 33.2913 18.1778 30.0006V27.1078L18.8075 27.2072C20.4353 27.4384 20.7875 29.2561 19.4212 30.2479C18.9765 30.5794 18.9454 30.6286 19.2371 30.6286C19.7281 30.6286 20.5117 30.2308 20.8649 29.8017C21.6014 28.9255 21.049 27.2896 19.9585 27.0746C19.2522 26.9259 16.6274 26.8928 16.55 27.0254ZM38.7104 27.1258C38.6802 27.2072 38.7878 27.2565 38.9559 27.2565C39.1249 27.2565 39.3099 27.3219 39.3562 27.4194C39.4327 27.5331 39.478 30.7139 39.4327 32.8347C39.4327 32.9816 39.2485 33.1767 39.0182 33.2582C38.6953 33.3889 39.1712 33.4381 40.9216 33.4381L43.2547 33.4542L43.4237 32.7855C43.639 31.9538 43.5314 31.7909 43.2094 32.4426C43.0404 32.7694 42.7603 33.0148 42.4266 33.1284C41.812 33.3396 40.7678 33.2099 40.5071 32.8831C40.3995 32.7533 40.3533 31.7748 40.3844 30.0944C40.4306 27.5823 40.4458 27.5009 40.7838 27.338C40.9679 27.2565 41.1218 27.1419 41.1218 27.0926C41.1218 26.9629 38.802 26.9951 38.7104 27.1258ZM31.5572 27.0964C31.5261 27.1779 31.6337 27.2271 31.8027 27.2271C31.9717 27.2271 32.1559 27.2925 32.2021 27.3901C32.2786 27.5037 32.3249 30.6855 32.2786 32.8054C32.2786 32.9522 32.0945 33.1483 31.8641 33.2297C31.5412 33.3595 32.0171 33.4097 33.7676 33.4097L36.1016 33.4249L36.2706 32.7561C36.4849 31.9245 36.3773 31.7615 36.0553 32.4142C35.8862 32.7406 35.6061 32.9857 35.2726 33.099C34.6588 33.3112 33.6146 33.1805 33.3531 32.8546C33.2464 32.7239 33.2001 31.7454 33.2303 30.065C33.2766 27.553 33.2926 27.4715 33.6297 27.3086C33.8138 27.2271 33.9677 27.1125 33.9677 27.0642C33.9677 26.9335 31.6489 26.9657 31.5572 27.0964Z" fill="white"/>
</g>
<defs>
<clipPath id="clip0_150_980">
<rect width="44" height="8" fill="white" transform="translate(8 26)"/>
</clipPath>
</defs>
</svg>
