<svg width="60" height="60" viewBox="0 0 60 60" fill="none" xmlns="http://www.w3.org/2000/svg">
<rect width="60" height="60" fill="black"/>
<g clip-path="url(#clip0_1772_9234)">
<path d="M21.7706 37.6046L25.8054 31.0932L22.8673 27.8267L9 42.9892H43.8619L50.9729 30.6192L40.5122 35.3213L43.5153 32.7915L34.7389 23.2275L21.7706 37.6046Z" fill="#036A36"/>
<path d="M38.1672 18.0299C31.7223 17.5802 26.1467 22.6398 25.6782 29.3381V29.6848L26.4825 30.5786L34.7687 21.4237L44.2952 31.9437L48.3707 28.6176C47.5908 23.1382 43.6833 18.4145 38.1672 18.0299ZM26.2117 27.2633C25.9734 28.019 25.792 28.791 25.6782 29.5765C25.7703 28.7856 25.949 28.0109 26.2117 27.2633Z" fill="#F4A71C"/>
</g>
<defs>
<clipPath id="clip0_1772_9234">
<rect width="42" height="25" fill="white" transform="translate(9 18)"/>
</clipPath>
</defs>
</svg>
