<svg width="60" height="60" viewBox="0 0 60 60" fill="none" xmlns="http://www.w3.org/2000/svg">
<rect width="60" height="60" fill="black"/>
<g clip-path="url(#clip0_150_972)">
<path d="M47.7835 28.3103C46.352 27.2652 44.7306 26.4392 43.0196 25.7825L42.5094 26.8469C43.4229 27.2936 44.3154 27.7827 45.1786 28.3265C46.2404 29.044 49.0453 30.9581 47.6978 32.3192C46.408 33.4238 44.5985 33.6667 42.8708 33.927C42.4294 33.9738 41.9473 34.0101 41.5045 34.0412L40.4501 36.2352C42.1594 36.1307 43.7896 35.9027 45.3322 35.5295C46.6513 35.1664 48.0688 34.6348 49.0518 33.5848C50.7253 31.7093 49.4504 29.5384 47.7844 28.3112L47.7835 28.3103Z" fill="#0680FF"/>
<path d="M33.5884 23.5898C35.9224 24.2776 38.2552 25.0108 40.4934 25.9397L40.9126 25.0668C38.4823 24.3393 35.9557 23.8908 33.5888 23.5903L33.5884 23.5898Z" fill="#0680FF"/>
<path d="M21.7426 21.8735L17.6546 30.4065C17.3514 30.2879 16.5088 29.9506 16.3588 29.8854C14.0404 28.8849 8.76419 26.1247 12.8833 23.914C14.7229 22.9524 16.84 22.5783 18.8844 22.2607C16.3364 22.2165 10.4617 22.4256 10.1839 25.8368C10.2333 28.4023 13.4673 30.3864 16.0197 31.6267L16.8846 32.0147L13.9521 38.1301H16.4021L18.926 32.8709C21.5497 33.836 25.1236 34.8384 28.2951 35.3625L28.3143 35.3655L29.6417 38.1301H32.0891L24.3016 21.873H21.7426V21.8735ZM19.7524 31.1494L23.0219 24.3362L27.1965 33.035C25.3686 32.6662 22.3376 32.0471 19.752 31.1494H19.7524Z" fill="white"/>
<path d="M44.8921 21.873H42.4447L40.9121 25.0664L40.493 25.9392L35.8244 35.6674L29.2046 21.8735H26.7572L34.5452 38.1305H37.1037L42.509 26.8465L43.0191 25.7821L44.8916 21.873H44.8921Z" fill="white"/>
</g>
<defs>
<clipPath id="clip0_150_972">
<rect width="40" height="18" fill="white" transform="translate(10 21)"/>
</clipPath>
</defs>
</svg>
