<svg width="60" height="60" viewBox="0 0 60 60" fill="none" xmlns="http://www.w3.org/2000/svg">
<rect width="60" height="60" fill="black"/>
<path d="M23.1288 49.085C24.2709 48.6022 25.32 47.9202 26.2283 47.0703C27.2036 46.2655 28.1465 45.4278 29.0947 44.5847C29.2662 44.4076 29.4711 44.2669 29.6972 44.1708C29.9233 44.0747 30.1661 44.0252 30.4114 44.0252C30.6567 44.0252 30.8995 44.0747 31.1257 44.1708C31.3518 44.2669 31.5566 44.4076 31.7282 44.5847C33.0344 45.807 34.4055 46.9567 35.8354 48.0284C36.113 48.2259 36.4006 48.4086 36.697 48.5759C36.9896 48.7511 37.304 48.8825 37.629 49.0467C37.5316 49.1036 37.4302 49.153 37.3255 49.1945C36.4803 49.4627 35.6404 49.7419 34.795 49.9719C34.4984 50.0234 34.1933 49.9734 33.9281 49.8295C33.1564 49.4917 32.4284 49.0597 31.7606 48.543C31.3541 48.2473 30.9587 47.9407 30.563 47.6231C30.5447 47.6013 30.5219 47.5837 30.4962 47.5716C30.4704 47.5595 30.4424 47.5533 30.414 47.5533C30.3857 47.5533 30.3576 47.5595 30.3319 47.5716C30.3062 47.5837 30.2833 47.6013 30.265 47.6231C29.4034 48.3486 28.4785 48.9936 27.5016 49.5503C27.1361 49.7936 26.7178 49.9439 26.2823 49.9883C25.9935 49.9815 25.7071 49.9336 25.4316 49.846C24.7705 49.6488 24.115 49.4353 23.4592 49.2218C23.3457 49.1851 23.2352 49.1395 23.1288 49.085ZM48.5963 23.293C48.3878 23.8856 48.0859 24.4402 47.7023 24.9354C46.6698 26.3456 45.5665 27.7016 44.3968 28.9978C44.2448 29.1584 44.1202 29.3434 44.0283 29.5453C43.8735 29.8837 43.8239 30.2614 43.8858 30.6289C43.9477 30.9964 44.1183 31.3363 44.3752 31.6039C45.3288 32.6988 46.2717 33.8376 47.1929 34.9818C47.753 35.647 48.2248 36.3832 48.5963 37.1718C48.6505 37.2978 48.6938 37.4345 48.7643 37.6097C48.8088 37.5376 48.8485 37.4626 48.8834 37.3853C49.1326 36.5202 49.3873 35.6552 49.6311 34.7902C49.6751 34.6448 49.6844 34.491 49.6583 34.3413C49.6136 34.0595 49.5315 33.7852 49.4144 33.5255C49.0297 32.8412 48.6287 32.1732 48.206 31.5108C47.9351 31.0947 47.6209 30.7114 47.3283 30.3172C47.7022 29.8026 48.0759 29.2989 48.4119 28.7843C48.8712 28.1735 49.2365 27.496 49.4956 26.775C49.5753 26.5794 49.6034 26.3662 49.577 26.1563C49.3927 25.4172 49.176 24.6891 48.9593 23.9664C48.8888 23.7255 48.7749 23.4901 48.6666 23.2218C48.6341 23.2657 48.6179 23.2766 48.6124 23.293H48.5963ZM37.0601 11.7958C36.3232 11.5659 35.5861 11.3304 34.8438 11.1224C34.5793 11.0309 34.2973 11.0028 34.0203 11.0402C33.6044 11.1304 33.2056 11.2875 32.839 11.5056C32.0262 12.0147 31.2459 12.6006 30.4603 13.1481C30.4198 13.1882 30.3652 13.2107 30.3084 13.2107C30.2517 13.2107 30.1972 13.1882 30.1567 13.1481C29.6582 12.7758 29.1651 12.398 28.6504 12.0531C28.0936 11.6279 27.4711 11.2986 26.8081 11.0786C26.6599 11.02 26.5003 10.9976 26.3419 11.0129C25.5184 11.2265 24.7165 11.4564 23.8711 11.6919C23.6856 11.752 23.5044 11.8251 23.3291 11.9109C23.649 12.0642 23.947 12.19 24.2288 12.3434C24.5093 12.5109 24.7806 12.6936 25.0415 12.8908C26.4236 13.9098 27.7479 15.0065 29.008 16.1758C29.3522 16.5152 29.814 16.7052 30.2949 16.7052C30.7758 16.7052 31.2378 16.5152 31.5819 16.1758C32.6385 15.2669 33.668 14.3636 34.7518 13.515C35.509 12.8293 36.3853 12.291 37.3364 11.9273C37.2548 11.8752 37.1675 11.833 37.0762 11.8014L37.0601 11.7958ZM18.3495 45.0555C18.9727 44.5081 19.6121 43.8839 20.2297 43.2762C22.8379 40.6921 25.4407 38.1007 28.0381 35.5019L29.0133 34.5274C29.1935 34.334 29.4111 34.1797 29.6524 34.0743C29.8938 33.9688 30.1538 33.9144 30.4168 33.9142C30.6651 33.9081 30.9119 33.9536 31.1422 34.0477C31.3724 34.1419 31.581 34.2828 31.7551 34.4617L33.5 36.2629C34.6813 37.4455 35.8571 38.628 37.0439 39.8052C38.3948 41.1337 39.7495 42.4586 41.1077 43.7799L42.5654 45.2034C42.6954 45.3337 42.8328 45.4562 42.9771 45.5702L42.8911 45.6467C42.7006 45.8164 42.5118 45.9807 42.3113 46.1286C42.0295 46.3366 41.7423 46.5337 41.4552 46.7362C41.1679 46.9388 40.9133 47.1085 40.6586 47.2837C40.404 47.459 40.3227 47.4151 40.198 47.3166L39.6561 46.9115C39.2064 46.583 38.7404 46.2381 38.3123 45.8768C36.0041 43.9277 33.804 41.7378 31.6745 39.6737L30.4174 38.4528L29.1983 39.6518C27.0145 41.7378 24.7711 43.9277 22.425 45.948C22.0187 46.2929 21.5795 46.6158 21.1515 46.9334L20.691 47.2729C20.6231 47.3298 20.5435 47.3709 20.4581 47.3933C20.4025 47.4021 20.3458 47.4021 20.2901 47.3933C19.629 46.9553 18.9844 46.5064 18.345 46.052C18.144 45.9031 17.9504 45.7441 17.7651 45.5756L18.3495 45.0555ZM45.2043 17.7963C45.8652 18.5745 46.4597 19.4077 46.9815 20.2873C47.0358 20.3804 47.0194 20.4187 46.9815 20.4626L46.9003 20.6103C46.7758 20.8238 46.6509 21.0373 46.51 21.2344C45.4664 22.6215 44.3448 23.9468 43.1506 25.2037C42.1372 26.2987 41.1077 27.3937 40.0782 28.4886L38.3822 30.2953L39.2112 31.1658C39.7044 31.6804 40.1865 32.1896 40.6688 32.7043L41.0372 33.0929C42.7983 34.9763 44.6244 36.9253 46.25 38.9784C46.4452 39.2302 46.6239 39.4985 46.7919 39.7613C46.8732 39.8871 46.9598 40.0186 47.0465 40.1391C47.109 40.2163 47.1432 40.313 47.1432 40.4128C47.1432 40.5126 47.109 40.6093 47.0465 40.6866L46.1849 41.9567L45.513 42.9149C45.4743 42.9715 45.4309 43.0246 45.383 43.0736C43.996 41.4311 42.4733 39.8598 40.9993 38.3488L39.7963 37.1059C38.6206 35.8851 37.4285 34.6697 36.2364 33.4597L34.5131 31.6968C34.3187 31.5182 34.1634 31.3006 34.0571 31.0578C33.9508 30.815 33.8959 30.5525 33.8959 30.287C33.8959 30.0216 33.9508 29.759 34.0571 29.5162C34.1634 29.2735 34.3187 29.0558 34.5131 28.8772L37.1684 26.1398C38.8481 24.4171 40.5279 22.6907 42.2077 20.9606C42.8852 20.2653 43.5407 19.5536 44.2018 18.8419L45.047 17.9385C45.0888 17.8982 45.1269 17.8543 45.1609 17.8071L45.1879 17.7798L45.2043 17.7963ZM18.057 15.2724C18.2622 15.0871 18.4775 14.9134 18.7018 14.7522C19.1245 14.4511 19.5578 14.1664 19.9914 13.8817L20.4466 13.5751C20.4773 13.5524 20.5142 13.5402 20.5522 13.5402C20.5902 13.5402 20.6273 13.5524 20.658 13.5751L20.9342 13.7448C21.1916 13.8897 21.4362 14.0564 21.6657 14.243L22.0072 14.5331C23.1992 15.5569 24.4347 16.6136 25.6051 17.6922C26.6454 18.6503 27.6749 19.6521 28.6774 20.6212L30.0105 21.9133L30.1027 21.9954L30.3357 22.198L31.2352 21.322L32.7253 19.8821L32.9096 19.7069C34.6273 18.0644 36.3992 16.3563 38.2577 14.8178C38.6534 14.4893 39.0867 14.1827 39.5041 13.8871L39.8508 13.6407C39.9229 13.5685 40.0203 13.528 40.1218 13.528C40.2233 13.528 40.3206 13.5685 40.3927 13.6407L41.3518 14.3634C41.7637 14.6481 42.1699 14.9109 42.5709 15.2339C42.6139 15.2612 42.6796 15.3161 42.7328 15.3599L42.5587 15.5243L42.3806 15.6885C41.2968 16.6959 40.175 17.7416 39.1293 18.7982C37.2653 20.6378 35.4123 22.4938 33.5535 24.3443L31.7275 26.1674C31.5515 26.3593 31.3382 26.5124 31.1009 26.617C30.8636 26.7217 30.6075 26.7757 30.3485 26.7757C30.0896 26.7757 29.8335 26.7217 29.5962 26.617C29.3589 26.5124 29.1456 26.3593 28.9695 26.1674L27.4577 24.6673C25.012 22.2401 22.5663 19.8221 20.1207 17.4131C19.541 16.8657 18.9233 16.2908 18.3326 15.7707L17.91 15.3874L18.057 15.2724Z" fill="#357CC0"/>
<path d="M11.9232 37.6864C11.831 37.4619 11.7389 37.2703 11.6793 37.0732C11.4518 36.3232 11.2458 35.5731 11.0508 34.8176C10.9947 34.5355 11.0269 34.2427 11.143 33.9799C11.4422 33.2167 11.8433 32.4982 12.3351 31.8447C12.6384 31.4012 12.9636 30.9688 13.2942 30.5472C13.3164 30.5267 13.3341 30.5017 13.3462 30.4739C13.3583 30.4461 13.3646 30.416 13.3646 30.3857C13.3646 30.3553 13.3583 30.3253 13.3462 30.2975C13.3341 30.2696 13.3164 30.2447 13.2942 30.2242C12.5986 29.3763 11.9819 28.4654 11.4518 27.5031C11.1976 27.1185 11.0705 26.6623 11.0887 26.2001C11.1379 25.8619 11.2158 25.5285 11.3217 25.2037C11.506 24.607 11.712 24.0157 11.9125 23.4189C11.9359 23.3534 11.9632 23.2895 11.9943 23.2273C12.5903 24.7439 13.6198 25.91 14.6223 27.1254C15.1642 27.8098 15.771 28.4668 16.3508 29.1347C16.6577 29.4754 16.8278 29.9196 16.8278 30.3802C16.8278 30.8409 16.6577 31.2851 16.3508 31.6258C15.4513 32.6824 14.541 33.7281 13.6794 34.8121C13.1375 35.4636 12.7203 36.1699 12.2706 36.8652C12.1333 37.129 12.0167 37.4037 11.9232 37.6864ZM15.9059 18.2452C16.6915 19.1157 17.5044 20.0136 18.3334 20.8677C20.3599 22.9664 22.3902 25.0522 24.424 27.1254L26.2067 28.954C26.4021 29.1331 26.5583 29.3516 26.6652 29.5953C26.7721 29.839 26.8272 30.1027 26.8272 30.3693C26.8272 30.6358 26.7721 30.8995 26.6652 31.1432C26.5583 31.3869 26.4021 31.6054 26.2067 31.7845L23.6599 34.396C21.9441 36.1662 20.2227 37.9382 18.496 39.7121C17.8024 40.4293 17.1251 41.1684 16.4477 41.9021L15.635 42.789C15.5429 42.8875 15.4609 42.9916 15.3585 43.1175C14.9143 42.57 14.4754 41.9787 14.0527 41.3929C13.872 41.1366 13.7159 40.8634 13.5866 40.5771C13.573 40.5307 13.573 40.4812 13.5866 40.4347C13.7543 40.0927 13.9464 39.7634 14.1611 39.4493C15.279 37.9921 16.4728 36.5958 17.7373 35.2665C18.7236 34.2044 19.7152 33.1477 20.7121 32.0965L22.3379 30.3665L21.7472 29.7424C21.4763 29.4577 21.2054 29.1948 20.9398 28.8937L20.7013 28.6419C18.7831 26.6162 16.7945 24.5193 14.9901 22.3349C14.7029 21.9735 14.4103 21.5794 14.1611 21.2016L13.8576 20.7855C13.6569 20.5118 13.6517 20.3311 13.8309 20.1011C14.0857 19.7672 14.3185 19.4223 14.5569 19.0774C14.7085 18.8529 14.8605 18.6284 15.0176 18.4094C15.1752 18.1904 15.2776 18.0809 15.4077 17.9221L15.5162 17.7961L15.9059 18.2452Z" fill="#43B649"/>
</svg>
