<svg width="60" height="60" viewBox="0 0 60 60" fill="none" xmlns="http://www.w3.org/2000/svg">
<rect width="60" height="60" fill="black"/>
<g clip-path="url(#clip0_1772_9241)">
<path d="M21.2708 35.5785C21.2867 35.6081 21.3053 35.6403 21.3212 35.6726C20.634 36.5119 18.0286 39 14.6405 39C11.2338 39 9.00244 36.9422 9.00244 33.8408C9.00244 30.0427 12.9185 22.0107 17.8296 22.0107H18.4186C18.6556 22.0305 18.8909 22.0663 19.1244 22.1183C19.3561 22.1703 19.5834 22.2385 19.8062 22.3228C20.0309 22.4053 20.2484 22.503 20.4589 22.616C20.6694 22.7271 20.8719 22.8527 21.0665 22.9925C18.0817 25.1283 14.874 31.194 14.874 34.1071C14.874 36.0788 15.9432 36.91 17.559 36.91C19.2464 36.91 20.642 35.9712 21.2708 35.5785Z" fill="url(#paint0_linear_1772_9241)"/>
<path d="M33.6668 35.9631C33.7765 36.1478 33.895 36.3245 34.0224 36.493C34.1515 36.6634 34.2894 36.8257 34.4363 36.9799C34.5848 37.1323 34.7405 37.2767 34.9032 37.413C34.7201 37.5744 34.5238 37.7196 34.3195 37.8541C34.1152 37.9886 33.903 38.107 33.6827 38.2092C33.4625 38.3141 33.2344 38.4028 33.0035 38.4728C32.7701 38.5454 32.5339 38.6019 32.2925 38.6396H32.1147C31.5788 38.6396 31.0455 38.5589 30.5334 38.4002C30.0213 38.2415 29.5358 38.0047 29.0901 37.7008C28.647 37.3941 28.249 37.0256 27.9121 36.6006C27.5751 36.1783 27.3018 35.7076 27.1028 35.2019L22.9055 25.2467C22.7065 24.8028 22.4518 24.3859 22.144 24.0066C21.8389 23.6301 21.4834 23.2965 21.0907 23.0141C20.7007 22.729 20.2735 22.5003 19.8198 22.3309C19.3688 22.1614 18.8992 22.0538 18.4189 22.0108L18.801 22H24.1658C24.7017 22 25.235 22.0807 25.7471 22.2394C26.2591 22.4008 26.7447 22.6348 27.1904 22.9415C27.6335 23.2454 28.0315 23.6139 28.3684 24.0389C28.7054 24.4612 28.9786 24.9347 29.1776 25.4377L33.375 35.3929C33.4616 35.5883 33.5589 35.7784 33.6668 35.9631Z" fill="url(#paint1_linear_1772_9241)"/>
<path d="M50.976 22V22.1291C49.1374 22.4142 47.6065 23.579 46.8689 25.2467L42.6715 35.2019C42.4699 35.7076 42.1993 36.1783 41.8623 36.6033C41.5254 37.0256 41.1274 37.3968 40.6843 37.7008C40.2386 38.0047 39.753 38.2415 39.241 38.4002C38.7289 38.5589 38.1956 38.6422 37.6597 38.6422H32.2949C34.1336 38.3544 35.6645 37.0633 36.4021 35.3929L40.5994 25.4377C40.7984 24.9347 41.0717 24.4612 41.4086 24.0389C41.7456 23.6139 42.1436 23.2454 42.5866 22.9415C43.0297 22.6348 43.5179 22.4008 44.03 22.2394C44.542 22.0807 45.0727 22 45.6086 22L50.976 22Z" fill="url(#paint2_linear_1772_9241)"/>
</g>
<defs>
<linearGradient id="paint0_linear_1772_9241" x1="20.443" y1="22.85" x2="12.3776" y2="38.7634" gradientUnits="userSpaceOnUse">
<stop stop-color="#0064C8"/>
<stop offset="0.9" stop-color="#2EC4FF"/>
</linearGradient>
<linearGradient id="paint1_linear_1772_9241" x1="22.1414" y1="18.982" x2="31.0099" y2="39.4581" gradientUnits="userSpaceOnUse">
<stop stop-color="#00D649"/>
<stop offset="1" stop-color="#2EC4FF"/>
</linearGradient>
<linearGradient id="paint2_linear_1772_9241" x1="37.6809" y1="40.0383" x2="45.2747" y2="22.0066" gradientUnits="userSpaceOnUse">
<stop stop-color="#0064C8"/>
<stop offset="0.8" stop-color="#2EC4FF"/>
</linearGradient>
<clipPath id="clip0_1772_9241">
<rect width="42" height="17" fill="white" transform="translate(9 22)"/>
</clipPath>
</defs>
</svg>
