<svg width="60" height="60" viewBox="0 0 60 60" fill="none" xmlns="http://www.w3.org/2000/svg">
<rect width="60" height="60" fill="#005595"/>
<path d="M49.9947 26.2218V24.6453C49.6365 24.934 48.6954 25.6124 47.7418 25.6124C46.5367 25.6124 45.3295 24.5122 45.3295 24.5122C45.3295 24.5122 45.316 24.5256 45.2891 24.5473V24.5452C45.1038 24.7061 44.2538 25.4011 43.3199 25.5733H43.3179C43.2526 25.5867 43.1864 25.5959 43.1211 25.6021H43.1098C43.0445 25.6094 42.9814 25.6124 42.9151 25.6124C41.71 25.6124 40.5069 24.5122 40.5069 24.5122H40.5028C40.5028 24.5122 39.2977 25.6124 38.0905 25.6124C37.5355 25.6124 36.9868 25.3773 36.5489 25.1268C36.3076 24.9845 36.0654 24.7752 35.8552 24.5112C35.6502 24.2545 35.5073 23.9802 35.4235 23.7214H35.4193L31.073 10.0002L26.178 25.3578L9.99988 25.2485L23.1527 34.6348L18.0506 49.9211L31.073 40.3637L44.0933 49.9211L39.5223 36.2278C39.103 36.4372 38.5957 36.6207 38.0832 36.6207C36.8802 36.6207 35.6709 35.6133 35.6709 35.6133C35.6709 35.6133 34.4658 36.6207 33.2607 36.6207C32.0566 36.6207 30.8483 35.5215 30.8483 35.5215C30.8483 35.5215 30.8473 35.6133 30.8463 35.6133V33.8191C30.8473 33.8191 30.8483 33.8191 30.8483 33.8191C30.8483 33.8191 32.0566 34.9204 33.2607 34.9204C34.4658 34.9204 35.6709 33.8191 35.6709 33.8191C35.6709 33.8191 36.8802 34.9204 38.0832 34.9204C39.1362 34.9204 40.188 34.0831 40.4396 33.8697V31.9662C40.1829 32.1663 39.1362 32.9262 38.0874 32.9262C36.8802 32.9262 35.6771 31.9198 35.6771 31.9198C35.6771 31.9198 34.4689 32.9262 33.2638 32.9262C32.0586 32.9262 30.8525 31.828 30.8525 31.828C30.8525 31.828 30.8514 31.9198 30.8494 31.9198V30.1267C30.8514 30.1267 30.8525 30.1267 30.8525 30.1267C30.8525 30.1267 32.0586 31.2269 33.2638 31.2269C34.4689 31.2269 35.6771 30.1267 35.6771 30.1267C35.6771 30.1267 36.8802 31.2269 38.0874 31.2269C39.2935 31.2269 40.4997 30.1267 40.4997 30.1267C40.5018 30.1267 40.5049 30.1267 40.5049 30.1267C40.5049 30.1267 41.7058 31.2269 42.911 31.2269C42.9783 31.2269 43.0435 31.2248 43.1077 31.2176C43.1098 31.2176 43.1139 31.2176 43.118 31.2156C43.1833 31.2104 43.2495 31.2011 43.3158 31.1887C43.3158 31.1887 43.3158 31.1887 43.3179 31.1887C43.704 31.1166 44.0736 30.9557 44.3894 30.7794L45.2653 30.1556V28.2284C45.0448 28.3954 44.2227 28.9832 43.3179 29.1513C43.3158 29.1513 43.3158 29.1513 43.3158 29.1513C43.2495 29.1626 43.1833 29.1719 43.118 29.177C43.1139 29.177 43.1098 29.177 43.1077 29.1791C43.0435 29.1853 42.9793 29.1884 42.9141 29.1884H42.911C41.7058 29.1884 40.4997 28.181 40.4997 28.181C40.4997 28.181 39.2935 29.1884 38.0874 29.1884C36.8802 29.1884 35.6771 28.181 35.6771 28.181C35.6771 28.181 34.4689 29.1884 33.2638 29.1884C32.0586 29.1884 30.8525 28.0902 30.8525 28.0902C30.8525 28.0902 30.8514 28.181 30.8494 28.181V26.3878C30.8514 26.3878 30.8525 26.3878 30.8525 26.3878V26.4394C30.8525 26.4394 30.8525 26.4136 30.8525 26.3878C30.8649 26.3992 32.0628 27.4881 33.2638 27.4881C33.8052 27.4881 34.3415 27.2653 34.7753 27.0199C35.3065 26.7446 35.6792 26.4394 35.6792 26.4394C35.6792 26.4394 36.0177 26.7178 36.5106 26.9828C36.9537 27.2437 37.5179 27.4881 38.0874 27.4881C38.6278 27.4881 39.1631 27.2653 39.5948 27.022C40.128 26.7467 40.5028 26.4394 40.5028 26.4394C40.5028 26.4394 40.8662 26.7374 41.387 27.0106C41.8208 27.2581 42.3643 27.4881 42.911 27.4881C42.9783 27.4881 43.0435 27.485 43.1077 27.4788C43.1098 27.4788 43.1139 27.4777 43.118 27.4777C43.1833 27.4716 43.2495 27.4623 43.3158 27.4509C43.3158 27.4509 43.3158 27.4509 43.3179 27.4509C43.7972 27.3623 44.2538 27.1344 44.6089 26.9137C45.0406 26.6714 45.3295 26.4394 45.3295 26.4394C45.3295 26.4394 45.6743 26.723 46.1733 26.99C46.6133 27.2457 47.1745 27.4881 47.7397 27.4881C48.2595 27.4881 48.774 27.2818 49.1975 27.0488C49.5454 26.8745 49.8311 26.6817 49.9947 26.5611V26.5188C49.9968 26.5178 49.9968 26.5167 49.9999 26.5147V26.2218H49.9947Z" fill="white"/>
</svg>
