<svg width="60" height="60" viewBox="0 0 60 60" fill="none" xmlns="http://www.w3.org/2000/svg">
<rect width="60" height="60" fill="#154898"/>
<g clip-path="url(#clip0_168_317)">
<path fill-rule="evenodd" clip-rule="evenodd" d="M34.0245 28.1183C34.8468 27.9881 35.7572 28.0325 36.6122 27.9411C36.6066 28.273 36.446 28.5965 36.3637 28.9271L36.4429 28.9756L38.5207 28.9625L38.2904 29.7853L36.1374 29.8172C35.8424 30.6374 35.6167 31.4891 35.3651 32.3283C35.3692 32.5436 35.5505 32.6678 35.7396 32.7608C36.3952 32.7608 37.1642 32.8556 37.7393 32.6425L37.4675 33.5806L33.8901 33.6073C33.4026 33.5359 32.9045 33.1151 32.8076 32.6894L32.828 32.0847C33.246 30.7751 33.6209 29.4383 34.0247 28.1183L34.0245 28.1183ZM25.7258 29.0628C26.3749 29.917 26.9712 30.7833 27.511 31.6818C26.5033 32.3563 25.48 32.9964 24.4615 33.6339L24.4637 33.6835L26.1403 33.657L28.0376 32.4603C28.3229 32.8353 28.5964 33.2196 28.7496 33.6465L31.9712 33.6149C31.9017 33.5984 31.8453 33.5211 31.7889 33.4832L30.2202 31.0749L33.4025 29.0413L33.3996 28.9928L31.4799 29.0514C31.0017 29.604 30.2739 29.8782 29.6718 30.286C29.4077 29.8816 29.0449 29.5167 28.9798 29.0412L25.7257 29.0627L25.7258 29.0628ZM46.54 28.9386L46.5778 29.1707L45.4241 33.1586L45.1436 33.5527H48.1886L48.1248 33.2336L48.8715 30.5382C48.9021 30.3814 49.0425 30.2241 49.2073 30.1542C49.8411 30.1632 50.7823 29.964 51.3644 30.286L51.7388 28.9475C50.786 29.0867 49.4985 28.5432 48.9494 29.4863C48.8584 29.3314 48.9091 29.1262 48.8964 28.94L46.54 28.9386ZM16.4939 27.3349L10.3618 27.3593L10.3721 27.8076L8.79769 33.0178L8.3645 33.7619L14.9178 33.7583C15.5107 33.7708 16.0184 33.597 16.2886 33.157C16.4852 32.5106 16.8385 31.9026 16.7588 31.1822C16.6631 30.902 16.4374 30.6435 16.1557 30.4738C16.4332 30.4013 16.7098 30.3075 16.9276 30.1099C17.3925 29.5587 17.5346 28.8651 17.5533 28.1842C17.4481 27.7675 16.9743 27.4065 16.4938 27.3349H16.4939ZM13.1748 28.3988L14.7828 28.4113C15.0063 28.5256 14.9253 28.8183 14.8734 28.974C14.7325 29.2886 14.7422 29.7069 14.4129 29.916L12.5689 29.9235L13.1748 28.3988ZM12.2452 30.9795L13.954 30.9729C14.1906 31.0669 14.1308 31.3689 14.0663 31.5362C13.8498 31.8999 14.0988 32.4602 13.6372 32.6628L11.7776 32.6605C11.8569 32.1038 12.0899 31.5372 12.2451 30.9795H12.2452ZM23.7496 29.0909L18.3705 29.1073L17.9908 29.958C19.2875 29.7827 20.6887 29.8995 21.9865 29.8676C22.0994 29.916 22.1574 30.0212 22.1706 30.1277C22.1184 30.2735 22.133 30.4686 21.9445 30.5495L18.4046 30.6235L17.7878 30.893C17.2852 31.3789 17.1757 32.0039 17.1324 32.6553C17.1626 33.0345 17.4483 33.3819 17.8188 33.5806C18.6436 33.8102 19.7984 33.6974 20.7737 33.671C20.9976 33.6185 21.1444 33.4108 21.2502 33.2437C21.3312 33.3804 21.3932 33.5336 21.4411 33.6793L23.9727 33.6898L23.891 33.3704L24.6383 30.7909C24.7552 30.4574 24.8681 29.9895 24.6149 29.6915C24.4439 29.3922 24.0866 29.2021 23.7497 29.0909H23.7496ZM21.7523 31.4571L21.376 32.7083L21.2136 32.8277L19.9357 32.8467C19.3856 32.5639 19.9185 31.991 19.9671 31.5815L20.1745 31.4613L21.7524 31.4571H21.7523ZM44.7873 28.9854L39.9322 28.9625C39.5654 29.0259 39.2355 29.2251 39.0099 29.5192C38.674 30.4977 38.359 31.4867 38.1701 32.5195C38.2558 32.9964 38.6639 33.4652 39.224 33.5746L44.5543 33.5615L44.9698 32.5995L44.7037 32.7034L41.0505 32.7288L40.8594 32.645C40.5659 32.3283 40.9148 32.0025 40.9524 31.6792L45.3488 31.6137C45.4691 30.9594 45.9554 30.31 45.5979 29.604C45.4476 29.3239 45.1117 29.0666 44.7872 28.9853L44.7873 28.9854ZM41.6815 29.8298L42.8596 29.8122C42.9696 29.8386 43.0939 29.9337 43.1314 30.0415C43.1229 30.2735 43.074 30.4992 42.9752 30.7145L41.243 30.7415C41.3936 30.4369 41.34 30.02 41.6815 29.8298Z" fill="white"/>
</g>
<defs>
<clipPath id="clip0_168_317">
<rect width="44" height="7" fill="white" transform="translate(8 27)"/>
</clipPath>
</defs>
</svg>
