<svg width="60" height="60" viewBox="0 0 60 60" fill="none" xmlns="http://www.w3.org/2000/svg">
<rect width="60" height="60" fill="#76B96A"/>
<g clip-path="url(#clip0_150_889)">
<path d="M43.3959 26.2996C42.6806 25.4333 41.5859 24.8564 40.0785 24.8564C38.4839 24.8564 37.1828 25.6239 36.4239 26.7899C35.6695 27.9039 35.3367 29.0578 35.2885 30.695H44.7421C44.6969 28.8204 44.2376 27.3685 43.3959 26.2996ZM49.9432 35.0974H35.3367C35.2885 37.0291 35.8758 38.8691 36.9283 40.0334C37.6812 40.8407 38.7293 41.5666 40.1629 41.5666C41.6702 41.5666 42.6023 41.2288 43.3522 40.366C43.8115 39.8324 44.1925 39.155 44.4033 38.2385H49.4478C49.3123 39.7302 48.4359 41.7226 47.5941 42.873C45.745 45.3886 43.0194 46.4021 40.2442 46.4021C37.2611 46.4021 35.0792 45.198 33.361 43.3113C31.1745 40.9014 30 37.3618 30 33.2626C30 29.2449 31.0466 25.6741 33.1502 23.2087C34.784 21.2787 37.1376 20.0209 40.1222 20.0209C43.3522 20.0209 46.2931 21.5212 48.0986 24.6554C49.6978 27.4136 50.0697 30.2619 49.9899 33.3995C49.9899 33.3995 49.9432 34.5638 49.9432 35.0974Z" fill="white"/>
<path d="M19.3081 40.957C16.9193 40.957 15.1196 39.326 14.9116 36.2396H14.9158V31.4084H17.5001H17.5042H18.832C21.3827 31.4084 23.6263 32.9208 23.6263 36.2054C23.6263 39.2221 21.7373 40.957 19.3081 40.957ZM19.3081 18.0293V18.0245C21.4651 18.0293 23.0371 19.9007 23.0371 22.1798C23.0371 25.1575 21.5056 26.4294 18.832 26.4294H17.7025V26.4164H14.9158V18.0293H19.3081ZM24.0982 28.8548C26.568 27.8492 28.0227 24.9268 28.0227 22.0483C28.0227 16.5641 24.2518 13.0032 19.3081 13.0032L10 13V36.2201V36.2347V36.2396C10.1703 42.1623 14.2484 45.9766 19.2676 45.9766C24.4109 45.9766 28.5714 42.6546 28.5714 36.3013C28.5714 33.015 26.9212 29.7677 24.0982 28.8548Z" fill="#233444"/>
</g>
<defs>
<clipPath id="clip0_150_889">
<rect width="40" height="34" fill="white" transform="translate(10 13)"/>
</clipPath>
</defs>
</svg>
