<svg width="60" height="60" viewBox="0 0 60 60" fill="none" xmlns="http://www.w3.org/2000/svg">
<rect width="60" height="60" fill="#FF5A0A"/>
<g clip-path="url(#clip0_1534_8417)">
<path d="M16.0389 24.294V17.7551L22.4229 22.6982C24.633 24.4316 25.0506 26.9563 24.9987 26.894C23.5616 25.1036 21.6395 24.32 20.3165 24.2966L16.0389 24.294Z" fill="black"/>
<path d="M28.4618 25.7056H33.2374V43H28.4618V25.7056Z" fill="white"/>
<path d="M36.8353 17.5398H41.6109V43.0001H36.8353V17.5398Z" fill="white"/>
<path d="M45.2036 17.5398H49.9792V43.0001H45.2036V17.5398Z" fill="white"/>
<path fill-rule="evenodd" clip-rule="evenodd" d="M19.9455 25.7107C22.7419 25.7107 25.0091 28.0928 25.0091 31.0301V37.6754C25.0091 40.6153 22.7419 42.9974 19.9455 42.9974H10V17.55H14.7523V25.7107H19.9455ZM20.2205 31.5984C20.2205 30.8199 19.5564 30.1946 18.7964 30.1946H14.7211V38.4279H18.7964C19.5512 38.4279 20.2205 37.7948 20.2205 37.0241V31.5984Z" fill="white"/>
<path d="M30.8197 23.2457C29.0947 23.2457 27.6991 21.8497 27.6991 20.1216C27.6991 18.396 29.0947 17 30.8197 17C32.5448 17 33.9403 18.396 33.9403 20.1216C33.9403 21.8497 32.5448 23.2457 30.8197 23.2457Z" fill="white"/>
</g>
<defs>
<clipPath id="clip0_1534_8417">
<rect width="40" height="26" fill="white" transform="translate(10 17)"/>
</clipPath>
</defs>
</svg>
