<svg width="60" height="60" viewBox="0 0 60 60" fill="none" xmlns="http://www.w3.org/2000/svg">
<rect width="60" height="60" fill="black"/>
<g clip-path="url(#clip0_150_683)">
<path d="M14.6109 32.7621V28.1482H15.9621V32.7621H14.6109ZM40.8768 31.0383C40.8768 29.9233 39.7646 29.2312 38.4628 29.2312C37.1528 29.2312 36.0488 29.9297 36.0488 31.0383C36.0488 32.1533 37.1611 32.8519 38.4628 32.8519C39.7646 32.8519 40.8768 32.1469 40.8768 31.0383ZM39.5422 31.0383C39.5422 31.6215 39.0396 31.9483 38.4546 31.9483C37.8696 31.9483 37.367 31.6215 37.367 31.0383C37.367 30.4487 37.8696 30.1348 38.4546 30.1348C39.0396 30.1348 39.5422 30.4487 39.5422 31.0383ZM14.0671 31.4356C14.0671 30.9166 13.7211 30.5192 13.1032 30.3398C13.6882 30.0899 13.8941 29.7631 13.8941 29.3786C13.8941 28.7057 13.268 28.1482 11.8673 28.1546H9.18143V32.7685H11.9827C13.3916 32.7621 14.0671 32.2174 14.0671 31.4356ZM12.4605 29.5132C12.4605 29.8272 12.2051 30.0066 11.7108 30.0066H10.5903V29.0454H11.7108C12.164 29.0454 12.4605 29.1992 12.4605 29.5132ZM12.5841 31.3651C12.5841 31.6663 12.3122 31.865 11.8097 31.865H10.5903V30.8653H11.8097C12.2958 30.8653 12.5841 31.0575 12.5841 31.3651ZM25.8324 30.1732C25.4617 29.5708 24.7696 29.2376 23.7233 29.2376C22.4874 29.2376 21.3834 29.84 21.3834 31.0383C21.3834 32.2046 22.3556 32.8519 23.7068 32.8519C24.6543 32.8519 25.4534 32.5571 25.8324 31.9226L24.7449 31.4869C24.5472 31.7689 24.2423 31.9483 23.7562 31.9483C23.13 31.9483 22.7263 31.6022 22.7263 31.0383C22.7263 30.4744 23.1877 30.1348 23.748 30.1348C24.1846 30.1348 24.5142 30.2886 24.7202 30.6218L25.8324 30.1732ZM45.7461 30.1732C45.3754 29.5708 44.6833 29.2376 43.6369 29.2376C42.4011 29.2376 41.297 29.84 41.297 31.0383C41.297 32.2046 42.2692 32.8519 43.6204 32.8519C44.5679 32.8519 45.3671 32.5571 45.7461 31.9226L44.6585 31.4869C44.4608 31.7689 44.156 31.9483 43.6699 31.9483C43.0437 31.9483 42.64 31.6022 42.64 31.0383C42.64 30.4744 43.1014 30.1348 43.6616 30.1348C44.0983 30.1348 44.4279 30.2886 44.6339 30.6218L45.7461 30.1732ZM34.4175 32.7621L33.2887 31.2113H32.4236V32.7621H31.0312V28.1482H33.5442C34.9036 28.1482 35.8511 28.6545 35.8511 29.6477C35.8511 30.2821 35.4473 30.7307 34.7306 31.0063L36.0323 32.7621H34.4175ZM32.4319 30.295H33.47C34.1127 30.295 34.4257 30.013 34.4257 29.6798C34.4257 29.2825 34.1291 29.0646 33.47 29.0646H32.4319V30.295ZM21.1609 32.7044V31.9803C21.1033 31.9931 21.0209 32.006 20.9302 32.006C20.7572 32.006 20.6666 31.9355 20.6666 31.8137V30.6154C20.6666 29.7182 19.8921 29.244 18.6151 29.244C17.7829 29.244 17.0744 29.4811 16.6295 29.7887L17.3792 30.4423C17.6758 30.2373 18.0713 30.1091 18.4585 30.1091C19.0517 30.1091 19.3319 30.3398 19.3319 30.7179V30.8268C19.0517 30.7756 18.6975 30.7243 18.269 30.7243C17.1897 30.7243 16.4894 31.128 16.4894 31.7945C16.4894 32.4802 17.0744 32.839 17.9807 32.839C18.5986 32.839 19.1506 32.6404 19.439 32.384C19.612 32.7237 19.991 32.8134 20.3617 32.8134C20.6172 32.8198 20.9138 32.7878 21.1609 32.7044ZM19.3401 31.6215C19.3401 31.9355 18.9529 32.1405 18.508 32.1405C18.0878 32.1405 17.8818 31.9739 17.8818 31.7432C17.8818 31.4997 18.1125 31.3203 18.5821 31.3203C18.8705 31.3203 19.1259 31.3587 19.3401 31.3972V31.6215ZM50.5742 32.7621L48.984 30.6154L50.4753 29.3529H48.9758L47.4021 30.7115V28.1546H46.0592V32.7685H47.4021V31.9355L48.0448 31.4036L49.0499 32.7685H50.5742V32.7621ZM30.677 32.7621L29.0869 30.6154L30.5781 29.3529H29.0621L27.505 30.7115V28.1546H26.162V32.7685H27.505V31.9355L28.1476 31.4036L29.1528 32.7685H30.677V32.7621Z" fill="white"/>
</g>
<defs>
<clipPath id="clip0_150_683">
<rect width="42" height="5" fill="white" transform="translate(9 28)"/>
</clipPath>
</defs>
</svg>
