<svg width="60" height="60" viewBox="0 0 60 60" fill="none" xmlns="http://www.w3.org/2000/svg">
<rect width="60" height="60" fill="#EE3224"/>
<path d="M41.99 30.015C42.1275 36.855 35.9475 42.5 30.7812 42.5H18.0113L10 50H30.6425C37.2325 50 43.555 44.0713 43.555 36.9938C43.555 34.915 43.3025 32.2075 41.99 30.155V30.015ZM39.7988 35C40.595 33.5763 40.9863 32.7712 41.0825 31.25H35.2887C35.2887 32.6612 35.0537 33.4375 34.5238 35H39.7988ZM34.1462 36.25C33.4887 37.9237 31.9263 40.0625 30.4062 41.25C33.35 41.25 36.7138 40.0025 39.1725 36.25H34.1462ZM33.4888 35C34.0063 33.5763 34.2425 32.7712 34.3825 31.25H25.6175C25.7575 32.7712 25.9938 33.5763 26.51 35H33.4888ZM25.5075 35C24.9913 33.4375 24.7112 32.6625 24.7112 31.25H18.9188C19.0575 32.7712 19.435 33.5763 20.2012 35H25.5075ZM30 40.625C31.1437 39.5912 32.4425 37.6737 33.0988 36.25H26.9C27.5575 37.6737 28.8275 39.5912 30 40.625ZM20.7188 36.25C23.2863 40.0025 26.65 41.25 29.6375 41.25C28.0725 40.0613 26.4137 37.9237 25.8813 36.25H20.7188ZM34.5238 25C35.0537 26.3813 35.2887 28.4375 35.2887 30H41.0825C40.9863 28.4375 40.595 26.3813 39.7988 25H34.5238ZM39.1725 23.75C36.7138 20.15 33.35 19.0588 30.4062 19.0588C31.9263 20.2037 33.4887 22.0487 34.1462 23.75H39.1725ZM26.51 25C25.9938 26.3813 25.7575 28.4375 25.6175 30H34.3825C34.2425 28.4375 34.005 26.3813 33.4888 25H26.51ZM20.2025 25C19.4363 26.3813 19.0587 28.4375 18.92 30H24.7112C24.7112 28.4375 24.9912 26.3813 25.5087 25H20.2025ZM30.015 20.0625C28.8425 21.0962 27.5587 22.3263 26.9025 23.75H33.1C32.4425 22.3263 31.1587 21.0962 30.015 20.0625ZM25.8825 23.75C26.415 22.0475 28.0738 20.2025 29.6388 19.0588C26.6513 19.0588 23.2863 20.1488 20.72 23.75H25.8825ZM18.0113 29.875C16.7288 27.8375 16.25 25.205 16.25 23.125C16.25 16.0475 22.7713 10 29.3563 10H50.0025L41.99 17.5H29.2188C24.0837 17.5 17.87 23.2875 18.0113 29.875Z" fill="white"/>
</svg>
