<svg width="60" height="60" viewBox="0 0 60 60" fill="none" xmlns="http://www.w3.org/2000/svg">
<rect width="60" height="60" fill="white"/>
<g clip-path="url(#clip0_150_702)">
<path d="M32.4492 16C31.5501 13.8251 30.4424 12.1646 30.0036 11.496C29.5648 12.1646 28.4571 13.8251 27.558 16C28.4356 16.9699 29.3059 18.1161 30.0036 19.4092C30.6941 18.1161 31.5644 16.9699 32.4492 16Z" fill="#168A44"/>
<path d="M27.558 44.332C28.4571 46.5068 29.5648 48.1673 30.0036 48.836C30.4424 48.1673 31.5501 46.5068 32.4492 44.332C31.5644 43.3547 30.6941 42.2159 30.0036 40.9227C29.3059 42.2159 28.4356 43.3547 27.558 44.332Z" fill="#168A44"/>
<path d="M27.558 16C25.9828 14.2733 24.386 13.0977 23.753 12.6201C23.566 13.4063 23.0769 15.3534 22.9618 17.7119C24.1127 18.3144 25.3139 19.0859 26.4 20.0558C26.6158 18.5936 27.0545 17.2196 27.558 16Z" fill="#168A44"/>
<path d="M32.4492 44.3319C34.0172 46.0586 35.6212 47.2342 36.2542 47.7118C36.4412 46.9256 36.9231 44.9785 37.0382 42.62C35.8873 42.0175 34.6861 41.246 33.6 40.2761C33.3842 41.7309 32.9527 43.1123 32.4492 44.3319Z" fill="#168A44"/>
<path d="M22.9618 17.7119C20.9047 16.6318 19.013 16.0881 18.2577 15.8604C18.3369 16.6686 18.5383 18.6671 19.2144 20.9228C20.5019 21.0844 21.8901 21.3857 23.2352 21.922C22.9474 20.4819 22.8971 19.0271 22.9618 17.7119Z" fill="#168A44"/>
<path d="M37.0382 42.6199C39.0953 43.7 40.987 44.2437 41.7495 44.4641C41.6631 43.6633 41.4689 41.6647 40.7856 39.4091C39.5053 39.2474 38.1171 38.9388 36.772 38.4025C37.0526 39.8573 37.1101 41.2974 37.0382 42.6199Z" fill="#168A44"/>
<path d="M20.8831 24.7876C20.1351 23.5238 19.5956 22.1866 19.2144 20.9228C16.9271 20.6289 14.9634 20.7759 14.1722 20.8273C14.5247 21.5547 15.3806 23.3622 16.7688 25.2431C18.0348 24.9492 19.4374 24.7509 20.8831 24.7876Z" fill="#168A44"/>
<path d="M39.1169 35.5443C39.8721 36.8007 40.4044 38.1453 40.7856 39.4091C43.0801 39.703 45.0438 39.556 45.8278 39.5046C45.4825 38.7772 44.6266 36.9697 43.2312 35.0814C41.9724 35.3827 40.5698 35.581 39.1169 35.5443Z" fill="#168A44"/>
<path d="M16.7688 25.2432C14.5175 25.7722 12.7265 26.5951 12 26.9257C12.5754 27.4768 13.9852 28.8802 15.9201 30.166C17.0062 29.4459 18.2649 28.77 19.6316 28.2997C18.5023 27.3739 17.5528 26.3012 16.7688 25.2432Z" fill="#168A44"/>
<path d="M44.0799 30.1659C42.9938 30.886 41.7423 31.5619 40.3756 32.0322C41.4977 32.9579 42.4543 34.0307 43.2312 35.0814C45.4897 34.5597 47.2807 33.7294 48 33.4061C47.4318 32.8551 46.022 31.4444 44.0799 30.1659Z" fill="#168A44"/>
<path d="M19.6316 32.0322C18.2649 31.5619 17.0062 30.886 15.9201 30.1659C13.9852 31.4444 12.5754 32.8551 12 33.4061C12.7265 33.7294 14.5175 34.5597 16.7688 35.0814C17.5528 34.0307 18.5023 32.9579 19.6316 32.0322Z" fill="#168A44"/>
<path d="M40.3756 28.2997C41.7423 28.77 42.9938 29.4459 44.0799 30.166C46.022 28.8802 47.4318 27.4768 48 26.9257C47.2807 26.5951 45.4897 25.7722 43.2312 25.2432C42.4543 26.3012 41.4977 27.3739 40.3756 28.2997Z" fill="#168A44"/>
<path d="M16.7688 35.0814C15.3806 36.9697 14.5247 38.7772 14.1722 39.5046C14.9634 39.556 16.9271 39.703 19.2144 39.4091C19.5956 38.1453 20.1351 36.8007 20.8831 35.5443C19.4374 35.581 18.0348 35.3827 16.7688 35.0814Z" fill="#168A44"/>
<path d="M43.2312 25.2431C44.6266 23.3622 45.4825 21.5547 45.8278 20.8273C45.0438 20.7759 43.0801 20.6289 40.7856 20.9228C40.4044 22.1866 39.8721 23.5238 39.1169 24.7876C40.5698 24.7509 41.9724 24.9492 43.2312 25.2431Z" fill="#168A44"/>
<path d="M23.2352 38.4025C21.8901 38.9388 20.5019 39.2474 19.2144 39.4091C18.5383 41.6647 18.3369 43.6633 18.2577 44.4641C19.013 44.2437 20.9047 43.7 22.9618 42.6199C22.8971 41.2974 22.9474 39.8573 23.2352 38.4025Z" fill="#168A44"/>
<path d="M36.772 21.922C38.1171 21.3857 39.5053 21.0844 40.7856 20.9228C41.4689 18.6671 41.6631 16.6686 41.7495 15.8604C40.987 16.0881 39.0953 16.6318 37.0382 17.7119C37.1101 19.0271 37.0526 20.4746 36.772 21.922Z" fill="#168A44"/>
<path d="M22.9618 42.62C23.0769 44.9785 23.566 46.9256 23.753 47.7118C24.386 47.2342 25.9828 46.0586 27.558 44.3319C27.0545 43.1123 26.6158 41.7309 26.4 40.2761C25.3139 41.246 24.1127 42.0175 22.9618 42.62Z" fill="#168A44"/>
<path d="M37.0382 17.7119C36.9231 15.3534 36.4412 13.4063 36.2542 12.6201C35.6212 13.0977 34.0172 14.2733 32.4492 16C32.9527 17.2196 33.3842 18.5936 33.6 20.0558C34.6861 19.0859 35.8873 18.3144 37.0382 17.7119Z" fill="#168A44"/>
<path d="M28.752 22.9066C28.9822 21.6429 29.4282 20.4746 30.0036 19.4092C29.3059 18.1161 28.4356 16.9699 27.558 16C27.0545 17.2197 26.6158 18.5937 26.4 20.0558C27.2991 20.8567 28.1119 21.8045 28.752 22.9066Z" fill="#5BB046"/>
<path d="M31.2551 37.4253C31.025 38.6817 30.579 39.8573 30.0036 40.9227C30.6941 42.2159 31.5644 43.3547 32.4492 44.3319C32.9527 43.1122 33.3842 41.7309 33.6 40.2761C32.7081 39.4679 31.8953 38.5274 31.2551 37.4253Z" fill="#5BB046"/>
<path d="M23.2352 21.922C24.3428 22.3702 25.4218 22.9654 26.3928 23.7809C26.1914 22.5172 26.2202 21.2608 26.4 20.0558C25.3139 19.0859 24.1127 18.3144 22.9618 17.7119C22.8971 19.0271 22.9474 20.4819 23.2352 21.922Z" fill="#5BB046"/>
<path d="M36.772 38.4025C35.6643 37.9616 34.5782 37.3591 33.6072 36.5509C33.8158 37.8147 33.7798 39.0711 33.6 40.2761C34.6861 41.2459 35.8873 42.0174 37.0382 42.6199C37.1101 41.2974 37.0525 39.8573 36.772 38.4025Z" fill="#5BB046"/>
<path d="M24.4795 25.4269C23.8609 24.31 23.4653 23.1198 23.2352 21.9221C21.8901 21.3857 20.5019 21.0845 19.2144 20.9229C19.5956 22.1866 20.1351 23.5239 20.8831 24.7876C22.0699 24.817 23.2927 25.0007 24.4795 25.4269Z" fill="#5BB046"/>
<path d="M35.5277 34.905C36.1462 36.0219 36.5347 37.2121 36.772 38.4024C38.1171 38.9388 39.5053 39.2474 40.7856 39.409C40.4044 38.1453 39.8721 36.8007 39.1169 35.5443C37.9301 35.5149 36.7145 35.3312 35.5277 34.905Z" fill="#5BB046"/>
<path d="M19.6316 28.2997C20.7608 27.9029 21.9692 27.6604 23.2208 27.6457C22.2713 26.8081 21.5017 25.8236 20.8831 24.7876C19.4374 24.7508 18.0348 24.9492 16.7688 25.2431C17.5528 26.3012 18.5023 27.3739 19.6316 28.2997Z" fill="#5BB046"/>
<path d="M40.3756 32.0322C39.2464 32.4216 38.038 32.6715 36.7792 32.6861C37.7359 33.5164 38.5055 34.501 39.1169 35.5443C40.5698 35.5811 41.9724 35.3827 43.2312 35.0814C42.4543 34.0307 41.4977 32.958 40.3756 32.0322Z" fill="#5BB046"/>
<path d="M22.7892 30.1659C21.6096 29.7177 20.5594 29.0565 19.6316 28.2997C18.2649 28.7699 17.0062 29.4459 15.9201 30.1659C17.0062 30.886 18.2649 31.562 19.6316 32.0322C20.5594 31.2754 21.6096 30.6141 22.7892 30.1659Z" fill="#5BB046"/>
<path d="M37.218 30.1659C38.3904 30.6141 39.4406 31.2754 40.3756 32.0322C41.7423 31.562 42.9938 30.886 44.0799 30.1659C42.9938 29.4459 41.7423 28.7699 40.3756 28.2997C39.4406 29.0565 38.3904 29.7177 37.218 30.1659Z" fill="#5BB046"/>
<path d="M20.8831 35.5443C21.5017 34.501 22.2713 33.5164 23.2208 32.6861C21.9692 32.6715 20.7608 32.4216 19.6316 32.0322C18.5023 32.958 17.5528 34.0307 16.7688 35.0814C18.0348 35.3827 19.4374 35.5811 20.8831 35.5443Z" fill="#5BB046"/>
<path d="M39.1169 24.7876C38.5055 25.8236 37.7359 26.8081 36.7792 27.6457C38.038 27.6604 39.2464 27.9029 40.3756 28.2997C41.4977 27.3739 42.4543 26.3012 43.2312 25.2431C41.9724 24.9492 40.5698 24.7508 39.1169 24.7876Z" fill="#5BB046"/>
<path d="M24.4795 34.905C23.2927 35.3312 22.0699 35.5149 20.8831 35.5443C20.1351 36.8007 19.5956 38.1453 19.2144 39.409C20.5019 39.2474 21.8901 38.9388 23.2352 38.4024C23.4653 37.2121 23.8609 36.0219 24.4795 34.905Z" fill="#5BB046"/>
<path d="M35.5277 25.4269C36.7145 25.0007 37.9301 24.817 39.1169 24.7876C39.8721 23.5239 40.4044 22.1866 40.7856 20.9229C39.5053 21.0845 38.1171 21.3857 36.772 21.9221C36.5347 23.1198 36.1462 24.31 35.5277 25.4269Z" fill="#5BB046"/>
<path d="M28.752 37.4253C28.1119 38.5274 27.2991 39.4679 26.4 40.2761C26.6158 41.7309 27.0545 43.1122 27.558 44.3319C28.4356 43.3547 29.3059 42.2159 30.0036 40.9227C29.4282 39.8573 28.9822 38.6817 28.752 37.4253Z" fill="#5BB046"/>
<path d="M26.3928 36.5509C25.4218 37.3591 24.3428 37.9616 23.2352 38.4025C22.9474 39.8573 22.8971 41.2974 22.9618 42.6199C24.1127 42.0174 25.3139 41.2459 26.4 40.2761C26.2202 39.0711 26.1914 37.8147 26.3928 36.5509Z" fill="#5BB046"/>
<path d="M31.2551 22.9066C31.8953 21.8045 32.7081 20.8567 33.6 20.0558C33.3842 18.5937 32.9527 17.2197 32.4492 16C31.5644 16.9699 30.6941 18.1161 30.0036 19.4092C30.579 20.4746 31.025 21.6429 31.2551 22.9066Z" fill="#5BB046"/>
<path d="M33.6072 23.7809C34.5782 22.9654 35.6643 22.3702 36.772 21.922C37.0525 20.4746 37.1101 19.0271 37.0382 17.7119C35.8873 18.3144 34.6861 19.0859 33.6 20.0558C33.7798 21.2608 33.8158 22.5172 33.6072 23.7809Z" fill="#5BB046"/>
<path d="M28.7521 26.6685C28.1119 25.4929 27.2991 24.5451 26.3928 23.781C26.587 24.9639 26.9826 26.1542 27.6587 27.3078C26.6589 26.4334 25.58 25.8236 24.4795 25.4268C25.0478 26.4701 25.8246 27.4474 26.846 28.2997C25.6088 27.8294 24.3932 27.631 23.2208 27.6457C24.1127 28.4246 25.1628 29.0712 26.4072 29.5194C25.0909 29.5047 23.8825 29.7398 22.7892 30.1659C23.8825 30.5847 25.0909 30.8272 26.4072 30.8125C25.1628 31.2607 24.1127 31.9073 23.2208 32.6861C24.3932 32.7008 25.6088 32.5024 26.846 32.0248C25.8246 32.8845 25.0478 33.8544 24.4795 34.9051C25.58 34.501 26.6589 33.8985 27.6587 33.0168C26.9826 34.1777 26.587 35.368 26.3928 36.5509C27.2991 35.7868 28.1119 34.8389 28.7521 33.6634C28.5075 34.9859 28.5363 36.2423 28.7521 37.4253C29.3491 36.3893 29.7878 35.221 30.0036 33.8911C30.2194 35.221 30.6581 36.3893 31.2551 37.4253C31.4709 36.2423 31.4925 34.9859 31.248 33.6634C31.8953 34.8389 32.7009 35.7868 33.6072 36.5509C33.4202 35.368 33.0174 34.1777 32.3413 33.0168C33.3483 33.8985 34.42 34.501 35.5277 34.9051C34.9523 33.8544 34.1826 32.8845 33.1612 32.0248C34.3984 32.5024 35.6068 32.7008 36.7792 32.6861C35.8873 31.9073 34.8372 31.2607 33.5928 30.8125C34.9163 30.8272 36.1175 30.5847 37.218 30.1659C36.1175 29.7398 34.9163 29.5047 33.5928 29.5194C34.8372 29.0712 35.8873 28.4246 36.7792 27.6457C35.6068 27.631 34.3984 27.8294 33.1612 28.2997C34.1826 27.4474 34.9523 26.4701 35.5277 25.4268C34.42 25.8236 33.3483 26.4334 32.3413 27.3078C33.0174 26.1542 33.4202 24.9639 33.6072 23.781C32.7009 24.5451 31.8953 25.4929 31.248 26.6685C31.4925 25.3386 31.4709 24.0822 31.2551 22.9066C30.6581 23.9353 30.2194 25.1109 30.0036 26.4408C29.7878 25.1109 29.3491 23.9353 28.7521 22.9066C28.5363 24.0822 28.5075 25.3386 28.7521 26.6685Z" fill="white"/>
<path d="M28.752 26.6685C28.5075 25.3386 28.5363 24.0822 28.752 22.9066C28.1119 21.8045 27.2991 20.8567 26.4 20.0558C26.2202 21.2608 26.1914 22.5172 26.3928 23.781C27.2991 24.5451 28.1119 25.4929 28.752 26.6685Z" fill="#FEDC00"/>
<path d="M31.248 33.6633C31.4925 34.9859 31.4709 36.2423 31.2551 37.4252C31.8953 38.5274 32.7081 39.4678 33.6 40.2761C33.7798 39.0711 33.8158 37.8147 33.6072 36.5509C32.7009 35.7867 31.8953 34.8389 31.248 33.6633Z" fill="#FEDC00"/>
<path d="M26.3928 23.781C25.4218 22.9655 24.3429 22.3703 23.2352 21.9221C23.4653 23.1198 23.8609 24.31 24.4795 25.4269C25.58 25.8236 26.6589 26.4335 27.6587 27.3078C26.9826 26.1543 26.587 24.964 26.3928 23.781Z" fill="#FEDC00"/>
<path d="M33.6072 36.5509C34.5782 37.3591 35.6643 37.9616 36.772 38.4024C36.5347 37.2121 36.1463 36.0218 35.5277 34.905C34.42 34.5009 33.3483 33.8984 32.3413 33.0167C33.0174 34.1776 33.4202 35.3679 33.6072 36.5509Z" fill="#FEDC00"/>
<path d="M26.846 28.2997C25.8246 27.4474 25.0478 26.4702 24.4795 25.4268C23.2927 25.0007 22.0699 24.817 20.8831 24.7876C21.5017 25.8236 22.2713 26.8082 23.2208 27.6458C24.3932 27.6311 25.6088 27.8295 26.846 28.2997Z" fill="#FEDC00"/>
<path d="M33.1612 32.0249C34.1826 32.8846 34.9522 33.8544 35.5277 34.9051C36.7145 35.3313 37.9301 35.515 39.1169 35.5444C38.5055 34.501 37.7359 33.5164 36.7792 32.6862C35.6068 32.7009 34.3984 32.5025 33.1612 32.0249Z" fill="#FEDC00"/>
<path d="M26.4072 29.5194C25.1628 29.0712 24.1127 28.4246 23.2208 27.6458C21.9692 27.6604 20.7608 27.9029 19.6316 28.2997C20.5594 29.0565 21.6096 29.7177 22.7892 30.1659C23.8825 29.7398 25.0909 29.5047 26.4072 29.5194Z" fill="#FEDC00"/>
<path d="M33.5928 30.8125C34.8372 31.2607 35.8873 31.9073 36.7792 32.6861C38.038 32.6714 39.2464 32.4216 40.3756 32.0322C39.4406 31.2754 38.3904 30.6141 37.218 30.1659C36.1175 30.5847 34.9163 30.8272 33.5928 30.8125Z" fill="#FEDC00"/>
<path d="M22.7892 30.1659C21.6096 30.6141 20.5594 31.2754 19.6316 32.0322C20.7608 32.4216 21.9692 32.6714 23.2208 32.6861C24.1127 31.9073 25.1628 31.2607 26.4072 30.8125C25.0909 30.8272 23.8825 30.5847 22.7892 30.1659Z" fill="#FEDC00"/>
<path d="M37.218 30.1659C38.3904 29.7177 39.4406 29.0565 40.3756 28.2997C39.2464 27.9029 38.038 27.6604 36.7792 27.6458C35.8873 28.4246 34.8372 29.0712 33.5928 29.5194C34.9163 29.5047 36.1175 29.7398 37.218 30.1659Z" fill="#FEDC00"/>
<path d="M26.846 32.0249C25.6088 32.5025 24.3932 32.7009 23.2208 32.6862C22.2713 33.5164 21.5017 34.501 20.8831 35.5444C22.0699 35.515 23.2927 35.3313 24.4795 34.9051C25.0478 33.8544 25.8246 32.8846 26.846 32.0249Z" fill="#FEDC00"/>
<path d="M33.1612 28.2997C34.3984 27.8295 35.6068 27.6311 36.7792 27.6458C37.7359 26.8082 38.5055 25.8236 39.1169 24.7876C37.9301 24.817 36.7145 25.0007 35.5277 25.4268C34.9522 26.4702 34.1826 27.4474 33.1612 28.2997Z" fill="#FEDC00"/>
<path d="M28.752 37.4253C28.9822 38.6817 29.4282 39.8573 30.0036 40.9227C30.579 39.8573 31.025 38.6817 31.2551 37.4253C30.6581 36.3893 30.2194 35.221 30.0036 33.8911C29.7878 35.221 29.349 36.3893 28.752 37.4253Z" fill="#FEDC00"/>
<path d="M28.752 33.6633C28.1119 34.8389 27.2991 35.7867 26.3928 36.5509C26.1914 37.8147 26.2202 39.0711 26.4 40.2761C27.2991 39.4678 28.1119 38.5274 28.752 37.4252C28.5363 36.2423 28.5075 34.9859 28.752 33.6633Z" fill="#FEDC00"/>
<path d="M24.4795 34.905C23.8609 36.0218 23.4653 37.2121 23.2352 38.4024C24.3429 37.9616 25.4218 37.3591 26.3928 36.5509C26.587 35.3679 26.9826 34.1776 27.6587 33.0167C26.6589 33.8984 25.58 34.5009 24.4795 34.905Z" fill="#FEDC00"/>
<path d="M31.2551 22.9066C31.025 21.6428 30.579 20.4746 30.0036 19.4092C29.4282 20.4746 28.9822 21.6428 28.752 22.9066C29.349 23.9352 29.7878 25.1108 30.0036 26.4407C30.2194 25.1108 30.6581 23.9352 31.2551 22.9066Z" fill="#FEDC00"/>
<path d="M31.248 26.6685C31.8953 25.4929 32.7009 24.5451 33.6072 23.781C33.8158 22.5172 33.7798 21.2608 33.6 20.0558C32.7081 20.8567 31.8953 21.8045 31.2551 22.9066C31.4709 24.0822 31.4925 25.3386 31.248 26.6685Z" fill="#FEDC00"/>
<path d="M35.5277 25.4269C36.1463 24.31 36.5347 23.1198 36.772 21.9221C35.6643 22.3703 34.5782 22.9655 33.6072 23.781C33.4202 24.964 33.0174 26.1543 32.3413 27.3078C33.3483 26.4335 34.42 25.8236 35.5277 25.4269Z" fill="#FEDC00"/>
</g>
<defs>
<clipPath id="clip0_150_702">
<rect width="36" height="38" fill="white" transform="translate(12 11)"/>
</clipPath>
</defs>
</svg>
