<svg width="60" height="60" viewBox="0 0 60 60" fill="none" xmlns="http://www.w3.org/2000/svg">
<rect width="60" height="60" fill="white"/>
<g clip-path="url(#clip0_1403_8898)">
<path d="M12 10V50H47.7336V10H12ZM46.192 11.5V30H13.4866V14.7222H13.5417C13.5967 14.7222 20.2589 14.5556 24.6637 18.8333C26.3705 20.5 27.5818 22.6667 28.1875 25.2778C26.4256 23.2778 23.1771 21.5 17.6711 21.5V23C28.4077 23 28.7381 29.8889 28.7381 29.9444H31.0506C31.0506 25.1667 32.8676 21.8333 36.4464 19.9444C39.1443 18.5556 41.8423 18.5 42.1726 18.5V16.1667C41.7872 16.1667 38.5938 16.2222 35.4003 17.8889C33.5283 18.8889 31.436 20.5556 30.1146 23.3333C29.3438 20.8889 28.0774 18.7778 26.3155 17.0556C21.3051 12.2222 14.2574 12.2778 13.5967 12.2778V11.3889C13.4866 11.5 46.192 11.5 46.192 11.5Z" fill="#001F5A"/>
<path d="M46.1919 47.6111C45.5311 47.6111 38.4285 47.7222 33.4731 42.8333C31.7112 41.1111 30.4448 39.0556 29.674 36.5556C28.3526 39.3889 26.2603 41.0556 24.3883 42C21.1948 43.6667 18.0014 43.7222 17.616 43.7222V41.3889C17.8913 41.3889 20.6442 41.3333 23.3422 39.9445C26.921 38.0556 28.738 34.7222 28.738 29.9445H31.0505C31.0505 30 31.3258 36.8889 42.1175 36.8889V38.3889C36.5564 38.3889 33.363 36.6111 31.6011 34.6111C32.2067 37.2222 33.418 39.3889 35.1249 41.0556C39.5297 45.3889 46.1919 45.1667 46.2469 45.1667H46.302C46.1919 45.3333 46.1919 47.6111 46.1919 47.6111Z" fill="white"/>
</g>
<defs>
<clipPath id="clip0_1403_8898">
<rect width="36" height="40" fill="white" transform="translate(12 10)"/>
</clipPath>
</defs>
</svg>
