<svg width="60" height="60" viewBox="0 0 60 60" fill="none" xmlns="http://www.w3.org/2000/svg">
<rect width="60" height="60" fill="#2A308F"/>
<g clip-path="url(#clip0_168_443)">
<path d="M48.9022 19.9663C49.2734 19.6076 49.5152 19.3571 50.4755 19.3571H50.7162V18.4795H41.1005V19.3571H41.3411C42.3026 19.3571 42.5432 19.6076 42.9042 19.9832C43.264 20.36 43.5047 21.1113 43.5047 22.1153V28.507H36.2932V21.9878C36.2932 20.985 36.5338 20.3589 36.8948 19.9821C37.2546 19.6064 37.4953 19.356 38.4567 19.356H38.6974V18.4795H29.0805V19.3571H29.3212C30.2826 19.3571 30.5233 19.6076 30.8831 19.9832C31.2441 20.36 31.4847 21.1113 31.4847 22.1153V37.2813C31.4847 38.2841 31.2441 38.9102 30.8831 39.2859C30.5233 39.6627 30.2826 39.9131 29.3212 39.9131H29.0805V41.0412H38.6962V39.9131H38.4567C37.4953 39.9131 37.2546 39.6627 36.8936 39.2859C36.5338 38.9102 36.2932 38.2841 36.2932 37.2813V29.7603H43.5047V37.2813C43.5047 38.2841 43.264 38.9102 42.903 39.2859C42.5432 39.6627 42.3026 39.9131 41.3411 39.9131H41.1005V41.0412H50.7162V39.9131H50.4755C49.5141 39.9131 49.3937 39.6627 48.9136 39.2859C48.5526 38.9102 48.312 38.2841 48.312 37.2813V22.1142C48.312 21.1113 48.5526 20.36 48.9136 19.9832L48.9022 19.9663ZM25.3561 30.2612C24.515 29.6351 23.6739 29.1331 22.5921 29.009C23.6739 28.507 23.6739 28.507 24.3947 28.1314C25.9566 27.1274 26.6774 25.7489 26.6774 24.1199C26.6774 22.2394 25.4765 20.9861 24.3947 20.1084C23.3129 19.2319 21.5103 18.4795 18.8666 18.4795H9.85132V19.6076H10.092C11.0534 19.6076 11.2941 19.7328 11.6539 20.1084C12.0149 20.6104 12.2555 21.2365 12.2555 22.2405V37.4065C12.2555 38.4094 12.0149 39.0354 11.6539 39.4122C11.2941 39.7879 11.0523 40.0383 10.092 40.0383H9.85132V41.0412H19.2264C22.1108 41.0412 23.9145 40.414 25.4765 39.2859C27.0384 38.1578 27.8795 36.6541 27.8795 34.7735C27.8795 32.8942 27.0395 31.2652 25.3561 30.2612ZM17.0628 21.8637C17.0628 20.9861 17.1832 20.4852 17.4238 20.2348C17.6633 19.9832 18.1446 19.6076 18.8654 19.7328C19.8269 19.858 20.668 20.4852 21.1493 21.1113C21.6306 21.8637 21.9905 22.9918 21.9905 24.4956C21.9905 25.8752 21.6306 26.877 20.9087 27.6294C20.1879 28.2566 19.1061 28.507 17.6633 28.507H17.0617V21.8637H17.0628ZM21.9905 38.5346C21.3888 39.2859 20.4285 39.7868 19.2264 39.7868H18.8654C18.1446 39.7868 17.543 39.5374 17.3035 39.2859C17.1832 39.0355 17.0628 38.5346 17.0628 37.7821V29.7603H17.7836C19.5862 29.7603 20.9087 30.2612 21.6306 31.1389C22.4706 32.0165 22.9519 33.2709 22.9519 35.0251C22.9519 36.5288 22.5921 37.7833 21.9905 38.5346Z" fill="#FEFEFD"/>
</g>
<defs>
<clipPath id="clip0_168_443">
<rect width="42" height="24" fill="white" transform="translate(9 18)"/>
</clipPath>
</defs>
</svg>
