<svg width="60" height="60" viewBox="0 0 60 60" fill="none" xmlns="http://www.w3.org/2000/svg">
<rect width="60" height="60" fill="#0E72B5"/>
<g clip-path="url(#clip0_168_389)">
<path d="M10.4329 40.5796C10.2475 38.0761 13.9333 31.6415 24.9868 25.3105C35.8897 19.0669 45.3275 15.36 49.0313 17.1184C51.512 18.2978 46.7697 25.3105 35.0206 32.4609C26.6552 38.3144 10.7459 44.4956 10.4429 40.5946L10.4329 40.5796ZM49.0313 40.5946C49.2266 38.0761 45.5408 31.6415 34.4873 25.3105C23.5844 19.0669 14.1466 15.36 10.4429 17.1184C7.96206 18.2978 12.7044 25.3105 24.4535 32.4609C32.8189 38.3144 48.7283 44.4956 49.0313 40.5946Z" stroke="#FEFEFD"/>
<path d="M19.2717 21.7081C21.1983 21.7081 22.7601 20.1326 22.7601 18.1892C22.7601 16.2457 21.1983 14.6703 19.2717 14.6703C17.345 14.6703 15.7832 16.2457 15.7832 18.1892C15.7832 20.1326 17.345 21.7081 19.2717 21.7081Z" fill="#FEFEFD"/>
<path d="M19.2717 44.8324C21.1983 44.8324 22.7601 43.2569 22.7601 41.3135C22.7601 39.3701 21.1983 37.7946 19.2717 37.7946C17.345 37.7946 15.7832 39.3701 15.7832 41.3135C15.7832 43.2569 17.345 44.8324 19.2717 44.8324Z" fill="#FEFEFD"/>
</g>
<defs>
<clipPath id="clip0_168_389">
<rect width="42" height="31" fill="white" transform="translate(9 14)"/>
</clipPath>
</defs>
</svg>
