<svg width="60" height="60" viewBox="0 0 60 60" fill="none" xmlns="http://www.w3.org/2000/svg">
<rect width="60" height="60" fill="black"/>
<path d="M23.7436 47.7941C26.0861 48.335 28.3973 48.6055 30.6794 48.6055C34.3339 48.6055 37.1199 47.7898 39.0384 46.1573C40.9568 44.5237 41.916 42.5048 41.916 40.1016C41.916 38.5185 41.4812 36.9955 40.6137 35.5336C39.7451 34.0717 38.3316 32.9201 36.3732 32.0775C34.4149 31.236 31.9925 30.8163 29.1051 30.8163C27.8524 30.8163 26.782 30.8356 25.894 30.8754C25.0049 30.9161 24.2885 30.9859 23.7436 31.0868V47.7941ZM23.7436 28.3209C24.4902 28.4615 25.3437 28.5677 26.3029 28.6364C27.2622 28.7083 28.3174 28.7427 29.4676 28.7427C32.4155 28.7427 34.6317 28.4271 36.1164 27.796C37.6001 27.1649 38.7362 26.1989 39.5239 24.8959C40.3105 23.594 40.7043 22.1718 40.7043 20.6284C40.7043 18.2456 39.7257 16.2106 37.7673 14.5287C35.8078 12.8458 32.9506 12.0043 29.1957 12.0043C27.1758 12.0043 25.3588 12.2243 23.7436 12.6655V28.3209ZM39.6135 29.9437C42.4609 30.5459 44.5909 31.5065 46.0044 32.8299C47.9627 34.6717 48.9425 36.9268 48.9425 39.5897C48.9425 41.6139 48.2962 43.5524 47.0046 45.4049C45.712 47.2585 43.9402 48.6109 41.6884 49.4621C39.4365 50.3143 35.9999 50.7393 31.3764 50.7393H11.9922V49.6273H13.5373C15.2529 49.6273 16.4841 49.0864 17.2318 48.0045C17.6969 47.3036 17.9288 45.8106 17.9288 43.5266V17.2034C17.9288 14.6779 17.6354 13.0862 17.0505 12.425C16.2629 11.5438 15.0911 11.1027 13.5373 11.1027H11.9922V9.99074H29.7406C33.0521 9.99074 35.7075 10.2312 37.7058 10.712C40.7345 11.4333 43.0468 12.7095 44.6416 14.5438C46.2364 16.377 47.0348 18.485 47.0348 20.8688C47.0348 22.9124 46.4079 24.7403 45.1563 26.3524C43.9046 27.9656 42.0574 29.1634 39.6135 29.9437Z" fill="white"/>
</svg>
