<svg width="60" height="60" viewBox="0 0 60 60" fill="none" xmlns="http://www.w3.org/2000/svg">
<rect width="60" height="60" fill="black"/>
<g clip-path="url(#clip0_150_984)">
<path fill-rule="evenodd" clip-rule="evenodd" d="M14.3238 37.711L13.3723 38.2961C13.0605 37.8154 12.5547 37.527 11.9367 37.527C10.9277 37.527 10.1812 38.2686 10.1812 39.3536C10.1867 40.4743 10.9578 41.1803 11.9367 41.1803C12.552 41.1803 13.0523 40.9001 13.3859 40.4139L14.291 41.0676C13.7988 41.7928 12.9594 42.2488 11.9449 42.2488C10.2332 42.2488 9.02734 41.0319 9.02734 39.3536C9.02734 37.6753 10.2332 36.4585 11.9449 36.4585C12.9676 36.4585 13.8727 36.9282 14.3238 37.711ZM20.6785 39.3536C20.6785 41.021 19.4699 42.2488 17.7582 42.2488C16.0492 42.2488 14.8434 41.021 14.8434 39.3536C14.8434 37.6863 16.0492 36.4585 17.7582 36.4585C19.4699 36.4585 20.6785 37.6863 20.6785 39.3536ZM15.9973 39.3536C15.9973 40.4386 16.7383 41.1803 17.7582 41.1803C18.7836 41.1803 19.5219 40.4386 19.5219 39.3536C19.5219 38.2686 18.7836 37.527 17.7582 37.527C16.7383 37.527 15.9973 38.2686 15.9973 39.3536ZM26.6422 42.1444H25.6031L22.7867 38.417L22.7812 42.1444H21.6738V36.5629H22.7102L25.532 40.2903V36.5629H26.6422V42.1444ZM33.1227 42.1444H31.9387L31.4547 40.8452H29.0867L28.6027 42.1444H27.4461L29.609 36.5629H30.9598L33.1227 42.1444ZM29.4668 39.8206H31.0746L30.2707 37.6616L29.4668 39.8206ZM50.6254 42.1471H49.4441L48.9602 40.8479H46.5895L46.1055 42.1471H44.9516L47.1145 36.5656H48.4625L50.6254 42.1471ZM46.9723 39.8206H48.5773L47.7762 37.6643L46.9723 39.8206Z" fill="white"/>
<path fill-rule="evenodd" clip-rule="evenodd" d="M36.382 39.2108V40.1365H37.7574C37.5715 40.8287 37.0547 41.2077 36.2152 41.2077C35.2555 41.2077 34.4816 40.4936 34.4816 39.3536C34.4816 38.2659 35.2199 37.516 36.2344 37.516C36.8031 37.516 37.2625 37.7385 37.5742 38.1011L38.3727 37.3155C37.8805 36.7771 37.1477 36.4585 36.2672 36.4585C34.5609 36.4585 33.3332 37.6671 33.3332 39.3536C33.3332 41.1555 34.6977 42.2433 36.2371 42.2433C37.8148 42.2433 38.9523 41.0539 38.9523 39.3619V39.2108H36.382Z" fill="white"/>
<path d="M44.3582 38.3811C44.3582 37.3785 43.5461 36.5627 42.5481 36.5627H39.9449V42.1443H41.0523V40.1995H42.0641L43.0512 42.1443H44.3309L43.2344 40.0649C43.8934 39.793 44.3582 39.1393 44.3582 38.3811ZM43.3574 38.3811C43.3574 38.8289 42.9938 39.1942 42.5481 39.1942H41.0523V37.5681H42.5481C42.9938 37.5681 43.3574 37.9334 43.3574 38.3811Z" fill="white"/>
<path d="M37.3418 29.4239L37.4348 29.4074L37.5277 29.3909L37.618 29.369L37.7109 29.3552L37.8039 29.3305L37.8914 29.303L37.9789 29.2646L38.0637 29.2426L38.1457 29.2151L38.2277 29.1794L38.3152 29.1685L38.4 29.141L38.4875 29.13L38.5695 29.1025L38.657 29.0943L38.7445 29.086L38.8348 29.0833L38.9223 29.0751H39.0098H39.0973H39.1848L39.275 29.0723L39.3625 29.0778L39.45 29.0806L39.5348 29.108H39.625L39.7098 29.1218L39.7945 29.1465L39.8793 29.1712L39.923 29.1822L39.9641 29.1932L40.0543 29.2014L40.1363 29.2316L40.2156 29.2701L40.3059 29.2976L40.3934 29.3305L40.4836 29.358L40.5738 29.3772L40.6668 29.3937L40.757 29.4157L40.8527 29.4267L40.9457 29.4184L41.0414 29.4349L41.1344 29.4376L41.2273 29.4349L41.3203 29.4184L41.416 29.4212L41.509 29.4019L41.5555 29.3964L41.602 29.3909L41.6949 29.3855L41.7824 29.347L41.8727 29.3195L41.9191 29.3113L41.9656 29.3003L42.0559 29.2756L42.1406 29.2399L42.2254 29.2042L42.3129 29.1794L42.4031 29.163V29.1382L42.3211 29.0998L42.25 29.0421L42.1625 29.0174L42.0859 28.9652L42.0039 28.9295L41.9191 28.8938L41.8289 28.8745L41.7523 28.8251L41.6621 28.8059L41.5773 28.7729L41.4953 28.74L41.4078 28.707L41.3203 28.6823L41.2328 28.663L41.1453 28.6356L41.0578 28.6191L40.9703 28.5999L40.8801 28.5779L40.7898 28.5696L40.7023 28.5504L40.6121 28.5449L40.5191 28.5394L40.4316 28.5147L40.3414 28.5202L40.2512 28.5065L40.1609 28.4927L40.0707 28.49L39.9805 28.4927H39.8902L39.8 28.501L39.707 28.49L39.6168 28.5065L39.5238 28.5092L39.4363 28.5339L39.3461 28.5394L39.2559 28.5587L39.1656 28.5806L39.0809 28.6109L38.9934 28.6356L38.9031 28.6548L38.8156 28.6795L38.7281 28.7015L38.6461 28.7509L38.5586 28.7729L38.4711 28.7976L38.3918 28.8471L38.3016 28.8691L38.2168 28.8993L38.1375 28.9515L38.0555 28.9872L37.9707 29.0229L37.8859 29.0586L37.8094 29.108L37.7219 29.1382L37.6371 29.1739L37.5578 29.2179L37.484 29.2701L37.4019 29.3113L37.3172 29.347L37.2352 29.3909L37.2461 29.4129L37.3418 29.4239Z" fill="#94D7E9"/>
<path d="M34.8727 31.0967L34.9629 31.1022L35.0504 31.0995L35.1406 31.094L35.2281 31.1105L35.3156 31.1215L35.4031 31.1297L35.4879 31.1462H35.5781L35.6629 31.1682L35.7504 31.1819L35.8297 31.2203L35.9172 31.2341L35.9965 31.2753L36.084 31.2863L36.1715 31.3302L36.259 31.3632L36.3465 31.3906L36.4395 31.4071L36.5297 31.4318L36.6254 31.4456H36.7184L36.8141 31.4401L36.907 31.4538L37 31.4648L37.093 31.4566L37.1859 31.4483L37.2816 31.4428L37.3746 31.4373L37.4676 31.4264L37.5578 31.3961L37.648 31.3769L37.7437 31.3659L37.8312 31.333L37.9187 31.3L37.998 31.2588L38.0828 31.2368L38.1676 31.2094L38.2551 31.2011L38.3398 31.1764L38.4219 31.1434H38.5121L38.5969 31.1215H38.6844L38.7719 31.1022L38.8594 31.1077L38.9469 31.105L39.0371 31.1105L39.1246 31.1077L39.2121 31.0995L39.2996 31.105L39.3871 31.1132L39.4746 31.1297L39.5184 31.1352L39.5621 31.1407L39.6496 31.1489L39.7344 31.1764L39.8191 31.1956L39.9012 31.2258L39.9887 31.2423L40.068 31.278L40.1527 31.3027L40.243 31.3302L40.3332 31.3522L40.4207 31.3852L40.5137 31.4016L40.6066 31.4209L40.6969 31.4346L40.7898 31.4538L40.8855 31.4621L40.9785 31.4511L41.0742 31.4538L41.1672 31.4456L41.2602 31.4566L41.3559 31.4511L41.4488 31.4456L41.5418 31.4264L41.6348 31.4126L41.7223 31.3714L41.8152 31.3577L41.9 31.3165L41.993 31.3055L42.0723 31.2615L42.157 31.2341L42.2418 31.2148L42.3238 31.1874L42.4113 31.1791L42.4551 31.1654L42.4961 31.1517L42.5836 31.1352L42.6711 31.1297L42.7148 31.1187L42.7559 31.1077L42.8461 31.1187L42.9336 31.1105L43.0211 31.105L43.1086 31.1022L43.1961 31.0995L43.2836 31.116L43.3711 31.1215L43.4586 31.127L43.5488 31.1297L43.6363 31.1379L43.7238 31.1434L43.8059 31.1791L43.8934 31.1929L43.9754 31.2203L44 31.2286L44.0602 31.2478L44.1422 31.278L44.2242 31.3027L44.3145 31.322L44.3937 31.3632L44.484 31.3797L44.5715 31.4044L44.5961 31.3769L44.5387 31.3027L44.4977 31.2203L44.4512 31.1434L44.4184 31.0555L44.3555 30.9896L44.309 30.91L44.268 30.8303L44.2187 30.7506L44.1531 30.6875L44.1148 30.6023L44.0437 30.5419L43.9945 30.465L43.9426 30.3881L43.8852 30.3166L43.8223 30.2535L43.7594 30.1848L43.702 30.1161L43.6336 30.0557L43.5652 29.9953L43.4941 29.9348L43.4285 29.8744L43.3629 29.814L43.2918 29.7563L43.2262 29.6959L43.1715 29.6821L43.0758 29.7014H42.9828L42.8871 29.6876L42.7969 29.7069L42.7039 29.7343L42.6137 29.7535H42.5152L42.4277 29.7838L42.343 29.8277L42.2555 29.8552L42.1707 29.8772L42.0859 29.9074L41.9984 29.9211L41.9164 29.9458L41.8316 29.976L41.7906 29.9843L41.7469 29.9925L41.6594 29.998L41.5719 30.0145L41.4871 30.0365H41.3996L41.3094 30.0392L41.2219 30.0337L41.1344 30.0502L41.0469 30.031L40.9594 30.0392L40.8719 30.031L40.7816 30.0337L40.6969 30.0145L40.6094 29.998L40.5219 29.9925L40.4344 29.976L40.3523 29.9458L40.2621 29.9376L40.1855 29.8964L40.0953 29.8881L40.0187 29.8442L39.9285 29.8112L39.8355 29.7947L39.7453 29.7728L39.6551 29.7508L39.5676 29.7123L39.4719 29.7069L39.3789 29.6904L39.2859 29.6849H39.193L39.0973 29.6931L39.0043 29.6959L38.9086 29.6849L38.8156 29.6904L38.7227 29.7014L38.6297 29.7151L38.5367 29.7316L38.4465 29.759L38.359 29.7975L38.2687 29.8195L38.1785 29.8442L38.0937 29.8689L38.0117 29.9019L37.9324 29.9403L37.8449 29.9568L37.7602 29.9815L37.6754 29.998L37.5879 30.0117L37.4977 30.0063L37.4129 30.0172L37.3801 30.0282L37.3254 30.0447L37.2379 30.0475L37.1504 30.0529L37.0602 30.0392L36.9672 30.0365H36.877L36.7812 30.042L36.691 30.0337L36.598 30.0145L36.5078 30.0008L36.4148 29.987L36.3246 29.9678L36.3109 29.9623L36.2371 30.0145L36.1578 30.0612L36.0949 30.1271L36.0102 30.1628L35.9363 30.2178L35.8598 30.2645L35.7859 30.3166L35.7121 30.3688L35.6383 30.4238L35.5699 30.4842L35.4988 30.5391L35.4168 30.5803L35.3512 30.6435L35.2801 30.6984L35.209 30.7561L35.1297 30.8001L35.0559 30.855L34.9875 30.9127L34.9109 30.9621L34.8453 31.0253L34.766 31.072L34.7852 31.1187L34.8727 31.0967Z" fill="#007EC5"/>
<path d="M45.1621 33.489L45.1512 33.3984L45.143 33.3187L45.1402 33.3105L45.1457 33.2199L45.1238 33.1292L45.1184 33.0386L45.0938 32.9507L45.0965 32.86L45.0582 32.7749L45.0609 32.6815L45.0199 32.5991L45.0035 32.5112L44.9762 32.4233L44.9789 32.3299L44.9406 32.2475L44.9106 32.1596L44.8723 32.0799L44.8668 32.0744L44.7793 32.058L44.6945 32.0442L44.6535 32.036L44.6098 32.025L44.525 32.0058L44.4375 32.0113L44.3527 31.9948L44.2762 31.9426L44.1914 31.9261L44.1121 31.8959L44.0246 31.8877L43.9426 31.8382L43.8441 31.8327L43.7621 31.7778L43.6664 31.7833L43.5762 31.7585L43.4832 31.7366L43.3902 31.7256L43.2973 31.7366L43.2043 31.7036H43.1086L43.0156 31.7091L42.9227 31.7201L42.827 31.7311L42.7367 31.7476L42.641 31.7531L42.5535 31.7833H42.5043H42.4551L42.3676 31.8135L42.2801 31.8519L42.1898 31.8767L42.1133 31.9206L42.023 31.9316L41.9438 31.9673L41.8563 31.9865L41.7688 31.9893L41.684 32.0085L41.5965 32.025L41.5117 32.0387L41.4242 32.0552L41.3367 32.0744H41.2492H41.1617L41.0742 32.0607L40.984 32.058L40.9402 32.0689L40.8965 32.0827L40.809 32.0497L40.7242 32.0415L40.6313 32.058L40.5438 32.0497L40.4617 32.0168L40.3742 32.0003L40.2895 31.9838L40.2074 31.9508L40.1172 31.9453L40.0379 31.9069L39.9586 31.8629L39.8656 31.8492L39.7727 31.83L39.6824 31.8052L39.5949 31.7695L39.502 31.7585L39.4117 31.7338L39.3188 31.7173L39.2231 31.7256L39.1301 31.7119L39.0371 31.7228H38.9441L38.8484 31.7338L38.7555 31.7256L38.6625 31.7476L38.5668 31.7448L38.4738 31.7613L38.3836 31.7833L38.2988 31.8245L38.2113 31.8574L38.1156 31.8684L38.0391 31.9151L37.9488 31.9261L37.8914 31.9398L37.8641 31.9481L37.782 31.9783L37.6945 31.9893L37.6152 32.036L37.5277 32.0442L37.4375 32.036L37.3527 32.0634L37.2652 32.0744L37.1777 32.0772L37.0875 32.0827L37 32.058L36.9125 32.0607L36.825 32.0552L36.7375 32.058L36.65 32.0525L36.5625 32.0332L36.4723 32.0497L36.3848 32.0332L36.3 32.014L36.2125 31.992L36.1332 31.9508L36.0512 31.9179L35.9664 31.9014L35.8844 31.8657L35.7887 31.8574L35.6984 31.8327L35.6164 31.7833L35.5234 31.764L35.4305 31.7613L35.384 31.7421L35.3402 31.7228L35.2473 31.7119H35.2418H35.1516L35.0586 31.7173H34.9629H34.9164L34.8699 31.7146L34.777 31.7338L34.6813 31.7228L34.5883 31.7256L34.498 31.7613H34.4023L34.3094 31.7778L34.2219 31.819L34.1289 31.8355L34.0879 31.8547L34.0441 31.8739L34.0469 31.8822L34.0496 31.8904L33.9621 31.9206L33.8773 31.9536L33.7926 31.9893L33.7133 32.0332L33.6285 32.0717L33.541 32.1074L33.4672 32.1596L33.3879 32.2118L33.325 32.2777L33.2566 32.3409L33.1801 32.3903L33.1117 32.4507L33.0434 32.5112L32.9777 32.5744L32.9066 32.632L32.852 32.7062L32.7809 32.7639L32.7125 32.8216L32.6469 32.882L32.573 32.9369L32.5184 33.0138L32.4445 33.0688L32.368 33.1182L32.3105 33.1896L32.2504 33.2583L32.1684 33.3023L32.1027 33.3654L32.0563 33.4478L31.9934 33.5055H32.0098L32.1 33.533L32.1875 33.566L32.2805 33.5797L32.368 33.6126L32.4582 33.6484L32.5512 33.6456H32.6469L32.7398 33.6648H32.8328L32.9258 33.6703L33.0215 33.6841L33.1145 33.6566L33.2102 33.6648L33.3031 33.6593L33.3934 33.6346L33.4863 33.6126L33.582 33.6099L33.6695 33.5714L33.7516 33.5275L33.8473 33.5165L33.932 33.4945L34.0113 33.4506L34.0961 33.4259L34.1781 33.3984H34.2684L34.3504 33.3572L34.4379 33.3462L34.5254 33.338L34.6129 33.3325L34.7004 33.338L34.7879 33.3297L34.8754 33.3242H34.9629L35.0504 33.3297L35.1406 33.305L35.2281 33.327H35.3156L35.4031 33.3297L35.4879 33.3627L35.5754 33.3737L35.6602 33.3902L35.7449 33.4121H35.8379L35.9145 33.4588L35.9965 33.4918L36.0867 33.4973L36.1715 33.5412L36.2617 33.5632L36.352 33.5879L36.4395 33.6236L36.5352 33.6209L36.6254 33.6539L36.7184 33.6676L36.8113 33.6593L36.907 33.6539L37 33.6813L37.093 33.6786L37.1859 33.6593L37.2816 33.6511L37.3773 33.6648L37.4703 33.6429L37.5605 33.6126L37.648 33.5824H37.7438L37.8285 33.5385L37.9133 33.4945L37.998 33.4726L38.0828 33.4478L38.173 33.4423L38.2551 33.4094L38.3398 33.3902L38.4246 33.3737L38.5121 33.3572L38.5996 33.3517L38.6844 33.3242L38.7719 33.316L38.8594 33.305L38.9469 33.316L39.0371 33.3023H39.1246L39.2121 33.3325L39.2996 33.3352H39.3871L39.4746 33.3462L39.5621 33.3654L39.6523 33.3517L39.7371 33.3792L39.8191 33.4094L39.9012 33.4423L39.9887 33.4533L40.068 33.4918L40.1555 33.5083L40.243 33.5385L40.3277 33.5824L40.418 33.6099L40.5164 33.6072L40.6066 33.6291L40.6969 33.6484H40.7926L40.8855 33.6648L40.9785 33.6731L41.0742 33.6648L41.1672 33.6676L41.2602 33.6484H41.3531H41.4461L41.5418 33.6401L41.6348 33.6291L41.7223 33.5879L41.8125 33.5687L41.8727 33.5495L41.9027 33.5385L41.9957 33.522L42.0777 33.4918L42.1543 33.4478L42.2363 33.4149L42.3238 33.3929L42.4141 33.3984L42.4961 33.3599L42.5809 33.3407L42.6711 33.3352L42.7559 33.3187L42.8461 33.316L42.9336 33.327L43.0211 33.3242L43.1086 33.316L43.1961 33.3132L43.2836 33.3352H43.3711H43.4586L43.5488 33.3462L43.6336 33.3572L43.7238 33.3627L43.8086 33.3792L43.8961 33.3984L43.9809 33.4176L44.0656 33.4423L44.1504 33.4671L44.2297 33.5028L44.3145 33.5467L44.4102 33.555L44.4977 33.5879L44.5852 33.6209L44.6754 33.6484H44.7711L44.8641 33.6456L44.957 33.6813L45.0527 33.6676L45.1457 33.6593L45.1566 33.6621L45.1648 33.5797L45.1621 33.489Z" fill="#43C5E4"/>
<path d="M26.1637 21.1643L26.1664 21.2137L26.2566 21.2934L26.325 21.3703L26.3605 21.3977L26.3797 21.417L26.4371 21.4691L26.4781 21.5296L26.5629 21.601L26.6203 21.6477L26.6859 21.7301L26.7844 21.8372L26.8938 21.9334L27.0004 22.0322L27.0934 22.1476L27.2055 22.2383L27.3121 22.3399L27.3176 22.3454L27.3449 22.3756L27.416 22.4607L27.4926 22.5404L27.4953 22.5432L27.5063 22.5569L27.5992 22.6311L27.643 22.6997L27.7195 22.7547L27.8234 22.8563L27.9109 22.9717L27.9547 23.0101H27.9574L28.023 23.0678L28.0668 23.1062L28.1078 23.1694L28.1898 23.2408L28.2063 23.2546L28.2227 23.2766L28.3266 23.3754L28.343 23.3974L28.3676 23.4221L28.425 23.4853L28.5316 23.5842L28.6273 23.6913L28.6848 23.7325L28.7285 23.7902L28.8078 23.8671L28.8324 23.8836L28.8379 23.8918L28.9227 23.9578L28.9664 24.0154L29.0129 24.0676L29.0402 24.1033L29.1441 24.1885L29.1961 24.2517L29.2754 24.3094L29.3574 24.4L29.3684 24.3945L29.4395 24.4082L29.5078 24.3451V24.2352L29.4996 24.183L29.5078 24.0484L29.4914 23.9056L29.4941 23.8561L29.4996 23.7517L29.4969 23.716L29.4996 23.6968L29.4941 23.6611L29.4914 23.6034L29.4859 23.5183V23.4798L29.4914 23.3837L29.5023 23.3068L29.4996 23.2711L29.5023 23.2656L29.5078 23.1584L29.4887 23.0486L29.4969 22.9414V22.9305L29.5078 22.8618L29.4969 22.7492V22.7272L29.5105 22.6201L29.5051 22.5102L29.4969 22.4553L29.4996 22.4168L29.4941 22.3701L29.5078 22.2959L29.4914 22.2135L29.5023 22.1201L29.4941 22.0213L29.5051 21.9718L29.4832 21.8922L29.4723 21.8125L29.3738 21.6889L29.3383 21.6477L29.3055 21.5982L29.218 21.5296L29.1414 21.4472L29.1168 21.4279L29.0758 21.373L28.9801 21.2934L28.9063 21.2137L28.8379 21.1285L28.7531 21.0544L28.734 21.0352L28.6711 20.9637L28.5727 20.8813L28.5289 20.8127L28.4359 20.7522L28.3648 20.6616L28.291 20.5902L28.2855 20.5847L28.209 20.5023L28.1324 20.4418L28.0668 20.3512L27.9602 20.2551L27.9492 20.2468L27.9027 20.1864L27.8152 20.1177L27.7414 20.0353L27.6676 19.9529L27.5883 19.876L27.5281 19.8348L27.4461 19.7524L27.4078 19.7057L27.3586 19.637L27.2574 19.6233L27.1699 19.6563L27.0961 19.7359L27.0633 19.8128L26.9922 19.8842L26.9129 20.0051L26.8719 20.049L26.8418 20.0848L26.8336 20.0985L26.8199 20.115L26.8035 20.1369L26.7789 20.1727L26.7242 20.266L26.6641 20.3567L26.6504 20.3759L26.5602 20.4583L26.4754 20.5764L26.4043 20.7L26.3195 20.8154L26.2977 20.8511L26.273 20.8731L26.232 20.95L26.1527 21.0516L26.1555 21.0873L26.15 21.134L26.1637 21.1643Z" fill="#007933"/>
<path d="M27.7578 19.0849L27.766 19.0931L27.8344 19.1673L27.8727 19.2003L27.9656 19.3046L27.9902 19.3349L28.023 19.3596L28.0777 19.409L28.1406 19.4667L28.157 19.4887L28.2363 19.5683L28.3211 19.6452L28.4004 19.7276L28.4469 19.7688L28.5043 19.8348L28.5754 19.9062L28.6301 19.9749L28.7066 20.0408L28.7176 20.049L28.723 20.0545L28.7914 20.1342L28.8652 20.1946L28.9254 20.2688L28.9445 20.2907L28.95 20.2962L28.9637 20.3072L29.0293 20.3759L29.0758 20.4198L29.1086 20.4556L29.1906 20.5325L29.2754 20.6094L29.3273 20.6616L29.3547 20.6918L29.3574 20.689L29.4477 20.7192L29.5051 20.6313L29.4941 20.5599L29.5023 20.4775V20.4143V20.4006L29.4996 20.3841V20.321L29.4969 20.1671V20.1342L29.5051 20.0573L29.4941 19.9474V19.9391L29.5023 19.8293L29.4969 19.7606V19.7057V19.5491L29.5023 19.3953L29.4996 19.2662V19.2552L29.4969 19.2195L29.4914 19.1041L29.4941 19.0409L29.4996 18.9338V18.8377V18.7992V18.6839L29.4887 18.5987L29.4969 18.4724L29.5023 18.3158L29.4914 18.2251V18.1125L29.4996 17.9999V17.8845V17.879L29.5023 17.8543L29.4941 17.7032V17.6978L29.4969 17.6263L29.5023 17.5412L29.4969 17.4945L29.4941 17.3929L29.5078 17.239L29.4914 17.1154V17.0852L29.4504 17.0083L29.3711 17.0358H29.3684L29.3164 17.0907L29.2891 17.1182L29.2699 17.1429L29.2617 17.1484L29.1879 17.2418L29.1441 17.2885L29.0594 17.3654L29.0074 17.445L28.9883 17.467L28.9117 17.5357L28.8406 17.6236L28.8023 17.6675L28.7422 17.7252L28.6492 17.8516L28.5398 17.9614L28.4934 18.0274L28.4715 18.0521L28.3922 18.1345L28.3621 18.1757L28.3375 18.1977L28.2391 18.3185L28.1379 18.4366L28.0395 18.5602L27.9629 18.6591L27.8863 18.7443L27.8535 18.7992L27.848 18.8047L27.7496 18.9256V18.9366L27.7141 19.0052L27.7578 19.0849Z" fill="#A5CF4F"/>
<path d="M30.1859 20.1038L30.1832 20.1286L30.1805 20.2796L30.1832 20.3044L30.1805 20.351L30.1887 20.4527L30.1805 20.5845L30.2297 20.6614L30.3199 20.6422L30.4047 20.5598L30.4922 20.4801L30.5195 20.4499L30.5359 20.4362L30.5797 20.384L30.6508 20.3071L30.6535 20.3044L30.7492 20.2247L30.8477 20.1148L30.927 20.0297L30.9652 19.994L31.0637 19.9088L31.1676 19.8044L31.2277 19.7413L31.2387 19.7303L31.3234 19.6479L31.3563 19.6122L31.3781 19.5929L31.4629 19.4858L31.4738 19.4748L31.5832 19.3759L31.6926 19.2743L31.7254 19.2386L31.7363 19.2303L31.8129 19.1397L31.8977 19.0573L31.9387 18.9804L31.9004 18.9035L31.8375 18.8018L31.7582 18.7139L31.6816 18.6261L31.6133 18.5327L31.5395 18.4393L31.5285 18.4283L31.523 18.4173L31.4957 18.3926L31.4602 18.3541L31.3891 18.2607L31.3508 18.2278L31.3234 18.1838L31.2223 18.0657L31.1758 18.0108L31.1621 17.9943L31.1539 17.986L31.1238 17.9503L31.0199 17.8377L30.927 17.7169L30.8176 17.607L30.7164 17.4916L30.6289 17.379L30.6262 17.3763L30.6207 17.3708L30.525 17.2829L30.4676 17.2032L30.432 17.1647L30.4156 17.1428L30.391 17.1208V17.1181L30.3117 17.0302L30.2242 17.0137L30.1695 17.0851L30.1777 17.1895L30.175 17.2389L30.1777 17.3131V17.3186L30.1695 17.4367L30.1777 17.4944V17.5438V17.6235L30.1695 17.6702L30.1832 17.7773L30.1859 17.7965L30.1887 17.8652L30.1777 17.9998V18.0025L30.175 18.019V18.0465V18.1536L30.1777 18.2497V18.2552V18.3706V18.4557L30.1723 18.6096V18.7606L30.175 18.9117V18.9749L30.1723 19.071V19.1534L30.1695 19.2166L30.175 19.3704L30.1723 19.4858L30.1695 19.538L30.175 19.6534L30.1723 19.7687V19.7742L30.1695 19.8264L30.1777 19.8868L30.1695 20.0022L30.1859 20.1038Z" fill="#62BB46"/>
<path fill-rule="evenodd" clip-rule="evenodd" d="M29.5105 30.0144L29.5133 30.1628L29.5023 30.2177L29.4996 30.2479V30.4264L29.5023 30.4567L29.4395 30.5885L29.4258 30.594L29.4039 30.6242L29.3027 30.6462L29.2645 30.627L29.1688 30.6105L29.0813 30.5913L28.991 30.5967L28.9418 30.5885L28.8953 30.5913L28.8406 30.5665L28.7859 30.5555L28.7148 30.5336L28.6273 30.5363L28.4961 30.4979L28.4305 30.4731H28.3758L28.2773 30.4319L28.2719 30.4292L28.2336 30.421L28.1051 30.3715L28.034 30.3468L27.9766 30.3385L27.9273 30.3083L27.848 30.2781L27.7168 30.2369L27.5965 30.1765L27.5609 30.1545L27.4953 30.1298L27.4242 30.0886L27.3449 30.0611L27.2738 30.0117L27.2137 29.9925L27.1645 29.9512L27.1098 29.9238L26.9922 29.8551L26.943 29.8139L26.8527 29.7809L26.768 29.7178L26.6805 29.6573L26.6586 29.6381L26.6477 29.6299L26.6258 29.6079L26.6012 29.5887L26.5164 29.5255L26.4863 29.5008L26.4234 29.4706L26.3305 29.3717L26.273 29.3277L26.191 29.2618L26.1117 29.1931L26.0297 29.1245L25.9914 29.0503L25.9285 28.9981L25.9039 28.9789L25.8902 28.9679L25.8848 28.9624L25.8191 28.913L25.7316 28.8058L25.6605 28.6877L25.5566 28.5971L25.5512 28.5916L25.5375 28.5806L25.4746 28.4954L25.4254 28.3993L25.3598 28.3196L25.3434 28.2894L25.316 28.262L25.2504 28.1411L25.1684 28.0312L25.0973 27.9131L25.0426 27.7868L25.0207 27.7483L24.9715 27.6934L24.9633 27.6549L24.9004 27.5505L24.843 27.4269L24.802 27.3225L24.7938 27.3116L24.7883 27.2813L24.7527 27.177L24.7172 27.1165L24.7063 27.0863L24.6871 27.0451L24.6625 26.9105L24.6543 26.8886L24.6105 26.8199L24.5777 26.7182L24.5723 26.6825L24.5586 26.6551L24.5367 26.5177L24.5148 26.4161L24.5121 26.4106L24.4766 26.309L24.4684 26.265L24.4656 26.254L24.4574 26.2101V26.2046L24.4438 26.1167L24.4383 26.048L24.4219 25.9986L24.4 25.897L24.4109 25.8338L24.4027 25.7459L24.3809 25.6854L24.3945 25.5783L24.3918 25.5481L24.359 25.4355L24.3535 25.2981L24.3508 25.1608L24.3672 25.0894L24.3617 25.0592L24.3727 24.9575L24.3918 24.8587L24.3945 24.8477L24.3918 24.7817L24.4027 24.6554L24.4766 24.573L24.5121 24.5922L24.5832 24.5977L24.6488 24.6829L24.6543 24.6884L24.6734 24.7048L24.7172 24.7598L24.7992 24.8257L24.8758 24.8999L24.9469 24.974L25.018 25.0509L25.1 25.1169L25.1766 25.1883L25.2285 25.2652L25.2613 25.2954L25.2641 25.2981L25.3215 25.3394L25.398 25.4108L25.4063 25.4272L25.4691 25.4794L25.5211 25.5701L25.5293 25.5756L25.6059 25.6497L25.6852 25.7157L25.7617 25.7871L25.7809 25.8091L25.8574 25.875L25.9531 25.9766L25.9832 26.0151L26.0598 26.081L26.1336 26.1579L26.1801 26.2266L26.2375 26.2788L26.2512 26.2952L26.2703 26.3145L26.3359 26.3969L26.3441 26.4024L26.4344 26.4738L26.4645 26.5122L26.4945 26.5342L26.5766 26.6001L26.6477 26.677L26.716 26.7567L26.7898 26.8281L26.8527 26.9078L26.9266 26.9627L27.0113 27.0726V27.0753L27.0934 27.1165L27.1289 27.1715L27.1891 27.2319L27.2383 27.2676L27.3066 27.35L27.3859 27.4159L27.3941 27.4269L27.4242 27.4462L27.509 27.5588L27.591 27.6247L27.6129 27.6357L27.6211 27.6467L27.7086 27.7511L27.7578 27.7868L27.7906 27.8362L27.8043 27.8527L27.9109 27.9433L27.9957 28.0505L28.0531 28.0834L28.1297 28.1548L28.1543 28.1933L28.209 28.2372L28.291 28.3499L28.3402 28.4075L28.4141 28.4652L28.4469 28.5064L28.4934 28.5421L28.5699 28.6383L28.5863 28.6548L28.6957 28.7317L28.7285 28.7784L28.7887 28.8305L28.8242 28.88L28.8898 28.9322L28.9117 28.9542L28.9418 28.9734L28.9582 29.0036L28.9855 29.0338L29.0813 29.1354L29.0949 29.1519L29.1605 29.2041L29.2289 29.2838L29.2398 29.2948L29.2781 29.336L29.382 29.4294L29.4121 29.4953L29.4285 29.5255L29.4941 29.6134L29.4914 29.6876L29.5023 29.7205L29.4941 29.7645L29.5051 29.8249L29.4859 29.9073L29.5105 30.0144ZM30.1668 23.7737L30.1859 23.6556L30.1723 23.5732L30.1695 23.5045V23.4633L30.1723 23.4468L30.1805 23.3479L30.1777 23.2051L30.175 23.065V23.0238L30.1777 22.9139L30.1723 22.804L30.1832 22.6942V22.609L30.1695 22.4937L30.1777 22.4277V22.3646L30.1832 22.3096L30.1723 22.2107L30.1805 22.0679L30.1859 21.9251L30.1887 21.9031V21.8179L30.1941 21.8097L30.1996 21.763L30.268 21.6833L30.2953 21.6312L30.3582 21.5845L30.402 21.5378L30.4375 21.4966L30.4512 21.4801L30.4566 21.4746L30.4977 21.4306L30.5551 21.3839L30.5988 21.318L30.6699 21.2686L30.7383 21.1999L30.7629 21.1724L30.8285 21.0845L30.8996 21.0351L30.9023 21.0323L30.9844 20.9445L30.9898 20.9362L30.998 20.928L31.0938 20.8236L31.173 20.7604L31.2223 20.7055L31.2414 20.689L31.2961 20.6231L31.3535 20.5736L31.3754 20.5462L31.441 20.4967L31.482 20.4583L31.534 20.3951L31.5777 20.3429L31.5969 20.3182L31.6023 20.3099L31.6926 20.2468L31.7691 20.1671L31.8348 20.0792L31.8539 20.0627L31.8949 20.0133L32.0016 19.9199L32.048 19.8704L32.0672 19.843L32.1 19.8183V19.8155L32.1957 19.7084L32.2969 19.6095L32.327 19.6122L32.4008 19.571L32.4855 19.6315L32.5594 19.7111L32.6113 19.7935L32.6688 19.8595L32.6797 19.8787L32.6879 19.8897L32.7453 19.9858L32.8164 20.0682L32.8219 20.0737L32.841 20.0957L32.923 20.2165L32.9531 20.2605L33.0215 20.3264L33.0844 20.4171L33.1445 20.5105L33.2102 20.5984L33.2184 20.6148L33.2703 20.689L33.3605 20.8071L33.4398 20.928L33.4563 20.9582L33.459 20.9609L33.5082 21.0598L33.5246 21.1312L33.5109 21.2164L33.4262 21.2851L33.3496 21.3647L33.3305 21.3812L33.2977 21.4142L33.1992 21.5185L33.1254 21.59L33.1117 21.6037L33.0953 21.6174L32.9887 21.7191L32.9395 21.7657L32.8875 21.8317L32.8027 21.8948L32.7945 21.9003L32.7262 21.98L32.718 21.9882L32.6852 22.0294L32.6305 22.0844L32.584 22.1476L32.5512 22.1695L32.4883 22.2437L32.4008 22.3096L32.3516 22.381L32.3051 22.4195L32.2805 22.4497L32.182 22.5541L32.1574 22.5706L32.1137 22.6118L32.0371 22.6887L31.9496 22.7573L31.8895 22.8288L31.8676 22.8562L31.8594 22.8645L31.8074 22.9249L31.7336 22.9798L31.6898 23.032L31.6543 23.0842L31.6133 23.1172L31.5641 23.1721L31.4574 23.2683L31.3891 23.3314L31.3371 23.3891L31.266 23.4715L31.2059 23.5155L31.1539 23.5841L31.1074 23.6198L31.1047 23.6226L31.0336 23.6748L30.9379 23.7764L30.8449 23.8918L30.7383 23.9907L30.6371 24.095L30.5305 24.1829L30.4785 24.2461L30.3938 24.3148L30.391 24.3175L30.3227 24.3999L30.309 24.3972L30.2379 24.4054L30.1805 24.345L30.1723 24.3423L30.1887 24.2187L30.1723 24.1225L30.1805 24.0731V24.0593L30.1832 23.9467L30.1777 23.9028L30.1805 23.8698L30.1668 23.7737Z" fill="#A5CF4F"/>
<path d="M35.3129 25.4354L35.2992 25.3118L35.3074 25.2651L35.3047 25.2458L35.3156 25.1607L35.2937 25.0508L35.3102 24.9492L35.302 24.9217L35.3047 24.897L35.2828 24.7679L35.2555 24.647V24.6388L35.1898 24.5674L35.0996 24.5921L35.0914 24.6031L34.9902 24.68L34.8891 24.7761L34.848 24.8338L34.7879 24.875L34.7113 24.9492L34.6922 24.9849L34.5965 25.0755L34.5035 25.1799L34.4434 25.2376L34.4242 25.2541L34.3504 25.3283L34.3039 25.3722L34.2602 25.4354L34.1945 25.4711L34.1262 25.548L34.0551 25.6249L33.984 25.7046L33.9156 25.7815L33.8391 25.8529L33.8145 25.8776L33.7133 25.9628L33.6613 26.0259L33.6094 26.0699L33.5355 26.1441L33.459 26.2127L33.4508 26.221L33.4152 26.2539L33.3195 26.3528L33.2566 26.4462L33.2539 26.4517L33.1664 26.5149L33.1527 26.5314L33.1254 26.5506L33.027 26.6522L32.9641 26.7264L32.9504 26.7401L32.8793 26.8198L32.8082 26.8939L32.8027 26.9022L32.7371 26.9516L32.6332 27.0423L32.6004 27.0917L32.5758 27.1082L32.5266 27.1823L32.4445 27.2455L32.3598 27.3307V27.3334L32.2777 27.3993L32.2203 27.49L32.1547 27.5614L32.0563 27.6438L32.018 27.685L31.9934 27.7042L31.9168 27.7757L31.8402 27.8498L31.7992 27.913L31.7746 27.9487L31.6543 28.0229L31.616 28.0641L31.6133 28.0668L31.5422 28.141L31.523 28.1712L31.4738 28.2344L31.4547 28.2564L31.4027 28.2976L31.3262 28.369L31.2523 28.4431L31.173 28.5118L31.1102 28.5942L31.0992 28.6079L31.0828 28.6272L30.998 28.7096L30.9543 28.737L30.9133 28.792L30.8859 28.8194L30.834 28.8634L30.8039 28.8826L30.8012 28.8881L30.7766 28.9073L30.6781 29.0035L30.5906 29.1134L30.5551 29.1573L30.5195 29.1875L30.4402 29.2562L30.391 29.3166L30.2898 29.399L30.2598 29.4567L30.2188 29.4869L30.2051 29.5776L30.1941 29.6243L30.1695 29.6984L30.1777 29.8056L30.1805 29.833L30.1641 29.9511L30.1695 30.0775L30.1777 30.2038L30.1805 30.2286V30.2396L30.1914 30.3467L30.1723 30.4565L30.1996 30.5005L30.2078 30.5472L30.268 30.6296L30.3719 30.6406L30.4211 30.6241H30.5059L30.618 30.5884L30.6809 30.5802L30.7875 30.5856L30.8531 30.5637L30.9133 30.5609L30.9488 30.5499H30.9953L31.0418 30.5225L31.0445 30.5197L31.1758 30.484L31.2223 30.4703L31.2988 30.4675L31.3918 30.4346L31.4437 30.4263L31.4711 30.4153L31.5012 30.4071L31.5805 30.3659L31.6543 30.3494L31.698 30.3439L31.7063 30.3357L31.8266 30.2753L31.9578 30.2396L32.0809 30.1791L32.1 30.1654L32.1766 30.1269L32.275 30.0885L32.368 30.0445L32.4309 30.0033L32.4473 29.9923L32.5539 29.9099L32.6305 29.8687L32.7262 29.8248L32.7617 29.8001L32.7973 29.7808L32.8355 29.7506L32.9094 29.7204L32.9969 29.66L33.0762 29.594L33.1609 29.5309L33.243 29.4649L33.3277 29.4018L33.4043 29.3331L33.4754 29.2534H33.4781L33.5574 29.1985L33.6613 29.1079L33.7105 29.0557L33.7188 29.0529L33.7898 28.9733L33.85 28.8881L33.9348 28.8222L34.0004 28.7398L34.0141 28.7233L34.0332 28.7041L34.0797 28.6299L34.1289 28.5722L34.1945 28.4898L34.2547 28.4047L34.2957 28.3333L34.3559 28.2591L34.3887 28.2097L34.4406 28.1492L34.4625 28.0833L34.4816 28.0366L34.5445 27.9679L34.5855 27.8691L34.5965 27.8498L34.6402 27.7921L34.7113 27.674L34.7414 27.5779L34.7906 27.5037L34.8344 27.4076L34.8562 27.3417L34.8836 27.3005L34.9191 27.1933L34.9602 27.1164L34.9902 27.0175L35.0148 26.9544L35.0367 26.9187L35.0422 26.861L35.0559 26.817L35.0641 26.7456L35.1023 26.6522L35.1488 26.5259L35.1543 26.5176L35.1762 26.4132V26.3171L35.1844 26.2732L35.209 26.2045L35.2199 26.1578L35.2309 26.1166V25.993L35.2719 25.8941L35.2637 25.8117L35.2828 25.7073V25.7018L35.2883 25.6853L35.2855 25.6579V25.57L35.3129 25.4354Z" fill="#62BB46"/>
<path d="M30.1832 28.3581L30.2352 28.424L30.3008 28.4075L30.3254 28.4185L30.402 28.3499V28.3471L30.4266 28.3251L30.473 28.251L30.5578 28.2015L30.6289 28.1246L30.6973 28.0422L30.7437 27.9873L30.8066 27.9323L30.9078 27.8417L30.9105 27.8362L30.9297 27.8252L30.9625 27.7675L30.9898 27.7291L31.0008 27.7181L31.0773 27.6741L31.143 27.5917L31.2086 27.5066L31.3016 27.4516L31.3316 27.3967L31.3863 27.3555L31.452 27.2649L31.5148 27.2182L31.5422 27.1907L31.5805 27.1632L31.6625 27.0506L31.7773 26.9764L31.8293 26.9023L31.8977 26.8528L31.9578 26.7649L32.0289 26.6853L32.1082 26.6166L32.1957 26.5534L32.223 26.5012L32.2477 26.482L32.357 26.3969L32.4062 26.32H32.409L32.4363 26.276L32.532 26.1881L32.6332 26.0975L32.7289 25.9986L32.7316 25.9931L32.7891 25.9574L32.8574 25.875L32.8902 25.8283L32.9176 25.8036L32.9504 25.7679L33.0105 25.7321L33.0488 25.6635L33.1062 25.6085L33.1117 25.603L33.1527 25.5756L33.1637 25.5618L33.2129 25.5206L33.2648 25.452L33.3004 25.4272L33.3715 25.3476L33.4562 25.2844L33.4754 25.2569L33.5082 25.2377L33.5957 25.1361L33.6832 25.0317L33.716 25.0042L33.7488 24.9795L33.7543 24.9713L33.7871 24.9411L33.8719 24.8394L33.891 24.8257L33.9648 24.7515L34.025 24.6911L34.0715 24.6526L34.1371 24.5675L34.1945 24.5318L34.2109 24.5098L34.2738 24.4659L34.3504 24.356L34.3805 24.3313L34.4625 24.2736L34.5117 24.1912L34.5582 24.15L34.6402 24.0841L34.7168 24.0126L34.7523 23.9852L34.8098 23.9055L34.8617 23.8588L34.9246 23.7709L34.9492 23.6913L34.9684 23.6501L34.9246 23.521L34.8645 23.4001L34.8535 23.3836L34.8453 23.3534L34.7961 23.26L34.7551 23.1611L34.7031 23.0815L34.6867 23.0348L34.6375 22.9606L34.5965 22.881L34.5719 22.7738L34.5254 22.6777L34.4543 22.5953L34.4133 22.4964L34.3641 22.4003L34.3148 22.3069L34.2602 22.2135L34.2492 22.1997V22.197L34.2082 22.1393L34.2 22.1283L34.1508 22.0322L34.0934 21.9415L34.0469 21.8894L34.0305 21.8536L33.9457 21.7822L33.8363 21.8234L33.7816 21.8729L33.757 21.8921L33.7543 21.9003L33.7352 21.9168L33.6859 21.9992L33.6121 22.0487L33.5766 22.0899L33.541 22.1091L33.4508 22.2107L33.3578 22.3124L33.3414 22.3316L33.3195 22.3508L33.2457 22.4222L33.1719 22.4991L33.1637 22.5129L33.0652 22.5953L32.9887 22.7024L32.9531 22.7244L32.9148 22.7821L32.893 22.8095L32.8684 22.8288L32.8 22.8672L32.7398 22.9359L32.6824 22.9853L32.5922 23.0842L32.5676 23.1172L32.5047 23.1666L32.4582 23.249L32.4445 23.2655L32.3543 23.3095L32.2777 23.3836L32.2258 23.4715L32.2176 23.477L32.2148 23.4798L32.1355 23.5374L32.059 23.6089L32.0344 23.6446L32.0152 23.661L31.9742 23.716L31.9113 23.7599L31.8375 23.8313L31.8129 23.8726L31.7227 23.944L31.6926 23.9879L31.6187 24.0566L31.5395 24.1253L31.5367 24.1308L31.5285 24.1362L31.4383 24.2379L31.4273 24.2516L31.3945 24.2791L31.3836 24.2928L31.3453 24.3368L31.2605 24.4439L31.1539 24.529L31.1129 24.5785L31.1102 24.584L31.0801 24.6279L31.0719 24.6389L31.0309 24.6801L30.9543 24.7213L30.8777 24.7927L30.8066 24.8696L30.7875 24.9026L30.7738 24.9163L30.6672 25.0015L30.577 25.1031L30.566 25.1224L30.5059 25.1608L30.4484 25.2515L30.4402 25.2569L30.3855 25.2927L30.3062 25.4053L30.2898 25.43L30.2324 25.4822L30.2215 25.5289L30.2187 25.5344L30.2133 25.5756L30.2105 25.5838L30.175 25.6854L30.1832 25.7404L30.1668 25.8255L30.1805 25.9684L30.1832 26.0645L30.1723 26.1139L30.1805 26.1606L30.1723 26.2485L30.175 26.2815L30.1641 26.3282L30.1613 26.4353L30.1723 26.4903L30.1641 26.5315L30.1832 26.6166V26.6496L30.1887 26.6963L30.1613 26.8116L30.1805 26.9517V26.96V26.9682V26.9874L30.1832 27.0918V27.0973L30.1695 27.1825L30.1723 27.2896L30.175 27.339L30.1723 27.3747L30.1805 27.4516L30.1859 27.5038L30.1586 27.611L30.1641 27.7181L30.1723 27.7401L30.1613 27.795L30.1641 27.9351L30.1695 28.0752L30.1777 28.1933L30.1613 28.251L30.1832 28.3581Z" fill="#007933"/>
<path d="M29.5078 27.9736L29.5023 27.9022L29.5105 27.861L29.4969 27.7841V27.7236L29.5105 27.6522L29.4887 27.5671L29.4941 27.4352V27.3006L29.4887 27.2017L29.5051 27.1358L29.4887 27.0314L29.4914 26.971L29.5078 26.8969L29.4941 26.8199L29.5023 26.7211V26.6441L29.5051 26.6277V26.4931L29.4941 26.3585L29.4969 26.2239L29.4887 26.1662V26.0975L29.5051 25.9959V25.8915L29.4969 25.8201L29.4941 25.6855L29.4914 25.6718V25.5784L29.4313 25.4877L29.3848 25.3916L29.3164 25.3422L29.2809 25.301L29.2289 25.2625L29.2207 25.2543L29.1633 25.1636L29.0758 25.1032L29.0074 25.0208L28.9281 24.9549L28.898 24.9109L28.8324 24.8505L28.7941 24.79L28.7559 24.7708L28.7094 24.7131L28.6602 24.6747L28.6438 24.6417L28.5645 24.573L28.4906 24.5071L28.4141 24.4302L28.332 24.3506L28.2801 24.2956L28.2281 24.2324L28.1844 24.194L28.127 24.1226L28.0477 24.0539L27.9656 23.988L27.9 23.9056L27.8617 23.8671L27.8453 23.8451L27.7523 23.749L27.6785 23.6886L27.6758 23.6831L27.6102 23.6034L27.5965 23.5952L27.5637 23.5512L27.4652 23.4578L27.3887 23.3809H27.3859L27.3832 23.3782L27.3668 23.3645L27.2711 23.2683L27.241 23.2491L27.2328 23.2381L27.1562 23.1667L27.0961 23.0788L27.0523 23.0568L26.9922 22.9717L26.8938 22.9002L26.8637 22.87L26.8555 22.8618L26.7898 22.7904L26.6969 22.6915L26.5875 22.6091L26.5848 22.6063L26.5547 22.5706L26.5055 22.4882L26.418 22.4278L26.3551 22.3426L26.2977 22.3042L26.2293 22.2218L26.2102 22.1943L26.1309 22.1229L26.0598 22.046L25.9832 21.9746L25.9039 21.9059L25.8738 21.8784L25.8355 21.8262L25.7699 21.8098L25.7316 21.7905L25.6742 21.829L25.6332 21.8482L25.5566 21.9608L25.5211 22.0844L25.4965 22.1201L25.4254 22.2025L25.3543 22.3179L25.2914 22.4388L25.2887 22.4525L25.2504 22.4965L25.2066 22.5981L25.1902 22.6393L25.1574 22.675L25.1164 22.8068L25.1027 22.8316L25.0563 22.8838L24.9988 22.9744L24.9879 23.0211L24.977 23.0431L24.9633 23.1008L24.9113 23.1694L24.8785 23.2573L24.8539 23.2875L24.8211 23.4057L24.7801 23.4661L24.7391 23.565L24.6953 23.6639L24.7336 23.7984L24.7965 23.8863L24.8484 23.9166L24.9168 24.0045L24.9961 24.0649L25.0234 24.1116L25.1137 24.172L25.1875 24.2462L25.193 24.2489L25.2203 24.2846L25.3105 24.3863L25.4008 24.4906L25.5102 24.573L25.5949 24.6829L25.6961 24.7736L25.7453 24.8065L25.7781 24.8532L25.8547 24.9274L25.9176 25.0125L25.9641 25.0345L25.9859 25.0647L26.0953 25.1444L26.1527 25.2268L26.1937 25.257L26.2703 25.3367L26.2977 25.3806L26.3742 25.4301L26.3824 25.4383L26.3961 25.452L26.4453 25.5317L26.5246 25.6031L26.593 25.6828L26.6668 25.7597L26.757 25.8146L26.7898 25.8503L26.8445 25.9437L26.9566 26.0206L26.9922 26.0536L27.0469 26.125L27.1234 26.1964L27.1891 26.2788V26.2816L27.2273 26.3283L27.2875 26.364L27.334 26.4326L27.4105 26.4821L27.4324 26.5096L27.4461 26.5233L27.4816 26.5837L27.5227 26.6084V26.6112L27.5746 26.6469L27.632 26.732L27.6895 26.7595L27.7195 26.8007L27.8152 26.8996L27.8207 26.9051L27.8562 26.9545L27.9465 27.0122L27.952 27.0205L28.0039 27.0946L28.0477 27.1303L28.0805 27.177L28.1516 27.232L28.1953 27.2896L28.2883 27.3858L28.3949 27.4709L28.4359 27.5121L28.4578 27.5451L28.5398 27.6138L28.6082 27.6934L28.6793 27.7703L28.6848 27.7731L28.775 27.861L28.7941 27.883L28.8215 27.9297L28.9008 27.9846L28.909 27.9901L28.9883 28.0533L28.9938 28.0615L29.043 28.1521L29.1086 28.1906L29.1496 28.2208L29.2043 28.2922L29.207 28.295L29.2453 28.3554L29.3273 28.4131L29.3492 28.4461L29.4504 28.4735L29.5133 28.3801L29.5105 28.3691L29.5023 28.2455L29.5078 28.1741V28.1714L29.5133 28.1082L29.5078 27.9736Z" fill="#62BB46"/>
<path d="M20.7605 32.4837L20.7879 32.459L20.8207 32.4398L20.8453 32.4123L20.8617 32.3958L20.952 32.2942L20.9848 32.2557L21.0312 32.2035L21.0613 32.1706L21.1133 32.1211L21.198 32.0744L21.2309 32.025L21.2473 32.0113L21.3457 31.9179L21.3785 31.8794L21.4086 31.8437L21.4332 31.808L21.5398 31.7283L21.6355 31.6294L21.7258 31.5361L21.7859 31.4784L21.7941 31.4619L21.8215 31.4344L21.8707 31.3685L21.9363 31.3328L21.9937 31.2476L22.0074 31.2367L22.0102 31.2339L22.084 31.1845L22.0895 31.1735L22.1168 31.1515L22.1988 31.0416L22.2973 30.951L22.3984 30.8576L22.4477 30.7889L22.5242 30.7395L22.5926 30.6571L22.6664 30.5857L22.7047 30.5225L22.773 30.4648L22.8742 30.3769L22.8934 30.3494L22.959 30.2863L23.0328 30.2121L23.0984 30.1297L23.1832 30.0665L23.2187 30.0198L23.257 29.9923L23.2844 29.888L23.2352 29.7891L23.123 29.7122L23.0109 29.6792L22.9508 29.638L22.9453 29.6353L22.8852 29.5803L22.7895 29.5226L22.7785 29.5089L22.7594 29.5034L22.6473 29.4457L22.5816 29.4238H22.5789L22.4969 29.3853L22.4121 29.3111L22.3492 29.2919L22.3 29.2644L22.2016 29.2177L22.1852 29.2095L22.166 29.1958L22.0566 29.1353L22.0184 29.1079L21.9227 29.0612L21.8461 29.0392L21.8051 29.0062L21.6738 28.9678L21.6301 28.9541L21.6191 28.9486L21.5289 28.8854L21.4277 28.8469L21.2855 28.8771L21.2582 28.9293L21.198 28.9843L21.0914 29.0694L21.0586 29.1106L20.9875 29.1793L20.9137 29.2562L20.8426 29.3359L20.7605 29.4018L20.7332 29.4457L20.7113 29.465L20.6074 29.5556L20.5254 29.6655L20.416 29.7479L20.3941 29.7726L20.3887 29.7781L20.3832 29.7836L20.3258 29.8523L20.2465 29.9676L20.1863 30.0226L20.1645 30.0418L20.148 30.061L20.0359 30.1407L19.9594 30.2478L19.8691 30.3055L19.7953 30.3824L19.7598 30.4318L19.7516 30.4373L19.6641 30.5445L19.5629 30.6324L19.4617 30.7285L19.3742 30.8109L19.3441 30.8246L19.2703 30.9015L19.1992 30.9812L19.1965 30.9839L19.1637 31.0059L19.0844 31.1213L19.068 31.1378L19.0625 31.1405L18.9723 31.1982L18.9367 31.2641L18.8848 31.3081L18.7781 31.3905L18.7234 31.4811L18.6852 31.5086L18.6113 31.5828L18.6031 31.5937L18.5977 31.5965L18.4965 31.6899L18.4582 31.7421L18.3789 31.7997L18.3379 31.8629L18.3078 31.8876L18.2094 31.981L18.1492 32.0607L18.0836 32.0992L18.0562 32.1431L18.0152 32.1706L17.9578 32.2447L17.9414 32.2585L17.8758 32.3216L17.8211 32.3628L17.791 32.3931L17.7855 32.3986L17.7828 32.4013L17.7254 32.4562L17.6406 32.5661L17.5859 32.6183L17.5695 32.6293L17.4957 32.7062L17.4437 32.7776L17.3453 32.849L17.277 32.9204L17.2687 32.9259L17.2414 32.9562L17.1539 33.0386L17.1512 33.0413L17.1156 33.0715L17.0391 33.1429L17.0008 33.2061L16.9625 33.2336L16.8914 33.327L16.8121 33.3654L16.7656 33.4176H16.7602L16.7547 33.4259L16.741 33.4423L16.6809 33.5302L16.6781 33.6126L16.7355 33.6813V33.6868L16.7629 33.6841L16.8395 33.6868L16.8777 33.6758L17.0062 33.6896L17.1074 33.6841L17.1484 33.6868L17.2523 33.6841L17.3562 33.6868H17.4602L17.5641 33.6731L17.6488 33.6676L17.6762 33.6703L17.8102 33.6676L17.9277 33.6621H17.977L18.0781 33.6538H18.0891L18.2121 33.6841L18.2805 33.6703H18.2859L18.3871 33.6896L18.4363 33.6731L18.4801 33.6786H18.5676L18.5949 33.6868L18.6277 33.6786L18.748 33.6703H18.8273L18.9039 33.6841L19.0051 33.6896L19.1008 33.6593L19.1281 33.6621L19.2129 33.6813H19.3141L19.418 33.6868L19.5191 33.6456L19.5301 33.6429L19.5711 33.6319L19.5766 33.6264L19.6176 33.6126L19.7051 33.5495L19.7297 33.5138L19.8008 33.4533L19.8172 33.4314L19.8582 33.4039L19.9184 33.3187L19.9512 33.283L19.984 33.2528L20.0195 33.2144L20.0687 33.1704L20.118 33.1182L20.1891 33.0688L20.2793 32.9671L20.3395 32.9177L20.3859 32.893L20.4461 32.8078L20.5062 32.7419L20.5719 32.6815L20.6676 32.5853L20.7605 32.4837Z" fill="#E82C2A"/>
<path d="M24.5012 32.4617L24.5723 32.3766L24.657 32.3052L24.709 32.2475L24.7281 32.2337L24.7801 32.1706L24.8074 32.1431L24.8238 32.1239L24.9195 32.0195L25.018 31.9179L25.1219 31.819L25.2203 31.7146L25.2996 31.6349L25.3516 31.5965L25.4336 31.5196L25.4746 31.4207L25.4172 31.3355V31.3328L25.3215 31.2751L25.2531 31.1927L25.1957 31.157L25.193 31.1542L25.0727 31.0746L24.9633 30.9812L24.9195 30.9537L24.9059 30.9372L24.8156 30.8741L24.7227 30.8246L24.7035 30.8109L24.6187 30.7203L24.5641 30.679H24.5613L24.5531 30.6736L24.5012 30.6351L24.3781 30.5637L24.2633 30.4785L24.2496 30.4675L24.2086 30.4291L24.1402 30.3989L24.0281 30.311H24.0227L23.9461 30.2917L23.8887 30.3247H23.8668L23.8312 30.3659L23.7875 30.4016L23.7492 30.4566L23.6644 30.539L23.6262 30.5829L23.5523 30.6351L23.4867 30.7285L23.432 30.7834L23.3555 30.8466L23.2461 30.9455L23.1832 31.0197L23.1668 31.0306L23.093 31.113L23.0273 31.1845L22.9426 31.2531L22.9316 31.2614L22.918 31.2833L22.8469 31.3685L22.7758 31.4454L22.7156 31.5058L22.6445 31.5745L22.5324 31.6706L22.475 31.7393L22.3957 31.8162L22.3164 31.8931L22.2344 31.9646L22.2043 32.0113L22.1168 32.0772L22.0375 32.1733L22.0074 32.2063L21.9309 32.2832L21.898 32.3271L21.8133 32.3903L21.7203 32.4919L21.693 32.5139L21.6875 32.5222L21.6055 32.5936L21.507 32.7007L21.4004 32.7996L21.3348 32.8902L21.3129 32.9067L21.2746 32.9507L21.2008 33.0111L21.1488 33.077L21.075 33.1347L21.023 33.1896L20.993 33.2116L20.9492 33.2665L20.9246 33.294L20.8836 33.3462L20.8398 33.3956L20.7687 33.4478L20.6922 33.5275L20.6648 33.6236L20.7523 33.6786L20.807 33.6676L20.9 33.6731L20.9465 33.6758L20.9684 33.6813L21.075 33.6841L21.1816 33.6758L21.2391 33.6676L21.343 33.6731L21.4769 33.6676L21.5043 33.6703H21.6109L21.7203 33.6758L21.7477 33.6731L21.7859 33.6758L21.9336 33.6703L21.9637 33.6676L22.0402 33.6731L22.1469 33.6813L22.2562 33.6841L22.3629 33.6731L22.4695 33.6758L22.5762 33.6648L22.598 33.6676L22.6719 33.6758L22.702 33.6703L22.7922 33.6786L22.8988 33.6703L22.9262 33.6731L22.9645 33.6758H22.9863H23.0055L23.1121 33.6813L23.1723 33.6593L23.2707 33.6484L23.3637 33.5714L23.3992 33.5522L23.4785 33.4726L23.4812 33.4698L23.5031 33.4506L23.5633 33.3737L23.6344 33.316L23.6562 33.2913L23.7082 33.2473L23.7793 33.1622L23.7875 33.1539L23.8723 33.0825L23.957 33.0111L23.9926 32.9507L24.009 32.9369L24.1156 32.8408L24.2086 32.7309L24.2687 32.6622L24.3207 32.6101L24.348 32.5881L24.4219 32.5386L24.5012 32.4617Z" fill="#C3271B"/>
<path d="M28.0285 33.5385L27.9711 33.4891L27.9109 33.4369L27.8152 33.3572L27.777 33.3133L27.7004 33.2309L27.6074 33.165L27.5363 33.11L27.4461 33.0249L27.3395 32.9123L27.2137 32.8189L27.1043 32.709L27.0605 32.6788L27.0195 32.6348L26.9512 32.5909L26.8691 32.5057L26.7461 32.4096L26.6941 32.3629L26.675 32.3409L26.6395 32.3135L26.6313 32.3052L26.5191 32.2146L26.5 32.1981L26.4836 32.1871L26.3852 32.1129L26.2648 32.014L26.1883 31.9509L26.1473 31.9124L26.0652 31.8767L25.9832 31.9207L25.9066 32.0031L25.8191 32.08L25.7918 32.1074L25.7672 32.1322L25.6961 32.2091L25.6633 32.242L25.6059 32.3052L25.5813 32.3327L25.4992 32.4014L25.4199 32.481L25.3434 32.5634L25.2941 32.6266L25.2422 32.6733L25.2285 32.687L25.182 32.7227L25.1055 32.8051L25.0645 32.8491L25.0262 32.8875L25.018 32.8985L24.9414 32.9617L24.8621 33.0414L24.8184 33.0881L24.8074 33.0963L24.7008 33.2007L24.6543 33.2529L24.6215 33.2831L24.5395 33.36L24.4711 33.4506L24.4164 33.5028L24.3891 33.5275V33.5303L24.3781 33.6154L24.4465 33.6594V33.6621L24.6023 33.6786L24.7555 33.6731L24.9086 33.6704H24.9551L25.018 33.6759L25.1328 33.6704L25.193 33.6676H25.2148L25.2832 33.6704L25.3598 33.6759H25.4746L25.5867 33.6786L25.6113 33.6759L25.677 33.6786L25.8301 33.6731L25.9313 33.6704L26.0133 33.6676L26.0762 33.6704L26.1582 33.6786L26.2238 33.6731H26.2895L26.3086 33.6704L26.3852 33.6759L26.5 33.6649L26.6121 33.6814L26.6586 33.6731L26.7516 33.6786L26.8637 33.6649L26.9539 33.6759L27.066 33.6731L27.1809 33.6786L27.2055 33.6759L27.2109 33.6786L27.3641 33.6704L27.5172 33.6731L27.5883 33.6704L27.6348 33.6759L27.7496 33.6786H27.7688L27.8234 33.6814L27.9301 33.6676L27.9766 33.6704L28.0477 33.6237L28.0285 33.5385Z" fill="#E82C2A"/>
<path d="M16.7191 32.4974L16.8039 32.4397L16.8449 32.4013L16.8805 32.3765L16.9242 32.3216L16.9516 32.2886L16.9789 32.2529L17.0363 32.1898L17.1047 32.1458L17.1238 32.1156L17.1703 32.0799L17.2496 31.9865L17.3289 31.9233L17.348 31.8876L17.3617 31.8766L17.4656 31.7832L17.5285 31.7036L17.5422 31.6953L17.5695 31.6596L17.6652 31.5882L17.7145 31.5086L17.7609 31.4701L17.8047 31.4152L17.8484 31.3795L17.9031 31.3273L17.9113 31.3218L17.9195 31.3108L17.9496 31.2833L17.9797 31.2449L18.0617 31.1762L18.0973 31.1295L18.1465 31.091L18.2039 31.0114L18.2777 30.9482L18.3488 30.874L18.3898 30.8219L18.4336 30.7861L18.4691 30.7422L18.491 30.723L18.5512 30.657L18.6332 30.5939L18.6605 30.5582L18.7234 30.5087L18.8027 30.4428L18.8766 30.3659L18.9395 30.2807L19.0188 30.2121L19.0516 30.1709L19.1281 30.1104L19.1609 30.0775L19.1719 30.0692L19.1773 30.0637L19.2293 30.0143L19.3195 29.9099L19.4152 29.8083L19.4234 29.8L19.459 29.7643L19.5164 29.6874L19.6203 29.6242L19.7133 29.5171L19.8008 29.421L19.8336 29.399L19.9102 29.3276L19.9621 29.2562L20.0031 29.2205L20.0797 29.1353L20.1316 29.1078L20.2027 29.0309L20.2766 28.9568L20.3422 28.8744L20.3586 28.8524L20.3941 28.8249L20.4434 28.759L20.4844 28.7205L20.5227 28.6299L20.5254 28.6271L20.5172 28.6189L20.4434 28.5502L20.3422 28.531L20.2711 28.542L20.2164 28.5447L20.1398 28.5283L20.0414 28.5063L20.0059 28.5145L19.9402 28.498L19.8035 28.5008L19.6668 28.509L19.6477 28.5145L19.6258 28.5118L19.5219 28.5338H19.418L19.3578 28.553L19.2594 28.5612L19.2375 28.564H19.2102L19.1664 28.5777L19.1254 28.5832L18.9887 28.5942L18.852 28.6162L18.8383 28.6217L18.7945 28.6244L18.7207 28.6601L18.5895 28.6848L18.4527 28.7096L18.3789 28.7453L18.2859 28.7562L18.2148 28.8084L18.2012 28.8112L18.1191 28.8277L18.0918 28.8304L18.0836 28.8332L18.0645 28.8387L17.966 28.8881L17.8977 28.9128L17.8731 28.9238L17.8129 28.9458L17.6844 28.9952L17.6516 29.0117L17.6051 29.0254L17.5805 29.0447L17.5613 29.0529L17.4438 29.1243L17.4246 29.1353L17.3234 29.171L17.2305 29.2205L17.143 29.2781L17.1266 29.2974L17.0828 29.3221L16.9734 29.4045L16.8531 29.4704L16.8258 29.4979L16.7984 29.5144L16.7191 29.5858L16.6316 29.6435L16.6016 29.6709L16.5195 29.7094L16.4484 29.7945L16.3856 29.8385L16.3582 29.8605L16.3117 29.8879L16.2078 29.9786L16.1203 30.0857L16.0328 30.1901L15.9945 30.2258L15.9289 30.2725L15.8633 30.3549L15.7895 30.4263L15.7648 30.473L15.7512 30.4895L15.65 30.5829L15.6172 30.6515L15.5953 30.6763L15.5516 30.7477L15.4914 30.8081L15.4504 30.8933L15.4148 30.9345L15.352 31.0196L15.3 31.1103L15.2344 31.1927L15.1879 31.2888L15.1797 31.3108L15.1387 31.3959L15.0621 31.5113L15.032 31.6019L14.9938 31.6596L14.9473 31.7558L14.9418 31.775L14.8871 31.8821L14.8734 31.9261L14.8598 31.948L14.8543 31.992L14.8488 32.0167L14.8051 32.1238L14.7914 32.1458L14.7887 32.1733L14.7559 32.2722L14.7039 32.4013L14.6766 32.5359L14.6273 32.665L14.5918 32.7968V32.816L14.5781 32.8517L14.5563 32.9534L14.5645 33.0028L14.5344 33.066L14.5426 33.1676L14.5262 33.2693V33.3022L14.5152 33.3407L14.4934 33.478L14.5016 33.5L14.5207 33.5687L14.5262 33.5742L14.5398 33.6126L14.5672 33.6291L14.5781 33.6401L14.652 33.6675L14.6684 33.6758L14.8106 33.6648L14.8406 33.6675L14.9609 33.6868L15.1086 33.684L15.1523 33.6758H15.1934L15.2973 33.673L15.3356 33.6648L15.4012 33.6758L15.4777 33.6483H15.5051L15.6008 33.6099L15.6965 33.5604L15.7266 33.5165L15.7867 33.4506L15.8031 33.4341L15.8387 33.4011L15.9125 33.3269L15.9973 33.2638L16.0574 33.1841L16.0766 33.1676L16.1449 33.1127L16.1723 33.0742L16.1859 33.0605L16.2734 32.9506L16.3856 32.8655L16.4484 32.7748L16.5004 32.7281L16.5141 32.7117L16.577 32.6622L16.6098 32.6183L16.6535 32.5826C16.6535 32.5826 16.7164 32.5002 16.7191 32.4974Z" fill="#EA5329"/>
</g>
<defs>
<clipPath id="clip0_150_984">
<rect width="42" height="26" fill="white" transform="translate(9 17)"/>
</clipPath>
</defs>
</svg>
