<svg width="60" height="60" viewBox="0 0 60 60" fill="none" xmlns="http://www.w3.org/2000/svg">
<rect width="60" height="60" fill="#0855A4"/>
<g clip-path="url(#clip0_1403_9051)">
<path d="M31.2668 32.8265V20.5176H35.3635L40.9825 28.7297L46.6014 20.5176H50.6879V32.8419H46.6014V26.6798L42.5149 32.8419H39.45L35.3635 26.6798V32.8419H31.2771L31.2668 32.8265ZM30.2554 20.5176H9.823V24.6257H30.2554V20.5176ZM50.6879 34.8919H29.2338V39H50.6879V34.8919ZM11.1378 26.6829H27.5573C28.1049 26.6829 28.2244 27.0454 28.2163 27.2272V29.9848C28.2163 30.5722 27.9353 30.7571 27.7943 30.7838H25.1473C24.7949 30.3237 24.4955 29.9848 24.1257 29.7588H13.4222C13.3016 29.7611 13.1849 29.8018 13.0889 29.8751C12.9929 29.9484 12.9225 30.0504 12.8879 30.1665V35.4424C12.8879 35.769 13.1586 35.8984 13.2996 35.9169L24.4199 35.9189C25.0319 35.8974 25.1555 35.1733 25.1473 34.8919H28.2122V37.7008C28.2122 38.7011 27.1752 38.9517 26.6573 38.9517C21.8352 38.9877 11.9439 39.039 10.9529 38.9517C9.96194 38.8644 9.80257 38.0818 9.8465 37.7008C9.82913 35.0614 9.80461 29.4579 9.8465 28.1525C9.88838 26.8462 10.7251 26.6274 11.1378 26.6829Z" fill="#FEFEFD"/>
</g>
<defs>
<clipPath id="clip0_1403_9051">
<rect width="42" height="19" fill="white" transform="translate(9 20)"/>
</clipPath>
</defs>
</svg>
