<svg width="60" height="60" viewBox="0 0 60 60" fill="none" xmlns="http://www.w3.org/2000/svg">
<rect width="60" height="60" fill="#003F2D"/>
<g clip-path="url(#clip0_1403_8897)">
<path d="M26.5817 33.1125H23.2811V31.471H26.6603C27.0846 31.5117 27.4029 31.8651 27.4029 32.2836C27.4068 32.7387 27.0453 33.1125 26.5817 33.1125ZM23.285 27.7454H26.786C27.1672 27.8063 27.4697 28.1395 27.4697 28.5376C27.4697 28.9358 27.1672 29.3055 26.7664 29.3502H23.3243L23.285 27.7454ZM28.1927 30.3456C29.4619 29.9312 29.6819 28.8911 29.6819 28.0379C29.6819 26.7256 28.7546 25.6042 26.0002 25.6042H20.8489V35.3795H25.9805C28.7585 35.3795 29.7841 33.9657 29.7841 32.5721C29.7801 30.886 28.1927 30.3456 28.1927 30.3456L28.1927 30.3456Z" fill="white"/>
<path d="M41.3086 25.6245H50.0002V27.7453H43.7251V29.3258H49.3793V31.4669H43.7251V33.1733H50.0002V35.4201H41.3086V25.6245Z" fill="white"/>
<path d="M37.5679 28.6595C37.5286 28.9723 37.2064 29.3258 36.782 29.3258H33.3832V27.7657H36.782C37.1828 27.7657 37.505 28.0582 37.5679 28.4523V28.6595ZM36.2398 25.6245H30.9902V35.4242H33.4028V31.471H36.059C36.8252 31.4913 37.4068 32.0967 37.4068 32.8646V35.4242H39.78V32.2633C39.78 30.8088 38.3498 30.37 38.3498 30.37C38.3498 30.37 39.8193 29.9312 39.8193 28.2085C39.7997 26.0592 37.9686 25.6245 36.2398 25.6245Z" fill="white"/>
<path d="M19.2811 33.0474C19.2418 33.0474 15.9805 33.1083 14.8567 33.0068C13.0453 32.8402 12.4009 31.5076 12.4009 30.4268C12.4009 29.0739 13.3282 28.0744 14.7742 27.8875C15.4579 27.8063 19.2221 27.8469 19.2614 27.8469H19.34V25.6245H14.9942C14.5109 25.6448 13.7251 25.7058 12.9235 26.0186C12.1809 26.3721 11.4932 26.9124 10.9903 27.5788C10.3655 28.432 10.0237 29.4314 10.0237 30.4918C10.0237 30.825 10.0433 31.1582 10.1023 31.471C10.4048 32.9499 11.3911 34.1769 12.7978 34.8391C13.2811 35.0463 14.0041 35.2982 15.4933 35.3795L16.2988 35.3998H19.3557V33.0474L19.2811 33.0474Z" fill="white"/>
</g>
<defs>
<clipPath id="clip0_1403_8897">
<rect width="40" height="11" fill="white" transform="translate(10 25)"/>
</clipPath>
</defs>
</svg>
