<svg width="60" height="60" viewBox="0 0 60 60" fill="none" xmlns="http://www.w3.org/2000/svg">
<rect width="60" height="60" fill="black"/>
<g clip-path="url(#clip0_168_357)">
<path d="M30.3895 30.5796L37.0661 24.0978C37.7381 23.445 37.4439 22.319 36.5351 22.0698L27.5141 19.5991C26.6052 19.3506 25.7653 20.1664 26.0015 21.0678L28.3459 30.0202C28.5821 30.9208 29.7176 31.2324 30.3895 30.5796Z" fill="#015846"/>
<path d="M40.6357 25.9909L27.9888 35.4614C27.6308 35.7302 27.4504 36.1707 27.5186 36.6091L28.9673 45.9173C29.1419 47.0418 30.6479 47.3265 31.2325 46.3477L42.4306 27.5682C43.1113 26.4263 41.7044 25.1903 40.6357 25.9909Z" fill="#3FA9F5"/>
<path d="M22.8859 16.6128C22.8323 16.0984 22.4553 15.6753 21.9455 15.5579L11.5601 13.1676C10.4892 12.9206 9.65732 14.0849 10.2522 14.9985L22.3071 33.5237C23.0032 34.5938 24.6852 34.0127 24.5547 32.7462L22.8859 16.6128Z" fill="#54CE32"/>
<path d="M48.3309 13.0558L27.6056 13.0811C26.2728 13.0833 25.9016 14.8903 27.1295 15.4047L41.8743 21.5779C42.3438 21.7742 42.8873 21.6633 43.2387 21.2982L49.2184 15.0997C49.9622 14.3288 49.4077 13.055 48.3309 13.0558Z" fill="#00C7B1"/>
</g>
<defs>
<clipPath id="clip0_168_357">
<rect width="40" height="34" fill="white" transform="translate(10 13)"/>
</clipPath>
</defs>
</svg>
