<svg width="60" height="60" viewBox="0 0 60 60" fill="none" xmlns="http://www.w3.org/2000/svg">
<rect width="60" height="60" fill="#0A364A"/>
<path fill-rule="evenodd" clip-rule="evenodd" d="M13.0662 38.983C11.7142 36.0542 11.0154 32.8204 11.0154 29.564C10.7892 24.276 13.0662 19.1292 17.0254 15.5299C21.8867 11.603 28.0008 9.71014 34.2141 10.0378C36.4029 10.0378 38.6256 10.2277 40.8822 10.6074C42.8085 10.9326 48.0002 12.6213 48.0002 12.6213L46.7677 21.816H44.6153C44.5458 19.8752 44.4365 18.268 44.2874 16.9943C43.1388 15.7517 41.6827 14.857 40.1021 14.1865C38.1733 13.5161 36.1429 13.1909 34.0921 13.2917C30.1329 13.0674 26.3999 14.6352 23.569 17.3396C20.8626 20.4726 19.5081 24.6213 19.8563 28.7725C19.7343 31.356 20.1841 33.9395 21.2107 36.3995C21.8867 38.4134 23.1192 40.2029 24.7176 41.7908C25.9475 43.1342 27.5282 44.1298 29.1291 44.9238C31.4874 45.8185 33.9905 46.2646 36.4707 46.2646C38.2766 46.2646 40.0885 46.0412 41.9063 45.5942C43.8631 45.0649 45.7097 44.3533 47.4462 43.4594V45.7177C45.4157 47.3837 43.0346 48.5028 40.4299 49.2968C38.1733 49.8261 35.8354 50.0496 33.4162 49.9672C29.9067 49.9672 26.2982 49.4178 23.015 48.0567C20.7584 47.1619 18.7076 45.9395 16.9034 44.2508C15.3228 42.6856 13.9683 40.8759 13.0662 38.983Z" fill="white"/>
</svg>
