<svg width="60" height="60" viewBox="0 0 60 60" fill="none" xmlns="http://www.w3.org/2000/svg">
<rect width="60" height="60" fill="#A08036"/>
<g clip-path="url(#clip0_150_661)">
<path d="M10.9062 31.9143C10.7117 32.3302 10.3087 32.7224 9.73937 32.7224C9.18083 32.7224 8.52613 32.3259 8.52613 31.2045C8.52613 30.0269 9.07171 29.5634 9.64971 29.5634C10.1423 29.5634 10.5032 29.8865 10.7355 30.5174H10.7927V29.4478H10.7452L10.5464 29.6574C10.2832 29.5305 9.99366 29.468 9.70156 29.4748C8.75409 29.4748 8 30.2278 8 31.2229C8 32.2276 8.66874 32.8909 9.61189 32.8909C10.3465 32.8909 10.7787 32.4145 10.9818 31.9564L10.9062 31.9143ZM11.9811 31.467L12.5364 30.0604H12.5548L13.0517 31.467H11.9811ZM13.835 32.2665L12.7827 29.4521H12.6779L11.6538 31.9802C11.4409 32.5042 11.28 32.6673 10.9721 32.7516V32.8121H12.0708V32.7516C11.6397 32.6813 11.5641 32.5322 11.7921 31.9478L11.9433 31.5599H13.0863L13.3705 32.3551C13.4698 32.6306 13.4137 32.7332 12.9632 32.7516V32.8121H14.4087V32.7516C14.0392 32.7051 13.9679 32.6176 13.835 32.2665ZM16.7206 29.5548V29.611C17.1949 29.6812 17.3418 29.8681 17.3418 30.3208V32.1152H17.3364L15.4123 29.5548H14.4875V29.611C14.8948 29.6196 15.0601 29.8584 15.0601 30.1436V32.0407C15.0601 32.4944 14.9327 32.677 14.4875 32.7516V32.8121H15.758V32.7516C15.274 32.6813 15.1747 32.4944 15.1747 32.0407V30.0312H15.1801L17.3516 32.892H17.4553V30.3208C17.4553 29.867 17.5504 29.6898 17.9955 29.611V29.5548H16.7206ZM20.6294 32.5042L20.6218 32.515C20.6326 32.5128 20.6434 32.515 20.6488 32.5182L20.6294 32.5042ZM20.5516 32.5884L20.584 32.5755V32.5571L20.5516 32.5884ZM19.7975 29.5645C19.7909 29.5649 19.7844 29.566 19.7781 29.5677L19.8105 29.5656L19.7975 29.5645ZM19.9163 32.8034C19.5036 32.8034 19.1568 32.6392 18.9764 32.1379L18.9483 32.0515L18.9138 31.9186C18.903 31.8646 18.8922 31.8095 18.8846 31.749C18.8775 31.6982 18.8706 31.6475 18.8641 31.5967C18.8506 31.4588 18.8441 31.3203 18.8446 31.1818V31.1299C18.8428 30.9066 18.8634 30.6837 18.9062 30.4644C18.9228 30.3802 18.9452 30.2972 18.9732 30.216C19.1212 29.7827 19.3924 29.6066 19.7359 29.571L19.7608 29.5688L19.7781 29.5677L19.8105 29.5656H19.8191L19.8731 29.5645C20.4846 29.5645 20.9492 29.9199 20.9492 31.1861C20.9492 31.548 20.9146 31.8322 20.8498 32.058V32.0612C20.8305 32.1291 20.8063 32.1956 20.7774 32.26C20.7404 32.348 20.6898 32.4303 20.6294 32.5042L20.6218 32.515C20.6099 32.5301 20.597 32.5431 20.584 32.5571L20.5516 32.5884L20.5494 32.5895C20.5365 32.6019 20.5228 32.6134 20.5084 32.6241C20.3442 32.7537 20.1432 32.8034 19.9163 32.8034ZM20.5149 29.6077C20.4951 29.5985 20.4749 29.5902 20.4544 29.5829L20.4219 29.571C20.3982 29.5613 20.3744 29.5537 20.3506 29.5461C20.329 29.5375 20.3063 29.5321 20.2837 29.5245L20.2167 29.5094C20.1116 29.4865 20.0044 29.4753 19.8969 29.4759L19.8558 29.477C19.8007 29.477 19.7456 29.4835 19.6895 29.491C19.2995 29.5539 18.947 29.76 18.7009 30.069C18.688 30.0863 18.675 30.1036 18.661 30.1187V30.1209C18.5481 30.275 18.4613 30.4465 18.4038 30.6287L18.3974 30.6459V30.6492C18.3926 30.6649 18.3883 30.6808 18.3844 30.6967C18.3599 30.7721 18.3439 30.85 18.3369 30.929C18.3323 30.9522 18.3294 30.9756 18.3282 30.9992C18.3261 31.01 18.3261 31.0208 18.3261 31.0316V31.0338C18.3282 31.0457 18.3261 31.0554 18.3228 31.063L18.3217 31.077L18.3196 31.1148L18.3185 31.1904C18.3177 31.2939 18.3257 31.3973 18.3423 31.4994L18.3433 31.5113C18.3606 31.6183 18.3876 31.7209 18.4211 31.816C18.4579 31.9221 18.5061 32.0249 18.5648 32.1206V32.1228L18.5929 32.1703H18.5951C18.6407 32.2435 18.6931 32.3123 18.7517 32.3756C18.8262 32.4614 18.9111 32.5377 19.0045 32.6025C19.2645 32.7896 19.5765 32.8908 19.8969 32.892C20.2113 32.892 20.5235 32.784 20.7849 32.5884H20.7871C21.0788 32.3708 21.2928 32.0651 21.3975 31.7166C21.4472 31.5491 21.4753 31.3687 21.4753 31.1764C21.4753 30.4169 21.0615 29.8508 20.5149 29.6077ZM19.7781 29.5677L19.8105 29.5656L19.7975 29.5645C19.7909 29.5649 19.7844 29.566 19.7781 29.5677ZM20.584 32.5755V32.5571L20.5516 32.5884L20.584 32.5755ZM20.6294 32.5042L20.6218 32.515C20.6326 32.5128 20.6434 32.515 20.6488 32.5182L20.6294 32.5042ZM23.3973 31.2607C23.3498 31.2642 23.3022 31.266 23.2546 31.2661H22.8841V29.6488H23.2687C23.3259 29.6488 23.3789 29.652 23.4307 29.6563C23.5349 29.6656 23.6368 29.6923 23.7322 29.7352C23.9958 29.8616 24.0649 30.1187 24.0649 30.4288C24.0649 30.472 24.0638 30.5152 24.0617 30.5563C24.0411 30.9603 23.9039 31.2207 23.3962 31.2607H23.3973ZM23.784 29.6034V29.6012C23.7516 29.5958 23.717 29.5894 23.6825 29.585C23.5469 29.5656 23.41 29.5558 23.273 29.5559H21.8988V29.611C22.3201 29.625 22.4347 29.7471 22.4347 29.948V32.4156C22.4347 32.4696 22.426 32.5182 22.4076 32.5582C22.3969 32.5828 22.381 32.6049 22.3612 32.623V32.6252C22.3326 32.6521 22.2998 32.674 22.264 32.69C22.236 32.7014 22.207 32.7104 22.1775 32.717C22.086 32.7379 21.9926 32.7495 21.8988 32.7516V32.8121H23.4545V32.7516C23.0029 32.7375 22.8852 32.6306 22.8852 32.4156V31.359H23.2212L23.3259 31.3579C23.3778 31.3557 23.4286 31.3525 23.4761 31.3482C24.3004 31.2769 24.5781 30.8512 24.5781 30.4385C24.5781 30.0496 24.375 29.7201 23.784 29.6034ZM26.8425 29.5548V29.611C27.3071 29.6812 27.3071 29.7979 27.0802 30.1803L26.4579 31.2412L26.0668 30.5552L25.9048 30.27L25.8702 30.2106V30.2084L25.7622 30.0172L25.747 29.9923C25.6206 29.7601 25.6584 29.6369 26.1122 29.611V29.5548H24.6915V29.611C24.9757 29.6671 25.0891 29.7557 25.2317 29.9988L26.0755 31.4378V32.4145C26.0755 32.6198 25.9761 32.7375 25.5256 32.7516V32.8121H27.0705V32.7516C26.621 32.7375 26.5216 32.6208 26.5216 32.4145V31.3449L27.199 30.2138C27.4691 29.7601 27.6204 29.6671 27.9391 29.611V29.5548H26.8425ZM30.9068 31.3493V31.4098C31.3292 31.4238 31.4427 31.574 31.4427 31.7749V32.583C31.286 32.7235 31.0451 32.8023 30.7361 32.8023C30.1873 32.8023 29.5693 32.3864 29.5693 31.1818C29.5693 30.647 29.6828 30.27 29.8545 30.015L29.8783 29.9804C29.9107 29.9372 29.9431 29.8973 29.9777 29.8627C30.0955 29.7341 30.2483 29.6428 30.4174 29.6002L30.4455 29.5937C30.5267 29.5733 30.6102 29.5635 30.694 29.5645C31.1542 29.5645 31.5475 29.8778 31.7797 30.4796H31.837V29.4467H31.7895L31.5907 29.6574C31.43 29.5744 31.2559 29.5207 31.0764 29.4986C30.9817 29.4837 30.886 29.4765 30.7901 29.477C30.7761 29.4748 30.7599 29.4748 30.7469 29.4748C30.6875 29.4748 30.6302 29.4781 30.5719 29.4846C29.7854 29.571 29.0443 30.2408 29.0443 31.1904C29.0443 32.3173 29.9215 32.892 30.775 32.892C31.1013 32.892 31.5615 32.8077 31.8932 32.5971V31.7749C31.8932 31.5124 31.9548 31.4292 32.2724 31.4098V31.3493H30.9068ZM33.5656 31.1353V29.6477H33.9437C34.2494 29.6477 34.4569 29.7039 34.5919 29.8076C34.6302 29.833 34.6636 29.8652 34.6902 29.9027C34.7853 30.0215 34.822 30.176 34.822 30.3586C34.822 30.821 34.6891 31.1343 34.0161 31.1343L33.5656 31.1353ZM35.7112 32.7192C35.681 32.7182 35.651 32.7145 35.6215 32.7083C35.5676 32.7021 35.5159 32.6836 35.4702 32.6543C35.3698 32.5895 35.3276 32.4631 35.2866 32.2233L35.2574 32.032C35.2526 31.9995 35.2469 31.967 35.2401 31.9348C35.239 31.9164 35.2336 31.8981 35.2304 31.8808H35.2293C35.144 31.4703 34.956 31.2196 34.3283 31.1904V31.1764C35.0489 31.0738 35.333 30.7507 35.333 30.3445C35.333 29.8962 34.9441 29.5559 33.9783 29.5559H32.5781V29.6099C32.9995 29.625 33.114 29.746 33.114 29.947V32.4145C33.114 32.5214 33.0837 32.6036 32.9973 32.6597C32.9558 32.6859 32.9101 32.7049 32.8623 32.7159C32.8106 32.7296 32.7578 32.7383 32.7045 32.7418C32.7002 32.744 32.6937 32.744 32.6872 32.744L32.6548 32.7462H32.6527C32.6289 32.7494 32.603 32.7494 32.5781 32.7516V32.8121H34.0852V32.7516C33.6401 32.7375 33.5645 32.6295 33.5645 32.4145V31.2283H33.9912C34.5552 31.2283 34.6827 31.3255 34.7399 31.7933L34.7918 32.2373C34.7969 32.2814 34.8034 32.3254 34.8112 32.3691C34.8209 32.4242 34.8318 32.4728 34.8458 32.516V32.5182C34.847 32.525 34.8492 32.5315 34.8523 32.5376C34.8523 32.5441 34.8566 32.5506 34.8588 32.5571C34.8652 32.5701 34.8696 32.5852 34.876 32.5971L34.8804 32.6068C34.9473 32.7472 35.0597 32.8185 35.2682 32.8358C35.3028 32.8391 35.3406 32.8401 35.3795 32.8401H35.3925C35.4848 32.8407 35.577 32.8331 35.6679 32.8175C35.736 32.8067 35.8019 32.7915 35.8635 32.7742V32.7235C35.8062 32.7235 35.7555 32.7213 35.7101 32.7192H35.7112ZM38.5579 32.1801C38.532 32.2438 38.5071 32.3011 38.4769 32.354C38.431 32.4379 38.3727 32.5143 38.304 32.5809C38.1927 32.6843 38.0539 32.7533 37.9043 32.7796C37.8276 32.7959 37.7455 32.8023 37.6612 32.8023C37.4563 32.8103 37.254 32.7544 37.0821 32.6424C37.0167 32.5962 36.9582 32.5409 36.9082 32.4782C36.8231 32.369 36.7576 32.2458 36.7148 32.1141V32.112L36.6932 32.0461C36.6182 31.7643 36.5837 31.4733 36.5906 31.1818C36.5906 29.9243 37.0119 29.5634 37.6191 29.5634C38.2306 29.5634 38.6951 29.9199 38.6951 31.1861C38.6952 31.3485 38.6869 31.5108 38.6703 31.6723C38.6465 31.8722 38.6076 32.0407 38.5579 32.1801ZM37.6428 29.4748C36.8412 29.4748 36.0644 30.1717 36.0644 31.1904C36.0644 31.7015 36.2481 32.1239 36.5398 32.4199C36.632 32.517 36.7375 32.6018 36.8531 32.6695V32.6716C36.8725 32.6824 36.8909 32.6921 36.9093 32.704H36.9114C37.134 32.8261 37.3846 32.892 37.6428 32.892C37.8318 32.8918 38.0188 32.8536 38.1927 32.7796C38.5536 32.6277 38.8491 32.3529 39.0268 32.004V32.0018C39.1499 31.7641 39.2212 31.4843 39.2212 31.1764C39.2212 30.1479 38.4628 29.4748 37.6428 29.4748ZM43.0695 29.5548V29.611C43.4908 29.6855 43.587 29.826 43.4303 30.3067L42.8329 32.1714H42.8134L42.108 30.0075C42.0075 29.7093 42.0691 29.6336 42.4677 29.611V29.5548H41.1065V29.611C41.4392 29.6477 41.5289 29.6996 41.6574 30.0971L41.7428 30.3586L41.2231 31.7133L41.2145 31.7339L41.1529 31.8927L41.0697 32.112L41.0406 32.1855H41.0222L40.9963 32.1033L40.9487 31.9445L40.9109 31.8138L40.9023 31.7814H40.9001L40.8936 31.7544L40.818 31.5016L40.7694 31.3385L40.6862 31.0608L40.6754 31.0284V31.023L40.6635 30.9819L40.6527 30.9538L40.6419 30.916L40.6203 30.8404L40.5901 30.7389L40.589 30.7367L40.4118 30.1371L40.3718 30.0075C40.3308 29.8724 40.3221 29.7741 40.3869 29.7093C40.407 29.6885 40.4313 29.6723 40.4583 29.6617C40.5453 29.6315 40.6363 29.614 40.7283 29.6099V29.5548H39.3347V29.611L39.4168 29.625C39.7139 29.6812 39.7982 29.7741 39.9029 30.0971L40.1752 30.9506L40.2065 31.0478L40.3297 31.4378L40.3675 31.5578L40.3697 31.5599L40.4604 31.8495L40.4626 31.8505L40.4691 31.8721V31.8743L40.4939 31.9521L40.5155 32.0202L40.5209 32.0374L40.5576 32.153L40.7986 32.9093H40.9034L40.9725 32.7235L41.1594 32.2265L41.1691 32.1984L41.1897 32.1444L41.3679 31.6658L41.3744 31.6528L41.3787 31.6388L41.8001 30.5131L42.6049 32.9104H42.7097L43.5351 30.3715C43.6961 29.8767 43.8614 29.6671 44.2125 29.611V29.5548H43.0695ZM47.2742 29.5548H44.4188L44.3908 30.5217L44.4523 30.5271C44.7267 29.9383 45.0444 29.6477 45.3912 29.6477H45.6224V32.4145C45.6224 32.6198 45.4711 32.7375 45.0498 32.7516V32.8121H46.6422V32.7516C46.2209 32.7375 46.0685 32.6208 46.0685 32.4145V29.6488H46.3008C46.6617 29.6488 46.9739 29.975 47.2397 30.5271L47.3012 30.5217L47.2742 29.5548ZM51.2143 29.611V29.5548H49.7353V29.611C50.1815 29.625 50.2279 29.732 50.2279 29.9426V31.0738H48.6495V29.9426C48.6495 29.732 48.6971 29.625 49.1465 29.611V29.5548H47.6632V29.611C48.0845 29.625 48.199 29.7417 48.199 29.9426V32.4199C48.199 32.6252 48.0856 32.7375 47.6632 32.7516V32.8121H49.1476V32.7516C48.6971 32.7375 48.6495 32.6349 48.6495 32.4199V31.1721H50.2279V32.4199C50.2279 32.6349 50.1804 32.7375 49.7353 32.7516V32.8121H51.2154V32.7516C50.7929 32.7375 50.6784 32.6252 50.6784 32.4199V29.9426C50.6784 29.7417 50.7929 29.625 51.2143 29.611Z" fill="white"/>
<path fill-rule="evenodd" clip-rule="evenodd" d="M20.9643 26.8571C21.3532 27.0084 20.9643 27.3973 20.9643 27.3973V27.4946H13.4018V27.9375H45.8125V27.4946H39.7733L39.8705 27.3973C40.051 27.2169 40.4107 26.6411 40.4107 25.7768C40.4107 24.9125 39.3304 25.0562 38.7902 25.2366C38.7902 25.0562 38.6821 24.5884 38.25 24.1563C37.7098 23.6161 37.1696 23.6161 36.6295 23.6161C36.3594 23.6161 36.2243 23.346 36.0212 22.9409C35.8192 22.5357 35.5491 21.9955 35.0089 21.4554C34.2559 20.7024 33.7654 20.9995 33.3538 21.2479C33.1756 21.356 33.0113 21.4554 32.8482 21.4554C32.308 21.4554 31.7679 20.9152 31.2277 20.375C30.8679 20.0152 30.5071 20.1352 30.1473 20.2551C29.9669 20.3145 29.7876 20.375 29.6071 20.375C29.3371 20.375 29.202 20.1049 29.067 19.8348C28.9319 19.5647 28.7969 19.2946 28.5268 19.2946C28.2567 19.2946 28.1217 19.4297 27.9866 19.5647C27.8516 19.6998 27.7165 19.8348 27.4464 19.8348C27.2401 19.8348 27.1915 19.756 27.1493 19.689C27.0823 19.5799 27.0337 19.501 26.3661 19.8348C25.6746 20.1805 25.6466 20.3048 25.5752 20.6343C25.5342 20.818 25.4802 21.0664 25.2857 21.4554C24.9832 22.0614 24.8492 21.9869 24.6958 21.9005C24.5748 21.8335 24.442 21.7589 24.2054 21.9955C23.9353 22.2656 23.6652 22.1306 23.3951 21.9955C23.125 21.8605 22.8549 21.7255 22.5848 21.9955C22.2175 22.3629 22.1775 22.5789 22.1343 22.8166C22.1138 22.929 22.0933 23.0456 22.0371 23.1861C21.9874 23.3071 21.9204 23.3989 21.8513 23.494C21.686 23.722 21.5045 23.9715 21.5045 24.6964C21.5045 25.7239 21.9388 25.8827 22.2564 25.9993C22.4401 26.0663 22.5848 26.1193 22.5848 26.317C22.5848 26.7329 21.9604 26.1063 21.6341 25.78L21.5974 25.7433C21.2841 25.43 20.517 25.8103 20.1962 25.9961C19.8753 26.1819 19.6992 26.6346 20.0698 26.8571C20.4954 27.1121 20.5937 27.0116 20.6856 26.9187C20.7471 26.855 20.8066 26.7956 20.9643 26.8571ZM31.8219 27.4946H30.4855C30.6994 27.2806 30.9003 27.0527 30.6875 26.8571C30.3115 26.5114 30.6184 26.3526 31.245 26.2089C31.5583 26.2089 32.1827 26.2954 32.1827 26.6411C32.1827 26.8571 31.9991 27.1985 31.823 27.4946H31.8219ZM32.0639 27.4946H32.2108C32.2389 27.4632 32.2713 27.4308 32.308 27.3973C32.4528 27.2644 32.5846 27.1823 32.6862 27.1208C32.913 26.9803 32.9779 26.9403 32.6527 26.6411C32.361 26.3731 32.146 26.9522 32.0639 27.4946ZM13.4018 34.4196H45.8125V34.8626H41.1691C41.2231 34.962 41.2426 35.1132 41.1151 35.2937C40.9293 35.5562 40.4215 35.513 40.1914 35.4579C40.1547 35.7452 40.025 36.3589 39.7992 36.5209C39.5626 36.6906 39.1802 36.5307 38.9241 36.4237C38.8744 36.4021 38.8291 36.3837 38.7902 36.3697C38.6352 36.3059 38.4977 36.2059 38.3894 36.078C38.2673 36.2228 37.9734 36.4669 37.7779 36.2854C37.6482 36.1666 37.6774 36.0531 37.7001 35.9635C37.7206 35.8803 37.7357 35.8166 37.6245 35.7831C37.5067 35.7463 37.4354 35.7831 37.3706 35.8155C37.309 35.8468 37.2517 35.8749 37.1653 35.8338C37.0627 35.7841 37.0702 35.7366 37.0811 35.6696C37.0886 35.621 37.0983 35.5616 37.0681 35.4827C36.9968 35.2969 36.7732 35.2051 36.4566 35.3606C36.2621 35.4568 36.3561 35.6448 36.4339 35.8014C36.4825 35.8987 36.5247 35.9851 36.4858 36.0283C36.3842 36.1363 36.1314 35.8879 36.1023 35.7831C36.072 35.6772 35.951 35.6523 35.8656 35.7366C35.7976 35.8036 35.5199 35.8857 35.3892 35.9181C35.2797 36.1214 35.1865 36.3331 35.1105 36.5512C35.077 36.6592 35.0024 36.7705 34.9236 36.8915C34.8112 37.06 34.6881 37.2469 34.6459 37.4706C34.5746 37.8552 34.5703 38.4289 34.6124 38.6482C34.6546 38.8675 34.714 39.197 34.6794 39.5341C34.6518 39.7537 34.6934 39.9765 34.7983 40.1715L34.8145 40.206C34.876 40.3368 35.0824 40.3076 35.1775 40.2773C35.1999 40.221 35.2347 40.1704 35.2794 40.1294C35.3242 40.0885 35.3776 40.0581 35.4357 40.0407C35.5902 39.9975 35.669 40.1801 35.6885 40.2773C36.0158 40.2374 36.663 40.2125 36.6295 40.4286C36.5992 40.622 36.3885 40.5247 36.2341 40.4534C36.1714 40.4243 36.1185 40.3994 36.0893 40.3994C36.0083 40.3994 35.7544 40.4642 35.6377 40.4967C35.5804 40.5161 35.4443 40.5442 35.3633 40.4967C35.2613 40.4496 35.1534 40.4168 35.0424 40.3994C34.8025 40.4551 34.5531 40.4551 34.3132 40.3994C34.0346 40.3309 33.7426 40.3391 33.4683 40.4232L33.4435 40.4286C33.3503 40.4465 33.2605 40.4794 33.1777 40.5258C33.1604 40.4642 33.1021 40.3335 33.0081 40.3065C32.8903 40.273 32.7931 40.4578 32.8309 40.555L32.8504 40.6025C32.9001 40.716 32.98 40.9018 32.8482 40.9018C32.7197 40.9018 32.4204 40.7678 32.3945 40.7505C32.3923 40.7613 32.321 40.8186 32.1481 40.7505C32.0956 40.7319 32.0477 40.7021 32.0076 40.6634C31.9676 40.6246 31.9363 40.5777 31.9159 40.5258C31.8208 40.4815 31.608 40.4113 31.5107 40.4934C31.4135 40.5734 31.5291 40.7289 31.5993 40.7959L31.3119 40.5982C31.2212 40.6447 31.0159 40.7246 30.9284 40.6738C30.8863 40.6501 30.8798 40.609 30.8744 40.5701C30.8636 40.5085 30.856 40.4534 30.6961 40.4923C30.4909 40.5431 30.4866 40.6349 30.5103 40.6738L30.3202 40.5258C30.0871 40.4855 29.8489 40.4855 29.6158 40.5258C29.2982 40.5798 28.8649 40.4416 28.6867 40.3659C28.6414 40.4212 28.5939 40.4746 28.5441 40.5258C28.476 40.5939 28.2783 40.6911 28.3496 40.5258C28.4015 40.407 28.3172 40.4048 28.1876 40.4016C28.1334 40.4012 28.0793 40.3976 28.0255 40.3908C27.9229 40.3767 27.8829 40.4232 27.8418 40.4696C27.7986 40.5193 27.7554 40.569 27.6409 40.5518C27.4616 40.5247 27.4399 40.394 27.4507 40.3324C27.3827 40.4783 27.2185 40.7473 27.1007 40.6533C26.9819 40.5582 27.0877 40.3994 27.1547 40.3324L26.8814 40.3649C26.8144 40.4945 26.6372 40.7646 26.4547 40.8046C26.2678 40.8467 26.1867 40.743 26.1089 40.6468C26.0928 40.6257 26.0758 40.6052 26.0582 40.5852C26.0377 40.5622 26.0224 40.535 26.013 40.5056C26.0037 40.4762 26.0007 40.4452 26.0042 40.4145C25.9717 40.5366 25.9058 40.6911 25.8129 40.6911C25.7211 40.6911 25.7006 40.7365 25.6768 40.7884C25.6638 40.8164 25.6509 40.8467 25.6228 40.8726C25.5688 40.9245 25.5169 40.8543 25.4607 40.7754C25.4407 40.7461 25.4191 40.718 25.3959 40.6911C25.3527 40.6425 25.357 40.5971 25.3613 40.5561C25.3646 40.5183 25.3689 40.4848 25.3322 40.4588C25.2868 40.4264 25.2382 40.4232 25.1388 40.4178C25.0707 40.4135 24.98 40.4081 24.8514 40.3908C24.5349 40.3486 23.8002 40.3908 23.5852 40.434C23.4891 40.4524 23.3281 40.4988 23.1585 40.5474C22.9478 40.6079 22.7263 40.6717 22.6021 40.6911C22.3785 40.7235 22.1462 40.6738 22.1592 40.5139C22.171 40.353 22.2931 40.3065 22.3947 40.3324C22.439 40.3432 22.4789 40.3087 22.5405 40.2557C22.6172 40.1877 22.7285 40.0904 22.9262 40.0202C23.1585 39.937 23.1661 40.0299 23.1725 40.1034C23.1758 40.1423 23.179 40.1758 23.2136 40.1758C23.2428 40.1758 23.2838 40.1715 23.3313 40.165C23.4502 40.152 23.6101 40.1337 23.703 40.1758C23.8337 40.2352 24.2475 40.1466 24.3112 40.0202C24.3739 39.8927 24.3231 39.3526 24.2896 39.1927C24.2561 39.0328 24.2356 38.6655 24.2896 37.9395L24.3026 37.7752C24.3274 37.4457 24.3382 37.3161 24.3123 37.1951C24.2874 37.1 24.2538 37.0074 24.2118 36.9185L24.201 36.8926C24.0768 36.5955 23.6738 36.2908 23.488 36.1752C23.4794 36.1666 23.4513 36.1666 23.4037 36.2346C23.3767 36.2735 23.3778 36.3621 23.38 36.4918C23.3821 36.6441 23.3854 36.8526 23.3443 37.1033C23.2687 37.5678 22.7112 37.5678 22.3742 37.5505C22.0511 37.5343 22.1689 37.2945 22.2964 37.0309L22.3147 36.9941C22.4076 36.8018 22.3331 36.6981 22.2078 36.5263C22.1386 36.4334 22.0758 36.336 22.0198 36.2346C21.9118 36.0369 22.0554 35.8792 22.1775 35.7442C22.2964 35.6124 22.3968 35.5022 22.2305 35.3985C22.0166 35.2656 21.8599 35.6361 21.7378 35.9257C21.6676 36.0931 21.6082 36.2346 21.5542 36.2346C21.5102 36.2331 21.4664 36.2277 21.4234 36.2184C21.3154 36.199 21.1825 36.1752 20.9643 36.2346C20.8379 36.2681 20.7439 36.3621 20.638 36.4691C20.4824 36.6257 20.2988 36.8105 19.9433 36.8753C19.5361 36.9509 19.4485 36.7521 19.3567 36.5458C19.3135 36.4486 19.2703 36.3492 19.1914 36.2757C19.0693 36.1633 19.0132 36.1774 18.9321 36.1968C18.8533 36.2174 18.7485 36.2433 18.5335 36.1504C18.1986 36.0056 18.2893 35.2504 18.3822 34.8626H13.4018V34.4196ZM35.1418 34.8626C35.1008 35.2191 35.0683 35.7107 35.1656 35.7366C35.3017 35.7723 35.4659 35.3282 35.5286 35.1597L35.5361 35.1381C35.561 35.0711 35.5912 34.9631 35.6172 34.8626H35.1418ZM29.5564 36.5209C29.4667 36.6765 29.2852 37.033 29.2776 37.2221C29.2744 37.3345 29.31 37.5505 29.3479 37.7785C29.3911 38.027 29.4343 38.2906 29.43 38.4461C29.4213 38.7411 29.4127 39.8722 29.5564 40.0494C29.6709 40.1909 30.0825 40.1985 30.2737 40.1844C30.1873 40.1056 30.0533 39.9208 30.2143 39.8128C30.4174 39.6777 30.4844 39.7372 30.493 39.8128C30.4963 39.842 30.4747 39.8744 30.452 39.91C30.4131 39.9684 30.371 40.0332 30.4347 40.0915C30.5157 40.1661 30.7718 40.1844 30.8906 40.1844C30.8733 40.0883 30.883 39.8992 31.0591 39.9057C31.2342 39.9122 31.2785 40.1445 31.2785 40.2601C31.4243 40.2352 31.7657 40.1844 31.9623 40.1844H32.0487C32.2659 40.1866 32.4939 40.1888 32.7467 40.0915L32.8223 40.0624C32.9314 40.0202 32.9606 40.0083 32.9843 40.0148C32.9941 40.0159 33.0027 40.0202 33.0135 40.0256C33.0276 40.031 33.0459 40.0397 33.0762 40.0494C33.118 40.0644 33.1579 40.0843 33.195 40.1088C33.2825 40.1628 33.3776 40.219 33.5407 40.1844C33.7298 40.1434 33.7546 40.2179 33.7427 40.2601C33.8162 40.2406 33.9793 40.179 34.0463 40.0915C34.1112 39.9813 34.2159 39.6572 34.1144 39.238C34.0128 38.8199 34.0712 37.8206 34.1144 37.3733C34.1706 37.2307 34.1349 36.8202 33.5407 36.3276C33.303 36.172 33.2112 36.2174 33.195 36.2595C33.1518 36.7435 32.9022 37.6845 32.24 37.5765C31.743 37.4954 31.9159 37.3204 32.106 37.127C32.2324 36.9985 32.3675 36.8623 32.3167 36.7403C32.2573 36.5976 32.1373 36.5371 32.0282 36.481C31.9051 36.4183 31.7927 36.3621 31.7927 36.2001C31.7927 36.0704 31.8672 35.9473 31.9332 35.8392C32.0196 35.6966 32.092 35.5778 31.9623 35.4914C31.7344 35.3401 31.1521 35.7452 31.3379 35.9721C31.5226 36.2001 30.6119 36.9434 30.156 36.9185C30.0289 36.9147 29.9054 36.8755 29.7994 36.8053C29.6935 36.735 29.6093 36.6365 29.5564 36.5209ZM24.0919 36.5047C23.8898 36.3335 23.6769 36.1754 23.4545 36.0315C23.4437 36.0175 23.4469 35.9926 23.5388 36.0067C23.6522 36.0229 24.1848 36.0315 24.2648 35.8879C24.3296 35.7733 24.7023 35.728 24.8806 35.7193C24.8989 35.823 24.9324 36.0694 24.9238 36.2174C24.913 36.3665 24.6537 36.8731 24.5262 37.1076C24.4398 36.9628 24.2334 36.6398 24.0919 36.5047ZM25.6066 36.0402C25.5526 36.1299 25.424 36.3611 25.3365 36.5631C25.3041 36.6387 25.2457 36.7273 25.1788 36.8299C25.0221 37.0698 24.8179 37.3831 24.7877 37.7623C24.7455 38.3025 24.8212 38.9183 24.8471 38.9615C24.8655 38.9917 24.8935 39.2402 24.9173 39.4498L24.9389 39.6443C24.9454 39.6907 24.9486 39.7447 24.9519 39.7998C24.9627 39.9856 24.9746 40.1898 25.0923 40.2104C25.2436 40.2352 25.733 40.2179 25.9274 40.1347C25.9858 40.1088 26.0722 40.0559 26.1716 39.9954C26.4039 39.8549 26.7042 39.6734 26.863 39.7037C26.9819 39.7253 27.011 39.8095 27.0381 39.8852C27.064 39.9565 27.0867 40.0202 27.1763 40.0148C27.2055 40.0148 27.2336 40.0127 27.2606 40.0105C27.4085 39.9907 27.559 40.007 27.6992 40.058C27.8937 40.1337 28.2481 40.2093 28.3669 40.1337L28.3885 40.1196C28.5117 40.0407 28.7234 39.9057 28.7461 39.7793C28.772 39.6443 28.8811 39.0025 28.8142 38.7746C28.7461 38.5477 28.6953 37.9989 28.6953 37.8206C28.6953 37.7579 28.7083 37.6305 28.7223 37.4889C28.7483 37.234 28.7785 36.9336 28.7461 36.8839C28.7061 36.8234 28.7299 36.482 28.7461 36.3189C28.6759 36.2649 28.4944 36.1904 28.3323 36.3189C28.1303 36.4788 27.6992 36.2757 27.6992 36.0996C27.6992 35.9224 27.4972 35.8382 27.3362 35.8382C27.2844 35.8382 27.2714 35.9084 27.2541 35.9926C27.2196 36.1687 27.1742 36.4032 26.7464 36.1752C26.1133 35.8371 25.8259 35.8619 25.7751 35.8965C25.7164 35.9413 25.6601 35.9892 25.6066 36.0402ZM34.7723 36.0229C34.7453 35.7334 34.4579 35.5086 34.3164 35.4319C34.3305 35.5702 34.2862 35.8814 33.9956 36.0229C33.706 36.1655 33.4921 36.0488 33.423 35.9721C33.3776 35.9894 33.3689 36.0769 33.7006 36.293C34.0312 36.5091 34.2494 36.9012 34.3164 37.0708C34.4796 36.8418 34.7993 36.3146 34.7723 36.0229Z" fill="white"/>
</g>
<defs>
<clipPath id="clip0_150_661">
<rect width="44" height="22" fill="white" transform="translate(8 19)"/>
</clipPath>
</defs>
</svg>
