<svg width="60" height="60" viewBox="0 0 60 60" fill="none" xmlns="http://www.w3.org/2000/svg">
<rect width="60" height="60" fill="white"/>
<g clip-path="url(#clip0_150_917)">
<path d="M50 30C50 41.0569 41.0492 50 30 50C18.9508 50 10 41.0569 10 30C10 18.9431 18.9508 10 30 10C41.0492 10 50 18.9431 50 30Z" fill="#BF0031"/>
<path d="M41.4426 30C41.4426 23.691 36.3279 18.5853 30 18.5853C23.6721 18.5853 18.5574 23.691 18.5574 30C18.5574 36.3089 23.6721 41.4146 30 41.4146C36.3279 41.4146 41.4426 36.3089 41.4426 30Z" fill="white"/>
<path d="M30 11.2032C19.6393 11.2032 11.2131 19.626 11.2131 30C11.2131 40.374 19.6393 48.7967 30 48.7967C40.3606 48.7967 48.8197 40.374 48.8197 30C48.8197 19.626 40.3606 11.2032 30 11.2032ZM30 48.3415C19.9016 48.3415 11.6721 40.1138 11.6721 30C11.6721 19.8862 19.9016 11.6585 30 11.6585C40.1311 11.6585 48.3279 19.8862 48.3279 30C48.3606 40.1138 40.1311 48.3415 30 48.3415Z" fill="white"/>
<path d="M33.7705 31.7235C33.2787 31.1382 32.7213 30.9431 32.5246 30.9105C32.3607 30.8455 31.6393 30.7479 31.4098 30.7805C31.1803 30.7805 30.7869 30.878 30.7213 31.0406C30.6557 31.1707 30.5902 31.3333 30.4262 31.4959C30.2951 31.626 30.0984 31.8211 29.9672 32.0813C29.7049 32.4065 29.6393 32.8292 29.541 33.317C29.4426 33.7723 29.377 34.2601 29.1475 34.6504L29.0492 34.813L28.918 34.7154C28.7869 34.5853 28.7213 34.4878 28.6229 34.3252L28.3934 33.9349C27.1475 32.6992 26.5574 31.7886 25.9016 30.2276L25.6721 29.5122V29.4146C26.0328 28.9918 26.2295 28.4715 26.3607 27.8861C26.3934 27.7886 26.3934 27.626 26.3607 27.5284C26.3279 27.3983 26.2951 27.2032 26.3607 27.0081C26.3607 27.0081 26.3607 26.9105 26.3607 26.878C26.3607 26.8455 26.3607 26.7154 26.3279 26.6829C26.2951 26.6179 26.0656 26.3252 25.8688 26.13C25.7377 26 25.6721 26 25.6066 25.9674L25.4754 25.9349L25.4098 25.8699C25.3115 25.6422 25.1475 25.5122 24.9836 25.5772C24.8197 25.6422 24.5902 25.6097 24.5246 25.5122C24.4918 25.4471 24.3607 25.3821 24.2951 25.3821C24.1311 25.3821 23.9344 25.4146 23.8688 25.4796C23.6393 25.7073 23.5082 25.7723 23.3443 25.7723C23.2459 25.7723 23.1803 25.8048 23.1148 25.9024L23.0492 26.0325H22.9508C22.7541 26.0325 22.6229 26.1626 22.5574 26.2276L22.4918 26.3577L22.1311 26.7479C22.0328 26.878 21.7377 27.3008 21.7377 27.9187L21.8033 27.9837L22.1967 27.8861L22.7213 27.6585C22.7541 27.626 23.0164 27.5609 23.1475 27.7886C23.2131 27.9837 23.2787 28.0487 23.541 28.2764C23.6721 28.374 22.5902 29.0894 22.5902 29.0894L22.459 29.4471C22.6885 29.6422 22.7541 29.7398 22.9836 30.0325L23.377 30.5853V30.6179C23.7049 32.1138 24.0984 33.5772 24.4918 34.9756C25.2459 37.6422 27.082 39.691 27.7705 39.7886C28.4262 39.9187 28.918 39.7561 29.6393 39.0731C29.6393 39.0731 29.9672 38.813 30.2295 38.6504C30.3607 38.5853 30.9508 38.1951 31.541 37.7398C32.0984 37.2845 32.6557 36.7642 32.918 36.504C33.4426 35.9837 33.8361 35.3983 34.2295 34.8455C34.2295 34.8455 34.3607 34.7154 34.3607 34.2276C34.3934 33.8374 34.3607 33.4471 34.3279 33.187C34.2623 32.8943 34.2623 32.3089 33.7705 31.7235Z" fill="#FDDDCB"/>
<path d="M27.082 34.7479C27.0164 34.813 26.9836 34.9756 26.8524 34.9756C26.7213 34.9105 26.8197 34.7154 26.9508 34.6178L26.8852 34.813L27.082 34.7479ZM27.2459 35.0731L27.1147 35.3333L27.082 35.3658L27.2459 35.0731ZM37.6393 32.9268C37.7705 33.2845 37.1147 33.2845 37.4754 33.5772C37.2787 33.7073 37.082 33.7723 36.8524 33.7723C36.5902 34.0325 36.2951 34.2601 35.8688 34.1951C35.6393 34.5203 35.2787 34.8455 34.8197 34.6504C34.7541 34.5853 34.6885 34.5528 34.5902 34.5528C34.5246 34.6829 34.4262 34.813 34.3279 34.9756C33.2131 36.6666 31.5082 38.065 29.8361 39.0406C29.1803 39.6585 28.5246 40.0162 27.7377 39.8861C26.9836 39.7886 25.1147 37.6422 24.3279 34.9756C23.9016 33.5447 23.541 32.0812 23.1803 30.6178C23.082 30.4552 22.9508 30.2601 22.8197 30.0975C22.6229 29.8373 22.3934 29.6097 22.1967 29.4146C21.9016 29.4796 21.6065 29.8373 21.3115 29.5447C21.082 29.317 20.918 29.0569 20.8852 28.7642C20.7869 28.2438 21.3443 28.1138 21.6393 27.8861C21.6393 27.2032 21.9344 26.813 22.0656 26.6504C22.3279 26.3902 22.3606 26.3251 22.459 26.1625C22.5574 26.0325 22.7541 25.9024 23.0164 25.9024C23.4426 25.4471 23.4426 25.8373 23.8688 25.3821C24 25.252 24.4918 25.1544 24.5902 25.317C24.8197 25.7073 25.2459 25.0894 25.541 25.7073C26.8852 25.0569 28.1967 24.3089 29.5082 23.5609C29.3115 22.9756 29.0492 22.3902 29.082 21.7398L31.6393 20.2764C32.2295 20.4715 32.6557 21.1219 33.0492 21.6097C33.4098 21.2195 33.7377 21.7073 33.9016 21.9999C34.0328 22.2276 34.1311 22.4877 34.1967 22.7804L33.9016 23.0081C34.1311 23.691 34.3279 24.3739 34.4262 25.1219C33.6393 25.7398 32.7213 26.0325 31.9016 26.6178C31.1475 26.4552 30.6885 25.6422 30.2951 25.0894H30L26.4918 27.0406C26.2951 27.3008 26.5902 27.4959 26.4918 27.8211C26.3606 28.3739 26.1967 28.9268 25.8033 29.3495C25.8688 29.6097 25.9672 29.8373 26.0656 30.065C26.6885 31.5934 27.2787 32.504 28.5246 33.7398C28.7869 34.0975 28.7869 34.2926 29.0164 34.4878C29.4754 33.7398 29.3443 32.6016 29.8361 31.9512C30.2623 31.2682 30.7213 31.2032 30.459 30.7154C30.2623 30.5853 30.2295 30.2926 30.2951 30.065C30.2951 30.0325 30.3279 29.9674 30.3279 29.9349C30.6557 29.2195 31.6721 29.0243 31.8033 28.1788C31.9672 28.2438 32.0328 28.0162 32.1967 28.0487C32.0328 28.1463 31.9016 28.3414 31.8033 28.504L31.9016 28.5365C31.8361 28.6341 31.8033 28.7317 31.8688 28.7967C32.2623 28.9268 32.6229 28.8292 33.0164 28.8943C33.6721 28.9268 34.0328 29.5772 34.6557 29.6422C34.7869 29.6422 34.8852 29.5447 35.0492 29.4796C35.1803 29.4796 35.2459 29.6097 35.3115 29.7073C35.3443 29.7723 35.0164 29.4796 35.1147 29.7398L35.0164 29.7073C35.0492 29.8048 35.0492 29.9349 35.082 30.0325C35.1147 30.1625 35.1147 30.2276 35.2131 30.3577C35.4098 30.3577 35.377 30.6829 35.5738 30.6178C35.5738 30.878 36.0983 30.7479 35.9344 31.0731C35.8361 31.1382 35.6721 31.0731 35.6065 31.1382C35.5738 31.0731 35.5738 31.0081 35.5082 30.9756C35.5738 31.3008 35.8033 31.626 35.9672 31.9186C36 31.7235 35.8033 31.5284 35.8033 31.3333L36.0656 31.626L36.0328 31.3658C36.2295 31.756 36.459 31.3983 36.6229 31.756C36.6557 31.8536 36.4918 31.8536 36.4918 31.9186L36.3934 31.8211C36.3279 31.8211 36.3934 31.8861 36.3606 31.9512L36.1639 31.7886C36 31.9186 36 32.2438 36.0656 32.4715L36.0983 32.439L36.1639 32.2113C36.2295 32.4064 36.1967 32.504 36.2951 32.6341C36.3279 32.5365 36.2951 32.4064 36.3606 32.3414C36.3934 32.439 36.3934 32.569 36.459 32.6666C36.5246 32.6666 36.5574 32.6016 36.5574 32.5691V32.4064L36.6885 32.439V32.2764H36.7869C36.8524 32.1788 36.7541 32.0812 36.7541 31.9837L36.8852 31.9512C36.6557 31.7235 37.0492 31.6585 36.8852 31.4308C37.1475 31.3658 37.0492 30.9756 37.0492 30.7154C37.0164 30.6178 36.9836 30.4227 36.9836 30.3251C37.2459 31.0731 37.2787 32.0162 37.1147 32.6991L37.2787 32.3739C37.3442 32.5691 37.1803 32.6991 37.3115 32.7642L37.4426 32.5365L37.4754 32.7317C37.5738 32.5691 37.6393 32.3739 37.6393 32.1788C37.8033 32.4715 37.4754 32.7967 37.5738 32.9918L37.6393 32.9268ZM33.4426 21.9999L33.5082 22.1625L33.541 22.13V22.0975L33.4426 21.9999ZM32.2295 25.9024L31.9016 25.2845H31.8361V25.317L32.1639 25.9349L32.2295 25.9024ZM32.459 25.9674L31.6393 24.5365L31.541 24.569L32.3606 26.0325L32.3934 25.9999L32.459 25.9674ZM31.377 23.691C31.7049 24.5365 32.1967 25.1869 32.5574 25.9999L32.6229 25.9349L31.377 23.691ZM28.0328 34.0325H28.0984L28.1311 33.8373L28.0328 34.0325ZM28.0328 33.6422L27.7705 34.065L27.9016 33.9674L28.0328 33.6422ZM27.9016 33.5772L27.6721 33.9024L27.8033 33.8373L27.9016 33.5772ZM27.6065 33.6747H27.7049C27.7705 33.5772 27.8361 33.5121 27.8361 33.3821C27.7049 33.4146 27.6393 33.5772 27.6065 33.6747ZM27.6721 33.252L27.5738 33.4796L27.6721 33.3821V33.252ZM27.541 33.1219L27.377 33.3495H27.4426C27.5082 33.2845 27.6393 33.1869 27.541 33.1219ZM27.3115 33.1869H27.377C27.4754 33.1544 27.4426 33.0243 27.4426 32.9593L27.3115 33.1869ZM27.1803 32.9268C27.2131 32.8943 27.2459 32.8617 27.2459 32.8292H27.1803V32.9268ZM26.9508 32.6991H27.0164C27.0492 32.6666 27.082 32.6341 27.082 32.5691C26.9836 32.504 26.9508 32.6016 26.9508 32.6991ZM26.2295 31.4959H26.2951C26.2951 31.4634 26.4262 31.3983 26.3279 31.3658L26.2295 31.4959ZM26.1967 31.1056L26.0983 31.2032H26.1639C26.1967 31.1707 26.1967 31.1382 26.1967 31.1056ZM26.0656 31.0406H26.0983C26.1311 31.0081 26.1311 30.9756 26.1311 30.943L26.0656 31.0406ZM29.7705 22.4227L29.8361 22.5203L29.8688 22.4877L29.8033 22.3902L29.7705 22.4227ZM26.0328 26.065C26.3606 26.3577 26.6229 25.8373 26.918 25.8048C27.1475 25.6097 27.6065 25.5447 27.8361 25.2845C28.8197 24.7967 29.8361 24.3089 30.8197 23.691V23.626C30.8197 23.5284 30.7213 23.5284 30.6229 23.5284L26.0328 26.0325V26.065ZM24.7213 27.0406L24.6885 27.1707L24.5902 27.0731C24.5902 27.1056 24.5902 27.1382 24.5574 27.1707C24.5246 27.1382 24.4918 27.1056 24.459 27.1056C24.4918 27.2032 24.3606 27.1707 24.3279 27.2357C24.3606 27.3983 24.459 27.5934 24.6885 27.5284C24.8852 27.4634 24.918 27.2357 24.8524 27.0731C24.8197 27.0731 24.7541 27.0731 24.7213 27.0406ZM24.7541 28.2438C24.4918 28.2764 24.2295 28.3739 24.0328 28.569L24.7541 28.2438ZM24.3606 28.504L24.2623 28.6016L24.4262 28.504H24.3606ZM24.8197 28.0812C24.7869 28.0812 24.7541 28.0812 24.7213 28.0812H24.6885C24.6557 28.0812 24.6229 28.0812 24.6229 28.1138C24.6885 28.1138 24.7541 28.0812 24.8197 28.0812ZM23.8688 25.5772C23.9344 25.7073 24.0984 25.8048 24.2295 25.8699C24.4262 25.9024 24.5246 26.2276 24.7213 26.1951C24.7541 26.0325 24.5246 25.9349 24.6885 25.8048C24.6229 25.8048 24.5574 25.8373 24.5246 25.7723L24.6885 25.6422H24.3279L24.459 25.5121C24.3279 25.4471 24.2623 25.6422 24.1639 25.5447L24.2951 25.4146C24.1311 25.4146 24.0328 25.5121 23.8688 25.5772ZM23.2131 25.9999C23.6721 26.1625 24.1967 26.4877 24.3279 27.0081C24.4262 26.878 24.6557 26.813 24.7869 26.8455L24.6885 26.6829C24.5902 26.7154 24.5246 26.813 24.4262 26.7154C24.459 26.6178 24.5902 26.6504 24.6557 26.5853L24.4262 26.5528C24.459 26.5203 24.4918 26.4552 24.5574 26.4552L24.3606 26.4227C24.3606 26.3577 24.4262 26.3902 24.459 26.3251L24.1967 26.2926C24.2295 26.2276 24.2951 26.2601 24.3606 26.1951C24.2623 26.1951 24.1639 26.2276 24.0984 26.1625L24.2623 26.065L23.9672 26.0325C24 25.9999 24.0328 25.9999 24.0984 25.9674L23.8033 25.9349C23.8361 25.9024 23.8688 25.8699 23.9344 25.8699L23.6393 25.8373L23.7705 25.7398C23.5738 25.9024 23.1803 25.6747 23.2131 25.9999ZM22.9836 26.5528C23.377 26.6829 23.6065 27.1056 23.6721 27.4634C23.7049 27.6585 23.8033 27.691 23.9016 27.7235H23.9344C24 27.7235 24.0656 27.7235 24.0984 27.7235H24.1311C24.1639 27.7235 24.1967 27.7235 24.1967 27.756C24.2951 27.756 24.2623 27.626 24.3279 27.5609C24.2623 27.4634 24.2623 27.2682 24.0984 27.2682C24.0656 27.3658 24.1639 27.3658 24.1311 27.4634C24.0983 27.4308 24.0656 27.4308 24.0328 27.4308H24C23.9016 27.4308 23.8361 27.4634 23.8033 27.5284L23.7705 27.4308C23.7705 27.2032 24 27.1056 24.1639 27.0406C24.1967 26.943 24.1311 26.943 24.0656 26.943C24.0328 26.943 23.9672 26.943 23.9672 26.9105C24 26.878 24.0328 26.878 24.0328 26.813L23.8033 26.7804C23.8033 26.7804 23.8688 26.7154 23.9016 26.7154L23.6721 26.6829V26.6504C23.7049 26.6178 23.7049 26.5853 23.7705 26.5853H23.7377C23.6721 26.5853 23.6065 26.6178 23.5738 26.5528C23.6065 26.5203 23.6721 26.5203 23.7049 26.4552H23.4426L23.5082 26.3902L23.2787 26.3577L23.3115 26.3251C23.3115 26.3251 23.3115 26.3251 23.3443 26.3251L23.082 26.2926C23.1147 26.2926 23.1147 26.2601 23.1475 26.2276H23.1803C23.1803 26.2276 23.1803 26.2276 23.1475 26.2276L22.918 26.2601L23.0164 26.0975C22.918 26.0975 22.8197 26.1951 22.7213 26.1625C22.6885 26.1625 22.6885 26.1625 22.6557 26.13C22.6557 26.0975 22.6885 26.0975 22.6885 26.065L22.5574 26.1625C22.4918 26.4877 22.8852 26.4552 22.9836 26.5528ZM21.8033 27.7886H21.8688C22 27.6585 22.3606 27.6585 22.2295 27.3983C22.3606 27.4308 22.3606 27.2032 22.459 27.3658V27.2357C22.8197 27.3658 23.0492 27.691 23.4754 27.7886C23.6393 27.8211 23.6393 27.6585 23.6721 27.5284C23.6065 27.1382 23.377 27.626 23.2131 27.4308C23.2459 27.3008 23.2787 27.1707 23.3115 27.0406H23.2131V26.9105L23.0164 26.943L23.082 26.7804L22.7869 26.9105L22.8524 26.7154C22.7541 26.7154 22.6557 26.8455 22.5574 26.7479L22.5902 26.6829L22.4262 26.7154L22.459 26.5528L22.2623 26.6829C22.0656 26.8455 22.0328 27.1056 22.0328 27.3008C22 27.2682 21.9672 27.2032 21.9016 27.2032V27.5284C21.8033 27.5284 21.9016 27.756 21.8033 27.7886ZM21.2787 28.439C21.4754 28.6341 21.541 28.9268 21.7377 29.1219C21.7377 28.9918 21.5738 28.8617 21.6393 28.7317L21.8688 29.0243L21.8033 28.7967C21.7049 28.569 21.4754 28.3089 21.2131 28.3414C21.1475 28.4064 21.0164 28.504 21.1147 28.6341C21.541 28.6991 21.4754 29.2195 21.7377 29.4471C21.6065 29.0894 21.3443 28.7967 21.2787 28.439ZM21.8688 29.252C21.8361 29.2195 21.8033 29.2195 21.7705 29.2195C21.8361 29.252 21.7377 29.3821 21.8688 29.3495V29.252ZM23.0492 27.8536L22.9836 27.756C22.6885 27.7886 22.4918 28.0487 22.1967 28.1138C21.9344 28.1788 21.8361 28.5365 21.541 28.3089C21.5738 28.4715 21.7705 28.569 21.8361 28.6991L21.8688 28.504C22.2623 28.2764 22.7213 28.1463 23.0492 27.8536ZM23.1803 30.0325L23.7049 29.4796C23.541 29.3821 23.6721 29.0894 23.4098 29.0894C23.4098 28.9268 23.541 28.7317 23.6065 28.6666L23.3443 28.7967C23.0164 28.9268 22.7213 29.252 22.6229 29.5121L22.9508 29.2195C22.9508 29.3821 22.7213 29.4796 22.7213 29.6747C22.7541 29.6422 22.7541 29.6097 22.8197 29.6097C22.8852 29.6422 22.8197 29.7073 22.8197 29.7398L22.9508 29.7723C22.9836 29.8373 22.918 29.8373 22.918 29.9024L23.0492 29.8373C23.082 29.8699 23.082 29.9024 23.082 29.9349H23.2131C23.2459 29.9349 23.1803 29.9674 23.1803 30.0325ZM31.6393 35.9186L31.377 35.7235C31.4426 35.626 31.5082 35.7886 31.6393 35.7235L31.4754 35.5284L31.5082 35.4959C31.6393 35.5284 31.8033 35.5934 31.8361 35.5934L31.4426 35.3333C31.6065 35.3008 31.7705 35.4634 31.9672 35.4959C31.9016 35.3333 31.6721 35.3333 31.541 35.2032C31.6393 35.1056 31.8361 35.3008 31.9672 35.2357L31.6393 35.0081C31.8361 34.9756 32 35.2032 32.1967 35.1382C32.0328 35.0406 31.8033 34.9756 31.7049 34.813C31.8361 34.813 32.0656 34.943 32.1967 34.943L31.9016 34.6829C32.0328 34.6504 32.1639 34.7479 32.2951 34.7804L32.0984 34.5853C32.1967 34.5528 32.3606 34.6178 32.459 34.6504L32.0984 34.3251C32.1967 34.3251 32.3934 34.4552 32.459 34.3902L32.3279 34.2276C32.4262 34.1625 32.5574 34.3902 32.6557 34.2601L32.459 34.065C32.5902 33.9999 32.7213 34.1951 32.8197 34.0975L32.6557 33.9349C32.8197 33.8048 32.918 34.065 33.0164 33.9999C32.9508 33.9024 32.8197 33.8699 32.7541 33.7723H33.0164C33.0492 33.6422 32.8524 33.6747 32.8524 33.5447L33.1475 33.5772C33.1475 33.4471 32.9836 33.4471 32.918 33.3495C33.0492 33.252 33.1475 33.4146 33.2459 33.4471C33.2787 33.317 32.9508 33.2195 32.9508 33.0569C33.082 33.1869 33.377 33.1219 33.4098 33.317L33.4426 33.2845C33.377 33.1219 33.0164 33.0243 33.0164 32.8292C33.1803 32.8617 33.2787 33.0894 33.4754 33.0569L33.0492 32.6341L33.0164 32.6016C33.0492 32.6016 33.1147 32.6016 33.1475 32.6341C33.3115 32.6991 33.4426 32.8617 33.6065 32.9593C33.541 32.8292 33.4098 32.7317 33.3115 32.6341V32.6016C33.2131 32.5365 33.1475 32.4715 33.1147 32.4064C33.2459 32.4064 33.3443 32.569 33.4754 32.6341C33.541 32.6666 33.6065 32.6991 33.6721 32.6666L33.6393 32.6341L33.6065 32.6016C33.4426 32.4064 33.1475 32.3089 33.0492 32.0812L33.4098 32.2438C33.3443 32.0162 32.9836 31.9512 32.9508 31.7886L33.2131 31.8536C32.9836 31.6585 32.7213 31.5934 32.4918 31.4308C32.6557 31.3333 32.8524 31.5284 33.0492 31.5609C32.8852 31.3983 32.6557 31.3658 32.459 31.2682H32.7869L32.7541 31.2357C32.6229 31.1382 32.2623 31.1707 32.3279 30.9756L31.377 30.878C31.2787 30.9105 31.2459 31.0081 31.1475 30.9105V31.0731C31.0492 31.1056 31.0492 30.9756 30.9508 30.9756L31.0164 31.1382C30.9508 31.2682 30.8197 30.9756 30.8524 31.1056L30.918 31.2357C30.8852 31.3008 30.8197 31.2357 30.7869 31.2032V31.3983C30.7213 31.3983 30.6885 31.3333 30.6557 31.3008L30.6885 31.4959L30.6557 31.3658V31.3983C30.7541 31.4959 30.6885 31.5934 30.7869 31.6585C30.6557 31.7235 30.6885 31.5609 30.5574 31.4959C30.5246 31.626 30.6885 31.691 30.6229 31.8211L30.459 31.7235C30.459 31.8211 30.5902 31.8861 30.5246 31.9837L30.3606 31.8211C30.3606 31.9186 30.4262 31.9837 30.459 32.0812L30.2623 32.0162C30.2623 32.1138 30.3934 32.1788 30.3279 32.2764C30.2623 32.2764 30.1967 32.1463 30.1967 32.2113C30.1967 32.2764 30.3279 32.3414 30.1967 32.4064L30.1311 32.3414C30.2623 32.4715 30.1639 32.5691 30.0984 32.6991L30.0656 32.7642L30.0328 32.6991L29.9016 32.439C29.8688 32.5365 29.9016 32.569 29.9344 32.6341L29.9672 32.6666C30.0328 32.7642 30.0656 32.8292 30.0328 32.9268C29.9344 32.8943 29.9016 32.6666 29.8688 32.7317C29.6721 32.8617 29.9344 33.0894 29.9016 33.2195C29.7705 33.1869 29.8361 33.0569 29.7049 33.0243C29.7377 33.1869 29.8361 33.2845 29.7705 33.4146L29.6721 33.317C29.6721 33.4471 29.8033 33.4796 29.7049 33.5772L29.6065 33.5447L29.7705 33.8048C29.541 33.8699 29.8688 34.065 29.8033 34.1951L29.5738 33.9999L30.2295 34.8455C30.1639 34.878 30.1311 34.813 30.0984 34.813C29.9016 34.878 30.0984 34.9756 30.0656 35.0731C29.9672 35.0406 29.8688 35.0081 29.8033 34.9105L30.0656 35.3008C29.8033 35.1382 29.4754 34.8455 29.4426 34.5203L29.4098 34.5528L29.4426 34.5853C29.4754 34.7479 29.6721 34.943 29.4754 35.0731L29.4426 35.0406C29.377 35.0406 29.377 35.0731 29.3443 35.1056L29.1475 34.7804C29.1475 34.9756 29.3115 35.1382 29.2459 35.3008C29.1475 35.2032 29.1147 35.0731 29.0492 34.943C29.0492 35.1056 29.1475 35.2682 29.1147 35.3983L29.0492 35.3333V35.4634C29.2131 35.6585 28.9836 35.8536 29.082 36.0812C29.0164 36.0812 28.9836 36.1463 28.9836 36.1788V36.2113C28.9836 36.2764 29.0164 36.3414 28.9836 36.4064H28.9508C28.9508 36.6666 28.6557 36.8292 28.6229 37.0894C28.5574 36.8617 28.7213 36.6341 28.7213 36.4064C28.6557 36.6016 28.6229 36.8292 28.4918 36.9918L28.4262 36.9268C28.5246 36.7642 28.5246 36.6016 28.5574 36.439L28.3606 36.7317C28.2951 36.569 28.4918 36.3739 28.4262 36.2438L28.2295 36.6016C28.1311 36.4715 28.3279 36.3414 28.2295 36.2438L28.0656 36.504C28.0656 36.4064 28.0656 36.3414 28.0984 36.2438C28.1311 36.1463 28.1639 36.0487 28.1967 35.9837L28.0328 36.0487C28.0328 35.9186 28.1311 35.8211 28.1967 35.691C28 35.691 28 36.0162 27.8688 36.0162L28.0656 35.5934L27.8033 35.8536C27.7705 35.8211 27.7705 35.8211 27.7705 35.7886L27.6065 36.0162C27.541 35.9837 27.5738 35.9186 27.5738 35.8536C27.5082 35.8211 27.4098 35.8211 27.3443 35.7886L27.541 35.4959L27.5738 35.5284C27.5738 35.5934 27.541 35.626 27.541 35.691L27.6721 35.5609C27.7049 35.5934 27.7049 35.5934 27.7049 35.626H27.8688C27.9016 35.5284 28.0984 35.4308 28 35.2682L27.9344 35.3333C27.9016 35.3333 27.9016 35.3008 27.8688 35.3008C27.9016 35.2357 27.9344 35.1707 27.9344 35.1056L27.9016 35.1382C27.8361 35.1707 27.8033 35.1056 27.7705 35.0731C27.9344 34.943 27.6721 34.878 27.7705 34.6829C27.541 34.7479 27.7377 34.4877 27.6721 34.4552L27.6065 34.5203C27.4754 34.3577 27.4754 34.2276 27.3115 34.13C27.3115 34.0325 27.082 33.9999 27.2131 33.8699L27.082 33.8373C27.0492 33.7398 27.2131 33.6747 27.1475 33.5772C27.0164 33.6422 27.0164 33.8699 26.8524 33.8048C26.8197 33.6097 27.1475 33.5447 27.1147 33.3821L26.8524 33.6422C26.4262 33.6097 27.082 33.2845 26.9508 33.0569C26.7213 33.0243 26.7213 32.7967 26.6557 32.6341L26.5902 32.5365L26.459 32.6341L26.0983 32.8943L26.2623 32.6341L26.3606 32.4715L26.1639 32.6341L26.0656 32.7317C26.0656 32.6991 26.0328 32.6666 26.0656 32.6341C26.0984 32.504 26.3279 32.4064 26.3279 32.2764L25.9672 32.5365L25.9344 32.504L26.1967 32.1138C26 32.1138 26 32.439 25.8033 32.3739C25.8033 32.1788 26.0328 32.1463 26.1639 31.9512C26.0656 31.4959 25.8688 32.1463 25.6721 32.0487C25.7049 31.9186 25.9016 31.8536 26 31.691C26.1639 31.3658 25.6721 31.2032 25.8033 30.943L25.6065 30.9756C25.5738 30.9105 25.6393 30.9105 25.6721 30.878L25.5738 30.8455L25.6065 30.813C25.6393 30.7479 25.6393 30.7154 25.7049 30.6829C25.6065 30.6829 25.5738 30.8455 25.4754 30.7479C25.4754 30.6829 25.5738 30.6504 25.6065 30.5853L25.4098 30.6178L25.541 30.3902C25.4754 30.3902 25.4426 30.5203 25.377 30.4227C25.4098 30.3577 25.541 30.3251 25.5082 30.1951C25.4426 30.1951 25.4098 30.2926 25.3443 30.1951C25.4426 29.9674 25.3115 29.8048 25.2131 29.6747L25.2787 29.4796L25.0492 29.3821C25.1147 29.1869 25.5082 29.4146 25.5738 29.1869C25.541 29.1869 25.5082 29.1869 25.5082 29.1544L25.6393 29.0569L25.7049 28.9918H25.6721H25.6393C25.5082 28.9918 25.3443 29.0569 25.2787 28.8943L25.3115 28.8617C25.3115 28.8617 25.3115 28.8617 25.3443 28.8617H25.377H25.4098C25.4426 28.8617 25.4426 28.8617 25.4426 28.8943C25.4426 28.7967 25.7049 28.7967 25.6065 28.6666C25.7377 28.6016 25.9344 28.6016 25.9672 28.4715C25.8688 28.504 25.7705 28.6016 25.6393 28.504C25.7049 28.3414 25.9016 28.439 26.0328 28.3089L25.7705 28.2764C25.7705 28.2438 25.7705 28.2438 25.8033 28.2113H25.7377C25.7377 28.0812 26 28.0812 26.0983 27.9837C25.7377 27.8861 26.2295 27.8861 26.2295 27.7235C26.1311 27.7235 26.0656 27.8536 25.9672 27.756L26.2295 27.5609C26.1967 27.5609 26.1967 27.5609 26.1639 27.5609H26.1311C26.0984 27.5609 26.0983 27.5609 26.0983 27.5284L26.2295 27.3983L26.1311 27.3008L26.1967 27.2357C26.0656 27.0731 26.1311 26.8455 26.1639 26.6178L26.0328 26.5853C26.0328 26.5203 26.0984 26.4877 26.1311 26.4552H25.9016C25.9016 26.4227 26 26.3577 26.0328 26.3577C25.8361 26.4227 25.7377 26.2601 25.6065 26.1951L25.7049 26.0975C25.7049 26.065 25.7049 26.0325 25.6721 25.9999L25.6393 26.2601L25.5738 26.13C25.377 26.13 25.1803 25.9024 25.1147 25.7073L25.1803 25.6422C25.2131 25.6747 25.2459 25.7398 25.3115 25.7398C25.2459 25.7073 25.1803 25.5772 25.082 25.5772C25.0492 25.5772 25.0492 25.5772 25.0164 25.6097C24.8524 25.7073 24.8852 25.9024 24.8852 26.065C24.9836 26.4552 25.377 26.6504 25.6393 26.813C25.6721 26.9756 25.5738 27.0406 25.7049 27.1707C25.6721 27.2357 25.6393 27.1707 25.6065 27.1707L25.7049 27.2682C25.541 27.2682 25.6065 27.4634 25.541 27.4308C25.541 27.4308 25.5082 27.4308 25.5082 27.3983C25.6393 27.4959 25.377 27.4959 25.5082 27.5934L25.377 27.6585L25.4426 27.7235C25.2459 27.756 25.4426 27.8861 25.2459 27.9186L25.377 28.0487C25.377 28.0812 25.3443 28.0812 25.3443 28.0812H25.3115C25.2787 28.0812 25.2787 28.0812 25.2459 28.0812C25.2459 28.0812 25.2459 28.0812 25.2131 28.0812C25.2131 28.1138 25.2131 28.1463 25.2459 28.1788C25.0492 28.2764 24.7869 28.3089 24.6557 28.5365L24.7213 28.6341L24.2623 28.9593L24.5246 28.8617L24.2295 29.1544C24.2951 29.0894 24.3934 29.0243 24.4918 29.0243C24.5246 29.0243 24.5246 29.0243 24.5574 29.0243L24.4262 29.1219L24.0984 29.3821C24.2295 29.2845 24.3606 29.1544 24.4918 29.1869L24.2295 29.4471L24.5246 29.3495C24.4918 29.4796 24.3606 29.4796 24.2951 29.5772H24.5246L24.3606 29.7723C24.3934 29.8048 24.4918 29.7723 24.459 29.9024H24.5246C24.6229 29.9674 24.459 29.9999 24.459 30.0975L24.6557 30.065C24.6885 30.13 24.5902 30.1625 24.5902 30.2276L24.7213 30.2601L24.5574 30.4877C24.5902 30.4877 24.6229 30.4877 24.6557 30.5203C24.6229 30.5528 24.6229 30.5853 24.6229 30.6178C24.6885 30.6178 24.7541 30.5853 24.7869 30.6504C24.7541 30.7154 24.6229 30.7479 24.6557 30.8455C24.7213 30.878 24.7213 30.9105 24.6885 30.943C24.6557 31.0081 24.5574 31.0731 24.5902 31.1707C24.6885 31.1707 24.7541 30.943 24.8524 31.0406C24.7541 31.1056 24.7541 31.2357 24.6229 31.3008C24.7213 31.2682 24.7869 31.1056 24.918 31.2032C24.7541 31.3983 24.5574 31.691 24.3279 31.691L24.3606 31.5934C24.0656 31.5934 24.5246 31.3658 24.3934 31.2357L24.1967 31.3333C24.0983 31.2682 24.2623 31.2032 24.2623 31.1382H24.1967C24.1311 31.1056 24.1639 31.0406 24.1639 30.9756C24.1311 30.943 24.0984 30.943 24.0656 30.9105C23.9672 30.7804 24.0656 30.5528 24 30.4552C23.9016 30.2276 23.7705 30.0325 23.8033 29.8373L23.6721 29.7723C23.6721 29.7398 23.6721 29.7073 23.7049 29.6747C23.4754 29.7723 23.2459 29.9674 23.1803 30.2276L23.377 30.065C23.4754 30.1625 23.3115 30.1951 23.3115 30.2926L23.5082 30.1625C23.541 30.2276 23.4754 30.2926 23.4426 30.3577L23.5738 30.3251C23.5738 30.4227 23.5082 30.4552 23.4754 30.5528C23.8688 30.4227 23.377 30.7479 23.541 30.9105H23.6065V30.943C23.5738 31.0731 23.7049 31.1382 23.6065 31.3008C23.6393 31.3008 23.7049 31.2682 23.7377 31.3333C23.6393 31.5284 23.8688 31.5934 23.7377 31.7886H23.9016L23.7705 31.9186C23.8033 31.8861 23.8361 31.8211 23.9016 31.8211C23.9672 31.9186 23.8361 31.9837 23.8033 32.0812L24 31.9512C24.0656 31.9837 24 32.0487 24 32.0812L24.0984 32.1138L23.9672 32.3414L24.1311 32.3089C24 32.439 24.0984 32.5365 24.0656 32.6666C24.2295 32.7642 24.0984 32.8617 24.0656 32.9918L24.2295 32.8617C24.2951 32.9918 24.1639 33.0894 24.1311 33.1869L24.2951 33.0569C24.3279 33.1544 24.1639 33.2845 24.1639 33.4471L24.3606 33.3495L24.2623 33.7073C24.3934 33.6097 24.2951 33.5121 24.459 33.4146C24.5246 33.6097 24.2623 33.7723 24.3279 33.9349C24.3934 33.8373 24.3934 33.6747 24.5246 33.7073L24.3934 34.13C24.4918 34.0325 24.5246 33.8373 24.6557 33.8699L24.4918 34.2601L24.6557 34.13C24.6885 34.2926 24.5246 34.4227 24.4918 34.5853L24.6885 34.3902C24.7541 34.5203 24.5902 34.6504 24.5902 34.813L24.7541 34.5853C24.8197 34.7154 24.6557 34.813 24.6557 34.9756L24.8197 34.9105L24.7541 35.1707L24.918 34.9756C24.918 35.1707 24.8197 35.2357 24.7869 35.4308L24.9508 35.2032C25.0164 35.4308 24.8524 35.5284 24.8852 35.7235L25.0492 35.4308C25.1147 35.6585 24.9836 35.7235 24.9836 35.9837L25.2131 35.5934C25.2131 35.7886 25.1475 35.8861 25.082 36.0812V36.1138L25.1147 36.0812L25.3443 35.7235C25.3443 35.8861 25.2787 36.0487 25.2459 36.2113C25.2131 36.2764 25.2459 36.2438 25.2131 36.3089C25.2787 36.2438 25.2131 36.2438 25.3115 36.2113C25.3115 36.2113 25.3443 36.1788 25.3443 36.2113C25.3443 36.3089 25.4098 36.2113 25.4754 36.2113C25.4754 36.2113 25.5082 36.2113 25.5082 36.2438C25.4754 36.4064 25.4426 36.5365 25.4098 36.6991L25.541 36.5365L25.5738 36.569C25.541 36.6991 25.5082 36.8292 25.4754 36.9593L25.6393 36.6666C25.6721 36.7967 25.5738 37.0243 25.6065 37.1219L25.7377 36.9593C25.8361 37.0569 25.7049 37.1219 25.7377 37.252L25.8361 37.1219C25.9344 37.252 25.8033 37.3495 25.8361 37.5121L25.9672 37.317C26.0328 37.3821 26 37.4796 25.9672 37.5772L26.0656 37.4146C26.2295 37.5121 26.0328 37.6422 26.0983 37.7723L26.1639 37.6747C26.3934 37.6747 26.2951 37.9674 26.3279 38.13C26.3934 38.0325 26.3279 37.9024 26.459 37.8373L26.4918 38.2601C26.4918 38.1625 26.5246 38.0975 26.5902 38.065L26.6229 38.6178C26.7213 38.5203 26.5902 38.3577 26.7213 38.2601L26.7869 38.6178C26.8197 38.5528 26.8524 38.4877 26.8852 38.4227C26.9836 38.5528 26.8524 38.6829 26.8852 38.8455L27.0492 38.5853C27.082 38.6504 27.0492 38.7804 27.0164 38.878C27.0492 38.8455 27.0492 38.8455 27.082 38.8455C27.1475 38.8455 27.082 39.1382 27.2459 39.0406C27.082 39.3983 27.541 39.4308 27.6393 39.6585L27.6721 39.626L27.8361 39.756L27.9344 39.6585C27.9672 39.7886 28.0328 39.7886 28.1311 39.756C28.1639 39.756 28.2295 39.7886 28.2623 39.7886H28.3279C28.6229 39.756 28.9836 39.6585 29.1803 39.3658C29.4754 39.3008 29.3115 38.9756 29.5082 38.813C29.5082 38.813 29.5082 38.813 29.541 38.813C29.6065 38.813 29.6393 38.943 29.6721 38.8455C29.7049 38.7804 29.6065 38.7479 29.5738 38.6829C29.6721 38.6178 29.6065 38.5528 29.6065 38.4877L29.7705 38.4552L29.7377 38.3577H29.9672L29.9016 38.2601C30 38.1625 30.0983 38.13 30.1967 38.13C30.2295 38.13 30.2295 38.13 30.2623 38.13L30.0328 37.9674C30.1311 37.9674 30.1311 37.8373 30.2295 37.8048C30.2623 37.8048 30.2951 37.8048 30.3279 37.8699V37.7073C30.3606 37.6747 30.4262 37.5772 30.4918 37.5772C30.5246 37.5772 30.5246 37.5772 30.5574 37.6097C30.4262 37.4471 30.6557 37.4471 30.6885 37.2845C30.7213 37.2845 30.7541 37.3495 30.8197 37.3495C30.8197 37.3495 30.8197 37.3495 30.8524 37.3495C30.7869 37.2195 30.8197 37.1219 30.8197 36.9918L31.0492 36.9593C30.9836 36.9268 30.918 36.9268 30.8852 36.8617L31.0492 36.7967C31.0164 36.7642 31.0164 36.7317 31.0164 36.6991H31.2787L31.1475 36.5365L31.1803 36.504C31.1803 36.504 31.1803 36.504 31.2131 36.504V36.3739H31.2459C31.3115 36.3739 31.377 36.439 31.4426 36.439C31.4754 36.439 31.4754 36.439 31.5082 36.4064L31.2787 36.2113H31.5082C31.5082 36.1463 31.4426 36.1138 31.4098 36.1138C31.377 36.0812 31.3115 36.0812 31.2787 36.0162C31.3443 35.9512 31.4098 36.0162 31.5082 36.0162L31.377 35.7886C31.4754 35.8861 31.5738 35.9837 31.6393 35.9186ZM25.2787 27.2032C25.2459 27.0731 25.2131 26.9756 25.1475 26.8455V27.1382L24.9836 27.0731V27.1056C25.0164 27.2357 25.1803 27.2682 25.2787 27.2032ZM29.8033 34.4878L29.9016 34.5853L29.7049 34.3902L29.8033 34.4878ZM31.8361 36.1788L31.8033 36.2764H31.9016C31.9016 36.2113 31.8688 36.2113 31.8361 36.1788ZM32.2295 36.7642C32.1311 36.6666 32 36.5691 31.8688 36.6016L31.8361 36.7967C31.8361 36.8943 31.9344 36.9268 32.0328 36.9268V36.7967L32.2295 36.7642ZM33.9344 34.065C33.9672 34.0325 34 33.9999 34.0328 33.9999C34 33.9349 34.1311 33.7723 34 33.7073C34 33.9674 33.5738 33.8048 33.6065 34.13C33.4098 33.9999 33.6065 34.3577 33.377 34.2926C33.3443 34.5203 33.2131 34.5853 33.1147 34.7804C33.082 34.7479 33.0492 34.7154 33.0164 34.7154C33.0492 34.8455 33.0164 34.943 32.918 35.1056L32.8197 35.0731C32.7869 35.1382 32.7541 35.2357 32.6557 35.2032L32.6885 35.3983C32.6229 35.3983 32.5246 35.4308 32.459 35.3658L32.4918 35.4959C32.3934 35.626 32.2623 35.8536 32.1311 35.8211L32.1639 35.9837C31.9672 36.1138 32.0328 36.504 31.7377 36.4715C31.8688 36.569 32 36.569 32.1639 36.6341L32.0984 36.504H32.3934L32.1639 36.3089C32.2295 36.2764 32.4918 36.3739 32.459 36.3414L32.3606 36.2438L32.7213 36.2764C32.5902 36.1463 32.4262 36.1138 32.3279 35.9837C32.459 35.9186 32.6229 36.1138 32.7541 36.0812L32.459 35.8536C32.5902 35.8211 32.7869 36.0162 32.9508 35.9512L32.6557 35.756C32.7541 35.626 32.8197 35.8536 32.9508 35.7886L32.9836 35.626L33.1803 35.6585L32.9836 35.4634H33.2131C33.1803 35.4308 33.1475 35.4308 33.1475 35.3658H33.377L33.2787 35.2357C33.4754 35.2032 33.3115 35.1707 33.4098 35.0406L33.6065 35.1056L33.541 34.9105C33.7049 34.943 33.4754 34.813 33.6065 34.7479C33.6721 34.7479 33.7705 34.878 33.8361 34.7804L33.6065 34.6504L33.6721 34.5853L33.7049 34.6178C33.9016 34.6503 33.8033 34.5528 33.8688 34.4552L34 34.4878C33.9672 34.3902 34.1967 34.2276 33.9344 34.065ZM34.6229 32.3739H34.5246V32.6016H34.6229V32.3739ZM35.6393 33.0894H35.5738V33.2845H35.6393V33.0894ZM35.9672 32.7317L35.9344 32.2764L35.9016 32.7642L35.9672 32.7317ZM36.2295 33.6747L36.0328 33.8699L36.1639 33.9024L36.2295 33.6747ZM36.7213 33.3495C36.5902 33.317 36.459 33.3821 36.459 33.4796C36.5574 33.4471 36.6885 33.4471 36.7213 33.3495ZM37.0492 31.8536C37.0164 32.1138 36.8524 32.4064 36.918 32.6666H36.9836C36.9836 32.4064 37.1475 32.1463 37.0492 31.8536ZM26.0328 31.9837L25.8361 32.1788L25.9672 32.1138L26.0328 31.9837ZM27.082 35.0731L26.9836 35.1707L27.1475 34.8455L27.082 35.0731ZM27.4098 35.4959L27.3115 35.5934L27.4754 35.3008L27.4098 35.4959ZM25.8033 31.7235H25.8688L25.7705 31.8211L25.8033 31.7235ZM29.0164 39.0731L29.0492 39.0406L28.9836 38.943L29.0164 39.0731ZM28.2295 39.3008L28.3934 39.4959L28.3606 39.5284L28.2295 39.3008ZM28.3934 39.3008L28.5246 39.4634L28.5574 39.4308L28.3934 39.3008ZM27.377 35.2032L27.2787 35.4308L27.2131 35.4959L27.377 35.2032ZM26.6557 33.4146L26.8524 33.1869L26.8197 33.1544L26.6557 33.4146ZM25.7705 34.3577C25.8033 34.2601 26 34.1625 25.9344 34.0975C25.8361 34.1625 25.7049 34.2926 25.7705 34.3577ZM26.6885 33.0243C26.6229 33.1219 26.5574 33.2195 26.4918 33.317C26.4262 33.252 26.6229 33.1544 26.6885 33.0243ZM26.3606 33.1544L26.5902 32.8943L26.6229 32.9268L26.3606 33.1544ZM25.8033 33.9999L25.6065 34.2601L25.6393 34.2926L25.8033 33.9999ZM25.4426 34.1951C25.377 34.0975 25.5738 33.9674 25.6393 33.9024C25.6393 33.9674 25.541 34.13 25.4426 34.1951ZM25.3443 34.065C25.3115 33.9674 25.4426 33.8373 25.541 33.7723C25.541 33.9024 25.377 33.9674 25.3443 34.065ZM26.4262 34.813C26.5574 34.7154 26.6229 34.5853 26.6885 34.4552C26.5902 34.5203 26.4262 34.7154 26.4262 34.813ZM25.6721 31.7235L25.8688 31.5284L25.8361 31.4959L25.6721 31.7235ZM26.6885 34.7479H26.6557L26.7541 34.5853C26.8524 34.6178 26.6885 34.6829 26.6885 34.7479ZM26.459 32.7642L26.2295 33.0569L26.3279 32.9593L26.459 32.7642ZM26.3934 34.0325C26.3279 34.1951 26.1967 34.3251 26.0983 34.4552C26.1639 34.2926 26.2623 34.0975 26.3934 34.0325ZM26.0328 34.2601L26.0983 34.2276L26.3279 33.8699L26.0328 34.2601ZM26.3606 34.4552L26.459 34.1951L26.1967 34.5853C26.2295 34.5528 26.2623 34.5528 26.3279 34.5203L26.3606 34.6504L26.5902 34.3577L26.3606 34.4552ZM24.9508 31.6585C24.8524 31.8211 24.7213 31.9837 24.5902 32.1138C24.5574 31.9837 24.8197 31.8211 24.9508 31.6585ZM24.8524 33.0569C24.7541 32.9593 24.7869 32.8617 24.8524 32.7317L24.8852 32.6991C24.8524 32.6341 24.7869 32.7642 24.7541 32.7642C24.8197 32.569 24.9836 32.3739 25.1475 32.2438L24.9836 32.5691L25.2131 32.4715C25.3115 32.6666 24.9836 32.8617 24.8524 33.0569ZM25.0164 31.4959L24.8197 31.5284C24.8524 31.4308 24.9508 31.3983 24.9836 31.3008C24.7869 31.4308 24.5574 31.5934 24.4262 31.7886H24.5902L24.5246 31.9837L25.0164 31.4959ZM25.082 32.0487C24.9836 31.9837 25.0164 31.9186 25.082 31.8211C24.9508 31.9837 24.6557 32.1138 24.5574 32.3414L24.7869 32.2764L24.6229 32.6016C24.8852 32.4715 24.9508 32.2438 25.082 32.0487ZM25.6065 31.5609L25.7377 31.3658L25.7705 31.3983L25.6065 31.5609ZM25.4098 33.6422L25.2787 33.9024L25.377 33.8048L25.4098 33.6422ZM25.5738 33.0569L25.7049 32.8943L25.6721 32.8617L25.5738 33.0569ZM25.541 32.8292L24.9836 33.4796L25.0164 33.5121L25.541 32.8292ZM24.8852 33.2845C25.082 33.1544 25.2787 32.8292 25.4098 32.6341L24.8852 33.2845ZM25.377 33.4796L25.2131 33.7398L25.3443 33.6097L25.377 33.4796ZM25.3115 33.2845L25.1147 33.5447L25.2131 33.4796L25.3115 33.2845ZM31.1147 22.4227V22.3577L30.9836 22.2276L31.1147 22.4227ZM29.8688 21.5447L29.7377 21.6422C29.7377 21.6422 29.8033 21.7398 29.8361 21.7723C29.8361 21.7398 29.8361 21.7398 29.8361 21.7398V21.7073C29.8361 21.6747 29.8361 21.6747 29.8688 21.6422V21.6747C29.9016 21.7398 30 21.8373 30 21.9349V21.9674V21.9999C30 21.9999 29.9016 21.9349 29.8688 21.9024C29.9344 22.1951 30.1311 22.4877 30.2951 22.7479C30.2951 22.7479 30.3934 22.9105 30.459 23.0081C30.459 22.878 30.3606 22.7479 30.2951 22.6178C30.2295 22.4877 30.1311 22.3902 30.1311 22.2601V22.2276H30.1639C30.2951 22.3251 30.3606 22.4552 30.3934 22.5853C30.4918 22.7804 30.5574 22.9756 30.7869 22.943L30.6885 22.7804C30.6229 22.6829 30.5574 22.5528 30.5574 22.4552V22.4227L30.5902 22.4552C30.6885 22.5853 30.7541 22.7154 30.8524 22.8455C30.918 22.9756 31.0164 23.1382 31.1147 23.2682L31.0492 23.1056L30.9836 22.878V22.8455L31.0164 22.878C31.3115 23.3333 31.5738 23.7886 31.8361 24.3089C32.1311 24.8617 32.4262 25.3821 32.7869 25.9024L32.7541 25.7398C32.6885 25.317 32.6229 24.8617 32.3934 24.3089C32.1639 24.0812 32.0328 23.8211 31.8688 23.5284L31.5082 22.943V22.7804V22.7154L31.8361 23.2682C31.9672 23.4959 32.0984 23.7235 32.2623 23.9512C32.1311 23.4959 31.8688 23.1056 31.6065 22.6829L31.377 22.3251L30.5246 21.3821C30.2623 21.2195 30.0328 21.4146 29.8688 21.5447ZM30.3606 21.9349L30.1311 21.5121L30.3934 21.8699V21.9024L30.3606 21.9349ZM30.7869 22.1625V22.0975L30.7213 22.0325L30.7869 22.1625ZM30.459 22.4877L30.3606 22.3251L30.4918 22.4227L30.459 22.4877ZM31.0164 22.5853L31.377 23.2357C31.2131 23.0731 31.082 22.8455 31.0164 22.5853ZM31.4098 23.0081C31.5082 23.0081 31.5082 23.1382 31.5738 23.2032C31.4754 23.2357 31.4754 23.0731 31.4098 23.0081ZM32.5246 24.9918V24.9268L31.6393 23.3658H31.6065L32.5246 24.9918ZM32.1311 24.7317L31.8688 24.2113C32 24.3739 32.1967 24.504 32.1311 24.7317ZM32.6557 25.5447V25.4471L32.2623 24.7967L32.6557 25.5447ZM35.5082 31.3333C35.377 31.3333 35.3115 31.3008 35.2787 31.2682C35.2459 31.2357 35.2131 31.1707 35.2131 31.1056C35.2131 31.0406 35.2131 30.9756 35.2131 30.943C35.2131 30.878 35.2131 30.813 35.2131 30.7479C35.2131 30.6503 35.1803 30.5853 35.1475 30.5203L35.082 30.5853L34.9836 30.4877C34.8852 30.4552 34.8197 30.3902 34.8197 30.2926C34.8197 30.3577 34.7541 30.3902 34.7213 30.3902V30.3577L34.6885 30.065C34.6557 30.0975 34.5902 30.1951 34.5902 30.1951C34.5902 30.1951 34.4918 30.0325 34.4918 29.9999L34.459 30.0325L34.3279 29.8373C34.3279 29.8699 34.2951 29.8699 34.2951 29.9024H34.2623C34.2295 29.8373 34.1967 29.8048 34.1311 29.7723C34.0656 29.7398 34 29.7073 34 29.5772H33.9672C33.9344 29.5772 33.9344 29.5772 33.9016 29.6097C33.7705 29.6097 33.6721 29.5121 33.6065 29.4471L33.4754 29.3495L33.5082 29.3821C33.541 29.4146 33.5738 29.4471 33.541 29.4796C33.4098 29.4796 33.2459 29.3495 33.1147 29.252L32.9508 29.1544H33.0164C33.0164 29.1544 33.0492 29.1544 33.082 29.1544L32.9508 29.0894C32.8852 29.0569 32.8197 28.9918 32.7541 28.9918H32.7213L32.6885 29.0894H32.6557L32.5246 29.0569L32.3934 29.0243C32.3934 29.0243 32.3606 29.0569 32.2951 29.0569L32.4262 29.0894C32.4918 29.0894 32.5574 29.1219 32.5902 29.1869V29.2195H32.4262C32.2951 29.2195 32.1311 29.2195 32.0656 29.0894C32.0328 29.1544 31.9672 29.1544 31.9016 29.1544H31.8688C31.8361 29.1544 31.8033 29.1544 31.7705 29.2195L31.6393 29.1869C31.2787 29.252 30.9836 29.4796 30.7213 29.8699C30.7541 29.9349 30.6885 30.0325 30.6229 30.0975C30.5574 30.1625 30.4918 30.2276 30.5246 30.3251C30.6557 30.4552 30.7869 30.4877 30.8852 30.4877H30.918H31.0492H31.2131H31.3115C31.4098 30.4877 31.4754 30.4877 31.5738 30.6504C31.5738 30.6178 31.6065 30.6178 31.6065 30.6178L31.6721 30.5853L31.7377 30.5528L31.9016 30.5203H31.9344C32 30.5203 32.0656 30.5853 32.0984 30.6829L32.2295 30.6504C32.2951 30.6504 32.3606 30.6829 32.459 30.7479L32.5902 30.813L32.6885 30.7804L32.8197 30.813L32.918 30.8455C32.9836 30.8455 33.0164 30.813 33.0164 30.7154V30.6829H33.0492C33.1147 30.7479 33.1803 30.813 33.2131 30.9105C33.2459 31.0081 33.2787 31.0731 33.377 31.1382C33.4426 31.1056 33.4426 31.0406 33.4754 31.0081L33.5082 30.943V30.9756C33.5082 30.9756 33.5738 31.0731 33.6393 31.1056C33.7049 31.1707 33.7705 31.2357 33.8688 31.3008C33.8688 31.3333 33.8361 31.3983 33.8361 31.3983C33.8361 31.4634 33.9016 31.4959 33.9672 31.5284C34.0328 31.5609 34.0983 31.5934 34.1311 31.691L34.1967 31.5284V31.4959L34.2295 31.5284C34.2951 31.5934 34.2951 31.6585 34.2951 31.756L34.3606 31.6585L34.459 31.9837L34.5902 32.3414V32.2438V32.1788L34.6229 32.0812L34.6557 32.1138L34.7869 32.5691V32.6016C34.918 32.6991 34.9508 32.8617 34.9508 33.0569V33.2845C34.9508 33.3821 34.9508 33.4796 34.9836 33.5772C35.0164 33.3821 35.0492 33.1869 35.0492 32.9593C35.0492 32.7317 35.082 32.504 35.1475 32.3089L35.1803 32.5365L35.1475 32.9918L35.1147 33.4796L35.1475 33.7073C35.2131 33.2845 35.2131 32.8617 35.2459 32.439L35.2787 31.7886C35.2787 31.7886 35.3115 31.8211 35.3443 31.8536C35.3443 31.8211 35.3443 31.8211 35.3443 31.7886C35.3443 31.691 35.377 31.626 35.4426 31.5934C35.4754 31.5934 35.4754 31.6585 35.4754 31.6585C35.4754 31.5934 35.5082 31.5609 35.5738 31.5609C35.6393 31.8536 35.6393 32.2113 35.6721 32.5365L35.7049 33.0243C35.7049 32.8292 35.7377 32.6341 35.7377 32.4064C35.6393 31.9512 35.6065 31.626 35.5082 31.3333ZM31.9672 29.4471C32.1311 29.3821 32.1311 29.317 32.3279 29.3821C32.1639 29.4146 32.0656 29.6422 31.9672 29.4471ZM32.1639 29.252L32.4262 29.2845L32.459 29.3495L32.1639 29.252ZM33.3115 29.8373C33.4426 29.7073 33.3115 29.5772 33.2459 29.5121C33.3443 29.4796 33.377 29.6097 33.4754 29.6747L33.5082 29.9024C33.4426 29.8699 33.3443 29.8373 33.3115 29.8373ZM34.5574 31.2682L34.5902 31.0731L34.6229 31.2682H34.5574ZM34.918 31.1382C34.8524 31.1707 34.8852 31.2357 34.8852 31.2682L34.7869 31.1707C34.7541 31.2032 34.7213 31.2032 34.6885 31.2032V31.0731C34.7869 31.2032 34.9836 30.8455 35.0492 31.0406L35.1147 30.813L35.1475 31.3658C35.0164 31.3658 34.9836 31.2032 34.918 31.1382Z" fill="#004B8D"/>
<path d="M22.5574 41.4796C22.5902 41.3821 22.5902 41.2845 22.5574 41.1544C22.5574 41.0569 22.5246 40.9593 22.459 40.8618C22.4262 40.7642 22.3606 40.6992 22.2623 40.6341C22.1311 40.5366 21.9672 40.4715 21.8033 40.4715C21.6393 40.4715 21.5082 40.504 21.3443 40.5691C21.1803 40.6341 21.0492 40.7317 20.8852 40.8618C20.7541 40.9918 20.6229 41.1219 20.4918 41.2845C20.3606 41.4471 20.2623 41.6097 20.1967 41.7723C20.0984 41.9349 20.0656 42.0975 20.0328 42.2601C20 42.4227 20.0328 42.5853 20.0656 42.7154C20.0984 42.878 20.1967 43.0081 20.3606 43.1057C20.5574 43.2683 20.7541 43.3008 20.9836 43.2357C21.2131 43.1707 21.4426 43.0406 21.6393 42.813L22.2623 43.3008C22.0656 43.5284 21.8688 43.691 21.6721 43.8211C21.4754 43.9512 21.2459 44.0488 21.0492 44.0813C20.8525 44.1138 20.6229 44.1138 20.4262 44.0813C20.2295 44.0488 20.0328 43.9512 19.8688 43.7886C19.6393 43.626 19.4754 43.3983 19.377 43.1707C19.2787 42.9431 19.2131 42.6829 19.2459 42.4227C19.2459 42.1626 19.3115 41.8699 19.4098 41.6097C19.5082 41.317 19.6721 41.0569 19.8688 40.7967C20.0656 40.5366 20.2951 40.3089 20.5574 40.1138C20.7869 39.9187 21.0492 39.7886 21.3115 39.7236C21.5738 39.6585 21.8361 39.626 22.0656 39.6585C22.3279 39.691 22.5574 39.7886 22.7869 39.9837C22.9508 40.1138 23.082 40.2439 23.1803 40.4065C23.2787 40.5691 23.3443 40.7642 23.377 40.9593C23.4098 41.1544 23.377 41.3821 23.3443 41.5772C23.2787 41.8049 23.1803 42.0325 23.0492 42.2601L22.4262 41.7723C22.4918 41.6748 22.5574 41.5772 22.5574 41.4796Z" fill="white"/>
<path d="M23.5082 42.3253C23.7049 42.0976 23.9016 41.9025 24.1311 41.7399C24.3606 41.6098 24.5902 41.5122 24.8524 41.4797C25.1147 41.4472 25.377 41.4797 25.6393 41.5773C25.9016 41.6748 26.1311 41.8374 26.2623 42.0326C26.4262 42.2277 26.5246 42.4553 26.5902 42.7155C26.6557 42.9757 26.6557 43.2683 26.6229 43.561C26.5902 43.8537 26.5246 44.1789 26.3934 44.5041C26.2623 44.8293 26.0984 45.0895 25.9344 45.3171C25.7377 45.5448 25.541 45.7399 25.3115 45.9025C25.082 46.0326 24.8524 46.1301 24.5902 46.1626C24.3279 46.1952 24.0656 46.1627 23.8033 46.0326C23.541 45.935 23.3443 45.7724 23.1803 45.5773C23.0164 45.3822 22.918 45.1545 22.8524 44.8944C22.7869 44.6342 22.7869 44.374 22.8197 44.0488C22.8524 43.7561 22.918 43.4309 23.0492 43.1383C23.1803 42.8456 23.3443 42.5529 23.5082 42.3253ZM23.6393 43.9838C23.6065 44.1789 23.6065 44.3415 23.6065 44.5041C23.6393 44.6667 23.6721 44.8293 23.7705 44.9594C23.8688 45.0895 23.9672 45.187 24.1639 45.2521C24.3279 45.3171 24.4918 45.3496 24.6557 45.3171C24.8197 45.2846 24.9508 45.2196 25.082 45.122C25.2131 45.0244 25.3115 44.8944 25.4426 44.7318C25.541 44.5692 25.6393 44.4066 25.7049 44.244C25.7705 44.0488 25.8361 43.8537 25.8688 43.6911C25.9016 43.496 25.9016 43.3334 25.9016 43.1708C25.9016 43.0082 25.8361 42.8456 25.7377 42.7155C25.6393 42.5854 25.541 42.4879 25.3443 42.4228C25.1803 42.3578 25.0164 42.3253 24.8524 42.3578C24.6885 42.3903 24.5574 42.4553 24.4262 42.5854C24.2951 42.683 24.1967 42.8131 24.0656 42.9757C23.9672 43.1383 23.8688 43.3009 23.8033 43.496C23.7377 43.6261 23.6721 43.8212 23.6393 43.9838Z" fill="white"/>
<path d="M27.082 45.8699L26.8525 46.8455L26.0656 46.6504L26.2951 45.7073L27.082 45.8699Z" fill="white"/>
<path d="M28.4262 46.0976L28.2951 47.0732C28.2623 47.2033 28.2295 47.3334 28.1639 47.4635C28.0983 47.5935 28.0328 47.6911 27.9344 47.7561C27.8361 47.8212 27.7705 47.8862 27.6393 47.9513C27.541 47.9838 27.4098 48.0163 27.3115 48.0163L27.377 47.561C27.4426 47.561 27.4754 47.5285 27.541 47.496C27.6065 47.4635 27.6393 47.4309 27.6721 47.3659C27.7049 47.3334 27.7377 47.2683 27.7705 47.2033C27.8033 47.1383 27.8033 47.0732 27.8361 47.0082L27.4754 46.9431L27.6065 45.9675L28.4262 46.0976Z" fill="white"/>
<path d="M31.0819 42.5744L30.2625 42.5974L30.3943 47.2135L31.2136 47.1904L31.0819 42.5744Z" fill="white"/>
<path d="M32.4918 42.4227L34.7213 45.0569L34 42.065L34.7213 41.8699L35.8033 46.3577L35.0164 46.5528L32.8197 43.8861L32.7869 43.9187L33.5082 46.9105L32.7869 47.0731L31.7049 42.6178L32.4918 42.4227Z" fill="white"/>
<path d="M37.7049 41.6748C37.6066 41.6098 37.5082 41.5773 37.4099 41.5447C37.3115 41.5122 37.2131 41.5122 37.1148 41.5122C37.0164 41.5122 36.918 41.5447 36.8197 41.6098C36.6558 41.7073 36.5574 41.8049 36.4918 41.9675C36.4262 42.0976 36.3935 42.2602 36.3935 42.4228C36.3935 42.5854 36.4262 42.7805 36.4918 42.9431C36.5574 43.1382 36.623 43.3008 36.7213 43.496C36.8197 43.6586 36.918 43.8212 37.0492 43.9512C37.1803 44.0813 37.3115 44.2114 37.4426 44.309C37.5738 44.4065 37.7377 44.439 37.8689 44.4716C38.0328 44.4716 38.164 44.439 38.3279 44.374C38.5574 44.2439 38.6558 44.0813 38.6885 43.8537C38.7213 43.626 38.6558 43.3659 38.5574 43.0732L39.2459 42.683C39.3771 42.9431 39.4426 43.2033 39.4754 43.4309C39.5082 43.6911 39.5082 43.9187 39.4754 44.1138C39.4426 44.3415 39.3443 44.5041 39.2131 44.6667C39.082 44.8293 38.918 44.9594 38.7213 45.0895C38.459 45.2195 38.2295 45.2846 37.9672 45.3171C37.7049 45.3171 37.4754 45.2521 37.2131 45.1545C36.9836 45.0569 36.7541 44.8943 36.5246 44.6667C36.2951 44.439 36.1312 44.2114 35.9672 43.9187C35.8033 43.626 35.6721 43.3334 35.6066 43.0082C35.541 42.7155 35.5082 42.4228 35.541 42.1626C35.5738 41.9025 35.6394 41.6423 35.7705 41.4472C35.9017 41.2195 36.0984 41.0569 36.3279 40.9269C36.4918 40.8293 36.6885 40.7643 36.8853 40.7317C37.082 40.6992 37.2787 40.7317 37.4754 40.7643C37.6721 40.8293 37.8689 40.8943 38.0328 41.0569C38.2295 41.187 38.3935 41.3821 38.5246 41.5773L37.8361 41.9675C37.8689 41.8049 37.8033 41.7073 37.7049 41.6748Z" fill="white"/>
<path d="M40.8524 42.2603L41.4754 43.0407L40.8524 43.5285L40.2295 42.7806L40.8524 42.2603Z" fill="white"/>
<path d="M14.5902 33.9349C14.5246 33.9999 14.459 34.0975 14.3934 34.195C14.3607 34.2926 14.3279 34.3901 14.2951 34.4877C14.2951 34.5853 14.2951 34.6828 14.3279 34.7804C14.3934 34.943 14.459 35.1056 14.5902 35.2032C14.7213 35.3007 14.8525 35.3658 15.0164 35.3983C15.1803 35.4308 15.3443 35.4308 15.541 35.4308C15.7377 35.3983 15.9344 35.3658 16.1311 35.3007C16.3279 35.2357 16.4918 35.1706 16.6557 35.0731C16.8197 34.9755 16.9508 34.878 17.082 34.7479C17.2131 34.6178 17.2787 34.4877 17.3115 34.3576C17.3443 34.195 17.3443 34.0324 17.3115 33.8698C17.2459 33.6422 17.082 33.4796 16.8525 33.382C16.6229 33.317 16.3607 33.2845 16.0656 33.3495L15.8361 32.569C16.1311 32.504 16.3934 32.4714 16.623 32.504C16.8852 32.504 17.082 32.569 17.2787 32.6666C17.4754 32.7641 17.6393 32.8942 17.7705 33.0243C17.9016 33.1869 18 33.382 18.0656 33.6097C18.1639 33.8698 18.1639 34.1625 18.1311 34.3901C18.0656 34.6503 17.9672 34.878 17.8033 35.1056C17.6393 35.3332 17.4426 35.4958 17.1803 35.6584C16.918 35.821 16.6557 35.9511 16.3279 36.0487C16 36.1462 15.6721 36.2113 15.377 36.2113C15.082 36.2113 14.7869 36.1788 14.5246 36.0812C14.2623 35.9836 14.0328 35.8536 13.8689 35.691C13.6721 35.4958 13.541 35.2682 13.4754 35.008C13.4098 34.8129 13.377 34.6178 13.4098 34.4227C13.4098 34.2275 13.4754 34.0324 13.5738 33.8698C13.6721 33.6747 13.8033 33.5121 13.9672 33.382C14.1311 33.2194 14.3607 33.0893 14.5902 32.9918L14.8197 33.7723C14.7541 33.7723 14.6885 33.8373 14.5902 33.9349Z" fill="white"/>
<path d="M12.8853 30.5529L14.6557 30.5854L14.6885 29.057H12.918L12.9508 28.2114L17.541 28.2765V29.122L15.541 29.0895L15.5082 30.6179H17.5082L17.4754 31.4635L12.8853 31.3984V30.5529Z" fill="white"/>
<path d="M18.1967 24.8293C18.3934 25.1871 18.4262 25.6098 18.2623 26.0976C18.0984 26.5854 17.8361 26.9106 17.4754 27.0732C17.1148 27.2358 16.6229 27.2358 16.0328 27.0407L13.2787 26.0976L13.541 25.3171L16.2623 26.2277C16.3934 26.2602 16.4918 26.2928 16.6229 26.3253C16.7541 26.3578 16.8525 26.3578 16.9508 26.3253C17.0492 26.2928 17.1475 26.2602 17.2459 26.1627C17.3443 26.0976 17.4098 25.9676 17.4426 25.8049C17.541 25.5123 17.5082 25.3171 17.4098 25.1545C17.2787 24.9919 17.082 24.8619 16.7541 24.7643L14.0328 23.8537L14.2951 23.0732L17.0164 23.9838C17.6066 24.1789 18 24.4716 18.1967 24.8293Z" fill="white"/>
<path d="M16.4918 19.5285C16.5902 19.3984 16.7213 19.3008 16.8525 19.2358C16.9836 19.1708 17.1148 19.1382 17.2787 19.1057C17.4426 19.1057 17.5738 19.1057 17.7377 19.1708C17.9016 19.2033 18.0328 19.3008 18.1967 19.3984C18.4262 19.561 18.5902 19.7236 18.6885 19.9187C18.7869 20.1138 18.8197 20.309 18.7869 20.5691C18.8853 20.5041 18.9508 20.4716 19.0492 20.4716C19.1475 20.4716 19.2459 20.4716 19.3443 20.5041C19.4426 20.5366 19.541 20.5691 19.6721 20.6342C19.7705 20.6992 19.8689 20.7317 19.9672 20.7968C20.0328 20.8293 20.0984 20.8943 20.1967 20.9269C20.2951 20.9919 20.3607 21.0244 20.459 21.0895C20.5574 21.1545 20.623 21.187 20.7213 21.2195C20.8197 21.2521 20.8853 21.2846 20.9508 21.2846L20.459 21.9675C20.3279 21.9025 20.1639 21.8374 20 21.7399C19.8361 21.6423 19.6721 21.5122 19.5082 21.4472C19.3115 21.3171 19.1148 21.2846 18.9836 21.2846C18.8525 21.2846 18.7213 21.3821 18.5902 21.5447L18.0984 22.2277L19.541 23.3008L19.0492 23.9512L15.3443 21.2195L16.4918 19.5285ZM18 20.9919C18.0984 20.8293 18.1639 20.6992 18.1312 20.5691C18.0984 20.439 18 20.309 17.8033 20.1464C17.6394 20.0163 17.4754 19.9512 17.3115 19.9838C17.1803 20.0163 17.0492 20.0813 16.9508 20.2439L16.4262 20.9594L17.4754 21.7399L18 20.9919Z" fill="white"/>
<path d="M21.3115 16.7317C21.2131 16.6667 21.1147 16.6667 21.0164 16.6342C20.918 16.6342 20.8197 16.6342 20.7213 16.6342C20.6229 16.6667 20.5246 16.6992 20.459 16.7643C20.2951 16.8618 20.1967 16.9919 20.1639 17.1545C20.0983 17.3171 20.0983 17.4472 20.1311 17.6423C20.1639 17.8049 20.1967 17.9675 20.2951 18.1626C20.3934 18.3252 20.4918 18.5204 20.5902 18.683C20.6885 18.8456 20.8197 18.9756 20.9836 19.1057C21.1147 19.2358 21.2787 19.3334 21.4098 19.3984C21.5738 19.4634 21.7049 19.496 21.8688 19.496C22.0328 19.496 22.1639 19.4309 22.3279 19.3334C22.5246 19.1708 22.6229 18.9756 22.6229 18.748C22.6229 18.5204 22.5574 18.2602 22.3934 18L23.0492 17.5122C23.2131 17.7724 23.3115 18 23.377 18.2277C23.4426 18.4553 23.4754 18.683 23.4426 18.9106C23.4098 19.1382 23.377 19.3334 23.2459 19.496C23.1475 19.6911 22.9836 19.8537 22.8197 19.9838C22.5902 20.1464 22.3279 20.2439 22.0983 20.309C21.8361 20.3415 21.5738 20.309 21.3442 20.2439C21.082 20.1789 20.8524 20.0163 20.5902 19.8537C20.3606 19.6586 20.1311 19.4309 19.9344 19.1708C19.7377 18.8781 19.5738 18.6179 19.4754 18.3252C19.377 18.0325 19.3115 17.7724 19.3115 17.4797C19.3115 17.2195 19.377 16.9594 19.4754 16.7317C19.5738 16.5041 19.7705 16.2765 20 16.1138C20.1639 15.9838 20.3606 15.9187 20.5246 15.8537C20.7213 15.7886 20.918 15.7886 21.1147 15.8212C21.3115 15.8537 21.5082 15.9187 21.7049 16.0163C21.9016 16.1138 22.0983 16.2765 22.2623 16.4716L21.6065 16.9594C21.5082 16.8293 21.4098 16.7643 21.3115 16.7317Z" fill="white"/>
<path d="M23.9016 14.0325L24.459 15.6911L25.9016 15.2032L25.3443 13.5447L26.1311 13.2845L27.6065 17.6423L26.8197 17.9024L26.1967 16.0163L24.7541 16.5041L25.377 18.3902L24.5902 18.6504L23.1147 14.2927L23.9016 14.0325Z" fill="white"/>
<path d="M31.4098 17.5121C31.2459 17.5772 31.0492 17.6097 30.8197 17.5772C30.6557 17.5772 30.4918 17.5121 30.3607 17.4471C30.2295 17.3821 30.0984 17.2845 30 17.1544C29.9016 17.0243 29.8361 16.8617 29.7705 16.6991C29.7377 16.5365 29.7049 16.3414 29.7377 16.1138C29.7377 15.9512 29.8033 15.7886 29.8361 15.6585C29.9016 15.5284 29.9672 15.3983 30.0656 15.3008C30.1639 15.2032 30.2623 15.1056 30.3607 15.0406C30.459 14.9756 30.5902 14.9105 30.6885 14.8455C30.5902 14.6829 30.5246 14.5203 30.4918 14.3577C30.4262 14.1951 30.4262 14.0325 30.4262 13.8373C30.4262 13.6747 30.4918 13.5447 30.5574 13.4146C30.6229 13.2845 30.7213 13.1869 30.8197 13.0894C30.918 12.9918 31.0164 12.9593 31.1475 12.8943C31.2787 12.8617 31.377 12.8292 31.5082 12.8617C31.6393 12.8617 31.7705 12.9268 31.9016 12.9593C32.0328 13.0243 32.1311 13.0894 32.1967 13.1869C32.2951 13.2845 32.3279 13.4146 32.3934 13.5447C32.4262 13.6747 32.459 13.8373 32.4262 14.0325C32.3934 14.2926 32.3279 14.5203 32.1639 14.6829C32.0328 14.8455 31.8361 15.0081 31.6393 15.1056L32.0656 15.8861C32.0984 15.7886 32.1639 15.7235 32.1639 15.626C32.1967 15.5284 32.2295 15.4308 32.2295 15.3658L32.8852 15.4308C32.8525 15.626 32.7869 15.8211 32.7213 16.0162C32.6557 16.2113 32.5574 16.3739 32.4262 16.5365L33.082 17.7073L32.1639 17.6097L31.9016 17.1544C31.7377 17.317 31.5738 17.4471 31.4098 17.5121ZM30.8197 15.5934C30.7541 15.626 30.6885 15.691 30.6229 15.756C30.5574 15.8211 30.5246 15.8861 30.4918 15.9512C30.459 16.0162 30.4262 16.1138 30.4262 16.2113C30.4262 16.3089 30.4262 16.3739 30.459 16.439C30.4918 16.504 30.5246 16.5691 30.5574 16.6341C30.5902 16.6991 30.6557 16.7317 30.7213 16.7642C30.7869 16.7967 30.8525 16.8292 30.918 16.8292C31.0492 16.8292 31.1803 16.8292 31.2787 16.7642C31.377 16.6991 31.4754 16.6016 31.5738 16.504L31.0164 15.4959C30.9508 15.5284 30.8852 15.5609 30.8197 15.5934ZM31.7049 13.6747C31.6393 13.5772 31.5738 13.5447 31.4754 13.5121C31.377 13.5121 31.3115 13.5447 31.2131 13.6097C31.1475 13.6747 31.082 13.7723 31.082 13.9024C31.082 14.0325 31.082 14.1625 31.1475 14.2926C31.2131 14.3902 31.2459 14.5203 31.3115 14.6178C31.4098 14.5528 31.5082 14.4552 31.6066 14.3902C31.7049 14.2926 31.7377 14.1626 31.7705 13.9999C31.8033 13.8699 31.7705 13.7723 31.7049 13.6747Z" fill="white"/>
<path d="M38.2623 14.9756C38.459 15.0732 38.623 15.2358 38.7541 15.3984C38.8853 15.561 38.9508 15.7886 38.9836 16.0163C39.0164 16.2439 39.0164 16.5041 38.9508 16.7967C38.8853 17.0894 38.7541 17.3821 38.5902 17.7398C38.4262 18.0325 38.2623 18.2927 38.0656 18.5203C37.8689 18.748 37.6721 18.9106 37.4426 19.0406C37.2131 19.1707 37.0164 19.2358 36.7869 19.2358C36.5574 19.2358 36.3279 19.2032 36.0984 19.0732L34.7869 18.3577L36.9836 14.3252L38.2623 14.9756ZM36.4262 18.2602C36.5246 18.3252 36.623 18.3577 36.7541 18.3577C36.8525 18.3577 36.9836 18.3252 37.1148 18.2927C37.2459 18.2276 37.3771 18.1301 37.4754 18C37.6066 17.8699 37.7377 17.6748 37.8361 17.4797C37.9344 17.2845 38.0328 17.0894 38.0984 16.8943C38.1639 16.6992 38.1967 16.5366 38.1639 16.4065C38.1639 16.2439 38.1312 16.1138 38.0328 15.9837C37.9672 15.8537 37.8361 15.7561 37.6721 15.6585L37.2131 15.3658L35.8361 17.9024L36.4262 18.2602Z" fill="white"/>
<path d="M39.6721 21.935L41.541 19.3659L38.8525 21.0895L38.3279 20.5041L41.082 16.6992L41.6066 17.2521L39.6721 19.7886L42.3935 18.0976L42.8853 18.6504L40.9508 21.2195L43.6721 19.496L44.1639 20.0488L40.1639 22.4878L39.6721 21.935Z" fill="white"/>
<path d="M45.2787 22.13L41.2459 24.3414L40.8524 23.626L44.8852 21.3821L45.2787 22.13Z" fill="white"/>
<path d="M42.3279 27.1058C42.1967 26.9757 42.0984 26.8131 42.0328 26.618C41.9672 26.3253 41.9344 26.0651 42 25.8375C42.0656 25.5773 42.1639 25.3497 42.3279 25.122C42.4918 24.8944 42.6885 24.7318 42.9508 24.5692C43.2131 24.4066 43.5082 24.2765 43.8033 24.179C44.1312 24.0814 44.459 24.0489 44.7541 24.0164C45.0492 24.0164 45.3443 24.0489 45.6066 24.1464C45.8689 24.244 46.0656 24.3741 46.2623 24.5692C46.459 24.7643 46.5902 24.992 46.6557 25.2521C46.7213 25.4473 46.7213 25.6424 46.7213 25.805C46.6885 26.0001 46.6557 26.1952 46.5574 26.3578C46.459 26.5204 46.3279 26.683 46.1639 26.8456C46 27.0082 45.8033 27.1058 45.541 27.2034L45.3115 26.4554C45.541 26.3253 45.7049 26.1952 45.8033 26.0326C45.9016 25.87 45.9016 25.6749 45.8361 25.4798C45.7705 25.3172 45.7049 25.1546 45.5738 25.057C45.4426 24.9594 45.3115 24.8944 45.1475 24.8619C44.9836 24.8294 44.8197 24.8294 44.623 24.8294C44.4262 24.8619 44.2295 24.8944 44.0328 24.9269C43.8361 24.992 43.6721 25.057 43.5082 25.1546C43.3443 25.2521 43.2131 25.3497 43.082 25.4473C42.9508 25.5773 42.8853 25.7074 42.8197 25.8375C42.7869 26.0001 42.7869 26.1627 42.8197 26.3253C42.8853 26.5855 43.0492 26.7806 43.2459 26.8781C43.4426 26.9757 43.7049 26.9757 44.0328 26.9107L43.8033 26.0977L44.5246 25.87L44.9508 27.3985L42.5574 28.0814L42.4262 27.5611L42.918 27.3334C42.6557 27.366 42.459 27.2359 42.3279 27.1058Z" fill="white"/>
<path d="M47.2459 29.8374L45.4754 29.7724L45.4098 31.3008L47.1803 31.3334L47.1475 32.1789L42.5574 32.0163L42.5902 31.2033L44.5574 31.2683L44.6229 29.7399L42.6229 29.6748L42.6557 28.8618L47.2459 28.9919V29.8374Z" fill="white"/>
<path d="M46.0328 33.6097L46.8524 33.8699L45.9016 36.7967L45.1147 36.5365L45.4426 35.4634L41.8688 34.3252L42.1311 33.5447L45.7049 34.6829L46.0328 33.6097Z" fill="white"/>
<path d="M22.459 41.7722C22.6885 41.382 22.623 40.8942 22.3279 40.634C21.7377 40.1788 21.0492 40.634 20.5574 41.2844C20.0984 41.9023 19.8361 42.6828 20.4262 43.1056C20.8197 43.3983 21.3115 43.2357 21.7049 42.7804L22.3279 43.2682C21.5738 44.1137 20.623 44.3088 19.9016 43.7885C18.9836 43.1056 19.1148 41.8373 19.9344 40.7966C20.7541 39.7235 21.9344 39.2682 22.8525 39.9836C23.5082 40.4714 23.6721 41.3495 23.1148 42.2601L22.459 41.7722Z" fill="white"/>
<path d="M25.6393 41.5771C26.6885 41.9999 26.918 43.2357 26.4262 44.504C25.9344 45.7397 24.918 46.4877 23.8688 46.0324C22.8197 45.6097 22.5901 44.3739 23.082 43.1381C23.5738 41.8698 24.5901 41.1544 25.6393 41.5771ZM24.1639 45.2519C24.8524 45.5121 25.377 44.8942 25.6721 44.2113C25.9672 43.4633 26 42.6503 25.3442 42.3576C24.6557 42.0975 24.1311 42.7154 23.8361 43.4633C23.541 44.1788 23.5082 44.9918 24.1639 45.2519Z" fill="white"/>
<path d="M26.2951 45.7073L27.082 45.8699L26.8852 46.8455L26.0984 46.6504L26.2951 45.7073Z" fill="white"/>
<path d="M31.0816 42.5748L30.2623 42.5979L30.3947 47.2139L31.2141 47.1908L31.0816 42.5748Z" fill="white"/>
<path d="M31.7049 42.6178L32.4918 42.4227L34.7213 45.0569L34 42.065L34.7541 41.8699L35.8361 46.3577L35.0492 46.5528L32.8197 43.9187L33.541 46.9105L32.7869 47.0731L31.7049 42.6178Z" fill="white"/>
<path d="M37.9672 41.9025C37.7049 41.5447 37.2131 41.3821 36.8852 41.6098C36.2623 41.9675 36.3934 42.7805 36.7869 43.4634C37.1475 44.1464 37.7705 44.6667 38.4262 44.309C38.8525 44.0813 38.8852 43.561 38.6557 43.0082L39.3443 42.6179C39.8361 43.6586 39.6393 44.6017 38.8525 45.0569C37.8689 45.6098 36.7541 45.0244 36.0984 43.8537C35.4426 42.6504 35.5082 41.4147 36.4918 40.8618C37.2131 40.4716 38.0984 40.6342 38.6885 41.5447L37.9672 41.9025Z" fill="white"/>
<path d="M40.2295 42.7806L40.8524 42.2603L41.4754 43.0407L40.8524 43.5285L40.2295 42.7806Z" fill="white"/>
<path d="M14.8524 33.7399C14.4262 33.9351 14.1967 34.3578 14.3279 34.7481C14.5574 35.4635 15.377 35.496 16.1311 35.2684C16.8525 35.0407 17.5082 34.5529 17.3115 33.8375C17.1475 33.3497 16.6885 33.2196 16.0656 33.3172L15.8361 32.5367C16.9508 32.2765 17.8361 32.6993 18.1311 33.5773C18.459 34.683 17.6721 35.6586 16.3934 36.0489C15.082 36.4391 13.8688 36.1139 13.541 35.0082C13.3115 34.2277 13.6721 33.3822 14.6557 32.9594L14.8524 33.7399Z" fill="white"/>
<path d="M12.8853 31.3659V30.5529L14.6557 30.5854L14.6885 29.057L12.918 29.0244V28.2114L17.541 28.2765L17.5082 29.0895L15.541 29.057L15.5082 30.5854L17.5082 30.6179L17.4754 31.4309L12.8853 31.3659Z" fill="white"/>
<path d="M17.0164 23.9513C18.1967 24.3415 18.5902 25.122 18.2623 26.0651C17.9344 27.0082 17.1803 27.3984 16 27.0082L13.2787 26.0976L13.541 25.3171L16.2623 26.2277C16.7541 26.3903 17.2459 26.4554 17.4426 25.8049C17.6393 25.2521 17.377 24.9594 16.7541 24.7643L14.0328 23.8537L14.2951 23.0732L17.0164 23.9513Z" fill="white"/>
<path d="M15.3115 21.1545L16.4918 19.5285C16.8852 18.9756 17.6065 18.9756 18.1639 19.3984C18.5902 19.7236 18.8197 20.1138 18.7541 20.5691C19.082 20.309 19.541 20.5041 19.9344 20.7642C20.1639 20.9268 20.6229 21.252 20.918 21.2846L20.4262 21.9675C20.1311 21.8699 19.7705 21.6098 19.4754 21.4147C19.0492 21.187 18.7869 21.187 18.5574 21.5122L18.0656 22.1951L19.5082 23.2683L19.0164 23.9512L15.3115 21.1545ZM17.4754 21.7073L18 20.9919C18.2295 20.6992 18.1639 20.4065 17.8033 20.1464C17.4426 19.8862 17.1803 19.9187 16.9508 20.2439L16.4262 20.9594L17.4754 21.7073Z" fill="white"/>
<path d="M21.5738 16.8943C21.2459 16.569 20.7541 16.4715 20.4262 16.7316C19.8361 17.1869 20.0656 17.9674 20.5246 18.6178C20.9836 19.2357 21.6721 19.691 22.2623 19.2682C22.6557 18.9756 22.6557 18.4552 22.3279 17.9349L22.9836 17.4471C23.6066 18.4227 23.5082 19.3983 22.7541 19.9512C21.8033 20.6341 20.623 20.1788 19.8361 19.1056C19.0164 17.9999 18.9508 16.7316 19.9016 16.0487C20.5574 15.5609 21.4754 15.626 22.1967 16.439L21.5738 16.8943Z" fill="white"/>
<path d="M23.1147 14.2602L23.9016 14L24.459 15.6911L25.9016 15.2033L25.3443 13.5122L26.1311 13.2521L27.6065 17.6098L26.8197 17.9025L26.1639 16.0163L24.7213 16.4716L25.377 18.3578L24.5902 18.6179L23.1147 14.2602Z" fill="white"/>
<path d="M31.9016 17.1545C31.5738 17.4797 31.2131 17.6423 30.7869 17.6098C30.0984 17.5448 29.6393 16.9919 29.7049 16.1139C29.7705 15.4635 30.1967 15.0732 30.6557 14.8781C30.4918 14.5529 30.3607 14.2602 30.3934 13.87C30.459 13.2196 30.9836 12.8618 31.4754 12.9269C32.0328 12.9919 32.459 13.3822 32.3934 14.1301C32.3279 14.6505 32.0328 15.0082 31.6066 15.2033L32.0328 15.9838C32.1312 15.8212 32.1967 15.6261 32.2295 15.4635L32.8853 15.5285C32.8197 15.9513 32.6557 16.309 32.4262 16.6342L33.082 17.8049L32.1639 17.7074L31.9016 17.1545ZM31.0164 15.496C30.7541 15.6261 30.459 15.8212 30.4262 16.2114C30.3934 16.5366 30.623 16.8293 30.918 16.8618C31.1803 16.8944 31.3771 16.7318 31.5738 16.5041L31.0164 15.496ZM31.4754 13.5122C31.3115 13.4797 31.1148 13.6423 31.1148 13.87C31.082 14.1626 31.2131 14.3578 31.3443 14.5854C31.5738 14.4228 31.7705 14.2927 31.8033 13.9675C31.8033 13.7399 31.6721 13.5122 31.4754 13.5122Z" fill="white"/>
<path d="M36.9508 14.2601L38.2623 14.9756C39.0492 15.3983 39.2787 16.374 38.5574 17.7398C37.9344 18.9105 36.9836 19.5284 36.0656 19.0406L34.7541 18.3252L36.9508 14.2601ZM35.8361 17.9349L36.4262 18.2601C36.8197 18.4553 37.3443 18.3577 37.8361 17.4471C38.2951 16.6341 38.3606 15.9837 37.6721 15.626L37.2131 15.3658L35.8361 17.9349Z" fill="white"/>
<path d="M40.1639 22.4878L39.6394 21.935L41.541 19.3659L38.8525 21.0569L38.3279 20.5041L41.082 16.6992L41.6066 17.2521L39.6721 19.7886L42.3935 18.0976L42.8853 18.6179L40.9508 21.2195L43.6721 19.4634L44.1639 20.0163L40.1639 22.4878Z" fill="white"/>
<path d="M44.8852 21.3821L45.2787 22.0975L41.2459 24.3414L40.8524 23.626L44.8852 21.3821Z" fill="white"/>
<path d="M42.918 27.4308C42.3935 27.2682 42.1312 26.9755 42.0328 26.6178C41.7049 25.5121 42.5246 24.5365 43.8033 24.1787C45.1148 23.7885 46.3279 24.1462 46.6557 25.2844C46.8853 26.0324 46.5246 26.8779 45.541 27.2682L45.3115 26.5202C45.7705 26.2926 45.9344 25.9023 45.8361 25.5446C45.6394 24.8291 44.8197 24.7966 44.0328 24.9918C43.3115 25.2194 42.623 25.7072 42.8525 26.3901C43.0164 26.9105 43.4426 27.1056 44.0656 26.9755L43.8361 26.1625L44.5574 25.9348L44.9836 27.4633L42.5902 28.1462L42.459 27.6259L42.918 27.4308Z" fill="white"/>
<path d="M47.2459 28.9919L47.2131 29.805L45.4754 29.7399L45.4098 31.2684L47.1803 31.3334L47.1475 32.1464L42.5574 32.0163L42.5902 31.1708L44.5574 31.2359L44.6229 29.7399L42.6229 29.6749L42.6557 28.8293L47.2459 28.9919Z" fill="white"/>
<path d="M45.7049 34.6829L46.0328 33.6098L46.8524 33.8699L45.9016 36.7968L45.082 36.5366L45.4426 35.4634L41.8688 34.2927L42.1311 33.5122L45.7049 34.6829Z" fill="white"/>
</g>
<defs>
<clipPath id="clip0_150_917">
<rect width="40" height="40" fill="white" transform="translate(10 10)"/>
</clipPath>
</defs>
</svg>
