<svg width="60" height="60" viewBox="0 0 60 60" fill="none" xmlns="http://www.w3.org/2000/svg">
<rect width="60" height="60" fill="#1148BE"/>
<g clip-path="url(#clip0_168_460)">
<path d="M30.4813 30.3475C30.2397 30.8387 30.1397 31.3259 29.2733 31.6481C28.9382 31.7732 28.567 31.7836 28.2246 31.6774C27.8821 31.5711 27.59 31.355 27.399 31.0666C27.399 31.0666 30.198 29.8878 31.0227 29.4242C31.2726 29.2906 31.4642 29.1256 31.5892 28.9527L31.9474 29.7621C31.4059 29.5735 30.7895 29.7778 30.4896 30.3593L30.4813 30.3475ZM27.474 28.0804C28.6319 27.5854 29.2733 28.6148 29.2733 28.6148L26.7326 29.7149C26.7326 29.7149 26.316 28.5834 27.474 28.0804ZM49.1081 27.2003C48.3833 26.9724 47.6919 27.3496 47.4753 27.9704L46.2507 31.4595H46.2257L45.3094 27.8918C45.2725 27.7341 45.2021 27.5851 45.1024 27.4538C45.0027 27.3225 44.8759 27.2116 44.7295 27.1279C44.5831 27.0442 44.4202 26.9893 44.2507 26.9666C44.0812 26.944 43.9086 26.954 43.7433 26.996C43.4767 27.0589 43.2268 27.2003 43.0519 27.3889C43.0103 27.1361 42.8803 26.9036 42.6825 26.7285C42.4848 26.5534 42.2307 26.4456 41.9606 26.4223C41.2108 26.3359 40.6277 26.8153 40.5444 27.4596L40.0362 31.0508H40.0029L38.9616 28.4105C38.5451 27.3339 38.1952 26.776 37.1456 26.886C36.0876 26.996 35.8794 27.6089 35.7294 28.7484L35.3296 31.538H35.2962L33.9634 28.1433C33.9085 27.9934 33.8223 27.8553 33.7099 27.7374C33.5974 27.6194 33.4611 27.5239 33.3089 27.4565C33.1566 27.3891 32.9916 27.3512 32.8236 27.345C32.6556 27.3387 32.488 27.3644 32.3306 27.4203C32.0474 27.5146 31.8141 27.6954 31.6642 27.9311C31.131 26.6738 29.0901 25.4558 26.5826 26.7131C26.0531 26.944 25.5869 27.2866 25.22 27.7144C24.8531 28.1422 24.5954 28.6439 24.4667 29.1806C24.1002 28.3948 23.3504 27.8447 22.3508 27.7661C21.0012 27.6561 20.2515 28.3869 20.2515 28.3869H20.2182L20.4181 26.3202C20.4764 25.6522 20.0016 25.0629 19.2352 25.0079C19.0651 24.9894 18.8928 25.0035 18.7286 25.0493C18.5643 25.095 18.4116 25.1715 18.2794 25.2742C18.1472 25.3769 18.0383 25.5036 17.9592 25.6469C17.8801 25.7902 17.8324 25.947 17.819 26.108L17.3525 31.0194C17.2278 30.8927 17.0687 30.8008 16.8924 30.7537C16.7161 30.7066 16.5294 30.7061 16.3529 30.7522C15.5281 30.933 15.3199 31.8524 14.4369 32.0253C13.4372 32.2139 12.8041 31.4909 12.6125 30.6108C12.4542 29.8957 12.5875 28.8348 13.6955 28.6777C14.6784 28.5441 14.9034 29.4949 15.9863 29.2906C16.6278 29.1727 16.936 28.7012 16.786 28.0961C16.5528 27.1846 15.0033 26.5088 13.2956 26.8388C12.7623 26.925 12.2533 27.1133 11.8 27.392C11.3467 27.6707 10.9587 28.034 10.6598 28.4595C10.3609 28.885 10.1575 29.3636 10.0621 29.8661C9.96672 30.3685 9.98133 30.884 10.105 31.3809C10.6049 33.7462 12.9957 34.5163 14.895 34.1313C16.0613 33.8877 16.7694 33.3926 17.1776 32.8739L17.1443 33.149C17.0859 33.8091 17.5608 34.3906 18.3355 34.4613C19.1019 34.5242 19.685 34.0134 19.7517 33.3612L20.0182 30.5558C20.0849 29.7699 20.6514 29.4792 21.1512 29.5185C21.651 29.5656 22.1425 29.99 22.0675 30.7287L21.8093 33.534C21.7426 34.1941 22.2258 34.7835 22.9922 34.8464C23.7669 34.9092 24.3417 34.3984 24.4084 33.7462L24.6416 31.263L24.8166 31.6716C25.9745 33.9977 28.332 34.147 30.173 33.3454C31.0053 33.0205 31.7261 32.4848 32.2556 31.7974C32.4222 31.5616 32.5305 31.3494 32.5889 31.153L33.0054 32.0017C33.8884 33.7619 34.205 34.202 35.6211 34.0841C37.029 33.9034 37.1623 33.3612 37.5371 30.3515H37.5704C38.6451 33.2118 38.9033 33.7069 40.3195 33.5969C41.7357 33.4162 41.9273 32.929 42.3854 31.0273C42.5604 30.2414 42.727 29.4713 42.8769 28.6855L43.1851 29.6285C43.9432 31.9074 44.7346 33.4162 44.2598 33.6362C43.8433 33.8326 43.5933 33.149 42.7853 33.1961C42.2271 33.2276 41.7357 33.7698 41.9106 34.4456C42.1605 35.3729 43.7183 36.363 45.5093 35.8679C47.317 35.3729 47.8419 34.0055 49.9245 28.7327C50.1577 28.104 49.8412 27.4203 49.1081 27.2003Z" fill="#FEFEFD"/>
</g>
<defs>
<clipPath id="clip0_168_460">
<rect width="40" height="11" fill="white" transform="translate(10 25)"/>
</clipPath>
</defs>
</svg>
