<svg width="60" height="60" viewBox="0 0 60 60" fill="none" xmlns="http://www.w3.org/2000/svg">
<rect width="60" height="60" fill="#C81F25"/>
<g clip-path="url(#clip0_1534_8439)">
<path d="M16.6878 27.9107C15.298 27.4915 13.7413 27.3556 12.3427 27.8556C11.7416 28.0581 11.1887 28.3815 10.7186 28.8055C10.2484 29.2296 9.8709 29.7454 9.60957 30.3208C9.03742 31.6528 9.00529 33.2841 9.51406 34.6499C9.95946 35.8816 10.9127 36.7812 12.0883 37.2137C12.7559 37.4801 13.4548 37.5804 14.1859 37.5467C15.0124 37.5138 15.9335 37.4135 16.6967 37.0139V34.483C15.4257 34.9829 13.5191 35.0824 12.6604 33.7503C12.2472 33.1181 12.2472 32.2522 12.5337 31.5862C12.7872 30.953 13.3593 30.5534 13.9636 30.3874C14.8847 30.121 15.8068 30.3536 16.6967 30.62V27.924L16.6878 27.9107ZM44.7185 37.5538C45.8592 37.5538 46.6706 37.0849 47.2713 36.3496V37.5769H50.2142V31.802C50.2142 30.9326 50.1544 29.9638 49.7036 29.1939C49.343 28.5589 48.7423 28.1238 48.1121 27.8902C46.3091 27.1887 44.415 27.6895 42.6727 28.3254V30.7657C43.6938 30.3305 44.748 30.097 45.8592 30.1973C46.6706 30.2639 47.3008 30.7657 47.3008 31.7354V31.9024C45.2585 31.0996 41.8346 31.4344 41.8346 34.5442V34.5771C41.8346 36.4828 43.0958 37.5529 44.7176 37.5529L44.7185 37.5538ZM45.8289 35.4465C45.1987 35.4465 44.7489 35.0451 44.7489 34.4102V34.3764C44.7489 32.9058 46.5197 33.1065 47.3311 33.507C47.3311 34.6774 46.7 35.4465 45.8289 35.4465ZM31.7796 27.5768H34.959V29.2995L35.0902 29.1281C36.0078 27.8947 37.3841 27.2446 38.8917 27.6895C40.1369 28.0661 40.8251 29.1965 40.9563 30.5321C41.0214 31.1484 40.9884 31.7993 40.9884 32.4156V37.5769H37.6466C37.6466 35.7964 37.7028 33.991 37.6707 32.2451C37.6707 31.4566 37.2422 30.6689 36.3889 30.5321C35.6034 30.3954 35.308 30.8749 35.1107 31.6626C35.0786 32.0054 35.0786 32.3819 35.0786 32.7584V34.4022C35.0786 35.4642 35.0911 36.5157 35.0911 37.5769H31.7805L31.7796 27.5768ZM30.9415 36.2457C29.948 36.9153 28.8796 37.4259 27.6612 37.5529C26.3795 37.6808 25.0656 37.393 24.04 36.6604C22.6297 37.298 20.9963 37.8086 19.4575 37.33C18.3033 36.9792 17.7258 35.9589 17.5661 34.8435C17.5018 34.3009 17.5339 33.7273 17.5339 33.1527V30.3465V28.4071H20.8865C20.8865 29.8412 20.9186 31.3038 20.9508 32.7389C20.982 33.4085 20.9186 34.237 21.3346 34.7796C21.7514 35.3532 22.0843 35.2254 22.694 35.0664C21.4122 32.4201 22.8225 28.8804 25.6752 27.9879C26.8606 27.6052 28.4306 27.6682 29.3919 28.5296C30.1613 29.1992 30.3854 30.2515 30.1613 31.2079C29.9694 31.9414 29.5526 32.5471 29.0724 33.0897C28.4306 33.8223 27.6621 34.4288 26.8606 35.0025C27.9495 35.7999 29.724 35.2254 30.9415 34.4608V36.2457ZM27.6612 32.2922C28.0138 31.8455 28.4306 31.049 27.8861 30.5703C27.5336 30.2515 26.957 30.3154 26.5723 30.5383C25.3539 31.2079 25.2584 32.7389 25.8671 33.8542C26.6044 33.3445 27.2131 32.8339 27.6612 32.2922C28.7189 30.953 27.2131 32.8339 27.6612 32.2922ZM20.8865 25.0725C20.8834 25.5138 20.7058 25.9361 20.3921 26.2481C20.0784 26.5601 19.6538 26.7365 19.2102 26.7393C18.7668 26.7363 18.3424 26.5597 18.0289 26.2478C17.7154 25.9359 17.5379 25.5136 17.5348 25.0725C17.5376 24.6312 17.715 24.2088 18.0286 23.8966C18.3422 23.5845 18.7667 23.4078 19.2102 23.4048C20.0957 23.4048 20.8865 24.1596 20.8865 25.0725Z" fill="#FEFEFD"/>
</g>
<defs>
<clipPath id="clip0_1534_8439">
<rect width="42" height="15" fill="white" transform="translate(9 23)"/>
</clipPath>
</defs>
</svg>
