<svg width="60" height="60" viewBox="0 0 60 60" fill="none" xmlns="http://www.w3.org/2000/svg">
<rect width="60" height="60" fill="#C02820"/>
<g clip-path="url(#clip0_150_834)">
<path d="M11.6944 27.5362C11.6944 27.5362 11.9655 17.8627 23.1991 17.729H31.6238L29.7359 25.9234L22.786 25.9477C20.4698 25.9646 20.0279 27.8374 20.0279 27.8374C20.0279 27.8374 19.8927 29.8095 22.1114 30.0338L28.7881 30.0365L26.8686 38.368L22.9727 38.3795C11.3321 38.1451 11.6944 27.5362 11.6944 27.5362ZM48.9729 27.5362C48.9729 27.5362 48.4746 17.8627 37.241 17.729H33.6628L31.7913 25.9234L37.6548 25.9477C39.9703 25.9646 40.4123 27.8374 40.4123 27.8374C40.4123 27.8374 40.5475 29.8095 38.328 30.0338L30.836 30.0365L27.5927 43.896L35.5198 43.9034L36.8327 38.3774L37.4668 38.3788C49.1087 38.1451 48.9729 27.5362 48.9729 27.5362Z" fill="white"/>
</g>
<defs>
<clipPath id="clip0_150_834">
<rect width="38" height="27" fill="white" transform="translate(11 17)"/>
</clipPath>
</defs>
</svg>
