<svg width="60" height="60" viewBox="0 0 60 60" fill="none" xmlns="http://www.w3.org/2000/svg">
<rect width="60" height="60" fill="#ECECEC"/>
<g clip-path="url(#clip0_1638_9030)">
<path d="M23.0557 41.5207C23.684 43.2294 24.4469 44.8999 25.3601 46.5118C26.0162 47.6698 26.7412 48.7796 27.5234 49.8412C35.2506 47.9085 42.1245 43.7631 47.4585 38.0987C46.2228 35.1571 44.5804 32.4338 42.6027 30.0031C37.7461 35.9718 30.8715 40.176 23.0557 41.5207Z" fill="#16AB03"/>
<path d="M27.5 10.1588C25.6431 12.6806 24.1421 15.4761 23.0503 18.4845C30.8684 19.8282 37.7451 24.0329 42.6027 30.0031C44.5804 27.5724 46.2229 24.8491 47.4586 21.9075C42.1191 16.2373 35.2368 12.089 27.5 10.1588Z" fill="#5E33BF"/>
<path d="M23.0555 41.5207C20.7055 35.1296 20.3536 28.1713 22.1218 21.4468C22.3869 20.4385 22.6991 19.4514 23.05 18.4845C21.2911 18.1821 19.4848 18.0235 17.6428 18.0235C16.326 18.0235 15.0279 18.106 13.7518 18.2622C11.6041 25.8075 11.5201 33.9526 13.7518 41.7433C15.0293 41.8999 16.3289 41.9826 17.6471 41.9826C19.4912 41.9826 21.2991 41.8236 23.0598 41.5207H23.0555Z" fill="black"/>
</g>
<defs>
<clipPath id="clip0_1638_9030">
<rect width="36" height="40" fill="white" transform="translate(12 10)"/>
</clipPath>
</defs>
</svg>
