<svg width="60" height="60" viewBox="0 0 60 60" fill="none" xmlns="http://www.w3.org/2000/svg">
<rect width="60" height="60" fill="white"/>
<g clip-path="url(#clip0_168_257)">
<mask id="mask0_168_257" style="mask-type:luminance" maskUnits="userSpaceOnUse" x="9" y="9" width="366" height="43">
<path d="M9 9H374.222V51.9868H9V9Z" fill="white"/>
</mask>
<g mask="url(#mask0_168_257)">
<path d="M50.9921 25.7816H40.6606L31.2735 18.1615L22.0442 10.6655C24.5722 9.59385 27.3464 9 30.2569 9C33.6758 9 36.9047 9.82059 39.7644 11.2674C45.3903 14.1206 49.5876 19.4166 50.9921 25.7816Z" fill="#A7E0FF"/>
<path d="M31.2761 18.1614L16.0785 30.4946L9.63401 35.7205C9.22204 34.0469 9 32.2977 9 30.4946C9 28.6915 9.22204 26.9396 9.63669 25.2633C11.2739 18.6554 15.9313 13.2568 22.0441 10.6655L31.2761 18.1614Z" fill="#5DB8FD"/>
<path d="M39.759 49.7191L31.2708 42.8277L40.6632 35.2076H50.9974C49.5876 41.5753 45.3876 46.8713 39.759 49.7191Z" fill="#1E3896"/>
<path d="M39.759 49.7191C36.9019 51.1659 33.673 51.9865 30.2595 51.9865C27.3436 51.9865 24.5694 51.3927 22.0387 50.321C15.926 47.7297 11.2686 42.3311 9.63403 35.7205L16.0785 30.4892L31.2734 42.8277L39.759 49.7191Z" fill="#196EEF"/>
</g>
</g>
<defs>
<clipPath id="clip0_168_257">
<rect width="42" height="43" fill="white" transform="translate(9 9)"/>
</clipPath>
</defs>
</svg>
