<svg width="60" height="60" viewBox="0 0 60 60" fill="none" xmlns="http://www.w3.org/2000/svg">
<rect width="60" height="60" fill="#EFF2F8"/>
<path d="M30.0679 17.384C28.5707 15.4083 27.3892 13.8444 27.0328 13.382C26.3803 12.4776 25.2998 11.9576 24.166 12.0028C23.0462 11.9576 21.9783 12.4612 21.3202 13.345L9.13037 29.5079L21.3202 45.6667C21.9797 46.5478 23.0476 47.05 24.166 47.0021C25.2984 47.0486 26.3789 46.5314 27.0328 45.6284L30.0679 41.6209L20.9301 29.5079L30.0679 17.384Z" fill="#8B1D41"/>
<path d="M38.8101 13.3445C38.1533 12.462 37.0869 11.9585 35.9699 12.0036H24.1646C25.2998 11.9585 26.3788 12.477 27.0327 13.3828C28.2241 14.9303 39.2001 29.5074 39.2001 29.5074C39.2001 29.5074 28.2241 44.0804 27.0327 45.6333C26.3774 46.5364 25.2984 47.0535 24.1646 47.007H35.9699C37.0869 47.0535 38.1519 46.5514 38.8101 45.6716L50.9999 29.5074L38.8101 13.3445Z" fill="#C41F3E"/>
</svg>
