<svg width="60" height="60" viewBox="0 0 60 60" fill="none" xmlns="http://www.w3.org/2000/svg">
<rect width="60" height="60" fill="#0056D2"/>
<g clip-path="url(#clip0_1772_9280)">
<path d="M30.5625 29.4375H29.4375V30.5625H30.5625V29.4375Z" fill="white"/>
<path d="M54 6H6V54H54V6Z" fill="white"/>
<path d="M54 6H6V54H54V6Z" fill="#0056D2"/>
<path d="M15.4331 30.0348C15.4331 28.4907 16.7069 27.2448 18.3018 27.2448C19.9074 27.2448 21.1812 28.4907 21.1812 30.0348C21.1812 31.5681 19.9074 32.8353 18.3018 32.8353C16.7069 32.8353 15.4331 31.5575 15.4331 30.0348ZM19.8111 30.0348C19.8111 29.2681 19.1367 28.5864 18.3018 28.5864C17.4776 28.5864 16.814 29.2681 16.814 30.0348C16.814 30.8121 17.4883 31.4936 18.3018 31.4936C19.1367 31.4936 19.8111 30.8121 19.8111 30.0348Z" fill="white"/>
<path d="M44.252 30.0772C44.252 28.3841 45.638 27.2448 46.8948 27.2448C47.7546 27.2448 48.2488 27.5003 48.5817 28.0009L48.7107 27.3407H50V32.7289H48.7107L48.5495 32.1751C48.1734 32.5798 47.7007 32.8353 46.9058 32.8353C45.6488 32.8353 44.252 31.7492 44.252 30.0772ZM48.6356 30.0666C48.6356 29.2468 47.9585 28.5864 47.1207 28.5864C46.2934 28.5864 45.6272 29.2575 45.6272 30.0881C45.6272 30.8334 46.3041 31.5043 47.1207 31.5043C47.9692 31.4936 48.6356 30.8228 48.6356 30.0666Z" fill="white"/>
<path d="M42.7065 27.9986V27.3809H41.3384V32.6778H42.7065V29.8199C42.7065 28.9616 43.1241 28.5114 43.8654 28.5114C43.9176 28.5114 43.9595 28.5114 44.0012 28.5219L44.2518 27.2448C43.5418 27.2552 43.0301 27.496 42.7065 27.9986Z" fill="white"/>
<path d="M28.7326 27.9986V27.3809H27.3228L27.3336 32.6778H28.7436L28.7326 29.8199C28.7326 28.9616 29.1632 28.5114 29.9167 28.5114C29.9704 28.5114 30.0134 28.5114 30.0567 28.5219L30.3149 27.2448C29.5829 27.2552 29.0556 27.496 28.7326 27.9986Z" fill="white"/>
<path d="M21.7324 30.6221V27.3235H23.1091V30.4518C23.1091 31.1434 23.4875 31.5477 24.1496 31.5477C24.8853 31.5477 25.3163 31.0903 25.3163 30.2178V27.3235H26.693V32.7075H25.3163V32.0799C24.9904 32.5905 24.465 32.8352 23.7398 32.8352C22.4996 32.8459 21.7324 31.9415 21.7324 30.6221Z" fill="white"/>
<path d="M35.2754 30.0295C35.2754 28.5202 36.3651 27.2342 38.0742 27.2448C39.6656 27.2448 40.7872 28.5202 40.7872 30.0081C40.7872 30.157 40.7765 30.3164 40.7551 30.4547L36.6427 30.444C36.8031 31.0923 37.337 31.5493 38.1382 31.5599C38.6295 31.5599 39.153 31.3792 39.4734 30.9753L40.4242 31.7407C39.9327 32.4314 39.0675 32.8353 38.1489 32.8353C36.5252 32.8141 35.2754 31.6024 35.2754 30.0295ZM39.388 29.4768C39.3131 28.9347 38.7364 28.5095 38.0742 28.5095C37.4226 28.5095 36.8991 28.8922 36.6961 29.4662L39.388 29.4768Z" fill="white"/>
<path d="M30.3149 31.5648L31.5567 30.9189C31.7601 31.3636 32.1775 31.6176 32.7554 31.6176C33.2907 31.6176 33.4941 31.4482 33.4941 31.2153C33.4941 30.3576 30.5397 30.8766 30.5397 28.9071C30.5397 27.8166 31.5032 27.2448 32.6913 27.2448C33.5904 27.2448 34.3932 27.6365 34.8321 28.3778L33.601 29.0236C33.4193 28.6636 33.0766 28.4624 32.6377 28.4624C32.2096 28.4624 32.0062 28.6108 32.0062 28.8542C32.0062 29.6907 34.9606 29.1612 34.9606 31.1624C34.9606 32.2 34.1043 32.8353 32.7233 32.8353C31.546 32.8248 30.7217 32.4436 30.3149 31.5648Z" fill="white"/>
<path d="M10 30.006C10 28.4731 11.2632 27.2448 12.8448 27.2448C13.8638 27.2448 14.7449 27.7488 15.2544 28.5045L14.0655 29.1871C13.7895 28.8092 13.3543 28.5572 12.8448 28.5572C12.0274 28.5572 11.3693 29.2291 11.3693 29.9955C11.3693 30.7617 12.038 31.4336 12.8448 31.4336C13.3755 31.4336 13.8426 31.1607 14.0974 30.7512L15.2756 31.444C14.7767 32.2315 13.8744 32.7565 12.8448 32.7565C11.2632 32.767 10 31.5072 10 30.006Z" fill="white"/>
</g>
<defs>
<clipPath id="clip0_1772_9280">
<rect width="48" height="48" fill="white" transform="translate(6 6)"/>
</clipPath>
</defs>
</svg>
