<svg width="60" height="60" viewBox="0 0 60 60" fill="none" xmlns="http://www.w3.org/2000/svg">
<rect width="60" height="60" fill="white"/>
<g clip-path="url(#clip0_150_880)">
<path d="M44.0867 32.2792H42.7793V34.2234H44.0867C44.2172 34.228 44.3474 34.2063 44.4693 34.1595C44.5913 34.1127 44.7026 34.0418 44.7965 33.9511C44.8905 33.8604 44.9653 33.7517 45.0163 33.6314C45.0674 33.5112 45.0937 33.3819 45.0937 33.2513C45.0937 33.1207 45.0674 32.9914 45.0163 32.8712C44.9653 32.7509 44.8905 32.6422 44.7965 32.5515C44.7026 32.4607 44.5913 32.3899 44.4693 32.3431C44.3474 32.2963 44.2172 32.2746 44.0867 32.2792ZM11.4096 40.8195H49.9954V49.9956H10.001V40.8195V10H49.999V38.2095H48.5941C47.2758 38.2095 46.1502 38.0891 45.0257 36.925L43.6762 35.5224H42.7793V38.1156H41.3743V30.9826H44.2155C44.5151 30.9799 44.8123 31.0366 45.0899 31.1494C45.3674 31.2623 45.6199 31.4291 45.8326 31.6401C46.0453 31.8511 46.214 32.1022 46.3291 32.3789C46.4442 32.6556 46.5032 32.9523 46.5029 33.2519C46.5056 33.6548 46.3997 34.051 46.1963 34.3989C45.993 34.7467 45.6996 35.0334 45.3472 35.2287L46.0599 35.9631C46.9676 36.9033 48.0824 36.9262 48.588 36.9262V11.4037H11.4096V40.8195ZM38.2563 35.5224H36.8152V38.1156H35.4103V30.9826H38.2527C38.555 30.9756 38.8557 31.0291 39.137 31.14C39.4184 31.2509 39.6747 31.4169 39.891 31.6283C40.1073 31.8396 40.2791 32.0921 40.3965 32.3708C40.5138 32.6495 40.5743 32.9489 40.5743 33.2513C40.5743 33.5537 40.5138 33.8531 40.3965 34.1318C40.2791 34.4105 40.1073 34.663 39.891 34.8743C39.6747 35.0857 39.4184 35.2517 39.137 35.3626C38.8557 35.4735 38.555 35.527 38.2527 35.52L38.2563 35.5224ZM38.1262 32.2816H36.8152V34.2258H38.1226C38.2532 34.2304 38.3833 34.2087 38.5053 34.1619C38.6272 34.1151 38.7385 34.0443 38.8325 33.9535C38.9265 33.8628 39.0012 33.7541 39.0522 33.6339C39.1033 33.5136 39.1296 33.3843 39.1296 33.2537C39.1296 33.1231 39.1033 32.9938 39.0522 32.8736C39.0012 32.7533 38.9265 32.6446 38.8325 32.5539C38.7385 32.4632 38.6272 32.3923 38.5053 32.3455C38.3833 32.2987 38.2532 32.277 38.1226 32.2816H38.1262ZM30.0445 37.3162L30.8235 36.2785C31.4603 36.7757 31.9684 36.8732 32.2922 36.8732C32.8328 36.8732 33.0808 36.5819 33.0808 36.2147C33.0808 35.0577 30.2721 35.1011 30.2721 32.9076C30.2721 31.6652 31.3086 30.8766 32.3789 30.8766C33.0482 30.8766 33.7501 31.0283 34.3557 31.6435L33.5238 32.7029C33.2139 32.4146 32.8114 32.246 32.3885 32.2274C32.3044 32.2228 32.2202 32.2354 32.141 32.2642C32.0618 32.293 31.9893 32.3375 31.9278 32.3951C31.8663 32.4527 31.817 32.5221 31.783 32.5992C31.749 32.6763 31.731 32.7595 31.73 32.8438C31.73 33.8912 34.5387 33.9128 34.5387 36.1172C34.5387 37.3704 33.5563 38.224 32.1622 38.224C31.3303 38.224 30.4442 37.8026 30.0445 37.3162ZM29.2343 30.985V38.1156H27.827V30.9826L29.2343 30.985ZM22.3168 32.2792H21.0094V34.2234H22.3168C22.4473 34.228 22.5775 34.2063 22.6994 34.1595C22.8214 34.1127 22.9327 34.0418 23.0266 33.9511C23.1206 33.8604 23.1953 33.7517 23.2464 33.6314C23.2974 33.5112 23.3237 33.3819 23.3237 33.2513C23.3237 33.1207 23.2974 32.9914 23.2464 32.8712C23.1953 32.7509 23.1206 32.6422 23.0266 32.5515C22.9327 32.4607 22.8214 32.3899 22.6994 32.3431C22.5775 32.2963 22.4473 32.2746 22.3168 32.2792ZM23.257 36.925L21.9063 35.5224H21.0094V38.1156H19.6056V30.9826H22.4468C22.7465 30.9797 23.0437 31.0363 23.3214 31.1491C23.599 31.2619 23.8515 31.4287 24.0642 31.6397C24.277 31.8508 24.4457 32.102 24.5607 32.3787C24.6757 32.6554 24.7347 32.9522 24.7342 33.2519C24.7369 33.6548 24.631 34.051 24.4276 34.3989C24.2242 34.7467 23.9309 35.0334 23.5785 35.2287L24.2912 35.9631C25.1989 36.9033 26.3113 36.9262 26.8193 36.9262V38.2228C25.5011 38.2228 24.3778 38.0927 23.2546 36.9262L23.257 36.925ZM12.422 34.5485C12.4222 33.8161 12.6413 33.1004 13.0511 32.4933C13.4608 31.8862 14.0426 31.4154 14.7218 31.1413C15.401 30.8671 16.1467 30.8022 16.863 30.9547C17.5794 31.1073 18.2339 31.4704 18.7424 31.9974L17.7372 32.9269C17.5263 32.7035 17.2716 32.5259 16.9891 32.4051C16.7066 32.2844 16.4023 32.2231 16.0951 32.225C14.8093 32.225 13.8258 33.2627 13.8258 34.5485C13.8258 35.8342 14.8093 36.8708 16.0951 36.8708C16.4023 36.8727 16.7066 36.8114 16.9891 36.6906C17.2716 36.5699 17.5263 36.3923 17.7372 36.1689L18.7424 37.0983C18.2339 37.6253 17.5796 37.9884 16.8633 38.141C16.1471 38.2936 15.4015 38.2287 14.7224 37.9547C14.0432 37.6808 13.4614 37.2101 13.0516 36.6032C12.6417 35.9963 12.4225 35.2808 12.422 34.5485Z" fill="#231F20"/>
<path d="M12.9638 44.3372H13.8029V47.0099H14.4217V44.3372H15.2656V43.8099H12.9638V44.3372Z" fill="white"/>
<path d="M16.6296 43.8099H16.0156V47.0099H16.6296V45.5989H17.9009V47.0099H18.5149V43.8099H17.9009V45.0849H16.6296V43.8099Z" fill="white"/>
<path d="M19.9921 44.3372H21.3874V43.8099H19.3781V47.0099H21.4403V46.4862H19.9921V45.6134H21.2634V45.0897H19.9921V44.3372Z" fill="white"/>
<path fill-rule="evenodd" clip-rule="evenodd" d="M22.2397 47.0099H22.8537V45.7904H23.2956L23.9529 47.0099H24.668L23.9288 45.6857C24.1038 45.6152 24.2524 45.4918 24.3539 45.3327C24.4553 45.1736 24.5045 44.9868 24.4946 44.7984C24.501 44.6317 24.462 44.4664 24.3819 44.3202C24.3018 44.1739 24.1834 44.0521 24.0396 43.9677C23.8229 43.8473 23.6025 43.8148 23.0367 43.8148H22.2397V47.0148V47.0099ZM22.8537 44.3373H23.0319C23.4497 44.3373 23.5351 44.3469 23.6651 44.418C23.73 44.4564 23.7833 44.5115 23.8195 44.5776C23.8558 44.6437 23.8735 44.7183 23.871 44.7936C23.871 45.1487 23.6748 45.2631 23.0801 45.2631H22.8537V44.3373Z" fill="white"/>
<path fill-rule="evenodd" clip-rule="evenodd" d="M25.0713 47.0099H25.6997L25.902 46.3429H27.0288L27.225 47.0099H27.8643L26.7808 43.8099H26.1572L25.0737 47.0099H25.0713ZM26.0549 45.8192L26.463 44.5142L26.8759 45.8192H26.0549Z" fill="white"/>
<path fill-rule="evenodd" clip-rule="evenodd" d="M28.4373 47.0099H29.061V45.8144H29.2476C29.5214 45.8275 29.7958 45.8048 30.0638 45.747C30.4478 45.6374 30.6922 45.2823 30.6922 44.826C30.7008 44.6995 30.6833 44.5725 30.641 44.4529C30.5987 44.3333 30.5324 44.2236 30.4461 44.1306C30.3599 44.0376 30.2555 43.9632 30.1395 43.912C30.0234 43.8608 29.8981 43.8338 29.7713 43.8328C29.6027 43.8196 29.4691 43.8099 29.1862 43.8099H28.4373V47.0099ZM29.0513 44.3372H29.2765C29.8712 44.3372 30.0638 44.4576 30.0638 44.8188C30.0638 45.1511 29.8712 45.2895 29.4161 45.2895H29.0549V44.3348L29.0513 44.3372Z" fill="white"/>
<path d="M31.9527 44.3372H33.3492V43.8099H31.3387V47.0099H33.4022V46.4862H31.9527V45.6134H33.224V45.0897H31.9527V44.3372Z" fill="white"/>
<path d="M34.0246 45.6567C34.0246 46.1214 34.0487 46.2755 34.145 46.4765C34.3328 46.8558 34.7469 47.0725 35.2875 47.0725C35.828 47.0725 36.2506 46.8558 36.4288 46.4765C36.5299 46.2755 36.5492 46.1214 36.5492 45.6567V43.8099H35.9352V45.6471C35.9375 45.7624 35.9326 45.8778 35.9207 45.9926C35.887 46.3477 35.6619 46.5392 35.2827 46.5392C35.1784 46.5475 35.0737 46.529 34.9787 46.4854C34.8836 46.4417 34.8014 46.3744 34.7397 46.2899C34.6494 46.1551 34.635 46.0407 34.635 45.6471V43.8099H34.0162V45.6567H34.0246Z" fill="white"/>
<path d="M37.2546 44.3372H38.0937V47.0099H38.7125V44.3372H39.5565V43.8099H37.2546V44.3372Z" fill="white"/>
<path d="M40.9434 43.8099H40.3294V47.0099H40.9434V43.8099Z" fill="white"/>
<path d="M43.0995 43.7522C42.2495 43.7522 41.6885 44.4143 41.6885 45.4172C41.6885 46.42 42.2544 47.0725 43.1332 47.0725C43.8483 47.0725 44.2372 46.65 44.2757 45.8253H43.7243C43.6858 46.3068 43.4835 46.5392 43.1139 46.5392C42.6324 46.5392 42.3374 46.1118 42.3374 45.4172C42.3374 44.7225 42.6348 44.2795 43.1103 44.2795C43.4366 44.2795 43.6424 44.4818 43.7051 44.8513H44.2324C44.189 44.1447 43.7857 43.7522 43.1055 43.7522H43.0995Z" fill="white"/>
<path d="M47.0386 44.3036C46.8749 43.9581 46.4969 43.7522 46.031 43.7522C45.3881 43.7522 44.9475 44.1362 44.9475 44.6876C44.9441 44.8703 45.0013 45.0489 45.11 45.1957C45.2304 45.3642 45.4074 45.475 45.8323 45.6519L46.226 45.8145C46.4945 45.9348 46.604 46.0408 46.604 46.1985C46.604 46.4008 46.3982 46.5392 46.096 46.5392C45.6975 46.5392 45.4772 46.3321 45.4387 45.9204H44.8439C44.8728 46.674 45.305 47.0725 46.0912 47.0725C46.7918 47.0725 47.2336 46.6873 47.2336 46.0889C47.2404 45.9097 47.1898 45.733 47.0892 45.5845C47.0325 45.5046 46.9609 45.4364 46.8785 45.3835C46.7945 45.325 46.704 45.2765 46.6088 45.239C46.5619 45.2149 46.4415 45.1668 46.2477 45.0897L45.9395 44.9693C45.6517 44.8489 45.5614 44.7683 45.5614 44.6238C45.5614 44.4276 45.7625 44.2783 46.0261 44.2783C46.0919 44.2725 46.1582 44.2803 46.2209 44.3012C46.2835 44.3221 46.3412 44.3557 46.3903 44.3999C46.4394 44.444 46.4789 44.4978 46.5064 44.5579C46.5338 44.6179 46.5486 44.683 46.5498 44.749H47.1397C47.1427 44.5947 47.1097 44.4418 47.0434 44.3024L47.0386 44.3036Z" fill="white"/>
</g>
<defs>
<clipPath id="clip0_150_880">
<rect width="40" height="40" fill="white" transform="translate(10 10)"/>
</clipPath>
</defs>
</svg>
