<svg width="60" height="60" viewBox="0 0 60 60" fill="none" xmlns="http://www.w3.org/2000/svg">
<rect width="60" height="60" fill="black"/>
<g clip-path="url(#clip0_1534_8443)">
<path d="M28.0963 40.5624C31.8536 41.95 35.9555 42.0602 39.7803 40.8763C43.605 39.6923 46.944 37.2789 49.2909 34.0017C50.0962 29.8458 49.4761 25.5362 47.5329 21.7852C45.5898 18.0342 42.4399 15.0663 38.604 13.3721L35.4832 20.6349C37.95 21.7298 39.9084 23.7396 40.9555 26.2508C42.0027 28.7621 42.059 31.5839 41.1128 34.1358C40.1666 36.6878 38.2899 38.7759 35.8687 39.9705C33.4475 41.1652 30.6659 41.3756 28.0961 40.5585L28.0963 40.5624Z" fill="url(#paint0_linear_1534_8443)"/>
<path d="M49.2909 34.0017C46.9107 37.3258 43.5107 39.7601 39.6207 40.9252C35.7307 42.0903 31.5691 41.9209 27.7842 40.4433L27.0855 40.1789L22.4349 51.0001L28.1786 48.7111C32.899 49.5344 37.7505 48.4564 41.6958 45.7077C45.641 42.9589 48.367 38.7575 49.2909 34.0017Z" fill="#00999E"/>
<path d="M32.5376 19.4379C28.7804 18.0503 24.6784 17.9401 20.8537 19.1239C17.0289 20.3078 13.69 22.7213 11.343 25.9984C10.5384 30.1539 11.1589 34.4628 13.102 38.2132C15.0451 41.9636 18.1946 44.931 22.03 46.6252L25.1508 39.3623C22.6822 38.2686 20.722 36.2589 19.6736 33.7469C18.6252 31.2349 18.5685 28.4118 19.515 25.8588C20.4616 23.3058 22.3394 21.217 24.7619 20.0226C27.1845 18.8282 29.9672 18.6189 32.5376 19.4379Z" fill="url(#paint1_linear_1534_8443)"/>
<path d="M11.343 25.9984C13.7233 22.6743 17.1232 20.24 21.0132 19.0749C24.9032 17.9098 29.0648 18.0792 32.8498 19.5568L33.5485 19.8212L38.199 9L32.4554 11.289C28.4063 10.591 24.2429 11.285 20.6291 13.2602C17.0152 15.2355 14.1591 18.3782 12.5161 22.1873C11.9909 23.4113 11.5976 24.6891 11.343 25.9984Z" fill="#00999E"/>
</g>
<defs>
<linearGradient id="paint0_linear_1534_8443" x1="46.7912" y1="16.9398" x2="23.9103" y2="48.1004" gradientUnits="userSpaceOnUse">
<stop offset="0.1" stop-color="#00999E"/>
<stop offset="0.75" stop-color="#003946"/>
</linearGradient>
<linearGradient id="paint1_linear_1534_8443" x1="13.8432" y1="43.0577" x2="36.7206" y2="11.8986" gradientUnits="userSpaceOnUse">
<stop offset="0.1" stop-color="#00999E"/>
<stop offset="0.75" stop-color="#003946"/>
</linearGradient>
<clipPath id="clip0_1534_8443">
<rect width="39" height="42" fill="white" transform="translate(11 9)"/>
</clipPath>
</defs>
</svg>
