<svg width="60" height="60" viewBox="0 0 60 60" fill="none" xmlns="http://www.w3.org/2000/svg">
<rect width="60" height="60" fill="#38ABD4"/>
<g clip-path="url(#clip0_150_1080)">
<path d="M30.0218 11.6294C27.7426 11.6355 25.4548 11.792 23.1879 12.1185C22.1296 12.2404 21.096 12.5176 20.1202 12.9427H20.3112C21.0081 13.2244 21.7334 13.4297 22.4746 13.555C24.9719 13.9702 27.5012 14.1673 30.0342 14.1439C32.3171 14.1673 34.5975 14.0083 36.8557 13.6732C37.9106 13.5526 38.943 13.283 39.9222 12.8724H39.7325C39.0428 12.5929 38.3255 12.3872 37.5925 12.2589C35.0942 11.8457 32.565 11.6487 30.0329 11.67V11.6466L30.0218 11.6294ZM30.0342 15.8169C27.6476 15.8358 25.2632 15.6702 22.9021 15.3217C21.4164 15.2169 19.9794 14.7476 18.7182 13.9554C18.446 13.6935 18.2772 13.3423 18.2427 12.9661C18.271 12.5891 18.4398 12.2355 18.7182 11.9768C18.972 11.7452 19.2603 11.5542 19.5745 11.4113C20.3863 11.0855 21.2311 10.8484 22.0939 10.7041C24.6926 10.2601 27.3266 10.0552 29.9627 10.0918C32.3482 10.066 34.7322 10.2238 37.0935 10.5637C38.5755 10.6828 40.001 11.186 41.2294 12.0236C41.3781 12.1435 41.4996 12.2938 41.5856 12.4644C41.6717 12.635 41.7203 12.822 41.7283 13.0129C41.718 13.2033 41.6684 13.3895 41.5825 13.5598C41.4966 13.7301 41.3764 13.8807 41.2294 14.0022C40.9805 14.2153 40.6996 14.3903 40.3978 14.5196C39.5883 14.858 38.7431 15.1035 37.8783 15.2514C35.2864 15.6831 32.6617 15.888 30.0342 15.8637" fill="#FAB547"/>
<path d="M47.897 32.4081C47.024 31.3035 46.2333 30.1361 45.5315 28.9154H45.7225C45.7225 28.9154 50.1208 28.6813 49.336 27.1721C49.336 27.1721 48.4797 25.3586 45.247 25.3586H44.796C44.6531 25.3586 44.4388 25.3586 44.3673 26.5364C43.3721 24.2036 41.8119 22.1553 39.8274 20.576C39.3542 20.3163 38.8393 20.1412 38.3059 20.0586C37.3794 19.8922 30.3668 19.822 29.7964 19.822C29.226 19.822 22.2135 19.822 21.2858 20.0573C20.7516 20.136 20.2363 20.3118 19.7655 20.576C17.7805 22.1551 16.2199 24.2035 15.2243 26.5364C15.2243 25.4289 14.9397 25.3586 14.7734 25.3586H14.3447C11.1119 25.3586 10.2569 27.1721 10.2569 27.1721C9.4721 28.6801 13.8703 28.9167 13.8703 28.9167H14.0601C13.355 30.1436 12.5603 31.3168 11.6823 32.4266C11.1966 32.9825 10.7743 33.5908 10.4232 34.2401C10.1833 34.9043 10.0704 35.6077 10.0906 36.3136V48.8554C10.0752 48.9723 10.0955 49.0911 10.149 49.1962C10.2024 49.3013 10.2864 49.3878 10.3899 49.4443C10.4589 49.4812 10.5353 49.5059 10.6129 49.5145L15.8428 49.5071C15.9632 49.4978 16.0779 49.4524 16.172 49.3768C16.2661 49.3012 16.3352 49.1988 16.3701 49.0833C16.3926 49.007 16.3993 48.9269 16.3898 48.848V48.2751H43.2031V48.848C43.1881 48.9677 43.2104 49.0891 43.2671 49.1957C43.3238 49.3022 43.412 49.3886 43.5197 49.443C43.5911 49.48 43.6688 49.5009 43.7501 49.5071H48.959C49.0793 49.4978 49.1941 49.4524 49.2882 49.3768C49.3823 49.3012 49.4514 49.1988 49.4863 49.0833C49.5088 49.007 49.5155 48.9269 49.506 48.848L49.5023 42.4711C49.5023 42.4711 49.4542 37.4692 49.5023 36.3136C49.5337 35.6048 49.4119 34.8975 49.145 34.2401C48.8087 33.5875 48.3937 32.9784 47.9093 32.4266L47.897 32.4081ZM17.198 27.5725C18.1135 25.422 19.2445 23.3697 20.5737 21.447C20.5737 21.447 23.4492 21.3066 27.2758 21.2832V22.2257C27.2756 22.2848 27.2872 22.3435 27.3099 22.3981C27.3326 22.4528 27.366 22.5024 27.4081 22.544C27.4502 22.5856 27.5001 22.6185 27.555 22.6406C27.61 22.6627 27.6687 22.6737 27.7279 22.6729H32.173C32.2651 22.6775 32.3564 22.6541 32.435 22.6057C32.5135 22.5573 32.5755 22.4862 32.6128 22.4018C32.637 22.3463 32.6496 22.2863 32.6497 22.2257V21.5653L32.5302 21.2819C36.3568 21.2819 39.2101 21.447 39.2101 21.447C40.5753 23.3595 41.7457 25.4037 42.7041 27.5491C42.9653 28.2563 42.3752 28.5594 42.3752 28.5594H17.4136C17.4136 28.5594 16.8161 28.2797 17.1968 27.5738L17.198 27.5725ZM12.4425 37.9398C11.4692 37.7033 11.3743 37.1144 11.3743 37.1144C11.276 36.2616 11.3815 35.3977 11.6823 34.5937C11.8277 34.266 12.0802 33.9962 12.3993 33.8299C12.7197 33.6623 13.0868 33.6081 13.4416 33.6746C14.4617 33.9925 15.4301 34.452 16.3183 35.0422C17.9815 35.8898 18.1959 38.7874 18.1959 38.7874C16.2632 38.6172 14.3421 38.3342 12.4425 37.9398ZM39.7091 38.9525C36.7375 39.1878 32.4588 39.2113 29.8679 39.2113C27.277 39.2113 22.9982 39.2113 20.0267 38.9525C20.0267 38.9525 19.1951 37.1624 20.4776 37.1144C20.6451 37.1144 24.4717 36.9739 29.9862 36.9739C35.5018 36.9739 39.2089 37.1144 39.3765 37.1144C40.5173 37.2561 39.6845 39.0462 39.6845 39.0462L39.7091 38.9525ZM48.3615 37.1144C48.3615 37.1144 48.242 37.7033 47.2921 37.9398C45.3849 38.3341 43.4556 38.6174 41.5152 38.7874C41.5152 38.7874 41.753 35.8898 43.3928 35.0422C44.2845 34.4567 45.2525 33.9966 46.2695 33.6746C46.6268 33.6106 46.9964 33.666 47.3192 33.8323C47.642 33.9987 47.8995 34.266 48.0522 34.5937C48.3454 35.4327 48.4428 36.3271 48.338 37.2093L48.3615 37.1144Z" fill="#FEFEFD"/>
</g>
<defs>
<clipPath id="clip0_150_1080">
<rect width="40" height="40" fill="white" transform="translate(10 10)"/>
</clipPath>
</defs>
</svg>
