<svg width="60" height="60" viewBox="0 0 60 60" fill="none" xmlns="http://www.w3.org/2000/svg">
<g clip-path="url(#clip0_150_1095)">
<rect width="60" height="60" fill="#001449"/>
<path d="M22.7036 25.8322L30 21.675V12.8572L15 21.4393L22.7143 25.8429L22.7036 25.8322Z" fill="#4B8DC9"/>
<path d="M29.9893 38.55L37.2964 34.35L45 30V38.6893L30.0107 47.1429L30 38.5715L29.9893 38.55ZM30 21.6643L37.2857 25.8322L44.9785 21.4179L30 12.8572V21.6643Z" fill="#2D72AD"/>
<path d="M29.9893 38.5499L22.5 34.2856L15 38.5821L30 47.1428V38.5714L29.9893 38.5499Z" fill="#4B8DC9"/>
<path d="M22.7036 34.1571V25.8428L15 21.4392L15.0214 38.5821L22.7143 34.1678L22.7036 34.1571Z" fill="#2D72AD"/>
<path d="M29.9893 21.4072L37.5 25.7144V34.2858L30 30.0001V21.4287L29.9893 21.4072Z" fill="#7F8082"/>
<path d="M29.9893 21.4072L22.5 25.7251V34.2858L30 30.0001V21.4394" fill="#575859"/>
</g>
<defs>
<clipPath id="clip0_150_1095">
<rect width="60" height="60" fill="white"/>
</clipPath>
</defs>
</svg>
