<svg width="60" height="60" viewBox="0 0 60 60" fill="none" xmlns="http://www.w3.org/2000/svg">
<rect width="60" height="60" fill="#2B6BBC"/>
<g clip-path="url(#clip0_168_447)">
<path d="M40.3437 13.314C38.2122 11.8037 35.766 10.8012 33.1909 10.3827C30.6158 9.96421 27.9795 10.1408 25.4826 10.899L13.4567 14.5262V21.4451L40.3568 13.3337L40.3437 13.314ZM46.2529 20.8973C45.4114 18.7252 44.1235 16.7557 42.4731 15.1172L13.4567 23.868V30.7896L46.2529 20.8973ZM47.0828 29.9902C47.512 27.7691 47.4872 25.4339 46.9392 23.1119L13.4593 33.2138V40.1327L47.0841 29.9928L47.0828 29.9902ZM35.3896 42.861C40.6595 41.2715 44.5737 37.3743 46.339 32.6372L13.4567 42.5543V49.4759L35.3896 42.861Z" fill="#FEFEFD"/>
</g>
<defs>
<clipPath id="clip0_168_447">
<rect width="35" height="40" fill="white" transform="translate(13 10)"/>
</clipPath>
</defs>
</svg>
