<svg width="60" height="60" viewBox="0 0 60 60" fill="none" xmlns="http://www.w3.org/2000/svg">
<rect width="60" height="60" fill="#247218"/>
<path d="M30.1643 10.0001C36.387 10.0001 42.7268 11.3739 48.6843 14.3273C50.7865 19.4905 51.7472 24.8056 51.7472 29.9929C51.7472 35.1653 50.7989 40.4205 48.6953 45.632C42.7147 48.5998 36.3963 49.9605 30.166 49.9605C23.9389 49.9605 17.6233 48.5998 11.6361 45.632C9.53236 40.421 8.58667 35.1655 8.58667 29.9929C8.58667 24.8058 9.54458 19.4904 11.6482 14.3273C17.6068 11.3738 23.9483 10 30.166 10" fill="#247218"/>
<path d="M12.9405 44.3887C11.2014 39.9205 10.2489 35.0641 10.2489 29.993C10.2489 24.9102 11.2027 20.0481 12.9501 15.5691C18.1263 13.083 24.0184 11.6888 30.164 11.6888C36.3119 11.6888 42.2078 13.0831 47.3802 15.5691C49.1269 20.0479 50.082 24.91 50.082 29.993C50.082 35.0638 49.1324 39.9204 47.3912 44.3887C42.2157 46.8783 36.3174 48.2733 30.164 48.2733C24.014 48.2733 18.1159 46.8783 12.9402 44.3887" fill="#FCDF17"/>
<path d="M46.405 43.4555C45.3171 41.62 43.8558 40.1376 43.84 40.1235C43.8221 40.1143 43.536 40.0234 43.536 40.0234C40.4346 39.0465 38.4018 38.312 37.5032 37.8348C36.2667 37.1765 34.9677 35.5786 34.8247 35.3988C33.375 35.2867 32.1757 35.3107 31.0218 35.4538L30.2867 35.5517C28.8852 35.7371 27.4383 35.9331 26.0204 35.6998C25.0762 35.5412 24.1595 35.2331 23.1878 34.9089C21.6907 34.4063 20.1572 33.8904 18.405 33.8932H18.3348L18.3651 33.9567C18.7632 34.7503 20.336 37.1589 22.3055 37.8208C22.7401 37.9279 23.0543 38.0463 23.1905 38.1556C23.1905 38.1605 23.9442 39.7323 24.1499 40.1574C22.9244 39.5872 19.1339 37.6114 16.076 33.7972V33.7916C16.076 33.7408 15.9969 32.9986 15.9804 32.8364C17.8014 32.14 21.9021 31.7362 22.3642 31.6911L22.3979 31.6882L22.4124 31.6502C22.6572 29.439 23.1682 27.6698 24.1254 25.7321C24.1529 25.6736 24.1694 25.62 24.1694 25.5735C24.1694 25.5397 24.1598 25.5051 24.146 25.4776C24.0924 25.3733 23.9611 25.3529 23.9556 25.3529C23.9556 25.3529 21.308 24.8792 21.165 24.8538C21.1498 24.8059 20.8865 23.9776 20.8638 23.9086C22.8752 23.1417 25.355 22.4242 26.7745 22.1084C27.0145 21.7158 27.0819 21.5022 27.0819 21.2456C27.0819 21.0278 26.9794 20.8424 26.7745 20.7001C25.7684 20.0008 22.5996 20.4216 19.3938 21.6819C19.3869 21.6685 19.3869 21.6657 19.3773 21.6516C20.043 21.1413 21.2326 20.3828 22.1149 19.9627L22.1493 19.943L22.139 19.9092C21.8996 19.0781 20.3338 18.4424 20.1578 18.3775C20.1612 18.3493 20.164 18.3303 20.1667 18.3084C21.7587 18.1971 22.815 18.9604 23.1375 19.5046L23.154 19.5314L23.1856 19.5208C23.3899 19.4531 24.1092 19.2191 24.8877 19.1246L24.9331 19.1225L24.9207 19.0739C24.6649 17.6761 23.3631 16.7428 22.9195 16.4616C22.9319 16.4391 22.936 16.4306 22.9484 16.4144C24.4854 16.5363 25.9054 17.8932 26.2252 19.04L26.2341 19.071L26.2657 19.0738C26.6784 19.0886 27.179 19.1359 27.5139 19.1937L27.5483 19.1993L27.5607 19.1697C27.6858 18.8687 27.747 18.5473 27.747 18.2167C27.747 17.1841 27.1776 16.0767 26.4776 15.3768C26.4913 15.3571 26.4975 15.3388 26.5154 15.3219C28.5344 16.1071 29.0481 17.5986 29.0481 18.9872C29.0481 19.9592 28.7965 20.8847 28.6342 21.4746L28.5661 21.7192C28.5661 21.7192 31.5396 21.3513 31.7404 21.3266C31.4378 21.7192 30.7859 22.4184 29.4842 23.155C29.4842 23.148 28.1425 22.9795 28.1425 22.9795L28.1074 22.9739L28.0957 23.0091C28.0056 23.2932 27.2203 25.8364 27.2161 27.7057C27.2161 28.3986 27.4073 28.9364 27.7849 29.3072C28.4574 29.9704 29.5715 30.0071 30.3499 29.9761C33.6597 29.852 36.2425 30.0606 38.0348 30.6041L38.1407 30.6337L38.1572 30.6084C38.2687 30.4328 38.356 30.1072 38.356 29.6758C38.356 28.8567 38.0362 27.6359 36.9607 26.2551C36.9724 26.2452 36.9724 26.2382 36.9862 26.2276C37.1643 26.3284 40.0676 28.0186 40.4555 30.5703C40.3874 30.597 39.0643 31.1504 39.0643 31.1504L39.1069 31.1948C40.3337 32.5115 40.7573 34.1024 41.097 35.3761C41.3673 36.3855 41.6898 37.0304 42.1176 37.4089C42.6134 37.8474 44.4921 38.7665 45.056 39.0364C45.525 39.7194 46.3309 40.9995 46.9155 41.9906V41.9885C48.1849 38.1272 48.8341 34.1024 48.8341 29.9933C48.8341 25.349 48.0075 20.8142 46.3914 16.5015C41.3886 14.1861 35.7875 12.9553 30.1628 12.9553C24.5376 12.9553 18.9427 14.186 13.9386 16.5015C12.3205 20.8147 11.4946 25.3491 11.4946 29.9933C11.4946 34.6264 12.3191 39.151 13.9289 43.462C18.9339 45.781 24.5351 47.006 30.1631 47.006C35.7938 47.006 41.3948 45.781 46.3989 43.462L46.4058 43.4556L46.405 43.4555Z" fill="url(#paint0_radial_1746_9109)"/>
<defs>
<radialGradient id="paint0_radial_1746_9109" cx="0" cy="0" r="1" gradientTransform="matrix(-0.714051 -20.2832 -20.2843 0.750335 31.0372 27.0681)" gradientUnits="userSpaceOnUse">
<stop stop-color="#5AAD35"/>
<stop offset="0.67532" stop-color="#438E2F"/>
<stop offset="1" stop-color="#2C702A"/>
</radialGradient>
</defs>
</svg>
