<svg width="60" height="60" viewBox="0 0 60 60" fill="none" xmlns="http://www.w3.org/2000/svg">
<rect width="60" height="60" fill="#007DB8"/>
<path d="M49.1667 32.65V34.9333H41.9667V23.6333H44.5833V32.6333H49.1667V32.65ZM27.3333 23L20.95 27.9167C20.295 25.4667 18.1667 23.6667 15.55 23.6667H10.9667V34.9667H15.55C18.1667 34.9667 20.4667 33.1667 20.95 30.7167L27.3333 35.6333L33.7167 30.7167V34.9667H40.9167V32.6667H36.1667V23.6667H33.55V27.9167L27.5 32.8333L26.1917 31.6867L29.1417 29.3867L32.2583 26.9367L30.4583 25.465L24.4083 30.215L23.1 29.0683L29.15 24.485L27.35 23.0133H27.3468L27.3333 23ZM13.4167 25.95H15.3833C15.7917 25.95 16.1933 26.0417 16.5617 26.21C16.93 26.3783 17.2683 26.625 17.555 26.9333C17.8417 27.24 18.075 27.6067 18.2383 28.02C18.402 28.435 18.4917 28.8967 18.4917 29.3867C18.4917 29.8367 18.4115 30.275 18.26 30.6817C18.109 31.0883 17.8883 31.4617 17.6117 31.7783C17.335 32.095 17.005 32.355 16.6283 32.5367C16.2517 32.7183 15.8317 32.82 15.3817 32.82H13.415V25.9533L13.4167 25.95Z" fill="white"/>
</svg>
