<svg width="60" height="60" viewBox="0 0 60 60" fill="none" xmlns="http://www.w3.org/2000/svg">
<rect width="60" height="60" fill="white"/>
<g clip-path="url(#clip0_168_396)">
<path d="M27.3188 35.1223V45.6769C27.2621 48.285 27.2387 48.343 27.198 48.4267C26.9516 49.1228 25.8626 49.4875 25.8823 49.5072H33.7868C33.2955 49.2281 32.8746 48.8404 32.556 48.3738C32.4944 48.2838 32.2603 48.2025 32.2603 44.1603V24.4483L25.6753 31.3512C26.1163 31.1541 26.7545 31.2649 27.0588 31.6444C27.3631 31.9832 27.3311 32.1668 27.3311 35.1408L27.3188 35.1223Z" fill="black"/>
<path d="M10.0708 30.0034C10.0831 29.3283 10.1176 28.642 10.1878 27.9681L27.7315 10.1891C29.3375 10.0213 30.9581 10.0535 32.5561 10.2852L10.2815 32.8592C10.1491 31.9192 10.0828 30.9711 10.0831 30.0219M16.8961 45.1102C16.0155 44.3379 15.2038 43.4904 14.4703 42.5772L24.4618 32.5167C24.9041 32.3233 25.541 32.4267 25.8441 32.805C26.0622 33.108 26.0696 33.3606 26.0991 35.6817L16.8961 45.1102ZM42.1484 14.5295C43.0526 15.2724 43.8895 16.0936 44.6494 16.9836L33.4911 27.9681V22.9773L42.1484 14.5295ZM38.3391 12.0741C39.4232 12.6063 40.4507 13.2346 41.4117 13.9517L13.9011 41.8281C13.1909 40.8485 12.5703 39.807 12.0469 38.7161L38.3391 12.0741ZM33.6735 10.4774C34.9794 10.7448 36.2422 11.1427 37.4409 11.6601L11.6391 37.8057C11.1241 36.5759 10.7332 35.2977 10.4724 33.9902L33.6735 10.4774ZM10.4022 26.4244C11.8621 18.2969 18.186 11.8893 26.2076 10.4084L10.4022 26.4244Z" fill="#6EBD48"/>
<path d="M45.125 42.2495C44.4092 43.192 43.6022 44.0494 42.7275 44.8305L33.4912 35.7704V30.7685L45.1373 42.268L45.125 42.2495ZM47.6013 38.5411C47.0876 39.6315 46.5898 40.5764 45.8962 41.5472L33.8103 29.3011L36.1449 26.9357L47.6013 38.5411ZM49.145 33.7967C48.8935 35.1074 48.5117 36.3897 48.0054 37.6245L36.7979 26.2741L39.2594 23.7781L49.145 33.7967ZM43.0306 19.9576L45.2519 17.7092C47.1467 20.1511 48.545 22.9945 49.1499 26.1657L43.0306 19.9576ZM42.3776 20.6205L49.3853 27.7291C49.5653 29.3689 49.5463 31.0244 49.3286 32.6596L39.9161 23.1153L42.3776 20.6205Z" fill="#01944A"/>
</g>
<defs>
<clipPath id="clip0_168_396">
<rect width="40" height="40" fill="white" transform="translate(10 10)"/>
</clipPath>
</defs>
</svg>
