<svg width="60" height="60" viewBox="0 0 60 60" fill="none" xmlns="http://www.w3.org/2000/svg">
<rect width="60" height="60" fill="#BE011D"/>
<g clip-path="url(#clip0_1403_9023)">
<path fill-rule="evenodd" clip-rule="evenodd" d="M11.2576 36.0937C11.4711 36.9964 12.0612 37.4324 13.0477 37.4324H47.3116C48.2936 37.4324 48.8765 36.9964 49.0873 36.1072C49.9997 32.2558 50.9147 28.4051 51.8323 24.555C51.852 24.4738 51.8516 24.3891 51.8313 24.3082C51.8109 24.2272 51.7712 24.1524 51.7156 24.0902C51.6599 24.0279 51.59 23.9802 51.5117 23.951C51.4335 23.9218 51.3494 23.912 51.2666 23.9225L30.1891 26.2865L9.1837 23.9225C9.10135 23.9119 9.01765 23.9213 8.93976 23.9501C8.86188 23.9789 8.79213 24.0261 8.73651 24.0878C8.68088 24.1494 8.64103 24.2236 8.62038 24.3041C8.59973 24.3845 8.59889 24.4687 8.61793 24.5496L9.19181 27.0595C9.75487 29.5297 10.5522 33.0252 11.2666 36.1072L11.2576 36.0937ZM48.2909 35.7919C48.1531 36.3622 47.8585 36.5306 47.2179 36.5252L13.1486 36.5315C12.5071 36.5369 12.208 36.3622 12.0702 35.7919C10.7693 30.3865 9.50442 24.8198 9.50442 24.8198L30.2008 27.0973L50.9459 24.8198C50.9459 24.8198 49.5909 30.3874 48.2909 35.7919Z" fill="#326531"/>
<path d="M43.2702 37.1667C43.2792 37.818 42.7314 38.3333 42.0521 38.3333H18.308C17.6341 38.3333 17.0801 37.818 17.0801 37.1802V36.7838C17.0801 36.1459 17.6278 35.6306 18.308 35.6306H42.0521C42.726 35.6306 43.2792 36.1459 43.2792 36.7838V37.1802L43.2702 37.1667Z" fill="#326531"/>
<path d="M19.1531 36.1595C19.1621 36.1496 19.1801 36.1324 19.2053 36.1324H19.7531C20.1855 36.1324 20.5414 36.4721 20.5414 36.8928C20.538 37.0989 20.4533 37.2954 20.3056 37.4392C20.1579 37.583 19.9592 37.6625 19.7531 37.6604H19.2053C19.1998 37.6606 19.1942 37.6597 19.189 37.6577C19.1839 37.6557 19.1791 37.6527 19.1752 37.6488C19.1712 37.6449 19.1681 37.6403 19.166 37.6351C19.1639 37.63 19.1629 37.6245 19.163 37.6189V36.173L19.1531 36.1595ZM19.7351 37.3324C19.7935 37.3333 19.8514 37.3223 19.9055 37.3002C19.9595 37.2781 20.0085 37.2452 20.0495 37.2036C20.0905 37.162 20.1226 37.1126 20.144 37.0582C20.1654 37.0039 20.1755 36.9458 20.1738 36.8874C20.1749 36.8295 20.1643 36.7719 20.1426 36.7182C20.121 36.6645 20.0887 36.6157 20.0477 36.5747C20.0068 36.5337 19.958 36.5015 19.9043 36.4798C19.8505 36.4581 19.793 36.4475 19.7351 36.4486H19.5188V37.3315L19.7351 37.3324Z" fill="#FEFEFD"/>
<path fill-rule="evenodd" clip-rule="evenodd" d="M19.1892 36.1541C19.1964 36.1685 19.1955 36.1703 19.1955 36.173V37.6189C19.1955 37.6225 19.1964 37.6234 19.1982 37.6252C19.1982 37.6252 19.2009 37.627 19.2054 37.627H19.7531C19.9504 37.629 20.1404 37.5529 20.2818 37.4154C20.4232 37.2778 20.5045 37.09 20.5081 36.8928C20.5081 36.491 20.1694 36.1649 19.7531 36.1649H19.2054C19.2009 36.1649 19.1982 36.1676 19.1982 36.1676L19.1892 36.1541ZM19.1306 36.173C19.1306 36.1306 19.164 36.1 19.2054 36.1H19.7531C20.2036 36.1 20.5739 36.4523 20.5739 36.8928C20.5703 37.1075 20.482 37.312 20.3283 37.4619C20.1746 37.6117 19.9678 37.6947 19.7531 37.6928H19.2054C19.1956 37.693 19.1858 37.6913 19.1767 37.6877C19.1676 37.6841 19.1593 37.6787 19.1523 37.6718C19.1453 37.6649 19.1398 37.6566 19.1361 37.6476C19.1324 37.6385 19.1305 37.6287 19.1306 37.6189V36.173ZM19.4856 36.4487C19.4856 36.4306 19.5 36.4153 19.518 36.4153H19.7342C20.0063 36.4153 20.2063 36.6234 20.2063 36.8874C20.2063 37.1568 20.0063 37.3649 19.7351 37.3649H19.5189C19.5146 37.365 19.5103 37.3642 19.5062 37.3627C19.5022 37.3611 19.4985 37.3587 19.4954 37.3557C19.4923 37.3527 19.4898 37.3491 19.4881 37.3451C19.4864 37.3411 19.4856 37.3368 19.4856 37.3324V36.4487ZM19.5504 36.4811V37.2991H19.7351C19.9694 37.2991 20.1414 37.1216 20.1414 36.8874C20.1425 36.8337 20.1328 36.7804 20.1128 36.7306C20.0927 36.6808 20.0628 36.6356 20.0249 36.5976C19.9869 36.5597 19.9417 36.5298 19.8919 36.5098C19.8421 36.4897 19.7888 36.48 19.7351 36.4811H19.5504Z" fill="#FEFEFD"/>
<path d="M22.5424 36.0955C23.0028 36.109 23.364 36.4604 23.364 36.8928C23.364 37.3261 23.0037 37.6775 22.5514 37.6775C22.101 37.6775 21.7451 37.3324 21.7451 36.8937C21.7451 36.4604 22.1001 36.1099 22.5514 36.1099L22.5424 36.0955ZM22.5514 37.327C22.6687 37.3292 22.782 37.2848 22.8666 37.2036C22.9512 37.1224 23.0002 37.0109 23.0028 36.8937C22.9976 36.7783 22.9481 36.6693 22.8646 36.5895C22.7811 36.5097 22.6701 36.4651 22.5546 36.4651C22.4391 36.4651 22.328 36.5097 22.2445 36.5895C22.161 36.6693 22.1116 36.7783 22.1064 36.8937C22.1001 37.1333 22.3046 37.327 22.5514 37.327Z" fill="#FEFEFD"/>
<path fill-rule="evenodd" clip-rule="evenodd" d="M22.5424 36.1279C22.4417 36.1272 22.3418 36.1465 22.2486 36.1848C22.1554 36.223 22.0708 36.2794 21.9996 36.3507C21.9284 36.4219 21.8721 36.5066 21.834 36.5999C21.7959 36.6931 21.7767 36.793 21.7775 36.8937C21.7775 37.3135 22.1172 37.645 22.5523 37.645C22.9856 37.645 23.3316 37.3072 23.3316 36.8937C23.3316 36.4793 22.9856 36.1414 22.5514 36.1414L22.5424 36.1279ZM21.7126 36.8937C21.7126 36.4414 22.082 36.0766 22.5514 36.0766C23.0199 36.0766 23.3964 36.4414 23.3964 36.8937C23.3964 37.3459 23.0199 37.7108 22.5514 37.7108C22.0829 37.7108 21.7126 37.3513 21.7126 36.8937ZM22.073 36.8937C22.073 36.7661 22.1237 36.6437 22.2139 36.5535C22.3041 36.4633 22.4265 36.4126 22.5541 36.4126C22.6817 36.4126 22.804 36.4633 22.8943 36.5535C22.9845 36.6437 23.0352 36.7661 23.0352 36.8937C23.0323 37.0195 22.9799 37.139 22.8893 37.2263C22.7986 37.3135 22.6772 37.3614 22.5514 37.3595C22.2883 37.3595 22.0676 37.1531 22.0739 36.8928L22.073 36.8937ZM22.5514 36.4874C22.443 36.4869 22.3389 36.5292 22.2616 36.6052C22.1844 36.6811 22.1402 36.7845 22.1388 36.8928V36.8946C22.1334 37.1144 22.3217 37.2937 22.5514 37.2937C22.782 37.2937 22.9703 37.1135 22.9703 36.8937C22.9677 36.7846 22.9223 36.6808 22.844 36.6048C22.7656 36.5288 22.6605 36.4866 22.5514 36.4874Z" fill="#FEFEFD"/>
<path d="M24.6306 36.1595C24.6396 36.1496 24.6576 36.1324 24.682 36.1324H24.9594C24.9829 36.1324 25.0009 36.1505 25.0009 36.173V37.0568C25.0001 37.0933 25.0068 37.1296 25.0205 37.1635C25.0342 37.1974 25.0547 37.2282 25.0806 37.254C25.1066 37.2798 25.1375 37.3 25.1714 37.3135C25.2054 37.327 25.2418 37.3334 25.2784 37.3324C25.4405 37.3324 25.5612 37.209 25.5612 37.0568V36.1739C25.5612 36.1495 25.5793 36.1324 25.6027 36.1324H25.8802C25.9036 36.1324 25.9216 36.1505 25.9216 36.173V37.0739C25.9216 37.4081 25.6333 37.6775 25.2784 37.6775C24.9225 37.6775 24.6396 37.4027 24.6396 37.0739V36.173L24.6306 36.1595Z" fill="#FEFEFD"/>
<path fill-rule="evenodd" clip-rule="evenodd" d="M24.6666 36.1541C24.6738 36.1676 24.6729 36.1703 24.6729 36.173V37.0739C24.6729 37.3829 24.9396 37.6451 25.2783 37.6451C25.6171 37.6451 25.8892 37.3883 25.8892 37.0748V36.1739C25.8893 36.1728 25.8892 36.1716 25.8889 36.1705C25.8886 36.1695 25.8881 36.1684 25.8874 36.1676C25.8864 36.1667 25.8853 36.166 25.884 36.1655C25.8828 36.165 25.8815 36.1648 25.8802 36.1649H25.6027C25.5991 36.1649 25.5973 36.1658 25.5955 36.1676L25.5937 36.173V37.0568C25.5937 37.2279 25.4585 37.3649 25.2783 37.3649C25.2375 37.3658 25.1969 37.3586 25.159 37.3434C25.1211 37.3283 25.0866 37.3057 25.0577 37.2769C25.0287 37.2481 25.0059 37.2138 24.9906 37.176C24.9752 37.1381 24.9677 37.0976 24.9684 37.0568V36.1739C24.9686 36.1728 24.9685 36.1716 24.9682 36.1705C24.9679 36.1695 24.9674 36.1684 24.9666 36.1676C24.9648 36.1658 24.963 36.1649 24.9594 36.1649H24.682C24.6783 36.1649 24.6756 36.1658 24.6747 36.1676L24.6666 36.1541ZM24.6072 36.173C24.6072 36.1306 24.6414 36.0991 24.682 36.0991H24.9594C25 36.0991 25.0342 36.1306 25.0342 36.173V37.0568C25.0342 37.1919 25.1333 37.3 25.2774 37.3C25.4234 37.3 25.5279 37.191 25.5279 37.0568V36.1739C25.5279 36.1306 25.5621 36.0991 25.6027 36.0991H25.8802C25.9216 36.0991 25.9549 36.1306 25.9549 36.173V37.0739C25.9549 37.4279 25.6486 37.7099 25.2783 37.7099C24.9063 37.7099 24.6072 37.4216 24.6072 37.0748V36.173Z" fill="#FEFEFD"/>
<path d="M27.9955 36.0955C28.191 36.109 28.4009 36.1856 28.5522 36.3135C28.5702 36.3315 28.5756 36.355 28.5576 36.373L28.3774 36.5531C28.3736 36.5573 28.3689 36.5605 28.3637 36.5628C28.3585 36.565 28.3529 36.5662 28.3473 36.5662C28.3416 36.5662 28.336 36.565 28.3308 36.5628C28.3256 36.5605 28.321 36.5573 28.3171 36.5531C28.2357 36.4822 28.1304 36.4448 28.0225 36.4486C27.9054 36.4482 27.7929 36.494 27.7095 36.5762C27.6261 36.6584 27.5786 36.7703 27.5774 36.8874C27.5774 37.1279 27.7756 37.3207 28.0225 37.3207C28.0903 37.3233 28.1579 37.3113 28.2207 37.2856V37.1568H28.0765C28.0711 37.157 28.0656 37.1561 28.0605 37.1542C28.0553 37.1523 28.0507 37.1493 28.0467 37.1455C28.0427 37.1417 28.0396 37.1372 28.0374 37.1322C28.0353 37.1271 28.0342 37.1217 28.0342 37.1162V36.9108C28.0342 36.8874 28.0522 36.8703 28.0765 36.8703H28.5279C28.5522 36.8703 28.5702 36.8883 28.5702 36.9108V37.4964C28.5702 37.5081 28.5639 37.5252 28.5522 37.5315C28.5522 37.5315 28.3234 37.6721 27.9928 37.6721C27.5468 37.6721 27.1855 37.327 27.1855 36.8937C27.1935 36.6823 27.2834 36.4822 27.4363 36.3359C27.5891 36.1897 27.7929 36.1086 28.0045 36.1099L27.9955 36.0955Z" fill="#FEFEFD" stroke="#FEFEFD" stroke-width="0.073" stroke-miterlimit="10" stroke-linecap="round" stroke-linejoin="round"/>
<path d="M29.9216 36.1595C29.9306 36.1496 29.9487 36.1324 29.973 36.1324H30.2378C30.2613 36.1324 30.2793 36.1505 30.2793 36.173V36.7225H30.9297V36.173C30.9297 36.1495 30.9478 36.1324 30.9712 36.1324H31.236C31.2604 36.1324 31.2784 36.1505 31.2784 36.173V37.6126C31.2784 37.636 31.2604 37.6541 31.236 37.6541H30.9712C30.9657 37.6542 30.9603 37.6532 30.9552 37.6511C30.9501 37.6491 30.9455 37.6461 30.9416 37.6422C30.9377 37.6383 30.9347 37.6337 30.9326 37.6286C30.9306 37.6235 30.9296 37.6181 30.9297 37.6126V37.0396H30.2856V37.6126C30.2856 37.636 30.2676 37.6541 30.2433 37.6541H29.9784C29.9728 37.6543 29.9673 37.6534 29.9621 37.6514C29.9569 37.6494 29.9522 37.6464 29.9482 37.6425C29.9442 37.6386 29.9411 37.634 29.939 37.6288C29.9369 37.6237 29.9359 37.6182 29.936 37.6126V36.173H29.9306L29.9216 36.1595Z" fill="#FEFEFD"/>
<path fill-rule="evenodd" clip-rule="evenodd" d="M29.9595 36.1523V37.6126C29.9685 37.6162 29.9703 37.618 29.9712 37.6189C29.9721 37.6198 29.9748 37.6216 29.9784 37.6216H30.2433C30.2459 37.6216 30.2485 37.6207 30.2505 37.6189C30.2523 37.618 30.2532 37.6162 30.2532 37.6126V37.0396C30.2532 37.0216 30.2676 37.0063 30.2856 37.0063H30.9298C30.9478 37.0063 30.9622 37.0216 30.9622 37.0396V37.6126C30.9622 37.6162 30.9631 37.618 30.964 37.6189C30.9658 37.6198 30.9676 37.6216 30.9712 37.6216H31.2361C31.2406 37.6216 31.2424 37.6198 31.2442 37.6189C31.2449 37.6181 31.2454 37.617 31.2458 37.616C31.2461 37.6149 31.2461 37.6137 31.246 37.6126V36.173C31.2461 36.171 31.2454 36.1691 31.2442 36.1676C31.2424 36.1658 31.2406 36.1649 31.2361 36.1649H30.9712C30.9676 36.1649 30.9658 36.1658 30.964 36.1676L30.9622 36.173V36.7225C30.9622 36.7405 30.9478 36.7559 30.9298 36.7559H30.2793C30.2707 36.7559 30.2625 36.7524 30.2564 36.7464C30.2503 36.7403 30.2469 36.732 30.2469 36.7234V36.1739C30.2469 36.1703 30.246 36.1685 30.2451 36.1676C30.2433 36.1658 30.2415 36.1649 30.2379 36.1649H29.9685L29.9595 36.1523ZM29.9037 36.1928C29.8997 36.187 29.8979 36.18 29.8982 36.173C29.8982 36.1306 29.9316 36.0991 29.973 36.0991H30.2379C30.2784 36.0991 30.3127 36.1306 30.3127 36.173V36.691H30.8964V36.173C30.8964 36.1306 30.9307 36.0991 30.9712 36.0991H31.2361C31.2775 36.0991 31.3118 36.1306 31.3118 36.173V37.6126C31.3119 37.6225 31.31 37.6323 31.3062 37.6415C31.3024 37.6506 31.2968 37.6589 31.2898 37.6658C31.2827 37.6727 31.2743 37.6781 31.2651 37.6817C31.2558 37.6852 31.246 37.6869 31.2361 37.6865H30.9712C30.9614 37.6867 30.9517 37.685 30.9425 37.6814C30.9334 37.6778 30.9251 37.6724 30.9181 37.6655C30.9111 37.6586 30.9056 37.6503 30.9019 37.6412C30.8982 37.6322 30.8963 37.6224 30.8964 37.6126V37.0721H30.3181V37.6126C30.3182 37.6224 30.3163 37.6322 30.3126 37.6412C30.3089 37.6503 30.3034 37.6586 30.2964 37.6655C30.2894 37.6724 30.2811 37.6778 30.272 37.6814C30.2629 37.685 30.2531 37.6867 30.2433 37.6865H29.9784C29.9686 37.6867 29.9589 37.685 29.9497 37.6814C29.9406 37.6778 29.9323 37.6724 29.9253 37.6655C29.9184 37.6586 29.9128 37.6503 29.9091 37.6412C29.9054 37.6322 29.9035 37.6224 29.9037 37.6126V36.1928Z" fill="#FEFEFD"/>
<path d="M32.6785 36.1306C32.6875 36.1207 32.7055 36.1027 32.7289 36.1027H32.783L33.6803 36.9405V36.1676C33.6803 36.1442 33.6983 36.1261 33.7226 36.1261H33.9929C34.0172 36.1261 34.0352 36.1442 34.0352 36.1676V37.6306C34.0352 37.6541 34.0172 37.6721 33.9929 37.6721H33.9568C33.9461 37.6708 33.9359 37.6667 33.9271 37.6604L33.0352 36.7937V37.6135C33.0352 37.6369 33.0181 37.6541 32.9938 37.6541H32.7289C32.7235 37.6542 32.7182 37.6532 32.7131 37.6512C32.7081 37.6493 32.7035 37.6463 32.6997 37.6425C32.6958 37.6387 32.6927 37.6342 32.6906 37.6292C32.6886 37.6243 32.6875 37.6189 32.6875 37.6135V36.1441L32.6785 36.1306Z" fill="#FEFEFD"/>
<path fill-rule="evenodd" clip-rule="evenodd" d="M32.7126 36.1243C32.7207 36.1396 32.7198 36.1405 32.7198 36.1441V37.6126C32.7198 37.6162 32.7207 37.618 32.7216 37.6189C32.7234 37.6198 32.7252 37.6216 32.7288 37.6216H32.9937C32.9982 37.6216 33 37.6198 33.0009 37.6189C33.0025 37.6175 33.0034 37.6156 33.0036 37.6135V36.7937C33.0036 36.7873 33.0054 36.7811 33.009 36.7758C33.0125 36.7704 33.0175 36.7663 33.0233 36.7638C33.0292 36.7613 33.0357 36.7606 33.0419 36.7617C33.0482 36.7629 33.054 36.7658 33.0586 36.7703L33.9486 37.6351L33.9532 37.6369L33.9586 37.6387H33.9928C33.9973 37.6387 33.9991 37.6378 34 37.6369C34.0009 37.6361 34.0016 37.6352 34.002 37.6341C34.0025 37.633 34.0027 37.6318 34.0027 37.6306V36.1676C34.0027 36.1664 34.0025 36.1652 34.002 36.1641C34.0016 36.163 34.0009 36.162 34 36.1613C34 36.1613 33.9973 36.1595 33.9928 36.1595H33.7225C33.718 36.1595 33.7162 36.1604 33.7144 36.1613C33.7137 36.1621 33.7132 36.1631 33.7128 36.1642C33.7125 36.1653 33.7125 36.1664 33.7126 36.1676V36.9396C33.7128 36.9461 33.7111 36.9525 33.7076 36.9579C33.7042 36.9634 33.6992 36.9677 33.6933 36.9703C33.6874 36.9729 33.6809 36.9737 33.6745 36.9726C33.6682 36.9714 33.6623 36.9684 33.6577 36.964L32.7703 36.1351H32.7288C32.7252 36.1351 32.7234 36.1369 32.7216 36.1378L32.7126 36.1243ZM32.6541 36.1441C32.6541 36.1018 32.6874 36.0703 32.7288 36.0703H32.7829C32.7919 36.0703 32.8 36.0739 32.8054 36.0793L33.6477 36.8649V36.1676C33.6477 36.1252 33.6811 36.0937 33.7225 36.0937H33.9928C34.0342 36.0937 34.0676 36.1252 34.0676 36.1676V37.6306C34.0677 37.6404 34.0658 37.6502 34.0621 37.6593C34.0584 37.6683 34.0529 37.6766 34.0459 37.6835C34.0389 37.6904 34.0306 37.6958 34.0215 37.6994C34.0124 37.703 34.0026 37.7047 33.9928 37.7045H33.9568C33.9519 37.7045 33.9471 37.7039 33.9423 37.7027C33.9384 37.7017 33.9345 37.7005 33.9306 37.6991C33.9207 37.6958 33.9115 37.6906 33.9036 37.6838M33.9036 37.6838L33.0685 36.8712V37.6135C33.0685 37.6232 33.0665 37.6329 33.0627 37.6419C33.059 37.6508 33.0534 37.659 33.0465 37.6658C33.0395 37.6726 33.0312 37.6779 33.0222 37.6815C33.0131 37.685 33.0034 37.6867 32.9937 37.6865H32.7288C32.7191 37.6867 32.7094 37.685 32.7003 37.6815C32.6913 37.6779 32.683 37.6726 32.6761 37.6658C32.6691 37.659 32.6636 37.6508 32.6598 37.6419C32.656 37.6329 32.654 37.6232 32.6541 37.6135V36.1441" fill="#FEFEFD"/>
<path d="M35.4226 36.1595C35.4316 36.1496 35.4496 36.1324 35.474 36.1324H35.7505C35.7749 36.1324 35.7929 36.1505 35.7929 36.173V37.0568C35.7921 37.0932 35.7988 37.1295 35.8124 37.1633C35.8261 37.1972 35.8465 37.2279 35.8723 37.2537C35.8981 37.2794 35.9289 37.2997 35.9628 37.3132C35.9967 37.3268 36.033 37.3333 36.0695 37.3324C36.2316 37.3324 36.3523 37.209 36.3523 37.0568V36.1739C36.3523 36.1495 36.3704 36.1324 36.3947 36.1324H36.6713C36.6956 36.1324 36.7136 36.1505 36.7136 36.173V37.0739C36.7136 37.4081 36.4253 37.6775 36.0695 37.6775C35.7145 37.6775 35.4316 37.4027 35.4316 37.0739V36.173L35.4226 36.1595Z" fill="#FEFEFD"/>
<path fill-rule="evenodd" clip-rule="evenodd" d="M35.4577 36.1541C35.4552 36.1549 35.4531 36.1567 35.452 36.1591C35.4508 36.1614 35.4506 36.1642 35.4514 36.1667C35.4523 36.1692 35.4541 36.1713 35.4564 36.1724C35.4588 36.1736 35.4615 36.1738 35.464 36.173V37.0739C35.464 37.3829 35.7307 37.6451 36.0694 37.6451C36.4091 37.6451 36.6812 37.3883 36.6812 37.0748V36.1739C36.6813 36.1727 36.6811 36.1715 36.6806 36.1704C36.6801 36.1693 36.6794 36.1683 36.6784 36.1676C36.6775 36.1658 36.6748 36.1649 36.6712 36.1649H36.3947C36.3902 36.1649 36.3884 36.1658 36.3875 36.1676C36.3857 36.1676 36.3848 36.1703 36.3848 36.173V37.0568C36.3848 37.2279 36.2496 37.3649 36.0694 37.3649C36.0287 37.3657 35.9882 37.3583 35.9504 37.3432C35.9126 37.328 35.8782 37.3054 35.8494 37.2766C35.8205 37.2478 35.7978 37.2135 35.7825 37.1757C35.7672 37.138 35.7597 37.0975 35.7604 37.0568V36.1739C35.7605 36.1727 35.7602 36.1715 35.7598 36.1704C35.7593 36.1693 35.7586 36.1684 35.7577 36.1676C35.7568 36.1658 35.7541 36.1649 35.7505 36.1649H35.4739C35.4694 36.1649 35.4676 36.1658 35.4667 36.1676L35.4577 36.1541ZM35.3992 36.173C35.3992 36.1306 35.4325 36.0991 35.4739 36.0991H35.7505C35.792 36.0991 35.8253 36.1306 35.8253 36.173V37.0568C35.8253 37.1919 35.9253 37.3 36.0694 37.3C36.102 37.301 36.1344 37.2954 36.1647 37.2836C36.1951 37.2718 36.2228 37.254 36.2461 37.2314C36.2695 37.2087 36.288 37.1815 36.3007 37.1515C36.3134 37.1216 36.3199 37.0893 36.3199 37.0568V36.1739C36.3199 36.1306 36.3532 36.0991 36.3947 36.0991H36.6712C36.7127 36.0991 36.746 36.1306 36.746 36.173V37.0739C36.746 37.4279 36.4397 37.7099 36.0694 37.7099C35.6974 37.7099 35.3992 37.4216 35.3992 37.0748V36.173Z" fill="#FEFEFD"/>
<path d="M38.281 36.4351H37.9711C37.9619 36.436 37.9527 36.4337 37.945 36.4286C37.9373 36.4235 37.9315 36.416 37.9287 36.4072V36.1676C37.9287 36.1441 37.9467 36.1261 37.9711 36.1261H38.9702C38.9945 36.1261 39.0125 36.1441 39.0125 36.1676V36.4072C39.0125 36.4306 38.9945 36.4487 38.9702 36.4487H38.6512V37.6126C38.6512 37.636 38.6332 37.6532 38.6089 37.6532H38.3386C38.3331 37.6534 38.3277 37.6525 38.3226 37.6506C38.3174 37.6487 38.3127 37.6457 38.3088 37.6419C38.3048 37.6381 38.3017 37.6336 38.2995 37.6286C38.2974 37.6235 38.2963 37.6181 38.2963 37.6126V36.4478H38.29L38.281 36.4351Z" fill="#FEFEFD"/>
<path fill-rule="evenodd" clip-rule="evenodd" d="M37.9551 36.1486L37.9623 36.1676V36.4072C37.9623 36.4099 37.9623 36.4117 37.9641 36.4135L37.9713 36.4153H38.2956C38.3136 36.4153 38.3289 36.4306 38.3289 36.4486V37.6126C38.3289 37.6153 38.3298 37.6171 38.3316 37.618C38.3316 37.618 38.3343 37.6207 38.3388 37.6207H38.6091C38.6136 37.6207 38.6163 37.618 38.6163 37.618C38.6181 37.6171 38.619 37.6153 38.619 37.6126V36.4477C38.619 36.4297 38.6334 36.4144 38.6514 36.4144H38.9704C38.9749 36.4144 38.9776 36.4126 38.9776 36.4126C38.9776 36.4126 38.9803 36.4099 38.9803 36.4063V36.1667C38.9803 36.164 38.9785 36.1622 38.9776 36.1604L38.9704 36.1586H37.9713L37.9641 36.1604L37.9551 36.1486ZM37.8965 36.1676C37.8965 36.1252 37.9307 36.0937 37.9713 36.0937H38.9704C39.0118 36.0937 39.0451 36.1252 39.0451 36.1676V36.4072C39.0453 36.417 39.0434 36.4268 39.0397 36.4358C39.036 36.4449 39.0304 36.4531 39.0235 36.46C39.0165 36.4669 39.0082 36.4724 38.9991 36.476C38.9899 36.4796 38.9802 36.4813 38.9704 36.4811H38.6839V37.6135C38.6839 37.6232 38.6819 37.6329 38.6782 37.6419C38.6744 37.6508 38.6688 37.659 38.6619 37.6658C38.6549 37.6726 38.6466 37.6779 38.6376 37.6815C38.6285 37.685 38.6188 37.6867 38.6091 37.6865H38.3388C38.3291 37.6867 38.3194 37.685 38.3104 37.6815C38.3013 37.6779 38.293 37.6726 38.2861 37.6658C38.2791 37.659 38.2736 37.6508 38.2698 37.6419C38.266 37.6329 38.2641 37.6232 38.2641 37.6135V36.4811H37.9713C37.9615 36.4813 37.9517 36.4796 37.9426 36.476C37.9335 36.4724 37.9252 36.4669 37.9182 36.46C37.9112 36.4531 37.9057 36.4449 37.9019 36.4358C37.8982 36.4268 37.8964 36.417 37.8965 36.4072V36.1676Z" fill="#FEFEFD"/>
<path d="M40.1893 37.436L40.3064 37.2685C40.3244 37.2387 40.3667 37.245 40.3848 37.2568C40.3911 37.2622 40.5532 37.3739 40.7037 37.3739C40.7938 37.3739 40.8604 37.3207 40.8604 37.245C40.8604 37.1513 40.782 37.0811 40.6316 37.0225C40.4388 36.9459 40.1992 36.8 40.1992 36.5423C40.1992 36.3261 40.373 36.1099 40.7163 36.1099C40.9505 36.1099 41.1307 36.227 41.1974 36.273C41.2217 36.291 41.2217 36.3261 41.2091 36.3432L41.0947 36.5126C41.0766 36.536 41.0406 36.5541 41.0172 36.5423C40.9992 36.5306 40.8307 36.4135 40.6983 36.4135C40.6199 36.4135 40.5541 36.4667 40.5541 36.5243C40.5541 36.6063 40.6199 36.6649 40.8001 36.7351C40.9748 36.8054 41.2514 36.9342 41.2514 37.2333C41.2514 37.455 41.0532 37.6838 40.7217 37.6838C40.4271 37.6838 40.2712 37.5667 40.2172 37.5135C40.1866 37.4847 40.1802 37.4784 40.1992 37.4495L40.1893 37.436Z" fill="#FEFEFD" stroke="#FEFEFD" stroke-width="0.073" stroke-miterlimit="10" stroke-linecap="round" stroke-linejoin="round"/>
<path d="M36.819 28.8946H47.9749C48.5821 28.9081 49.0695 28.4162 49.0577 27.8081C49.0577 27.8081 49.0577 27.7613 49.0514 27.7378C49.0397 27.6558 48.9253 27.591 48.8767 27.6558C48.7451 27.8432 48.2938 27.8432 48.0046 27.8432H36.8154C34.9505 27.8432 33.3677 30.0144 33.0001 30.4712C33.1803 29.9676 33.5361 28.8018 33.5298 28.3991C33.5181 27.7928 33.0487 27.5568 32.5659 27.5225C32.3194 27.5046 32.0719 27.5377 31.8388 27.6198C31.7785 27.6432 31.8028 27.7423 31.8623 27.7549C32.0487 27.7892 32.4046 27.9243 32.2722 28.4396C32.2596 28.5153 30.7857 33.718 30.7857 33.718C30.7677 33.7703 30.8091 33.8288 30.8695 33.8288H31.9109C31.9469 33.8288 31.983 33.8054 31.9893 33.7703C32.0911 33.4135 32.5064 32.1513 32.5118 32.1396C32.7478 31.4135 33.1749 30.9396 33.5055 30.9396C33.6623 30.9396 33.7343 31.027 33.7397 31.1324C33.746 31.3721 33.4037 32.1144 33.2587 32.6586C33.0785 33.3432 33.4992 33.8288 34.174 33.8288C34.8776 33.8288 35.1911 33.4721 35.5641 32.7865C35.7208 32.5 36.328 31.0387 36.4424 30.6757C36.5569 30.6991 36.7433 30.7225 36.8938 30.7342L36.6352 31.7703C36.5632 32.0513 36.4848 32.3261 36.4848 32.6252C36.4785 33.0522 36.6352 33.5405 37.1532 33.5207C37.7244 33.5207 38.0794 33.1513 38.2902 32.9C38.38 33.0883 38.522 33.2469 38.6992 33.3569C38.8765 33.4669 39.0816 33.5238 39.2902 33.5207C39.8307 33.5207 40.283 33.3216 40.6145 32.9063L40.4749 33.3802C40.4718 33.392 40.4715 33.4044 40.4741 33.4164C40.4766 33.4284 40.4819 33.4396 40.4894 33.4492C40.497 33.4588 40.5067 33.4665 40.5178 33.4717C40.5289 33.4769 40.541 33.4795 40.5532 33.4793H41.3118C41.3478 33.4793 41.3785 33.4559 41.3839 33.4207L41.9496 31.3847C42.0578 31.0973 42.4136 30.8928 42.6118 30.8928C42.7082 30.8928 42.7623 30.9513 42.7262 31.0856L42.1001 33.3739C42.097 33.3857 42.0968 33.3981 42.0993 33.4101C42.1018 33.4221 42.1071 33.4333 42.1147 33.4429C42.1223 33.4525 42.132 33.4602 42.143 33.4654C42.1541 33.4706 42.1662 33.4732 42.1785 33.473H42.9433C42.9794 33.473 43.0091 33.4504 43.0154 33.4153L43.5632 31.4135C43.6893 31.1387 44.0262 30.8865 44.2244 30.8865C44.3145 30.8865 44.3632 30.9513 44.3325 31.0856C44.3271 31.109 44.1406 31.7649 44.0866 31.964C43.7623 33.1577 44.0623 33.509 44.7001 33.509C45.146 33.509 45.5064 33.2685 45.7361 32.9595C45.9217 33.3919 46.3487 33.509 46.7289 33.509C47.5289 33.509 47.9379 32.9883 48.1127 32.7252C48.1433 32.6838 48.1307 32.6252 48.101 32.5955C48.0653 32.5667 48.027 32.5414 47.9866 32.5198C47.9505 32.4964 47.8965 32.5018 47.8722 32.5315C47.6794 32.7658 47.4388 32.9703 46.9992 32.9703C46.6145 32.9703 46.4695 32.5838 46.4641 32.3144C46.4641 32.2739 46.4641 32.2441 46.4695 32.2153C47.565 32.2153 48.0641 31.5658 48.0523 31.0504C48.0469 30.6405 47.8361 30.2252 47.2163 30.2252C46.1569 30.2252 45.555 31.3198 45.5731 32.2099C45.5731 32.2622 45.5911 32.5198 45.6154 32.6369C45.5127 32.7658 45.3082 32.9234 45.128 32.9234C44.9478 32.9234 44.9046 32.7306 44.9298 32.5135C44.9956 31.8991 45.2776 31.2378 45.2722 30.7694C45.2659 30.5712 45.1695 30.2252 44.6884 30.2252C44.2974 30.2252 43.8821 30.4595 43.6226 30.7748C43.5992 30.5766 43.5749 30.2252 43.0821 30.2252C42.8985 30.2281 42.7175 30.2692 42.5506 30.3458C42.3837 30.4224 42.2346 30.5329 42.1127 30.6703L42.2082 30.3243C42.2113 30.3125 42.2115 30.3001 42.209 30.2881C42.2065 30.2761 42.2012 30.2649 42.1936 30.2553C42.186 30.2457 42.1763 30.238 42.1653 30.2328C42.1542 30.2276 42.1421 30.225 42.1298 30.2252H41.4082C41.3912 30.2247 41.3745 30.2304 41.3613 30.2411C41.3481 30.2519 41.3391 30.267 41.3361 30.2838C41.3361 30.2838 40.9145 31.782 40.9028 31.8288C40.4451 32.8883 39.9334 32.9766 39.5487 32.9766C39.1929 32.9766 39.0064 32.4901 39.037 32.1513C39.9451 32.1513 40.6316 31.7342 40.6199 31.0432C40.6136 30.5982 40.3677 30.2297 39.765 30.2297C38.6091 30.2297 38.1397 31.4838 38.1523 32.1631C38.1523 32.2739 38.1641 32.4549 38.1758 32.5432C38.1397 32.6135 37.9469 32.8297 37.7127 32.8297C37.3641 32.8297 37.3704 31.9991 37.9235 30.3829L37.9469 30.3243C37.965 30.2775 37.9289 30.2252 37.8749 30.2252C37.6343 30.2306 36.9605 30.2955 36.5812 30.1549C36.5812 30.1486 36.7073 29.5694 36.0992 29.5694C35.8046 29.5694 35.5884 29.7568 35.5947 30.0027C35.6001 30.3658 35.8767 30.5063 36.0334 30.5766C35.7749 31.3369 35.5037 31.8324 35.2505 32.3946C35.01 32.927 34.7938 33.0793 34.6379 33.0793C34.4929 33.0793 34.4505 32.9802 34.4442 32.8631C34.4388 32.4477 35.0406 31.6649 35.0226 30.7225C35.0163 30.3531 34.7397 30.1369 34.3848 30.1369C34.115 30.1364 33.8519 30.2205 33.6325 30.3775C33.6379 30.3658 34.7037 28.909 36.828 28.909L36.819 28.8946ZM47.2037 30.6171C47.3298 30.6171 47.3659 30.7757 47.3659 30.8874C47.3785 31.4838 46.9938 31.8757 46.4695 31.9108C46.5541 31.2324 46.8433 30.6171 47.2037 30.6171ZM39.7713 30.6162C39.946 30.6162 39.9514 30.8558 39.9397 31.0018C39.9091 31.4063 39.6623 31.7703 39.0424 31.8351C39.1271 31.1622 39.4343 30.6162 39.7713 30.6162ZM22.0343 28.8333H30.1172C30.7253 28.8333 31.2127 28.3414 31.2001 27.7333C31.2001 27.7333 31.2001 27.6856 31.1947 27.6622C31.1821 27.5811 31.074 27.4991 31.0199 27.5811C30.9055 27.7558 30.5442 27.7676 30.255 27.7676H22.028C22.1442 27.9208 22.2057 28.1086 22.2028 28.3009C22.2065 28.4918 22.1473 28.6794 22.0343 28.8333ZM21.2632 28.8333C21.4064 28.8353 21.5445 28.7803 21.6472 28.6804C21.7499 28.5806 21.8088 28.4441 21.8109 28.3009C21.8088 28.1577 21.7499 28.0212 21.6472 27.9214C21.5445 27.8215 21.4064 27.7665 21.2632 27.7685C21.1203 27.7668 20.9825 27.8217 20.88 27.9214C20.7775 28.021 20.7187 28.1571 20.7163 28.3C20.7182 28.4432 20.7769 28.5798 20.8794 28.6798C20.9819 28.7798 21.1199 28.835 21.2632 28.8333Z" fill="white"/>
<path d="M30.282 30.2117H29.5387C29.5193 30.2126 29.5008 30.2203 29.4864 30.2335C29.4721 30.2467 29.4629 30.2645 29.4603 30.2838L28.9432 32.0405C28.7748 32.5856 28.5576 32.8658 28.3414 32.8658C28.1189 32.8658 28.0946 32.5973 28.1432 32.3631L28.7324 30.3306C28.745 30.2784 28.709 30.2252 28.6549 30.2252H27.9027C27.8849 30.2252 27.8677 30.2309 27.8534 30.2414C27.8391 30.252 27.8286 30.2668 27.8234 30.2838L27.7874 30.4063L27.4928 31.3973C27.4387 31.6081 27.3784 31.8072 27.3306 31.9883C27.2225 32.3802 26.9027 32.6207 26.8369 32.6613C26.716 32.7429 26.5868 32.8115 26.4513 32.8658C26.6621 32.5559 26.8009 32.2622 26.9027 31.7937C27.0829 30.9162 26.8793 30.2261 26.2171 30.2261C25.9649 30.2261 25.6874 30.3018 25.4522 30.582L25.5126 30.3252C25.5157 30.3134 25.5159 30.301 25.5134 30.289C25.5109 30.277 25.5056 30.2658 25.498 30.2562C25.4904 30.2466 25.4807 30.2389 25.4697 30.2337C25.4586 30.2285 25.4465 30.2259 25.4342 30.2261H24.7243C24.6883 30.2261 24.6576 30.2487 24.6522 30.2784L24.6216 30.3658L24.1171 32.1459C24.0378 32.4333 23.827 32.6144 23.7135 32.6964C23.6351 32.7496 23.5513 32.7955 23.4667 32.8315C23.5991 32.5793 23.6108 32.3216 23.6108 32.2162C23.5991 31.5496 23.3225 31.2207 23.3162 30.7577C23.3063 30.6041 23.3485 30.4518 23.436 30.3252C23.4667 30.2784 23.4423 30.2261 23.3946 30.2261H22.9784C22.9524 30.2261 22.9269 30.2323 22.904 30.2444C22.881 30.2565 22.8614 30.2741 22.8468 30.2955C22.6594 30.6 22.0036 31.4261 21.6063 32.0586C21.3477 32.0937 21.1018 32.3685 21.2036 32.673C21.1612 32.7261 21.0468 32.8712 20.8847 32.8712C20.764 32.8712 20.7279 32.6676 20.8423 32.2405C20.8477 32.2162 20.8477 32.2045 20.8477 32.2045L21.3955 30.3189C21.3982 30.3079 21.3984 30.2964 21.396 30.2853C21.3937 30.2742 21.3889 30.2637 21.382 30.2548C21.375 30.2458 21.3662 30.2384 21.3561 30.2333C21.3459 30.2282 21.3348 30.2254 21.3234 30.2252H20.6198C20.5594 30.2252 20.4937 30.2487 20.4694 30.3135L20.445 30.4072C20.445 30.4072 19.9937 31.9703 19.9153 32.2514C19.8369 32.5324 19.591 32.7613 19.3973 32.7613C19.0549 32.7613 19.0667 31.9405 19.5955 30.3829L19.6207 30.3252C19.6387 30.2784 19.6027 30.2261 19.5486 30.2261C19.3072 30.2315 18.6387 30.2622 18.2603 30.1207C18.2847 30.0036 18.3081 29.5351 17.7423 29.5351C17.4477 29.5351 17.2126 29.7694 17.2676 30.0685C17.309 30.3261 17.5495 30.4721 17.7126 30.5423C17.4477 31.3559 17.0387 32.1838 16.8333 32.6C16.7558 32.764 16.527 33.0802 16.2928 33.0802C16.0054 33.0802 16.1495 32.645 16.2 32.5027C16.3612 32.0523 16.7 31.3036 16.6955 30.6946C16.6955 30.4964 16.5748 30.0622 16.0694 30.0622C15.745 30.0622 15.5153 30.1505 15.2991 30.3081C15.2991 30.3081 16.3279 28.845 18.4522 28.845H20.5054C20.3927 28.6903 20.3316 28.504 20.3306 28.3126C20.3298 28.1209 20.3911 27.9341 20.5054 27.7802H18.4351C16.5694 27.7802 15.0225 29.9514 14.6549 30.4081C14.8351 29.9036 15.191 28.8045 15.1847 28.3991C15.173 27.7838 14.6874 27.5505 14.1973 27.5225C13.9585 27.5082 13.7192 27.5419 13.4937 27.6216C13.4333 27.645 13.4576 27.7441 13.5171 27.7568C13.7045 27.791 14.0594 27.9261 13.927 28.4414C13.9144 28.5171 12.4405 33.718 12.4405 33.718C12.4225 33.7703 12.464 33.8288 12.5243 33.8288H13.5658C13.6018 33.8288 13.6378 33.8054 13.6441 33.7703L14.3144 31.7288C14.5495 31.1261 14.8612 30.8757 15.1612 30.8757C15.4793 30.8757 15.4018 31.1802 15.3288 31.4261C15.1784 31.918 15.0522 32.1667 14.9144 32.6694C14.6973 33.4604 15.3414 33.8288 15.9009 33.8288C16.6892 33.8288 16.9847 33.273 17.2189 32.7874C17.4838 32.2423 17.9892 31.0108 18.0982 30.6477C18.2117 30.6712 18.4045 30.6946 18.5549 30.7063C18.5495 30.7243 18.3621 31.4324 18.2964 31.7018C18.2243 31.982 18.1459 32.2577 18.1459 32.5559C18.1396 32.9252 18.2847 33.4631 18.8558 33.4631C19.2288 33.4631 19.5243 33.3108 19.7351 33.0712C19.7531 33.0478 19.7712 33.0297 19.7892 33.0063C19.8072 33.0829 19.8432 33.1595 19.891 33.2171C20.0351 33.3928 20.2585 33.4577 20.4928 33.4577C20.8721 33.4577 21.209 33.2054 21.3414 33.0477C21.4739 33.2586 21.7513 33.4577 22.2811 33.4577C22.3225 33.4577 22.3649 33.4577 22.4072 33.4514C22.9306 33.4279 23.4901 33.2586 23.8937 32.9829L23.827 33.2117L23.4901 34.4288C23.4721 34.482 23.5144 34.5405 23.5748 34.5405H24.3207C24.3567 34.5405 24.3928 34.5171 24.3991 34.482L24.7486 33.1937C24.8685 33.364 25.0793 33.4577 25.5243 33.4577C26.1928 33.4577 26.8189 33.2054 27.2162 32.7901C27.264 33.2 27.5712 33.4568 27.8784 33.4568C28.0703 33.4568 28.3892 33.4342 28.6486 33.1351C28.6486 33.1351 28.5522 33.4865 28.5162 33.5748C27.691 33.5748 27.0712 34.0135 27.0838 34.4937C27.0892 34.8216 27.4685 35.055 27.8775 35.055C28.8234 35.055 29.118 34.4468 29.3225 33.9721C29.4603 33.9955 29.8162 34.0838 29.9126 34.1126C29.954 34.1243 29.991 34.1009 30.0027 34.0604L30.0504 33.9135C30.063 33.873 30.045 33.8144 30.009 33.8027L29.4369 33.6505L30.3757 30.3541C30.382 30.2784 30.3459 30.2252 30.291 30.2252L30.282 30.2117ZM22.2144 33.0649C22.082 33.0649 21.9676 32.9946 21.9676 32.9297C21.9676 32.8306 22.118 32.7667 22.1117 32.5333C22.1117 32.4099 22.0522 32.2225 21.9315 32.164C22.0162 32.0405 22.5631 31.3784 22.5631 31.3784C22.6504 31.827 22.8576 32.3153 22.6234 32.764C22.527 32.9505 22.373 33.0649 22.2144 33.0649ZM26.0117 31.4432C25.8676 32.3036 25.609 32.9126 25.1874 32.9126C24.9649 32.9126 24.8748 32.6784 24.9649 32.345C25.091 31.9 25.1811 31.618 25.2117 31.5126C25.3144 31.1559 25.4883 30.7928 25.8018 30.7928C25.9703 30.7928 26.0901 30.9685 26.0117 31.4432ZM27.7694 34.5459C27.6612 34.5459 27.5892 34.4757 27.5829 34.3883C27.5775 34.0775 28.0649 33.9018 28.3838 33.8901C28.2153 34.2946 28.0955 34.5459 27.7694 34.5459Z" fill="white"/>
</g>
<defs>
<clipPath id="clip0_1403_9023">
<rect width="44" height="16" fill="white" transform="translate(8 23)"/>
</clipPath>
</defs>
</svg>
