<svg width="60" height="60" viewBox="0 0 60 60" fill="none" xmlns="http://www.w3.org/2000/svg">
<rect width="60" height="60" fill="#29628D"/>
<g clip-path="url(#clip0_150_768)">
<path d="M22.5359 22.5211L35.3241 9.79536C36.2781 8.84606 37.361 8.66646 38.5212 9.79536L50.407 21.6231C51.2578 22.4698 51.1805 23.7526 50.407 24.5223L24.547 50.2303C23.6188 51.1539 22.407 51.3079 21.3241 50.2303L9.69613 38.6591C8.76795 37.7355 8.8453 36.2731 9.69613 35.4264L22.5359 22.5211Z" fill="white"/>
<path d="M22.7421 23.8296L36.1234 37.1454L23.9539 49.2553C23.2062 49.9994 22.4327 50.025 21.6593 49.2553L10.5211 38.1716C9.825 37.4789 9.87657 36.7092 10.5211 36.0678L22.7421 23.8296Z" fill="#006491"/>
<path d="M36.9742 36.35L23.593 23.0342L35.7624 10.9243C36.5101 10.1802 37.2836 10.1546 38.0571 10.9243L49.1952 22.008C49.8914 22.7007 49.8398 23.4704 49.1952 24.1118L36.9742 36.35Z" fill="#E31837"/>
<path d="M36.8969 26.3439C38.7195 26.3439 40.197 24.8736 40.197 23.0599C40.197 21.2461 38.7195 19.7758 36.8969 19.7758C35.0742 19.7758 33.5967 21.2461 33.5967 23.0599C33.5967 24.8736 35.0742 26.3439 36.8969 26.3439Z" fill="white"/>
<path d="M27.6409 40.4294C29.4635 40.4294 30.9411 38.9591 30.9411 37.1454C30.9411 35.3317 29.4635 33.8613 27.6409 33.8613C25.8182 33.8613 24.3407 35.3317 24.3407 37.1454C24.3407 38.9591 25.8182 40.4294 27.6409 40.4294Z" fill="white"/>
<path d="M17.9982 40.4294C19.8208 40.4294 21.2984 38.9591 21.2984 37.1454C21.2984 35.3317 19.8208 33.8613 17.9982 33.8613C16.1755 33.8613 14.698 35.3317 14.698 37.1454C14.698 38.9591 16.1755 40.4294 17.9982 40.4294Z" fill="white"/>
</g>
<defs>
<clipPath id="clip0_150_768">
<rect width="42" height="42" fill="white" transform="translate(9 9)"/>
</clipPath>
</defs>
</svg>
