<svg width="60" height="60" viewBox="0 0 60 60" fill="none" xmlns="http://www.w3.org/2000/svg">
<rect width="60" height="60" fill="black"/>
<g clip-path="url(#clip0_168_454)">
<path d="M35.6191 45.0403C34.7182 45.9963 33.5206 46.6193 32.2203 46.8101C30.2502 46.9284 28.3298 45.719 27.7482 41.3237L19.7889 38.9834C23.2665 51.3439 32.8903 50.9106 36.2007 45.5323C36.4265 45.1784 36.358 45.0016 36.2007 44.9131C36.0422 44.8248 35.8462 44.8248 35.6191 45.0403ZM35.6191 12.5921C32.4175 6.20092 21.0701 12.5135 19.1 29.0128C18.9366 29.7702 19.2942 30.5433 19.976 30.9109C20.9834 31.4587 22.0816 31.8212 23.2176 31.9822C24.0876 32.186 24.9837 32.2616 25.8768 32.2089C26.677 32.174 27.3402 31.5749 27.4526 30.7827C29.1472 13.0838 33.1959 9.07212 35.0775 12.8773C35.2936 13.3194 35.8462 13.0838 35.6092 12.5921H35.6191Z" fill="#005984"/>
<path d="M33.6591 18.1771C32.8626 18.0509 32.0652 18.4007 31.6202 19.0723C31.1502 19.9162 30.8436 20.8392 30.7131 21.7962C30.5031 22.7642 30.4394 23.7589 30.5261 24.7458C30.6792 25.2724 31.1592 25.6362 31.7089 25.6403C35.3335 25.8667 45.9719 27.3811 47.4693 30.4688C48.4551 32.5926 45.4992 33.1332 43.313 33.6937C42.5851 33.8247 42.0157 34.3933 41.8842 35.1196C41.6355 36.2179 41.8496 37.3685 42.4758 38.3058C42.7525 38.7718 43.3568 38.9257 43.8247 38.6495L43.9532 38.5612C45.0799 37.8198 46.0785 36.9004 46.9078 35.8373C54.0202 25.9354 39.1067 18.2852 33.6591 18.1771Z" fill="#54B948"/>
<path d="M37.3137 34.3914C19.4744 36.3579 5.39711 28.217 16.0557 26.2405C16.0557 26.2405 17.4154 25.9256 17.6712 25.1583C17.9271 24.392 18.0059 24.1755 18.3015 23.0445C18.4886 22.3469 18.656 21.9533 18.8342 21.4127C19.1189 20.577 18.5872 20.0753 17.4054 20.6556C7.66309 25.4048 10.5104 34.2741 18.4598 38.7183C23.6646 41.7551 29.8052 42.7808 35.7177 41.5991C36.6994 41.4134 37.5545 40.8202 38.0721 39.9674C38.8737 38.7658 39.2231 37.3201 39.0569 35.886C39.0717 35.4418 38.8826 35.0154 38.5421 34.7282C38.2026 34.441 37.7497 34.3237 37.3137 34.4112V34.3914Z" fill="#26BCD7"/>
</g>
<defs>
<clipPath id="clip0_168_454">
<rect width="38" height="40" fill="white" transform="translate(11 10)"/>
</clipPath>
</defs>
</svg>
