<svg width="60" height="60" viewBox="0 0 60 60" fill="none" xmlns="http://www.w3.org/2000/svg">
<rect width="60" height="60" fill="black"/>
<g clip-path="url(#clip0_168_509)">
<path d="M35.3232 30.4854C33.5056 30.5449 32.3763 30.8723 32.3763 32.0672C32.3763 32.8408 32.9942 33.6795 34.5628 33.6795C36.6659 33.6795 37.7885 32.5353 37.7885 30.6586L37.7887 30.4522C37.0513 30.4522 36.1421 30.4586 35.3232 30.4854ZM39.7932 32.9649C39.7932 33.5471 39.8101 34.1218 39.861 34.6394H37.9964C37.9467 34.2132 37.9285 33.7898 37.9285 33.3791C36.9204 34.6159 35.7214 34.9715 34.058 34.9715C31.591 34.9715 30.27 33.67 30.27 32.1645C30.27 29.9841 32.0667 29.2153 35.1856 29.144C36.0386 29.1246 36.9966 29.1217 37.7886 29.1217L37.7885 28.9087C37.7885 27.449 36.8508 26.8488 35.2258 26.8488C34.0195 26.8488 33.1304 27.3471 33.0388 28.2081H30.9327C31.1556 26.0613 33.4153 25.5183 35.4023 25.5183C37.7826 25.5183 39.7932 26.3636 39.7932 28.8766L39.7932 32.9649Z" fill="#FFBC13"/>
<path d="M17.9855 29.4207C17.9077 27.5492 16.5543 26.8488 15.1078 26.8488C13.548 26.8488 12.3027 27.6366 12.0846 29.4207H17.9855ZM12.0414 30.7512C12.1495 32.5672 13.4042 33.6412 15.1293 33.6412C16.3245 33.6412 17.3877 33.1551 17.7437 32.0977H19.811C19.4089 34.2432 17.1249 34.9715 15.1589 34.9715C11.5843 34.9715 10 33.0065 10 30.3566C10 27.4395 11.6386 25.5183 15.1915 25.5183C18.0195 25.5183 20.0915 26.9955 20.0915 30.2197V30.7512H12.0414Z" fill="#F12C2D"/>
<path d="M25.2333 33.6032C27.0962 33.6032 28.3709 32.2648 28.3709 30.2451C28.3709 28.2256 27.0962 26.8871 25.2333 26.8871C23.3809 26.8871 22.0955 28.2256 22.0955 30.2451C22.0955 32.2648 23.3809 33.6032 25.2333 33.6032ZM20.0914 22H22.0955L22.0953 27.0256C23.0776 25.8575 24.4309 25.5183 25.7629 25.5183C27.9963 25.5183 30.477 27.0225 30.477 30.2705C30.477 32.9903 28.5041 34.9715 25.7257 34.9715C24.2714 34.9715 22.9025 34.4507 22.0583 33.4191C22.0583 33.8311 22.0352 34.2465 21.9901 34.6393H20.0232C20.0574 34.0042 20.0914 33.2133 20.0914 32.5733L20.0914 22Z" fill="#0968F6"/>
<path d="M49.9999 25.8511L43.8021 38H41.5579L43.3398 34.6265L38.6755 25.8511H41.0206L44.4528 32.7074L47.8753 25.8511H49.9999Z" fill="#93C822"/>
</g>
<defs>
<clipPath id="clip0_168_509">
<rect width="40" height="16" fill="white" transform="translate(10 22)"/>
</clipPath>
</defs>
</svg>
