<svg width="60" height="60" viewBox="0 0 60 60" fill="none" xmlns="http://www.w3.org/2000/svg">
<rect width="60" height="60" fill="#006BD3"/>
<g clip-path="url(#clip0_150_773)">
<rect x="10.1667" y="10.1667" width="39.6667" height="39.6667" rx="1" fill="white"/>
<path d="M30.087 2.29056C24.609 2.29056 19.2537 3.91507 14.6988 6.95868C10.1437 10.0023 6.59359 14.3283 4.49724 19.3896C2.40069 24.451 1.8523 30.0202 2.92107 35.3934C3.98965 40.7664 6.62779 45.702 10.5015 49.5756C14.3752 53.4494 19.3105 56.0876 24.6834 57.1562C30.0564 58.225 35.6255 57.6766 40.6868 55.58C45.7481 53.4836 50.074 49.9334 53.1175 45.3782C56.161 40.8232 57.7854 35.4678 57.7854 29.9896C57.7848 22.6436 54.8665 15.5985 49.6722 10.4041C44.4777 5.20964 37.4329 2.29117 30.087 2.29056ZM48.561 43.8828L32.0222 35.3254C31.674 35.1442 31.277 35.0792 30.889 35.1396C30.5012 35.2 30.1428 35.3828 29.8662 35.6614L16.7165 48.8414C16.6617 48.8968 16.589 48.9308 16.5114 48.937C16.4338 48.9432 16.3566 48.9212 16.2936 48.8752C16.2308 48.8292 16.1868 48.762 16.1694 48.686C16.152 48.6102 16.1624 48.5304 16.1988 48.4616L24.7536 31.9246C24.9352 31.5766 25.0006 31.1798 24.9406 30.792C24.8806 30.404 24.6982 30.0456 24.42 29.7686L11.2357 16.614C11.1815 16.5593 11.1485 16.487 11.1425 16.4101C11.1367 16.3332 11.1585 16.2567 11.2039 16.1944C11.2493 16.1321 11.3155 16.088 11.3905 16.07C11.4655 16.052 11.5445 16.0614 11.6131 16.0963L28.1521 24.6514C28.5003 24.8326 28.8973 24.8976 29.2851 24.8372C29.673 24.7768 30.0314 24.594 30.308 24.3154L43.4623 11.1378C43.5169 11.0834 43.5893 11.0504 43.6661 11.0445C43.7431 11.0387 43.8195 11.0604 43.8819 11.1059C43.9441 11.1513 43.9883 11.2174 44.0063 11.2924C44.0243 11.3674 44.0149 11.4464 43.9799 11.5151L35.4251 28.0614C35.2437 28.4094 35.1781 28.8062 35.2381 29.1942C35.2983 29.582 35.4807 29.9404 35.7589 30.2174L48.9292 43.365C48.98 43.4198 49.0102 43.4902 49.015 43.5646C49.0198 43.639 48.999 43.7128 48.9556 43.7736C48.9124 43.8344 48.8496 43.8784 48.7778 43.8984C48.7058 43.9182 48.6294 43.9126 48.561 43.8828Z" fill="#006BD3"/>
</g>
<defs>
<clipPath id="clip0_150_773">
<rect width="56" height="56" fill="white" transform="translate(2 2)"/>
</clipPath>
</defs>
</svg>
