<svg width="60" height="60" viewBox="0 0 60 60" fill="none" xmlns="http://www.w3.org/2000/svg">
<rect width="60" height="60" fill="#9C9C9C"/>
<g clip-path="url(#clip0_1403_8932)">
<path d="M36.1872 25.4562H49.649V34.4886H36.1872V25.4562ZM36.1872 13.0106C36.1872 13.0106 47.8812 13.0106 48.6437 13.0106C49.6912 13.0106 49.649 13.5746 49.649 14.5287C49.649 15.4775 49.649 22.0482 49.649 22.0482H36.1872V13.0106ZM42.9207 46.9789C39.0157 46.9789 35.8627 44.8862 35.8627 42.298C35.8627 39.7072 39.0157 37.6144 42.9207 37.6144C46.8231 37.6144 49.9788 39.7072 49.9788 42.298C49.9788 44.8862 46.8231 46.9789 42.9207 46.9789ZM10.0263 25.4562H33.7651V34.4859H10.0263V25.4562ZM10.0263 13.7486C10.0263 13.3558 10.2822 13.0106 10.8099 13.0106C11.021 13.0079 33.7651 13.0106 33.7651 13.0106V22.0403H10.0263C10.0263 22.0403 10.0263 13.9884 10.0263 13.7486ZM33.7492 46.8182C33.7492 46.8182 11.8469 46.8182 11.0843 46.8182C10.0342 46.8182 10.0078 46.552 10.0078 45.6005C10.0078 44.6517 10.0078 37.7805 10.0078 37.7805H33.7492V46.8182Z" fill="black"/>
</g>
<defs>
<clipPath id="clip0_1403_8932">
<rect width="40" height="34" fill="white" transform="translate(10 13)"/>
</clipPath>
</defs>
</svg>
