<svg width="60" height="60" viewBox="0 0 60 60" fill="none" xmlns="http://www.w3.org/2000/svg">
<rect width="60" height="60" fill="white"/>
<g clip-path="url(#clip0_150_689)">
<path d="M50.297 30.5627C50.3007 28.8869 49.7861 27.251 48.8236 25.8792C47.8612 24.5074 46.4981 23.4669 44.9211 22.9001C45.2444 21.2117 45.1915 19.4727 44.7661 17.807C44.3407 16.1414 43.5533 14.59 42.46 13.2633C41.3667 11.9366 39.9943 10.8673 38.4406 10.1315C36.8869 9.39574 35.1901 9.01154 33.471 9.00629C31.6237 9.00409 29.8024 9.44139 28.1574 10.2821C26.5125 11.1228 25.0911 12.3427 24.0108 13.8412C23.0941 13.1332 21.9973 12.6963 20.8449 12.5801C19.6925 12.4638 18.5306 12.6729 17.4911 13.1836C16.4515 13.6944 15.5759 14.4862 14.9635 15.4694C14.3512 16.4526 14.0267 17.5877 14.0269 18.7459C14.0295 19.4841 14.1594 20.2163 14.4109 20.9103C12.8284 21.4764 11.4594 22.5174 10.4908 23.8909C9.5223 25.2644 9.00149 26.9035 8.99958 28.5842C8.99767 30.2648 9.51476 31.9051 10.4802 33.2808C11.4456 34.6565 12.8123 35.7006 14.3934 36.2703C13.8854 38.8763 14.284 41.5776 15.5229 43.9259C16.7618 46.2741 18.7666 48.128 21.2044 49.1798C23.6422 50.2316 26.3664 50.4179 28.9247 49.708C31.483 48.998 33.7216 47.4345 35.2688 45.2768C36.346 46.1329 37.6805 46.6004 39.0564 46.6034C40.6996 46.6029 42.2754 45.95 43.4374 44.788C44.5993 43.6261 45.2523 42.0503 45.2527 40.407C45.2501 39.6689 45.1202 38.9367 44.8687 38.2427C46.4507 37.6718 47.8194 36.6294 48.7902 35.256C49.7609 33.8826 50.2868 32.2444 50.297 30.5627Z" fill="white"/>
<path d="M25.2326 26.7229L34.2739 30.8422L43.3851 22.848C43.5198 22.1876 43.5841 21.5147 43.5771 20.8407C43.5786 18.6649 42.8833 16.5458 41.593 14.7938C40.3027 13.0419 38.4852 11.7492 36.4069 11.1052C34.3285 10.4612 32.0986 10.4997 30.0438 11.2151C27.9889 11.9306 26.2172 13.2853 24.9882 15.0807L23.4697 22.9527L25.2326 26.7229Z" fill="#FED10A"/>
<path d="M15.877 36.288C15.7424 36.9602 15.678 37.6446 15.685 38.3302C15.6877 40.515 16.3901 42.6416 17.6894 44.3982C18.9887 46.1547 20.8164 47.4489 22.9047 48.091C24.9931 48.7332 27.2322 48.6894 29.2939 47.9663C31.3556 47.2432 33.1315 45.8787 34.3612 44.0727L35.8623 36.2356L33.855 32.3956L24.7787 28.2589L15.877 36.288Z" fill="#24BBB1"/>
<path d="M15.8246 20.6487L22.0209 22.1149L23.3824 15.0807C22.5419 14.4371 21.5151 14.0839 20.4565 14.0741C19.3979 14.0643 18.3648 14.3985 17.5125 15.0264C16.6602 15.6543 16.0348 16.542 15.7304 17.5559C15.426 18.5698 15.4591 19.6552 15.8246 20.6487Z" fill="#EF5098"/>
<path d="M15.2836 22.1324C13.943 22.5723 12.7717 23.4169 11.9309 24.55C11.0901 25.6831 10.6212 27.0489 10.5886 28.4595C10.5561 29.8701 10.9616 31.2561 11.7492 32.4267C12.5368 33.5974 13.668 34.4951 14.9868 34.9964L23.6791 27.1418L22.0908 23.7382L15.2836 22.1324Z" fill="#17A8E0"/>
<path d="M35.9321 44.0728C36.7732 44.7085 37.7973 45.0552 38.8517 45.0611C39.906 45.067 40.934 44.7318 41.7821 44.1055C42.6303 43.4792 43.2532 42.5954 43.5578 41.586C43.8624 40.5766 43.8325 39.4957 43.4724 38.5048L37.2935 37.056L35.9321 44.0728Z" fill="#93C83E"/>
<path d="M37.1888 35.4327L43.996 37.0211C45.3366 36.5812 46.5079 35.7365 47.3487 34.6035C48.1895 33.4704 48.6584 32.1046 48.6909 30.694C48.7235 29.2834 48.318 27.8974 47.5304 26.7268C46.7427 25.5561 45.6116 24.6584 44.2927 24.1571L35.391 31.9593L37.1888 35.4327Z" fill="#0779A1"/>
</g>
<defs>
<clipPath id="clip0_150_689">
<rect width="42.0004" height="42" fill="white" transform="translate(8.99957 9)"/>
</clipPath>
</defs>
</svg>
