<svg width="60" height="60" viewBox="0 0 60 60" fill="none" xmlns="http://www.w3.org/2000/svg">
<rect width="60" height="60" fill="white"/>
<g clip-path="url(#clip0_150_1075)">
<path d="M12.0982 45.3471H19.6616C21.1588 45.3471 23.0432 44.5376 23.8176 43.5715L31.1745 34.4585C31.9747 33.4662 31.4068 32.6829 29.9096 32.6829H22.3462C20.849 32.6829 18.9646 33.4923 18.1902 34.4585L10.8333 43.5715C10.0331 44.5376 10.601 45.3471 12.0982 45.3471Z" fill="#72808A"/>
<path d="M29.3417 15.9192H36.9051C38.4023 15.9192 40.2867 16.7287 41.0612 17.6948L48.4181 26.8078C49.2183 27.8001 48.6504 28.5834 47.1532 28.5834H39.5898C38.0926 28.5834 36.2082 27.774 35.4338 26.8078L28.0769 17.6948C27.2766 16.7287 27.8445 15.9192 29.3417 15.9192Z" fill="#307CC0"/>
<path d="M12.0982 15.9192H19.6616C21.1588 15.9192 23.0432 16.7287 23.8176 17.6948L31.1745 26.8078C31.9747 27.8001 31.4068 28.5834 29.9096 28.5834H22.3462C20.849 28.5834 18.9646 27.774 18.1902 26.8078L10.8333 17.6948C10.0331 16.7287 10.601 15.9192 12.0982 15.9192Z" fill="#76BB40"/>
<path d="M40.0544 31.8213C38.5572 31.8213 36.6986 32.6308 35.8984 33.623L28.5415 42.7622C27.7413 43.7544 28.3092 44.5639 29.8064 44.5639H37.3698C38.867 44.5639 40.7256 43.7544 41.5258 42.7622L48.8827 33.623C49.6829 32.6308 49.115 31.8213 47.6178 31.8213H40.0544Z" fill="#003453"/>
</g>
<defs>
<clipPath id="clip0_150_1075">
<rect width="40" height="31" fill="white" transform="translate(10 15)"/>
</clipPath>
</defs>
</svg>
