<svg width="60" height="60" viewBox="0 0 60 60" fill="none" xmlns="http://www.w3.org/2000/svg">
<rect width="60" height="60" fill="black"/>
<g clip-path="url(#clip0_1772_9441)">
<path fill-rule="evenodd" clip-rule="evenodd" d="M33.9508 20H37.6397C35.3615 23.0217 33.0842 26.0433 30.8076 29.065C32.3459 31.1075 33.8866 33.1475 35.4224 35.19C34.1903 35.185 32.9582 35.19 31.7286 35.1875C30.8027 33.9625 29.8817 32.735 28.9558 31.5125C28.057 32.715 27.1508 33.91 26.2496 35.11C26.1953 35.2125 26.0792 35.1875 25.9854 35.19C24.82 35.185 23.657 35.19 22.494 35.1875C25.4446 31.285 28.3829 27.375 31.3286 23.47C32.2051 22.315 33.0693 21.15 33.9508 20ZM15.336 22.74C16.3755 22.5725 17.4619 22.59 18.4693 22.92C19.5163 23.25 20.4496 23.9375 21.0718 24.8525C21.8718 26.02 22.2224 27.45 22.2595 28.855C22.2916 29.2825 22.2718 29.7125 22.2767 30.14C19.2002 30.1475 16.1237 30.1425 13.0471 30.145C13.1237 30.845 13.3805 31.545 13.8743 32.055C14.4619 32.6775 15.3088 33.02 16.1533 33.0375C16.8348 33.06 17.5385 32.9475 18.136 32.6C18.6743 32.2825 19.1508 31.8625 19.5459 31.3775C20.2669 31.9325 20.9903 32.485 21.7138 33.0375C21.5607 33.2625 21.3656 33.4575 21.1755 33.6525C20.6916 34.155 20.1212 34.575 19.4916 34.87C17.8866 35.6125 16.0076 35.6875 14.3335 35.145C13.1385 34.765 12.0471 34.03 11.2891 33.015C10.7508 32.2975 10.3607 31.4625 10.1681 30.58C9.98539 29.6975 9.97304 28.78 10.1064 27.8875C10.3261 26.5225 11.0101 25.24 12.02 24.31C12.9409 23.47 14.1187 22.9475 15.336 22.74ZM14.1039 25.6475C13.4891 26.205 13.1484 27.02 13.0496 27.84C15.1138 27.8375 17.178 27.84 19.2422 27.8375C19.2298 27.4975 19.1879 27.16 19.0891 26.8325C18.9212 26.24 18.5286 25.7175 18.0076 25.3975C17.4446 25.0475 16.7681 24.9275 16.1138 24.945C15.3928 24.935 14.6471 25.15 14.1039 25.6475ZM41.5632 23.155C42.5459 22.7 43.657 22.5575 44.7261 22.675C46.0051 22.7825 47.2372 23.35 48.1607 24.25C49.1335 25.1975 49.7088 26.5075 49.8965 27.8475C50.1113 29.325 49.9459 30.88 49.2891 32.2275C48.7607 33.3425 47.8817 34.2975 46.7854 34.86C46.2002 35.1725 45.5582 35.3675 44.9039 35.4525C44.0916 35.54 43.2545 35.5075 42.4693 35.27C41.6002 35.0225 40.7928 34.5375 40.1977 33.85C40.1237 33.765 40.0644 33.6625 39.9582 33.62C39.9484 36.08 39.9558 38.54 39.9533 40.9975C38.9434 40.9975 37.9311 40.9975 36.9212 40.9975C36.9212 34.9775 36.9187 28.9575 36.9212 22.9375C37.8817 22.935 38.8446 22.9375 39.8051 22.9375C39.8125 23.56 39.7977 24.1825 39.8125 24.805C39.9335 24.645 40.0298 24.4675 40.1533 24.31C40.5187 23.815 41.0076 23.4125 41.5632 23.155ZM42.8965 25.4275C41.9311 25.545 41.0348 26.105 40.4891 26.915C39.699 28.0925 39.6496 29.7175 40.3286 30.9575C40.6965 31.63 41.299 32.16 41.9977 32.4625C42.7385 32.775 43.5829 32.8075 44.3607 32.6175C45.0718 32.425 45.7163 31.995 46.1755 31.4125C47.0521 30.2925 47.1829 28.6625 46.5829 27.3825C46.2644 26.695 45.7113 26.13 45.0446 25.785C44.3928 25.435 43.6249 25.3375 42.8965 25.4275ZM22.4965 22.9375C23.7261 22.935 24.9558 22.9375 26.1854 22.935C26.82 23.77 27.4422 24.6125 28.0792 25.445C27.4619 26.2625 26.8496 27.085 26.2298 27.9C24.9854 26.245 23.7385 24.595 22.4965 22.9375Z" fill="white"/>
</g>
<defs>
<clipPath id="clip0_1772_9441">
<rect width="40" height="21" fill="white" transform="translate(10 20)"/>
</clipPath>
</defs>
</svg>
