<svg width="60" height="60" viewBox="0 0 60 60" fill="none" xmlns="http://www.w3.org/2000/svg">
<rect width="60" height="60" fill="#0066FF"/>
<g clip-path="url(#clip0_168_425)">
<path d="M15.8559 32.1198L11.5488 32.112L11.5727 24.1231L10.0079 24.1178L10.0159 21.384H11.5807L11.5833 21.2319C11.5833 20.1457 11.6549 19.1277 12.3949 18.2147C13.2489 17.1758 14.5988 17.0052 15.8798 17.0078L19.0783 17.2964L19.0703 20.0119L17.1104 19.8335C16.0442 19.7443 15.7392 20.3529 15.848 21.3919L18.5876 21.3998L18.577 24.1336L15.8798 24.1309M24.3746 32.1356L20.163 32.1277L20.1948 21.2791L24.4064 21.287L24.3746 32.1356ZM24.4091 20.248L20.2001 20.2401L20.2081 17.3542L24.4197 17.362M33.5431 32.1513L29.9388 32.1461L25.401 17.5719L30.3684 17.5798L32.4557 25.2827L32.8906 23.7427L34.641 17.5877L38.0703 17.5929" fill="white"/>
<path fill-rule="evenodd" clip-rule="evenodd" d="M49.9864 27.3056C49.2332 30.8396 46.589 32.461 43.6875 32.4583C41.8894 32.4531 40.139 31.9966 38.7519 30.5379C37.4364 29.1368 36.7442 27.1403 36.7495 25.0598C36.7575 23.0947 37.4126 20.9564 38.5636 19.5607C39.8181 18.0258 41.6931 17.3148 43.4435 17.3201C47.5225 17.328 50.0102 20.4658 49.9943 25.2539V26.0279L41.7859 26.0121C41.709 27.5784 42.1864 28.7197 43.6239 28.7223C44.7033 28.7276 45.3053 28.2133 45.5016 26.9566M45.2019 23.1655C45.2046 21.7409 44.8253 20.6573 43.4833 20.6547C42.2342 20.6521 41.7276 21.8196 41.77 23.1603L45.2019 23.1655ZM10.1538 33.0329L14.9967 33.0408C15.7446 33.0434 16.5137 33.1037 17.1316 33.5498C17.7947 34.0273 18.1819 34.838 18.1792 35.6434C18.1739 36.6824 17.5082 37.5586 16.4978 37.7895V37.8158C17.6382 38.0204 18.4153 38.8888 18.41 40.0694C18.41 40.9221 18.105 41.8719 17.3942 42.3782C16.6277 42.9239 15.5563 42.9344 14.6625 42.9318L10.1273 42.9239L10.1538 33.0329ZM14.1559 36.8345C14.445 36.8345 14.7924 36.8503 15.0099 36.6483C15.1982 36.4725 15.3017 36.2285 15.3017 35.995C15.3017 35.263 14.697 35.1633 14.1161 35.158H12.9333L12.928 36.8293L14.1559 36.8345ZM14.2328 40.7306C14.5378 40.7306 14.8667 40.7463 15.1133 40.5443C15.3335 40.3843 15.4793 40.1245 15.4793 39.8491C15.4793 39.5185 15.291 39.2168 15.0046 39.0725C14.742 38.9413 14.3973 38.9413 14.1214 38.9413L12.9253 38.9387L12.9174 40.7253L14.2328 40.7306ZM26.3452 42.9607L18.9059 42.9449L18.9377 33.0539L26.377 33.0696L26.369 35.3469L21.9055 35.3391L21.9002 36.7821L25.5124 36.7873L25.5071 38.9938L21.8975 38.9859L21.8896 40.5863L26.3531 40.5942L26.3452 42.9607ZM34.1902 42.9764L27.2389 42.9607L27.2708 33.0696L30.334 33.0775L30.3101 40.5443L34.1982 40.5522L34.1902 42.9764ZM46.8542 43L44.3002 42.9974L42.9423 37.5429H42.9158L41.6136 42.9921L38.9535 42.9843L36.3411 33.0906L39.2001 33.0933L40.5554 38.8075H40.5872L41.9477 33.1011L44.332 33.1064L45.7721 38.818H45.8013L47.1884 33.109L49.5116 33.1142L46.8542 43Z" fill="white"/>
<path fill-rule="evenodd" clip-rule="evenodd" d="M36.235 35.924C36.0042 37.3749 34.6357 38.364 33.185 38.1357C31.7316 37.9075 30.7397 36.5458 30.9705 35.095C31.2039 33.6415 32.5671 32.6524 34.0204 32.8806C35.4765 33.1089 36.4684 34.4732 36.235 35.924ZM34.7153 35.6853C34.8134 35.0714 34.3944 34.4968 33.7817 34.3997C33.1664 34.3026 32.5909 34.7224 32.4928 35.3363C32.3947 35.945 32.8137 36.5222 33.4263 36.6193C34.0363 36.7164 34.6172 36.2966 34.7153 35.6853Z" fill="white"/>
</g>
<defs>
<clipPath id="clip0_168_425">
<rect width="40" height="26" fill="white" transform="translate(10 17)"/>
</clipPath>
</defs>
</svg>
