<svg width="60" height="60" viewBox="0 0 60 60" fill="none" xmlns="http://www.w3.org/2000/svg">
<rect width="60" height="60" fill="black"/>
<g clip-path="url(#clip0_168_331)">
<path d="M37.7609 26.5038C37.178 27.1173 37.178 28.1114 37.7609 28.7248L39.8069 30.8755C39.9391 31.0304 40.4939 31.7513 40.2902 32.726C40.2798 32.7762 40.289 32.8308 40.326 32.8699C40.381 32.9276 40.4703 32.9276 40.5249 32.8699L41.1145 32.25L41.8684 31.4571C42.6189 30.6687 42.6189 29.3902 41.8684 28.6014L39.8733 26.5038C39.2901 25.8912 38.3442 25.8912 37.7609 26.5038Z" fill="#0099DE"/>
<path d="M50.0159 39.3941C50.5992 38.7815 50.5992 37.787 50.0159 37.1739L47.9696 35.0232C47.8378 34.8679 47.2829 34.1475 47.4863 33.1723C47.497 33.1222 47.4875 33.0675 47.4505 33.0285C47.3955 32.9711 47.3061 32.9711 47.2515 33.0285L46.6623 33.6483L45.9081 34.4417C45.1579 35.2297 45.1579 36.5081 45.9081 37.2969L47.9035 39.3941C48.4864 40.0075 49.4322 40.0075 50.0159 39.3941Z" fill="#0099DE"/>
<path d="M37.7551 37.1803L47.9137 26.5074C48.2083 26.1984 48.5977 26.0458 48.9854 26.0508C49.3623 26.0561 49.7367 26.2079 50.022 26.5085C50.3115 26.8122 50.4562 27.2134 50.4565 27.6143C50.4573 28.017 50.3122 28.4194 50.0216 28.7246L39.8631 39.3974C39.5729 39.7022 39.1908 39.8548 38.8087 39.8541C38.4266 39.8541 38.0441 39.7015 37.7543 39.397C37.4723 39.0991 37.3268 38.7092 37.3198 38.3175C37.3131 37.906 37.4582 37.4927 37.7551 37.1803Z" fill="#0099DE"/>
<path d="M11.369 29.0757H10.3604C9.68555 29.0757 9.13843 28.5006 9.13843 27.7916C9.13843 27.0825 9.68555 26.5078 10.3604 26.5078H11.369V25.541C11.369 24.0409 11.7315 22.9226 12.4093 22.2105C13.0864 21.4984 14.03 21.1423 15.2878 21.1423C15.8146 21.1423 16.2576 21.1829 16.6526 21.2513C17.2352 21.3515 17.6586 21.8882 17.6586 22.5096C17.6579 23.2566 17.051 23.8443 16.3425 23.7793C16.2133 23.7679 16.0804 23.7612 15.9412 23.7612C14.8282 23.7612 14.2474 24.397 14.2474 25.7957V26.5329H16.4245C17.0923 26.5329 17.6339 27.1023 17.6339 27.8045C17.6339 28.5068 17.0923 29.0758 16.4245 29.0758H14.2958V38.3191C14.2958 39.1682 13.6405 39.8572 12.8328 39.8572C12.0243 39.8572 11.369 39.1682 11.369 38.3191V29.0757Z" fill="#0099DE"/>
<path d="M20.7234 21.2949C21.5315 21.2949 22.1868 21.9838 22.1868 22.833V38.319C22.1868 39.1685 21.5315 39.8574 20.7234 39.8574C19.9153 39.8574 19.26 39.1685 19.26 38.319V22.833C19.26 21.9838 19.9153 21.2949 20.7234 21.2949Z" fill="#0099DE"/>
<path d="M33.7451 31.8985C33.8208 31.8985 33.8809 31.8282 33.8714 31.7489C33.6377 29.8377 32.5327 28.3637 30.6462 28.3637C28.9008 28.3637 27.6614 29.742 27.3539 31.7443C27.3421 31.8241 27.4027 31.8985 27.4794 31.8985H33.7451ZM24.4297 32.89V32.7062C24.4297 28.5095 28.0159 25.2003 31.9417 25.9651C35.1627 26.593 36.7904 29.6293 36.7904 33.068C36.7901 33.5459 36.4216 33.9323 35.9672 33.9323L27.5068 33.9327C27.4285 33.9327 27.3676 34.0094 27.3816 34.0902C27.7427 36.1779 29.1924 37.3402 31.0331 37.3402C32.1167 37.3402 32.9632 37.0172 33.7525 36.4068C34.2121 36.0504 34.8397 36.0622 35.2665 36.46C35.8073 36.9645 35.8077 37.8667 35.2484 38.3473C34.153 39.2879 32.7638 39.8577 30.9851 39.8577C27.2841 39.8577 24.4297 37.0347 24.4297 32.89Z" fill="#0099DE"/>
</g>
<defs>
<clipPath id="clip0_168_331">
<rect width="42" height="19" fill="white" transform="translate(9 21)"/>
</clipPath>
</defs>
</svg>
