<svg width="60" height="60" viewBox="0 0 60 60" fill="none" xmlns="http://www.w3.org/2000/svg">
<rect width="60" height="60" fill="black"/>
<g clip-path="url(#clip0_168_312)">
<path d="M30.9039 31.3045C30.913 31.8273 30.977 32.5182 31.5796 32.5182C32.0726 32.5182 32.2917 32.4 32.657 32.0455L33.1957 33.3091C32.657 33.8 32.027 34.0909 31.2965 34.0909C29.8448 34.0909 29.087 32.9818 29.087 31.6182V28.1818H28.1739V26.8182H29.087V25H30.913V26.8182H32.7391V28.1818H30.913V31.3182L30.9039 31.3045ZM19.0435 25H17.2174V34.0909H19.0435V25ZM25.4348 30.7545C25.4348 31.6818 24.8778 32.5909 23.8826 32.5909C23.0609 32.5909 22.6957 31.9727 22.6957 31.1909V26.8182H20.8696V31.1909C20.8696 32.0636 21.0978 32.7818 21.5361 33.3C21.9652 33.8182 22.6317 34.0909 23.4991 34.0909C23.9519 34.094 24.3991 33.9912 24.8048 33.7909C24.9783 33.7 25.1243 33.6 25.2339 33.4909L25.5535 33.1909L25.6083 34.0909H27.2609V26.8182H25.4348V30.7545ZM37.0578 32.5182C36.4552 32.5182 36.3913 31.8273 36.3913 31.3182V28.1818H38.2174V26.8182H36.3913V25H34.5652V26.8182H33.6522V28.1818H34.5652V31.6182C34.5652 32.9818 35.323 34.0909 36.7748 34.0909C37.5052 34.0909 38.1352 33.8 38.6739 33.3091L38.1352 32.0364C37.77 32.4 37.5509 32.5182 37.0578 32.5182ZM43.86 27.1636C44.2617 27.4 44.5904 27.7 44.8278 28.0727C45.3418 28.8424 45.5857 29.7597 45.5217 30.6818V31H40.9565C40.9565 31.7909 41.5957 32.4818 42.5087 32.4818C43.2665 32.4818 44.0243 32.2091 44.5539 31.6818L45.4396 32.8364L45.403 32.8818L45.2204 33.0818C44.8201 33.4666 44.331 33.7476 43.7961 33.9C43.4309 34.0364 43.02 34.0909 42.5178 34.0909C41.8231 34.1181 41.1388 33.9164 40.5709 33.517C40.0031 33.1176 39.5834 32.5428 39.377 31.8818C39.0493 30.9302 39.0493 29.8971 39.377 28.9455C39.5144 28.5357 39.7354 28.1587 40.0261 27.838C40.3168 27.5173 40.6708 27.2599 41.0661 27.0818C41.4678 26.9 41.8878 26.8182 42.3809 26.8182C42.9743 26.8182 43.4583 26.9273 43.86 27.1636ZM42.3809 28.3455C41.55 28.3455 40.9565 28.8636 40.9565 29.7455H43.7322C43.7322 28.9364 43.2026 28.3364 42.3809 28.3364V28.3455ZM50.5983 26.8455C50.4522 26.8182 50.3152 26.8182 50.1691 26.8182C49.877 26.8182 49.6487 26.8455 49.4204 26.9273L48.8452 27.1727C48.5708 27.3509 48.3298 27.5755 48.133 27.8364L48.0691 26.8182H46.4348V34.0909H48.2609V30.2091C48.2609 29.5091 48.5622 28.8455 49.2196 28.5727C49.4204 28.5 49.6487 28.4727 49.877 28.4727C50.1509 28.4727 50.4065 28.4909 50.653 28.6091L51 26.9273L50.5983 26.8455ZM9 25H16.3043V26.8182H9V25ZM9 28.6364H14.4783V30.4545H9V28.6364ZM10.8261 32.2727H9V34.0909H10.8261V32.2727Z" fill="#FEFEFD"/>
</g>
<defs>
<clipPath id="clip0_168_312">
<rect width="42" height="10" fill="white" transform="translate(9 25)"/>
</clipPath>
</defs>
</svg>
