<svg width="60" height="60" viewBox="0 0 60 60" fill="none" xmlns="http://www.w3.org/2000/svg">
<g clip-path="url(#clip0_1772_9436)">
<rect width="60" height="60" fill="white"/>
<rect width="60" height="60" fill="#9B2C39"/>
<g clip-path="url(#clip1_1772_9436)">
<path fill-rule="evenodd" clip-rule="evenodd" d="M44.9121 26.187C44.6143 26.187 42.5847 32.0358 42.5847 32.0358H42.801C42.801 32.0358 43.0987 31.2881 43.6131 31.2612C44.1271 31.2342 45.3993 33.9052 45.3993 33.9052C45.3993 33.9052 45.5344 34.7329 46.5631 34.7329H50V34.4928C50 34.4928 49.2694 34.5463 48.9173 33.7986C48.5656 33.0505 45.1558 26.187 44.9121 26.187ZM42.0703 28.9111V26.7743C42.0703 26.7743 41.0148 26 39.5535 26C38.0919 26 36.3057 26.6942 36.3057 28.9377C36.3057 31.0745 39.7158 31.5017 39.7158 32.6769C39.7158 33.291 39.2026 33.3442 38.8497 33.3442C37.6862 33.3442 36.5495 31.6352 36.5495 31.6352V33.9587C36.5495 33.9587 37.713 34.9469 39.1746 34.9469C40.6359 34.9469 42.4764 34.0922 42.4764 31.8488C42.4764 29.1782 38.9852 29.1247 38.9852 27.9495C38.9852 27.3353 39.363 27.4153 39.7158 27.4153C40.8797 27.4153 42.0703 28.9111 42.0703 28.9111ZM29.5399 27.0948C30.1131 28.2591 30.6495 29.8993 31.5428 29.8993C32.2734 29.8993 32.8689 26.2671 32.8689 26.2671H35.8186V33.7986C35.8186 34.4393 36.5763 34.5994 36.5763 34.5994H32.7062V29.2582C32.7062 29.2582 30.46 35 30.2438 35C30.0272 35 26.9688 29.2582 26.9688 29.2582V33.8783C26.9688 34.3058 27.6455 34.6263 27.6455 34.6263H25.9133V27.0682C25.9133 26.5607 25.0743 26.2136 25.0743 26.2136H28.0783C28.0783 26.2136 29.0799 26.1601 29.5399 27.0948ZM21.3669 34.2257C21.3669 34.2257 23.7214 34.4393 24.8581 32.8104L24.3981 34.6263H18.2814V27.0682C18.2814 26.5607 17.4424 26.2136 17.4424 26.2136H24.3981L24.8581 28.0295C23.7214 26.4006 21.3669 26.6142 21.3669 26.6142V30.1394H23.2885C23.8837 30.1394 24.2086 29.1512 24.2086 29.1512C24.2086 29.1512 24.8309 31.9557 24.8038 31.9288C24.3165 31.0476 22.8281 30.5935 22.8281 30.5935H21.3669V34.2257ZM16.9556 26.2136H10C10 26.2136 10.8389 26.5607 10.8389 27.0682V34.6263H14.7362C14.7362 34.6263 13.9244 34.3593 13.9244 33.7447V30.5935H15.3857C15.3857 30.5935 16.8741 31.0476 17.3613 31.9288C17.3885 31.9557 16.7662 29.1512 16.7662 29.1512C16.7662 29.1512 16.4412 30.1394 15.8457 30.1394H13.9244V26.6142C13.9244 26.6142 16.279 26.4006 17.4157 28.0295L16.9556 26.2136Z" fill="white"/>
</g>
</g>
<defs>
<clipPath id="clip0_1772_9436">
<rect width="60" height="60" fill="white"/>
</clipPath>
<clipPath id="clip1_1772_9436">
<rect width="40" height="9" fill="white" transform="translate(10 26)"/>
</clipPath>
</defs>
</svg>
