<svg width="60" height="60" viewBox="0 0 60 60" fill="none" xmlns="http://www.w3.org/2000/svg">
<rect width="60" height="60" fill="#E52713"/>
<g clip-path="url(#clip0_150_788)">
<path d="M31.4612 25.1352C31.4612 30.3414 27.2111 34.5616 21.9687 34.5616C16.7253 34.5616 12.4755 30.3414 12.4755 25.1352C12.4755 19.9287 16.7253 15.7081 21.9687 15.7081C27.2111 15.7081 31.4612 19.9287 31.4612 25.1352Z" fill="white"/>
<path d="M9.71301 34.635C9.71301 34.635 16.5043 38.2045 21.9882 38.0632C25.4085 37.9744 27.7749 37.3073 30.5469 36.7117C33.3173 36.1156 37.4087 35.2538 40.0048 35.34C42.3904 35.4184 47.1521 36.7002 50.699 40.4199C50.699 40.4199 46.5298 36.9282 39.6465 37.0203C39.6465 37.0203 36.3521 37.0882 31.0085 38.4381C24.5346 40.0728 21.0631 39.7393 21.0631 39.7393C21.0631 39.7393 14.244 39.7321 9.71301 34.635Z" fill="white"/>
<path d="M9.71301 39.0378C9.71301 39.0378 16.5043 42.6082 21.9882 42.4654C25.4085 42.3762 27.7749 41.7104 30.5469 41.1137C33.3173 40.5181 37.4087 39.6567 40.0048 39.7423C42.3904 39.8215 47.1521 41.1041 50.699 44.8219C50.699 44.8219 46.5298 41.3308 39.6465 41.4234C39.6465 41.4234 36.3521 41.491 31.0085 42.8407C24.5346 44.4754 21.0631 44.1409 21.0631 44.1409C21.0631 44.1409 14.244 44.1341 9.71301 39.0378Z" fill="white"/>
</g>
<defs>
<clipPath id="clip0_150_788">
<rect width="42" height="30" fill="white" transform="translate(9 15)"/>
</clipPath>
</defs>
</svg>
