<svg width="60" height="60" viewBox="0 0 60 60" fill="none" xmlns="http://www.w3.org/2000/svg">
<rect width="60" height="60" fill="#FF282D"/>
<g clip-path="url(#clip0_150_778)">
<path d="M32.5066 22.4566V31.5652C32.5066 33.3535 32.9716 34.1697 34.9982 34.1697C35.4781 34.1697 36.1377 34.0525 36.6356 33.9512L36.3153 32.1259C35.9783 32.1933 35.6837 32.1852 35.4705 32.1902C34.5842 32.2109 34.6607 31.9344 34.6607 31.1413V27.7126H36.3477V26.1932H34.6607V22.4566H32.5066ZM39.565 22.4566L37.4108 22.4569L37.4111 24.0049V34.1698H40.628V32.6166H39.565L39.565 22.4566ZM13.1715 22.4566C10.9496 22.4566 10.5703 23.1743 10.5703 24.828V26.1932L9.47681 26.3639V27.7126H10.5703V32.6166H9.47686V34.17L13.8067 34.1695V32.6167H12.7246V27.7126H14.3499V26.1932H12.7246V25.0117C12.7246 24.2858 12.9225 24.2117 13.7053 24.2117C13.9185 24.2117 14.0858 24.2207 14.4231 24.2714L14.7182 22.609C14.2202 22.5239 13.6514 22.4566 13.1715 22.4566ZM17.6918 24.6088V25.1281H17.9545V25.8342H17.9695C15.9092 26.1942 14.3478 27.9065 14.3478 29.9662C14.3478 32.2873 16.3303 34.169 18.7759 34.169C19.6105 34.169 20.391 33.9495 21.0574 33.5685L21.4455 34.1698H23.7208V32.1259H23.206L23.2045 25.7634H21.0504V26.3601C20.6067 26.1074 20.1125 25.9268 19.5858 25.8342H19.598V25.1281H19.8608V24.6088H17.6918ZM28.0342 25.7501C26.0118 25.7501 24.7975 26.4262 24.7975 28.1495C24.7975 29.9701 26.2961 30.582 28.1845 30.8883C29.1869 31.0812 29.4935 31.2746 29.4935 31.6772C29.4935 31.9673 29.3205 32.5129 28.2512 32.5129C27.867 32.5129 27.131 32.5258 26.429 32.3971L26.4299 32.1259H24.7986V33.6527C25.8005 33.894 27.1136 34.1698 28.4668 34.1698C30.4891 34.1698 31.4499 33.2544 31.4499 31.4825C31.4499 29.6142 29.8556 29.2613 28.2681 28.923C27.182 28.6976 27.0429 28.4884 27.0429 28.1014C27.0429 27.8279 27.1651 27.3234 28.1676 27.3234C28.5187 27.3234 29.1659 27.3249 29.8175 27.4378V27.7098H31.4484V26.1932C30.446 25.9518 29.4043 25.7501 28.0342 25.7501ZM46.0801 26.1932V27.7112H47.1398L45.5756 31.3636L44.0114 27.7112H45.0733V26.1932H40.628V27.7112H41.69L44.451 34.1594C44.1314 35.087 43.1095 35.6198 42.2036 35.6198C42.008 35.6198 41.6353 35.5866 41.3508 35.5361L41.1559 37.3918C41.5994 37.4929 42.2388 37.5434 42.7191 37.5434C44.6726 37.5434 45.9553 35.8612 46.7363 34.0738L49.4611 27.7111H50.5231V26.1932L46.0801 26.1932ZM18.9049 27.8017C20.0388 27.8593 20.9523 28.7035 21.051 29.7698V29.8401H20.7924V30.085H21.051V30.1521C20.9529 31.2189 20.0392 32.0637 18.9049 32.1212V31.8809H18.6468V32.1206C17.4907 32.0566 16.5659 31.1749 16.5055 30.0758H16.7621V29.8309H16.5069C16.5754 28.7394 17.4964 27.8661 18.6468 27.8025V28.0434H18.9049V27.8017ZM19.7426 28.8963L18.91 29.5848C18.868 29.5706 18.823 29.5624 18.7761 29.5624C18.5514 29.5624 18.3695 29.7401 18.3695 29.9591C18.3695 30.1783 18.5514 30.3559 18.7761 30.3559C19.0006 30.3559 19.1829 30.1783 19.1829 29.9591C19.1829 29.9175 19.1763 29.8774 19.1641 29.8397L19.9064 29.0519L19.7426 28.8963Z" fill="white"/>
</g>
<defs>
<clipPath id="clip0_150_778">
<rect width="42" height="16" fill="white" transform="translate(9 22)"/>
</clipPath>
</defs>
</svg>
