<svg version="1.2" xmlns="http://www.w3.org/2000/svg" viewBox="0 0 1573 1363" width="1573" height="1363">
	<title>fortislogo31-svg</title>
	<style>
		.s0 { fill: #0a5f88 } 
		.s1 { fill: #fbca27 } 
	</style>
	<g id="#0a5f88ff">
		<path id="Layer" fill-rule="evenodd" class="s0" d="m740.6 0h81.4c153.3 5 309.6 34.4 443.4 112.3 78.9 45.7 148.1 108.7 198.6 184.8 58.8 87.5 92.3 190.5 103.6 295 18.3 166.2-13.9 342.4-111.4 480.5-15.4 22.4-33.1 43.1-50.8 63.6-3.2 3-6.1 6.1-9 9.4-108.9 111.7-258.2 175.8-410.4 201.2-50 9-100.6 12.6-151.2 16.2h-107.7c-122.3-6.7-245.5-28.2-357.1-80.5-119.6-54.7-223.1-146.1-286.4-262-85.2-154.2-101.5-340.3-64.6-510.9 30.5-141.5 110.7-272.6 227.7-358.6 141.1-105.9 320.4-145.6 493.9-151zm-181 189.3c-64.4 33.8-117.6 87.4-152.7 151.1-19.7 35-34 72.7-45.1 111.2-7 24.8-12.4 49.9-16.9 75.3-6.8 40.3-10.7 81-12.7 121.7-0.9 25.5-1.6 50.9-1.5 76.3 0.6 40.6 2.4 81.2 7 121.5 8 67.7 22.9 135.2 51.2 197.4 34.2 76.8 92.4 143.4 166.9 183.1 93.7 50.6 203 62.4 307.9 58 98.3-4.6 199.3-30.6 276.8-93.9 72.9-58.7 117.8-145.4 140.7-234.9 7.6-29.3 13.2-59.1 17.6-89.1 2.5-23 5.2-46.1 6.6-69.2 2.1-39.6 4.2-79.4 1.7-118.9-0.1-27.8-1.3-55.6-4.5-83.1-5.2-60.9-16-121.9-36.6-179.7-28.7-87.1-84.4-167.3-163.4-215.6-90.2-56.3-199.6-71-304.1-67.9-82.1 2.7-165.7 17.7-238.9 56.7z"/>
	</g>
	<g id="#fbca27ff">
		<path id="Layer" class="s1" d="m1036.6 373.1c30-29.4 72.2-50.1 114.9-42.2 49.3 8.6 85.9 46.9 114.5 85.2 20.6 57.8 31.4 118.8 36.6 179.7-27.1-46.3-57.7-93.2-102.8-123.7-30.4-20.5-70.2-27.4-105-14.5-37.2 13.5-65.8 42.7-90.5 72.6-48.8 59.3-86.2 128.4-143.4 180.6-32.9 30.2-76.8 51.6-122.3 47.6-39.1-2.9-72.4-27.5-98.7-54.8-60.4-63.5-102.1-143.3-169-200.8-30.7-26.8-68.5-45.8-109.1-51.2 11.1-38.5 25.4-76.2 45.1-111.2 22.2 11 44.1 23 62.9 39.4 70.1 59.1 112.1 143.1 176.2 207.7 26.3 26.1 59.8 48.6 97.9 49.7 43.3 1.8 84.3-18.9 115.7-47.4 69.8-63 109.5-151.6 177-216.7zm-691.7 153.8c41.8 1.3 82.3 16.9 115.1 42.9 86.3 65.8 128.5 173 214 239.4 46.6 37.5 115.3 31.4 161.9-2.9 69.3-49.7 109.4-127.3 161.9-192.5 27.4-34 59.1-68.6 102.1-81.8 36.9-11.5 77.8-1.5 108.1 21.6 43.1 32.5 72.5 79.1 99.1 125.3 2.5 39.5 0.4 79.3-1.7 118.9-28.3-47.1-58.4-95.7-104.6-127.2-29.7-20.2-68.5-28-102.9-16.2-36.8 12.1-65.4 40.2-89.9 69.2-51 60.7-88.9 132.5-148.3 186-34.3 31.5-81.1 52.6-128.3 45.9-39.6-5.8-71.8-32.6-98.1-61-59.6-65.3-102-146.2-172.1-201.8-36.2-29.1-82.3-46-129-44.1 2-40.7 5.9-81.4 12.7-121.7zm-14.2 198c59.3-3.5 115.6 25 156.7 66.4 56.3 54.5 95.2 123.7 148 181.1 26.3 28.1 58.6 54.5 98 59.5 46.8 6.1 92.9-15.5 126.7-46.8 58.2-53.1 95.9-123.6 146-183.6 23.6-28 50.6-55.4 85.5-68.8 32.1-12.6 69.5-9.1 99.3 7.9 38.7 21.7 66.5 57.8 90.7 94.1 6.5 10.3 14.6 20.1 17.2 32.3-4.4 30-10 59.8-17.6 89.1-25.3-37.1-54-74.7-94.7-96-30.8-16.3-68.9-17.9-100.5-3.4-35.1 15.9-62 44.8-85.7 74.2-46.7 57.9-83.5 124.3-138.7 174.9-32.8 30.5-76.7 52.1-122.4 48.4-39.6-2.8-73.3-27.8-100-55.6-60.1-63.6-101.8-143.3-168.8-200.5-36.5-31.9-83.6-52.6-132.7-51.7-4.6-40.3-6.4-80.9-7-121.5zm1065.7 420.7c2.9-3.3 5.8-6.4 9-9.4 0.3 3.9 1.1 11.5 1.5 15.3-2.6-1.5-7.9-4.5-10.5-5.9z"/>
	</g>
</svg>