<svg width="60" height="60" viewBox="0 0 60 60" fill="none" xmlns="http://www.w3.org/2000/svg">
<rect width="60" height="60" fill="#7399C6"/>
<g clip-path="url(#clip0_1779_9220)">
<path fill-rule="evenodd" clip-rule="evenodd" d="M10 50H50V10H10V50Z" fill="#7399C6"/>
<path fill-rule="evenodd" clip-rule="evenodd" d="M45.5256 19.1775H44.1187V14.0019H45.4437V14.5813C45.6087 14.2331 46.0225 13.925 46.5606 13.8856C47.4719 13.8469 48.0919 14.3494 48.0919 15.4306V19.1775H46.6437V15.2763C46.6437 14.8131 46.6437 14.4263 46.3125 14.3494C46.1881 14.3106 45.9813 14.3494 45.8156 14.465C45.6087 14.6588 45.5256 14.89 45.5256 15.2763V19.1775ZM21.0612 16.5894C21.0612 17.555 21.0612 18.3275 20.8956 18.7144C20.7712 18.9069 20.6469 19.0231 20.3569 19.0231C20.1087 19.0231 19.9431 18.9069 19.8606 18.7138C19.6537 18.3275 19.6537 17.555 19.6537 16.5894C19.6537 15.6625 19.6537 14.8519 19.86 14.465C19.9431 14.2719 20.1087 14.1563 20.3569 14.1563C20.6469 14.1563 20.7712 14.2719 20.8956 14.465C21.1025 14.8513 21.0612 15.6619 21.0612 16.5894ZM21.5987 14.3494C21.2675 14.0788 20.8537 13.8856 20.3569 13.8856C19.8606 13.8856 19.4881 14.0794 19.1156 14.3494C18.5356 14.8131 18.1631 15.6625 18.1631 16.5894C18.1631 17.555 18.5356 18.3663 19.1156 18.83C19.4881 19.1 19.8606 19.2931 20.3569 19.2931C20.8537 19.2931 21.2681 19.1 21.5994 18.83C22.22 18.3663 22.5512 17.555 22.5512 16.5894C22.5512 15.6625 22.2194 14.8131 21.5987 14.3494ZM36.0462 21.1475V22.5375H35.7569C35.5912 21.9581 35.3425 21.4563 34.68 21.4175C34.2662 21.3794 33.8937 21.6113 33.8525 21.9581C33.8113 22.3063 33.935 22.6144 34.68 23.0019C35.6325 23.5031 36.3775 23.735 36.3775 24.7781C36.3775 25.8981 35.3425 26.4394 34.4731 26.4394H32.8169V24.5081H33.1069C33.3144 25.5119 33.645 26.13 34.4319 26.1688C34.9287 26.1688 35.3006 25.8981 35.3006 25.3963C35.3006 24.8938 34.97 24.585 34.1838 24.16C33.3144 23.6581 32.7762 23.3488 32.7762 22.6538C32.7762 21.7269 33.48 21.1475 34.5975 21.1475H36.0462ZM37.8675 19.1775V15.4306C37.8675 14.3494 37.2469 13.8469 36.3363 13.8856C35.715 13.9244 35.3425 14.3106 35.1769 14.6194C34.97 14.0788 34.5144 13.8469 33.8519 13.8856C33.3144 13.9244 32.9 14.2331 32.7344 14.5813V14.0019H31.4512V19.1769H32.8587V15.2769C32.8587 14.8906 32.9 14.6588 33.1487 14.4656C33.3144 14.35 33.48 14.3113 33.6037 14.35C33.935 14.4269 33.935 14.8138 33.935 15.2769V19.1781H35.3425V15.2375C35.3425 14.8894 35.425 14.6575 35.6325 14.4644C35.7981 14.3488 35.9638 14.31 36.0875 14.3488C36.4188 14.4256 36.46 14.8125 36.46 15.2756V19.1769H37.8675V19.1775ZM23.5031 19.1775H24.9519V12.92H23.5031V19.1775ZM28.3875 14.4269C28.6775 14.8131 28.6775 15.7394 28.6775 16.4738C28.6775 17.2463 28.7194 18.2506 28.3881 18.675C28.2637 18.83 28.1394 18.9069 27.9325 18.9069C27.6431 18.9069 27.4775 18.5981 27.395 18.0956C27.3531 17.6325 27.3531 17.0531 27.3531 16.435C27.3531 15.3925 27.4356 14.2331 27.9744 14.2331C28.1806 14.2331 28.2631 14.3106 28.3875 14.4269ZM30.0856 19.1775V12.92H28.6362V14.3881C28.5125 14.1175 28.2225 13.9244 27.8087 13.9244C26.7737 13.9244 25.9462 14.9288 25.9044 16.4738C25.8631 17.5169 26.2356 19.255 27.6844 19.255C28.2637 19.255 28.595 18.9456 28.7194 18.675V19.1775H30.0856ZM41.345 16.0875L40.8894 16.3575C40.4344 16.6281 40.3519 16.9763 40.31 17.3619C40.2687 17.6713 40.2687 17.9413 40.31 18.405C40.3512 18.83 40.6412 18.9069 40.8894 18.83C41.1794 18.7138 41.345 18.2119 41.345 17.6713V16.0875ZM42.1725 14.1563C42.5456 14.35 42.7938 14.6581 42.7938 15.3538V19.1775H41.4275V18.5981C41.2625 19.0231 40.8069 19.2931 40.1856 19.2931C39.6894 19.2931 38.82 19.0619 38.82 17.8644C38.82 16.7438 39.6062 16.5125 40.4762 16.1644C41.2625 15.8556 41.345 15.8169 41.345 15.5081V14.6581C41.345 14.3106 41.1381 14.1563 40.7237 14.1563C40.5588 14.195 40.2687 14.2719 40.2687 14.465C40.2269 14.6969 40.5169 14.6969 40.5588 15.0444C40.6 15.5856 40.1444 15.7781 39.7306 15.74C39.4406 15.74 39.1094 15.5856 39.0681 15.1606C39.0269 14.465 39.8544 13.8856 41.0138 13.8856C41.5519 13.8856 41.8831 14.0019 42.1725 14.1563ZM20.8537 23.31L20.3987 23.5806C19.9431 23.8513 19.8606 24.1988 19.8187 24.585C19.7781 24.8938 19.7781 25.2031 19.8187 25.6275C19.8187 26.0913 20.1087 26.1688 20.3569 26.0525C20.6881 25.9369 20.8537 25.4738 20.8537 24.8938V23.31ZM21.6819 21.3788C22.0544 21.6106 22.2612 21.8813 22.2612 22.5763V26.4388H20.9375V25.8594C20.7719 26.2456 20.3169 26.5156 19.6956 26.5156C19.1575 26.5156 18.3294 26.3231 18.3294 25.1256C18.3294 24.0056 19.1162 23.7738 19.9437 23.4256C20.7719 23.0788 20.8544 23.04 20.8544 22.7694V21.9194C20.8544 21.5338 20.6475 21.3794 20.2337 21.4175C20.0681 21.4175 19.7787 21.495 19.7787 21.6881C19.7369 21.9588 20.0269 21.9588 20.0681 22.3063C20.1094 22.8081 19.6544 23.0013 19.24 23.0013C18.9506 22.9625 18.6194 22.8081 18.5775 22.3831C18.5362 21.7269 19.3644 21.1469 20.5231 21.1469C21.0619 21.1469 21.3925 21.2244 21.6825 21.3794L21.6819 21.3788ZM31.7 22.6925C31.7 21.6113 31.0788 21.07 30.1681 21.1475C29.7131 21.1856 29.34 21.3788 29.1331 21.6494V20.1431H27.725V23.6969C27.725 25.0094 26.7312 26.2456 25.7375 26.2069C25.0344 26.2069 24.8687 25.705 24.7856 25.1644C24.6619 24.3919 24.6619 23.5038 24.7444 22.5375C24.8275 21.92 24.9931 21.4175 25.49 21.4175C25.8625 21.4175 25.9037 21.6494 25.7381 21.8038C25.5725 21.9975 25.3244 22.19 25.4481 22.615C25.5725 23.0788 26.3587 23.1556 26.7319 22.8088C27.0212 22.4994 26.98 21.9969 26.7731 21.6881C26.5244 21.3019 26.1106 21.1475 25.49 21.1475C24.7031 21.1475 23.2131 21.8038 23.2131 23.8894C23.2131 26.13 24.7444 26.5163 25.6137 26.5163C26.6075 26.5163 27.4762 25.705 27.725 25.0481V26.4388H29.1325V22.5375C29.1325 22.1519 29.215 21.92 29.4225 21.7263C29.5881 21.6106 29.795 21.5719 29.9194 21.6106C30.2506 21.6881 30.2506 22.0744 30.2506 22.5375V26.4388H31.6994L31.7 22.6925ZM17.2112 12.8044V15.0063H16.9212C16.6731 13.925 16.135 13.1131 15.39 13.075C14.8931 13.0363 14.6031 13.3063 14.355 13.6925C14.1069 14.1563 13.9825 15.1219 13.9825 16.28C13.9825 17.3619 14.0237 18.1731 14.1481 18.7525C14.2306 19.0231 14.4375 19.4475 14.9756 19.4475C15.2656 19.4475 15.4725 19.3706 15.5969 19.2163C15.8031 18.9844 15.845 18.5206 15.845 18.2119V17.1688C15.845 16.7825 15.7212 16.5513 15.5137 16.435C15.3487 16.3575 15.1 16.3575 14.9762 16.3188V16.0488H17.2937V21.5725H17.0044C16.88 21.1475 16.7975 20.8381 16.59 20.4906C16.3837 20.1431 16.0106 19.7569 15.39 19.7569C14.7275 19.7181 14.2306 20.1044 14.2306 20.6838C14.2306 21.4563 14.7275 21.6494 15.6381 22.1131C16.5075 22.5763 17.6256 22.9631 17.6256 24.3144C17.6256 25.6275 16.4244 26.4394 15.0587 26.4394H12.865V23.7738H13.1544C13.5269 25.7825 14.4375 26.13 15.0587 26.13C15.845 26.13 16.2175 25.6663 16.2175 25.01C16.1762 24.16 15.555 23.8513 14.6862 23.4263C13.4444 22.77 12.865 22.4606 12.865 21.3794C12.9062 20.4519 13.6925 19.8731 14.5619 19.6413C12.7406 19.4475 12.2025 17.9031 12.2437 16.2419C12.2437 14.5813 13.2787 12.8044 15.3069 12.8044H17.2112Z" fill="white"/>
</g>
<defs>
<clipPath id="clip0_1779_9220">
<rect width="40" height="40" fill="white" transform="translate(10 10)"/>
</clipPath>
</defs>
</svg>
