<svg width="60" height="60" viewBox="0 0 60 60" fill="none" xmlns="http://www.w3.org/2000/svg">
<rect width="60" height="60" fill="black"/>
<g clip-path="url(#clip0_1403_9032)">
<path d="M44.5032 13.9018C40.3466 11.3255 34.8733 11.9339 29.9933 14.9861C25.1267 11.9356 19.65 11.3255 15.5001 13.9018C8.93179 17.9852 8.13346 28.5013 13.7168 37.3892C17.8334 43.9446 24.2717 47.7826 30 47.7113C35.7316 47.7826 42.1682 43.9429 46.2848 37.3892C51.8631 28.5013 51.0715 17.9852 44.5032 13.9018ZM16.7367 35.5175C15.585 33.7011 14.7163 31.7218 14.1601 29.6469C13.6652 27.846 13.4759 25.9756 13.6001 24.1128C13.8501 20.8302 15.1934 18.2704 17.3834 16.9093C19.575 15.5465 22.47 15.4669 25.555 16.6821C26.0233 16.8695 26.4817 17.08 26.93 17.3154C25.2156 18.8677 23.7249 20.6479 22.5 22.6058C19.1084 28.0022 18.0751 34.0088 19.2584 38.7951C18.3154 37.7822 17.4706 36.6832 16.7351 35.5125L16.7367 35.5175ZM45.8449 29.6469C45.2873 31.7211 44.418 33.6997 43.2665 35.5158C42.5319 36.6887 41.6876 37.79 40.7449 38.8051C41.8032 34.5128 41.0832 29.2556 38.4899 24.325C38.4491 24.2431 38.3913 24.1708 38.3203 24.1128C38.2493 24.0547 38.1667 24.0124 38.0781 23.9884C37.9894 23.9644 37.8966 23.9594 37.8059 23.9737C37.7151 23.988 37.6285 24.0213 37.5516 24.0714L29.465 29.0981C29.3167 29.1907 29.2114 29.3379 29.172 29.5076C29.1327 29.6772 29.1625 29.8555 29.255 30.0033L30.4416 31.8917C30.4874 31.9652 30.5474 32.0291 30.6181 32.0795C30.6888 32.1298 30.7689 32.1658 30.8537 32.1852C30.9384 32.2046 31.0262 32.2072 31.112 32.1926C31.1978 32.1781 31.2798 32.1468 31.3533 32.1006L36.5949 28.8428C36.7633 29.3501 36.9332 29.8475 37.0616 30.3614C37.5549 32.1619 37.7449 34.032 37.6199 35.8938C37.3699 39.1798 36.0266 41.7379 33.8366 43.1007C32.7062 43.7875 31.4111 44.1597 30.0866 44.1783H29.9183C28.5938 44.1601 27.2986 43.7879 26.1683 43.1007C23.9783 41.7379 22.6334 39.1798 22.385 35.8938C22.2615 34.0316 22.4502 32.162 22.9434 30.3614C24.0798 26.196 26.4281 22.4573 29.6933 19.6149C31.1021 18.3845 32.7067 17.3956 34.4416 16.6888C37.5166 15.4735 40.4182 15.5531 42.6082 16.9159C44.8015 18.2787 46.1449 20.8368 46.3932 24.1194C46.519 25.9795 46.3348 27.8474 45.8449 29.6469Z" fill="white"/>
</g>
<defs>
<clipPath id="clip0_1403_9032">
<rect width="40" height="36" fill="white" transform="translate(10 12)"/>
</clipPath>
</defs>
</svg>
