<svg width="60" height="60" viewBox="0 0 60 60" fill="none" xmlns="http://www.w3.org/2000/svg">
<g clip-path="url(#clip0_168_141)">
<rect width="60" height="60" fill="white"/>
<g clip-path="url(#clip1_168_141)">
<path fill-rule="evenodd" clip-rule="evenodd" d="M30.0155 60C13.4369 60 0.0349121 46.5894 0.0349121 30C0.0349121 13.4106 13.4369 0 30.0155 0C46.5941 0 59.9961 13.4106 59.9961 30C59.9961 46.5894 46.5941 60 30.0155 60ZM29.9883 1.39896C14.1825 1.38342 1.38248 14.1762 1.36307 29.9728C1.34753 45.7578 14.1475 58.5661 29.9378 58.5661C45.7281 58.601 58.5631 45.7889 58.5631 30.0078V29.9922C58.5631 14.2267 45.7786 1.41839 29.9883 1.39896ZM55.4019 38.5492C55.3825 38.5648 55.332 38.5997 55.2466 38.5842C55.1922 38.5648 55.1767 38.5143 55.1767 38.4793C55.8136 36.4041 56.1437 34.2591 56.1786 32.0829C56.1437 28.4339 54.6757 26.1723 52.7572 26.1723C51.5844 26.1723 50.7689 27 50.7689 28.2435C50.7689 30.4741 53.499 30.649 53.499 35.557C53.499 37.5622 53.1029 39.4624 52.4116 41.557C49.3359 51.9443 39.5417 56.7668 29.9883 56.7668C25.5844 56.7668 22.4582 55.8692 21.5068 55.4378C21.4718 55.4029 21.4369 55.3329 21.4718 55.263C21.4912 55.2124 21.5572 55.158 21.5922 55.1775C23.666 55.8497 25.8252 56.1801 27.9844 56.1801C31.631 56.1801 33.8058 54.6917 33.8058 52.8614C33.8058 51.7189 32.9087 50.7863 31.7514 50.7863H31.7165C29.4718 50.7863 29.297 53.6036 24.4776 53.6036C22.4038 53.6036 20.5747 53.2073 18.4155 52.5155C8.10093 49.3523 3.19608 39.6373 3.21161 29.9922C3.21161 27.1049 3.6621 24.2526 4.55918 21.5207C4.61355 21.4702 4.66404 21.4702 4.71452 21.5052C4.78443 21.5207 4.80384 21.5907 4.80384 21.6062C4.16307 23.6813 3.81744 25.8264 3.8019 28.0026C3.8019 31.6516 5.2854 33.8277 7.20384 33.8277C8.29122 33.8472 9.18831 32.9806 9.18831 31.8925V31.842C9.18831 29.6114 6.4621 29.351 6.4621 24.5285C6.4621 22.4534 6.87375 20.6231 7.54948 18.4624C10.7106 8.16062 20.4194 3.31865 29.9883 3.26813C34.4271 3.21373 38.299 4.56218 38.4543 4.6671C38.5048 4.71762 38.5048 4.77202 38.4699 4.82254C38.4543 4.90803 38.3844 4.90803 38.3689 4.90803C38.3339 4.90803 35.7941 3.83938 31.9767 3.83938C28.4 3.83938 26.1708 5.32383 26.1708 7.24352C26.1708 8.33161 27.0369 9.22927 28.1398 9.2487H28.2602C30.4893 9.2487 30.664 6.5013 35.4835 6.5013C37.5572 6.5013 39.4058 6.91321 41.5456 7.58938C51.9456 10.7526 56.6602 20.5531 56.7495 30.0272C56.765 32.8951 56.3145 35.7979 55.4019 38.5492ZM41.1301 31.4262C38.299 31.4262 36.1203 33.4819 36.1203 35.9883C36.1203 38.0479 37.367 39.7228 39.0407 39.7228C39.6116 39.7228 40.1825 39.3769 40.1825 38.6347C40.1825 37.5466 38.7456 37.2863 38.8699 35.6619C38.9203 34.5894 39.9223 33.8977 40.9242 33.8977C42.9126 33.8977 43.8602 35.8329 43.8602 37.8225C43.7747 40.8808 41.5106 43.0259 38.8699 43.0259C35.3631 43.0259 33.1495 39.6878 33.1495 36.1282C33.1495 30.82 36.6213 28.7293 38.4543 28.2435C38.4699 28.2435 43.2388 29.0907 43.0835 26.9845C43.033 26.0674 41.6504 25.706 40.6485 25.6516C39.9068 25.6516 39.1611 25.772 38.4349 26.0168C37.833 25.6865 37.4174 25.1503 37.1922 24.478C40.6136 21.9016 42.998 19.4106 42.998 16.5933C42.998 15.1088 41.9961 13.7759 40.0932 13.7759C36.6912 13.7759 34.1165 18.1166 34.1165 22.0065C34.1009 22.6438 34.1514 23.285 34.2912 23.9223C32.132 25.5155 30.5436 26.4832 27.6233 28.2435C27.6582 27.3808 27.7592 26.5531 27.9339 25.7215C28.9359 24.6334 30.299 23.044 30.299 21.7811C30.299 21.1943 29.9534 20.693 29.297 20.693C27.6388 20.693 26.3961 23.1801 26.0504 24.9249C25.3087 25.842 23.8213 27 22.5592 27C21.5572 27 21.231 26.0829 21.1456 25.772C24.3068 24.6839 28.2097 20.3627 28.2097 16.4573C28.2097 15.6256 27.864 13.7953 25.3941 13.7953C21.6621 13.7953 18.5009 19.3601 18.5009 23.7008C17.1728 23.7008 16.6718 22.2824 16.6718 21.1943C16.6718 20.1218 17.0679 19.0492 17.0679 18.7034C17.0679 18.3575 16.8932 17.9611 16.4116 17.9611C15.1689 17.9611 14.4233 19.6205 14.4233 21.5402C14.5126 24.2021 16.2563 25.8769 18.5864 26.0168C18.932 27.6062 20.3339 29.0907 22.0932 29.0907C23.1844 29.0907 24.497 28.7448 25.4097 27.9171C25.3242 28.4883 25.2388 29.0052 25.1534 29.4909C21.5068 31.4262 18.8466 32.7396 16.4271 34.9003C14.5281 36.6451 13.4407 38.9611 13.4407 40.8109C13.4407 43.3018 15.0291 45.6179 18.2602 45.6179C22.0932 45.6179 24.998 42.5596 26.3961 38.3044C27.0524 36.2992 27.3281 33.3964 27.4835 30.75C30.1087 29.3005 32.6679 27.6917 35.1029 25.9275C35.3281 26.3277 35.6038 26.6541 35.9301 26.9301C34.1864 27.8472 30.0427 30.4391 30.0427 36.4896C30.0427 40.8303 32.9436 45.6529 38.6951 45.6529C43.4291 45.6529 46.6757 41.7474 46.6757 38.013C46.6951 34.5544 44.7767 31.3912 41.1301 31.4262ZM21.0252 23.4404C21.0252 20.693 23.7359 15.4896 25.3786 16.0415C27.3281 16.6826 23.7514 21.9171 21.0252 23.4404ZM18.2602 43.0415C17.033 43.1114 16.2019 42.2992 16.2019 40.9663C16.2019 37.3912 21.1456 34.0026 24.8776 32.1684C24.2174 37.1658 22.5281 42.851 18.2602 43.0415ZM36.7262 22.1775C36.7262 18.7733 39.0407 15.4547 40.2835 16.0764C41.7204 16.8031 39.1961 20.0363 36.7262 22.1775Z" fill="#005E60"/>
</g>
</g>
<defs>
<clipPath id="clip0_168_141">
<rect width="60" height="60" fill="white"/>
</clipPath>
<clipPath id="clip1_168_141">
<rect width="60" height="60" fill="white"/>
</clipPath>
</defs>
</svg>
