<svg width="60" height="60" viewBox="0 0 60 60" fill="none" xmlns="http://www.w3.org/2000/svg">
<rect width="60" height="60" fill="white"/>
<g clip-path="url(#clip0_168_586)">
<path fill-rule="evenodd" clip-rule="evenodd" d="M19.6402 12.2427L9.26794 30.1947L9.51166 30.3155L19.5463 30.3508L27.7025 16.2354L19.6402 12.2427Z" fill="#020202"/>
<path fill-rule="evenodd" clip-rule="evenodd" d="M36.6292 12.2712L31.6888 14.8738L39.3539 27.1111H49.7516L40.4545 12.2712H36.6292Z" fill="#0142BB"/>
<path fill-rule="evenodd" clip-rule="evenodd" d="M19.4715 30.1354L29.8437 48.0874L29.6 48.2082L19.5654 48.2435L11.4092 34.1281L19.4715 30.1354Z" fill="#020202"/>
<path fill-rule="evenodd" clip-rule="evenodd" d="M27.6511 16.2554L29.9527 12.2573H19.6063L27.6511 16.2554Z" fill="#020202"/>
<path fill-rule="evenodd" clip-rule="evenodd" d="M11.4804 34.2091L9.20605 30.2721H19.4301L11.4804 34.2091Z" fill="#020202"/>
<path fill-rule="evenodd" clip-rule="evenodd" d="M32.0904 15.5226L30.0066 12.2573H39.3741L32.0904 15.5226Z" fill="#0142BB"/>
<path fill-rule="evenodd" clip-rule="evenodd" d="M43.1762 32.1212L48.0998 34.9487L40.4607 48.2434H30.0983L39.3638 32.1212H43.1762Z" fill="#0142BB"/>
<path d="M47.8257 30.3007H33.9346V35.3477H47.8257V30.3007Z" fill="#0142BB"/>
<path d="M50.839 30.3004H47.6927V35.6509L50.839 30.3004Z" fill="#0142BB"/>
<path d="M20.2752 12.3601L19.7008 13.9453L26.827 17.1423L27.4014 15.5571L20.2752 12.3601Z" fill="#020202"/>
<path d="M10.0011 29.6867L10.3638 31.3425L19.2486 30.46L18.8859 28.8042L10.0011 29.6867Z" fill="#020202"/>
<path d="M30.4246 15.8366L28.5209 14.7711L26.213 18.8799L28.1167 19.9454L30.4246 15.8366Z" fill="white"/>
<path d="M11.3105 27.1605L9.21887 30.2967L13.4435 30.8528L11.3105 27.1605Z" fill="#020202"/>
<path d="M10.7129 32.7463L11.4659 34.25L19.4877 31.0812L18.7346 29.5775L10.7129 32.7463Z" fill="#020202"/>
</g>
<defs>
<clipPath id="clip0_168_586">
<rect width="42" height="37" fill="white" transform="translate(9 12)"/>
</clipPath>
</defs>
</svg>
