<svg width="60" height="60" viewBox="0 0 60 60" fill="none" xmlns="http://www.w3.org/2000/svg">
<rect width="60" height="60" fill="black"/>
<g clip-path="url(#clip0_1403_8894)">
<path d="M49.6271 26.8185C48.9465 23.1128 47.1559 19.7725 44.5997 17.1283C44.5957 17.175 44.5876 17.2255 44.5835 17.2722C44.4093 19.2087 44.8225 21.0635 45.8191 22.7861C46.763 24.4232 48.1363 25.7803 49.6271 26.8185ZM39.8317 42.7576C41.3913 41.2372 42.5054 39.8373 43.1414 38.593C43.7693 37.3642 43.9111 36.3454 43.5748 35.49C43.4128 35.0778 43.0036 34.5762 42.4284 34.0862C41.7681 33.5263 40.9011 32.978 39.9127 32.5036C38.8959 32.0136 37.7697 31.6092 36.6557 31.3331C35.489 31.0415 34.3749 30.8976 33.3419 30.8976C32.2603 30.8976 31.3286 31.0609 30.5832 31.3798C30.2469 31.5237 29.8945 31.5937 29.5259 31.5937C28.8777 31.5937 28.2579 31.3642 27.7799 30.9443L25.3817 28.8522C25.0454 28.5606 24.8105 28.1834 24.7011 27.7635C24.5998 27.3746 24.612 26.9663 24.7335 26.5813C24.855 26.1964 25.0859 25.8542 25.3938 25.5859C25.73 25.2981 26.1432 25.1115 26.5929 25.0493C26.6739 25.0376 26.759 25.0259 26.8441 25.0143C28.0634 24.8509 29.3233 24.6798 30.5791 23.7466C32.1752 22.5606 33.4878 20.3091 34.4803 17.0544C34.9664 15.4524 35.2743 13.5159 35.493 11.7466C33.7349 11.2605 31.8836 11 29.9634 11C24.5309 11 19.6089 13.0843 16.0076 16.4634C16.5545 16.685 17.0446 17 17.4619 17.4083C18.0209 17.9566 18.6083 18.9326 18.2113 20.4686C18.025 21.1957 17.6644 21.9034 17.2796 22.65C16.4613 24.2521 15.963 25.3681 16.4694 26.2703C16.7813 26.7991 17.7455 27.989 20.7189 30.0732C22.6432 31.4226 24.5998 32.5775 25.5923 33.1491C26.0946 33.4368 26.4835 33.8646 26.7104 34.3856C26.9372 34.9067 26.9859 35.4705 26.8441 36.0227C26.6334 36.8432 26.4714 37.6986 26.678 38.3714C26.759 38.6319 27.0021 39.4329 28.8574 40.0629C29.5259 40.2923 30.0565 40.7823 30.3158 41.4161C30.5751 42.046 30.5386 42.7576 30.2105 43.3603C29.6271 44.4414 28.4118 46.6773 27.0304 49.1309C27.9865 49.267 28.9628 49.337 29.9593 49.337C30.486 49.337 31.0085 49.3176 31.523 49.2787C33.8888 47.6572 37.2269 45.2929 39.8317 42.7576Z" fill="#319B42"/>
<path d="M28.2296 41.7661C24.0611 40.3429 24.5148 37.547 25.0172 35.5872C25.1063 35.245 24.9483 34.8834 24.6323 34.7045C22.7405 33.6196 16.4087 29.8594 14.8248 27.1491C12.9532 23.871 17.7334 20.2586 16.1171 18.6799C15.7039 18.2754 15.1813 18.0382 14.5898 17.9488C11.7217 21.2618 10 25.5198 10 30.1627C10 39.1335 16.4249 46.6656 25.0982 48.7537C26.6092 46.0823 27.9582 43.5976 28.5416 42.5204C28.6955 42.2327 28.5497 41.8749 28.2296 41.7661ZM49.9027 29.1594C47.4477 27.7712 45.4101 25.827 44.1664 23.6688C42.9875 21.6235 42.4933 19.4187 42.704 17.1167C42.7485 16.615 42.8296 16.1095 42.943 15.6001C41.2821 14.2353 39.3862 13.127 37.3202 12.3416C37.0933 14.0797 36.7814 15.9501 36.2912 17.56C33.6702 26.1653 29.4774 26.4764 26.8604 26.838C26.5242 26.8847 26.3945 27.2852 26.6457 27.5029L29.0439 29.595C29.1776 29.7116 29.3477 29.7738 29.5219 29.7738C29.6191 29.7738 29.7164 29.7544 29.8095 29.7155C30.8426 29.2722 32.0538 29.0778 33.338 29.0778C38.2519 29.0778 44.2069 31.9553 45.3412 34.8522C47.0669 39.258 40.9377 44.7136 35.8132 48.4932C43.9881 46.094 49.931 38.7952 49.931 30.1627C49.931 29.8283 49.9229 29.49 49.9027 29.1594Z" fill="#00558C"/>
<path d="M49.6272 26.8185C49.769 27.5845 49.8622 28.3623 49.9027 29.1555C47.4478 27.7673 45.4101 25.823 44.1665 23.6649C42.9876 21.6195 42.4934 19.4147 42.704 17.1127C42.7486 16.6111 42.8296 16.1056 42.943 15.5962C43.5264 16.0745 44.0814 16.5839 44.5999 17.1244C44.5959 17.1711 44.5878 17.2216 44.5837 17.2683C44.4095 19.2048 44.8227 21.0596 45.8193 22.7822C46.7632 24.4232 48.1365 25.7803 49.6272 26.8185ZM30.2188 43.3564C30.5428 42.7537 30.5833 42.046 30.3241 41.4122C30.0648 40.7783 29.5341 40.2884 28.8657 40.059C27.0103 39.4251 26.7673 38.628 26.6863 38.3674C26.4797 37.6947 26.6457 36.8392 26.8523 36.0188C26.9941 35.4705 26.9455 34.9028 26.7187 34.3817C26.4918 33.8606 26.1029 33.4368 25.6006 33.1451C24.6081 32.5774 22.6514 31.4225 20.7272 30.0693C17.7537 27.9851 16.7855 26.7913 16.4777 26.2663C15.9713 25.3642 16.4696 24.2482 17.2879 22.6461C17.6687 21.8995 18.0333 21.1918 18.2196 20.4646C18.6126 18.9287 18.0292 17.9527 17.4702 17.4044C17.0529 16.9961 16.5627 16.6811 16.0158 16.4595C15.5176 16.93 15.0395 17.4238 14.5939 17.941C15.1894 18.0343 15.708 18.2676 16.1212 18.672C17.7375 20.2508 12.9573 23.8632 14.8289 27.1413C16.4128 29.8554 22.7446 33.6157 24.6364 34.6967C24.9524 34.8794 25.1104 35.2372 25.0213 35.5794C24.523 37.5431 24.0652 40.335 28.2338 41.7582C28.5538 41.8671 28.6996 42.221 28.5457 42.5126C27.9623 43.5897 26.6133 46.0745 25.1023 48.7459C25.7383 48.8976 26.3824 49.022 27.0427 49.1153C28.4201 46.6694 29.6314 44.4374 30.2188 43.3564ZM45.3413 34.8522C44.207 31.9553 38.2519 29.0777 33.338 29.0777C32.0579 29.0777 30.8467 29.2722 29.8096 29.7155C29.7164 29.7543 29.6192 29.7738 29.522 29.7738C29.3478 29.7738 29.1776 29.7116 29.044 29.5949L26.6457 27.5029C26.3946 27.2851 26.5242 26.8807 26.8605 26.8379C29.4774 26.4763 33.6702 26.1652 36.2913 17.5599C36.7814 15.9501 37.0934 14.0797 37.3202 12.3415C36.7247 12.116 36.1171 11.9138 35.4932 11.7427C35.2744 13.512 34.9666 15.4484 34.4804 17.0505C33.492 20.3052 32.1795 22.5567 30.5793 23.7427C29.3235 24.672 28.0636 24.8431 26.8442 25.0103C26.7592 25.022 26.6782 25.0337 26.5931 25.0453C26.1434 25.1076 25.7302 25.2942 25.394 25.582C25.0821 25.8503 24.8552 26.1925 24.7337 26.5774C24.6121 26.9624 24.6 27.3707 24.7013 27.7595C24.8106 28.1795 25.0456 28.5567 25.3818 28.8483L27.78 30.9403C28.2581 31.3603 28.8779 31.5897 29.526 31.5897C29.8906 31.5897 30.2471 31.5159 30.5833 31.3759C31.3328 31.057 32.2605 30.8937 33.3421 30.8937C34.3751 30.8937 35.4932 31.0415 36.6558 31.3292C37.7699 31.6053 38.8961 32.0097 39.9129 32.4997C40.8973 32.9741 41.7682 33.5223 42.4286 34.0823C43.0079 34.5761 43.417 35.0739 43.575 35.486C43.9112 36.3454 43.7695 37.3603 43.1415 38.5891C42.5096 39.8334 41.3955 41.2333 39.8319 42.7537C37.227 45.2929 33.889 47.6533 31.5272 49.267C33.0059 49.1581 34.4399 48.8937 35.8092 48.4893C40.9378 44.7135 47.067 39.2579 45.3413 34.8522Z" fill="white"/>
</g>
<defs>
<clipPath id="clip0_1403_8894">
<rect width="40" height="39" fill="white" transform="translate(10 11)"/>
</clipPath>
</defs>
</svg>
