<svg width="60" height="60" viewBox="0 0 60 60" fill="none" xmlns="http://www.w3.org/2000/svg">
<rect width="60" height="60" fill="black"/>
<g clip-path="url(#clip0_150_814)">
<path d="M13.7704 28.7885H11.7169V28.1917C11.7169 27.8155 11.6974 27.58 11.6584 27.4853C11.6193 27.3906 11.5267 27.3432 11.3803 27.3432C11.2535 27.3432 11.1673 27.3838 11.1218 27.465C11.0763 27.5462 11.0535 27.7546 11.0535 28.0902V31.2448C11.0535 31.5398 11.0763 31.734 11.1218 31.8274C11.1673 31.9208 11.2584 31.9675 11.395 31.9675C11.5445 31.9675 11.6462 31.9147 11.6998 31.8091C11.7535 31.7036 11.7803 31.4979 11.7803 31.192V30.4125H11.3657V29.4138H13.7704V32.9418H12.4778L12.2876 32.4709C12.1478 32.6739 11.9713 32.8261 11.7584 32.9276C11.5454 33.0291 11.2942 33.0799 11.0047 33.0799C10.6601 33.0799 10.3373 33.0102 10.0365 32.8708C9.73572 32.7314 9.50728 32.5589 9.3512 32.3532C9.19511 32.1475 9.09755 31.9316 9.05853 31.7056C9.01951 31.4796 9 31.1406 9 30.6886V28.7358C9 28.1078 9.04065 27.6518 9.12194 27.3676C9.20324 27.0834 9.43656 26.8229 9.8219 26.586C10.2072 26.3492 10.7056 26.2308 11.3169 26.2308C11.9185 26.2308 12.4177 26.3336 12.8144 26.5393C13.2111 26.745 13.4696 26.9893 13.5899 27.2721C13.7103 27.555 13.7704 27.9657 13.7704 28.5043V28.7885ZM16.1019 29.6411H14.2532V29.2798C14.2532 28.863 14.3109 28.5416 14.4264 28.3155C14.5418 28.0896 14.7735 27.8899 15.1215 27.7167C15.4694 27.5435 15.9214 27.4569 16.4775 27.4569C17.1441 27.4569 17.7318 27.555 18.07 27.7512C18.4082 27.9475 18.6115 28.1883 18.6797 28.4739C18.748 28.7594 18.7822 29.3475 18.7822 30.2379V32.9418H16.7799V32.4628C16.6596 32.6549 16.5043 32.7991 16.3141 32.8952C16.1238 32.9912 15.897 33.0393 15.6336 33.0393C15.2889 33.0393 14.9727 32.9588 14.6849 32.7977C14.3971 32.6367 14.2532 32.2841 14.2532 31.7401V31.2976C14.2532 30.8943 14.3296 30.6196 14.4825 30.4734C14.6353 30.3272 15.0141 30.1567 15.619 29.9619C16.2661 29.7507 16.6124 29.6086 16.6579 29.5356C16.7035 29.4625 16.7262 29.3136 16.7262 29.089C16.7262 28.8075 16.701 28.6241 16.6506 28.5388C16.6002 28.4536 16.5165 28.411 16.3994 28.411C16.2661 28.411 16.1832 28.4468 16.1507 28.5185C16.1181 28.5903 16.1019 28.7764 16.1019 29.0768V29.6411ZM16.7262 30.38C16.4108 30.5722 16.2279 30.7332 16.1775 30.8632C16.1271 30.9931 16.1019 31.1798 16.1019 31.4234C16.1019 31.7022 16.1238 31.8822 16.1677 31.9634C16.2116 32.0446 16.2986 32.0852 16.4287 32.0852C16.5522 32.0852 16.6327 32.0534 16.6701 31.9898C16.7075 31.9262 16.7262 31.7591 16.7262 31.4884V30.38ZM21.321 27.5543L21.2869 28.0659C21.4397 27.8629 21.6218 27.7106 21.8332 27.6091C22.0446 27.5076 22.2852 27.4569 22.5551 27.4569C23.0819 27.4569 23.4965 27.6599 23.7989 28.0659C23.9648 27.8629 24.1517 27.7106 24.3599 27.6091C24.568 27.5076 24.7989 27.4569 25.0525 27.4569C25.3874 27.4569 25.6646 27.5245 25.8841 27.6599C26.1036 27.7952 26.2443 27.961 26.3061 28.1572C26.3678 28.3534 26.3987 28.6722 26.3987 29.1133V32.9418H24.4867V29.43C24.4867 28.9699 24.468 28.685 24.4306 28.5754C24.3932 28.4658 24.3062 28.411 24.1696 28.411C24.0298 28.411 23.9396 28.4651 23.8989 28.5734C23.8583 28.6816 23.8379 28.9672 23.8379 29.43V32.9418H21.9259V29.5193C21.9259 28.9915 21.9104 28.6749 21.8795 28.5693C21.8486 28.4637 21.7633 28.411 21.6235 28.411C21.5357 28.411 21.4609 28.4387 21.3991 28.4942C21.3373 28.5497 21.3032 28.6173 21.2967 28.6972C21.2901 28.777 21.2869 28.9469 21.2869 29.2067V32.9418H19.3108V27.5543H21.321ZM31.5447 30.3435H28.9937V31.5087C28.9937 31.7523 29.0148 31.9093 29.0571 31.9796C29.0994 32.05 29.1807 32.0852 29.301 32.0852C29.4506 32.0852 29.5506 32.0385 29.601 31.9451C29.6514 31.8518 29.6766 31.6711 29.6766 31.4031V30.6926H31.5447V31.0905C31.5447 31.4234 31.5195 31.6792 31.4691 31.8578C31.4187 32.0365 31.3009 32.2273 31.1155 32.4303C30.9301 32.6333 30.6952 32.7855 30.4107 32.887C30.1261 32.9885 29.7693 33.0393 29.34 33.0393C28.9238 33.0393 28.5563 32.9892 28.2376 32.8891C27.919 32.7889 27.671 32.6516 27.4938 32.477C27.3166 32.3024 27.1938 32.1102 27.1255 31.9005C27.0572 31.6907 27.0231 31.3855 27.0231 30.985V29.4138C27.0231 28.9428 27.0995 28.5713 27.2523 28.2993C27.4052 28.0273 27.6556 27.8189 28.0035 27.6741C28.3515 27.5293 28.7514 27.4569 29.2034 27.4569C29.7562 27.4569 30.2123 27.5442 30.5716 27.7187C30.931 27.8933 31.183 28.1247 31.3277 28.413C31.4724 28.7012 31.5447 29.1066 31.5447 29.6289V30.3435ZM29.5693 29.4665V29.0727C29.5693 28.794 29.5514 28.614 29.5156 28.5328C29.4798 28.4516 29.4067 28.411 29.2961 28.411C29.1595 28.411 29.075 28.4455 29.0425 28.5145C29.01 28.5835 28.9937 28.7696 28.9937 29.0727V29.4665H29.5693Z" fill="white"/>
<path d="M36.6029 28.2073H34.6957V27.7201C34.6957 27.4928 34.6714 27.348 34.6226 27.2857C34.5738 27.2235 34.4925 27.1924 34.3787 27.1924C34.2551 27.1924 34.1616 27.2343 34.0982 27.3182C34.0348 27.4021 34.0031 27.5293 34.0031 27.6998C34.0031 27.9191 34.0389 28.0842 34.1104 28.1952C34.1787 28.3061 34.3722 28.4401 34.6909 28.5971C35.6046 29.0491 36.1802 29.4199 36.4176 29.7095C36.655 29.9991 36.7737 30.466 36.7737 31.1102C36.7737 31.5784 36.7078 31.9235 36.5761 32.1455C36.4444 32.3674 36.19 32.5535 35.8127 32.7037C35.4355 32.8539 34.9965 32.929 34.4958 32.929C33.9462 32.929 33.4771 32.8424 33.0885 32.6692C32.6999 32.496 32.4455 32.2754 32.3252 32.0074C32.2049 31.7395 32.1447 31.3592 32.1447 30.8666V30.4362H34.0519V31.2361C34.0519 31.4824 34.0787 31.6407 34.1324 31.7111C34.186 31.7814 34.2811 31.8166 34.4177 31.8166C34.5543 31.8166 34.6559 31.772 34.7226 31.6826C34.7892 31.5933 34.8226 31.4607 34.8226 31.2848C34.8226 30.8977 34.7592 30.6447 34.6323 30.5256C34.5023 30.4065 34.182 30.2075 33.6714 29.9288C33.1609 29.6473 32.7587 29.4429 32.5928 29.3157C32.427 29.1885 32.2896 29.0126 32.1807 28.7879C32.0717 28.5633 32.0173 28.2764 32.0173 27.9272C32.0173 27.4238 32.0945 26.9757 32.249 26.743C32.4034 26.5102 32.653 26.3282 32.9977 26.1969C33.3424 26.0656 33.8226 26 34.3104 26C34.8437 26 35.2981 26.0717 35.6737 26.2152C36.0493 26.3586 36.2981 26.5393 36.42 26.7572C36.542 26.9751 36.6029 27.4251 36.6029 27.9475V28.2073ZM39.5271 26.6849V27.3336H40.0801V28.1861H39.5271V31.2685C39.5271 31.6231 39.5491 31.8207 39.593 31.8613C39.6369 31.9019 39.7344 31.9222 40.0564 31.9222V32.791H39.2613C38.8125 32.791 38.4922 32.7754 38.3004 32.7443C38.1085 32.7132 37.9394 32.6415 37.7931 32.5291C37.6468 32.4168 37.5557 32.2883 37.5199 32.1434C37.4842 31.9986 37.4663 31.6583 37.4663 31.1224V28.1861H37.0419V27.3336H37.4663V26.6849H39.5271ZM45.0152 29.2954V30.6149C45.0152 31.0994 44.9859 31.4546 44.9274 31.6806C44.8688 31.9066 44.7436 32.1177 44.5518 32.314C44.3599 32.5102 44.1136 32.655 43.8128 32.7484C43.512 32.8418 43.1665 32.8884 42.7763 32.8884C42.3406 32.8884 41.9715 32.8485 41.6691 32.7687C41.3666 32.6888 41.1317 32.5684 40.9642 32.4073C40.7968 32.2463 40.6773 32.0514 40.6057 31.8227C40.5342 31.594 40.4984 31.2509 40.4984 30.7935V29.4131C40.4984 28.9124 40.5634 28.5213 40.6935 28.2398C40.8236 27.9583 41.0577 27.7323 41.3959 27.5618C41.7341 27.3913 42.1666 27.306 42.6934 27.306C43.1356 27.306 43.5153 27.3609 43.8323 27.4705C44.1494 27.5801 44.3941 27.7229 44.5664 27.8988C44.7388 28.0747 44.8566 28.2561 44.9201 28.4428C44.9835 28.6296 45.0152 28.9138 45.0152 29.2954ZM43.0446 28.8894C43.0446 28.6133 43.0267 28.4394 42.9909 28.3677C42.9551 28.296 42.8787 28.2601 42.7617 28.2601C42.6446 28.2601 42.5666 28.296 42.5275 28.3677C42.4885 28.4394 42.469 28.6133 42.469 28.8894V31.3213C42.469 31.5757 42.4885 31.7415 42.5275 31.8187C42.5666 31.8958 42.643 31.9344 42.7568 31.9344C42.8738 31.9344 42.9511 31.8992 42.9885 31.8288C43.0259 31.7584 43.0446 31.6069 43.0446 31.3741V28.8894ZM47.5668 27.4035L47.5327 27.8785C47.7083 27.6863 47.9018 27.5429 48.1131 27.4481C48.3245 27.3534 48.5554 27.306 48.8058 27.306C49.9751 27.2663 50.3831 27.8659 50.3971 28.8935V31.163C50.3971 31.6529 50.3622 32.0014 50.2922 32.2084C49.9049 32.9309 48.8458 33.0454 48.1034 32.7463C47.8953 32.6516 47.705 32.5109 47.5327 32.3241V33.5583H45.5621V27.4035H47.5668ZM48.1278 28.9706C48.1278 28.6377 48.1131 28.4361 48.0839 28.3657C48.0546 28.2953 47.9733 28.2601 47.84 28.2601C47.7099 28.2601 47.6262 28.3007 47.5888 28.3819C47.5514 28.4631 47.5327 28.6594 47.5327 28.9706V31.2036C47.5327 31.5284 47.5522 31.7314 47.5912 31.8126C47.6302 31.8938 47.7148 31.9344 47.8449 31.9344C47.9717 31.9344 48.0505 31.8971 48.0814 31.8227C48.1123 31.7483 48.1278 31.5676 48.1278 31.2807V28.9706Z" fill="#FD0000"/>
</g>
<defs>
<clipPath id="clip0_150_814">
<rect width="42" height="8" fill="white" transform="translate(9 26)"/>
</clipPath>
</defs>
</svg>
