<svg width="60" height="60" viewBox="0 0 60 60" fill="none" xmlns="http://www.w3.org/2000/svg">
<rect width="60" height="60" fill="#091F62"/>
<g clip-path="url(#clip0_1685_8711)">
<path d="M10 17H50V29.9085C49.1188 29.3944 48.28 28.805 47.4147 28.2613C41.6178 24.5093 35.8315 20.7412 30.0265 17C23.3616 21.2983 16.718 25.629 10.0557 29.93C10.2734 30.1023 10.5123 30.2449 10.7432 30.3957C16.5543 34.162 22.3663 37.9274 28.1792 41.6919C28.8003 42.0795 29.4001 42.5155 30.0372 42.8735C36.3437 38.812 42.6291 34.7182 48.9277 30.6433C49.286 30.4091 49.6496 30.1857 50 29.9381V43H10V17Z" fill="#091F62"/>
<path fill-rule="evenodd" clip-rule="evenodd" d="M14.645 30.07C19.7519 26.7621 24.856 23.4542 29.9629 20.1464C34.753 23.2524 39.5439 26.3566 44.3358 29.459C44.6463 29.6716 44.9808 29.8547 45.2754 30.0888C40.1606 33.3752 35.0671 36.7019 29.9602 39.999C24.856 36.6884 19.7465 33.3859 14.645 30.07ZM26.8388 23.6157C25.7638 24.0302 24.8056 24.7785 24.1818 25.7663C23.4519 26.9075 23.1387 28.2909 23.1759 29.642C23.1281 31.195 23.5528 32.8019 24.5349 34.0184C25.4267 35.13 26.7645 35.811 28.1447 36.0478C29.3497 36.2793 30.576 36.1474 31.7917 36.0909C33.0976 35.9617 34.3822 35.6845 35.6802 35.5014C35.6935 33.2621 35.6828 31.0228 35.6855 28.7834C33.6974 28.7807 31.7094 28.7861 29.7213 28.7807C29.7054 29.5963 29.7187 30.4118 29.7134 31.23C30.5574 31.23 31.3988 31.23 32.2402 31.23C32.2402 32.0025 32.2429 32.7723 32.2402 33.5447C31.874 33.5851 31.5156 33.6739 31.1467 33.6981C30.0744 33.8219 28.8852 33.6793 28.0306 32.9472C27.2316 32.2797 26.8759 31.2139 26.7937 30.1965C26.7538 29.389 26.7884 28.5654 27.0405 27.793C27.2927 26.9801 27.8102 26.2077 28.588 25.8416C29.4108 25.4621 30.3902 25.454 31.2237 25.8039C31.7598 26.0246 32.0889 26.5737 32.1633 27.1389C33.3099 27.1389 34.4566 27.1362 35.6006 27.1389C35.6006 26.9048 35.5714 26.6679 35.5501 26.4337C35.4413 25.4406 34.8972 24.5012 34.0505 23.9737C32.925 23.2712 31.5661 23.1447 30.2761 23.1124C29.1135 23.0855 27.927 23.177 26.8388 23.6157Z" fill="#091F62"/>
<path fill-rule="evenodd" clip-rule="evenodd" d="M10.0557 29.93C16.7179 25.629 23.3616 21.2983 30.0265 17C35.8314 20.7412 41.6177 24.5093 47.4147 28.2613C48.2799 28.805 49.1187 29.3944 49.9999 29.9085V29.9381C49.6496 30.1857 49.2859 30.4091 48.9276 30.6433C42.629 34.7182 36.3437 38.812 30.0371 42.8735C29.4001 42.5155 28.8002 42.0795 28.1791 41.6919C22.3662 37.9274 16.5542 34.162 10.7431 30.3957C10.5122 30.2449 10.2733 30.1023 10.0557 29.93ZM14.6449 30.07C19.7464 33.3859 24.8559 36.6884 29.9601 39.999C35.0669 36.7019 40.1605 33.3752 45.2753 30.0888C44.9807 29.8547 44.6462 29.6716 44.3357 29.459C39.5438 26.3566 34.7529 23.2524 29.9628 20.1464C24.8559 23.4542 19.7517 26.7621 14.6449 30.07Z" fill="white"/>
<path d="M26.8389 23.6157C27.9271 23.177 29.1136 23.0855 30.2762 23.1124C31.5662 23.1447 32.9251 23.2712 34.0506 23.9737C34.8973 24.5012 35.4414 25.4406 35.5502 26.4337C35.5715 26.6679 35.6007 26.9048 35.6007 27.1389C34.4567 27.1362 33.31 27.1389 32.1634 27.1389C32.089 26.5737 31.7599 26.0246 31.2238 25.8039C30.3903 25.454 29.4109 25.4621 28.5881 25.8416C27.8103 26.2077 27.2928 26.9801 27.0406 27.793C26.7885 28.5654 26.7539 29.389 26.7938 30.1965C26.876 31.2139 27.2317 32.2797 28.0307 32.9472C28.8853 33.6793 30.0745 33.8219 31.1468 33.6981C31.5157 33.6739 31.8741 33.5851 32.2403 33.5447C32.243 32.7723 32.2403 32.0025 32.2403 31.23C31.3989 31.23 30.5575 31.23 29.7135 31.23C29.7188 30.4118 29.7055 29.5963 29.7214 28.7807C31.7095 28.7861 33.6975 28.7807 35.6856 28.7834C35.6829 31.0228 35.6936 33.2621 35.6803 35.5014C34.3823 35.6845 33.0977 35.9617 31.7918 36.0909C30.5761 36.1474 29.3498 36.2793 28.1448 36.0478C26.7646 35.811 25.4268 35.13 24.535 34.0184C23.5529 32.8019 23.1282 31.195 23.176 29.642C23.1388 28.2909 23.452 26.9075 24.1819 25.7663C24.8057 24.7785 25.7639 24.0302 26.8389 23.6157Z" fill="white"/>
</g>
<defs>
<clipPath id="clip0_1685_8711">
<rect width="40" height="26" fill="white" transform="translate(10 17)"/>
</clipPath>
</defs>
</svg>
