<svg width="60" height="60" viewBox="0 0 60 60" fill="none" xmlns="http://www.w3.org/2000/svg">
<rect width="60" height="60" fill="#005581"/>
<g clip-path="url(#clip0_150_864)">
<path d="M49.225 34C49.5984 33.8368 50.5725 33.2365 51 33.1024C50.5725 33.1024 50.7835 33.1082 50.356 33.1082C36.5671 33.1898 22.7835 33.3181 9 33.557C22.4101 33.796 35.8148 33.9184 49.225 34Z" fill="#A39161"/>
<path d="M45.3015 27.1282H46.465V29.3605H46.5192L49.225 27.1282H50.7944L47.7368 29.5645L51 32.3972H49.3657L46.53 29.8093H46.465V32.3972H45.3015V27.1282ZM42.9529 28.3639C42.4712 27.9559 42.0275 27.8451 41.5783 27.8451C40.2308 27.8451 39.3379 28.6786 39.3379 29.7277C39.3379 30.8526 40.2308 31.6861 41.5783 31.6861C42.1032 31.6861 42.6119 31.4938 43.0449 31.045L44.0027 31.5987C43.4129 32.2515 42.5253 32.5371 41.5675 32.5371C39.5543 32.5371 38.1148 31.4355 38.1148 29.7918C38.1148 28.1016 39.5543 27 41.5675 27C42.455 27 43.2126 27.2331 43.8566 27.8335L42.9529 28.3639ZM35.3441 27.1282H36.5076V32.3972H35.3441V27.1282ZM29.034 27.1282H31.3069C32.5625 27.1282 33.7422 27.4546 33.7422 28.6378C33.7422 29.3955 33.1956 29.955 32.2269 30.0658L33.9641 32.3972H32.5625L31.0472 30.1649H30.1976V32.3972H29.034V27.1282ZM31.1013 29.3605C31.7561 29.3605 32.5246 29.3139 32.5246 28.632C32.5246 28.0083 31.8048 27.9326 31.2041 27.9326H30.1976V29.3605H31.1013ZM22.6916 27.1282H24.9645C26.22 27.1282 27.3997 27.4546 27.3997 28.6378C27.3997 29.3955 26.8531 29.955 25.8845 30.0658L27.6216 32.3972H26.22L24.7047 30.1649H23.8551V32.3972H22.6916V27.1282ZM24.7588 29.3605C25.4136 29.3605 26.1821 29.3139 26.1821 28.632C26.1821 28.0083 25.4623 27.9326 24.8616 27.9326H23.8551V29.3605H24.7588ZM17.6154 27.1282H18.622L21.4361 32.3972H20.1048L19.4933 31.1907H16.6575L16.0731 32.3972H14.7743L17.6154 27.1282ZM19.0928 30.3863L18.0862 28.2415L17.0634 30.3863H19.0928ZM9.00543 27.1282H11.5489C12.5339 27.1282 13.5512 27.4954 13.5512 28.4513C13.5512 29.0458 13.0912 29.4421 12.4148 29.6053V29.6228C13.2374 29.6986 13.8272 30.2173 13.8272 30.8934C13.8272 32.0416 12.588 32.3972 11.3541 32.3972H9.00543V27.1282ZM10.1689 29.2673H11.2296C12.0035 29.2673 12.3931 28.9992 12.3931 28.6028C12.3931 28.1482 12.0035 27.9267 11.1268 27.9267H10.1689V29.2673ZM10.1689 31.5928H11.2405C11.8411 31.5928 12.6691 31.5112 12.6691 30.8177C12.6691 30.2639 12.2254 30.0716 11.2838 30.0716H10.1689V31.5928Z" fill="white"/>
</g>
<defs>
<clipPath id="clip0_150_864">
<rect width="42" height="7" fill="white" transform="translate(9 27)"/>
</clipPath>
</defs>
</svg>
