<svg width="60" height="60" viewBox="0 0 60 60" fill="none" xmlns="http://www.w3.org/2000/svg">
<rect width="60" height="60" fill="black"/>
<g clip-path="url(#clip0_150_818)">
<path d="M38 43.8341C38 47.5097 35.1346 50 30.606 50H23.9053V43.438H24.9291C25.865 47.3118 27.586 49.066 30.4543 49.066C32.8095 49.066 34.0475 47.8776 34.0475 45.9534C34.0475 43.9189 32.7186 42.9853 30.7564 41.9099L27.7971 40.2688C25.2944 38.8821 23.8756 37.2128 23.8756 34.8359C23.8756 32.2125 25.5211 30.5263 28.1297 29.796C24.3468 28.8766 23 25.7102 23 20.0429C23 13.6194 25.8654 10 31.6625 10H37.0671V15.4298H36.0101C34.7722 11.9783 33.6851 10.903 31.6927 10.903C28.8243 10.903 28.0091 13.7887 28.0091 20.2121C28.0091 27.5947 28.7037 29.2358 30.8775 29.2358C32.5079 29.2358 33.3231 28.2739 33.3231 25.9536V23.1241C33.3231 21.4005 32.719 20.7782 30.8171 20.4952V19.5898H37.2782V35.0338H36.3122C34.8627 31.16 32.9608 30.2833 30.8473 30.2833C28.7941 30.2833 27.5261 31.1882 27.5261 32.9711C27.5261 34.6377 28.5826 35.4017 30.5452 36.5053L33.776 38.3164C36.3423 39.7592 38 41.1177 38 43.8341Z" fill="white"/>
</g>
<defs>
<clipPath id="clip0_150_818">
<rect width="15" height="40" fill="white" transform="translate(23 10)"/>
</clipPath>
</defs>
</svg>
