<svg width="60" height="60" viewBox="0 0 60 60" fill="none" xmlns="http://www.w3.org/2000/svg">
<rect width="60" height="60" fill="#014683"/>
<path d="M30.2178 34.6481C42.2139 34.6617 51.9315 32.4329 51.9315 29.6824C51.9315 26.9328 42.2139 24.704 30.2269 24.704C18.2398 24.704 8.52222 26.9319 8.52222 29.6824C8.52222 32.4329 18.2398 34.6617 30.2269 34.6617L30.2178 34.6481Z" stroke="#FEFEFD"/>
<path d="M30.2179 33.281C41.2563 33.2946 50.1978 31.6761 50.1978 29.6779C50.1978 27.6806 41.2563 26.0612 30.2269 26.0612C19.1976 26.0612 10.2561 27.6806 10.2561 29.6779C10.2561 31.6761 19.1976 33.2946 30.2269 33.2946L30.2179 33.281Z" fill="#FEFEFD"/>
<path d="M19.5135 28.8614L19.3928 28.8026C19.3928 28.8026 19.3029 28.4817 19.0932 28.3686C18.8835 28.2547 18.1737 28.0793 17.235 28.0992C16.2955 28.12 14.795 28.6055 14.795 29.5983C14.795 30.5902 16.1058 31.1996 17.3748 31.1996C19.1931 31.1996 19.1931 30.7448 19.4827 30.5902C19.6325 30.5793 19.8231 30.5793 19.8231 30.5793L19.5526 31.262C19.5526 31.262 19.223 31.2719 19.1232 31.3027C19.0233 31.3343 18.2336 31.4889 17.3649 31.4889C16.4553 31.4889 13.8872 31.1173 13.8872 29.6182C13.8872 28.12 16.7848 27.8722 17.2251 27.8722C17.6644 27.8722 18.9834 28.0169 19.1931 28.0377C19.4028 28.0585 19.8331 28.0269 19.8331 28.0269C19.8331 28.0269 19.853 28.0992 19.8421 28.1923C19.8331 28.2854 19.5226 28.875 19.5226 28.875L19.5135 28.8614ZM21.6032 29.8424V30.9672C21.6332 31.2584 21.8919 31.2385 21.9518 31.2385H22.3712L22.3739 31.4889H21.212H20.0328V31.2493H20.4322C20.493 31.2493 20.6954 31.2493 20.6954 30.9663V28.3949C20.6954 28.1236 20.5212 28.101 20.4612 28.101H20.0328V27.8722H22.3748L22.3721 28.101H21.9727C21.9128 28.101 21.6341 28.1028 21.6041 28.3949V29.4464H25.6882V28.3949C25.6582 28.1028 25.4376 28.101 25.3777 28.101H24.9874L24.9846 27.8722H27.1251V28.101H26.8728C26.8129 28.101 26.5959 28.1236 26.5959 28.3949V30.9663C26.5959 31.2267 26.861 31.2376 26.9209 31.2376C26.9808 31.2376 27.1251 31.2484 27.1251 31.2484V31.4889H26.1466H24.9846L24.9874 31.2385H25.4049C25.4639 31.2385 25.6582 31.2584 25.6882 30.9672V29.8424H21.6032ZM35.3613 29.4066C35.3332 29.3442 35.325 28.6336 35.3413 28.3668C35.3549 28.1607 35.4475 28.12 35.5074 28.1164C35.6527 28.1091 36.1011 28.1046 36.1011 28.1046C36.5505 28.1046 38.1091 28.195 38.1091 28.7502C38.1091 29.3054 37.6298 29.4374 36.201 29.4374C35.8415 29.4374 35.3903 29.469 35.3613 29.4066ZM36.1038 27.8722H33.9624V28.1046C33.9624 28.1046 34.2211 28.1417 34.282 28.1417C34.3419 28.1417 34.7649 28.1751 34.7649 28.4283V31.0016C34.7649 31.262 34.311 31.262 34.2511 31.262H33.9642V31.4889H36.1047L36.102 31.2521H35.6908C35.6309 31.2521 35.3731 31.2548 35.3431 30.9718C35.3141 30.7059 35.3613 29.9817 35.3613 29.7394C35.3613 29.7394 35.8215 29.7095 36.0013 29.7303C36.181 29.7502 36.5604 29.7602 36.821 29.9618C37.0806 30.1634 37.46 30.5875 38.4096 31.0016C39.3582 31.4157 39.6078 31.507 40.098 31.4862C40.5882 31.4663 40.6881 31.3859 40.6881 31.3859L40.6772 31.2439C40.6772 31.2439 40.138 31.234 39.9083 31.1535C39.6786 31.0721 39.2365 30.9021 38.5975 30.4989C37.9584 30.0947 37.8595 30.0124 37.5399 29.6589C38.1699 29.5178 38.769 29.2755 38.769 28.7402C38.769 28.205 37.9393 27.8722 37.2504 27.8722H36.1038ZM40.4375 28.3279C40.1479 28.3279 39.9882 28.3587 39.8883 28.4093C39.7885 28.46 39.6587 28.6317 39.6587 28.6317L39.3191 28.6227L39.7485 27.8722C39.7485 27.8722 39.9183 27.9536 40.0081 27.9735C40.0989 27.9934 40.7797 28.0259 41.4488 28.0458C42.1178 28.0666 42.6879 28.0576 44.0268 28.0476C45.3667 28.0377 45.3549 27.8722 45.3549 27.8722H45.659L45.3848 28.6137L45.0045 28.6336C45.0045 28.6336 45.0245 28.5124 45.0453 28.4509C45.0653 28.3903 45.0653 28.3496 44.9654 28.3298C44.8656 28.309 44.3073 28.2909 43.9669 28.28C43.6274 28.271 43.6074 28.309 43.3569 28.3198C43.1073 28.3288 42.9357 28.5323 42.9357 28.6634V30.9464C42.9357 31.2313 43.4477 31.2195 43.5076 31.2195C43.5675 31.2195 44.0767 31.2466 44.0767 31.2466L44.0795 31.4889H41.1202V31.2475C41.1202 31.2475 41.5786 31.2096 41.6385 31.2096C41.6984 31.2096 41.938 31.2195 41.988 30.9564C42.0379 30.6924 42.0279 29.95 42.0279 29.7077C42.0279 29.4636 42.0216 29.0802 42.0279 28.7855C42.0379 28.309 41.8881 28.3298 41.8282 28.3298H41.4379L40.4375 28.3279ZM29.5425 30.252C29.3628 30.252 29.1731 30.3153 29.134 30.356C29.0932 30.3976 28.7337 30.8443 28.6738 30.9076C28.6139 30.969 28.554 31.0839 28.6139 31.1463C28.6738 31.2087 28.8435 31.2385 28.9434 31.2385C29.0432 31.2385 29.4227 31.2502 29.4227 31.2502V31.4889H27.3648V31.2502L27.7343 31.2177C27.8541 31.2077 28.0138 31.1047 28.1137 30.969C28.2136 30.8334 30.522 27.8722 30.522 27.8722H30.7916C30.7916 27.8722 32.9003 30.8343 33.0002 30.969C33.1 31.1047 33.2598 31.2077 33.3796 31.2177L33.75 31.2502V31.4889H31.6912V31.2502C31.6912 31.2502 31.7212 31.2385 31.821 31.2385C31.9209 31.2385 32.0906 31.2087 32.1505 31.1463C32.2104 31.083 32.1505 30.969 32.0906 30.9067C32.0307 30.8443 31.6712 30.3976 31.6313 30.356C31.5913 30.3144 31.4016 30.252 31.2219 30.252H30.4221H29.5425ZM30.4122 29.9401C30.5619 29.9401 31.2918 29.8985 31.2918 29.8985L30.4022 28.7556L29.5126 29.8985C29.5126 29.8985 30.2624 29.9401 30.4122 29.9401Z" fill="#014683"/>
</svg>
