<svg width="60" height="60" viewBox="0 0 60 60" fill="none" xmlns="http://www.w3.org/2000/svg">
<rect width="60" height="60" fill="#FF3A00"/>
<g clip-path="url(#clip0_1772_9450)">
<path d="M32.0935 29.8326L36.5758 36.5267H32.411L29.9084 32.5735L27.3871 36.5267H23.3159L27.7979 29.8886L23.5027 23.4741H27.6672L29.9644 27.1473L32.3174 23.4741H36.389L32.0935 29.8326ZM17.2351 23.2122C13.2007 23.2122 10.2124 26.1958 10.2124 30V30.0375C10.2124 33.9908 13.238 36.7879 17.3095 36.7879C19.7002 36.7879 21.6053 35.9116 22.9876 34.7553V28.8999H18.2799L16.4585 31.5478H19.5509V33.1331C19.0281 33.4874 18.3556 33.6737 17.4593 33.6737C15.3858 33.6737 13.9105 32.1631 13.9105 30.0375V30C13.9105 28.005 15.3672 26.4382 17.2537 26.4382C18.1636 26.4382 18.8834 26.6555 19.5518 27.0514L21.4481 24.2965C20.3009 23.5998 18.9568 23.2122 17.2351 23.2122ZM49.7877 29.9628V30C49.7877 33.7481 46.8287 36.7879 42.8829 36.7879C38.9378 36.7879 36.0153 33.7853 36.0153 30.0372V30C36.0153 26.2519 38.9743 23.2122 42.92 23.2122C46.8651 23.2122 49.7877 26.2147 49.7877 29.9628ZM46.1527 30C46.1527 28.0983 44.8379 26.4759 42.8829 26.4759C40.9286 26.4759 39.6316 28.0793 39.6316 29.9628V30C39.6316 31.8836 40.965 33.5242 42.92 33.5242C44.8558 33.5242 46.1527 31.9208 46.1527 30.0372V30Z" fill="white"/>
</g>
<defs>
<clipPath id="clip0_1772_9450">
<rect width="40" height="14" fill="white" transform="translate(10 23)"/>
</clipPath>
</defs>
</svg>
