<svg width="60" height="60" viewBox="0 0 60 60" fill="none" xmlns="http://www.w3.org/2000/svg">
<rect width="60" height="60" fill="url(#paint0_linear_150_644)"/>
<g clip-path="url(#clip0_150_644)">
<path fill-rule="evenodd" clip-rule="evenodd" d="M50.81 40.1936C50.7952 40.1418 50.776 40.0915 50.7525 40.0427C50.7303 39.9998 48.599 35.6504 46.4764 27.8876L46.3672 27.5282C46.7967 26.8612 46.9281 26.3362 46.965 26.0804C47.0033 25.8585 47.0211 25.6411 47.0211 25.4341C47.0211 24.6429 46.7658 23.9907 46.4588 23.6446C46.2005 23.3547 45.9141 23.1506 45.5909 23.0205L45.4108 21.9705C44.4676 14.119 44.1016 11.0783 44.0647 10.5785C44.0277 10.0801 43.9658 9.35986 43.9097 8.84077C43.8742 8.50949 43.7517 8.05102 43.7517 8.05102C43.6676 7.72123 43.4536 7.44025 43.1613 7.282C42.8676 7.12228 42.5134 7.09862 42.1916 7.21396C42.1546 7.22727 42.1193 7.24347 42.0838 7.26129C42.0322 7.28941 36.8351 10.1318 28.7185 13.1636C25.1052 14.5848 22.8513 15.5402 18.2668 16.5044C14.4291 17.2409 11.7177 17.7083 11.6749 17.7157L10.1708 17.9848L9.99221 18.0439C9.61287 18.2022 9.31619 18.5187 9.19811 18.8914C9.15826 19.0185 9.13909 19.1472 9.14199 19.2759C9.14627 19.4888 9.20839 19.6959 9.325 19.8778L9.38991 19.9665C9.40169 19.9828 10.6342 21.5504 12.7065 27.503C12.187 27.9275 11.9051 28.4762 11.9051 29.0766C11.9051 29.2304 11.9227 29.3857 11.9612 29.5454C12.2151 30.622 13.4328 30.9075 14.0409 30.9075L14.0984 30.9042C14.1692 30.901 14.2416 30.8957 14.3139 30.8894L14.6386 31.5653C14.8217 32.6641 14.9899 33.7718 15.1464 34.8248C16.215 42.0241 16.4792 45.677 16.5176 47.4591C16.5412 48.6185 16.3361 51.461 16.3331 51.5453C16.3288 51.6769 16.3095 51.8381 16.3417 51.9638C16.4288 52.2995 16.6516 52.5791 16.9527 52.7314C17.2568 52.8852 17.6214 52.9 17.9505 52.7698C17.9919 52.755 18.0317 52.7358 18.0716 52.7122C18.1217 52.684 23.1402 49.8238 31.9211 46.415C31.9934 46.3868 37.2303 44.1774 39.4871 43.574C44.6148 42.2031 46.8554 42.1957 47.8769 42.0995C48.0702 42.0818 49.1329 42.0093 49.4016 41.965C49.6702 41.9206 49.9315 41.8185 49.9315 41.8185C49.9669 41.8078 50.0127 41.7934 50.0481 41.7801C50.6547 41.5243 50.9901 40.828 50.81 40.1936Z" fill="white"/>
<mask id="mask0_150_644" style="mask-type:luminance" maskUnits="userSpaceOnUse" x="11" y="9" width="39" height="41">
<path d="M11.1715 9.55212H49.2454V49.9144H11.1715V9.55212Z" fill="white"/>
</mask>
<g mask="url(#mask0_150_644)">
<mask id="mask1_150_644" style="mask-type:luminance" maskUnits="userSpaceOnUse" x="11" y="9" width="39" height="41">
<path d="M42.5974 9.56839C42.5974 9.56839 37.3885 12.0234 29.3324 14.5538C28.9059 14.6884 28.4822 14.8185 28.0616 14.9457C28.7656 14.783 29.48 14.6129 30.2033 14.434C36.7849 12.8057 41.5288 11.1168 43.145 10.5134C43.0594 10.0357 43.0166 9.7991 43.0166 9.7991C42.9827 9.64825 42.8528 9.55212 42.7037 9.55212C42.6697 9.55212 42.6328 9.55802 42.5974 9.56839ZM42.8498 11.8297C42.8498 11.8297 37.4535 13.8306 29.2173 15.6689C20.9811 17.5057 13.7427 18.3427 13.7427 18.3427C13.5493 18.3856 13.415 18.5734 13.4416 18.7642C13.4416 18.7642 14.4497 20.4236 15.6291 27.0801C15.3914 27.16 15.1434 27.2457 14.8999 27.336C13.4711 21.4026 12.3434 19.0763 12.0763 18.5143C11.694 18.6149 11.4829 18.6681 11.4829 18.6681C11.2984 18.7376 11.1272 18.9402 11.2423 19.1266C11.2423 19.1266 12.5338 20.7001 14.6623 27.4262C14.277 27.5741 13.9154 27.7368 13.6261 27.8846C12.9279 28.244 12.6475 28.7631 12.7803 29.3207C12.922 29.9152 13.7707 30.029 14.0423 30.029H14.0586C14.4305 30.0128 14.8468 29.9462 15.3265 29.8294L15.4239 29.8043L15.4711 29.7924C15.4711 29.7924 15.7043 29.7318 16.0261 29.646C16.2209 30.8839 16.3892 32.1409 16.5855 33.6568C18.1235 45.5975 17.5258 47.3145 17.5258 47.3145C17.5538 47.5038 17.7324 47.6221 17.9258 47.5792C17.9258 47.5792 23.052 45.5664 32.0778 43.5463C41.1052 41.5261 47.0314 41.0676 47.0314 41.0676C47.2248 41.0232 47.3605 40.8354 47.3325 40.6446C47.3325 40.6446 45.8093 36.1887 44.8277 28.108C44.8779 28.0636 44.9281 28.0177 44.9768 27.9689L44.9915 27.9556C45.8388 27.0993 46.1443 26.3436 46.2004 25.9281C46.3451 25.1176 46.1163 24.4388 45.8949 24.1918C45.5864 23.8458 45.2218 23.6091 44.3952 23.6846L44.3819 23.6861C43.5716 15.5831 43.2484 12.0959 43.2484 12.0959C43.2247 11.9317 43.0889 11.8208 42.9281 11.8208L42.8498 11.8297ZM48.41 41.1504C48.7613 41.0721 48.9487 41.0336 48.9487 41.0336C49.1347 40.9671 49.2454 40.763 49.1952 40.5781C49.1952 40.5781 47.1819 36.3514 45.2366 28.7247C46.4395 35.3798 47.886 39.7041 48.41 41.1504ZM30.6417 44.654C23.6985 46.4494 19.0992 48.1634 17.3781 48.8437C17.4032 49.4515 17.3619 49.6275 17.3619 49.6275C17.4062 49.8139 17.5966 49.9144 17.784 49.8523C17.784 49.8523 22.6992 47.3633 31.4977 44.4942C31.7679 44.407 32.0335 44.3197 32.2978 44.2369C31.759 44.37 31.2055 44.5076 30.6417 44.654Z" fill="white"/>
</mask>
<g mask="url(#mask1_150_644)">
<path d="M11.1272 9.55212V49.9144H49.2454V9.55212H11.1272Z" fill="url(#paint1_radial_150_644)"/>
</g>
</g>
<path d="M42.407 26.7784C42.7716 25.3764 43.4579 24.8854 43.5657 24.7922C44.0336 24.4758 44.1207 24.7346 44.1827 24.8426C44.3185 25.1383 44.1324 25.761 44.0734 25.9517C43.7472 27.0106 43.0904 27.5076 42.9856 27.5919C42.4129 27.9571 42.3922 27.4883 42.3745 27.3523C42.3613 27.2561 42.3853 26.9603 42.407 26.7784ZM40.8941 27.3079C40.8941 27.3079 40.7745 28.5058 42.1487 28.4067C42.3155 28.3934 43.5893 28.3136 44.6269 27.2798C44.7849 27.1201 45.579 26.3363 45.6882 25.5258C45.7177 25.3498 46.0365 23.8413 44.3317 23.9404C44.1251 23.9729 43.0505 24.0735 42.0557 25.0881C41.9096 25.2315 40.9 26.2697 40.8941 27.3079ZM39.4018 25.2892C39.4018 25.2892 39.0697 24.6015 38.2505 24.7154C38.1103 24.745 37.8092 24.8203 37.5479 25.0407C37.5096 25.0792 37.3767 25.2374 37.5789 25.2611C37.7014 25.2803 38.2933 25.3232 38.3272 25.8985C38.3283 26.0508 38.4054 26.5877 37.9435 28.454C37.908 28.565 37.7826 28.9436 38.2342 28.9184C38.3892 28.912 39.1169 28.877 39.483 28.6981C39.604 28.6315 39.7796 28.599 39.759 28.2677C39.76 28.1257 39.76 26.5477 39.6438 26.1189C39.6985 25.9843 39.9715 25.3824 40.6608 25.0097C40.776 24.9535 41.1804 24.7021 41.5095 25.0703C41.5612 25.1207 41.6232 25.2034 41.7752 25.0789C41.8786 24.9814 42.2608 24.6278 42.1915 24.1487C42.1575 24.0289 42.1279 23.7346 41.514 23.7997C41.3339 23.8307 40.4764 23.8872 39.4018 25.2892ZM35.0519 25.9086C36.0232 25.561 35.7855 27.0177 35.6084 27.3283C35.3663 28.0826 34.7449 28.473 34.7449 28.473L34.5176 26.2103C34.7021 26.0831 34.9294 25.9574 35.0519 25.9086ZM31.7117 22.1817C31.7117 22.1817 31.5375 22.2601 31.7633 22.3252C31.8534 22.3829 32.1087 22.5308 32.2563 22.9937C32.3316 23.2229 32.7715 24.5495 33.0519 26.5401C33.077 26.7264 33.3028 28.5262 33.2733 29.0039C33.291 29.1341 33.2765 29.7167 34.1264 29.4993C34.7095 29.347 36.0704 28.4198 37.0032 27.0222C37.1257 26.8773 38.2726 24.9266 36.0733 24.9532C35.7353 25.0079 35.3205 25.039 34.4645 25.6054C34.4408 25.49 34.2371 23.1652 33.936 22.2527C33.8313 22.0471 33.753 21.7233 33.0593 21.8017C32.8895 21.8268 32.1279 21.9348 31.7117 22.1817ZM32.4172 25.5403C32.4172 25.5403 32.5176 25.5729 32.5028 25.425C32.4865 25.2756 32.4541 24.7743 32.029 24.545C31.9301 24.5021 31.75 24.3838 31.3043 24.5343C31.1773 24.5816 29.567 25.1643 28.8039 26.5604C28.7464 26.6817 28.24 27.7642 29.2054 28.0585C29.2054 28.0585 29.9257 28.2611 30.364 28.307C30.364 28.307 31.7367 28.4327 30.922 29.5655C30.8039 29.7267 30.3301 30.3582 29.6068 30.9187C29.471 31.0119 28.9102 31.4171 28.2548 31.0637C28.1441 31.0148 27.9345 30.9542 28.0098 31.2101C28.0629 31.315 28.4068 31.9007 28.9205 32.1743C29.0371 32.226 29.3943 32.5219 30.5795 31.8652C30.8349 31.7336 32.1486 30.7413 32.674 29.6262C32.7463 29.425 33.17 28.4519 32.2474 28.1221C31.97 28.0097 31.2275 27.8485 31.0312 27.7983C30.6681 27.6992 29.5995 27.5128 30.2829 26.5545C30.4556 26.377 31.1124 25.7 32.4172 25.5403ZM14.6961 28.3454C14.4673 28.3632 14.5426 28.1813 14.6606 28.1133C15.5728 27.5527 17.2112 27.149 17.2112 27.149L17.3027 27.7805C16.1101 28.128 15.0016 28.3469 14.6961 28.3454ZM17.1728 26.8414C17.1728 26.8414 14.789 27.4995 13.6805 28.0955C13.2569 28.307 12.3064 29.2727 13.9064 29.2727C14.2119 29.2594 14.6355 29.2062 15.2466 29.0479C15.434 28.9991 17.4001 28.4785 17.4001 28.4785L17.7602 30.8596C17.7602 30.8596 17.8267 31.253 17.865 31.3831C17.865 31.3831 17.9477 32.059 18.4908 31.9643C18.6399 31.9557 19.1624 31.9392 19.6333 31.7735C19.7189 31.7336 19.9447 31.6819 19.8399 31.3506C19.8251 31.1864 19.2953 27.9964 19.2953 27.9964L21.1698 27.5335L21.6746 30.7413C21.6746 30.7413 21.7691 31.4763 22.3477 31.3402C22.5218 31.3151 22.9514 31.2589 23.2141 31.1125C23.279 31.0695 23.4296 31.0193 23.2495 30.6895C23.1964 30.5194 22.6252 28.5318 22.516 27.2703C22.637 27.2481 24.7403 26.8828 24.6606 26.9715C24.5809 27.0588 23.9669 27.6844 23.6363 28.6264C23.3957 29.1337 23.6215 30.6954 25.161 30.265C25.4222 30.1689 26.0437 29.9811 26.7315 29.1115C26.7654 29.1959 27.2053 30.3183 28.4555 30.0033C28.5839 29.9663 28.7772 29.9411 28.5824 29.7814C28.4864 29.7208 28.0141 29.4783 28.0363 28.5244C28.0496 28.2685 28.1264 27.532 28.2931 26.6624C28.3049 26.5663 28.333 26.2232 27.9522 26.306C27.7603 26.3608 27.3514 26.4938 26.9942 26.7586C26.9071 26.8325 26.8068 26.8843 26.7403 27.1978C26.6887 27.356 26.1558 28.9754 25.2924 29.5507C25.1433 29.6424 24.8628 29.8347 24.8466 29.4413C24.8289 29.2269 25.009 28.029 26.5056 26.7157C26.6872 26.5663 27.1256 26.2498 27.3027 26.201C27.4503 26.1759 27.6171 25.991 27.3308 25.9141C27.3308 25.9141 26.8525 25.7988 25.2673 26.0192C25.1138 26.0384 23.8134 26.2099 22.4304 26.4983C22.4156 26.3297 22.2606 24.2238 22.3832 23.156C22.4038 22.9475 22.6252 22.2199 21.8872 22.3426C21.7485 22.3589 21.0267 22.4639 20.6562 22.7005C20.5558 22.7567 20.423 22.8011 20.575 22.9061C20.637 22.9771 20.7477 23.0791 20.7713 23.4755C20.7876 23.6248 21.071 26.803 21.071 26.803L19.1905 27.2851C19.1905 27.2851 18.8363 24.6275 18.8186 23.505C18.8053 23.3202 18.9174 22.5437 18.0732 22.8336C17.8828 22.8824 17.0119 23.1057 16.4082 23.5731C16.4082 23.5731 16.0643 23.7742 16.4157 23.857C16.5176 23.9191 16.6548 23.9857 16.7094 24.2933C16.7449 24.4722 17.1728 26.8414 17.1728 26.8414Z" fill="white"/>
<path d="M36.9354 29.4537L36.9088 29.5203C36.1192 31.2476 34.0867 32.7103 33.9037 32.833C32.0498 34.2321 30.0055 34.6816 29.7398 34.7423C27.39 35.3516 25.3029 35.1298 25.1523 35.1283C25.6586 36.7477 28.3022 37.7844 28.407 37.8258C31.2144 38.9779 33.511 38.024 33.7826 37.9382C35.914 37.2032 36.59 35.4093 36.7303 35.0987C37.486 33.2323 37.2041 31.3024 37.1613 30.9489C37.1347 30.5392 37.021 30.1163 36.9944 29.9802C36.962 29.7643 37.1996 29.7983 37.2041 29.9314C37.6321 31.3925 37.6336 32.6866 37.6321 32.901C37.6267 34.9804 37.0284 35.9121 36.9354 36.1117C36.159 37.6084 35.1229 38.1763 34.9428 38.2887C33.1848 39.4467 31.08 39.3343 30.7494 39.3224C27.6955 39.1834 25.7915 37.6927 25.4402 37.4146C23.4741 35.8736 23.3029 33.9244 23.2999 33.8031C23.2957 33.6819 23.328 33.7307 23.545 33.7824C26.9369 34.7201 29.9022 33.7835 30.0675 33.7455C34.4941 32.6807 36.7332 29.4005 36.7332 29.4005C36.8882 29.1624 36.99 29.3665 36.9354 29.4537Z" fill="white"/>
</g>
<defs>
<linearGradient id="paint0_linear_150_644" x1="0" y1="0" x2="60" y2="60" gradientUnits="userSpaceOnUse">
<stop stop-color="#0E87D2"/>
<stop offset="1" stop-color="#052048"/>
</linearGradient>
<radialGradient id="paint1_radial_150_644" cx="0" cy="0" r="1" gradientUnits="userSpaceOnUse" gradientTransform="translate(44.8193 9.86131) scale(50.1921 50.0478)">
<stop stop-color="#26B6AF"/>
<stop offset="0.0625" stop-color="#26B6AF"/>
<stop offset="0.0898438" stop-color="#26B6B0"/>
<stop offset="0.09375" stop-color="#26B6B0"/>
<stop offset="0.0976562" stop-color="#26B5B0"/>
<stop offset="0.101562" stop-color="#26B5B1"/>
<stop offset="0.105469" stop-color="#25B4B1"/>
<stop offset="0.109375" stop-color="#25B4B1"/>
<stop offset="0.113281" stop-color="#25B3B2"/>
<stop offset="0.117188" stop-color="#25B2B2"/>
<stop offset="0.121094" stop-color="#25B2B2"/>
<stop offset="0.125" stop-color="#25B2B2"/>
<stop offset="0.128906" stop-color="#24B1B3"/>
<stop offset="0.132812" stop-color="#24B1B3"/>
<stop offset="0.136719" stop-color="#24B0B3"/>
<stop offset="0.140625" stop-color="#24B0B4"/>
<stop offset="0.144531" stop-color="#24AFB4"/>
<stop offset="0.148438" stop-color="#24AEB4"/>
<stop offset="0.152344" stop-color="#23AEB4"/>
<stop offset="0.15625" stop-color="#23ADB5"/>
<stop offset="0.160156" stop-color="#23ADB5"/>
<stop offset="0.164062" stop-color="#23ADB5"/>
<stop offset="0.167969" stop-color="#23ACB5"/>
<stop offset="0.171875" stop-color="#23ABB6"/>
<stop offset="0.175781" stop-color="#23ABB6"/>
<stop offset="0.179688" stop-color="#23AAB6"/>
<stop offset="0.183594" stop-color="#22AAB7"/>
<stop offset="0.1875" stop-color="#22AAB7"/>
<stop offset="0.191406" stop-color="#22A9B7"/>
<stop offset="0.195312" stop-color="#22A8B8"/>
<stop offset="0.199219" stop-color="#22A8B8"/>
<stop offset="0.203125" stop-color="#22A7B8"/>
<stop offset="0.207031" stop-color="#21A7B8"/>
<stop offset="0.210938" stop-color="#21A7B9"/>
<stop offset="0.214844" stop-color="#21A6B9"/>
<stop offset="0.21875" stop-color="#21A6B9"/>
<stop offset="0.222656" stop-color="#21A5B9"/>
<stop offset="0.226562" stop-color="#20A4B9"/>
<stop offset="0.230469" stop-color="#20A4BA"/>
<stop offset="0.234375" stop-color="#20A3BA"/>
<stop offset="0.238281" stop-color="#20A3BA"/>
<stop offset="0.242188" stop-color="#20A3BA"/>
<stop offset="0.246094" stop-color="#20A2BB"/>
<stop offset="0.25" stop-color="#20A1BB"/>
<stop offset="0.253906" stop-color="#20A1BB"/>
<stop offset="0.257812" stop-color="#20A0BB"/>
<stop offset="0.261719" stop-color="#1FA0BC"/>
<stop offset="0.265625" stop-color="#1FA0BC"/>
<stop offset="0.269531" stop-color="#1F9FBC"/>
<stop offset="0.273438" stop-color="#1E9EBC"/>
<stop offset="0.277344" stop-color="#1F9EBC"/>
<stop offset="0.28125" stop-color="#1F9EBD"/>
<stop offset="0.285156" stop-color="#1E9DBD"/>
<stop offset="0.289062" stop-color="#1E9DBE"/>
<stop offset="0.292969" stop-color="#1E9CBE"/>
<stop offset="0.296875" stop-color="#1D9CBE"/>
<stop offset="0.300781" stop-color="#1D9BBE"/>
<stop offset="0.304688" stop-color="#1D9BBE"/>
<stop offset="0.308594" stop-color="#1D9ABE"/>
<stop offset="0.3125" stop-color="#1D99BE"/>
<stop offset="0.316406" stop-color="#1D99BF"/>
<stop offset="0.320312" stop-color="#1D99BF"/>
<stop offset="0.324219" stop-color="#1D98BF"/>
<stop offset="0.328125" stop-color="#1C98BF"/>
<stop offset="0.332031" stop-color="#1C97BF"/>
<stop offset="0.335938" stop-color="#1C97C0"/>
<stop offset="0.339844" stop-color="#1C96C0"/>
<stop offset="0.34375" stop-color="#1C96C0"/>
<stop offset="0.347656" stop-color="#1C95C0"/>
<stop offset="0.351562" stop-color="#1C95C0"/>
<stop offset="0.355469" stop-color="#1C94C0"/>
<stop offset="0.359375" stop-color="#1C94C0"/>
<stop offset="0.363281" stop-color="#1B93C1"/>
<stop offset="0.367188" stop-color="#1B93C1"/>
<stop offset="0.371094" stop-color="#1B93C1"/>
<stop offset="0.375" stop-color="#1A92C1"/>
<stop offset="0.378906" stop-color="#1A91C1"/>
<stop offset="0.382812" stop-color="#1B91C2"/>
<stop offset="0.386719" stop-color="#1A90C2"/>
<stop offset="0.390625" stop-color="#1A90C2"/>
<stop offset="0.394531" stop-color="#1A90C2"/>
<stop offset="0.398438" stop-color="#1A8FC2"/>
<stop offset="0.402344" stop-color="#1A8FC3"/>
<stop offset="0.40625" stop-color="#1A8EC3"/>
<stop offset="0.410156" stop-color="#198EC3"/>
<stop offset="0.414062" stop-color="#198DC3"/>
<stop offset="0.417969" stop-color="#198DC3"/>
<stop offset="0.421875" stop-color="#198CC3"/>
<stop offset="0.425781" stop-color="#198CC4"/>
<stop offset="0.429688" stop-color="#198BC4"/>
<stop offset="0.433594" stop-color="#198BC4"/>
<stop offset="0.4375" stop-color="#198AC4"/>
<stop offset="0.441406" stop-color="#198AC4"/>
<stop offset="0.445312" stop-color="#188AC4"/>
<stop offset="0.449219" stop-color="#1889C4"/>
<stop offset="0.453125" stop-color="#1889C4"/>
<stop offset="0.457031" stop-color="#1888C5"/>
<stop offset="0.460938" stop-color="#1888C5"/>
<stop offset="0.464844" stop-color="#1887C5"/>
<stop offset="0.46875" stop-color="#1787C5"/>
<stop offset="0.472656" stop-color="#1786C5"/>
<stop offset="0.476562" stop-color="#1786C5"/>
<stop offset="0.480469" stop-color="#1786C5"/>
<stop offset="0.484375" stop-color="#1785C5"/>
<stop offset="0.488281" stop-color="#1785C6"/>
<stop offset="0.492188" stop-color="#1784C6"/>
<stop offset="0.496094" stop-color="#1684C6"/>
<stop offset="0.5" stop-color="#1683C6"/>
<stop offset="0.503906" stop-color="#1683C6"/>
<stop offset="0.507812" stop-color="#1682C6"/>
<stop offset="0.511719" stop-color="#1682C6"/>
<stop offset="0.515625" stop-color="#1681C6"/>
<stop offset="0.519531" stop-color="#1581C6"/>
<stop offset="0.523438" stop-color="#1581C7"/>
<stop offset="0.527344" stop-color="#1580C7"/>
<stop offset="0.53125" stop-color="#1580C7"/>
<stop offset="0.535156" stop-color="#157FC7"/>
<stop offset="0.539062" stop-color="#157FC7"/>
<stop offset="0.542969" stop-color="#157EC7"/>
<stop offset="0.546875" stop-color="#157EC7"/>
<stop offset="0.550781" stop-color="#157DC7"/>
<stop offset="0.554688" stop-color="#147DC7"/>
<stop offset="0.558594" stop-color="#147DC7"/>
<stop offset="0.5625" stop-color="#147CC7"/>
<stop offset="0.566406" stop-color="#147CC7"/>
<stop offset="0.570312" stop-color="#147BC7"/>
<stop offset="0.574219" stop-color="#147BC8"/>
<stop offset="0.578125" stop-color="#147AC8"/>
<stop offset="0.582031" stop-color="#147AC8"/>
<stop offset="0.585938" stop-color="#147AC8"/>
<stop offset="0.589844" stop-color="#1379C8"/>
<stop offset="1" stop-color="#1379C8"/>
</radialGradient>
<clipPath id="clip0_150_644">
<rect width="42" height="46" fill="white" transform="translate(9 7)"/>
</clipPath>
</defs>
</svg>
