<svg width="60" height="60" viewBox="0 0 60 60" fill="none" xmlns="http://www.w3.org/2000/svg">
<rect width="60" height="60" fill="black"/>
<g clip-path="url(#clip0_1403_9007)">
<path d="M13.0186 20.7798V39.2027C13.0197 39.6005 13.123 39.9915 13.3188 40.3385C13.5146 40.6854 13.7962 40.9767 14.137 41.1848L17.7199 43.3992V16.6008L14.137 18.8152C13.7982 19.0248 13.5188 19.3169 13.3251 19.664C13.1315 20.011 13.03 20.4015 13.0303 20.7985L13.0186 20.7798ZM18.8618 44.105V15.895L23.5515 12.9958V28.6222L24.7239 27.8755V12.2713L28.7769 9.76533C28.9774 9.64166 29.1919 9.55066 29.4135 9.49116V24.89L30.5859 24.1433V9.48416C30.8181 9.54249 31.0432 9.63583 31.2519 9.76416L35.2756 12.2538V26.6972L23.5515 34.1638V47.0053L18.8618 44.105ZM29.4135 50.5088C29.1889 50.4493 28.9743 50.3569 28.7769 50.2347L24.7239 47.7287V35.117L36.448 27.6503V12.9772L41.1376 15.8763V44.1237L36.448 47.0228V33.1897L35.2756 33.9363V47.7485L31.2519 50.2347C31.0432 50.3642 30.8181 50.4587 30.5859 50.5158V36.9242L29.4135 37.6708V50.5088ZM46.9997 39.2038V20.7962C46.9996 20.3993 46.8979 20.009 46.704 19.6621C46.5101 19.3153 46.2306 19.0234 45.8917 18.814L42.31 16.6008V43.3992L45.8917 41.1848C46.2306 40.9755 46.5101 40.6836 46.704 40.3367C46.8979 39.9899 46.9996 39.6007 46.9997 39.2038Z" fill="#5AA53A"/>
</g>
<defs>
<clipPath id="clip0_1403_9007">
<rect width="34" height="42" fill="white" transform="translate(13 9)"/>
</clipPath>
</defs>
</svg>
