<svg width="60" height="60" viewBox="0 0 60 60" fill="none" xmlns="http://www.w3.org/2000/svg">
<rect width="60" height="60" fill="#142A79"/>
<g clip-path="url(#clip0_1772_9167)">
<path fill-rule="evenodd" clip-rule="evenodd" d="M34.1271 25.7213V17.0104H49.9974V21.5975H49.3982C47.4501 21.5975 45.9118 23.1689 45.9118 25.0664V35.9104C45.9118 37.8545 47.4501 39.4362 49.3982 39.4362H49.9974V43.9767H34.1271V34.6134C34.1271 33.5495 33.2996 32.7133 32.2698 32.7133H27.7302C26.7108 32.7133 25.8729 33.5495 25.8729 34.6134V43.9767H10V39.4362H10.6122C12.5136 39.4362 14.0882 37.8545 14.0882 35.9104V25.0664C14.0882 23.1689 12.5136 21.5975 10.6122 21.5975H10V17.0104H25.8729V25.7213C25.8729 26.7387 26.7108 27.6188 27.7302 27.6188H32.2698C33.2996 27.6188 34.1271 26.7387 34.1271 25.7213Z" fill="white"/>
</g>
<defs>
<clipPath id="clip0_1772_9167">
<rect width="40" height="27" fill="white" transform="translate(10 17)"/>
</clipPath>
</defs>
</svg>
