<svg width="60" height="60" viewBox="0 0 60 60" fill="none" xmlns="http://www.w3.org/2000/svg">
<rect width="60" height="60" fill="black"/>
<g clip-path="url(#clip0_1772_9461)">
<path d="M23.5605 11.1836C24.1029 11.072 24.6427 10.7761 24.8767 10.6048C24.9538 10.5425 25.1543 10.4023 25.0463 10.4023C24.7199 10.34 23.0952 10.9786 23.2983 11.1836C23.3291 11.2148 23.4679 11.2148 23.5605 11.1836ZM26.7019 24.9332C25.9589 25.7145 26.4088 27.1032 27.6916 27.1032C28.6967 27.0409 29.0695 26.1973 29.0078 25.6522C28.869 24.5568 27.4602 24.1207 26.7019 24.9332ZM31.126 24.9643C30.4628 25.7456 30.8638 27.0097 32.1492 27.1032C33.1852 27.072 33.5708 26.2907 33.5553 25.7456C33.4628 24.5568 31.9152 24.0895 31.126 24.9643ZM35.7995 25.0733C34.9795 25.7768 35.2597 27.1836 36.5425 27.355C37.5785 27.4173 37.9975 26.6359 37.9975 26.0882C37.9975 25.0266 36.635 24.3855 35.7995 25.0733ZM22.2906 21.011C21.5322 21.8079 21.9049 23.1369 23.1569 23.0876C24.1337 22.9319 24.5039 22.1038 24.4731 21.5587C24.3497 20.5412 23.0643 20.1986 22.2906 21.011ZM27.6145 22.7917C28.635 22.7138 29.0386 21.9014 28.9769 21.3537C28.8381 20.2609 27.3214 19.8689 26.5476 20.7774C25.8664 21.5587 26.3291 22.7917 27.6145 22.7917ZM31.1569 20.6814C30.4628 21.4315 30.9255 22.7138 32.2417 22.7917C33.2931 22.7605 33.6659 21.9792 33.6016 21.4315C33.4628 20.3076 31.9152 19.8533 31.1569 20.6814ZM35.7533 20.9176C35.0875 21.5899 35.5836 22.8851 36.8381 23.0565C37.8587 23.1187 38.2289 22.3556 38.1517 21.7923C37.9975 20.6814 36.4962 20.1363 35.7533 20.9176ZM40.1492 21.4004C39.5759 22.0415 40.0078 23.3705 41.1235 23.6353C42.0052 23.7443 42.3137 22.9942 42.2366 22.4179C42.0823 21.3225 40.7661 20.6502 40.1492 21.4004ZM16.1646 18.2284C15.252 18.8384 14.8947 20.1986 15.6376 20.2764C15.7301 20.2764 15.8381 20.2764 15.8998 20.2609C16.6119 20.0272 17.0463 19.2459 17.1235 18.7761C17.2777 18.0571 16.7816 17.7923 16.1646 18.2284ZM19.1492 17.621C18.2674 18.2596 18.1903 19.3861 19.0103 19.5263C19.1337 19.5263 19.2443 19.5263 19.3368 19.4951C20.1877 19.3238 20.635 18.5736 20.6659 18.1194C20.7276 17.3069 19.9229 17.0422 19.1492 17.621ZM22.6941 17.2135C21.8741 17.9169 22.1517 19.0097 23.1877 19.0097C23.2057 19.0097 23.2674 19.0097 23.2983 19.0097C24.2726 18.8696 24.689 18.1505 24.689 17.6833C24.6736 16.793 23.4988 16.5256 22.6941 17.2135ZM26.6402 17.0733C26.1286 17.6833 26.4088 18.7294 27.6453 18.7294C28.6659 18.6671 29.0695 17.9481 29.0078 17.4783C28.8998 16.4945 27.3831 16.2453 26.6402 17.0733ZM32.1492 18.7294C33.2006 18.6982 33.5245 18.026 33.4319 17.5431C33.2314 16.5568 31.6684 16.2141 30.9718 16.9955C30.4936 17.5743 30.8947 18.6359 32.1492 18.7294ZM36.6659 18.9786C37.6582 19.0409 37.9204 18.3712 37.8124 17.8858C37.5168 16.902 35.9229 16.4322 35.3831 17.1979C34.9486 17.7456 35.3985 18.8073 36.6659 18.9786ZM41.6813 18.4958C41.3394 17.4783 39.9769 16.9332 39.545 17.6522C39.2031 18.2284 39.8381 19.3082 40.8612 19.5263C41.7121 19.6509 41.8664 18.9786 41.6813 18.4958ZM43.0566 18.2907C42.8253 18.8073 43.4294 19.9961 44.2648 20.2764C44.9152 20.4478 44.9461 19.791 44.7738 19.3082C44.4037 18.3245 43.3522 17.6833 43.0566 18.2907ZM46.9409 20.2609C46.6016 19.3238 45.9204 18.6671 45.7507 19.0409C45.5476 19.4484 46.1363 20.8553 46.7713 21.2135C47.2186 21.4004 47.1414 20.7463 46.9409 20.2609ZM15.9949 15.6353C15.4525 15.7132 14.0746 17.4471 14.4474 17.5899C14.4782 17.621 14.5553 17.5899 14.617 17.5743C15.126 17.3069 15.6684 16.6191 15.8998 16.2141C16.1337 15.8378 16.1646 15.6041 15.9949 15.6353ZM18.0361 14.8851C17.1235 15.2304 16.2109 16.5568 16.7816 16.6995C16.9075 16.7307 16.9846 16.6995 17.0772 16.6995C17.7584 16.4633 18.2983 15.8066 18.4705 15.4328C18.7019 14.963 18.5322 14.7138 18.0361 14.8851ZM20.5271 14.4179C19.5836 14.8851 19.2134 15.8378 19.8458 16.0117C19.9846 16.0428 20.0952 16.0428 20.2186 16.0117C20.9923 15.8378 21.5322 15.2304 21.6427 14.854C21.8124 14.244 21.2391 14.0104 20.5271 14.4179ZM23.4371 14.1817C22.725 14.7294 22.8484 15.4796 23.6376 15.5418C23.6993 15.5418 23.7764 15.5418 23.869 15.5418C24.7199 15.4328 25.1852 14.8228 25.2468 14.4491C25.2931 13.73 24.2417 13.5587 23.4371 14.1817ZM26.9486 14.0415C26.5322 14.5269 26.7481 15.2927 27.8304 15.2927C28.7584 15.2304 29.1157 14.6515 29.1003 14.2751C29.0078 13.4627 27.5836 13.2914 26.9486 14.0415ZM31.9769 15.2927C32.9229 15.2615 33.1852 14.7294 33.0618 14.3245C32.8124 13.5276 31.3291 13.2602 30.8021 13.9481C30.4628 14.4179 30.8638 15.1992 31.9769 15.2927ZM36.9769 14.6515C36.5733 13.8079 35.0258 13.4627 34.6864 14.135C34.4705 14.5892 35.0103 15.3705 36.0952 15.5107C37.0078 15.573 37.1466 15.0565 36.9769 14.6515ZM40.4576 15.1992C39.9461 14.3556 38.6941 13.9325 38.4628 14.4802C38.2597 14.9319 39.0026 15.8378 39.9152 16.0428C40.7199 16.1207 40.7199 15.6041 40.4576 15.1992ZM43.0258 16.7307C43.6299 16.8709 43.4911 16.3543 43.2906 16.0117C43.2597 15.9805 43.228 15.9494 43.1954 15.9182C42.6864 15.1369 41.7121 14.5892 41.5708 14.9942C41.4319 15.3394 42.2057 16.4322 43.0258 16.7307ZM45.1774 16.7618C44.6504 16.0584 43.9384 15.464 43.8921 15.682C43.7995 15.9182 44.7121 17.2135 45.3471 17.5743C45.6247 17.6833 45.563 17.4471 45.4859 17.2758C45.4551 17.1979 45.378 17.011 45.1774 16.7618ZM18.9795 13.7768C19.5528 13.6054 20.1569 13.0889 20.4345 12.793C20.6933 12.5109 20.7241 12.3699 20.5271 12.3699C19.9229 12.4166 18.4397 13.5743 18.7327 13.7768C18.779 13.8079 18.9024 13.7768 18.9795 13.7768ZM21.3008 13.1823C21.4088 13.2291 21.5476 13.1979 21.6427 13.1979C22.3522 13.0577 22.8638 12.5723 23.0643 12.3076C23.2674 11.965 23.0952 11.8222 22.6633 11.9027C21.7816 12.1051 20.8381 12.9955 21.3008 13.1823ZM24.7199 11.7599C24.0412 12.1363 23.869 12.6502 24.4114 12.7774C24.5193 12.793 24.6427 12.793 24.7507 12.793C25.4936 12.7151 25.9589 12.2764 26.0361 11.9961C26.1749 11.4951 25.4628 11.3861 24.7199 11.7599ZM27.4448 11.7287C27.0875 12.074 27.2751 12.6035 28.1569 12.6035C28.9307 12.5412 29.27 12.1363 29.2391 11.8378C29.1774 11.2771 27.9538 11.1836 27.4448 11.7287ZM31.6684 12.5723C32.3805 12.5723 32.6582 12.2297 32.5193 11.9027C32.2417 11.2771 30.833 11.1525 30.5862 11.7287C30.4319 12.0428 30.7867 12.5101 31.6684 12.5723ZM35.7533 12.1674C35.2906 11.5886 33.9281 11.2771 33.8047 11.8222C33.743 12.1363 34.2674 12.684 35.1492 12.7774C35.8612 12.8241 36.0001 12.4789 35.7533 12.1674ZM38.4319 13.1979C39.0643 13.2914 38.9101 12.9487 38.7404 12.7463C38.725 12.684 38.6633 12.6502 38.6325 12.6035C38.0592 12.074 36.9152 11.6509 36.8844 12.0428C36.869 12.3699 37.6093 13.0266 38.4319 13.1979ZM41.0926 13.8079C41.4628 13.9014 41.3702 13.6989 41.2931 13.5743C41.2314 13.5276 41.1389 13.3692 40.9229 13.1979C40.288 12.6502 39.4062 12.2453 39.3754 12.4478C39.3754 12.684 40.3497 13.5743 41.0926 13.8079Z" fill="white"/>
<path d="M25.9591 10.8695C26.5015 10.8072 26.918 10.5425 27.0722 10.3712C27.2136 10.1973 27.0414 10.1194 26.6404 10.1661C25.9283 10.2933 25.2933 10.6982 25.5864 10.8384C25.6969 10.8851 25.8357 10.8851 25.9591 10.8695ZM28.0337 10.2933C27.8306 10.4646 27.9231 10.7138 28.5581 10.7138C29.1468 10.6982 29.409 10.4335 29.409 10.2933C29.409 9.93249 28.4039 9.93249 28.0337 10.2933ZM31.8074 10.3089C31.499 9.93249 30.4167 9.91692 30.3833 10.2933C30.3833 10.4335 30.6326 10.6671 31.2676 10.7138C31.8383 10.7138 31.9771 10.4958 31.8074 10.3089ZM33.9437 10.8695C34.4861 10.8851 34.4398 10.7138 34.3447 10.6048C34.2985 10.5736 34.2368 10.5425 34.2059 10.5113C33.7278 10.1973 32.6892 9.99479 32.7509 10.2933C32.7817 10.4646 33.2933 10.7761 33.9437 10.8695Z" fill="white"/>
<path d="M36.4654 11.2148C36.7739 11.246 36.7739 11.1525 36.7122 11.0902C36.6967 11.072 36.5733 10.9786 36.3266 10.8384C35.7996 10.5737 34.8561 10.2933 34.887 10.4335C34.9178 10.5737 35.7533 11.072 36.4654 11.2148Z" fill="white"/>
<path d="M34.2056 31.355C35.2107 31.7755 36.2956 30.7761 35.9691 29.6678C35.6914 28.6658 34.2673 28.3699 33.6015 29.4939C33.185 30.3868 33.6966 31.1188 34.2056 31.355ZM31.8688 35.2771C32.9228 35.7599 34.0976 34.6983 33.7429 33.5406C33.4318 32.5568 32.1182 32.3076 31.4061 33.3693C30.8945 34.2596 31.3752 35.0098 31.8688 35.2771ZM29.3161 38.9786C30.2596 39.5263 31.4986 38.6204 31.2981 37.5562C31.1259 36.4945 29.7814 36.0584 28.9459 37.0889C28.4035 37.9325 28.8688 38.7139 29.3161 38.9786ZM40.0076 29.4316C40.9382 29.8391 41.8662 28.8865 41.5706 27.8222C41.2621 26.7606 39.9151 26.4024 39.3444 27.5263C38.9716 28.4634 39.5141 29.2135 40.0076 29.4316ZM37.9202 33.4471C38.9099 33.917 40.0076 32.7619 39.6375 31.6665C39.3135 30.6827 37.9974 30.4491 37.3778 31.5419C36.9151 32.4945 37.4395 33.2602 37.9202 33.4471ZM35.0565 35.5886C34.5475 36.5101 35.0256 37.2447 35.5526 37.4627C36.5732 37.9014 37.7506 36.7774 37.4087 35.6821C37.1156 34.7294 35.7994 34.4958 35.0565 35.5886ZM32.9537 41.2603C33.9742 41.6834 35.2287 40.6191 34.9177 39.6042C34.6709 38.6827 33.3238 38.4491 32.5192 39.464C31.9459 40.3388 32.4421 41.0578 32.9537 41.2603ZM29.8894 42.9319C29.347 43.6509 29.8585 44.292 30.383 44.4945C31.4061 44.9176 32.6117 44.1207 32.2878 43.1967C32.0411 42.3842 30.6632 42.0883 29.8894 42.9319ZM46.059 24.4478C46.6015 24.902 47.0796 24.6191 47.0333 23.8689C46.9408 22.745 45.9357 21.7924 45.5166 22.3868C45.4549 22.4491 45.4241 22.5425 45.3932 22.6204C45.2544 23.3394 45.6889 24.1207 46.059 24.4478ZM44.8534 27.8534C45.5166 28.3076 46.1362 27.7288 46.059 26.7761C45.9357 25.6834 45.0076 25.0422 44.4806 25.6834C44.4035 25.8079 44.3727 25.8858 44.311 25.9793C44.0642 26.8073 44.4806 27.5886 44.8534 27.8534ZM43.2261 31.573C43.9999 32.0117 44.8046 31.1188 44.6349 30.0416C44.4344 28.9799 43.3521 28.7126 42.8251 29.5899C42.8251 29.6211 42.7943 29.6678 42.7788 29.6989C42.4215 30.6204 42.8251 31.355 43.2261 31.573ZM40.8611 33.6366C40.3958 34.5581 40.7968 35.246 41.2313 35.4173C42.1439 35.8222 43.1182 34.636 42.7788 33.6055C42.5166 32.8242 41.4935 32.5568 40.8611 33.6366ZM38.9716 39.2615C39.9151 39.573 40.9999 38.4024 40.658 37.416C40.3958 36.697 39.3135 36.4945 38.6015 37.5562C38.0899 38.4802 38.5243 39.1188 38.9716 39.2615ZM36.4961 42.8696C37.4858 43.1344 38.6632 41.9793 38.3213 41.1045C38.0282 40.4789 36.8842 40.3543 36.1259 41.3381C35.5835 42.2129 35.9999 42.7606 36.4961 42.8696ZM34.0359 45.9948C35.0565 46.1973 36.2339 45.2758 35.8303 44.5412C35.4909 43.9468 34.2673 43.9468 33.5552 44.7281C33.0308 45.416 33.5243 45.8858 34.0359 45.9948ZM33.5243 47.2927C33.2004 46.8073 31.8688 46.745 31.203 47.3238C30.7557 47.8066 31.2673 48.183 31.8071 48.2765C32.8303 48.4478 33.8971 47.8378 33.5243 47.2927ZM29.1465 49.0578C28.7583 49.3381 29.347 49.6366 29.8894 49.7145C30.8328 49.8702 31.7763 49.6029 31.5449 49.2602C31.2981 48.8553 29.7506 48.6814 29.1465 49.0578ZM49.3393 25.0266C49.5398 24.4634 48.7351 22.4179 48.4267 22.6827C48.365 22.7139 48.365 22.7606 48.365 22.854C48.3341 23.4329 48.658 24.2453 48.892 24.6503C49.077 25.0422 49.2776 25.198 49.3393 25.0266ZM48.9382 27.1837C49.1079 26.2285 48.4267 24.7619 48.0231 25.1668C47.9459 25.2447 47.9151 25.3381 47.8842 25.416C47.7454 26.1506 48.0565 26.9319 48.2878 27.2771C48.5655 27.7132 48.8611 27.6821 48.9382 27.1837ZM47.203 30.3375C47.622 30.7761 48.0873 30.3868 48.149 29.5588C48.1644 28.5101 47.5758 27.7132 47.0796 28.1986C47.0025 28.292 46.9408 28.4011 46.91 28.5101C46.6632 29.2602 46.9408 30.0104 47.203 30.3375ZM45.7506 33.6522C46.3367 34.0883 47.0025 33.2603 46.8483 32.2453C46.7403 31.355 46.059 31.0565 45.5938 31.7288C45.5629 31.7755 45.5166 31.8689 45.4858 31.9157C45.1465 32.7281 45.4241 33.4316 45.7506 33.6522ZM45.2236 35.3706C45.0231 34.7606 44.2647 34.5581 43.7223 35.5107C43.3213 36.3388 43.5989 36.9488 43.9382 37.1201C44.6812 37.4471 45.5475 36.292 45.2236 35.3706ZM41.6657 39.1188C41.2004 39.9468 41.5089 40.4478 41.9125 40.5257C42.748 40.7281 43.7223 39.5575 43.3675 38.7761C43.149 38.2285 42.2827 38.1973 41.6657 39.1188ZM39.6837 43.7911C40.5963 43.8534 41.6812 42.6983 41.293 42.0571C40.9999 41.6678 40.0565 41.7145 39.3752 42.5893C38.8945 43.3706 39.2673 43.7755 39.6837 43.7911ZM39.095 45.1824C38.802 44.7749 37.658 44.9799 37.0385 45.6833C36.5423 46.3063 37.0076 46.5737 37.4858 46.5737C38.4318 46.5425 39.4678 45.6522 39.095 45.1824ZM34.856 48.0429C34.4704 48.4789 34.9794 48.6191 35.383 48.6191C35.3984 48.6191 35.4601 48.6191 35.4909 48.6191C36.4035 48.5412 37.3778 47.9624 37.0848 47.6353C36.8688 47.355 35.5526 47.464 34.856 48.0429ZM32.9999 49.6366C32.7506 49.8391 32.9999 49.9014 33.185 49.917C33.2621 49.917 33.4626 49.917 33.7737 49.9014C34.64 49.8079 35.5218 49.4627 35.3521 49.3225C35.1799 49.1201 33.6015 49.2602 32.9999 49.6366ZM49.5706 28.3076C49.4781 28.3388 49.4472 28.4634 49.4318 28.5412C49.3084 29.1201 49.4318 29.9325 49.5398 30.3063C49.6477 30.6516 49.8046 30.7917 49.8817 30.5893C50.1439 30.0416 49.8817 28.1675 49.5706 28.3076ZM48.7968 30.854C48.6889 30.9475 48.6272 31.0876 48.5963 31.1681C48.365 31.8378 48.5192 32.5568 48.658 32.8242C48.8611 33.198 49.077 33.1357 49.2004 32.6814C49.4781 31.8378 49.1696 30.5737 48.7968 30.854ZM47.5912 33.7768C47.4832 33.8547 47.4524 33.9793 47.4061 34.0571C47.1105 34.7606 47.2519 35.3706 47.4524 35.5886C47.7917 35.9624 48.2878 35.3861 48.3187 34.5581C48.3341 33.8079 47.9614 33.3693 47.5912 33.7768ZM45.8894 37.1201C45.5475 37.8547 45.7197 38.3375 45.9665 38.4491C46.5089 38.6827 47.203 37.6678 46.9716 36.9176C46.8483 36.4945 46.3367 36.3388 45.8894 37.1201ZM44.2801 41.2914C44.9768 41.3381 45.766 40.183 45.3932 39.6976C45.1927 39.4017 44.604 39.464 44.1413 40.183C43.7686 40.8242 43.9382 41.2602 44.2801 41.2914ZM43.7223 42.4647C43.4909 42.2596 42.748 42.4179 42.2056 43.1655C41.8046 43.7443 42.0359 44.0273 42.4549 43.9624C43.1644 43.8534 44.1413 42.8384 43.7223 42.4647ZM40.2107 45.7924C39.8071 46.3063 40.1799 46.3375 40.4267 46.3063C40.4884 46.3063 40.5809 46.2752 40.6272 46.2596C41.3701 46.0571 42.3135 45.2447 41.9742 45.0111C41.712 44.8397 40.766 45.1512 40.2107 45.7924ZM38.3521 47.8066C38.1207 48.074 38.3213 48.1052 38.4626 48.1052C38.5398 48.074 38.7249 48.0429 38.9716 47.9624C39.7454 47.6976 40.5501 47.1188 40.3804 47.0098C40.2107 46.854 38.9099 47.2927 38.3521 47.8066ZM49.5089 33.6055C49.4472 33.6366 49.4318 33.7456 49.3701 33.8391C49.2004 34.353 49.2004 34.9786 49.2004 35.2771C49.2313 35.3706 49.2621 35.6198 49.3084 35.5107C49.5089 35.2771 49.8046 33.5406 49.5089 33.6055ZM48.658 35.7599C48.5655 35.8534 48.4884 35.9624 48.4575 36.0584C48.2261 36.5724 48.257 37.0889 48.3187 37.2914C48.3958 37.4939 48.5655 37.416 48.7043 37.0111C48.9691 36.3388 48.9382 35.5886 48.658 35.7599ZM47.2827 38.4179C47.0333 38.9475 47.0796 39.3238 47.2184 39.3861C47.5449 39.5575 48.0231 38.6827 47.9151 38.1662C47.8534 37.9014 47.5912 37.8702 47.2827 38.4179ZM45.9357 40.793C45.658 41.307 45.766 41.5094 45.9974 41.4627C46.4627 41.3693 47.0488 40.4166 46.7403 40.2453C46.6323 40.1519 46.2904 40.2765 45.9357 40.793ZM44.4498 43.0409C44.1722 43.5107 44.3418 43.5419 44.4806 43.5107C44.5115 43.5107 44.604 43.4796 44.6503 43.4484C45.1465 43.1967 45.8277 42.3842 45.5629 42.2907C45.3932 42.244 44.8534 42.527 44.4498 43.0409ZM42.9177 45.0734C42.7171 45.3225 42.7943 45.3537 42.8868 45.3225C42.9177 45.3225 43.0565 45.307 43.3213 45.1201C43.7994 44.8086 44.4806 44.1519 44.3418 44.0896C44.2339 44.0584 43.3984 44.5257 42.9177 45.0734Z" fill="white"/>
<path d="M23.4371 27.3861C24.3805 27.2459 24.6736 26.4023 24.581 25.8546C24.3805 24.793 23.0335 24.4166 22.3523 25.2758C21.7044 26.0882 22.2134 27.4172 23.4371 27.3861ZM27.3214 35.4484C28.3574 35.7131 29.3008 34.6048 28.6659 33.4782C28.0952 32.6502 27.2134 32.7281 26.779 33.0733C25.8972 33.7456 26.2366 35.1836 27.3214 35.4484ZM25.0926 31.5418C26.0978 31.7754 26.9795 30.7761 26.4397 29.621C25.8972 28.7125 25.0155 28.7774 24.5502 29.0577C23.5759 29.73 23.9461 31.2926 25.0926 31.5418ZM27.4602 39.464C26.8715 38.6826 25.9589 38.7761 25.5245 39.0876C24.6736 39.6976 25.0463 40.9643 26.1286 41.2602C27.2134 41.5094 28.1569 40.5256 27.4602 39.464ZM23.7764 37.6521C24.7816 37.8546 25.635 36.8397 25.0155 35.7131C24.4114 34.8384 23.5296 34.9318 23.0952 35.2459C22.2134 35.9156 22.6479 37.4159 23.7764 37.6521ZM21.4397 33.6833C22.4165 33.9169 23.2674 32.8708 22.6942 31.6976C22.1517 30.7761 21.27 30.8228 20.8381 31.168C19.9538 31.8377 20.3265 33.4315 21.4397 33.6833ZM19.306 29.5899C20.2186 29.7923 21.1003 28.7125 20.6196 27.5574C20.1569 26.6048 19.306 26.6671 18.8715 27.0097C17.9898 27.7131 18.2674 29.3225 19.306 29.5899ZM17.5245 25.4782C18.36 25.6521 19.306 24.6191 18.9641 23.5107C18.6093 22.7138 17.8201 22.7917 17.3857 23.1369C16.4731 23.8377 16.581 25.2758 17.5245 25.4782ZM28.6659 47.181C28.126 46.6826 27.2443 46.6826 26.779 46.854C26.0978 47.0876 26.1286 47.6664 26.8098 47.9779C27.7841 48.4789 29.1157 48.1051 28.8047 47.4172C28.7738 47.3238 28.7276 47.2303 28.6659 47.181ZM24.7816 45.6833C25.7584 46.1349 26.779 45.6521 26.5014 44.8708C26.4397 44.7436 26.3754 44.6346 26.3291 44.5723C25.7276 43.9156 24.8767 43.9156 24.4422 44.1207C23.7301 44.4633 23.8998 45.3069 24.7816 45.6833ZM22.6633 42.7917C23.6993 43.1655 24.4731 42.353 23.9461 41.4782C23.9307 41.4315 23.8998 41.4004 23.8998 41.3692C23.2983 40.5879 22.4782 40.5879 22.0438 40.8241C21.3008 41.2913 21.6736 42.4335 22.6633 42.7917ZM21.4705 37.73C20.8998 36.8708 20.0952 36.8864 19.7224 37.1512C18.9332 37.73 19.4756 39.1992 20.5579 39.4017C21.3625 39.573 22.1055 38.8072 21.4705 37.73ZM19.2134 33.7767C18.671 32.8708 17.9281 32.9331 17.5862 33.2602C16.815 33.9169 17.2931 35.4795 18.3291 35.682C19.072 35.791 19.7841 34.9318 19.2134 33.7767ZM16.3034 31.7443C16.9846 31.8377 17.6659 30.9163 17.1852 29.73C16.7353 28.8397 16.0412 28.9176 15.6993 29.2913C14.9872 30.0104 15.3908 31.6353 16.3034 31.7443ZM14.617 27.8845C15.2674 27.8845 15.8998 26.8072 15.5913 25.8079C15.252 24.9954 14.617 25.1979 14.2751 25.6054C13.563 26.4023 13.797 27.8845 14.617 27.8845ZM13.4242 22.5113C12.7584 23.3238 12.7276 24.5568 13.3934 24.4945C13.9666 24.4477 14.7096 23.3394 14.5245 22.449C14.3368 21.8079 13.7661 22.1038 13.4242 22.5113Z" fill="white"/>
<path d="M12.697 21.7923C13.1623 21.7612 14.0749 20.51 14.0749 19.791C13.9824 19.3238 13.4708 19.6976 13.1315 20.1363C12.5274 20.8864 12.2806 21.839 12.697 21.7923ZM27.0107 49.6677C26.5325 49.3381 25.6353 49.229 25.1855 49.1979C24.751 49.1979 24.5196 49.2913 24.643 49.4315C25.0158 49.8702 27.1803 50.1817 27.1186 49.8079C27.1186 49.7456 27.0723 49.6989 27.0107 49.6677Z" fill="white"/>
<path d="M25.1854 48.183C25.1546 48.1051 25.0929 48.0091 25.0157 47.9624C24.4733 47.464 23.6378 47.355 23.2368 47.3861C22.7252 47.4173 22.6173 47.6976 22.9875 48.0091C23.7304 48.6191 25.3242 48.7592 25.1854 48.183ZM23.0337 45.8858C23.0183 45.7612 22.9258 45.6522 22.8641 45.5561C22.3216 44.9487 21.5324 44.8086 21.1623 44.9176C20.5582 45.0733 20.6353 45.6522 21.3319 46.1038C22.2137 46.6515 23.206 46.5425 23.0337 45.8858ZM19.6764 43.6509C20.4965 43.9935 21.1006 43.5418 20.7587 42.8228C20.7278 42.7605 20.6661 42.6671 20.6353 42.6204C20.0954 41.9169 19.3525 41.8079 19.0106 41.9792C18.3294 42.2596 18.733 43.2771 19.6764 43.6509ZM16.9386 38.6827C16.2728 39.1499 16.8461 40.4789 17.7895 40.6814C18.4399 40.793 18.9643 40.2453 18.4399 39.2927C17.8975 38.5113 17.2471 38.449 16.9386 38.6827ZM16.3654 35.682C15.8692 34.8384 15.2677 34.9007 15.0183 35.1836C14.4168 35.8222 14.9566 37.2446 15.8229 37.3537C16.3808 37.416 16.8461 36.6969 16.3654 35.682ZM13.3319 31.6353C12.8229 32.3855 13.2702 33.8858 13.9823 33.8546C14.5093 33.8391 14.9258 32.9954 14.5093 31.9468C14.1057 31.1499 13.5633 31.2615 13.3319 31.6353ZM12.4193 30.4179C12.9309 30.3712 13.3011 29.2602 13.0234 28.3699C12.7278 27.6197 12.2805 27.9001 12.0492 28.3076C11.5839 29.1823 11.8152 30.5113 12.4193 30.4179ZM11.3371 25.4471C11.3062 25.4782 11.3062 25.5094 11.2754 25.5431C10.8718 26.4023 10.9026 27.5107 11.3062 27.4484C11.6764 27.3861 12.2497 26.1817 12.08 25.3069C11.8769 24.7307 11.5376 25.0733 11.3371 25.4471ZM10.733 25.0733C10.9952 25.0266 11.6456 23.6041 11.6456 22.854C11.5839 22.5581 11.4142 22.745 11.3371 22.8851C11.2445 22.963 11.1648 23.1369 11.026 23.4328C10.6713 24.2141 10.5324 25.1356 10.733 25.0733ZM19.9849 46.9786C19.6147 46.8851 19.4759 46.9474 19.5839 47.0876C19.9232 47.6041 21.6738 48.3387 21.7047 47.9624C21.7047 47.9001 21.6121 47.8066 21.5479 47.7599C21.1314 47.355 20.3885 47.0564 19.9849 46.9786ZM19.8923 46.0259C19.8769 45.9014 19.7844 45.7923 19.7227 45.6989C19.2445 45.1823 18.5941 44.9487 18.2677 44.9176C17.8666 44.9176 17.7895 45.1512 18.098 45.4783C18.7021 46.135 19.954 46.5113 19.8923 46.0259ZM17.99 43.5418C17.9592 43.4017 17.8975 43.3082 17.8204 43.2148C17.3859 42.6204 16.7818 42.4335 16.5042 42.4958C15.9952 42.6204 16.242 43.3082 16.954 43.7755C17.6198 44.1674 18.1288 44.0272 17.99 43.5418ZM15.5916 41.4004C16.0414 41.5094 16.3808 41.1356 15.9618 40.3543C15.499 39.6976 14.9875 39.6041 14.7561 39.7755C14.3062 40.1051 14.8486 41.2291 15.5916 41.4004ZM13.1931 36.8864C12.7921 37.4627 13.3628 38.745 13.9823 38.6515C14.3371 38.6204 14.5864 38.0727 14.1828 37.2914C13.8127 36.6658 13.3936 36.6035 13.1931 36.8864ZM12.4502 35.791C12.7587 35.7132 12.9618 34.9786 12.6198 34.1505C12.3114 33.5094 11.9386 33.5405 11.7844 33.9481C11.5376 34.6048 11.9386 35.9624 12.4502 35.791Z" fill="white"/>
<path d="M11.3677 31.0564C11.103 30.4802 10.8716 30.7761 10.7945 31.0253C10.7636 31.0876 10.7328 31.1499 10.7328 31.1992C10.5323 31.9467 10.7636 33.1979 11.1338 32.9954C11.414 32.8708 11.6145 31.9 11.3677 31.0564ZM10.5323 28.4633C10.4243 28.1051 10.2983 28.2608 10.2521 28.401C10.1904 28.4789 10.1287 28.6346 10.0978 28.9175C9.959 29.73 10.0207 30.7138 10.2212 30.6203C10.4243 30.5425 10.7019 29.2134 10.5323 28.4633Z" fill="white"/>
<path fill-rule="evenodd" clip-rule="evenodd" d="M17.0463 45.0734C17.108 45.1201 17.1851 45.2447 17.1542 45.307C17.0771 45.5562 15.7301 44.4634 15.6221 44.1675C15.5912 44.0584 15.7918 44.1519 15.8997 44.1986C16.1337 44.3232 16.6735 44.6347 17.0463 45.0734ZM14.6478 42.8696C14.3856 42.5581 14.3522 42.3842 14.5861 42.4179C14.8175 42.4335 15.2519 42.6671 15.5912 43.1344C15.6375 43.2148 15.7301 43.3394 15.7301 43.4484C15.7609 43.7755 15.0951 43.4173 14.6478 42.8696ZM14.1362 40.9332C14.4473 41.4783 14.275 41.6833 14.0437 41.6055C13.563 41.4627 13.054 40.588 13.3316 40.4166C13.4704 40.3388 13.8123 40.4478 14.1362 40.9332ZM12.7918 38.6048C13.054 39.1499 12.9923 39.4952 12.8535 39.5575C12.527 39.7288 12.018 38.745 12.1568 38.2752C12.2185 38.0727 12.4807 38.0727 12.7918 38.6048ZM11.5681 36.1363C11.8457 36.7437 11.8149 37.3848 11.6761 37.4939C11.4447 37.6989 11.1028 36.697 11.1337 36.1207C11.1337 36.0584 11.1645 35.9961 11.1645 35.9312C11.1979 35.7911 11.3367 35.6821 11.5681 36.1363ZM10.5938 33.8079C10.8406 34.4958 10.8252 35.4484 10.7326 35.5419C10.6247 35.6509 10.3933 34.6983 10.3599 34.1194C10.329 33.8079 10.3599 33.6834 10.3933 33.6366C10.4241 33.5406 10.4704 33.5094 10.5938 33.8079Z" fill="white"/>
</g>
<defs>
<clipPath id="clip0_1772_9461">
<rect width="40" height="40" fill="white" transform="translate(10 10)"/>
</clipPath>
</defs>
</svg>
