<svg width="60" height="60" viewBox="0 0 60 60" fill="none" xmlns="http://www.w3.org/2000/svg">
<rect width="60" height="60" fill="black"/>
<g clip-path="url(#clip0_1534_8435)">
<path d="M21.0818 25.7589V33.8176L21.6537 33.8989V34.3514H18.8092V33.8989L19.4324 33.8176V30.2073H15.2883V33.8176L15.9041 33.8989V34.3514H13.0695V33.8989L13.658 33.8176V25.7706L13.0695 25.6902V25.2343H15.9041V25.6902L15.2883 25.7714V29.3784H19.4324V25.7714L18.8092 25.6902V25.2343H21.6537V25.6902M24.6018 26.1825C24.6018 26.7676 24.1999 27.2019 23.6437 27.2019C23.0768 27.2019 22.6856 26.8082 22.6856 26.2231C22.6856 25.6678 23.0768 25.2343 23.6437 25.2343C24.1999 25.2244 24.6018 25.6578 24.6018 26.1825ZM24.4054 33.869L24.9624 33.9494V34.3514H22.1908V33.9494L22.7478 33.869V28.2181L22.1908 28.1369V27.7208H24.4054V33.869ZM25.516 33.9445L26.0631 33.8616V25.725L25.516 25.6429V25.2343H27.7207V33.8624L28.2876 33.9445V34.3531H25.516M31.8649 27.9868H33.3352V28.5496H31.8649V32.4161C31.8649 33.3751 32.0472 33.6776 32.9225 33.6776C33.2523 33.6776 33.5308 33.6776 33.7985 33.6171V34.0398C32.9946 34.3224 32.3249 34.4335 31.7579 34.4335C30.4907 34.4335 30.208 33.869 30.208 32.7791V28.5496H28.7485V27.9868H30.2072V26.8381L31.8649 26.364M38.9406 31.0958C38.9406 29.0262 38.343 28.1236 37.3849 28.1236C36.4466 28.1236 35.8598 28.9839 35.8598 31.0958C35.8598 33.1654 36.4566 34.0249 37.3849 34.0249C38.3844 34.0356 38.9406 33.2076 38.9406 31.0958ZM40.7541 31.138C40.7541 33.1761 39.4246 34.5346 37.3434 34.5346C35.3236 34.5346 34.0455 33.6428 34.0455 31.138C34.0455 29.037 35.375 27.6246 37.457 27.6246C39.5075 27.6246 40.7541 28.8878 40.7541 31.1389V31.138ZM48.1613 33.9494V34.3514H45.3715V33.9494L45.955 33.869V29.9454C45.955 28.9673 45.5687 28.5231 44.8012 28.5231C44.4482 28.5231 43.8729 28.7651 43.4685 29.037V33.8591L44.0545 33.9395V34.3514H41.2538V33.9395L41.8108 33.8591V28.2504L41.2538 28.17V27.7465H43.4685V28.6035C44.163 28.0589 44.8427 27.6255 45.7867 27.6255C47.0415 27.6255 47.6126 28.3416 47.6126 29.7531V33.879" fill="#FEFEFD"/>
<path d="M48.4414 23.1621H11.973C11.2864 23.1621 10.7297 23.7187 10.7297 24.4054V36.009C10.7297 36.6956 11.2864 37.2522 11.973 37.2522H48.4414C49.1281 37.2522 49.6847 36.6956 49.6847 36.009V24.4054C49.6847 23.7187 49.1281 23.1621 48.4414 23.1621Z" stroke="#FEFEFD"/>
</g>
<defs>
<clipPath id="clip0_1534_8435">
<rect width="41" height="16" fill="white" transform="translate(10 22)"/>
</clipPath>
</defs>
</svg>
