<svg width="60" height="60" viewBox="0 0 60 60" fill="none" xmlns="http://www.w3.org/2000/svg">
<rect width="60" height="60" fill="#33A457"/>
<path fill-rule="evenodd" clip-rule="evenodd" d="M11.0554 47.7409C16.9494 41.9909 22.636 36.0276 24.9521 30.2792C25.7922 28.1498 26.2139 25.5939 25.7922 22.6131C24.9521 17.9277 22.8468 17.5012 21.5817 17.7144C20.9491 17.7144 19.4764 18.5676 19.2655 20.2704C18.4255 18.7791 16.1093 17.7144 14.4224 19.4173C14.4224 19.4173 12.7389 20.6952 13.5823 23.4645C11.6879 22.8246 9.79355 24.1043 9.37182 25.8072C8.9501 27.7233 9.79355 29.4278 12.1097 29.8527C14.8441 30.4925 18.4255 34.1115 15.055 41.1395C14.2149 43.0573 11.0554 46.4647 10.6336 46.8895C10.4228 47.3161 10.6336 47.9542 11.0554 47.7409Z" fill="white"/>
<path fill-rule="evenodd" clip-rule="evenodd" d="M35.0567 12.6042C35.0567 12.6042 32.3188 12.6043 32.1079 15.7983C32.1079 15.7983 29.581 13.4557 27.4757 15.5851C26.8465 16.2249 27.0573 17.0763 27.2682 17.9277C27.2682 17.9277 31.8971 25.3806 26.2139 33.8982V34.1115C25.3704 35.1762 25.3704 35.6027 26.6356 34.538L28.7409 32.8335C39.478 24.1026 44.5286 22.8246 44.5286 22.8246C45.1612 22.6114 45.5829 22.3981 46.0047 21.9732C46.4264 21.1201 45.7938 20.2687 45.1612 19.8421C45.1612 19.8421 44.3211 19.204 42.8451 19.4156C42.8451 19.4156 44.7395 17.0729 42.6342 15.1568C42.6342 15.1568 40.529 13.6655 38.4237 15.3701C38.4237 15.3701 37.7945 12.6042 35.0567 12.6042ZM23.6869 40.9279C24.7412 40.2881 25.5813 39.6499 26.6356 39.2234C34.6349 35.1762 38.002 38.5835 38.002 38.5835C40.7398 40.2864 39.8998 43.2689 39.8998 43.2689C42.4234 43.9087 44.1103 42.629 44.7395 41.5643C45.3721 40.0731 45.1612 38.7968 45.1612 38.7968C48.95 39.2234 49.7935 36.0276 49.7935 36.0276C50.4261 32.8335 47.4774 31.7688 47.4774 31.7688C51.2661 29.8527 50.0043 26.4453 47.4774 26.232C45.1612 26.0187 42.8451 27.0834 40.9507 28.1481C37.7945 29.6394 29.1626 35.8143 23.2652 40.4996C22.636 41.1395 22.8468 41.566 23.6869 40.9279Z" fill="white"/>
</svg>
