<svg xmlns="http://www.w3.org/2000/svg" viewBox="0 0 100 100">
  <path fill="#A8A9AD" d="M42.654 37.891c0-4.18 2.972-7.606 7.775-9.307C56.083 26.607 69.961 25.78 74.565 20v9.81c-4.253 5.303-18.584 5.378-24.136 7.33-4.273 1.502-5.902 4.053-6.8 5.33-.4.549-.476.652-.703.652-.2 0-.272-.176-.272-.352v-4.879Z"/>
  <path fill="#3E000F" d="M32.163 80c-5.472 0-9.17-7.458-2.827-15.013 2.131-2.533 4.625-4.812 6.841-7.203 4.234-4.57 5.542-8.158 6.338-11.554.045-.202.173-.442.46-.442.285 0 .412.24.457.442.796 3.396 2.104 6.983 6.335 11.554 2.219 2.39 4.716 4.67 6.84 7.203C62.956 72.542 59.254 80 53.785 80h-21.62Z"/>
</svg>