<svg width="60" height="60" viewBox="0 0 60 60" fill="none" xmlns="http://www.w3.org/2000/svg">
<rect width="60" height="60" fill="white"/>
<g clip-path="url(#clip0_168_260)">
<path d="M21.8289 18.0543C31.1403 8.77001 42.4389 6.36178 46.9589 12.6875C51.4815 19.0159 47.5072 31.8035 38.1958 41.0851C28.8817 50.4347 17.5858 52.8402 12.9953 46.4464C8.54587 40.0526 12.5202 27.3303 21.8289 18.0543Z" fill="#F06321"/>
<path d="M46.9589 12.6875C48.5334 15.0249 49.0139 18.1224 48.6718 21.6257C47.4394 26.3687 44.426 31.4603 39.9061 35.8572C31.5529 44.0409 21.5547 46.1031 17.3795 40.5348C13.3373 34.9637 16.7633 23.8269 24.9128 15.7169C25.9389 14.7497 26.9651 13.8562 27.994 13.1016C35.7309 8.14889 43.3999 7.74025 46.9589 12.6875Z" fill="#AE282E"/>
<path d="M39.7704 14.1313V14.3384C39.6998 15.5071 39.0157 16.9509 37.7832 18.1878C35.9373 19.9749 33.4723 20.6614 32.4407 19.6343C31.2788 18.5337 31.9656 16.1255 33.8144 14.1995C35.7309 12.3442 38.1959 11.7258 39.222 12.8264C39.5641 13.1697 39.7704 13.581 39.7704 14.1313ZM32.6498 45.6891C28.2655 48.9881 23.7483 50.6417 19.364 49.9552C21.2127 50.0233 22.7221 47.9583 23.9546 45.2096C25.187 42.39 25.8711 39.7802 26.4874 37.3011C27.3778 33.3836 27.4457 30.6348 26.9652 30.0164C26.2132 29.0493 24.5708 29.2591 22.6515 30.3597C21.6932 30.91 20.4608 30.5667 21.9023 28.7796C23.4062 26.9925 29.2238 22.7264 31.2788 22.0398C33.608 21.4214 36.2087 22.315 35.321 24.8567C34.6994 26.7119 26.6231 47.8902 32.6498 45.6891Z" fill="white"/>
</g>
<defs>
<clipPath id="clip0_168_260">
<rect width="38" height="42" fill="white" transform="translate(11 9)"/>
</clipPath>
</defs>
</svg>
