<svg width="60" height="60" viewBox="0 0 60 60" fill="none" xmlns="http://www.w3.org/2000/svg">
<rect width="60" height="60" fill="#00ACEC"/>
<g clip-path="url(#clip0_1772_9473)">
<path d="M10 12H10.0155C10.013 12.0054 10.0052 12.0136 10 12.019V12Z" fill="white"/>
<path d="M11.5045 13.8444C12.9372 12.2452 15.3612 11.7771 17.2431 12.7383C19.0797 13.616 20.2917 15.7418 20.1163 17.8565C20.002 19.8653 18.689 21.6986 16.9082 22.4257C16.8763 28.7001 16.9002 34.9773 16.8922 41.2545C16.7726 42.9903 18.1547 44.6453 19.8266 44.6843C21.4985 44.8208 23.0667 43.2856 23.056 41.5276C23.1012 33.1831 23.0693 24.833 23.1092 16.4857C23.1225 14.8614 24.09 13.3095 25.4934 12.6241C26.9048 11.8885 28.6829 12.1226 29.9136 13.134C35.9232 17.8955 41.9302 22.657 47.9319 27.4297C48.91 28.1819 49.5692 29.3744 49.6675 30.6449C49.8137 32.2107 49.0642 33.7793 47.8495 34.6792C44.8965 37.0112 41.9648 39.3711 38.9958 41.678C39.2935 43.1212 39.2085 44.6982 38.427 45.9659C37.2788 48.0081 34.7271 49.0028 32.5875 48.2227C30.5621 47.5596 29.0843 45.4309 29.1268 43.2048C29.0976 40.9815 30.5807 38.8668 32.6034 38.212C33.9856 37.7245 35.5298 37.9724 36.7844 38.7191C39.7693 36.3704 42.7436 34.005 45.7125 31.634C46.1325 31.4055 46.2281 30.7563 45.7976 30.4805C39.8171 25.6883 33.7995 20.9435 27.7952 16.182C27.3938 15.7028 26.5752 16.0845 26.7001 16.7337C26.6762 24.9946 26.6841 33.2527 26.6602 41.5136C26.6629 43.9264 25.3685 46.2696 23.383 47.4843C21.3868 48.752 18.7501 48.7855 16.7248 47.5735C14.6648 46.3866 13.296 43.9989 13.2986 41.5303C13.28 35.1584 13.3173 28.7865 13.2854 22.4118C12.0467 21.8797 10.9915 20.8599 10.4865 19.5477C9.70774 17.6559 10.1118 15.3071 11.5045 13.8444ZM14.3884 15.7446C13.0701 16.2656 12.9079 18.3858 14.1306 19.1186C15.2496 19.9461 16.964 18.9793 16.9374 17.55C17.0225 16.2126 15.5446 15.1595 14.3884 15.7446ZM33.5284 41.4189C32.2047 41.8452 31.8938 43.8986 33.026 44.7316C34.0626 45.6678 35.8568 44.8709 35.9578 43.4472C36.1704 42.0987 34.7378 40.9007 33.5284 41.4189Z" fill="white"/>
</g>
<defs>
<clipPath id="clip0_1772_9473">
<rect width="40" height="37" fill="white" transform="translate(10 12)"/>
</clipPath>
</defs>
</svg>
