<svg width="60" height="60" viewBox="0 0 60 60" fill="none" xmlns="http://www.w3.org/2000/svg">
<rect width="60" height="60" fill="#FFB441"/>
<g clip-path="url(#clip0_1403_8829)">
<path d="M9.40918 29.104H10.5579V35.6248H9.40918V29.104Z" fill="white"/>
<path d="M12.4854 25.2083H13.6536V35.6249H12.5048L12.4854 25.2083Z" fill="#616161"/>
<path d="M15.6396 25.2083H16.8079V35.6249H15.6591L15.6396 25.2083Z" fill="#616161"/>
<path d="M23.8557 35.6249H22.7069V34.6249H22.6874C22.3954 35.3124 21.6166 35.7916 20.682 35.7916C19.4943 35.7916 18.4624 35.0416 18.4624 33.2916V29.0833H19.6306V32.9374C19.6306 34.1666 20.2926 34.6249 21.013 34.6249C21.9865 34.6249 22.7069 33.9583 22.7069 32.4583V29.1041H23.8751V35.6249H23.8557Z" fill="#616161"/>
<path d="M25.3354 29.1042H26.4258V30.125H26.4453C26.5621 29.7292 27.302 28.9375 28.3923 28.9375C29.2879 28.9375 29.911 29.3542 30.3004 30.1458C30.7092 29.3542 31.5075 28.9375 32.2279 28.9375C34.0971 28.9375 34.5449 30.375 34.5449 31.8333V35.625H33.3961V32C33.3961 31 33.2014 30.1042 32.0722 30.1042C30.9429 30.1042 30.5145 30.9167 30.5145 32.0833V35.6458H29.3463V32.2292C29.3463 31 29.1711 30.1042 28.0613 30.1042C27.2241 30.1042 26.4842 30.7708 26.4842 32.25V35.6458H25.3549L25.3354 29.1042Z" fill="#616161"/>
<path d="M36.1416 29.104H37.3098V35.6248H36.1416V29.104Z" fill="#616161"/>
<path d="M39.0038 29.1042H40.1525V30.1042H40.1721C40.4641 29.4167 41.2429 28.9375 42.1775 28.9375C43.3651 28.9375 44.3971 29.6875 44.3971 31.4375V35.6458H43.2289V31.7917C43.2289 30.5625 42.5669 30.1042 41.8465 30.1042C40.873 30.1042 40.1526 30.7708 40.1526 32.2708V35.625H38.9844V29.1042H39.0038Z" fill="#616161"/>
<path d="M49.829 32.479V32.8957C49.829 33.7707 49.3812 34.7915 48.0962 34.7915C47.2979 34.7915 46.7917 34.479 46.7917 33.729C46.7917 32.6873 48.1351 32.479 49.2254 32.479H49.829ZM46.6164 30.6665C47.0448 30.3123 47.4731 29.9165 48.3493 29.9165C49.3423 29.9165 49.8096 30.6248 49.8096 31.2915V31.5623H48.9529C47.1032 31.5623 45.604 32.1457 45.604 33.8123C45.604 35.0832 46.5775 35.7707 47.7068 35.7707C48.6413 35.7707 49.3228 35.4582 49.8485 34.604H49.868C49.868 34.9373 49.8875 35.2707 49.9069 35.604H50.9389C50.8999 35.2498 50.8804 34.8748 50.8804 34.4165V31.0832C50.8804 29.9582 50.1406 28.9165 48.3298 28.9165C47.4731 28.9165 46.558 29.229 45.9155 29.8748L46.6164 30.6665Z" fill="#616161"/>
<path d="M9.97362 25.979C9.54528 25.979 9.19482 26.354 9.19482 26.8123C9.19482 27.2707 9.54528 27.6457 9.97362 27.6457C10.402 27.6457 10.7524 27.2707 10.7524 26.8123C10.7524 26.354 10.402 25.979 9.97362 25.979Z" fill="white"/>
</g>
<defs>
<clipPath id="clip0_1403_8829">
<rect width="42" height="11" fill="white" transform="translate(9 25)"/>
</clipPath>
</defs>
</svg>
