<svg width="60" height="60" viewBox="0 0 60 60" fill="none" xmlns="http://www.w3.org/2000/svg">
<rect width="60" height="60" fill="#A0005A"/>
<g clip-path="url(#clip0_1772_9472)">
<path d="M12.5353 26.4086H10V36.8745H12.5353V26.4086Z" fill="white"/>
<path d="M19.2466 26.1947C22.2294 26.1947 24.4664 28.4832 24.4664 31.5346C24.4664 34.586 22.2294 36.8745 19.2466 36.8745C16.2639 36.8745 14.0269 34.586 14.0269 31.5346C14.0269 28.4832 16.2639 26.1947 19.2466 26.1947ZM19.2466 28.7884C17.6661 28.7884 16.5622 29.9155 16.5622 31.5346C16.5622 33.1537 17.6654 34.2809 19.2466 34.2809C20.8279 34.2809 21.9311 33.1516 21.9311 31.5346C21.9311 29.9177 20.8272 28.7884 19.2466 28.7884Z" fill="white"/>
<path d="M32.4763 31.941L28.2538 26.4343L28.2371 26.4115H28.2364L28.235 26.41L28.2336 26.4115H25.9575V36.8746H28.4928V30.9479L33.0304 36.8746H35.1336V29.5013L32.4763 31.941Z" fill="white"/>
<path d="M39.756 26.4078H37.2207V36.8738H39.756V26.4078Z" fill="white"/>
<path d="M41.0532 35.2626L42.6352 33.3305C43.6603 34.154 44.7754 34.5888 45.9601 34.5888C46.7358 34.5888 47.2145 34.3186 47.2145 33.8695V33.8367C47.2145 33.3875 46.8075 33.163 45.4026 32.8186C43.2213 32.3089 41.5376 31.6779 41.5376 29.5391V29.5091C41.5376 27.5621 43.0457 26.1541 45.505 26.1541C47.2473 26.1541 48.6097 26.6331 49.722 27.5471L48.301 29.6004C47.3644 28.9117 46.3392 28.5674 45.4312 28.5674C44.7433 28.5674 44.337 28.8525 44.337 29.2411V29.2739C44.337 29.753 44.7586 29.959 46.1929 30.2927C48.508 30.8309 50 31.7136 50 33.5579V33.5879C50 35.7267 48.3449 37.0029 45.8563 37.0029C44.0408 37 42.3272 36.4161 41.0532 35.2626Z" fill="white"/>
<path d="M32.4927 31.4989L34.7437 29.3893C35.3381 28.8546 35.6789 28.1559 35.6789 27.346V27.3361L32.4927 30.2719V31.4989Z" fill="#EB6E0F"/>
<path d="M32.4927 29.8307L35.2538 27.2776C35.5504 27.0122 35.7882 26.6849 35.951 26.3177C36.1139 25.9505 36.1981 25.552 36.1981 25.1488L32.4927 28.5303V29.8307Z" fill="url(#paint0_linear_1772_9472)"/>
<path d="M36.6483 23L32.4927 26.7686V28.0697L35.7019 25.1253C35.9991 24.861 36.2375 24.5344 36.4007 24.1678C36.564 23.8011 36.6484 23.4029 36.6483 23Z" fill="url(#paint1_linear_1772_9472)"/>
</g>
<defs>
<linearGradient id="paint0_linear_1772_9472" x1="32.4927" y1="27.488" x2="36.1981" y2="27.488" gradientUnits="userSpaceOnUse">
<stop stop-color="#EB6E0F"/>
<stop offset="0.7" stop-color="white"/>
</linearGradient>
<linearGradient id="paint1_linear_1772_9472" x1="32.4392" y1="25.5861" x2="36.6938" y2="25.5029" gradientUnits="userSpaceOnUse">
<stop offset="0.3" stop-color="white"/>
<stop offset="1" stop-color="#A0005A"/>
</linearGradient>
<clipPath id="clip0_1772_9472">
<rect width="40" height="14" fill="white" transform="translate(10 23)"/>
</clipPath>
</defs>
</svg>
