<svg width="60" height="60" viewBox="0 0 60 60" fill="none" xmlns="http://www.w3.org/2000/svg">
<rect width="60" height="60" fill="#023B58"/>
<g clip-path="url(#clip0_168_465)">
<path d="M36.2807 42.9678C34.2168 43.4944 32.0651 43.5268 29.9875 43.0626C27.9098 42.5984 25.9602 41.6496 24.2851 40.2876C22.6101 38.9255 21.2533 37.1857 20.3166 35.1989C19.38 33.2121 18.8879 31.0299 18.8773 28.8165C18.8773 27.0679 19.2156 25.3194 19.7568 23.7778C19.6891 24.2667 19.6891 24.7556 19.6891 25.3194C19.6215 34.9122 27.097 42.7564 36.323 43.0383L36.2807 42.9678Z" fill="#81BC3F"/>
<path d="M34.8685 44.5799C32.8046 45.1065 30.6529 45.1389 28.5752 44.6747C26.4975 44.2104 24.5479 43.2616 22.8729 41.8996C21.1979 40.5376 19.8411 38.7978 18.9044 36.811C17.9678 34.8241 17.4757 32.642 17.4651 30.4285C17.4651 28.68 17.8033 26.927 18.3403 25.3855C18.2727 25.8744 18.2727 26.3677 18.2727 26.927C18.2727 36.5198 25.6805 44.3685 34.9108 44.646L34.8685 44.5799Z" fill="#A0CC6F"/>
<path d="M33.5197 46.1917C32.4345 46.4915 31.3187 46.6542 30.1963 46.6762C28.3441 46.6861 26.5083 46.3149 24.7941 45.5841C23.08 44.8532 21.5212 43.7771 20.2072 42.4173C18.8932 41.0576 17.8498 39.441 17.1369 37.6603C16.424 35.8795 16.0556 33.9697 16.0529 32.0404C16.0529 30.2918 16.3911 28.5389 16.9281 26.9973C16.8604 27.4862 16.8604 27.9795 16.8604 28.5389C16.8738 33.1786 18.6281 37.629 21.7487 40.9397C24.8693 44.2504 29.1088 46.1589 33.562 46.2578L33.5197 46.1917Z" fill="#C0DD9E"/>
<path d="M32.1074 47.3853C30.0429 47.9128 27.8904 47.9457 25.8119 47.4816C23.7333 47.0175 21.7829 46.0684 20.1073 44.7059C18.4317 43.3433 17.0745 41.6026 16.1379 39.6148C15.2013 37.627 14.7096 35.4439 14.6998 33.2296C14.6998 31.4766 15.0381 29.7237 15.5751 28.1821C15.5074 28.6754 15.5074 29.1643 15.5074 29.7237C15.4398 39.3209 22.8519 47.1651 32.1455 47.4426L32.1074 47.3853Z" fill="#DFEDCE"/>
<path d="M30.691 48.7859C28.6271 49.3125 26.4754 49.3449 24.3977 48.8807C22.3201 48.4165 20.3704 47.4677 18.6954 46.1057C17.0204 44.7437 15.6636 43.0039 14.7269 41.017C13.7903 39.0302 13.2982 36.848 13.2876 34.6346C13.2876 32.8816 13.6259 31.1331 14.1628 29.5916C14.0952 30.0804 14.0952 30.5693 14.0952 31.1331C14.0275 40.7259 21.5073 48.5701 30.7333 48.852L30.691 48.7859Z" fill="#EBF4E1"/>
<path d="M49.7519 29.9439C49.7575 35.2068 47.7579 40.257 44.192 43.9854C40.6262 47.7138 35.7857 49.8158 30.7333 49.8298H30.2598C33.9929 48.8931 37.2652 46.5593 39.4537 43.2725C41.6421 39.9857 42.5941 35.9755 42.1282 32.005C41.6624 28.0346 39.8114 24.3812 36.9275 21.7401C34.0435 19.099 30.3281 17.6547 26.4882 17.6821C23.2815 17.68 20.1507 18.6984 17.515 20.601C14.8793 22.5035 12.8644 25.1993 11.7401 28.3275C12.1509 23.3762 14.3302 18.7656 17.847 15.4072C21.3638 12.0489 25.9623 10.1872 30.7333 10.1902C35.782 10.1925 40.6238 12.2803 44.197 15.9957C47.7701 19.7111 49.783 24.7509 49.7942 30.01L49.7519 29.9439Z" fill="white"/>
</g>
<defs>
<clipPath id="clip0_168_465">
<rect width="39" height="40" fill="white" transform="translate(11 10)"/>
</clipPath>
</defs>
</svg>
