<svg width="60" height="60" viewBox="0 0 60 60" fill="none" xmlns="http://www.w3.org/2000/svg">
<rect width="60" height="60" fill="#EFA83D"/>
<g clip-path="url(#clip0_168_348)">
<path d="M12.5928 23.6892C13.952 23.6892 15.0538 22.6002 15.0538 21.2568C15.0538 19.9134 13.952 18.8243 12.5928 18.8243C11.2337 18.8243 10.1318 19.9134 10.1318 21.2568C10.1318 22.6002 11.2337 23.6892 12.5928 23.6892Z" fill="#FEFEFD"/>
<path d="M21.2064 22.473C22.5655 22.473 23.6674 21.3839 23.6674 20.0405C23.6674 18.6971 22.5655 17.6081 21.2064 17.6081C19.8472 17.6081 18.7454 18.6971 18.7454 20.0405C18.7454 21.3839 19.8472 22.473 21.2064 22.473Z" fill="#FEFEFD"/>
<path d="M27.3587 28.5541C28.7179 28.5541 29.8197 27.465 29.8197 26.1216C29.8197 24.7782 28.7179 23.6892 27.3587 23.6892C25.9995 23.6892 24.8977 24.7782 24.8977 26.1216C24.8977 27.465 25.9995 28.5541 27.3587 28.5541Z" fill="#FEFEFD"/>
<path d="M34.7418 33.4189C36.1009 33.4189 37.2028 32.3299 37.2028 30.9865C37.2028 29.6431 36.1009 28.5541 34.7418 28.5541C33.3826 28.5541 32.2808 29.6431 32.2808 30.9865C32.2808 32.3299 33.3826 33.4189 34.7418 33.4189Z" fill="#FEFEFD"/>
<path d="M34.7418 40.7162C36.1009 40.7162 37.2028 39.6272 37.2028 38.2838C37.2028 36.9404 36.1009 35.8514 34.7418 35.8514C33.3826 35.8514 32.2808 36.9404 32.2808 38.2838C32.2808 39.6272 33.3826 40.7162 34.7418 40.7162Z" fill="#FEFEFD"/>
<path d="M47.0467 37.0676C48.4059 37.0676 49.5077 35.9785 49.5077 34.6351C49.5077 33.2917 48.4059 32.2027 47.0467 32.2027C45.6875 32.2027 44.5857 33.2917 44.5857 34.6351C44.5857 35.9785 45.6875 37.0676 47.0467 37.0676Z" fill="#FEFEFD"/>
<path d="M43.3553 43.1486C44.7145 43.1486 45.8163 42.0596 45.8163 40.7162C45.8163 39.3728 44.7145 38.2838 43.3553 38.2838C41.9961 38.2838 40.8943 39.3728 40.8943 40.7162C40.8943 42.0596 41.9961 43.1486 43.3553 43.1486Z" fill="#FEFEFD"/>
</g>
<defs>
<clipPath id="clip0_168_348">
<rect width="40" height="27" fill="white" transform="translate(10 17)"/>
</clipPath>
</defs>
</svg>
