<svg width="60" height="60" viewBox="0 0 60 60" fill="none" xmlns="http://www.w3.org/2000/svg">
<rect width="60" height="60" fill="#00548F"/>
<g clip-path="url(#clip0_150_1059)">
<path d="M11.7136 43.5233L12.7761 44.8506L12.8667 44.88L11.9866 42.936L12.7761 41.702L14.6274 44.078L13.1416 40.9026L13.8399 39.7306L16.3579 43.12L14.2336 38.9273L15.0224 37.602L17.7255 41.5193L15.4155 36.7386L16.0849 35.6586L19.061 39.7306L16.5719 34.858L17.2097 33.7466L19.9109 37.5693L17.7255 32.8226L18.3017 31.774L21.3382 35.7826L18.8477 30.6933L19.4246 29.7986L22.7642 34.1773L20.0008 28.6593L20.5468 27.8266L24.0078 32.792L24.0387 32.76L21.1853 26.6526L21.6388 25.916L25.5264 31.342L22.3081 24.558L22.7944 23.9093L27.4394 30.7853L23.4927 22.428L23.9179 21.8106L29.3523 30.108L24.7363 20.1773L25.1615 19.622L31.2633 29.49L25.9208 18.1413L26.2863 17.5873L33.1166 28.564L27.1047 15.984L27.4394 15.5213L34.3608 26.7153L28.2892 13.9493L29.8058 11.2966L50.6929 48.302H9.10242L11.7136 43.5233Z" fill="white"/>
</g>
<defs>
<clipPath id="clip0_150_1059">
<rect width="42" height="38" fill="white" transform="translate(9 11)"/>
</clipPath>
</defs>
</svg>
