<svg width="60" height="60" viewBox="0 0 60 60" fill="none" xmlns="http://www.w3.org/2000/svg">
<rect width="60" height="60" fill="black"/>
<path d="M37.8703 11.573C46.0382 14.9267 50.5712 22.6607 50.493 30.7051C50.4072 38.6788 45.265 46.0168 37.9308 48.9896C33.92 50.6166 29.4577 50.7503 25.2703 49.8535V30.14C25.2804 28.7564 26.2742 27.8332 27.4295 27.1761C29.5422 25.9779 32.3308 26.2743 34.1218 27.8445C35.745 29.2698 35.6416 31.6485 33.9137 33.0334C31.1578 35.2317 27.842 33.7548 26.5315 32.766V35.2481C26.5214 35.566 26.645 35.7299 26.8935 35.8334C29.9962 37.1047 33.8721 36.7465 36.4539 34.253C37.6294 33.1254 37.8892 31.7607 37.8892 30.1198C37.8778 24.1238 37.8829 17.5854 37.8829 11.5919L37.8703 11.573Z" fill="#F6CF43"/>
<path d="M22.7351 39.0345C22.7477 42.0993 22.7263 45.9878 22.7477 49.0337L22.0465 48.726C15.8537 45.7936 11.9021 40.8267 10.5387 34.171C8.44628 24.0482 14.7009 13.7512 24.8389 10.8894C28.1182 9.96617 31.8654 9.87662 35.3603 10.7784V25.4671L34.9454 25.2262C30.4654 22.6973 22.6809 24.482 22.7477 30.4982C22.7792 33.35 22.7477 36.2017 22.7477 39.0534L22.7351 39.0345Z" fill="#792760"/>
</svg>
