<svg width="60" height="60" viewBox="0 0 60 60" fill="none" xmlns="http://www.w3.org/2000/svg">
<rect width="60" height="60" fill="white"/>
<g clip-path="url(#clip0_150_1102)">
<path d="M51.9311 35.9319H8.06836V24.0684H51.9311V35.9319Z" fill="#231F20"/>
<path d="M8.0686 35.9319H51.9314V24.0684H8.0686V35.9319Z" stroke="black" stroke-width="0.5725"/>
<path d="M50.9445 34.9502H9.05481V25.0498H50.9445V34.9502Z" fill="#FEDD03"/>
<path d="M50.9447 25.0498H9.05505V34.9502H50.9447V25.0498Z" stroke="#FEDD03" stroke-width="0.5725"/>
<path d="M11.8347 29.2229C11.1497 28.6235 10.8519 28.0273 11.1395 27.6863C11.381 27.4461 12.3486 27.5704 13.1192 28.2861C13.8899 29.0014 13.9618 29.6661 13.8078 29.85C13.6535 30.0339 12.7186 29.9013 12.1637 29.4718C12.0196 29.3797 11.8347 29.2229 11.8347 29.2229Z" stroke="black" stroke-width="0.72"/>
<path d="M11.9168 29.2672C11.5677 28.9912 10.7764 28.2245 10.7866 27.4781C10.7866 27.2331 11.0641 26.7833 11.7424 26.8036C12.4205 26.8242 13.068 27.2227 13.9513 28.1735C14.8353 29.1244 17.1898 31.8505 17.5068 32.2112C17.9386 32.7018 18.1442 33.1516 19.9728 33.1516H48.2926" stroke="black" stroke-width="0.72"/>
<path d="M48.1287 30.7367C48.8136 31.3364 49.1115 31.9325 48.8238 32.2735C48.5823 32.5135 47.6148 32.3892 46.8438 31.6735C46.0732 30.9582 46.0016 30.2938 46.1556 30.1095C46.3099 29.9259 47.2448 30.0583 47.7997 30.4878C47.9435 30.5802 48.1287 30.7367 48.1287 30.7367Z" stroke="black" stroke-width="0.72"/>
<path d="M48.0466 30.6923C48.3956 30.9683 49.187 31.7352 49.1768 32.4813C49.1768 32.7269 48.8996 33.1764 48.2212 33.1558C47.5429 33.1355 46.8954 32.7367 46.012 31.7862C45.1284 30.8356 42.7736 28.1089 42.4569 27.7485C42.0251 27.2576 41.8192 26.8081 39.9906 26.8081H11.6912" stroke="black" stroke-width="0.72"/>
<path d="M11.4447 27.5732H13.2944" stroke="black" stroke-width="0.77125"/>
<path d="M13.6641 29.9246H15.5137" stroke="black" stroke-width="0.77125"/>
<path d="M44.4501 30.0339H46.3815" stroke="black" stroke-width="0.77125"/>
<path d="M46.6898 32.3848H48.5398" stroke="black" stroke-width="0.77125"/>
<path d="M11.0746 28.2454H13.0339" stroke="black" stroke-width="0.515"/>
<path d="M11.4581 28.8313H13.5544" stroke="black" stroke-width="0.515"/>
<path d="M12.1296 29.4309H15.0616" stroke="black" stroke-width="0.515"/>
<path d="M13.8833 29.6218H15.226" stroke="black" stroke-width="0.515"/>
<path d="M13.6641 28.9404H14.5821" stroke="black" stroke-width="0.515"/>
<path d="M13.1436 28.2864H13.9789" stroke="black" stroke-width="0.515"/>
<path d="M12.7598 27.9729H13.7051" stroke="black" stroke-width="0.515"/>
<path d="M10.7866 27.5442H11.376" stroke="black" stroke-width="0.515"/>
<path d="M10.8138 27.332H12.9787" stroke="black" stroke-width="0.515"/>
<path d="M10.9648 27.0735H12.6635" stroke="black" stroke-width="0.515"/>
<path d="M12.9514 27.2231H41.8878" stroke="black" stroke-width="0.515"/>
<path d="M42.3124 27.6982H13.4581" stroke="black" stroke-width="0.515"/>
<path d="M13.8285 28.0039H17.8346" stroke="black" stroke-width="0.515"/>
<path d="M14.1024 28.3447H17.8347" stroke="black" stroke-width="0.515"/>
<path d="M14.3763 28.6562H17.8344" stroke="black" stroke-width="0.515"/>
<path d="M14.7189 28.9951H17.8348" stroke="black" stroke-width="0.515"/>
<path d="M14.9655 29.332H17.8348" stroke="black" stroke-width="0.515"/>
<path d="M15.308 29.6899H17.8348" stroke="black" stroke-width="0.515"/>
<path d="M15.678 30.0542H17.8348" stroke="black" stroke-width="0.515"/>
<path d="M16.1847 30.6719H17.8348" stroke="black" stroke-width="0.515"/>
<path d="M16.6368 31.1621H17.8345" stroke="black" stroke-width="0.515"/>
<path d="M17.0342 31.6392H17.8345" stroke="black" stroke-width="0.515"/>
<path d="M17.3632 32.0205H17.8348" stroke="black" stroke-width="0.515"/>
<path d="M17.7195 32.4099H46.6697" stroke="black" stroke-width="0.515"/>
<path d="M18.1033 32.7664H47.0942" stroke="black" stroke-width="0.515"/>
<path d="M48.1495 30.7803H46.2316" stroke="black" stroke-width="0.515"/>
<path d="M48.6562 31.312H46.5189" stroke="black" stroke-width="0.515"/>
<path d="M41.9756 28.259H42.8745" stroke="black" stroke-width="0.515"/>
<path d="M43.2445 28.6992H41.9756" stroke="black" stroke-width="0.515"/>
<path d="M43.7787 29.2812H41.9758" stroke="black" stroke-width="0.515"/>
<path d="M44.1215 29.6396H41.9758" stroke="black" stroke-width="0.515"/>
<path d="M44.333 29.9221H41.9761" stroke="black" stroke-width="0.515"/>
<path d="M46.0946 30.4678H44.8751" stroke="black" stroke-width="0.515"/>
<path d="M46.1491 30.7126H45.0396" stroke="black" stroke-width="0.515"/>
<path d="M46.2864 30.9172H45.2451" stroke="black" stroke-width="0.515"/>
<path d="M44.9162 30.6035H41.9758" stroke="black" stroke-width="0.515"/>
<path d="M45.3138 30.9988H41.9758" stroke="black" stroke-width="0.515"/>
<path d="M45.519 31.2439H41.9758" stroke="black" stroke-width="0.515"/>
<path d="M41.9758 31.5576H45.8067" stroke="black" stroke-width="0.515"/>
<path d="M45.985 31.8091H41.9758" stroke="black" stroke-width="0.515"/>
<path d="M46.3137 32.105H41.9758" stroke="black" stroke-width="0.515"/>
<path d="M46.4095 32.1575H47.5604" stroke="black" stroke-width="0.515"/>
<path d="M46.1902 31.9395H47.1493" stroke="black" stroke-width="0.515"/>
<path d="M45.9984 31.7351H46.8614" stroke="black" stroke-width="0.515"/>
<path d="M45.7794 31.5032H46.6699" stroke="black" stroke-width="0.515"/>
<path d="M47.04 32.7163H49.0949" stroke="black" stroke-width="0.515"/>
<path d="M20.953 30.9187V28.07H20.1581V30.7821C20.1581 31.0957 19.8018 31.2301 19.5828 31.2301C19.4593 31.2301 18.9523 31.0257 18.8295 30.9166L18.5143 31.5163C18.5143 31.5163 19.0485 31.9795 19.6649 31.9795C20.2815 31.9795 20.5692 31.6799 20.6791 31.5571C20.7885 31.4346 20.953 31.1366 20.953 30.9187Z" fill="black"/>
<path d="M21.7338 31.9866C21.9798 31.9866 22.1797 31.7881 22.1797 31.543C22.1797 31.2983 21.9798 31.1001 21.7338 31.1001C21.4878 31.1001 21.288 31.2983 21.288 31.543C21.288 31.7881 21.4878 31.9866 21.7338 31.9866Z" fill="black"/>
<path d="M26.6248 31.9866C26.8708 31.9866 27.0707 31.7881 27.0707 31.543C27.0707 31.2983 26.8708 31.1001 26.6248 31.1001C26.3788 31.1001 26.179 31.2983 26.179 31.543C26.179 31.7881 26.3788 31.9866 26.6248 31.9866Z" fill="black"/>
<path d="M24.5354 29.6998C24.7605 29.6998 24.9423 29.5182 24.9423 29.295C24.9423 29.0714 24.7605 28.8899 24.5354 28.8899L23.9946 28.889V29.6965L24.5354 29.6998ZM24.613 31.273C24.8557 31.273 25.0526 31.0891 25.0526 30.847C25.0526 30.6059 24.8557 30.4098 24.613 30.4098L23.9946 30.4089V31.2706L24.613 31.273ZM23.9946 31.9678H23.2V28.0699H23.9946C24.3338 28.0699 24.104 28.0711 24.7206 28.0711C25.4913 28.0711 25.7993 28.7355 25.7993 29.0014C25.7993 29.2673 25.8508 29.6762 25.3474 29.9624C25.8305 30.2077 25.9434 30.5549 25.9434 30.8822C25.9434 31.2095 25.6761 31.966 24.7002 31.966L23.9946 31.9678Z" fill="black"/>
<path d="M30.4955 28.07V29.707H29.3581V28.07H28.5637V31.9661L29.3581 31.9625V30.392H30.4955V31.9661L31.2901 31.9625V28.07H30.4955Z" fill="black"/>
<path d="M33.5095 31.2288C33.7983 31.2288 34.0276 31.0058 34.0276 30.7185L34.0267 28.0711H34.7769V30.4121C34.7769 31.0118 34.8453 31.3114 34.5576 31.6112C34.2697 31.9111 33.8723 32.0679 33.5095 32.0679C33.1463 32.0679 32.749 31.9111 32.4611 31.6112C32.1734 31.3114 32.242 31.0118 32.242 30.4121V28.0711H32.992L32.9914 30.7185C32.9914 31.0058 33.2206 31.2288 33.5095 31.2288Z" fill="black"/>
<path d="M41.1514 28.0715H38.7058V28.7976H39.5283V31.9661H40.3298V28.7976H41.1514V28.0715Z" fill="black"/>
<path d="M37.4114 31.9559L36.3528 29.8092V31.9661H35.6127V28.0715H36.3528L37.3751 29.9523L37.3793 29.8653V28.0715H38.1191V31.9661H37.415L37.4114 31.9559Z" fill="black"/>
</g>
<defs>
<clipPath id="clip0_150_1102">
<rect width="44" height="12" fill="white" transform="translate(8 24)"/>
</clipPath>
</defs>
</svg>
