<svg width="60" height="60" viewBox="0 0 60 60" fill="none" xmlns="http://www.w3.org/2000/svg">
<rect width="60" height="60" fill="#003876"/>
<g clip-path="url(#clip0_1772_9486)">
<path d="M11.2903 26.9828H12.821V34.9338C12.821 36.1702 11.8901 36.9999 10.5993 36.9999H10V35.6032H10.4345C10.9598 35.6032 11.2903 35.3697 11.2903 34.8172V26.9828ZM11.2903 24H12.821V25.4841H11.2903V24Z" fill="white"/>
<path d="M15.3398 30.009C15.3695 28.8889 16.0451 28.2925 16.946 28.2925C17.8468 28.2925 18.507 28.8889 18.5514 30.009H15.3398ZM20.0823 31.2305V30.009C20.0823 28.1032 18.6259 26.8956 16.9462 26.8956C15.4744 26.8956 13.8091 27.8263 13.8091 30.6929C13.8091 33.7188 15.6247 34.4465 17.186 34.4465C18.2059 34.4465 19.1818 34.0966 19.9317 33.2531L18.8221 32.3371C18.3711 32.7876 17.7412 33.0497 17.1559 33.0497C16.1051 33.0497 15.3399 32.4383 15.3399 31.2305H20.0823Z" fill="white"/>
<path d="M21.296 24.7421H22.8267V26.9829H23.9365V28.1177H22.8267V32.4091C22.8267 32.8169 22.9915 32.9623 23.3656 32.9623H23.9365V34.3589H23.1414C22.0754 34.3589 21.296 33.7031 21.296 32.5402V28.1177H20.5293V26.9829H21.296V24.7421Z" fill="white"/>
<path d="M29.0251 29.7616C30.2255 29.7616 30.7648 30.5032 30.7648 31.3179C30.7648 32.133 30.2254 32.8748 29.0251 32.8748H26.5332V29.7616H29.0251ZM24.9116 34.3589H29.4146C31.0208 34.3589 32.386 33.2094 32.386 31.4202C32.386 30.3727 31.8159 29.2961 30.6455 29.0335V29.0049C31.8912 28.4664 32.2217 27.6372 32.2217 26.7791C32.2215 25.1496 31.1399 24 29.0544 24H24.9116V34.3589ZM28.8741 25.3972C30.0449 25.3972 30.6001 26.0807 30.6001 26.881C30.6001 27.6952 30.0449 28.3653 28.8741 28.3653H26.5332V25.3972H28.8741Z" fill="white"/>
<path d="M33.2656 24H34.7963V32.4529C34.7963 32.7875 34.9915 32.9622 35.3679 32.9622H35.8924V34.3589H35.2171C34.1058 34.3589 33.2656 33.8936 33.2656 32.569V24Z" fill="white"/>
<path d="M36.5376 26.9828H38.0685V31.376C38.0685 32.3806 38.7136 32.9622 39.5852 32.9622C40.4403 32.9622 41.0848 32.3806 41.0848 31.376V26.9828H42.6162V34.3589H41.0848V33.5728H41.0561C40.5753 34.1551 39.8847 34.4464 39.089 34.4464C37.8892 34.4464 36.5376 33.5583 36.5376 31.8858V26.9828Z" fill="white"/>
<path d="M44.9699 30.009C45.0011 28.8889 45.6752 28.2925 46.5759 28.2925C47.4762 28.2925 48.1364 28.8889 48.1826 30.009H44.9699ZM49.713 31.2305V30.009C49.713 28.1032 48.2571 26.8956 46.5759 26.8956C45.105 26.8956 43.4385 27.8263 43.4385 30.6929C43.4385 33.7188 45.2552 34.4465 46.8155 34.4465C47.8372 34.4465 48.812 34.0966 49.5626 33.2531L48.4515 32.3372C48.0012 32.7877 47.3719 33.0498 46.7862 33.0498C45.7358 33.0498 44.9699 32.4385 44.9699 31.2306L49.713 31.2305Z" fill="white"/>
</g>
<defs>
<clipPath id="clip0_1772_9486">
<rect width="40" height="13" fill="white" transform="translate(10 24)"/>
</clipPath>
</defs>
</svg>
