<svg width="60" height="60" viewBox="0 0 60 60" fill="none" xmlns="http://www.w3.org/2000/svg">
<rect width="60" height="60" fill="#54301A"/>
<g clip-path="url(#clip0_731_7864)">
<path d="M9.15829 25.4085H6.15657V25.6532H7.12973V30.6341C7.12973 32.1447 6.72434 32.5528 5.79177 32.5528C5.224 32.5528 5.10222 32.1039 5.10222 31.8996C5.10222 31.369 5.06163 31.0018 4.57453 31.0018C4.08795 31.0018 4.00729 31.4915 4.00729 31.655C4.00729 32.349 4.3315 32.8796 5.66999 32.8796C7.29262 32.8796 8.14401 32.349 8.14401 30.512V25.6526H9.11769V25.4085H9.15829ZM9.5642 31.7362C9.40184 31.7362 9.23947 31.7781 9.15829 31.8996C9.03651 32.0222 8.99592 32.1447 8.99592 32.3082C8.99592 32.4705 9.03651 32.5936 9.15829 32.7167C9.28006 32.8388 9.40184 32.8791 9.5642 32.8791C9.72605 32.8791 9.84783 32.8383 9.9696 32.7167C10.0914 32.5942 10.132 32.4705 10.132 32.3082C10.132 32.1447 10.0914 32.0222 9.9696 31.8996C9.84783 31.777 9.72605 31.7362 9.56368 31.7362H9.5642ZM16.2161 31.7362C16.0537 31.7362 15.9319 31.7781 15.8101 31.8996C15.6889 32.0222 15.6483 32.1447 15.6483 32.3082C15.6483 32.4705 15.6889 32.5936 15.8101 32.7167C15.9319 32.8388 16.0537 32.8791 16.2161 32.8791C16.3784 32.8791 16.5403 32.8383 16.622 32.7167C16.7432 32.5936 16.7838 32.4705 16.7838 32.3082C16.7838 32.1447 16.7432 32.0222 16.6215 31.8996C16.4997 31.777 16.3784 31.7362 16.2155 31.7362H16.2161ZM14.1063 25.4085H11.1858V25.6532H12.0377V31.3695C12.0377 31.8184 11.9971 31.9404 11.9565 32.063C11.9159 32.227 11.7942 32.3087 11.5912 32.3904C11.4699 32.4313 11.267 32.4716 10.9828 32.4716V32.7167H14.1469V32.4716C13.8628 32.4716 13.6603 32.4313 13.538 32.3904C13.3356 32.3087 13.2138 32.1861 13.1738 32.0635C13.1196 31.9202 13.0919 31.768 13.0921 31.6146V29.654H13.8628C16.1344 29.654 16.7833 28.7562 16.7833 27.531C16.7833 26.2655 16.4185 25.4085 14.1063 25.4085ZM13.7004 29.3685H13.0921V25.694H13.6197C15.3636 25.694 15.769 26.4289 15.769 27.5719C15.769 28.7557 15.08 29.3685 13.7004 29.3685ZM26.1533 32.0222C26.0998 31.8645 26.0723 31.699 26.0721 31.5324V25.6532H26.8423V25.4085H24.9777C24.9371 25.4903 22.7472 30.9609 22.7472 30.9609L22.7066 31.0023C22.666 31.0023 22.666 31.0023 22.666 30.9614C22.666 30.9614 20.3138 25.4494 20.3138 25.4085H18.2436V25.6537H19.1361V31.8593C19.1361 31.9824 19.0955 32.1049 19.0143 32.227C18.9331 32.3495 18.8113 32.4313 18.6896 32.4716C18.6084 32.5135 18.4465 32.5135 18.2836 32.5135V32.7576H20.3122V32.5124C20.1498 32.5124 20.0686 32.4716 19.9474 32.4716C19.785 32.4307 19.7038 32.349 19.6227 32.2264C19.5415 32.1447 19.5009 32.0222 19.5009 31.8593L19.4603 31.3281V26.4284H19.5821C19.5821 26.4284 22.2184 32.634 22.259 32.7157H22.462L24.9766 26.4698H25.0578V31.5324C25.0578 31.7367 25.0172 31.8996 24.9766 32.063C24.936 32.2264 24.8148 32.3082 24.6524 32.3899C24.4825 32.4466 24.3042 32.4741 24.1252 32.4711V32.7162H26.9646V32.4711C26.7854 32.4741 26.607 32.4466 26.4369 32.3899C26.3156 32.3082 26.1938 32.1856 26.1533 32.0222ZM30.0064 27.3681C28.4649 27.3681 27.5323 28.3885 27.5323 30.1443C27.5323 32.7571 29.5604 32.9205 29.9658 32.9205C30.8177 32.9205 32.4403 32.3899 32.4403 30.104C32.4403 28.3073 31.3854 27.3681 30.0064 27.3681ZM29.9658 32.5936C28.8302 32.5936 28.6273 32.0227 28.6273 30.1852C28.6273 28.7562 28.7085 27.6944 29.9658 27.6944C31.3043 27.6944 31.3043 28.7965 31.3043 30.1029C31.3043 31.9404 30.98 32.5936 29.9658 32.5936ZM36.4157 27.4498C35.5227 27.4498 35.199 27.9804 34.9549 28.5519H34.8737C34.8737 28.5519 34.7525 27.7353 34.7119 27.531H32.9269V27.817H33.9001V31.4098C33.9001 31.777 33.86 32.0227 33.7793 32.1851C33.6976 32.349 33.4541 32.4711 33.0893 32.4711H32.9269V32.7979H35.9286V32.4711H35.7662C35.3603 32.4711 35.199 32.3899 35.1168 32.2264C35.0361 32.063 34.9955 31.8179 34.9955 31.4507V29.4911C34.9955 28.8783 35.4821 28.1439 36.0504 28.1439C36.6587 28.1439 36.6176 29.0417 37.3077 28.6745C37.6324 28.4702 37.5512 27.4498 36.4157 27.4498ZM48.2186 32.1851C47.8938 32.1851 47.8132 32.0227 47.7726 31.6958V28.8379C47.7726 28.3476 47.6909 28.0622 47.4078 27.7756C47.1236 27.4902 46.5959 27.3671 45.8257 27.3671C45.0956 27.3671 44.5684 27.4902 44.2031 27.7756C43.8789 28.0213 43.717 28.2659 43.717 28.6336C43.717 28.796 43.7576 28.9191 43.8383 28.96C43.9195 29.0417 44.0412 29.0825 44.1625 29.0825C44.4461 29.0825 44.609 28.9202 44.6897 28.5519C44.7313 28.2659 44.8114 28.103 44.9337 27.9391C45.0951 27.7767 45.3397 27.6944 45.6228 27.6944C45.9881 27.6944 46.2717 27.7756 46.3935 27.9799C46.5153 28.1842 46.5964 28.4294 46.5964 28.7552V29.6132C45.6628 29.6949 43.3918 29.8986 43.5135 31.6136C43.5541 32.2668 44.1224 32.8791 44.8926 32.8791C45.7445 32.8791 46.2712 32.3899 46.636 32.0216C46.6771 32.3894 47.0419 32.8388 47.6508 32.8388C48.3398 32.8388 48.7457 32.5119 48.7868 31.6544H48.6245C48.6245 31.9813 48.4215 32.1856 48.2186 32.1856V32.1851ZM46.6776 31.6141V31.655L46.637 31.6958C46.1505 32.1453 45.7451 32.3087 45.4609 32.3087C44.7308 32.3087 44.609 31.6958 44.609 31.4104C44.609 30.4308 45.9475 29.9405 46.6776 29.9405V31.6141ZM54.3032 32.1447C54.222 31.9818 54.1002 31.7362 54.1002 31.3695V29.0008C54.1002 28.6745 54.0596 28.3476 53.9378 28.1439C53.8161 27.8987 53.6136 27.7353 53.4107 27.6127C53.1671 27.4902 52.9241 27.4498 52.6405 27.4498C51.5856 27.4498 51.1797 28.103 50.9367 28.4702H50.8555L50.6525 27.531H49.0299V27.817H49.8417V31.4098C49.8417 31.6958 49.8006 31.8996 49.76 32.0227C49.7189 32.1851 49.5987 32.3082 49.4764 32.349C49.3952 32.3899 49.2328 32.4307 49.0299 32.4307V32.7571H51.5851V32.4307C51.3415 32.3899 51.1386 32.349 51.0579 32.2264C50.9767 32.1039 50.8961 31.8587 50.8961 31.4915V30.1034C50.8961 29.5325 50.8961 28.96 51.099 28.6336C51.3015 28.2659 51.7069 28.0622 52.1128 28.0622C52.5187 28.0622 52.7211 28.1847 52.8434 28.4294C52.9647 28.6336 53.0048 29.246 53.0048 29.654V31.369C53.0048 31.6544 53.0464 31.8587 53.0048 31.9818C52.9647 32.1442 52.9241 32.2673 52.8018 32.3485C52.7211 32.4307 52.5582 32.4307 52.3964 32.4711V32.7979H54.8715V32.4711C54.5868 32.349 54.3844 32.2668 54.3032 32.1447ZM42.7028 27.123C42.5404 27.1638 42.4592 27.3273 42.378 27.5315C42.3374 27.7358 42.2562 27.8579 42.1345 27.8982C42.0127 27.9396 41.8914 27.9396 41.7697 27.8579C41.486 27.6127 40.9989 27.3273 40.1064 27.3273C38.6462 27.3273 38.0378 28.3476 38.0378 29.2863C38.0378 30.3889 38.4437 30.9201 39.3758 31.1238C39.4169 31.1238 39.4169 31.2055 39.3758 31.2055C38.6056 31.369 37.8755 31.6141 37.8755 32.349C37.8755 32.7984 38.119 33.0431 38.4843 33.2065C38.8486 33.3694 39.3758 33.4516 40.0253 33.4516C40.5925 33.4516 40.9984 33.4925 41.242 33.4925C41.4865 33.5242 41.7215 33.6078 41.9315 33.7376C42.0939 33.8602 42.1751 34.0645 42.1751 34.3086C42.1751 34.6763 41.9721 34.9214 41.6073 35.1666C41.243 35.3709 40.7955 35.4526 40.1876 35.4526C39.701 35.4526 39.2551 35.4112 38.8897 35.1666C38.6061 35.0032 38.565 34.6768 38.6061 34.4317C38.6472 34.1865 38.565 33.9419 38.2814 33.8602C38.1951 33.8411 38.1049 33.8506 38.0245 33.8875C37.9441 33.9243 37.8777 33.9864 37.8354 34.0645C37.7537 34.186 37.7131 34.3494 37.7131 34.5537C37.7131 35.1661 38.2002 35.4515 38.565 35.5741C39.1328 35.737 39.4986 35.7784 39.9847 35.7784C40.6747 35.7784 41.2014 35.6558 41.6073 35.4924C42.0132 35.2881 42.2568 35.0435 42.4186 34.7575C42.5805 34.472 42.6622 34.186 42.6622 33.9C42.6622 33.5328 42.5805 33.206 42.4186 33.0022C41.8914 32.3082 41.1608 32.3894 39.5387 32.3082C38.7679 32.3082 38.6056 32.1447 38.6056 31.8996C38.6056 31.5324 38.8897 31.4098 40.0253 31.2055C41.1608 31.0421 42.2151 30.5932 42.2151 29.246C42.2151 28.8374 42.1345 28.5111 42.0122 28.2664C42.2562 28.3068 42.4592 28.3068 42.6616 28.2664C42.9057 28.1847 43.0265 28.0622 43.1082 27.9396C43.1893 27.7762 43.2294 27.6127 43.1487 27.4902C43.1893 27.1638 42.9864 27.0413 42.7028 27.123ZM40.1475 30.9609C39.4585 30.9609 39.0927 30.7153 39.0927 29.3277C39.0927 28.3482 39.4174 27.6127 40.1475 27.6127C40.9995 27.6127 41.2425 28.2659 41.2425 29.2868C41.2425 30.7566 40.7965 30.9609 40.1475 30.9609Z" fill="white"/>
</g>
<defs>
<clipPath id="clip0_731_7864">
<rect width="51" height="11" fill="white" transform="translate(4 25)"/>
</clipPath>
</defs>
</svg>
