<svg width="60" height="60" viewBox="0 0 60 60" fill="none" xmlns="http://www.w3.org/2000/svg">
<rect width="60" height="60" fill="#F60B45"/>
<path d="M32.6385 46.3951C31.469 46.3168 30.9234 44.9394 30.9234 43.2451C30.9234 41.3953 32.1317 37.4225 32.5997 35.5316C33.0677 33.6034 33.2615 30.5336 31.5474 28.763C38.054 26.1266 47.6852 17.1138 48.9294 15.1466C50.1377 13.1783 50.4109 10.6994 48.6959 9.4394C46.9808 8.17942 44.2126 9.79353 42.5798 12.1942C38.0577 18.7661 35.3292 21.9934 32.2499 24.7091C29.8333 26.7947 28.6638 26.8339 27.4943 26.9914C27.6891 26.6764 31.9379 19.671 33.6142 17.467C35.5996 14.8306 33.1462 13.8465 30.7684 15.4997C27.9529 17.4794 25.0098 19.2674 21.9587 20.8518C13.8478 25.0632 11.8983 27.0314 11.8983 29.5505C11.8901 29.8765 11.9463 30.2009 12.0637 30.5048C12.181 30.8086 12.3571 31.0858 12.5817 31.3202C12.8063 31.5546 13.0749 31.7415 13.3719 31.87C13.6688 31.9985 13.988 32.066 14.3111 32.0685C17.5076 32.0685 20.6257 26.3623 22.1847 24.9095C22.7699 24.3588 24.1701 23.1389 24.6797 23.1389C24.8745 23.1389 24.9917 23.2572 24.9917 23.6114C24.9917 24.7129 22.8872 27.8228 19.6122 31.3641C14.9001 36.5548 11.002 38.6013 11.002 41.9078C10.9863 42.3546 11.0626 42.7998 11.2261 43.2152C11.3896 43.6306 11.6368 44.0073 11.9519 44.3213C12.267 44.6353 12.6433 44.8799 13.0568 45.0395C13.4704 45.1992 13.9123 45.2704 14.3546 45.2487C17.9794 45.2487 20.4356 40.329 21.8774 37.8893C22.4627 36.9051 25.698 30.8448 26.3598 29.5457C27.1001 29.8998 27.5293 30.6911 27.2958 32.3005C26.8665 35.2127 24.294 38.7149 24.294 43.5955C24.294 47.5701 27.9576 48.8292 29.4391 48.8292C30.7627 48.8292 32.595 48.3299 33.0252 46.9401C33.0463 46.8775 33.0524 46.8107 33.043 46.7453C33.0335 46.6798 33.0086 46.6176 32.9706 46.5637C32.9325 46.5099 32.8822 46.466 32.824 46.4356C32.7657 46.4053 32.7012 46.3895 32.6356 46.3894" fill="white"/>
</svg>
