<svg width="60" height="60" viewBox="0 0 60 60" fill="none" xmlns="http://www.w3.org/2000/svg">
<rect width="60" height="60" fill="#004987"/>
<g clip-path="url(#clip0_1772_9483)">
<path d="M22.6689 25.5367H24.9924V27.9409H22.6689V25.5367Z" fill="#00783F"/>
<path d="M23.1318 21.3934H24.9734V23.2233H23.1318V21.3934Z" fill="black"/>
<path d="M26.2388 22.1548H27.1999V23.1084H26.2388V22.1548Z" fill="#A2C7E2"/>
<path d="M27.9487 22.4193H28.5464V23.0123H27.9487V22.4193Z" fill="black"/>
<path d="M27.8169 23.5599H29.0796V24.8128H27.8169V23.5599Z" fill="#00205C"/>
<path d="M26.6484 25.3711H28.7511V27.4547H26.6484V25.3711Z" fill="#A2C7E2"/>
<path d="M25.6519 23.7522H26.5592V24.6551H25.6519V23.7522Z" fill="#00783F"/>
<path d="M29.5073 25.0692H30.2208V25.7771H29.5073V25.0692Z" fill="#00783F"/>
<path d="M25.7061 20.8833H26.3818V21.5538H25.7061V20.8833Z" fill="#00205C"/>
<path d="M23.9692 24.0435H24.8765V24.9464H23.9692V24.0435Z" fill="#A2C7E2"/>
<path fill-rule="evenodd" clip-rule="evenodd" d="M20.2809 34.2746C16.3259 34.2746 12.7371 33.019 11.2213 31.3495C10.4217 28.6995 10.7771 25.7771 12.5756 23.2046C12.9498 23.4878 13.3159 23.771 13.7952 24.0087C12.7721 25.8279 12.2202 28.4351 12.9848 31.2186C14.5544 32.8267 18.0006 33.9834 21.8667 33.9834C22.8009 33.9834 23.6733 34.0181 24.5375 33.8952C23.2371 34.2051 21.8209 34.2826 20.2809 34.2746ZM21.6433 38.2842C21.3579 38.3109 20.8867 38.2949 20.5825 38.2949C16.9586 38.2842 13.2971 36.067 11.6333 32.4554C12.309 32.9576 13.2002 33.5319 14.1183 33.7537C15.9248 36.5879 18.8567 38.0652 21.6433 38.2842ZM18.0706 24.2732C19.4786 24.6365 21.3309 24.8929 23.719 24.8128C23.719 24.8128 20.9298 25.2295 17.9117 24.7593C17.9656 24.5563 18.0275 24.388 18.0706 24.2732ZM16.6383 24.5029C15.3029 24.177 13.9917 23.6374 12.9229 22.7826C14.829 20.3437 17.9736 18.9466 21.0106 19.0267C18.4286 19.3286 16.0675 20.8833 14.6244 22.7372C14.8829 22.9402 15.6044 23.4531 16.9129 23.9206C17.8929 21.9331 19.5513 20.5627 20.8409 20.2983C19.1771 21.3427 17.349 23.4798 16.7271 26.7041C16.3259 28.761 16.299 30.8553 16.6033 32.4367C15.8709 30.9621 15.739 28.4805 16.1913 26.0416C16.2909 25.502 16.4417 24.9891 16.6383 24.5029ZM30.4956 31.5258C28.9825 36.27 24.4836 37.6751 24.4836 37.6751C28.164 36.059 29.3917 32.5168 29.3917 32.5168C29.8467 32.1909 30.4956 31.5178 30.4956 31.5258Z" fill="white"/>
<path fill-rule="evenodd" clip-rule="evenodd" d="M40.7478 38.0811V38.1265C40.7478 39.4435 40.1151 40.5895 39.0194 41.2707C38.2278 41.7569 37.2397 41.9946 36.0093 41.9946H28.6001L23.5682 36.8283V41.9946H20.814V29.1162H23.5682V33.9646L27.9863 29.1162H35.8047C38.7259 29.1162 40.037 30.9354 40.037 32.7465V32.7813C40.037 33.5586 39.7867 34.3894 39.2078 35.0706L39.2159 35.0786C40.204 35.7758 40.7478 36.8443 40.7478 38.0811ZM31.0663 40.8112V29.2471L25.6332 35.2015L31.0663 40.8112ZM37.9424 38.0811C37.9424 37.066 37.132 36.4837 35.6728 36.4837H34.4963V34.2398H35.1909C36.5263 34.2398 37.3717 33.807 37.3717 32.7893V32.7545C37.3717 31.8543 36.669 31.3494 35.3874 31.3494H33.7936V39.7774H35.4494C36.9813 39.7774 37.9424 39.2832 37.9424 38.1265V38.0811Z" fill="white"/>
<path d="M48.1245 41.9946L45.1495 36.473H44.1776V34.2291H44.9341C46.2695 34.2291 47.1176 33.7964 47.1176 32.7813V32.7465C47.1176 31.8463 46.4122 31.3414 45.1307 31.3414H43.4749V41.9946H40.7314V29.1162H45.5318C48.453 29.1162 49.7614 30.9354 49.7614 32.7465V32.7813C49.7614 33.9646 49.2014 35.2816 47.7503 35.9708L50.973 41.9946H48.1245Z" fill="white"/>
<path fill-rule="evenodd" clip-rule="evenodd" d="M11.0786 25.4325L10.3221 26.1217C10.3059 26.1377 10.279 26.111 10.2871 26.095L11.0625 24.8395L10.1982 25.3711C10.1632 25.3871 10.1255 25.3444 10.1525 25.3177L10.804 24.6017L9.4686 25.1227C9.44976 25.1307 9.43091 25.104 9.44976 25.0879L10.6263 24.1957L9.62745 24.38C9.59245 24.388 9.5736 24.3373 9.6113 24.3186L10.4755 23.8858L9.0486 23.8938C9.02168 23.8938 9.0136 23.8591 9.04053 23.8511L10.4648 23.4451L9.4686 23.2581C9.42284 23.2581 9.43091 23.1966 9.4686 23.1966L10.4298 23.1085L9.09437 22.6036C9.06745 22.5956 9.07553 22.5609 9.10245 22.5609L10.5725 22.6837L9.70822 22.1548C9.67322 22.1281 9.70014 22.0827 9.73514 22.0934L10.6613 22.3498L9.60053 21.4042C9.58437 21.3855 9.60053 21.3588 9.62745 21.3668L10.9628 22.0213L10.349 21.2172C10.3221 21.1905 10.3678 21.1477 10.3948 21.1745L11.1782 21.7488L10.5267 20.4746C10.5186 20.4505 10.5455 20.4318 10.5644 20.4505L11.5525 21.5351L11.2751 20.5627C11.2671 20.528 11.3209 20.5013 11.3371 20.5387L11.8648 21.3668L11.7221 19.9456C11.7221 19.9189 11.7571 19.9109 11.7651 19.9376L12.3009 21.2973L12.3978 20.2983C12.3978 20.2635 12.4517 20.2635 12.4598 20.2983L12.6482 21.2519L13.0305 19.8762C13.0386 19.8575 13.0763 19.8575 13.0763 19.8842V21.3321L13.5205 20.4398C13.5394 20.4051 13.5905 20.4238 13.5824 20.4585L13.4048 21.4202L14.269 20.2715C14.2771 20.2448 14.3121 20.2635 14.304 20.2902L13.9028 21.324C13.0225 22.0934 11.7301 23.4798 11.0786 25.4325Z" fill="#FFDA00"/>
</g>
<defs>
<clipPath id="clip0_1772_9483">
<rect width="42" height="23" fill="white" transform="translate(9 19)"/>
</clipPath>
</defs>
</svg>
