<svg width="60" height="60" viewBox="0 0 60 60" fill="none" xmlns="http://www.w3.org/2000/svg">
<rect width="60" height="60" fill="#E80127"/>
<path d="M50.4829 30.8949C50.1764 30.8631 49.5041 30.4235 49.0249 28.5416C48.2542 25.5283 47.8923 22.9444 46.5868 22.9444C45.2827 22.9444 44.6899 25.5283 43.9205 28.5416C43.4652 30.3229 42.9859 30.8172 42.2153 30.8172C41.4939 30.8172 40.7459 30.4541 39.6461 25.7971C38.6838 21.7276 38.0292 14.3503 34.8016 14.3503C31.5728 14.3503 30.6218 23.9637 30.2068 25.8175C29.6948 28.1008 28.4259 30.8172 26.8267 30.8172C25.2299 30.8172 24.4038 28.9264 23.9258 26.898C23.193 23.7904 22.3605 19.294 20.2366 19.294C18.1126 19.294 17.4214 23.017 16.4856 27.0853C15.9344 29.4819 15.0541 30.914 13.5077 30.914H10.1351C10.5753 31.0504 11.4544 31.7168 11.6827 33.1693C12.2175 36.5903 12.6261 38.7092 13.7877 38.7092C14.9494 38.7092 15.3732 36.8834 16.0454 34.0369C16.5726 31.8072 17.395 30.8351 18.3787 30.8351C19.8204 30.8351 20.5002 32.6316 21.2885 36.0628C22.8575 42.8985 23.193 46.2036 25.7205 46.2036C28.2304 46.2036 28.6214 42.8909 30.3077 36.0628C31.0418 33.0915 32.4115 30.8338 34.0083 30.8338C35.605 30.8338 36.7452 33.0215 37.3279 34.7657C38.5867 38.5461 39.1656 39.9706 40.5517 39.9706C41.9378 39.9706 42.7211 38.2607 43.9432 34.1351C44.7126 31.5371 44.8261 30.914 47.0901 30.914H50.4955L50.4829 30.8949Z" fill="#FEFEFD"/>
</svg>
