<svg width="60" height="60" viewBox="0 0 60 60" fill="none" xmlns="http://www.w3.org/2000/svg">
<rect width="60" height="60" fill="white"/>
<path d="M35.0503 28.8339L26.8816 42.3654L25.2787 46.0676L24.1776 48.6108L25.7113 46.0676L36.4224 28.3065L35.0503 28.8339ZM28.9541 33.9597L28.5153 34.9816L24.4814 36.5185L25.0335 35.476L28.9541 33.9597ZM30.9196 18.949L32.4544 10.4444L31.3316 12.5211L30.0996 19.2663L30.9196 18.949ZM36.2205 18.4113L37.5102 17.888L31.8879 28.5599L30.625 29.0399L36.2205 18.4113ZM30.2006 22.4761L29.6422 23.5391L24.366 25.5582L24.8976 24.4992L30.2006 22.4761Z" fill="black"/>
<path d="M30.8483 10.99L23.7281 24.2676L31.0724 21.4723L23.8336 35.2642L29.7539 33.0227L24.4006 45.1796L34.7511 27.9332L29.2924 30.0165L35.8323 17.5431L29.2265 20.0351L30.8483 10.99Z" fill="url(#paint0_linear_168_406)"/>
<mask id="mask0_168_406" style="mask-type:luminance" maskUnits="userSpaceOnUse" x="23" y="10" width="14" height="37">
<path d="M23.4224 24.5528L30.835 21.7056L23.5645 35.5214L29.4918 33.2448L23.8859 46.0676H23.956L35.0626 27.6555L29.5577 29.7713L36.1545 17.2472L29.3764 19.8534L31.1173 10.1704L23.4224 24.5528Z" fill="white"/>
</mask>
<g mask="url(#mask0_168_406)">
<mask id="mask1_168_406" style="mask-type:luminance" maskUnits="userSpaceOnUse" x="16" y="7" width="28" height="43">
<path d="M35.6374 7.65695L43.324 45.0169L23.9395 49.0055L16.2528 11.6455L35.6374 7.65695Z" fill="white"/>
</mask>
<g mask="url(#mask1_168_406)">
<path d="M35.6374 7.65695L16.3352 11.627L16.3661 11.7712L35.6641 7.80117L35.6374 7.65695Z" fill="#EE2323"/>
<path d="M35.6641 7.80116L16.3661 11.7712L16.3949 11.9154L35.6971 7.94538L35.6641 7.80116Z" fill="#EE2B26"/>
<path d="M35.6971 7.94539L16.3949 11.9154L16.4258 12.0596L35.7238 8.0896L35.6971 7.94539Z" fill="#EE3328"/>
<path d="M35.7239 8.0896L16.4259 12.0596L16.4547 12.2038L35.7548 8.23381L35.7239 8.0896Z" fill="#EE352B"/>
<path d="M35.7548 8.23383L16.4547 12.2039L16.4836 12.3481L35.7837 8.37804L35.7548 8.23383Z" fill="#EE3A2E"/>
<path d="M35.7836 8.37804L16.4835 12.3481L16.5124 12.4923L35.8145 8.52225L35.7836 8.37804Z" fill="#EE3F2E"/>
<path d="M35.8145 8.52225L16.5123 12.4923L16.5432 12.6365L35.8433 8.66646L35.8145 8.52225Z" fill="#EE4530"/>
<path d="M35.8434 8.66644L16.5433 12.6365L16.5722 12.7848L35.8743 8.81066L35.8434 8.66644Z" fill="#EE4A33"/>
<path d="M35.8743 8.81067L16.5721 12.7848L16.603 12.929L35.9052 8.95488L35.8743 8.81067Z" fill="#F04C35"/>
<path d="M35.9052 8.95488L16.603 12.929L16.6319 13.0732L35.932 9.09909L35.9052 8.95488Z" fill="#F05138"/>
<path d="M35.9319 9.09911L16.6318 13.0733L16.6627 13.2175L35.9649 9.24332L35.9319 9.09911Z" fill="#F0543A"/>
<path d="M35.9649 9.24332L16.6627 13.2175L16.6936 13.3617L35.9917 9.38753L35.9649 9.24332Z" fill="#F0593D"/>
<path d="M35.9918 9.38753L16.6937 13.3617L16.7226 13.5059L36.0227 9.53174L35.9918 9.38753Z" fill="#F05C3F"/>
<path d="M36.0226 9.53175L16.7225 13.5059L16.7514 13.6501L36.0515 9.67803L36.0226 9.53175Z" fill="#F06145"/>
<path d="M36.0514 9.67802L16.7513 13.6501L16.7802 13.7943L36.0823 9.82224L36.0514 9.67802Z" fill="#F06347"/>
<path d="M36.0824 9.82225L16.7803 13.7943L16.8112 13.9386L36.1113 9.96647L36.0824 9.82225Z" fill="#F0664A"/>
<path d="M36.1113 9.96646L16.8112 13.9386L16.84 14.0828L36.1422 10.1107L36.1113 9.96646Z" fill="#F06B4C"/>
<path d="M36.1421 10.1107L16.84 14.0828L16.8709 14.227L36.171 10.2549L36.1421 10.1107Z" fill="#F36E4F"/>
<path d="M36.1709 10.2549L16.8708 14.227L16.8997 14.3712L36.1998 10.3991L36.1709 10.2549Z" fill="#F37051"/>
<path d="M36.1998 10.3991L16.8997 14.3712L16.9306 14.5154L36.2286 10.5433L36.1998 10.3991Z" fill="#F37357"/>
<path d="M36.2287 10.5433L16.9307 14.5154L16.9574 14.6596L36.2596 10.6875L36.2287 10.5433Z" fill="#F37859"/>
<path d="M36.2596 10.6875L16.9574 14.6596L16.9904 14.8038L36.2884 10.8317L36.2596 10.6875Z" fill="#F37A5C"/>
<path d="M36.2884 10.8317L16.9904 14.8038L17.0171 14.9481L36.3193 10.976L36.2884 10.8317Z" fill="#F37D5E"/>
<path d="M36.3192 10.976L17.0171 14.9481L17.048 15.0923L36.3501 11.1202L36.3192 10.976Z" fill="#F37F61"/>
<path d="M36.3501 11.1202L17.048 15.0923L17.0768 15.2365L36.379 11.2644L36.3501 11.1202Z" fill="#F58266"/>
<path d="M36.3791 11.2644L17.0769 15.2365L17.1078 15.3807L36.41 11.4086L36.3791 11.2644Z" fill="#F58568"/>
<path d="M36.4099 11.4086L17.1078 15.3807L17.1387 15.527L36.4388 11.5528L36.4099 11.4086Z" fill="#F58A6B"/>
<path d="M36.4388 11.5528L17.1387 15.527L17.1675 15.6712L36.4676 11.697L36.4388 11.5528Z" fill="#F58C6E"/>
<path d="M36.4676 11.6971L17.1675 15.6712L17.1984 15.8154L36.4964 11.8413L36.4676 11.6971Z" fill="#F58F70"/>
<path d="M36.4965 11.8412L17.1985 15.8154L17.2253 15.9596L36.5274 11.9855L36.4965 11.8412Z" fill="#F59173"/>
<path d="M36.5274 11.9855L17.2252 15.9596L17.2582 16.1038L36.5562 12.1297L36.5274 11.9855Z" fill="#F59478"/>
<path d="M36.5562 12.1297L17.2582 16.1038L17.285 16.248L36.5871 12.2739L36.5562 12.1297Z" fill="#F5997D"/>
<path d="M36.5871 12.2739L17.2849 16.2481L17.3158 16.3923L36.6159 12.4181L36.5871 12.2739Z" fill="#F59C7F"/>
<path d="M36.616 12.4181L17.3159 16.3923L17.3448 16.5365L36.6469 12.5664L36.616 12.4181Z" fill="#F59E82"/>
<path d="M36.6469 12.5665L17.3447 16.5365L17.3756 16.6807L36.6737 12.7107L36.6469 12.5665Z" fill="#F8A185"/>
<path d="M36.6736 12.7107L17.3756 16.6807L17.4045 16.8249L36.7066 12.8549L36.6736 12.7107Z" fill="#F8A38A"/>
<path d="M36.7066 12.8549L17.4044 16.8249L17.4353 16.9691L36.7334 12.9991L36.7066 12.8549Z" fill="#F8A88C"/>
<path d="M36.7333 12.9991L17.4353 16.9691L17.4641 17.1133L36.7642 13.1433L36.7333 12.9991Z" fill="#F8AB91"/>
<path d="M36.7643 13.1433L17.4642 17.1133L17.4931 17.2576L36.7952 13.2875L36.7643 13.1433Z" fill="#F8AE94"/>
<path d="M36.7952 13.2875L17.493 17.2576L17.526 17.4018L36.824 13.4318L36.7952 13.2875Z" fill="#F8B099"/>
<path d="M36.824 13.4317L17.526 17.4018L17.5528 17.546L36.8549 13.576L36.824 13.4317Z" fill="#FAB39C"/>
<path d="M36.855 13.5759L17.5529 17.546L17.5838 17.6902L36.8839 13.7202L36.855 13.5759Z" fill="#FAB8A1"/>
<path d="M36.8838 13.7202L17.5837 17.6902L17.6126 17.8344L36.9147 13.8644L36.8838 13.7202Z" fill="#FABAA3"/>
<path d="M36.9147 13.8644L17.6125 17.8344L17.6435 17.9786L36.9415 14.0086L36.9147 13.8644Z" fill="#FABDA8"/>
<path d="M36.9415 14.0086L17.6434 17.9786L17.6723 18.1228L36.9744 14.1528L36.9415 14.0086Z" fill="#FAC2AB"/>
<path d="M36.9744 14.1528L17.6722 18.1229L17.7031 18.2671L37.0012 14.297L36.9744 14.1528Z" fill="#FAC5B0"/>
<path d="M37.0013 14.297L17.7032 18.2671L17.7321 18.4133L37.0322 14.4412L37.0013 14.297Z" fill="#FAC7B3"/>
<path d="M37.0322 14.4412L17.7321 18.4133L17.7609 18.5575L37.061 14.5855L37.0322 14.4412Z" fill="#FACCB8"/>
<path d="M37.061 14.5855L17.7609 18.5576L17.7897 18.7018L37.0919 14.7297L37.061 14.5855Z" fill="#FACFBD"/>
<path d="M37.0918 14.7297L17.7897 18.7018L17.8206 18.846L37.1207 14.8739L37.0918 14.7297Z" fill="#FAD1BF"/>
<path d="M37.1207 14.8739L17.8206 18.846L17.8494 18.9902L37.1516 15.0181L37.1207 14.8739Z" fill="#FDD4C5"/>
<path d="M37.1516 15.0181L17.8495 18.9902L17.8804 19.1344L37.1825 15.1623L37.1516 15.0181Z" fill="#FDD9C7"/>
<path d="M37.1825 15.1623L17.8804 19.1344L17.9092 19.2786L37.2093 15.3086L37.1825 15.1623Z" fill="#FDDCCC"/>
<path d="M37.2093 15.3086L17.9092 19.2786L17.9401 19.4228L37.2422 15.4528L37.2093 15.3086Z" fill="#FDDED1"/>
<path d="M37.2422 15.4528L17.9401 19.4228L17.971 19.5671L37.269 15.597L37.2422 15.4528Z" fill="#FDE3D7"/>
<path d="M37.2691 15.597L17.9711 19.5671L17.9999 19.7113L37.3 15.7412L37.2691 15.597Z" fill="#FDE6D9"/>
<path d="M37.3 15.7412L17.9999 19.7113L18.0287 19.8555L37.3288 15.8855L37.3 15.7412Z" fill="#FDE8DE"/>
<path d="M37.3288 15.8855L18.0287 19.8555L18.0575 19.9997L37.3597 16.0297L37.3288 15.8855Z" fill="#FDEBE3"/>
<path d="M37.3597 16.0297L18.0575 19.9997L18.0884 20.1439L37.3885 16.1739L37.3597 16.0297Z" fill="#FFF0E8"/>
<path d="M37.3886 16.1739L18.0885 20.1439L18.1173 20.2881L37.4195 16.3181L37.3886 16.1739Z" fill="#FFF3EE"/>
<path d="M37.4195 16.3181L18.1173 20.2881L18.1482 20.4324L37.4483 16.4623L37.4195 16.3181Z" fill="#FFF8F3"/>
<path d="M37.4483 16.4623L18.1482 20.4324L18.177 20.5766L37.4771 16.6065L37.4483 16.4623Z" fill="#FFFAFA"/>
<path d="M37.4771 16.6065L18.177 20.5766L18.2079 20.7208L37.5059 16.7508L37.4771 16.6065Z" fill="#FFFAF5"/>
<path d="M37.5059 16.7507L18.2079 20.7208L18.2347 20.865L37.5368 16.8949L37.5059 16.7507Z" fill="#FFF8F3"/>
<path d="M37.5369 16.895L18.2347 20.865L18.2677 21.0092L37.5657 17.0392L37.5369 16.895Z" fill="#FFF3EE"/>
<path d="M37.5657 17.0392L18.2677 21.0092L18.2945 21.1534L37.5966 17.1834L37.5657 17.0392Z" fill="#FFF0E8"/>
<path d="M37.5966 17.1834L18.2944 21.1534L18.3253 21.3018L37.6275 17.3276L37.5966 17.1834Z" fill="#FDEBE3"/>
<path d="M37.6276 17.3276L18.3254 21.3018L18.3543 21.446L37.6564 17.4718L37.6276 17.3276Z" fill="#FDE8E1"/>
<path d="M37.6564 17.4718L18.3542 21.446L18.3852 21.5902L37.6873 17.616L37.6564 17.4718Z" fill="#FDE6DC"/>
<path d="M37.6873 17.616L18.3851 21.5902L18.416 21.7344L37.7161 17.7603L37.6873 17.616Z" fill="#FDE3D7"/>
<path d="M37.7161 17.7603L18.416 21.7344L18.4449 21.8786L37.745 17.9045L37.7161 17.7603Z" fill="#FDE1D1"/>
<path d="M37.7449 17.9045L18.4448 21.8786L18.4757 22.0228L37.7738 18.0487L37.7449 17.9045Z" fill="#FDDCCF"/>
<path d="M37.7737 18.0487L18.4757 22.0228L18.5025 22.1671L37.8046 18.195L37.7737 18.0487Z" fill="#FDD9CA"/>
<path d="M37.8047 18.195L18.5026 22.1671L18.5355 22.3113L37.8336 18.3392L37.8047 18.195Z" fill="#FDD4C5"/>
<path d="M37.8336 18.3392L18.5355 22.3113L18.5623 22.4555L37.8645 18.4834L37.8336 18.3392Z" fill="#FAD1BF"/>
<path d="M37.8644 18.4834L18.5623 22.4555L18.5932 22.5997L37.8933 18.6276L37.8644 18.4834Z" fill="#FACFBD"/>
<path d="M37.8932 18.6276L18.5931 22.5997L18.622 22.7439L37.9241 18.7718L37.8932 18.6276Z" fill="#FACCB8"/>
<path d="M37.9242 18.7718L18.6221 22.7439L18.653 22.8881L37.951 18.916L37.9242 18.7718Z" fill="#FAC7B3"/>
<path d="M37.951 18.916L18.653 22.8881L18.6818 23.0323L37.984 19.0602L37.951 18.916Z" fill="#FAC5B0"/>
<path d="M37.9839 19.0602L18.6818 23.0323L18.7127 23.1766L38.0107 19.2045L37.9839 19.0602Z" fill="#FAC2AB"/>
<path d="M38.0107 19.2045L18.7126 23.1766L18.7415 23.3208L38.0416 19.3487L38.0107 19.2045Z" fill="#FABFA8"/>
<path d="M38.0417 19.3487L18.7416 23.3208L18.7704 23.465L38.0726 19.4929L38.0417 19.3487Z" fill="#FABAA3"/>
<path d="M38.0725 19.4929L18.7704 23.465L18.8033 23.6092L38.1014 19.6371L38.0725 19.4929Z" fill="#FAB8A1"/>
<path d="M38.1014 19.6371L18.8033 23.6092L18.8301 23.7534L38.1323 19.7813L38.1014 19.6371Z" fill="#FAB59C"/>
<path d="M38.1322 19.7813L18.8301 23.7534L18.861 23.8976L38.1611 19.9255L38.1322 19.7813Z" fill="#F8B399"/>
<path d="M38.1612 19.9255L18.8611 23.8976L18.8899 24.0439L38.1921 20.0697L38.1612 19.9255Z" fill="#F8B094"/>
<path d="M38.192 20.0697L18.8899 24.0439L18.9208 24.1881L38.2188 20.214L38.192 20.0697Z" fill="#F8AB91"/>
<path d="M38.2188 20.214L18.9208 24.1881L18.9496 24.3323L38.2518 20.3582L38.2188 20.214Z" fill="#F8A88C"/>
<path d="M38.2517 20.3582L18.9496 24.3323L18.9805 24.4766L38.2785 20.5024L38.2517 20.3582Z" fill="#F8A68A"/>
<path d="M38.2785 20.5024L18.9805 24.4766L19.0093 24.6208L38.3094 20.6466L38.2785 20.5024Z" fill="#F8A185"/>
<path d="M38.3095 20.6466L19.0094 24.6208L19.0382 24.765L38.3383 20.7908L38.3095 20.6466Z" fill="#F59E82"/>
<path d="M38.3383 20.7908L19.0382 24.765L19.0671 24.9092L38.3692 20.9371L38.3383 20.7908Z" fill="#F59C7F"/>
<path d="M38.3692 20.9371L19.067 24.9092L19.0979 25.0534L38.398 21.0813L38.3692 20.9371Z" fill="#F5997D"/>
<path d="M38.398 21.0813L19.0979 25.0534L19.1267 25.1976L38.4289 21.2255L38.398 21.0813Z" fill="#F59778"/>
<path d="M38.429 21.2255L19.1268 25.1976L19.1577 25.3419L38.4599 21.3698L38.429 21.2255Z" fill="#F59475"/>
<path d="M38.4599 21.3698L19.1577 25.3418L19.1866 25.4861L38.4867 21.514L38.4599 21.3698Z" fill="#F58F73"/>
<path d="M38.4866 21.5139L19.1865 25.486L19.2174 25.6303L38.5196 21.6582L38.4866 21.5139Z" fill="#F58C6E"/>
<path d="M38.5196 21.6582L19.2174 25.6303L19.2483 25.7745L38.5463 21.8024L38.5196 21.6582Z" fill="#F58A6B"/>
<path d="M38.5463 21.8024L19.2483 25.7745L19.2771 25.9187L38.5772 21.9466L38.5463 21.8024Z" fill="#F58768"/>
<path d="M38.5773 21.9466L19.2772 25.9187L19.3061 26.0629L38.6062 22.0908L38.5773 21.9466Z" fill="#F58566"/>
<path d="M38.6061 22.0908L19.306 26.0629L19.3349 26.2071L38.637 22.235L38.6061 22.0908Z" fill="#F37F63"/>
<path d="M38.637 22.235L19.3348 26.2071L19.3657 26.3513L38.6658 22.3792L38.637 22.235Z" fill="#F37D61"/>
<path d="M38.6658 22.3793L19.3657 26.3514L19.3946 26.4956L38.6967 22.5235L38.6658 22.3793Z" fill="#F37A5C"/>
<path d="M38.6968 22.5235L19.3947 26.4956L19.4256 26.6398L38.7257 22.6677L38.6968 22.5235Z" fill="#F37859"/>
<path d="M38.7256 22.6677L19.4255 26.6398L19.4544 26.784L38.7545 22.8119L38.7256 22.6677Z" fill="#F37557"/>
<path d="M38.7544 22.8119L19.4543 26.784L19.4852 26.9303L38.7833 22.9561L38.7544 22.8119Z" fill="#F37354"/>
<path d="M38.7833 22.9561L19.4852 26.9303L19.512 27.0745L38.8142 23.1003L38.7833 22.9561Z" fill="#F36E51"/>
<path d="M38.8142 23.1003L19.5121 27.0745L19.545 27.2187L38.8431 23.2446L38.8142 23.1003Z" fill="#F36B4C"/>
<path d="M38.8431 23.2445L19.545 27.2187L19.5718 27.3629L38.874 23.3888L38.8431 23.2445Z" fill="#F0684A"/>
<path d="M38.8739 23.3887L19.5718 27.3629L19.6027 27.5071L38.9048 23.533L38.8739 23.3887Z" fill="#F06347"/>
<path d="M38.9048 23.533L19.6027 27.5071L19.6315 27.6513L38.9337 23.6772L38.9048 23.533Z" fill="#F06145"/>
<path d="M38.9337 23.6772L19.6316 27.6513L19.6625 27.7956L38.9647 23.8235L38.9337 23.6772Z" fill="#F05C42"/>
<path d="M38.9646 23.8235L19.6625 27.7956L19.6934 27.9398L38.9935 23.9677L38.9646 23.8235Z" fill="#F0593F"/>
<path d="M38.9935 23.9677L19.6934 27.9398L19.7222 28.084L39.0223 24.1119L38.9935 23.9677Z" fill="#F0573A"/>
<path d="M39.0223 24.1119L19.7222 28.084L19.7531 28.2282L39.0511 24.2561L39.0223 24.1119Z" fill="#F05138"/>
<path d="M39.0511 24.2561L19.7531 28.2282L19.7798 28.3724L39.082 24.4003L39.0511 24.2561Z" fill="#F04C35"/>
<path d="M39.0821 24.4003L19.7799 28.3724L19.8129 28.5166L39.1109 24.5445L39.0821 24.4003Z" fill="#EE4A33"/>
<path d="M39.1109 24.5446L19.8129 28.5167L19.8396 28.6609L39.1418 24.6888L39.1109 24.5446Z" fill="#EE4530"/>
<path d="M39.1418 24.6888L19.8396 28.6609L19.8705 28.8051L39.1706 24.833L39.1418 24.6888Z" fill="#EE3F2E"/>
<path d="M39.1706 24.833L19.8705 28.8051L19.8993 28.9493L39.2015 24.9772L39.1706 24.833Z" fill="#EE3A2E"/>
<path d="M39.2016 24.9772L19.8994 28.9493L19.9303 29.0935L39.2284 25.1214L39.2016 24.9772Z" fill="#EE352B"/>
<path d="M39.2283 25.1214L19.9303 29.0935L19.9591 29.2377L39.2613 25.2656L39.2283 25.1214Z" fill="#EE3328"/>
<path d="M39.2613 25.2656L19.9591 29.2377L19.99 29.3819L39.288 25.4098L39.2613 25.2656Z" fill="#EE2E26"/>
<path d="M39.288 25.4098L19.99 29.3819L20.0188 29.5261L39.3189 25.554L39.288 25.4098Z" fill="#EE2623"/>
<path d="M39.319 25.554L20.0189 29.5261L20.0478 29.6724L39.3499 25.6983L39.319 25.554Z" fill="#EE2123"/>
<path d="M39.3499 25.6983L20.0477 29.6724L20.0807 29.8166L39.3787 25.8425L39.3499 25.6983Z" fill="#EB1E23"/>
<path d="M39.3787 25.8425L20.0807 29.8166L20.1075 29.9609L39.4096 25.9867L39.3787 25.8425Z" fill="#EE2323"/>
<path d="M39.4096 25.9867L20.1074 29.9608L20.1383 30.1051L39.4384 26.1309L39.4096 25.9867Z" fill="#EE2B26"/>
<path d="M39.4384 26.1309L20.1383 30.1051L20.1671 30.2493L39.4693 26.2751L39.4384 26.1309Z" fill="#EE3028"/>
<path d="M39.4694 26.2751L20.1672 30.2493L20.1981 30.3935L39.4962 26.4193L39.4694 26.2751Z" fill="#EE352B"/>
<path d="M39.4962 26.4193L20.1981 30.3935L20.227 30.5377L39.5291 26.5635L39.4962 26.4193Z" fill="#EE3A2E"/>
<path d="M39.5291 26.5635L20.2269 30.5377L20.2578 30.6819L39.5559 26.7119L39.5291 26.5635Z" fill="#EE3F2E"/>
<path d="M39.5558 26.7119L20.2578 30.6819L20.2867 30.8261L39.5868 26.8561L39.5558 26.7119Z" fill="#EE4530"/>
<path d="M39.5868 26.8561L20.2867 30.8261L20.3156 30.9703L39.6157 27.0003L39.5868 26.8561Z" fill="#EE4A33"/>
<path d="M39.6156 27.0003L20.3156 30.9704L20.3444 31.1146L39.6466 27.1445L39.6156 27.0003Z" fill="#F04C35"/>
<path d="M39.6465 27.1445L20.3444 31.1146L20.3753 31.2588L39.6754 27.2887L39.6465 27.1445Z" fill="#F05138"/>
<path d="M39.6753 27.2887L20.3752 31.2588L20.4041 31.403L39.7062 27.433L39.6753 27.2887Z" fill="#F0543A"/>
<path d="M39.7063 27.433L20.4042 31.403L20.4351 31.5472L39.7372 27.5772L39.7063 27.433Z" fill="#F0593D"/>
<path d="M39.7372 27.5772L20.4351 31.5472L20.4639 31.6914L39.764 27.7214L39.7372 27.5772Z" fill="#F05C3F"/>
<path d="M39.764 27.7214L20.4639 31.6914L20.4948 31.8357L39.7969 27.8656L39.764 27.7214Z" fill="#F06145"/>
<path d="M39.7969 27.8656L20.4948 31.8357L20.5257 31.9799L39.8237 28.0098L39.7969 27.8656Z" fill="#F06347"/>
<path d="M39.8237 28.0098L20.5256 31.9798L20.5545 32.1241L39.8546 28.154L39.8237 28.0098Z" fill="#F0664A"/>
<path d="M39.8547 28.154L20.5546 32.1241L20.5834 32.2683L39.8835 28.2982L39.8547 28.154Z" fill="#F06B4C"/>
<path d="M39.8835 28.2982L20.5834 32.2683L20.6122 32.4125L39.9144 28.4425L39.8835 28.2982Z" fill="#F36E4F"/>
<path d="M39.9143 28.4425L20.6122 32.4125L20.6431 32.5588L39.9432 28.5867L39.9143 28.4425Z" fill="#F37051"/>
<path d="M39.9432 28.5867L20.6431 32.5588L20.6719 32.703L39.9741 28.7309L39.9432 28.5867Z" fill="#F37357"/>
<path d="M39.9742 28.7309L20.672 32.703L20.7029 32.8472L40.003 28.8751L39.9742 28.7309Z" fill="#F37859"/>
<path d="M40.003 28.8751L20.7029 32.8472L20.7317 32.9914L40.0318 29.0193L40.003 28.8751Z" fill="#F37A5C"/>
<path d="M40.0318 29.0193L20.7317 32.9914L20.7626 33.1356L40.0606 29.1635L40.0318 29.0193Z" fill="#F37D5E"/>
<path d="M40.0606 29.1635L20.7626 33.1356L20.7894 33.2799L40.0915 29.3078L40.0606 29.1635Z" fill="#F37F61"/>
<path d="M40.0916 29.3078L20.7894 33.2799L20.8224 33.4241L40.1204 29.454L40.0916 29.3078Z" fill="#F58266"/>
<path d="M40.1204 29.454L20.8224 33.4241L20.8492 33.5683L40.1513 29.5983L40.1204 29.454Z" fill="#F58568"/>
<path d="M40.1513 29.5982L20.8491 33.5683L20.88 33.7125L40.1822 29.7425L40.1513 29.5982Z" fill="#F58A6B"/>
<path d="M40.1822 29.7425L20.88 33.7125L20.9088 33.8567L40.211 29.8867L40.1822 29.7425Z" fill="#F58C6E"/>
<path d="M40.2111 29.8867L20.9089 33.8567L20.9398 34.0009L40.242 30.0309L40.2111 29.8867Z" fill="#F58F70"/>
<path d="M40.242 30.0309L20.9398 34.0009L20.9707 34.1451L40.2708 30.1751L40.242 30.0309Z" fill="#F59173"/>
<path d="M40.2708 30.1751L20.9707 34.1451L20.9995 34.2894L40.2996 30.3193L40.2708 30.1751Z" fill="#F59478"/>
<path d="M40.2996 30.3193L20.9995 34.2894L21.0304 34.4336L40.3285 30.4635L40.2996 30.3193Z" fill="#F5997D"/>
<path d="M40.3284 30.4635L21.0304 34.4336L21.0572 34.5778L40.3593 30.6077L40.3284 30.4635Z" fill="#F59C7F"/>
<path d="M40.3594 30.6078L21.0573 34.5778L21.0902 34.722L40.3883 30.752L40.3594 30.6078Z" fill="#F59E82"/>
<path d="M40.3882 30.752L21.0902 34.722L21.117 34.8662L40.4191 30.8962L40.3882 30.752Z" fill="#F8A185"/>
<path d="M40.4191 30.8962L21.1169 34.8662L21.1478 35.0104L40.4479 31.0404L40.4191 30.8962Z" fill="#F8A38A"/>
<path d="M40.4479 31.0404L21.1478 35.0104L21.1767 35.1547L40.4788 31.1846L40.4479 31.0404Z" fill="#F8A88C"/>
<path d="M40.4789 31.1846L21.1768 35.1546L21.2077 35.303L40.5057 31.3288L40.4789 31.1846Z" fill="#F8AB91"/>
<path d="M40.5057 31.3288L21.2076 35.303L21.2365 35.4472L40.5386 31.473L40.5057 31.3288Z" fill="#F8AE94"/>
<path d="M40.5386 31.473L21.2365 35.4472L21.2674 35.5914L40.5654 31.6173L40.5386 31.473Z" fill="#F8B099"/>
<path d="M40.5654 31.6172L21.2673 35.5914L21.2962 35.7356L40.5963 31.7615L40.5654 31.6172Z" fill="#FAB39C"/>
<path d="M40.5962 31.7615L21.2961 35.7356L21.325 35.8798L40.6271 31.9057L40.5962 31.7615Z" fill="#FAB8A1"/>
<path d="M40.6272 31.9057L21.3251 35.8798L21.358 36.0241L40.6561 32.0499L40.6272 31.9057Z" fill="#FABAA3"/>
<path d="M40.6561 32.0499L21.358 36.0241L21.3848 36.1683L40.687 32.1941L40.6561 32.0499Z" fill="#FABDA8"/>
<path d="M40.6869 32.1941L21.3848 36.1683L21.4157 36.3125L40.7158 32.3404L40.6869 32.1941Z" fill="#FAC2AB"/>
<path d="M40.7157 32.3404L21.4156 36.3125L21.4445 36.4567L40.7466 32.4846L40.7157 32.3404Z" fill="#FAC5B0"/>
<path d="M40.7467 32.4846L21.4446 36.4567L21.4755 36.6009L40.7735 32.6288L40.7467 32.4846Z" fill="#FAC7B3"/>
<path d="M40.7735 32.6288L21.4755 36.6009L21.5043 36.7451L40.8065 32.773L40.7735 32.6288Z" fill="#FACCB8"/>
<path d="M40.8064 32.773L21.5043 36.7451L21.5352 36.8894L40.8332 32.9173L40.8064 32.773Z" fill="#FACFBD"/>
<path d="M40.8332 32.9172L21.5352 36.8893L21.564 37.0335L40.8641 33.0615L40.8332 32.9172Z" fill="#FAD1BF"/>
<path d="M40.8642 33.0615L21.5641 37.0336L21.5929 37.1778L40.893 33.2057L40.8642 33.0615Z" fill="#FDD4C5"/>
<path d="M40.893 33.2057L21.5929 37.1778L21.6217 37.322L40.9239 33.3499L40.893 33.2057Z" fill="#FDD9C7"/>
<path d="M40.9239 33.3499L21.6217 37.322L21.6526 37.4662L40.9527 33.4941L40.9239 33.3499Z" fill="#FDDCCC"/>
<path d="M40.9527 33.4941L21.6526 37.4662L21.6814 37.6104L40.9836 33.6383L40.9527 33.4941Z" fill="#FDDED1"/>
<path d="M40.9837 33.6383L21.6815 37.6104L21.7124 37.7546L41.0146 33.7826L40.9837 33.6383Z" fill="#FDE3D7"/>
<path d="M41.0146 33.7825L21.7124 37.7546L21.7412 37.8989L41.0413 33.9268L41.0146 33.7825Z" fill="#FDE6D9"/>
<path d="M41.0413 33.9268L21.7412 37.8989L21.7721 38.0431L41.0743 34.071L41.0413 33.9268Z" fill="#FDE8DE"/>
<path d="M41.0743 34.071L21.7721 38.0431L21.803 38.1894L41.101 34.2152L41.0743 34.071Z" fill="#FDEBE3"/>
<path d="M41.101 34.2152L21.803 38.1893L21.8318 38.3336L41.1319 34.3594L41.101 34.2152Z" fill="#FFF0E8"/>
<path d="M41.132 34.3594L21.8319 38.3336L21.8608 38.4778L41.1608 34.5036L41.132 34.3594Z" fill="#FFF3EE"/>
<path d="M41.1608 34.5036L21.8607 38.4778L21.8896 38.622L41.1917 34.6478L41.1608 34.5036Z" fill="#FFF5F3"/>
<path d="M41.1917 34.6478L21.8895 38.622L21.9204 38.7662L41.2205 34.792L41.1917 34.6478Z" fill="#FFFAFA"/>
<path d="M41.2205 34.792L21.9204 38.7662L21.9493 38.9104L41.2514 34.9363L41.2205 34.792Z" fill="#FFFAF5"/>
<path d="M41.2515 34.9363L21.9493 38.9104L21.9802 39.0546L41.2803 35.0846L41.2515 34.9363Z" fill="#FFF8F5"/>
<path d="M41.2803 35.0846L21.9802 39.0546L22.0091 39.1988L41.3092 35.2288L41.2803 35.0846Z" fill="#FFF3EE"/>
<path d="M41.3091 35.2288L22.009 39.1989L22.0399 39.3431L41.338 35.373L41.3091 35.2288Z" fill="#FFF0E8"/>
<path d="M41.338 35.373L22.0399 39.3431L22.0667 39.4873L41.3689 35.5172L41.338 35.373Z" fill="#FDEEE6"/>
<path d="M41.3689 35.5172L22.0668 39.4873L22.0997 39.6315L41.3978 35.6615L41.3689 35.5172Z" fill="#FDEBE1"/>
<path d="M41.3978 35.6615L22.0997 39.6315L22.1265 39.7757L41.4287 35.8057L41.3978 35.6615Z" fill="#FDE6DC"/>
<path d="M41.4286 35.8057L22.1265 39.7757L22.1574 39.9199L41.4595 35.9499L41.4286 35.8057Z" fill="#FDE3D7"/>
<path d="M41.4595 35.9499L22.1573 39.9199L22.1862 40.0642L41.4883 36.0941L41.4595 35.9499Z" fill="#FDE1D1"/>
<path d="M41.4884 36.0941L22.1863 40.0641L22.2172 40.2084L41.5193 36.2383L41.4884 36.0941Z" fill="#FDDECF"/>
<path d="M41.5193 36.2383L22.2172 40.2083L22.2481 40.3526L41.5482 36.3825L41.5193 36.2383Z" fill="#FDD9CA"/>
<path d="M41.5481 36.3825L22.248 40.3526L22.2769 40.4968L41.577 36.5268L41.5481 36.3825Z" fill="#FDD4C5"/>
<path d="M41.577 36.5267L22.2769 40.4968L22.3078 40.641L41.6058 36.671L41.577 36.5267Z" fill="#FAD1C2"/>
<path d="M41.6058 36.671L22.3077 40.641L22.3345 40.7852L41.6367 36.8152L41.6058 36.671Z" fill="#FACFBD"/>
<path d="M41.6368 36.8152L22.3346 40.7852L22.3676 40.9294L41.6656 36.9594L41.6368 36.8152Z" fill="#FACCB8"/>
<path d="M41.6656 36.9594L22.3676 40.9294L22.3943 41.0757L41.6965 37.1036L41.6656 36.9594Z" fill="#FAC7B5"/>
<path d="M41.6964 37.1036L22.3943 41.0757L22.4252 41.2199L41.7253 37.2478L41.6964 37.1036Z" fill="#FAC5B0"/>
<path d="M41.7253 37.2478L22.4252 41.2199L22.454 41.3641L41.7562 37.392L41.7253 37.2478Z" fill="#FAC2AE"/>
<path d="M41.7563 37.392L22.4541 41.3641L22.485 41.5084L41.783 37.5363L41.7563 37.392Z" fill="#FABFA8"/>
<path d="M41.783 37.5363L22.485 41.5084L22.5138 41.6526L41.816 37.6805L41.783 37.5363Z" fill="#FABDA6"/>
<path d="M41.816 37.6805L22.5138 41.6526L22.5447 41.7968L41.8427 37.8247L41.816 37.6805Z" fill="#FAB8A1"/>
<path d="M41.8427 37.8247L22.5447 41.7968L22.5735 41.941L41.8736 37.971L41.8427 37.8247Z" fill="#FAB59C"/>
<path d="M41.8736 37.9709L22.5735 41.941L22.6023 42.0852L41.9045 38.1152L41.8736 37.9709Z" fill="#F8B399"/>
<path d="M41.9046 38.1152L22.6024 42.0852L22.6354 42.2294L41.9334 38.2594L41.9046 38.1152Z" fill="#F8B094"/>
<path d="M41.9334 38.2594L22.6354 42.2294L22.6622 42.3736L41.9643 38.4036L41.9334 38.2594Z" fill="#F8AB91"/>
<path d="M41.9643 38.4036L22.6621 42.3736L22.693 42.5179L41.9931 38.5478L41.9643 38.4036Z" fill="#F8A88F"/>
<path d="M41.9931 38.5478L22.693 42.5179L22.7218 42.6621L42.024 38.692L41.9931 38.5478Z" fill="#F8A68A"/>
<path d="M42.0241 38.692L22.7219 42.6621L22.7528 42.8063L42.0509 38.8363L42.0241 38.692Z" fill="#F8A187"/>
<path d="M42.0508 38.8363L22.7528 42.8063L22.7817 42.9505L42.0838 38.9805L42.0508 38.8363Z" fill="#F59E82"/>
<path d="M42.0838 38.9805L22.7816 42.9505L22.8125 43.0947L42.1106 39.1247L42.0838 38.9805Z" fill="#F59C7F"/>
<path d="M42.1105 39.1247L22.8125 43.0947L22.8413 43.2389L42.1414 39.2689L42.1105 39.1247Z" fill="#F5997D"/>
<path d="M42.1414 39.2689L22.8413 43.2389L22.8702 43.3831L42.1702 39.4131L42.1414 39.2689Z" fill="#F59778"/>
<path d="M42.1703 39.4131L22.8702 43.3831L22.8991 43.5274L42.2012 39.5573L42.1703 39.4131Z" fill="#F59475"/>
<path d="M42.2012 39.5573L22.899 43.5274L22.93 43.6716L42.23 39.7015L42.2012 39.5573Z" fill="#F58F73"/>
<path d="M42.23 39.7015L22.9299 43.6716L22.9588 43.8199L42.2609 39.8458L42.23 39.7015Z" fill="#F58C6E"/>
<path d="M42.261 39.8457L22.9589 43.8199L22.9898 43.9641L42.2919 39.99L42.261 39.8457Z" fill="#F58A6B"/>
<path d="M42.2919 39.99L22.9897 43.9641L23.0186 44.1083L42.3187 40.1342L42.2919 39.99Z" fill="#F58768"/>
<path d="M42.3187 40.1342L23.0186 44.1083L23.0495 44.2526L42.3516 40.2784L42.3187 40.1342Z" fill="#F58566"/>
<path d="M42.3516 40.2784L23.0494 44.2526L23.0803 44.3968L42.3784 40.4226L42.3516 40.2784Z" fill="#F37F63"/>
<path d="M42.3784 40.4226L23.0803 44.3968L23.1092 44.541L42.4093 40.5668L42.3784 40.4226Z" fill="#F37D61"/>
<path d="M42.4093 40.5668L23.1093 44.541L23.1381 44.6852L42.4382 40.7131L42.4093 40.5668Z" fill="#F37A5C"/>
<path d="M42.4382 40.7131L23.1381 44.6852L23.1669 44.8294L42.4691 40.8573L42.4382 40.7131Z" fill="#F37859"/>
<path d="M42.469 40.8573L23.1669 44.8294L23.1978 44.9736L42.4979 41.0015L42.469 40.8573Z" fill="#F37557"/>
<path d="M42.4979 41.0015L23.1978 44.9736L23.2266 45.1178L42.5288 41.1457L42.4979 41.0015Z" fill="#F37354"/>
<path d="M42.5287 41.1458L23.2266 45.1178L23.2575 45.2621L42.5576 41.29L42.5287 41.1458Z" fill="#F36E51"/>
<path d="M42.5577 41.29L23.2576 45.2621L23.2864 45.4063L42.5865 41.4342L42.5577 41.29Z" fill="#F36B4C"/>
<path d="M42.5865 41.4342L23.2864 45.4063L23.3173 45.5505L42.6153 41.5784L42.5865 41.4342Z" fill="#F0684A"/>
<path d="M42.6153 41.5784L23.3173 45.5505L23.344 45.6947L42.6462 41.7226L42.6153 41.5784Z" fill="#F06647"/>
<path d="M42.6462 41.7226L23.344 45.6947L23.377 45.8389L42.675 41.8668L42.6462 41.7226Z" fill="#F06145"/>
<path d="M42.675 41.8668L23.377 45.8389L23.4037 45.9831L42.7059 42.0111L42.675 41.8668Z" fill="#F05E42"/>
<path d="M42.706 42.011L23.4038 45.9831L23.4347 46.1274L42.7369 42.1553L42.706 42.011Z" fill="#F0593F"/>
<path d="M42.7368 42.1553L23.4347 46.1274L23.4635 46.2716L42.7657 42.2995L42.7368 42.1553Z" fill="#F0573A"/>
<path d="M42.7657 42.2995L23.4635 46.2716L23.4944 46.4158L42.7966 42.4437L42.7657 42.2995Z" fill="#F05138"/>
<path d="M42.7967 42.4437L23.4945 46.4158L23.5254 46.56L42.8255 42.5879L42.7967 42.4437Z" fill="#F04C35"/>
<path d="M42.8255 42.5879L23.5254 46.56L23.5542 46.7063L42.8543 42.7321L42.8255 42.5879Z" fill="#EE4A33"/>
<path d="M42.8543 42.7321L23.5542 46.7063L23.5851 46.8505L42.8831 42.8763L42.8543 42.7321Z" fill="#EE4530"/>
<path d="M42.8831 42.8763L23.5851 46.8505L23.6119 46.9947L42.914 43.0205L42.8831 42.8763Z" fill="#EE3F2E"/>
<path d="M42.9141 43.0205L23.6119 46.9947L23.6449 47.1389L42.9429 43.1648L42.9141 43.0205Z" fill="#EE3D2E"/>
<path d="M42.9429 43.1648L23.6449 47.1389L23.6717 47.2831L42.9738 43.309L42.9429 43.1648Z" fill="#EE382B"/>
<path d="M42.9738 43.309L23.6716 47.2831L23.7025 47.4274L43.0026 43.4532L42.9738 43.309Z" fill="#EE3328"/>
<path d="M43.0026 43.4532L23.7025 47.4274L23.7314 47.5716L43.0335 43.5995L43.0026 43.4532Z" fill="#EE2E26"/>
<path d="M43.0336 43.5995L23.7314 47.5716L23.7623 47.7158L43.0604 43.7437L43.0336 43.5995Z" fill="#EE2623"/>
<path d="M43.0604 43.7437L23.7623 47.7158L23.7912 47.86L43.0933 43.8879L43.0604 43.7437Z" fill="#EB2123"/>
<path d="M43.0933 43.8879L23.7911 47.86L23.822 48.0042L43.1201 44.0321L43.0933 43.8879Z" fill="#EB1923"/>
<path d="M43.1201 44.0321L23.822 48.0042L23.9395 48.5811L43.2416 44.609L43.1201 44.0321Z" fill="#EB1923"/>
</g>
</g>
<path d="M34.7494 27.9315L24.403 45.1735L29.7472 33.0203L23.8385 35.2659L31.0761 21.4728L23.7273 24.2726L30.8494 10.9883L29.2219 20.0327L35.8372 17.546L29.294 30.0226L34.7494 27.9315ZM36.1545 17.2493L29.3784 19.8534L31.1173 10.1704L23.4224 24.5569L30.8371 21.7056L23.5645 35.5214L29.4918 33.2428L23.7005 46.4899L35.0626 27.6534L29.5577 29.7713L36.1545 17.2493Z" fill="#EE3328"/>
<defs>
<linearGradient id="paint0_linear_168_406" x1="26.5577" y1="10.66" x2="33.4585" y2="44.6724" gradientUnits="userSpaceOnUse">
<stop stop-color="#F0573A"/>
<stop offset="0.230367" stop-color="#FFFAF5"/>
<stop offset="0.345222" stop-color="#F8A68A"/>
<stop offset="0.402649" stop-color="#F04C35"/>
<stop offset="0.464519" stop-color="#EB1E23"/>
<stop offset="0.551601" stop-color="#F0593D"/>
<stop offset="0.770235" stop-color="#FFFAF5"/>
<stop offset="0.853399" stop-color="#FABFA8"/>
<stop offset="1" stop-color="#F0543A"/>
</linearGradient>
</defs>
</svg>
