<svg width="60" height="60" viewBox="0 0 60 60" fill="none" xmlns="http://www.w3.org/2000/svg">
<rect width="60" height="60" fill="#800033"/>
<g clip-path="url(#clip0_150_1091)">
<path d="M9 27.4812H11.9001V29.5564H11.919L14.1305 27.4812H17.3817L14.7143 30.0263L17.8005 33.5188H14.1305L11.919 31.0474H11.9001V33.5188H9V27.4812Z" fill="white"/>
<path d="M21.9906 32.4715C23.2805 32.4715 23.1953 30.9555 23.1953 30.4549C23.1953 29.9542 23.2096 28.5651 21.9906 28.5651C20.7711 28.5651 20.7857 29.9542 20.7857 30.4549C20.7857 30.9555 20.6997 32.4715 21.9906 32.4715ZM21.9906 27.3133C25.2835 27.3133 26.1792 28.0407 26.1792 30.5182C26.1792 32.9959 25.2835 33.7231 21.9906 33.7231C18.6973 33.7231 17.8018 32.9959 17.8018 30.5182C17.8018 28.0407 18.6973 27.3133 21.9906 27.3133Z" fill="white"/>
<path d="M32.4335 31.2515V33.5593H35.4109V27.5223H32.4335V29.5972H30.2974V27.5223H27.3195V33.5593H30.2974V31.2515H32.4335Z" fill="white"/>
<path d="M36.8187 27.5222H39.8652V32.1224C39.8652 32.1224 42.2969 32.1298 42.6199 32.1298C42.9435 32.1298 43.1344 31.8243 43.1344 31.8243V33.5593H36.8187V27.5222Z" fill="white"/>
<path d="M50.2377 29.5208C49.6074 28.9893 49.0672 28.8107 48.4864 28.8008C47.9187 28.7904 47.4001 28.9984 47.4001 29.3624C47.4001 29.6498 47.7878 29.7688 49.1438 30.0665C50.2579 30.3122 50.9999 30.9116 50.9999 32.0277C50.9999 33.2875 49.0106 33.9998 47.2313 33.9998C45.9821 33.9998 45.0232 33.7628 44.1651 33.3572V31.6663C44.6955 32.2493 45.8822 32.5588 46.7914 32.5588C47.2957 32.5588 47.5432 32.4808 47.5432 32.0581C47.5432 31.7965 47.2288 31.5579 46.2766 31.3743C44.4728 31.0261 43.8632 30.482 43.8632 29.5518C43.8632 28.216 45.4399 27.4208 47.3827 27.4208C48.4301 27.4208 49.3919 27.4549 50.2377 27.8693V29.5208Z" fill="white"/>
<path d="M41.4385 29.9849L41.6471 29.5971C41.0192 29.2699 40.834 28.4376 41.1529 27.963C41.4959 27.4522 42.4482 27.2334 42.9624 28.024C43.4003 28.6985 42.9813 29.2699 42.7911 29.4336C42.601 29.5971 41.4385 29.9849 41.4385 29.9849Z" fill="white"/>
</g>
<defs>
<clipPath id="clip0_150_1091">
<rect width="42" height="7" fill="white" transform="translate(9 27)"/>
</clipPath>
</defs>
</svg>
