<svg width="60" height="60" viewBox="0 0 60 60" fill="none" xmlns="http://www.w3.org/2000/svg">
<rect width="60" height="60" fill="#2E65B0"/>
<g clip-path="url(#clip0_1403_8891)">
<path d="M50.9996 38.6527H27.2715V15.8497H27.955V37.9611H50.9996V38.6527Z" fill="white"/>
<path d="M48.6046 36.2331H29.6602V13.4248H30.3432V35.5414H48.6046V36.2331Z" fill="white"/>
<path d="M46.2095 33.8139H32.0542V11H32.7378V33.1219H46.2095V33.8139Z" fill="white"/>
<path d="M25.7638 37.9611H9V38.6529H25.7638V37.9611Z" fill="white"/>
<path d="M25.7636 35.5416H11.395V36.2335H25.7636V35.5416Z" fill="white"/>
<path d="M25.7642 33.1217H13.7905V33.8137H25.7642V33.1217Z" fill="white"/>
<path d="M13.772 48.883H18.3038V48.1751H14.5289V42.0935H13.772V48.883ZM24.8853 45.5078C24.8853 47.0499 23.7932 48.2915 22.26 48.2915C20.7271 48.2915 19.6158 47.0306 19.6158 45.4882V45.469C19.6158 43.9271 20.708 42.6855 22.241 42.6855C23.7739 42.6855 24.8853 43.9465 24.8853 45.4882V45.5078ZM25.6707 45.4882C25.6804 45.4787 25.6804 45.4787 25.6707 45.4692C25.6707 43.5971 24.3008 41.9777 22.26 41.9777C20.2196 41.9777 18.8302 43.6166 18.8302 45.4884V45.508C18.8302 47.3801 20.2001 48.9997 22.2408 48.9997C24.2816 48.9995 25.6707 47.3604 25.6707 45.4882ZM27.1378 48.883H32.0335V48.185H27.8946V45.8084H31.5545V45.1098H27.8946V42.7919H31.9855V42.0933H27.138L27.1378 48.883ZM39.9465 48.9314L41.8184 42.0935H41.0228L39.6014 47.6252L37.7908 42.0742H37.1681L35.3564 47.6252L33.936 42.0935H33.1123L34.9838 48.9314H35.6164L37.4655 43.4226L39.3047 48.9314H39.9465ZM43.4449 43.8008V43.7813C43.4449 43.1705 44.0006 42.6855 44.8727 42.6855C45.5627 42.6855 46.1854 42.9088 46.8077 43.4228L47.2486 42.8311C46.5682 42.2782 45.869 41.9972 44.8916 41.9972C43.6174 41.9972 42.6882 42.7827 42.6882 43.8494V43.8692C42.6882 44.9845 43.3968 45.4884 44.9395 45.8281C46.348 46.1288 46.6832 46.4877 46.6832 47.1181V47.1374C46.6832 47.8067 46.089 48.2917 45.1884 48.2917C44.2592 48.2917 43.5887 47.9715 42.8888 47.3315L42.4197 47.8942C43.2245 48.6216 44.0962 48.9802 45.1598 48.9802C46.4918 48.9802 47.4495 48.2237 47.4495 47.0598V47.0404C47.4495 46.0028 46.7599 45.4495 45.2654 45.1202C43.7901 44.7998 43.4449 44.4411 43.4449 43.8008Z" fill="white"/>
</g>
<defs>
<clipPath id="clip0_1403_8891">
<rect width="42" height="38" fill="white" transform="translate(9 11)"/>
</clipPath>
</defs>
</svg>
