<svg width="60" height="60" viewBox="0 0 60 60" fill="none" xmlns="http://www.w3.org/2000/svg">
<rect width="60" height="60" fill="#C41230"/>
<g clip-path="url(#clip0_150_1028)">
<path d="M43.986 32.3306C41.007 32.3306 40.4641 30.6138 40.4641 30.1881H42.6216C42.6216 30.4381 42.9612 30.7375 43.2476 30.8594C43.4855 30.9502 43.74 30.9911 43.9949 30.9794H43.9911C44.5987 30.9794 45.0971 30.8325 45.0971 30.4806C45.0971 30.0519 44.5866 29.9569 44.0241 29.8769C42.492 29.6563 40.3454 29.4 40.3454 27.6906C40.3454 26.0963 42.0908 25.285 43.9435 25.285C46.9098 25.285 47.6958 26.9244 47.6958 27.3988H45.5035C45.4905 27.2784 45.4468 27.1632 45.3764 27.064C45.306 26.9648 45.2112 26.8847 45.1009 26.8313L45.0965 26.8294C44.8298 26.6943 44.5348 26.6226 44.2349 26.62H44.2336C43.4146 26.62 42.9536 26.79 42.9536 27.1644C42.9536 27.47 43.3689 27.6219 43.9657 27.7237C45.5231 27.9906 47.9143 28.0831 47.9143 29.9731C47.9143 30.9331 47.0806 32.3294 43.9866 32.3294L43.986 32.3306ZM40.3263 26.2837L39.4863 27.195H39.1371L39.5219 26.2013H38.7524V24.8762H40.3263V26.2837ZM35.4438 25.4444H38.2317V32.14H35.4438V25.4444ZM31.8082 32.1531H29.372L25.7346 25.4569H29.0171L31.1047 29.5269L31.1619 29.6494L31.2139 29.5269L33.1657 25.4569H35.1365L31.8082 32.1531ZM26.5746 29.3713H20.9327C20.9397 29.5845 20.9905 29.7941 21.082 29.9875C21.1735 30.1809 21.3038 30.3541 21.4651 30.4966C21.6264 30.639 21.8153 30.7479 22.0205 30.8166C22.2257 30.8853 22.4429 30.9124 22.659 30.8963L22.6533 30.8969C22.9423 30.9112 23.2303 30.8537 23.4907 30.7296C23.7511 30.6055 23.9756 30.4189 24.1435 30.1869L24.1473 30.1819H26.3968C25.6616 31.8675 24.2349 32.3463 22.2908 32.3463C19.7619 32.3463 17.9739 30.9806 17.9739 28.8169C17.9739 26.5063 19.7352 25.2869 22.2908 25.2869C25.1498 25.2869 26.5835 27.135 26.5835 28.9138C26.5908 29.0707 26.5872 29.2279 26.5727 29.3844L26.5746 29.3713ZM17.9263 32.1425H11.4965V25.4625H14.3873V30.325H17.9263V32.1425ZM22.2368 26.6869H22.226C21.8811 26.6869 21.5504 26.8217 21.3065 27.0618C21.0627 27.3018 20.9257 27.6274 20.9257 27.9669L20.927 28.0294V28.0262H23.6578C23.6697 27.8415 23.6404 27.6565 23.5718 27.4842C23.5033 27.3118 23.3973 27.1563 23.2612 27.0287C23.1251 26.901 22.9622 26.8042 22.784 26.7452C22.6058 26.6861 22.4167 26.6662 22.2298 26.6869L22.2355 26.6863L22.2368 26.6869Z" fill="white"/>
</g>
<defs>
<clipPath id="clip0_150_1028">
<rect width="48.92" height="20" fill="white" transform="translate(5.00061 20)"/>
</clipPath>
</defs>
</svg>
