<svg width="60" height="60" viewBox="0 0 60 60" fill="none" xmlns="http://www.w3.org/2000/svg">
<rect width="60" height="60" fill="black"/>
<g clip-path="url(#clip0_2687_4577)">
<path d="M48.0303 32C48.0303 32.2981 48.0303 32.5962 48.0176 32.9093C47.98 33.043 47.9621 33.1637 47.9289 33.2799C47.7617 33.8657 47.6091 34.4566 47.4164 35.0339C47.1221 35.9155 46.7172 36.7501 46.2544 37.5527C45.8337 38.2823 45.3662 38.9808 44.8251 39.6291C44.3731 40.1707 43.8995 40.6871 43.3574 41.1376C43.2748 41.2063 43.1979 41.282 43.1184 41.3544C43.1261 41.3663 43.1339 41.3782 43.1416 41.3901C43.1773 41.3731 43.2169 41.3615 43.2482 41.3384C43.558 41.111 43.8684 40.8841 44.1749 40.6522C44.6688 40.2786 45.1556 39.8954 45.6538 39.5278C45.9492 39.3098 46.2496 39.0939 46.6266 39.0315C46.7904 39.0043 46.922 39.0997 46.9351 39.2628C46.9519 39.4726 46.89 39.6635 46.7973 39.8424C46.5342 40.3499 46.1875 40.7995 45.8016 41.2146C45.4972 41.542 45.173 41.852 44.8432 42.1536C44.5319 42.4382 44.2132 42.7174 43.8774 42.9715C43.1976 43.4858 42.4894 43.9566 41.7464 44.3768C40.9078 44.8509 40.0429 45.262 39.1435 45.6016C39.0057 45.6536 38.8712 45.7146 38.7351 45.7714C38.741 45.7881 38.7469 45.8049 38.7527 45.8216C38.8086 45.8099 38.8661 45.8035 38.92 45.7858C39.7679 45.5083 40.6143 45.2261 41.4632 44.952C41.8251 44.8352 42.1932 44.7449 42.5794 44.7685C42.8461 44.7848 42.9731 44.9748 42.8518 45.1956C42.7967 45.2959 42.7281 45.3913 42.6524 45.4769C42.1924 45.9973 41.616 46.3572 41.0129 46.6794C40.0755 47.1804 39.0982 47.5831 38.0728 47.8557C37.4696 48.016 36.8594 48.1543 36.2464 48.271C35.7967 48.3567 35.3374 48.3913 34.929 48.4428C34.7721 48.615 34.6542 48.7852 34.4992 48.9071C33.9984 49.3009 33.4169 49.5286 32.8091 49.6936C32.2892 49.8347 31.7629 49.9374 31.2245 49.9719C31.2009 49.9734 31.1796 50.0103 31.1572 50.0308C30.4154 50.0308 29.6737 50.0308 28.9242 50.0186C28.8908 49.9941 28.866 49.9744 28.8391 49.9707C28.528 49.9279 28.2154 49.8954 27.9057 49.8449C27.1697 49.725 26.4676 49.4997 25.828 49.1052C25.5569 48.9381 25.2885 48.7586 25.1722 48.4445C24.8775 48.4086 24.5884 48.3831 24.3026 48.3367C23.7583 48.2485 23.2102 48.1734 22.674 48.0475C21.8634 47.8572 21.0719 47.5991 20.3023 47.2724C19.494 46.9292 18.6959 46.5639 17.9981 46.0224C17.7072 45.7966 17.4621 45.5046 17.2215 45.2208C17.0658 45.0373 17.1334 44.8553 17.3642 44.803C17.528 44.766 17.7121 44.7409 17.8716 44.7781C18.3728 44.895 18.8712 45.0291 19.3621 45.184C19.9956 45.3838 20.6207 45.6103 21.2498 45.8243C21.2852 45.8363 21.3239 45.8385 21.3611 45.8452C21.3215 45.7815 21.2736 45.7467 21.2205 45.7248C20.6889 45.5047 20.1463 45.3087 19.6263 45.0636C18.5568 44.5595 17.5367 43.9673 16.5769 43.2677C15.9138 42.7845 15.2807 42.2659 14.7008 41.6872C14.3201 41.3073 13.9747 40.8879 13.641 40.464C13.3974 40.1548 13.1974 39.811 13.1091 39.4144C13.0639 39.2114 13.1672 38.9569 13.4593 39.0499C13.6969 39.1257 13.9439 39.2162 14.1435 39.361C14.9194 39.9239 15.6777 40.5116 16.4437 41.0884C16.5726 41.1855 16.7076 41.2744 16.8398 41.3671C16.8495 41.3564 16.8593 41.3457 16.869 41.3349C16.8286 41.2841 16.794 41.2265 16.7464 41.1838C16.642 41.09 16.5224 41.0124 16.4244 40.9129C16.1175 40.6014 15.7987 40.2989 15.5199 39.963C15.1202 39.4812 14.736 38.9844 14.374 38.4732C13.9225 37.8357 13.5432 37.1512 13.223 36.4373C12.9756 35.8857 12.7317 35.3297 12.5359 34.7583C12.3616 34.2495 12.2568 33.7166 12.1179 33.1952C12.0985 33.1223 12.06 33.0547 12.0303 32.9846C12.0303 32.6558 12.0303 32.3269 12.0418 31.9833C12.1278 31.9115 12.1467 31.758 12.2871 31.8178C12.36 31.8488 12.4446 31.8893 12.4862 31.9513C12.7255 32.3084 12.9711 32.6632 13.1814 33.0378C13.4756 33.5619 13.7271 34.1105 14.0217 34.6343C14.3797 35.2707 14.7622 35.8931 15.1377 36.5193C15.2029 36.6279 15.2864 36.7254 15.3614 36.828C15.3745 36.8204 15.3875 36.8128 15.4006 36.8053C15.3835 36.7406 15.3742 36.6725 15.348 36.6119C15.1887 36.2447 15.0162 35.8831 14.8658 35.5124C14.5783 34.804 14.2781 34.0995 14.0285 33.3773C13.7251 32.4996 13.4362 31.614 13.2014 30.7157C12.9828 29.8791 12.829 29.024 12.6742 28.1719C12.5674 27.5835 12.4948 26.9878 12.4305 26.3928C12.3799 25.9242 12.3395 25.4516 12.3403 24.9809C12.3421 24.033 12.2676 23.0808 12.431 22.1393C12.4705 21.9118 12.5564 21.6896 12.6449 21.4751C12.6971 21.3486 12.8938 21.3468 12.9688 21.4638C13.0329 21.5636 13.0973 21.672 13.1247 21.7857C13.2738 22.4029 13.4188 23.0213 13.551 23.6424C13.6792 24.245 13.7928 24.8508 13.9078 25.4562C13.9966 25.9242 14.0834 26.3927 14.1604 26.8628C14.249 27.4033 14.3122 27.9482 14.4109 28.4866C14.5399 29.191 14.6651 29.8981 14.8421 30.591C15.109 31.6364 15.4009 32.6763 15.7172 33.7076C15.9514 34.4716 16.2191 35.227 16.5116 35.9702C16.9034 36.9656 17.3199 37.9517 17.7524 38.9298C18.0059 39.5032 18.3016 40.0584 18.5956 40.6124C18.863 41.1161 19.1472 41.6112 19.4392 42.1007C19.5102 42.2198 19.6385 42.3053 19.7456 42.4004C19.8034 42.4518 19.8915 42.4923 19.9384 42.4134C19.9705 42.3594 19.9643 42.2575 19.9357 42.1956C19.8264 41.959 19.6955 41.7327 19.5829 41.4976C19.3167 40.9416 19.0386 40.3904 18.7981 39.8231C18.5135 39.1519 18.2507 38.4704 18.0015 37.7849C17.6616 36.8494 17.3987 35.8894 17.1815 34.9177C17.0656 34.3997 16.9609 33.8781 16.8773 33.3539C16.7972 32.8519 16.7439 32.3451 16.6918 31.839C16.642 31.3559 16.5827 30.8715 16.574 30.3869C16.5575 29.4643 16.5399 28.5397 16.6604 27.621C16.7264 27.1176 16.7896 26.6134 16.8742 26.1129C17.0412 25.1246 17.3293 24.1733 17.7901 23.2818C18.0743 22.732 18.4175 22.226 18.9224 21.853C19.2449 21.6148 19.6095 21.4697 20.0056 21.4844C20.4274 21.5001 20.7805 21.7134 21.0899 21.9984C21.7539 22.6102 22.219 23.3684 22.6272 24.1633C22.8971 24.6889 23.1559 25.2228 23.3799 25.7696C23.7264 26.6153 24.0696 27.4647 24.3585 28.3315C24.7755 29.5825 25.1564 30.8464 25.5265 32.1125C25.7914 33.0187 26.0096 33.9388 26.2594 34.8496C26.2913 34.9657 26.2554 35.0434 26.2117 35.1318C25.963 35.6344 25.6756 36.1216 25.4728 36.6424C25.1705 37.4183 24.9143 38.2136 24.6645 39.009C24.5271 39.4467 24.4331 39.8993 24.3372 40.349C24.2411 40.7998 24.1566 41.2538 24.0862 41.7094C24.0147 42.1719 23.9639 42.6378 23.9099 43.1029C23.8901 43.2741 23.88 43.4472 23.8781 43.6196C23.8738 43.9997 23.8732 44.38 23.8807 44.76C23.883 44.8773 23.9936 44.9522 24.1043 44.9204C24.2441 44.8803 24.2632 44.7571 24.2742 44.6326C24.3139 44.1794 24.3345 43.7234 24.4 43.274C24.4939 42.629 24.5938 41.9827 24.7401 41.3484C24.941 40.4769 25.1813 39.6156 25.4846 38.7714C25.7957 37.9054 26.1585 37.0669 26.6212 36.2741C27.0271 35.5787 27.4982 34.9352 28.1451 34.4432C28.8018 33.9437 29.5217 33.6754 30.3608 33.7809C31.0727 33.8704 31.6609 34.1962 32.1776 34.6777C32.6148 35.0852 32.9837 35.5493 33.3014 36.0573C33.6954 36.6874 34.03 37.3496 34.2882 38.0451C34.5592 38.7748 34.8017 39.5165 35.0252 40.2626C35.1842 40.7933 35.3019 41.3375 35.4179 41.88C35.5071 42.2966 35.5716 42.7191 35.6345 43.1408C35.6849 43.4795 35.7204 43.8206 35.7546 44.1615C35.7738 44.3534 35.7731 44.5472 35.7882 44.7397C35.7974 44.8573 35.8687 44.922 35.9866 44.9221C36.0977 44.9222 36.1672 44.8595 36.1802 44.7509C36.1975 44.6051 36.2156 44.4574 36.2104 44.3113C36.1984 43.9715 36.1744 43.6321 36.1519 43.2928C36.1338 43.0198 36.125 42.7452 36.087 42.475C36.017 41.978 35.9343 41.4825 35.8465 40.9883C35.6968 40.1452 35.5063 39.3105 35.2367 38.4983C35.007 37.8062 34.7627 37.1177 34.491 36.4415C34.3138 36.0006 34.0832 35.5808 33.8607 35.1601C33.8001 35.0457 33.7596 34.9515 33.795 34.8212C33.9443 34.2714 34.0787 33.7174 34.2332 33.1691C34.5421 32.0727 34.843 30.9736 35.1805 29.8861C35.4708 28.9508 35.7873 28.0225 36.1299 27.1055C36.4132 26.3472 36.7372 25.6033 37.0708 24.8657C37.275 24.4143 37.5182 23.9791 37.7676 23.5507C38.1147 22.9544 38.4917 22.3768 39.0342 21.9356C39.3951 21.6422 39.7822 21.4389 40.2746 21.5027C40.6787 21.5551 41.0104 21.7397 41.3085 21.9973C41.7174 22.3506 42.0137 22.7968 42.2622 23.2721C42.616 23.9486 42.8546 24.6714 43.0328 25.4128C43.1936 26.0818 43.3226 26.7579 43.3709 27.4468C43.4106 28.013 43.4766 28.5787 43.4855 29.1453C43.495 29.7561 43.4579 30.3681 43.4291 30.9789C43.4101 31.3835 43.3837 31.7887 43.336 32.1907C43.2803 32.6595 43.2107 33.1275 43.124 33.5915C43.0071 34.2162 42.8946 34.844 42.7319 35.4574C42.5117 36.2876 42.2607 37.1104 41.9955 37.9273C41.672 38.9232 41.2543 39.8822 40.7995 40.8238C40.5747 41.2893 40.3327 41.7463 40.1036 42.2098C40.0789 42.2597 40.0669 42.368 40.0861 42.3784C40.1451 42.4099 40.2235 42.4197 40.2917 42.4125C40.3342 42.408 40.3753 42.361 40.4114 42.327C40.6721 42.0816 40.8255 41.7608 40.9904 41.4523C41.3989 40.6883 41.8059 39.923 42.1876 39.1453C42.4872 38.5348 42.7678 37.9129 43.0216 37.2816C43.3886 36.3687 43.7402 35.4488 44.0684 34.521C44.4986 33.3052 44.8621 32.0676 45.146 30.8078C45.3032 30.1097 45.4543 29.4098 45.5907 28.7073C45.6797 28.2491 45.7326 27.7838 45.8102 27.3232C45.906 26.7546 46.0071 26.1867 46.1124 25.6198C46.2149 25.0681 46.3231 24.5174 46.4332 23.9672C46.5363 23.4517 46.6367 22.9354 46.7546 22.4232C46.8258 22.1136 46.8607 21.7895 47.0524 21.5176C47.1768 21.3412 47.3069 21.3309 47.4299 21.5044C47.4667 21.5563 47.491 21.6193 47.5118 21.6804C47.6728 22.1534 47.7026 22.6496 47.7187 23.1406C47.7381 23.7325 47.7139 24.3263 47.6927 24.9187C47.6748 25.4207 47.6408 25.9224 47.6019 26.4233C47.5711 26.8207 47.5382 27.2193 47.4774 27.6128C47.3918 28.1676 47.2994 28.7227 47.1742 29.2694C46.9777 30.1267 46.7738 30.9836 46.5309 31.8283C46.3323 32.5191 46.0967 33.2018 45.8335 33.8704C45.4525 34.8378 45.0317 35.7893 44.6282 36.7477C44.6115 36.7875 44.5986 36.8289 44.584 36.8696C44.5986 36.8796 44.6133 36.8896 44.6279 36.8996C44.7169 36.7816 44.8089 36.6659 44.8943 36.5454C45.454 35.7549 45.8986 34.8959 46.3525 34.0424C46.6372 33.5071 46.9152 32.9681 47.2105 32.4389C47.3171 32.2478 47.4538 32.07 47.5979 31.905C47.7375 31.7452 47.882 31.7812 47.9734 31.9719C47.9806 31.987 48.0108 31.9909 48.0303 32Z" fill="#FF4000"/>
<path d="M30.5339 10.0308C30.5628 10.051 30.5744 10.0853 30.5926 10.0894C31.1721 10.2203 31.6351 10.548 32.0575 10.9532C32.6411 11.5132 33.0721 12.1819 33.4567 12.8887C33.9249 13.7493 34.2977 14.6513 34.5942 15.5832C34.8761 16.4688 35.1451 17.3601 35.3749 18.2606C35.5666 19.012 35.6986 19.7793 35.8471 20.5416C35.9757 21.2012 36.0951 21.8627 36.2092 22.525C36.2706 22.8814 36.3296 23.24 36.3539 23.6C36.3625 23.7265 36.2623 23.8596 36.2153 23.991C35.7385 25.3235 35.2346 26.6469 34.7947 27.9917C34.4172 29.1455 34.1044 30.3214 33.7797 31.4922C33.5606 32.2825 33.3707 33.0812 33.1672 33.876C33.1457 33.9597 33.1202 34.0424 33.093 34.1377C32.2453 33.1958 31.2764 32.5241 29.9898 32.5292C28.7067 32.5343 27.7322 33.1989 26.8745 34.1323C26.8297 33.9721 26.7845 33.8181 26.7434 33.663C26.4299 32.4785 26.1255 31.2914 25.8013 30.1098C25.6001 29.3769 25.3901 28.6452 25.1475 27.9254C24.7275 26.6794 24.2799 25.4428 23.8415 24.2032C23.8031 24.0948 23.7535 23.9891 23.6979 23.8885C23.5563 23.6326 23.6386 23.3677 23.671 23.11C23.7147 22.7618 23.7883 22.4174 23.8469 22.0711C23.9198 21.6404 23.9838 21.208 24.0639 20.7788C24.1568 20.2814 24.2553 19.7848 24.3655 19.2911C24.4974 18.7002 24.6378 18.1111 24.7862 17.5242C25.0688 16.4067 25.4323 15.315 25.8737 14.2521C26.2029 13.4593 26.5708 12.6815 27.0769 11.9851C27.3486 11.6112 27.6368 11.2428 27.9622 10.9174C28.3647 10.5149 28.8441 10.2145 29.409 10.0819C29.4214 10.079 29.4304 10.061 29.4311 10.0404C29.7874 10.0308 30.1535 10.0308 30.5339 10.0308Z" fill="#FD1B15"/>
<path d="M31.1719 50.0308C31.18 50.0103 31.2013 49.9734 31.2249 49.9719C31.7633 49.9374 32.2896 49.8347 32.8095 49.6936C33.4173 49.5286 33.9989 49.3009 34.4996 48.9071C34.6547 48.7852 34.7726 48.615 34.9294 48.4428C35.3378 48.3913 35.7971 48.3567 36.2469 48.271C36.8598 48.1543 37.47 48.016 38.0732 47.8557C39.0986 47.5831 40.076 47.1804 41.0134 46.6794C41.6164 46.3572 42.1929 45.9973 42.6529 45.4769C42.7286 45.3913 42.7971 45.2959 42.8522 45.1956C42.9736 44.9748 42.8465 44.7848 42.5798 44.7685C42.1936 44.7449 41.8255 44.8352 41.4637 44.952C40.6147 45.2261 39.7683 45.5083 38.9204 45.7858C38.8665 45.8035 38.809 45.8099 38.7532 45.8216C38.7473 45.8049 38.7414 45.7881 38.7356 45.7714C38.8716 45.7146 39.0061 45.6536 39.144 45.6016C40.0433 45.262 40.9082 44.8509 41.7468 44.3768C42.4899 43.9567 43.198 43.4858 43.8778 42.9715C44.2137 42.7174 44.5323 42.4382 44.8436 42.1536C45.1735 41.852 45.4976 41.542 45.802 41.2146C46.188 40.7995 46.5347 40.35 46.7977 39.8424C46.8904 39.6635 46.9523 39.4726 46.9355 39.2628C46.9224 39.0997 46.7909 39.0043 46.6271 39.0315C46.2501 39.0939 45.9497 39.3098 45.6542 39.5278C45.156 39.8954 44.6692 40.2786 44.1753 40.6522C43.8688 40.8841 43.5585 41.111 43.2487 41.3384C43.2173 41.3615 43.1777 41.3731 43.142 41.3901C43.1343 41.3782 43.1266 41.3663 43.1189 41.3544C43.1984 41.282 43.2752 41.2063 43.3578 41.1376C43.8999 40.6871 44.3735 40.1707 44.8255 39.6291C45.3666 38.9808 45.8341 38.2823 46.2548 37.5527C46.7176 36.7501 47.1225 35.9155 47.4168 35.0339C47.6095 34.4566 47.7621 33.8657 47.9294 33.2799C47.9625 33.1637 47.9805 33.043 48.0181 32.9238C48.0307 38.6234 48.0307 44.3237 48.0307 50.0308C42.4159 50.0308 36.801 50.0308 31.1719 50.0308Z" fill="black"/>
<path d="M12.0303 32.999C12.06 33.0547 12.0985 33.1223 12.1179 33.1952C12.2568 33.7166 12.3616 34.2495 12.5359 34.7583C12.7317 35.3297 12.9756 35.8857 13.223 36.4373C13.5432 37.1512 13.9225 37.8357 14.374 38.4732C14.736 38.9844 15.1202 39.4812 15.5199 39.963C15.7987 40.2989 16.1175 40.6014 16.4244 40.9129C16.5224 41.0125 16.642 41.09 16.7464 41.1838C16.794 41.2265 16.8286 41.2841 16.869 41.335C16.8593 41.3457 16.8495 41.3564 16.8398 41.3671C16.7076 41.2744 16.5726 41.1855 16.4437 41.0884C15.6777 40.5116 14.9194 39.9239 14.1435 39.3611C13.9439 39.2163 13.6969 39.1257 13.4593 39.05C13.1672 38.9569 13.0639 39.2114 13.1091 39.4144C13.1974 39.811 13.3974 40.1548 13.641 40.464C13.9747 40.8879 14.3201 41.3073 14.7008 41.6873C15.2807 42.2659 15.9138 42.7845 16.5769 43.2677C17.5367 43.9673 18.5568 44.5595 19.6263 45.0637C20.1463 45.3088 20.6889 45.5047 21.2205 45.7248C21.2736 45.7468 21.3215 45.7815 21.3611 45.8452C21.3239 45.8385 21.2852 45.8364 21.2498 45.8243C20.6207 45.6104 19.9956 45.3838 19.3621 45.184C18.8712 45.0291 18.3728 44.895 17.8716 44.7781C17.7121 44.7409 17.528 44.766 17.3642 44.8031C17.1334 44.8553 17.0658 45.0373 17.2215 45.2208C17.4621 45.5046 17.7072 45.7966 17.9981 46.0224C18.6959 46.5639 19.494 46.9292 20.3023 47.2724C21.0719 47.5991 21.8634 47.8572 22.674 48.0475C23.2102 48.1734 23.7583 48.2485 24.3026 48.3367C24.5884 48.3831 24.8775 48.4087 25.1722 48.4445C25.2885 48.7586 25.5569 48.9381 25.828 49.1053C26.4676 49.4997 27.1697 49.725 27.9057 49.845C28.2154 49.8954 28.528 49.9279 28.8391 49.9707C28.866 49.9744 28.8908 49.9941 28.91 50.0186C23.2812 50.0308 17.6591 50.0308 12.0303 50.0308C12.0303 44.3583 12.0303 38.6859 12.0303 32.999Z" fill="black"/>
<path d="M15.927 32.5566C15.7944 31.9795 15.6564 31.4166 15.5355 30.8499C15.4345 30.3767 15.3442 29.9006 15.2667 29.4229C15.2004 29.0138 15.1548 28.6011 15.1076 28.1891C15.0528 27.7112 15.0046 27.2325 14.9571 26.7537C14.9406 26.5868 14.9283 26.4189 14.9252 26.2513C14.9123 25.5556 14.8855 24.8596 14.8994 24.1644C14.9102 23.6271 14.9662 23.0901 15.0167 22.5544C15.0684 22.0051 15.1212 21.455 15.2038 20.91C15.2968 20.2968 15.4102 19.6859 15.5389 19.0792C15.7617 18.0281 16.0419 16.9917 16.3837 15.9732C16.7055 15.0145 17.0692 14.0726 17.5423 13.178C17.7525 12.7805 17.9706 12.3851 18.2904 12.0633C18.5508 11.8014 18.8063 11.874 18.9197 12.2324C18.9394 12.2946 18.9661 12.357 18.9717 12.4209C18.9966 12.7042 19.0299 12.9879 19.032 13.2717C19.0353 13.7006 19.0159 14.1298 19.0046 14.5588C18.9959 14.8904 18.9811 15.2219 18.9754 15.5536C18.9628 16.2749 18.949 16.9962 18.9463 17.7176C18.9448 18.1158 18.9573 18.5145 18.9772 18.9123C18.9981 19.3281 19.036 19.743 19.0654 20.1584C19.069 20.2092 19.0659 20.2604 19.0659 20.3205C18.5677 20.5134 18.147 20.8192 17.7903 21.2135C17.3595 21.6898 17.0456 22.2434 16.7864 22.828C16.4892 23.4983 16.2816 24.2001 16.133 24.9177C16.0389 25.3718 15.9518 25.8299 15.9038 26.2907C15.8318 26.9823 15.793 27.6775 15.7477 28.3717C15.7275 28.6821 15.7094 28.9943 15.7194 29.3048C15.7373 29.8641 15.7558 30.425 15.8134 30.9811C15.88 31.6238 15.9893 32.2619 16.0791 32.9021C16.084 32.9369 16.0797 32.9731 16.0499 33.0162C16.0096 32.8672 15.9693 32.7182 15.927 32.5566Z" fill="#C2000B"/>
<path d="M44.259 27.9077C44.2471 27.8486 44.2299 27.79 44.2243 27.7303C44.1826 27.2811 44.1438 26.8317 44.1029 26.3824C44.0373 25.6611 43.8886 24.9545 43.7007 24.258C43.4255 23.2374 43.0432 22.2611 42.3819 21.4241C42.0177 20.9633 41.579 20.5884 41.028 20.3635C40.9865 20.3466 40.9366 20.2782 40.9385 20.2359C40.9614 19.7332 40.9936 19.2308 41.0228 18.7284C41.0255 18.6824 41.0254 18.6362 41.0254 18.59C41.0255 17.7134 41.0293 16.8367 41.0242 15.9601C41.0204 15.3107 41.0067 14.6613 40.9942 14.0119C40.9879 13.6803 40.9535 13.3477 40.9707 13.0177C40.9868 12.708 40.9766 12.3872 41.1281 12.0982C41.2298 11.9041 41.3721 11.8621 41.5644 11.9664C41.8107 12.1 41.9478 12.3352 42.0898 12.5588C42.6852 13.4967 43.0897 14.5243 43.466 15.566C43.8175 16.5393 44.0988 17.5334 44.3326 18.5401C44.5023 19.2712 44.6397 20.0109 44.7649 20.7514C44.8517 21.2644 44.899 21.7846 44.9531 22.3027C44.9931 22.6862 45.0196 23.0712 45.0447 23.456C45.0619 23.7204 45.0664 23.9856 45.0762 24.2505C45.0866 24.5359 45.1096 24.8216 45.1038 25.1066C45.0935 25.6161 45.0771 26.126 45.0422 26.6343C45.0053 27.17 44.9603 27.7063 44.8888 28.2382C44.798 28.9132 44.6904 29.5866 44.565 30.2559C44.4333 30.9591 44.2719 31.6566 44.1082 32.354C44.0918 32.3115 44.0863 32.2712 44.0902 32.2319C44.1641 31.4799 44.2637 30.7296 44.3065 29.9759C44.3429 29.333 44.3154 28.6864 44.312 28.0414C44.3118 27.9968 44.2774 27.9523 44.259 27.9077Z" fill="#C2000B"/>
<path d="M35.8566 16.3256C35.6911 15.8449 35.528 15.3766 35.372 14.9058C35.306 14.7063 35.255 14.5016 35.1948 14.2909C35.4648 14.3175 35.6889 14.4628 35.9009 14.6256C36.253 14.8958 36.5273 15.2397 36.7811 15.6024C37.3899 16.4726 37.8451 17.4233 38.1891 18.4255C38.4063 19.0583 38.5742 19.7084 38.7617 20.3516C38.7909 20.4518 38.7579 20.5182 38.6698 20.5963C38.3639 20.8675 38.066 21.1499 37.7854 21.4476C37.5657 21.6808 37.3761 21.9431 37.1556 22.214C36.8171 20.2244 36.4418 18.2572 35.8566 16.3256Z" fill="#C2000B"/>
<path d="M23.9175 16.9977C23.7824 17.5276 23.6397 18.0431 23.5261 18.565C23.3674 19.2941 23.2287 20.0277 23.085 20.76C23.0014 21.1855 22.9243 21.6122 22.8455 22.0387C22.8374 22.0826 22.8383 22.1282 22.7998 22.1961C22.705 22.0751 22.6085 21.9555 22.5157 21.833C22.1525 21.3538 21.7445 20.92 21.2681 20.5528C21.2284 20.5222 21.1964 20.4385 21.2072 20.3902C21.4231 19.4279 21.7209 18.4927 22.1132 17.5878C22.4035 16.9186 22.7343 16.2726 23.1459 15.6713C23.4324 15.2528 23.7427 14.8533 24.1635 14.5603C24.3442 14.4345 24.5323 14.3181 24.7607 14.307C24.4801 15.2042 24.2014 16.0952 23.9175 16.9977Z" fill="#C2000B"/>
</g>
<defs>
<clipPath id="clip0_2687_4577">
<rect width="36" height="40" fill="white" transform="translate(12 10)"/>
</clipPath>
</defs>
</svg>
