<svg width="60" height="60" viewBox="0 0 60 60" fill="none" xmlns="http://www.w3.org/2000/svg">
<rect width="60" height="60" fill="black"/>
<g clip-path="url(#clip0_1403_8892)">
<path fill-rule="evenodd" clip-rule="evenodd" d="M10 34.2462V25.3538H14.4339V31.2308H19.8462V34.2462H10ZM35.236 34.2462H29.7581L25.6108 29.8385V34.2462H21.1769V25.3538H25.6108V29.3385L29.616 25.3538H35.0151L30.1499 29.5846L35.236 34.2462ZM49.9895 34.9949H45.0059L43.9198 34.0179C43.2544 34.359 41.9895 34.6026 40.7508 34.6026C36.6036 34.6026 34.1394 32.7821 34.1394 29.7179C34.142 26.7615 36.8534 25 41.432 25C45.9579 25 48.6456 26.7615 48.6456 29.7308C48.6456 30.0026 48.622 30.2718 48.5694 30.5385C48.5168 30.8051 48.4379 31.0667 48.3327 31.3179C48.2275 31.5692 48.096 31.8103 47.9435 32.0359C47.7909 32.2641 47.6147 32.4744 47.4201 32.6692L49.9895 34.9949ZM41.3399 31.8205C43.1782 31.8205 44.1433 31.1154 44.1433 29.7846C44.1433 28.4538 43.194 27.7641 41.3794 27.7641C39.5674 27.7641 38.6285 28.4692 38.6285 29.8231C38.6285 31.141 39.5674 31.8256 41.3399 31.8256V31.8205Z" fill="white"/>
</g>
<defs>
<clipPath id="clip0_1403_8892">
<rect width="40" height="10" fill="white" transform="translate(10 25)"/>
</clipPath>
</defs>
</svg>
