<svg width="60" height="60" viewBox="0 0 60 60" fill="none" xmlns="http://www.w3.org/2000/svg">
<rect width="60" height="60" fill="#007CC5"/>
<g clip-path="url(#clip0_168_681)">
<path fill-rule="evenodd" clip-rule="evenodd" d="M13.5841 27.3859L14.7236 27.5339C14.5354 28.0731 14.1777 28.541 13.706 28.8661C13.2423 29.1648 12.6991 29.3207 12.1453 29.3075C11.5676 29.3392 11.0005 29.141 10.5686 28.7603C10.1526 28.3163 9.94061 27.7163 9.9883 27.1084C9.97505 26.5269 10.1208 25.9507 10.4096 25.4432C10.6614 24.9938 11.035 24.6238 11.4881 24.3753C11.9227 24.1427 12.4103 24.0238 12.9031 24.0264C13.4145 24.0079 13.918 24.1586 14.334 24.4546C14.7209 24.7533 14.9647 25.2 15.0045 25.6863L13.9392 25.7815C13.9048 25.5277 13.7776 25.2951 13.5815 25.1313C13.3801 24.9965 13.1416 24.9304 12.9005 24.941C12.6116 24.9436 12.3281 25.0229 12.079 25.1736C11.7849 25.3639 11.5517 25.6361 11.4086 25.9559C11.2205 26.3286 11.1251 26.7436 11.1304 27.1612C11.1065 27.5048 11.2231 27.8432 11.451 28.1048C11.6498 28.3163 11.9333 28.4352 12.2274 28.4326C12.5136 28.4326 12.7945 28.3427 13.0303 28.1736C13.2953 27.978 13.4887 27.7004 13.5841 27.3859ZM20.9693 24.1031L19.7954 29.2943H18.6427L19.1674 26.9736H17.0236L16.499 29.2943H15.3463L16.5202 24.1031H17.6728L17.2197 26.104H19.3634L19.8166 24.1031H20.9693ZM26.3908 24.1031L26.1947 24.97H23.2084L22.946 26.141H25.8423L25.6462 27.0079H22.7499L22.432 28.4273H25.6674L25.4766 29.2943H21.0832L22.2518 24.1031H26.3908ZM32.0482 24.1031L30.8558 29.2943H29.7906L28.2881 25.8053L27.5091 29.2943H26.4332L27.5992 24.1031H28.6697L30.1748 27.5762L30.9724 24.1031H32.0482ZM34.4384 24.1031L33.2142 29.2943H32.0615L33.2884 24.1031H34.4384ZM39.807 24.1031L39.6109 24.97H36.6245L36.3622 26.141H39.2585L39.0624 27.0079H36.1661L35.8481 28.4273H39.0836L38.8928 29.2943H34.4993L35.6679 24.1031H39.807ZM41.0392 29.2361H39.9024L41.0577 24.1004H43.5221C43.8639 24.0846 44.2057 24.1295 44.529 24.2352C44.7489 24.3251 44.9397 24.4784 45.0696 24.6793C45.2153 24.9092 45.2869 25.1762 45.2763 25.4485C45.2948 25.8608 45.1358 26.2625 44.839 26.5507C44.484 26.852 44.0414 27.0317 43.5777 27.0608C43.7552 27.2167 43.9063 27.3991 44.0282 27.6026C44.3382 28.126 44.6111 28.6705 44.8443 29.2335H43.6175C43.568 29.0907 43.4002 28.6987 43.114 28.0573C43.0106 27.8088 42.8755 27.5736 42.7112 27.3595C42.6397 27.2722 42.5496 27.2062 42.4462 27.1612C42.2978 27.1163 42.1441 27.1004 41.9904 27.1084H41.5188L41.0392 29.2361ZM41.691 26.3418H42.3005C42.6847 26.3577 43.0663 26.3286 43.4452 26.2573C43.636 26.207 43.8056 26.1013 43.9381 25.9533C44.0626 25.8238 44.1342 25.6493 44.1368 25.467C44.1448 25.2899 44.0467 25.1233 43.8877 25.0414C43.6863 24.97 43.4744 24.9436 43.2597 24.9595H42.001L41.691 26.3418ZM50.8913 24.1031L50.6952 24.97H47.7115L47.4465 26.141H50.3454L50.1467 27.0106H47.253L46.9324 28.4273H50.1705L49.9797 29.2969H45.5863L46.7549 24.1031H50.8913Z" fill="#2B2E34"/>
<path fill-rule="evenodd" clip-rule="evenodd" d="M50.0381 33.2802L50.0275 33.2749V33.2829L42.5099 33.2696C42.2847 33.2855 35.6574 33.7903 32.8539 35.9868H32.0006C32.0006 35.9868 32.2153 35.7674 32.2895 35.6987C32.3478 35.6406 32.4352 35.5666 32.4856 35.5216L32.4829 35.5163C34.4067 34.0097 37.8859 33.2723 40.1913 32.9313H38.4927C38.2198 32.9551 30.1484 33.6899 28.2034 35.9895L28.2008 35.9842H27.3926C27.3926 35.9842 27.5727 35.7965 27.639 35.7251C27.6681 35.6934 27.7079 35.6485 27.7476 35.6062C27.7812 35.5639 27.8174 35.5225 27.8563 35.482C29.576 33.6688 34.4862 32.8203 36.9797 32.5005H34.7962C34.5577 32.519 27.3051 33.1269 23.6086 35.9842L23.6112 35.9895H22.7871C22.7871 35.9895 22.9488 35.8177 23.0203 35.7357C23.0786 35.6696 23.2032 35.5507 23.2429 35.5137L23.2535 35.5058L23.2562 35.5031C26.0014 33.3886 30.4558 32.4767 32.944 32.1172H31.2163C30.8797 32.1569 22.8825 33.1375 18.9078 35.9842L18.9104 35.9895H18.9025L18.8945 35.9947L18.8892 35.9895H18.0333C18.0333 35.9895 18.232 35.7833 18.3036 35.7119C18.3796 35.6397 18.4599 35.5718 18.5447 35.5084L18.5553 35.5005C21.698 33.2485 27.0825 32.1516 29.6847 31.7313H28.0259C27.798 31.7472 18.7514 32.3762 14.3792 35.9921L14.3765 35.9895H13.5524C13.5524 35.9895 13.7273 35.815 13.7883 35.7357C13.8572 35.6582 13.9305 35.5868 14.0082 35.5216C18.1976 32.067 26.171 31.2767 27.737 31.1525C25.0103 31.1842 15.5054 31.6256 9.83735 35.9947L9.83205 35.9868H9C9.08833 35.9075 9.17224 35.8238 9.25174 35.7357C9.31886 35.6582 9.39129 35.5868 9.46902 35.5216C16.2738 30.2749 28.3836 30.5551 28.4975 30.5551H51L50.0381 33.2802ZM50.9894 30.5577V30.563L50.992 30.5577H50.9894Z" fill="white"/>
</g>
<defs>
<clipPath id="clip0_168_681">
<rect width="42" height="12" fill="white" transform="translate(9 24)"/>
</clipPath>
</defs>
</svg>
