<svg width="60" height="60" viewBox="0 0 60 60" fill="none" xmlns="http://www.w3.org/2000/svg">
<rect width="60" height="60" fill="black"/>
<g clip-path="url(#clip0_1772_9492)">
<path fill-rule="evenodd" clip-rule="evenodd" d="M43.7409 16.4393C39.9973 12.7191 35.4083 10.7989 29.9739 10.7989C24.6604 10.7989 20.0714 12.7191 16.3277 16.4393C12.5841 20.1594 10.6519 24.7197 10.6519 30C10.6519 35.2802 12.5841 39.8405 16.3277 43.5607C20.0714 47.2809 24.6604 49.2009 29.9739 49.2009C35.4083 49.2009 39.9973 47.2809 43.7409 43.5607C47.4846 39.8405 49.4168 35.2802 49.4168 30C49.4168 24.7197 47.4846 20.1594 43.7409 16.4393Z" fill="#C5013D"/>
<path fill-rule="evenodd" clip-rule="evenodd" d="M29.9938 13.7992C25.5256 13.7992 21.7618 15.4592 18.622 18.6994C15.4821 21.6996 13.8921 25.5598 13.8921 30C13.8921 34.3202 15.5023 38.1604 18.5213 41.4006C21.7819 44.4007 25.6464 45.9508 29.9938 45.9508C34.4621 45.9508 38.3265 44.4007 41.4663 41.4006C44.6062 38.1604 46.1459 34.4402 46.1459 30V29.3H34.6734V30.7H44.6867V30.9501C44.4451 34.6703 42.8853 37.9104 40.1077 40.5505C37.2094 43.1907 33.8582 44.5008 29.9938 44.5008C25.8879 44.5008 22.5065 43.0807 19.729 40.2005C16.8307 37.4404 15.3513 34.0802 15.3513 30C15.3513 26.0398 16.8307 22.5796 19.729 19.6995C22.5065 16.8193 25.8879 15.3493 29.9938 15.3493H30.7989V13.7992H29.9938ZM23.8047 21.4996C22.2348 21.4996 21.5404 22.1896 21.5404 23.7497C21.5404 25.3098 22.2348 26.1498 23.8047 26.1498C25.3746 26.1498 26.22 25.3098 26.22 23.7497C26.22 22.1896 25.3746 21.4996 23.8047 21.4996ZM29.2391 21.4996V38.4004H34.6734V36.8504H30.7989V21.4996H29.2391Z" fill="white"/>
</g>
<defs>
<clipPath id="clip0_1772_9492">
<rect width="40" height="40" fill="white" transform="translate(10 10)"/>
</clipPath>
</defs>
</svg>
