<svg width="60" height="60" viewBox="0 0 60 60" fill="none" xmlns="http://www.w3.org/2000/svg">
<rect width="60" height="60" fill="#2435A3"/>
<g clip-path="url(#clip0_147_223)">
<path d="M38.9896 10.0817C35.4691 10.0817 32.4766 11.3206 30.1883 12.5595C27.9 11.3206 25.0835 10.0817 21.387 10.0817C14.1699 10.0817 9.59323 14.6834 9.59323 22.8248C9.59323 32.5592 18.9226 42.1165 30.1883 49.904C41.454 42.2935 50.7834 32.7361 50.7834 22.8248C50.7834 14.6834 46.0307 10.0817 38.9896 10.0817Z" fill="#CCCCCC"/>
<path d="M10.6494 23.0018C10.6494 32.9131 21.211 42.2935 30.0123 48.4881C32.6527 46.7182 35.2931 44.5943 37.7575 42.4705C25.9637 32.5592 14.698 23.5328 10.8255 20.347C10.8255 21.055 10.6494 21.9399 10.6494 23.0018Z" fill="url(#paint0_linear_147_223)"/>
<path d="M48.8471 27.6035C40.2219 20.524 35.1171 16.8073 29.4843 13.4445C27.9 12.5595 24.9076 11.1436 21.5631 11.1436C18.3946 11.1436 15.5782 12.2056 13.6419 14.1524C12.4097 15.3914 11.5296 16.9842 11.1775 18.9311C15.5782 22.1169 27.724 30.7893 39.8698 40.5236C43.9184 36.6299 47.2629 32.2052 48.8471 27.6035Z" fill="url(#paint1_linear_147_223)"/>
<path d="M46.5588 14.1524C44.6225 12.2056 41.9821 11.1436 38.8136 11.1436C35.4691 11.1436 33.0048 12.2056 31.0685 13.2675C34.413 15.2144 41.6301 19.2851 49.1992 24.9487C49.3752 24.2407 49.3752 23.3558 49.3752 22.6478C49.5512 19.1081 48.4951 16.0993 46.5588 14.1524Z" fill="url(#paint2_linear_147_223)"/>
</g>
<defs>
<linearGradient id="paint0_linear_147_223" x1="10.7269" y1="34.2945" x2="37.9353" y2="34.2945" gradientUnits="userSpaceOnUse">
<stop stop-color="#3656CC"/>
<stop offset="0.35" stop-color="#304CB2"/>
<stop offset="0.72" stop-color="#283B80"/>
</linearGradient>
<linearGradient id="paint1_linear_147_223" x1="14.5914" y1="12.6836" x2="45.4383" y2="34.1657" gradientUnits="userSpaceOnUse">
<stop offset="0.3" stop-color="#E61C23"/>
<stop offset="0.8" stop-color="#C3161C"/>
</linearGradient>
<linearGradient id="paint2_linear_147_223" x1="33.6464" y1="9.88615" x2="51.2832" y2="22.1685" gradientUnits="userSpaceOnUse">
<stop stop-color="#FDBC11"/>
<stop offset="0.25" stop-color="#FCB415"/>
<stop offset="0.8" stop-color="#F89E1C"/>
</linearGradient>
<clipPath id="clip0_147_223">
<rect width="42" height="40" fill="white" transform="translate(9 10)"/>
</clipPath>
</defs>
</svg>
