<svg width="60" height="60" viewBox="0 0 60 60" fill="none" xmlns="http://www.w3.org/2000/svg">
<rect width="60" height="60" fill="#013662"/>
<g clip-path="url(#clip0_168_419)">
<path d="M34.5547 26.5819C34.222 26.5959 33.5789 27.1199 33.5184 27.5787C33.3174 28.9559 32.1913 32.4739 31.8498 32.4739C31.7092 32.4739 31.6488 32.3434 31.6488 31.687C31.6488 29.7857 32.2918 27.6663 32.2918 27.2952C32.2918 27.1199 32.1718 27.0546 32.0108 27.0546C31.5687 27.0546 31.0057 27.4481 30.9052 27.754C30.7442 28.3442 30.7041 28.6062 30.5636 29.4799C30.4222 30.0049 29.6385 32.5178 29.3165 32.5178C29.015 32.5178 29.0355 31.3159 29.0355 30.0701C29.0355 28.9559 29.176 27.6878 29.3975 26.4206C29.4171 26.2024 29.377 26.1147 29.136 26.1147C28.6334 26.1147 28.0099 26.4206 27.9299 26.8141C27.8089 27.2943 27.7084 28.3218 27.7084 29.4808C27.7084 32.1681 27.9903 34.4843 28.814 34.4843C29.4375 34.4843 30.1616 33.2824 30.4222 32.3648C30.4222 34.2008 30.7842 34.4843 31.2067 34.4843C32.3924 34.4843 34.7246 29.2179 34.7246 26.857C34.7646 26.705 34.7041 26.5959 34.5636 26.5959L34.5547 26.5819ZM11.286 32.8898C10.9836 32.8898 10.361 32.9112 9.97848 32.9112C9.61646 32.9112 9.6974 32.4301 9.81837 31.9275C10.2195 30.0049 10.8635 27.6663 11.0636 26.5297C11.1241 26.2238 11.0441 26.1362 10.763 26.1362C10.481 26.1362 9.71697 26.5082 9.63692 26.8141C8.99383 29.1741 8.65227 31.1406 8.39077 32.9774C8.2698 33.895 8.31071 34.4843 9.03386 34.4843C9.57644 34.4843 11.7476 34.0255 11.7476 33.5015C11.7476 33.1956 11.5066 32.8889 11.2851 32.8889L11.286 32.8898ZM26.4213 29.8286C25.6973 29.8286 25.1547 30.5279 25.5167 30.5279C26.1998 30.5279 25.8583 33.1723 25.1147 33.1723C24.2697 33.1723 25.5372 28.4524 26.0193 27.1842C26.1598 26.8131 26.0993 26.6602 25.8182 26.6602C25.4767 26.6602 24.8932 26.9446 24.6922 27.4034C24.4716 28.0803 24.0695 29.4575 23.8285 30.7909C23.6675 31.6208 22.9034 32.9318 22.5814 32.9318C22.3004 32.9318 22.9239 30.2659 22.3004 30.2659C22.0389 30.2659 21.6777 30.5942 21.5363 30.7247C21.3353 30.9 20.9733 31.5117 20.5517 32.2986C20.6922 31.2935 20.8327 29.851 20.4307 29.851C20.2101 29.851 19.8677 30.0692 19.6471 30.2221C19.205 30.5279 18.5815 31.8175 18.1999 32.2986C18.3404 30.8347 18.4205 29.9377 18.1198 29.9377C17.8379 29.9377 17.2953 30.2659 17.1539 30.5718C16.6113 31.686 15.8072 33.0194 15.5261 33.0194C15.2442 33.0194 15.6862 32.0357 15.6862 31.4464C15.6862 31.1406 14.9836 30.6156 14.8421 30.9214C14.5006 31.7084 13.9784 33.1071 13.435 33.1071C12.8924 33.1071 13.7774 30.5056 14.7825 30.5056C15.1846 30.5056 15.4256 30.7471 15.4256 30.5718C15.4256 29.9601 15.0031 29.6319 14.4605 29.6319C12.9733 29.6319 11.9878 31.6208 11.9878 33.2162C11.9878 34.046 12.3898 34.5057 12.9733 34.5057C13.596 34.5057 14.2186 33.6758 14.441 33.1285C14.2391 34.1337 14.5815 34.5057 15.0636 34.5057C15.8277 34.5057 16.4512 33.5882 17.0738 32.5168C16.8523 34.1122 16.7323 34.5057 17.0943 34.5057C17.3149 34.5057 17.6769 34.4181 17.8574 34.2213C18.36 33.6749 19.044 32.6269 19.3856 31.949C19.0235 33.8278 18.883 34.4833 19.245 34.4833C19.446 34.4833 19.9281 34.3966 20.1496 34.156C20.6522 33.6096 21.0747 32.9318 21.4162 32.3425C21.1547 34.0684 21.3958 34.4833 21.9188 34.4833C22.4409 34.4833 23.245 33.8493 23.6871 32.9318C23.7876 34.1346 24.2706 34.4833 24.7722 34.4833C25.7978 34.4833 27.3054 33.1947 27.3054 30.8338C27.2859 30.3536 27.1044 29.8286 26.4213 29.8286ZM44.2918 33.3476C43.5081 33.3476 44.0107 31.3149 44.5533 30.9C44.4127 31.4464 44.6742 31.9052 45.1163 31.9052C45.1163 32.3639 44.7143 33.3476 44.2918 33.3476ZM35.8293 30.7032C36.3318 30.7032 35.7288 32.1457 34.9647 32.211C35.1248 31.3364 35.6283 30.7032 35.8293 30.7032ZM50.4434 33.2162C49.9408 33.2162 50.4434 30.4189 49.8003 30.4189C49.5788 30.4189 49.0158 30.5494 48.7551 30.8123C48.4732 31.0967 48.1316 31.6646 47.8301 32.0804C48.1716 30.7032 48.3931 29.8072 47.9101 29.8072C47.6895 29.8072 47.267 29.9377 47.0055 30.0916C46.7654 30.2445 46.2619 30.5942 45.8599 30.8338C45.6793 30.2874 45.2969 30.1568 44.9758 30.1568C44.9758 29.851 44.8352 29.6757 44.5737 29.6757C43.9706 29.6757 43.2662 30.4841 42.9051 31.4464C42.4826 32.2763 41.9604 32.9756 41.7398 32.9756C41.4374 32.9756 41.9604 30.9214 42.4025 29.2832C42.704 29.3046 43.0056 29.326 43.2066 29.326C44.0516 29.326 44.2722 28.6267 44.2722 28.1894C44.2722 27.8183 43.9306 28.3433 42.865 28.3433H42.6436C42.7645 27.9274 42.8446 27.6001 42.8846 27.4248C42.9451 27.2504 42.8846 27.1404 42.7441 27.1404C42.342 27.1404 41.6989 27.5125 41.5584 27.9936C41.534 28.1055 41.5004 28.2151 41.4579 28.3209H40.9553C40.3327 28.3209 40.0303 28.692 40.0303 29.064C40.0303 29.3046 40.1913 29.1293 40.7339 29.1293C40.8548 29.1293 41.0363 29.1293 41.2364 29.1517C41.1163 29.6104 40.9954 30.0692 40.8948 30.4198C40.7347 30.9653 40.1708 31.8613 39.5073 32.583V32.4954C39.4877 31.7522 39.3472 29.6104 38.9451 29.6104C38.6632 29.6104 37.9596 30.0477 37.8395 30.3536C37.4775 31.3587 36.0908 33.4567 35.2262 33.4567C35.0047 33.4567 34.9238 33.26 34.9042 32.9532C35.7492 32.8665 36.7739 31.8389 36.7739 30.7247C36.7739 30.1783 36.4928 29.6757 35.8088 29.6757C34.5627 29.6757 33.6181 31.4464 33.6181 32.8879C33.6181 33.8278 34.1001 34.4619 34.9647 34.4619C36.7339 34.4619 37.779 32.1886 38.2015 31.4688C38.7041 33.8278 37.0959 33.4567 37.0959 33.7626C37.0959 34.0908 37.4375 34.4619 37.8795 34.4619H37.94C38.6632 34.4619 39.7092 33.7626 40.4528 32.5597C40.2918 33.7626 40.3318 34.4619 41.0354 34.4619C41.6189 34.4619 42.2415 33.8716 42.6631 33.1723C42.8046 33.9155 43.2466 34.4619 43.9102 34.4619C45.0558 34.4619 45.7994 32.998 45.8804 31.7737C46.1897 31.6632 46.4919 31.5317 46.7849 31.3802C46.4825 33.2171 46.0004 34.4833 46.503 34.4833C46.704 34.4833 47.147 34.309 47.4076 34.0246C47.71 33.6973 48.6742 31.9704 48.8556 31.9704C49.1367 31.9704 48.5737 34.4833 49.6393 34.4833C50.3428 34.4833 51.0269 33.5882 51.0269 33.1071C51.0864 32.7136 50.6648 33.2162 50.4434 33.2162Z" fill="#FEFEFD"/>
</g>
<defs>
<clipPath id="clip0_168_419">
<rect width="44" height="9" fill="white" transform="translate(8 26)"/>
</clipPath>
</defs>
</svg>
