<svg width="60" height="60" viewBox="0 0 60 60" fill="none" xmlns="http://www.w3.org/2000/svg">
<rect width="60" height="60" fill="black"/>
<g clip-path="url(#clip0_168_510)">
<path d="M42.8202 20.2992L30.0729 12.8321L17.3285 20.2992L16.262 18.4281L30.0729 10.3362L43.8865 18.4281L42.8202 20.2992Z" fill="#1D5FB5"/>
<mask id="mask0_168_510" style="mask-type:luminance" maskUnits="userSpaceOnUse" x="32" y="25" width="16" height="25">
<path d="M32.4607 25.3525H47.9998V49.6643H32.4607V25.3525Z" fill="white"/>
</mask>
<g mask="url(#mask0_168_510)">
<path d="M34.0367 49.6643L32.9727 47.7932L45.717 40.326V25.3901H47.8503V41.5747L34.0367 49.6643Z" fill="#26B247"/>
</g>
<mask id="mask1_168_510" style="mask-type:luminance" maskUnits="userSpaceOnUse" x="12" y="25" width="16" height="25">
<path d="M12.2969 25.3525H27.2781V49.6643H12.2969V25.3525Z" fill="white"/>
</mask>
<g mask="url(#mask1_168_510)">
<path d="M26.1119 49.6643L12.2983 41.5754V25.3909H14.4316V40.326L27.176 47.7932L26.1119 49.6643Z" fill="#ED0A65"/>
</g>
<path d="M38.1659 34.1517C38.9781 34.1517 39.4695 33.7173 39.4695 33.0283C39.4695 32.3683 38.9896 31.9078 38.1659 31.9078H36.8478V34.1517H38.1659ZM37.9923 30.1538C38.7235 30.1538 39.2034 29.7608 39.2034 29.1127C39.2034 28.491 38.7901 28.086 37.9663 28.086H36.8478V30.1538H37.9923ZM38.3247 26.3176C40.189 26.3176 41.2673 27.4116 41.2673 28.8838C41.2673 29.8694 40.6546 30.6789 39.8829 30.9372C40.7354 31.1394 41.5591 31.9344 41.5591 33.1778C41.5591 34.7442 40.3885 35.8939 38.6052 35.8939H34.7984V26.3176H38.3247ZM24.9479 26.3176H27.4106L29.3414 29.8694L31.2954 26.3176H33.6393L30.3241 31.8961V35.8937H28.2228V31.8963L24.9479 26.3176ZM19.2913 35.8939V26.3176H21.3926V33.8523H25.465V35.8937L19.2913 35.8939Z" fill="#1D5FB5"/>
</g>
<defs>
<clipPath id="clip0_168_510">
<rect width="36" height="40" fill="white" transform="translate(12 10)"/>
</clipPath>
</defs>
</svg>
