<svg width="60" height="60" viewBox="0 0 60 60" fill="none" xmlns="http://www.w3.org/2000/svg">
<rect width="60" height="60" fill="black"/>
<g clip-path="url(#clip0_1772_9413)">
<path d="M19.071 35.1667C22.7278 37.4763 27.1974 38.0938 31.4503 37.931C34.8361 37.7502 38.3045 37.0242 41.1923 35.1693C41.7316 35.8849 42.2607 36.6135 42.7974 37.3368C39.5407 39.8892 35.5639 41.6072 31.4245 41.9508C26.3949 42.3228 21.409 40.3904 17.4658 37.3446C18 36.6186 18.5419 35.8953 19.071 35.1667Z" fill="white"/>
<path d="M37.0012 18.1394C38.1651 17.9044 39.4399 18.0025 40.4877 18.5915C41.0632 18.9016 41.4477 19.4544 41.7367 20.0253C42.529 18.9481 43.7419 18.0723 45.1174 18.0309C46.3225 17.9844 47.6309 18.1498 48.6064 18.9196C49.5509 19.6688 49.9561 20.9115 49.987 22.0843C49.9896 24.9726 49.987 27.8635 49.987 30.7543C48.8464 30.7543 47.7075 30.7543 46.5703 30.7543C46.5599 28.2303 46.5857 25.7063 46.5548 23.1849C46.5522 22.3659 46.4025 21.3946 45.6077 20.9683C44.7354 20.573 43.5225 20.6325 42.8851 21.4281C42.3638 22.0327 42.2709 22.8723 42.2632 23.6421C42.2657 26.0137 42.2657 28.3853 42.2657 30.7543C41.1131 30.7543 39.9604 30.7543 38.8077 30.7543C38.8051 28.1709 38.8128 25.5875 38.8051 23.0015C38.7948 22.2523 38.6348 21.3558 37.9148 20.9657C37.0064 20.5394 35.8012 20.7229 35.1406 21.5031C34.6864 22.0508 34.498 22.7715 34.5032 23.4716C34.5057 25.9001 34.5057 28.3285 34.5057 30.7543C33.353 30.7543 32.2004 30.7543 31.0477 30.7543C31.0451 26.6157 31.0477 22.477 31.0477 18.3384C32.1341 18.3384 33.2257 18.3384 34.3122 18.3384C34.3122 18.8964 34.3148 19.4518 34.3122 20.0124C34.9806 19.1263 35.8915 18.3745 37.0012 18.1394ZM10.0103 18.341C11.218 18.3332 12.4283 18.341 13.6386 18.3384C14.3999 21.144 15.1561 23.9547 15.9174 26.7629C16.6219 23.9599 17.2928 21.1466 17.987 18.341C19.0967 18.3358 20.2064 18.3384 21.3161 18.3384C22.0154 21.1414 22.7328 23.9418 23.427 26.7448C24.1961 23.9444 24.947 21.1388 25.7135 18.3384C26.8954 18.3384 28.0773 18.3358 29.2593 18.341C27.9483 22.477 26.6477 26.6182 25.3444 30.7569C24.1651 30.7543 22.9857 30.7517 21.809 30.7595C21.0683 27.9849 20.3354 25.2129 19.6025 22.4383C18.9032 25.2103 18.2038 27.9849 17.4941 30.7543C16.3044 30.7569 15.1199 30.7517 13.9328 30.7569C12.6348 26.6157 11.298 22.4848 10.0103 18.341Z" fill="#00CDBE"/>
</g>
<defs>
<clipPath id="clip0_1772_9413">
<rect width="40" height="24" fill="white" transform="translate(10 18)"/>
</clipPath>
</defs>
</svg>
