<svg width="60" height="60" viewBox="0 0 60 60" fill="none" xmlns="http://www.w3.org/2000/svg">
<rect width="60" height="60" fill="#0027A0"/>
<g clip-path="url(#clip0_150_1053)">
<path d="M23.7389 34.4868C22.3402 34.616 21.6574 33.2245 21.5508 31.8848C21.4052 30.0527 22.3063 29.3285 23.1762 29.2481C24.5057 29.126 25.2348 30.4718 25.345 31.8617C25.4855 33.643 24.655 34.4009 23.7389 34.4868ZM20.4794 31.9195C20.4794 33.5633 21.5933 34.8792 23.4702 34.8792C25.1771 34.8792 26.4147 33.6016 26.4147 31.8424C26.4147 30.2481 25.4205 28.8557 23.4702 28.8557C21.7133 28.8557 20.4794 30.1864 20.4794 31.9195ZM46.6705 27.3359C46.6705 26.6584 46.2369 26.0853 45.7368 26.0853C45.2666 26.0853 45.1563 26.4234 45.1563 26.622C45.1563 26.8657 45.3163 26.9724 45.4821 26.9862C45.7142 27.001 46.0879 27.2205 46.0879 27.7172C46.0879 28.2498 45.6177 28.6159 45.1682 28.8367C45.109 28.9273 45.156 29.0604 45.2531 29.1105C46.015 28.8647 46.6705 28.2356 46.6705 27.3359ZM48.7331 31.5666L47.9832 31.1491C47.4986 30.8755 47.1759 30.5875 47.1759 30.123C47.1759 29.6788 47.44 29.2321 48.1542 29.2321C48.869 29.2321 49.1829 29.8987 49.284 30.3545C49.3408 30.4445 49.5588 30.4316 49.5997 30.3294C49.6067 29.7688 49.5228 29.2719 49.4257 29.0501C49.0153 28.9743 48.7234 28.8557 48.298 28.8557C47.0788 28.8557 46.3942 29.5194 46.3942 30.4718C46.3942 31.2027 46.8941 31.7109 47.476 32.0352L48.0195 32.337C48.7121 32.715 48.869 33.1458 48.869 33.5633C48.869 34.1621 48.4699 34.5032 47.8522 34.5032C47.04 34.5032 46.5084 33.5774 46.4098 33.1065C46.324 32.9876 46.1432 33.0008 46.0953 33.1348C46.0953 33.8243 46.2394 34.2939 46.3496 34.4752C46.5191 34.6041 47.0055 34.8792 47.7417 34.8792C48.9417 34.8792 49.7173 34.2409 49.7173 33.2245C49.7173 32.3502 49.1707 31.8015 48.7331 31.5666ZM36.0977 34.3839C35.1722 34.3839 35.0537 33.9661 35.0537 33.1348V30.0289C35.0537 29.7396 35.0537 29.5737 35.1237 29.5194C35.2226 29.431 35.4531 29.378 35.8541 29.378C37.2211 29.378 38.2623 30.2127 38.2623 31.816C38.2623 33.4048 37.5493 34.3839 36.0977 34.3839ZM37.6699 29.287C37.1011 29.0768 36.5063 29.0003 35.8281 29.0003C34.8492 29.0003 34.1689 29.026 33.4898 29.0768C33.382 29.1154 33.3682 29.3642 33.4766 29.4037L33.8397 29.4551C34.12 29.4937 34.131 29.7155 34.131 30.5631V33.3303C34.131 34.2277 34.0828 34.2791 33.5621 34.3704L33.331 34.409C33.2476 34.4752 33.2602 34.6983 33.3545 34.7352C33.7672 34.7119 34.1803 34.6996 34.5936 34.6983C34.7759 34.6983 35.0058 34.7108 35.2446 34.7233C35.5011 34.7513 35.782 34.7632 36.0479 34.7632C36.6525 34.7632 37.3304 34.6619 37.8763 34.3572C38.8473 33.8243 39.342 32.8722 39.342 31.8424C39.342 30.6418 38.7719 29.6901 37.6699 29.287ZM44.546 29.0003C44.2028 29.026 43.9484 29.0373 43.6803 29.0373C43.404 29.0373 43.1264 29.0257 42.764 29.0003C42.6412 29.0504 42.6296 29.2597 42.7374 29.324L42.9924 29.3642C43.2861 29.4037 43.2592 29.5194 43.0779 29.8849L42.5933 30.8389C42.3887 31.2535 42.2055 31.5666 42.0113 31.9195C41.82 31.5651 41.6389 31.2047 41.4681 30.8389L41.018 29.9119C40.822 29.5049 40.8623 29.431 41.1267 29.3642L41.2977 29.324C41.4174 29.2597 41.3826 29.0504 41.284 29.0003C40.5699 29.0494 39.8536 29.0494 39.1395 29.0003C39.0446 29.0373 39.0205 29.2465 39.1029 29.324L39.4189 29.3883C39.7322 29.4551 39.8562 29.5737 40.109 30.0935L40.9927 31.8543C41.2977 32.4537 41.3316 32.5579 41.3316 32.9645V33.4563C41.3316 34.2277 41.284 34.3068 40.7634 34.3704L40.4617 34.409C40.375 34.4752 40.3863 34.6983 40.4855 34.7352C41.0305 34.7108 41.4076 34.6983 41.7954 34.6983C42.1679 34.6983 42.5695 34.7108 43.1008 34.7352C43.1994 34.6983 43.2116 34.4752 43.1264 34.4093L42.8232 34.3707C42.3029 34.3068 42.2522 34.2277 42.2522 33.4563V32.7527C42.2522 32.3763 42.2782 32.2464 42.7148 31.5033L43.4653 30.197C43.8409 29.547 43.9011 29.468 44.2785 29.3883L44.5679 29.324C44.6669 29.2597 44.6403 29.0373 44.546 29.0003ZM30.2458 34.4868C28.8473 34.616 28.164 33.2245 28.0577 31.8848C27.9121 30.0527 28.8134 29.3285 29.6831 29.2481C31.0128 29.126 31.7411 30.4718 31.851 31.8617C31.9927 33.643 31.1624 34.4009 30.2458 34.4868ZM29.9771 28.8553C28.2214 28.8553 26.9863 30.1864 26.9863 31.9195C26.9863 33.5633 28.0995 34.8792 29.9771 34.8792C31.684 34.8792 32.9215 33.6016 32.9215 31.8424C32.9215 30.2481 31.9286 28.8553 29.9771 28.8553ZM19.9258 34.3704C19.3573 34.3068 19.3686 33.9657 19.3322 33.3168C19.2342 31.4367 19.2223 29.0257 19.1979 27.6426C19.1863 26.731 19.2834 26.4964 20.0452 26.4019L20.3017 26.3771C20.3634 26.3244 20.3634 26.1036 20.291 26.0515C19.9124 26.0772 19.5145 26.0885 19.2113 26.0885C18.9686 26.0885 18.7154 26.0885 18.3017 26.0515C18.2773 26.6516 17.9392 27.3697 17.3817 28.5542L16.2421 31.0443C15.9402 31.7109 15.6363 32.391 15.3093 33.0008H15.2858C14.9927 32.4267 14.7276 31.8276 14.4492 31.2166L13.0678 28.2032C12.6937 27.3694 12.3887 26.5594 12.4379 26.0515C12.0376 26.0885 11.7112 26.0885 11.4318 26.0885C11.1295 26.0885 10.8391 26.0775 10.4751 26.0515C10.3771 26.1036 10.3652 26.299 10.4269 26.3771L10.6192 26.4022C11.3585 26.534 11.4583 26.7021 11.4315 27.5246C11.3969 28.494 11.3523 29.4629 11.2977 30.4313C11.2269 31.7241 11.167 32.4402 11.0931 33.3029C11.0199 34.2139 10.8501 34.3068 10.342 34.3704L10.0754 34.409C10 34.4752 10.026 34.6729 10.1008 34.7352C10.5116 34.711 10.9229 34.6987 11.3344 34.6983C11.7948 34.6983 12.2687 34.7108 12.6803 34.7352C12.7652 34.6983 12.778 34.4884 12.6937 34.4093L12.2327 34.3707C11.7585 34.3328 11.6876 34.1239 11.6876 33.1583C11.6876 32.051 11.7356 30.8871 11.7719 30.0935C11.8101 29.3368 11.8458 28.5795 11.8919 27.7715H11.917C12.1832 28.3719 12.4379 29.0504 12.6937 29.6493L13.7814 32.1677C14.0605 32.806 14.6415 34.0859 14.8504 34.7748C14.8733 34.8153 14.935 34.8278 14.9582 34.8278C15.0079 34.8278 15.0553 34.8153 15.0776 34.7748C15.2974 34.1753 15.844 32.9516 16.3869 31.8015L17.4653 29.5194C17.7081 29.0125 18.1667 27.9685 18.2531 27.8255H18.2773L18.3139 33.2628C18.3139 34.0978 18.3139 34.3068 17.7209 34.3704L17.3719 34.409C17.2974 34.4884 17.3093 34.6729 17.3951 34.7352C17.8898 34.7108 18.4357 34.6983 18.8583 34.6983C19.2956 34.6983 19.7933 34.7108 20.291 34.7352C20.3744 34.6838 20.386 34.4884 20.3151 34.4093L19.9258 34.3704Z" fill="white"/>
</g>
<defs>
<clipPath id="clip0_150_1053">
<rect width="40" height="9" fill="white" transform="translate(10 26)"/>
</clipPath>
</defs>
</svg>
