<svg width="60" height="60" viewBox="0 0 60 60" fill="none" xmlns="http://www.w3.org/2000/svg">
<rect width="60" height="60" fill="#0D2F8B"/>
<path fill-rule="evenodd" clip-rule="evenodd" d="M9 17.3227L15.4284 12L20.7858 16.2583L25.9285 12L31.0715 16.0453L35.9998 12L41.3569 16.2583V26.9033L34.2854 32.4387V19.0257C34.2854 19.0257 34.0713 17.1097 31.0712 17.1097V47.9807H24V19.0257C24 19.0257 24 17.1097 21.0002 17.1097V47.9807H13.7142V20.5163C13.7142 20.5163 13.9283 16.684 9 17.3227Z" fill="white"/>
<path fill-rule="evenodd" clip-rule="evenodd" d="M45.6426 24.9873L34.2856 33.7166V42.2326L41.5716 48.194L51.0001 40.9557L50.5716 40.5296C50.5716 40.5296 48.0003 43.0843 45.8574 42.659C42.4288 42.233 41.3572 40.1043 41.3572 36.9107V29.6713C41.3572 29.6713 43.9289 32.439 45.8574 32.439C47.5715 32.439 49.286 30.949 51.0001 29.2456L45.6426 24.9873Z" fill="#F41521"/>
</svg>
