<svg width="60" height="60" viewBox="0 0 60 60" fill="none" xmlns="http://www.w3.org/2000/svg">
<rect width="60" height="60" fill="white"/>
<g clip-path="url(#clip0_150_1003)">
<path d="M22.2082 26.7119C22.2082 28.1345 21.0223 29.2881 19.5603 29.2881C18.0967 29.2881 16.9113 28.1345 16.9113 26.7119C16.9113 25.2889 18.0967 24.1343 19.5603 24.1343C21.0223 24.1343 22.2082 25.2889 22.2082 26.7119Z" fill="#305C98"/>
<path d="M22.2166 33.1061C22.2166 34.5283 21.0312 35.6826 19.5695 35.6826C18.1052 35.6826 16.9201 34.5283 16.9201 33.1061C16.9201 31.6835 18.1052 30.5292 19.5695 30.5292C21.0312 30.5292 22.2166 31.6835 22.2166 33.1061Z" fill="#8C99C2"/>
<path d="M15.4356 33.1109C15.4356 34.5339 14.2505 35.687 12.7877 35.687C11.3245 35.687 10.1379 34.5339 10.1379 33.1109C10.1379 31.6875 11.3245 30.5347 12.7877 30.5347C14.2505 30.5347 15.4356 31.6875 15.4356 33.1109Z" fill="#B8BDD8"/>
<path d="M35.2299 30.7709V35.709H33.3879V31.2189C33.3879 30.7598 33.2613 30.0878 31.8802 30.0878C30.5678 30.0878 30.4067 30.7598 30.4067 31.2189V35.709H28.5647V31.2189C28.5647 30.7598 28.4154 30.0878 27.0339 30.0878C25.6523 30.0878 25.503 30.7598 25.503 31.2189V35.709H23.661V29.6174L23.8912 29.5951C24.4323 29.539 25.5258 29.0352 27.2181 29.0352C28.4613 29.0352 29.0252 29.3265 29.5203 29.875C29.969 29.3823 30.9132 29.0352 32.0987 29.0352C33.9407 29.0352 35.2299 29.5726 35.2299 30.7709Z" fill="#305C98"/>
<path d="M37.7306 35.7093H35.889V26.7288H37.7306V31.1741L40.1942 29.4051H42.8186L38.6862 31.9248C40.5738 31.9581 41.7483 32.4955 42.1164 33.0443C42.4158 33.4919 42.5652 34.6008 42.5652 35.7093H40.7235C40.7235 34.8359 40.6084 33.9739 40.3667 33.649C39.8945 33.0107 38.9161 32.8762 37.7306 32.8314V35.7093Z" fill="#305C98"/>
<path d="M49.747 31.2523H47.9863C47.9863 30.7038 47.8016 29.9871 46.4087 29.9871C45.1773 29.9871 45.0275 30.379 45.0275 30.9164C45.0275 31.4542 45.4075 31.6556 46.9152 31.7901C48.2849 31.9132 49.8621 31.8459 49.8621 33.6489C49.8621 35.5302 47.7902 35.8658 46.501 35.8658C44.6936 35.8658 42.967 35.4294 42.967 33.5928H44.8087C44.8087 34.8358 45.7297 34.9141 46.4433 34.9141C47.4908 34.9141 48.0778 34.567 48.0778 33.9512C48.0778 33.0664 47.3301 33.1226 46.0059 32.9992C44.2794 32.8313 43.1741 32.7304 43.1741 31.1182C43.1741 29.3263 44.8893 29.0354 46.4087 29.0354C48.7918 29.0354 49.747 29.8415 49.747 31.2523Z" fill="#305C98"/>
</g>
<defs>
<clipPath id="clip0_150_1003">
<rect width="40" height="12" fill="white" transform="translate(10 24)"/>
</clipPath>
</defs>
</svg>
