<svg width="60" height="60" viewBox="0 0 60 60" fill="none" xmlns="http://www.w3.org/2000/svg">
<rect width="60" height="60" fill="black"/>
<g clip-path="url(#clip0_1403_9016)">
<path d="M33.9 16.6022L30.3021 20.7739L21.404 9.20012C21.3572 9.13864 21.2971 9.08866 21.2282 9.05398C21.1593 9.01931 21.0835 9.00084 21.0064 9H17.2522C17.1587 9.00037 17.0671 9.02634 16.9873 9.0751C16.9075 9.12387 16.8424 9.19358 16.7992 9.27671C16.7568 9.35996 16.7388 9.45351 16.747 9.5466C16.7553 9.63969 16.7896 9.72855 16.846 9.80296L30.3058 27.5299L38.4716 17.2273C38.5139 17.1716 38.5439 17.1076 38.5598 17.0395C38.5757 16.9714 38.5771 16.9006 38.5638 16.8319C38.5506 16.7632 38.523 16.6981 38.4829 16.6409C38.4429 16.5836 38.3912 16.5355 38.3313 16.4997C38.2518 16.4484 38.1599 16.4198 38.0654 16.4169H34.3235C34.2438 16.4185 34.1655 16.4384 34.0945 16.475C34.0234 16.5087 33.961 16.5586 33.9124 16.6207L33.9 16.6022ZM47.03 42.7875L37.1188 30.0006L49.8968 13.5151C49.9394 13.4602 49.9699 13.3967 49.9862 13.3291C50.0026 13.2614 50.0044 13.191 49.9916 13.1226C49.9788 13.0541 49.9516 12.9892 49.912 12.9321C49.8723 12.875 49.821 12.8269 49.7614 12.7912C49.6817 12.739 49.5894 12.7095 49.4943 12.706H45.7918C45.7142 12.7103 45.6385 12.7318 45.5702 12.769C45.5019 12.8029 45.4421 12.8519 45.3954 12.9123L32.0795 30.0006L42.4597 43.3903C42.5072 43.4525 42.5683 43.5028 42.6383 43.5373C42.7084 43.5718 42.7854 43.5896 42.8634 43.5892H46.6238C46.718 43.5897 46.8104 43.5643 46.8912 43.5157C46.9719 43.4672 47.0378 43.3973 47.0817 43.3137C47.1241 43.2302 47.1418 43.1363 47.1326 43.043C47.1235 42.9498 47.0879 42.8611 47.03 42.7875ZM14.3903 18.4552L22.9081 30.008L10.0969 46.533C10.0564 46.5879 10.0276 46.6505 10.0124 46.7171C9.99723 46.7837 9.99596 46.8527 10.0087 46.9198C10.0214 46.9869 10.0478 47.0506 10.0863 47.1069C10.1248 47.1632 10.1745 47.211 10.2323 47.247C10.3099 47.2964 10.3997 47.2927 10.4921 47.2952H14.1946C14.2721 47.2952 14.3485 47.3076 14.4186 47.2742C14.4882 47.2406 14.5492 47.1916 14.5971 47.1309L27.9462 30.0031L18.9606 17.8561C18.9132 17.794 18.8521 17.7437 18.7822 17.7091C18.7122 17.6717 18.6348 17.6506 18.5557 17.6473H14.7953C14.7003 17.6504 14.608 17.6795 14.5282 17.7313C14.449 17.7797 14.3847 17.8492 14.3426 17.9321C14.3004 18.015 14.282 18.108 14.2894 18.2007C14.2977 18.2932 14.3318 18.3814 14.3878 18.4552H14.3903ZM26.8113 43.399L30.3009 39.3113L39.1597 50.8023C39.2074 50.8647 39.2689 50.9151 39.3395 50.9494C39.41 50.9837 39.4875 51.001 39.5659 51H43.3004C43.3936 50.9998 43.485 50.9742 43.5648 50.9259C43.6446 50.8776 43.7098 50.8084 43.7534 50.7257C43.7953 50.6432 43.8131 50.5505 43.8049 50.4583C43.7966 50.3661 43.7625 50.2781 43.7066 50.2044L30.2911 32.6047L22.2656 42.7961C22.2238 42.8515 22.1941 42.9151 22.1785 42.9828C22.1629 43.0505 22.1616 43.1207 22.1749 43.1889C22.1881 43.2571 22.2155 43.3218 22.2553 43.3786C22.2952 43.4354 22.3465 43.4832 22.4059 43.5188C22.4859 43.5682 22.5782 43.5929 22.6718 43.5929H26.4076C26.4851 43.5935 26.5618 43.5763 26.6317 43.5427C26.7017 43.5091 26.7631 43.4599 26.8113 43.399Z" fill="#FEFEFD"/>
</g>
<defs>
<clipPath id="clip0_1403_9016">
<rect width="38" height="40" fill="white" transform="translate(11 10)"/>
</clipPath>
</defs>
</svg>
