<svg width="60" height="60" viewBox="0 0 60 60" fill="none" xmlns="http://www.w3.org/2000/svg">
<rect width="60" height="60" fill="#019EA9"/>
<g clip-path="url(#clip0_1403_9043)">
<path d="M40.929 20.873C41.5317 20.9133 42.1363 20.8296 42.7053 20.6269C43.2743 20.4243 43.7957 20.107 44.2371 19.6947C44.6786 19.2824 45.0307 18.7839 45.2718 18.2301C45.5128 17.6762 45.6376 17.0788 45.6385 16.4748C45.6394 15.8707 45.5163 15.2729 45.2768 14.7184C45.0373 14.1639 44.6866 13.6644 44.2463 13.2508C43.8061 12.8373 43.2856 12.5185 42.7172 12.3142C42.1487 12.1099 41.5444 12.0244 40.9416 12.0631C39.7709 12.0631 38.648 12.5282 37.8202 13.356C36.9923 14.1839 36.5272 15.3067 36.5272 16.4775C36.5272 17.6483 36.9923 18.7711 37.8202 19.5989C38.648 20.4268 39.7709 20.8919 40.9416 20.8919L40.929 20.873ZM27.0678 20.8919C27.6475 20.8919 28.2215 20.7777 28.7571 20.5559C29.2927 20.334 29.7793 20.0089 30.1892 19.5989C30.5991 19.189 30.9243 18.7024 31.1462 18.1668C31.368 17.6312 31.4822 17.0572 31.4822 16.4775C31.4822 15.8978 31.368 15.3237 31.1462 14.7882C30.9243 14.2526 30.5991 13.7659 30.1892 13.356C29.7793 12.9461 29.2927 12.6209 28.7571 12.3991C28.2215 12.1772 27.6475 12.0631 27.0678 12.0631C25.897 12.0631 24.7742 12.5282 23.9463 13.356C23.1184 14.1839 22.6534 15.3067 22.6534 16.4775C22.6534 17.6483 23.1184 18.7711 23.9463 19.5989C24.7742 20.4268 25.897 20.8919 27.0678 20.8919ZM36.5272 46.1171H25.1759V26.729C25.133 23.3299 21.3921 22.1532 21.3921 22.1532H28.469C30.9184 22.1532 36.5272 23.1937 36.5272 27.8137V46.1171Z" fill="#FEFEFD"/>
<path d="M50.3883 46.0982H39.0496V26.729C39.0067 23.3299 35.2658 22.1532 35.2658 22.1532H42.3427C44.7921 22.1532 50.4009 23.1937 50.4009 27.8137V46.1171L50.3883 46.0982ZM22.6532 46.1171H12.5631C12.5631 46.1171 12.5807 34.5274 12.5631 33.1892C12.529 30.6162 9.44775 29.7207 9.44775 29.7207H16.7252C18.5604 29.7207 22.6532 30.5115 22.6532 34.0141V46.1171ZM14.9469 28.7344C16.8514 28.7344 18.3951 27.1074 18.3951 25.0995C18.3951 23.0941 16.8526 21.4683 14.9469 21.4683C13.0449 21.4683 11.5036 23.0941 11.5036 25.0995C11.5036 27.1074 13.0449 28.7344 14.9469 28.7344Z" fill="#FEFEFD"/>
</g>
<defs>
<clipPath id="clip0_1403_9043">
<rect width="42" height="35" fill="white" transform="translate(9 12)"/>
</clipPath>
</defs>
</svg>
