<svg width="60" height="60" viewBox="0 0 60 60" fill="none" xmlns="http://www.w3.org/2000/svg">
<rect width="60" height="60" fill="white"/>
<path d="M49.8258 16H10L29.9394 48.0586L49.8258 16Z" fill="#004225"/>
<path d="M32.0606 16.4722C32.0606 16.3148 32.1136 16.1574 32.1136 16H34.9772C35.0303 16.1574 35.0303 16.3148 35.0303 16.4722C35.0303 17.3117 34.3409 17.9938 33.4924 17.9938C32.75 17.9938 32.0606 17.3117 32.0606 16.4722ZM40.5985 17.4167C42.9318 19.1481 45.106 20.8272 46.3788 21.6142L45.2651 23.3981C44.4166 23.713 43.4621 23.713 42.5606 23.4506C41.8182 23.713 41.0757 23.7654 40.2803 23.6605C39.856 23.9228 39.4318 24.0278 38.9545 24.0278C39.75 24.3951 40.2803 25.1821 40.2803 26.0741C40.2803 27.2809 39.1666 28.2253 37.6818 28.5401C37.6288 28.5401 37.5757 28.5401 37.5227 28.5401C38.4242 28.9599 39.0075 29.8519 38.9545 30.8488C38.9545 32.0031 38 33.0525 36.5682 33.5772C37.2045 33.892 37.6818 34.5216 37.8409 35.2562L35.0303 39.821C34.7121 39.5586 34.3939 39.4012 33.9697 39.3488V41.5525L32.75 43.5463C29.5682 42.1296 29.5151 39.5062 31.3182 38.4043C29.0909 37.5648 28.5606 34.7315 30.6818 33.6296C29.25 33.1049 28.2954 32.0556 28.2954 30.9012C28.2424 29.9043 28.8257 29.0123 29.7272 28.5926C29.6742 28.5926 29.6212 28.5926 29.5682 28.5926C28.0833 28.2778 26.9697 27.3333 26.9697 26.1265C27.0227 25.2346 27.553 24.4475 28.3485 24.0802C27.8712 24.0802 27.4469 23.9753 27.0227 23.713C26.2803 23.8179 25.4848 23.713 24.7424 23.5031C23.8409 23.8179 22.8863 23.7654 22.0379 23.4506C21.6136 23.2932 22.6212 23.3457 21.2954 23.2932C19.3863 23.2932 19.0682 23.0309 18.5909 22.6111C19.2272 22.5586 19.8636 22.3488 20.3939 21.9815C21.5075 21.4568 24 19.5154 26.7045 17.5216C29.4091 15.5278 30.7879 17.4691 31.4242 18.2562C31.9545 18.8858 32.4848 20.3025 33.0151 20.9321L32.9621 18.3086H34.2348V20.9846C34.7651 20.4599 35.3485 18.9383 35.8788 18.3086C36.5151 17.3642 37.8409 15.4228 40.5985 17.4167ZM33.1212 27.3858L33.0682 24.1852C32.9621 24.7099 32.4318 25.0772 31.9015 25.0247C30.0985 25.0247 29.0909 25.4444 29.0909 26.1265C29.0379 26.8611 29.9924 27.2284 33.1212 27.3858ZM33.1742 32.4228L33.1212 29.2222C31.7954 29.2222 30.3106 29.6944 30.2045 30.7438C30.0985 31.5833 31.3182 32.4753 33.1742 32.4228ZM33.1742 37.3025V34.3642C31.2651 34.4691 30.5227 36.9352 33.1742 37.3025ZM33.2272 41.9198V39.3488C31.9545 39.5586 30.8939 41.0278 33.2272 41.9198ZM34.0757 34.3642L34.0227 37.3025C36.8333 36.9877 36.0379 34.4167 34.0757 34.3642ZM37.0985 30.7438C36.9924 29.6944 35.5075 29.2222 34.1288 29.2222L34.0757 32.4228C35.9318 32.5278 37.2045 31.5833 37.0985 30.7438ZM38.2651 26.1265C38.2651 25.392 37.2045 25.0247 35.4545 25.0247C34.8182 25.0772 34.2879 24.6574 34.1818 24.0802C34.1818 24.0802 34.1818 24.0802 34.1818 24.0278L34.1288 27.3858C37.2575 27.2284 38.2651 26.8611 38.2651 26.1265Z" fill="#598471"/>
<path d="M28.6136 29.1697C28.6136 29.2222 28.6136 29.2746 28.6136 29.2746C28.3485 29.2746 28.0833 29.2746 27.9242 29.2746H26.9697H26.0151C25.8561 29.2746 25.6439 29.2746 25.3788 29.2746C25.3788 29.2746 25.3258 29.2222 25.3258 29.1697C25.3258 29.1172 25.3258 29.0648 25.3788 29.0648C25.75 29.0648 25.9621 29.0123 26.1212 28.9073C26.2273 28.8024 26.3333 28.5401 26.3333 28.2252V27.9629L26.0151 21.1419L23.4167 29.1697C23.4167 29.2222 23.3636 29.2222 23.3106 29.2222C23.2576 29.2222 23.2045 29.2222 23.2045 29.1697L20.0227 21.1944L19.9167 27.1759C19.9167 27.753 20.0227 28.2252 20.1818 28.5925C20.3939 28.9073 20.6591 29.1172 20.9773 29.1172C20.9773 29.1172 21.0303 29.1697 21.0303 29.2222C21.0303 29.2746 21.0303 29.3271 20.9773 29.3271C20.7651 29.3271 20.553 29.3271 20.447 29.3271H19.7576H18.9621C18.803 29.3271 18.6439 29.3271 18.4318 29.3271C18.4318 29.3271 18.3788 29.2746 18.3788 29.2222C18.3788 29.1697 18.3788 29.1172 18.4318 29.1172C18.75 29.1172 19.0682 28.9598 19.2273 28.5925C19.4394 28.2252 19.5455 27.8055 19.5455 27.1759L19.6515 20.3024C19.4924 19.8827 19.3333 19.6203 19.1212 19.4104C18.9621 19.2006 18.75 19.1481 18.4848 19.1481C18.4848 19.1481 18.4318 19.0956 18.4318 19.0431C18.4318 18.9907 18.4318 18.9382 18.4848 18.9382H19.0682C19.1742 18.9382 19.3333 18.9382 19.5455 18.9382H20.2348C20.2879 18.9382 20.3939 18.9382 20.5 18.9382C20.6061 18.9382 20.7121 18.9907 20.7651 19.0956C20.8712 19.1481 20.9773 19.4104 21.1364 19.7777L23.8939 26.5462L26.2803 19.3055C26.3333 19.1481 26.3864 19.0431 26.4394 18.9907C26.4924 18.9382 26.5455 18.8857 26.6515 18.8857C26.7045 18.8857 26.8106 18.8857 26.9167 18.8857C27.0227 18.8857 27.1288 18.8857 27.2348 18.8857H27.9773C28.0833 18.8857 28.2424 18.8857 28.4545 18.8857C28.4545 18.8857 28.5076 18.9382 28.5076 18.9907C28.5076 19.0431 28.5076 19.0956 28.4545 19.0956C28.0833 19.0956 27.7651 19.2006 27.6061 19.4104C27.447 19.6203 27.3409 19.9351 27.3409 20.4073L27.6591 27.9104C27.6591 28.2777 27.7121 28.4876 27.7651 28.645C27.8182 28.8024 27.8712 28.9073 28.0303 28.9598C28.1364 29.0123 28.3485 29.0648 28.6136 29.0648C28.6136 29.0648 28.6136 29.1172 28.6136 29.1697Z" fill="white"/>
<path d="M31.4243 28.6451C31.4773 28.8025 31.6364 28.9074 31.7955 28.9599C31.9546 29.0124 32.2727 29.0649 32.697 29.0649C32.75 29.0649 32.75 29.1173 32.75 29.1698C32.75 29.2223 32.75 29.2747 32.697 29.2747C32.3258 29.2747 32.0076 29.2747 31.7955 29.2747H30.5758H29.5152C29.303 29.2747 29.0909 29.2747 28.7197 29.2747C28.6667 29.2747 28.6667 29.2223 28.6667 29.1698C28.6667 29.1173 28.6667 29.0649 28.7197 29.0649C29.0379 29.0649 29.25 29.0124 29.3561 28.9599C29.5152 28.9074 29.5682 28.8025 29.6212 28.6451C29.6743 28.4877 29.6743 28.2253 29.6743 27.9105V20.25C29.6743 19.9352 29.6743 19.6729 29.6212 19.5155C29.5682 19.3581 29.4621 19.2531 29.3561 19.2007C29.197 19.1482 28.9849 19.0957 28.7197 19.0957C28.6667 19.0957 28.6667 19.0433 28.6667 18.9908C28.6667 18.9383 28.6667 18.8858 28.7197 18.8858H29.4621C29.8864 18.8858 30.2576 18.9383 30.5227 18.9383C30.7349 18.9383 31 18.9383 31.3182 18.8858C31.4243 18.8858 31.5834 18.8858 31.7955 18.8334C32.0076 18.8334 32.2197 18.8334 32.4318 18.8334C33.3864 18.8334 34.1818 19.0433 34.7121 19.5155C35.2955 19.9877 35.5606 20.7223 35.5606 21.7192C35.5606 22.4013 35.4015 22.9784 35.0834 23.4507C34.7652 23.9229 34.394 24.2902 33.9167 24.5525C33.4394 24.8149 32.9621 24.9198 32.4318 24.9198C32.1667 24.9198 31.9546 24.8673 31.7424 24.8149C31.7424 24.8149 31.6894 24.7624 31.6894 24.7099C31.6894 24.6574 31.6894 24.6574 31.6894 24.605C31.6894 24.5525 31.7424 24.5525 31.7424 24.5525C31.9015 24.605 32.0606 24.605 32.2197 24.605C32.644 24.605 33.0152 24.3426 33.3334 23.8704C33.5985 23.3982 33.7576 22.7161 33.7576 21.8241C33.7576 20.9321 33.5985 20.3025 33.2803 19.7778C32.9621 19.3056 32.4849 19.0433 31.9015 19.0433C31.6364 19.0433 31.4773 19.0957 31.3712 19.2531C31.2652 19.4105 31.2121 19.6729 31.2121 20.0926V27.6482C31.3182 28.2253 31.3712 28.4352 31.4243 28.6451Z" fill="white"/>
<path d="M36.197 21.8241C36.197 21.8765 36.144 21.8765 36.144 21.8765C36.0909 21.8765 36.0909 21.8765 36.0909 21.8241C36.144 21.4043 36.144 20.8272 36.197 20.0926C36.25 19.4105 36.25 18.8858 36.25 18.5185C36.25 18.466 36.25 18.4136 36.3031 18.4136C36.3561 18.4136 36.3561 18.466 36.3561 18.5185C36.3561 18.7809 36.6212 18.8858 37.0985 18.8858C37.8409 18.9383 38.6364 18.9383 39.644 18.9383C40.1212 18.9383 40.6515 18.9383 41.2349 18.8858H42.0834C42.4015 18.8858 42.6137 18.8333 42.7728 18.7809C42.9319 18.7284 43.0379 18.6235 43.0379 18.466C43.0379 18.4136 43.0909 18.4136 43.144 18.4136C43.197 18.4136 43.197 18.4136 43.197 18.466C43.197 18.7809 43.144 19.3055 43.0909 20.0401C43.0379 20.7747 43.0379 21.3518 43.0379 21.7716C43.0379 21.8241 43.0379 21.8241 42.9849 21.8241C42.9319 21.8241 42.9319 21.8241 42.9319 21.7716C42.8258 20.9321 42.5606 20.3025 42.2425 19.8827C41.9243 19.463 41.5 19.2531 40.9697 19.2531C40.7046 19.2531 40.5455 19.3055 40.4925 19.463C40.3864 19.6204 40.3864 19.8827 40.3864 20.25V27.9105C40.3864 28.2778 40.3864 28.4876 40.4394 28.6451C40.4925 28.8025 40.5985 28.9074 40.7046 28.9599C40.8637 29.0123 41.0758 29.0648 41.394 29.0648C41.394 29.0648 41.447 29.1173 41.447 29.1697C41.447 29.2222 41.447 29.2747 41.394 29.2747C41.0758 29.2747 40.8637 29.2747 40.6515 29.2747H39.5909H38.5834C38.4243 29.2747 38.1591 29.2747 37.8409 29.2747C37.8409 29.2747 37.7879 29.2222 37.7879 29.1697C37.7879 29.1173 37.7879 29.0648 37.8409 29.0648C38.1591 29.0648 38.3712 29.0123 38.5303 28.9599C38.6894 28.9074 38.7955 28.8025 38.8485 28.6451C38.9015 28.4876 38.9546 28.2253 38.9546 27.9105V20.25C38.9546 19.8827 38.9015 19.6204 38.8485 19.463C38.7955 19.3055 38.6364 19.2531 38.3712 19.2531C37.3637 19.3055 36.6743 20.1451 36.197 21.8241Z" fill="white"/>
</svg>
