<svg width="60" height="60" viewBox="0 0 60 60" fill="none" xmlns="http://www.w3.org/2000/svg">
<rect width="60" height="60" fill="black"/>
<g clip-path="url(#clip0_1772_9518)">
<path d="M31.8513 30.1636H33.3486V30.2996C33.3486 30.7576 33.042 30.8221 32.7211 30.8221H31.4378C30.8317 30.8221 30.6749 30.6503 30.6749 29.8272V29.2331C30.6749 28.4171 30.8389 28.2382 31.4378 28.2382H32.7354C33.1204 28.2382 33.3414 28.3026 33.3414 28.7679H34.5178V28.6176C34.5178 27.6871 34.3325 27.093 32.9635 27.093H31.1597C30.0831 27.093 29.4414 27.4151 29.4414 28.818V30.2423C29.4414 31.6308 30.0831 31.9673 31.1597 31.9673H32.607C33.9546 31.9673 34.5321 31.9028 34.5321 30.5286V29.1758H31.8442V30.1564H31.8513V30.1636Z" fill="white"/>
<path d="M36.2999 27.1503H35.2661V31.91H36.2999V27.1503Z" fill="white"/>
<path d="M39.701 28.5031H38.161C37.6334 28.5031 37.0273 28.7249 37.0273 29.8272V30.636C37.0273 31.7382 37.6334 31.9601 38.161 31.9601H39.701C40.2286 31.9601 40.8347 31.7382 40.8347 30.636V29.8415C40.8347 28.7392 40.2286 28.5031 39.701 28.5031ZM39.8008 30.4714C39.8008 30.9151 39.6654 31.0296 38.9952 31.0296H38.7456C38.2751 31.0296 38.0398 30.8793 38.0398 30.4069V30.0849C38.0398 29.5981 38.2751 29.4622 38.7456 29.4622H38.9952C39.6654 29.4622 39.8008 29.5624 39.8008 30.0061V30.4714Z" fill="white"/>
<path d="M43.7649 28.5031H43.4584C43.0234 28.5031 42.5957 28.6534 42.5315 29.1759H42.5172V27.1575H41.4834V31.9172H42.4602V31.2873H42.4744C42.5885 31.6953 42.8452 31.9601 43.4726 31.9601H43.7721C45.084 31.9601 45.2408 31.3875 45.2408 30.5358V29.9274C45.2337 29.0828 45.0697 28.5031 43.7649 28.5031ZM44.2284 30.4356C44.2284 30.8078 44.1785 31.0153 43.6865 31.0153H43.0805C42.6741 31.0153 42.4531 30.9008 42.4531 30.3926V30.0562C42.4531 29.5481 42.6598 29.4335 43.0805 29.4335H43.6865C44.1785 29.4335 44.2284 29.6411 44.2284 30.0133V30.4356Z" fill="white"/>
<path d="M48.2569 28.5031H47.0591C46.1821 28.5031 45.8113 28.6534 45.8113 29.5552H46.8095C46.8238 29.319 46.9093 29.2832 47.2017 29.2832H47.8077C48.2141 29.2832 48.2925 29.3977 48.2925 29.727V30.0276C48.0929 29.7771 47.7863 29.7556 47.2159 29.7556C46.2177 29.7556 45.6973 29.8057 45.6973 30.7219V30.9938C45.6973 31.7883 46.1037 31.9458 46.7311 31.9458H47.4369C47.9574 31.9458 48.0644 31.8742 48.3496 31.5092V31.8957H49.3335V29.7127C49.3406 28.9253 48.9699 28.5031 48.2569 28.5031ZM47.551 31.1799H47.2516C46.8452 31.1799 46.7097 31.0941 46.7097 30.8793C46.7097 30.6073 46.7953 30.4857 47.2373 30.4857H47.6936C48.264 30.4857 48.321 30.5859 48.321 30.8292C48.3282 31.044 48.2711 31.1799 47.551 31.1799Z" fill="white"/>
<path d="M51.1017 27.1503H50.0679V31.91H51.1017V27.1503Z" fill="white"/>
<path d="M9.27793 27.5583C9.27793 27.5583 9.31358 27.1503 9.59877 27.1503C9.89823 27.1503 10.7253 27.1503 10.9463 27.1503C11.1673 27.1503 11.2885 27.4509 11.2885 27.4509L12.5505 30.2137L13.7982 27.4366C13.7982 27.4366 13.948 27.136 14.2046 27.136C14.4613 27.136 15.0317 27.136 15.4238 27.136C15.816 27.136 15.8089 27.544 15.8089 27.544V31.91H14.611V28.4887H14.5968L12.9926 31.91H12.08L10.4757 28.4887H10.4615V31.91H9.26367V27.5583H9.27793Z" fill="white"/>
<path d="M16.5292 27.4938C16.5292 27.4938 16.4936 27.1503 16.7859 27.1503C17.0853 27.1503 20.2153 27.1503 20.2153 27.1503C21.1565 27.1503 21.4131 27.7085 21.4131 28.5603V28.8609C21.4131 29.4908 21.2919 29.8773 20.7358 30.0276V30.0419C21.1066 30.1135 21.406 30.3139 21.406 31.094V31.9028H20.1868V31.3302C20.1868 30.8364 20.0656 30.6574 19.6806 30.6574H17.7555V31.8957H16.5363V27.4938H16.5292ZM17.7484 29.4908H19.7733C20.1084 29.4908 20.2296 29.3261 20.2296 28.9969V28.8323C20.2296 28.41 20.0585 28.3384 19.6592 28.3384H17.7484V29.4908Z" fill="white"/>
<path d="M22.1333 28.8252C22.1333 27.4223 22.7892 27.1002 23.9015 27.1002H25.3489C27.0885 27.1002 27.3238 27.544 27.3096 28.8967H26.0904V28.7608C26.0904 28.4172 25.8836 28.317 25.5128 28.317H24.1796C23.5379 28.317 23.4167 28.6749 23.4167 29.2689V29.7771C23.4167 30.4714 23.5379 30.7291 24.1225 30.7291H25.4344C25.9905 30.7291 26.1474 30.6646 26.1474 30.0706H27.3666V30.5143C27.3666 31.3231 27.1171 31.953 25.8979 31.953H23.9229C22.8249 31.953 22.1547 31.6166 22.1547 30.228V28.818H22.1333V28.8252Z" fill="white"/>
<path d="M51.1085 32.6257H9.27783V33.3343H51.1085V32.6257Z" fill="#D31245"/>
</g>
<defs>
<clipPath id="clip0_1772_9518">
<rect width="43" height="7" fill="white" transform="translate(9 27)"/>
</clipPath>
</defs>
</svg>
