<svg width="60" height="60" viewBox="0 0 60 60" fill="none" xmlns="http://www.w3.org/2000/svg">
<rect width="60" height="60" fill="#E51937"/>
<path d="M12.2588 42.6622H20.7134H12.2588Z" fill="black"/>
<path d="M12.2588 42.6622H20.7134" stroke="#A6DFF9" stroke-width="2.8" stroke-linecap="round"/>
<path d="M25.6082 42.6622H34.0627H25.6082Z" fill="black"/>
<path d="M25.6082 42.6622H34.0627" stroke="#93DAF8" stroke-width="2.8" stroke-linecap="round"/>
<path d="M38.9574 42.6622H47.412H38.9574Z" fill="black"/>
<path d="M38.9574 42.6622H47.412" stroke="#7ED4F7" stroke-width="2.8" stroke-linecap="round"/>
<path d="M23.2888 14.0028C21.5825 14.0028 19.8763 14.4188 18.2838 15.303C16.9408 16.1406 15.799 17.2201 14.9282 18.4754V14.5749H11.8V37.25H14.9282V27.6287C14.9282 24.7683 15.2694 22.688 15.8382 21.2838C16.3998 19.9675 17.3681 18.8291 18.625 18.0073C19.8763 17.2272 21.2413 16.8112 22.6632 16.8112C23.9144 16.8112 24.995 17.1232 25.9619 17.6953C26.8586 18.271 27.5349 19.0896 27.8957 20.0356C28.2369 21.0758 28.4076 22.896 28.4076 25.6524V37.25H31.5357V28.4088C31.5357 25.1323 31.82 22.792 32.3888 21.3878C32.9576 20.0356 33.9244 18.8915 35.1757 18.0593C36.4269 17.2272 37.7919 16.8112 39.3276 16.8112C40.5788 16.8112 41.6025 17.0712 42.5125 17.6433C43.4225 18.1634 44.0482 18.9435 44.4463 19.8276C44.8444 20.7637 45.0151 22.428 45.0151 24.8723V37.25H48.2001V24.9243C48.2001 22.1159 47.9157 19.9316 47.2901 18.5274C46.7238 17.1647 45.7078 15.9969 44.3829 15.1861C43.058 14.3753 41.4899 13.9617 39.8963 14.0028C38.1332 14.0028 36.4838 14.5229 34.8913 15.407C33.3557 16.3431 32.0476 17.6953 30.9669 19.4635C30.5119 18.1634 29.8863 17.1232 29.2607 16.3951C28.5508 15.6404 27.6537 15.052 26.6444 14.6789C25.5638 14.2108 24.4832 14.0028 23.2319 14.0028H23.2888Z" fill="white"/>
</svg>
