<svg width="60" height="60" viewBox="0 0 60 60" fill="none" xmlns="http://www.w3.org/2000/svg">
<rect width="60" height="60" fill="black"/>
<g clip-path="url(#clip0_1779_9215)">
<path d="M42.4633 26.4836C42.4633 26.4836 42.4633 30.6733 42.4633 30.6733C42.4633 30.8803 42.5664 31.0012 42.6726 31.0773C42.7865 31.1576 42.9537 31.1978 43.179 31.1978C43.3215 31.1978 43.5098 31.1482 43.5098 31.1482C43.5098 31.1482 43.5098 30.7725 43.5098 30.7725C43.4533 30.7762 43.4033 30.7796 43.3478 30.7796C43.0124 30.7796 42.9629 30.642 42.963 30.4889C42.963 30.4889 42.9629 26.4836 42.963 26.4836L42.4633 26.4836ZM31.9107 26.5261C31.5341 26.5261 31.1937 26.6501 30.952 26.8735C30.7172 27.0913 30.5874 27.392 30.5874 27.7171C30.5874 28.0751 30.7253 28.3548 31.0127 28.5749C31.2662 28.7692 31.6014 28.8947 31.9242 29.0144C32.4853 29.224 33.0112 29.4152 33.0112 29.9502C33.0112 30.1881 32.9341 30.392 32.7884 30.5315C32.6281 30.6848 32.3976 30.7583 32.093 30.7583C31.559 30.7583 31.1702 30.4479 30.952 29.8438C30.952 29.8438 30.4726 29.9785 30.4726 29.9785C30.5758 30.2235 30.7515 30.577 31.006 30.815C31.285 31.0779 31.6314 31.2049 32.066 31.2049C32.5806 31.2049 32.9712 31.0656 33.2272 30.7867C33.4926 30.4964 33.5513 30.1248 33.5513 29.8651C33.5513 29.4929 33.4015 29.2055 33.0989 28.979C32.8348 28.78 32.4931 28.6518 32.1605 28.5323C31.6186 28.3378 31.1015 28.1526 31.1072 27.6746C31.1092 27.4516 31.1828 27.2781 31.3165 27.157C31.4529 27.034 31.6472 26.9727 31.8972 26.9727C32.1598 26.9727 32.394 27.0498 32.5723 27.1996C32.7364 27.336 32.8557 27.5384 32.9099 27.7667C32.9099 27.7667 33.3758 27.7029 33.3758 27.7029C33.1714 26.9713 32.6719 26.5261 31.9107 26.5261ZM10.5555 26.5899V31.1411H11.0552V26.9798L11.0687 26.994L12.2569 31.1411H12.6418L13.8368 26.994L13.8435 26.9798V31.1411H14.3432V26.5899H13.5127L12.4527 30.2479V30.2621L12.446 30.2479L11.386 26.5899H10.5555ZM34.3412 26.6821V27.7738H33.8619V28.1921C33.8619 28.1921 34.3412 28.1921 34.3412 28.1921C34.3412 28.1921 34.3412 30.5314 34.3412 30.6733C34.3412 30.8803 34.431 31.0012 34.537 31.0773C34.6512 31.1576 34.8179 31.1978 35.0434 31.1978C35.1861 31.1978 35.381 31.1482 35.381 31.1482C35.381 31.1482 35.381 30.7725 35.381 30.7725C35.3255 30.7762 35.2674 30.7796 35.2122 30.7796C34.8764 30.7796 34.8408 30.642 34.8408 30.4889C34.8408 30.4889 34.8408 28.1921 34.8408 28.1921H35.381V27.7738H34.8408V26.6821H34.3412ZM16.3686 27.71C15.9479 27.71 15.5914 27.888 15.3424 28.2204C15.1113 28.5307 14.9846 28.9689 14.9846 29.4539C14.9846 29.9394 15.1113 30.3768 15.3424 30.6874C15.5914 31.0207 15.9479 31.1978 16.3686 31.1978C16.7911 31.1978 17.1465 31.0207 17.3949 30.6874C17.6259 30.3768 17.7527 29.9394 17.7527 29.4539C17.7527 28.9689 17.6259 28.5307 17.3949 28.2204C17.1465 27.888 16.7911 27.71 16.3686 27.71ZM45.191 27.7171C44.9774 27.7171 44.7789 27.7583 44.6103 27.8376C44.4454 27.9157 44.2989 28.0332 44.185 28.185C43.9584 28.4829 43.8272 28.9252 43.8272 29.461C43.8271 30.0574 43.9903 30.5124 44.2863 30.815C44.5984 31.1349 44.9961 31.1978 45.272 31.1978C45.9888 31.1978 46.3405 30.7906 46.4873 30.418C46.4873 30.418 46.0889 30.2125 46.0889 30.2125C45.9921 30.4393 45.7695 30.7867 45.272 30.7867C44.9876 30.7867 44.755 30.6644 44.5901 30.4393C44.4307 30.2215 44.3411 29.9199 44.3403 29.5603C44.3403 29.5603 46.5278 29.5603 46.5278 29.5603C46.5278 29.5603 46.5278 29.2412 46.5278 29.2412C46.5278 28.6902 46.388 28.2793 46.1294 28.029C45.9093 27.8164 45.6004 27.7171 45.191 27.7171ZM21.4863 27.7242C20.9226 27.7242 20.1225 28.1224 20.1225 29.461C20.1225 30.7607 20.9201 31.1978 21.4593 31.1978C21.774 31.1979 22.0599 31.0148 22.256 30.7512C22.256 30.7512 22.283 30.7371 22.283 30.7371C22.283 30.7371 22.283 31.3751 22.283 31.3751C22.283 31.8226 21.9141 32.0982 21.52 32.0982C21.1369 32.0982 20.7977 32.0214 20.5208 31.8855C20.5208 31.8855 20.5208 32.3392 20.5208 32.3392C20.754 32.4441 21.1335 32.5093 21.4593 32.5093C22.3462 32.5093 22.7691 31.9968 22.7691 31.2546C22.7691 31.2546 22.7691 27.788 22.7691 27.788H22.3978L22.2897 28.1424C22.1064 27.8917 21.8665 27.7242 21.4863 27.7242ZM24.7135 27.7242C24.0039 27.7242 23.668 28.1705 23.5253 28.4473L23.9236 28.667C23.9795 28.5089 24.1808 28.1424 24.7203 28.1424C25.1457 28.1424 25.3617 28.3396 25.3617 28.7308V28.8513C25.3617 28.8513 25.3652 28.888 25.3549 28.901C25.3391 28.9219 25.2943 28.939 25.1861 28.9506C24.5905 29.0204 24.1946 29.1231 23.9033 29.3192C23.5872 29.5326 23.3902 29.8313 23.3902 30.2408C23.3902 30.5317 23.5244 30.78 23.7008 30.9568C23.8649 31.1197 24.0884 31.2044 24.3354 31.212C24.8613 31.2297 25.2075 30.9999 25.3752 30.73C25.3882 30.9154 25.4515 31.0214 25.5912 31.0986C25.7225 31.1722 25.9377 31.1576 26.0301 31.134C26.0301 31.134 26.0301 30.7796 26.0301 30.7796C25.9187 30.7737 25.8478 30.7181 25.8478 30.574C25.8478 30.574 25.8478 28.9506 25.8478 28.9506C25.8478 28.9506 25.8478 28.7379 25.8478 28.7379C25.8478 28.4029 25.7226 28.1281 25.4832 27.951C25.2859 27.804 25.0101 27.7242 24.7135 27.7242ZM28.1501 27.7242C27.8249 27.7242 27.4921 27.901 27.2116 28.2346V27.788H26.712V31.1482H27.2116C27.2116 31.1482 27.2116 28.6529 27.2116 28.6529C27.3816 28.4621 27.7627 28.1424 28.1096 28.1424C28.4573 28.1424 28.6092 28.3215 28.6092 28.7237C28.6092 28.7237 28.6092 31.1482 28.6092 31.1482H29.1088V28.7096C29.1088 27.9836 28.6171 27.7242 28.1501 27.7242ZM37.1904 27.7242C36.4812 27.7242 36.1453 28.1705 36.0021 28.4473C36.0021 28.4473 36.4005 28.667 36.4005 28.667C36.4566 28.5089 36.6576 28.1424 37.1971 28.1424C37.6225 28.1424 37.8385 28.3396 37.8385 28.7308C37.8385 28.7308 37.8385 28.8513 37.8385 28.8513C37.8385 28.8513 37.8351 28.888 37.825 28.901C37.8094 28.9219 37.7716 28.939 37.663 28.9506C37.0673 29.0203 36.6714 29.1231 36.3802 29.3192C36.0642 29.5326 35.8671 29.8313 35.8671 30.2408C35.8671 30.5317 36.001 30.7798 36.1777 30.9568C36.3417 31.1197 36.5655 31.2044 36.8123 31.212C37.3378 31.2297 37.6844 30.9999 37.852 30.73C37.8653 30.9154 37.9281 31.0214 38.0681 31.0986C38.1991 31.1722 38.4144 31.1576 38.5069 31.134C38.5069 31.134 38.5069 30.7796 38.5069 30.7796C38.3958 30.7737 38.3246 30.7181 38.3246 30.574C38.3246 30.574 38.3246 28.9506 38.3246 28.9506C38.3246 28.9506 38.3246 28.7379 38.3246 28.7379C38.3246 28.4029 38.1929 28.1281 37.9533 27.951C37.7558 27.804 37.4867 27.7242 37.1904 27.7242ZM40.6269 27.7242C40.3009 27.7242 39.969 27.901 39.6885 28.2346V27.788H39.1888V31.1482H39.6885C39.6885 31.1482 39.6885 28.6529 39.6885 28.6529C39.8587 28.462 40.2391 28.1424 40.5864 28.1424C40.9335 28.1424 41.086 28.3215 41.086 28.7237V31.1482H41.5856V28.7096C41.5856 27.9836 41.0939 27.7242 40.6269 27.7242ZM19.9334 27.7384C19.4265 27.7384 19.1261 27.9447 18.8667 28.4331V28.3976V27.788H18.3671V31.1411H18.8667C18.8667 31.1411 18.8667 29.2412 18.8667 29.2412C18.99 28.5511 19.338 28.2275 19.9334 28.2275V27.7384ZM46.8653 27.7809L47.9794 31.1128C47.9793 31.1128 47.9794 31.1411 47.9794 31.1411C47.9128 31.4605 47.7203 31.8547 47.5473 31.9777C47.3945 32.0865 47.229 32.0982 47.1017 32.0982C47.0402 32.0982 46.9132 32.0764 46.8586 32.0627C46.8586 32.0627 46.8586 32.4668 46.8586 32.4668C46.9277 32.4846 47.0872 32.5164 47.1894 32.5164C47.4275 32.5164 47.6283 32.4538 47.7971 32.325C47.9991 32.1708 48.2229 31.7689 48.3304 31.4247C48.3304 31.4247 49.4444 27.7809 49.4444 27.7809H48.9583L48.2292 30.3613L48.2224 30.418L48.2089 30.3613L47.3515 27.7809H46.8653ZM16.3686 28.1283C16.9065 28.1283 17.2261 28.624 17.2261 29.4539C17.2261 30.2841 16.9065 30.7796 16.3686 30.7796C15.8316 30.7796 15.5112 30.2841 15.5112 29.4539C15.5112 28.624 15.8316 28.1283 16.3686 28.1283ZM21.52 28.1353C21.8019 28.1353 22.0494 28.2632 22.283 28.5678C22.283 28.5678 22.283 30.1699 22.283 30.1699C22.1537 30.5564 21.7833 30.7796 21.52 30.7796C21.0048 30.7796 20.6491 30.4427 20.6491 29.4327C20.6491 28.5833 20.9683 28.1353 21.52 28.1353ZM45.2045 28.1353C45.7769 28.1353 46.0328 28.4532 46.0349 29.142C46.0349 29.142 44.3538 29.142 44.3538 29.142C44.3973 28.4537 44.672 28.1353 45.2045 28.1353ZM25.3752 29.3192C25.3752 29.3192 25.3752 30.1699 25.3752 30.1699C25.3521 30.4636 24.8294 30.8191 24.403 30.7938C24.1677 30.7802 23.9409 30.5813 23.9168 30.255C23.8778 29.7098 24.268 29.4834 25.1389 29.383C25.1995 29.3772 25.3167 29.3546 25.3752 29.3192ZM37.852 29.3192V30.1699C37.829 30.4635 37.3063 30.8191 36.8798 30.7938C36.6449 30.7801 36.4171 30.5812 36.3937 30.255C36.354 29.7098 36.7446 29.4834 37.6157 29.383C37.6759 29.3772 37.794 29.3546 37.852 29.3192Z" fill="white"/>
</g>
<defs>
<clipPath id="clip0_1779_9215">
<rect width="40" height="7" fill="white" transform="translate(10 26)"/>
</clipPath>
</defs>
</svg>
