<svg width="60" height="60" viewBox="0 0 60 60" fill="none" xmlns="http://www.w3.org/2000/svg">
<rect width="60" height="60" fill="#1226AA"/>
<path d="M43.7971 43.4678C43.7234 43.4678 43.6497 43.4501 43.5945 43.3969L16.9914 17.7722C16.8808 17.6658 16.8808 17.5062 16.9914 17.3998C17.1019 17.2934 17.2677 17.2934 17.3782 17.3998L43.9998 43.0245C44.1103 43.1309 44.1103 43.2905 43.9998 43.3969C43.9445 43.4323 43.8708 43.4678 43.7971 43.4678Z" fill="white"/>
<path d="M17.2124 43.4855C17.1387 43.4855 17.0651 43.4678 17.0098 43.4146C16.8992 43.3082 16.8992 43.1486 17.0098 43.0422L43.6313 17.4353C43.7419 17.3289 43.9077 17.3289 44.0182 17.4353C44.1287 17.5417 44.1287 17.7013 44.0182 17.8077L17.4151 43.4146C17.3598 43.4678 17.2861 43.4855 17.2124 43.4855Z" fill="white"/>
<path d="M30.5509 48.7878C30.4035 48.7878 30.2745 48.6637 30.2745 48.5218V12.2749C30.2745 12.133 30.4035 12.0089 30.5509 12.0089C30.6983 12.0089 30.8272 12.133 30.8272 12.2749V48.5218C30.8272 48.6637 30.6983 48.7878 30.5509 48.7878Z" fill="white"/>
<path d="M49.3794 30.6643H11.704C11.5566 30.6643 11.4276 30.5402 11.4276 30.3983C11.4276 30.2565 11.5566 30.1323 11.704 30.1323H49.361C49.5084 30.1323 49.6373 30.2565 49.6373 30.3983C49.6373 30.5402 49.5268 30.6643 49.3794 30.6643Z" fill="white"/>
<path d="M46.8186 21.6026H14.1174C13.97 21.6026 13.8411 21.4785 13.8411 21.3366C13.8411 21.1947 13.97 21.0706 14.1174 21.0706H46.8186C46.966 21.0706 47.095 21.1947 47.095 21.3366C47.095 21.4785 46.966 21.6026 46.8186 21.6026Z" fill="white"/>
<path d="M46.7818 39.7261H14.1174C13.97 39.7261 13.8411 39.6019 13.8411 39.4601C13.8411 39.3182 13.97 39.1941 14.1174 39.1941H46.7818C46.9291 39.1941 47.0581 39.3182 47.0581 39.4601C47.0581 39.6019 46.9476 39.7261 46.7818 39.7261Z" fill="white"/>
<path d="M30.5509 48.7878C30.4035 48.7878 30.2745 48.6637 30.2745 48.5218V12.2749C30.2745 12.133 30.4035 12.0089 30.5509 12.0089C30.6983 12.0089 30.8272 12.133 30.8272 12.2749V48.5218C30.8272 48.6637 30.6983 48.7878 30.5509 48.7878Z" fill="white"/>
<path d="M21.1366 46.3051C20.9892 46.3051 20.8602 46.181 20.8602 46.0391V14.6689C20.8602 14.527 20.9892 14.4029 21.1366 14.4029C21.284 14.4029 21.4129 14.527 21.4129 14.6689V46.0391C21.4129 46.1987 21.284 46.3051 21.1366 46.3051Z" fill="white"/>
<path d="M39.9652 46.3051C39.8178 46.3051 39.6888 46.181 39.6888 46.0391V14.7221C39.6888 14.5802 39.8178 14.4561 39.9652 14.4561C40.1126 14.4561 40.2415 14.5802 40.2415 14.7221V46.0391C40.2415 46.1987 40.1126 46.3051 39.9652 46.3051Z" fill="white"/>
<path d="M49.3793 30.6643C49.3056 30.6643 49.2319 30.6466 49.1767 30.5934L30.3482 12.4522C30.2376 12.3458 30.2376 12.1862 30.3482 12.0798C30.4587 11.9734 30.6245 11.9734 30.735 12.0798L49.5636 30.2033C49.6741 30.3097 49.6741 30.4693 49.5636 30.5757C49.5083 30.6289 49.453 30.6643 49.3793 30.6643Z" fill="white"/>
<path d="M30.5508 48.7878C30.4771 48.7878 30.4035 48.7701 30.3482 48.7169L11.5197 30.5934C11.4091 30.487 11.4091 30.3274 11.5197 30.221C11.6302 30.1146 11.796 30.1146 11.9066 30.221L30.7351 48.3445C30.8456 48.4509 30.8456 48.6105 30.7351 48.7169C30.6798 48.7701 30.6061 48.7878 30.5508 48.7878Z" fill="white"/>
<path d="M30.5508 48.7878C30.4771 48.7878 30.4034 48.7701 30.3482 48.7169C30.2376 48.6105 30.2376 48.4509 30.3482 48.3445L49.1767 30.221C49.2872 30.1146 49.453 30.1146 49.5636 30.221C49.6741 30.3274 49.6741 30.487 49.5636 30.5934L30.735 48.7169C30.6798 48.7701 30.6061 48.7878 30.5508 48.7878Z" fill="white"/>
<path d="M11.7039 30.6643C11.6302 30.6643 11.5565 30.6466 11.5012 30.5934C11.3907 30.487 11.3907 30.3274 11.5012 30.221L30.3482 12.0798C30.4587 11.9734 30.6245 11.9734 30.7351 12.0798C30.8456 12.1862 30.8456 12.3458 30.7351 12.4522L11.9066 30.5934C11.8513 30.6289 11.7776 30.6643 11.7039 30.6643Z" fill="white"/>
<path d="M30.4956 48.7701C19.9575 48.7701 11.3907 40.5241 11.3907 30.3983C11.3907 20.2549 19.9575 12.0266 30.4956 12.0266C41.0337 12.0266 49.6005 20.2726 49.6005 30.3983C49.6005 40.5241 41.0337 48.7701 30.4956 48.7701ZM30.4956 12.5409C20.2707 12.5409 11.9434 20.5563 11.9434 30.3806C11.9434 40.2226 20.2707 48.2203 30.4956 48.2203C40.7205 48.2203 49.0478 40.2226 49.0478 30.3806C49.0478 20.5386 40.7205 12.5409 30.4956 12.5409Z" fill="white"/>
<path d="M32.1169 30.3806C32.1169 31.2318 31.3984 31.9234 30.5141 31.9234C29.6298 31.9234 28.9113 31.2318 28.9113 30.3806C28.9113 29.5294 29.6298 28.8378 30.5141 28.8378C31.4168 28.8555 32.1169 29.5294 32.1169 30.3806Z" fill="white"/>
<path d="M31.73 39.4601C31.73 40.0985 31.1957 40.595 30.5509 40.595C29.9061 40.595 29.3718 40.0807 29.3718 39.4601C29.3718 38.8394 29.9061 38.3251 30.5509 38.3251C31.1957 38.3251 31.73 38.8217 31.73 39.4601Z" fill="white"/>
<path d="M22.3157 21.3366C22.3157 21.9573 21.7814 22.4716 21.1366 22.4716C20.4918 22.4716 19.9575 21.9573 19.9575 21.3366C19.9575 20.6982 20.4918 20.2017 21.1366 20.2017C21.7814 20.2017 22.3157 20.6982 22.3157 21.3366Z" fill="white"/>
<path d="M22.7211 39.4601C22.7211 40.3113 22.0025 41.0029 21.1182 41.0029C20.2339 41.0029 19.5154 40.3113 19.5154 39.4601C19.5154 38.6089 20.2339 37.9173 21.1182 37.9173C22.021 37.9173 22.7211 38.6089 22.7211 39.4601Z" fill="white"/>
<path d="M50.5585 30.3983C50.5585 31.019 50.0242 31.5333 49.3794 31.5333C48.7346 31.5333 48.2003 31.019 48.2003 30.3983C48.2003 29.7599 48.7346 29.2634 49.3794 29.2634C50.0242 29.2634 50.5585 29.7599 50.5585 30.3983Z" fill="white"/>
<path d="M31.73 48.5218C31.73 49.1425 31.1957 49.6567 30.5509 49.6567C29.9061 49.6567 29.3718 49.1425 29.3718 48.5218C29.3718 47.9011 29.9061 47.3869 30.5509 47.3869C31.1957 47.3869 31.73 47.9011 31.73 48.5218Z" fill="white"/>
<path d="M41.5496 46.0391C41.5496 46.8903 40.831 47.582 39.9467 47.582C39.0624 47.582 38.3439 46.8903 38.3439 46.0391C38.3439 45.1879 39.0624 44.4963 39.9467 44.4963C40.8495 44.5141 41.5496 45.1879 41.5496 46.0391Z" fill="white"/>
<path d="M15.2965 39.4601C15.2965 40.0985 14.7623 40.595 14.1174 40.595C13.4726 40.595 12.9384 40.0807 12.9384 39.4601C12.9384 38.8394 13.4726 38.3251 14.1174 38.3251C14.7623 38.3251 15.2965 38.8217 15.2965 39.4601Z" fill="white"/>
<path d="M41.5496 14.7221C41.5496 15.5733 40.831 16.2649 39.9467 16.2649C39.0624 16.2649 38.3439 15.5733 38.3439 14.7221C38.3439 13.8709 39.0624 13.1793 39.9467 13.1793C40.8495 13.1793 41.5496 13.8709 41.5496 14.7221Z" fill="white"/>
<path d="M15.7018 21.3543C15.7018 22.2056 14.9833 22.8972 14.0989 22.8972C13.2146 22.8972 12.4961 22.2056 12.4961 21.3543C12.4961 20.5031 13.2146 19.8115 14.0989 19.8115C15.0017 19.8293 15.7018 20.5209 15.7018 21.3543Z" fill="white"/>
<path d="M47.9977 21.3366C47.9977 21.9573 47.4634 22.4716 46.8186 22.4716C46.1738 22.4716 45.6395 21.9573 45.6395 21.3366C45.6395 20.6982 46.1738 20.2017 46.8186 20.2017C47.4634 20.2017 47.9977 20.6982 47.9977 21.3366Z" fill="white"/>
<path d="M41.1442 30.4161C41.1442 31.0545 40.6099 31.551 39.9651 31.551C39.3203 31.551 38.786 31.0367 38.786 30.4161C38.786 29.7954 39.3203 29.2811 39.9651 29.2811C40.6099 29.2811 41.1442 29.7777 41.1442 30.4161Z" fill="white"/>
<path d="M18.3732 17.5771C18.3732 18.1978 17.8389 18.7121 17.1941 18.7121C16.5493 18.7121 16.015 18.1978 16.015 17.5771C16.015 16.9565 16.5493 16.4422 17.1941 16.4422C17.8389 16.4422 18.3732 16.9565 18.3732 17.5771Z" fill="white"/>
<path d="M22.3152 14.7226C22.3152 15.3433 21.7809 15.8575 21.1361 15.8575C20.4913 15.8575 19.957 15.3433 19.957 14.7226C19.957 14.0842 20.4913 13.5876 21.1361 13.5876C21.7809 13.5876 22.3152 14.1019 22.3152 14.7226Z" fill="white"/>
</svg>
