<svg width="60" height="60" viewBox="0 0 60 60" fill="none" xmlns="http://www.w3.org/2000/svg">
<rect width="60" height="60" fill="#FF3333"/>
<g clip-path="url(#clip0_168_561)">
<path fill-rule="evenodd" clip-rule="evenodd" d="M38.6344 33.3318C38.2115 34.8219 39.2663 35.9947 40.793 35.9947H45.7679C46.7221 35.9947 47.9007 35.069 48.1844 34.1354L48.6692 32.4269H45.6725L45.5126 32.921C45.4223 33.2148 45.2186 33.3578 44.8807 33.3578H42.3817C41.9742 33.3578 41.8582 33.1264 41.9433 32.8091L43.2353 28.2583C43.3359 27.8995 43.5293 27.6316 43.9368 27.6316H46.5132C46.8588 27.6316 46.9774 27.7746 46.8949 28.0737L46.7066 28.7576H49.7034L49.8943 28.0685C50.3533 26.542 49.2211 25.0051 47.6402 25.0051H43.029C42.735 25.0051 42.4436 25.0519 42.1676 25.1482C41.8943 25.2366 41.6338 25.3744 41.3991 25.5538C41.1696 25.7307 40.9658 25.9413 40.8008 26.1831C40.6383 26.4276 40.5119 26.6954 40.4294 26.9789L38.6344 33.3318ZM37.8143 32.1954C38.2734 30.669 37.1412 29.1269 35.5603 29.1269H32.5377C32.138 29.1217 32.0374 28.859 32.1225 28.5756L32.2308 28.1855C32.3237 27.8943 32.5326 27.6264 32.8988 27.6316H38.3843L39.5732 25.0051H31.9239C30.5235 25.0701 29.6003 26.0583 29.3553 27.1739L28.8085 29.0801V29.0905C28.3856 30.5805 29.4378 31.7534 30.9671 31.7534L31.078 31.7586H34.2708C34.5313 31.7586 34.7299 31.8522 34.6318 32.1954L34.4281 32.9158C34.3275 33.2538 34.1032 33.3578 33.8272 33.3682H27.8723L27.1322 35.9947H34.8665C35.8156 35.9791 36.989 35.0638 37.2676 34.1432L37.8143 32.1954ZM24.6202 28.1205L22.392 35.9947H25.6441L28.7544 25.0051H23.0445L19.4855 31.02L19.9497 25.0051H14.7066L10 35.9947H13.2237L16.7518 28.1205L16.2205 35.9947H19.4958L24.6202 28.1205Z" fill="white"/>
</g>
<defs>
<clipPath id="clip0_168_561">
<rect width="40" height="11" fill="white" transform="translate(10 25)"/>
</clipPath>
</defs>
</svg>
