<svg width="60" height="60" viewBox="0 0 60 60" fill="none" xmlns="http://www.w3.org/2000/svg">
<rect width="60" height="60" fill="#0163A0"/>
<g clip-path="url(#clip0_168_464)">
<path d="M26.2282 24.9756C26.2402 24.3961 26.1441 23.8225 25.9639 23.2848C27.0931 24.2766 28.6186 24.874 30.3003 24.874C32.018 24.874 33.5676 24.2407 34.7087 23.2131C34.4564 23.8584 34.3123 24.5275 34.3123 25.2444C34.3291 26.3291 34.6523 27.3872 35.2449 28.2979C35.8375 29.2085 36.6757 29.935 37.6636 30.3944C36.7535 30.8774 35.9903 31.5945 35.4536 32.4709C34.917 33.3473 34.6265 34.3509 34.6126 35.377C34.6126 36.0939 34.7567 36.787 35.009 37.4322C34.3973 36.8069 33.6649 36.311 32.8557 35.9742C32.0466 35.6375 31.1774 35.4669 30.3003 35.4726C28.4264 35.4726 26.7447 36.2254 25.5916 37.4322C25.8438 36.7989 25.988 36.1059 25.988 35.377C25.9725 34.2966 25.6524 33.2423 25.0642 32.3339C24.4759 31.4256 23.6432 30.6997 22.6606 30.239C23.7042 29.8038 24.598 29.0763 25.2336 28.1451C25.8691 27.2138 26.2188 26.1189 26.2402 24.9935L26.2282 24.9756Z" fill="#606365"/>
<path d="M36.2943 15.9423C36.3317 16.7485 36.2046 17.5539 35.9206 18.3098C35.6365 19.0658 35.2015 19.7567 34.6416 20.3408C34.0818 20.9249 33.4088 21.3902 32.6632 21.7084C31.9177 22.0267 31.115 22.1914 30.3037 22.1926C29.4924 22.1938 28.6892 22.0315 27.9427 21.7155C27.1962 21.3994 26.5218 20.9362 25.9602 20.3538C25.3986 19.7713 24.9614 19.0818 24.6751 18.3266C24.3888 17.5715 24.2592 16.7665 24.2943 15.9602C24.2943 14.3757 24.927 12.8561 26.0534 11.7357C27.1797 10.6153 28.7074 9.98584 30.3003 9.98584C31.8932 9.98584 33.4208 10.6153 34.5472 11.7357C35.6735 12.8561 36.3063 14.3757 36.3063 15.9602L36.2943 15.9423ZM17.0871 29.1039C18.68 29.1039 20.2076 28.4745 21.3339 27.354C22.4603 26.2336 23.0931 24.714 23.0931 23.1295C23.0931 21.545 22.4603 20.0254 21.3339 18.905C20.2076 17.7846 18.68 17.1551 17.0871 17.1551C15.4942 17.1551 13.9665 17.7846 12.8402 18.905C11.7138 20.0254 11.0811 21.545 11.0811 23.1295C11.0811 24.714 11.7138 26.2336 12.8402 27.354C13.9665 28.4745 15.4942 29.1039 17.0871 29.1039ZM17.0871 43.4425C18.68 43.4425 20.2076 42.813 21.3339 41.6926C22.4603 40.5722 23.0931 39.0526 23.0931 37.4681C23.0931 35.8836 22.4603 34.3639 21.3339 33.2435C20.2076 32.1231 18.68 31.4937 17.0871 31.4937C15.4942 31.4937 13.9665 32.1231 12.8402 33.2435C11.7138 34.3639 11.0811 35.8836 11.0811 37.4681C11.0811 39.0526 11.7138 40.5722 12.8402 41.6926C13.9665 42.813 15.4942 43.4425 17.0871 43.4425ZM49.5195 23.1295C49.5195 24.714 48.8867 26.2336 47.7604 27.354C46.634 28.4745 45.1064 29.1039 43.5135 29.1039C41.9206 29.1039 40.3929 28.4745 39.2666 27.354C38.1403 26.2336 37.5075 24.714 37.5075 23.1295C37.5075 21.545 38.1403 20.0254 39.2666 18.905C40.3929 17.7846 41.9206 17.1551 43.5135 17.1551C45.1064 17.1551 46.634 17.7846 47.7604 18.905C48.8867 20.0254 49.5195 21.545 49.5195 23.1295ZM43.5135 43.4425C45.1064 43.4425 46.634 42.813 47.7604 41.6926C48.8867 40.5722 49.5195 39.0526 49.5195 37.4681C49.5195 35.8836 48.8867 34.3639 47.7604 33.2435C46.634 32.1231 45.1064 31.4937 43.5135 31.4937C41.9206 31.4937 40.3929 32.1231 39.2666 33.2435C38.1403 34.3639 37.5075 35.8836 37.5075 37.4681C37.5075 39.0526 38.1403 40.5722 39.2666 41.6926C40.3929 42.813 41.9206 43.4425 43.5135 43.4425ZM30.3003 50.6117C31.8932 50.6117 33.4208 49.9823 34.5472 48.8619C35.6735 47.7415 36.3063 46.2218 36.3063 44.6373C36.3063 43.0528 35.6735 41.5332 34.5472 40.4128C33.4208 39.2924 31.8932 38.6629 30.3003 38.6629C28.7074 38.6629 27.1797 39.2924 26.0534 40.4128C24.927 41.5332 24.2943 43.0528 24.2943 44.6373C24.2943 46.2218 24.927 47.7415 26.0534 48.8619C27.1797 49.9823 28.7074 50.6117 30.3003 50.6117Z" fill="white"/>
</g>
<defs>
<clipPath id="clip0_168_464">
<rect width="39" height="42" fill="white" transform="translate(11 9)"/>
</clipPath>
</defs>
</svg>
