<svg width="60" height="60" viewBox="0 0 60 60" fill="none" xmlns="http://www.w3.org/2000/svg">
<rect width="60" height="60" fill="white"/>
<path d="M49.3841 41.0656V13.0985H10.5957V46.2104C10.5957 46.2104 14.0513 42.9795 18.8038 42.6626C25.5972 42.2098 28.4064 45.5683 34.8501 46.6796C42.733 48.0378 47.8839 43.1359 49.0873 41.7159C49.3841 41.3496 49.3353 41.2549 49.3719 41.1726L49.3841 41.0656Z" fill="#3D90C3"/>
<path d="M14.2587 40.2096C15.5596 39.5182 16.7142 39.1642 19.4543 39.0037C26.0688 38.6168 28.5365 41.1028 34.7973 42.0823C39.7124 42.8561 42.4851 41.7448 44.5788 40.3866C45.6886 39.6663 45.3959 39.8557 45.9773 39.3659C46.4936 38.9296 46.6196 38.625 46.5424 38.3246C46.522 38.2299 46.4245 38.2299 46.2375 38.3575C46.0911 38.4522 45.8065 38.6456 45.8065 38.6456C40.8833 42.1235 34.4314 40.0779 28.7927 38.2875C23.5442 36.6206 17.1045 37.3532 14.1855 39.4564C14.1855 39.4564 13.84 39.6828 13.596 40.0615C13.5147 40.1849 13.3277 40.6953 13.5595 40.5883C13.8237 40.4607 14.0432 40.3084 14.2587 40.2096ZM21.918 31.554L16.3402 24.1373V31.554H13.8359V19.8938H16.1735L21.5724 27.0719V19.8938H24.0767V31.554H21.918Z" fill="white"/>
<path d="M31.6262 31.7474C28.2356 31.7474 25.7191 29.1009 25.7191 25.7506V25.7136C25.7191 22.4003 28.1868 19.6839 31.7238 19.6839C33.8947 19.6839 35.1957 20.4165 36.2689 21.4825L34.655 23.3675C33.7646 22.5485 32.858 22.0505 31.7075 22.0505C29.7683 22.0505 28.3738 23.6844 28.3738 25.6806V25.7136C28.3738 27.7139 29.7317 29.3808 31.7075 29.3808C33.0247 29.3808 33.8297 28.8498 34.7363 28.0143L36.3502 29.6648C35.1631 30.9489 33.8459 31.7474 31.6262 31.7474ZM38.0252 31.5457V19.8814H40.562V29.212H46.3065V31.5457H38.0252Z" fill="white"/>
</svg>
