<svg width="60" height="60" viewBox="0 0 60 60" fill="none" xmlns="http://www.w3.org/2000/svg">
<rect width="60" height="60" fill="#0996C7"/>
<g clip-path="url(#clip0_168_407)">
<mask id="mask0_168_407" style="mask-type:luminance" maskUnits="userSpaceOnUse" x="29" y="12" width="22" height="27">
<path d="M29.6628 12.0128H50.9999V38.2998H29.6628V12.0128Z" fill="white"/>
</mask>
<g mask="url(#mask0_168_407)">
<path d="M40.736 12.0128L31.7128 37.0135C31.6012 37.3213 31.4059 37.5913 31.1493 37.7924C30.8927 37.9935 30.5852 38.1177 30.2618 38.1508V38.1627H39.8003C40.5471 38.1627 41.1864 37.6838 41.4243 37.0143L50.4507 12.0128H40.736Z" fill="white"/>
</g>
<path d="M29.4836 37.7834C30.0368 37.7834 30.5212 37.506 30.8175 37.086C30.8484 37.0422 30.9566 36.8892 31.0333 36.6812L34.3429 27.5065L32.4067 22.1485C32.294 21.8772 32.1113 21.6412 31.8777 21.4651C31.644 21.2889 31.3679 21.1789 31.078 21.1466C30.788 21.1142 30.4948 21.1607 30.2286 21.2811C29.9624 21.4015 29.733 21.5915 29.5642 21.8313C29.5326 21.8752 29.4038 22.0704 29.3484 22.2362L26.0388 31.4077L27.9837 36.7872C28.1098 37.0828 28.3191 37.3348 28.5857 37.5118C28.8522 37.6889 29.1644 37.7833 29.4836 37.7834Z" fill="white"/>
<mask id="mask1_168_407" style="mask-type:luminance" maskUnits="userSpaceOnUse" x="9" y="19" width="22" height="28">
<path d="M9.11609 19.9697H30.4532V46.9046H9.11609V19.9697Z" fill="white"/>
</mask>
<g mask="url(#mask1_168_407)">
<path d="M30.1908 20.7539H20.5472C19.8004 20.7539 19.1611 21.2304 18.9201 21.9031L9.89685 46.9038H19.6115L28.6355 21.9039C28.7526 21.5786 28.963 21.2959 29.24 21.0916C29.517 20.8874 29.8479 20.7709 30.1908 20.757V20.7539Z" fill="white"/>
</g>
</g>
<defs>
<clipPath id="clip0_168_407">
<rect width="42" height="35" fill="white" transform="translate(9 12)"/>
</clipPath>
</defs>
</svg>
