<svg width="60" height="60" viewBox="0 0 60 60" fill="none" xmlns="http://www.w3.org/2000/svg">
<rect width="60" height="60" fill="white"/>
<g clip-path="url(#clip0_147_227)">
<path d="M37.673 39.7777C38.7984 37.1117 37.2638 35.8812 35.7292 35.8812L20.5878 35.6762C20.1786 35.6762 20.1786 35.0609 20.6901 34.9584L36.0361 34.7533C37.7753 34.6508 39.8214 33.2152 40.4353 31.3695C40.4353 31.3695 41.4583 29.2162 41.356 28.9086C40.9131 26.7668 39.7782 24.8311 38.1269 23.4011C36.4756 21.971 34.4001 21.1264 32.2215 20.998C30.043 20.8696 27.8829 21.4644 26.0758 22.6906C24.2686 23.9167 22.9151 25.7057 22.2247 27.7807C18.3371 25.2172 14.2448 28.7035 15.1655 32.4975C10.2548 32.8051 8.51562 37.2143 9.02716 39.8803C9.02716 39.9828 9.12946 40.0854 9.33408 40.0854H37.3661C37.4684 40.0854 37.673 39.9828 37.673 39.7777Z" fill="#F38020"/>
<path d="M42.7883 29.3188C42.3791 29.3188 42.1745 29.2162 42.0722 29.4213L41.5606 31.5746C41.0491 33.2152 41.8676 34.6508 43.6068 34.7533L46.8806 34.9584C47.2898 34.9584 47.2898 35.5736 46.7783 35.6762L43.4022 35.7787C39.7191 36.1889 38.6961 39.7777 38.6961 39.7777C38.6961 39.9828 38.6961 40.0854 38.9007 40.0854H50.4613L50.7682 39.8803C51.1161 38.6449 51.1735 37.3454 50.936 36.084C50.6984 34.8226 50.1724 33.6336 49.3992 32.6102C48.626 31.5869 47.6267 30.7571 46.4796 30.186C45.3326 29.6149 44.0691 29.318 42.7883 29.3188Z" fill="#FAAE40"/>
</g>
<defs>
<clipPath id="clip0_147_227">
<rect width="44" height="21" fill="white" transform="translate(8 20)"/>
</clipPath>
</defs>
</svg>
