<svg width="60" height="60" viewBox="0 0 60 60" fill="none" xmlns="http://www.w3.org/2000/svg">
<rect width="60" height="60" fill="#B90E2B"/>
<g clip-path="url(#clip0_2190_9785)">
<path d="M47.3137 24.0202H12.6835C12.8207 23.8787 12.9622 23.7389 13.1079 23.6008H46.8919C47.0359 23.7389 47.1765 23.8787 47.3137 24.0202ZM46.0761 22.8859H13.9211C14.099 22.7427 14.2811 22.6029 14.4675 22.4665H45.5323C45.7178 22.6029 45.9008 22.7419 46.0761 22.8859ZM49.5221 27.4282H10.4751C10.5285 27.2893 10.5793 27.1478 10.6377 27.0088H49.3595C49.4179 27.1478 49.4713 27.2893 49.5221 27.4282ZM35.0139 18.4017H24.9834C26.5869 18.1541 28.2667 18.0227 29.9999 18.0227C31.7305 18.0227 33.4128 18.1541 35.0139 18.4017ZM39.5551 19.4779H20.4421C20.9071 19.3263 21.3849 19.1874 21.8703 19.0585H38.1269C38.6123 19.1874 39.0901 19.3263 39.5551 19.4779ZM44.4802 21.7491H15.5196C15.7457 21.6076 15.9795 21.4661 16.2184 21.3297H43.7788C44.0177 21.4661 44.2515 21.6059 44.4802 21.7491ZM49.0062 26.2939H10.991C11.0672 26.1524 11.1435 26.0135 11.2299 25.8745H48.7673C48.8512 26.0109 48.93 26.1524 49.0062 26.2939ZM42.4065 20.6147H17.5907C17.8957 20.4682 18.2083 20.3276 18.5285 20.1928H41.4687C41.7873 20.3276 42.0998 20.4682 42.4065 20.6147ZM48.2794 25.1571H11.7178C11.8245 25.0156 11.9287 24.8766 12.0431 24.7377H47.9541C48.0685 24.8766 48.1752 25.0156 48.2794 25.1571Z" fill="white"/>
<path d="M47.6646 32.6476C48.1881 32.8067 48.7167 33.0594 49.1792 33.4004C48.8667 34.0396 48.4702 34.6585 47.9925 35.2472C47.1005 34.8328 46.5185 33.7844 45.6341 33.3095C44.8921 32.9078 44.0153 32.6173 43.5045 31.7962C42.8946 30.6998 41.6392 30.6998 40.9124 29.7347C40.516 29.2674 40.1043 28.7368 39.5274 28.5752C39.3775 28.56 39.1792 28.5272 39.0979 28.656C39.1792 28.9768 39.5757 29.2042 39.7409 29.4771C40.2695 30.5886 41.4588 31.0535 42.3152 31.8745C42.826 32.4379 42.9937 33.1655 43.6519 33.6455C44.3482 34.2114 45.2047 34.4842 45.7663 35.2573C46.0433 35.6893 46.394 36.1566 46.8412 36.475C46.3152 36.9651 45.7358 37.4324 45.1005 37.8695C44.4067 37.3617 43.5045 37.0131 43.2072 36.144C42.9937 35.3204 42.15 34.7571 41.441 34.3402C40.516 33.7768 40.516 32.779 39.7891 32.1019C38.9988 31.4577 38.2237 30.7175 37.8425 29.8636C37.4461 29.3634 36.9683 28.8177 36.3889 28.5928C36.2593 28.56 36.0763 28.5423 35.995 28.656L36.0433 28.8808C36.5897 29.6691 37.0013 30.523 37.7612 31.2152C38.948 32.0867 39.1462 33.3903 39.7739 34.5171C40.4016 35.5781 41.7714 36.1112 42.1678 37.2707C42.3432 37.9099 42.8006 38.4758 43.3038 38.9634C42.4499 39.4206 41.5299 39.835 40.5515 40.2013C40.056 39.547 40.1094 38.6577 39.6748 37.9781C39.2631 36.9954 38.1551 36.336 37.7612 35.3533C37.347 34.2745 37.2148 33.0846 36.3736 32.1827C35.1182 31.152 35.1691 29.5251 33.7815 28.6232C33.6494 28.56 33.4689 28.5423 33.319 28.5752C33.2199 28.6232 33.2707 28.7192 33.3038 28.7848L34.211 30.9752C34.6252 31.8594 35.6799 32.4707 35.8628 33.4383C36.2263 34.5474 36.2923 35.7726 37.0344 36.7377C37.8603 37.6724 38.0407 38.8472 38.2567 40.0396C38.3584 40.3099 38.488 40.5802 38.6176 40.8379C37.7637 41.0855 36.8768 41.2952 35.962 41.467C35.7485 40.9895 35.7459 40.3933 35.6951 39.8299C35.4817 38.203 34.3279 36.9474 34.1449 35.3053C34.178 33.8728 33.5681 32.6981 32.9073 31.5385C32.3127 30.6543 32.6608 29.3634 31.7688 28.6232C31.6697 28.5928 31.5858 28.5272 31.4715 28.5752C31.3063 28.8657 31.5223 29.2042 31.5858 29.4922C32.0153 30.2981 31.5376 31.2328 31.9162 32.0539C32.6252 33.067 32.7752 34.3251 32.7752 35.6438C32.8895 36.5128 33.4359 37.2202 33.535 38.1221C33.4207 39.2514 33.7485 40.2164 34.211 41.1183C34.2567 41.2901 34.3406 41.52 34.3686 41.7171C33.3825 41.8484 32.3686 41.9368 31.3343 41.9773C31.0318 40.9364 31.2428 39.7718 31.3393 38.7032C31.3063 37.4956 30.5134 36.576 30.7116 35.3204C31.1742 34.2442 30.7472 33.0846 30.4651 32.0539C30.2008 30.9423 30.7777 29.7196 30.2669 28.6888C30.2008 28.6232 30.1017 28.5928 30.0204 28.6232C29.5249 29.0248 29.6062 29.7827 29.6722 30.379C29.8552 31.4728 29.6062 32.5693 29.3088 33.552C29.2428 34.7419 29.657 35.9343 29.1945 37.0459C28.8972 37.867 28.5998 38.7663 28.8311 39.7162C28.9581 40.4211 29.0725 41.2497 28.9429 41.9924C27.873 41.9571 26.826 41.8712 25.8069 41.7423C25.8933 40.896 26.5363 40.1861 26.5363 39.3145C26.4702 38.3798 26.5693 37.4956 26.9658 36.7074C27.5452 35.6766 27.2783 34.3074 27.6418 33.1806C28.0382 32.3596 28.4677 31.5537 28.3686 30.5381C28.3686 29.8787 28.6506 29.3331 28.8133 28.7368C28.8489 28.6408 28.798 28.5423 28.6989 28.4943C28.3025 28.5423 28.1221 28.9617 27.9391 29.2522C27.5757 30.1844 27.5096 31.2328 26.9149 32.0691C26.305 33.067 26.0229 34.1962 26.0077 35.4341C25.8578 36.4648 25.1157 37.2707 24.8031 38.2358C24.4651 39.2564 24.516 40.4741 24.183 41.4897C23.2656 41.323 22.3787 41.1183 21.5223 40.8758C22.272 39.5823 21.9238 37.8543 23.0039 36.7074C24.2745 35.3381 23.812 33.2766 25.1157 31.9251C25.9416 31.104 26.2542 30.0884 26.6176 29.0905C26.7015 28.9314 26.8819 28.7848 26.8667 28.5928C26.7675 28.4488 26.6024 28.56 26.4855 28.5928C25.0496 29.1714 25.3139 30.7983 24.3076 31.7305C23.2174 32.8093 22.8057 34.1634 22.2593 35.467C21.8146 36.4017 20.7421 37.0611 20.3279 38.011C19.9696 38.7082 19.8578 39.5318 19.4613 40.2038C18.5134 39.8526 17.6163 39.451 16.7828 39.0088C17.3724 38.4632 18.0814 37.9099 18.2644 37.1394C18.5795 36.0632 19.7002 35.4013 20.394 34.5171C20.9556 33.5015 21.1208 32.2787 22.178 31.5057C23.1691 30.8286 23.2504 29.7019 24.0941 28.9137C24.1576 28.8177 24.1754 28.6712 24.1424 28.56C24.028 28.3832 23.7968 28.512 23.6468 28.56C22.1602 29.2371 22.028 30.8943 20.7574 31.7962C20.0966 32.3596 19.4867 33.0518 19.2402 33.8097C18.7447 34.6131 17.7866 34.8404 17.258 35.611C16.9607 36.1263 16.8133 36.6897 16.366 37.1419C15.9594 37.4678 15.4867 37.6573 15.0979 38.0084C14.4397 37.5663 13.8374 37.0964 13.2911 36.5987C13.8476 36.2425 14.2618 35.6059 14.5007 35.0324C15.1462 34.3074 16.0687 34.1128 16.7625 33.3903C17.4893 32.6324 17.8044 31.6345 18.7269 31.008C19.7663 30.5886 20.4448 29.5251 21.0725 28.6888C21.0878 28.6232 21.0395 28.608 21.0064 28.5752C19.8324 28.6408 19.3546 29.9747 18.3635 30.475C17.258 30.8438 16.549 32.0034 15.8044 32.8421C15.1945 33.2918 14.4194 33.3903 13.84 33.936C13.3622 34.4438 12.7548 35.0627 12.0814 35.3331C11.6138 34.7672 11.2123 34.1735 10.8972 33.5596C11.5147 32.8977 12.3432 32.7259 13.0649 32.3419C13.8247 31.7305 14.4677 30.8286 15.3927 30.5381C16.3838 30.1844 17.2911 29.4442 18.0001 28.5928C18.0179 28.5423 17.9696 28.5272 17.9518 28.4943C17.408 28.4792 16.9785 28.8177 16.582 29.1714C15.9543 29.9747 15.0623 30.1541 14.2364 30.4901C13.6443 30.9423 12.9658 31.1672 12.2898 31.392C11.685 31.7078 11.0801 32.2004 10.3838 32.3318C10.1754 31.6926 10.0534 31.0383 10.0229 30.3688C10.1348 30.3537 10.2491 30.3385 10.3584 30.331C10.9175 30.2173 11.3317 29.7347 11.8756 29.5907C12.7523 29.3962 13.7078 29.3811 14.3355 28.6712C14.3533 28.6408 14.3533 28.5928 14.3533 28.5423C14.2212 28.3983 14.0052 28.512 13.84 28.4943C13.0827 28.7672 12.3559 29.1234 11.5147 29.1714C11.1132 29.3583 10.5261 29.4796 10.0357 29.3785C10.0712 28.9659 10.1415 28.56 10.2466 28.1608C11.0903 28.075 11.962 28.1735 12.8006 28.1886C13.6926 28.027 14.6659 28.027 15.4918 28.2998C16.516 28.4792 17.3419 27.9966 18.3304 28.0598C19.2402 28.3655 20.2135 28.1078 21.1386 28.0118C21.7993 28.027 22.3432 28.2695 23.0369 28.1406C23.779 27.979 24.6379 27.979 25.347 28.1886C26.1398 28.1078 26.948 27.9158 27.7256 28.1886C28.5668 28.1406 29.474 28.0118 30.2822 28.2518C30.9759 28.2063 31.7027 28.0118 32.3635 28.2695C33.0395 28.3655 33.5858 27.9486 34.2618 28.1735C35.2199 28.512 36.0789 27.931 37.0522 28.0926C37.7104 28.3655 38.521 28.2695 39.197 28.123C40.1221 28.027 40.8641 28.4615 41.7891 28.2998C42.8285 27.8501 43.8196 28.5752 44.9429 28.2998C45.7841 27.979 46.8717 28.0598 47.7637 28.2366C48.3991 28.3251 49.1386 28.1128 49.7815 28.272C49.8857 28.7015 49.9492 29.1411 49.9772 29.5832C49.5579 29.5074 49.164 29.2573 48.7066 29.2825C48.4753 29.2345 48.2923 29.0905 48.0941 28.9945C47.4359 28.9288 46.8717 28.6712 46.2466 28.56C46.1627 28.56 46.0789 28.5928 46.0636 28.6712C46.577 29.5731 47.7459 29.2042 48.5083 29.6539C48.9505 29.952 49.4283 30.2602 49.9797 30.3158C49.9543 30.9903 49.8349 31.6522 49.6265 32.2964C48.7803 32.1095 48.1043 31.3693 47.286 31.104C46.4092 31.0712 45.8654 30.2324 45.0395 30.0556C44.0484 29.8787 43.5376 28.7368 42.5795 28.4792C42.4651 28.4792 42.333 28.4792 42.2822 28.5928C42.2491 28.7848 42.4321 28.9465 42.5795 29.0905C43.4537 30.1213 44.5922 30.523 45.7002 31.0232C46.4423 31.3945 46.9048 32.2459 47.6646 32.6476Z" fill="white"/>
</g>
<defs>
<clipPath id="clip0_2190_9785">
<rect width="40" height="24" fill="white" transform="translate(10 18)"/>
</clipPath>
</defs>
</svg>
