<svg width="60" height="60" viewBox="0 0 60 60" fill="none" xmlns="http://www.w3.org/2000/svg">
<rect width="60" height="60" fill="black"/>
<g clip-path="url(#clip0_1772_9510)">
<mask id="mask0_1772_9510" style="mask-type:luminance" maskUnits="userSpaceOnUse" x="-52" y="-38" width="699" height="394">
<path d="M-51.0151 -37.5024H646.468V355.363H-51.0151V-37.5024Z" fill="white"/>
</mask>
<g mask="url(#mask0_1772_9510)">
<path d="M29.9938 49.9826C18.9451 49.9826 10.0142 41.0481 10.0142 29.9942C10.0142 18.9404 18.9451 10.0059 29.9938 10.0059C41.0425 10.0059 49.9734 18.9404 49.9734 29.9942C49.9734 41.0481 41.0425 49.9826 29.9938 49.9826Z" fill="white"/>
<path fill-rule="evenodd" clip-rule="evenodd" d="M29.9938 49.9826C18.9451 49.9826 10.0142 41.0481 10.0142 29.9942C10.0142 18.9404 18.9451 10.0059 29.9938 10.0059C41.0425 10.0059 49.9734 18.9404 49.9734 29.9942C49.9734 41.0481 41.0425 49.9826 29.9938 49.9826ZM48.4113 29.9389C48.4113 19.7409 40.1785 11.4964 29.9938 11.4964C19.8091 11.4964 11.5763 19.7409 11.5763 29.9389C11.5763 40.1398 19.8091 48.3814 29.9938 48.3814C40.1785 48.3814 48.4113 40.1398 48.4113 29.9389Z" fill="#ED8B00"/>
<path d="M28.0332 12.7686C31.8471 16.1164 42.5263 25.575 42.8172 33.0306C43.146 41.7613 36.4231 48.3814 26.7969 46.3814C26.7969 46.3814 32.138 45.7991 34.5351 42.0175C38.858 35.0684 27.85 29.8311 27.9605 25.3916C28.0332 21.7176 28.2514 18.0437 28.0332 12.7686Z" fill="#0032A0"/>
<path d="M27.0876 23.6827C27.1982 26.23 27.0876 30.6667 27.0149 34.8501C26.9073 39.3974 27.0149 43.6536 29.8134 44.4164C23.6723 47.6536 19.46 42.1252 19.6403 37.8691C19.8963 32.1223 24.2542 28.0117 27.0876 23.6827Z" fill="#0095C8"/>
<path d="M30.0316 35.3975C30.0316 35.3975 32.2454 37.5052 32.2105 40.4892C32.0999 43.4353 30.177 43.9069 30.177 43.9069C29.921 43.7614 30.0316 35.3975 30.0316 35.3975Z" fill="#00B5E2"/>
</g>
</g>
<defs>
<clipPath id="clip0_1772_9510">
<rect width="40" height="40" fill="white" transform="translate(10 10)"/>
</clipPath>
</defs>
</svg>
