<svg width="60" height="60" viewBox="0 0 60 60" fill="none" xmlns="http://www.w3.org/2000/svg">
<rect width="60" height="60" fill="black"/>
<path d="M47.2453 40.8565L40.0376 33.459C38.5313 31.9132 38.6597 31.9678 36.5263 31.9678H23.0091C20.8745 31.9678 21.0029 31.9144 19.4979 33.459L12.2901 40.8565C13.9243 44.2399 16.4574 47.0801 19.5972 49.0492L27.8995 40.5284C28.655 39.753 28.9892 39.4523 29.3996 39.323C29.5165 39.2807 29.639 39.2572 29.7629 39.2534C29.8868 39.2568 30.0094 39.2803 30.1261 39.323C30.5366 39.4473 30.8707 39.753 31.6263 40.5284L39.9286 49.0492C43.0721 47.0818 45.6087 44.2414 47.2453 40.8565Z" fill="white"/>
<path d="M20.5403 31.2409C21.0852 30.6382 21.0089 30.1225 21.5416 28.7084C22.1832 27.0042 23.3123 25.5393 24.7804 24.5061C26.2486 23.473 27.987 22.9201 29.7671 22.9201C31.5472 22.9201 33.2856 23.473 34.7537 24.5061C36.2218 25.5393 37.3509 27.0042 37.9925 28.7084C38.5253 30.1275 38.449 30.6382 38.9926 31.2409C39.5363 31.8436 40.0823 31.9666 41.8113 31.9666H49.2733C49.2936 29.3243 48.8041 26.704 47.8329 24.2569C46.8617 21.8097 45.4281 19.5841 43.6147 17.7083C41.8014 15.8325 39.6442 14.3437 37.2675 13.3277C34.8908 12.3117 32.3417 11.7886 29.7671 11.7886C27.1925 11.7886 24.6433 12.3117 22.2666 13.3277C19.8899 14.3437 17.7327 15.8325 15.9194 17.7083C14.1061 19.5841 12.6725 21.8097 11.7013 24.2569C10.7301 26.704 10.2405 29.3243 10.2608 31.9666H17.7192C19.4543 31.9666 20.0112 31.8274 20.5403 31.2409Z" fill="white"/>
</svg>
