<svg width="60" height="60" viewBox="0 0 60 60" fill="none" xmlns="http://www.w3.org/2000/svg">
<g clip-path="url(#clip0_1534_8455)">
<rect width="60" height="60" fill="white"/>
<g clip-path="url(#clip1_1534_8455)">
<path d="M0 0H60V60H0V0Z" fill="url(#paint0_linear_1534_8455)"/>
<path d="M32.2054 28.0918C28.9049 28.108 27.0314 30.3848 27.027 33.0745C27.027 35.855 28.5849 37.8258 31.7124 37.8258C32.8887 37.8258 33.6876 37.5729 34.3438 37.2367V37.5264C34.3438 39.4021 32.8638 40.028 31.3276 40.028C30.1795 40.028 29.28 39.7145 28.6195 39.4529L27.9341 41.4983C28.8854 41.9264 30.1935 42.1621 31.2087 42.1621C33.8065 42.1621 35.5816 41.1567 36.3243 39.4118C36.6097 38.748 36.7568 38.0518 36.7568 36.8172V29.3891C35.5784 28.6561 34.1016 28.108 32.2162 28.108L32.2054 28.0918ZM15.0843 28.1221C13.9849 28.1221 12.8714 28.5048 12.0951 29.2875L12.0238 28.108H9.72974V37.8377H12.1232V31.6648C12.4281 30.8075 13.4897 30.135 14.5362 30.135C15.6357 30.135 16.2162 30.7296 16.2162 32.0669V37.8377H18.7578V31.7815C18.7578 29.3707 17.2876 28.1221 15.0843 28.1221ZM25.8043 28.1631C24.5632 28.1631 23.5957 28.6237 22.8724 29.5037L22.8151 28.108H20.5405V37.8377H22.9341V31.7815C23.2487 30.9567 24.1384 30.3242 25.1384 30.3242C25.5232 30.3242 26.0703 30.3977 26.4141 30.5275L27.1751 28.4215C26.7557 28.2421 26.2238 28.1631 25.8043 28.1631ZM32.3232 30.0529C33.0595 30.0529 33.8832 30.2734 34.3449 30.628V35.2496C33.8832 35.6237 33.0887 35.8821 32.0832 35.8821C30.2368 35.8821 29.333 34.6713 29.333 33.0745C29.333 31.4161 30.4238 30.0529 32.3232 30.0529Z" fill="#FEFEFD"/>
<path d="M39.9892 14.0378H42.1621V17.2973H40L39.9892 14.0378ZM40 17.2973V19.4595H36.7567V17.2973H40ZM45.4054 17.2973V19.4595H42.1621V17.2973H45.4054Z" fill="#EC018A"/>
<path d="M39.9892 22.6865V24.8649H36.7567V22.7027L39.9892 22.6865Z" fill="#01ADEE"/>
<path d="M50.8 22.6865V24.8649H47.5676V22.7027L50.8 22.6865Z" fill="#FED202"/>
<path d="M45.3946 22.6865V24.8649H42.1622V22.7027L45.3946 22.6865Z" fill="#419537"/>
<path d="M39.9892 19.4434H42.1622V22.7028H40L39.9892 19.4434Z" fill="#322F90"/>
<path d="M39.9892 24.8486H42.1622V28.1081H40L39.9892 24.8486Z" fill="#01ADEE"/>
<path d="M45.3946 24.8487H47.5676V28.1081H45.4054L45.3946 24.8487ZM45.4054 19.4595H47.5676V22.7027H45.4054V19.4595Z" fill="#FED202"/>
</g>
</g>
<defs>
<linearGradient id="paint0_linear_1534_8455" x1="11.2627" y1="10.4995" x2="73.6724" y2="82.1805" gradientUnits="userSpaceOnUse">
<stop stop-color="#191D1F"/>
<stop offset="1" stop-color="#050508"/>
</linearGradient>
<clipPath id="clip0_1534_8455">
<rect width="60" height="60" fill="white"/>
</clipPath>
<clipPath id="clip1_1534_8455">
<rect width="60" height="60" fill="white"/>
</clipPath>
</defs>
</svg>
