<svg width="60" height="60" viewBox="0 0 60 60" fill="none" xmlns="http://www.w3.org/2000/svg">
<rect width="60" height="60" fill="black"/>
<g clip-path="url(#clip0_168_180)">
<path fill-rule="evenodd" clip-rule="evenodd" d="M21.33 27.8287C22.1321 27.9462 22.9418 28.1757 22.9418 28.1757C21.5793 28.1988 20.1364 28.6111 19.6511 28.7672H10.6789L11.0684 27.6514H21.917C21.5639 27.7479 21.3358 27.8287 21.33 27.8287ZM17.4272 32.4999L18.091 32.6618L15.662 33.6233H9.00757L9.39124 32.4999H17.4272ZM28.6519 26.4682C28.6386 26.4008 28.6232 26.1715 28.6156 26.0018H29.3369C29.1451 26.187 28.8803 26.4163 28.8207 26.453C28.7327 26.5125 28.6673 26.5781 28.6519 26.4682ZM19.5185 30.8813C19.7624 30.97 19.9234 31.0431 19.9234 31.0431C19.9234 31.0431 19.0544 31.2803 18.7818 31.3978C18.6417 31.4576 17.9721 31.7524 17.4347 31.9971H9.56008L9.94976 30.8813H19.5185ZM25.6126 26.1928C26.1729 26.2967 26.6144 26.7478 26.6144 26.7478C26.6144 26.7478 25.7527 26.6148 24.943 26.5857C24.1851 26.5626 22.9781 26.7478 22.9781 26.7478C23.2008 26.9115 23.6631 27.0445 23.9875 27.1255H11.2545L11.6439 26.0097H28.4543C28.13 26.3719 27.8501 26.5204 27.8501 26.5204C27.8501 26.5204 27.6428 26.4469 26.9 26.262C26.1345 26.0692 25.605 26.187 25.6126 26.1928ZM10.5098 29.2703H21.7252C20.3131 29.5882 19.1945 30.1047 18.6417 30.3861H10.1262L10.5098 29.2703ZM47.007 28.1949C47.007 28.1949 46.9916 27.9444 45.8654 27.9732C45.8654 27.9732 44.8043 27.9001 44.7677 28.2835C44.7677 28.2835 44.4742 28.7575 45.3722 28.7942C45.3722 28.7942 48.1698 29.0969 48.5592 29.2451C48.5592 29.2451 50.4723 29.7558 50.1271 31.2936C50.1271 31.2936 49.8469 33.6446 47.2412 33.8586C47.2412 33.8586 45.3262 34.0223 44.5913 33.9837C43.8563 33.9452 41.8321 33.8431 41.6845 33.739C41.6845 33.739 40.558 33.7102 39.896 32.4538L39.4912 33.6215L36.2083 33.6294L36.2158 33.6139H36.0833L34.1916 29.8657L32.8963 33.606L26.7351 33.6215L27.4126 31.7002C27.4489 31.5751 27.4931 31.5153 27.6619 31.419C27.8383 31.3225 27.8519 31.4054 27.9112 31.4342C27.9708 31.4633 28.5445 31.7081 28.8534 31.6637C29.1182 31.893 30.2579 32.5288 30.8183 32.6253C30.8682 33.0628 31.0676 33.136 31.0676 33.136C31.2231 33.2456 31.7375 33.1648 31.9369 32.9951C32.077 32.9818 32.29 32.9065 32.4013 32.7814C32.5127 32.6618 32.4168 32.4267 32.4973 32.2707C32.5777 32.1146 32.7178 32.0858 32.7333 31.9892C32.7487 31.9006 32.8138 31.9006 32.549 31.6346C31.7756 30.8582 30.592 29.0256 30.496 28.8847C30.4077 28.7441 30.519 28.6324 30.4231 28.4936C30.3272 28.3549 30.1735 28.3394 30.1142 28.2431C30.047 28.1545 29.4809 27.3778 29.0761 27.0964L29.0915 27.0232C29.3351 26.7651 29.4522 26.2851 29.5039 26.0039H35.6939L37.5629 29.8041L38.8733 26.027H42.1565L41.811 27.0174C42.0545 26.8094 42.7837 26.293 44.2478 26.1445C44.2478 26.1445 47.0587 25.7456 49.5398 26.4624C49.5398 26.4624 50.6221 26.8228 50.8581 27.3854C50.8581 27.3854 51.2705 28.0197 50.6662 28.8483L46.9341 28.7153C46.9341 28.7153 47.1337 28.5456 47.007 28.1949ZM43.9389 31.0064C43.9389 31.0064 41.3774 30.9545 40.9072 29.6249L40.3853 31.1394L43.8372 31.2879C43.8372 31.2879 43.7777 31.392 43.8007 31.5769C43.8007 31.5769 43.7335 31.8274 44.2938 31.9835C44.8524 32.1395 45.6696 32.0299 45.8902 32.0066C45.8902 32.0066 46.1704 31.9546 46.3316 31.7175C46.3316 31.7175 46.5676 31.3631 46.1474 31.2147C46.1474 31.2147 45.3589 31.0817 43.9389 31.0064Z" fill="white"/>
</g>
<defs>
<clipPath id="clip0_168_180">
<rect width="42" height="8" fill="white" transform="translate(9 26)"/>
</clipPath>
</defs>
</svg>
