<svg width="60" height="60" viewBox="0 0 60 60" fill="none" xmlns="http://www.w3.org/2000/svg">
<rect width="60" height="60" fill="#E60113"/>
<g clip-path="url(#clip0_2089_9611)">
<path d="M9 32.1634C9.15215 32.1054 9.11302 31.9627 9.1391 31.8467C9.23039 31.4499 9.43906 31.1957 9.86507 31.2626C10.2911 31.3294 10.4085 31.6461 10.365 32.0474C10.3215 32.4488 10.2563 32.7921 10.2476 33.1667C10.1259 37.0732 12.1994 40.2528 15.8553 41.778C18.1562 42.7324 20.6598 43.0551 23.1193 42.7144C23.2628 42.7144 23.4062 42.6877 23.554 42.6654C23.9887 42.594 24.3669 42.6654 24.4234 43.1782C24.4799 43.6911 24.1235 43.8561 23.7018 43.914C21.1091 44.3318 18.4557 44.0804 15.9814 43.1827C13.1949 42.1525 11.0562 40.3777 9.79986 37.5727C9.41732 36.7209 9.30429 35.7889 9.00434 34.897L9 32.1634Z" fill="white"/>
<path d="M46.9804 18.0224C44.633 19.173 42.1551 19.3959 39.6251 19.2711H39.4426C39.0078 19.2711 38.647 19.1239 38.6601 18.6111C38.6731 18.0982 39.0296 17.9867 39.473 18.0046C40.5541 18.0654 41.6383 18.0415 42.7159 17.9332C44.8429 17.7143 46.851 16.823 48.4627 15.3824C48.967 14.9365 49.48 14.4905 50.0233 14.0089C48.8105 18.8742 46.8022 21.6836 41.8943 22.0359C39.5425 22.1965 37.1995 21.9111 34.8564 21.8709C32.2481 21.8263 29.7138 22.0404 27.2925 23.0795C25.2295 23.9009 23.3981 25.2357 21.963 26.9636C21.2967 27.7071 20.8648 28.6397 20.724 29.6393C20.6588 29.9266 20.6772 30.2271 20.7769 30.5038C20.8766 30.7804 21.0532 31.021 21.2848 31.1957C21.5339 31.3639 21.8256 31.4535 22.1238 31.4535C22.422 31.4535 22.7137 31.3639 22.9628 31.1957C23.5472 30.8521 24.09 30.439 24.5799 29.9649C26.5404 28.1811 28.5922 26.5444 31.1005 25.6347C31.4135 25.5232 31.7221 25.3136 31.57 24.89C31.4179 24.4663 31.1005 24.5555 30.7875 24.6269C28.1793 25.2245 26.0709 26.647 24.1713 28.4799C23.8757 28.7653 23.6018 29.0774 23.3279 29.3717C23.0541 29.6661 22.7107 29.8177 22.3672 29.5055C22.2991 29.4487 22.2442 29.3769 22.2064 29.2955C22.1687 29.2142 22.1491 29.1252 22.1491 29.0351C22.1491 28.9449 22.1687 28.856 22.2064 28.7746C22.2442 28.6932 22.2991 28.6215 22.3672 28.5646C24.5408 26.0673 27.149 24.2166 30.3702 23.4184C30.6874 23.3313 31.0176 23.3056 31.3439 23.3426C31.6516 23.3641 31.9469 23.4755 32.1949 23.6636C32.4429 23.8516 32.6333 24.1085 32.7437 24.4039C32.8581 24.7042 32.8862 25.0319 32.8245 25.3481C32.7629 25.6642 32.6141 25.9556 32.3959 26.1877C32.1601 26.4795 31.8524 26.7013 31.5048 26.8299C29.4242 27.6487 27.5183 28.8739 25.8927 30.4376C25.1513 31.1875 24.3132 31.8296 23.4018 32.3462C22.952 32.6033 22.4391 32.7212 21.9253 32.6856C21.4115 32.65 20.9188 32.4624 20.5067 32.1455C19.5895 31.4588 19.3373 30.4822 19.4808 29.3717C19.5772 28.7109 19.7892 28.0733 20.1068 27.4899C20.7457 26.2952 21.612 25.2443 22.6541 24.3994C25.4449 22.0661 28.9023 20.7319 32.5003 20.6C34.6477 20.484 36.7865 20.649 38.9296 20.7338C40.5815 20.7962 42.2377 20.8542 43.8548 20.3726C45.1491 20.0177 46.2634 19.1711 46.9717 18.0046" fill="white"/>
<path d="M46.2371 21.6257C44.8895 25.8755 42.7986 29.403 38.7254 31.3295C38.5439 31.4246 38.353 31.4993 38.1559 31.5524C38.018 31.5989 37.8679 31.5892 37.7368 31.5253C37.6057 31.4614 37.5036 31.3481 37.4517 31.2091C37.4158 31.1386 37.3943 31.0614 37.3885 30.9822C37.3827 30.9029 37.3927 30.8233 37.4179 30.7482C37.4431 30.673 37.483 30.6039 37.5352 30.5452C37.5873 30.4864 37.6506 30.4392 37.7212 30.4063C37.8603 30.3261 38.0168 30.2636 38.1559 30.1967C40.2147 29.2212 41.9453 27.6414 43.1289 25.657L41.9509 26.3393C39.8469 27.5701 37.543 28.1855 35.1868 28.6226C32.7017 29.0665 30.3898 30.223 28.5184 31.9582C27.2792 33.144 25.8795 34.1398 24.3626 34.9149C22.263 35.9361 20.2329 35.8781 18.3854 34.3619C16.6466 32.9215 16.3205 30.9147 16.677 28.8009C17.1682 25.8889 18.8505 23.7172 21.1023 21.978C24.4909 19.3353 28.6098 17.8644 32.8655 17.7772C34.1131 17.737 35.3564 17.7504 36.5996 17.8084C37.0343 17.8084 37.4082 17.96 37.3865 18.4684C37.3647 18.9768 36.9518 19.1105 36.517 19.0838C33.7349 18.9232 30.9571 18.9589 28.2576 19.7527C25.2146 20.6446 22.4499 22.0984 20.2503 24.4931C18.7375 26.1386 17.7507 28.0607 17.829 30.3841C17.8309 31.0231 17.9835 31.6522 18.2736 32.2177C18.5637 32.7833 18.9828 33.2685 19.4951 33.632C20.0075 33.9955 20.5979 34.2266 21.2161 34.3055C21.8342 34.3845 22.4619 34.309 23.0455 34.0854C24.4828 33.5817 25.7967 32.7648 26.897 31.6907C29.4949 29.2074 32.7745 27.6038 36.291 27.0974C39.447 26.5801 42.1682 25.0327 44.6156 22.9635C45.1329 22.5176 45.6589 22.1073 46.2458 21.6257" fill="white"/>
<path d="M36.4605 34.5358C36.4605 35.3252 35.9519 36.3464 35.2738 37.2784C33.5958 39.5839 31.3136 41.0912 28.814 42.2953C28.0968 42.6387 27.3404 42.9062 26.6057 43.1872C26.1927 43.3566 25.8145 43.3388 25.6537 42.8527C25.4929 42.3666 25.7928 42.1347 26.2101 41.9876C28.4019 41.2456 30.4478 40.1101 32.2526 38.6341C33.2755 37.833 34.1326 36.8309 34.7739 35.6864C35.0607 35.1799 35.2107 34.6042 35.2086 34.0185C35.2029 33.7623 35.142 33.5104 35.0301 33.2812C34.9182 33.052 34.7582 32.851 34.5616 32.6928C34.365 32.5346 34.1366 32.4231 33.893 32.3662C33.6493 32.3094 33.3964 32.3087 33.1524 32.3641C32.5357 32.5199 31.9608 32.8155 31.4701 33.2292C30.3442 34.0899 29.2487 35.013 28.1185 35.8514C26.5146 37.1512 24.6201 38.0202 22.6064 38.3799C21.7891 38.5003 21.3892 38.3799 21.3718 37.876C21.3457 37.1223 21.9239 37.1937 22.4021 37.1268C24.3583 36.8503 26.0275 35.9094 27.5795 34.7187C28.6228 33.916 29.64 33.0776 30.6789 32.2704C31.2418 31.8183 31.8733 31.4643 32.5482 31.2225C34.5304 30.5491 36.491 32.0029 36.4605 34.5358Z" fill="white"/>
<path d="M18.4636 22.4552C18.0071 23.0572 17.5376 23.6548 17.0899 24.2657C15.6858 26.1877 14.8294 28.3238 14.9164 30.7542C15.012 33.6618 16.5856 36.1992 19.4504 36.9217C19.8851 37.0242 20.2241 37.2249 20.1024 37.7199C19.9633 38.2996 19.5112 38.2506 19.0635 38.1302C17.6755 37.749 16.4302 36.951 15.4875 35.8386C14.5448 34.7261 13.9478 33.35 13.7731 31.8869C13.511 29.936 13.7834 27.9487 14.5599 26.1476C14.6987 25.9424 14.7702 25.6972 14.7642 25.4475C14.1669 25.8195 13.619 26.2691 13.1341 26.7853C12.3561 27.56 11.7123 28.4648 11.23 29.461C11.0257 29.8802 10.7953 30.2949 10.2693 30.0362C9.74334 29.7776 9.90853 29.2915 10.1302 28.8634C11.4747 26.2262 13.7161 24.1871 16.4291 23.133C17.0812 22.861 17.7333 22.6157 18.394 22.3571L18.4679 22.4685" fill="white"/>
<path d="M22.9107 46.7012C22.7064 46.7012 22.6021 46.7012 22.5021 46.7012C22.0978 46.7235 21.8022 46.5585 21.7761 46.126C21.75 45.6934 22.05 45.4615 22.476 45.4437C23.6797 45.3959 24.8755 45.2226 26.0449 44.9264C29.9008 43.9453 33.2698 42.0991 35.8998 38.9998C37.2908 37.3587 38.3167 35.5392 38.2255 33.256C38.2159 33.1713 38.2244 33.0856 38.2504 33.0046C38.2763 32.9237 38.3191 32.8495 38.3757 32.7872C38.4323 32.7248 38.5015 32.6759 38.5784 32.6436C38.6552 32.6114 38.738 32.5966 38.821 32.6004C39.2557 32.6004 39.447 32.8769 39.4687 33.2827C39.5188 34.3064 39.3512 35.329 38.9775 36.2795C38.0124 38.808 36.2954 40.7389 34.2218 42.3533C30.9512 44.9083 27.0211 46.4218 22.9194 46.7057" fill="white"/>
<path d="M21.0544 41.2741C20.1156 41.2731 19.1802 41.1578 18.2679 40.9307C17.8593 40.837 17.5637 40.6274 17.6506 40.1637C17.7376 39.6999 18.0853 39.5884 18.494 39.6776C23.4583 40.7256 27.5185 38.8392 31.1657 35.6106C31.6569 35.1646 32.096 34.6785 32.5567 34.2014C32.861 33.8892 33.1914 33.7956 33.5131 34.13C33.8348 34.4645 33.7261 34.7677 33.4653 35.071C30.1832 38.9195 26.1274 41.1581 21.0544 41.2696" fill="white"/>
<path d="M11.5822 33.9784C11.5731 33.898 11.5803 33.8165 11.6031 33.7391C11.6259 33.6616 11.6639 33.5897 11.7148 33.5279C11.7657 33.4661 11.8284 33.4156 11.8991 33.3796C11.9697 33.3435 12.0468 33.3227 12.1255 33.3184C12.2018 33.3017 12.2807 33.3015 12.357 33.3179C12.4333 33.3342 12.5055 33.3667 12.5689 33.4133C12.6324 33.4599 12.6856 33.5195 12.7253 33.5884C12.7649 33.6573 12.7902 33.7339 12.7993 33.8134C13.1993 35.9985 14.4295 37.5816 16.2248 38.7544C16.3014 38.7923 16.3696 38.846 16.425 38.9121C16.4804 38.9783 16.5219 39.0555 16.5469 39.1388C16.5718 39.2222 16.5798 39.31 16.5701 39.3966C16.5605 39.4833 16.5335 39.567 16.4909 39.6424C16.4483 39.7179 16.3909 39.7835 16.3224 39.8352C16.2539 39.8868 16.1757 39.9234 16.0928 39.9426C16.0098 39.9618 15.9239 39.9632 15.8404 39.9468C15.7569 39.9303 15.6776 39.8964 15.6075 39.847C14.5788 39.2486 13.6879 38.4298 12.9955 37.4463C12.3031 36.4628 11.8255 35.3378 11.5952 34.1478C11.5952 34.1077 11.5952 34.0631 11.5952 33.9784" fill="white"/>
</g>
<defs>
<clipPath id="clip0_2089_9611">
<rect width="42" height="33" fill="white" transform="translate(9 14)"/>
</clipPath>
</defs>
</svg>
