<svg width="60" height="60" viewBox="0 0 60 60" fill="none" xmlns="http://www.w3.org/2000/svg">
<rect width="60" height="60" fill="#D24B27"/>
<g clip-path="url(#clip0_150_665)">
<path d="M9.82173 34.8692H9V34.5676H11.0223V34.8692H10.2006V36.959H9.82173V34.8692ZM12.893 34.5676H13.2716V35.5676H14.5362V34.5676H14.9149V36.959H14.5362V35.8694H13.2716V36.959H12.893V34.5676ZM17.1001 34.5676H18.5806V34.8692H17.4787V35.5678H18.4821V35.8694H17.4787V36.6574H18.5806V36.959H17.1001V34.5676ZM20.6369 34.5676H21.2844C21.4158 34.5676 21.5427 34.5744 21.6651 34.588C21.7789 34.5995 21.8897 34.6297 21.9927 34.6772C22.0867 34.7212 22.1665 34.7886 22.2237 34.8722C22.2819 34.9568 22.3106 35.071 22.3106 35.2152C22.3106 35.288 22.2966 35.3558 22.2693 35.4172C22.2413 35.4788 22.2029 35.5332 22.1533 35.5798C22.1027 35.6279 22.0438 35.6674 21.9793 35.6966C21.9125 35.7272 21.8411 35.7486 21.7655 35.7598V35.7666C21.8232 35.7872 21.8705 35.8142 21.9058 35.8472C21.9408 35.8802 21.9801 35.9332 22.0227 36.0066L22.5227 36.9588H22.0914L21.6861 36.1298C21.6617 36.0818 21.6311 36.0369 21.5952 35.996C21.5678 35.9665 21.5343 35.9427 21.4969 35.926C21.4603 35.9109 21.4212 35.9023 21.3814 35.9004C21.3354 35.8979 21.2893 35.8969 21.2432 35.8972H21.0158V36.9588H20.6371L20.6369 34.5676ZM21.0156 35.5952H21.3377C21.5194 35.5952 21.6603 35.5622 21.7598 35.496C21.8591 35.43 21.9091 35.3384 21.9091 35.222C21.9091 35.1122 21.8644 35.026 21.7747 34.9632C21.6851 34.9004 21.5532 34.8692 21.3791 34.8692H21.0158L21.0156 35.5952ZM25.2834 34.5676H25.6813L26.7985 36.959H26.3853L26.1165 36.356H24.8216L24.5528 36.959H24.1551L25.2834 34.5676ZM25.469 34.8896L24.9424 36.075H25.9953L25.469 34.8896ZM28.6308 34.5676H29.3238C29.4601 34.5676 29.5882 34.5796 29.7081 34.6036C29.8282 34.6276 29.9332 34.667 30.0227 34.7216C30.1124 34.7764 30.1837 34.8496 30.2367 34.941C30.2892 35.0324 30.316 35.1464 30.316 35.2836C30.316 35.416 30.2894 35.5278 30.2367 35.6192C30.1861 35.7082 30.114 35.7845 30.0265 35.8418C29.9358 35.9005 29.8343 35.9425 29.7274 35.9658C29.6137 35.9907 29.4974 36.0032 29.3807 36.003H29.0096V36.959H28.6308V34.5676ZM29.0096 35.7016H29.3845C29.4424 35.7016 29.5031 35.694 29.5663 35.6792C29.6291 35.6642 29.6867 35.6412 29.7385 35.6092C29.7902 35.5772 29.8326 35.5344 29.8654 35.4806C29.8979 35.427 29.9145 35.36 29.9145 35.28C29.9145 35.2048 29.895 35.1406 29.8557 35.0884C29.8178 35.0364 29.7682 34.993 29.7104 34.9616C29.6514 34.9291 29.5875 34.9054 29.521 34.8912C29.459 34.8771 29.3955 34.8697 29.3318 34.8692H29.0096V35.7016ZM32.2512 34.5676H33.7317V34.8692H32.6298V35.5678H33.6336V35.8694H32.6298V36.6574H33.7317V36.959H32.2512V34.5676ZM37.867 35.9688C37.867 36.3068 37.7782 36.5632 37.6003 36.738C37.4224 36.9126 37.1692 37 36.8407 37C36.5127 37 36.2597 36.9126 36.0818 36.738C35.9037 36.5632 35.8147 36.3068 35.8147 35.9688V34.5676H36.1933V35.9244C36.1933 36.0384 36.2038 36.1432 36.2255 36.2376C36.2469 36.3326 36.2828 36.4144 36.3336 36.4828C36.384 36.5512 36.4506 36.6044 36.5344 36.6422C36.6177 36.68 36.72 36.6982 36.8407 36.6982C36.9621 36.6982 37.0644 36.68 37.1476 36.6422C37.2309 36.6042 37.2977 36.5512 37.3485 36.4828C37.3987 36.4144 37.4346 36.3326 37.4563 36.2376C37.4786 36.1346 37.4893 36.0296 37.4884 35.9244V34.5676H37.867V35.9688ZM40.328 34.8692H39.5063V34.5676H41.5282V34.8692H40.7069V36.959H40.328V34.8692ZM43.3804 34.5676H43.759V36.959H43.3804V34.5676ZM47.515 34.9616C47.3487 34.8724 47.1608 34.8263 46.9699 34.828C46.8178 34.828 46.6799 34.8514 46.5551 34.898C46.4352 34.9419 46.3256 35.0083 46.233 35.0932C46.1432 35.1772 46.073 35.2783 46.0268 35.3898C45.9777 35.5087 45.9532 35.6356 45.9545 35.7634C45.9545 35.9048 45.9806 36.0328 46.0322 36.147C46.0816 36.2582 46.1545 36.3585 46.2462 36.4418C46.3372 36.5238 46.443 36.5874 46.5644 36.6318C46.6858 36.6762 46.8143 36.6984 46.9508 36.6984C46.9984 36.6984 47.0493 36.6956 47.102 36.69C47.1548 36.6845 47.2073 36.6765 47.2593 36.666C47.3109 36.656 47.3601 36.644 47.4071 36.63C47.4533 36.6164 47.4932 36.6002 47.5264 36.5822L47.5493 36.9148C47.4475 36.9535 47.3402 36.9777 47.2309 36.9864C47.1196 36.9956 47.0251 37 46.947 37C46.7374 37 46.5467 36.9708 46.3752 36.9126C46.2034 36.8546 46.0568 36.7712 45.9361 36.6626C45.8132 36.5522 45.7168 36.4178 45.6536 36.2686C45.5868 36.1146 45.5534 35.9426 45.5534 35.753C45.5534 35.5678 45.5881 35.4 45.6574 35.2494C45.7243 35.1018 45.8237 34.9698 45.9491 34.8622C46.0781 34.7524 46.2286 34.668 46.392 34.6138C46.5621 34.5554 46.7488 34.5264 46.9506 34.5264C47.0543 34.5264 47.1553 34.5336 47.2538 34.5486C47.3521 34.5634 47.4495 34.5906 47.5453 34.629L47.515 34.9616ZM50.6772 34.9274C50.6337 34.9127 50.59 34.8983 50.5462 34.8844C50.5082 34.872 50.4697 34.8611 50.4307 34.8518C50.3922 34.8425 50.3529 34.8363 50.3133 34.8332C50.2693 34.8295 50.2252 34.8278 50.181 34.828C50.1269 34.8281 50.073 34.8332 50.0199 34.8432C49.9653 34.8538 49.9162 34.8706 49.8702 34.8948C49.8253 34.9188 49.7883 34.9512 49.7604 34.9922C49.7326 35.0336 49.7192 35.0848 49.7192 35.1464C49.7192 35.224 49.7465 35.2876 49.8024 35.3368C49.8576 35.3858 49.9277 35.4308 50.0124 35.472C50.097 35.5132 50.1886 35.5536 50.287 35.5936C50.3843 35.633 50.4764 35.683 50.5615 35.7426C50.6458 35.802 50.7172 35.8765 50.7717 35.9618C50.8272 36.0488 50.8551 36.157 50.8551 36.2874C50.8551 36.4154 50.8299 36.5246 50.7791 36.6148C50.7301 36.7037 50.6586 36.7796 50.5712 36.8358C50.477 36.8951 50.3722 36.9375 50.2621 36.961C50.1399 36.9875 50.0149 37.0006 49.8895 37C49.7961 37 49.7043 36.99 49.6146 36.9692C49.5251 36.9487 49.4362 36.926 49.3479 36.9012L49.3855 36.582C49.4185 36.5936 49.4561 36.6064 49.4993 36.62C49.542 36.634 49.5875 36.6462 49.6358 36.6574C49.6835 36.669 49.7335 36.6788 49.7851 36.6868C49.837 36.6944 49.8868 36.6984 49.9345 36.6984C49.9878 36.6984 50.0455 36.6912 50.1071 36.6764C50.1688 36.6614 50.2249 36.6386 50.2757 36.6078C50.3259 36.577 50.3683 36.537 50.4025 36.488C50.4368 36.4388 50.4536 36.3788 50.4536 36.308C50.4536 36.219 50.4259 36.1466 50.3704 36.0902C50.3091 36.0306 50.2381 35.9808 50.16 35.943C50.0752 35.901 49.984 35.8604 49.8855 35.8214C49.7894 35.7839 49.6974 35.7375 49.6108 35.6828C49.5274 35.6302 49.4559 35.562 49.4008 35.4824C49.3456 35.4024 49.3175 35.3004 49.3175 35.1774C49.3175 35.0722 49.3393 34.9794 49.3838 34.898C49.4279 34.8172 49.488 34.749 49.5636 34.6942C49.6392 34.6396 49.7289 34.5976 49.8324 34.569C49.9409 34.5399 50.0532 34.5256 50.1659 34.5264C50.2541 34.5264 50.3475 34.5332 50.446 34.547C50.5445 34.561 50.639 34.5824 50.7301 34.6122L50.6772 34.9274ZM33.9772 26.3334H35.9503V27.2432H33.9772V26.3334ZM37.5619 23.4712H39.5447V22.7498H37.5619V23.4712ZM39.5447 23.7902H37.5619V23.9824H39.5447V23.7902ZM39.5447 31.0012H37.5619V31.663H39.5447V31.0012Z" fill="white"/>
<path d="M9.02393 32.2004H10.8684V23.238H9.02393V32.2004ZM17.3897 32.2004H19.1531V28.0288C19.1531 26.387 18.2979 25.446 16.8074 25.446C15.8069 25.446 15.0646 25.7886 14.5375 26.494L14.5293 26.5048H14.4615V25.6008H12.7932V32.2004H14.5562V28.9716C14.5562 28.6544 14.5963 28.0456 14.8659 27.536C15.1461 27.0062 15.5896 26.7378 16.1832 26.7378C17.3897 26.7378 17.3897 27.9032 17.3897 28.6746V32.2004ZM20.1163 26.8154H21.4589V30.224C21.4589 31.5584 22.2753 32.3552 23.6422 32.3552C24.1576 32.3552 24.5763 32.3078 24.9566 32.2066L24.905 30.9012C24.7132 31.0032 24.4182 31.0632 24.103 31.0632C23.5099 31.0632 23.2218 30.6958 23.2218 29.94V26.8154H24.8357V25.6008H23.2218V23.7252L21.4589 24.2642V25.6008H20.1163V26.8154ZM41.4693 32.2006H43.2331V25.8052H41.4693V32.2006ZM50.921 30.7412C50.9334 31.2036 50.9578 31.6544 51 32.2004H49.4517C49.4042 31.9432 49.3922 31.641 49.3834 31.4192C49.3805 31.3452 49.3777 31.2804 49.3744 31.23L49.3729 31.2058H49.3047L49.2973 31.2192C48.9088 31.8984 48.052 32.3552 47.1648 32.3552C45.5803 32.3552 44.751 31.374 44.751 30.4052C44.751 29.5252 45.1475 28.8944 45.9289 28.5296C46.4833 28.2706 47.2469 28.145 48.2633 28.145H49.2933V28.1194C49.2933 27.0828 48.8301 26.6604 47.6935 26.6604C46.9722 26.6604 46.1981 26.9144 45.5627 27.359L45.5108 25.9398C46.2023 25.6396 47.1417 25.4458 47.9105 25.4458C48.9747 25.4458 49.7221 25.6608 50.1951 26.1036C50.6652 26.5436 50.8935 27.2366 50.8935 28.2226V29.075C50.8935 29.7448 50.9076 30.249 50.9208 30.741L50.921 30.7412ZM48.887 30.5212C49.185 30.147 49.2664 29.669 49.2664 29.1526H48.48C47.6662 29.1526 46.4598 29.2814 46.4598 30.302C46.4598 30.87 46.9613 31.1154 47.6121 31.1154C48.1681 31.1154 48.602 30.8828 48.8868 30.5214L48.887 30.5212ZM33.9772 25.5896H35.9503V26.009H33.9772V25.5896ZM33.9772 27.5588H35.9503V27.9524H33.9772V27.5588ZM33.9761 23.7902H35.9493V24.387H33.9761V23.7902ZM33.9772 31.663H35.9503V32.2034H33.9772V31.663ZM33.9772 22.1874H35.9503V22.5442H33.9772V22.1874ZM33.9772 25.1312H35.9503V25.2996H33.9772V25.1312ZM33.9772 28.737H35.9493V28.9194H33.9772V28.737ZM33.9772 23.1912H35.9503V23.4712H33.9772V23.1912ZM33.9763 29.1804H35.9499V29.7574H33.9763V29.1804ZM33.9761 30.621H35.9493V30.8244H33.9761V30.621ZM37.5667 30.5302H39.5399V30.7336H37.5667V30.5302ZM32.0706 30.3496L32.1934 30.3548C32.1622 30.4907 32.1201 30.6241 32.0674 30.7538C31.8858 31.1802 31.5502 31.5926 31.1588 31.8724C30.8232 32.1118 30.1804 32.4314 29.1598 32.4314C28.8385 32.4314 27.6642 32.3916 26.8254 31.6726C26.3363 31.2598 25.6931 30.4346 25.6931 28.9832C25.6931 26.9864 26.8956 25.3622 29.1182 25.3622C29.4674 25.3622 30.2085 25.3754 30.963 25.8814C32.4729 26.933 32.3331 28.93 32.3331 29.3164H27.4521C27.5638 30.7808 28.5588 31.1186 29.2299 31.1186C29.3834 31.1186 29.9849 31.1054 30.3765 30.6926C30.5273 30.5372 30.5567 30.4196 30.5937 30.3496H32.0706ZM27.4405 28.257H30.6287L30.6216 28.2C30.5061 27.3036 29.9151 26.6182 29.1039 26.6182C28.2702 26.6182 27.6614 27.2892 27.455 28.1952L27.4405 28.257ZM37.5619 29.9166H39.5447V29.4692H37.5619V29.9166ZM39.5447 24.4742H37.5619V24.8738H39.5447V24.4742ZM39.5447 22.187H37.5619V22.3658H39.5447V22.187ZM39.5447 29.0204H37.5619V29.1904H39.5447V29.0204ZM39.5447 27.9524H37.5619V28.5554H39.5447V27.9524ZM39.5447 25.1312H37.5619V25.5896H39.5447V25.1312ZM37.5619 32.2018H39.5447V32.0338H37.5619V32.2018ZM39.5447 27.068H37.5619V27.559H39.5447V27.068ZM39.5447 26.0816H37.5619V26.2806H39.5447V26.0816ZM41.4704 25.2016H43.2193V24.1514H41.4704V25.2016Z" fill="#9DAFB6"/>
</g>
<defs>
<clipPath id="clip0_150_665">
<rect width="42" height="15" fill="white" transform="translate(9 22)"/>
</clipPath>
</defs>
</svg>
