<svg width="60" height="60" viewBox="0 0 60 60" fill="none" xmlns="http://www.w3.org/2000/svg">
<rect width="60" height="60" fill="#6EB213"/>
<g clip-path="url(#clip0_150_707)">
<path d="M9.17581 25.6787C9.17581 25.6787 10.2558 26.3394 10.8603 27.4114C11.2445 28.0897 11.3342 28.6975 11.3956 28.8939C12.5909 28.9133 13.0989 29.4295 13.7862 30.6055C13.9365 30.8609 14.0944 31.1287 14.2455 31.3771C14.0259 31.0522 13.7969 30.7341 13.5591 30.4231C13.0639 29.7827 12.4261 29.1811 11.4434 29.1617C11.2172 29.1555 11.1489 29.1555 11.0592 29.1555C10.9696 29.1555 10.8535 29.1555 10.4958 29.1485C11.5544 29.7105 11.6364 31.1023 12.3092 32.0043C12.9273 32.8341 13.4703 33.5265 15.0353 33.8136C15.2556 33.8533 15.7772 33.9317 16.0171 33.9185C15.6953 33.6568 15.4408 33.2913 15.1522 32.8271C14.8515 32.285 14.603 31.7138 14.4103 31.1217C14.1423 30.2665 13.8975 29.4038 13.6761 28.5345C13.3807 27.3453 12.8795 26.2548 11.4025 25.8302C10.9559 25.706 10.1047 25.6866 9.59672 25.6866C9.34913 25.6866 9.18435 25.6928 9.18435 25.6928L9.17581 25.6787Z" fill="#FEFEFD"/>
<path d="M16.5857 25.2813L14.9465 31.6202C15.2829 32.464 15.5987 33.1643 16.1067 33.6303L17.9193 26.7013L17.9338 26.6458C17.9543 26.5639 17.9612 26.4811 17.9612 26.3992C17.9543 25.7332 17.3635 25.3087 16.5943 25.2946L16.5857 25.2813ZM10.4343 29.4039L9.21848 34.069H10.9081L11.6014 31.3665C11.2855 30.4777 10.9696 29.7897 10.4343 29.4039ZM22.9814 34.069H21.8134C21.5999 34.069 21.477 33.9836 21.4565 33.8664C21.4292 33.7493 21.4497 33.5836 21.5043 33.3625C21.2652 33.5891 20.9914 33.7734 20.6941 33.9078C20.3509 34.0734 19.9257 34.1562 19.41 34.1562C18.8055 34.1562 18.3863 34.032 18.1533 33.7907C17.9261 33.5493 17.8169 33.2322 17.8374 32.8393C17.8514 32.6236 17.8791 32.4091 17.9202 32.1971C17.968 31.9699 18.0158 31.7426 18.0773 31.5215L18.9976 27.9707C19.0659 27.9566 19.1428 27.9425 19.2111 27.9354C19.3409 27.9222 19.4715 27.9152 19.6021 27.9152C19.7396 27.9152 19.8702 27.9293 20.0008 27.9566C20.1229 27.9794 20.238 28.0313 20.3372 28.1081C20.4342 28.1853 20.5022 28.2949 20.5293 28.4182C20.5635 28.5908 20.5498 28.7705 20.4952 28.9361L19.8429 31.4466C19.7984 31.6221 19.7594 31.7989 19.7259 31.9769C19.6997 32.111 19.6973 32.2489 19.7191 32.3839C19.7314 32.4409 19.7555 32.4944 19.7899 32.5408C19.8242 32.5872 19.868 32.6253 19.918 32.6526C20.0281 32.7142 20.1929 32.7495 20.4132 32.7495C20.7146 32.7565 21.0108 32.6878 21.2781 32.5557C21.5393 32.4253 21.6964 32.2597 21.7451 32.0668L22.8029 27.9768C22.8712 27.9636 22.9464 27.9504 23.0155 27.9425C23.1461 27.9293 23.2768 27.9222 23.4065 27.9222C23.544 27.9222 23.6746 27.9363 23.8053 27.9707C23.9266 27.9971 24.0398 28.054 24.1348 28.1363C24.228 28.2242 24.2927 28.3395 24.3201 28.4666C24.3474 28.6463 24.3406 28.8251 24.2859 28.9978L22.9814 34.069ZM24.7461 32.93C24.7312 32.7584 24.7404 32.5854 24.7734 32.4165C24.8076 32.2385 24.8417 32.0544 24.8972 31.8765L26.4357 26.2001L26.6347 26.1737L26.8336 26.1543C26.9019 26.1481 26.9711 26.1481 27.0402 26.1481C27.1768 26.1481 27.3074 26.1613 27.4381 26.1869C27.5577 26.2072 27.6708 26.2571 27.7676 26.3322C27.8641 26.4115 27.9256 26.5172 27.9529 26.6353C27.9871 26.8 27.9742 26.97 27.9188 27.1286L27.7318 27.8993L29.5307 27.9055L29.1943 29.1563L27.3954 29.1502L26.6415 31.8501C26.4836 32.4226 26.6552 32.7063 27.1427 32.7063C27.2665 32.7063 27.3834 32.686 27.5004 32.6534C27.6097 32.62 27.7198 32.5812 27.83 32.5345C27.9188 32.4958 28.0084 32.4491 28.0904 32.3962C28.1663 32.3504 28.2142 32.3108 28.2483 32.2843C28.3166 32.4359 28.3721 32.5944 28.4199 32.7521C28.4541 32.871 28.4541 32.9961 28.4199 33.1212C28.3791 33.2447 28.3025 33.3523 28.2005 33.4295C28.0639 33.5422 27.9119 33.6409 27.748 33.7131C27.541 33.8071 27.3241 33.8757 27.1017 33.9175C26.8473 33.9704 26.5869 33.9968 26.3256 33.9968C25.7903 33.9968 25.3984 33.8981 25.1585 33.6999C25.0386 33.6113 24.9394 33.4962 24.8681 33.363C24.7967 33.2298 24.7551 33.0819 24.7461 32.93ZM32.1492 28.7141C32.2389 28.6261 32.3285 28.538 32.4241 28.464C32.6717 28.2684 32.9535 28.1195 33.2617 28.0244C33.5297 27.945 33.8116 27.9291 34.0864 27.9777C34.1889 27.9909 34.2913 28.0244 34.3818 28.072C34.5671 28.1601 34.6491 28.3697 34.5808 28.5591C34.5125 28.782 34.4092 28.9907 34.2717 29.1872C34.1342 29.3968 33.9831 29.6065 33.8252 29.8029C33.72 29.6917 33.597 29.6002 33.4615 29.5325C33.3075 29.4638 33.1407 29.4313 32.9731 29.4373C32.7127 29.4373 32.4583 29.5122 32.2457 29.6602C32.0468 29.7826 31.9025 29.9782 31.8333 30.2011L30.8105 34.069H29.0662L30.6389 28.1195L30.7968 28.0931C30.8585 28.0853 30.9203 28.0783 30.9821 28.072C31.0504 28.0649 31.1332 28.0649 31.2297 28.0649C31.4628 28.0588 31.6959 28.1125 31.9025 28.2208C31.9851 28.2701 32.0523 28.3427 32.0962 28.4301C32.1401 28.5175 32.1579 28.6161 32.1492 28.7141ZM35.6728 34.0082C35.5937 34.0284 35.5132 34.0417 35.432 34.0479C35.3041 34.0557 35.1759 34.0601 35.0478 34.0611C34.7114 34.0611 34.4638 33.995 34.2854 33.8567C34.1138 33.7175 34.0796 33.4471 34.1889 33.0375L35.5208 28.1284C35.5899 28.1151 35.6659 28.1019 35.7342 28.0958C35.8645 28.0824 35.9952 28.0756 36.1261 28.0755C36.2627 28.0755 36.3933 28.0887 36.524 28.1151C36.6453 28.1367 36.7603 28.1864 36.8604 28.2605C36.9568 28.333 37.0252 28.4385 37.0533 28.5582C37.0875 28.7229 37.0738 28.8947 37.0192 29.0533L35.6728 34.0082ZM37.808 26.1666C37.7397 26.4238 37.5818 26.6485 37.3615 26.8009C37.1509 26.9611 36.8957 27.0467 36.6341 27.0449C36.366 27.0449 36.1671 26.9656 36.0296 26.8009C35.893 26.6353 35.8649 26.4238 35.9332 26.1596C36.0015 25.9024 36.1603 25.6777 36.3797 25.5121C36.5863 25.3536 36.8467 25.2611 37.1148 25.2611C37.2253 25.2537 37.336 25.2725 37.4384 25.316C37.5408 25.3595 37.6322 25.4266 37.7056 25.5121C37.8422 25.691 37.8764 25.9024 37.808 26.1666ZM40.3839 32.812C40.7504 32.8147 41.1133 32.736 41.4477 32.5812C41.5852 32.5222 41.7158 32.4491 41.8396 32.3707C41.9566 32.2914 42.059 32.2192 42.1555 32.1601C42.2374 32.3117 42.2998 32.4693 42.3476 32.6341C42.4031 32.7856 42.4159 32.9494 42.3886 33.108C42.3407 33.285 42.1896 33.4498 41.9361 33.5942C41.6659 33.746 41.377 33.8589 41.0772 33.9298C40.6838 34.0285 40.2798 34.075 39.875 34.0681C39.4908 34.0681 39.099 34.0223 38.7284 33.9166C38.3894 33.8318 38.0787 33.6547 37.8285 33.4039C37.5886 33.1599 37.4375 32.8314 37.3547 32.4174C37.2796 32.0025 37.3274 31.4827 37.4998 30.8573C37.6249 30.3802 37.8316 29.9301 38.1103 29.5281C38.3647 29.1731 38.6738 28.8639 39.0307 28.6067C39.3602 28.3697 39.7308 28.1927 40.1226 28.0737C40.489 27.9639 40.8682 27.9064 41.2496 27.9028C41.7294 27.9028 42.1145 27.9751 42.4099 28.1204C42.684 28.2446 42.9111 28.449 43.069 28.6992C43.2133 28.9493 43.2953 29.2383 43.3021 29.5281C43.3089 29.8566 43.2065 30.364 43.1168 30.6864L43.069 30.8573C43.0485 30.9234 43.0272 30.9895 43.0067 31.0679L42.9384 31.2854C42.9179 31.3444 42.8974 31.3735 42.8769 31.4264H39.1066C39.017 31.8739 39.1271 32.087 39.2987 32.3839C39.4635 32.6534 39.8289 32.8049 40.3839 32.812ZM41.5715 30.5455C41.6739 30.1579 41.7508 29.6135 41.6543 29.3704C41.5647 29.1264 41.3111 29.0013 40.8987 29.0013C40.554 28.9928 40.2185 29.1172 39.9579 29.3501C39.6898 29.5809 39.4362 30.1244 39.3261 30.5455H41.5715ZM45.177 34.069H43.4191L44.9917 28.1231L45.1497 28.0958C45.2052 28.0887 45.2666 28.0817 45.3349 28.0755C45.4032 28.0685 45.4861 28.0685 45.5825 28.0685C45.8156 28.0614 46.0496 28.109 46.2553 28.2103C46.4346 28.3045 46.5097 28.4745 46.4961 28.7168C46.7362 28.4947 47.0099 28.3147 47.3063 28.1838C47.6495 28.0209 48.0747 27.9398 48.5904 27.9398C49.1949 27.9398 49.6141 28.0614 49.8472 28.2984C50.0734 28.5344 50.1835 28.8454 50.1631 29.2303C50.1493 29.4416 50.1219 29.6517 50.0811 29.8593C50.0324 30.0821 49.9846 30.305 49.9231 30.5217L48.9891 34.069H47.244L48.1575 30.5895C48.2062 30.4063 48.2472 30.231 48.2745 30.0751C48.3018 29.9403 48.3018 29.8056 48.2813 29.6699C48.269 29.6135 48.2447 29.5606 48.2104 29.5149C48.176 29.4693 48.1323 29.432 48.0824 29.4056C47.9723 29.3457 47.8075 29.3114 47.5872 29.3114C47.2887 29.3055 46.9928 29.3703 46.7223 29.5008C46.4611 29.6294 46.304 29.7915 46.2553 29.9808L45.177 34.069Z" fill="#0E0606"/>
</g>
<defs>
<clipPath id="clip0_150_707">
<rect width="42" height="10" fill="white" transform="translate(9 25)"/>
</clipPath>
</defs>
</svg>
