<svg width="60" height="60" viewBox="0 0 60 60" fill="none" xmlns="http://www.w3.org/2000/svg">
<rect width="60" height="60" fill="black"/>
<g clip-path="url(#clip0_1642_9054)">
<path d="M9.4624 29.3648C9.4624 27.369 11.01 26.1305 12.7061 26.1305C14.6025 26.1305 15.958 27.6002 15.958 29.2996C15.958 30.999 14.6107 32.4686 12.6979 32.4686C10.7593 32.4686 9.4624 30.9419 9.4624 29.3743V29.3648ZM11.0345 29.2914C11.0345 30.2241 11.6748 31.0982 12.7306 31.0982C13.845 31.0982 14.3859 30.0922 14.3859 29.3077C14.3859 28.5151 13.845 27.5009 12.7143 27.5009C11.6244 27.5009 11.0345 28.4254 11.0345 29.2833V29.2914Z" fill="white"/>
<path d="M16.748 27.7728H18.0368V28.2595C18.0368 28.2595 18.12 28.095 18.3202 27.9373C18.5191 27.7728 18.8433 27.6165 19.3269 27.6165C19.643 27.6165 20.0408 27.6981 20.3828 28.0529C20.4822 28.1521 20.5735 28.2758 20.6566 28.4336C20.7478 28.2922 20.8569 28.1521 20.989 28.0366C21.2642 27.7891 21.6388 27.6165 22.1211 27.6165C22.4453 27.6165 22.9603 27.6899 23.3349 28.0787C23.7681 28.5314 23.8335 28.8373 23.8335 29.8529V32.3531H22.4535V29.9181C22.4535 29.7292 22.4535 29.4804 22.3623 29.2751C22.2791 29.0603 22.1034 28.904 21.7465 28.904C21.3637 28.904 21.1729 29.0766 21.0817 29.2832C20.9808 29.4899 20.9809 29.721 20.9809 29.8529V32.3531H19.6008V29.8611C19.6008 29.7373 19.6008 29.4981 19.5177 29.2914C19.4264 29.0766 19.2602 28.904 18.9101 28.904C18.5191 28.904 18.3283 29.0848 18.2289 29.3077C18.1281 29.5307 18.1281 29.7781 18.1281 29.9181V32.3531H16.748V27.7728Z" fill="white"/>
<path d="M24.8076 27.7728H26.0964V28.2595C26.2544 28.0366 26.5459 27.6165 27.3688 27.6165C28.9232 27.6165 29.0813 28.8699 29.0813 29.4899V32.3531H27.7012V29.8529C27.7012 29.3485 27.5936 28.904 26.9778 28.904C26.2953 28.904 26.1877 29.3907 26.1877 29.8611V32.3531H24.8076V27.7728Z" fill="white"/>
<path d="M30.0635 26.2461H31.4435V27.2861H30.0635V26.2461ZM30.0635 27.7728H31.4435V32.3531H30.0635V27.7728Z" fill="white"/>
<path d="M37.1081 30.6115C36.8588 31.6515 35.9351 32.5013 34.6872 32.5013C33.2908 32.5013 32.2173 31.4123 32.2173 30.05C32.2173 28.7054 33.2731 27.6165 34.6545 27.6165C35.8765 27.6165 36.8669 28.4159 37.0999 29.5388H35.7021C35.5523 29.2248 35.2785 28.8958 34.7035 28.8958C34.3793 28.8795 34.1055 29.0018 33.9052 29.2166C33.7145 29.4314 33.6069 29.7292 33.6069 30.0582C33.6069 30.7271 34.0469 31.2219 34.7035 31.2219C35.2785 31.2219 35.5523 30.8916 35.7021 30.6115H37.1081Z" fill="white"/>
<path d="M37.6489 30.05C37.6489 28.9366 38.4554 27.6246 40.1352 27.6246C41.8149 27.6246 42.6214 28.9366 42.6214 30.0582C42.6214 31.1811 41.8149 32.4931 40.1352 32.4931C38.4554 32.4931 37.6489 31.1811 37.6489 30.0582V30.05ZM39.029 30.0663C39.029 30.727 39.5358 31.2137 40.1352 31.2137C40.7346 31.2137 41.2414 30.727 41.2414 30.0581C41.2414 29.3906 40.7346 28.9039 40.1352 28.9039C39.5358 28.9039 39.029 29.3906 39.029 30.0581V30.0663Z" fill="white"/>
<path d="M43.4033 27.7728H44.6921V28.2595C44.6921 28.2595 44.7752 28.095 44.9755 27.9373C45.1744 27.7728 45.4986 27.6165 45.9822 27.6165C46.2983 27.6165 46.6975 27.6981 47.038 28.0529C47.1375 28.1521 47.2288 28.2758 47.3119 28.4336C47.4031 28.2922 47.5121 28.1521 47.6456 28.0366C47.9195 27.7891 48.2941 27.6165 48.7764 27.6165C49.1006 27.6165 49.617 27.6899 49.9902 28.0787C50.4235 28.5314 50.4902 28.8373 50.4902 29.8529V32.3531H49.1088V29.9181C49.1088 29.7292 49.1088 29.4804 49.0175 29.2751C48.9344 29.0603 48.7601 28.904 48.4018 28.904C48.019 28.904 47.8282 29.0766 47.737 29.2832C47.6361 29.4899 47.6361 29.721 47.6361 29.8529V32.3531H46.2561V29.8611C46.2561 29.7373 46.2561 29.4981 46.173 29.2914C46.0817 29.0766 45.9155 28.904 45.5653 28.904C45.1744 28.904 44.9836 29.0848 44.8842 29.3077C44.7834 29.5307 44.7834 29.7781 44.7834 29.9181V32.3531H43.4033L43.4033 27.7728Z" fill="white"/>
</g>
<defs>
<clipPath id="clip0_1642_9054">
<rect width="42" height="7" fill="white" transform="translate(9 26)"/>
</clipPath>
</defs>
</svg>
