<svg width="60" height="60" viewBox="0 0 60 60" fill="none" xmlns="http://www.w3.org/2000/svg">
<rect width="60" height="60" fill="#102240"/>
<g clip-path="url(#clip0_150_927)">
<path d="M10.0258 29.4871C10.0258 41.4316 18.0258 49.9769 30 49.9769C41.9665 49.9769 49.9742 41.4316 49.9742 29.4871C49.9742 17.5605 41.9665 9.00757 30 9.00757C18.0258 9.00757 10.0258 17.5605 10.0258 29.4871ZM22.1572 29.4871C22.1572 20.7884 26.915 18.7575 30 18.7575C33.0851 18.7575 37.8325 20.7884 37.8325 29.4871C37.8325 38.2038 33.0851 40.2269 30 40.2269C26.915 40.2269 22.1572 38.2038 22.1572 29.4871Z" fill="white"/>
</g>
<defs>
<clipPath id="clip0_150_927">
<rect width="40" height="41" fill="white" transform="translate(10 9)"/>
</clipPath>
</defs>
</svg>
