<svg width="60" height="60" viewBox="0 0 60 60" fill="none" xmlns="http://www.w3.org/2000/svg">
<rect width="60" height="60" fill="black"/>
<g clip-path="url(#clip0_1772_9312)">
<path d="M40.9621 10.3306L37.3892 13.9082V15.8014H39.2808L42.8538 12.2238V10.3306" fill="#F68D2E"/>
<path d="M40.9621 23.877L37.3892 27.4555V29.3487H39.2799L42.8538 25.7711V23.877" fill="#F68D2E"/>
<path d="M40.9621 36.1224L37.3892 32.5448V30.6506H39.2799L42.8538 34.2282V36.1224" fill="#F68D2E"/>
<path d="M20.6677 30.6506L17.0947 34.2292V36.1224H18.9855L22.5593 32.5448V30.6506" fill="#F68D2E"/>
<path d="M20.6677 44.1978L17.0947 47.7763V49.6695H18.9855L22.5593 46.0919V44.1978" fill="#F68D2E"/>
<path d="M27.4332 37.4241L23.8594 41.0026V42.8959H25.7502L29.324 39.3173V37.4241" fill="#BD472A"/>
<path d="M25.751 17.1033L29.324 20.6818V22.575H27.4332L23.8594 18.9974V17.1033" fill="#BD472A"/>
<path d="M34.197 17.1033L30.624 20.6818V22.575H32.5148L36.0886 18.9974V17.1033" fill="#BD472A"/>
<path d="M34.197 29.3487L30.624 25.7711V23.877H32.5148L36.0886 27.4546V29.3487" fill="#BD472A"/>
<path d="M18.9864 23.877L22.5593 27.4555V29.3487H20.6686L17.0947 25.7711V23.877" fill="#54585A"/>
<path d="M27.4332 23.877L23.8594 27.4555V29.3487H25.7502L29.324 25.7711V23.877" fill="#54585A"/>
<path d="M25.751 30.6506L29.324 34.2292V36.1224H27.4332L23.8594 32.5448V30.6506" fill="#54585A"/>
<path d="M34.197 30.6506L30.624 34.2292V36.1224H32.5148L36.0886 32.5448V30.6506" fill="#54585A"/>
<path d="M32.5157 37.4241L36.0886 41.0026V42.8959H34.1978L30.624 39.3173V37.4241" fill="#54585A"/>
<path d="M10.3301 17.1033V18.9974L13.903 22.575H15.7947V20.6818L12.2217 17.1033" fill="#CCCDCD"/>
<path d="M46.0455 37.4241L49.6184 41.0026V42.8959H47.7268L44.1538 39.3173V37.4241" fill="#CCCDCD"/>
</g>
<defs>
<clipPath id="clip0_1772_9312">
<rect width="40" height="40" fill="white" transform="translate(10 10)"/>
</clipPath>
</defs>
</svg>
