<svg width="60" height="60" viewBox="0 0 60 60" fill="none" xmlns="http://www.w3.org/2000/svg">
<rect width="60" height="60" fill="#ECECEC"/>
<g clip-path="url(#clip0_1685_8701)">
<path fill-rule="evenodd" clip-rule="evenodd" d="M37.6442 48.48C47.8376 44.2735 52.6786 32.6271 48.4579 22.4748C44.2399 12.3123 32.5514 7.48903 22.3476 11.6929C12.1542 15.9071 7.31323 27.5458 11.5313 37.7084C15.7623 47.8632 27.4482 52.6916 37.6442 48.48Z" fill="black"/>
<path d="M29.9998 43.9432C20.8136 43.9432 13.3872 36.5445 13.3872 27.3884C13.3872 18.2348 20.8136 10.8361 29.9998 10.8361C39.1886 10.8361 46.615 18.2348 46.615 27.3884C46.615 36.5445 39.1886 43.9432 29.9998 43.9432Z" fill="#DDE05B"/>
<path fill-rule="evenodd" clip-rule="evenodd" d="M29.9946 44.3819C25.4262 44.3819 21.0342 42.5652 17.8051 39.3445C14.5657 36.1239 12.7461 31.7497 12.7461 27.1974C12.7461 22.6348 14.5657 18.2684 17.8051 15.0477C21.0342 11.8194 25.4262 10.0129 29.9946 10.0129C34.5761 10.0129 38.9576 11.8194 42.1971 15.0477C45.4262 18.2684 47.2432 22.6348 47.2432 27.1974C47.2432 31.7497 45.4262 36.1239 42.1971 39.3445C38.9576 42.5652 34.5761 44.3819 29.9946 44.3819ZM29.9946 11.2826C23.5261 11.2826 17.6961 15.1742 15.2224 21.1226C12.7461 27.0813 14.114 33.9432 18.6955 38.4955C23.2743 43.0503 30.1582 44.4077 36.1335 41.9303C42.1062 39.4606 46.0024 33.6387 45.9946 27.1974C45.9946 25.1045 45.5793 23.0271 44.7695 21.0968C43.97 19.1639 42.7915 17.409 41.3068 15.9329C39.822 14.449 38.0569 13.2774 36.1231 12.4723C34.1789 11.6748 32.1024 11.2568 30.005 11.2568C30.005 11.2568 30.005 11.2826 29.9946 11.2826Z" fill="black"/>
<path d="M27.215 48.7123C19.5888 48.7123 13.4214 42.5703 13.4214 34.9703C13.4214 27.3729 19.5888 21.231 27.215 21.231C34.8438 21.231 41.0087 27.3729 41.0087 34.9703C41.0087 42.5703 34.8438 48.7123 27.215 48.7123Z" fill="#9ED5D6"/>
<path fill-rule="evenodd" clip-rule="evenodd" d="M27.2432 49.3368C21.1329 49.3471 15.6793 45.5174 13.6287 39.7832C11.5859 34.0413 13.3951 27.6439 18.1452 23.8065C22.898 19.9768 29.556 19.5484 34.7656 22.7329C39.9752 25.9174 42.6021 32.0284 41.325 37.9768C40.972 39.569 40.362 41.0994 39.5158 42.4852C38.6618 43.871 37.5716 45.1071 36.3023 46.1265C35.0356 47.1561 33.595 47.9613 32.0557 48.5058C30.519 49.0529 28.8993 49.329 27.2614 49.3368H27.2432ZM27.2147 21.8477C23.6975 21.8194 20.3231 23.1794 17.8208 25.649C15.3289 28.1084 13.9246 31.4735 13.9246 34.9703C13.9246 38.4697 15.3289 41.8245 17.8208 44.2916C20.3231 46.7536 23.7053 48.1213 27.2147 48.0852C30.68 48.0413 33.9817 46.6374 36.4191 44.1858C38.8487 41.7239 40.2166 38.4155 40.2166 34.9703C40.2088 31.5174 38.8487 28.209 36.4113 25.7471C33.9817 23.2955 30.68 21.8916 27.2147 21.8477Z" fill="black"/>
<path d="M39.2641 44.0774C41.5484 44.0955 43.7547 43.2103 45.3822 41.6077C47.0097 40.0077 47.9183 37.8245 47.9183 35.5536C47.9183 33.2723 47.0097 31.089 45.3822 29.4865C43.7547 27.8865 41.5484 27.0013 39.2641 27.0271C37.0136 27.0529 34.8644 27.9587 33.281 29.5587C31.6976 31.151 30.8047 33.3058 30.8047 35.5536C30.8047 37.7884 31.6976 39.9458 33.281 41.5458C34.8644 43.1381 37.0136 44.0516 39.2641 44.0774Z" fill="#FFE72D"/>
<path fill-rule="evenodd" clip-rule="evenodd" d="M39.2639 44.6942C35.5468 44.6942 32.2009 42.4671 30.7785 39.0503C29.356 35.6336 30.1477 31.6981 32.7772 29.0839C35.404 26.4645 39.3443 25.6852 42.7811 27.0994C46.21 28.511 48.4501 31.8478 48.4501 35.5536C48.4501 36.751 48.2061 37.9407 47.7493 39.0503C47.2898 40.16 46.6046 41.1613 45.761 42.0103C44.9044 42.8619 43.8894 43.5407 42.7811 43.9974C41.6649 44.4619 40.4683 44.6942 39.2639 44.6942ZM39.2639 27.6439C37.1587 27.6439 35.1419 28.4774 33.6571 29.9613C32.1646 31.4452 31.3262 33.4503 31.3262 35.5536C31.3262 37.6465 32.1646 39.6594 33.6493 41.1355C35.1341 42.6194 37.1587 43.4529 39.2639 43.4529C41.3586 43.4607 43.3833 42.6297 44.868 41.1432C46.3632 39.6594 47.199 37.6542 47.199 35.5536C47.199 33.4581 46.3632 31.4452 44.8784 29.9613C43.3833 28.4852 41.369 27.6439 39.2639 27.6439Z" fill="black"/>
</g>
<defs>
<clipPath id="clip0_1685_8701">
<rect width="40" height="40" fill="white" transform="translate(10 10)"/>
</clipPath>
</defs>
</svg>
