<svg width="60" height="60" viewBox="0 0 60 60" fill="none" xmlns="http://www.w3.org/2000/svg">
<rect width="60" height="60" fill="black"/>
<path d="M26.2181 39.5701C26.0233 39.4886 25.7039 39.1271 26.2353 38.1205L27.4696 35.5183C27.507 35.4397 27.4169 35.3412 27.3607 35.408L26.2814 36.5026C25.7708 37.0402 24.9045 38.5514 24.7368 38.831L23.4256 41.0173C23.523 41.0142 23.6045 41.0914 23.6076 41.1896C23.6086 41.222 23.6009 41.254 23.5852 41.2823L22.3868 43.3126C22.0942 43.8161 22.6199 44.1681 22.6911 44.0522C24.5748 40.9919 25.6703 41.2362 25.6703 41.2362L26.2991 39.7675C26.3322 39.6939 26.2999 39.6072 26.2269 39.5738C26.2242 39.5724 26.2212 39.5713 26.2181 39.5701ZM30.5006 14C19.7311 14 11.0009 22.8019 11.0009 33.6596C10.9952 37.8628 12.332 41.9561 14.8132 45.3329C15.6312 44.9768 16.0858 44.4444 16.4105 44.0367L20.0412 39.3552C20.1176 39.2565 20.2175 39.1789 20.3316 39.1294L20.8781 38.8923L26.848 31.2577L27.7136 30.5745L29.4924 28.0783C29.5383 28.0137 29.5944 27.9569 29.6583 27.9101L30.4344 27.3413C30.6261 27.2008 30.8851 27.1986 31.079 27.3359L32.0208 28.0023C32.5205 28.3558 32.9254 28.8286 33.1998 29.3784L36.9721 36.0588C37.0337 36.1862 37.1383 36.2873 37.2672 36.3439C38.007 36.7153 38.4589 36.7809 39.4272 37.8413C39.879 38.3357 41.8587 40.568 44.6332 44.0374C45.0364 44.5939 45.5762 45.0351 46.1996 45.3177C48.6732 41.9435 50.0055 37.8562 49.9996 33.6596C49.9996 22.8018 41.2697 14 30.5006 14ZM16.2596 34.7432L14.9953 34.3292L14.2143 35.4129V34.0736L12.9499 33.6595L14.2143 33.2454V31.9057L14.9953 32.9897L16.2596 32.5757L15.4784 33.6596L16.2596 34.7432ZM15.9599 39.1268L15.5492 40.401L15.1385 39.1268H13.8097L14.8847 38.3393L14.4741 37.0652L15.5491 37.8527L16.6242 37.0652L16.2136 38.3393L17.2887 39.1268H15.9599ZM16.2136 28.9791L16.6243 30.2532L15.5492 29.4656L14.4742 30.2532L14.8847 28.9791L13.8098 28.1915H15.1386L15.5493 26.9174L15.96 28.1915H17.2888L16.2136 28.9791ZM18.3475 26.0968L17.5669 25.0128L16.3025 25.4268L17.0836 24.343L16.3025 23.2591L17.5669 23.6731L18.348 22.5892V23.929L19.6123 24.3423L18.348 24.7565V26.0962L18.3475 26.0968ZM21.6708 21.4065L21.2601 22.6807L20.8494 21.4066H19.5205L20.5957 20.619L20.1851 19.3448L21.2601 20.1322L22.3351 19.3447L21.9245 20.6199L22.9996 21.4075H21.6707L21.6708 21.4065ZM25.8585 19.2551L25.0774 20.3391V18.9997L23.813 18.5857L25.0774 18.1716V16.8318L25.8585 17.9158L27.1223 17.5018L26.3412 18.5857L27.1224 19.6695L25.8585 19.2551ZM31.165 18.0271L31.5757 19.3012L30.5006 18.5136L29.4254 19.3012L29.8356 18.0276L28.7607 17.2401H30.0895L30.5003 15.9659L30.911 17.2401H32.2398L31.165 18.0271ZM35.9232 18.9997V20.3395L35.1425 19.2555L33.8782 19.6695L34.6593 18.5857L33.8783 17.5018L35.1426 17.9158L35.9234 16.8318V18.1716L37.1877 18.5857L35.9232 18.9997ZM44.741 32.5757L46.0052 32.9897L46.786 31.9057V33.2454L48.0505 33.6595L46.786 34.0736V35.4132L46.0052 34.3294L44.741 34.7434L45.5229 33.6595L44.741 32.5757ZM39.7408 22.681L39.3299 21.4068H38.0012L39.0759 20.6193L38.6662 19.345L39.7408 20.1325L40.8155 19.3451L40.4057 20.6193L41.4805 21.4068H40.1517L39.7408 22.681ZM42.6535 26.0972V24.7575L41.3892 24.3433L42.6535 23.93V22.5897L43.4343 23.6736L44.6986 23.2596L43.9179 24.3435L44.6986 25.4273L43.4343 25.0133L42.6535 26.0972ZM45.0405 28.1919L45.4516 26.9178L45.8625 28.1919H47.1912L46.1166 28.9795L46.5275 30.2536L45.4518 29.466L44.377 30.2536L44.7879 28.9795L43.7121 28.1919H45.0405ZM45.8624 39.1268L45.4515 40.401L45.0405 39.1268H43.7117L44.7875 38.3393L44.3766 37.0652L45.4514 37.8527L46.5271 37.0652L46.1162 38.3393L47.1909 39.1268H45.8624ZM37.5634 45.0213C37.6571 44.884 37.8093 44.5074 37.5236 43.8095L36.6607 41.4699C36.5436 41.1713 36.8001 40.9901 36.9722 41.1864C36.9722 41.1864 38.603 43.0824 39.0244 43.874L39.8286 45.2201C40.5205 45.2652 42.4299 45.3177 44.2679 45.3177C44.0828 45.1324 43.9119 44.9332 43.7562 44.722C40.6199 40.8015 38.6309 38.6207 38.611 38.5991C37.9754 37.9024 37.6816 37.7686 37.1967 37.5459C37.1265 37.5138 37.0504 37.4791 36.972 37.4414V38.0366C36.9769 38.0768 36.9483 38.1133 36.9084 38.1181C36.8762 38.122 36.8452 38.1038 36.8327 38.0735L32.2217 29.9067L32.2089 29.8808C32.0166 29.4962 31.7332 29.1653 31.3838 28.9176L30.934 28.5988L28.7342 33.7155C28.997 33.7154 29.2102 33.9303 29.2104 34.1954C29.2105 34.261 29.1972 34.326 29.1713 34.3862L27.1388 39.1266H29.0045C29.7255 39.1266 30.4397 39.2681 31.107 39.5438L31.5987 39.747C31.5987 39.747 30.1151 42.8248 30.1151 44.4454C30.1172 44.7401 30.158 45.0332 30.2362 45.3172H33.6562L33.4978 44.3457C34.8394 44.6478 36.1967 44.8735 37.5634 45.0218L37.5634 45.0213Z" fill="white"/>
</svg>
