<svg width="60" height="60" viewBox="0 0 60 60" fill="none" xmlns="http://www.w3.org/2000/svg">
<rect width="60" height="60" fill="black"/>
<g clip-path="url(#clip0_168_458)">
<path d="M16.1181 27.0618H15.9182C15.3963 27.0618 15.0721 27.369 15.0721 27.8633V31.8404C15.0721 33.726 14.4666 34.4951 12.9821 34.4951C11.4976 34.4951 10.8921 33.7225 10.8921 31.8285V27.8633C10.8921 27.369 10.5679 27.0618 10.046 27.0618H9.84606C9.32421 27.0618 9 27.369 9 27.8633V31.8404C9 34.7128 10.3398 36.1692 12.9821 36.1692C15.6244 36.1692 16.9641 34.7128 16.9641 31.8404V27.8633C16.9641 27.369 16.6399 27.0618 16.1181 27.0618Z" fill="white"/>
<path d="M19.3551 29.4753H19.1895C18.6547 29.4753 18.3225 29.7945 18.3225 30.308V35.3368C18.3225 35.8503 18.6547 36.1695 19.1895 36.1695H19.3551C19.8898 36.1695 20.222 35.8503 20.222 35.3368V30.308C20.222 29.7945 19.8898 29.4753 19.3551 29.4753Z" fill="#FA4616"/>
<path d="M21.6493 26.3621C20.4406 26.1773 19.4868 25.2695 19.2927 24.1191C19.289 24.0974 19.2595 24.0974 19.2558 24.1191C19.0617 25.2695 18.1079 26.1773 16.8992 26.3621C16.8764 26.3656 16.8764 26.3937 16.8992 26.3972C18.1079 26.582 19.0617 27.4898 19.2558 28.6402C19.2595 28.662 19.289 28.662 19.2927 28.6402C19.4868 27.4898 20.4406 26.582 21.6493 26.3972C21.6721 26.3937 21.6721 26.3656 21.6493 26.3621ZM20.4618 26.3884C19.8574 26.4808 19.3805 26.9347 19.2835 27.51C19.2817 27.5208 19.2669 27.5208 19.265 27.51C19.168 26.9347 18.6911 26.4808 18.0867 26.3884C18.0753 26.3867 18.0753 26.3726 18.0867 26.3709C18.6911 26.2785 19.168 25.8246 19.265 25.2494C19.2669 25.2385 19.2817 25.2385 19.2835 25.2494C19.3805 25.8246 19.8574 26.2785 20.4618 26.3709C20.4732 26.3726 20.4732 26.3867 20.4618 26.3884Z" fill="#FA4616"/>
<path d="M22.3734 24.5662C21.769 24.6585 21.2921 25.1125 21.195 25.6877C21.1932 25.6985 21.1784 25.6985 21.1766 25.6877C21.0795 25.1125 20.6026 24.6585 19.9983 24.5662C19.9869 24.5644 19.9869 24.5503 19.9983 24.5486C20.6026 24.4562 21.0795 24.0023 21.1766 23.4271C21.1784 23.4162 21.1932 23.4162 21.195 23.4271C21.2921 24.0023 21.769 24.4562 22.3734 24.5486C22.3847 24.5503 22.3847 24.5644 22.3734 24.5662Z" fill="#FA4616"/>
<path d="M24.3753 27.0618H22.5316C22.0042 27.0618 21.6765 27.3723 21.6765 27.8719V35.3591C21.6765 35.8588 22.0042 36.1692 22.5316 36.1692H22.7337C23.2611 36.1692 23.5888 35.8588 23.5888 35.3591V33.5868H24.3879C27.5873 33.5868 28.8924 32.6416 28.8924 30.3243C28.8924 28.007 27.5837 27.0618 24.3753 27.0618ZM26.9549 30.3004C26.9549 31.4925 26.3581 31.8948 24.5899 31.8948H23.5888V28.7179H24.5899C26.3581 28.7179 26.9549 29.1172 26.9549 30.3004Z" fill="white"/>
<path d="M35.9939 28.747H35.8423C35.3149 28.747 34.9873 29.0575 34.9873 29.5572V29.5582C34.4456 28.9639 33.6066 28.6155 32.6476 28.6155C31.6705 28.6155 30.7871 28.9556 30.1598 29.5732C29.4766 30.2458 29.1155 31.2166 29.1155 32.3805C29.1155 33.5494 29.4787 34.5258 30.1659 35.204C30.7967 35.8265 31.6826 36.1693 32.6602 36.1693C33.601 36.1693 34.4463 35.8165 34.9879 35.2309C34.988 35.2315 34.988 35.3997 34.988 35.4003C35.0056 35.8759 35.3295 36.1693 35.8423 36.1693H35.9939C36.5213 36.1693 36.849 35.859 36.849 35.3593V29.5572C36.849 29.0575 36.5213 28.747 35.9939 28.747ZM35.0252 32.3805C35.0252 33.7476 34.2544 34.597 33.0138 34.597C31.7576 34.597 30.9772 33.7476 30.9772 32.3805C30.9772 31.0206 31.7479 30.1759 32.9885 30.1759C34.2257 30.1759 35.0252 31.0413 35.0252 32.3805Z" fill="white"/>
<path d="M47.0026 28.6226C46.0125 28.6226 45.3059 28.9962 44.8637 29.4671V27.8724C44.8637 27.3725 44.5359 27.0618 44.008 27.0618H43.8564C43.3288 27.0618 43.0007 27.3725 43.0007 27.8724V35.3586C43.0007 35.8586 43.3288 36.1692 43.8564 36.1692H44.008C44.5359 36.1692 44.8637 35.8586 44.8637 35.3586V32.354C44.8637 30.4304 45.832 30.2079 46.5604 30.2079C47.7836 30.2079 48.2823 30.7847 48.2823 32.1984V35.3586C48.2823 35.8586 48.6104 36.1692 49.138 36.1692H49.2896C49.8175 36.1692 50.1453 35.8586 50.1453 35.3586V32.0906C50.1453 29.7569 49.1174 28.6226 47.0026 28.6226Z" fill="white"/>
<path d="M42.465 35.253C42.4388 35.012 42.2865 34.6678 41.5615 34.6678C40.7044 34.6678 40.2963 34.4147 40.2963 32.9764V30.2079H41.574C42.101 30.2079 42.4284 29.9248 42.4284 29.4692C42.4284 29.0209 42.101 28.7423 41.574 28.7423H40.2978V27.8724C40.2978 27.3725 39.968 27.0618 39.4371 27.0618H39.2846C38.7537 27.0618 38.4238 27.3725 38.4238 27.8724V28.7423H38.13C37.6654 28.7423 37.3767 29.0209 37.3767 29.4692C37.3767 29.9248 37.7041 30.2079 38.231 30.2079H38.4238V33.1321C38.4238 35.261 39.2979 36.1692 41.347 36.1692C41.3503 36.1692 41.3536 36.1692 41.3569 36.1691C41.4761 36.169 41.6037 36.1672 41.7337 36.1562C41.9921 36.133 42.1875 36.0468 42.3145 35.8995C42.4409 35.753 42.4915 35.4955 42.465 35.253Z" fill="white"/>
</g>
<defs>
<clipPath id="clip0_168_458">
<rect width="42" height="14" fill="white" transform="translate(9 23)"/>
</clipPath>
</defs>
</svg>
