<svg width="60" height="60" viewBox="0 0 60 60" fill="none" xmlns="http://www.w3.org/2000/svg">
<rect width="60" height="60" fill="white"/>
<g clip-path="url(#clip0_150_888)">
<path d="M18.214 26.9225H22.5999C23.4654 26.9225 24.2527 27.4847 24.2527 28.4239C24.2527 29.6805 23.2636 30.5602 21.8906 30.5602H17.2054L18.214 26.9225Z" fill="#00853F"/>
<path d="M39.7595 26.9424H43.8981C45.8568 26.9424 45.9349 28.2982 45.9349 28.6818C45.9349 29.5813 45.154 31.3473 42.7724 31.3473H38.5557C38.5557 31.3473 39.74 27.0548 39.7595 26.9424Z" fill="#00853F"/>
<path d="M16.1447 34.3368H19.9319C21.7865 34.3368 21.8906 34.8461 22.1444 35.2826C22.3981 35.7191 22.281 36.6384 22.1118 36.9559C21.884 37.3527 21.5131 38.5829 19.1445 38.5829H14.9343C14.9343 38.5829 16.1447 34.3434 16.1447 34.3368Z" fill="#00853F"/>
<path d="M56.1643 22.9873V56.7249H3.63126V22.9873H13.737L8.13426 42.6307H19.6C24.5651 42.6307 25.4305 41.4534 26.4392 40.5936C27.7862 39.4494 28.5085 36.7244 27.9033 34.8329C27.4738 33.4902 26.2244 32.6767 26.0878 32.637C27.643 31.9095 28.5475 30.3089 28.6581 30.0708C29.2308 28.8605 29.6798 26.658 28.2482 24.8921C27.0573 23.4238 24.7408 23.0138 23.0619 22.9873H35.3411L29.7188 42.6703H35.4062L37.4819 35.2032H40.7356C43.0977 35.2032 42.883 36.698 42.9415 37.3395L43.1238 42.8225H48.4076C48.4076 42.8225 48.1668 36.6649 48.1473 36.2152C48.0757 34.6344 47.0476 33.9201 46.1626 33.9201C47.8545 33.4572 49.3252 31.8963 49.9108 30.8976C50.5876 29.7467 51.1016 27.9147 50.4314 26.0959C49.4553 23.4569 46.95 23.0204 45.1996 22.9873H56.1643Z" fill="#00853F"/>
<path d="M3.62473 16.532H56.1578V3.63489H3.62473V16.532Z" fill="#FDB823"/>
</g>
<defs>
<clipPath id="clip0_150_888">
<rect width="54" height="54" fill="white" transform="translate(3 3)"/>
</clipPath>
</defs>
</svg>
