<svg width="60" height="60" viewBox="0 0 60 60" fill="none" xmlns="http://www.w3.org/2000/svg">
<rect width="60" height="60" fill="white"/>
<g clip-path="url(#clip0_2471_4431)">
<path d="M33.3068 37.5148C32.769 37.8244 32.4294 38.1903 32.2313 38.6688C31.8351 39.7383 32.0615 40.9485 32.8822 42.2995L32.0898 43.0876L31.1841 44.4104C30.7596 45.5643 30.9294 46.7746 31.7785 48.0974C32.2879 48.9699 33.2219 49.3921 34.6087 49.364H38.1464C38.6841 49.4202 38.9105 49.2514 38.7973 48.8292V42.4402H36.7879V44.0445L34.5237 40.8641L34.1841 39.879C34.1841 39.3161 34.4388 39.0628 34.9483 39.1191L35.2313 39.2035C35.4577 39.3161 35.5426 39.485 35.5992 39.7383V40.6389H37.8633V39.879C37.835 39.2035 37.7218 38.6688 37.4954 38.2747L37.1841 37.8807C36.703 37.4304 36.052 37.2052 35.2313 37.1489L34.0709 37.2334L33.3068 37.5148Z" fill="#FDB813"/>
<path d="M35.4014 47.3937H36.6467L36.675 47.253L33.9297 44.0444C33.675 44.2133 33.5052 44.551 33.392 45.0577C33.2505 45.705 33.3637 46.2961 33.7316 46.859L34.1844 47.1686L35.4014 47.3937Z" fill="white"/>
<path d="M46.5238 43.2282H43.2691V46.7745H46.5238V49.3639H47.4295V10.5234H39.6465V49.4764H40.0993V34.672H46.5238V37.2896H43.2691V40.6107H46.5238V43.2282Z" fill="#1689C5"/>
<path d="M18.9014 38.3872C18.7033 37.5147 18.1939 37.1488 17.458 37.2896V41.5958C18.3071 41.7365 18.7882 41.2862 18.9014 40.2448V38.3872Z" fill="#1689C5"/>
<path d="M24.7031 34.5313L26.288 34.3062C27.4484 34.3624 28.354 34.7846 28.9484 35.6008L29.4012 36.3045C29.6276 36.98 29.7408 37.9087 29.6276 39.0627L26.7691 39.0346V37.6273C26.7125 37.2051 26.5144 36.98 26.0616 36.98C25.6371 37.0081 25.4106 37.2896 25.4106 37.8243V46.2397L25.4955 46.6338C25.6088 46.8871 25.7786 47.0559 26.0333 47.0841C26.5993 47.2811 26.9106 47.0278 26.9106 46.3805V43.9037H26.1182V41.3143H29.7408V44.8043L39.4483 10.5234H13.5239V49.5046H14.4579V34.6158H17.5145L19.0994 34.7846C20.2597 35.1224 21.0522 35.7134 21.4767 36.6422C21.7031 37.1207 21.8446 37.9369 21.9578 39.0627C22.071 40.6388 21.9295 41.6521 21.5899 42.0742C20.939 43.5378 19.8918 44.2696 18.4201 44.157L17.4013 44.1288V49.392H24.5899C23.1465 49.0824 22.439 47.9847 22.439 46.2116V37.6836C22.2408 35.9949 23.005 34.9254 24.7031 34.5313Z" fill="#1689C5"/>
</g>
<rect x="13.5" y="10.5" width="34" height="39" stroke="black"/>
<defs>
<clipPath id="clip0_2471_4431">
<rect x="13" y="10" width="35" height="40" fill="white"/>
</clipPath>
</defs>
</svg>
