<svg width="60" height="60" viewBox="0 0 60 60" fill="none" xmlns="http://www.w3.org/2000/svg">
<rect width="60" height="60" fill="black"/>
<g clip-path="url(#clip0_1772_9327)">
<path d="M10.4359 32.1083V32.072C10.4295 32.0129 10.4461 31.9537 10.4822 31.9069C10.5183 31.8601 10.5711 31.8295 10.6291 31.8215H23.0672C23.1108 31.8248 23.1521 31.8427 23.1847 31.8724C23.2172 31.902 23.2391 31.9418 23.2469 31.9854C25.6285 41.1322 27.8887 44.1842 29.8479 44.1842C32.571 44.1842 34.7099 38.2624 35.7659 34.6183C35.8424 34.3542 36.1748 34.4588 36.1299 34.7369C33.8831 49.5913 27.1428 49.5913 24.9769 49.5913C18.2006 49.5813 12.4535 42.2527 10.4359 32.1083ZM49.2511 32.0447C49.2536 31.9886 49.2341 31.9339 49.1972 31.8921C49.1602 31.8504 49.1085 31.825 49.0533 31.8215H37.9587C37.9094 31.8249 37.8632 31.8469 37.8291 31.8831C37.7949 31.9194 37.7754 31.9673 37.7744 32.0173C37.0015 39.834 35.0333 45.5144 31.6452 48.6711C31.6222 48.694 31.604 48.7213 31.5915 48.7514C31.5791 48.7815 31.5727 48.8138 31.5727 48.8465C31.5727 48.8791 31.5791 48.9115 31.5915 48.9416C31.604 48.9717 31.6222 48.999 31.6452 49.0219C31.6651 49.045 31.6897 49.0636 31.7172 49.0765C32.6923 49.3915 33.709 49.5543 34.7324 49.5594C41.5355 49.5594 47.2828 42.1025 49.2599 32.0446L49.2511 32.0447Z" fill="url(#paint0_linear_1772_9327)"/>
<path d="M49.2507 27.913C49.2501 27.9241 49.2501 27.9352 49.2507 27.9462C49.2614 28.0036 49.2495 28.0629 49.2176 28.1115C49.1856 28.16 49.1362 28.194 49.0799 28.206H36.6283C36.5848 28.2045 36.5431 28.1879 36.5104 28.1588C36.4776 28.1297 36.4557 28.09 36.4485 28.0465C34.067 18.8906 31.8067 15.8386 29.8476 15.8386C27.1245 15.8386 24.9855 21.7604 23.9296 25.4045C23.853 25.6686 23.5207 25.564 23.5656 25.2859C25.8169 10.4406 32.5617 10.4406 34.7006 10.4406C41.4949 10.4406 47.2421 17.7685 49.2507 27.913ZM10.4355 27.9722C10.4318 28.0283 10.4499 28.0836 10.4861 28.1263C10.5222 28.1689 10.5735 28.1954 10.6288 28.2H21.7323C21.782 28.1967 21.8287 28.1748 21.8635 28.1387C21.8983 28.1026 21.9187 28.0546 21.9209 28.0042C22.6937 20.1875 24.6619 14.4844 28.05 11.3504C28.0728 11.3279 28.091 11.301 28.1034 11.2713C28.1158 11.2416 28.1222 11.2096 28.1222 11.1773C28.1222 11.145 28.1158 11.1131 28.1034 11.0834C28.091 11.0536 28.0728 11.0267 28.05 11.0042C28.0301 10.9811 28.0056 10.9625 27.9781 10.9496C27.0052 10.6314 25.9897 10.467 24.9674 10.4622C18.1597 10.4622 12.4127 17.9189 10.4355 27.9722Z" fill="url(#paint1_linear_1772_9327)"/>
</g>
<defs>
<linearGradient id="paint0_linear_1772_9327" x1="47.1391" y1="40.6994" x2="11.4829" y2="40.6994" gradientUnits="userSpaceOnUse">
<stop stop-color="#FF8F1C"/>
<stop offset="1" stop-color="#ED2024"/>
</linearGradient>
<linearGradient id="paint1_linear_1772_9327" x1="12.5565" y1="19.3219" x2="48.2127" y2="19.3219" gradientUnits="userSpaceOnUse">
<stop stop-color="#FF8F1C"/>
<stop offset="1" stop-color="#ED2024"/>
</linearGradient>
<clipPath id="clip0_1772_9327">
<rect width="40" height="40" fill="white" transform="translate(10 10)"/>
</clipPath>
</defs>
</svg>
