<svg width="60" height="60" viewBox="0 0 60 60" fill="none" xmlns="http://www.w3.org/2000/svg">
<rect width="60" height="60" fill="white"/>
<g clip-path="url(#clip0_1758_9055)">
<path d="M11.2081 28.1538C12.5451 23.3737 18.1136 22.236 23.2405 22.0955C27.4552 21.98 32.1545 22.5249 32.1545 22.5249L29.9465 30.4193C29.9465 30.4193 25.2472 29.8743 21.0325 29.9899C15.9056 30.1304 10.337 31.268 9 36.0482L11.2081 28.1538Z" fill="#0190FF"/>
<path d="M43.203 42.9442C28.1187 42.0244 10.5893 34.4158 11.208 28.1538L9.12686 35.5947C8.49556 41.9836 24.7565 49.569 40.995 50.8386L43.203 42.9442Z" fill="#2B01BE"/>
<path d="M48.6848 32.6849C47.3478 37.465 41.7793 38.6026 36.6524 38.7431C32.4377 38.8587 27.7384 38.3137 27.7384 38.3137L29.9465 30.4193C29.9465 30.4193 34.6457 30.9643 38.8605 30.8488C43.9873 30.7082 49.5559 29.5706 50.8929 24.7905L48.6848 32.6849Z" fill="#2B01BE"/>
<path d="M16.6898 17.8944C31.7742 18.8142 49.3036 26.4229 48.6848 32.6849L50.766 25.2439C51.3973 18.855 35.1364 11.2696 18.8979 10L16.6898 17.8944Z" fill="#0190FF"/>
</g>
<defs>
<clipPath id="clip0_1758_9055">
<rect width="42" height="41" fill="white" transform="translate(9 10)"/>
</clipPath>
</defs>
</svg>
