<svg width="60" height="60" viewBox="0 0 60 60" fill="none" xmlns="http://www.w3.org/2000/svg">
<rect width="60" height="60" fill="#223555"/>
<g clip-path="url(#clip0_150_981)">
<path d="M38.6107 25.3902C40.0514 24.8963 41.6686 24.9101 43.1057 25.4248C44.4439 25.898 45.6127 26.8064 46.3966 27.9704C47.237 29.2105 47.6183 30.7406 47.4594 32.2224C46.838 31.9772 46.213 31.7423 45.5915 31.5005C45.5915 30.7959 45.5915 30.0901 45.5915 29.3832C44.8253 29.3832 44.0555 29.3832 43.2893 29.3832C43.2893 29.7942 43.2893 30.2018 43.2893 30.6128C41.7816 30.0291 40.2703 29.4488 38.759 28.8651C37.2336 29.4661 35.7118 30.0671 34.1864 30.6716C34.3488 29.4868 34.8537 28.3504 35.627 27.4281C36.4038 26.499 37.449 25.7805 38.6107 25.3902Z" fill="#EAC463"/>
<path d="M34.1864 30.6717C35.7118 30.0673 37.2336 29.4662 38.759 28.8652C40.2703 29.449 41.7816 30.0293 43.2893 30.613C43.2893 30.202 43.2893 29.7944 43.2893 29.3834C44.0555 29.3834 44.8253 29.3834 45.5915 29.3834C45.5915 30.0903 45.5915 30.7961 45.5915 31.5007C46.213 31.7425 46.838 31.9774 47.4594 32.2226C48.3104 32.5508 49.1614 32.8755 50.0088 33.207C50.0088 33.8115 50.0088 34.416 50.0088 35.0205C46.2589 33.5732 42.5125 32.1294 38.7625 30.6821C35.2492 32.0706 31.7358 33.4557 28.2225 34.8443C28.2225 34.2387 28.2225 33.6319 28.2225 33.024C30.2105 32.2399 32.1984 31.4593 34.1864 30.6717Z" fill="white"/>
<path fill-rule="evenodd" clip-rule="evenodd" d="M19.2184 33.2071C22.4387 31.936 25.659 30.6683 28.8793 29.3972C30.0304 29.8497 31.185 30.2884 32.3326 30.7443C31.5734 31.0345 30.8178 31.3419 30.0551 31.6182C29.6596 31.4766 29.2712 31.3142 28.8793 31.1657C25.659 32.4345 22.4387 33.7022 19.2184 34.9687C19.2184 34.3815 19.2184 33.7943 19.2184 33.2071ZM10.5145 33.366C13.4558 32.2123 16.3972 31.0483 19.3385 29.8877C20.4472 30.3195 21.5595 30.7478 22.6647 31.183C21.9161 31.48 21.1605 31.7667 20.4084 32.0603C20.0553 31.9187 19.7022 31.7806 19.3456 31.6424C16.4007 32.7995 13.4558 33.9635 10.511 35.1207C10.511 34.5369 10.5039 33.9497 10.5145 33.366Z" fill="white"/>
</g>
<defs>
<clipPath id="clip0_150_981">
<rect width="41" height="11" fill="white" transform="translate(10 25)"/>
</clipPath>
</defs>
</svg>
