<svg width="60" height="60" viewBox="0 0 60 60" fill="none" xmlns="http://www.w3.org/2000/svg">
<rect width="60" height="60" fill="#ECECEC"/>
<g clip-path="url(#clip0_1642_9039)">
<path d="M43.0601 30.6893C40.3747 32.9399 41.504 36.4934 42.6065 38.507C43.9892 41.0208 42.2242 44.7279 39.8101 46.8249C45.6786 43.5346 49.6844 37.3928 49.9068 30.3077C48.0839 29.132 45.0252 29.0398 43.06 30.6893L43.0601 30.6893Z" fill="#23B2A9"/>
<path d="M29.0639 36.353C25.2137 33.1329 21.8437 34.6903 19.5452 37.3533C17.2155 40.0513 20.4254 40.8585 24.8091 41.8412C28.1169 42.5826 27.7079 47.0179 28.0147 48.0138C31.9671 41.7184 30.8289 37.8271 29.0639 36.353V36.353Z" fill="#71BE45"/>
<path d="M35.2527 16.7298C41.8149 21.7573 36.044 24.3237 36.044 24.3237C39.7698 27.4473 43.5399 21.4634 47.5857 24.8808C48.6572 25.7846 49.3419 26.8813 49.8487 28.0571C49.1685 19.8884 43.4332 13.128 35.7329 10.838C32.7097 12.1497 31.5048 13.8607 35.2527 16.7298Z" fill="#2CB5E5"/>
<path d="M19.3987 34.0673C17.9093 30.0532 19.8033 28.2018 26.2676 23.6612C34.4348 17.923 21.6616 19.9586 26.859 14.7906C28.6996 12.9612 31.2871 11.5398 33.1988 10.2588C32.1452 10.0921 31.0648 10 29.9622 10C18.9363 10 10 18.8179 10 29.6934C10 30.1321 10.0178 30.562 10.0489 30.9919C13.0589 33.747 16.7889 35.5326 19.3987 34.0673Z" fill="#1B4D4A"/>
</g>
<defs>
<clipPath id="clip0_1642_9039">
<rect width="40" height="39" fill="white" transform="translate(10 10)"/>
</clipPath>
</defs>
</svg>
