<svg width="60" height="60" viewBox="0 0 60 60" fill="none" xmlns="http://www.w3.org/2000/svg">
<rect width="60" height="60" fill="#36A857"/>
<g clip-path="url(#clip0_150_723)">
<path d="M25.8341 12.3363H22.9395V28.706H25.8341V12.3363ZM33.1557 37.8327C36.3114 37.8327 38.8654 35.2987 38.8654 32.1818V26.9457H35.9708V32.1818C35.9708 33.7178 34.7108 34.9624 33.1557 34.9624C31.6005 34.9624 30.3405 33.7178 30.3405 32.1818V26.9457H27.446V32.1818C27.446 35.3099 30 37.8327 33.1557 37.8327ZM15.7541 17.606C13.0865 17.606 10.8503 19.4112 10.226 21.8442C10.226 21.8442 9.7946 23.2569 9.7946 26.329V34.7381H12.6778V27.9996C13.5973 28.5827 14.6643 28.8966 15.7654 28.8966C18.9211 28.8966 21.4751 26.3627 21.4751 23.2457C21.4638 20.1287 18.9097 17.606 15.7541 17.606ZM15.7541 26.0375C14.1989 26.0375 12.9389 24.793 12.9389 23.2569C12.9389 21.7208 14.1989 20.4763 15.7541 20.4763C17.3092 20.4763 18.5692 21.7208 18.5692 23.2569C18.5692 24.7818 17.3092 26.0375 15.7541 26.0375ZM50.2849 21.8442C49.6492 19.3999 47.413 17.606 44.7568 17.606C41.6011 17.606 39.047 20.1399 39.047 23.2569C39.047 26.3739 41.6124 28.9078 44.7568 28.9078C45.8919 28.9078 46.9589 28.5827 47.8443 28.0108V28.7733C47.8443 38.1802 40.1027 45.8381 30.5903 45.8381C26.0724 45.8381 22.9395 44.3581 22.9395 44.3581V47.206C22.9395 47.206 26.0724 48.686 30.5903 48.686C35.88 48.686 40.886 46.6566 44.6773 42.979C48.4687 39.3015 50.6141 34.4018 50.7162 29.1769V26.3402C50.7162 23.2457 50.2849 21.8442 50.2849 21.8442ZM44.7568 26.0375C43.2016 26.0375 41.9416 24.793 41.9416 23.2569C41.9416 21.7208 43.2016 20.4763 44.7568 20.4763C46.3119 20.4763 47.5719 21.7208 47.5719 23.2569C47.5719 24.7818 46.3005 26.0375 44.7568 26.0375Z" fill="white"/>
</g>
<defs>
<clipPath id="clip0_150_723">
<rect width="42" height="37" fill="white" transform="translate(9 12)"/>
</clipPath>
</defs>
</svg>
