<svg width="60" height="60" viewBox="0 0 60 60" fill="none" xmlns="http://www.w3.org/2000/svg">
<rect width="60" height="60" fill="#ECECEC"/>
<g clip-path="url(#clip0_1772_9334)">
<path d="M35.4568 11.1198C43.4878 11.1198 49.9923 17.6824 49.9923 25.782C49.9923 30.3228 47.9587 34.3531 44.7504 37.0521L44.7142 37.0886L44.678 37.1146V37.224C43.7517 44.4144 37.6456 49.9948 30.2511 49.9948H30.1786C22.9057 49.9583 16.8927 44.5473 15.8604 37.5002V37.4299L15.8474 37.4038L15.7647 37.3439C12.2769 34.6553 10.0156 30.4323 10.0156 25.6621C10.0156 17.5625 16.5331 11 24.5641 11C26.5124 11 28.3623 11.3882 30.0596 12.089L30.1191 12.115H30.1553L30.2511 12.089C31.863 11.4611 33.6172 11.1198 35.4568 11.1198ZM30.2511 47.6214H30.3339H30.5641C35.7207 47.4886 40.0725 44.1357 41.731 39.488L41.9251 38.9305L41.3947 39.1597C39.9639 39.8136 38.4141 40.2252 36.7789 40.3711H36.7064H36.6702L36.6107 40.4545C35.1204 42.3329 32.8229 43.5313 30.2511 43.5313C25.7543 43.5313 22.0984 39.8501 22.0984 35.3092C22.0984 34.3896 22.2562 33.4934 22.5434 32.6597L22.5564 32.5868V32.5607L22.5202 32.4643C21.8112 31.0601 21.3067 29.523 21.0661 27.8896L20.9936 27.3086L20.634 27.7802C19.0221 29.8487 18.0596 32.4774 18.0596 35.3092C18.0725 42.0046 23.361 47.4287 29.9509 47.611H30.1424H30.2511V47.6214ZM29.9509 39.3525L29.9018 39.3265H29.8656L29.7828 39.3525C29.0713 39.6313 28.2071 39.8371 27.4387 40.0064L26.9212 40.1158C27.8578 40.7932 29.0117 41.1788 30.2511 41.1788C31.3455 41.1788 32.3779 40.8661 33.2446 40.3451L32.2821 40.1028L32.1735 40.0663C31.2136 39.811 30.828 39.6782 29.9613 39.3629M35.612 38.0812H35.7802C42.3701 37.8988 47.6586 32.4747 47.6715 25.7924C47.6586 19.0006 42.2123 13.5036 35.4697 13.5036C34.8436 13.5036 34.2174 13.5531 33.6042 13.6495L33.0402 13.7355L33.4956 14.0846C34.7478 15.0772 35.8423 16.2417 36.7194 17.5964L36.7556 17.6563L36.7789 17.6824L36.8746 17.7058C40.7116 18.3701 43.6198 21.7256 43.6327 25.7794V25.8054C43.6327 29.9216 40.6262 33.3345 36.7064 33.9285H36.634L36.6107 33.9415L36.5383 34.0248C35.6379 35.3457 34.5176 36.5076 33.2446 37.4507L32.7866 37.7894L33.3533 37.8988C33.9406 37.9952 34.5434 38.0577 35.167 38.0812H35.361H35.612ZM24.5874 34.0743C24.4917 34.4729 24.4425 34.8976 24.4425 35.3196C24.4425 36.2158 24.634 37.0391 24.9833 37.7894L25.0324 37.8988L25.0557 37.9483H25.2239C29.3222 37.7164 32.8824 35.4525 34.9393 32.1361L34.9988 32.0397L35.035 31.9902L34.9264 31.8573C34.1812 30.8413 33.123 30.078 31.8837 29.7158L31.7647 29.6663L31.7051 29.6429L31.5965 29.8122C30.2252 32.1725 27.7129 33.7695 24.8151 33.8685H24.6832H24.6236L24.5745 34.0483L24.5874 34.0743ZM12.3727 25.6621C12.3727 28.7493 13.5137 31.5812 15.3791 33.7252L15.7517 34.1473L15.8112 33.5898C15.9923 32.0058 16.4374 30.5026 17.0738 29.1244L17.1101 29.0619L17.1333 29.0281L17.0868 28.9186C16.665 27.9261 16.4244 26.8345 16.4244 25.6725C16.4244 21.1343 20.0803 17.4531 24.5745 17.4531C27.1954 17.4531 29.5059 18.688 30.9962 20.6132L31.0428 20.6731L31.0557 20.7096H31.1747C32.7634 20.806 34.2899 21.1707 35.6974 21.7387L36.2019 21.9445L36.0079 21.4234C34.2899 16.7393 29.8293 13.3968 24.5745 13.3968C17.8319 13.3968 12.3856 18.8938 12.3727 25.6856V25.6621ZM28.3623 29.8279C27.6896 28.6269 27.3041 27.2591 27.3041 25.782C27.3041 24.2449 27.7258 22.8172 28.4477 21.5824L28.5202 21.4599L28.5538 21.4L28.3985 21.2671C27.4723 20.4439 26.2718 19.9124 24.9471 19.8134H24.841L24.7918 19.803L24.7194 19.9489C23.7931 21.6918 23.2653 23.677 23.2653 25.782C23.2653 27.7802 23.7465 29.6559 24.5745 31.3285L24.6004 31.3753L24.6469 31.4743L24.6728 31.5212H24.828C26.1502 31.4483 27.3533 30.9533 28.3028 30.1405L28.4115 30.0571L28.4581 30.0076L28.3753 29.8617L28.3623 29.8383M37.2601 31.1461L37.3429 31.292L37.3559 31.3154L37.5473 31.2425C38.7634 30.7709 39.7595 29.9242 40.4218 28.8222L40.4684 28.7259L40.5046 28.6894L40.4089 28.5565C40.4089 28.5565 40.3856 28.52 40.3856 28.494L40.3365 28.4341L40.3132 28.421L40.2537 28.3012C38.0881 25.1906 34.5176 23.1194 30.4788 23.0361H30.383H30.3235L30.2511 23.1794C29.8656 23.9661 29.6379 24.8519 29.6379 25.795C29.6379 26.1832 29.6844 26.5687 29.7569 26.9204L29.7802 27.0663V27.1263H30.0105H30.2511C33.2317 27.1263 35.8526 28.7493 37.2705 31.1591L37.2601 31.1461ZM18.7711 25.6856C18.7711 25.8784 18.7711 26.0842 18.8073 26.29L19.3222 25.6725C19.8526 25.0447 20.308 24.5966 20.9471 24.0625L20.9936 24.0261L21.0195 24.0026V23.9062C21.1877 22.9501 21.3196 22.4056 21.5706 21.4729L21.8242 20.5273C20.0079 21.5094 18.7711 23.4451 18.7711 25.6725V25.6856ZM39.0531 23.6639C39.6663 24.1355 40.2899 24.7529 40.8306 25.3339L40.8927 25.4068L41.2886 25.8184V25.808C41.2886 23.5675 40.0389 21.6293 38.2097 20.6367L38.3313 21.0118L38.3779 21.1707L38.427 21.3401C38.6443 22.0305 38.8487 22.8042 38.9574 23.4946V23.5675L38.9678 23.604L39.0531 23.6639Z" fill="#231F20"/>
<path d="M24.5768 34.064C24.4914 34.4626 24.4449 34.8873 24.4449 35.3093C24.4449 36.2055 24.6363 37.0288 24.9856 37.7791L25.0322 37.8885L25.0555 37.938H25.2133C29.3116 37.7061 32.8847 35.4422 34.9261 32.1258L34.9882 32.0294L35.0244 31.9799L34.9157 31.847C34.1706 30.831 33.1124 30.0676 31.8731 29.7055L31.754 29.656L31.6919 29.6326L31.5962 29.8019C30.2146 32.1622 27.7023 33.7592 24.8045 33.8582H24.6725H24.613L24.5768 34.038V34.064ZM12.3491 25.6622C12.3491 28.7494 13.4901 31.5839 15.3659 33.7254L15.7282 34.15L15.8006 33.5925C15.9791 32.0059 16.4138 30.5053 17.0606 29.1141L17.0865 29.0516L17.1098 29.0282L17.0736 28.9187C16.6415 27.9262 16.4009 26.8372 16.4009 25.6753C16.4009 21.1344 20.0542 17.4558 24.5639 17.4558C27.1719 17.4558 29.4927 18.6907 30.983 20.6133L31.0192 20.6759L31.0451 20.6993H31.1512C32.7502 20.8087 34.2663 21.1708 35.6738 21.7414L36.1887 21.9472L35.9972 21.4262C34.2663 16.7394 29.8058 13.3865 24.5509 13.3865C17.8187 13.3995 12.3621 18.8965 12.3491 25.6883V25.6622Z" fill="#5091CD"/>
<path d="M35.5884 38.0707H35.7566C42.3568 37.8884 47.635 32.4643 47.6479 25.7819C47.635 18.9902 42.1887 13.4932 35.4564 13.4932C34.8148 13.4932 34.1895 13.5418 33.5806 13.6391L33.027 13.725L33.472 14.0741C34.7216 15.0667 35.8161 16.2312 36.6958 17.5859L36.7423 17.6459L36.7553 17.6719L36.864 17.6954C40.6854 18.3597 43.5962 21.7152 43.6065 25.7689V25.795C43.6065 29.9112 40.6026 33.324 36.6828 33.918H36.6104L36.5871 33.931L36.525 34.0144C35.6117 35.3352 34.5069 36.4972 33.2314 37.4403L32.763 37.7789L33.3271 37.8884C33.917 37.9847 34.5172 38.0473 35.1434 38.0707H35.3348H35.5884ZM28.3517 29.8252C27.666 28.6268 27.2831 27.2461 27.2831 25.7819C27.2831 24.2449 27.7022 22.8042 28.4241 21.5823L28.4966 21.4599L28.5328 21.4L28.3749 21.2671C27.4513 20.4439 26.2482 19.9098 24.926 19.8134H24.8303L24.7682 19.8004L24.6984 19.9463C23.7721 21.6892 23.2417 23.6743 23.2417 25.7819C23.2417 27.7801 23.7229 29.6559 24.5638 31.3258L24.5768 31.3753L24.6259 31.4717L24.6492 31.5212H24.8044C26.1266 31.4483 27.3297 30.9403 28.2792 30.1405L28.3879 30.0441L28.437 30.0076L28.3517 29.8617L28.3387 29.8383" fill="#EE3124"/>
<path d="M30.251 47.6215H30.3338H30.5641C35.7206 47.4886 40.0725 44.1357 41.731 39.488L41.925 38.9305L41.3946 39.1598C39.9638 39.8137 38.414 40.2253 36.7788 40.3712H36.7064H36.6702L36.6107 40.4546C35.1204 42.3329 32.8228 43.5313 30.251 43.5313C25.7543 43.5313 22.0984 39.8502 22.0984 35.3093C22.0984 34.3896 22.2562 33.4935 22.5434 32.6598L22.5563 32.5868V32.5608L22.5201 32.4644C21.8112 31.0602 21.3067 29.5231 21.066 27.8896L20.9936 27.3087L20.634 27.7802C19.0221 29.8488 18.0596 32.4774 18.0596 35.3093C18.0725 42.0047 23.361 47.4287 29.9509 47.6111H30.1424H30.251V47.6215ZM37.273 31.1305L37.3558 31.2764L37.3688 31.2999L37.5602 31.2295C38.7737 30.7554 39.7724 29.9087 40.4347 28.8067L40.4813 28.7103L40.5175 28.6738L40.4218 28.5409C40.4218 28.5409 40.3985 28.5045 40.3985 28.481L40.3493 28.4185L40.3261 28.4081L40.2536 28.2856C38.0906 25.175 34.5305 23.1039 30.4917 23.0205H30.3959H30.3338L30.264 23.1664C29.8785 23.9532 29.6508 24.8363 29.6508 25.7794C29.6508 26.1676 29.6973 26.5558 29.7698 26.9075L29.7931 27.0508V27.1133H30.0233H30.264C33.2446 27.1133 35.8655 28.7337 37.2834 31.1436L37.273 31.1305Z" fill="white"/>
</g>
<defs>
<clipPath id="clip0_1772_9334">
<rect width="40" height="39" fill="white" transform="translate(10 11)"/>
</clipPath>
</defs>
</svg>
