<svg width="60" height="60" viewBox="0 0 60 60" fill="none" xmlns="http://www.w3.org/2000/svg">
<rect width="60" height="60" fill="#1D3A4D"/>
<g clip-path="url(#clip0_150_967)">
<path d="M48.4363 26.8971H48.2854C41.5136 18.0894 30.0243 12.8495 20.422 12.8495C13.2539 12.8495 9.37202 16.7868 9.37202 21.2203C9.37741 21.5116 9.39268 21.8019 9.41784 22.0914C9.44121 22.3809 9.47535 22.6694 9.52028 22.9571C9.56341 23.2447 9.61643 23.5297 9.67933 23.812C9.74223 24.096 9.81412 24.3774 9.89499 24.656H9.74673C9.62632 24.3324 9.52028 24.0043 9.42863 23.6717C9.33697 23.3391 9.25969 23.0029 9.19679 22.6631C9.13389 22.3233 9.08626 21.9817 9.05392 21.6383C9.02157 21.2931 9.00359 20.948 9 20.6028C9 15.7971 13.4723 12 20.3653 12C32.065 12 42.848 18.7959 48.4363 26.8971Z" fill="white"/>
<path fill-rule="evenodd" clip-rule="evenodd" d="M50.8706 43.4931H50.9946C49.6278 47.2875 45.9832 48.9865 40.9502 48.9865C34.0895 48.9865 27.1047 45.1894 22.9047 41.368C22.5893 41.5325 22.2685 41.6782 21.937 41.8049C21.6054 41.9317 21.2657 42.0395 20.9234 42.1258C20.5783 42.2121 20.2305 42.2795 19.8801 42.3281C19.5269 42.3739 19.1738 42.4009 18.8207 42.4063H18.6427C14.9307 42.4009 11.5852 40.1599 10.1699 36.7269C8.75198 33.2938 9.54184 29.3457 12.1702 26.7217C14.7986 24.0978 18.7479 23.3157 22.1742 24.7423C25.6032 26.1662 27.8353 29.5183 27.8299 33.2318V33.2723C27.8299 33.906 27.7598 34.5398 27.6277 35.1573C27.4956 35.7776 27.2988 36.3817 27.04 36.9615C26.7839 37.5386 26.4658 38.0914 26.0965 38.6038C25.7245 39.1162 25.3013 39.5908 24.8322 40.0169C29.0106 44.0298 35.1273 48.199 41.4165 48.199C46.3228 48.199 49.7033 46.5405 50.8706 43.4985V43.4931ZM19.225 39.7661C19.4119 39.75 19.5979 39.7257 19.783 39.6933C19.9664 39.6592 20.1488 39.6178 20.3303 39.5693C20.5118 39.5207 20.6906 39.4641 20.8667 39.3994C20.5253 39.0596 20.1901 38.7144 19.8612 38.3638C19.5305 38.0132 19.2061 37.6572 18.888 37.2959C18.5699 36.9345 18.2581 36.5686 17.9526 36.1983C17.6471 35.8261 17.3479 35.4495 17.0549 35.0683H20.4273C20.625 35.3344 20.8263 35.5978 21.0312 35.8585C21.2361 36.1192 21.4445 36.3772 21.6566 36.6325C21.8687 36.8878 22.0843 37.1404 22.3036 37.3903C22.5228 37.6402 22.7457 37.8865 22.9721 38.1292C23.0674 38.0447 23.1599 37.9566 23.2498 37.8649C23.3397 37.775 23.4268 37.6815 23.5113 37.5844C23.5958 37.4891 23.6775 37.3912 23.7566 37.2905C23.8339 37.1898 23.9094 37.0873 23.983 36.983C24.4737 36.2684 24.8214 35.4674 25.0047 34.6207C25.188 33.7739 25.2015 32.8974 25.0452 32.0452C24.8915 31.193 24.5707 30.3813 24.1017 29.6532C23.6326 28.925 23.0233 28.2967 22.3144 27.8032C20.5945 26.6759 18.4459 26.4278 16.5158 27.1263C14.5856 27.8274 13.0975 29.397 12.4991 31.3629C11.9006 33.3289 12.2619 35.4621 13.475 37.1206C14.6854 38.7791 16.6074 39.7688 18.6616 39.7931C18.8503 39.7931 19.0381 39.7841 19.225 39.7661Z" fill="white"/>
<path d="M40.0525 26.8432L37.9821 28.2563C37.2759 27.1695 36.3674 26.56 35.2891 26.56C33.7687 26.56 32.7173 27.5309 32.7173 28.7525C32.7173 29.6155 33.3562 30.5728 34.6367 31.1014L36.4024 31.8296C38.7774 32.8004 40.5485 34.5722 40.5485 37.1719C40.5485 40.3218 38.0037 42.4064 34.9979 42.4064C34.3456 42.4037 33.6959 42.2958 33.0786 42.0855C32.4612 41.8724 31.8816 41.5623 31.3667 41.1658C30.8492 40.7667 30.399 40.2867 30.035 39.7446C29.6711 39.2026 29.3988 38.6039 29.229 37.9728L31.5177 37.1503C32.0515 38.8844 33.3751 39.9011 35.1004 39.9011C36.5507 39.9011 37.8554 38.8898 37.8554 37.3499C37.8554 36.0797 37.0332 34.9309 35.3376 34.1973L33.6339 33.4854C31.2104 32.4579 30.0027 30.6996 30.0027 28.7309C30.0027 26.1636 32.0245 24.052 35.316 24.052C37.2974 24.052 38.9796 24.9824 40.0525 26.8432Z" fill="white"/>
</g>
<defs>
<clipPath id="clip0_150_967">
<rect width="42" height="37" fill="white" transform="translate(9 12)"/>
</clipPath>
</defs>
</svg>
