<svg width="60" height="60" viewBox="0 0 60 60" fill="none" xmlns="http://www.w3.org/2000/svg">
<rect width="60" height="60" fill="#EB1C31"/>
<g clip-path="url(#clip0_1772_9344)">
<path fill-rule="evenodd" clip-rule="evenodd" d="M21.8306 24H25.9605L26.4882 24.0259L26.7232 24.0551L26.9439 24.0956L27.1428 24.1545L27.3236 24.2242L27.4827 24.3086L27.6273 24.4079L27.7506 24.5253L27.8443 24.6576L27.924 24.8083L27.9782 24.9774L28.0107 25.1649L28.0218 25.3669L28.0037 25.5945L27.9602 25.8408L27.8841 26.1419L27.772 26.4212L27.631 26.6822L27.4432 26.9135L27.2151 27.1231L26.9402 27.2959L26.6114 27.4463L26.2243 27.5602V27.5898L26.4594 27.6228L26.662 27.6742L26.8284 27.7552L26.9657 27.8579L27.0742 27.9865L27.1502 28.1372L27.2007 28.3172L27.2225 28.5155L27.2188 28.7656L27.2007 29.0483L27.1358 29.7025L27.0849 30.4445V30.8415L27.1103 31.2419H24.3907L24.3764 30.7714L24.3981 30.2315L24.4631 29.1731V29.0445L24.445 28.938L24.4088 28.8462L24.3546 28.7802L24.2752 28.7288L24.1811 28.6955L24.0546 28.6737L23.9099 28.6662H23.5701L23.0346 31.2419H20.3335L21.8306 24ZM24.1376 27.0275L24.3402 27.0166L24.5247 26.9907L24.6911 26.9319L24.8395 26.8584L24.966 26.7594L25.0778 26.6308L25.1539 26.4692L25.2081 26.2855L25.2336 26.1052L25.2155 25.9619L25.1575 25.8555L25.0708 25.7745L24.955 25.716L24.8066 25.6793L24.6332 25.6609L24.4417 25.6571H24.2029L23.9173 27.0275H24.1376Z" fill="white"/>
<path fill-rule="evenodd" clip-rule="evenodd" d="M28.752 31.3889L27.8335 26.2083H30.3214L30.4336 28.971H30.4554L31.6631 26.2083H34.0067L30.2638 33.178H27.7144L28.752 31.3889Z" fill="white"/>
<path fill-rule="evenodd" clip-rule="evenodd" d="M36.5161 30.6649L36.3172 30.8633L36.1109 31.0215L35.9013 31.1501L35.6914 31.2419L35.4744 31.3154L35.2648 31.3559L35.0552 31.3814L34.8489 31.3889L34.6356 31.3814L34.433 31.3484L34.2448 31.2895L34.0714 31.216L33.9124 31.1171L33.7677 30.9993L33.6448 30.8561L33.5363 30.6945L33.4493 30.5142L33.3736 30.3121L33.3264 30.0917L33.2939 29.8457L33.2832 29.581L33.2976 29.2946L33.3338 28.9932L33.395 28.6662L33.4747 28.3209L33.5725 28.0049L33.681 27.7184L33.8039 27.4537L33.9411 27.2112L34.0895 26.9982L34.2448 26.8108L34.4113 26.6454L34.5777 26.4985L34.7622 26.3736L34.9467 26.2743L35.1345 26.1899L35.3264 26.1273L35.5216 26.0868L35.7131 26.0613L35.912 26.0538L36.1109 26.0613L36.3098 26.0868L36.4906 26.1273L36.6714 26.1899L36.8342 26.2705L36.9862 26.3807L37.1198 26.5131L37.243 26.6713L37.7818 24H40.1504L38.6423 31.2419H36.4364L36.5161 30.6649ZM36.939 27.9498L36.9356 27.8433L36.9139 27.7514L36.8814 27.6704L36.8415 27.6045L36.7799 27.5531L36.7113 27.5126L36.6283 27.4905L36.5379 27.4796L36.3677 27.5014L36.2231 27.5602L36.1615 27.6082L36.1039 27.6596L36.0061 27.8028L35.9194 27.9828L35.8508 28.1961L35.7312 28.7322L35.6408 29.2065L35.6264 29.4194L35.6371 29.5994L35.6733 29.7539L35.7094 29.8161L35.7493 29.8678L35.8072 29.9117L35.8688 29.9447L35.9482 29.9631L36.0349 29.9668L36.2087 29.9447L36.3353 29.8862L36.4364 29.8015L36.5161 29.6988L36.5991 29.5555L36.6714 29.3535L36.7438 29.0779L36.8124 28.7322L36.9102 28.2512L36.932 28.1005L36.939 27.9498Z" fill="white"/>
<path fill-rule="evenodd" clip-rule="evenodd" d="M44.8554 29.6323L44.772 29.8381L44.6779 30.0331L44.5661 30.2168L44.4429 30.3893L44.3019 30.5437L44.1465 30.6907L43.9764 30.8193L43.7886 30.9366L43.5823 31.0435L43.3617 31.1353L43.1229 31.2088L42.8698 31.2748L42.5952 31.3224L42.3022 31.3629L41.9912 31.3813L41.6583 31.3888L41.3945 31.3813L41.134 31.3558L40.8882 31.3153L40.6531 31.2564L40.4325 31.1755L40.2336 31.0727L40.0491 30.955L39.883 30.808L39.7417 30.6393L39.6225 30.4444L39.5284 30.2277L39.4635 29.9814L39.4273 29.7058L39.4199 29.4047L39.4491 29.0703L39.514 28.7066L39.59 28.3868L39.6875 28.0891L39.807 27.8102L39.948 27.553L40.107 27.3142L40.2878 27.0971L40.483 26.8988L40.693 26.7263L40.9281 26.5681L41.1701 26.4324L41.4306 26.3184L41.7056 26.2228L41.9949 26.1493L42.2949 26.0942L42.6059 26.0612L42.9314 26.0537L43.2606 26.0612L43.5642 26.1017L43.8428 26.1568L44.096 26.2337L44.32 26.333L44.5152 26.4541L44.689 26.6011L44.8373 26.7664L44.9602 26.9501L45.0506 27.1597L45.1266 27.3877L45.1661 27.6336L45.1842 27.9021L45.1809 28.1885L45.148 28.4971L45.0868 28.824L45.0108 29.173H41.6583L41.6222 29.3237L41.5971 29.5258L41.5897 29.6987L41.6078 29.8381L41.655 29.9559L41.7236 30.044L41.8247 30.11L41.9513 30.1433L42.114 30.1579L42.2155 30.1467L42.3093 30.1249L42.5011 30.0218L42.5879 29.9521L42.6709 29.864L42.7399 29.7538L42.8011 29.6323H44.8554ZM43.1303 28.1004L43.1447 28.034L43.1665 27.8653L43.1628 27.7183L43.134 27.5897L43.0834 27.4866L43.0111 27.3985L42.917 27.3434L42.8011 27.3104L42.6676 27.2958L42.5299 27.3104L42.3997 27.3434L42.2878 27.3985L42.1757 27.4866L42.0853 27.5897L42.0092 27.7183L41.9443 27.8653L41.8934 28.034L41.8646 28.1004H43.1303Z" fill="white"/>
<path fill-rule="evenodd" clip-rule="evenodd" d="M48.2112 26.1385L47.9725 27.2958H47.9869L48.1533 27.0274L48.3378 26.7848L48.5404 26.5681L48.7537 26.3807L48.9887 26.2266L49.2345 26.1164L49.495 26.0429L49.6289 26.0245L49.7699 26.0208L49.9688 26.0282L50.1459 26.0537L49.7301 28.1004L49.5024 28.0562L49.2094 28.0341L49.0791 28.0378L48.9563 28.0637L48.7101 28.1372L48.4751 28.262L48.2618 28.4199L48.0629 28.6186L47.9038 28.8461L47.7736 29.1033L47.6942 29.3751L47.3072 31.2419H44.9204L45.9584 26.1385H48.2112Z" fill="white"/>
<path fill-rule="evenodd" clip-rule="evenodd" d="M20.4275 24.5069L19.6027 24.676L18.8182 24.8709L18.0732 25.0947L17.375 25.3336L16.7208 25.5945L16.113 25.8776L15.5562 26.1824L15.2994 26.3406L15.0573 26.5022L19.7872 27.6007L19.7112 27.9497L9 25.4108H15.7444L16.2651 25.2125L16.8145 25.0213L17.3787 24.8488L17.9684 24.6872L18.5758 24.5402L19.2013 24.4116L19.8452 24.3014L20.5031 24.2058L20.4275 24.5069Z" fill="black"/>
<path fill-rule="evenodd" clip-rule="evenodd" d="M29.0957 35.3387L29.7901 34.0231L28.8064 34.1408L27.7868 34.2364L26.7307 34.2953L25.6495 34.317L25.013 34.3099L24.3801 34.2878L23.1506 34.2105L21.9609 34.0857L20.8218 33.9129L19.7369 33.6999L18.7133 33.4427L17.7586 33.1488L17.3103 32.9872L16.88 32.8181L16.4678 32.6381L16.0734 32.4544L15.7084 32.2595L15.3612 32.0574L15.0394 31.8482L14.7354 31.6315L14.4678 31.4073L14.2147 31.1831L13.9941 30.9517L13.7988 30.7092L13.629 30.4629L13.4914 30.2132L13.383 29.9631L13.3036 29.7025L13.2601 29.4378L13.242 29.1731L13.2527 28.9126L13.3036 28.6516L13.3793 28.3944L13.4878 28.1372L13.6254 27.8872L13.7952 27.6375L13.9907 27.3949L14.2147 27.1598L13.1623 26.9319L12.96 27.101L12.7682 27.2738L12.591 27.4463L12.421 27.6266L12.2656 27.8103L12.1246 27.9974L11.8751 28.3798L11.6796 28.7727L11.6002 28.9748L11.5387 29.1731L11.4844 29.3827L11.4446 29.5885L11.4194 30.0111L11.4338 30.3159L11.4844 30.6245L11.5604 30.9221L11.6652 31.2198L11.8028 31.5063L11.9619 31.7968L12.1571 32.0758L12.3741 32.3442L12.6165 32.6085L12.8877 32.8695L13.1804 33.1195L13.4951 33.3617L13.835 33.5972L14.1966 33.8248L14.58 34.0415L14.9851 34.251L15.4044 34.4494L15.8494 34.6331L16.3084 34.813L16.7859 34.9784L17.2815 35.1328L17.7911 35.2798L18.8579 35.5295L19.979 35.7282L21.1435 35.8752L21.7509 35.9265L22.3587 35.967L22.9805 35.9888L23.6063 36L24.3296 35.9888L25.0491 35.952L25.765 35.8935L26.4595 35.8201L27.1466 35.7245L27.8156 35.6105L28.4628 35.4819L29.0957 35.3387Z" fill="black"/>
</g>
<defs>
<clipPath id="clip0_1772_9344">
<rect width="42" height="12" fill="white" transform="translate(9 24)"/>
</clipPath>
</defs>
</svg>
