<svg width="60" height="60" viewBox="0 0 60 60" fill="none" xmlns="http://www.w3.org/2000/svg">
<rect width="60" height="60" fill="black"/>
<g clip-path="url(#clip0_1772_9402)">
<path d="M45.7163 18.4645C46.1836 18.9055 46.6308 19.3658 47.08 19.8261C47.1169 18.8821 47.1537 17.938 47.1917 16.9654C48.0393 16.9654 48.8869 16.9654 49.7602 16.9654C49.768 19.2871 49.774 21.6088 49.7776 23.9305C49.7793 25.0087 49.7816 26.0869 49.7855 27.1651C49.7889 28.1058 49.791 29.0465 49.7917 29.9872C49.7922 30.4844 49.7932 30.9817 49.7956 31.4789C49.8124 35.0102 49.7462 38.7461 47.198 41.4524C47.0483 41.6065 46.8967 41.7586 46.745 41.9106C46.6743 41.9867 46.6036 42.0628 46.5308 42.1412C44.8981 43.7809 42.2965 44.3044 40.1073 44.3422C37.3856 44.29 34.9027 43.5419 32.8972 41.5673C32.1058 40.6668 31.2221 39.3957 31.2221 38.1345C32.2171 38.1345 33.2122 38.1345 34.2373 38.1345C34.569 38.7576 34.569 38.7576 34.9074 39.3932C35.9151 40.7407 37.2558 41.3824 38.8867 41.6286C40.9291 41.8186 42.8968 41.4169 44.5115 40.0798C44.622 39.9908 44.7326 39.9019 44.8465 39.8102C46.2027 38.5852 46.9336 36.6333 47.08 34.8161C47.0941 34.3956 47.0945 33.9778 47.08 33.5574C47.0149 33.6363 46.9499 33.7152 46.8828 33.7965C45.332 35.6179 43.4177 36.818 41.0495 37.1046C38.1258 37.2801 35.3232 36.6739 33.0787 34.6373C32.9057 34.4689 32.7335 34.2997 32.5622 34.1295C32.4938 34.0679 32.4255 34.0062 32.355 33.9427C30.6974 32.3959 29.8511 29.9615 29.6587 27.7216C29.5374 24.9191 30.1309 22.1847 32.0038 20.0549C32.0519 20 32.1 19.9452 32.1495 19.8886C35.3738 16.2594 41.9008 14.9691 45.7163 18.4645Z" fill="#759A28"/>
<path d="M44.288 20.6269C44.4055 20.7166 44.523 20.8063 44.644 20.8987C46.0995 22.2907 47.0671 24.3031 47.1916 26.3483C47.2004 26.4848 47.2004 26.4848 47.2095 26.6241C47.2802 28.7651 46.5061 30.6488 45.1308 32.2288C43.8104 33.6149 42.0915 34.5983 40.1767 34.6306C37.8911 34.6259 36.2182 33.9792 34.5723 32.2985C34.4675 32.1952 34.4675 32.1952 34.3607 32.0898C32.8864 30.5177 32.3901 28.3768 32.4278 26.2549C32.5049 24.1498 33.471 22.2747 34.9409 20.8325C37.694 18.4133 41.4821 18.3135 44.288 20.6269Z" fill="black"/>
<path d="M10.0282 16.9653C10.8759 16.9653 11.7235 16.9653 12.5968 16.9653C12.5984 17.3342 12.6 17.703 12.6017 18.083C12.6074 19.3071 12.6148 20.5311 12.6231 21.7551C12.6281 22.4966 12.6325 23.2381 12.6355 23.9796C12.6384 24.6963 12.6429 25.413 12.6485 26.1297C12.6504 26.402 12.6516 26.6743 12.6523 26.9466C12.6455 30.2817 12.6455 30.2817 14.0438 33.2136C15.0983 34.2734 16.5358 34.5751 17.9642 34.6158C19.496 34.5978 21.1031 34.1808 22.2471 33.0773C23.507 31.6082 23.7763 29.8684 23.7872 27.9812C23.7884 27.8617 23.7894 27.7421 23.7906 27.6189C23.7941 27.2264 23.7969 26.8339 23.7996 26.4414C23.8019 26.1682 23.8043 25.895 23.8067 25.6218C23.8128 24.9047 23.8183 24.1876 23.8237 23.4705C23.8294 22.738 23.8356 22.0054 23.8417 21.2729C23.8537 19.8371 23.865 18.4012 23.876 16.9653C24.7604 16.9653 25.6449 16.9653 26.5562 16.9653C26.5562 23.4602 26.5562 29.9551 26.5562 36.6469C25.6717 36.6469 24.7873 36.6469 23.876 36.6469C23.8391 36.0427 23.8023 35.4385 23.7643 34.816C23.4879 35.0992 23.4879 35.0992 23.2059 35.3882C21.7046 36.7581 19.9459 37.1717 17.9711 37.1475C17.8342 37.1465 17.6972 37.1453 17.5561 37.1442C15.4889 37.109 13.618 36.6372 12.0462 35.1897C11.073 34.1526 10.5214 32.6606 10.2516 31.2688C10.2328 31.1727 10.2139 31.0765 10.1945 30.9775C9.96015 29.5691 10.0002 28.1561 10.0064 26.7319C10.0068 26.4494 10.0072 26.1669 10.0074 25.8845C10.0082 25.1459 10.0104 24.4074 10.0129 23.6689C10.0152 22.9133 10.0162 22.1577 10.0173 21.4021C10.0197 19.9232 10.0236 18.4443 10.0282 16.9653Z" fill="#771471"/>
</g>
<defs>
<clipPath id="clip0_1772_9402">
<rect width="40" height="29" fill="white" transform="translate(10 16)"/>
</clipPath>
</defs>
</svg>
