<svg width="60" height="60" viewBox="0 0 60 60" fill="none" xmlns="http://www.w3.org/2000/svg">
<rect width="60" height="60" fill="black"/>
<g clip-path="url(#clip0_168_463)">
<path d="M14.0636 31.1898L15.2725 33.4679H13.0294L12.0086 31.521H11.0415V33.4679H9V26.5666H12.7339C14.2785 26.5666 15.2591 27.4493 15.2591 29.0366C15.2591 30.058 14.8024 30.7896 14.0636 31.1898ZM11.0415 28.3602V29.7267H12.4921C12.9219 29.7267 13.1905 29.4644 13.1905 29.0366C13.1905 28.6087 12.9219 28.3602 12.4921 28.3602H11.0415ZM21.7598 33.9781L15.6486 32.2803L17.2872 26L20.3428 26.8489L23.3984 27.6977L21.7598 33.9781ZM20.6047 29.354L18.8989 28.8709L18.4423 30.6239L20.1481 31.1071L20.6047 29.354ZM30.3962 31.521C30.3962 32.8461 29.5769 33.4679 28.3009 33.4679H24.2984V26.5666H28.1666C29.4426 26.5666 30.2619 27.243 30.2619 28.43C30.2619 29.1753 29.9933 29.6724 29.4829 30.0174C30.0604 30.2788 30.3962 30.8034 30.3962 31.521ZM26.2863 28.2229V29.2443H27.6152C27.9779 29.2443 28.1928 29.0787 28.1928 28.7198C28.1928 28.3886 27.9779 28.2229 27.6152 28.2229H26.2863ZM26.2863 31.8116H27.7771C28.1263 31.8116 28.3285 31.6184 28.3285 31.287C28.3285 30.9282 28.1271 30.7626 27.7771 30.7626H26.2863V31.8116ZM31.4036 26.5666H33.4448V31.4245H36.3728V33.4679H31.4033L31.4036 26.5666ZM43.8813 30.0174C43.8813 30.7272 43.6765 31.421 43.2928 32.0112C42.9091 32.6014 42.3636 33.0613 41.7256 33.3329C41.0875 33.6045 40.3853 33.6756 39.7079 33.5371C39.0305 33.3986 38.4083 33.0569 37.9199 32.555C37.4315 32.0531 37.0989 31.4137 36.9642 30.7175C36.8294 30.0214 36.8986 29.2998 37.1629 28.6441C37.4272 27.9884 37.8748 27.4279 38.4491 27.0336C39.0233 26.6392 39.6985 26.4288 40.3892 26.4288C40.848 26.4278 41.3024 26.52 41.7265 26.6999C42.1505 26.8799 42.5358 27.1442 42.8603 27.4775C43.1847 27.8108 43.4419 28.2067 43.6171 28.6425C43.7924 29.0782 43.8821 29.5452 43.8813 30.0167V30.0174ZM41.8397 30.0174C41.8397 29.1615 41.1816 28.4852 40.3892 28.4852C39.5967 28.4852 38.9385 29.1615 38.9385 30.0174C38.9385 30.8733 39.5967 31.5495 40.3892 31.5495C41.1816 31.5495 41.8397 30.8723 41.8397 30.0167V30.0174ZM48.7972 29.9069L51 33.4679H48.5683L47.36 31.4382L46.1109 33.4679H43.6396L45.9363 29.9895L43.8276 26.5666H46.2586L47.3734 28.43L48.4479 26.5666H50.8655L48.7972 29.9069Z" fill="white"/>
</g>
<defs>
<clipPath id="clip0_168_463">
<rect width="42" height="8" fill="white" transform="translate(9 26)"/>
</clipPath>
</defs>
</svg>
