<svg width="60" height="60" viewBox="0 0 60 60" fill="none" xmlns="http://www.w3.org/2000/svg">
<rect width="60" height="60" fill="#001871"/>
<g clip-path="url(#clip0_1685_8722)">
<path d="M12.1737 22.5916L11 10.9409L18.1775 15.9155L15.6363 18.631L19.674 21.2958L25.7305 18.6986L23.3947 15.8085L29.6097 10.0169L35.8247 15.8028L33.489 18.693L39.5455 21.2901L43.5832 18.6254L41.042 15.9099L48.2136 10.9409L47.0398 22.5916H12.1737ZM12.385 24.693L12.7724 28.569H25.7012V41.9831H19.4099C18.0073 41.9831 16.7924 40.9465 16.7924 39.7352C16.7924 38.524 18.1305 37.4761 19.6036 36.6704L13.1538 32.3831L14.3393 44.1972L29.6039 49.769L44.8684 44.1972L46.0539 32.3831L39.6042 36.6704C41.0772 37.4817 42.4153 38.5296 42.4153 39.7352C42.4153 40.9409 41.2005 41.9831 39.7978 41.9831H33.5124V28.569H46.4354L46.8286 24.693H12.385Z" fill="white"/>
</g>
<defs>
<clipPath id="clip0_1685_8722">
<rect width="38" height="40" fill="white" transform="translate(11 10)"/>
</clipPath>
</defs>
</svg>
