<svg width="60" height="60" viewBox="0 0 60 60" fill="none" xmlns="http://www.w3.org/2000/svg">
<rect width="60" height="60" fill="#A1282A"/>
<g clip-path="url(#clip0_1534_8425)">
<path d="M30.358 27.4943C29.6262 27.0625 28.5886 26.8918 27.2548 26.8918H24.6058V34.3595H27.3287C28.255 34.3595 29.07 34.2916 29.7374 34.0529C31.9458 33.2597 32.6717 28.8893 30.3665 27.5068L30.358 27.4943ZM29.0335 32.7193C28.6999 32.9588 28.1811 33.0608 27.5137 33.0608H26.3039V28.1218H27.3652C28.1064 28.1218 28.6999 28.2245 29.07 28.4981C30.0252 29.2026 30.1254 31.8648 29.0335 32.7193ZM33.0962 34.3595H34.7943V31.0442H37.3414V29.7446H34.7943V28.5494H38.1905V26.8918H33.0962V34.3595ZM39.8886 34.3512L41.5867 34.3595V26.8918H39.8886V34.3512ZM50.0771 26.8918H48.379V31.3036L44.5192 26.8918H43.2847V34.3595H44.9828V29.7454L48.4834 34.3595H50.0771V26.8918ZM17.3626 34.667C17.214 34.5991 17.0289 34.4963 16.5848 33.8133L15.695 32.4798L14.6575 30.9075L14.5836 30.7707C14.621 30.7707 14.6949 30.7376 14.7322 30.7376C15.9175 30.3613 16.6214 29.37 16.6214 27.9345C16.6214 27.2167 16.325 26.5669 15.7324 26.0887C15.6585 26.0207 15.5473 25.9519 15.4726 25.8839C14.6575 25.4049 13.5835 25.2341 12.1758 25.2341H9.28561C9.13788 25.2341 9.10052 25.3369 9.17524 25.4049C9.24911 25.4737 9.32297 25.5756 9.32297 25.8491V33.7106C9.28561 34.0172 9.2126 34.1208 9.17439 34.1888C9.10052 34.2576 9.13788 34.3595 9.32297 34.3595H11.0211V31.0442H12.3609L12.9908 32.0355L13.7686 33.2663L14.1396 33.8813C14.5837 34.5651 14.9912 35.0085 15.695 35.1113C15.7698 35.1113 16.1399 35.1801 16.2877 35.1801H16.4363C16.7334 35.1801 17.0289 35.0773 17.214 35.0093C17.214 35.0093 17.2513 34.9754 17.2887 34.9754C17.5477 34.8386 17.4738 34.7018 17.3626 34.667ZM12.7191 29.3783H11.0211V26.8918H12.731C13.7669 26.8918 14.621 26.8114 14.621 28.0712C14.621 28.4815 14.5718 29.3783 12.7191 29.3783ZM19.936 31.0359H22.4832V29.7927H19.936V28.5494H23.3322V26.8918H18.2379V34.3595H23.3322V32.6936H19.936V31.0359Z" fill="#FEFEFD"/>
</g>
<defs>
<clipPath id="clip0_1534_8425">
<rect width="42" height="11" fill="white" transform="translate(9 25)"/>
</clipPath>
</defs>
</svg>
