<svg width="60" height="60" viewBox="0 0 60 60" fill="none" xmlns="http://www.w3.org/2000/svg">
<rect width="60" height="60" fill="black"/>
<g clip-path="url(#clip0_1403_9033)">
<path d="M15.9484 30.8518C15.7814 30.8466 15.6216 30.8453 15.5104 30.8492H13.6294L13.6256 19.0842C13.6307 17.8036 13.8902 17.3773 15.2351 17.3411C15.8392 17.3415 16.3966 17.342 16.4611 17.342C16.9263 17.342 17.2272 17.342 17.4969 17.3415C17.4964 17.3415 17.4956 17.342 17.4956 17.342C22.7922 17.342 25.3022 20.0711 25.3022 24.0304C25.3022 27.7778 22.5575 30.8501 18.5314 30.8501L15.9484 30.8518ZM50.2278 43.6662C48.8335 43.6662 48.4799 43.3248 48.4277 42.23V18.7743C48.4799 17.6795 48.8335 17.3382 50.2278 17.3382C50.576 17.3382 50.807 17.3369 50.807 17.3369V17.1974H48.43L46.2753 17.1961L43.905 17.1974V17.3387H44.4724C45.9308 17.3387 46.2503 17.7126 46.2776 18.9309V30.8496H33.2578V19.1189H33.2655C33.2655 17.7915 33.5252 17.3648 34.9355 17.3395L35.7833 17.34V17.1991H28.8409V17.3391H29.4146C30.849 17.3574 31.1177 17.7773 31.1204 19.101V43.6547H30.9271C29.0511 43.6547 28.6616 42.442 27.8382 40.6517C25.2823 35.0928 23.7214 31.7502 17.192 30.9835H18.551C22.2458 30.9688 27.4311 29.6143 27.4311 23.9853C27.4311 17.5772 20.313 17.2005 18.4738 17.195H18.4329C15.547 17.195 12.8813 17.1989 9.19287 17.1989V17.3379C9.21371 17.3375 9.30546 17.3379 9.65404 17.3379C11.1819 17.3379 11.4601 17.7477 11.4615 19.1095V42.1807C11.4187 43.2805 11.0943 43.6444 9.78205 43.6651L9.38307 43.6655C9.25647 43.6655 9.21195 43.6646 9.19833 43.6642V43.6655H9.19319V43.805H9.19833H12.7614H16.3127V43.6655L15.8992 43.665C15.8902 43.6655 15.8652 43.6646 15.8084 43.665L15.2855 43.6641C13.8884 43.6361 13.6306 43.2076 13.6306 41.8852H13.6255L13.628 30.9828C14.3311 30.9833 14.3801 30.9828 15.1981 30.9828H15.4781C17.4576 30.9828 19.255 31.426 20.5468 32.4869C24.159 35.4537 24.3619 43.805 30.4069 43.805H31.7931H35.9086V43.6655C35.9086 43.6655 35.4593 43.665 35.2727 43.6655L35.0485 43.665C33.5393 43.6611 33.2656 43.2466 33.2656 41.8852H33.2578V30.9791H46.2775V42.0738C46.2502 43.292 45.9308 43.6655 44.4724 43.6655H43.905V43.805H44.0113H47.3565H50.807V43.6655L50.2278 43.6662Z" fill="white"/>
<path d="M15.9484 30.8518C15.7814 30.8466 15.6216 30.8453 15.5104 30.8492H13.6294L13.6256 19.0842C13.6307 17.8036 13.8902 17.3773 15.2351 17.3411C15.8392 17.3415 16.3966 17.342 16.4611 17.342C16.9263 17.342 17.2272 17.342 17.4969 17.3415C17.4964 17.3415 17.4956 17.342 17.4956 17.342C22.7922 17.342 25.3022 20.0711 25.3022 24.0304C25.3022 27.7778 22.5575 30.8501 18.5314 30.8501L15.9484 30.8518ZM50.2278 43.6662C48.8335 43.6662 48.4799 43.3248 48.4277 42.23V18.7743C48.4799 17.6795 48.8335 17.3382 50.2278 17.3382C50.576 17.3382 50.807 17.3369 50.807 17.3369V17.1974H48.43L46.2753 17.1961L43.905 17.1974V17.3387H44.4724C45.9308 17.3387 46.2503 17.7126 46.2776 18.9309V30.8496H33.2578V19.1189H33.2655C33.2655 17.7915 33.5252 17.3648 34.9355 17.3395L35.7833 17.34V17.1991H28.8409V17.3391H29.4146C30.849 17.3574 31.1177 17.7773 31.1204 19.101V43.6547H30.9271C29.0511 43.6547 28.6616 42.442 27.8382 40.6517C25.2823 35.0928 23.7214 31.7502 17.192 30.9835H18.551C22.2458 30.9688 27.4311 29.6143 27.4311 23.9853C27.4311 17.5772 20.313 17.2005 18.4738 17.195H18.4329C15.547 17.195 12.8813 17.1989 9.19287 17.1989V17.3379C9.21371 17.3375 9.30546 17.3379 9.65404 17.3379C11.1819 17.3379 11.4601 17.7477 11.4615 19.1095V42.1807C11.4187 43.2805 11.0943 43.6444 9.78205 43.6651L9.38307 43.6655C9.25647 43.6655 9.21195 43.6646 9.19833 43.6642V43.6655H9.19319V43.805H9.19833H12.7614H16.3127V43.6655L15.8992 43.665C15.8902 43.6655 15.8652 43.6646 15.8084 43.665L15.2855 43.6641C13.8884 43.6361 13.6306 43.2076 13.6306 41.8852H13.6255L13.628 30.9828C14.3311 30.9833 14.3801 30.9828 15.1981 30.9828H15.4781C17.4576 30.9828 19.255 31.426 20.5468 32.4869C24.159 35.4537 24.3619 43.805 30.4069 43.805H31.7931H35.9086V43.6655C35.9086 43.6655 35.4593 43.665 35.2727 43.6655L35.0485 43.665C33.5393 43.6611 33.2656 43.2466 33.2656 41.8852H33.2578V30.9791H46.2775V42.0738C46.2502 43.292 45.9308 43.6655 44.4724 43.6655H43.905V43.805H44.0113H47.3565H50.807V43.6655L50.2278 43.6662Z" fill="white"/>
</g>
<defs>
<clipPath id="clip0_1403_9033">
<rect width="42" height="27" fill="white" transform="translate(9 17)"/>
</clipPath>
</defs>
</svg>
