<svg width="60" height="60" viewBox="0 0 60 60" fill="none" xmlns="http://www.w3.org/2000/svg">
<rect width="60" height="60" fill="#8A0E04"/>
<g clip-path="url(#clip0_1772_9343)">
<path fill-rule="evenodd" clip-rule="evenodd" d="M10.0131 15.0213C15.6243 14.9948 21.2355 15.0187 26.8466 15.0107C30.3194 15.0266 33.8027 14.9206 37.2621 15.2892C38.5111 15.4191 39.7894 15.61 40.9106 16.2067C41.4512 16.5329 41.9598 16.92 42.4019 17.3735C43.6855 18.8081 44.3034 20.7599 44.2448 22.6666C44.2821 24.2312 43.8293 25.8143 42.9079 27.0872C42.1835 28.0498 41.1955 28.8188 40.069 29.2564C39.0597 29.6436 37.9678 29.7735 36.8919 29.8027C36.8919 30.1368 36.8733 30.4683 36.8626 30.8024C37.4006 30.8369 37.9598 30.7229 38.4818 30.8899C39.0198 31.1074 39.3793 31.6165 39.5737 32.1442C40.0557 33.5577 40.5377 34.9685 41.0064 36.3845C41.2514 37.1589 42.0956 37.6521 42.8919 37.5991C43.9012 37.5805 44.9106 37.5513 45.9172 37.5116C45.9279 39.0019 45.9172 40.4896 45.9226 41.9773C43.3047 41.9826 40.6895 41.9799 38.0717 41.9799C37.2834 41.9587 36.4099 41.9587 35.7574 41.4443C35.0863 40.9722 34.6602 40.243 34.3513 39.5005C33.5737 37.5354 32.7961 35.5704 32.0158 33.6054C31.7654 32.9478 31.3819 32.3537 31.0064 31.7571C30.6256 31.1975 30.0717 30.7229 29.4059 30.5531C28.4232 30.2243 27.3739 30.3861 26.3566 30.333C24.9905 30.3092 23.6216 30.2986 22.2554 30.2561C22.2474 32.6773 22.2528 35.0984 22.2501 37.5195C23.9146 37.5169 25.579 37.5195 27.2408 37.5169C27.2461 39.0046 27.2435 40.4922 27.2435 41.9799C21.4991 41.9773 15.7548 41.9852 10.0104 41.9773C10.0104 40.4922 10.0104 39.0046 10.0104 37.5195C11.6775 37.5142 13.3473 37.5195 15.0144 37.5169C15.0144 31.4972 15.0144 25.4749 15.0144 19.4552C13.3473 19.4525 11.6775 19.4552 10.0104 19.4525C10.0104 17.9755 10.0078 16.501 10.0131 15.0213ZM22.2501 19.4552C22.2501 21.8896 22.2528 24.324 22.2501 26.7557C25.5577 26.7531 28.8653 26.7637 32.1729 26.7504C33.081 26.761 34.0158 26.5542 34.7721 26.0397C35.4059 25.565 35.6935 24.7748 35.7921 24.019C35.9572 22.9291 35.8613 21.6854 35.105 20.8209C34.6762 20.272 33.9971 20.0174 33.3526 19.8158C31.8826 19.373 30.33 19.617 28.82 19.5029C26.6309 19.5029 24.4419 19.4658 22.2501 19.4552ZM42.6656 16.0874C43.6962 16.8537 44.6469 17.7235 45.5391 18.6411C46.5058 19.7522 47.2834 21.0357 47.7814 22.4226C48.306 23.7194 48.0983 25.154 47.9092 26.4985C47.7228 27.7528 47.0943 28.8984 46.298 29.8716C45.2594 31.1525 43.8293 32.0302 42.3939 32.8019C43.4352 33.8176 44.7614 34.7351 45.1396 36.2228C44.4578 36.2228 43.7761 36.2228 43.0943 36.2254C42.6043 36.236 42.1676 35.8595 42.0344 35.406C41.6722 34.2259 41.334 33.0406 40.9638 31.8632C40.7827 31.2798 40.3593 30.7971 39.832 30.4922C40.5217 30.3171 41.1982 30.0838 41.8214 29.739C43.6269 28.6995 44.9052 26.8618 45.366 24.8464C45.8666 22.6507 45.6003 20.272 44.5297 18.2804C44.0451 17.4451 43.3926 16.7212 42.6656 16.0874ZM10.0291 20.8792C11.2967 20.8686 12.5644 20.8766 13.832 20.8739C13.832 21.9612 13.8373 23.0484 13.8293 24.1357C12.567 23.0431 11.2834 21.9797 10.0291 20.8792ZM23.5257 25.3131C23.5311 23.8307 23.5231 22.351 23.5311 20.8739C26.1462 20.8766 28.7614 20.8686 31.3766 20.8766C32.354 20.8951 33.4379 21.1338 34.0717 21.9373C34.5351 22.5154 34.4978 23.3083 34.2954 23.9819C32.2368 24.0137 30.1835 23.9448 28.1276 23.9633C27.5204 23.9819 26.9132 23.9209 26.3034 23.9448C26.3087 24.4009 26.306 24.857 26.306 25.3131C25.3793 25.3131 24.4525 25.3158 23.5257 25.3131ZM23.5311 31.6802C25.0304 31.6802 26.5324 31.6749 28.0344 31.6802C28.6443 31.704 29.3367 31.8419 29.7202 32.3644C30.2767 33.1042 30.6336 33.9714 30.9692 34.8279C29.1582 34.8332 27.35 34.8253 25.5417 34.8332C25.5435 35.2699 25.5435 35.7074 25.5417 36.1459C24.8706 36.1432 24.1995 36.1459 23.5284 36.1459C23.5284 34.6555 23.5231 33.1679 23.5311 31.6802ZM28.4711 43.3536C28.4738 41.4071 28.4685 39.458 28.4738 37.5116C29.3686 38.1957 30.2794 38.864 31.1795 39.5402C31.3207 39.6145 31.2781 39.7868 31.2887 39.9194C31.2834 41.9295 31.2914 43.937 31.2861 45.9471C25.2861 45.9524 19.2861 45.9444 13.2861 45.9524C12.1942 45.0958 11.1076 44.2287 10.0264 43.3589C16.1755 43.3456 22.3247 43.3562 28.4711 43.3536ZM47.1769 37.5089C48.1063 38.3575 49.0517 39.1902 49.9652 40.052C50.0184 42.0197 49.9731 44.0006 49.9865 45.9709C47.5897 45.9736 45.1929 45.9736 42.7987 45.9709C41.8826 46.024 40.9585 45.9948 40.053 45.8463C39.3447 45.7111 38.6309 45.483 38.0717 45.0163C37.1662 44.2764 36.3194 43.465 35.4831 42.6429C36.2368 43.0751 37.0917 43.3642 37.9678 43.3536C41.0357 43.3509 44.1063 43.3536 47.1742 43.3536C47.1769 41.4045 47.1716 39.458 47.1769 37.5089Z" fill="white"/>
</g>
<defs>
<clipPath id="clip0_1772_9343">
<rect width="40" height="31" fill="white" transform="translate(10 15)"/>
</clipPath>
</defs>
</svg>
