<svg width="60" height="60" viewBox="0 0 60 60" fill="none" xmlns="http://www.w3.org/2000/svg">
<rect width="60" height="60" fill="#C7102D"/>
<g clip-path="url(#clip0_1403_9006)">
<path d="M19.3556 49.9805C16.1953 48.1219 13.5783 45.4799 11.7624 42.3147C9.94657 39.1496 8.99451 35.5705 9.00002 31.93C9.00002 20.373 18.3975 11 30 11C41.6025 11 51 20.373 51 31.93C51 39.626 46.8394 46.347 40.6444 49.987L34.935 42.434C37.3852 41.3217 39.3776 39.4128 40.5816 37.0243C41.7856 34.6358 42.1287 31.9114 41.5539 29.3031C40.9792 26.6949 39.5212 24.3598 37.4219 22.6854C35.3227 21.011 32.7084 20.098 30.0131 20.098C27.3178 20.098 24.7036 21.011 22.6043 22.6854C20.5051 24.3598 19.0471 26.6949 18.4723 29.3031C17.8976 31.9114 18.2407 34.6358 19.4447 37.0243C20.6486 39.4128 22.6411 41.3217 25.0913 42.434L19.3819 50L19.3556 49.9805Z" fill="#FEFEFD"/>
</g>
<defs>
<clipPath id="clip0_1403_9006">
<rect width="42" height="39" fill="white" transform="translate(9 11)"/>
</clipPath>
</defs>
</svg>
