<svg xmlns="http://www.w3.org/2000/svg" viewBox="0 0 100 100">
<path fill="#000" fill-rule="evenodd" d="M45.045 25.185c-.199-.002-.313-.074-.388-.272-.08-.214-.036-.324.135-.463.427-.35.9-.64 1.358-.951 1.33-.91 2.688-1.783 4.037-2.666a119.873 119.873 0 0 0 4.076-2.797 126.662 126.662 0 0 0 3.564-2.616c.57-.439 1.133-.888 1.683-1.348.319-.267.61-.557.803-.875.11-.182.124-.363-.036-.729-.213-.49-.508-1.151-.654-1.507a1.058 1.058 0 0 1-.068-.29c-.023-.218.112-.426.29-.55.341-.236.583-.103.764.196.771 1.273 1.794 3.84 2.328 5.281.189.51-.578.89-.898.53-.3-.34-.556-1.133-.81-1.603-.205-.378-.51-.216-.794-.018a72.006 72.006 0 0 0-2.223 1.63c-1.144.865-2.276 1.747-3.44 2.584-1.33.96-2.679 1.894-4.048 2.813-1.31.88-2.628 1.75-3.94 2.624-.444.295-1.196 1.034-1.739 1.027Zm6.082 57.058a.31.31 0 0 1-.13-.052 2.027 2.027 0 0 1-.602-.56 3.342 3.342 0 0 0-.47-.543c-.16-.139-.356-.231-.519-.367a.23.23 0 0 1-.072-.124.663.663 0 0 1-.012-.233c.027-.198-.025-.31-.184-.412-.24-.155-.516-.216-.66-.474-.042-.075-.047-.075-.06-.144-.03-.161-.061-.287.067-.399.112-.097.26-.067.216-.213-.062-.203-.227-.35-.334-.53-.258-.436-.538-.819-.645-1.317a2.852 2.852 0 0 1-.05-.945c.025-.199.176-.376.285-.549.336-.534.314-.548.383-.714.11-.264.236-.522.293-.802.03-.142.045-.29.072-.434.018-.096-.023-.197-.005-.293.026-.141.06-.269.062-.412.01-.644-.085-1.284-.091-1.926-.002-.16.087-.296.102-.456.024-.27-.018-.624.047-.894a.586.586 0 0 0-.016-.3c-.097-.327-.218-.612-.176-.949.044-.341.29-.627.359-.963.01-.056-.001-.114.012-.168.03-.126.078-.437.045-.68-.037-.283-.175-.408-.351-.195a.68.68 0 0 0-.115.25c-.042.145-.114.266-.125.415-.032.432.056.864.058 1.298 0 .056-.008.055-.033.18-.014.07-.066.131-.073.203-.018.18.044.396-.056.55-.146.229-.37.2-.59.035-.15-.114-.306-.222-.487-.27-.419-.112-.754-.314-1.12-.55-.377-.242-.799-.419-1.209-.608a.788.788 0 0 1-.206-.126c-.251-.23-.43-.594-.63-.876-.17-.238-.242-.291-.284-.355-.106-.159-.163-.268-.33-.625-.166-.357-.377-.552-.63-.856-.311-.376-.31-.919-.474-1.374-.016-.044-.06-.076-.068-.12-.031-.155-.02-.305-.087-.447-.082-.179-.072-.185-.119-.248-.093-.125-.358-.312-.4-.37-.058-.076-.12-.151-.155-.238-.091-.221-.114-.348-.126-.403-.026-.116-.007-.24-.04-.354-.1-.345-.05-.726-.13-1.084-.038-.169-.016-.346.004-.518.025-.218.012-.22.007-.262a3.77 3.77 0 0 0-.102-.537c-.027-.107-.126-.19-.141-.297-.283-1.93-1.628-3.59-1.894-5.47-.04-.28.018-.475.098-.732.037-.12.075-.237.086-.361.032-.358-.006-.361.024-.526.039-.202.14-.383.346-.248.088.058.164.14.222.23.291.445.256.467.37.63.067.098.189.24.31.341.071.06.155.128.23.097.124-.053.077-.229-.014-.397-.152-.28-.467-.596-.52-.668-.029-.04-.04-.09-.07-.124a1.388 1.388 0 0 1-.24-.414c-.531-1.263-.562-2.667-.736-4.02a59.571 59.571 0 0 0-.46-3.104c-.052-.285-.14-.578-.336-.792-.135-.148-.231-.047-.4.026-.485.21-.937.5-1.161.981a.937.937 0 0 0-.087.34c-.012.21.05.465.067.676.039.48.23 1.774.552 3.242.264 1.206.639 2.522 1.057 3.615.104.27.142.505.22.767.08.273.119.262.149.443.047.29.053.291.066 1.059.007.446-.58.46-.73.09-.082-.204-.047-.313-.09-.53-.524-2.603-1.22-5.386-1.911-7.986-.042-.158-.01-.357-.155-.448a.33.33 0 0 0-.284-.05c-.154.038-.273.06-.422.011a.799.799 0 0 1-.275-.172c-.1-.09-.2-.205-.176-.356.017-.115.102-.193.212-.235.227-.088.379-.222.554-.384.06-.056.118-.104.18-.156.074-.061.152-.117.236-.162.108-.058.233-.082.34-.145.204-.12.35-.294.386-.529.032-.213-.006-.494-.034-.645-.028-.15-.032-.178-.056-.26-.023-.08-.073-.064-.095-.215a3.496 3.496 0 0 1-.005-.695c.024-.15.004-.154-.012-.227-.017-.073-.046-.01-.085-.205-.038-.195-.263-.628-.357-.791-.094-.163-.074-.075-.1-.119a4.788 4.788 0 0 0-.473-.665c-.072-.087-.179-.15-.265-.222-.112-.09-.222-.208-.123-.373.06-.102.183-.11.28-.105.426.025.908.729 1.075.98.218.327.245.397.328.643.082.246.121.375.164.526.042.152.025.375.056.669.031.294.021-.065.036.092.016.157.02.579.052.784a.821.821 0 0 0 .192.41c.066.084-.02.093.136.104.06.004.145-.035.239-.094a3.09 3.09 0 0 0 .45-.342c.056-.054.16-.152.072-.202-.06-.035-.122-.012-.177-.002-.092.016-.184.05-.341.06-.252.017-.27-.26-.264-.474.006-.216.019-.124-.018-.343a5.373 5.373 0 0 1-.039-.518c-.023-.519-.087-.706-.457-1.184-.169-.218-.33-.437-.496-.656-.131-.171-.244-.36-.427-.475-.183-.113-.434-.165-.569-.3-.25-.252-.097-.604.027-.88.13-.29.133-.29.305-.539.183-.263.384-.49.615-.716.112-.11.22-.225.35-.312.581-.388.582-.388.64-.412.25-.1.523-.177.74-.336.246-.178.513-.403.558-.709.016-.107-.067-.236-.184-.2-.158.047-.248.218-.394.293-.198.1-.48.117-.67-.012a1.04 1.04 0 0 1-.235-.211c-.193-.247-.448-.442-.66-.676-.125-.136-.288-.234-.408-.374a2.69 2.69 0 0 1-.203-.273c-.067-.104-.07-.268-.041-.39.046-.193.164-.228.353-.21.115.01.214.097.33.107.19.017.365-.143.406-.32.033-.141-.002-.237.081-.356.047-.068.09-.037.163-.181.088-.174-.175-.368-.237-.53a.843.843 0 0 1-.055-.25 1.05 1.05 0 0 1 .021-.392c.032-.119.085-.233.152-.336.158-.242.357-.47.566-.672.225-.219.44-.405.715-.55.137-.074.282-.134.43-.18a.303.303 0 0 1 .16-.01c.181.045.314.212.496.248.176.034.26-.076.358-.224.168-.255.347-.06.523.06.119.082.237.031.294-.094.022-.048-.015-.054.006-.284.013-.131.026-.132.073-.213.15-.262.46-.387.708-.543.103-.065.116-.043.196-.097.037-.024.177-.16.32-.224.36-.164.078-.368-.11-.237-.052.036-.104.075-.163.092-.076.022-.186-.02-.231.046-.06.088-.02.111-.056.139a1.608 1.608 0 0 1-.434.273c-.233.088-.45.2-.645.35-.186.146-.35.332-.55.457-.176.11-.558.075-.39-.295.043-.096.099-.2.145-.267.208-.3.112-.76.004-1.075-.117-.343 0-.738.212-1.003.52-.648 1.27-1.185 2.096-1.372.301-.068.61-.057.909-.026.273.03.594.09.832.22.15.084.365.14.405.317.036.159.008.197-.12.313-.036.034-.124.15-.125.197-.006.237.27.32.47.282.113-.022.251-.09.375-.087.16.003.313.088.23.304-.041.108-.151.13-.263.111-.112-.019-.142.102-.242.128-.128.034-.268.003-.397.031-.149.033-.135.074-.37.146-.187.057-.44.11-.628.232-.379.247-.12.512.195.367.206-.093.2-.109.339-.143.232-.057.486-.147.712-.226.11-.04.163-.024.3-.08.161-.064.373-.19.525-.088.242.163.122.437-.056.612-.113.11-.29.147-.426.23-.06.036-.13.066-.171.122-.094.13-.125.152-.15.29-.03.158-.013.321.025.478.017.075.09.112.123.18.13.263.317.462.558.621.172.114.308.117.51.15.17.027.28.022.455-.045.176-.067.398-.192.539-.186.14.007.118.035.193.074a.77.77 0 0 1 .22.207c.112.146.13.216.143.394.008.109-.014.224.024.326.068.18.227.278.385.149.096-.078.15-.184.12-.309-.058-.243-.083-.398.11-.579.104-.096.282-.098.484-.056.296.063.634.254.888.33.6.18.958.473 1.45.817.146.102.266.235.414.333.364.24.75.423 1.133.631.121.067.233.15.342.237.083.067.167.136.233.221a.506.506 0 0 1 .117.235c.051.405-.216.387-.558.424-.126.013-.255.026-.373.072-.184.073-.295.13-.363.192-.098.09-.168.203-.249.311-.187.251-.348.437-.407.474-.238.147-.404.036-.647-.07-.303-.135-.641-.33-.793-.644-.055-.114-.086-.133-.137-.234-.093-.179-.298-.24-.234.044.034.15.175.322.205.416.021.07 0 .148.022.219.024.08.032.149.064.227.055.133-.013.33.112.4.085.046.1-.013.232.018.208.05.332.1.387.31.06.23.029.26-.17.403-.193.136-.203.129-.318.153-.388.081-.624.39-.992.493-.05.014-.082.065-.132.08-.077.024-.164.007-.24.034a.926.926 0 0 1-.398.052c-.146-.014-.262-.078-.383.008-.05.034-.052.11-.053.17 0 .305.026.605.09.904.033.154.021.324.077.468.102.262.318.486.397.756.075.257.134.58.328.764.09.084.179.003.248-.087.274-.358.64-.661 1.091-.77.336-.08.636-.148.982-.135.23.008.345.248.535.362.233.139.446.135.528-.152.054-.188.07-.397.137-.584a.55.55 0 0 1 .363-.37.788.788 0 0 1 .358-.018c.09.013.093.026.154.088.177.177.126.318-.005.511-.067.099-.17.17-.234.27-.063.1-.107.212-.142.325a.356.356 0 0 0-.003.144c.027.232.254.413.387.596.075.103.076.23.03.35-.126.327-.218.607-.128.958.07.27.255.495.323.76.042.162.089.354-.052.46a.43.43 0 0 1-.227.064c-.767.056-1.539.038-2.3.142-.153.02-.287.054-.437.086-.192.04-.396.01-.584.062-.297.084-.642.226-.89.414-.221.167-.396.24-.655.328-.134.046-.207.1-.338.155-.204.084-.379.235-.557.365-.273.199-.27.219-.438.264-.18.048-.42.015-.478-.188a1.62 1.62 0 0 1-.034-.64c.014-.118.083-.226.15-.323.135-.194.307-.354.539-.421.07-.02.148-.003.219-.022.173-.046.503-.143.566-.32a.293.293 0 0 0-.01-.206c-.08-.186-.271-.156-.447-.193-.24-.051-.485-.034-.718-.088-.048-.011-.102.015-.147-.003a.867.867 0 0 1-.337-.232c-.207-.234-.229-.282-.28-.352-.176-.24-.4-.48-.286-.782a.203.203 0 0 1 .153-.126c.133-.03.275 0 .407-.032a.418.418 0 0 0 .269-.177c.15-.22.228-.44.48-.555a.302.302 0 0 1 .19-.01c.23.055.429.176.6.178.095.002.13-.103.086-.186-.147-.267-.386-.477-.591-.7a.484.484 0 0 1-.108-.207.645.645 0 0 1-.013-.254c.027-.185.028-.407.063-.59.023-.116.053-.174.08-.288.04-.179.024-.393 0-.574-.004-.038-.019-.087-.054-.101-.156-.063-.27.094-.4.186-.148.103-.155.101-.22.111a2.122 2.122 0 0 1-.474.025c-.166-.013-.412-.079-.554.01-.026.017-.038.038-.01.067.102.108.247.102.39.132.24.049.241.05.319.088.164.08.253.147.343.298.158.27.169.266.198.37.055.19.105.38.073.576-.033.204-.051.206-.15.346-.165.23-.322.503-.603.546-1.07.164-1.083.096-1.395.063-.399-.041-.42-.27-.53-.625-.037-.117 0-.248-.03-.366-.053-.198-.095-.391-.178-.578-.06-.138-.2-.261-.371-.524-.062-.093-.055-.217-.04-.328.02-.156.094-.394-.093-.398-.208-.004-.217.33-.186.497.032.167.118.324.173.484.022.066.026.11.05.175.034.088.113.155.14.245.052.178.124.305.172.484.052.192.022.455.076.646.051.182.041.36.091.54.079.279.049.568.13.854.041.147.072.241.114.393.021.073-.008.158.023.23.083.192.057.448.109.665.04.166.06.443.129.102.029-.145.026-.305.018-.456-.02-.418.189-.28.306.005.023.054.003.12.02.177.06.21.134.436.17.652.036.21.096.397.158.6.038.122.046.119.064.217.04.221.05.51.133.727.032.084.05.16.066.248.042.252.03.504.102.75.088.305.065.677.146.978.037.138.06.3.108.433.063.17.169.291.404.25.204-.037.24-.149.334-.338.139-.278.254-.572.375-.86.091-.217.094-.217.128-.353.076-.301.395-.564.684-.638.175-.045.25-.297.318-.453a.798.798 0 0 1 .188-.253c.149-.14.295-.26.489-.322.144-.046.301-.036.453-.024.11.01.14.016.248-.013.173-.046.248-.023.384-.083.443-.198.868-.131 1.342-.207.08-.013.145-.079.225-.096.155-.033.154-.032.26-.045.322-.041.323-.072 1.154-.072.181 0 .303.102.415.255a.77.77 0 0 1 .13.266c.027.114.03.233.018.349a1.033 1.033 0 0 1-.088.33c-.072.152-.282.221-.326.384-.054.2.265.221.42.264.227.063.313.08.405.126a.785.785 0 0 1 .194.125.268.268 0 0 1 .074.127c.017.062.032.131.01.191-.107.309-.483.295-.77.37a20.13 20.13 0 0 0-.91.257c-.11.034-.234.003-.343.04-.259.083-.572.418-.381.674.276.37.587-.35.797-.477.342-.208.932-.468 1.261-.072a.278.278 0 0 1 .07.132c.027.192.026.388 0 .58-.02.147-.05.267-.073.413-.014.083.01.169.002.252-.006.077-.173.84.112.626.159-.12.123-.227.15-.423.022-.148.044-.292.061-.444.015-.121-.03-.247-.008-.366.022-.118.085-.35.203-.393.086-.03.194-.059.275-.014.232.126.283.268.357.53.047.17.04.351.027.527-.01.132-.061.241-.085.372-.016.088-.114.197-.061.271.02.03.068-.021.099-.04.172-.102.284-.155.441-.003.025.024.056.05.062.086.023.131.035.267.021.4-.014.142-.021.141-.05.255-.024.102-.087.154-.296.74-.059.165-.213.487-.046.612.131.099.2-.012.238-.154.035-.127.072-.216.108-.341.052-.178-.011-.318.195-.36.232-.049.377.174.425.38.051.221.054.455.036.683-.013.158-.073.317-.1.477-.025.14.11.46-.122.688-.11.109-.153.246-.188.37-.105.372-.006.747-.113 1.083-.1.319-.318.595-.445.905-.12.292-.173.6-.214.913-.008.063-.052.119-.064.182-.148.761-.246.971-.657 1.616a1.91 1.91 0 0 0-.256.572c-.01.046-.021.105.008.143.148.195.382-.014.565.129.17.134.115.282.02.454-.071.13-.315.216-.306.364.008.118.162.028.257-.004.038-.012.088-.028.12-.004.124.09.074.268.065.41a2.3 2.3 0 0 0 .028.52c.03.174.15.561.375.37.02-.017.02-.05.018-.075-.023-.223-.191-.575-.003-.739.037-.032.101-.023.15-.008.242.077.397.28.48.514.037.102.05.195.069.3.041.242.074.493.039.736-.04.277-.173.448-.398.642a.72.72 0 0 1-.174.115.708.708 0 0 1-.197.053c-.195.027-.285.034-.454.129a.197.197 0 0 1-.16.008c-.161-.061-.309-.127-.415-.262-.096-.122-.126-.286-.213-.413a.593.593 0 0 0-.177-.158c-.208-.132-.298-.283-.362-.525-.032-.119-.1-.206-.175-.307-.149-.203-.31-.421-.42-.647-.02-.038-.012-.085-.028-.125-.114-.28-.264-.565-.244-.885.008-.136-.12-.166-.206-.276-.171-.221-.414-.396-.517-.655a2.293 2.293 0 0 1-.133-.528c-.074-.568-.058-1.145-.1-1.715-.003-.04-.034-.074-.038-.113a1.992 1.992 0 0 0-.364-.976c-.078-.104-.151-.196-.176-.317-.061-.297-.1-.54-.298-.777-.053-.063-.105-.11-.152-.177-.29-.42-.714-.75-1.056-1.13-.222-.246-.382-.652-.48-.948a.306.306 0 0 1-.008-.17c.04-.15.16-.244.232-.38.05-.098.008-.235-.108-.187-.166.068-.338.13-.441.28-.098.141-.13.147-.116.253.02.164.151.218.23.359.095.17.436.509.167.647-.35.182-.673-.044-.945-.278a1.432 1.432 0 0 1-.303-.383c-.06-.106-.074-.101-.13-.265a.92.92 0 0 1-.05-.368c.01-.129.045-.274 0-.396-.086-.228-.28-.397-.349-.632-.062-.216-.115-.476-.172-.693-.04-.151-.018-.262-.096-.396-.031-.054-.148-.156-.266-.239-.151-.106-.352-.18-.396.003-.026.113.042.227.086.336.074.183.155.367.203.559.03.118.111.22.144.338.038.141.043.289.095.425.076.198.122.351.166.558.01.046.11.356.174.474.05.094.051.152.095.246.08.172.2.324.318.474.066.085.146.16.23.227.148.12.317.206.506.246.25.053.364.058.54.238.101.104.186.188.278.3.119.145.251.285.374.426.149.172.34.254.479.431.083.107.155.213.175.348.038.25.075.506.04.756-.047.345-.166.707-.029 1.037.136.325.32.63.46.951.071.166.175.316.214.492.056.252.025.516.051.774.003.029.033.052.036.082.03.26 0 .53.063.783.054.221-.016.433-.019.646-.002.155.097.303.18.435.215.348.448.693.686 1.026.08.111.158.233.238.344.046.063.159.194.245.32.159.234.328.412.531.609.034.033.052.082.087.117.295.287.526.57.75.914.06.094.163.385.169.431.029.22.053.442.035.662-.009.1-.063.193-.112.281-.075.134-.365.342-.261.466.114.136.32.038.431-.093.129-.152.166-.356.188-.554.025-.226-.048-.456-.025-.68.03-.302.388-.422.602-.23.084.076.076.18.114.286.03.083.102.149.128.234.026.087.005.183.025.272.021.095.056.189.098.278.058.123.038.224.082.352.088.263.163.587.108.858a.972.972 0 0 1-.169.399c-.158.211-.317.424-.478.63a.452.452 0 0 0-.105.227c-.022.248.013.504-.077.739-.075.195-.206.35-.212.56-.007.2.11.381.157.572.007.028.032.052.036.082.035.282.121.58.056.871-.036.16-.076.294-.153.436-.234.431-.276.495-.416.719-.265.42-.57.87-.78 1.32l-.085.181c-.233.507-.464 1-.826 1.428-.07.082-.12.166-.18.256-.066.097-.142.194-.168.308-.041.18-.038.357-.098.53-.118.337-.388.636-.483.98-.02.07.008.15-.01.22a3.137 3.137 0 0 0-.107.562c-.007.088-.062.168-.07.256a3.517 3.517 0 0 1-.071.444c-.026.125-.029.124-.032.18-.01.17-.02.345.026.51.059.208.196.379.293.571.038.076.083.083.055.84-.01.28-.345.508-.453.768-.082.199-.094.286.12.354.073.023.154-.012.231-.002.107.014.193.07.253.159.217.32-.296.586-.505.774-.056.051-.142.143-.124.224a.19.19 0 0 0 .063.096c.01.01.03.007.04 0 .072-.053.136-.108.198-.156.147-.115.285-.189.498-.089.198.094.327.293.485.447.187.183.443.35.597.568.04.057.07.125.084.195.02.093.034.192.015.285-.027.132-.108.247-.148.375-.075.236-.12.556-.357.662-.09.04-.196.03-.293.022Zm9.435-14.228c-.059-.002-.128-.015-.193-.025-.109-.017-.243-.056-.21-.175.039-.145.155-.202.254-.234.098-.033.212-.017.357-.002a.435.435 0 0 0 .199-.01c.142-.055.512-.468.514-.096a.415.415 0 0 1-.053.192.513.513 0 0 1-.193.214c-.114.068-.12.065-.34.113a1.45 1.45 0 0 1-.335.022ZM40.258 41.207c.055-.057.127-.105.153-.14.046-.064.248-.297.323-.415.224-.35.424-.71.64-1.065.055-.092.145-.218.227-.307.105-.114.248-.164.336.09.036.104-.09.234-.152.318-.28.382-.395.51-.762 1.001-.159.212-.318.528-.559.654-.133.069-.457.12-.206-.136Zm4.16-4.23c-.152-.028-.196-.06-.227-.208-.028-.135.056-.283.146-.382.061-.067.146-.146.245-.118.097.027.136.123.163.192.058.15-.004.327-.172.448-.046.033-.1.077-.155.067Zm-6.784 40.438c-.06 0-.106-.057-.163-.071-.271-.07-.535-.24-.794-.346-.114-.047-.125-.025-.199-.08-.139-.102-.078-.317-.002-.44.241-.39.149-.747.065-1.176-.033-.17.043-.324.047-.498.007-.246-.047-.488-.049-.732a4.974 4.974 0 0 1 .1-.908c.113-.643.446-1.14.684-1.735.114-.285.244-.57.375-.848.16-.341.242-.71.32-1.077.027-.123.091-.236.152-.346.312-.556.344-1.446.478-2.047.086-.391.418-.656.468-1.063.04-.32.054-.62.098-.94.008-.061-.012-.126 0-.188.026-.133.147-.15.237-.056.108.111.1.119.203.243.067.08.192.266.321.365.129.098.326.12.312-.129-.012-.23-.204-.433-.316-.636-.208-.375-.39-.766-.587-1.146-.075-.144-.038-.161-.098-.267-.654-1.142-1.131-2.867-1.006-4.157.032-.333.235-.644.433-.913.076-.103.258-.2.267-.33.014-.216.002-.219-.029-.352-.037-.158-.113-.306-.15-.464-.066-.278-.22-.655-.078-.914.147-.266.28-.384.34-.687.024-.125.146-.274.273-.153.16.152.187.378.283.575.4.812.858 1.644.986 2.58.045.33-.042.67.032.995.093.412.103.823.211 1.227.057.214.239.557-.064.629-.106.025-.113.005-.142-.015-.309-.215-.43-.64-.62-.947-.06-.097-.091-.18-.14-.284-.046-.099-.105-.166-.087-.272.04-.243.134-.512.002-.733-.085-.141-.264-.25-.295-.045-.035.224.086.456.046.68-.033.183-.227.2-.397.15-.096-.03-.143-.154-.231-.167-.046-.007-.085.05-.081.096.012.15.058.302.138.43.209.334.564.564.77.901.11.18.188.387.283.575.065.127.038.14.099.237.093.147.18.404.386.33.079-.027.166-.173.198-.186.256-.098.392-.01.548.188.205.26.192.273.225.371.116.355.168.728.267 1.088.075.275.117.385.172.484.054.097.083.183.12.287.038.108.08.17.28.52a2.6 2.6 0 0 0 .285.416c.338.392.664.801.914 1.252.092.165.089.167.13.276.02.054.04.125.008.173-.06.095-.158.064-.255.017-.336-.165-.753-.323-1.032-.58-.166-.154-.197-.408-.326-.594-.12-.173-.26-.332-.424-.135-.097.116-.06.304-.01.44.14.382.473.589.832.718.374.134.892.183 1.151.5.078.094.042.26-.092.294-.116.028-.242-.006-.355.029-.117.036-.195.088-.154.211.049.146.119.19.264.14.262-.091.506-.324.793-.325a.08.08 0 0 1 .069.042c.083.173-.067.434-.19.557a33.744 33.744 0 0 1-3.296 2.866c-.794.608-1.561 1.27-1.75 2.322-.11.618-.03 1.216-.049 1.835-.008.276-.035.555-.201.802-.077.115-.198.188-.253.313-.064.145.01.32-.062.457-.123.234-.427.372-.688.37Zm21.05 7.89c-.074.003-.149.01-.22-.004-.395-.076-.732-.394-.804-.79-.043-.237.129-.412.219-.624a.867.867 0 0 0 .062-.213.643.643 0 0 0-.001-.217c-.054-.272-.174-.453-.154-.74.009-.136-.011-.273-.001-.409.017-.23.02-.456.058-.685.066-.397.4-.737.603-1.08.13-.218.17-.45.237-.695.055-.199.082-.19.091-.267.045-.38.164-.749.171-1.131.006-.3-.058-.456-.047-.69.008-.152.117-.4.209-.52.038-.05.043-.054.1-.067.208-.046.476-.089.685-.208.125-.072.242-.16.292-.29.09-.236-.061-.32-.25-.354-.187-.035-.438-.003-.54-.086-.152-.124-.121-.376-.113-.562.011-.244.063-.295.063-.401 0-.238-.054-.474-.048-.711.014-.517.019-1.104.21-1.585.118-.294.266-.554.29-.865.023-.286-.298-.576-.028-.81.045-.04.123-.03.165-.073.144-.142.164-.27.201-.467.034-.178.094-.327.1-.508a3.156 3.156 0 0 0-.029-.53 2.625 2.625 0 0 0-.106-.436c-.038-.116-.103-.191-.144-.328-.084-.286-.257-.578-.38-.85-.017-.037-.023-.084-.007-.119.036-.077.13-.115.148-.186.084-.327-.495-.62-.678-.816-.079-.085-.166-.17-.208-.277-.148-.369-.133-.801-.105-1.194a1.01 1.01 0 0 1 .105-.383 6.89 6.89 0 0 1 .337-.574c.02-.03.017-.072.04-.098.158-.184.341-.33.451-.546.065-.127.045-.138.049-.265.006-.182-.041-.374.045-.538.085-.16.265-.265.345-.427a1.49 1.49 0 0 0 .11-.31c.026-.114.002-.12.032-.18a.87.87 0 0 0 .123-.447c.01-.464.059-.982-.013-1.451-.049-.32-.16-.618-.393-.858-.1-.103-.211-.201-.269-.337-.067-.16-.113-.265-.124-.371-.032-.305.005-.566-.058-.837-.053-.232-.198-.523-.394-.178a.412.412 0 0 0-.053.191c-.007.258.035.516.03.775-.003.194-.014.39-.053.58-.046.226-.299.415-.26.64.023.13-.002.142.126.402.167.34.287.618.272.986a2.928 2.928 0 0 1-.077.528c-.018.08-.078.145-.093.225-.05.273-.236.538-.336.794-.046.12-.068.228-.107.352-.065.209-.2.922-.558.713a.601.601 0 0 1-.263-.376c-.085-.308-.147-.617-.238-.921-.049-.166-.096-.31-.15-.474-.034-.1-.07-.083-.115-.194a6.055 6.055 0 0 0-.307-.645c-.146-.265-.325-.532-.462-.804-.043-.085-.06-.182-.098-.268-.081-.177-.154-.232-.117-.416.032-.155.061-.153.128-.208.132-.11.332-.181.4-.234a.676.676 0 0 0 .236-.385c.02-.082.007-.46.005-.504-.012-.413-.01-.83-.055-1.242-.01-.103-.15-.162-.181-.263-.029-.09.021-.196-.015-.283-.104-.247-.091-.321.126-.475.117-.084.274-.127.37-.235.155-.174.112-.204.18-.302.033-.046.099-.059.135-.102a1.24 1.24 0 0 0 .164-.26c.111-.238.185-.52.254-.77.045-.162.162-.32.132-.487-.036-.198-.14-.38-.167-.579-.045-.328.023-.684-.084-1.002a1.411 1.411 0 0 0-.246-.48c-.073-.087-.116-.194-.183-.284a2.195 2.195 0 0 1-.204-.32c-.044-.088-.094-.178-.11-.272-.019-.11-.023-.167.063-.24.03-.025.082-.024.12-.008.156.066.29.162.452.207.069.02.123.08.193.095.287.064.57.157.86.206.178.03.183 0 .265.028.128.046.214.069.341.108.86.268 1.519.86 2.147 1.483.22.22.43.452.627.694.044.054.059.04.454.508.807.957 1.487 1.869 1.976 2.872.431.885.708 1.846.772 2.99.094 1.689-.742 3.695-1.473 5.197-.374.77-.722 1.582-.92 2.418-.048.201-.064.306-.1.508-.124.719-.175 1.237-.487 1.904a1.295 1.295 0 0 0-.119.52c-.013.458-.157.535-.317.95-.035.09.002.097-.02.232-.013.086-.08.16-.091.246-.052.375-.096.753-.237 1.106-.055.138-.066.144-.187.23-.147.105-.306.041-.351-.12-.059-.208-.017-.42-.086-.625-.02-.06-.074-.104-.092-.163-.068-.214.037-.363.064-.573.028-.215-.023-.433-.034-.65-.004-.071.002-.144-.012-.215-.021-.116-.105-.219-.2-.11-.065.075-.053.193-.074.292-.021.099-.051.197-.057.297-.027.484-.2.935-.156 1.421.018.197.12.367.176.557.024.08.089.144.117.225.03.086.018.186.056.27.212.464.142.487.537.142.135-.118.305-.191.388.092.045.152.034.316.025.474-.013.234-.004.24-.064.381-.156.368-.47.63-.661.979-.059.108-.021.12-.05.233-.068.256-.144.515-.19.776-.016.083-.077.153-.093.236-.052.264-.146.546-.21.808-.184.765-.497 1.546-.548 2.326-.055.832-.207 1.063-.353 1.4a2.74 2.74 0 0 0-.14.399c-.152.572.106.352-.295.917-.22.31-.296.59-.085 1.02.113.23.332.4.432.637.13.305-.003.416-.303.474-.169.032-.343.026-.513.033Zm-2.227-13.98a.519.519 0 0 1-.432-.175c-.075-.079-.105-.105-.117-.163-.072-.363-.06-.728-.11-1.095-.035-.26-.056-.523-.093-.782-.01-.066-.032-.06-.04-.153a9.984 9.984 0 0 0-.158-1.2c-.062-.301-.15-.606-.1-.91.042-.254.369-.367.587-.487.14-.077.127-.102.223-.138.19-.07.336-.179.534-.08.05.025.1.056.14.096.236.24.348.65.635.83.135.085.248.075.28-.086.032-.168-.09-.284-.188-.415-.14-.187-.378-.466-.27-.715a.376.376 0 0 1 .13-.156c.07-.049.167-.052.239-.1.086-.056.141-.153.229-.21a.113.113 0 0 1 .108-.005c.077.041.162.096.18.183.081.381.041.389.084.583.053.25.089.49.143.737.025.11.115.198.142.307.033.13.049.246.062.375.023.223.063.45.035.673-.022.186-.107.36-.181.534-.317.74-.704 1.484-1.241 2.088-.247.277-.45.456-.821.463Zm.539-2.914c-.029 0-.274-.076-.366-.123-.181-.092-.246-.238-.278-.429-.04-.242-.085-.853.218-.921.186-.042.352.143.477.278.205.223.473.51.437.825-.025.212-.122.235-.312.323a.43.43 0 0 1-.176.047Zm-.301.866c-.136-.005-.27-.114-.175-.247.107-.147.386-.212.482-.01.014.028-.009.065-.033.085-.082.07-.166.175-.274.172Zm1.554-4.351c-.219-.005-.37-.234-.226-.433.075-.105.214-.146.31-.234.075-.069.14-.15.2-.234.382-.525.685-1.04.768-1.706.01-.081.063-.153.072-.234.012-.13-.025-.26-.01-.388.041-.365-.015-.774-.102-1.135a2.936 2.936 0 0 1-.073-.776c.009-.278.305-.611.537-.344.162.185.055.461.111.698.06.249.126.23.147.391.051.403.087.811.064 1.217-.015.262-.124.501-.212.745-.076.21-.251.397-.304.614-.08.336-.157.712-.324 1.014-.014.025-.002.06-.016.085-.197.339-.53.728-.942.72Zm-1.492.76c-.308-.04-.622.07-.922.002-.221-.05-.28-.366-.36-.553-.06-.14-.036-.292-.086-.436-.138-.396-.23-.805-.378-1.197-.095-.25-.18-.497-.29-.74-.1-.219-.193-.441-.308-.655-.265-.494-.758-.85-.944-1.387a.278.278 0 0 1-.008-.168c.077-.254.37-.293.6-.267.286.032.519.235.68.483.172.263.254.563.329.864.074.296.109.585.183.882.056.223.201.444.38.59.068.056.129.07.172-.009.161-.296.035-.7-.071-1.005-.07-.204-.208-.39-.324-.57-.1-.156-.189-.321-.287-.479-.034-.054-.022-.129-.052-.186-.164-.305-.274-.65-.157-.977.076-.212.114-.198.158-.232.09-.07.183-.138.287-.185.18-.082.402-.115.483.095.02.055.006.122.03.177.092.21.114.202.13.276.02.092.01.19.036.281.06.214.116.42.18.63.09.303.218.57.339.864.146.354.273.714.372 1.082.029.109.126.2.14.265.044.22.119.411.2.619.07.18.097.283.15.464.125.42.223 1.004-.11 1.33-.079.076-.194.1-.3.124-.082.018-.168.029-.252.018Zm-2.621-.187c-.206-.014-.293-.084-.263-.282.024-.152.177-.237.254-.37.09-.157.107-.352.246-.473.096-.084.277-.082.367-.002.217.192.426.446.301.736-.061.144-.088.128-.11.15a.754.754 0 0 1-.191.14 1.11 1.11 0 0 1-.604.101Zm-.152.91a.46.46 0 0 1-.363-.2c-.046-.07-.047-.148-.033-.232.018-.107.091-.181.186-.23.198-.098.53-.131.733-.04.227.102.266.144.242.4-.032.343-.505.314-.765.302Zm13.35-11.214c-.474-.095-.828-.581-1.23-.82-.478-.285-1.043-.486-1.484-.828a.608.608 0 0 1-.158-.182c-.07-.124-.14-.246-.188-.379-.068-.191-.066-.192-.076-.247-.021-.125-.047-.256-.02-.38a.341.341 0 0 1 .294-.282c.239-.044.487-.021.732-.018.407.005.82.02 1.208.146.22.072.389.177.535.354.17.205.278.496.508.635.203.123.447.172.65.296.235.144.365.474.357.744-.004.15-.056.293-.103.436a.652.652 0 0 1-.115.218c-.106.124-.198.229-.355.271a1.23 1.23 0 0 1-.555.036Zm-.041-.785c-.064.01-.12-.046-.18-.068-.178-.064-.36-.119-.502-.25-.194-.177-.353-.379-.581-.513-.154-.09-.275-.121-.45-.186-.242-.09-.549-.117-.314-.394a.364.364 0 0 0 .081-.146.38.38 0 0 0-.008-.164c-.009-.041-.054-.068-.02-.094.09-.068.23-.033.346.005.15.049.31.139.355.27.04.115.001.18.099.248.127.088.3.104.417.206.084.073.049.202.1.3a.359.359 0 0 0 .117.115c.049.035.394.188.582.35.146.126.208.286-.042.321Zm-3.241-.584c-.245 0-.336-.2-.457-.395-.113-.18-.277-.326-.374-.515a.307.307 0 0 1-.012-.244c.133-.326.603-.383.762-.06.093.186.104.376.217.552.062.097.029.112.1.27.13.29.06.392-.236.392Zm-13.998.308c-.25-.061-.36-.333-.486-.55a1.103 1.103 0 0 1-.123-.819c.016-.067.02-.152.081-.202.134-.108.254-.05.34.09.14.223.31.445.432.677.1.189.067.516-.015.71-.042.1-.124.12-.23.094Zm2.28 5.838c-.1-.016-.107-.015-.209-.091a3.905 3.905 0 0 1-1.015-1.094c-.129-.215-.332-.41-.41-.648-.048-.142.045-.261-.05-.383-.1-.129-.24-.205-.284-.365a.384.384 0 0 1-.009-.17c.023-.12.092-.19.092-.257-.002-.167-.113-.299-.14-.462-.018-.108-.054-.224-.017-.327.102-.285.336-.183.511-.029.117.103.153.167.17.213.034.097.038.205.078.3.033.079.07.064.094.184.055.278.064.573.15.842.077.245.178.49.332.697.086.116.083.119.146.181.281.278.661.458.89.782.153.215.151.5-.13.61a.386.386 0 0 1-.2.017Zm3.08-1.054c-.067-.02-.084-.03-.094-.089a35 35 0 0 0-.218-1.142c-.047-.225-.185-.407-.284-.614-.114-.24-.2-.508-.353-.727-.137-.195-.351-.35-.429-.575-.054-.157.018-.323.048-.488.037-.205.022-.432.228-.52a.334.334 0 0 1 .268.01c.071.03.124.092.182.144a.23.23 0 0 1 .05.065c.152.278.237.575.34.874.03.087.093.137.15.203.2.234.37.53.45.825.046.171.056.336.09.509.054.275.085.567.034.84-.043.232-.102.468-.263.647-.048.053-.13.058-.198.038Zm.742-1.267a.425.425 0 0 1-.146-.164c-.104-.2-.097-.485-.094-.685 0-.048.024-.098.058-.131.158-.153.33-.113.38.087.053.213.091.433.076.65-.007.105-.057.173-.148.23-.037.023-.091.036-.126.013Zm.116 1.221c-.26-.063-.253-.446-.241-.681.007-.138.03-.304.176-.328.194-.033.32.158.37.373.04.166.035.347-.018.446-.072.137-.142.226-.287.19Zm.212-3.158c-.025-.003-.047-.021-.062-.04-.144-.165-.203-.235-.055-.437.097-.132.17-.281.23-.433.047-.12.1-.241.075-.368-.014-.074-.08-.132-.095-.204a1.473 1.473 0 0 1-.02-.39c.006-.079.066-.146.072-.225.04-.534-.016-1.088-.085-1.618-.027-.202-.132-.379-.178-.578a.676.676 0 0 0-.049-.134c-.023-.05-.074-.109-.115-.173-.07-.108-.145-.245-.056-.327.032-.028.088-.02.13-.009.079.021.144.08.21.134.236.195.4.509.502.767.08.203.127.342.176.557.064.277.118.543.19.818.065.247.108.234.122.32.071.43.11.872.09 1.309-.007.144-.083.278-.147.408-.12.242-.349.392-.606.484-.091.033-.127.102-.193.126a.29.29 0 0 1-.136.013Zm-1.06-.584c-.193-.013-.202-.16-.285-.32-.024-.046-.077-.073-.1-.12-.15-.303-.49-.42-.388-.79.056-.206.196-.37.232-.579.026-.159-.024-.323-.005-.482a6.4 6.4 0 0 1 .103-.635c.049-.221.294-.363.336-.584.03-.156-.096-.273-.158-.419a1.364 1.364 0 0 1-.068-.294c-.017-.107-.04-.233.03-.288.1-.077.191-.05.251.054.095.163.108.359.196.525.082.154.22.25.274.415.045.14.036.287.085.426.053.15.114.299.19.44.08.15.105.139.116.194.086.411.088.837.098 1.257.004.166-.051.265-.083.424-.063.317-.285.618-.572.746a.529.529 0 0 1-.251.03Zm7.602-1.072c-.222-.044-.223-.055-.3-.103a2.152 2.152 0 0 1-.373-.283c-.169-.166-.278-.37-.159-.581.124-.22.236-.224.49-.175.329.065.7.346.783.687.061.25.082.334-.158.434a.5.5 0 0 1-.283.021ZM51.775 80.006c-.233-.016-.39-.103-.413-.355a7.464 7.464 0 0 1 .03-1.61c.012-.1-.014-.205.005-.304.04-.205.078-.403.136-.605.135-.47-.106-.977-.284-1.398-.082-.194-.162-.378-.24-.575-.091-.23-.22-.455-.267-.699-.049-.246-.116-.538-.041-.777.122-.392.356-.733.686-.985.204-.155.47-.22.515.103.04.287-.075.584.025.86.063.175.215.353.419.785a.634.634 0 0 1 .03.379c-.047.291-.096.284-.108.53-.013.277.271.397.43.604.165.214.117.562.117.825 0 .138.009.143-.08.477-.027.102-.129.241-.154.378-.02.106-.024.244.08.269.145.033.17-.23.217-.333.087-.191.233-.349.318-.541.065-.15.12-.306.122-.468a1.03 1.03 0 0 0-.05-.34c-.078-.236-.256-.353-.406-.546a.842.842 0 0 1-.13-.286.405.405 0 0 1-.01-.192c.027-.135.06-.235.085-.371.017-.098.076-.167.049-.262-.132-.456-.049-.928-.208-1.363-.077-.208-.204-.394-.263-.605-.033-.118.002-.249-.03-.366-.086-.317-.267.05-.438.1-.18.051-.252.036-.309-.134-.029-.087-.02-.184-.014-.275.019-.306.163-.506.41-.677.172-.12.424-.253.453-.47.04-.302-.053-.546.173-.769.118-.116.284.016.35.154.023.048.132 1.64.158 1.796.02.115.056.418.127.822.027.153.08.302.108.456.115.625.212 1.243.309 1.872.032.21.088.198.14.475.081.433.158.868.121 1.308-.022.263-.3.44-.437.662-.097.158-.058.315-.078.498-.02.184-.067.36-.14.532-.062.144-.052.154-.194.327a9.18 9.18 0 0 1-.955 1.026c-.101.091-.229.077-.364.068Zm1.641 1.288c-.353-.09-.267-.296-.333-.632-.036-.182-.221-.278-.276-.447-.122-.381-.068-.693.316-.863a.205.205 0 0 1 .139-.008c.225.069.392.26.5.471.026.051.025.113.05.165.112.229.223.44.215.695a.782.782 0 0 1-.07.289c-.06.137-.19.277-.342.313-.065.015-.135.033-.199.017Zm-1.517 1.663c-.234-.063-.367-.193-.25-.44.08-.166.216-.288.311-.445a.295.295 0 0 0 .037-.108c.042-.275.058-.483.171-.743.06-.136.036-.227.012-.375-.026-.156-.07-.26.071-.315.167-.066.333-.004.49.085.039.022.077.063.083.109.037.276-.073.578.13.774.125.122.332.082.376.27.035.149-.062.266-.16.38a4.528 4.528 0 0 1-.628.62.814.814 0 0 1-.329.166c-.103.022-.213.05-.314.022Zm-11.931 2.478c-.458-.184-.862-.522-1.217-.85-.13-.12-.096-.225-.073-.397a.562.562 0 0 0-.013-.228.82.82 0 0 0-.168-.31c-.025-.03-.03-.044-.171-.046-.182-.003-.373.07-.552.076-.178.006-.368-.014-.476-.182-.048-.076-.052-.172-.066-.26a1.102 1.102 0 0 1-.012-.233c.055-.909-.044-1.765-.214-2.66-.063-.335-.078-.676-.137-1.01-.08-.447-.2-.875-.3-1.316-.077-.339-.093-.348-.058-.494.03-.123.137-.134.254-.104.117.03.243.102.312.144.216.13.438.187.675.269.188.064.38.212.402.412.07.604.1 1.212.149 1.818.017.22.02.443.076.657.05.19.13.35.196.535.125.342.451.535.642.837.127.2.05.429.098.655a.44.44 0 0 0 .073.155c.051.07.192.164.299.288.047.056.03.066.136.244a.99.99 0 0 0 .19.24c.098.086.19.146.32.148.238.004.358-.244.567-.334.139-.06.35-.077.525-.046.136.024.271.083.309.227.024.092.045.204-.006.286-.189.306-.449.561-.658.853-.169.237-.114.272-.27.468-.24.3-.49.295-.832.157Zm1.757 1.15c-.337-.1-.694-.232-.918-.498-.236-.28-.113-.445.099-.722.188-.245.245-.32.354-.438.13-.14.288-.308.46-.422.269-.18.473-.16.67.053.14.154.198.38.23.586.023.152.035.309.024.463-.01.14-.068.274-.083.414-.019.172-.03.33-.106.45-.172.27-.474.192-.73.115Zm5.506 3.26c-.224-.424.068-.928.148-1.364.028-.148.077-.196.21-.267.111-.06.297-.076.404-.01.293.182.37.475.735.317.11-.048.323-.23.162-.324-.202-.117-.471-.091-.668-.221-.209-.139-.463-.329-.314-.582.134-.226.371-.341.56-.522a.805.805 0 0 0 .205-.722c-.064-.266-.21-.692-.051-.944a.967.967 0 0 0 .131-.312c.045-.212.033-.416.2-.565.31-.278.395-.56.55-.943.105-.26.33-.475.433-.736.07-.18.063-.377.187-.53.18-.22.393-.062.554.112.096.104.177.231.264.297.175.13.407.22.46.442.014.062.027.13.01.192a1.342 1.342 0 0 1-.153.314c-.184.31-.431.593-.537.939-.092.301-.128.422-.136.594-.014.283.037.566.034.848-.003.25-.109.345-.335.472-.266.15-.476.3-.628.578-.063.113-.17.246-.127.368.15.417.523.902.343 1.351-.104.26-.489.38-.72.5-.165.086-.338.192-.5.279-.26.14-.517.29-.78.427-.227.12-.488.3-.64.012Zm2.25-4.464c-.064-.048-.118-.106-.134-.169-.043-.173.053-.217.221-.26a.85.85 0 0 1 .327-.034c.097.016.17.07.183.193.008.076-.03.15-.087.213-.176.194-.304.208-.51.057Zm7.96 1.417c-.132-.008-.22-.05-.278-.173a.275.275 0 0 1-.01-.18c.044-.164.134-.312.185-.472.081-.252.02-.27.137-.584.062-.167.303-.144.455-.07.186.09.332.23.538.254.272.034.58-.095.664.2.076.268-.034.512-.273.66-.221.14-.477.201-.73.27-.153.042-.153.041-.228.054a1.99 1.99 0 0 1-.46.041ZM40.992 63.542c-.036-.084-.053-.182-.073-.281-.049-.246.146-.541.348-.28.102.131.097.335.05.516-.061.24-.18.379-.325.045Zm.3 5.757c.123-.27.247-.54.364-.814.02-.048.043-.098.045-.15.005-.164-.043-.293-.066-.454-.036-.255.186-.345.395-.247.236.111.218.2.225.466a.174.174 0 0 1-.017.084c-.227.44-.407.907-.723 1.287-.285.34-.4.22-.223-.172Zm-3.785 7.316c-.042.006-.12-.037-.19-.073-.116-.061-.225-.177-.08-.234.165-.065.297-.025.387-.176a1.59 1.59 0 0 0 .169-.353c.038-.189.05-.186.084-.382.037-.207 0-.402.03-.593.063-.406.311-.304.269.088-.043.394.092.789-.117 1.16-.143.253-.243.52-.552.563Zm.613-3.693a.674.674 0 0 1-.442-.174.21.21 0 0 1-.06-.104c-.017-.088.03-.167.083-.233.197-.245.254-.133.412.09.094.132.111.121.175.156.045.024.22.035.205.1-.035.144-.24.17-.373.165ZM34.17 44.6a.288.288 0 0 1 .042-.177c.324-.51.59-.854.66-.987.041-.081.08-.162.101-.23.027-.089.02-.19-.12-.214-.137-.023-.189.046-.262.137-.23.287-.359.65-.579.944-.09.121-.1.116-.162.146-.155.078-.343.11-.497.026-.256-.14-.701-.522-.526-.83.169-.296.404.086.63.112.202.023.337-.183.436-.344.06-.097.178-.307.216-.487.026-.123.023-.27-.095-.29-.176-.028-.248.137-.405.232-.17.103-.367.028-.563.06-.259.044-.27.24-.434.428-.105.12-.257.151-.411.11a.264.264 0 0 1-.17-.14c-.127-.258.162-.619.281-.836.09-.165.09-.17.112-.29.041-.225.066-.429.155-.637.114-.27.396-.357.649-.5.227-.13.37-.374.553-.56.236-.238.528-.41.763-.648.11-.11.175-.268.295-.372a.245.245 0 0 1 .281-.029c.118.072.119.073.175.127.385.373.73 1.078.81 1.428.081.352.146.264.174.495.027.231.065.624.045.871-.02.248 0 .266-.157.606-.156.341-.542.992-.995 1.317-.056.04-.042.055-.386.353-.073.063-.182.147-.267.218-.117.097-.334.231-.349-.039Zm9.412-11.157c-.085-.005-.173-.038-.212-.113-.129-.249-.08-.587-.056-.86a.813.813 0 0 1 .089-.31c.069-.13.195-.104.282-.006.045.05.051.13.08.196.126.287.32.561.508.792.034.041.033.114.007.163-.04.074-.06.065-.092.069-.204.02-.401.082-.606.07Zm-6.993-2.117a.531.531 0 0 1-.395-.408c-.057-.264.018-.319.286-.275.181.03.264.15.304.324.055.241.06.415-.195.36Zm-.17.764c-.231-.03-.503-.14-.384-.412.08-.184.386-.153.541-.062.052.03.102.082.113.143.04.216-.033.362-.27.33Zm3.876 2.47c-.124-.018-.196-.09-.264-.164-.187-.203-.145-.317-.008-.528.118-.183.277-.333.43-.484.114-.114.227-.234.37-.316.145-.083.315-.128.438.003.056.061.053.069.056.112.032.422-.073.73-.34 1.068-.1.126-.209.25-.368.287a.838.838 0 0 1-.315.023Zm8.03 2.913c-.57-.097-.66-.757-.835-1.214-.017-.044-.03-.1-.006-.141a1.18 1.18 0 0 1 .366-.418c.454-.315.968-.524 1.451-.793.021-.012.037-.034.06-.044.33-.14.656-.312.995-.43.21-.073.785-.032.7-.365-.057-.225-.37-.254-.214-.519a.97.97 0 0 1 .205-.238c.087-.075.182-.145.289-.189.366-.152.764-.19 1.136-.332.224-.086.448-.273.67-.117.084.058.147.143.212.222.036.042.07.089.092.141.277.68.482 1.387.31 2.117a.575.575 0 0 1-.132.292c-.211.28-.534.27-.864.361-.21.059-.398.095-.599.179-.194.08-.327.26-.505.372-.043.028-.1.026-.144.05a9.112 9.112 0 0 1-.89.425c-.327.136-.65.322-.997.398-.215.048-.441.014-.658.056-.14.027-.316.148-.359.155-.094.016-.19.048-.282.032ZM42.68 26.097c-.093-.003-.154-.017-.178-.107-.02-.075.08-.132.155-.173.075-.042.17-.052.233-.084.165-.083.241-.204.407-.135.038.016.065.062.07.104a.189.189 0 0 1-.047.134.687.687 0 0 1-.346.228 1.008 1.008 0 0 1-.293.032Zm-1.362 9.365c-.1 0-.19-.064-.273-.119-.382-.253-.72-.577-1.096-.838-.19-.13-.43-.283-.557-.47-.124-.18-.105-.193-.145-.32-.035-.11-.017-.12-.051-.156-.288-.305-.617-.6-.877-.927-.1-.127-.103-.159-.156-.22-.16-.186-.256-.471-.302-.71-.038-.201-.034-.28-.025-.485.02-.452.11-.74.352-1.111.209-.319.566-.612.953-.662.139-.017.227.03.524-.017.108-.016.164-.16.233-.062.044.063-.03.168.013.232.125.191.41.002.588-.066.075-.029.14-.003.188.056.11.139.163.36.313.462.34.23.625.202.813.602.103.22.142.423.31.597a.201.201 0 0 0 .13.057c.163.01.33.012.489-.026.27-.064.5-.271.642-.514.06-.104.2-.3.35-.408.09-.063.198-.11.284-.045.06.045.037.125.006.188-.04.082-.12.159-.152.225a1 1 0 0 0-.116.372 2.9 2.9 0 0 0 .035.666c.02.111.035.111.278.489.095.15.23.277.335.42.101.14.134.197.208.338.111.213.045.466.13.686.04.102.163.104.236.078.074-.026.14-.1.156-.214.027-.19.088-.38.207-.53.102-.127.124-.114.125-.139.004-.094-.03-.163-.051-.211-.07-.158-.063-.198.208-.137a.95.95 0 0 0 .565-.06c.456-.177.742-.454.847-.94.033-.151.055-.315.033-.506-.011-.09-.039-.197-.027-.296.024-.21.165-.318.327-.146a.52.52 0 0 1 .116.187.816.816 0 0 1 .055.238c.006.355-.034.671-.097.992-.077.386-.192.66-.446.965-.05.06-.11.112-.228.062-.239-.1-.611-.35-.822-.1-.165.193-.2.414-.243.667-.014.082-.011.162-.03.243-.022.104-.09.194-.11.3-.051.271-.2.535-.491.532a.79.79 0 0 1-.277-.07c-.145-.066-.145-.066-.225-.111-.167-.095-.256-.252-.378-.4-.116-.141-.147-.202-.32-.132-.222.09-.366.3-.44.534-.028.09-.02.193-.044.286-.014.057-.025.117-.06.162-.008.011-.03.012-.038.002-.062-.083-.036-.185-.07-.281-.05-.145-.11-.22-.251-.278a.238.238 0 0 0-.164.009 1.568 1.568 0 0 0-.491.28c-.256.215-.227.245-.555.572-.152.151-.236.208-.441.208Zm.6-6.923c-.076-.005-.163-.02-.25-.015-.12.008-.178.044-.212-.082-.01-.037.024-.073.042-.107.235-.454.231-.46.265-.484.116-.078.223-.02.265.095.06.167.066.337.027.513-.014.063-.077.084-.137.08Zm3.707 20.773c-.114-.023-.091-.15-.135-.254-.153-.358-.278-.724-.415-1.09-.081-.22-.04-.232-.104-.393-.057-.146-.171-.338-.19-.52-.007-.084-.026-.189.039-.235.086-.06.176.056.232.162.055.106.1.232.113.296.023.124.015.253.04.376.027.125.1.22.145.338.032.086.023.184.056.27.108.29.278.57.38.861.043.12-.037.215-.161.19ZM43.83 43.87c-.101-.188-.101-.459-.085-.687.004-.052 0-.107.02-.152.051-.11.132-.053.194.025.037.047.089.095.098.138.036.166.069.398.046.59-.027.227-.163.29-.273.086Zm9.44 7.023c-.026-.005-.06-.013-.071-.037-.02-.046.042-.134.098-.22.072-.11.166-.221.19-.27.092-.187.18-.376.324-.526.034-.036.072-.05.116-.02.052.035.055.076.032.135a6.614 6.614 0 0 1-.216.497 1.04 1.04 0 0 1-.239.343.391.391 0 0 1-.16.088c-.024.005-.05.014-.074.01ZM40.91 42.89c-.211-.117-.134-.276.008-.448.388-.472.758-.91 1.051-1.445.13-.238.256-.48.393-.713.148-.253.188-.427.28-.688.08-.233.2-.21.271-.03.016.04-.016.212-.056.37-.036.144-.112.245-.158.386-.13.403-.364.808-.587 1.161-.192.306-.386.62-.593.915-.14.2-.247.37-.471.479-.042.02-.098.035-.137.013Zm-1.335.732c-.219-.044-.066-.22.048-.35.091-.104.193-.214.328-.243.24-.052.4-.023.376.25-.018.2-.154.273-.282.308-.13.034-.292.07-.47.035Zm-.715-.833c-.055-.002-.125-.002-.16-.044-.084-.106.019-.222.1-.304.228-.233.439-.485.707-.668.288-.197.329.102.213.304-.162.283-.434.555-.714.677a.347.347 0 0 1-.146.035Zm-.189-1.272c.222-.417.647-.656 1.037-.909.26-.169.36-.13.18.165-.173.286-.444.557-.671.762-.067.06-.19.155-.235.171-.177.066-.458.088-.31-.19Zm-.644-1.252c.073-.21.132-.437.284-.595.15-.157.26-.24.462-.145.106.05.213.113.286.207.146.19-.214.182-.358.227-.24.073-.364.242-.506.424-.033.041-.056.096-.102.131-.223.167-.098-.155-.066-.249Zm1.59-1.429a.525.525 0 0 1-.347-.147c-.239-.232-.223-.25-.397-.515a.21.21 0 0 1-.012-.223c.086-.18.325-.343.519-.388a.409.409 0 0 1 .17-.01c.137.028.243.105.375.149.113.037.326.007.305.148-.032.21-.053.395-.084.603-.013.092-.011.107-.116.207-.126.121-.237.183-.413.176Zm.749 1.073c-.187-.009-.034-.272.038-.384.091-.142.406-.538.49-.213.076.293-.252.609-.528.597Zm.874-1.7a.844.844 0 0 1 .242-.295c.138-.112.275-.05.234.147-.024.116-.124.242-.221.325-.157.134-.355.063-.255-.177Zm.938-.735c-.166-.014-.378-.158-.297-.343.048-.11.169-.243.29-.22.18.037.267.117.27.298.002.176-.098.279-.263.265Zm-.063 1.598c-.097.011-.161-.106-.195-.199-.046-.126.099-.407.248-.58.295-.342.225-.049.234.108.015.274.011.635-.287.67Zm-.208-2.748c-.155-.033-.195-.147-.078-.276.098-.108.285.045.255.163-.023.09-.08.133-.177.113Zm-.803.074c-.164-.034-.156-.064-.22-.112-.277-.205-.562-.405-.905-.486-.082-.02-.145-.091-.226-.114-.363-.099-.743-.218-1.066-.41-.04-.024-.063-.075-.068-.12-.039-.4.63-.01.732.047.335.189.694.338 1.024.533.208.123.481.213.67.374a.641.641 0 0 1 .154.19c.023.044-.046.108-.095.098Zm-4.32-3.328c-.382-.055.087-.44.254-.387.081.025.078.047.08.073.02.171-.184.335-.333.313Zm13.928 7.1c-.255-.06-.463-.294-.722-.324-.472-.055-.962-.003-1.43.075-.282.047-.492.276-.768.355-.088.026-.152-.018-.129-.104.05-.185.338-.255.502-.324.086-.037.2-.086.263-.138.134-.111.136-.111.232-.236.184-.238.219-.32.514-.246.157.04.303.093.466.09a10.69 10.69 0 0 0 1.001-.052.602.602 0 0 0 .217-.075c.149-.08.975-.47.74 0-.15.3-.39.548-.598.81-.103.13-.138.205-.288.17Zm-4.985-9.11c-.041-.124-.073-.258-.043-.37.05-.181.202-.215.343-.102.056.046.136.101.136.18 0 .111-.072.228-.134.326-.168.267-.233.173-.302-.035Zm.185-1.238a.533.533 0 0 1 .039-.145.34.34 0 0 1 .094-.13c.108-.089.238-.05.193.149a.65.65 0 0 1-.062.173c-.089.158-.29.194-.264-.047Zm-4.805 25.2c-.005-.075.009-.153-.015-.224a.907.907 0 0 0-.14-.246c-.175-.236-.385-.48-.429-.759-.02-.127-.031-.274.056-.4.13-.187.338.06.477.29.084.137.166.268.183.328.046.161.126.29.171.453a.937.937 0 0 1 .022.421 1.13 1.13 0 0 1-.129.343c-.216.38-.172.143-.196-.206Zm9.883 16.09c-.065-.004-.084-.057-.066-.136.03-.135.137-.239.19-.367.05-.118.096-.239.128-.363.018-.072-.048-.076-.004-.482.027-.257.238-.444.32-.688a2.41 2.41 0 0 0 .12-.5 7.3 7.3 0 0 1 .07-.465c.011-.062-.011-.127.001-.189.025-.12.093-.23.107-.352a1.19 1.19 0 0 0-.02-.404c-.029-.12-.17-.244-.146-.363.048-.232.139-.373.052-.598-.063-.166-.07-.165-.278-.5-.156-.251-.173-.3.05-.49.108-.092.227-.169.34-.255.31-.238.628-.48.862-.792.186-.249.174-.257.193-.292.1-.183.202-.524.423-.5.217.024.087.282-.006.45-.013.025-.04.112-.16.222-.227.209-.256.178-.355.295-.145.17-.11.384-.139.597-.026.195-.217.126-.382.18-.298.098-.279.192-.232.5.018.12.074.099.14.264.083.209.143.424.201.64.032.117.107.22.133.34.052.225.024.319.092.54.087.283-.106.488-.181.747-.036.122.018.13-.015.315-.031.179-.075.322-.12.5a1.36 1.36 0 0 1-.267.53c-.163.199-.408.345-.535.571-.017.03.022.034-.008.263-.024.19-.16.29-.27.447-.066.09-.128.34-.238.334Zm-.944-5.374c-.255-.03-.249-.166-.189-.312.018-.045.035-.104.075-.169.167-.269.3-.557.471-.822.042-.065.114-.109.156-.174.145-.225.126-.462.183-.723.066-.303.358-.434.488-.078a.801.801 0 0 1 .022.41 1.898 1.898 0 0 1-.15.535c-.136.27-.145.269-.243.38-.13.149-.31.257-.419.421-.115.175-.166.56-.394.532ZM46.8 67.86c-.096-.076-.184-.17-.275-.253-.01-.01-.014-.025-.024-.034-.005-.004-.015.002-.018-.001-.337-.337-.73-.616-1.022-.992-.12-.154-.215-.323-.32-.487-.07-.112-.128-.2-.186-.318-.066-.133-.212-.23-.24-.375-.081-.419.01-.891-.142-1.293-.073-.195-.152-.351-.207-.556-.024-.086-.21-.5-.028-.457.219.053.348.28.417.486.04.12.002.254.03.376.06.252.112.45.184.693.052.174.202.302.276.468.062.137.056.304.108.445.138.377.407.706.69.99.434.432.409.461.476.497.199.106.355-.076.304-.26-.066-.24-.238-.334-.145-.572.06-.158.051-.17.158-.287.138-.152.275-.195.468-.254.11-.034.207-.106.317-.143.111-.037.11-.04.165-.05.375-.068.746-.243.887-.61.038-.096.019-.207.047-.306.071-.252.069-.367.28-.555.14-.125.306-.265.306-.462.001-.392-.12-.838.041-1.209.042-.096.092-.19.156-.272.154-.2.303-.447.556-.494.127-.024.121.185.086.337a2.221 2.221 0 0 1-.127.385c-.161.327-.403.7-.438 1.074-.007.074-.065.139-.073.213a6.836 6.836 0 0 1-.1.677c-.07.349-.142.668-.43.865-.15.103-.185.02-.331.08-.228.093-.36.334-.527.51a.5.5 0 0 1-.195.126c-.083.03-.18.003-.26.035-.195.077-.203.073-.339.188-.106.089-.19.183-.198.32-.025.433.056.866.093 1.298.031.357-.111.421-.42.177Zm-1.262-4.686c-.28-.048-.238-.354-.217-.61.013-.166.087-.322.142-.48.075-.215.16-.415.342-.557.166-.128.363-.168.419.056.075.305-.324.483-.39.769-.049.208-.024.44-.113.635-.06.129-.052.209-.183.187ZM42.4 61.975c-.135-.027-.24-.14-.308-.26-.041-.071-.091-.154-.07-.236.041-.17.173-.199.28-.166.108.033.24.125.28.252.036.115.066.304-.057.377-.038.022-.083.042-.125.033Zm4.071-1.169c-.09-.02-.118-.075-.125-.115-.007-.04-.003-.102.056-.172.063-.073.159-.045.212.002.052.047.101.144.042.213-.045.052-.118.087-.185.072Zm.77-.512c-.095-.033-.223-.12-.218-.232a.157.157 0 0 1 .04-.088c.198-.244.226-.222.55-.667.177-.243.312-.439.531-.646.066-.062.07-.146.105-.227.107-.25.11-.514.093-.802-.018-.3.127-.579.196-.87.022-.091.069-.227.164-.224.136.004.13.097.11.233-.019.125-.097.207-.057.325.092.272.077.36.023.642-.036.19-.048.362-.086.55-.037.184-.196.312-.236.495-.014.062.02.13 0 .189-.113.312-.353.494-.642.668-.24.145-.276.472-.51.633-.018.013-.042.028-.063.02Zm-4.95-.778c-.147-.028-.188-.102-.178-.196.01-.093.07-.205.126-.309.103-.189.231-.2.342-.018.068.112.044.278-.034.394-.06.09-.151.15-.256.13Zm-.173 1.09c-.035 0-.068-.028-.083-.058a.905.905 0 0 1-.101-.363c-.002-.12.041-.225.17-.257.163-.042.225.056.245.212.02.15-.053.277-.13.408a.124.124 0 0 1-.101.058Zm.83-2.163c-.29-.044-.247-.226-.12-.403.057-.081.132-.16.2-.226.108-.105.248-.173.358-.276.128-.12.194-.289.32-.41.107-.105.145-.076.194-.184.122-.27.149-.537.384-.726.268-.215.606-.34.87-.557.1-.082.175-.191.26-.29.255-.292.51-.51.869-.677.194-.09.373-.193.561-.302.057-.033.117-.067.163-.114.105-.109.117-.106.19-.266.08-.18.114-.34.236-.495.098-.125.227-.221.328-.343.05-.061.063-.053.147-.196.175-.301.178-.363.247-.508.067-.14.126-.28.197-.418.022-.044.045-.099.091-.113.108-.032.16.117.156.207-.003.063-.029.12-.045.18-.026.096-.034.194-.056.297-.044.207-.143.397-.243.582-.016.03-.367.301-.382.363-.003.01-.022.005-.027.013-.446.655-.423.673-.573.836a2.67 2.67 0 0 1-.71.556c-.888.468-1.085.48-1.703 1.361-.22.313-.606.464-.88.726-.235.223-.331.54-.491.82-.13.228-.265.605-.541.563Zm3.466-5.092c-.137.01-.206-.127-.178-.265.106-.52.134-.514.213-.735.049-.136.135-.258.168-.397.062-.262-.114-.557-.17-.817-.017-.086.012-.181-.023-.26-.114-.258-.127-.251-.188-.36-.052-.094-.131-.158-.181-.232-.064-.095-.128-.208-.051-.332.029-.047.1-.061.155-.056.074.006.132.067.192.113.212.161.337.419.419.666.064.193.118.35.165.548.032.131.016.235-.001.37-.012.09-.053.174-.06.265-.01.132.034.267.01.398-.044.252-.083.243-.104.404-.033.26-.08.67-.366.69Zm2.78 22.312c-.221-.025-.6.152-.688-.067-.12-.3.31-.192.524-.286.308-.138.334-.502.402-.824.024-.116.1-.363.246-.247.025.02.05.051.05.085-.004.185-.063.366-.108.55-.042.172-.01.345-.068.508-.05.14-.2.298-.357.28Z" clip-rule="evenodd"/>
</svg>
