<svg width="60" height="60" viewBox="0 0 60 60" fill="none" xmlns="http://www.w3.org/2000/svg">
<rect width="60" height="60" fill="#00A0DF"/>
<path d="M49.4019 29.0991C49.4019 30.3537 47.9063 31.4827 46.7385 31.4827C45.96 31.4827 45.2839 30.9182 45.2839 30.5837C45.2839 30.3746 45.3454 29.7682 45.6322 29.7682C45.8371 29.7682 46.0215 29.9355 46.2263 30.1237C46.5132 30.3955 46.8615 30.7091 47.3737 30.7091C47.8858 30.7091 48.4185 30.3537 48.4185 29.7682C48.4185 29.4127 48.1522 29.0782 47.8654 28.6809C47.4966 28.2 47.0663 27.6355 47.0663 26.9246C47.0663 25.6282 48.3366 23.9555 49.7707 23.9555C50.4058 23.9555 50.7746 24.3318 50.7746 24.6873C50.7746 24.98 50.4673 25.3564 50.119 25.3564C49.8527 25.3564 49.6478 25.2518 49.4429 25.1682C49.238 25.0846 49.0332 24.98 48.7873 24.98C48.2956 24.98 47.9678 25.3564 47.9678 25.9418C47.9678 26.3809 48.2751 26.7991 48.6029 27.2382C48.9717 27.7818 49.4019 28.3882 49.4019 29.0991ZM18.158 19.8991C18.1376 19.8991 18.0966 19.9409 18.0966 19.9618V20.3173C18.0966 20.3382 18.1171 20.3591 18.1376 20.38L18.3424 20.4009L18.6088 20.4218C18.9571 20.4846 19.039 20.5473 19.039 20.7146C19.039 21.0073 18.7112 21.9482 18.2605 23.2446L17.8507 24.4155C17.5024 25.4609 16.9493 26.9037 16.4781 28.1791C15.9044 29.7055 15.4537 30.8973 15.4537 31.0646C15.4537 31.2527 15.5561 31.3155 15.9863 31.3155C16.4576 31.3155 16.6624 31.2318 16.7034 31.0646C17.5024 28.3673 19.7151 25.2937 20.8624 25.2937C21.2312 25.2937 21.3541 25.4191 21.3541 25.7955C21.3541 26.4018 20.8624 27.5309 20.3707 28.6182C19.9405 29.58 19.5512 30.4791 19.5512 30.9182C19.5512 31.3155 19.7356 31.5246 20.0634 31.5246C21.1902 31.5246 22.0507 30.4791 22.7473 29.6427L22.8498 29.5173L22.8702 29.4755L22.8498 29.4337L22.6244 29.1409C22.6244 29.1409 22.6039 29.12 22.5834 29.12C22.5629 29.12 22.5424 29.12 22.5424 29.1409C22.1532 29.5591 21.4976 30.1864 21.3132 30.2073C21.2517 30.2073 21.2312 30.2073 21.2107 30.1864C21.1902 30.1655 21.1902 30.1027 21.1902 29.9982C21.2107 29.9146 21.3132 29.6218 21.4976 29.2037C21.9278 28.1373 22.6449 26.3809 22.6449 25.3146C22.6449 24.4782 22.2556 23.9973 21.559 23.9973C20.1659 23.9973 19.0595 25.6073 18.5268 26.3809C18.4039 26.5691 18.281 26.7364 18.2605 26.7364H18.24C18.2195 26.6946 18.3015 26.5273 18.4449 26.1927C18.5883 25.8373 18.8137 25.2937 19.1415 24.4782C20.1863 21.7182 20.6166 20.2337 20.6166 20.1082C20.6166 19.9409 20.4732 19.92 20.3093 19.92H18.158V19.8991ZM15.1054 29.7891C15.1054 29.7682 15.1054 29.7473 15.1054 29.7264L14.8595 29.4755C14.8595 29.4546 14.839 29.4546 14.8185 29.4546C14.7981 29.4546 14.7981 29.4546 14.7776 29.4755L14.7571 29.4964C14.3268 29.8937 13.4868 30.5837 12.7493 30.6464C12.4624 30.6673 12.1961 30.5837 11.9912 30.3955C11.7454 30.1655 11.602 29.8309 11.5815 29.3918C11.5405 28.2418 12.4829 26.5273 13.4254 25.5027C13.9376 24.9591 14.4088 24.6664 14.7366 24.6664C15.1259 24.6664 15.3717 24.9591 15.6176 25.2518C15.8224 25.5027 16.0273 25.7537 16.3141 25.7537C16.4166 25.7537 16.5395 25.6909 16.642 25.6073C16.7444 25.5027 16.7854 25.3564 16.7854 25.21C16.7854 24.7291 16.3756 24.0182 15.3717 23.9973C14.2244 23.9764 12.8107 24.6873 11.7454 25.7955C10.7415 26.8618 10.2088 28.1164 10.2702 29.35C10.3112 30.3746 10.8644 31.4827 12.2576 31.4827C13.6712 31.4827 14.9005 30.1864 15.1054 29.7891ZM33.5444 27.1546C33.5239 27.2173 33.4419 27.3846 33.4215 27.3637H33.401V27.3009C33.401 27.2382 33.4829 26.9246 33.5649 26.5482C33.7288 25.8373 33.9541 24.8546 33.9541 24.5618C33.9541 24.1855 33.7493 23.9973 33.401 23.9973C32.6429 23.9973 31.4956 25.2727 31.1063 25.9418L31.0859 25.9627C31.0859 25.9837 31.0859 25.9837 31.1063 26.0046L31.3317 26.2346C31.3317 26.2555 31.3522 26.2555 31.3727 26.2555C31.3932 26.2555 31.4137 26.2346 31.4137 26.2346L31.4751 26.1509L31.5366 26.0673C31.7824 25.7327 32.3151 25.0637 32.6019 25.0637C32.7454 25.0637 32.8273 25.21 32.8273 25.4818C32.8273 26.1718 32.0898 28.2418 31.598 29.6218C31.3317 30.3955 31.1268 30.96 31.1268 31.0646C31.1268 31.2109 31.1883 31.2737 31.3112 31.2737H31.9463C32.0693 31.2737 32.1307 31.19 32.2127 30.9809C32.2127 30.9809 32.52 30.2282 32.7044 29.8518C33.9541 27.2382 34.6507 25.9 35.1834 25.3773C35.5317 25.0218 35.7776 24.8755 35.9619 24.8755C36.1054 24.8755 36.1873 25.0009 36.2898 25.1055C36.3922 25.2309 36.4946 25.3564 36.679 25.3773C36.802 25.3773 36.9249 25.3355 37.0273 25.2518C37.1912 25.1055 37.2732 24.8337 37.2732 24.5618C37.2732 24.0809 36.9454 23.9137 36.6585 23.9137C35.5317 23.9764 34.6917 24.8546 33.5444 27.1546ZM29.6107 23.8509C29.6517 23.83 29.7132 23.8509 29.7746 23.8927C29.7746 23.8927 29.7951 23.8927 29.7951 23.9137L30.2254 24.2064C30.3278 24.2482 30.3278 24.3737 30.3278 24.3946C30.3073 24.5409 29.9795 25.4609 29.5698 26.5273C29.0371 27.97 28.361 29.7682 28.3405 30.1027C28.3405 30.2282 28.3405 30.2909 28.3815 30.3118C28.4019 30.3327 28.4429 30.3537 28.5044 30.3537C28.7502 30.3537 29.16 29.8309 29.4878 29.4337L29.7337 29.12C29.7541 29.0991 29.7951 29.0991 29.8156 29.12L30.0615 29.4127L30.0819 29.4546C30.0819 29.4546 30.0615 29.4964 30.0615 29.4755C29.7132 30.0191 28.7502 31.4618 27.6439 31.4827C27.439 31.4827 27.2956 31.4409 27.1932 31.3155C27.0702 31.19 27.0088 31.0018 27.0088 30.73C27.0088 30.1864 27.2751 29.58 27.4185 29.2664L27.5005 29.0573C27.521 29.0155 27.521 28.9946 27.5005 28.9737H27.48C27.439 28.9737 27.1932 29.4127 27.1932 29.4127C26.0254 31.2318 25.1034 31.4618 24.4273 31.4618C23.8741 31.4618 23.3415 31.0018 23.3415 29.9773C23.3415 28.4718 25.001 24.1227 28.1766 24.1227C28.4634 24.1227 28.6683 24.1646 28.8322 24.2064C28.9551 24.2273 29.0576 24.2482 29.16 24.2482C29.2829 24.2482 29.3444 24.1437 29.4059 24.0391C29.4468 23.9764 29.5083 23.8927 29.6107 23.8509ZM24.5707 29.6427C24.5707 30.2491 24.7346 30.3537 25.042 30.3537C26.4351 30.3537 28.6888 26.3391 28.6888 25.4818C28.6888 24.9173 28.3815 24.6037 27.8488 24.6037C26.2098 24.6037 24.5707 27.5309 24.5707 29.6427ZM39.9161 29.4337C39.9161 26.7991 42.8049 23.9973 44.8332 23.9973C45.7961 23.9973 46.3083 24.6037 46.3083 25.1682C46.3083 26.5482 44.0956 27.1337 42.9073 27.1337L42.2312 27.1127C42.2312 27.1127 42.1288 27.1127 42.1083 27.1127C42.1083 27.1337 42.0673 27.1755 42.0673 27.1755C41.7395 27.6773 41.3093 28.3673 41.3093 29.2873C41.3093 30.04 41.76 30.5209 42.4771 30.5209C43.0712 30.5209 43.8702 29.9146 44.3005 29.58L44.4849 29.4546C44.5054 29.4337 44.5463 29.4337 44.5668 29.4546L44.7717 29.7264C44.7922 29.7473 44.7922 29.7682 44.7717 29.7891C44.4439 30.2282 43.0712 31.4827 41.7805 31.4827C40.6946 31.4827 39.9161 30.6464 39.9161 29.4337ZM44.6078 24.4573C43.7268 24.4573 42.7844 25.9209 42.4566 26.5273C44.2185 26.5064 45.2224 25.9627 45.2224 25.0846C45.2224 24.7291 44.9561 24.4573 44.6078 24.4573ZM39.3219 29.5173C39.3424 29.4964 39.3219 29.4546 39.3219 29.4546C39.3219 29.4337 39.0761 29.1409 39.0761 29.1409C39.0556 29.12 39.0556 29.12 39.0351 29.12C39.0146 29.12 38.9941 29.12 38.9941 29.1409L38.9122 29.2246C38.2976 29.9146 37.9493 30.3118 37.6624 30.3118C37.6215 30.3118 37.5805 30.3118 37.5395 30.27C37.4985 30.2282 37.478 30.1446 37.478 30.0609C37.4985 29.6637 38.1132 27.8446 39.3629 24.4991L40.2644 22.0946C40.7356 20.84 40.9815 20.2127 40.9815 20.1291C40.9815 20.0664 40.961 20.0246 40.9405 20.0037C40.8995 19.9618 40.8176 19.9409 40.6946 19.9409H38.5639C38.5229 19.9409 38.5024 19.9618 38.5024 20.0037L38.4819 20.3591C38.4819 20.38 38.5024 20.4218 38.5229 20.4218L38.9941 20.4637C39.3015 20.5264 39.4244 20.61 39.4039 20.8191C39.3834 21.1327 38.0107 24.6037 38.0107 24.6037C37.2732 26.4855 36.0234 29.7264 36.0029 30.5C35.9824 30.8346 36.0644 31.1064 36.2283 31.2946C36.3717 31.4618 36.5971 31.5246 36.8634 31.5246C37.7239 31.5246 38.5844 30.4164 39.158 29.6846L39.3219 29.5173ZM10.2702 36.0618C10.2702 37.0864 11.0693 37.63 11.8273 38.0482L12.1551 38.2155C12.9337 38.6127 13.241 39.01 13.241 39.6164C13.241 40.3064 12.8107 40.8082 12.1756 40.8082C11.1717 40.8082 10.5981 39.7418 10.3522 39.0937V39.0727L10.0039 39.1982V39.2191C10.1063 39.8673 10.2293 40.5782 10.3112 40.85L10.4751 40.9127L10.9259 41.08C11.2332 41.1846 11.602 41.2682 11.9707 41.2682C13.3844 41.2682 14.3473 40.39 14.3473 39.1146C14.3473 37.9227 13.4459 37.3791 12.7902 37.0655L12.5239 36.94C11.6634 36.5427 11.3151 36.1455 11.3151 35.6018C11.3151 35.0582 11.6429 34.5146 12.36 34.5146C13.2 34.5146 13.5278 35.1837 13.7327 35.8527V35.8737L14.1015 35.8109V35.79C14.0195 35.2673 13.9376 34.8073 13.8966 34.3682V34.3473L13.6507 34.2637L13.4459 34.2009C13.1795 34.0964 12.8312 34.0546 12.5034 34.0546C11.1922 34.0337 10.2702 34.87 10.2702 36.0618ZM15.1259 37.7555C15.1259 39.4909 16.3141 41.2473 18.9571 41.2473C19.6332 41.2473 20.5346 41.0382 20.9034 40.9337C21.0878 40.5155 21.3337 39.6164 21.4361 39.1564V39.1355L21.1083 39.0727V39.0937C20.5756 40.2018 20.0634 40.8082 18.9366 40.8082C17.482 40.8082 16.4985 39.47 16.4985 37.5046C16.4985 36.1246 17.1337 34.5146 18.9366 34.5146C20.002 34.5146 20.5756 34.9746 20.8624 36.0618V36.0827L21.1902 36.0409L21.1493 35.56L21.0059 34.3264H20.9854L20.801 34.2846C20.4527 34.2009 19.8585 34.0546 19.121 34.0546C16.7854 34.0337 15.1259 35.56 15.1259 37.7555ZM29.1805 34.18H26.2302V34.5146H26.2507C27.0088 34.5773 27.1112 34.6191 27.1112 35.79V37.1909H23.9766V35.79C23.9766 34.64 24.079 34.5773 24.8166 34.5146H24.8371V34.18H21.8459V34.5146H21.8663C22.7473 34.5773 22.8088 34.6609 22.8088 35.79V39.4909C22.8088 40.5991 22.7473 40.7037 21.9073 40.7664H21.8868V41.1009H24.878V40.7664H24.8576C24.079 40.7037 23.9766 40.6409 23.9766 39.4909V37.7137H27.0907V39.4909C27.0907 40.62 27.0293 40.7037 26.1483 40.7664H26.1278V41.1009H29.16V40.7664H29.1395C28.361 40.7037 28.2585 40.6618 28.2585 39.4909V35.79C28.2585 34.6609 28.32 34.5773 29.1395 34.5146H29.16L29.1805 34.18ZM39.5678 34.18H37.1707V34.5146L37.5395 34.5355C37.7444 34.5564 37.8468 34.5982 37.9083 34.6818C37.9493 34.7237 37.9493 34.7864 37.9493 34.8909C37.9493 34.9955 37.9288 35.1627 37.8673 35.3718C37.8468 35.4764 37.2732 37.7555 36.8224 39.3027C36.7405 39.0937 35.0195 34.3055 35.0195 34.3055V34.2846H34.6098C34.6098 34.2846 33.0732 39.2191 33.0527 39.3027C32.9912 39.0727 31.8439 35.2046 31.8439 35.2046C31.8029 35.0582 31.7824 34.9327 31.7824 34.8491C31.7824 34.7864 31.8029 34.7237 31.8234 34.7027C31.8849 34.6191 31.9873 34.5773 32.1717 34.5564L32.4995 34.5355V34.5146V34.2009H29.6722V34.5355H29.6927C30.2459 34.5982 30.4098 34.6609 30.6966 35.56L32.3971 41.2055H32.8888C32.8888 41.2055 34.4868 36.3337 34.4868 36.2709C34.5688 36.48 36.2488 41.1846 36.2488 41.1846V41.2055H36.7405V41.1846C37.7034 37.9227 38.4819 35.6227 38.4819 35.6018C38.8302 34.64 38.9122 34.5982 39.5473 34.5355H39.5678V34.18ZM41.3298 35.8527C41.3298 35.8737 40.5512 38.09 40.5307 38.1318H42.1288C42.1083 38.09 41.3502 35.8737 41.3298 35.8527ZM43.9522 39.7C44.3005 40.6618 44.4644 40.7037 45.038 40.7664H45.0585V41.1009H42.2927V40.7664L42.6 40.7246C42.7844 40.7037 42.8868 40.6618 42.9278 40.5991C42.9483 40.5782 42.9483 40.5364 42.9483 40.4946C42.9483 40.4109 42.9278 40.3273 42.8868 40.1809C42.7844 39.8673 42.5385 39.24 42.3337 38.6755H40.4283C40.3054 38.9473 40.1619 39.4282 40.0185 39.8464L39.9571 40.0137C39.8956 40.2018 39.8751 40.3273 39.8751 40.4318C39.8751 40.4946 39.8956 40.5364 39.9161 40.5782C39.9776 40.6618 40.08 40.7037 40.3054 40.7246L40.6127 40.7664V41.1009H38.2771V40.7664H38.2976C38.9327 40.6827 39.0351 40.6409 39.4039 39.7L41.5141 34.1591L41.9444 34.1173H41.9649L42.6615 36.0409L43.9522 39.7ZM47.5376 37.1909H47.9268C48.8488 37.1909 49.361 36.7309 49.361 35.8946C49.361 34.7237 48.3776 34.6191 48.0702 34.6191C47.7424 34.6191 47.6195 34.6609 47.599 34.6609C47.5171 34.7027 47.5171 34.8909 47.5171 35.1209V37.1909H47.5376ZM48.4185 34.18C49.1971 34.18 49.6273 34.2637 50.0166 34.5355C50.4058 34.8073 50.6107 35.2046 50.6107 35.7482C50.6107 36.71 49.6888 37.17 49.1766 37.2746C50.3239 37.4418 51 38.09 51 39.0518C51 39.7418 50.6927 40.2646 50.0576 40.6618C49.6068 40.9337 48.8897 41.08 48.0702 41.08H45.4683V40.7455H45.4888C46.2673 40.6827 46.3697 40.62 46.3697 39.47V35.7691C46.3697 34.6191 46.2878 34.5564 45.5502 34.4937H45.5298V34.1591H45.5502H48.4185V34.18ZM47.5376 37.6091V39.47C47.5376 39.9927 47.5785 40.3273 47.7424 40.4946C47.8449 40.5991 48.0088 40.6409 48.3161 40.6409C48.9717 40.6409 49.6888 40.2646 49.6888 39.1773C49.6888 38.1737 49.0332 37.6091 47.8858 37.6091H47.5376Z" fill="white"/>
</svg>
