<svg width="60" height="60" viewBox="0 0 60 60" fill="none" xmlns="http://www.w3.org/2000/svg">
<rect width="60" height="60" fill="black"/>
<g clip-path="url(#clip0_150_1087)">
<path d="M42.9221 33.9799L40.8639 21.995C40.8434 21.8738 40.8076 21.7551 40.7539 21.644C40.7028 21.5329 40.6363 21.4294 40.5596 21.3334C40.4804 21.24 40.3883 21.1567 40.286 21.086C40.1863 21.0152 40.0764 20.9572 39.9588 20.9142L28.4301 16.692C28.4181 16.6886 28.4054 16.6844 28.3917 16.6794C28.3798 16.676 28.367 16.6727 28.3534 16.6693C28.3397 16.6659 28.327 16.6626 28.315 16.6592C28.3014 16.6558 28.2878 16.6533 28.2741 16.6516C28.2383 16.836 28.2051 17.0228 28.1821 17.2097C28.1804 17.2131 28.1795 17.2173 28.1795 17.2223C28.1795 17.2274 28.1795 17.2316 28.1795 17.2349C28.1795 17.24 28.1795 17.2442 28.1795 17.2476C28.1795 17.2526 28.1804 17.2568 28.1821 17.2602C28.1565 17.4395 28.136 17.6213 28.1233 17.8006C28.1233 17.8023 28.1233 17.8048 28.1233 17.8082C28.1233 17.8115 28.1233 17.8141 28.1233 17.8158C28.1233 17.8191 28.1233 17.8216 28.1233 17.8233C28.1233 17.8267 28.1233 17.8301 28.1233 17.8334C28.1199 17.9025 28.1173 17.9715 28.1156 18.0405C28.1139 18.1095 28.113 18.1785 28.113 18.2476C28.113 18.3166 28.1139 18.3865 28.1156 18.4572C28.1173 18.5262 28.1199 18.5952 28.1233 18.6642C28.1233 18.7248 28.1233 18.7854 28.1233 18.8461C28.1233 18.9041 28.1233 18.9168 28.1233 18.9546C28.1284 18.9546 28.1326 18.9546 28.136 18.9546C28.1412 18.9546 28.1463 18.9546 28.1514 18.9546C28.1565 18.9546 28.1608 18.9546 28.1642 18.9546C28.1693 18.9546 28.1744 18.9546 28.1795 18.9546L37.3994 21.5456C37.563 21.591 37.719 21.6592 37.8647 21.745C38.0105 21.8309 38.1434 21.937 38.2636 22.0582C38.3812 22.1769 38.4835 22.3132 38.5653 22.4597C38.6497 22.6062 38.711 22.7627 38.7545 22.9243L41.094 32.1137C41.1349 32.2753 41.1528 32.4445 41.1503 32.6112C41.1477 32.7804 41.1221 32.9471 41.0761 33.1087C41.0301 33.2703 40.9636 33.4243 40.8767 33.5683C40.7897 33.7122 40.6824 33.8461 40.5622 33.9622L33.6895 40.5557C33.6434 40.5986 33.5923 40.6314 33.5463 40.6668C33.5718 40.8511 33.5949 41.0304 33.6102 41.2097C33.6187 41.2737 33.6255 41.3376 33.6307 41.4016C33.6358 41.4673 33.6409 41.5321 33.646 41.5961C33.6494 41.6617 33.652 41.7265 33.6537 41.7905C33.6571 41.8562 33.6588 41.921 33.6588 41.9849C33.6588 42.1567 33.6588 42.3284 33.6434 42.4976L42.4312 35.2956C42.5258 35.2173 42.6102 35.1264 42.6818 35.0279C42.7534 34.9269 42.8122 34.8183 42.8557 34.7021C42.8966 34.5885 42.9247 34.4673 42.9349 34.3461C42.9477 34.2248 42.9426 34.1011 42.9221 33.9799Z" fill="#52CAF5"/>
<path d="M32.4085 29.8486L31.2631 27.8764C31.2511 27.8545 31.2358 27.8351 31.217 27.8183C31.1983 27.7998 31.1778 27.7846 31.1557 27.7728C31.1352 27.7594 31.1122 27.7493 31.0866 27.7425C31.0628 27.7358 31.0381 27.7324 31.0125 27.7324H30.2301C30.4832 28.6541 30.7338 29.5885 30.9716 30.5153C31.0994 30.99 31.2221 31.4647 31.3551 31.942L32.4085 30.1415C32.4221 30.1196 32.4324 30.0961 32.4392 30.0708C32.446 30.0456 32.4494 30.0203 32.4494 29.995C32.4494 29.9698 32.446 29.9445 32.4392 29.9193C32.4324 29.894 32.4221 29.8705 32.4085 29.8486Z" fill="#52CAF5"/>
<path d="M34.9091 31.0001L33.7048 26.6062C33.6912 26.5557 33.6707 26.5085 33.6435 26.4648C33.6179 26.421 33.5872 26.3806 33.5514 26.3435C33.5139 26.3082 33.473 26.2779 33.4287 26.2526C33.3844 26.2257 33.3367 26.2055 33.2855 26.192L29.5807 25.2249C29.7801 25.9925 29.9872 26.7804 30.202 27.5809H31.0202C31.0594 27.5809 31.0977 27.586 31.1352 27.5961C31.1727 27.6062 31.2077 27.6213 31.2401 27.6415C31.2742 27.66 31.3048 27.6836 31.3321 27.7122C31.3594 27.7392 31.3824 27.7695 31.4011 27.8031L32.5492 29.7728C32.5679 29.8065 32.5824 29.8419 32.5926 29.8789C32.6011 29.9159 32.6054 29.9538 32.6054 29.9925C32.6054 30.0313 32.6011 30.0691 32.5926 30.1062C32.5824 30.1432 32.5679 30.1786 32.5492 30.2122L31.4139 32.1415C31.6108 32.8713 31.8051 33.5986 31.9918 34.3107L34.7608 31.5582C34.7966 31.5228 34.8273 31.4833 34.8528 31.4395C34.8784 31.3957 34.898 31.3494 34.9117 31.3006C34.9236 31.2501 34.9296 31.1996 34.9296 31.1491C34.9296 31.0986 34.9227 31.0489 34.9091 31.0001Z" fill="#52CAF5"/>
<path d="M37.3764 32.3434C37.4275 32.2904 37.4736 32.2323 37.5094 32.1691C37.5452 32.106 37.5733 32.0378 37.5937 31.9671C37.6116 31.8964 37.6219 31.8232 37.6219 31.75C37.6219 31.6767 37.6116 31.6035 37.5912 31.5328L35.7503 24.8459C35.7324 24.7752 35.7043 24.707 35.6659 24.6439C35.6301 24.5782 35.5841 24.5202 35.5304 24.4697C35.4793 24.4166 35.4204 24.3737 35.354 24.3358C35.29 24.3005 35.221 24.2727 35.1494 24.2525L28.9185 22.6262L29.192 23.7045L29.2125 23.8005C29.3045 24.1565 29.3966 24.5202 29.4963 24.8939L33.3622 25.904C33.4364 25.9242 33.5079 25.9545 33.577 25.9924C33.6435 26.0303 33.7048 26.0757 33.7611 26.1313C33.8148 26.1843 33.8633 26.2449 33.9017 26.3131C33.94 26.3787 33.9707 26.4495 33.9912 26.5227L35.198 30.9191C35.2185 30.9924 35.2287 31.0681 35.2287 31.1464C35.2287 31.2222 35.2185 31.2979 35.198 31.3737C35.1801 31.4469 35.1494 31.5176 35.1111 31.5858C35.0727 31.6515 35.0241 31.7121 34.9704 31.7676L32.0787 34.6439C32.2935 35.452 32.5006 36.2399 32.6923 36.9924L37.3764 32.3434Z" fill="#52CAF5"/>
<path d="M40.2988 32.2981L37.9593 23.1112C37.9363 23.0178 37.9005 22.9269 37.852 22.841C37.8034 22.7577 37.7446 22.6794 37.6781 22.6087C37.6091 22.538 37.5324 22.4774 37.4454 22.4269C37.3611 22.3789 37.2716 22.3385 37.177 22.3132L28.2562 19.8057C28.3969 20.4572 28.5707 21.1996 28.7599 22.0178L35.2798 23.7173C35.4 23.7501 35.5125 23.7956 35.6173 23.8562C35.7247 23.9168 35.8218 23.99 35.9088 24.0759C35.9957 24.1617 36.0724 24.2577 36.1338 24.3612C36.1951 24.4648 36.2437 24.5759 36.2744 24.6946L38.1128 31.3839C38.146 31.5001 38.1613 31.6213 38.1613 31.74C38.1639 31.8612 38.1486 31.9824 38.1153 32.0986C38.0846 32.2173 38.0386 32.3284 37.9772 32.4345C37.9159 32.538 37.8417 32.6365 37.7548 32.7223L32.8406 37.6163C33.0324 38.3612 33.2062 39.0708 33.3622 39.7173L39.9818 33.3637C40.0534 33.2981 40.1147 33.2223 40.1659 33.139C40.217 33.0557 40.2554 32.9673 40.2835 32.8738C40.3116 32.7804 40.327 32.6845 40.3295 32.5885C40.3321 32.49 40.3219 32.394 40.2988 32.2981Z" fill="#52CAF5"/>
<path d="M45.1057 36.9396L44.5483 21.9421C44.5432 21.7956 44.5176 21.6517 44.4741 21.5128C44.4307 21.3739 44.3693 21.2401 44.29 21.1163C44.2108 20.9926 44.1162 20.879 44.0088 20.7805C43.9014 20.682 43.7787 20.5961 43.6483 20.5254L30.225 13.5027C30.1636 13.4707 30.1005 13.4421 30.0358 13.4169C29.971 13.3933 29.9045 13.3731 29.8363 13.3562C29.7699 13.3411 29.7017 13.3293 29.6318 13.3209C29.5636 13.3142 29.4946 13.3108 29.4247 13.3108H29.4042C29.4042 13.336 29.3812 13.3638 29.371 13.3865C29.2201 13.7073 29.0744 14.0431 28.9389 14.3815C28.9389 14.3832 28.9389 14.384 28.9389 14.384C28.9389 14.3857 28.9389 14.3874 28.9389 14.3891C28.9389 14.3908 28.9389 14.3924 28.9389 14.3941C28.9389 14.3958 28.9389 14.3975 28.9389 14.3992C28.7932 14.7729 28.6576 15.1618 28.5375 15.5583C28.5613 15.5633 28.5852 15.5692 28.6091 15.5759C28.6329 15.5827 28.6568 15.5894 28.6807 15.5961C28.7045 15.6029 28.7284 15.6105 28.7522 15.6189C28.7744 15.6256 28.7974 15.6332 28.8213 15.6416L40.35 19.8638C40.5571 19.9396 40.754 20.0431 40.9329 20.1694C41.1145 20.2956 41.2755 20.4446 41.4162 20.6138C41.5568 20.783 41.6744 20.9674 41.7665 21.1669C41.8585 21.3638 41.925 21.5734 41.9608 21.7881L44.019 33.7754C44.0574 33.9901 44.065 34.2098 44.0446 34.427C44.0216 34.6441 43.973 34.8562 43.8963 35.0608C43.8196 35.2679 43.7173 35.4598 43.5895 35.6391C43.4616 35.8184 43.3108 35.9775 43.1395 36.1189L33.669 43.8941C33.652 43.9059 33.6349 43.9185 33.6179 43.932C33.6008 43.9438 33.5838 43.9556 33.5667 43.9674C33.5497 43.9791 33.5318 43.9909 33.513 44.0027C33.496 44.0145 33.4781 44.0263 33.4594 44.0381C33.4372 44.1509 33.4133 44.2637 33.3878 44.3765C33.3622 44.4876 33.3341 44.5995 33.3034 44.7123C33.2744 44.8234 33.2437 44.9345 33.2113 45.0456C33.179 45.1568 33.1449 45.267 33.1091 45.3764L44.3182 38.4219C44.4434 38.3436 44.5585 38.2502 44.6582 38.1416C44.7605 38.0355 44.8449 37.9143 44.9139 37.7855C44.9829 37.6568 45.0341 37.5179 45.0647 37.3764C45.098 37.2325 45.1108 37.086 45.1057 36.9396Z" fill="#52CAF5"/>
<path d="M46.5937 18.9091L45.7832 18.447L43.2392 16.9874L31.2221 10.1541L30.8923 10.6515C30.8463 10.7197 30.7951 10.8005 30.7389 10.899C30.6264 11.0783 30.4883 11.2904 30.3502 11.5354C30.2761 11.6566 30.2045 11.7828 30.1252 11.9217C30.1951 11.9369 30.2642 11.9546 30.3323 11.9748C30.4005 11.995 30.4679 12.0168 30.5343 12.0404C30.6008 12.0657 30.6664 12.0926 30.7312 12.1212C30.796 12.1498 30.8599 12.1801 30.923 12.2121L44.3463 19.2349C44.5917 19.3636 44.8193 19.5253 45.0238 19.7121C45.2284 19.899 45.4048 20.1111 45.5531 20.346C45.7014 20.5783 45.8164 20.8283 45.8983 21.0909C45.9826 21.3535 46.0287 21.6263 46.0389 21.899L46.5963 36.9041C46.6065 37.1768 46.5809 37.452 46.517 37.7197C46.4556 37.9874 46.3585 38.2475 46.2281 38.4899C46.0977 38.7323 45.9366 38.9571 45.7474 39.1591C45.5582 39.3611 45.3434 39.5379 45.1082 39.6844L32.2423 47.6642C32.1937 47.697 32.1349 47.7222 32.0812 47.75C31.9806 47.9352 31.8767 48.1179 31.7693 48.298C31.6619 48.4798 31.5502 48.6591 31.4343 48.8359C31.3184 49.0126 31.2 49.1869 31.0789 49.3586C30.9562 49.5303 30.8309 49.7004 30.7031 49.8687L30.6085 49.9899C30.6767 49.9748 30.744 49.9571 30.8105 49.9369C30.8769 49.9167 30.9426 49.8948 31.0073 49.8712C31.0721 49.846 31.1352 49.8182 31.1966 49.7879C31.2596 49.7593 31.3218 49.7281 31.3832 49.6945L46.563 41.053C46.7752 40.9318 46.9721 40.7828 47.146 40.6111C47.3198 40.4394 47.4707 40.245 47.596 40.0354C47.7187 39.8232 47.8133 39.5985 47.8772 39.3637C47.9412 39.1288 47.9718 38.8864 47.9744 38.644L47.9948 21.3283C47.9974 21.0859 47.9642 20.8434 47.9028 20.6061C47.8389 20.3712 47.7443 20.1465 47.6215 19.9344C47.4988 19.7222 47.3505 19.5278 47.1767 19.3561C47.0028 19.1818 46.8059 19.0328 46.5937 18.9091Z" fill="#52CAF5"/>
<path d="M27.3102 29.8383C27.2966 29.8602 27.2863 29.8838 27.2795 29.909C27.2727 29.9343 27.2693 29.9596 27.2693 29.9848C27.2693 30.0101 27.2727 30.0353 27.2795 30.0606C27.2863 30.0858 27.2966 30.1094 27.3102 30.1313L28.4556 32.101C28.4676 32.1229 28.4829 32.1431 28.5017 32.1616C28.5187 32.1784 28.5383 32.1936 28.5605 32.207C28.5826 32.2205 28.6065 32.2306 28.6321 32.2373C28.6559 32.2441 28.6807 32.2474 28.7062 32.2474H29.619L29.2815 30.9798L29.2662 30.8989C28.9977 29.8914 28.7241 28.8737 28.4608 27.8762L27.3102 29.8383Z" fill="#005BAA"/>
<path d="M17.0676 25.9875L19.1258 37.9724C19.1463 38.0936 19.1821 38.2122 19.2332 38.3234C19.2843 38.4345 19.3508 38.538 19.4301 38.634C19.5093 38.7274 19.6014 38.8107 19.7011 38.8814C19.8034 38.9521 19.9133 39.0102 20.0284 39.0532L31.5571 43.2754C31.5775 43.2804 31.5971 43.2863 31.6159 43.2931C31.6346 43.2981 31.6534 43.3023 31.6721 43.3057C31.6926 43.3107 31.7122 43.3149 31.7309 43.3183C31.7514 43.3217 31.771 43.3242 31.7897 43.3259C31.7897 43.3082 31.7897 43.288 31.8025 43.2653C31.8306 43.0708 31.8537 42.8739 31.869 42.6744C31.869 42.591 31.869 42.5077 31.8818 42.4269C31.8818 42.2855 31.8818 42.1441 31.8818 42.0027C31.8818 41.9067 31.8818 41.8107 31.8818 41.7097C31.8818 41.5658 31.8639 41.4193 31.8485 41.2729C31.8485 41.187 31.8255 41.0961 31.8153 41.0102L22.5877 38.4294C22.4241 38.384 22.2681 38.3158 22.1224 38.2299C21.9767 38.1441 21.8437 38.038 21.7261 37.9168C21.6059 37.7981 21.5062 37.6617 21.4218 37.5153C21.34 37.3688 21.2761 37.2122 21.2352 37.0506L18.8957 27.8612C18.8548 27.6996 18.8369 27.533 18.8394 27.3638C18.842 27.1971 18.8676 27.0304 18.9136 26.8688C18.9596 26.7072 19.0261 26.5532 19.113 26.4092C19.2 26.2653 19.3048 26.1314 19.4275 26.0153L26.3002 19.4218C26.3284 19.3966 26.3591 19.3814 26.3872 19.3587C26.3787 19.2813 26.371 19.203 26.3642 19.1239C26.3573 19.0447 26.3514 18.9656 26.3463 18.8865C26.3429 18.8074 26.3394 18.7291 26.336 18.6516C26.3343 18.5725 26.3335 18.4934 26.3335 18.4143V18.389C26.3335 18.0759 26.3488 17.7653 26.3744 17.4521L17.5508 24.6744C17.4562 24.7527 17.3718 24.8436 17.3028 24.942C17.2312 25.0431 17.175 25.1516 17.1315 25.2678C17.0906 25.3814 17.0625 25.5001 17.0522 25.6239C17.042 25.7451 17.0471 25.8663 17.0676 25.9875Z" fill="#005BAA"/>
<path d="M22.396 28.4345L24.2344 35.1264C24.2548 35.1946 24.283 35.2628 24.3213 35.3259C24.3597 35.3891 24.4057 35.4472 24.4568 35.4977C24.5105 35.5507 24.5693 35.5936 24.6333 35.6315C24.6997 35.6669 24.7688 35.6946 24.8404 35.7148L30.9537 37.3108C30.8668 36.9749 30.7773 36.629 30.6878 36.2805C30.6861 36.2754 30.6844 36.2704 30.6827 36.2653C30.681 36.2586 30.6801 36.2527 30.6801 36.2477C30.6784 36.2426 30.6767 36.2376 30.675 36.2325C30.6733 36.2275 30.6716 36.2224 30.6699 36.2174C30.5753 35.8562 30.4807 35.4876 30.381 35.1189L26.4154 34.081C26.3412 34.0608 26.2696 34.0305 26.2006 33.9926C26.1341 33.9547 26.0727 33.9068 26.0165 33.8537C25.9628 33.8007 25.9142 33.7401 25.8759 33.6719C25.8375 33.6062 25.8068 33.5355 25.7864 33.4623L24.5796 29.0658C24.5591 28.9926 24.5489 28.9169 24.5489 28.8386C24.5489 28.7628 24.5591 28.6871 24.5796 28.6113C24.5975 28.5381 24.6281 28.4674 24.6665 28.3992C24.7048 28.3335 24.7509 28.2729 24.8071 28.2174L27.773 25.2679C27.6784 24.8992 27.5864 24.5431 27.4969 24.1896C27.4969 24.1669 27.4841 24.1416 27.479 24.1189C27.3844 23.7578 27.2975 23.4042 27.2105 23.0608L22.6134 27.6239C22.5597 27.677 22.5162 27.735 22.4779 27.7982C22.4421 27.8613 22.4139 27.9295 22.3935 28.0002C22.3756 28.0709 22.3654 28.1441 22.3654 28.2174C22.3679 28.2906 22.3756 28.3638 22.396 28.4345Z" fill="#005BAA"/>
<path d="M14.8841 23.0354L15.4415 38.0379C15.4466 38.1844 15.4722 38.3284 15.5156 38.4672C15.5591 38.6061 15.6205 38.74 15.6997 38.8637C15.7764 38.9874 15.871 39.1011 15.981 39.1996C16.0884 39.3006 16.2085 39.3839 16.3389 39.4521L29.7622 46.4773C29.8321 46.5127 29.9046 46.543 29.9796 46.5682C30.0529 46.5952 30.1287 46.6162 30.2071 46.6314C30.2838 46.6465 30.3614 46.6558 30.4398 46.6592C30.5182 46.6642 30.5966 46.6634 30.675 46.6566C30.7031 46.6061 30.7262 46.5581 30.7517 46.5051C30.8949 46.2198 31.0355 45.9243 31.1608 45.6112V45.5935C31.1983 45.4992 31.235 45.4041 31.2708 45.3081C31.3066 45.2105 31.3406 45.1137 31.373 45.0177C31.4054 44.9201 31.4361 44.8225 31.4651 44.7248C31.4958 44.6272 31.5247 44.5287 31.552 44.4294C31.5179 44.4243 31.4847 44.4176 31.4523 44.4092C31.4199 44.4024 31.3875 44.3948 31.3551 44.3864C31.3228 44.3763 31.2912 44.3662 31.2605 44.3561C31.2281 44.3477 31.1966 44.3376 31.1659 44.3258L19.6372 40.1036C19.4301 40.0278 19.2333 39.9243 19.0517 39.798C18.8728 39.6718 18.7091 39.5228 18.5685 39.3536C18.4279 39.1869 18.3103 39.0001 18.2182 38.8031C18.1262 38.6036 18.0622 38.394 18.0239 38.1794L15.9656 26.192C15.9273 25.9773 15.9196 25.7602 15.9401 25.543C15.9631 25.3258 16.0117 25.1112 16.0884 24.9066C16.1651 24.7021 16.2699 24.5076 16.3978 24.3309C16.5256 24.1516 16.6764 23.99 16.8452 23.8511L26.3259 16.0809C26.3497 16.0624 26.3745 16.043 26.4 16.0228C26.4256 16.0043 26.4512 15.9866 26.4767 15.9698C26.5023 15.9512 26.5287 15.9336 26.556 15.9167C26.5833 15.8999 26.6105 15.8839 26.6378 15.8688C26.7452 15.4066 26.8884 14.9521 27.0239 14.5127L15.6716 21.5455C15.5463 21.6238 15.4313 21.7172 15.3316 21.8258C15.2293 21.9344 15.1449 22.0556 15.0759 22.1844C15.0068 22.3157 14.9557 22.4546 14.9225 22.5986C14.8892 22.74 14.8764 22.889 14.8841 23.0354Z" fill="#005BAA"/>
<path d="M24.8532 28.9773L26.06 33.3713C26.0736 33.4218 26.0932 33.4689 26.1188 33.5127C26.1461 33.5565 26.1776 33.596 26.2134 33.6314C26.2509 33.6684 26.2918 33.6996 26.3361 33.7248C26.3805 33.7501 26.4282 33.7694 26.4793 33.7829L30.2839 34.7753C30.0768 33.9975 29.8671 33.2021 29.6523 32.4092H28.7038C28.6645 32.4092 28.6253 32.4041 28.5861 32.394C28.5486 32.3839 28.5128 32.3688 28.4788 32.3485C28.4464 32.33 28.4157 32.3065 28.3867 32.2778C28.3594 32.2509 28.3364 32.2206 28.3177 32.1869L27.1722 30.2172C27.1518 30.1852 27.1364 30.1499 27.1262 30.1112C27.116 30.0741 27.1109 30.0363 27.1109 29.9975C27.1109 29.9605 27.116 29.9226 27.1262 29.8839C27.1364 29.8469 27.1518 29.8115 27.1722 29.7778L28.3253 27.8157C28.3305 27.8073 28.3364 27.7997 28.3432 27.793C28.3484 27.7846 28.3543 27.777 28.3611 27.7703C28.368 27.7635 28.3756 27.7568 28.3842 27.7501C28.391 27.745 28.3978 27.7391 28.4046 27.7324C28.2137 27.0068 28.0279 26.2964 27.8472 25.6011L25.0066 28.4268C24.9708 28.4639 24.9401 28.5034 24.9145 28.5455C24.889 28.5893 24.8702 28.6347 24.8583 28.6819C24.8447 28.7307 24.8378 28.7804 24.8378 28.8309C24.8361 28.8797 24.8413 28.9285 24.8532 28.9773Z" fill="#005BAA"/>
<path d="M19.6884 27.6693L22.0279 36.8562C22.0534 36.9496 22.0892 37.0405 22.1378 37.1264C22.1838 37.2097 22.2427 37.288 22.3117 37.3587C22.3807 37.4269 22.4574 37.4875 22.5418 37.538C22.6262 37.5885 22.7182 37.6264 22.8128 37.6541L31.6517 40.1365C31.5725 39.7981 31.4881 39.4471 31.3986 39.0784V39.0456C31.3091 38.6819 31.2171 38.3006 31.1174 37.9168L24.7074 36.2451C24.5898 36.2148 24.4748 36.1668 24.3699 36.1087C24.2625 36.0481 24.1654 35.9723 24.0784 35.889C23.9915 35.8031 23.9174 35.7072 23.856 35.6036C23.7921 35.4976 23.7461 35.3865 23.7128 35.2703L21.8745 28.5809C21.8438 28.4648 21.8259 28.3461 21.8259 28.2249C21.8259 28.1036 21.8412 27.9824 21.8719 27.8663C21.9052 27.7476 21.9512 27.6365 22.0125 27.5304C22.0713 27.4269 22.1455 27.3284 22.2324 27.2425L27.0623 22.4294C26.8705 21.6491 26.7043 20.9395 26.5586 20.3057L19.9952 26.5961C19.9262 26.6642 19.8648 26.74 19.8137 26.8233C19.7651 26.9092 19.7242 26.9976 19.6986 27.091C19.6705 27.1845 19.6577 27.2829 19.6552 27.3789C19.6552 27.4774 19.6654 27.5733 19.6884 27.6693Z" fill="#005BAA"/>
<path d="M29.0668 49.1087L29.1051 49.0582C29.1742 48.9773 29.2432 48.889 29.3199 48.7905L29.3531 48.745C29.435 48.639 29.5193 48.5253 29.6037 48.4016L29.6395 48.3637C29.7085 48.2652 29.7801 48.1617 29.8517 48.0556C29.7835 48.0405 29.7162 48.0236 29.6497 48.0051C29.5833 47.9849 29.5176 47.963 29.4529 47.9395C29.3864 47.9159 29.3216 47.8898 29.2585 47.8612C29.1955 47.8343 29.1333 47.8048 29.0719 47.7728L15.6486 40.7501C15.4031 40.6213 15.1756 40.4597 14.9736 40.2728C14.769 40.0859 14.5901 39.8738 14.4418 39.639C14.296 39.4066 14.1784 39.1566 14.0966 38.894C14.0148 38.6314 13.9688 38.3587 13.956 38.0859L13.3986 23.0809C13.3884 22.8082 13.4139 22.5329 13.4753 22.2652C13.5392 21.9976 13.6338 21.74 13.7642 21.4975C13.8946 21.2551 14.0557 21.0304 14.2449 20.8284C14.4315 20.6263 14.6463 20.4496 14.8815 20.3031L27.7449 12.3233C27.8242 12.2728 27.9034 12.2349 27.998 12.192L28.021 12.1516C28.1335 11.9193 28.2469 11.6979 28.3611 11.4875L28.3892 11.4344C28.5119 11.2071 28.6423 10.9925 28.7472 10.7955L28.7702 10.7602C28.8673 10.5935 28.9594 10.442 29.0489 10.2955C29.0923 10.2248 29.1358 10.1592 29.1767 10.0935L29.2304 10.0051C29.1759 10.0203 29.1213 10.0363 29.0668 10.0531C29.0122 10.0699 28.9585 10.0893 28.9057 10.1112C28.8529 10.1314 28.8009 10.1533 28.7497 10.1768C28.6986 10.2004 28.6475 10.2257 28.5963 10.2526L13.4165 18.894C13.2017 19.0152 13.0074 19.1642 12.8335 19.3359C12.6597 19.5077 12.5088 19.6996 12.3861 19.9092C12.2634 20.1188 12.1662 20.3435 12.1023 20.5784C12.0384 20.8132 12.0051 21.0531 12.0051 21.2955V38.6188C12.0051 38.8612 12.0358 39.1036 12.0972 39.3359C12.1611 39.5708 12.2531 39.7955 12.3759 40.0077C12.4986 40.2172 12.6469 40.4117 12.8208 40.5834C12.9921 40.7551 13.1889 40.9041 13.4011 41.0253L18.433 43.9193C18.5787 43.9698 18.7321 44.0203 18.8779 44.0632L28.5503 49.6996L28.8622 49.341L29.0668 49.1087Z" fill="#005BAA"/>
<path d="M32.6924 37.0001C32.5006 36.2551 32.2935 35.4597 32.0787 34.6516C32.2935 35.4496 32.5006 36.2476 32.6924 37.0001Z" fill="white"/>
<path d="M29.4018 13.3132C29.4018 13.3385 29.3813 13.3663 29.3711 13.389C29.3711 13.3663 29.3941 13.3385 29.4018 13.3132Z" fill="white"/>
<path d="M30.1994 27.5834C29.9847 26.7829 29.7776 25.995 29.5781 25.2273C29.7861 25.9933 29.9932 26.7786 30.1994 27.5834Z" fill="white"/>
<path d="M31.7949 43.3385C31.7949 43.3335 31.7949 43.3284 31.7949 43.3234C31.7949 43.3183 31.7949 43.3133 31.7949 43.3082C31.7949 43.3015 31.7949 43.2956 31.7949 43.2905C31.7949 43.2855 31.7949 43.2804 31.7949 43.2754C31.7949 43.2981 31.7949 43.3183 31.7821 43.336L31.7949 43.3385Z" fill="white"/>
<path d="M30.6827 46.6439C30.7083 46.5985 30.7262 46.5429 30.7518 46.4924C30.7262 46.5455 30.7032 46.596 30.675 46.6439H30.6827Z" fill="white"/>
<path d="M29.8466 48.0532C29.775 48.1593 29.7034 48.2628 29.6344 48.3613C29.7034 48.2578 29.7725 48.1618 29.8466 48.0532Z" fill="white"/>
<path d="M31.823 41.0178C31.823 41.1037 31.846 41.1946 31.8562 41.2804C31.8383 41.1946 31.8332 41.1062 31.823 41.0178Z" fill="white"/>
</g>
<defs>
<clipPath id="clip0_150_1087">
<rect width="36" height="40" fill="white" transform="translate(12 10)"/>
</clipPath>
</defs>
</svg>
