<svg width="60" height="60" viewBox="0 0 60 60" fill="none" xmlns="http://www.w3.org/2000/svg">
<rect width="60" height="60" fill="white"/>
<g clip-path="url(#clip0_147_238)">
<path d="M44.3481 30.4223C44.3481 29.4333 44.1926 29.0361 43.1955 29.0361C42.3995 29.0361 42.1709 29.2569 42.1709 30.4223C42.1709 31.4731 42.1709 32.0824 43.1955 32.0824C44.3481 32.0824 44.3481 31.526 44.3481 30.4223ZM33.0687 29.0361C32.0716 29.0361 32.0076 29.2391 32.0076 30.0603H34.1573C34.1573 29.1068 34.011 29.0361 33.0687 29.0361ZM39.2344 30.4223C39.2344 29.4333 39.0972 29.0361 38.1001 29.0361C37.3041 29.0361 37.0754 29.2569 37.0754 30.4223C37.0754 31.4731 37.0482 32.0824 38.1001 32.0824C39.2803 32.0824 39.2344 31.526 39.2344 30.4223ZM51.2306 26.2638H40.4053V32.877H39.2527L39.2983 32.1793H39.2619C38.9692 32.7886 38.4387 32.9299 37.7615 32.9299C35.9779 32.9299 35.9228 31.8439 35.9228 30.4223C35.9228 29.0624 36.1151 28.1883 37.7615 28.1883C38.3472 28.1883 38.9601 28.2944 39.2071 28.8594H39.2527V26.2638H33.2327C33.2327 26.2638 32.5682 26.2638 32.3509 26.8701L31.8166 28.3611C32.1276 28.2458 32.5328 28.1883 33.0687 28.1883C35.0448 28.1883 35.3099 28.7448 35.3099 30.7665H32.0076C32.0076 31.7644 32.0352 32.0824 33.0687 32.0824C33.7091 32.0824 34.1573 32.0913 34.1573 31.4025H35.3099C35.3099 32.8592 34.4411 32.9299 33.0687 32.9299C31.3919 32.9299 30.9335 32.4566 30.8657 31.0142L29.7461 34.1387C29.7461 34.1387 29.5288 34.7453 30.1933 34.7453H41.8972C41.4446 34.5444 41.1779 34.1421 41.2197 33.3539H42.2991C42.2991 33.9895 42.5459 34.0867 43.1955 34.0867C44.1742 34.0867 44.3849 33.8923 44.3849 33.0977V32.2148H44.3573C44.0555 32.8241 43.4426 32.9299 42.8569 32.9299C41.2105 32.9299 41.0182 32.0558 41.0182 30.6959C41.0182 29.2743 41.073 28.1883 42.8569 28.1883C43.5341 28.1883 44.0647 28.3296 44.3573 28.9389H44.3937L44.3481 28.2412H45.5008V32.8681C45.5008 33.9473 45.2686 34.4931 44.6313 34.7453H48.1912C48.1912 34.7453 48.856 34.7453 49.0733 34.1387L49.5341 32.8528C49.1987 32.9204 48.793 32.9299 48.3274 32.9299C46.4887 32.9299 46.1137 32.3649 46.1137 30.5724C46.1137 28.9123 46.3883 28.1883 48.3274 28.1883C50.0333 28.1883 50.4635 28.6054 50.5493 30.02L51.6782 26.8701C51.6782 26.8701 51.8954 26.2638 51.2306 26.2638ZM47.2663 30.0603H49.416C49.416 29.1068 49.2697 29.0361 48.3274 29.0361C47.3303 29.0361 47.2663 29.2391 47.2663 30.0603ZM49.416 31.4025H50.0539L50.2816 30.7665H47.2663C47.2663 31.7644 47.2938 32.0824 48.3274 32.0824C48.9678 32.0824 49.416 32.0913 49.416 31.4025Z" fill="#DA2128"/>
<path d="M12.5417 29.504C12.5417 28.2059 11.4167 28.1884 10.4744 28.1884C9.23939 28.1884 8.2879 28.2147 8.2879 29.4863C8.2879 30.6694 8.60813 30.899 10.3736 30.9256C11.5354 30.9433 11.563 31.1463 11.563 31.5524C11.563 32.1883 11.1604 32.1705 10.4744 32.1705C9.6236 32.1705 9.45889 32.091 9.44052 31.42H8.2879C8.2879 32.93 9.16623 32.93 10.4744 32.93C11.691 32.93 12.7156 32.8064 12.7156 31.5524C12.7156 30.0515 11.7093 30.131 10.5748 30.0778C9.5688 30.0338 9.44052 30.0161 9.44052 29.5569C9.44052 28.9476 9.86147 28.9476 10.4744 28.9476C11.0873 28.9476 11.3891 28.9476 11.3891 29.504H12.5417ZM15.661 28.1884C13.6576 28.1884 13.4017 28.7623 13.4017 30.5636C13.4017 32.3561 13.6576 32.93 15.661 32.93C17.6644 32.93 17.9206 32.3561 17.9206 30.5636C17.9206 28.7623 17.6644 28.1884 15.661 28.1884ZM15.661 29.0359C16.6857 29.0359 16.768 29.3184 16.768 30.5725C16.768 31.8086 16.6857 32.0822 15.661 32.0822C14.6367 32.0822 14.5543 31.8086 14.5543 30.5725C14.5543 29.3184 14.6367 29.0359 15.661 29.0359ZM20.052 26.2547H18.8994V32.8771H20.052V26.2547ZM23.2264 30.7932C23.7933 30.7932 24.2874 30.8107 24.2874 31.4554C24.2874 32.1176 23.8392 32.1705 23.2264 32.1705C22.4488 32.1705 22.1741 32.1088 22.1741 31.4554C22.1741 30.7932 22.6407 30.7932 23.2264 30.7932ZM24.2874 32.8771H25.4401V29.9721C25.4401 28.418 24.7996 28.1884 23.2628 28.1884C22.1653 28.1884 21.2046 28.2413 21.2046 29.5923H22.3572C22.3572 28.9919 22.7598 28.9476 23.2628 28.9476C24.2235 28.9476 24.2874 29.2126 24.2874 29.9632V30.5636H24.2507C23.9764 30.0427 23.3999 30.0338 22.8146 30.0338C21.6252 30.0338 21.0215 30.3429 21.0215 31.4554C21.0215 32.7092 21.7259 32.93 22.8146 32.93C23.3727 32.93 24.0771 32.9122 24.3058 32.294H24.333L24.2874 32.8771ZM26.5011 28.2413V32.8771H27.6538V30.0161C27.6354 29.4156 27.8368 29.0359 28.5229 29.0359C29.0626 29.0359 29.1082 29.3098 29.1082 29.7776V30.0161H30.1877V29.6452C30.1877 28.7712 29.9406 28.1884 28.9255 28.1884C28.3674 28.1884 27.8733 28.3386 27.6446 28.8506H27.599L27.6262 28.2413H26.5011Z" fill="black"/>
</g>
<defs>
<clipPath id="clip0_147_238">
<rect width="44" height="9" fill="white" transform="translate(8 26)"/>
</clipPath>
</defs>
</svg>
