<svg width="60" height="60" viewBox="0 0 60 60" fill="none" xmlns="http://www.w3.org/2000/svg">
<rect width="60" height="60" fill="black"/>
<g clip-path="url(#clip0_1772_9546)">
<path d="M27.1742 50.127L26.9941 50.0995L26.82 50.0408L26.6879 49.9649L26.5407 49.8364L26.4141 49.6627L26.3282 49.481L26.2706 49.2766L26.2459 49.1299V48.8882L26.2898 48.4472L26.4201 47.6365L26.6422 46.538L26.8067 45.6681L26.862 45.2685L26.8428 45.2159L26.7322 45.1633L26.2802 44.9742L25.6431 44.6641L24.9383 44.237L24.5078 43.9446L23.9433 43.5054L23.6065 43.1953L23.2427 42.8288L22.963 42.5187L22.5384 42.0134L22.4465 41.8909L22.2683 41.659L21.8378 41.0425L21.761 40.9158L21.6061 40.6755L21.5658 40.6448L21.5526 40.6662L21.558 40.818L21.6024 41.2395L21.6883 41.8169L21.9141 42.8367L21.9717 43.2344L21.9813 43.6344L21.968 43.8431L21.9278 44.0498L21.8588 44.2566L21.7898 44.3772L21.6924 44.5178L21.5544 44.6524L21.4072 44.7516L21.2674 44.8103L21.1275 44.8378L20.9552 44.834L20.8176 44.7926L20.6951 44.7283L20.5631 44.6231L20.4653 44.5197L20.3506 44.319L20.2642 44.075L20.2262 43.7844V43.4044L20.2605 43.071L20.4136 42.2868L20.5955 41.5477L20.6508 41.2395L20.676 40.9959L20.691 40.9354L20.7313 40.5372L20.7427 39.8294L20.7198 39.3558L20.7047 39.2226L20.6892 38.9888L20.6165 38.5655L20.5896 38.4114L20.431 37.772L20.2834 37.1438L20.1686 36.2665L20.1284 35.6285L20.1339 35.1428L20.1399 35.0729L20.1417 34.7917L20.1554 34.4582L20.1686 34.3707L20.186 34.1015L20.2701 33.4635L20.3793 32.8707L20.5 32.352L20.6778 31.7457L20.8213 31.3126L21.0855 30.6494L21.3437 30.0897L21.654 29.5165L21.8432 29.1965L22.1878 28.6698L22.5841 28.1376L22.8999 27.7515L22.9726 27.6752L23.0763 27.5583L23.4744 27.1489L23.5645 27.067L23.9278 26.7331L24.4429 26.3238L24.6723 26.158L24.9365 25.9708L24.9575 25.9335L24.9479 25.8828L24.8524 25.7053L24.8008 25.534L24.7624 25.2667L24.7683 25.0678L24.8296 24.8005L24.9214 24.5858L25.0704 24.3344L25.2121 24.1509L25.5014 23.878L25.6486 23.7709L25.6737 23.7299L25.66 23.6908L25.5471 23.5953L25.4324 23.4333L25.3748 23.3066L25.3538 23.2074L25.3483 23.0198L25.3808 22.8502L25.4612 22.6496L25.5471 22.5089L25.6792 22.3571L25.7939 22.2514L26.0065 22.1112L26.2094 22.0232L26.5096 21.9357L26.8182 21.8849L27.0421 21.8793L27.2697 21.8695L27.2871 21.8481L27.2738 21.8071L27.2066 21.7075L27.1321 21.5496L27.0979 21.4034L27.0956 21.2609L27.1148 21.1477L27.1664 21.0229L27.2469 20.9L27.3502 20.7947L27.5092 20.6951L27.6413 20.6485L27.7423 20.6271H27.9727L28.1349 20.6602L28.3954 20.7538L28.6194 20.8767L28.7665 20.9764L28.9982 21.1752L29.1628 21.3508L29.4329 21.7112L29.5878 21.965L29.693 22.1638L29.7254 22.1988L29.7391 22.162L29.7272 21.9706L29.6509 21.5436L29.5705 20.9312L29.5014 20.5023L29.4041 20.1139L29.347 19.9579L29.2798 19.8564L29.2053 19.7945L29.113 19.7162L29.0558 19.6091L29.0271 19.4666L29.0078 19.3339L28.9562 19.2562L28.8529 19.1271L28.692 18.946L28.6212 18.899L28.5522 18.8934L28.4434 18.9246L28.3684 18.9148L28.2921 18.8622L28.1756 18.7355L28.1294 18.716L28.0796 18.7295L27.9534 18.8347L27.9036 18.8543L27.8424 18.8445L27.7638 18.7919L27.5284 18.546L27.1724 18.0682L26.8506 17.5476L26.7011 17.2607L26.5352 16.8709L26.3378 16.3228L26.2628 16.2018L26.0275 15.9209L25.6047 15.4744L25.1262 14.9672L25.0188 14.8913L24.9329 14.862L24.7852 14.8368L24.7144 14.7959L24.6513 14.6944L24.6056 14.5304L24.5786 14.3139L24.5846 14.1677L24.6458 13.838L24.7144 13.6256L24.841 13.3234L25.0361 12.9411L25.283 12.5024L25.5183 12.1471L25.7711 11.8137L26.1102 11.4043L26.1541 11.3573L26.4087 11.0942L26.8447 10.7021L27.0672 10.5247L27.3213 10.3333L27.5686 10.1698L28.0261 9.88294L28.5467 9.63708L28.964 9.5025L29.293 9.43451L29.5517 9.42286L29.7793 9.45591L29.9366 9.50855L30.0188 9.56722L30.0586 9.62915L30.0778 9.75441L30.0568 9.89647L30.0718 9.95885L30.1413 10.0506L30.5531 10.5265L30.7533 10.7431L31.1975 11.2441L31.3986 11.4551L31.506 11.5249L31.8177 11.6442L32.1162 11.7904L32.3497 11.9305L32.7286 12.1997L33.0796 12.4866L33.5344 12.935L33.6939 13.1399L33.7264 13.2023L33.7222 13.2666L33.688 13.3332L33.5924 13.4501L33.5979 13.5064L33.6551 13.5846L33.7739 13.7504L33.8063 13.8403L33.7972 13.912L33.7414 14.0214L33.7355 14.068L33.7871 14.1523L33.9768 14.3567L34.0842 14.4503L34.1971 14.5151L34.3466 14.5402L34.4224 14.5873L34.5029 14.7116L34.5381 14.8014L34.5568 14.9225L34.5435 15.065L34.5029 15.215L34.4169 15.4474L34.2392 15.8041L34.0038 16.2115L33.7625 16.5687L33.4467 16.9957L33.1486 17.3469L32.8493 17.6803L32.4357 18.084L32.3401 18.1618L32.2483 18.2475L31.7547 18.6456L31.3237 18.9576L31.2761 19.0256L31.257 19.1057L31.2336 20.8027L31.2282 21.1594L31.1898 22.1387L31.1975 22.162H31.2245L31.2871 22.0526L31.3639 21.9044L31.4544 21.754L31.5591 21.5906L31.7318 21.368L31.9384 21.1398L31.9937 21.0933L32.1546 20.9643L32.3731 20.8241L32.5431 20.7421L32.7711 20.6718L32.9457 20.6388L33.1861 20.6541L33.3169 20.6895L33.4768 20.7654L33.6016 20.8534L33.7337 20.9996L33.8027 21.1361L33.8543 21.2958L33.8639 21.4639L33.8315 21.6041L33.7853 21.7191L33.7072 21.8518V21.8714L33.7373 21.8849H34.0129L34.2433 21.9296L34.4764 22.0232L34.6066 22.1052L34.746 22.2435L34.8246 22.3646L34.8991 22.5345L34.9302 22.6789L34.9357 22.8232L34.9051 22.9792L34.8484 23.104L34.7579 23.2289L34.6254 23.3378L34.4992 23.41L34.486 23.4351L34.5093 23.4608L34.6702 23.5273L34.7826 23.5893L34.9823 23.7085L35.342 23.9832L35.6231 24.2818L35.7552 24.4806L35.847 24.6836L35.8987 24.8746L35.9179 25.0208L35.9119 25.2103L35.8763 25.3975L35.8009 25.5805L35.7049 25.731L35.6921 25.7794L35.7113 25.8185L36.6336 26.4639L37.0358 26.7801L37.273 26.9887L37.4316 27.1196L37.8626 27.5406L38.2259 27.9541L38.4718 28.2465L38.747 28.5977L38.9993 28.9567L39.3324 29.4829L39.7918 30.3062L40.114 31.0318L40.2762 31.4746L40.3146 31.5873L40.3914 31.8099L40.4083 31.8877L40.55 32.3617L40.5751 32.4689L40.6766 32.9234L40.7931 33.688L40.8562 34.2729L40.8983 34.9556L40.8923 35.6928L40.8407 36.693L40.7813 37.2588L40.7452 37.5029L40.6857 37.8577L40.6533 38.0822L40.5792 38.552L40.55 38.946L40.5514 39.0671L40.5477 39.1332L40.55 39.9132L40.5765 40.2741L40.592 40.4455L40.5884 40.4962L40.6035 40.7263L40.5943 40.9354L40.6076 40.9996L40.5884 41.0583L40.5212 41.6646L40.4636 42.0041L40.3795 42.4018L40.353 42.4917L40.2346 42.9187L40.098 43.336L40.0335 43.5371L40.0006 43.5702H39.9467L39.9092 43.5311L39.8626 43.3825L39.7803 42.8991L39.6373 42.3315L39.3169 41.1827L39.2868 40.8981L39.273 40.8748H39.2579L39.2196 40.9195L39.0861 41.1533L38.72 41.6763L38.3507 42.1424L38.1574 42.3645L37.6382 42.9029L37.4851 43.0454L37.1181 43.3788L36.8192 43.6284L36.3886 43.9562L35.8429 44.3246L35.3607 44.617L34.8617 44.8745L34.289 45.1265L33.7488 45.3193L33.2113 45.4776L32.7821 45.5884L32.1413 45.7174L31.4526 45.8087L30.889 45.8557L30.0056 45.8497L29.7121 45.8264L29.5517 45.8208L28.7994 45.7272L28.0279 45.5647L27.5357 45.4343L27.511 45.4539L27.5014 45.4813L27.5092 45.6369L27.5284 45.7584L27.5855 46.1347L27.9416 47.935L27.9932 48.2763L28.0394 48.5841L28.0508 49.0484L28.0375 49.2668L27.9859 49.4992L27.8881 49.719L27.7679 49.8713L27.6413 49.9882L27.5224 50.0585L27.352 50.1111L27.1742 50.127Z" fill="#0067B1"/>
<path d="M27.2257 49.6587L27.0936 49.6545L26.9464 49.6079L26.839 49.5381L26.7412 49.4165L26.6667 49.2549L26.6169 49.0268L26.6055 48.8456L26.6452 48.3892L26.7124 47.9799L26.7778 47.64L26.7869 47.5524L26.8888 47.0355L27.0017 46.3645L27.0173 46.2536L27.0611 46.0525L27.1494 45.5458L27.1644 45.5263L27.1813 45.5575L27.2293 45.8811L27.3043 46.4329L27.5433 47.6912L27.574 47.8938L27.6393 48.3073L27.6713 48.664L27.6791 48.9509L27.6466 49.2061L27.589 49.3816L27.509 49.5027L27.419 49.5847L27.2887 49.6433L27.2257 49.6587Z" fill="#EF4135"/>
<path d="M39.8304 48.9624L39.6256 48.9349L39.4757 48.8884L39.3464 48.8069L39.2134 48.6835L39.1105 48.5219L39.047 48.3775L39.0077 48.2094L38.9917 47.9677L38.9976 47.8979L38.9917 47.8452L39.0264 47.5113L39.1389 46.9479L39.2714 46.4449L39.3436 46.2009L39.4437 45.8382L39.6544 45.1047L39.8203 44.3363L39.9031 43.8413L39.9259 43.798L39.9606 43.7808L39.9931 43.7882L40.0155 43.8255L40.037 43.9484L40.0539 44.1943L40.0827 44.5743L40.1266 44.9101L40.1444 45.0777L40.228 45.5886L40.2586 45.7837L40.3793 46.3607L40.5498 47.2189L40.5923 47.6306L40.5996 47.9444L40.5808 48.1978L40.5324 48.3714L40.4524 48.5489L40.366 48.6723L40.2687 48.785L40.1672 48.859L40.037 48.9233L39.9049 48.9568L39.8304 48.9624Z" fill="#0067B1"/>
<path d="M22.7178 48.6521L22.4998 48.6465L22.3156 48.6013L22.1397 48.5138L22.025 48.4202L21.9235 48.3112L21.8202 48.1412L21.7626 47.9834L21.7146 47.7962L21.6899 47.5172L21.6936 47.2891L21.7512 46.8383L21.8833 46.1714L22.0213 45.5632L22.1282 45.132L22.1991 44.7907L22.2489 44.5723L22.3024 44.2994L22.4788 43.4486L22.5972 42.6844L22.6104 42.5247L22.6415 42.4716L22.6698 42.4641L22.7023 42.4777L22.7197 42.5401L22.7791 43.0276L22.8997 43.7769L23.1465 44.9723L23.2612 45.4538L23.2727 45.5162L23.3225 45.7402L23.4048 46.1775L23.4587 46.4466L23.5332 46.9905L23.5506 47.3477L23.5391 47.6458L23.4948 47.886L23.4203 48.1063L23.3572 48.2288L23.2539 48.3676L23.1868 48.4379L23.1525 48.4728L22.9628 48.5841L22.8115 48.6367L22.7178 48.6521Z" fill="#0067B1"/>
<path d="M39.8246 48.5178L39.688 48.508L39.6039 48.4731L39.5011 48.3795L39.4435 48.2896L39.3859 48.1276L39.3612 47.9832L39.3594 47.6987L39.3936 47.4468L39.4243 47.2991L39.4549 47.0961L39.6094 46.4372L39.7456 45.9375L39.874 45.3191L39.8946 45.2944L39.9256 45.4089L39.9777 45.8462L40.0692 46.554L40.1208 46.8642L40.2204 47.6288L40.2259 47.8272L40.2204 47.8743V47.9562L40.1939 48.1104L40.1418 48.2584L40.0618 48.3851L39.9544 48.4671L39.8246 48.5178Z" fill="#EF4135"/>
<path d="M22.6779 48.1902L22.5518 48.1865L22.4444 48.1571L22.3374 48.0929L22.2341 47.9895L22.1592 47.8665L22.0961 47.6891L22.0692 47.5699L22.0596 47.3631L22.1021 46.9496L22.2168 46.3005L22.4101 45.4171L22.63 44.204L22.6418 44.1844L22.6624 44.237L22.7278 44.7171L22.8178 45.1535L22.8425 45.3058L23.0052 46.049L23.0609 46.388L23.097 46.5869L23.1487 46.9906L23.1606 47.365L23.1163 47.6849L23.0705 47.8256L22.9956 47.9699L22.8982 48.0812L22.7854 48.1571L22.6779 48.1902Z" fill="#EF4135"/>
<path d="M31.0385 45.5457L30.9329 45.5303L30.719 45.46L30.6518 45.4129L30.6057 45.3408L30.5751 45.2374L30.5257 45.1089L30.474 45.0641L30.3991 45.0213L30.3534 44.9608L30.3319 44.6916L30.3209 44.4341L30.2939 44.1747L30.3072 44.1337L30.395 44.1062L30.4987 44.0946H30.6422L30.6687 44.11L30.6271 44.2273L30.6331 44.4201L30.6518 44.4732L30.7492 44.6017L30.82 44.6408L30.9009 44.6506L30.9603 44.6292L31.0577 44.5235L31.1057 44.5021L31.2163 44.4751L31.2359 44.4848L31.2396 44.551L31.2377 44.6078L31.278 44.713L31.32 44.8024L31.3104 44.8867L31.3031 44.9491L31.3292 45.0465L31.3964 45.1419L31.4005 45.2062L31.3621 45.3156L31.2985 45.419L31.2547 45.4716L31.2012 45.5009L31.0901 45.5322L31.0385 45.5457Z" fill="white"/>
<path d="M29.2413 45.5398L29.159 45.5356L29.0694 45.516L28.9771 45.5067L28.9561 45.489L29.0173 45.456L29.3217 45.3428L29.4273 45.2902L29.4844 45.2217L29.5438 45.1104L29.5973 45.0755L29.712 45.0597L29.8025 45.0639L29.8139 45.0811L29.8061 45.1086L29.7696 45.1319L29.6453 45.1747L29.6128 45.2138L29.5763 45.3428L29.5324 45.401L29.2413 45.5398Z" fill="white"/>
<path d="M29.9364 44.9663L29.877 44.9626L29.8615 44.896L29.856 44.7498L29.8733 44.5337L29.8656 44.4145L29.871 44.3442L29.898 44.2156L29.9172 44.1514L29.9478 44.1355H30.0968L30.1334 44.157L30.1549 44.2291L30.1946 44.5686L30.2006 44.8494L30.1791 44.8941L30.1434 44.9156L29.9364 44.9663Z" fill="white"/>
<path d="M32.5489 44.5745L32.4452 44.5647L32.34 44.5181L32.2367 44.4185L32.1792 44.323L32.0987 44.1125L32.0608 43.8489L32.0571 43.617L32.0896 43.1821L32.1677 42.7723L32.2043 42.6438L32.2134 42.5832L32.2441 42.4449L32.3227 42.1152L32.3515 41.9862L32.4854 41.345L32.5293 41.0716L32.5448 41.0679L32.5658 41.1457L32.6102 41.4325L32.6846 41.8209L32.7761 42.2125L32.8378 42.4291L32.9177 42.749L32.9945 43.1839L33.0197 43.4922L33.0124 43.8881L32.9698 44.1065L32.8953 44.2974L32.8209 44.4185L32.7281 44.5004L32.6234 44.553L32.5489 44.5745Z" fill="#EF4135"/>
<path d="M21.1558 44.3286L21.0544 44.3244L20.9703 44.2895L20.8496 44.1959L20.7578 44.0632L20.7002 43.9286L20.6563 43.7256L20.6389 43.5034L20.6449 43.217L20.7061 42.7649L20.8725 41.963L20.9662 41.5145L20.9817 41.4111L21.0297 41.087L21.0507 40.898L21.0699 40.8006L21.1042 40.3908V39.6946L21.0585 39.2322L20.9511 38.5519L20.8076 37.723L20.7386 37.3309L20.5704 36.1373L20.5356 35.6106L20.5608 34.4716L20.7061 33.3367L20.8208 32.7598L20.936 32.2992L21.1138 31.7199L21.3204 31.1429L21.6422 30.4016L21.9694 29.7794L22.3999 29.0795L22.6815 28.6818L23.0489 28.2194L23.4511 27.7686L23.8817 27.3299L24.341 26.9322L24.7007 26.657L25.0796 26.3939L25.229 26.2985L25.2638 26.2514L25.3113 26.2458L25.3707 26.2244L25.4475 26.23L25.612 26.2672L25.7958 26.2612L25.9448 26.2281L26.1098 26.1578L26.2743 26.0526L26.4292 25.924L26.5 25.8556L26.5444 25.8598L26.5782 25.9101L26.6491 26.0116L26.7217 26.0819L26.8406 26.1522L26.9804 26.2049L27.0417 26.2146L27.2482 26.2086L27.3918 26.1639L27.5147 26.0936L27.6582 25.9822L27.9165 25.7014L28.3145 25.206L28.4448 25.0951L28.5769 25.0132L28.7126 24.9605L28.8296 24.9233L28.8566 24.8861L28.8465 24.8432L28.7643 24.8143L28.6838 24.8101L28.5156 24.8376L28.3643 24.8963L28.2149 24.9838L28.0732 25.1007L27.7268 25.4677L27.6239 25.5846L27.4704 25.7075L27.3671 25.7485L27.2368 25.7583L27.107 25.7252L27.0343 25.6782L26.9768 25.6041L26.9347 25.4733L26.9329 25.3601L26.9768 25.1729L27.0801 24.9587L27.2181 24.785L27.3616 24.6504L27.5394 24.5219L27.7327 24.4222L28.0161 24.317L28.2382 24.2699L28.5805 24.2485L28.9178 24.2877L29.1491 24.3463L29.5321 24.5042L29.7044 24.6038L29.9434 24.7966L30.007 24.8823L30.0714 24.982L30.1025 24.9973L30.1445 24.988L30.1678 24.9466L30.1884 24.8278V23.9035L30.1546 23.137L30.1198 22.6103L30.0988 22.4212L30.0677 21.955L30.0412 21.7134L29.959 20.8491L29.8863 20.3578L29.8287 20.1003L29.7428 19.8274L29.6623 19.6811L29.538 19.5307L29.4919 19.4292L29.4823 19.3924L29.4859 19.256L29.5609 18.9593L29.7099 18.5989L29.905 18.2473L30.1866 17.8166L30.4677 17.4422L30.8123 17.0501L31.2716 16.576L31.4444 16.4181L31.6628 16.2137L32.0454 15.8975L32.5065 15.5524L33.0097 15.2306L33.3351 15.0551L33.5536 14.9554L33.7501 14.8972L33.9156 14.8874L34.0033 14.9205L34.0664 14.9987L34.0815 15.0979L34.0435 15.3028L33.9174 15.5934L33.5381 16.1881L33.3548 16.434L33.2584 16.5527L33.05 16.82L32.6441 17.2764L32.2286 17.7034L31.5687 18.2767L31.1742 18.5775L30.9846 18.7526L30.9105 18.8774L30.8699 18.9789L30.8603 19.0823L30.8735 20.4556L30.8931 20.8686L30.8886 20.931L30.895 21.0363L30.8931 21.9709L30.8699 23.1761L30.8603 23.3125L30.8264 24.1084L30.7876 24.7966L30.8063 24.8553L30.8319 24.8767H30.8813L31.1783 24.6621L31.3219 24.5861L31.5495 24.4926L31.735 24.4455L31.8365 24.4301L32.0892 24.4357L32.2442 24.4748L32.3685 24.5275L32.5216 24.6271L32.6249 24.7324L32.7282 24.9L32.7707 25.0309L32.778 25.1673L32.7515 25.3331L32.6939 25.4677L32.5966 25.5846L32.4201 25.7014L32.2826 25.7564L32.246 25.7951L32.2652 25.836L32.3073 25.8654L32.411 25.8752L32.5774 25.8477L32.7364 25.7834L32.8603 25.6959L32.9869 25.5515L33.0614 25.4011L33.1135 25.2316L33.1267 25.0928L33.1075 24.9233L33.0732 24.818L33.0042 24.6797L32.9809 24.6388L33.0276 24.6444L33.2168 24.7734L33.3141 24.8474L33.5321 25.0248L33.6418 25.1282L33.9631 25.4402L34.124 25.5981L34.3845 25.8183L34.6025 25.965L34.7648 26.047L34.8854 26.08L35.0641 26.0917L35.236 26.074L35.3068 26.1015L35.6569 26.3064L36.0417 26.5578L36.6048 26.9672L37.1099 27.4002L37.2072 27.492L37.5349 27.81L37.592 27.872L37.8105 28.1025L38.1377 28.4885L38.1976 28.5742L38.2927 28.6916L38.5628 29.0543L38.6163 29.1358L39.045 29.7855L39.2059 30.0583L39.4412 30.5226L39.6039 30.8854L39.6268 30.9515L39.7689 31.3008L39.9696 31.8782L40.1474 32.4943L40.2164 32.7691L40.3069 33.2529L40.4024 33.9104L40.4481 34.3375L40.4517 34.4171L40.4655 34.6593L40.471 34.833L40.454 34.8912L40.4824 35.0178L40.4883 35.8118L40.4847 36.0907L40.4769 36.4517L40.4444 36.7283L40.4325 36.9625L40.4211 37.0091L40.406 37.214L40.3718 37.5046L40.2511 38.2631L40.1899 38.9207L40.1647 39.1L40.1684 39.9405L40.1953 40.7988L40.1803 41.1806L40.1533 41.4265L40.05 41.9821L40.0038 42.1073L39.9814 42.1036L39.954 42.0468L39.8201 41.6314L39.6784 41.2374L39.6016 40.8924L39.5564 40.43L39.5715 39.5484L39.5482 39.1563L39.4586 38.4974L39.3631 38.0289L39.3284 37.8943L39.2922 37.5651L39.3018 37.1148L39.3284 36.814L39.3594 36.623L39.3649 36.3366L39.3379 36.1373L39.2575 35.8742L39.1889 35.7238L39.1026 35.5897L38.9819 35.4625L38.8827 35.3983L38.7675 35.3573L38.6528 35.3536L38.534 35.3922L38.4211 35.4803L38.3174 35.6013L38.2488 35.7298L38.151 36.0107L38.1053 36.2449L38.0459 36.6896L37.9595 36.9895L37.8928 37.1925L37.8068 37.6391L37.7876 37.9022L37.7918 38.109L37.8141 38.2552L37.8292 38.4131L37.885 38.6553L37.9275 38.8345L37.9595 38.9477L38.0902 39.5545L38.1172 39.8823L38.1071 40.0281L38.0573 40.2018L37.9846 40.3363L37.9097 40.4225L37.8201 40.4807L37.7685 40.4965L37.6807 40.4924L37.6094 40.463L37.5313 40.4048L37.4563 40.3149L37.3932 40.198L37.353 40.0281L37.3434 39.8232L37.3585 39.6206L37.3987 39.3319L37.5769 38.5286L37.6611 38.1891L37.7049 37.8869L37.715 37.6331L37.6843 37.4459L37.6208 37.2391L37.5235 37.0286L37.3567 36.7618L37.1387 36.4866L36.9092 36.2761L36.6099 36.0535L36.2104 35.8058L35.9782 35.6013L35.8484 35.4551L35.7277 35.2754L35.5482 34.9829L35.3068 34.6318L35.1002 34.4213L34.9179 34.2983L34.7762 34.2397L34.608 34.1931L34.4782 34.1777L34.2826 34.1871L34.0586 34.2397L33.9192 34.3044L33.7643 34.4213L33.6491 34.5382L33.5339 34.7058L33.4745 34.8423L33.4078 34.9792L33.3274 35.2656L33.2625 35.7238L33.2341 36.3385L33.2378 36.4181L33.2209 36.9038L33.1765 37.329L33.1016 37.6568L32.9869 38.0098L32.8603 38.3279L32.7478 38.591L32.6217 38.9985L32.5527 39.303L32.5276 39.4157L32.5125 39.412L32.4069 39.0161L32.246 38.618L32.0856 38.2692L31.8845 37.885L31.7657 37.6745L31.5938 37.3467L31.4901 37.0892L31.3868 36.7637L31.2716 36.2407L31.1377 35.4551L31.0349 35.0686L30.937 34.8288L30.8507 34.6728L30.7592 34.5498L30.7323 34.5265L30.6688 34.4679L30.5883 34.4152L30.4873 34.3882H30.3612L30.2478 34.4329L30.1523 34.5088L30.0659 34.6355L29.9631 34.8697L29.8401 35.1878L29.7428 35.361L29.6107 35.5366L29.2277 35.9129L29.1125 36.0754L29.038 36.2253L28.9827 36.4242L28.9594 36.5704L28.9425 37.044L28.9768 37.5884L29.1605 38.665L29.1761 39.0455L29.1665 39.1917L29.134 39.33L29.0668 39.4353L28.9923 39.4921L28.9137 39.5251L28.8333 39.5214L28.7739 39.486L28.7108 39.418L28.6651 39.3319L28.6303 39.221L28.6093 39.0865L28.6244 38.7642L28.682 38.4583L28.8159 37.8398L28.8794 37.4771L28.8963 37.1907L28.8639 36.894L28.7953 36.6035L28.682 36.2663L28.613 36.0069L28.5632 35.6577L28.533 35.3843L28.4905 35.1799L28.41 34.9694L28.2953 34.7701L28.1751 34.6201L28.033 34.5088L27.9242 34.4506L27.7885 34.4152L27.7309 34.4055L27.5586 34.4152L27.4091 34.4562L27.2505 34.5326L27.0686 34.6728L26.7853 34.9284L26.5691 35.0746L26.3908 35.1627L26.1079 35.2558L25.6463 35.3634L25.4415 35.4453L25.2866 35.5543L25.0988 35.7494L24.9726 35.9366L24.8867 36.0987L24.8232 36.2938L24.7734 36.5294L24.7619 36.8745L24.7679 37.1381L24.7656 37.6042L24.718 38.0019L24.6664 38.1891L24.3524 38.9184L24.2473 39.2774L24.2299 39.2946L24.2107 39.1973L24.1783 39.0022L24.0348 38.5616L23.9447 38.3493L23.8415 38.041L23.7724 37.7192L23.7345 37.4133L23.6938 36.746L23.6614 36.5411L23.6212 36.4456L23.5485 36.3753L23.4872 36.3539L23.4127 36.3636L23.3474 36.3986L23.2903 36.461L23.2272 36.5955L23.1696 36.8163L23.0759 37.4422L23.001 37.7095L22.8922 37.967L22.8423 38.0778L22.7331 38.3744L22.6874 38.5714L22.6682 38.6338L22.6394 38.6729L22.5859 38.6785L22.5434 38.6399L22.5092 38.5402L22.4461 38.2985L22.2624 37.8222L22.218 37.6471L22.1664 37.2489L22.1591 36.8885L22.1339 36.8065L22.0937 36.7557L22.0325 36.7306L21.9639 36.7502L21.9118 36.8181L21.8716 36.9038L21.8085 37.1264L21.7701 37.4654L21.7491 37.682L21.7244 37.8813L21.537 38.6553L21.378 39.2634L21.2747 39.7999L21.2189 40.2036L21.2075 40.5664L21.2249 40.9292L21.2687 41.3213L21.2783 41.3664L21.2916 41.4931L21.4351 42.3062L21.5521 42.9535L21.596 43.4061L21.5868 43.6497L21.5503 43.8643L21.4794 44.0692L21.405 44.1843L21.372 44.2131L21.2747 44.2895L21.1558 44.3286Z" fill="#EF4135"/>
<path d="M30.9645 44.1003L30.9087 44.0966V44.0808L30.959 44.0771L30.9741 44.0868L30.9645 44.1003Z" fill="white"/>
<path d="M29.9129 44.0186H29.7524L29.7159 43.9971L29.6354 43.8667L29.603 43.7671L29.5705 43.5058L29.5797 43.3224L29.5591 43.2795L29.5226 43.2562L29.3749 43.2246L29.3256 43.1859L29.2392 43.0397L29.2067 42.9303L29.2145 42.8599L29.2451 42.8171L29.3064 42.7682L29.316 42.7137L29.2661 42.5736L29.2794 42.5419L29.3676 42.5149L29.5993 42.4818L29.645 42.4585L29.6642 42.4115L29.6505 42.3724L29.6144 42.3514L29.4649 42.357L29.2986 42.3784L29.2451 42.3645L29.2182 42.3104L29.2223 42.2262L29.2392 42.1968L29.2703 42.1889L29.3676 42.1992L29.4439 42.1656L29.5303 42.0976L29.645 41.9435L29.6601 41.9006L29.6505 41.8168L29.5934 41.6217L29.4727 41.3665L29.4001 41.2454L29.3429 41.1421L29.2565 41.0112L29.2355 40.9525L29.2451 40.8356L29.2588 40.7714L29.2506 40.7011L29.2086 40.6233L29.1286 40.5176L28.9444 40.3308L28.8603 40.2428L28.7378 40.1143L28.6958 40.0985L28.5714 40.1064L28.518 40.0729L28.4604 40.0673L28.3685 40.0808L28.2725 40.0477L28.1327 39.9797L27.9393 39.9136L27.9128 39.8898V39.8568L27.9608 39.8274L28.3031 39.732L28.353 39.6929V39.6384L28.3265 39.6048L28.2671 39.5993L27.8553 39.7143L27.794 39.718L27.7501 39.6966L27.6925 39.6402L27.6391 39.6188L27.5509 39.6286L27.417 39.6677L27.2775 39.677L27.0938 39.6659L26.969 39.6989L26.8068 39.779L26.6094 39.8274L26.4718 39.8801L26.4425 39.9192L26.4178 40.0184L26.3699 40.0477L26.2227 40.0789L26.2017 40.0947L26.1825 40.1902L26.1272 40.247L26.123 40.315L26.1249 40.3597L26.0906 40.4049L25.9297 40.4771L25.8744 40.5353L25.7748 40.6857L25.6678 40.7793L25.4151 40.9684L25.3228 41.0717L25.2542 41.1923L25.1793 41.3642L25.1432 41.4634L25.0627 41.5886L25.0495 41.6254L25.059 41.6957L25.1144 41.8126L25.1395 41.8969L25.2062 41.9765L25.2387 42.0525L25.2291 42.0897L25.2003 42.1037L25.0778 42.0781L24.8808 42.0217L24.7967 42.0175L24.7547 42.0389L24.7355 42.0739L24.7487 42.1135L24.852 42.154L25.1911 42.2611L25.2236 42.2886L25.2332 42.3398L25.2273 42.4152L25.2428 42.4525L25.2981 42.5265L25.2926 42.5712L25.2483 42.6164L25.0687 42.7058L25.0129 42.7626L24.9727 42.8739L24.9535 42.9633L24.9229 42.9889L24.8676 42.9792L24.6953 42.8972L24.1116 42.5638L23.5083 42.1656L23.1696 41.9202L22.9037 41.6939L22.8767 41.6389L22.8826 41.5593L22.9229 41.448L22.9535 41.4266L23.0088 41.4364L23.3972 41.6161H23.4567L23.4818 41.5789L23.4777 41.5165L23.4453 41.4773L23.0129 41.265L22.9667 41.2156L22.9589 41.1923L22.9708 40.8301L22.9498 40.5609L22.9631 40.512L23.0051 40.4966L23.1258 40.4906H23.2633L23.5906 40.4673L23.6271 40.4515L23.656 40.4086L23.6523 40.3695L23.6194 40.3425L23.5389 40.3383L22.9649 40.356L22.9265 40.3402L22.8995 40.2973L22.8232 40.0244L22.7373 39.8139L22.7295 39.7767L22.7446 39.7394L22.8748 39.6519L23.7304 39.1587L23.8049 39.0903L23.8109 39.0512L23.7899 39.0199H23.74L23.6006 39.0903L22.9114 39.5038L22.7218 39.609L22.666 39.6188L22.624 39.5913L22.5417 39.4586L22.341 39.2072L22.1075 38.9846L21.9237 38.8425L21.9082 38.8113L21.9292 38.6376L21.9887 38.267L22.0097 38.1016L22.0325 38.0527L22.0481 38.0681L22.1646 38.5655L22.2565 38.8267L22.4059 39.108L22.5494 39.2933L22.6646 39.4158L22.6948 39.4377L22.7254 39.4335L22.7679 39.2696L22.852 39.108L22.9439 38.8444L23.0376 38.5207L23.1294 38.3158L23.1966 38.1831L23.3287 37.8441L23.3822 37.602L23.4164 37.3584L23.4338 37.3272L23.4549 37.3449L23.4932 37.5358L23.5101 37.723L23.5888 38.1151L23.7382 38.5575L23.8168 38.7545L23.8799 38.979L23.9183 39.2561L23.9274 39.5466L23.9123 39.7357L23.8452 40.1101L23.6464 40.8338L23.5696 41.3353L23.5677 41.4969L23.5906 41.672L23.6404 41.8382L23.7094 41.9845L23.7935 42.0958L23.8972 42.1833L24.0101 42.242L24.102 42.2634L24.2624 42.2574L24.3872 42.2127L24.5056 42.1368L24.6093 42.0254L24.6838 41.9104L24.7528 41.727L24.7908 41.5318V41.292L24.7547 40.9548L24.5728 39.9229L24.5613 39.806L24.5668 39.5192L24.634 39.2151L24.7661 38.8835L24.9366 38.5287L25.0801 38.131L25.1468 37.8399L25.193 37.4888L25.1985 37.1205L25.187 37.0092L25.193 36.7167L25.2254 36.5295L25.2656 36.3735L25.3228 36.2585L25.4265 36.1239L25.5353 36.0242L25.7172 35.9129L26.0198 35.7961L26.3566 35.689L26.6436 35.5483L26.8603 35.4082L27.2524 35.1059L27.4572 34.9769L27.5988 34.9187L27.7026 34.8973L27.8072 34.9071L27.9357 34.9536L27.9855 34.9928L28.066 35.1096L28.1176 35.2522L28.2227 35.9115L28.3205 36.2138L28.4736 36.5435L28.5198 36.6911L28.5559 36.97L28.5577 37.1964L28.5198 37.5107L28.416 37.9978L28.3607 38.1873L28.2803 38.5403L28.2497 38.7955L28.2479 39.1275L28.2858 39.3399L28.3607 39.535L28.4412 39.6733L28.5445 39.7906L28.6802 39.8898L28.7972 39.9369L28.885 39.9522L29.0381 39.9425L29.1935 39.8959L29.289 39.8372L29.3982 39.738L29.4841 39.617L29.5532 39.461L29.603 39.2677L29.6204 39.1215L29.6089 38.864L29.5477 38.4467L29.31 37.3254L29.2986 37.2196L29.3041 36.8746L29.337 36.6739L29.3827 36.5551L29.4576 36.434L29.555 36.3288L29.8516 36.0927L29.9892 35.9521L30.1048 35.7788L30.1734 35.6401L30.2557 35.3844L30.3247 35.2694L30.3745 35.2228L30.4357 35.2093L30.5006 35.2344L30.5811 35.3145L30.6729 35.4626L30.7648 35.6829L30.8681 36.0731L30.9485 36.4787L30.9965 36.7418L31.0884 37.0483L31.1976 37.3407L31.3183 37.5922L31.3621 37.6704L31.4558 37.8614L31.7351 38.3801L32.0395 39.0567L32.1601 39.4079L32.2639 39.8703L32.3055 40.1725L32.3109 40.4575L32.2808 40.5977L32.2538 40.621H32.1967L32.0989 40.5744L32.0299 40.5059L32.0052 40.4398L31.9759 40.3131L31.9266 40.2489L31.8658 40.2154L31.8041 40.2251L31.6277 40.3364L31.5248 40.4398L31.4042 40.5157L31.14 40.6056L30.9965 40.7034L30.901 40.7243L30.7936 40.7206L30.7378 40.6973L30.698 40.6522L30.6464 40.5139L30.6405 40.3676L30.6688 40.2154L30.6556 40.1492L30.5481 40.0556L30.4778 40.0263L30.4124 40.0184L30.263 40.0281L30.1139 39.9988L30.0207 40.0091L29.7118 40.118L29.5916 40.1143L29.5495 40.1436L29.5244 40.1823H29.4979L29.4458 40.0635L29.3923 39.9308L29.3658 39.8978L29.316 39.8917L29.2739 39.9192L29.2607 39.9737L29.3982 40.3932L29.4115 40.4789L29.3982 40.5469L29.3064 40.6699L29.289 40.7267L29.3082 40.7672L29.4097 40.8436L29.4901 40.8864L29.5417 40.9488L29.6162 41.2063L29.7369 41.6999L29.8443 42.228L29.8384 42.398L29.8594 42.4525L29.8978 42.5051L29.9608 42.8036L30.0893 43.646L30.1199 43.9427L30.0989 43.9855L29.9988 44.013L29.9129 44.0186Z" fill="white"/>
<path d="M30.3207 43.9775L30.2764 43.9561L30.2631 43.9133L30.2402 43.6204L30.2535 43.6124L30.328 43.6809L30.3952 43.7028L30.5794 43.7144L30.6767 43.6967L30.6959 43.7065L30.6923 43.7512L30.6443 43.849L30.6502 43.9226L30.6054 43.9445L30.3952 43.9715L30.3207 43.9775Z" fill="white"/>
<path d="M30.889 43.9131L30.824 43.9033L30.8145 43.8665L30.8419 43.8041L31.0174 43.5252L31.0635 43.4469L31.1787 43.3184L31.2815 43.2444L31.4118 43.1741L31.4543 43.1778L31.4941 43.2071L31.5096 43.2462L31.5 43.3221L31.4543 43.406L31.3355 43.5759L31.2317 43.7589L31.123 43.8684L30.9292 43.9075L30.889 43.9131Z" fill="white"/>
<path d="M30.2461 43.5447H30.2292L30.1904 43.3379L30.0761 42.5812L30.0396 42.4261L30.3499 42.3493L30.5217 42.312L30.9125 42.2166L30.9852 42.2263L31.0464 42.2887L31.062 42.3511L31.0405 42.468L31.0651 42.5402L31.1209 42.5928L31.1844 42.6417L31.2032 42.6827L31.1726 42.7628L30.7553 43.2089L30.6616 43.3789L30.5926 43.4469L30.4934 43.4804L30.3266 43.4865L30.2726 43.5079L30.2461 43.5447Z" fill="white"/>
<path d="M24.768 43.135L24.63 43.1252L24.5171 43.0959L24.427 43.0377L24.2378 42.8989L24.1573 42.8444L23.8644 42.5948L23.8091 42.5734L23.6308 42.6027L23.56 42.5753L23.4224 42.4584L23.049 42.1017L22.8827 41.9163L22.8521 41.8614L22.8767 41.8576L23.2309 42.1091L23.369 42.2125L23.9965 42.6512L24.278 42.8114L24.6437 43.02L24.7812 43.0922L24.7949 43.1136L24.768 43.135Z" fill="white"/>
<path d="M30.3034 42.8542L30.2422 42.8384L30.175 42.776L30.1562 42.7197L30.1636 42.6689L30.2134 42.6121L30.2901 42.5772L30.468 42.5422L30.5735 42.5381L30.6329 42.5599L30.6576 42.6084L30.6384 42.7136L30.6096 42.7918L30.568 42.8133L30.4506 42.7942L30.3034 42.8542Z" fill="#0067B1"/>
<path d="M30.0969 42.2576L30.0243 42.2538L29.9914 42.2147L29.8826 41.7155L29.7866 41.2689L29.7907 41.214L29.846 41.22L29.9479 41.2396L30.032 41.2317L30.07 41.2121L30.1216 41.1735H30.181L30.3168 41.2061L30.3689 41.2373L30.4151 41.2941L30.4973 41.472L30.5814 41.5688L30.5851 41.6312L30.5796 41.7193L30.6061 41.7798L30.6728 41.844L30.7153 41.9786L30.7766 42.0489V42.0783L30.7135 42.1072L30.3954 42.1891L30.0969 42.2576Z" fill="white"/>
<path d="M24.1995 41.801L24.1136 41.7912L24.0308 41.7442L23.9792 41.6879L23.9335 41.5784L23.918 41.4671L23.9294 41.2278L23.9906 40.8026L24.1977 39.7413L24.2091 39.726L24.2242 39.7553L24.3869 40.9782L24.4006 41.2394L24.3947 41.5086L24.3622 41.6548L24.3105 41.7405L24.2511 41.7852L24.1995 41.801Z" fill="#EF4135"/>
<path d="M22.6893 41.6433L22.6418 41.6275L22.5554 41.5357L22.32 41.22L22.1075 40.8945L22.0193 40.7557L21.8547 40.4945L21.6596 40.1336L21.5965 39.958L21.5869 39.8765L21.6194 39.7224L21.7341 39.3689L21.8182 39.1389L21.8547 39.0355L21.8913 39.0183L21.9407 39.0318L22.1226 39.1724L22.2377 39.2991L22.4329 39.5506L22.5417 39.7322L22.6509 39.9641L22.7373 40.2076L22.783 40.4009L22.825 40.6877L22.8328 41.0053L22.8081 41.2652L22.7428 41.5669L22.7085 41.6335L22.6893 41.6433Z" fill="white"/>
<path d="M34.8229 40.7715L34.7347 40.7617L34.6565 40.7421L34.5665 40.7324L34.5172 40.6877L34.4879 40.6369L34.4824 40.5959L34.5094 40.5531L34.5491 40.5354L34.6314 40.5158L34.7041 40.4301L34.7786 40.3542L35.0852 40.1205L35.1182 40.1144L35.1291 40.1181L35.1236 40.161L35.0432 40.2876L34.9303 40.4068L34.9033 40.473L34.9125 40.5279L34.9568 40.5629L35.0295 40.5726L35.2228 40.5158L35.2955 40.4632L35.5601 40.1493L35.5752 40.1042L35.5907 40.0343L35.6479 39.9267L35.7091 39.8802L35.7758 39.8648L35.8544 39.8569L35.8874 39.8373L35.9066 39.7847V39.6459L35.9523 39.5644L36.0825 39.4746L36.146 39.4238L36.2891 39.3749L36.4153 39.2874L36.4591 39.2599L36.5227 39.2445L36.6835 39.2347L36.7946 39.1993L36.833 39.1779L36.886 39.184L36.9207 39.2385L36.9267 39.3125L36.8823 39.3693L36.7562 39.4392L36.6415 39.4881L36.5245 39.5761L36.301 39.9076L36.1913 40.0068L36.1227 40.0422L36.029 40.0459L35.9847 40.0441L35.912 40.073L35.8028 40.1787L35.7283 40.2821L35.5907 40.4981L35.5254 40.6211L35.476 40.6797L35.3992 40.7091L35.2804 40.7347L35.2228 40.7151L35.1447 40.6639H35.0834L35.0048 40.717L34.9646 40.744L34.8631 40.7654L34.8229 40.7715Z" fill="white"/>
<path d="M39.0317 40.625L38.9956 40.6115L38.9819 40.5589L38.9879 40.4629L38.9975 40.3503L38.9819 40.2818L38.9093 40.2017L38.8636 40.1551L38.848 40.116L38.8517 40.0518L38.9033 39.9386L38.9536 39.8566L38.9723 39.757L38.9591 39.6676L38.9019 39.5526L38.8329 39.486L38.8366 39.3788L38.9303 39.1213L38.9518 39.01L38.9303 38.9616L38.8809 38.9146L38.758 38.821L38.7086 38.7567V38.7059L38.7543 38.6221L38.8672 38.4214L38.9477 38.2379L38.9422 38.1597L38.9093 38.1346L38.875 38.1481L38.7945 38.2868L38.7178 38.4386L38.5976 38.6081L38.5496 38.6435L38.5071 38.6398L38.4006 38.5755L38.2909 38.5616L38.2433 38.5322L38.2146 38.4619L38.1515 38.1658L38.1305 37.9976L38.1245 37.688L38.1592 37.4072L38.2488 37.0835L38.3791 36.6933L38.4115 36.5471L38.4289 36.2369L38.4554 36.1275L38.5363 35.9892L38.6204 35.9189L38.6871 35.8974L38.7603 35.9072L38.8329 35.9482L38.8901 36.0204L38.9536 36.1391L39.0167 36.3501L39.0377 36.5V36.8628L39.0094 37.2488L38.9819 37.4421L38.9742 37.6409L39.0281 38.1597L39.0701 38.3665L39.1433 38.624L39.2232 39.0529L39.2594 39.445L39.2648 39.8799L39.2443 40.2506L39.2232 40.3246L39.0683 40.5919L39.0317 40.625Z" fill="white"/>
<path d="M33.3987 40.6135L33.3447 40.5977L33.219 40.5102L33.1322 40.4417L33.0833 40.4319L32.9567 40.4729L32.836 40.4692L32.8054 40.4459L32.7844 40.3621L32.7803 40.1493L32.8054 40.0733L32.8415 40.0519L32.9851 40.0636L33.06 40.058L33.1615 40.0789L33.2108 40.1204L33.3315 40.3383L33.3854 40.4459L33.4293 40.5376V40.5884L33.3987 40.6135Z" fill="white"/>
<path d="M33.6572 40.5315L33.6014 40.5278L33.5575 40.4728L33.3276 40.0593L33.303 39.9839L33.3167 39.9014L33.3624 39.8213L33.4291 39.7692L33.5022 39.7552L33.6265 39.7613L33.6878 39.7319L33.8276 39.5117L33.9118 39.4297L33.9383 39.4199L34.0818 39.4241L34.1129 39.4041L34.1243 39.3557L34.084 39.2951L33.9958 39.2425L33.9214 39.2211L33.8313 39.2309L33.7372 39.2504L33.6147 39.2462L33.4981 39.1955L33.4392 39.2015L33.3624 39.2541L33.2586 39.3515L33.1745 39.4101L33.0196 39.4199L32.9945 39.4064L32.9757 39.33L32.9373 39.2951L32.9277 39.2737L32.9373 39.2113L33.2303 38.5756L33.4058 38.1309L33.5155 37.7542L33.5671 37.4985L33.6265 37.0892L33.6681 36.3013L33.6896 35.681L33.7353 35.4393L33.787 35.2521L33.8843 35.0397L33.994 34.8954L34.1092 34.7957L34.2431 34.7315L34.3921 34.6924H34.547L34.6869 34.7198L34.8432 34.7785L35.0256 34.901L35.1576 35.0416L35.3067 35.2735L35.5502 35.7378L35.6764 35.9287L35.7911 36.0633L36.0132 36.2626L36.2564 36.4438L36.6933 36.6971L37.0178 36.9136L37.1737 37.0659L37.2994 37.2475L37.3972 37.4659L37.4241 37.6122L37.4415 37.9162L37.4086 38.2399L37.3802 38.3861L37.3588 38.4099L37.3263 38.4136L37.2404 38.408L37.1828 38.4136L37.0964 38.408L36.867 38.4643L36.8291 38.4564L36.8249 38.4136L36.8939 38.3181L37.1961 37.92L37.3341 37.7155L37.3551 37.6531L37.3455 37.5749L37.3112 37.5553L37.2728 37.581L37.095 37.8087L36.7715 38.2399L36.6832 38.3218H36.6334L36.5493 38.2534L35.952 37.6312L35.2801 36.8768L35.2038 36.7791L34.8267 36.3055L34.7783 36.2077L34.7865 36.1648L34.8596 36.0926L35.0772 35.9017L35.3268 35.6717L35.3551 35.613L35.3359 35.5567L35.2993 35.5464L35.2632 35.5683L34.9049 35.8822L34.7235 36.0223L34.6618 36.0382L34.6252 36.0186L34.4305 35.7727L34.2737 35.5567L34.1782 35.4197L34.0607 35.2404L34.0287 35.1897L33.9977 35.1469L33.9634 35.1408L33.9309 35.1701L33.9159 35.2074L33.925 35.2661L33.9867 35.375L34.4593 36.0284L34.5205 36.1043L34.5393 36.155L34.4913 36.2156L34.0667 36.5728L33.7755 36.8028L33.7353 36.8633V36.9257L33.7504 36.9411L33.797 36.9374L33.8889 36.8768L34.2522 36.5863L34.4515 36.4224L34.5836 36.3269L34.6334 36.3092L34.67 36.3232L34.7614 36.4321L35.1311 36.8945L35.2326 37.0114L35.51 37.3388L36.3249 38.2399L36.3638 38.2753L36.5068 38.4234L36.5206 38.4643L36.5091 38.4858L36.1814 38.5677L36.1033 38.5715L36.0119 38.5482L35.8761 38.5444L35.8025 38.5091L35.7239 38.4522L35.6727 38.4369L35.5804 38.4467L35.3811 38.523L35.2861 38.5756L35.2399 38.6264L35.0562 38.8681L34.9867 38.9189L34.9012 38.9678L34.8148 39.0651L34.781 39.1428L34.7596 39.2267L34.7692 39.3245L34.8034 39.3925L34.8596 39.4395L34.909 39.4549L35.1727 39.4376L35.2038 39.453L35.2175 39.494L35.1426 39.738L35.1353 39.8763L35.0964 39.9247L34.8551 40.118L34.8167 40.1338L34.7559 40.124L34.6138 40.0672L34.4725 40.0342L34.3706 40.0383L34.2979 40.0733L34.2408 40.1534L34.1074 40.4183L34.0626 40.4635L34.0073 40.4728L33.8985 40.4323L33.8372 40.4416L33.7088 40.5101L33.6572 40.5315Z" fill="white"/>
<path d="M24.8941 40.4028L24.8059 40.3991L24.7657 40.3753L24.7524 40.3348L24.7716 40.2957L24.8653 40.2683L25.3996 40.2119L25.9833 40.1122L26.0157 40.089L26.0217 40.0363L25.9527 39.8235L25.7575 39.3145L25.5564 38.8796L25.4321 38.6281L25.2982 38.3222L25.2616 38.2868L25.2255 38.2831L25.1528 38.3026L25.1218 38.2868L25.1163 38.2458L25.1505 38.189L25.1889 38.1424L25.1926 38.0917L25.1871 38.0274L25.2081 37.9883L25.2465 37.9845L25.3247 38.0567L25.3859 38.047L25.7689 37.8206L26.0751 37.6549L26.9691 37.1244L27.6693 36.7067L27.7616 36.6369L27.7749 36.5922L27.7443 36.4967L27.6062 36.2448L27.3617 35.8545L27.2813 35.7242L27.1432 35.5039L27.124 35.4471L27.1318 35.4042L27.1624 35.3847L27.1986 35.3926L27.279 35.4899L27.5432 35.8764L27.8014 36.3151L27.8836 36.4692L27.9335 36.52L27.9874 36.5139L28.2205 36.3817L28.2858 36.3756L28.3188 36.4124L28.3146 36.465L28.2781 36.5084L28.0793 36.6332L28.0391 36.6779L28.0295 36.7403L28.0733 36.8418L28.37 37.4034L28.4394 37.5594L28.4509 37.6334L28.4275 37.6842L28.401 37.6977L28.3663 37.6781L28.2918 37.5575L27.9623 36.8944L27.8878 36.785L27.8439 36.7789L27.6926 36.8497L27.4879 36.9764L27.3384 37.0602L27.2657 37.1109L27.2004 37.1361L26.4485 37.579L25.4357 38.1596L25.4033 38.195L25.4092 38.2575L25.6656 38.7781L25.8224 39.1315L25.9467 39.4356L26.1478 40.0284V40.0792L26.0925 40.1472L26.0674 40.2291L26.0025 40.2524L25.3192 40.3558L24.8941 40.4028Z" fill="#0067B1"/>
<path d="M26.3067 40.3208L26.2592 40.311L26.2437 40.2798L26.2514 40.2407L26.2839 40.2193L26.347 40.2035L26.4141 40.2076L26.4311 40.2291L26.4237 40.2645L26.347 40.305L26.3067 40.3208Z" fill="white"/>
<path d="M29.741 39.1917L29.7044 39.1758L29.6948 39.1213L29.7158 39.0785L29.8365 39.0259L30.0659 38.9365L30.6688 38.6673L31.2721 38.3688L31.5116 38.2361H31.5573L31.5861 38.2691L31.592 38.3101L31.5687 38.3455L31.4156 38.4391L30.6862 38.8019L30.1697 39.0357L29.7867 39.1819L29.741 39.1917Z" fill="#0067B1"/>
<path d="M26.043 33.5925L25.995 33.5674L25.98 33.5283L25.9727 31.808L25.99 31.7652L26.0453 31.7438H27.1628L27.2108 31.7652L27.2318 31.8374L27.2286 32.0828L27.2094 32.1317L27.1728 32.1531H26.49L26.4192 32.1745L26.3981 32.2351L26.4009 32.3813L26.4201 32.4241L26.4909 32.4456H27.0193L27.0613 32.467L27.0787 32.5159L27.0805 32.8009L27.065 32.8498L27.0289 32.8731L26.4795 32.8786L26.4201 32.9001L26.3991 32.9546L26.405 33.1301L26.4256 33.1674L26.474 33.1827H27.1591L27.224 33.2042L27.2414 33.2298L27.2432 33.5339L27.2222 33.5711L27.1856 33.5869L26.043 33.5925Z" fill="white"/>
<path d="M32.382 33.5688L32.0575 33.5628L32.015 33.5437L31.9962 33.4948L31.9917 32.1942L31.9725 32.149L31.9286 32.1294L31.5534 32.122L31.5131 32.0945L31.498 32.0382V31.7783L31.5131 31.7476L31.5785 31.7257L32.8765 31.7201L32.9546 31.7415L32.9757 31.769L32.9738 32.0652L32.9446 32.1141L32.8856 32.1299L32.5086 32.1355L32.467 32.1569L32.451 32.1997L32.4455 33.5046L32.4263 33.5474L32.382 33.5688Z" fill="white"/>
<path d="M33.6397 33.5632L33.3924 33.5618L33.3444 33.5404L33.3257 33.4878L33.3184 31.7969L33.328 31.7461L33.3586 31.7247L33.6616 31.7261L33.7146 31.7476L33.7361 31.802L33.737 32.3171L33.753 32.3948L33.7928 32.4186L34.4148 32.4223L34.4802 32.4009L34.4989 32.3483L34.5026 31.769L34.5222 31.7396L34.5757 31.7201H34.8581L34.9075 31.7415L34.929 31.7825L34.9354 33.4734L34.918 33.532L34.8819 33.5535L34.5583 33.5479L34.5277 33.526L34.5126 33.4636L34.5108 32.9313L34.4953 32.8689L34.4537 32.8475L33.7818 32.8489L33.7571 32.8745L33.7439 32.9425L33.7485 33.4929L33.7334 33.5302L33.6854 33.5576L33.6397 33.5632Z" fill="white"/>
<path d="M28.6542 32.744L28.6839 32.7226L28.6748 32.6779L28.4851 32.1568H28.4641L28.2996 32.6681L28.2822 32.7179L28.3123 32.7412L28.6542 32.744ZM27.6565 33.5808L27.6199 33.565L27.6104 33.5454L28.1656 31.7996L28.2036 31.7428L28.2424 31.7274L28.6839 31.7321L28.7434 31.7535L28.7781 31.8038L29.4614 33.511L29.4554 33.5557L29.4134 33.5771L29.0976 33.5808L29.0039 33.5594L28.9691 33.5142L28.8745 33.2288L28.8293 33.198L28.2054 33.1985L28.1483 33.2274L28.0601 33.5105L28.0313 33.5538L27.9554 33.5808H27.6565Z" fill="white"/>
<path d="M30.5794 32.5451L30.6521 32.5181L30.7133 32.465L30.7435 32.4068L30.7549 32.309L30.7248 32.2214L30.6466 32.1572L30.5333 32.1297L30.2407 32.1255L30.1964 32.1469L30.1809 32.1916L30.1832 32.4925L30.1982 32.5292L30.2522 32.5511H30.5447L30.5794 32.5451ZM30.8888 33.5691L30.8358 33.5477L30.4725 33.0173L30.4185 32.9763L30.2074 32.98L30.1923 32.9977L30.1832 33.0424L30.1868 33.489L30.1736 33.5379L30.1201 33.563H29.8157L29.7732 33.5416L29.7545 33.4951L29.748 31.7972L29.7709 31.7422L29.8189 31.7269L30.6768 31.7259L30.8399 31.7534L30.956 31.8L31.0634 31.8764L31.1553 31.9853L31.2184 32.126L31.2399 32.2349L31.2261 32.4086L31.201 32.5101L31.1439 32.6233L31.0465 32.7462L30.9391 32.8338L30.9313 32.8668L31.3294 33.5165L31.3221 33.5477L31.2801 33.563L30.8888 33.5691Z" fill="white"/>
<path d="M29.6432 31.2346L29.5956 31.2132L29.5801 31.1643L29.5732 29.4827L29.5943 29.4338L29.6308 29.4185L29.9188 29.4152L29.9796 29.4366L29.9988 29.4734L30.0011 30.0159L30.0207 30.0783L30.0623 30.0998H30.6656L30.7131 30.0839L30.7364 30.0429L30.7355 29.5069L30.7415 29.452L30.7684 29.425L30.8123 29.4152H31.1052L31.1647 29.4366L31.1839 29.5069L31.188 31.1526L31.1665 31.2132L31.1075 31.2346L30.7963 31.2323L30.7543 31.2127L30.7387 31.1676L30.7364 30.5966L30.7131 30.5598L30.6423 30.544H30.0742L30.0321 30.5598L30.0111 30.6087V31.1526L29.9896 31.2132L29.9188 31.2346H29.6432Z" fill="white"/>
<path d="M28.6955 31.2402H28.3802L28.3321 31.2188L28.3166 31.1816L28.3125 29.8851L28.2928 29.8344L28.228 29.8129L27.829 29.8148L27.7919 29.7873L27.7769 29.7133V29.4967L27.7979 29.4478L27.8459 29.4264L29.2389 29.4208L29.291 29.4362L29.3139 29.487L29.3116 29.7855L29.2645 29.8204L29.1896 29.8302L28.8121 29.8246L28.7759 29.8404L28.7586 29.8697L28.7567 31.1778L28.7435 31.2132L28.6955 31.2402Z" fill="white"/>
<path d="M32.9156 31.2244L31.8361 31.229L31.7771 31.2071L31.758 31.1489L31.7529 29.4748L31.7708 29.4324L31.8238 29.411L32.9047 29.4091L32.9696 29.4306L32.9906 29.4734L32.9865 29.7509L32.9687 29.7924L32.923 29.8157L32.273 29.8185L32.2136 29.8404L32.1985 29.8716L32.1949 29.9982L32.2118 30.0625L32.2406 30.0839L32.3014 30.0937L32.795 30.0881L32.8489 30.1095L32.8681 30.1561V30.4597L32.843 30.5007L32.7895 30.5198L32.2671 30.5207L32.2191 30.5421L32.204 30.591L32.2082 30.7452L32.2347 30.7801L32.2671 30.7899H32.9563L33.0094 30.8113L33.0253 30.8541L33.0267 31.1815L32.9902 31.2146L32.9156 31.2244Z" fill="white"/>
<path d="M26.6685 29.0757L26.4733 29.0659L26.2896 29.0249L26.1594 28.9723L25.9775 28.8554L25.8568 28.7381L25.7595 28.5881L25.685 28.3949L25.6484 28.2156L25.6406 28.0461L25.6676 27.8626L25.7247 27.6852L25.7997 27.5408L25.8915 27.4179L26.0291 27.2949L26.1653 27.213L26.3545 27.1487L26.5022 27.1212L26.6511 27.1156L26.9021 27.1426L27.1164 27.2074L27.1946 27.254L27.222 27.2931L27.2334 27.3387V27.6638L27.2106 27.7029L27.1776 27.7103L26.956 27.5995L26.7604 27.5543L26.6169 27.5487L26.4733 27.5701L26.349 27.6288L26.259 27.6931L26.1786 27.7904L26.1269 27.9054L26.0945 28.0461L26.0981 28.1825L26.1328 28.3171L26.2074 28.4419L26.3029 28.5336L26.4121 28.5979L26.5615 28.6445L26.7316 28.6542L26.8925 28.6272L27.0227 28.5686L27.1493 28.4866L27.1909 28.4596L27.216 28.4652L27.2334 28.4996L27.2371 28.8065L27.216 28.875L27.1548 28.9374L27.0245 29.0016L26.818 29.058L26.6685 29.0757Z" fill="white"/>
<path d="M30.6311 28.9353L30.1658 28.9334L30.1297 28.9176L30.1009 28.8692L29.5721 27.2444L29.5625 27.1625L29.5817 27.1373L29.6722 27.1145L29.9185 27.1215L29.972 27.1373L30.0067 27.2034L30.3646 28.403L30.3916 28.4342H30.4263L30.4391 28.4068L30.8011 27.2291L30.845 27.1429L30.9103 27.1066L31.1644 27.1098L31.2412 27.1313L31.2549 27.1625L31.2362 27.2561L30.696 28.9022L30.6654 28.9255L30.6311 28.9353Z" fill="white"/>
<path d="M31.6761 28.9233L31.6335 28.908L31.5942 28.8558L31.5956 27.1682L31.6107 27.1309L31.6418 27.1076L31.693 27.0979L32.7729 27.0923L32.8319 27.1137L32.847 27.1505L32.8461 27.4192L32.8269 27.4853L32.7711 27.5091L32.0956 27.5114L32.0645 27.5328L32.0513 27.5775V27.7377L32.0645 27.7843L32.1239 27.8057L32.6578 27.8099L32.7227 27.8318L32.7437 27.8802L32.746 28.1764L32.7154 28.1997L32.6637 28.2094H32.1107L32.0687 28.2253L32.0453 28.2602L32.049 28.4376L32.0705 28.4921L32.1121 28.5079L32.821 28.5126L32.8603 28.5359L32.8762 28.5848V28.8591L32.8552 28.9019L32.8127 28.9177L31.6761 28.9233Z" fill="white"/>
<path d="M28.5406 28.5958L28.6823 28.5512L28.7682 28.4925L28.8587 28.3872L28.9158 28.2662L28.9483 28.1162L28.9464 27.9602L28.9099 27.8079L28.8294 27.6752L28.7207 27.57L28.6036 27.5057L28.4602 27.4782L28.3454 27.4843L28.2133 27.5234L28.1004 27.5937L28.0104 27.6929L27.9414 27.8177L27.909 27.97L27.9149 28.1511L27.9528 28.2778L28.0278 28.4105L28.1251 28.4981L28.2248 28.5567L28.3742 28.5977L28.5122 28.6019L28.5406 28.5958ZM28.4775 29.0112L28.2764 29.0056L28.127 28.9782L27.9684 28.9079L27.844 28.8259L27.706 28.6974L27.5913 28.5237L27.5164 28.3421L27.4839 28.1628V27.9052L27.5278 27.7185L27.5913 27.5644L27.7175 27.3828L27.8555 27.2542L27.978 27.1779L28.1215 27.1197L28.3569 27.0745L28.5808 27.0805L28.7645 27.1252L28.9633 27.2132L29.1343 27.3534L29.2371 27.4861L29.2892 27.5839L29.3523 27.759L29.3843 27.9462V28.1339L29.3523 28.3346L29.2892 28.5004L29.1855 28.668L29.0881 28.7733L28.9633 28.8613L28.8084 28.9372L28.6306 28.9898L28.4775 29.0112Z" fill="white"/>
<path d="M34.1506 27.9346L34.2471 27.9071L34.3193 27.8508L34.3595 27.7823L34.375 27.6715L34.3476 27.5914L34.3024 27.5406L34.2311 27.5057L33.8316 27.5048L33.7896 27.5262L33.7745 27.563L33.7777 27.8587L33.7928 27.9132L33.8353 27.9346H34.1506ZM34.817 28.906L34.4509 28.9023L34.391 28.8785L34.1355 28.4357L34.0857 28.3714L34.0186 28.35H33.8526L33.8042 28.3696L33.785 28.4124L33.7836 28.8473L33.7626 28.8846L33.726 28.9H33.4445L33.3855 28.8785L33.3682 28.8394L33.3691 27.1234L33.3997 27.0959L33.4628 27.0861H34.2311L34.4363 27.1117L34.5341 27.1425L34.6465 27.2133L34.7329 27.3045L34.7923 27.4121L34.8362 27.5681L34.8495 27.6869L34.8417 27.8233L34.796 27.956L34.7388 28.0538L34.6602 28.1353L34.5451 28.2233L34.5377 28.2601L34.8595 28.8105L34.8764 28.8706L34.8554 28.8962L34.817 28.906Z" fill="white"/>
<path d="M25.7614 25.8225L25.6143 25.8127L25.4726 25.7662L25.3574 25.6744L25.3058 25.5985L25.2601 25.497L25.2217 25.3196L25.2253 25.144L25.2715 24.9214L25.3291 24.7794L25.4895 24.5102L25.6618 24.317L25.7692 24.2173L26.0809 23.9891L26.4466 23.7903L26.8163 23.6385L27.3364 23.5095L27.6106 23.4704L27.9895 23.4587L28.2994 23.4918L28.5521 23.5444L28.8086 23.6208L29.0956 23.7493L29.2948 23.8667L29.559 24.0711L29.7656 24.2821L29.8748 24.438L29.8789 24.4651L29.825 24.438L29.6299 24.2993L29.3314 24.1475L29.0517 24.0478L28.7935 23.9915L28.4717 23.9505L28.1618 23.9561L27.8556 24.0129L27.5896 24.0944L27.325 24.2234L27.0919 24.3696L26.9484 24.4986L26.7646 24.7067L26.5288 25.0695L26.3085 25.4677L26.1595 25.6372L26.0352 25.7308L25.8881 25.795L25.7614 25.8225Z" fill="#EF4135"/>
<path d="M35.0528 25.6704L34.9089 25.6667L34.7841 25.6313L34.6141 25.52L34.1895 25.1339L33.8892 24.8666L33.7352 24.7418L33.5976 24.6268L33.2681 24.3986L33.0633 24.2878L32.7324 24.1472L32.449 24.0829L32.1698 24.0498L31.9865 24.0554L31.7603 24.1001L31.4769 24.1942L31.4157 24.2175L31.3965 24.2096L31.4481 24.1532L31.5747 24.0652L31.8677 23.9073L32.1296 23.796L32.5336 23.6852L32.7781 23.64L33.0313 23.6112L33.4733 23.6228L33.795 23.6615L34.1296 23.7374L34.3732 23.8314L34.5912 23.9367L34.796 24.0713L35.0715 24.305L35.2379 24.4904L35.359 24.6953L35.4239 24.855L35.4614 25.0091L35.4655 25.1791L35.439 25.3212L35.3933 25.4343L35.3088 25.5493L35.194 25.6257L35.0528 25.6704Z" fill="#EF4135"/>
<path d="M31.9456 25.5415L31.9031 25.5317L31.8578 25.4693L31.787 25.3347L31.6947 25.2062L31.5937 25.1182L31.4406 25.0367L31.314 25.0032L31.1992 24.9976L31.0617 25.019L31.0311 25.0111L31.021 24.9683L31.0425 24.9254L31.1266 24.8551L31.2564 24.7908L31.3597 24.7634L31.4918 24.7573L31.6394 24.7908L31.7486 24.8588L31.8272 24.9408L31.8843 25.0325L31.9209 25.1573L31.9552 25.5145L31.9456 25.5415Z" fill="#0067B1"/>
<path d="M29.8844 24.0789L29.825 24.0341L29.6505 23.8605L29.3922 23.6439L29.1303 23.4567L28.8392 23.3105L28.5636 23.2108L28.2112 23.1233L27.9608 23.0902L27.8287 23.0786L27.4955 23.0842L27.1719 23.1349L26.766 23.2462L26.3794 23.3962L26.2263 23.4292L26.0983 23.4195L25.9872 23.3789L25.9086 23.3147L25.8684 23.2481L25.8438 23.1368L25.8629 22.9808L25.9205 22.8345L26.0064 22.7079L26.1193 22.6082L26.2802 22.4969L26.4562 22.4094L26.6897 22.3335L26.9731 22.2711L27.134 22.2534L27.4722 22.2594L27.8191 22.3219L28.1198 22.4271L28.5366 22.6376L28.8643 22.8541L29.1454 23.0707L29.4612 23.3864L29.6395 23.6029L29.8287 23.9052L29.8881 24.036L29.8922 24.063L29.8844 24.0789Z" fill="#EF4135"/>
<path d="M31.228 23.9736L31.2129 23.9639L31.2664 23.8372L31.4675 23.5503L31.8505 23.1275L32.1316 22.9012L32.472 22.673L32.8432 22.4737L33.2111 22.3391L33.4908 22.2828L33.6288 22.2651L33.9158 22.2711L34.084 22.3042L34.2047 22.3568L34.3194 22.4308L34.3999 22.5147L34.457 22.618L34.4785 22.7098L34.4743 22.8192L34.4223 22.9398L34.3423 23.0455L34.2084 23.1214L33.9958 23.1857L33.7778 23.2071L32.8989 23.2598L32.5753 23.3105L32.3537 23.3692L32.0607 23.4684L31.8445 23.562L31.5287 23.7436L31.255 23.9578L31.228 23.9736Z" fill="#EF4135"/>
<path d="M31.0904 23.6577L31.0771 23.6498L31.0826 23.566L31.1695 23.2074L31.2837 22.8349L31.4679 22.4134L31.6745 22.0274L31.8121 21.8304L32.0593 21.5496L32.1658 21.4443L32.3445 21.3037L32.5278 21.1868L32.7559 21.0932L32.8939 21.0597L33.1005 21.0657L33.2193 21.1049L33.3203 21.185L33.3779 21.259L33.4145 21.3722L33.4222 21.4928L33.3893 21.5962L33.3144 21.7112L33.1827 21.8402L32.9761 21.9748L32.6718 22.1326L32.4017 22.269L32.2006 22.4036L31.8007 22.7077L31.5538 22.9536L31.393 23.1566L31.2147 23.4454L31.1155 23.6307L31.0904 23.6577Z" fill="#EF4135"/>
<path d="M29.9242 23.646L29.8881 23.6087L29.7026 23.3102L29.5591 23.1175L29.289 22.8306L28.9389 22.5381L28.5499 22.2867L27.9073 21.9337L27.7519 21.8163L27.6546 21.7074L27.5856 21.5747L27.5586 21.475L27.5627 21.3446L27.6144 21.2254L27.687 21.1514L27.777 21.0987L27.8744 21.0717L28.012 21.0657L28.1962 21.1048L28.4352 21.2217L28.6633 21.3679L28.975 21.6468L29.2085 21.9062L29.4672 22.2634L29.6221 22.5363L29.7428 22.8171L29.8461 23.1487L29.9265 23.4881L29.9361 23.6167L29.9242 23.646Z" fill="#EF4135"/>
<path d="M29.1722 18.7781L29.1247 18.7683L29.0497 18.6943L28.9921 18.6123L28.9771 18.556L28.9807 18.4526L29.0095 18.318L29.1877 17.8966L29.4172 17.4947L29.8025 16.927L30.2499 16.3892L30.4455 16.1763L30.7211 15.8974L31.1572 15.5114L31.7636 15.0433L32.2006 14.7681L32.654 14.5111L33.0159 14.3527L33.255 14.3025L33.3446 14.3178L33.441 14.3998L33.4748 14.4603L33.4693 14.4994L33.4259 14.5381L33.0095 14.7276L32.5932 14.9674L32.3688 15.1174L32.26 15.1896L31.8231 15.5114L31.7024 15.6147L31.3409 15.9151L30.8587 16.3538L30.4569 16.8045L30.3514 16.9312L30.164 17.1557L29.8139 17.6353L29.5666 18.0213L29.2851 18.5401L29.2033 18.7408L29.1722 18.7781Z" fill="white"/>
<path d="M28.5635 18.468L28.489 18.4643L28.4296 18.4173L28.0767 18.0144L28.1252 17.8049L28.1197 17.7192L28.0891 17.6587L27.9053 17.4421L27.5667 17.0561L26.7682 16.1783L25.9181 15.2423L25.5968 14.8734L25.4894 14.7607L25.4263 14.663L25.4131 14.5792L25.4378 14.4096L25.5301 14.086L25.6791 13.7074L25.8628 13.333L26.041 13.0131L26.2248 12.7323L26.6211 12.2L26.8678 11.9248L27.1722 11.6267L27.3884 11.4395L27.7102 11.1876L28.1713 10.8891L28.6576 10.632L29.0461 10.4681L29.3505 10.3629L29.5283 10.3238L29.7006 10.3177L29.7961 10.3452L29.8633 10.3978L30.1906 10.7606L30.2884 10.8756L30.617 11.25L30.8048 11.4628L31.5991 12.3444L31.7637 12.5157L31.8579 12.6307L32.5987 13.4382L32.6636 13.4792L32.7271 13.4871L32.8702 13.4596L32.9566 13.4638L33.016 13.5048L33.1362 13.6375L33.2075 13.7307L33.2861 13.8243L33.2952 13.875L33.2628 13.9612L33.2052 14.1051L33.1554 14.1288L32.9273 14.201L32.43 14.4292L32.1261 14.5987L31.3985 15.09L31.0365 15.3829L30.564 15.8155L30.1586 16.2309L29.8633 16.5862L29.6759 16.826L29.3829 17.2377L29.09 17.7173L28.941 18L28.8487 18.2128L28.7897 18.3959L28.7682 18.4173L28.7015 18.4331L28.6247 18.4429L28.5635 18.468Z" fill="white"/>
<path d="M27.8112 18.3804L27.7751 18.3589L27.6485 18.2244L27.5836 18.1326L27.3044 17.7289L27.1088 17.4113L26.9653 17.144L26.9232 17.0308L26.9214 17.0113L26.9694 17.0266L27.2221 17.2781L27.6353 17.7582L27.7157 17.8909L27.729 17.9631L27.6988 18.1364L27.7235 18.2183L27.8131 18.3529L27.8112 18.3804Z" fill="white"/>
<path d="M28.3338 17.0171L28.2017 17.0134L28.0545 16.9724L27.8937 16.8844L27.7346 16.7558L27.528 16.5332L27.2871 16.2138L27.1203 15.9307L27.0321 15.7085L26.9823 15.5171L26.9672 15.3378L26.986 15.1758L27.034 14.9867L27.1468 14.7488L27.1414 14.6905L27.0436 14.5346L26.8219 14.2416L26.7104 14.0782L26.4942 13.7895L26.4521 13.7015L26.4658 13.6293L26.5577 13.4677L26.6377 13.3527L26.6857 13.3429L26.7218 13.3643L26.9919 13.7015L28.2437 15.3574L28.6016 15.8431L28.7954 16.0946L28.9389 16.2878L28.954 16.3325L28.9503 16.3889L28.784 16.6739L28.6574 16.8317L28.5559 16.9193L28.443 16.984L28.3338 17.0171Z" fill="#EF4135"/>
<path d="M28.2709 16.4263L28.1717 16.4225L28.0511 16.3695L27.9359 16.2759L27.7924 16.118L27.5744 15.8078L27.4884 15.6421L27.4364 15.4823L27.4268 15.4255L27.4309 15.3166L27.4592 15.229L27.4825 15.2016H27.5264L27.5894 15.2695L28.3244 16.2293L28.3706 16.3168L28.3646 16.3541L28.3267 16.3988L28.2709 16.4263Z" fill="white"/>
<path d="M29.0693 16.1921L29.0268 16.1707L28.6058 15.4042L28.1428 14.587L27.5743 13.534L27.1497 12.7168L27.1396 12.6581L27.178 12.5803L27.2987 12.4341L27.3544 12.3815L27.4116 12.3289L27.4596 12.3149L27.5094 12.3405L27.6584 12.4867L27.7503 12.5859L28.8723 13.7799L29.0615 13.9709L29.0825 13.9746L29.0711 13.9355L28.7667 13.4404L27.9417 12.1589L27.8558 12.0029V11.9405L27.9189 11.8604L28.1255 11.7025L28.2137 11.6658L28.2557 11.6732L28.4449 11.8315L28.5542 11.9405L30.2256 13.569L30.9089 14.2302L30.9468 14.2908L30.9372 14.3397L30.8302 14.4272L30.6351 14.5558L30.5816 14.5697L30.5259 14.5441L30.4226 14.4407L30.0761 14.078L29.9111 13.9122L29.7736 13.7604L29.6703 13.6509L29.1191 13.0637L28.8147 12.7265L28.7512 12.6916L28.7685 12.7443L28.8549 12.8942L29.1799 13.4148L29.5725 14.0589L29.7544 14.3397L29.9171 14.6028L30.1273 14.9362L30.1433 14.9986L30.1164 15.0531L29.8636 15.2934L29.8216 15.3148L29.7772 15.3046L29.6913 15.2249L29.2224 14.7197L28.9468 14.4095L28.0834 13.4987L28.0377 13.4679L28.0336 13.4893L28.0853 13.6025L28.6579 14.5814L29.3179 15.7768L29.343 15.8606L29.3138 15.9211L29.1228 16.1591L29.0693 16.1921Z" fill="#EF4135"/>
<path d="M25.2102 14.4077L25.1682 14.3919L25.0763 14.2829L25.0493 14.2145L25.0553 14.0859L25.0818 13.9453L25.1969 13.6063L25.3405 13.2747L25.5585 12.8789L25.9127 12.3462L25.995 12.2213L26.1709 12.0127L26.3048 11.8432L26.3606 11.7845L26.6727 11.4451L26.8217 11.2989L26.9465 11.1917L27.1088 11.0474L27.5205 10.7373L27.9451 10.4741L28.3606 10.246L28.755 10.0704L29.0841 9.96515L29.2984 9.92604L29.3944 9.92976L29.4497 9.95349L29.559 10.0625L29.5782 10.1053L29.5608 10.1267L29.2299 10.1933L28.8451 10.3279L28.3414 10.5677L27.9858 10.7666L27.4881 11.1061L27.1243 11.4041L26.8679 11.6383L26.5978 11.9308L26.2248 12.3969L25.9776 12.7499L25.6851 13.2337L25.4666 13.6724L25.3459 13.9881L25.2349 14.3803L25.2102 14.4077Z" fill="white"/>
<path d="M31.2336 14.0449L31.0599 14.0175L30.9068 13.9593L30.755 13.8656L30.4397 13.5848L30.3304 13.4577L30.3167 13.4209L30.3364 13.3818L30.4205 13.3231L30.6252 13.2123L30.6769 13.2081L30.7244 13.2356L30.8282 13.339L30.9273 13.4326L31.0521 13.5145L31.1728 13.5457L31.2381 13.5322L31.287 13.4931L31.3067 13.4209L31.2761 13.3329L31.1787 13.2179L31.0708 13.1243L30.8419 12.978L30.5448 12.8318L30.0242 12.6074L29.5475 12.3676L29.2683 12.1748L29.1188 12.0243L29.0041 11.8665L28.941 11.7086L28.9141 11.5643L28.9237 11.4297L28.9579 11.3109L29.0324 11.1936L29.1344 11.1L29.2568 11.0413L29.431 11.0027H29.6147L29.7582 11.0357L29.957 11.1177L30.2194 11.2932L30.415 11.4744L30.457 11.5447L30.4378 11.5894L30.3076 11.6658L30.1431 11.7356L30.0859 11.7398L30.0146 11.6951L29.8752 11.568L29.7354 11.486L29.6088 11.453L29.5247 11.4683L29.4748 11.5135L29.452 11.5759L29.4575 11.6462L29.4977 11.724L29.5992 11.8292L29.7943 11.9638L30.0206 12.0867L30.1275 12.1277L30.1792 12.1473L30.2349 12.1804L30.7614 12.4048L31.037 12.545L31.3103 12.7149L31.4826 12.8551L31.6092 12.9897L31.718 13.1476L31.7774 13.2766L31.8158 13.4344L31.8195 13.5592L31.7989 13.6687L31.7413 13.7776L31.6568 13.8791L31.5421 13.9593L31.4059 14.0175L31.303 14.0389L31.2336 14.0449Z" fill="#EF4135"/>
<path d="M33.2666 13.1262L33.2131 13.0871L33.1039 12.9898L33.0312 12.9567L32.9489 12.9665L32.8877 12.9856L32.821 12.9758L32.7076 12.8706L32.4649 12.6037L32.0303 12.1334L32.0088 12.085L32.0705 12.0948L32.3612 12.2759L32.746 12.5627L33.0559 12.8436L33.257 13.0717L33.2739 13.1164L33.2666 13.1262Z" fill="white"/>
</g>
<defs>
<clipPath id="clip0_1772_9546">
<rect width="21" height="42" fill="white" transform="translate(20 9)"/>
</clipPath>
</defs>
</svg>
