<svg width="60" height="60" viewBox="0 0 60 60" fill="none" xmlns="http://www.w3.org/2000/svg">
<rect width="60" height="60" fill="#FFFC00"/>
<g clip-path="url(#clip0_150_771)">
<path d="M2.02179 43.7564V43.7589C2.0553 45.0021 2.06564 46.2524 2.27533 47.4878C2.49753 48.7949 2.81517 50.0695 3.42116 51.2558C4.24044 52.8615 5.36559 54.2175 6.78586 55.3251C7.80557 56.1204 8.91952 56.7518 10.1526 57.15C11.9507 57.73 13.8057 57.9523 15.6878 57.9632C16.862 57.9706 18.0355 58 19.2101 57.9951C27.7407 57.9592 36.2716 58.0567 44.8024 57.9424C45.9344 57.9271 47.0479 57.789 48.1589 57.5858C50.2884 57.1961 52.1703 56.2875 53.7805 54.851C55.657 53.1773 56.9231 51.1289 57.4946 48.6567C57.8686 47.0408 57.9622 45.4014 57.9782 43.7562V43.428C57.9782 43.3007 57.9297 15.4741 57.9253 15.1063C57.9128 14.096 57.8383 13.0932 57.6489 12.0991C57.4185 10.8876 57.093 9.70721 56.5129 8.61121C55.9004 7.45331 55.1332 6.41216 54.1842 5.50235C52.7305 4.10842 51.053 3.12265 49.1001 2.60121C47.3362 2.13036 45.5367 2.02612 43.724 2.02775C43.7211 2.02731 43.7142 2.00892 43.7138 2H16.2774C16.2769 2.00936 16.2766 2.01872 16.2759 2.02775C15.2472 2.04657 14.2169 2.03885 13.1934 2.16573C12.0721 2.30512 10.9617 2.51503 9.90038 2.90698C8.22875 3.52527 6.77639 4.48829 5.53578 5.77395C4.1302 7.23056 3.13944 8.91514 2.61375 10.8768C2.14475 12.627 2.04268 14.412 2.04018 16.2096" fill="#FFFC00"/>
<path d="M30.2538 49.248C30.1376 49.248 30.0267 49.2438 29.9424 49.2398C29.8755 49.2455 29.8064 49.248 29.7372 49.248C27.2957 49.248 25.6632 48.0938 24.2226 47.0747C23.1901 46.3453 22.2163 45.6567 21.0754 45.4669C20.5152 45.374 19.9578 45.3269 19.4193 45.3269C18.449 45.3269 17.6821 45.4774 17.1223 45.5868C16.7778 45.654 16.4807 45.7117 16.2511 45.7117C16.0106 45.7117 15.7184 45.6584 15.5967 45.2426C15.5002 44.9147 15.4309 44.5969 15.3641 44.2909C15.197 43.5263 15.0758 43.0596 14.7895 43.0153C11.7273 42.5428 9.91801 41.8468 9.55761 41.0039C9.51985 40.9154 9.49874 40.8262 9.49406 40.7381C9.48003 40.4868 9.6574 40.2665 9.90506 40.2255C12.3369 39.825 14.4992 38.5397 16.3322 36.404C17.7521 34.7505 18.4494 33.1707 18.5243 32.9963C18.5275 32.9885 18.5313 32.9802 18.5352 32.9727C18.8886 32.2558 18.9589 31.6363 18.7448 31.1319C18.3503 30.2015 17.0435 29.7869 16.1789 29.5125C15.9639 29.4445 15.7606 29.3801 15.5985 29.3158C14.8321 29.0131 13.5717 28.3735 13.7396 27.4906C13.8619 26.8469 14.7134 26.3986 15.4016 26.3986C15.5926 26.3986 15.762 26.4321 15.9045 26.499C16.6821 26.8633 17.3817 27.048 17.9833 27.048C18.7315 27.048 19.0929 26.7631 19.1803 26.6821C19.1588 26.283 19.1324 25.861 19.107 25.4619C19.107 25.4614 19.1064 25.4567 19.1064 25.4567C18.9308 22.6628 18.7117 19.1859 19.6011 17.1921C22.2629 11.2239 27.908 10.7598 29.5742 10.7598C29.6186 10.7598 30.3004 10.753 30.3004 10.753C30.3312 10.7525 30.3646 10.752 30.3992 10.752C32.07 10.752 37.7268 11.2167 40.3903 17.1885C41.2796 19.1836 41.0603 22.6635 40.8842 25.4602L40.8759 25.5941C40.8517 25.9739 40.8294 26.3333 40.8106 26.6817C40.8929 26.7574 41.2236 27.0186 41.8964 27.045C42.4699 27.0231 43.129 26.8393 43.8548 26.4994C44.0792 26.3941 44.3276 26.3722 44.4963 26.3722C44.7513 26.3722 45.0107 26.4219 45.2269 26.5121L45.2384 26.5165C45.8543 26.7351 46.2577 27.172 46.2664 27.631C46.2741 28.0589 45.9562 28.6984 44.3923 29.316C44.2321 29.3795 44.0277 29.4443 43.8119 29.5128C42.9466 29.7874 41.6409 30.2018 41.2463 31.1317C41.0319 31.6361 41.1025 32.2554 41.4559 32.972C41.4598 32.9799 41.4632 32.9878 41.467 32.9961C41.5758 33.2511 44.2097 39.2568 50.0862 40.2249C50.3337 40.2662 50.5114 40.4867 50.4973 40.7376C50.4921 40.8277 50.4703 40.9178 50.4322 41.0058C50.0743 41.844 48.2651 42.539 45.2021 43.0121C44.9146 43.0565 44.7935 43.5212 44.6279 44.2818C44.5593 44.5959 44.4896 44.9039 44.3944 45.2275C44.3052 45.5319 44.107 45.6806 43.7886 45.6806H43.7406C43.5333 45.6806 43.2396 45.643 42.8692 45.5705C42.2217 45.4445 41.4956 45.3272 40.5722 45.3272C40.0338 45.3272 39.4765 45.3744 38.9156 45.4672C37.776 45.657 36.8023 46.3445 35.7716 47.0731C34.3281 48.0937 32.6951 49.248 30.2538 49.248Z" fill="white"/>
<path d="M30.3991 11.2438C31.972 11.2438 37.3884 11.6663 39.9409 17.3888C40.7814 19.2732 40.5659 22.6866 40.3931 25.4287C40.3661 25.8639 40.3394 26.2856 40.3176 26.6884L40.3085 26.8615L40.424 26.9904C40.4707 27.0422 40.9076 27.4988 41.8793 27.5364L41.895 27.5372L41.9113 27.5369C42.5538 27.5124 43.2774 27.3128 44.0633 26.9447C44.1791 26.8905 44.3331 26.8641 44.4961 26.8641C44.6819 26.8641 44.8793 26.899 45.0421 26.9676L45.0667 26.9774C45.4788 27.1218 45.7701 27.394 45.7745 27.6404C45.7769 27.7797 45.6728 28.2814 44.212 28.8585C44.0693 28.9148 43.8813 28.9748 43.6635 29.0435C42.7129 29.3453 41.2767 29.8008 40.7934 30.9398C40.5212 31.5814 40.5958 32.3385 41.0147 33.1899C41.1871 33.5922 43.9005 39.7041 50.0063 40.7102C50.0051 40.7392 49.9977 40.7709 49.9813 40.8082C49.8779 41.0519 49.2201 41.8941 45.1268 42.5256C44.4864 42.6238 44.3294 43.3417 44.1475 44.1764C44.0818 44.4752 44.015 44.7768 43.9231 45.0883C43.895 45.1825 43.8898 45.1878 43.789 45.1878C43.775 45.1878 43.7587 45.1878 43.7409 45.1878C43.5594 45.1878 43.2838 45.1502 42.9645 45.0875C42.3828 44.9742 41.5883 44.8352 40.5725 44.8352C40.0055 44.8352 39.4215 44.8845 38.8355 44.9824C37.583 45.1906 36.5643 45.9111 35.4855 46.6737C34.0368 47.6974 32.5394 48.7567 30.2547 48.7567C30.1549 48.7567 30.0575 48.7534 29.9599 48.7485L29.9342 48.7474L29.9084 48.7493C29.8524 48.7542 29.7959 48.7567 29.7382 48.7567C27.4538 48.7567 25.9558 47.6977 24.5077 46.6737C23.4286 45.9111 22.4095 45.1906 21.1571 44.9824C20.5717 44.8849 19.9871 44.8352 19.4205 44.8352C18.4049 44.8352 17.6094 44.9906 17.029 45.1041C16.7096 45.1666 16.4331 45.2201 16.2521 45.2201C16.1039 45.2201 16.1011 45.2114 16.0698 45.1043C15.9779 44.7926 15.9108 44.4838 15.8454 44.1854C15.663 43.3499 15.506 42.628 14.8658 42.5298C10.7729 41.8976 10.115 41.0541 10.0112 40.811C9.995 40.7727 9.98771 40.7401 9.98608 40.7111C16.0917 39.7059 18.8046 33.5937 18.9775 33.1899C19.3972 32.3392 19.4717 31.5821 19.1986 30.9398C18.7153 29.8015 17.2793 29.3453 16.3294 29.044C16.111 28.9749 15.923 28.9148 15.7801 28.8585C14.5465 28.3711 14.1671 27.8801 14.2235 27.5826C14.2889 27.2395 14.8837 26.8906 15.4027 26.8906C15.5194 26.8906 15.6216 26.9095 15.6973 26.9448C16.5403 27.3399 17.3098 27.5403 17.9848 27.5403C19.0459 27.5403 19.5181 27.0466 19.5688 26.9902L19.6838 26.8616L19.6746 26.6893C19.6532 26.2868 19.6267 25.8652 19.5989 25.4309C19.4266 22.6882 19.2112 19.277 20.0513 17.3925C22.5943 11.691 27.9843 11.2515 29.5754 11.2515C29.6146 11.2515 30.3063 11.2444 30.3063 11.2444C30.3346 11.2442 30.3661 11.2438 30.3991 11.2438ZM30.3991 10.2603H30.3972C30.361 10.2603 30.3269 10.2603 30.2945 10.2607C30.0359 10.2634 29.6109 10.2675 29.5727 10.2679C28.6406 10.2679 26.7756 10.3996 24.7723 11.2838C23.6269 11.7891 22.5966 12.4722 21.7102 13.3143C20.6534 14.3177 19.7924 15.5549 19.1517 16.9919C18.2134 19.0959 18.4362 22.64 18.6151 25.488L18.6157 25.4925C18.6349 25.7975 18.655 26.116 18.6734 26.4263C18.5357 26.4895 18.3126 26.5562 17.9836 26.5562C17.4543 26.5562 16.8249 26.387 16.1134 26.0536C15.904 25.9561 15.6651 25.9068 15.4014 25.9068C14.9778 25.9068 14.5312 26.0315 14.1438 26.2593C13.6564 26.5455 13.3415 26.9499 13.256 27.3984C13.1996 27.695 13.2023 28.2813 13.8536 28.8759C14.2118 29.2032 14.7381 29.505 15.4173 29.7735C15.5955 29.8437 15.8071 29.9107 16.0311 29.9818C16.8086 30.2289 17.9853 30.6022 18.2922 31.3244C18.4477 31.6906 18.3808 32.1724 18.0938 32.7548C18.0863 32.7707 18.0788 32.7863 18.072 32.8026C18.0003 32.9701 17.3313 34.4854 15.959 36.0836C15.1792 36.9924 14.3203 37.752 13.4076 38.3418C12.2935 39.0618 11.0881 39.5325 9.82503 39.7406C9.32905 39.822 8.97485 40.2639 9.00249 40.7661C9.01098 40.9108 9.04493 41.0551 9.1038 41.1947C9.10423 41.1956 9.10478 41.1964 9.10521 41.1972C9.30576 41.6663 9.77073 42.0648 10.5267 42.4163C11.4504 42.8453 12.8319 43.2063 14.6325 43.4886C14.7235 43.6617 14.8179 44.0965 14.8833 44.3942C14.9518 44.7106 15.0232 45.036 15.1249 45.3816C15.2347 45.756 15.5195 46.2035 16.251 46.2035C16.5283 46.2035 16.8471 46.141 17.2163 46.0694C17.757 45.9633 18.4965 45.8186 19.4193 45.8186C19.931 45.8186 20.4612 45.8637 20.995 45.9523C22.0238 46.1236 22.9108 46.7502 23.937 47.4758C25.4391 48.5376 27.1394 49.7395 29.7371 49.7395C29.808 49.7395 29.879 49.7372 29.9492 49.7323C30.0351 49.7363 30.1415 49.7395 30.2538 49.7395C32.8523 49.7395 34.5521 48.5372 36.0526 47.4762L36.055 47.474C37.0814 46.7493 37.9674 46.1236 38.9959 45.9523C39.5295 45.8638 40.0596 45.8186 40.5715 45.8186C41.4531 45.8186 42.1512 45.931 42.7745 46.0526C43.1812 46.1327 43.4973 46.1712 43.7399 46.1712L43.7636 46.1716H43.7882C44.3232 46.1716 44.7164 45.8779 44.8664 45.364C44.9661 45.0257 45.0373 44.7079 45.1075 44.3862C45.1686 44.1072 45.2663 43.6599 45.3573 43.4851C47.1591 43.2021 48.5401 42.8419 49.4639 42.413C50.2181 42.0632 50.6825 41.6651 50.8843 41.198C50.9448 41.0579 50.9802 40.9128 50.9881 40.765C51.0165 40.2637 50.6618 39.8209 50.1655 39.7395C44.5522 38.8143 42.0234 33.0467 41.9188 32.8016C41.9121 32.7855 41.9045 32.7695 41.8965 32.754C41.6096 32.1714 41.5433 31.6901 41.6989 31.3232C42.0051 30.6017 43.1811 30.2283 43.9591 29.9813C44.1844 29.9104 44.3967 29.8429 44.5735 29.7731C45.3395 29.4706 45.8869 29.1424 46.2481 28.7697C46.6794 28.3254 46.7634 27.8997 46.7582 27.6211C46.745 26.9471 46.2298 26.3482 45.4102 26.0549C45.1334 25.9405 44.8177 25.8801 44.4963 25.8801C44.2774 25.8801 43.9534 25.9101 43.6466 26.0533C42.9899 26.3606 42.4017 26.5286 41.8966 26.5525C41.6281 26.5389 41.4397 26.4807 41.3177 26.4251C41.3331 26.1622 41.3501 25.8921 41.3676 25.6105L41.3749 25.49C41.5547 22.6401 41.7783 19.0933 40.8395 16.9877C40.1961 15.5456 39.3321 14.3053 38.271 13.2998C37.3811 12.4571 36.3474 11.7741 35.1978 11.2691C33.1974 10.3914 31.3325 10.2603 30.3991 10.2603Z" fill="#020202"/>
</g>
<defs>
<clipPath id="clip0_150_771">
<rect width="56" height="56" fill="white" transform="translate(2 2)"/>
</clipPath>
</defs>
</svg>
