<svg width="60" height="60" viewBox="0 0 60 60" fill="none" xmlns="http://www.w3.org/2000/svg">
<rect width="60" height="60" fill="#213F30"/>
<g clip-path="url(#clip0_402_231)">
<path fill-rule="evenodd" clip-rule="evenodd" d="M13.2919 26.7448C13.2919 26.1044 13.6696 25.8581 14.0637 25.8581C14.7206 25.8581 14.9669 26.4328 14.9833 27.1718L14.9997 27.7629L17.1673 27.648L17.1345 26.9583C17.0195 24.4623 15.7222 23.7233 14.0309 23.7233C11.8304 23.7233 10.7795 25.152 10.7795 26.9583C10.7795 28.7154 11.5513 29.7171 12.8814 30.8994C13.7845 31.6876 14.7206 32.4432 14.7206 33.2805C14.7206 33.8883 14.4742 34.2 13.9488 34.2C13.3412 34.2 12.9142 33.8224 12.8485 32.64L12.8157 32.0327L10.5988 32.1474L10.6481 33.0998C10.7795 35.6782 12.3559 36.3676 13.998 36.3676C16.297 36.3676 17.3151 34.9718 17.3151 32.9685C17.3151 31.1293 16.2641 30.2097 15.1475 29.1752C13.8174 27.9272 13.2919 27.5987 13.2919 26.7448ZM19.1214 36.2034H21.913V26.0223H23.5551V23.8875H17.4793V26.0223H19.1214V36.2034ZM31.1086 36.2034L29.6964 30.5874C30.5503 29.9634 31.0265 28.8139 31.0265 27.4345C31.0265 25.1191 29.7621 23.8875 27.808 23.8875H24.2117V36.2034H27.0033V31.2278H27.2332L28.3335 36.2034H31.1086ZM27.0033 25.9402H27.3482C27.7916 25.9402 28.2349 26.2029 28.2349 27.7794C28.2349 29.3394 27.7259 29.5857 27.2497 29.5857H27.0033V25.9402ZM36.8394 36.2034V34.0687H34.7867V30.5381H36.511V28.896H34.7867V26.0223H36.8394V23.8875H31.9951V36.2034H36.8394ZM42.6687 36.2034V34.0687H40.616V30.5381H42.3402V28.896H40.616V26.0223H42.6687V23.8875H37.8244V36.2034H42.6687ZM44.9674 36.2034H47.759V26.0223H49.4011V23.8875H43.3253V26.0223H44.9674V36.2034ZM13.291 13.0214C13.291 12.381 13.6687 12.1347 14.0628 12.1347C14.7196 12.1347 14.9659 12.7094 14.9824 13.4484L14.9988 14.0395L17.1664 13.9246L17.1335 13.2349C17.0186 10.7389 15.7213 9.99994 14.0299 9.99994C11.8295 9.99994 10.7785 11.4286 10.7785 13.2349C10.7785 14.992 11.5503 15.9937 12.8804 17.176C13.7836 17.9642 14.7196 18.7196 14.7196 19.5571C14.7196 20.1646 14.4733 20.4766 13.9478 20.4766C13.3402 20.4766 12.9133 20.099 12.8476 18.9166L12.8148 18.309L10.5979 18.424L10.6472 19.3764C10.7785 21.9545 12.355 22.6442 13.9971 22.6442C16.296 22.6442 17.3142 21.2484 17.3142 19.2451C17.3142 17.4059 16.2632 16.4863 15.1466 15.4518C13.8164 14.2038 13.291 13.8753 13.291 13.0214ZM19.1205 22.48H21.9121V12.2989H23.5542V10.1642H17.4784V12.2989H19.1205V22.48ZM28.1847 22.48H30.9927L29.17 10.1642H25.2946L23.2912 22.48H25.9515L26.2635 19.7541H27.9056L28.1847 22.48ZM26.4605 18.112L27.1338 12.2661L27.7414 18.112H26.4605ZM32.4868 22.48H35.2784V12.2989H36.9206V10.1642H30.8447V12.2989H32.4868V22.48ZM42.668 22.48V20.3453H40.6153V16.8147H42.3395V15.1726H40.6153V12.2989H42.668V10.1642H37.8237V22.48H42.668ZM12.7979 49.9268H14.0473L13.2363 44.4468H11.5119L10.6204 49.9268H11.8042L11.943 48.7138H12.6735L12.7979 49.9268ZM12.0305 47.9835L12.3303 45.3819L12.6006 47.9835H12.0305ZM14.4125 49.9268H15.9836C17.0871 49.9268 17.6496 49.0502 17.6496 47.1793C17.6496 45.3162 17.0871 44.4468 15.9836 44.4468H14.4125V49.9268ZM16.3709 47.1793C16.3709 48.6626 16.1736 48.977 15.8374 48.977H15.6549V45.3965H15.8374C16.1736 45.3965 16.3709 45.7033 16.3709 47.1793ZM19.0597 44.4468H17.8103L18.6433 49.9268H20.3239L21.2374 44.4468H20.0534L19.5275 48.9918L19.0597 44.4468ZM21.639 49.9268H22.8812V44.4468H21.639V49.9268ZM24.5033 45.7183C24.5033 45.4333 24.6715 45.3235 24.8468 45.3235C25.1391 45.3235 25.2486 45.5794 25.2561 45.9079L25.2634 46.1711L26.2278 46.1199L26.2133 45.8133C26.1621 44.7023 25.5848 44.3734 24.8322 44.3734C23.8531 44.3734 23.3855 45.0091 23.3855 45.8133C23.3855 46.595 23.729 47.0405 24.3208 47.5666C24.7227 47.9176 25.1391 48.2535 25.1391 48.6263C25.1391 48.8965 25.0295 49.0354 24.7956 49.0354C24.5254 49.0354 24.3354 48.8672 24.3061 48.3412L24.2915 48.071L23.3051 48.1221L23.3269 48.5458C23.3855 49.6932 24.0869 50 24.8177 50C25.8405 50 26.2937 49.3788 26.2937 48.4874C26.2937 47.6689 25.8259 47.26 25.3291 46.7995C24.7372 46.2443 24.5033 46.0981 24.5033 45.7183ZM28.3102 50C29.4283 50 29.9983 49.2327 29.9983 47.1793C29.9983 45.141 29.4283 44.3734 28.3102 44.3734C27.1997 44.3734 26.6296 45.141 26.6296 47.1793C26.6296 49.2327 27.1997 50 28.3102 50ZM28.3102 49.0502C28.04 49.0502 27.8938 48.7504 27.8938 47.1793C27.8938 45.6156 28.04 45.3235 28.3102 45.3235C28.5807 45.3235 28.7341 45.6156 28.7341 47.1793C28.7341 48.7504 28.5807 49.0502 28.3102 49.0502ZM33.5638 49.9268L32.9356 47.428C33.3156 47.1502 33.5275 46.6386 33.5275 46.0249C33.5275 44.9948 32.9649 44.4468 32.0953 44.4468H30.495V49.9268H31.7371V47.7128H31.8396L32.3292 49.9268H33.5638ZM31.7371 45.3599H31.8908C32.0878 45.3599 32.2853 45.4769 32.2853 46.1783C32.2853 46.8725 32.0585 46.982 31.8469 46.982H31.7371V45.3599ZM34.9887 45.7183C34.9887 45.4333 35.1569 45.3235 35.3322 45.3235C35.6245 45.3235 35.734 45.5794 35.7415 45.9079L35.7488 46.1711L36.7132 46.1199L36.6986 45.8133C36.6475 44.7023 36.0702 44.3734 35.3176 44.3734C34.3384 44.3734 33.8709 45.0091 33.8709 45.8133C33.8709 46.595 34.2143 47.0405 34.806 47.5666C35.2081 47.9176 35.6245 48.2535 35.6245 48.6263C35.6245 48.8965 35.5149 49.0354 35.281 49.0354C35.0105 49.0354 34.8208 48.8672 34.7914 48.3412L34.7767 48.071L33.7904 48.1221L33.8125 48.5458C33.8709 49.6932 34.5723 50 35.3031 50C36.3261 50 36.7791 49.3788 36.7791 48.4874C36.7791 47.6689 36.3111 47.26 35.8145 46.7995C35.2226 46.2443 34.9887 46.0981 34.9887 45.7183ZM13.8061 39.2845L13.7916 38.9774C13.7477 38.0351 13.2509 37.5382 12.469 37.5382C11.3364 37.5382 10.7152 38.4369 10.7152 40.3441C10.7152 42.3388 11.3364 43.1646 12.2717 43.1646C12.7174 43.1646 13.017 42.96 13.1631 42.6968L13.3822 43.0914H13.8279V40.1541H12.4106V40.8117H12.7904V41.8565C12.7904 42.1415 12.6517 42.2143 12.469 42.2143C12.1985 42.2143 11.9939 41.8858 11.9939 40.3441C11.9939 38.7876 12.1694 38.4878 12.469 38.4878C12.6808 38.4878 12.8197 38.6558 12.8342 39.1163L12.8415 39.3356L13.8061 39.2845ZM16.5098 43.0914V42.1415H15.6692V37.6109H14.4271V43.0914H16.5098ZM18.3583 43.1646C19.4764 43.1646 20.0462 42.3972 20.0462 40.3441C20.0462 38.3051 19.4764 37.5382 18.3583 37.5382C17.2475 37.5382 16.6777 38.3051 16.6777 40.3441C16.6777 42.3972 17.2475 43.1646 18.3583 43.1646ZM18.3583 42.2143C18.0878 42.2143 17.9419 41.9149 17.9419 40.3441C17.9419 38.7804 18.0878 38.4878 18.3583 38.4878C18.6286 38.4878 18.7822 38.7804 18.7822 40.3441C18.7822 41.9149 18.6286 42.2143 18.3583 42.2143ZM20.5064 43.0914H21.9679C23.0712 43.0914 23.6267 42.5434 23.6267 41.3815C23.6267 40.8483 23.4294 40.3364 22.8739 40.0955C23.3562 39.8909 23.5755 39.4452 23.5755 38.9702C23.5755 38.0787 23.0639 37.6109 21.99 37.6109H20.5064V43.0914ZM22.3625 39.1454C22.3625 39.6573 22.1945 39.8395 21.9095 39.8395H21.7488V38.561H21.8729C22.1725 38.561 22.3625 38.6781 22.3625 39.1454ZM21.7488 42.1415V40.5703H21.8802C22.1873 40.5703 22.3845 40.7164 22.3845 41.3306C22.3845 41.9954 22.1873 42.1415 21.8802 42.1415H21.7488ZM25.9428 43.0914H27.1924L26.3812 37.6109H24.6568L23.7653 43.0914H24.9491L25.0879 41.8786H25.8187L25.9428 43.0914ZM25.1757 41.1476L25.4752 38.5465L25.7455 41.1476H25.1757ZM29.6401 43.0914V42.1415H28.7998V37.6109H27.5577V43.0914H29.6401Z" fill="white"/>
</g>
<defs>
<clipPath id="clip0_402_231">
<rect width="40" height="40" fill="white" transform="translate(10 10)"/>
</clipPath>
</defs>
</svg>
