<svg width="60" height="60" viewBox="0 0 60 60" fill="none" xmlns="http://www.w3.org/2000/svg">
<rect width="60" height="60" fill="#1ED760"/>
<g clip-path="url(#clip0_150_772)">
<path d="M30.0066 9.06927C18.4401 9.06927 9.06323 18.4459 9.06323 30.0124C9.06323 41.5793 18.4401 50.9553 30.0066 50.9553C41.5743 50.9553 50.9502 41.5793 50.9502 30.0124C50.9502 18.4467 41.5746 9.06927 30.0066 9.06927ZM39.6111 39.2753C39.236 39.8905 38.4307 40.0856 37.8154 39.7079C32.8982 36.7043 26.7079 36.0241 19.4177 37.6897C18.7152 37.8497 18.015 37.4096 17.8549 36.7068C17.6941 36.0041 18.1325 35.3038 18.8368 35.1438C26.8147 33.3211 33.6579 34.1059 39.1784 37.4796C39.7937 37.8572 39.9887 38.66 39.6111 39.2753ZM42.1745 33.5727C41.7019 34.341 40.6965 34.5836 39.9287 34.1109C34.2992 30.6506 25.7178 29.6485 19.0591 31.6697C18.1956 31.9306 17.2835 31.4439 17.0214 30.5818C16.7613 29.7183 17.2482 28.808 18.1103 28.5454C25.7163 26.2375 35.172 27.3554 41.6368 31.3281C42.4046 31.8008 42.6472 32.8059 42.1745 33.5727ZM42.3946 27.6345C35.6446 23.6253 24.5081 23.2567 18.0635 25.2126C17.0286 25.5265 15.9342 24.9423 15.6206 23.9074C15.307 22.872 15.8907 21.7784 16.9263 21.4638C24.3243 19.218 36.6225 19.6519 44.3938 24.2653C45.3267 24.8178 45.6318 26.0199 45.0791 26.9495C44.5289 27.8804 43.3224 28.1872 42.3946 27.6345Z" fill="white"/>
</g>
<defs>
<clipPath id="clip0_150_772">
<rect width="42" height="42" fill="white" transform="translate(9 9)"/>
</clipPath>
</defs>
</svg>
