<svg width="60" height="60" viewBox="0 0 60 60" fill="none" xmlns="http://www.w3.org/2000/svg">
<rect width="60" height="60" fill="black"/>
<g clip-path="url(#clip0_1985_9543)">
<path d="M19.0909 10H11.8182C10.814 10 10 10.814 10 11.8182V19.0909C10 20.0951 10.814 20.9091 11.8182 20.9091H19.0909C20.0951 20.9091 20.9091 20.0951 20.9091 19.0909V11.8182C20.9091 10.814 20.0951 10 19.0909 10Z" fill="white"/>
<path d="M33.6364 10H26.3637C25.3595 10 24.5455 10.814 24.5455 11.8182V19.0909C24.5455 20.0951 25.3595 20.9091 26.3637 20.9091H33.6364C34.6405 20.9091 35.4546 20.0951 35.4546 19.0909V11.8182C35.4546 10.814 34.6405 10 33.6364 10Z" fill="white"/>
<path d="M48.1818 10H40.9091C39.905 10 39.0909 10.814 39.0909 11.8182V19.0909C39.0909 20.0951 39.905 20.9091 40.9091 20.9091H48.1818C49.186 20.9091 50 20.0951 50 19.0909V11.8182C50 10.814 49.186 10 48.1818 10Z" fill="white"/>
<path d="M19.0909 24.5454H11.8182C10.814 24.5454 10 25.3594 10 26.3636V33.6363C10 34.6405 10.814 35.4545 11.8182 35.4545H19.0909C20.0951 35.4545 20.9091 34.6405 20.9091 33.6363V26.3636C20.9091 25.3594 20.0951 24.5454 19.0909 24.5454Z" fill="white"/>
<path d="M33.6364 24.5454H26.3637C25.3595 24.5454 24.5455 25.3594 24.5455 26.3636V33.6363C24.5455 34.6405 25.3595 35.4545 26.3637 35.4545H33.6364C34.6405 35.4545 35.4546 34.6405 35.4546 33.6363V26.3636C35.4546 25.3594 34.6405 24.5454 33.6364 24.5454Z" fill="white"/>
<path d="M48.1818 24.5454H40.9091C39.905 24.5454 39.0909 25.3594 39.0909 26.3636V33.6363C39.0909 34.6405 39.905 35.4545 40.9091 35.4545H48.1818C49.186 35.4545 50 34.6405 50 33.6363V26.3636C50 25.3594 49.186 24.5454 48.1818 24.5454Z" fill="white"/>
<path d="M19.0909 39.0909H11.8182C10.814 39.0909 10 39.905 10 40.9091V48.1819C10 49.186 10.814 50 11.8182 50H19.0909C20.0951 50 20.9091 49.186 20.9091 48.1819V40.9091C20.9091 39.905 20.0951 39.0909 19.0909 39.0909Z" fill="white"/>
<path d="M33.6364 39.0909H26.3637C25.3595 39.0909 24.5455 39.905 24.5455 40.9091V48.1819C24.5455 49.186 25.3595 50 26.3637 50H33.6364C34.6405 50 35.4546 49.186 35.4546 48.1819V40.9091C35.4546 39.905 34.6405 39.0909 33.6364 39.0909Z" fill="white"/>
<path d="M48.1818 39.0909H40.9091C39.905 39.0909 39.0909 39.905 39.0909 40.9091V48.1819C39.0909 49.186 39.905 50 40.9091 50H48.1818C49.186 50 50 49.186 50 48.1819V40.9091C50 39.905 49.186 39.0909 48.1818 39.0909Z" fill="white"/>
</g>
<defs>
<clipPath id="clip0_1985_9543">
<rect width="40" height="40" fill="white" transform="translate(10 10)"/>
</clipPath>
</defs>
</svg>
