<svg width="60" height="60" viewBox="0 0 60 60" fill="none" xmlns="http://www.w3.org/2000/svg">
<rect width="60" height="60" fill="#E87322"/>
<g clip-path="url(#clip0_168_570)">
<path d="M31.2399 44.9153C36.332 44.9153 40.4608 40.8475 40.4608 35.8305C40.4608 30.8136 36.332 26.7458 31.2399 26.7458V21.661C39.2221 21.661 45.6905 27.9661 45.6905 35.8305C45.6905 43.6271 39.2221 50 31.2399 50V44.9153ZM31.2399 10C23.1888 10 16.7205 16.3729 16.7205 24.1695C16.7205 32.0339 23.1888 38.339 31.2399 38.339V33.2542C26.079 33.2542 21.9502 29.1864 21.9502 24.1695C21.9502 19.1525 26.079 15.0847 31.2399 15.0847V10Z" fill="black"/>
</g>
<defs>
<clipPath id="clip0_168_570">
<rect width="30" height="40" fill="white" transform="translate(16 10)"/>
</clipPath>
</defs>
</svg>
