<svg width="60" height="60" viewBox="0 0 60 60" fill="none" xmlns="http://www.w3.org/2000/svg">
<rect width="60" height="60" fill="black"/>
<g clip-path="url(#clip0_168_313)">
<path d="M12.5616 31.4973C12.3822 31.3669 11.8292 31.2409 11.3383 31.0843C10.8466 30.9259 10.4581 30.7693 10.172 30.6171C9.39062 30.1989 9.00037 29.6354 9.00037 28.9284C9.00037 28.5592 9.1045 28.2319 9.31187 27.945C9.52274 27.6553 9.82374 27.4287 10.214 27.2669C10.6077 27.1041 11.2613 27 11.7487 27C12.2405 27 12.678 27.0892 13.0612 27.2669C13.4462 27.4419 13.7437 27.6895 13.9546 28.0106C14.1689 28.3317 14.2503 28.6965 14.2503 29.1052H12.5003C12.5003 28.4769 12.1188 28.1077 11.4906 28.1077C11.0076 28.1077 10.417 28.3798 10.417 28.9328C10.417 29.1542 10.529 29.3396 10.7521 29.4893C10.9796 29.6389 11.5238 29.7561 11.9613 29.8865C12.7672 30.1271 13.3543 30.4246 13.7236 30.7807C14.0911 31.1359 14.2757 31.5787 14.2757 32.1098C14.2757 32.6986 14.0508 33.1623 13.6002 33.4992C13.1505 33.8326 12.5441 33.9997 11.782 33.9997C11.2855 34.0063 10.7932 33.9092 10.3365 33.7144C9.90249 33.5211 9.56999 33.2568 9.34074 32.9235C9.11125 32.5807 8.99244 32.1757 9.00037 31.7633H10.7504C10.7521 32.2515 10.8755 32.8911 11.7828 32.8911C12.4933 32.8911 13.3543 32.0931 12.5703 31.5104L12.5616 31.4973ZM16.8753 33.9997H15.1253V27H16.8753V33.9997ZM20.3753 27L21.6877 31.3748L23.0002 27H25.6252V33.9997H23.877V28.7499L22.1252 33.9997H21.2502L19.5003 28.7499V33.9997H17.7503V27H20.3753ZM28.2502 31.3748V33.9997H26.5002V27H29.2188C29.735 27 30.1883 27.0936 30.5785 27.28C30.9723 27.4681 31.2741 27.8286 31.4859 28.1742C31.6959 28.5172 31.7501 28.9092 31.7501 29.3493C31.7501 30.016 31.5401 30.464 31.0773 30.8507C30.6179 31.2339 30.0098 31.3748 29.1952 31.3748H28.2502ZM28.2502 30.4998C29.2293 30.4998 30.0115 30.4998 30.0002 29.1918C29.9888 27.8828 29.1444 27.875 28.2502 27.875V30.4998ZM35.7243 31.5104C35.5362 31.3669 35.1224 31.2173 34.6306 31.0616C34.1406 30.9023 33.7512 30.7466 33.4642 30.5935C32.6838 30.1752 32.2883 29.6126 32.2883 28.9048C32.2883 28.5364 32.3968 28.2083 32.605 27.9222C32.8159 27.6317 33.1169 27.406 33.5062 27.2432C33.9 27.0814 34.341 27 34.8292 27C35.3201 27 35.832 27.0892 36.2161 27.2669C36.6002 27.4419 36.9913 27.6895 37.2022 28.0106C37.4166 28.3317 37.5382 28.6965 37.5382 29.1052H35.7873C35.7873 28.5417 35.3674 28.1182 34.8056 28.1182C34.4591 28.1182 34.1905 28.1917 33.998 28.3378C33.9065 28.4019 33.8323 28.4876 33.7819 28.5873C33.7316 28.6869 33.7066 28.7975 33.7092 28.9092C33.7092 29.1305 33.8221 29.316 34.0452 29.4656C34.2727 29.6153 34.6044 29.7561 35.0419 29.8865C35.8477 30.1271 36.4873 30.3362 36.8557 30.6915C37.2232 31.0476 37.5382 31.492 37.5382 32.0809C37.5382 32.6706 37.2048 33.1623 36.7542 33.4983C36.3045 33.8326 35.8547 33.9997 35.0917 33.9997C34.5959 34.0061 34.1042 33.9089 33.648 33.7144C33.2131 33.5211 32.8806 33.2568 32.6505 32.9235C32.4142 32.5827 32.2878 32.1779 32.2883 31.7633H34.0382C34.0382 32.5149 34.1861 32.8911 35.0926 32.8911C35.804 32.8911 36.3928 32.0074 35.7243 31.5104ZM44.105 30.6547C44.105 31.3249 43.986 31.9129 43.7463 32.4178C43.5266 32.901 43.1685 33.3081 42.7173 33.5876C42.2728 33.8623 41.7635 33.9997 41.1869 33.9997C40.6173 33.9997 40.1089 33.8641 39.6618 33.5928C39.2095 33.3159 38.8481 32.9126 38.6223 32.4326C38.3773 31.9269 38.2522 31.3468 38.2496 30.6915V30.3546C38.2496 29.6844 38.3703 29.0947 38.6127 28.5863C38.8586 28.0745 39.2033 27.6833 39.6469 27.4121C40.0941 27.1374 40.6042 27 41.1782 27C41.7504 27 42.2588 27.1374 42.7033 27.4112C43.1495 27.6825 43.4943 28.0745 43.7375 28.5863C43.9825 29.0938 44.105 29.6826 44.105 30.3502V30.6547ZM42.3463 30.492C42.3393 29.3834 41.9464 28.4227 41.1773 28.4104C40.4091 28.3982 39.9068 29.0719 39.8998 30.4928C39.8998 31.5262 40.2218 32.6102 41.1869 32.6225C42.152 32.6347 42.3515 31.6014 42.3454 30.4928L42.3463 30.492ZM50.9999 33.9997H49.25L46.625 29.6249V33.9997H44.875V27H46.625L49.25 31.3748V27H50.9999V33.9997Z" fill="#FEFEFD"/>
</g>
<defs>
<clipPath id="clip0_168_313">
<rect width="42" height="7" fill="white" transform="translate(9 27)"/>
</clipPath>
</defs>
</svg>
