<svg width="60" height="60" viewBox="0 0 60 60" fill="none" xmlns="http://www.w3.org/2000/svg">
<g clip-path="url(#clip0_150_1067)">
<rect width="60" height="60" fill="white"/>
<rect width="60" height="60" fill="#4CD2FF"/>
<g clip-path="url(#clip1_150_1067)">
<path d="M50.6838 19L20.4672 19.0019L20.4691 19.0039C18.177 19.0039 16.2067 20.3822 15.3508 22.348L9.38615 36.7965C9.37072 36.8333 9.36108 36.874 9.36108 36.9186C9.36108 37.0912 9.50374 37.2327 9.67725 37.2327H23.3204C24.2901 37.2327 24.7123 36.2944 23.9566 35.5441L18.9462 30.8294C16.3128 28.2336 17.4425 22.2142 22.9117 22.2142H49.6215C49.7603 22.2142 49.8779 22.125 49.9203 22.0029L50.9768 19.4342C50.9922 19.3974 50.9999 19.3567 50.9999 19.3141C50.9999 19.1396 50.8592 19 50.6838 19Z" fill="#03234B"/>
<path d="M47.6745 26.3533L42.5446 26.3591C42.1995 26.3591 41.9007 26.5685 41.7773 26.8689L36.0305 40.8328C36.0074 40.8754 35.9939 40.9258 35.9939 40.9782C35.9939 41.1507 36.1366 41.2903 36.3101 41.2903H38.2244V41.2884C40.5493 41.2884 42.5562 39.8732 43.3928 37.8628C43.3928 37.8628 43.3967 37.8648 43.3986 37.8667L47.9656 26.7798C47.9791 26.7429 47.9887 26.7042 47.9887 26.6635C47.9887 26.4929 47.848 26.3533 47.6745 26.3533Z" fill="#03234B"/>
<path d="M37.592 26.6673C37.592 26.4929 37.4494 26.3533 37.2759 26.3533H22.7344C21.9459 26.3533 21.2557 27.3284 22.0905 28.1019L26.8946 32.5975C26.8946 32.5975 28.8398 34.4005 28.4233 36.9808C28.0551 39.2528 26.5148 40.6428 25.3986 41.143H25.3948C25.3678 41.1565 25.3504 41.1837 25.3504 41.2128C25.3504 41.2554 25.3851 41.2922 25.4295 41.2922H31.0336C31.3806 41.2922 31.6775 41.0829 31.8009 40.7824L37.5689 26.7778C37.5843 26.7429 37.592 26.7061 37.592 26.6673Z" fill="#03234B"/>
</g>
</g>
<defs>
<clipPath id="clip0_150_1067">
<rect width="60" height="60" fill="white"/>
</clipPath>
<clipPath id="clip1_150_1067">
<rect width="42" height="23" fill="white" transform="translate(9 19)"/>
</clipPath>
</defs>
</svg>
