<svg width="60" height="60" viewBox="0 0 60 60" fill="none" xmlns="http://www.w3.org/2000/svg">
<rect width="60" height="60" fill="#001AFF"/>
<path d="M48.5595 11.2585C41.0389 11.2585 34.8484 13.4919 28.9722 15.5311C23.1444 17.5704 17.7033 19.5126 11.1259 19.5126V24.7321C18.6464 24.7321 24.8613 22.4982 30.6649 20.459C36.5411 18.4198 41.982 16.478 48.5595 16.478V11.2585ZM11.1259 27.3537V32.622H45.8267H48.5595V27.3537H11.1259ZM48.5595 35.2436C41.0389 35.2436 34.8484 37.4769 28.9722 39.5162C23.1444 41.5554 17.7033 43.4976 11.1259 43.4976V48.7171C18.6464 48.7171 24.8371 46.4838 30.6649 44.4445C36.5411 42.4053 41.982 40.4631 48.5595 40.4631V35.2436Z" fill="white"/>
</svg>
