<svg width="60" height="60" viewBox="0 0 60 60" fill="none" xmlns="http://www.w3.org/2000/svg">
<rect width="60" height="60" fill="#0180C4"/>
<g clip-path="url(#clip0_150_731)">
<path d="M17.0231 24.2455C16.2023 23.9096 15.0698 23.6617 14.1454 23.6617C13.2416 23.6617 12.0721 24.0466 12.0721 25.4384C12.0721 27.6559 17.8395 26.7219 17.8395 31.0106C17.8395 33.8136 15.5589 34.8771 12.9014 34.8771C11.469 34.8771 10.6226 34.6927 9.32126 34.3821V32.0724C10.2259 32.5496 11.714 32.8618 12.7515 32.8618C13.7504 32.8618 15.0878 32.3668 15.0878 31.2119C15.0878 28.7753 9.32126 29.7821 9.32126 25.5492C9.32126 22.6896 11.6018 21.6455 13.9192 21.6455C15.0501 21.6455 16.0695 21.7919 17.0316 22.1032V24.2582L17.0231 24.2455ZM32.4523 27.4529C31.7027 27.2033 30.7252 27.0612 29.8282 27.0612C29.1703 27.0612 28.383 27.2921 28.383 28.0756C28.383 29.5342 32.6468 28.6095 32.6468 31.9184C32.6468 34.0539 30.6892 34.9076 28.694 34.9076C27.6505 34.8937 26.6121 34.7625 25.5987 34.5167V32.5589C26.3671 32.9328 27.6325 33.1647 28.4746 33.1647C29.0966 33.1647 30.0852 32.9328 30.0852 32.0428C30.0852 30.2457 25.8214 31.4734 25.8214 28.1644C25.8214 26.1897 27.5948 25.3174 29.5172 25.3174C30.6704 25.3174 31.683 25.4951 32.4523 25.6558V27.4529ZM40.1627 27.5062C39.724 27.3099 39.0044 27.1678 38.2548 27.1678C36.735 27.1678 35.7661 28.3421 35.7661 30.0681C35.7661 31.7585 36.5885 33.0572 38.3088 33.0572C39.0053 33.0572 39.742 32.8085 40.1627 32.63V34.6047C39.449 34.8179 38.8579 34.9076 37.8521 34.9076C34.7594 34.9076 33.2037 32.8618 33.2037 30.0681C33.2037 27.4174 34.8143 25.3174 37.7605 25.3174C38.7483 25.3174 39.485 25.424 40.1627 25.6203V27.5062ZM45.5034 33.0572C47.3881 33.0572 47.8816 31.4209 47.8816 29.8904C47.8816 28.4851 47.114 27.1686 45.5034 27.1686C43.9116 27.1686 43.1432 28.5206 43.1432 29.8904C43.1432 31.4023 43.6366 33.0572 45.5034 33.0572ZM45.5034 25.3183C48.3022 25.3183 50.4431 27.15 50.4431 30.1747C50.4431 32.8076 48.6321 34.9076 45.5034 34.9076C42.3935 34.9076 40.5807 32.8076 40.5807 30.1747C40.5807 27.15 42.7225 25.3183 45.5034 25.3183ZM26.0956 25.5899H23.6068L18.8136 38.2808H21.0624L26.0973 25.5899H26.0956Z" fill="#FEFEFD"/>
<path d="M15.9153 25.1677C16.9631 26.2202 17.9988 27.4868 18.7502 28.9725C19.4218 30.3025 19.7611 31.5978 20.0035 32.9033C20.0138 32.949 20.0447 32.9456 20.0626 32.9101C20.9562 31.3677 21.5036 29.2677 20.7035 27.6856C19.8647 26.0248 17.8506 25.2616 15.9573 25.1077C15.8913 25.1043 15.8802 25.1381 15.923 25.1804L15.9153 25.1677Z" fill="#7BEB31"/>
</g>
<defs>
<clipPath id="clip0_150_731">
<rect width="42" height="18" fill="white" transform="translate(9 21)"/>
</clipPath>
</defs>
</svg>
