<svg width="60" height="60" viewBox="0 0 60 60" fill="none" xmlns="http://www.w3.org/2000/svg">
<rect width="60" height="60" fill="#037FBA"/>
<g clip-path="url(#clip0_1403_9048)">
<path d="M26.4105 36.5068V50.3909C26.4105 50.4355 26.4195 50.4796 26.437 50.5207C26.4545 50.5617 26.4801 50.5988 26.5123 50.6298C26.5445 50.6608 26.5827 50.6851 26.6245 50.7011C26.6664 50.7171 26.711 50.7246 26.7558 50.7231H32.7706C32.8145 50.7231 32.8579 50.7146 32.8985 50.6979C32.939 50.6812 32.9758 50.6567 33.0069 50.6258C33.0379 50.595 33.0625 50.5584 33.0793 50.5181C33.0961 50.4777 33.1047 50.4345 33.1047 50.3909V36.4858C33.1045 36.4193 33.1244 36.3544 33.1617 36.2992C33.1991 36.2441 33.2522 36.2014 33.3142 36.1766C33.3762 36.1518 33.4442 36.1461 33.5095 36.1601C33.5749 36.1742 33.6344 36.2074 33.6806 36.2554L41.923 44.8249C41.9611 44.8645 42.0085 44.8941 42.0609 44.9111C42.1132 44.9281 42.1691 44.9319 42.2233 44.9222C42.2775 44.9126 42.3286 44.8898 42.3718 44.8558C42.415 44.8218 42.4491 44.7777 42.471 44.7274L44.5918 39.8779C44.6204 39.8119 44.6268 39.7385 44.61 39.6686C44.5931 39.5987 44.5539 39.5361 44.4982 39.4903L40.0105 35.8058C39.7176 35.5655 39.9905 35.1037 40.3447 35.241L45.582 37.2577C45.6327 37.2773 45.6874 37.2844 45.7415 37.2782C45.7955 37.272 45.8473 37.2529 45.8922 37.2223C45.937 37.1917 45.9738 37.1507 45.9991 37.1029C46.0244 37.055 46.0376 37.0017 46.0375 36.9476V35.4005C46.0374 35.3445 46.023 35.2895 45.9958 35.2405C45.9685 35.1915 45.9292 35.1502 45.8816 35.1203L32.1468 26.4578C32.0992 26.4277 32.0601 26.3862 32.033 26.337C32.006 26.2878 31.9918 26.2326 31.992 26.1765V19.0844C31.9921 19.0309 32.0051 18.9782 32.0301 18.9308C32.0551 18.8834 32.0912 18.8427 32.1354 18.8121C32.1795 18.7816 32.2305 18.7621 32.2839 18.7553C32.3373 18.7485 32.3915 18.7547 32.442 18.7732L39.6998 21.4455C40.0306 21.5673 40.3013 21.1631 40.0607 20.9073L31.7024 11.9669C31.6999 11.9639 31.698 11.9606 31.6968 11.9569L31.2624 10.7465C31.1541 10.4445 30.9545 10.1832 30.691 9.99847C30.4275 9.81372 30.1129 9.71455 29.7905 9.71455C29.4681 9.71455 29.1535 9.81372 28.89 9.99847C28.6264 10.1832 28.4269 10.4445 28.3186 10.7465L27.8842 11.9569C27.883 11.9606 27.8811 11.9639 27.8786 11.9669L19.8021 20.8995C19.5682 21.1587 19.8433 21.5563 20.1708 21.4311L27.0822 18.781C27.1328 18.7616 27.1875 18.7547 27.2414 18.761C27.2953 18.7673 27.3468 18.7865 27.3916 18.817C27.4363 18.8476 27.4729 18.8885 27.4982 18.9362C27.5235 18.984 27.5367 19.0371 27.5366 19.0911V26.1765C27.5367 26.2327 27.5224 26.288 27.4951 26.3372C27.4679 26.3864 27.4285 26.4279 27.3807 26.4578L13.6459 35.1214C13.5983 35.1513 13.559 35.1926 13.5318 35.2416C13.5045 35.2906 13.4901 35.3456 13.49 35.4016V36.9609C13.4899 37.0144 13.5029 37.067 13.5277 37.1145C13.5525 37.1619 13.5885 37.2027 13.6326 37.2333C13.6766 37.264 13.7275 37.2836 13.7808 37.2906C13.8341 37.2975 13.8884 37.2915 13.9389 37.2732L19.7966 35.1657C20.1508 35.0383 20.4136 35.499 20.1207 35.7349L15.4838 39.4881C15.4264 39.5342 15.3861 39.5979 15.369 39.6692C15.3518 39.7405 15.3589 39.8154 15.3891 39.8823L17.5845 44.7219C17.6073 44.7722 17.6423 44.8161 17.6864 44.8495C17.7306 44.883 17.7824 44.905 17.8372 44.9136C17.892 44.9222 17.9481 44.917 18.0005 44.8986C18.0528 44.8802 18.0997 44.8492 18.1369 44.8083L25.8403 36.3008C25.8854 36.2509 25.9447 36.2158 26.0104 36.2001C26.076 36.1844 26.1449 36.1888 26.208 36.2128C26.2711 36.2367 26.3254 36.2792 26.3637 36.3344C26.402 36.3897 26.4226 36.4552 26.4228 36.5223L26.4105 36.5068Z" fill="#FEFEFD"/>
<path d="M26.4107 25.0226V21.5751C26.4091 21.5132 26.3901 21.4529 26.3559 21.4012C26.3217 21.3494 26.2736 21.3082 26.2171 21.2821C26.1606 21.2561 26.0979 21.2463 26.036 21.2539C25.9742 21.2614 25.9157 21.286 25.8672 21.3248L18.2752 27.9651C17.9901 28.2131 18.2752 28.6672 18.625 28.521L26.2169 25.3448C26.2775 25.3196 26.3293 25.2771 26.3657 25.2227C26.4022 25.1684 26.4217 25.1045 26.4219 25.0392L26.4107 25.0226ZM33.4168 25.0392V21.5729C33.4171 21.5092 33.4357 21.447 33.4705 21.3936C33.5053 21.3402 33.5548 21.2978 33.6131 21.2716C33.6714 21.2453 33.7361 21.2363 33.7994 21.2455C33.8628 21.2548 33.9221 21.2819 33.9704 21.3237L41.5868 27.9662C41.872 28.2142 41.5868 28.6672 41.2371 28.5221L33.6206 25.3448C33.5602 25.3194 33.5087 25.2769 33.4724 25.2225C33.4362 25.1682 33.4168 25.1044 33.4168 25.0392Z" fill="#FEC602"/>
</g>
<defs>
<clipPath id="clip0_1403_9048">
<rect width="34" height="42" fill="white" transform="translate(13 9)"/>
</clipPath>
</defs>
</svg>
