<svg width="60" height="60" viewBox="0 0 60 60" fill="none" xmlns="http://www.w3.org/2000/svg">
<rect width="60" height="60" fill="url(#paint0_linear_168_667)"/>
<g clip-path="url(#clip0_168_667)">
<path d="M16.9166 25.9978V38.1401H13.7474V25.9978H9.66345V23.3281H21.4334L20.4774 25.9978H16.9166ZM28.0666 37.6102C27.2138 38.0104 26.0449 38.4489 24.0047 38.4489C20.4325 38.4489 18.5354 35.9173 18.5354 32.7397C18.5354 29.3886 20.6781 26.9002 23.8011 26.9002C27.0158 26.9002 28.735 29.1655 28.735 32.7185C28.735 33.1853 28.6894 33.4962 28.6894 33.6514H21.459C21.4142 34.4504 22.0841 36.1164 24.2716 36.1164C26.2478 36.1164 27.4907 35.3932 27.9612 35.1042L28.0666 37.6102ZM23.868 29.1216C22.5076 29.1216 21.6591 30.1416 21.4363 31.4987H25.9459C25.9459 30.8967 25.7217 29.1216 23.868 29.1216ZM50.1052 38.1379L45.1955 32.008L50.0596 27.2119H46.5779L42.5836 31.209V22.6602H39.5724V38.1379H42.5836V33.0075L46.533 38.1379H50.1052ZM38.2598 35.3096C38.0554 35.4272 36.9734 35.9839 35.655 35.9839C33.6454 35.9839 32.6631 34.5162 32.6631 32.6073C32.6631 31.0532 33.7344 29.3206 35.7419 29.3206C36.9926 29.3206 37.9074 29.8547 38.064 29.9652L38.2377 27.5101C37.5963 27.1935 36.6709 26.8995 35.4742 26.8995C32.1719 26.8995 29.6505 29.3638 29.6505 32.7624C29.6505 36.0037 31.8373 38.4475 35.2742 38.4475C36.6011 38.4475 37.649 38.1039 38.3658 37.7611L38.2598 35.3096Z" fill="white"/>
</g>
<defs>
<linearGradient id="paint0_linear_168_667" x1="0.500001" y1="0.499999" x2="59" y2="60" gradientUnits="userSpaceOnUse">
<stop stop-color="#FC8B3D"/>
<stop offset="1" stop-color="#A42F0C"/>
</linearGradient>
<clipPath id="clip0_168_667">
<rect width="42" height="17" fill="white" transform="translate(9 22)"/>
</clipPath>
</defs>
</svg>
