<svg width="60" height="60" viewBox="0 0 60 60" fill="none" xmlns="http://www.w3.org/2000/svg">
<g clip-path="url(#clip0_150_836)">
<rect width="60" height="60" fill="#3F6643"/>
<path d="M14.0389 14.0378H46.4865V46.4865H14.0498L14.0389 14.0378Z" stroke="#F5F7FB" stroke-width="2"/>
<path d="M14.4638 28.2043L20.5406 19.4594L27.0271 28.1124H28.1135L23.7838 21.6216L29.2152 14.5557L38.9189 28.1124C33.0271 29.0303 21.0433 32.0767 20.8303 37.9957C20.7416 39.6519 21.6173 42.9849 24.8649 44.3243H36.1784C34.3806 43.2076 30.7006 40.6313 29.8033 37.9957C28.6811 34.7016 30.3373 31.893 33.3276 30.2724C36.3189 28.653 40.6141 28.4367 42.1622 28.1124C38.9189 29 32.6692 31.5881 32.0995 33.5676C31.6898 34.9892 31.9157 38.3611 35.1438 40.7503C38.4703 43.2119 40.0044 43.9535 40.6281 44.3243H45.8789V40.7503C43.6887 39.6346 39.2562 36.6346 39.0422 33.5676C38.7752 29.733 45.7189 28.2205 46.1449 28.2205L45.8789 40.7503V46.4216H14.4735V28.2205L14.4638 28.2043Z" fill="#F5F7FB"/>
<path d="M44.3135 20.5243C44.3401 20.9651 44.2763 21.4068 44.1261 21.8221C43.976 22.2375 43.7426 22.6178 43.4402 22.9397C43.1378 23.2616 42.7729 23.5184 42.3678 23.6943C41.9627 23.8702 41.5259 23.9615 41.0843 23.9626C40.6426 23.9637 40.2054 23.8746 39.7994 23.7007C39.3934 23.5269 39.0272 23.2719 38.7232 22.9515C38.4192 22.6311 38.1839 22.252 38.0317 21.8374C37.8794 21.4228 37.8135 20.9815 37.8378 20.5405C37.8378 19.6803 38.1795 18.8554 38.7877 18.2472C39.396 17.6389 40.2209 17.2972 41.0811 17.2972C41.9412 17.2972 42.7662 17.6389 43.3744 18.2472C43.9826 18.8554 44.3243 19.6803 44.3243 20.5405L44.3135 20.5243Z" fill="#F5F7FB"/>
</g>
<defs>
<clipPath id="clip0_150_836">
<rect width="60" height="60" fill="white"/>
</clipPath>
</defs>
</svg>
