<svg width="60" height="60" viewBox="0 0 60 60" fill="none" xmlns="http://www.w3.org/2000/svg">
<rect width="60" height="60" fill="white"/>
<path d="M21.2592 12.5596C23.8898 11.1558 26.8034 10.3947 29.7669 10.3609C29.8668 10.3271 29.9334 10.3947 30 10.4455C29.9167 10.547 29.8502 10.6484 29.7836 10.7668C28.3684 13.3038 26.9199 15.8239 25.4881 18.3609C27.0198 21.0332 28.5182 23.7224 30.0333 26.3947C27.0032 26.3778 23.973 26.3947 20.9429 26.3947C18.5954 30.5385 16.2479 34.6992 13.9004 38.8429C9.87129 31.9085 10.6372 23.1305 15.7817 17.0078C17.3301 15.1812 19.1781 13.6759 21.2592 12.5596Z" fill="#5DA2F4"/>
<path d="M30.0166 10.4624C30.0499 10.4286 30.0832 10.3947 30.1165 10.3609C31.4484 10.3778 32.7803 10.53 34.079 10.8176C41.005 12.3736 46.4492 17.7858 48.1474 24.788C49.2962 29.5068 48.5803 34.6823 46.0996 38.8429C40.8718 29.5913 35.6273 20.3228 30.3829 11.0713C30.2663 10.8514 30.1498 10.6484 30.0166 10.4624Z" fill="#0051CE"/>
<path d="M29.95 26.4793C29.9833 26.3778 30.0999 26.4793 30.1165 26.53C33.3631 32.2805 36.6096 38.0311 39.8728 43.7816C40.0726 44.1537 40.3057 44.5258 40.5055 44.9148C34.1622 49.2615 25.871 49.2615 19.5277 44.9148C23.0074 38.7583 26.4704 32.6019 29.95 26.4793Z" fill="#00CF86"/>
</svg>
