<svg width="60" height="60" viewBox="0 0 60 60" fill="none" xmlns="http://www.w3.org/2000/svg">
<rect width="60" height="60" fill="#D31245"/>
<g clip-path="url(#clip0_1403_8928)">
<path d="M28.7495 21.99C29.3634 22.1526 30.0837 21.6217 30.3602 20.8037C30.6341 19.9882 30.3551 19.1981 29.7362 19.0406C29.1224 18.878 28.402 19.4064 28.1306 20.2219C27.8592 21.0399 28.1332 21.8325 28.7495 21.99ZM47.8161 21.99C48.4325 22.1526 49.1503 21.6217 49.4268 20.8037C49.7007 19.9882 49.4268 19.1981 48.8079 19.0406C48.1941 18.878 47.4712 19.4064 47.2023 20.2219C46.9258 21.0399 47.2023 21.8325 47.8161 21.99ZM38.2816 21.99C38.9005 22.1526 39.6157 21.6217 39.8922 20.8037C40.1636 19.9882 39.8871 19.1981 39.2733 19.0406C38.6595 18.878 37.9366 19.4064 37.6627 20.2219C37.3913 21.0399 37.6652 21.8325 38.2816 21.99ZM47.8212 22.7674C46.7736 22.3381 46.1268 22.5997 45.3431 23.2704L42.8751 25.4984C42.2207 26.0649 41.3608 26.8041 40.4401 27.5764C40.5086 26.5221 40.6227 23.7277 38.2892 22.7674C37.2365 22.3381 36.5897 22.5997 35.811 23.2704L33.3431 25.4984C32.7216 26.042 30.9182 27.5612 30.9081 27.5764C30.9816 26.5221 31.0882 23.7277 28.7571 22.7674C27.7071 22.3381 27.0628 22.5997 26.279 23.2704L23.811 25.4984C23.1845 26.0445 21.376 27.5764 21.376 27.5764H21.371C21.4445 26.5221 21.5536 23.7277 19.2175 22.7674C18.17 22.3381 17.5232 22.5997 16.7394 23.2704L14.2714 25.4984C13.7185 25.976 13.0159 26.5806 12.2549 27.2208L10.9867 28.336C10.9182 28.3944 10.9284 28.5291 11.0577 28.5341H13.3684C13.4674 28.5977 13.5409 28.6993 13.5409 28.8796C13.5409 28.8796 13.5764 29.0778 13.3456 29.497L13.3405 29.502C13.2264 29.7332 13.0767 30.0406 12.9956 30.2159C12.8485 30.5258 12.6405 30.978 12.4097 31.5039L12.3919 31.5445C11.9759 32.5048 11.4965 33.7014 11.2048 34.7633C11.2048 34.7633 10.0152 38.9321 10.0127 40.5275C10.0127 40.5275 9.98226 40.9568 10.2613 40.9746C10.5834 41.0203 10.6849 40.6494 10.6849 40.6494C10.6849 40.6494 11.2708 38.6806 12.4477 36.8311C12.4477 36.8311 14.2334 33.9097 15.428 32.7563L15.8973 34.6464C15.9708 34.9538 16.1408 35.6372 15.8821 36.666C15.8821 36.666 15.3849 38.7771 14.6772 40.3725C14.6772 40.3725 14.5301 40.6494 14.8168 40.779C14.903 40.8247 15.1161 40.8552 15.4027 40.4589C15.4027 40.4589 16.884 38.5739 17.896 36.976C17.896 36.976 18.87 35.6194 18.8218 34.4711C18.8218 34.4711 18.7838 33.2873 18.5428 31.5725C18.5428 31.5725 18.4946 31.2829 18.4946 30.9145C18.4946 30.7951 18.5048 30.6681 18.5048 30.5335C18.5048 29.2201 19.4407 28.6485 21.371 28.4833H21.376C21.7032 28.4554 22.0609 28.4402 22.449 28.4325C22.5555 28.4275 23.0882 28.369 23.0882 28.8517C23.0882 28.8517 23.1084 29.0753 22.8802 29.4944L22.8776 29.497C22.761 29.7281 22.6088 30.0381 22.5276 30.2134C22.3805 30.5233 22.1725 30.9729 21.9417 31.4988L21.9366 31.5039C21.5181 32.4693 21.0336 33.6836 20.7369 34.7607C20.7369 34.7607 19.5523 38.9295 19.5447 40.5249C19.5447 40.5249 19.5168 40.9542 19.7933 40.972C20.118 41.0152 20.2194 40.6443 20.2194 40.6443C20.2194 40.6443 20.8992 38.5663 22.0786 36.7168C22.0786 36.7168 23.7984 33.8106 24.9626 32.7512L25.4344 34.6439C25.5079 34.9487 25.6779 35.6346 25.4166 36.6609C25.4166 36.6609 24.9169 38.7746 24.2118 40.3699C24.2118 40.3699 24.0647 40.6443 24.3513 40.7764C24.4376 40.8196 24.6506 40.8501 24.9372 40.4563C24.9372 40.4563 26.4185 38.5713 27.4331 36.9709C27.4331 36.9709 28.4071 35.6168 28.3589 34.4686C28.3589 34.4686 28.3234 33.2847 28.0774 31.5674C28.0774 31.5674 28.0292 31.2803 28.0292 30.912C28.0292 30.912 28.0292 30.6605 28.0393 30.5258C28.1459 29.2201 28.9753 28.6408 30.9081 28.4757C31.2353 28.4503 31.5954 28.4325 31.981 28.4249C32.0875 28.4224 32.6202 28.3639 32.6227 28.8441C32.6227 28.8441 32.6481 29.0676 32.4173 29.4868L32.4122 29.4919C32.298 29.7205 32.1484 30.0305 32.0672 30.2057C31.9201 30.5157 31.7071 30.9679 31.4813 31.4937L31.4762 31.4963C31.0577 32.4616 30.5733 33.676 30.2765 34.7531C30.2765 34.7531 29.092 38.9219 29.0818 40.5173C29.0818 40.5173 29.0539 40.9466 29.3279 40.9644C29.6525 41.0101 29.754 40.6367 29.754 40.6367C29.754 40.6367 30.4363 38.5434 31.6107 36.6889C31.6107 36.6889 33.2898 33.9071 34.4946 32.7436L34.9664 34.6362C35.04 34.9436 35.2099 35.627 34.9487 36.6559C34.9487 36.6559 34.449 38.7669 33.7464 40.3623C33.7464 40.3623 33.5967 40.6367 33.8859 40.7688C33.9746 40.8145 34.1852 40.845 34.4743 40.4487C34.4743 40.4487 35.9556 38.5637 36.9677 36.9658C36.9677 36.9658 37.9391 35.6092 37.8935 34.4609C37.8935 34.4609 37.858 33.2771 37.6094 31.5623C37.6094 31.5623 37.5612 31.2727 37.5612 30.9044C37.5587 30.785 37.5612 30.6529 37.5714 30.5233C37.5714 29.2099 38.5073 28.6383 40.4401 28.4732C40.7673 28.4452 41.1275 28.4275 41.513 28.4224C41.617 28.4224 42.1471 28.3589 42.1522 28.8441C42.1522 28.8441 42.1852 29.0473 41.9569 29.4665L41.9518 29.4716C41.8377 29.7002 41.683 30.0101 41.6018 30.1829L41.5993 30.1854C41.1807 31.0669 40.2651 33.079 39.8009 34.7556C39.8009 34.7556 38.6164 38.9244 38.6062 40.5198C38.6062 40.5198 38.5758 40.9517 38.8548 40.9669C39.1795 41.0127 39.2759 40.6418 39.2759 40.6418C39.2759 40.6418 39.948 38.5637 41.1275 36.7143C41.1275 36.7143 42.6164 34.2247 44.019 32.7487L44.4908 34.6388C44.5644 34.9462 44.7318 35.6295 44.4781 36.6584C44.4781 36.6584 43.9785 38.7695 43.2733 40.3674C43.2733 40.3674 43.1262 40.6418 43.4128 40.7713C43.4991 40.8171 43.7096 40.8475 43.9962 40.4512C43.9962 40.4512 45.4775 38.5663 46.4921 36.9683C46.4921 36.9683 47.4636 35.6143 47.4179 34.4635C47.4179 34.4635 47.3798 33.2822 47.1389 31.5649C47.1389 31.5649 47.0628 31.1152 47.1008 30.6148C47.144 29.591 47.7375 29.2302 48.1661 29.1032C48.2473 29.0778 48.3209 29.0651 48.3868 29.0499C48.3868 29.0499 48.6379 29.0143 48.785 28.9914C48.9372 28.9609 49.1478 28.9127 49.2974 28.8644C49.3786 28.8339 49.4623 28.7806 49.5384 28.7069C49.7337 28.5189 49.9087 28.1937 49.9544 27.7263L49.9569 27.6755C50.0305 26.7305 50.2384 23.7607 47.8212 22.7674ZM19.2124 21.99C19.8288 22.1526 20.5517 21.6217 20.8231 20.8037C21.0996 19.9882 20.8206 19.1981 20.2042 19.0406C19.5904 18.878 18.8675 19.4064 18.5961 20.2219C18.3221 21.0399 18.5961 21.8325 19.2124 21.99Z" fill="white"/>
</g>
<defs>
<clipPath id="clip0_1403_8928">
<rect width="40" height="22" fill="white" transform="translate(10 19)"/>
</clipPath>
</defs>
</svg>
