<svg width="60" height="60" viewBox="0 0 60 60" fill="none" xmlns="http://www.w3.org/2000/svg">
<rect width="60" height="60" fill="#34E0A1"/>
<g clip-path="url(#clip0_168_544)">
<path d="M30 55.9966C15.6201 55.9966 4 44.3765 4 30C4 15.6201 15.6201 4 30 4C44.3765 4 55.9966 15.6201 55.9966 30C55.9966 44.3765 44.3765 55.9966 30 55.9966Z" fill="#34E0A1"/>
<path fill-rule="evenodd" clip-rule="evenodd" d="M49.1812 32.014C49.1812 37.3103 44.8851 41.6029 39.5889 41.6029C37.0731 41.6029 34.7841 40.6372 33.0726 39.0493L30 42.3934L26.924 39.0459C25.2159 40.6337 22.9235 41.6029 20.4077 41.6029C15.1114 41.6029 10.8188 37.3103 10.8188 32.014C10.8188 29.2096 12.0217 26.68 13.9463 24.9272L10.8085 21.5144H17.7853C21.26 19.1361 25.4565 17.7476 30 17.7476C34.547 17.7476 38.7537 19.1361 42.2387 21.5144H49.195L46.0571 24.9272C47.9818 26.68 49.1847 29.2061 49.1812 32.014ZM26.8999 32.014C26.8999 28.4259 23.9992 25.5252 20.4111 25.5252C16.8196 25.5252 13.9188 28.4259 13.9188 32.014C13.9188 35.6021 16.8196 38.5029 20.4111 38.5029C23.9992 38.5029 26.8999 35.6021 26.8999 32.014ZM37.2037 22.3255C34.9869 21.3975 32.5536 20.882 30 20.882C27.4464 20.882 25.0131 21.3975 22.7963 22.3255C26.8965 23.8893 30.0034 27.5564 30.0034 31.825C30.0034 27.5564 33.107 23.8927 37.2037 22.3255ZM46.0812 32.014C46.0812 28.4259 43.1804 25.5252 39.5923 25.5252C36.0008 25.5252 33.1001 28.4259 33.1001 32.014C33.1001 35.6021 36.0008 38.5029 39.5923 38.5029C43.1804 38.5029 46.0812 35.6021 46.0812 32.014ZM39.5923 35.4131C37.7089 35.4131 36.1898 33.894 36.1898 32.0106C36.1898 30.1306 37.7089 28.6115 39.5923 28.6115C41.4723 28.6115 42.9914 30.1306 42.9914 32.0106C42.9914 33.894 41.4723 35.4131 39.5923 35.4131ZM20.4111 35.4166C18.5277 35.4166 17.0086 33.8975 17.0086 32.014C17.0086 30.1341 18.5277 28.6115 20.4111 28.6115C22.2911 28.6115 23.8102 30.1341 23.8102 32.014C23.8102 33.8975 22.2911 35.4166 20.4111 35.4166Z" fill="black"/>
</g>
<defs>
<clipPath id="clip0_168_544">
<rect width="52" height="52" fill="white" transform="translate(4 4)"/>
</clipPath>
</defs>
</svg>
