<svg width="60" height="60" viewBox="0 0 60 60" fill="none" xmlns="http://www.w3.org/2000/svg">
<rect width="60" height="60" fill="#2FBAD7"/>
<path d="M51.6333 50V49.3667C51.9 44.05 49.8333 40.6333 43.7833 38.6167L50.2 35.1167V3.53333H6.01666V41.4L15.3 40.3C15.3 40.3 13.3667 41.4833 17.6167 47.0333C18.2 47.9333 18.5667 48.9333 18.7167 50" fill="white"/>
<path d="M4.88336 2V50H18.7167C18.5667 48.95 18.2 47.9333 17.6167 47.0333C15.3334 44.4167 15.8667 40.7167 16.35 41.2667C16.8334 41.95 17.5667 42.4167 18.3834 42.6C17.35 40.6667 16.7167 38.55 16.5167 36.3667C16.5167 27.35 19.8667 23.9667 19.8667 23.9667C19.8667 23.9667 20.1334 20.3333 19.6667 20.2333C18.6 20.0167 17.2334 19.1167 17.2334 17.9167C16.6834 17.8833 16.15 17.9833 15.6334 18.1833C15.1334 18.3833 14.6834 18.7 14.3 19.1C13.9334 19.5 13.65 19.9833 13.4834 20.5C13.3167 21.0167 13.2667 21.5667 13.35 22.1167C13.3334 22.4833 13.4834 22.85 13.7334 23.1167C13.9834 23.3833 14.3334 23.55 14.7 23.5667C15.5334 23.5667 15.8334 23.0333 15.8334 22.3C15.8167 22.1833 15.8334 22.0667 15.8834 21.95C15.9334 21.8333 16 21.7333 16.0834 21.65C16.1667 21.5667 16.2667 21.5 16.3834 21.4667C16.5 21.4333 16.6167 21.4167 16.7334 21.4333C17.0167 21.4333 17.55 21.55 17.55 23.15C17.6 23.6667 17.5334 24.1833 17.3667 24.6833C17.2 25.1667 16.9167 25.6167 16.55 26C16.1834 26.3667 15.75 26.6667 15.2667 26.85C14.7834 27.0333 14.2667 27.1167 13.75 27.0833C11.5667 27.0833 8.68336 25.4667 8.68336 20.05C8.75003 17.5833 9.75003 15.2333 11.5 13.4833C13.2334 11.7333 15.5667 10.7 18.0334 10.6167C17.6167 10.7 17.2167 10.8833 16.8834 11.1333C16.2834 11.5833 15.7334 12.1167 15.2667 12.7C15.5167 12.7167 15.7667 12.75 16.0167 12.7833C16.2167 12.8167 16.4167 12.8 16.6 12.7333C16.7834 12.6667 16.95 12.5667 17.0834 12.4167C17.3667 12.1 17.6667 11.8 18 11.5333C18.45 11.2 18.95 10.9667 19.4834 10.8333C20.0167 10.7 20.5834 10.7 21.1334 10.8C21.45 10.85 21.75 10.9167 22.05 11C21.2167 11.1 20.4167 11.4167 19.7167 11.9C19.1 12.3667 18.5334 12.8833 18.0167 13.4667C18.0167 13.4667 18.3167 13.6333 18.5 13.7333C18.7 13.8 18.9167 13.8167 19.1167 13.7833C19.3167 13.7333 19.5167 13.6333 19.65 13.4833C19.9667 13.1667 20.3 12.8667 20.6667 12.6C21.2 12.1333 21.8834 11.8333 22.5834 11.7667C23.3 11.6833 24.0167 11.8167 24.6334 12.1667C24.7334 12.2333 24.8334 12.3 24.9334 12.3833C24.05 12.5 23.2 12.7667 22.4167 13.2C21.6167 13.7 20.9 14.3 20.2667 14.9833C20.2667 14.9833 20.5667 15.2167 20.7167 15.35C20.9 15.45 21.1167 15.5 21.3334 15.4667C21.55 15.4333 21.75 15.3333 21.9 15.1667C22.2667 14.8167 22.65 14.4833 23.0834 14.2C23.95 13.6167 24.9667 13.3 26 13.2333C26.3334 13.55 26.45 13.8333 26.7667 13.8333C27.1167 13.8333 27.35 13.5667 27.6334 13.2167C28.4167 13.2167 29.1667 13.4667 29.8 13.9167C30.1334 14.1167 30.45 14.3333 30.7334 14.5833C31.1667 14.95 31.4834 14.8667 31.6834 14.6833C31.8334 14.5333 32.05 14.2833 32.05 14.2833C31.5667 13.7167 30.9834 13.25 30.3167 12.9C29.7167 12.5667 29.0334 12.3833 28.35 12.3833C28.4834 12.2667 28.6167 12.15 28.7667 12.05C29.2167 11.8333 29.7167 11.75 30.2 11.7833C30.7 11.8333 31.1667 12 31.5667 12.3C31.8834 12.4667 32.1834 12.7 32.4334 12.9667C32.55 13.0833 32.6834 13.1667 32.85 13.1833C33 13.2 33.1667 13.1833 33.3167 13.1C33.4667 12.9833 33.6167 12.8833 33.8 12.8167C33.3667 12.2333 32.8 11.7667 32.15 11.4333C31.7667 11.2333 31.3334 11.1167 30.9 11.0833C31.5167 10.9333 32.1667 10.9167 32.7834 10.9833C35.55 11.35 36.3834 14.4167 36.2 17.1C35.9167 21.5833 36.0667 22.6667 37.15 22.6667C37.4167 22.65 37.65 22.55 37.8334 22.3667C38.0167 22.1833 38.1167 21.9333 38.1334 21.6833C38.2167 21.1167 38.3834 20.6667 38.75 20.6667C39.5 20.6667 39.6834 21.4 39.6834 21.8667C39.6834 24.85 37.75 25.4667 36.1 25.4667C34.45 25.4667 33.1834 24.1833 32.7334 21.9667C32.6 21.2667 32.4834 20.55 32.4834 20.55C32.25 20.6 32.0167 20.6833 31.8 20.8C31.3667 21.0167 30.9334 21.2833 30.9334 21.2833C30.9334 21.2833 31.4 22.3833 31.5 22.7C31.5167 23.3 31.4834 23.9 31.3834 24.4833C33.1834 27.3833 34.1334 30.75 34.0834 34.1667C34.0834 39.7667 32.0167 44.8667 30.5834 46.7833C31 46.6833 31.4 46.5167 31.75 46.2667C33.0834 44.9667 33.4167 44.7167 34.8167 44.5833C35.7167 42.25 36.0167 39.3667 35.1334 32.85C40.2334 36.4167 40.3834 39.4167 39.65 42.6667C42.85 41.0333 41.05 37.8167 41.05 37.8167C41.8334 38.3333 42.65 38.7833 43.5167 39.15C49.45 41.5833 51.5834 44.7667 51.5834 49.4V50.0333H52.8334V2H4.88336Z" fill="#2FBAD7"/>
<path d="M29.9666 24.4C29.7 24.3667 29.6833 24.35 29.6833 23.6833C29.6833 23.15 29.9666 23.15 30.4666 23.2833C30.5166 22.95 30.6833 21.9833 30.2833 21.9833C29.9833 21.9833 29.75 22.2167 29.3666 22.2167C28.9 22.2167 28 21.9 27.7 21.9C27.1166 21.9 27.4166 22.9333 27.4166 23.3333C28.5833 23.1833 29.0666 23.0167 29.0666 23.55C29.0666 24.4667 29.2166 24.3167 27.75 24.45C26.9833 24.5167 26.55 24.55 26.1 24.5667C26.1 24.5667 25.6666 22.85 25.9 22.5167C26.2833 21.9333 26.7166 21.3667 27.1833 20.85C27.45 20.55 27.45 20.55 27.3166 20.1167C27.1333 19.55 26.3833 17.2833 26.3833 17.2833C26.3333 16.9833 26.3333 16.6667 26.4166 16.3667C26.5 16.0667 26.65 15.7833 26.85 15.55C26.9833 15.3667 26.8833 15.3 26.75 15.3667C26.0166 15.7167 24.85 16.4667 24.9 17.4833C24.9333 18.2833 24.6 18.1667 23.9833 18.0167C23.4666 17.8667 22.9166 17.8333 22.3833 17.9C21.5666 18.0333 21.0833 18.6333 21.1833 19.1833C21.2833 19.6833 21.7166 20.1333 23 20.1333C24.2333 20.1333 24.3666 19.3833 24.9166 20.3667C25.3833 21.2167 25.7833 21.4667 25.1166 22.1333C23.4666 23.7833 23.4 23.25 23.4 24.9333C23.4 26.7167 25.2833 28.1 26.3 27.7833C27.15 27.5833 28 27.3333 28.8166 26.9833C28.8666 26.9333 28.8666 26.8 28.7833 26.8C28.4166 26.8 27.0166 26.8 26.9166 26.3C26.8 25.8 26.7333 25.4167 26.7333 25.4167C27.55 25.2667 28.3666 25.2 29.2 25.2C29.6666 25.2 30.1333 25.2333 30.5833 25.2833C30.6666 25.0333 30.7166 24.75 30.7 24.4833C30.45 24.4667 30.2166 24.4167 29.9666 24.4Z" fill="#2FBAD7"/>
<path d="M30.1667 19.6333C30.3833 19.75 30.6333 19.8167 30.8833 19.8333C31.1333 19.85 31.3833 19.8 31.6167 19.7C32.5333 19.3833 32.6333 18.3333 31.6333 18.1667C30.85 18.0333 30.6 18.4333 30.1167 18C29.7833 17.6833 29.5667 17.4833 29.3333 17.25C29.2333 17.15 29.1333 17.0667 29.0833 17.1C29.0333 17.1167 29.0167 17.1833 29.0833 17.3333C29.3667 18.1333 29.7167 18.9167 30.1667 19.6333Z" fill="#2FBAD7"/>
</svg>
