<svg width="60" height="60" viewBox="0 0 60 60" fill="none" xmlns="http://www.w3.org/2000/svg">
<rect width="60" height="60" fill="#CA2C2D"/>
<path d="M10.3194 25.5488H10.2639C10.2335 25.5491 10.2039 25.5385 10.1808 25.5189C10.1576 25.4993 10.1423 25.472 10.1378 25.4421C10.1334 25.4235 10.1334 25.4042 10.1378 25.3856C15.0214 14.3703 28.0124 9.35351 39.1543 14.182C44.2106 16.3679 48.2557 20.3674 50.4855 25.3856C50.4934 25.4045 50.4965 25.4251 50.4945 25.4456C50.4924 25.466 50.4854 25.4856 50.4739 25.5026C50.4624 25.5196 50.4468 25.5336 50.4286 25.5432C50.4104 25.5528 50.3901 25.5577 50.3695 25.5576H50.3115C48.42 24.5451 46.2973 24.0377 44.1502 24.085C41.7264 24.0026 39.3367 24.6706 37.3104 25.997C37.2854 26.005 37.2585 26.005 37.2334 25.997H37.1552C35.0974 24.7403 32.7303 24.0751 30.316 24.0751C27.9018 24.0751 25.5347 24.7403 23.4769 25.997C23.4522 26.0047 23.4258 26.0047 23.4012 25.997H23.3318C21.3057 24.6713 18.9165 24.0033 16.4933 24.085C14.3485 24.043 12.2292 24.5533 10.3408 25.5664H10.332L10.3194 25.5488ZM31.5767 26.1552H29.0542V43.4603C29.0542 44.4747 28.4399 45.2958 27.4145 45.2958C26.6287 45.2958 25.9262 44.8061 25.6639 44.0717C25.5517 43.8036 25.3376 43.5906 25.0683 43.4789C24.799 43.3672 24.4963 43.3659 24.226 43.4754C23.9873 43.5711 23.7901 43.7476 23.6692 43.9738C23.5483 44.2 23.5115 44.4614 23.5651 44.712C24.2487 46.8199 26.5291 47.9812 28.6619 47.3057C30.3507 46.7709 31.5905 45.2129 31.5767 43.4603V26.1552Z" fill="#FEFEFD"/>
</svg>
