<svg width="60" height="60" viewBox="0 0 60 60" fill="none" xmlns="http://www.w3.org/2000/svg">
<rect width="60" height="60" fill="white"/>
<g clip-path="url(#clip0_168_687)">
<path d="M52.7218 7.90259V52.5996H43.3735C45.3533 47.4632 45.7942 41.1105 44.3952 35.5416C42.7105 28.4699 38.038 21.7449 31.4142 17.5933C25.1546 13.6433 17.2042 12.0933 9.38932 13.6868L7.59215 14.1254V7.90259H52.7218ZM20.0154 14.9102C17.6145 13.596 14.4594 13.4042 11.6318 13.8846L12.6288 13.9977L12.7703 13.9281C14.0805 13.8324 15.4625 13.8781 16.6849 14.1449C16.2846 14.2542 15.5946 14.4765 15.112 14.6743C15.3868 14.7765 15.7356 14.9498 15.9736 15.1025C16.4924 14.915 17.5826 14.6286 18.1135 14.5237C18.5884 14.6612 19.8076 15.2205 20.5638 15.7688C19.6655 15.8634 18.4448 16.0384 17.4604 16.2645C17.6929 16.4656 17.8898 16.7042 18.0658 16.9645C19.0201 16.7922 20.4163 16.6335 21.6245 16.5879C22.2343 17.1107 22.735 17.7417 23.0739 18.3949C21.7462 18.3074 19.982 18.3292 18.901 18.4455C19.0124 18.6373 19.1654 19.127 19.2306 19.4205C20.5737 19.3639 22.7624 19.4623 23.681 19.5944C23.9821 20.3107 24.1554 21.0851 24.2251 21.8938C22.6922 21.5944 20.8863 21.3422 19.4758 21.2748C19.4911 21.7242 19.4725 22.1541 19.4308 22.5753C21.1084 22.7482 22.7356 23.0487 24.309 23.4509C24.2876 24.2433 24.1708 25.2302 23.9607 25.9932C22.7125 25.5514 20.7152 24.9655 19.0266 24.6259C18.8577 25.3123 18.6323 25.9884 18.3351 26.6362C19.9886 27.184 21.6206 27.897 23.1831 28.665C22.9259 29.3992 22.5529 30.2226 22.2074 30.8323C20.6423 29.9606 19.0305 29.1079 17.4362 28.4334C16.9531 29.3074 16.3394 30.24 15.763 31.0057C17.3183 31.9427 18.7864 32.9579 20.2457 34.047C19.8081 34.6823 19.1791 35.4443 18.8012 35.8981C17.4017 34.7448 14.5302 32.4807 14.5302 32.4807C13.6856 33.4883 12.9633 34.2416 11.8989 35.0584C13.0774 36.253 14.619 37.9611 15.582 39.1437C15.0863 39.6589 14.5998 40.0682 14.0136 40.4687C12.8443 39.0459 11.4377 37.247 10.6189 36.1182C9.46939 37.0117 8.76741 37.4959 7.5927 38.097V39.7698L9.45842 43.4676C9.03504 43.7366 8.69009 43.9002 8.14661 44.1323L7.59215 43.054V44.9975C14.7868 41.8312 22.1104 34.8486 24.2393 27.2666C25.0192 24.646 25.1546 21.2737 23.8801 18.8308C23.1321 17.2237 21.6206 15.7248 20.0154 14.9102ZM18.9422 13.808C19.2553 13.9096 19.5548 14.0477 19.8547 14.177L20.0236 14.1482C21.5603 14.4004 23.0284 14.908 24.3463 15.6199C23.6311 15.6259 22.8919 15.615 22.1778 15.6737C22.4756 15.9373 22.7909 16.2466 23.0498 16.5308C24.0161 16.5123 24.9523 16.533 25.8736 16.5933C26.7884 17.2585 27.7179 18.1493 28.2378 19.0683C27.1684 18.8248 25.6992 18.6167 24.3879 18.5042C24.5579 18.8906 24.7312 19.2889 24.8755 19.702C26.3326 19.9139 27.775 20.1775 29.1805 20.5297C29.644 21.4802 29.996 22.4819 30.1474 23.5411C28.5981 22.9938 27.0105 22.4737 25.3811 22.1454C25.4223 22.6666 25.4261 23.202 25.4294 23.7297C27.1092 24.2106 28.7478 24.7693 30.3377 25.4824C30.3448 26.5519 30.2302 27.571 29.9878 28.5389C28.3908 27.7492 26.7604 26.9677 25.0641 26.3976C24.8492 27.3405 24.5673 28.2557 24.2382 29.1465C25.8654 29.9742 27.4788 30.8166 29.0188 31.8128C28.7286 32.6318 28.3047 33.5215 27.8133 34.3177C26.3014 33.2927 24.7872 32.2965 23.2094 31.4291C22.6725 32.5351 21.9919 33.6687 21.1868 34.7013C22.5924 35.7981 24.032 36.941 25.3866 38.1546C24.9413 38.8198 24.3435 39.5883 23.6717 40.2915C22.6829 39.2589 21.0311 37.7883 19.6568 36.6399C18.6855 37.8024 17.5366 39.0861 16.3794 40.0481C17.2624 40.9676 19.8838 44.0975 19.8838 44.0975C19.3601 44.6154 18.7058 45.1491 18.0356 45.6263C18.0356 45.6263 15.3588 42.2241 14.6996 41.404C13.1169 42.648 11.8512 43.5187 9.99807 44.4942C10.7318 45.7333 12.5542 49.0926 12.5542 49.0926C12.0859 49.3768 11.5972 49.6437 11.1086 49.8214C10.2481 48.4062 9.21273 46.3562 8.66157 45.1866C8.12906 45.4768 7.5927 45.6643 7.5927 45.6643V51.7811C13.1728 49.9844 18.3148 46.8094 22.6665 42.2133C26.632 37.954 29.7695 33.3557 30.7008 27.8606C31.4439 23.4808 29.9796 19.3536 26.4697 16.565C24.3413 14.758 21.7029 14.1292 18.9422 13.808ZM17.0841 16.7254C14.642 14.2792 10.8964 14.0743 7.59162 14.8444C7.59271 14.8433 7.59162 15.1417 7.59162 15.1417C8.28207 14.9966 9.17653 14.8564 9.99696 14.8591C9.46171 15.1797 8.94674 15.5683 8.48169 15.9476C8.67967 15.99 8.88971 16.0569 9.08276 16.1373C9.82805 15.6096 10.5492 15.1525 11.1503 14.8275C11.9307 14.8341 12.9381 14.9775 13.5951 15.2384C12.5087 15.6254 11.1925 16.2232 10.3452 16.7889C10.501 16.8716 10.666 17.008 10.7878 17.133C11.8309 16.5813 13.3286 15.9438 14.5581 15.5547C15.1411 15.7857 15.7685 16.1955 16.1239 16.5406C14.5521 16.9096 13.0467 17.3172 11.5325 17.9281C11.6784 18.0987 11.838 18.3569 11.9137 18.5172C13.0083 18.1313 15.1548 17.5118 16.8385 17.1933C17.1472 17.5199 17.5163 18.04 17.7049 18.5264C15.8447 18.7183 13.7234 19.0389 12.2904 19.4433C12.3804 19.6819 12.4363 19.915 12.4747 20.1378C14.2384 19.8025 16.1793 19.552 18.0773 19.477C18.2462 20.0172 18.3411 20.596 18.3449 21.1889C16.4529 21.0704 14.2861 21.1525 12.563 21.3232C12.563 21.5454 12.5312 21.99 12.5021 22.265C14.2488 22.2123 16.2017 22.2313 18.2874 22.4639C18.2128 23.0248 18.0773 23.7498 17.8952 24.3748C15.9456 23.934 14.1699 23.7193 12.2054 23.5911C12.1352 23.9672 11.9718 24.4275 11.7892 24.8204C13.6247 25.1509 15.4581 25.6552 17.2284 26.2856C16.9843 26.8525 16.7008 27.4063 16.3904 27.9476C15.0654 27.3296 12.7138 26.4585 11.1711 26.0307C10.9166 26.5405 10.49 27.2351 10.065 27.7503C11.1733 28.2856 13.2984 29.4742 14.7561 30.4079C14.4079 30.8704 14.0158 31.3497 13.605 31.7742C12.1939 30.6845 10.7938 29.6606 9.26098 28.6943C8.77125 29.2514 8.16361 29.8535 7.59106 30.3296V30.5057L11.113 34.2209C10.722 34.5736 10.3238 34.8992 9.90647 35.1992L7.59106 32.266V37.4421C11.1667 35.3628 14.7857 31.9497 16.8209 28.3334C18.4809 25.4384 19.7379 21.5194 18.1294 18.1906C17.8459 17.6759 17.5443 17.1759 17.0841 16.7254ZM27.6049 16.7623L28.6447 16.8884C29.6823 17.4221 30.6377 18.1748 31.496 19.0759C31.8124 19.4183 32.1535 19.7645 32.3734 20.1384C31.5157 19.8976 30.6848 19.6052 29.7986 19.415C30.0986 19.8819 30.3119 20.3373 30.5324 20.8704C31.5217 21.1525 32.5034 21.4911 33.4642 21.8297C34.0801 22.9884 34.5298 24.2318 34.7448 25.5487C33.6364 24.9987 32.5248 24.4634 31.3835 24.0193C31.4718 24.665 31.4965 25.3275 31.4718 25.9682C32.7255 26.5345 34.13 27.2976 34.9987 27.8503C35.031 28.7595 34.9395 30.3758 34.6702 31.4057C33.6699 30.6834 32.2292 29.7568 31.06 29.1595C30.9009 30.0525 30.471 31.4432 30.0251 32.4242C31.2442 33.2443 32.4645 34.084 33.6189 35.0698C33.2657 36.0367 32.8122 36.9655 32.3219 37.8693C31.1647 36.8839 29.9873 35.941 28.7626 35.0307C28.0678 36.3921 27.2995 37.6193 26.2504 38.8959C27.4273 39.9714 28.5493 41.0236 29.6736 42.1763C29.123 42.9665 28.5065 43.7513 27.787 44.4882C26.7165 43.3507 25.6153 42.1834 24.4971 41.0932C23.3317 42.4241 22.016 43.8209 20.6439 44.9654C21.2762 45.6192 22.6434 47.2002 23.6377 48.6203C22.9538 49.2007 22.316 49.7469 21.6332 50.2436L18.7409 46.5442C16.9553 47.9246 15.0583 49.0621 13.1613 50.0888L14.6788 52.598H19.3831C26.5723 47.7333 33.0661 40.5095 35.0672 32.4454C36.2754 27.5144 35.1281 22.4596 31.6989 18.7879C29.8661 16.8313 27.8347 16.177 26.4006 15.7379C26.7675 15.9797 27.1892 16.3444 27.6049 16.7623ZM7.59326 16.3515V17.2129L8.0797 16.8786C8.48553 16.971 8.94729 17.1743 9.25715 17.3732C8.69557 17.6998 8.11808 18.0215 7.59928 18.3737V18.9139C8.29248 18.4949 9.10798 18.0047 9.75346 17.6802C10.0134 17.8455 10.2476 18.0906 10.4291 18.3351C9.49735 18.7036 8.1976 19.3313 7.59215 19.6487V20.2058C8.62592 19.7058 9.76992 19.2052 10.858 18.8705C10.9978 19.1161 11.1399 19.4243 11.1898 19.7085C10.0337 19.9302 8.69393 20.4139 7.59875 20.8346V21.3433C8.75755 20.9433 10.3145 20.5384 11.3351 20.3759C11.4108 20.7014 11.4206 21.1221 11.4217 21.4188C9.88508 21.565 8.85077 21.7427 7.60147 21.9922V22.5732C8.71476 22.4259 10.5607 22.2916 11.3603 22.321C11.2835 22.7194 11.1958 23.1324 11.0417 23.4943C10.1225 23.4106 8.63415 23.3433 7.59819 23.371C7.59106 23.371 7.59106 24.1465 7.59106 24.1498C8.60454 24.2052 9.71617 24.4514 10.6062 24.6183C10.4856 24.9264 10.2591 25.3547 10.065 25.6644C9.37121 25.4318 8.34843 25.1128 7.59106 24.9932V26.522C8.07861 26.7394 8.78551 27.0867 9.02517 27.2411C8.86393 27.4764 8.54366 27.8601 8.32813 28.053C8.00457 27.8394 7.59106 27.6014 7.59106 27.6014V29.5557C8.40491 28.7628 9.20505 27.9318 9.84066 27.0557C11.4152 24.8063 12.6557 21.8889 11.5254 19.0759C10.8421 17.533 9.18147 16.5645 7.59326 16.3515ZM33.9512 20.6574C34.2797 21.2101 34.5929 21.777 34.8528 22.3558L36.107 22.9286C36.9971 24.3666 37.7068 25.8791 38.095 27.5269C37.4029 27.0943 36.6988 26.6449 35.993 26.265C36.1043 27.0123 36.1295 27.6862 36.1487 28.472C36.9417 29.0226 37.7704 29.603 38.5382 30.2791C38.6116 31.6606 38.5107 33.0226 38.2996 34.3008C37.4572 33.4889 36.5803 32.7731 35.7177 32.1758C35.5076 33.3573 35.0755 34.6943 34.5748 35.8796C35.4566 36.5763 36.4218 37.4839 37.2669 38.4008C36.8984 39.4606 36.4597 40.4432 35.9321 41.3986C35.0782 40.4877 34.1465 39.5415 33.2158 38.7312C32.6443 39.8334 31.4839 41.6149 30.4666 42.9855C31.3967 43.9301 32.2572 44.9187 33.1088 45.91C32.5056 46.748 31.8146 47.5469 31.1038 48.323C30.2412 47.3377 29.4328 46.3257 28.5318 45.3649C27.1673 46.9399 26.0255 48.1632 24.3951 49.5203C25.3581 50.6784 26.8169 52.6007 26.8169 52.6007H27.639C29.1635 51.2589 30.6333 49.748 31.9692 48.2203C35.2592 44.2306 37.8614 39.9692 38.7696 35.0182C39.754 29.8258 38.3808 24.771 34.9131 21.015L33.9512 20.6574ZM37.2417 23.2574L37.2264 23.2954C38.7296 25.1275 39.9268 27.0932 40.5437 29.2807L40.5322 29.3041L39.3723 28.434C39.5209 29.3226 39.6377 30.1481 39.6701 31.0742C40.2169 31.4834 40.8146 32.0188 41.2813 32.5796C41.3609 34.0878 41.3609 35.6959 41.0998 37.178C40.5794 36.4916 40.1154 35.9926 39.3016 35.1888C39.1222 36.2856 38.7065 38.0144 38.2064 39.1671C38.9209 39.9317 39.6465 40.8991 40.1066 41.6051C39.8384 42.5143 39.3213 43.735 38.7696 44.7545C38.1148 43.917 37.6508 43.2393 36.7964 42.2426C35.9485 43.7937 34.9532 45.3703 33.8519 46.8181C34.5983 47.6904 35.2861 48.6002 35.9359 49.5203C35.3217 50.3768 34.657 51.2224 33.9369 52.0219C33.2575 51.0953 32.533 50.1752 31.8261 49.26C30.8395 50.3996 29.8463 51.5572 28.6453 52.6002H34.1832C37.7495 48.5002 40.3364 43.9622 41.3927 38.8307C42.4818 33.6617 41.6203 28.19 38.259 24.2927C37.9448 23.9476 37.6185 23.5123 37.2417 23.2574ZM41.9679 30.4448C42.1851 31.4318 42.2767 32.2486 42.4023 33.5481C42.8125 33.9899 43.305 34.7416 43.305 34.7416C43.3565 36.2524 43.2704 37.7752 42.9518 39.3377L42.1111 38.3111C41.8588 39.7475 41.5002 41.0834 40.9731 42.547L41.9027 44.1475C41.6274 45.1083 41.0987 46.4344 40.5821 47.4909C40.2333 46.9317 39.9092 46.3149 39.5505 45.8263C38.7137 47.4393 37.7106 49.0089 36.6247 50.5219L37.925 52.5996H38.2261C41.362 47.9899 43.4629 42.9035 43.6785 37.1209C43.7859 34.7003 43.0193 32.5905 42.0979 30.5715L41.9679 30.4448ZM44.4567 38.7372C44.3503 39.5144 44.2965 40.3002 44.1545 41.0366L43.9066 40.7019C43.6401 42.2866 43.2523 43.7589 42.6984 45.2263L43.0851 46.2871C42.7708 47.3513 42.3699 48.4915 41.8544 49.6871C41.7354 49.323 41.5045 48.8904 41.2972 48.5551C40.6029 49.9257 39.7792 51.3849 38.9533 52.5996H41.0296C42.1637 50.4366 43.0439 48.135 43.6988 45.7621C44.2444 43.541 44.7418 41.1692 44.466 38.7366L44.4567 38.7372ZM44.5844 44.4013C44.149 46.6687 43.3609 49.4632 42.7023 51.4583C42.6228 51.3029 42.546 51.1512 42.4818 50.986C42.1714 51.6061 41.7003 52.5996 41.7003 52.5996H42.7648C43.6823 50.4567 44.3283 47.3611 44.5844 44.4013ZM11.5473 50.8496C10.2481 51.4366 8.95388 51.9252 7.59162 52.355V52.5958H12.5317L11.5473 50.8496ZM22.3637 51.1779C21.8493 51.5425 21.1973 52.117 20.413 52.6072H23.3081C23.3087 52.6072 22.6824 51.6741 22.3637 51.1779Z" fill="#005DAA"/>
</g>
<defs>
<clipPath id="clip0_168_687">
<rect width="46" height="46" fill="white" transform="translate(7 7)"/>
</clipPath>
</defs>
</svg>
