<svg width="60" height="60" viewBox="0 0 60 60" fill="none" xmlns="http://www.w3.org/2000/svg">
<rect width="60" height="60" fill="black"/>
<g clip-path="url(#clip0_1772_9384)">
<path d="M16.1758 26.5788L13.0875 24.7894L10 26.5788V24.7894L13.0879 23L16.1763 24.7894L16.1758 26.5788Z" fill="#A435F0"/>
<path d="M10 28.0815H11.6176V32.026C11.6176 33.0451 12.3758 33.5419 13.0879 33.5419C13.8062 33.5419 14.5587 33.0319 14.5587 32.0123V28.0815H16.1763V32.12C16.1763 33.0588 15.8822 33.7832 15.2941 34.28C14.7055 34.7763 13.9705 35.0181 13.0743 35.0181C12.1789 35.0181 11.4435 34.7767 10.869 34.28C10.2941 33.7837 10 33.0862 10 32.1601V28.0815ZM30.1609 32.9838C29.6712 33.4215 29.1134 33.6359 28.4774 33.6359C27.3169 33.6359 26.5389 32.9723 26.451 31.9448H31.6774C31.6774 31.9448 31.7125 31.6131 31.7125 31.3016C31.7125 30.3354 31.4048 29.5303 30.7763 28.8729C30.1618 28.2156 29.36 27.8935 28.3837 27.8935C27.3547 27.8935 26.5121 28.2156 25.8435 28.8729C25.1886 29.5303 24.8545 30.3888 24.8545 31.4626V31.5156C24.8545 32.5757 25.1886 33.421 25.8435 34.0519C26.4985 34.6823 27.3675 35.0044 28.4237 35.0044C29.6519 35.0044 30.629 34.5182 31.3622 33.68L30.1609 32.9838ZM27.0866 29.6913C27.447 29.4094 27.8888 29.262 28.3833 29.262C28.851 29.262 29.2387 29.4094 29.5732 29.705C29.8923 29.9741 30.0646 30.3045 30.0796 30.6844H26.4923C26.5442 30.2917 26.742 29.9609 27.087 29.6917L27.0866 29.6913ZM46.444 35.9159C45.7877 37.471 45.1011 38 44.0484 38H43.3187V36.5609H43.9086C44.2708 36.5609 44.6075 36.4241 44.9284 35.6812L45.2492 34.9373L42.4818 28.0815H44.1262L46.0914 33.0191L48.1103 28.0815H49.7543L46.444 35.9159ZM22.4734 25.4922V28.6938C21.9433 28.2173 21.1187 27.9337 20.3213 27.9337C19.3719 27.9337 18.5701 28.269 17.9152 28.9528C17.2734 29.6238 16.9525 30.4554 16.9525 31.4617C16.9525 32.4685 17.2734 33.3001 17.9152 33.9844C18.5701 34.6554 19.3723 34.9912 20.3213 34.9912C21.4158 34.9912 22.1077 34.5592 22.4734 34.2209V34.8434H24.0778V25.4926L22.4734 25.4922ZM21.9921 32.9384C21.6044 33.3275 21.1099 33.5291 20.5349 33.5291C19.96 33.5291 19.4923 33.3275 19.1046 32.9384C18.731 32.5492 18.5433 32.0529 18.5433 31.4626C18.5433 30.8719 18.7305 30.3756 19.1046 29.9865C19.4923 29.5973 19.96 29.3962 20.5349 29.3962C21.1099 29.3962 21.6044 29.5973 21.9921 29.9865C22.393 30.3756 22.5943 30.8719 22.5943 31.4626C22.5943 32.0529 22.393 32.5492 21.9921 32.9384ZM39.9877 27.9473C38.7692 27.9473 38.1358 28.4547 37.702 28.9435C37.5284 28.6113 37.0396 27.9473 35.8976 27.9473C34.9323 27.9473 34.3635 28.437 34.0796 28.7856V28.0823H32.4892V34.8442H34.0796V30.9531C34.0796 30.0407 34.6413 29.3834 35.3895 29.3834C36.1521 29.3834 36.593 29.9604 36.593 30.886V34.8438H38.1837V30.9526C38.1837 30.027 38.7314 29.3829 39.52 29.3829C40.2822 29.3829 40.7231 29.96 40.7231 30.8851V34.8434H42.3275V30.6575C42.3275 28.8945 41.3833 27.9478 39.9877 27.9478V27.9473Z" fill="white"/>
</g>
<defs>
<clipPath id="clip0_1772_9384">
<rect width="40" height="15" fill="white" transform="translate(10 23)"/>
</clipPath>
</defs>
</svg>
