<svg width="60" height="60" viewBox="0 0 60 60" fill="none" xmlns="http://www.w3.org/2000/svg">
<rect width="60" height="60" fill="#301506"/>
<g clip-path="url(#clip0_1763_9110)">
<path fill-rule="evenodd" clip-rule="evenodd" d="M14.1934 21.6952L14.3419 38.7499L18.1301 43.4832L29.4951 49.5688L43.4596 42.6567L46.3565 35.6695L46.0594 13.0547L35.5117 12.7542L24.5185 14.5573L14.4909 20.4175L14.1934 21.6952Z" fill="#301506"/>
<path d="M30.4651 9.3707C23.8453 9.3707 18.0709 10.667 13.3015 13.2235V33.6614C13.3015 37.9619 14.899 41.558 17.9205 44.0633C20.7259 46.391 29.4022 50.227 30.4655 50.6928C31.4738 50.249 40.2529 46.3537 43.0138 44.0633C46.0336 41.5594 47.6316 37.9621 47.6316 33.6614V13.2235C42.8615 10.6667 37.0871 9.37036 30.4645 9.37036L30.4651 9.3707ZM40.2673 13.328C42.2414 13.3541 44.1798 13.4775 46.0535 13.6536V33.6612C46.0535 37.5061 44.6742 40.6119 42.0129 42.8291C39.6353 44.8096 32.466 48.0585 30.4655 48.9505C28.4382 48.0465 21.2509 44.7565 18.916 42.8299C16.2704 40.6506 14.8779 37.4711 14.8779 33.662V21.9712C22.4806 14.9189 31.7126 13.2153 40.2666 13.3285L40.2673 13.328ZM30.9127 22.6444C29.2839 22.6444 27.9697 23.0126 26.8877 23.719V43.4041H29.875V37.0445C30.1732 37.1334 30.6059 37.2165 31.2189 37.2165C34.5327 37.2165 36.4373 34.195 36.4373 29.7834C36.4373 25.3804 34.476 22.6444 30.9127 22.6444ZM41.1202 22.6444C39.1555 22.702 37.1009 24.1415 37.1135 26.5818C37.1185 28.1887 37.5589 29.3903 40.021 30.8516C41.3349 31.6317 41.8643 32.1457 41.8869 33.0936C41.9121 34.1474 41.1923 34.7827 40.0969 34.7785C39.1439 34.7708 38.0046 34.2359 37.2417 33.5489V36.3296C38.1771 36.8937 39.3443 37.2667 40.5234 37.2667C43.4746 37.2667 44.7924 35.1581 44.8494 33.2259C44.9055 31.4648 44.4243 30.1323 41.9287 28.6491C40.8149 27.9884 39.9353 27.5542 39.9647 26.4547C39.994 25.3814 40.8749 25.0044 41.7207 25.0121C42.7642 25.0214 43.7735 25.6059 44.3966 26.2522V23.6263C43.8715 23.2172 42.7599 22.5935 41.1202 22.6444ZM16.4034 22.9501V32.4453C16.4034 35.6464 17.9004 37.2669 20.8549 37.2669C22.6831 37.2669 24.2143 36.8389 25.3549 36.0545V22.9502H22.3741V34.3353C22.0492 34.5606 21.5672 34.7046 20.9609 34.7046C19.5925 34.7046 19.388 33.4354 19.388 32.579V22.9503L16.4034 22.9501ZM30.9328 25.077C32.6654 25.077 33.3836 26.4762 33.3836 29.8603C33.3836 33.1621 32.5622 34.7574 30.8438 34.7574C30.4393 34.7574 30.0877 34.656 29.8742 34.5747V25.2957C30.1162 25.1737 30.5274 25.077 30.9328 25.077Z" fill="#FAB80A"/>
</g>
<defs>
<clipPath id="clip0_1763_9110">
<rect width="35" height="42" fill="white" transform="translate(13 9)"/>
</clipPath>
</defs>
</svg>
