<svg width="60" height="60" viewBox="0 0 60 60" fill="none" xmlns="http://www.w3.org/2000/svg">
<rect width="60" height="60" fill="white"/>
<path d="M14.9054 27.5882L11.7324 30.8562C8.95231 33.7199 8.95175 38.4084 11.7312 41.2709L11.7346 41.2756C14.5136 44.1376 19.063 44.1376 21.8431 41.2733L28.911 33.9918V34.0034C29.1884 33.7701 29.5457 33.6295 29.9324 33.6295C30.3202 33.6295 30.6752 33.7695 30.9527 34.0034H30.9634L24.8739 27.7288C22.129 24.9007 17.7064 24.854 14.9054 27.5882Z" fill="#00918C"/>
<path d="M48.1285 30.8533L34.9937 17.3205L34.9847 17.3123C34.8109 17.1326 34.6297 16.9658 34.4434 16.8083C31.6435 14.4579 27.4814 14.6254 24.8768 17.31C24.831 17.3561 24.7879 17.4033 24.7443 17.4506L24.3486 17.8578L14.9043 27.5876L14.906 27.5888C17.7064 24.854 22.129 24.9007 24.874 27.7288L30.9624 34.0028L38.0173 41.2709C40.7984 44.1364 45.3473 44.1364 48.1296 41.2698C50.9091 38.406 50.9091 33.7188 48.1285 30.8533Z" fill="#00ADA8"/>
</svg>
