<svg width="60" height="60" viewBox="0 0 60 60" fill="none" xmlns="http://www.w3.org/2000/svg">
<rect width="60" height="60" fill="#ECB833"/>
<path fill-rule="evenodd" clip-rule="evenodd" d="M46.0468 24.2428C40.7361 28.3034 35.8209 27.8663 31.2986 22.9315C40.4654 19.3531 45.2948 13.824 50 18.5646L46.5102 23.6501H46.5045L46.5038 23.6573H46.4981V23.6581L46.4974 23.6661H46.4909V23.6675H46.4867V23.6682H46.4845C46.4809 23.6682 46.4824 23.6726 46.4795 23.6726V23.6748L46.4788 23.677H46.4774L46.4767 23.6813H46.4752L46.4738 23.6842C46.4738 23.6864 46.4709 23.6864 46.4709 23.6886H46.4695V23.6908L46.4688 23.6922C46.4631 23.6922 46.4581 23.7017 46.4552 23.7017V23.7024H46.4538L46.4531 23.7053H46.4545V23.7068H46.4531L46.4502 23.7119L46.4438 23.7162V23.7184H46.4424C46.4424 23.7228 46.4331 23.7344 46.4295 23.7366V23.7381L46.4281 23.7388V23.7497H46.426V23.7526H46.4245V23.7541L46.4238 23.7548V23.7577L46.4202 23.7592L46.4188 23.7599L46.4152 23.7621V23.7635C46.4131 23.765 46.4117 23.7664 46.4117 23.7701H46.411L46.4095 23.773L46.4002 23.7766V23.7781L46.3981 23.7795C46.3917 23.7832 46.3581 23.8312 46.3517 23.8406L46.3503 23.8435H46.3488C46.3488 23.8479 46.3438 23.853 46.3438 23.8595L46.3431 23.8624C46.3367 23.8653 46.3238 23.8799 46.3167 23.8799V23.8828C46.3031 23.8893 46.2924 23.9017 46.2774 23.9075V23.9097H46.2724V23.9119H46.2703L46.2681 23.9163C46.2653 23.9163 46.2646 23.9184 46.2617 23.9184V23.9206L46.2503 23.9272V23.9315H46.2481V23.933C46.2446 23.9359 46.2289 23.9483 46.226 23.9483L46.2174 23.9599H46.2153V23.9621L46.2117 23.9679V23.9701H46.2074C46.2074 24.0624 46.0796 24.0966 46.0796 24.1563H46.0775C46.0775 24.1628 46.0625 24.1766 46.0625 24.1854H46.0603C46.0582 24.1883 46.0511 24.1963 46.0511 24.1992H46.0489C46.0425 24.2057 46.0468 24.2348 46.0468 24.2428Z" fill="white"/>
<path fill-rule="evenodd" clip-rule="evenodd" d="M46.5173 23.6398C32.6689 36.4064 27.2382 6.20888 10 17.6372L29.4248 45.799" fill="#00939A"/>
</svg>
