<svg width="60" height="60" viewBox="0 0 60 60" fill="none" xmlns="http://www.w3.org/2000/svg">
<rect width="60" height="60" fill="#1C294E"/>
<g clip-path="url(#clip0_1772_9394)">
<path d="M40.2117 12.0286C39.4777 12.0262 38.7927 12.4026 38.3936 13.0275L21.2269 39.7803C21.0294 40.0895 21.0284 40.4875 21.2246 40.7973L25.4459 47.4581C25.8783 48.1404 26.8594 48.1428 27.2949 47.4633L49.9898 12.0599L40.2117 12.0286Z" fill="#4EC18B"/>
<path d="M19.2754 21.8983L10.9406 21.8716C10.2156 21.8692 9.77568 22.6834 10.1677 23.303L14.224 29.7597L19.2754 21.8983Z" fill="#2B7A77"/>
<path d="M20.4298 39.4783L35.0775 16.613L24.89 16.5816C24.1561 16.5789 23.4714 16.9552 23.0719 17.5804L15.0593 30.0358C14.8614 30.3458 14.8611 30.7452 15.0585 31.0554L20.4298 39.4783Z" fill="#36A190"/>
</g>
<defs>
<clipPath id="clip0_1772_9394">
<rect width="40" height="36" fill="white" transform="translate(10 12)"/>
</clipPath>
</defs>
</svg>
