<svg width="60" height="60" viewBox="0 0 60 60" fill="none" xmlns="http://www.w3.org/2000/svg">
<rect width="60" height="60" fill="#0070AB"/>
<g clip-path="url(#clip0_168_540)">
<path fill-rule="evenodd" clip-rule="evenodd" d="M15.9293 20.0151H24.8927L26.9762 25.4641L27.115 25.532L27.6724 26.8943C29.5478 26.9648 30.0334 27.4407 30.1028 27.7806C30.1721 27.9846 30.1721 28.259 29.964 28.5989C29.6866 28.327 29.0623 28.0525 27.8805 28.0525C28.2274 29.0748 28.6435 30.0972 28.6435 30.0972C27.7418 31.0515 26.56 32.4137 27.115 33.572C27.5337 34.3903 28.7129 34.7982 30.5909 34.7982C36.6333 34.7982 47.6108 30.6436 48.9313 30.0972C49.2087 29.9612 49.3475 29.7572 49.3475 29.4853C49.7662 29.5533 50.0437 29.8932 49.9743 30.3691C49.9743 30.7115 49.7662 30.9835 49.4887 31.1195C48.307 31.5954 41.5684 34.1159 36.009 35.2741L33.648 40.9975C33.648 40.9975 27.6031 40.9975 26.7681 40.9975C25.3783 40.9975 24.6846 40.9295 23.711 38.8169C23.2254 37.7266 21.5581 33.504 19.8214 29.3493C17.1805 30.1651 13.7765 31.3234 11.7624 32.3457C11.6236 32.4137 11.4823 32.4817 11.3436 32.4817C10.8581 32.4817 10.5112 32.1418 10.5112 31.6633C10.5112 31.5954 10.5112 31.5274 10.5806 31.3914C10.7193 31.4594 10.7887 31.5274 10.9968 31.5274C11.1355 31.5274 11.2049 31.5274 11.3436 31.4594C13.7071 30.2331 17.8047 28.9389 19.4027 28.463L18.9171 27.2367L18.9865 27.1687L15.9293 20.0151ZM30.8683 26.4864L33.2986 20.0151H42.262L37.1907 32.4137C34.2723 33.0961 31.7701 33.504 30.2415 33.504C29.2704 33.504 28.7129 33.3 28.5742 32.9576C28.2967 32.2097 30.2415 30.4371 30.4496 30.2331C31.4926 29.2108 31.8394 28.259 31.4926 27.3047C31.3539 26.9623 31.1458 26.7583 30.8683 26.4864ZM15.9293 20.0151L18.8478 27.1007L15.9293 20.0151Z" fill="white"/>
<path fill-rule="evenodd" clip-rule="evenodd" d="M19.4028 28.531C16.7644 29.3494 13.3604 30.5051 11.2743 31.5954C11.1356 31.6634 10.9969 31.7314 10.8581 31.7314C10.3726 31.7314 10.0232 31.3914 10.0232 30.9156C10.0232 30.5756 10.2339 30.3012 10.5113 30.2332C12.8723 29.1429 16.2069 27.9846 18.7785 27.2368C19.0559 27.5767 19.264 28.0526 19.4028 28.531ZM48.7926 28.599C48.6539 28.599 48.5152 28.599 48.3764 28.667C40.4561 32.0058 29.2011 34.3904 28.6436 32.8897C28.3662 32.2098 30.5216 30.3012 30.5216 30.3012C31.4927 29.3494 32.0476 28.3271 31.6314 27.2368C31.1459 26.0105 28.9236 25.4641 26.9763 25.4641C27.115 25.7386 27.3231 26.2825 27.5338 27.0328C27.6032 27.0328 27.6032 27.0328 27.6032 27.0328C29.2011 27.1008 29.8254 27.4407 29.9641 27.8486C30.1722 28.2591 29.6866 28.803 29.4786 29.0069C29.3398 29.1429 28.5743 30.0292 28.5743 30.0292C27.8112 30.8476 26.4214 32.3458 27.115 33.64C29.2011 37.5907 46.7785 31.2555 49.1394 30.2332C49.4195 30.0972 49.6276 29.8253 49.6276 29.4853C49.6276 29.0069 49.2782 28.599 48.7926 28.599Z" fill="#FFCF01"/>
</g>
<defs>
<clipPath id="clip0_168_540">
<rect width="40" height="21" fill="white" transform="translate(10 20)"/>
</clipPath>
</defs>
</svg>
