<svg width="60" height="60" viewBox="0 0 60 60" fill="none" xmlns="http://www.w3.org/2000/svg">
<rect width="60" height="60" fill="white"/>
<g clip-path="url(#clip0_150_926)">
<path d="M56.9727 30C56.9727 40.9195 50.4019 50.7603 40.3221 54.9383C30.2423 59.1163 18.6436 56.8054 10.9293 49.0843C3.21845 41.3632 0.910988 29.7508 5.08899 19.6642C9.26699 9.57763 19.1044 3.00342 30.0136 3.00684C33.5533 3.01025 37.0589 3.71 40.3289 5.06853C43.599 6.42365 46.5721 8.41366 49.0741 10.9191C51.5795 13.4245 53.5627 16.401 54.9178 19.6745C56.2729 22.9479 56.9727 26.4569 56.9727 30Z" fill="url(#paint0_linear_150_926)"/>
<g opacity="0.1">
<path d="M3.6383 24.3747C4.03084 22.5246 4.61453 20.7223 5.38596 18.9952C6.15739 17.268 7.10631 15.6296 8.21908 14.1003C9.33526 12.5746 10.605 11.1682 12.0148 9.90869C7.42717 15.0527 4.98318 21.7532 5.17774 28.6414C5.3723 35.5297 8.19177 42.0834 13.0593 46.9577C17.9302 51.8321 24.4771 54.655 31.3585 54.8529C38.2399 55.0475 44.937 52.6001 50.0776 48.0125C46.4355 52.0812 41.6431 54.9485 36.3387 56.2319C31.0343 57.5154 25.467 57.157 20.3708 55.2045C15.2712 53.252 10.8884 49.7977 7.79582 45.2988C4.70328 40.7965 3.04778 35.4614 3.05119 30C3.04778 28.1089 3.24575 26.2247 3.6383 24.3747Z" fill="#404041"/>
</g>
<path d="M51.9208 30C51.9208 38.868 46.5823 46.8622 38.3969 50.2585C30.2116 53.6514 20.7872 51.774 14.5202 45.5036C8.25661 39.2332 6.38266 29.802 9.77216 21.6098C13.1617 13.4142 21.1524 8.07227 30.0136 8.07227C32.8911 8.07227 35.7379 8.6423 38.3969 9.74142C41.056 10.8439 43.4693 12.4585 45.5036 14.4963C47.538 16.5307 49.1526 18.9474 50.2517 21.6098C51.3542 24.2689 51.9208 27.119 51.9208 30Z" fill="#0064A4"/>
<g opacity="0.1">
<path d="M51.443 34.5706C51.1255 36.0725 50.6476 37.5402 50.023 38.9431C49.3949 40.3461 48.6235 41.6773 47.7189 42.9198C46.8144 44.1588 45.7801 45.3023 44.6366 46.3263C48.3709 42.1483 50.3643 36.6971 50.2107 31.0957C50.0537 25.4943 47.7599 20.1626 43.8004 16.1997C39.8408 12.2367 34.5159 9.94289 28.9179 9.78588C23.32 9.63227 17.8756 11.6257 13.701 15.3634C16.6604 12.0592 20.5551 9.73126 24.8662 8.69017C29.1739 7.64567 33.7001 7.93581 37.8406 9.52304C41.9844 11.1103 45.548 13.9161 48.0603 17.5718C50.5725 21.2276 51.9208 25.5626 51.9208 30C51.9242 31.5361 51.7638 33.0687 51.443 34.5706Z" fill="#929497"/>
</g>
<path d="M35.1406 20.4391H45.2067L40.3392 28.8838H30.2697L35.1406 20.4391Z" fill="white"/>
<path d="M15.2131 20.4391H25.2076L35.0109 37.4276L30.0136 46.0942L15.2131 20.4391Z" fill="white"/>
</g>
<defs>
<linearGradient id="paint0_linear_150_926" x1="49.0809" y1="10.9328" x2="10.943" y2="49.0673" gradientUnits="userSpaceOnUse">
<stop stop-color="white"/>
<stop offset="0.1" stop-color="#F9F9F9"/>
<stop offset="0.4" stop-color="#E9E9EA"/>
<stop offset="0.6" stop-color="#CECFCF"/>
<stop offset="0.8" stop-color="#A8AAAB"/>
<stop offset="1" stop-color="#898B8D"/>
</linearGradient>
<clipPath id="clip0_150_926">
<rect width="54" height="54" fill="white" transform="translate(3 3)"/>
</clipPath>
</defs>
</svg>
