<svg width="60" height="60" viewBox="0 0 60 60" fill="none" xmlns="http://www.w3.org/2000/svg">
<rect width="60" height="60" fill="#222222"/>
<path d="M30.6863 29.33L37.7399 21.8186L47.0905 21.6932C44.0104 15.6124 37.8228 11.4565 30.6863 11.4565C23.549 11.4565 17.3611 15.6131 14.2811 21.6948L23.3237 21.8186L30.6863 29.33Z" fill="white"/>
<path d="M14.2785 21.8368C12.9563 24.4381 12.1964 27.38 12.1773 30.4955C12.1325 37.831 16.1835 44.1622 22.1431 47.2735L30.5809 38.6381L14.2785 21.8368Z" fill="white"/>
<path d="M49.1697 30.4359C49.1697 27.2834 48.4168 24.3131 47.0922 21.6968L30.5575 38.7097L38.9558 47.4091C45.0108 44.2921 49.1697 37.8645 49.1697 30.4359Z" fill="white"/>
</svg>
