<svg width="60" height="60" viewBox="0 0 60 60" fill="none" xmlns="http://www.w3.org/2000/svg">
<rect width="60" height="60" fill="#010101"/>
<g clip-path="url(#clip0_168_371)">
<path d="M12.0806 29.0757H11.9517L10.0183 24.1667C9.64444 23.2201 9.37811 23.1453 9 23.1453V23H11.0623V23.1497C10.7057 23.1497 10.4007 23.273 10.6197 23.8586L12.188 28.0631L13.7219 23.9862C13.9796 23.3038 13.6875 23.1321 13.361 23.1321V23H15.0452V23.1408C14.6112 23.1408 14.332 23.4138 14.1687 23.8277L12.0806 29.0757ZM15.5346 29.0052V28.8819C15.9084 28.8819 16.1189 28.6178 16.1189 28.0015V24.7874C16.1189 24.1711 15.9084 23.907 15.5346 23.907V23.7837H17.2704V23.907C16.8966 23.907 16.686 24.1711 16.686 24.7874V28.0015C16.686 28.6178 16.8966 28.8819 17.2704 28.8819V29.0052H15.5346ZM20.9867 29.0757C19.397 29.0757 18.3915 27.8825 18.3915 26.4253C18.3915 24.9636 19.4142 23.7132 21.0898 23.7132C21.6183 23.7132 22.2714 23.8717 22.6451 24.0787V25.1089H22.5249C22.5249 24.6378 22.0866 23.9686 20.9695 23.9686C19.5903 23.9686 19.0404 25.0252 19.0404 26.2844C19.0404 27.5391 19.8696 28.8203 21.0554 28.8203C21.9105 28.8203 22.5034 28.3404 22.6795 27.8385L22.8084 27.8825C22.6366 28.521 22.0479 29.0757 20.9867 29.0757ZM24.6899 29.0052V28.8819C25.0594 28.8819 25.3559 28.6178 25.3559 28.0015V24.061H24.5997C23.779 24.061 23.663 24.6378 23.663 24.9195H23.5342V23.7924H27.7448V24.9195H27.6159C27.6159 24.6378 27.4998 24.061 26.6792 24.061H25.9229V28.0015C25.9229 28.6178 26.2194 28.8819 26.589 28.8819V29.0052H24.6899ZM28.2514 26.412C28.2514 25.2586 29.0419 23.7132 30.8809 23.7132C32.3718 23.7132 33.4889 24.8139 33.4889 26.3725C33.4889 27.526 32.6983 29.0713 30.8594 29.0713C29.3685 29.0713 28.2514 27.9706 28.2514 26.412ZM32.8358 26.5661C32.8358 24.9944 31.8691 23.9686 30.8293 23.9686C29.8282 23.9686 28.9045 24.5806 28.9045 26.2183C28.9045 27.7901 29.8712 28.8159 30.911 28.8159C31.9121 28.8159 32.8358 28.204 32.8358 26.5661ZM36.9386 27.9134C36.5776 27.2926 36.2167 26.5837 35.6496 26.5837H35.4863L35.4821 28.0015C35.4821 28.6178 35.7785 28.8819 36.148 28.8819V29.0052H34.3348V28.8819C34.7087 28.8819 34.9192 28.6178 34.9192 28.0015V24.7874C34.9192 24.1711 34.7087 23.907 34.3348 23.907V23.7837H36.105C37.0675 23.7924 37.7034 24.2239 37.7034 25.0692C37.7034 25.6856 37.2737 26.3152 36.5347 26.5089C36.9342 26.6718 37.2007 27.2178 37.4627 27.6844C38.06 28.7147 38.4509 28.9084 38.7087 28.8819L38.7345 29.0052C38.5885 29.0449 38.3521 29.0757 38.163 29.0757C37.5486 29.0757 37.2737 28.4857 36.9386 27.9134ZM37.1362 25.2101C37.1362 24.4617 36.655 24.0347 35.8473 24.0347H35.4863V26.3285H36.105C36.5905 26.3285 37.1362 25.8881 37.1362 25.2101ZM39.4043 29.0052V28.8819C39.7782 28.8819 39.9886 28.6178 39.9886 28.0015V24.7874C39.9886 24.1711 39.7782 23.907 39.4043 23.907V23.7837H41.1401V23.907C40.7663 23.907 40.5558 24.1711 40.5558 24.7874V28.0015C40.5558 28.6178 40.7663 28.8819 41.1401 28.8819V29.0052H39.4043ZM44.9897 29.0052V28.8776C45.3764 28.8776 45.6513 28.7499 45.4409 28.1599L45.0584 27.0769L43.4214 27.0461L43.1078 28.0102C42.8844 28.6882 43.1809 28.8819 43.5633 28.8819V29.0052H41.879V28.8819C42.2614 28.8819 42.5191 28.587 42.6696 28.1687L44.2593 23.7132H44.3839L45.9392 27.8518C46.2958 28.7983 46.5149 28.8819 46.863 28.8819V29.0052H44.9897ZM44.9553 26.7951L44.1991 24.6642L43.5074 26.7907L44.9553 26.7951ZM46.4071 24.6819C46.6305 24.4396 46.7465 24.2107 46.7465 24.0434C46.7465 23.9377 46.6906 23.788 46.5704 23.788C46.4758 23.744 46.3985 23.6472 46.3985 23.5239C46.3985 23.3698 46.5145 23.1761 46.738 23.1761C46.9441 23.1761 47.0902 23.3742 47.0902 23.6736C47.0902 24.0478 46.8797 24.3516 46.5875 24.6642L46.4887 24.7699L46.4071 24.6819ZM48.1814 28.7631V27.6184H48.3104C48.3104 28.226 48.8474 28.8159 49.4533 28.8159C50.1579 28.8159 50.5188 28.3404 50.5188 27.9089C50.5188 27.4863 50.3168 27.1077 49.4704 26.5441C48.5939 25.963 48.2845 25.439 48.2845 24.9195C48.2845 24.2371 48.8259 23.7132 49.6766 23.7132C50.1321 23.7132 50.4156 23.7969 50.7336 23.9026V24.9151H50.6133C50.6133 24.4089 50.2868 23.9686 49.5993 23.9686C49.0924 23.9686 48.7314 24.2724 48.7314 24.717C48.7314 25.1749 49.0322 25.4875 49.8313 26.0246C50.6477 26.5706 51 27.0945 51 27.6096C51 28.4725 50.3641 29.0713 49.3931 29.0713C48.9892 29.0713 48.4263 28.8468 48.1814 28.7631ZM16.5398 36.6654V35.3006H16.6859C16.6859 36.1239 17.296 36.7446 18.1768 36.7446C18.8986 36.7446 19.3627 36.3176 19.3627 35.7672C19.3627 35.2433 18.9244 34.7062 18.0608 34.1647C16.9351 33.4206 16.6558 32.8747 16.6558 32.2979C16.6558 31.4615 17.266 30.8715 18.3143 30.8715C18.7955 30.8715 19.1049 31.0036 19.44 31.1357V32.2803H19.3068C19.3068 31.73 18.9158 31.1357 18.237 31.1357C17.5065 31.1357 17.0855 31.5451 17.0855 32.0602C17.0855 32.5445 17.5023 32.932 18.4346 33.5616C19.4357 34.2352 19.8267 34.8251 19.8267 35.4767C19.8267 36.9032 18.3831 37 18.0006 37C17.5409 37 16.8148 36.7623 16.5398 36.6654ZM20.9134 36.9296V36.8063C21.2872 36.8063 21.4977 36.5421 21.4977 35.9258V32.7118C21.4977 32.0954 21.2872 31.8313 20.9134 31.8313V31.708H24.1358V32.7603H24.0069C24.0069 32.5049 23.9339 31.9854 23.0703 31.9854C23.0703 31.9854 22.0649 31.9721 22.0649 31.981V34.0942L22.9414 34.0986C23.4999 34.1031 23.5171 33.8081 23.5257 33.5483H23.6503L23.6546 34.9704H23.5257C23.5171 34.693 23.4999 34.4156 22.9414 34.3716C22.7909 34.3584 22.0649 34.3364 22.0649 34.3364V35.9302C22.0649 36.5334 22.0906 36.6831 23.0531 36.6786C23.7405 36.6786 24.0799 36.3088 24.0799 35.8333H24.2045V36.9296H20.9134ZM27.7919 37C26.2021 37 25.1968 35.8069 25.1968 34.3496C25.1968 32.888 26.2193 31.6376 27.895 31.6376C28.4234 31.6376 29.0765 31.796 29.4503 32.003V33.0332H29.33C29.33 32.5622 28.8918 31.8929 27.7747 31.8929C26.3955 31.8929 25.8456 32.9495 25.8456 34.2087C25.8456 35.4635 26.6748 36.7446 27.8606 36.7446C28.7156 36.7446 29.3085 36.2647 29.4847 35.7629L29.6136 35.8069C29.4418 36.4453 28.8531 37 27.7919 37ZM33.0633 35.8377C32.7024 35.2169 32.3415 34.5081 31.7744 34.5081H31.6111L31.6068 35.9258C31.6068 36.5421 31.9032 36.8063 32.2728 36.8063V36.9296H30.4596V36.8063C30.8334 36.8063 31.0439 36.5421 31.0439 35.9258V32.7118C31.0439 32.0954 30.8334 31.8313 30.4596 31.8313V31.708H32.2298C33.1922 31.7168 33.8281 32.1482 33.8281 32.9936C33.8281 33.61 33.3985 34.2396 32.6595 34.4333C33.059 34.5961 33.3254 35.1421 33.5875 35.6088C34.1847 36.639 34.5757 36.8328 34.8335 36.8063L34.8593 36.9296C34.7132 36.9692 34.4769 37 34.2878 37C33.6734 37 33.3985 36.4101 33.0633 35.8377ZM33.2609 33.1345C33.2609 32.386 32.7798 31.959 31.972 31.959H31.6111V34.2528H32.2298C32.7153 34.2528 33.2609 33.8125 33.2609 33.1345ZM35.4174 36.9296V36.8063C35.7912 36.8063 36.0017 36.5421 36.0017 35.9258V32.7118C36.0017 32.0954 35.7912 31.8313 35.4174 31.8313V31.708H38.6398V32.7603H38.5109C38.5109 32.5049 38.4379 31.9854 37.5742 31.9854C37.5742 31.9854 36.5689 31.9721 36.5689 31.981V34.0942L37.4453 34.0986C38.0039 34.1031 38.0211 33.8081 38.0297 33.5483H38.1543L38.1586 34.9704H38.0297C38.0211 34.693 38.0039 34.4156 37.4453 34.3716C37.295 34.3584 36.5689 34.3364 36.5689 34.3364V35.9302C36.5689 36.5334 36.5947 36.6831 37.5571 36.6786C38.2445 36.6786 38.5839 36.3088 38.5839 35.8333H38.7085V36.9296H35.4174ZM40.9124 36.9296V36.8063C41.2819 36.8063 41.5783 36.5421 41.5783 35.9258V31.9854H40.8222C40.0015 31.9854 39.8855 32.5622 39.8855 32.8439H39.7566V31.7168H43.9672V32.8439H43.8383C43.8383 32.5622 43.7223 31.9854 42.9017 31.9854H42.1455V35.9258C42.1455 36.5421 42.4419 36.8063 42.8115 36.8063V36.9296H40.9124Z" fill="white"/>
</g>
<defs>
<clipPath id="clip0_168_371">
<rect width="42" height="14" fill="white" transform="translate(9 23)"/>
</clipPath>
</defs>
</svg>
