<svg width="60" height="60" viewBox="0 0 60 60" fill="none" xmlns="http://www.w3.org/2000/svg">
<rect width="60" height="60" fill="#ED1C24"/>
<g clip-path="url(#clip0_1202_8589)">
<path d="M46.5095 18.1432C49.6104 22.8761 50.6948 28.6582 49.5232 34.2C48.3488 39.7389 45.0163 44.5784 40.267 47.6389C35.515 50.6994 29.7439 51.7241 24.2343 50.489L24.752 48.0214C22.3624 47.5104 20.0926 46.5322 18.079 45.1413C16.0654 43.7531 14.3406 41.9769 13.0109 39.9193C11.6785 37.8616 10.7629 35.5608 10.3188 33.1479C9.87193 30.7378 9.90463 28.2593 10.4142 25.8601L12.0463 26.2098C10.6213 32.9375 13.3733 39.8646 19.0245 43.7613C24.673 47.658 32.1063 47.7564 37.8556 44.01C43.6049 40.2636 46.5395 33.4102 45.2915 26.6471C44.0409 19.8812 38.8556 14.5389 32.1499 13.1098L33.0136 9.00269C38.5477 10.1203 43.4087 13.4104 46.5095 18.1432ZM26.7275 19.627C25.4005 19.873 24.1335 20.3757 23 21.1136C21.8665 21.8486 20.8883 22.8023 20.1226 23.9199C19.3569 25.0348 18.8174 26.2918 18.5368 27.6171L14.4523 26.7482C15.6676 21.0261 20.1962 16.602 25.9292 15.5363C31.6621 14.4679 37.4687 16.9682 40.6485 21.8705C43.8311 26.7755 43.7575 33.1178 40.4632 37.9436C37.1689 42.7721 31.3052 45.1358 25.5995 43.9335L25.9537 42.2966C27.594 42.6437 29.2861 42.6655 30.9346 42.3595C32.5831 42.0507 34.1553 41.4222 35.5613 40.5068C36.9673 39.5886 38.1798 38.4054 39.1308 37.0173C40.079 35.6318 40.7493 34.0715 41.0981 32.4265L38.6458 31.9073C38.9264 30.5847 38.9428 29.2184 38.6975 27.8877C38.4496 26.5596 37.9455 25.2917 37.2125 24.1577C36.4768 23.0209 35.5286 22.0426 34.4169 21.2775C33.3079 20.5096 32.0572 19.9713 30.7384 19.6899C29.4196 19.4029 28.0572 19.3838 26.7275 19.627ZM34.2098 32.186C34.6866 31.0766 34.8256 29.8497 34.6076 28.661C34.3896 27.475 33.8256 26.3765 32.9864 25.5103C32.1471 24.6441 31.0708 24.0456 29.8937 23.7942L29.3678 26.259C28.4414 26.0595 27.4741 26.2399 26.6785 26.7564C25.8828 27.2756 25.327 28.0899 25.1308 29.019C24.9319 29.948 25.1117 30.9208 25.6267 31.7188C26.1444 32.5167 26.9537 33.0741 27.8801 33.2763L27.3624 35.7357L27.0136 37.3752C23.3951 36.6019 20.8229 33.372 20.8692 29.6584C20.9183 25.9475 23.5749 22.7832 27.2125 22.1082C30.8501 21.4305 34.4605 23.4281 35.8311 26.8766C37.2016 30.3251 35.9537 34.2655 32.8501 36.2877L31.9264 34.894C32.9373 34.2382 33.733 33.2955 34.2098 32.186Z" fill="white"/>
</g>
<defs>
<clipPath id="clip0_1202_8589">
<rect width="40" height="42" fill="white" transform="translate(10 9)"/>
</clipPath>
</defs>
</svg>
