<svg width="60" height="60" viewBox="0 0 60 60" fill="none" xmlns="http://www.w3.org/2000/svg">
<rect width="60" height="60" fill="#1087C7"/>
<g clip-path="url(#clip0_168_350)">
<path d="M10.1196 10.1134H21.2064V28.5893L10.1319 39.6638V10.1318L10.1196 10.1134Z" fill="#FEFEFD"/>
<path d="M35.96 10.1134H23.6673V26.34C23.6672 26.9926 23.4078 27.6185 22.9462 28.0799L10.1318 40.8943V45.8163L35.2512 20.6969C35.7128 20.2355 35.9722 19.6096 35.9723 18.957V10.1318L35.96 10.1134ZM49.5078 49.5078V38.4333H31.0503L19.9758 49.5078H49.5078Z" fill="#FEFEFD"/>
<path d="M49.4954 23.6489V35.9723H33.2996C32.6469 35.9725 32.0211 36.2318 31.5597 36.6934L18.7452 49.5078H13.8232L38.9426 24.3884C39.4041 23.9268 40.0299 23.6675 40.6826 23.6673H49.5077L49.4954 23.6489Z" fill="#FEFEFD"/>
<path d="M49.4955 10.1134H38.4333V17.7265C38.4332 18.3791 38.1738 19.005 37.7122 19.4664L10.1318 47.0468V49.5078H12.5928L40.1732 21.9274C40.6347 21.4658 41.2605 21.2065 41.9132 21.2063H49.5078V10.1318L49.4955 10.1134Z" fill="#FEFEFD"/>
</g>
<defs>
<clipPath id="clip0_168_350">
<rect width="40" height="40" fill="white" transform="translate(10 10)"/>
</clipPath>
</defs>
</svg>
