<svg width="60" height="60" viewBox="0 0 60 60" fill="none" xmlns="http://www.w3.org/2000/svg">
<rect width="60" height="60" fill="black"/>
<g clip-path="url(#clip0_168_140)">
<path fill-rule="evenodd" clip-rule="evenodd" d="M50 34.7052V36.3739C50 36.4511 49.9226 36.5256 49.8478 36.5256H47.5654C47.4881 36.5256 47.4107 36.4511 47.4107 36.3739V35.312C47.4107 34.7438 47.5268 33.9082 46.8021 33.9082C46.4977 33.9082 46.3095 34.0213 46.1934 34.2861C46.0799 34.5535 46.0799 34.8569 46.0799 35.2349V43.6195C46.0799 43.6966 46.0026 43.7712 45.9278 43.7712H43.5293C43.4545 43.7712 43.3772 43.6966 43.3772 43.6195V31.9721C43.3772 31.8975 43.4545 31.8204 43.5293 31.8204H45.9278C46.0026 31.8204 46.0799 31.8975 46.0799 31.9721V32.6946C46.2321 32.4272 46.3843 32.2395 46.5751 32.0492C46.9181 31.7844 47.3359 31.6687 47.8311 31.6687C48.5919 31.6687 49.1257 31.8975 49.5048 32.4272C49.8478 32.9594 50 33.6793 50 34.7052ZM46.1573 16.1517V30.5682C46.1573 30.6454 46.0799 30.7199 46.0026 30.7199H43.5293C43.4545 30.7199 43.3772 30.6454 43.3772 30.5682V16.1517C43.3772 16.0771 43.4545 16 43.5293 16H46.0026C46.0799 16 46.1573 16.0771 46.1573 16.1517ZM13.8814 34.173V40.1304C13.8814 40.4724 13.9201 40.7372 13.9587 40.9275C14.0335 41.1923 14.2631 41.4211 14.5287 41.4211H15.5577C15.6325 41.4211 15.7099 41.4957 15.7099 41.5728V43.658C15.7099 43.7335 15.6712 43.7712 15.5938 43.7712H13.6905C12.7028 43.7712 12.0554 43.5449 11.6738 43.0127C11.3333 42.5216 11.1425 41.7991 11.1425 40.6986V34.173H10.1522C10.0774 34.173 10 34.0984 10 34.0213V32.0107C10 31.9361 10.0387 31.859 10.1522 31.8204C11.0651 31.517 11.3694 30.4165 11.3694 29.2415C11.3694 29.1644 11.4081 29.0898 11.5216 29.0898H13.9201C13.9974 29.0898 14.0722 29.1644 14.0722 29.2415C14.0722 30.4165 13.8066 31.2522 13.1979 31.8204H15.5577C15.6325 31.8204 15.7099 31.8975 15.7099 31.9721V34.0213C15.7099 34.0984 15.6325 34.173 15.5577 34.173H13.8814ZM35.1941 31.9361L33.5177 43.6966C33.4816 43.7712 33.4429 43.7712 33.3656 43.7712H30.4745C30.3972 43.7712 30.3224 43.7712 30.3224 43.6966L29.4455 35.4637L28.4191 43.6966C28.4191 43.7712 28.3804 43.7712 28.3056 43.7712H25.5642C25.4894 43.7712 25.4507 43.7712 25.412 43.6966L23.6995 31.9361C23.6995 31.8975 23.6995 31.8204 23.813 31.8204H26.2863C26.3636 31.8204 26.4023 31.859 26.4023 31.9361L27.2379 40.0533L28.1535 31.9361C28.1535 31.859 28.1913 31.8204 28.2669 31.8204H30.6267C30.7015 31.8204 30.7402 31.8975 30.7402 31.9361L31.6918 39.9787L32.53 31.9361C32.53 31.8975 32.5661 31.8204 32.6435 31.8204H35.078C35.1941 31.8204 35.1941 31.8975 35.1941 31.9361ZM35.5371 16.1517L33.4043 30.5682C33.4043 30.6839 33.3295 30.7199 33.2521 30.7199H29.675C29.5977 30.7199 29.5229 30.6839 29.5229 30.5682L28.4578 20.7438L27.3901 30.5682C27.3901 30.6454 27.354 30.7199 27.2379 30.7199H23.6609C23.5861 30.7199 23.5087 30.6454 23.5087 30.5682L21.3785 16.1517C21.3785 16.1131 21.3398 16 21.4919 16H24.156C24.2334 16 24.2695 16.0771 24.2695 16.1517L25.4507 26.4724L26.7066 16.1517C26.7066 16.0386 26.7814 16 26.8588 16H30.0542C30.1702 16 30.2063 16.0771 30.2063 16.1517L31.4262 26.5469L32.6435 16.1131C32.6435 16.0771 32.6821 16 32.7569 16H35.421C35.5732 16 35.5371 16.1131 35.5371 16.1517ZM49.9974 16.1517V30.5682C49.9974 30.6454 49.9226 30.7199 49.8453 30.7199H47.372C47.2972 30.7199 47.2199 30.6454 47.2199 30.5682V16.1517C47.2199 16.0771 47.2972 16 47.372 16H49.8453C49.9226 16 49.9974 16.0771 49.9974 16.1517ZM38.2373 25.4465V27.2694C38.2373 28.3673 38.5055 28.5961 38.9981 28.5961C39.6454 28.5961 39.7228 28.141 39.7228 27.2694V26.4338C39.7228 26.3567 39.7976 26.2821 39.8749 26.2821H42.3482C42.4255 26.2821 42.5003 26.3567 42.5003 26.4338V26.6986C42.5003 29.2801 41.4739 30.8716 38.9981 30.8716C36.5248 30.8716 35.4597 29.3161 35.4597 26.6986V22.6773C35.4597 19.9467 36.4861 18.5429 38.9981 18.5429C41.51 18.5429 42.5003 20.0599 42.5003 22.6773V25.2948C42.5003 25.4105 42.4255 25.4465 42.3482 25.4465H38.2373ZM38.2373 23.3972H39.7228V22.1091C39.7228 21.0832 39.6067 20.8184 38.9981 20.8184C38.5029 20.8184 38.2373 21.0086 38.2373 22.1091V23.3972ZM38.2373 38.5723V40.3927C38.2373 41.4931 38.5029 41.7219 38.9981 41.7219C39.6454 41.7219 39.7228 41.2669 39.7228 40.3927V39.5596C39.7228 39.4825 39.7976 39.4079 39.8749 39.4079H42.3482C42.423 39.4079 42.5003 39.4825 42.5003 39.5596V39.8244C42.5003 42.4059 41.4713 43.9974 38.9981 43.9974C36.5248 43.9974 35.4597 42.4419 35.4597 39.8244V35.8031C35.4597 33.0725 36.4861 31.6687 38.9981 31.6687C41.51 31.6687 42.5003 33.1857 42.5003 35.8031V38.4206C42.5003 38.5337 42.423 38.5723 42.3482 38.5723H38.2373ZM38.2373 36.5231H39.7202V35.2349C39.7202 34.209 39.6067 33.9442 38.9981 33.9442C38.5029 33.9442 38.2373 34.1344 38.2373 35.2349V36.5231ZM23.47 35.7646V39.8219C23.47 42.555 22.3662 43.9589 19.9678 43.9589C17.3424 43.9589 16.4294 42.2516 16.4294 39.8219V35.7646C16.4294 32.9928 17.608 31.6661 19.9678 31.6661C22.3275 31.6661 23.47 32.9928 23.47 35.7646ZM20.7286 35.1938C20.7286 34.7387 20.6538 34.3607 20.5016 34.1704C20.4242 34.0187 20.236 33.9416 19.9678 33.9416C19.6634 33.9416 19.5113 34.0187 19.3978 34.1704C19.2456 34.3607 19.207 34.7387 19.207 35.1938V40.3927C19.207 40.8863 19.2456 41.2257 19.3978 41.416C19.5113 41.6062 19.6634 41.6808 19.9678 41.6808C20.236 41.6808 20.4242 41.6062 20.5016 41.416C20.6529 41.2257 20.7286 40.8846 20.7286 40.3927V35.1938Z" fill="white"/>
</g>
<defs>
<clipPath id="clip0_168_140">
<rect width="40" height="28" fill="white" transform="translate(10 16)"/>
</clipPath>
</defs>
</svg>
