<svg width="60" height="60" viewBox="0 0 60 60" fill="none" xmlns="http://www.w3.org/2000/svg">
<rect width="60" height="60" fill="black"/>
<g clip-path="url(#clip0_1772_9409)">
<path d="M10.2222 32.1553V24.2288H13.0916V32.1553C13.0916 33.5419 13.7472 34.0344 14.6148 34.0344C15.4824 34.0344 16.1379 33.5419 16.1379 32.1553V24.2288H19.0074V32.1553C19.0074 33.5419 19.6806 34.0344 20.5306 34.0344C21.3806 34.0344 22.0537 33.5419 22.0537 32.1553V24.2288H24.9232V32.1553C24.9232 35.3478 23.1164 36.7709 20.7785 36.7709C19.3793 36.7709 18.2632 36.2052 17.5724 35.1289C16.8816 36.2052 15.7656 36.7709 14.3664 36.7709C12.029 36.7709 10.2222 35.3478 10.2222 32.1553Z" fill="#CF1F39"/>
<path d="M38.222 31.4818C38.2723 31.1543 38.299 30.8193 38.2973 30.4775C38.2856 27.0191 35.5443 24.2162 32.1871 24.2288C28.8298 24.2409 26.1083 27.0648 26.1206 30.5227C26.1324 33.9805 28.8742 36.7835 32.2309 36.7708C34.7071 36.7622 36.8356 35.2224 37.7786 33.0285L34.4566 33.0407C33.8652 33.5959 33.0825 33.9392 32.2207 33.9425C30.7157 33.9477 29.4367 32.9229 29.0141 31.5131L38.222 31.4818ZM32.1967 27.056C33.5532 27.0508 34.7253 27.8835 35.2532 29.0798L29.1541 29.1023C29.6734 27.9022 30.8402 27.061 32.1967 27.056Z" fill="#CF1F39"/>
<path d="M49.9506 24.2288H46.2332L43.5764 28.2451L40.9195 24.2288H37.2017L41.3496 30.5002L37.2017 36.7714H40.9195L43.5764 32.7551L46.2332 36.7714H49.9506L45.802 30.5002L49.9506 24.2288ZM40.5846 36.1177H38.4016L42.1173 30.5002L38.4016 24.8819H40.5846L44.3003 30.4995L40.5846 36.1177Z" fill="#CF1F39"/>
<path d="M40.2491 25.5356H39.6016L42.8851 30.5001L39.6016 35.4645H40.2491L43.5326 30.5001L40.2491 25.5356Z" fill="#CF1F39"/>
<path d="M45.0678 30.5002V35.0085L43.5767 32.7541L45.0678 30.5002Z" fill="#8E1928"/>
</g>
<defs>
<clipPath id="clip0_1772_9409">
<rect width="40" height="13" fill="white" transform="translate(10 24)"/>
</clipPath>
</defs>
</svg>
