<svg width="60" height="60" viewBox="0 0 60 60" fill="none" xmlns="http://www.w3.org/2000/svg">
<rect width="60" height="60" fill="#008752"/>
<g clip-path="url(#clip0_1403_8926)">
<path fill-rule="evenodd" clip-rule="evenodd" d="M30.6133 37.7181H33.6756L34.0046 37.7305L34.1481 37.8292L34.2415 37.976L34.1495 38.2106L34.0236 38.4534L33.9992 38.6647L33.9329 38.8266L33.8178 38.9638L33.5592 39.0091L33.2668 39.0022H31.8615L31.584 38.994L31.3403 39.0296L31.2523 39.1023L31.1832 39.1915L31.1507 39.5688L31.1711 39.9666L31.2157 40.0585L31.2279 40.1244L31.2577 40.1683V40.1875H32.0768L32.2974 40.1779L32.5005 40.2149L32.5966 40.3274L32.621 40.4838L32.6237 40.5236L32.602 40.5428L32.5154 40.6896L32.4477 40.8474L32.315 41.0874L32.2947 41.2287L32.2054 41.3536L32.0835 41.4469L31.852 41.4839L31.5948 41.4688L31.3565 41.4962L31.2591 41.5553L31.1819 41.6609L31.148 42.0587L31.1602 42.4991V44.9877L30.5402 44.9945L30.0014 44.9548L29.9242 44.8464L29.9107 44.4746V38.7059L29.9066 38.581L29.931 38.4877L30.0609 38.26L30.1462 38.0145L30.2884 37.9541L30.4319 37.8334L30.6133 37.7181ZM10.111 37.8951L10.3777 37.9129L10.5469 38.0378L10.9125 38.2326L11.102 38.3657L11.2184 38.5001L11.2536 38.8979L11.2428 39.3383V43.1507L11.2361 43.3634L11.2766 43.5554L11.3024 43.5993L11.3403 43.6254L11.3687 43.7297L11.4486 43.7983L11.8466 43.8339L12.2433 43.7983L12.3638 43.6611L12.4247 43.4855L12.4328 39.2395V38.448L12.426 38.2367L12.4477 38.0391L12.4964 37.9623L12.575 37.9129H12.816L12.973 38.0309L13.2451 38.1599L13.4725 38.3807L13.5849 38.5138L13.6025 38.8047V39.5153V43.1507L13.6133 43.5047L13.6607 43.598L13.7352 43.7406L13.7893 43.7914L13.876 43.8175L14.2659 43.8325L14.4635 43.8037L14.6003 43.7283L14.7099 43.4471L14.7154 38.9418V38.2902L14.7127 38.142L14.737 38.009L14.802 37.939L14.8954 37.9019L15.0985 37.9129L15.2528 38.0336L15.6129 38.2683L15.9325 38.5756L15.9649 38.8211L15.9731 39.2917L15.9636 40.1079V43.9217L15.9473 44.2908L15.8918 44.3978L15.7389 44.6749L15.4884 44.8697L15.2406 44.9808L12.3746 44.9877H11.2225L10.6986 44.9767L10.5009 44.8999L10.3033 44.7641L10.1516 44.583L10.0921 44.3758H10.0718L10.0149 44.1015L10 43.6089L10.0136 42.7351V37.9747L10.111 37.8951ZM26.7116 39.1997L26.8266 39.2464L26.9011 39.3342L26.9566 39.5949L26.9255 40.1683L27.0487 40.2492L27.4034 40.278L27.7852 40.2671L28.0573 40.2863L28.0613 40.4715L28.0342 40.562L27.9801 40.6018L27.953 40.8158L27.842 41.108L27.6904 41.3769L27.5388 41.5278L27.3533 41.5525L27.161 41.5594L27.004 41.628L26.9647 41.6376L26.9458 41.6691L26.9471 43.6624L27.0148 43.7708L27.2585 43.8929L27.7039 43.8957L27.9422 43.9149L28.0613 43.9848L28.0437 44.133L27.999 44.2181L27.9882 44.3525L27.9219 44.4787L27.8989 44.6214L27.8041 44.7942L27.7459 44.9877H26.7712L26.5532 44.9945L26.3555 44.963L26.078 44.7064L26.0035 44.6845L25.9507 44.6516H25.9318L25.8871 44.4801L25.8533 44.2963L25.8343 44.277L25.7788 44.1687L25.7504 44.0507L25.6895 43.9382L25.6678 43.5993L25.6786 43.2495V41.5896L25.5595 41.5511L25.4092 41.5525H25.2616L25.152 41.5114L25.1141 41.3906L25.1235 41.2562L25.2589 40.9914L25.2873 40.8268L25.3496 40.7335L25.4417 40.514L25.55 40.3151L25.6353 40.2739L25.7368 40.2671L25.7558 40.2465H25.7761L25.7531 40.0407L25.7761 39.8404L25.8885 39.6977L26.0861 39.54L26.4625 39.3081L26.587 39.2615L26.7116 39.1997ZM17.27 40.1875H18.8499L19.688 40.1957L19.8775 40.2822L20.0386 40.4248L20.3256 40.7253L20.3622 40.8762L20.4176 40.9996L20.4366 41.2795L20.4298 41.5703V42.2618L20.4136 42.6514L20.3635 42.7405L20.1983 43.0341L19.9073 43.2015L19.7854 43.2591L19.3915 43.2811L18.988 43.2701H18.2651L18.2353 43.2715L18.2258 43.2495H18.2069L18.1365 43.03L18.1283 42.4785L18.1432 42.1479L18.1947 42.0725L18.2705 42.0217L18.5575 42.0052L19.0638 42.0039L19.2452 41.9791L19.2994 41.9243L19.3576 41.8859L19.3197 41.7514L19.229 41.6527L18.9677 41.6307H18.3436L18.1053 41.6225L17.8806 41.6458L17.8061 41.687L17.7574 41.7473L17.756 43.4471L17.7574 43.6048L17.8562 43.8024V43.823H20.3919H20.549L20.6641 43.8627L20.6871 44.0356L20.6641 44.2098L20.6113 44.3045L20.6072 44.3511L20.5869 44.3758L20.461 44.6913L20.3811 44.8409L20.2579 44.9602L19.9966 44.9959L19.7082 44.9877H17.9144L17.5746 45L17.2592 44.9671L17.1401 44.8711L17.0236 44.8176L16.8761 44.6982L16.8097 44.6818L16.7637 44.6516H16.7447L16.6676 44.4787L16.5945 44.3347L16.5877 42.4593V41.4716L16.5958 40.9393L16.761 40.5716L16.8287 40.4907L16.9235 40.433L17.1211 40.3439L17.27 40.1875ZM33.13 40.1875H34.4757L34.7181 40.1765L34.9387 40.2149L35.0091 40.2794L35.0457 40.3658L34.9171 40.809L34.8088 41.0627L34.7289 41.1753L34.714 41.2644L34.6504 41.3138L34.6477 41.3961L34.6125 41.451L34.205 41.4647L33.9883 41.4674L33.8449 41.5072L33.7569 41.5813L33.6946 41.676L33.6756 42.0244V44.9877L33.0759 44.9986L32.7537 44.9794L32.5574 44.915L32.5235 44.8628L32.5046 44.5336V43.9011L32.5073 41.2932L32.5465 41.1327L32.5845 40.9777L32.6982 40.8158L32.7821 40.6375L32.8931 40.5085L32.9405 40.3905L33.13 40.1875ZM35.4897 40.1875H36.8558L37.1522 40.1765L37.4365 40.204L37.6071 40.3L37.7669 40.4221L37.8819 40.4728L38.1243 40.7074L38.3003 40.9845L38.3355 41.1478L38.3828 41.2384L38.4113 41.3865L38.4627 41.4949L38.4831 41.8132L38.4749 42.1424V43.4073L38.4871 43.7791L38.4573 44.133L38.3409 44.3676L38.2976 44.5432L38.1081 44.7627L37.8914 44.9602L37.6504 44.9959L37.3824 44.9877L35.3544 44.9808L35.2122 44.9287L35.0755 44.8642L34.9184 44.8244L34.8304 44.6872L34.7641 44.5281L34.7005 44.454L34.6463 44.3717L34.6233 44.1001L34.5461 43.9382L34.5272 43.6583L34.5339 43.3689L34.5299 43.1672L34.5516 42.9792L34.6653 42.8366L34.7749 42.6925L34.886 42.3605V42.34L35.0091 42.2988L35.1161 42.2288L35.3381 42.0999L36.0976 42.0766L36.807 42.115L36.8503 42.2796L36.8639 42.5937L36.8558 43.1507L36.8585 43.2125L36.8368 43.2495V43.2701H36.2506L35.9257 43.2865L35.8268 43.3456L35.7592 43.4416L35.728 43.6789L35.7659 43.7516L35.8336 43.7941L35.992 43.838L36.0976 43.8888L36.6364 43.908L37.1333 43.8641L37.2321 43.7434L37.2903 43.6021L37.3147 43.2536L37.3039 42.8942L37.2971 41.8872L37.2429 41.7418L37.2267 41.4716H35.6454L35.3462 41.4798L35.0782 41.4441L35.0159 41.3303L35.047 41.1753L35.1757 40.9077L35.2068 40.7623L35.2718 40.562V40.5003L35.2948 40.4646L35.4897 40.1875ZM44.0148 40.1875H45.3997L45.6867 40.1779L45.9616 40.2012L46.4219 40.3905L46.6331 40.5346L46.8131 40.7102L46.8646 40.8268L46.985 40.9571L47.0839 41.0998L47.1082 41.8255L47.0636 42.5101L46.9999 42.5787L46.9945 42.7021L46.9458 42.7543L46.8632 42.7954H46.8429L46.8402 42.8791L46.805 42.9326L46.6872 42.9532L46.6913 43.0355L46.6683 43.0918V43.1109L46.4652 43.1343L46.3745 43.2043L46.2756 43.2591H45.7517L45.5554 43.1933L45.1222 43.196L44.9137 43.159L44.8379 43.1151L44.7932 43.0451L44.7756 42.6966L44.7675 42.425L44.7905 42.1671L44.8392 42.0875L44.9272 42.0368L45.1777 41.9943L45.6922 42.0025L45.9101 41.9366L45.9561 41.9312L45.9859 41.9065H46.0035L45.9697 41.6691L45.9155 41.5799L45.8235 41.499L45.6326 41.4633L45.4187 41.4716H44.6389L44.5157 41.4674L44.425 41.4908H44.4047L44.3356 41.7089L44.3275 42.7748L44.3153 43.1439L44.3383 43.5047L44.4074 43.6707L44.5292 43.8024L44.8257 43.8339L45.1466 43.823H46.805L46.958 43.8202L47.0771 43.8422H47.0974V43.9807L47.1773 43.9766L47.2328 43.9999H47.2531L47.2369 44.2921L47.0812 44.6255L47.0189 44.7119L46.9945 44.8519L46.9729 44.9081L46.9065 44.963L46.5979 44.9986L46.258 44.9877H44.7174L44.3613 44.9986L44.0175 44.9753L43.6763 44.8148L43.5951 44.738L43.5044 44.6845L43.457 44.6776L43.4299 44.6516H43.4096L43.3663 44.5144L43.3324 44.3758L43.235 44.2949L43.17 44.1947L43.1564 43.882V43.2495L43.1618 41.215L43.2566 40.9791L43.3121 40.8981L43.3108 40.8474L43.3324 40.8199L43.4421 40.6279L43.6005 40.4673L43.7156 40.4166L43.8482 40.2986L44.0148 40.1875ZM48.1696 40.1875H49.4192L49.6792 40.1765L49.9107 40.2259L49.9797 40.3233L50 40.4715L49.9418 40.8364L49.8118 41.1684L49.7455 41.274L49.6913 41.3138L49.694 41.3947L49.671 41.451V41.4716L49.2676 41.4606L48.9048 41.4949L48.8046 41.5717L48.7342 41.676L48.7057 41.9408L48.7166 42.222V44.7901L48.7193 44.8615L48.6963 44.9095L48.565 44.9671L48.4147 44.9904L48.0925 44.9877L47.7675 44.9973L47.6132 44.974L47.5022 44.8971L47.4602 44.5418L47.467 44.1398V41.6883L47.4602 41.3879L47.4792 41.0984L47.597 40.905L47.6687 40.7994L47.7012 40.6992L47.7202 40.6622L47.819 40.5359L47.9381 40.4262L48.1696 40.1875ZM21.8351 40.2671H24.6822L24.9719 40.2794L25.0518 40.3576L25.068 40.4948L25.0369 40.6238L24.976 40.6814L24.9611 40.7692L24.8975 40.8199L24.8798 41.0106L24.7634 41.167L24.7066 41.3591L24.6673 41.4592L24.6091 41.5237L24.4209 41.5566L24.2151 41.5498H22.9858L22.7679 41.5429L22.5689 41.5745L22.4944 41.6472L22.4674 41.7473L22.4836 41.8831L22.5689 41.9791L22.7219 42.008L22.8884 42.0039L23.5328 42.0052L23.8604 42.0162L23.966 42.0683L24.1434 42.1191L24.3627 42.3207L24.5184 42.4127L24.6416 42.5485L24.6741 42.7735L24.7255 42.8791L24.7594 43.0451L24.8095 43.1521L24.8189 43.5253L24.8095 44.0973L24.7621 44.2071L24.7269 44.3703L24.67 44.5144L24.6687 44.5953L24.6443 44.6516V44.6722L24.4967 44.727L24.3857 44.8285L24.2828 44.9287L24.1556 44.9822L20.8021 44.9877L20.8224 44.8587L20.8793 44.7709H20.8996L20.9077 44.6269L20.9605 44.5089L20.9971 44.3456L21.0431 44.2716L21.1162 44.1124L21.1528 43.9711L21.2381 43.8531L21.4439 43.8175L21.6794 43.823H23.5518L23.6018 43.8243L23.6289 43.8024H23.6492L23.6519 43.5157L23.6222 43.3826L23.5382 43.2948L23.3203 43.2605L23.0833 43.2701L22.401 43.2687L22.0923 43.2564L22.0003 43.2084L21.8053 43.1109L21.6239 42.9902L21.4926 42.9107L21.4736 42.8434L21.4439 42.7954L21.3667 42.6569L21.3071 42.5526L21.2895 42.4195L21.2232 42.2974L21.211 41.8077L21.2002 41.4469L21.2232 41.0984L21.3667 40.8199L21.364 40.7692L21.387 40.7404L21.4993 40.5359L21.5847 40.4701L21.6767 40.4193L21.8351 40.2671ZM39.8802 40.2671H42.6691L42.9561 40.2835L43.0129 40.3302L43.0332 40.4097L42.9953 40.6251L42.8654 41.0175L42.8451 41.0367L42.795 41.1368L42.7679 41.2466L42.6866 41.3591L42.577 41.4469L42.3306 41.4825L42.0639 41.4716L40.4068 41.4743L40.2769 41.5017L40.1726 41.5896L40.1916 41.8859L40.2728 41.9874L40.3743 42.0628L40.549 42.0875L40.7372 42.0834H41.5562L41.9651 42.0958L42.1045 42.1849L42.2304 42.3057L42.3035 42.3276L42.3563 42.3605H42.3766L42.3726 42.473L42.3956 42.5581V42.5787L42.5513 42.6363L42.6244 42.875L42.6298 43.7036L42.6149 44.1138L42.5553 44.2249L42.5228 44.3895L42.401 44.5363L42.3509 44.6475L42.2318 44.7901L42.091 44.9081L41.8798 44.9781L41.6347 44.9986L41.127 44.9877H38.6117L38.6211 44.7133L38.6766 44.5898L38.7118 44.4293L38.8445 44.2387L38.9 44.1398L38.9231 44.0205L39.1451 43.8408L39.4348 43.8106L39.7421 43.823H41.1663L41.3207 43.8243L41.4398 43.8024H41.4588V43.3085L41.4398 43.2893V43.2701L39.9371 43.2646L39.7827 43.1891L39.6257 43.1151L39.5648 43.1164L39.5282 43.0918H39.5079L39.5106 43.0204L39.4903 42.9738V42.9532L39.3711 42.897L39.3007 42.7858L39.1234 42.5842L39.0896 42.3619L39.0327 42.2192L39.0205 41.7679L39.0327 41.414L39.1274 41.1999L39.2371 40.99L39.2696 40.824L39.3522 40.6526L39.4578 40.525L39.5959 40.4358L39.8802 40.2671Z" fill="black"/>
<mask id="mask0_1403_8926" style="mask-type:luminance" maskUnits="userSpaceOnUse" x="10" y="37" width="40" height="8">
<path fill-rule="evenodd" clip-rule="evenodd" d="M30.6133 37.718H33.6756L34.0046 37.7304L34.1481 37.8292L34.2415 37.976L34.1495 38.2106L34.0236 38.4534L33.9992 38.6646L33.9329 38.8266L33.8178 38.9637L33.5592 39.009L33.2668 39.0022H31.8615L31.584 38.994L31.3403 39.0296L31.2523 39.1023L31.1832 39.1915L31.1508 39.5687L31.1711 39.9666L31.2157 40.0585L31.2279 40.1243L31.2577 40.1682V40.1875H32.0768L32.2974 40.1778L32.5005 40.2149L32.5966 40.3274L32.621 40.4838L32.6237 40.5236L32.6021 40.5428L32.5154 40.6895L32.4477 40.8473L32.315 41.0874L32.2948 41.2287L32.2054 41.3535L32.0835 41.4468L31.852 41.4839L31.5948 41.4688L31.3565 41.4962L31.2591 41.5552L31.1819 41.6608L31.148 42.0586L31.1602 42.4991V44.9876L30.5402 44.9945L30.0014 44.9547L29.9242 44.8464L29.9107 44.4746V38.7058L29.9066 38.581L29.931 38.4877L30.0609 38.26L30.1462 38.0144L30.2884 37.954L30.4319 37.8333L30.6133 37.718ZM10.111 37.8951L10.3777 37.9129L10.5469 38.0377L10.9125 38.2325L11.102 38.3656L11.2184 38.5L11.2536 38.8979L11.2428 39.3383V43.1507L11.236 43.3634L11.2766 43.5554L11.3024 43.5993L11.3403 43.6254L11.3687 43.7296L11.4486 43.7982L11.8466 43.8339L12.2433 43.7982L12.3638 43.661L12.4247 43.4854L12.4328 39.2395V38.4479L12.426 38.2367L12.4477 38.0391L12.4964 37.9623L12.575 37.9129H12.816L12.973 38.0309L13.2451 38.1598L13.4726 38.3807L13.5849 38.5138L13.6025 38.8046V39.5152V43.1507L13.6134 43.5046L13.6607 43.5979L13.7352 43.7406L13.7894 43.7913L13.876 43.8174L14.2659 43.8325L14.4635 43.8037L14.6003 43.7283L14.7099 43.447L14.7154 38.9418V38.2902L14.7127 38.142L14.737 38.0089L14.802 37.9389L14.8954 37.9019L15.0985 37.9129L15.2528 38.0336L15.6129 38.2682L15.9325 38.5755L15.9649 38.821L15.9731 39.2916L15.9636 40.1078V43.9217L15.9473 44.2907L15.8918 44.3977L15.7389 44.6749L15.4884 44.8696L15.2406 44.9807L12.3746 44.9876H11.2225L10.6986 44.9766L10.5009 44.8999L10.3033 44.764L10.1516 44.5829L10.0921 44.3758H10.0718L10.0149 44.1014L10 43.6089L10.0136 42.735V37.9746L10.111 37.8951ZM26.7116 39.1997L26.8267 39.2463L26.9011 39.3342L26.9566 39.5948L26.9255 40.1682L27.0487 40.2492L27.4034 40.278L27.7851 40.267L28.0573 40.2862L28.0613 40.4714L28.0343 40.5619L27.9801 40.6018L27.953 40.8158L27.842 41.1079L27.6904 41.3769L27.5388 41.5278L27.3533 41.5525L27.161 41.5594L27.004 41.6279L26.9647 41.6376L26.9458 41.669L26.9471 43.6624L27.0148 43.7708L27.2585 43.8929L27.7039 43.8957L27.9422 43.9148L28.0613 43.9848L28.0437 44.133L27.9991 44.218L27.9882 44.3524L27.9219 44.4787L27.8989 44.6214L27.8041 44.7942L27.7459 44.9876H26.7711L26.5532 44.9945L26.3555 44.9629L26.078 44.7064L26.0035 44.6844L25.9507 44.6515H25.9318L25.8871 44.48L25.8532 44.2962L25.8343 44.277L25.7788 44.1686L25.7504 44.0506L25.6894 43.9381L25.6678 43.5993L25.6786 43.2495V41.5895L25.5595 41.5511L25.4092 41.5525H25.2616L25.152 41.5113L25.1141 41.3905L25.1235 41.2562L25.2589 40.9914L25.2873 40.8268L25.3496 40.7334L25.4417 40.514L25.55 40.315L25.6353 40.2739L25.7368 40.267L25.7558 40.2464H25.7761L25.7531 40.0407L25.7761 39.8403L25.8884 39.6977L26.0861 39.5399L26.4625 39.308L26.587 39.2614L26.7116 39.1997ZM17.27 40.1875H18.85L19.688 40.1957L19.8775 40.2821L20.0386 40.4248L20.3256 40.7252L20.3621 40.8761L20.4177 40.9996L20.4366 41.2794L20.4299 41.5703V42.2617L20.4136 42.6513L20.3635 42.7405L20.1983 43.034L19.9073 43.2014L19.7854 43.259L19.3915 43.2811L18.988 43.27H18.2651L18.2353 43.2714L18.2258 43.2495H18.2069L18.1365 43.0299L18.1283 42.4785L18.1433 42.1478L18.1947 42.0724L18.2705 42.0216L18.5575 42.0051L19.0638 42.0038L19.2453 41.9791L19.2994 41.9243L19.3576 41.8858L19.3197 41.7513L19.229 41.6526L18.9677 41.6307H18.3436L18.1053 41.6224L17.8806 41.6458L17.8061 41.6869L17.7574 41.7472L17.756 43.447L17.7574 43.6048L17.8562 43.8023V43.8229H20.3919H20.549L20.6641 43.8627L20.6871 44.0356L20.6641 44.2098L20.6113 44.3044L20.6072 44.3511L20.5869 44.3758L20.461 44.6913L20.3811 44.8408L20.2579 44.9602L19.9966 44.9959L19.7082 44.9876H17.9145L17.5746 45L17.2592 44.967L17.1401 44.8711L17.0237 44.8175L16.8761 44.6981L16.8097 44.6817L16.7637 44.6515H16.7447L16.6676 44.4787L16.5945 44.3346L16.5877 42.4593V41.4715L16.5958 40.9392L16.761 40.5716L16.8287 40.4906L16.9235 40.433L17.1211 40.3438L17.27 40.1875ZM33.13 40.1875H34.4757L34.7181 40.1765L34.9387 40.2149L35.0091 40.2793L35.0457 40.3658L34.9171 40.8089L34.8088 41.0627L34.7289 41.1752L34.714 41.2644L34.6504 41.3138L34.6477 41.3961L34.6125 41.4509L34.205 41.4646L33.9884 41.4674L33.8449 41.5072L33.7569 41.5813L33.6946 41.6759L33.6756 42.0244V44.9876L33.0759 44.9986L32.7537 44.9794L32.5574 44.9149L32.5235 44.8628L32.5046 44.5335V43.9011L32.5073 41.2932L32.5465 41.1327L32.5845 40.9777L32.6982 40.8158L32.7821 40.6375L32.8931 40.5084L32.9405 40.3904L33.13 40.1875ZM35.4898 40.1875H36.8558L37.1522 40.1765L37.4365 40.2039L37.6071 40.2999L37.7669 40.422L37.882 40.4728L38.1243 40.7074L38.3003 40.9845L38.3355 41.1477L38.3829 41.2383L38.4113 41.3864L38.4628 41.4949L38.483 41.8131L38.4749 42.1424V43.4072L38.4871 43.779L38.4573 44.133L38.3409 44.3676L38.2976 44.5432L38.108 44.7626L37.8914 44.9602L37.6505 44.9959L37.3824 44.9876L35.3544 44.9807L35.2122 44.9287L35.0755 44.8642L34.9184 44.8244L34.8304 44.6872L34.7641 44.5281L34.7005 44.454L34.6463 44.3717L34.6233 44.1L34.5462 43.9381L34.5272 43.6583L34.534 43.3688L34.5299 43.1672L34.5516 42.9792L34.6653 42.8365L34.775 42.6925L34.886 42.3605V42.3399L35.0091 42.2988L35.1161 42.2288L35.3381 42.0998L36.0976 42.0765L36.807 42.1149L36.8503 42.2795L36.8639 42.5937L36.8558 43.1507L36.8584 43.2124L36.8368 43.2495V43.27H36.2506L35.9257 43.2865L35.8268 43.3455L35.7592 43.4415L35.728 43.6789L35.7659 43.7515L35.8336 43.7941L35.992 43.838L36.0976 43.8888L36.6365 43.908L37.1333 43.8641L37.2321 43.7433L37.2903 43.602L37.3147 43.2536L37.3039 42.8941L37.2971 41.8872L37.243 41.7418L37.2267 41.4715H35.6454L35.3463 41.4797L35.0782 41.4441L35.0159 41.3303L35.0471 41.1752L35.1757 40.9077L35.2068 40.7623L35.2718 40.5619V40.5002L35.2948 40.4646L35.4898 40.1875ZM44.0148 40.1875H45.3997L45.6867 40.1778L45.9616 40.2011L46.4219 40.3904L46.633 40.5346L46.8131 40.7101L46.8646 40.8268L46.985 40.9571L47.0839 41.0997L47.1082 41.8255L47.0636 42.51L47 42.5786L46.9945 42.7021L46.9458 42.7542L46.8632 42.7954H46.8429L46.8402 42.8791L46.805 42.9326L46.6872 42.9532L46.6912 43.0355L46.6682 43.0917V43.1109L46.4652 43.1342L46.3745 43.2042L46.2757 43.259H45.7517L45.5554 43.1932L45.1222 43.196L44.9137 43.1589L44.8379 43.115L44.7932 43.0451L44.7756 42.6966L44.7675 42.425L44.7905 42.1671L44.8392 42.0875L44.9272 42.0367L45.1777 41.9942L45.6922 42.0025L45.9101 41.9366L45.9561 41.9311L45.9859 41.9064H46.0035L45.9697 41.669L45.9155 41.5799L45.8235 41.499L45.6326 41.4633L45.4187 41.4715H44.6389L44.5157 41.4674L44.425 41.4907H44.4047L44.3356 41.7088L44.3275 42.7748L44.3153 43.1438L44.3383 43.5046L44.4074 43.6707L44.5292 43.8023L44.8257 43.8339L45.1466 43.8229H46.805L46.958 43.8201L47.0771 43.8421H47.0974V43.9806L47.1773 43.9765L47.2328 43.9999H47.2531L47.2369 44.2921L47.0812 44.6255L47.0189 44.7119L46.9945 44.8518L46.9729 44.9081L46.9065 44.9629L46.5978 44.9986L46.2581 44.9876H44.7174L44.3614 44.9986L44.0175 44.9753L43.6763 44.8148L43.5951 44.7379L43.5044 44.6844L43.457 44.6775L43.4299 44.6515H43.4096L43.3663 44.5144L43.3324 44.3758L43.235 44.2948L43.17 44.1947L43.1564 43.8819V43.2495L43.1618 41.215L43.2566 40.979L43.3121 40.8981L43.3108 40.8473L43.3324 40.8199L43.4421 40.6278L43.6005 40.4673L43.7156 40.4166L43.8483 40.2986L44.0148 40.1875ZM48.1696 40.1875H49.4192L49.6791 40.1765L49.9107 40.2258L49.9797 40.3233L50 40.4714L49.9418 40.8363L49.8118 41.1683L49.7455 41.274L49.6913 41.3138L49.694 41.3947L49.671 41.4509V41.4715L49.2676 41.4605L48.9048 41.4949L48.8046 41.5717L48.7342 41.6759L48.7057 41.9407L48.7166 42.2219V44.7901L48.7193 44.8614L48.6963 44.9094L48.5649 44.967L48.4147 44.9904L48.0925 44.9876L47.7676 44.9972L47.6132 44.9739L47.5022 44.8971L47.4603 44.5417L47.467 44.1398V41.6883L47.4603 41.3879L47.4792 41.0984L47.597 40.9049L47.6687 40.7993L47.7012 40.6992L47.7202 40.6621L47.819 40.5359L47.9381 40.4261L48.1696 40.1875ZM21.8351 40.267H24.6822L24.9719 40.2793L25.0518 40.3575L25.068 40.4948L25.0369 40.6237L24.976 40.6813L24.9611 40.7691L24.8974 40.8199L24.8798 41.0106L24.7634 41.167L24.7066 41.3591L24.6673 41.4592L24.6091 41.5237L24.4209 41.5566L24.2151 41.5497H22.9859L22.7679 41.5429L22.5689 41.5744L22.4944 41.6471L22.4674 41.7472L22.4836 41.8831L22.5689 41.9791L22.7219 42.0079L22.8884 42.0038L23.5328 42.0051L23.8604 42.0162L23.966 42.0683L24.1434 42.119L24.3627 42.3207L24.5184 42.4126L24.6416 42.5484L24.6741 42.7734L24.7255 42.8791L24.7594 43.0451L24.8094 43.152L24.8189 43.5252L24.8094 44.0973L24.7621 44.2071L24.7269 44.3702L24.67 44.5144L24.6686 44.5952L24.6443 44.6515V44.6721L24.4967 44.7269L24.3857 44.8285L24.2828 44.9287L24.1555 44.9822L20.8021 44.9876L20.8225 44.8587L20.8793 44.7709H20.8996L20.9077 44.6268L20.9605 44.5088L20.9971 44.3456L21.0431 44.2715L21.1162 44.1124L21.1528 43.9711L21.2381 43.8531L21.4439 43.8174L21.6794 43.8229H23.5518L23.6018 43.8243L23.6289 43.8023H23.6492L23.652 43.5156L23.6222 43.3825L23.5382 43.2947L23.3202 43.2605L23.0833 43.27L22.401 43.2687L22.0923 43.2564L22.0003 43.2083L21.8053 43.1109L21.6239 42.9902L21.4926 42.9106L21.4736 42.8434L21.4439 42.7954L21.3667 42.6568L21.3071 42.5526L21.2895 42.4195L21.2232 42.2974L21.211 41.8076L21.2002 41.4468L21.2232 41.0984L21.3667 40.8199L21.364 40.7691L21.387 40.7403L21.4994 40.5359L21.5847 40.4701L21.6767 40.4193L21.8351 40.267ZM39.8802 40.267H42.6691L42.9561 40.2835L43.0129 40.3302L43.0332 40.4097L42.9953 40.6251L42.8654 41.0174L42.8451 41.0366L42.795 41.1368L42.7679 41.2465L42.6867 41.3591L42.577 41.4468L42.3306 41.4825L42.0639 41.4715L40.4068 41.4743L40.2769 41.5017L40.1726 41.5895L40.1916 41.8858L40.2728 41.9873L40.3743 42.0628L40.549 42.0875L40.7372 42.0833H41.5562L41.9651 42.0957L42.1045 42.1849L42.2304 42.3057L42.3035 42.3276L42.3563 42.3605H42.3766L42.3726 42.473L42.3956 42.558V42.5786L42.5513 42.6362L42.6244 42.875L42.6298 43.7036L42.6149 44.1138L42.5553 44.2249L42.5229 44.3895L42.401 44.5363L42.3509 44.6474L42.2318 44.7901L42.091 44.9081L41.8798 44.9781L41.6347 44.9986L41.1271 44.9876H38.6117L38.6211 44.7132L38.6767 44.5898L38.7119 44.4293L38.8445 44.2386L38.9 44.1398L38.9231 44.0205L39.1451 43.8407L39.4348 43.8106L39.7421 43.8229H41.1663L41.3207 43.8243L41.4398 43.8023H41.4587V43.3084L41.4398 43.2893V43.27L39.9371 43.2646L39.7827 43.1891L39.6257 43.115L39.5648 43.1164L39.5282 43.0917H39.5079L39.5106 43.0204L39.4903 42.9738V42.9532L39.3712 42.8969L39.3008 42.7858L39.1234 42.5841L39.0896 42.3618L39.0327 42.2192L39.0205 41.7678L39.0327 41.4139L39.1275 41.1999L39.2371 40.99L39.2696 40.824L39.3522 40.6525L39.4578 40.5249L39.5959 40.4357L39.8802 40.267Z" fill="white"/>
</mask>
<g mask="url(#mask0_1403_8926)">
<path fill-rule="evenodd" clip-rule="evenodd" d="M30.6188 37.7317H33.6812L34.0102 37.7441C34.0873 37.7619 34.2376 37.9073 34.2471 37.9896C34.2592 38.087 34.0643 38.3587 34.0304 38.4657L34.0047 38.6755C33.9885 38.7825 33.9086 38.9047 33.8233 38.976C33.7407 39.0432 33.4023 39.013 33.2723 39.013H31.8671C31.7411 39.013 31.4284 38.9829 31.3458 39.0405C31.2917 39.0775 31.2159 39.142 31.1888 39.2024C31.1441 39.297 31.1509 39.8539 31.1766 39.976L31.2213 40.068C31.2321 40.0954 31.228 40.1764 31.2632 40.1764V40.1956H32.0823C32.2055 40.1956 32.4072 40.1641 32.506 40.2231C32.6049 40.282 32.6252 40.3739 32.6266 40.4919C32.6266 40.5207 32.6414 40.5509 32.6076 40.5509C32.5331 40.6373 32.5047 40.7539 32.4532 40.8541C32.4113 40.9364 32.3558 41.0118 32.3219 41.0941L32.2989 41.2355C32.2786 41.3054 32.1541 41.4248 32.0891 41.4536C31.8156 41.5798 31.358 41.3137 31.1874 41.6676C31.1265 41.7938 31.1658 42.3206 31.1658 42.5044V44.9875H30.237C30.1152 44.982 30.0259 44.9724 30.0055 44.9546C29.9703 44.9231 29.9392 44.8929 29.9297 44.8463C29.9027 44.7338 29.9162 44.5993 29.9162 44.4745V38.718C29.9162 38.6755 29.8986 38.4999 29.9351 38.4999C29.9961 38.4245 30.1504 38.1254 30.1504 38.0267L30.2939 37.9663L30.4374 37.8456C30.4956 37.8003 30.5566 37.7824 30.6188 37.7317ZM10.1111 37.9087C10.2005 37.9087 10.2979 37.9004 10.3778 37.9251L10.5471 38.0514C10.7068 38.1282 11.1373 38.3395 11.2186 38.5123C11.2808 38.6468 11.2429 39.1584 11.2429 39.3491V43.1534C11.2429 43.2782 11.2145 43.4634 11.2768 43.5567C11.293 43.58 11.3093 43.6266 11.3404 43.6266C11.3404 43.7034 11.381 43.7693 11.4487 43.8009C11.5462 43.8461 12.1473 43.8475 12.2434 43.8009C12.3341 43.7528 12.4127 43.5841 12.4248 43.4881L12.4329 39.249V38.4602C12.4329 38.3298 12.4113 38.1666 12.4478 38.0514C12.4641 37.9992 12.5223 37.9416 12.5751 37.9251C12.6428 37.9045 12.7484 37.9045 12.8174 37.9251L12.9745 38.0445L13.2452 38.1735L13.4727 38.3929L13.5851 38.526C13.6135 38.607 13.6027 38.7222 13.6027 38.8169L13.604 39.5261V43.1534L13.6148 43.5073L13.6609 43.5992C13.715 43.7035 13.734 43.805 13.8775 43.8187C14.0751 43.8379 14.4799 43.8709 14.6018 43.7309C14.6424 43.6829 14.706 43.521 14.7114 43.4483L14.7155 38.954V38.3037C14.7155 38.2132 14.7019 38.0911 14.7385 38.0211C14.7994 37.9059 14.9781 37.8853 15.1 37.9251L15.2543 38.0458C15.5007 38.1967 15.7403 38.3422 15.9326 38.5878C16.0016 38.6756 15.9637 39.8965 15.9637 40.1174V43.9229C15.9623 44.045 15.9813 44.1837 15.9488 44.292L15.8933 44.3976C15.808 44.6322 15.7024 44.7474 15.4899 44.8695C15.4154 44.9107 15.3301 44.9683 15.2408 44.9806L12.3747 44.9875H10.7786C10.7515 44.9848 10.7244 44.9807 10.6987 44.9752C10.455 44.9231 10.0908 44.6637 10.0908 44.377H10.0719C10.0421 44.34 10.0245 44.2275 10.0137 44.0752V37.9882C10.0556 37.9677 10.0786 37.9457 10.1111 37.9087ZM26.7158 39.2106C27.0854 39.2709 26.9297 39.8815 26.9297 40.1764L27.0529 40.2573C27.2113 40.3108 27.5958 40.2751 27.7894 40.2751C27.8855 40.2751 27.9762 40.2944 28.0628 40.2944C28.0791 40.3657 28.079 40.6099 27.9843 40.6099C28.0235 40.8006 27.7244 41.4577 27.5443 41.5331C27.436 41.5798 27.283 41.5455 27.1652 41.5661L27.0082 41.6347C26.9811 41.6416 26.9499 41.6388 26.9499 41.6745L26.9513 43.665C26.9608 43.7131 26.9865 43.7377 27.019 43.7734C27.0678 43.8242 27.1923 43.8832 27.2627 43.8941C27.4184 43.9202 28.0276 43.8461 28.0642 43.9861C28.1021 44.1315 28.0046 44.1562 28.0046 44.2193L27.9924 44.3537L27.9261 44.4799L27.903 44.6213C27.8543 44.7434 27.7501 44.838 27.7501 44.9862L26.7753 44.9875C26.6724 44.9861 26.5357 45.0054 26.4328 44.9862C26.4057 44.9807 26.38 44.9738 26.3597 44.9628L26.0822 44.7077C26.0524 44.6871 25.9549 44.6857 25.9549 44.6514H25.9346C25.9197 44.5211 25.8588 44.4429 25.8574 44.2975C25.8561 44.2714 25.8642 44.2783 25.8371 44.2783C25.7667 44.2015 25.7897 44.1438 25.7545 44.0519C25.7383 44.0121 25.7018 43.9833 25.6936 43.9408C25.6517 43.7322 25.6828 43.473 25.6828 43.2535V41.872C25.6828 41.8157 25.7004 41.5963 25.6828 41.5963C25.5623 41.4989 25.2604 41.6196 25.1548 41.5181C25.1047 41.4687 25.1142 41.3315 25.1277 41.2629C25.1453 41.171 25.2171 41.0777 25.2631 40.9995L25.2929 40.8349L25.3538 40.7416C25.3985 40.6387 25.4851 40.3973 25.5542 40.3232C25.5989 40.2779 25.672 40.2779 25.7397 40.2751C25.7681 40.2738 25.7599 40.2807 25.7599 40.256H25.7803C25.7573 40.1394 25.7397 39.9596 25.7803 39.8499C25.8412 39.6811 26.3164 39.3958 26.4666 39.3176C26.5519 39.2709 26.6305 39.2792 26.7158 39.2106ZM17.2729 40.1956H18.8528L19.6908 40.2038C19.8248 40.2271 19.9426 40.3369 20.0414 40.4329L20.3284 40.732L20.365 40.8829L20.4205 41.0077C20.4557 41.1764 20.4327 41.3932 20.4327 41.5757V42.2671C20.4327 42.3933 20.4503 42.5442 20.4164 42.6553L20.3663 42.7445C20.2513 43.0298 20.193 43.0875 19.9087 43.2041C19.8681 43.2206 19.8343 43.2535 19.7883 43.2617C19.5459 43.3056 19.2454 43.2727 18.9895 43.2727H18.2679C18.2395 43.2727 18.2286 43.285 18.2286 43.2535H18.2084C18.1989 43.163 18.1515 43.1135 18.1393 43.034L18.1312 42.4838C18.1312 42.3755 18.1176 42.2465 18.1461 42.1533C18.1596 42.1052 18.2259 42.0421 18.2733 42.0284C18.3559 42.001 18.4656 42.0106 18.5603 42.0106L19.0666 42.0092C19.1262 42.0079 19.1994 42.0092 19.2467 41.9845C19.286 41.9626 19.3158 41.8926 19.3591 41.8926C19.3334 41.7993 19.3293 41.7046 19.2318 41.658C19.1587 41.6251 19.0585 41.636 18.9692 41.636H18.3451C18.1989 41.636 18.012 41.61 17.8821 41.6525C17.8469 41.6635 17.7602 41.717 17.7602 41.754L17.7575 43.4483C17.7575 43.4867 17.7318 43.6074 17.7602 43.6074L17.8577 43.805V43.8242H20.3948C20.4489 43.8242 20.6669 43.8132 20.6669 43.864C20.698 43.9518 20.698 44.1219 20.6669 44.2097L20.6141 44.3057C20.6046 44.3331 20.6208 44.377 20.5897 44.377C20.4895 44.5691 20.4652 44.8312 20.2607 44.9601C20.2445 44.9697 20.2215 44.9779 20.1944 44.9834L17.3107 44.9821C17.2931 44.9766 17.2756 44.9724 17.2607 44.9669L17.1415 44.871L17.0251 44.8188L16.8776 44.698C16.8518 44.683 16.7652 44.6843 16.7652 44.6514H16.7462C16.7246 44.4827 16.6135 44.4635 16.5959 44.3359L16.5892 42.4633V41.4783L16.5973 40.9473C16.6136 40.8499 16.7164 40.673 16.7625 40.5797C16.8247 40.4493 17.0143 40.4179 17.1239 40.352C17.1848 40.315 17.2282 40.2491 17.2729 40.1956ZM33.1356 40.1956H34.4813C34.6126 40.1956 34.8427 40.1586 34.9456 40.2231C34.9944 40.2546 35.0458 40.3122 35.0526 40.3753C35.0607 40.4768 34.8062 41.182 34.7358 41.182C34.7385 41.2341 34.7182 41.3205 34.6573 41.3205C34.6546 41.3589 34.6613 41.4577 34.6194 41.4577C34.442 41.5112 33.9655 41.422 33.8504 41.514C33.7976 41.5551 33.7204 41.6155 33.7001 41.6813C33.6663 41.7787 33.6812 41.9159 33.6812 42.0297V44.9875H32.8445C32.7118 44.9765 32.6062 44.9546 32.5629 44.9148L32.529 44.8627C32.4952 44.7708 32.5101 44.6419 32.5101 44.5349V43.9038L32.5128 41.3013C32.5155 41.1682 32.59 41.1093 32.59 40.9844C32.701 40.8953 32.7172 40.7594 32.7876 40.6456L32.8987 40.5166L32.9474 40.3986L33.1356 40.1956ZM35.4966 40.1956H36.8627C37.0441 40.1956 37.2769 40.1641 37.4434 40.2121C37.572 40.2491 37.6587 40.3589 37.7738 40.4302L37.8888 40.4809C38.0527 40.6236 38.2327 40.7937 38.3072 40.9926L38.3424 41.1545L38.3898 41.2451L38.4182 41.3932L38.4696 41.5002C38.5089 41.6937 38.4818 41.9406 38.4818 42.1477V43.4099C38.4818 43.6184 38.5211 43.9504 38.4642 44.1342L38.3478 44.3688L38.3045 44.5431C38.2679 44.6171 37.9728 44.9149 37.8983 44.9601C37.8766 44.9738 37.8442 44.982 37.8063 44.9875H37.3893L35.3613 44.9806C35.2557 44.9669 35.1771 44.8943 35.0824 44.8641L34.9253 44.8243C34.8563 44.7845 34.8116 44.5979 34.771 44.5293C34.7385 44.4745 34.6694 44.436 34.6532 44.3729L34.6289 44.1013C34.618 44.0368 34.5639 44.0011 34.5517 43.9408C34.5165 43.7679 34.5409 43.5539 34.5409 43.3715C34.5409 43.2453 34.5219 43.0916 34.5571 42.9832C34.5936 42.868 34.748 42.8145 34.7818 42.6965C34.7953 42.6512 34.8658 42.3658 34.8915 42.3658V42.3453C35.0743 42.322 35.1744 42.1532 35.345 42.1052C35.4696 42.0695 36.7543 42.0737 36.8139 42.1203C36.8978 42.1848 36.8627 42.9846 36.8627 43.1534C36.8627 43.1849 36.8762 43.2535 36.8437 43.2535V43.2727H36.2575C36.1505 43.2727 36.0246 43.259 35.9312 43.2892C35.7823 43.3386 35.7024 43.5224 35.7349 43.6815C35.7579 43.8064 35.9041 43.8077 35.9989 43.8393L36.1045 43.89C36.2318 43.9175 37.0684 43.923 37.1402 43.8668C37.2133 43.8078 37.2769 43.6898 37.2972 43.6033C37.3446 43.3962 37.3108 43.1218 37.3108 42.8981L37.304 41.8926C37.2972 41.8295 37.2647 41.8021 37.2498 41.7486C37.2241 41.669 37.2336 41.5702 37.2336 41.4783H35.6523C35.5142 41.4783 35.1812 41.5085 35.0837 41.4495C34.9172 41.3493 35.1379 41.0133 35.1812 40.9159L35.2137 40.769C35.2299 40.6949 35.2705 40.6579 35.2787 40.5701C35.2814 40.5358 35.2651 40.4727 35.3017 40.4727C35.3761 40.3822 35.4073 40.2861 35.4966 40.1956ZM44.023 40.1956H45.4079C45.5867 40.1956 45.8073 40.1668 45.9712 40.2107C46.2744 40.2875 46.6102 40.4672 46.8227 40.7169L46.8728 40.8349C46.9296 40.9323 47.0678 40.9926 47.0935 41.1065C47.1273 41.2574 47.1287 42.4208 47.0732 42.5141C47.0583 42.5374 47.0366 42.5826 47.0095 42.5826C47.0474 42.8104 46.8715 42.7528 46.8715 42.7994H46.8525C46.8511 42.8365 46.8565 42.9366 46.8146 42.9366L46.6968 42.9572C46.6968 42.9901 46.7131 43.0957 46.6779 43.0957V43.1149C46.6102 43.1149 46.5303 43.1108 46.4734 43.1383C46.4044 43.1698 46.3651 43.248 46.2852 43.2617C46.1323 43.2878 45.9129 43.2878 45.7613 43.2617C45.6842 43.2494 45.6503 43.2041 45.5637 43.1972C45.3538 43.1794 44.8759 43.2686 44.8014 43.0491C44.7689 42.9517 44.7852 42.8145 44.7852 42.7006C44.7852 42.5332 44.7581 42.322 44.7988 42.1724C44.8678 41.92 45.4608 42.0188 45.7004 42.0078C45.7979 42.0023 45.8398 41.9598 45.9184 41.942C45.9427 41.9365 45.9942 41.9433 45.9942 41.9118H46.0131C46.0077 41.7183 45.9861 41.61 45.8317 41.5057C45.7451 41.4468 45.5447 41.4783 45.4283 41.4783H44.6471C44.6065 41.4783 44.4332 41.4604 44.4332 41.4975H44.4129C44.4007 41.5894 44.3547 41.6319 44.3439 41.7156L44.3357 42.7802C44.3357 43.0093 44.3019 43.2892 44.3466 43.5073C44.3628 43.5882 44.4522 43.7693 44.5388 43.805C44.6796 43.8612 44.9815 43.8242 45.1548 43.8242H46.8146C46.8579 43.8242 47.0867 43.8104 47.0867 43.8447H47.107V43.982C47.1395 43.982 47.2424 43.9655 47.2424 44.0011H47.2627C47.2587 44.0999 47.2722 44.2056 47.2464 44.2934C47.2112 44.4059 47.1409 44.5156 47.0908 44.6254C47.0772 44.6555 47.0271 44.6775 47.0271 44.7118C46.9825 44.8243 47.0474 44.8901 46.9161 44.9628C46.8931 44.9738 46.862 44.982 46.8241 44.9875H44.1015C44.0758 44.9848 44.0501 44.9793 44.0257 44.9752C43.9607 44.9601 43.7292 44.8531 43.6832 44.8147C43.6304 44.768 43.5803 44.7008 43.5126 44.6843C43.4869 44.6775 43.4382 44.6871 43.4382 44.6514H43.4178C43.4043 44.543 43.3407 44.4895 43.3407 44.377C43.2825 44.3345 43.1945 44.2659 43.1782 44.1946L43.1647 43.8832V43.2535L43.1701 41.2217C43.1769 41.1449 43.2256 41.0489 43.2649 40.9858C43.2811 40.9583 43.3204 40.9419 43.3204 40.9062C43.3258 40.876 43.3055 40.828 43.3407 40.828C43.4043 40.7073 43.4801 40.5536 43.6087 40.4754L43.7238 40.4247L43.8565 40.3067C43.912 40.2628 43.9702 40.2532 44.023 40.1956ZM48.1793 40.1956H49.4288C49.575 40.1956 49.8119 40.1572 49.9202 40.234C50.1734 40.4124 49.8228 41.3205 49.7009 41.3205C49.7009 41.3535 49.7172 41.4577 49.682 41.4577V41.4783C49.5087 41.4783 49.0322 41.4427 48.913 41.5016C48.8562 41.5291 48.7641 41.6182 48.7438 41.6813C48.6937 41.8281 48.7262 42.0586 48.7262 42.2274V44.79C48.7262 44.8229 48.7397 44.9093 48.7059 44.9093C48.6328 44.9601 48.5434 44.9807 48.4473 44.9875H47.681C47.6093 44.9752 47.5484 44.9491 47.5118 44.897C47.4468 44.8037 47.478 44.2961 47.478 44.1411V41.6951C47.478 41.503 47.4549 41.2835 47.4888 41.1052C47.5077 40.9968 47.7108 40.8335 47.7108 40.7073C47.7108 40.6798 47.7 40.6703 47.7298 40.6703C47.7772 40.5784 47.8733 40.5029 47.9464 40.4343L48.1793 40.1956ZM21.838 40.2751H24.6864L24.9761 40.2875C25.1304 40.3273 25.0749 40.6894 24.9802 40.6894C24.9802 40.7375 24.9653 40.828 24.9017 40.828L24.8827 41.0173L24.7676 41.1751C24.727 41.2601 24.7067 41.4811 24.6133 41.5305C24.5158 41.5826 24.3398 41.5565 24.218 41.5565H22.9887C22.8614 41.5565 22.6746 41.5304 22.5731 41.5812C22.5067 41.6127 22.4729 41.6841 22.4702 41.754C22.462 41.8487 22.4864 41.942 22.5731 41.9859C22.6557 42.027 22.7897 42.0106 22.8912 42.0106H23.5356L23.8632 42.0215L23.9702 42.0737C24.0257 42.0915 24.1002 42.0888 24.1476 42.1244L24.3669 42.3261C24.4616 42.381 24.5929 42.4386 24.6457 42.5525L24.6783 42.7775L24.7297 42.8831L24.7622 43.0491C24.7757 43.0875 24.8042 43.1094 24.8123 43.1547L24.8218 43.5292L24.8137 44.0985C24.8069 44.1424 24.7825 44.1699 24.7663 44.2083L24.7297 44.3716C24.7135 44.4237 24.6809 44.4539 24.6742 44.5156C24.6701 44.5458 24.6823 44.6514 24.6471 44.6514V44.672C24.4115 44.6953 24.3588 44.9629 24.1584 44.9821L20.8036 44.9875L20.805 44.9834L20.8253 44.8586C20.8361 44.8256 20.8821 44.8092 20.8821 44.7708H20.9011C20.8794 44.6309 20.9254 44.6157 20.9634 44.5087L20.9999 44.3469L21.0446 44.2728C21.0662 44.2165 21.0974 44.1686 21.1177 44.1137C21.157 44.0026 21.1407 43.9326 21.2409 43.8544C21.3127 43.7995 21.5726 43.8242 21.6822 43.8242H23.5546C23.5844 43.8242 23.6331 43.8379 23.6331 43.805H23.6521C23.6467 43.639 23.7022 43.3742 23.5411 43.2974C23.43 43.2411 23.2229 43.2727 23.0862 43.2727L22.4039 43.2713L22.0938 43.2589L22.0031 43.211C21.8664 43.1451 21.7459 43.093 21.6268 42.9928L21.4968 42.916C21.4765 42.8885 21.4805 42.7994 21.4467 42.7994C21.4223 42.7734 21.3749 42.6608 21.3695 42.6608L21.3099 42.5566C21.3005 42.5223 21.3181 42.4235 21.2923 42.4235L21.226 42.3028C21.1935 42.1601 21.2138 41.9694 21.2138 41.813C21.2138 41.5853 21.1814 41.3178 21.2247 41.1052C21.2369 41.0421 21.3695 40.8527 21.3695 40.828C21.3695 40.7965 21.3546 40.7485 21.3898 40.7485C21.4142 40.7005 21.4697 40.5797 21.5022 40.544C21.559 40.4768 21.6132 40.4741 21.6782 40.4274L21.838 40.2751ZM39.8871 40.2751H42.6773C42.7694 40.2751 42.8817 40.2642 42.9629 40.2916C43.1768 40.3657 42.8858 40.8843 42.8736 41.0242C42.8709 41.0489 42.8804 41.0448 42.8533 41.0448C42.7937 41.1107 42.8046 41.1737 42.7761 41.2533C42.7531 41.3178 42.6448 41.4234 42.5852 41.4536C42.4607 41.5153 42.2211 41.4783 42.0721 41.4783L40.4137 41.481C40.3663 41.4824 40.3176 41.481 40.2851 41.5084C40.258 41.5276 40.2093 41.5963 40.1795 41.5963C40.193 41.6498 40.1876 41.8926 40.1998 41.8926C40.235 41.9502 40.3163 42.0435 40.3826 42.0682C40.4828 42.1052 40.6263 42.0888 40.7454 42.0888H41.5645L41.9733 42.1011C42.0803 42.1217 42.148 42.2465 42.2373 42.311C42.2671 42.3316 42.3646 42.3316 42.3646 42.3658H42.3849C42.3849 42.4043 42.3686 42.562 42.4038 42.562V42.5826C42.4593 42.5895 42.5271 42.6417 42.5595 42.6417C42.5595 42.7377 42.6232 42.7829 42.6326 42.879L42.638 43.7062C42.638 43.8421 42.6557 43.9929 42.6232 44.115L42.5636 44.2261C42.546 44.2838 42.5568 44.3372 42.5298 44.3908L42.4092 44.5375L42.3592 44.6473C42.2969 44.7296 42.1886 44.8586 42.0992 44.908C42.018 44.9519 41.9205 44.9765 41.8149 44.9875H38.6186L38.628 44.7145L38.6835 44.591L38.7187 44.4292C38.7905 44.2893 38.93 44.1987 38.93 44.0217L39.1519 43.8421C39.3144 43.7872 39.5649 43.8242 39.7503 43.8242H41.1746C41.2206 43.8242 41.4467 43.8365 41.4467 43.805H41.467V43.3111C41.467 43.285 41.4738 43.2919 41.4467 43.2919V43.2727L39.9453 43.2672C39.8126 43.2535 39.7679 43.13 39.6326 43.119C39.5987 43.1163 39.5351 43.13 39.5351 43.0957H39.5161C39.5161 43.0614 39.5297 42.9763 39.4972 42.9763V42.9572C39.3591 42.9352 39.3794 42.8844 39.3077 42.7898L39.1303 42.5895C39.0978 42.5264 39.1086 42.4372 39.0978 42.3658L39.041 42.2246C39.0125 42.0888 39.0274 41.9201 39.0274 41.7733C39.0274 41.6553 39.0152 41.5277 39.041 41.4207C39.0721 41.2766 39.1912 41.1367 39.244 40.9967L39.2765 40.8321C39.2968 40.7772 39.3334 40.7114 39.3591 40.6606C39.4674 40.4549 39.726 40.4178 39.8871 40.2751Z" fill="black"/>
</g>
<path d="M35.6847 23.4026V23.9322L31.5108 21.519V22.6426L35.7171 24.9556L35.7158 29.4046L31.5108 27.2027V30.2757H36.8584V20.4147L40.5435 22.6426V33.9852L18.3354 34.0044V22.5836L21.9881 20.3626V30.2757H27.3356V27.2027L23.1618 29.384V24.9556L27.3356 22.6426V21.519L23.1618 23.9322V19.5038L29.4232 16L35.6847 19.5038V23.4026Z" fill="black"/>
</g>
<defs>
<clipPath id="clip0_1403_8926">
<rect width="40" height="29" fill="white" transform="translate(10 16)"/>
</clipPath>
</defs>
</svg>
