<svg width="60" height="60" viewBox="0 0 60 60" fill="none" xmlns="http://www.w3.org/2000/svg">
<rect width="60" height="60" fill="#006838"/>
<g clip-path="url(#clip0_150_843)">
<path d="M9.19672 25.2435L11.9266 35.878H18.1609L20.2613 29.4124H20.3095L22.393 35.878H28.5798L31.342 25.2435L26.932 25.2436L25.3977 31.8864L25.3492 31.8866L23.2006 25.2439L17.725 25.2437L15.5446 31.8865L15.4959 31.8867L13.9457 25.244L9.19672 25.2435Z" fill="white"/>
<path d="M31.3197 25.2501H37.5548L39.6546 31.7161H39.7034L41.7863 25.2501H47.9731L50.7356 35.8846H46.3255L44.7913 29.2418H44.7422L42.5948 35.8846H37.1189L34.938 29.2418H34.8901L33.3385 35.8846H28.5901" fill="#EDAC09"/>
</g>
<defs>
<clipPath id="clip0_150_843">
<rect width="42" height="11" fill="white" transform="translate(9 25)"/>
</clipPath>
</defs>
</svg>
