<svg width="60" height="60" viewBox="0 0 60 60" fill="none" xmlns="http://www.w3.org/2000/svg">
<rect width="60" height="60" fill="black"/>
<g clip-path="url(#clip0_1772_9187)">
<path d="M45.6624 29.123C43.5259 28.7348 42.8354 28.5495 42.8354 27.8367C42.8354 26.8351 44.0089 26.7268 44.5136 26.7268C45.62 26.7268 46.3664 27.2882 46.4623 28.1914L46.4893 28.4449H49.6928L49.6856 28.1564C49.6277 25.8063 47.4524 24.101 44.5135 24.101C42.1726 24.101 40.3533 25.1894 39.7519 26.8159C39.541 26.5137 39.3006 26.2314 39.0335 25.9733C37.8327 24.8157 36.1683 24.2039 34.2202 24.2039H29.5682V32.2571L26.5185 24.2036H22.8784L18.0718 36.7958H21.4811L22.4494 34.1668H26.803L27.7713 36.7958H34.2202C36.1683 36.7958 37.8327 36.184 39.0335 35.0264C39.2694 34.7983 39.4851 34.5515 39.6776 34.2883C40.4874 35.8675 42.3807 36.899 44.7466 36.899C47.7347 36.899 49.9176 35.1843 49.937 32.8215C49.9569 30.1049 47.7401 29.4878 45.6624 29.123ZM24.6083 31.9699C24.6083 31.9699 23.5664 32.0306 23.5664 31.1381C23.5664 30.5079 24.6083 28.0942 24.6083 28.0942C24.6083 28.0942 25.6503 30.53 25.6503 31.1381C25.6503 32.03 24.6083 31.9699 24.6083 31.9699ZM34.2202 34.0841H32.8467V26.9156H34.2202C36.2816 26.9156 37.5125 28.2556 37.5125 30.4998C37.5125 32.7439 36.2816 34.0841 34.2202 34.0841ZM44.7823 34.2902C43.4409 34.2902 42.5567 33.6334 42.4757 32.5755L42.456 32.3177L40.6198 32.294C40.7511 31.7878 40.8248 31.2698 40.8397 30.7485C41.6193 31.3016 42.6683 31.5791 43.7575 31.7736C45.9359 32.1839 46.6401 32.3784 46.6401 33.1119C46.6401 33.9802 45.6803 34.2902 44.7823 34.2902Z" fill="white"/>
<path d="M20.0578 24.2036L15.4053 36.7796H16.9336L21.589 24.2036H20.0578Z" fill="white"/>
<path d="M17.4081 24.2036L12.7559 36.7796H14.2839L18.9393 24.2036H17.4081Z" fill="#9ACA3C"/>
<path d="M14.758 24.2036L10.1055 36.7796H11.6338L16.2892 24.2036H14.758Z" fill="white"/>
</g>
<defs>
<clipPath id="clip0_1772_9187">
<rect width="40" height="13" fill="white" transform="translate(10 24)"/>
</clipPath>
</defs>
</svg>
