<svg width="60" height="60" viewBox="0 0 60 60" fill="none" xmlns="http://www.w3.org/2000/svg">
<rect width="60" height="60" fill="black"/>
<g clip-path="url(#clip0_2145_9602)">
<path fill-rule="evenodd" clip-rule="evenodd" d="M26.2433 23.2115H25.2643C24.4653 23.2115 24.4283 23.253 24.2708 23.904C24.2703 23.907 22.6303 31.439 22.4968 32.055L20.4938 23.921C20.3213 23.259 20.2778 23.211 19.4728 23.211H17.8128C17.0073 23.211 16.9763 23.271 16.7863 23.916L14.6633 31.916L12.9448 23.916C12.7888 23.265 12.7518 23.2115 11.9528 23.2115H10.9063C10.1063 23.2115 9.87785 23.253 10.0588 24.0515L12.8153 35.846C12.9813 36.491 13.0248 36.546 13.8233 36.546H15.1863C16.0163 36.546 16.0473 36.4845 16.2443 35.798L18.5768 27.01L20.8813 35.908C21.0583 36.4845 21.0958 36.546 21.8948 36.546H23.2328C24.0563 36.546 24.0938 36.472 24.2738 35.774L27.1323 23.885C27.2653 23.265 27.0298 23.2115 26.2433 23.2115ZM37.5103 23.2115H36.5443C35.7453 23.2115 35.7068 23.2465 35.7068 24.0515V31.7715L30.8078 23.805C30.4553 23.253 30.3748 23.2115 29.5823 23.2115H28.5598C27.7668 23.2115 27.7113 23.259 27.7113 24.0515V35.7C27.7113 36.5035 27.7608 36.546 28.5538 36.546H29.5138C30.3378 36.546 30.3683 36.491 30.3683 35.698V28.163L35.1973 35.9725C35.5658 36.5405 35.6088 36.546 36.4023 36.546H37.5108C38.3223 36.546 38.3643 36.5095 38.3643 35.691V24.0525C38.3643 23.247 38.3223 23.212 37.5108 23.212" fill="white"/>
<path fill-rule="evenodd" clip-rule="evenodd" d="M31.3652 36.548V31.9605L34.2907 36.548H31.3652Z" fill="#EF4E30"/>
<path fill-rule="evenodd" clip-rule="evenodd" d="M49.1946 30.4995C48.8381 29.9205 48.3381 29.458 47.7091 29.1245C47.0876 28.7955 46.1186 28.4735 44.8291 28.167C43.5626 27.867 42.7576 27.5775 42.4371 27.3075C42.1956 27.104 42.0786 26.867 42.0786 26.5835C42.0786 26.2725 42.2026 26.0315 42.4581 25.846C42.8746 25.5425 43.4631 25.389 44.2071 25.389C44.9261 25.389 45.4701 25.531 45.8231 25.812C46.0531 25.9945 46.2326 26.2595 46.3596 26.603C46.5666 27.1865 46.5666 27.2915 47.3721 27.2625L48.5181 27.2205C49.3106 27.1865 49.4226 27.087 49.2911 26.3745C49.1241 25.465 48.7006 24.7065 48.0211 24.114C47.1746 23.3745 45.9016 23 44.2366 23C43.2201 23 42.3376 23.1565 41.6151 23.466C40.8871 23.777 40.3211 24.238 39.9331 24.8345C39.5456 25.4305 39.3491 26.081 39.3491 26.767C39.3491 27.832 39.7656 28.7465 40.5876 29.486C41.1676 30.0085 42.1861 30.454 43.6126 30.81C44.7076 31.0835 45.4171 31.2765 45.7226 31.3825C46.1556 31.537 46.4616 31.718 46.6311 31.921C46.7991 32.123 46.8811 32.3615 46.8811 32.65C46.8811 33.1065 46.6806 33.4965 46.2676 33.841C45.8556 34.185 45.2286 34.3595 44.4036 34.3595C43.6261 34.3595 43.0026 34.163 42.5486 33.7755C42.2156 33.4905 41.9621 33.08 41.7911 32.551C41.6176 31.925 41.5871 31.8445 40.7811 31.92L39.6921 32.023C38.8986 32.0925 38.8116 32.1605 38.9536 32.791C38.9536 32.7925 39.3686 34.638 40.4886 35.639C41.3816 36.437 42.7011 36.8215 44.3776 36.8215C45.5256 36.8215 46.4996 36.657 47.2726 36.333C48.0521 36.0055 48.6641 35.4985 49.0911 34.825C49.5171 34.1525 49.7331 33.4205 49.7331 32.6505C49.7331 31.803 49.5516 31.079 49.1946 30.4995Z" fill="white"/>
</g>
<defs>
<clipPath id="clip0_2145_9602">
<rect width="40" height="14" fill="white" transform="translate(10 23)"/>
</clipPath>
</defs>
</svg>
