<svg width="60" height="60" viewBox="0 0 60 60" fill="none" xmlns="http://www.w3.org/2000/svg">
<rect width="60" height="60" fill="#007CBA"/>
<g clip-path="url(#clip0_150_753)">
<path d="M38.1849 30.5367C38.6286 31.0571 39.093 31.7744 39.6409 32.1771C39.0633 32.2448 38.6941 31.5774 38.4618 31.2805C38.2712 31.0336 38.1373 30.8454 37.914 30.6632C37.8782 30.6308 37.8366 30.6102 37.7919 30.5955C37.6431 30.5985 37.4912 30.5955 37.3423 30.5838L37.3453 32.0125C37.3483 32.0713 37.3662 32.1301 37.399 32.1771H37.0148C37.0446 32.1272 37.0625 32.0684 37.0655 32.0125L37.0685 29.0669L36.9941 28.9787C37.6045 28.9757 38.2476 28.8552 38.6108 29.3226C38.7925 29.5725 38.7925 29.99 38.6078 30.2516C38.5006 30.3898 38.3546 30.4897 38.1849 30.5367ZM37.3691 29.0992L37.3661 30.4721C37.5239 30.5132 37.8305 30.5367 38.0271 30.478C38.1819 30.4103 38.3218 30.3045 38.3933 30.1605C38.5362 29.8283 38.4648 29.4138 38.1998 29.1874C37.9705 29.014 37.646 29.0463 37.3691 29.0992Z" fill="white"/>
<path d="M12.9304 27.0972C10.8164 27.0972 9.09845 28.623 9.09845 30.5015C9.09845 32.38 10.8164 33.9028 12.9304 33.9028H47.0695C49.1835 33.9028 50.9015 32.377 50.9015 30.4985C50.9015 28.62 49.1835 27.0972 47.0695 27.0972H12.9304ZM9.37834 30.5015C9.37834 28.7758 10.9713 27.3736 12.9304 27.3736H47.0695C49.0286 27.3736 50.6186 28.7758 50.6186 30.4985C50.6186 32.2212 49.0257 33.6235 47.0695 33.6235H12.9304C10.9713 33.6264 9.37834 32.2242 9.37834 30.5015ZM46.1912 32.1889C46.2507 32.1448 46.2537 32.1301 46.2537 32.0889V30.1693C45.9173 29.7518 45.7475 29.3109 45.3516 28.9934L45.8607 28.9904C45.7951 29.0434 45.7654 29.0992 45.8219 29.1786L46.4412 30.0341L47.0993 29.1845C47.1499 29.111 47.2243 29.0463 47.129 28.9875L47.522 28.9846C47.1409 29.3373 46.873 29.7518 46.5335 30.181V32.0801C46.5335 32.1272 46.5424 32.1448 46.6109 32.186H46.1911L46.1912 32.1889ZM29.1067 29.1639C29.1365 29.258 29.1454 29.355 29.1335 29.452C28.9787 29.3197 28.8239 29.2433 28.6244 29.1756C28.0259 29.014 27.3143 29.0816 26.9273 29.5901C26.5938 30.0252 26.5045 30.5955 26.6921 31.11C26.8618 31.5422 27.0464 31.7332 27.3977 31.9155C27.8473 32.1095 28.5202 32.2095 28.9578 31.9037L29.2109 31.7244C29.1812 31.9008 29.1841 31.9596 29.1693 32.0713C28.3267 32.3183 27.2429 32.33 26.6563 31.6215C26.2514 31.0806 26.1948 30.3222 26.5194 29.7401C26.832 29.2168 27.3293 28.9669 27.8652 28.961C28.4279 28.9522 28.6809 29.014 29.1067 29.1639ZM41.8382 30.5544L41.8352 32.0243L42.6897 32.0272C42.7581 32.0272 42.7641 32.0037 42.8326 31.9714C42.8177 32.0478 42.8029 32.1536 42.7195 32.1889H41.5106L41.5672 32.1066V29.1286C41.5672 29.0757 41.5642 29.0345 41.4987 28.9875L42.7016 28.9904V29.2021C42.651 29.1521 42.6123 29.158 42.5289 29.1521L41.8381 29.1462V30.3545L42.648 30.3574C42.7552 30.3574 42.773 30.3515 42.7939 30.3251V30.5838C42.7701 30.5485 42.7343 30.5514 42.6867 30.5514L41.8382 30.5544ZM32.766 28.9581C33.2067 29.9459 33.9897 31.8714 34.0404 31.9772C34.0641 32.0331 34.0791 32.0948 34.219 32.183H33.6711C33.7455 32.0919 33.7366 32.0037 33.7068 31.9096L33.4507 31.3129L31.8757 31.3187C31.7923 31.4981 31.6047 31.8244 31.5392 32.0125C31.5065 32.0919 31.5243 32.1331 31.5601 32.1771H31.2267C31.2951 32.1125 31.3547 32.036 31.3963 31.9537L32.766 28.9581ZM20.6092 32.0243C20.6121 32.0831 20.63 32.1419 20.6628 32.1889H20.2787C20.3085 32.1389 20.3264 32.0801 20.3293 32.0243L20.3323 29.0786L20.2579 28.9904C20.8683 28.9875 21.5084 28.867 21.8747 29.3344C22.0562 29.5843 22.0562 30.0017 21.8717 30.2634C21.5888 30.6367 21.0529 30.6249 20.6063 30.5955L20.6092 32.0243ZM22.6874 32.2477C22.601 32.2477 22.5326 32.1624 22.5326 32.0566C22.5326 31.9508 22.6041 31.8655 22.6874 31.8655C22.7708 31.8655 22.8422 31.9508 22.8422 32.0566C22.8422 32.1624 22.7738 32.2477 22.6874 32.2477ZM17.2893 32.2477C17.203 32.2477 17.1345 32.1624 17.1345 32.0566C17.1345 31.9508 17.203 31.8655 17.2893 31.8655C17.3757 31.8655 17.4442 31.9508 17.4442 32.0566C17.4442 32.1624 17.3757 32.2477 17.2893 32.2477ZM15.5327 31.7391L16.8278 29.2932C16.9469 29.0757 16.935 29.0375 16.9231 28.9904H17.2209L17.1405 29.0875L15.4553 32.183L14.8598 31.0365L14.2434 32.183L12.7964 29.3021C12.7219 29.1668 12.7041 29.0845 12.5999 28.9934C12.8024 28.9934 13.0614 28.9934 13.0614 28.9934C12.9542 29.0757 13.0048 29.1374 13.1001 29.3168L14.3179 31.7303L14.7645 30.8395C14.1392 29.5137 14.1452 29.5343 14.044 29.305C14.0023 29.2109 13.9338 29.061 13.8326 28.9963H14.2792C14.175 29.0963 14.2613 29.1668 14.297 29.2462L14.9461 30.5809L15.6101 29.2962C15.7292 29.0786 15.7203 29.0434 15.7084 28.9963L16.0031 28.9934L15.9257 29.0904L15.0503 30.769C15.0444 30.7661 15.3511 31.4216 15.5327 31.7391ZM20.6122 29.1021L20.6092 30.475C20.767 30.5162 21.0737 30.5397 21.2702 30.4809C21.425 30.4133 21.565 30.3074 21.6365 30.1634C21.7793 29.8312 21.7079 29.4167 21.4429 29.1903C21.2136 29.0169 20.8891 29.0492 20.6122 29.1021ZM31.974 31.1276L33.3853 31.1335L32.7034 29.4402L31.974 31.1276Z" fill="white"/>
</g>
<defs>
<clipPath id="clip0_150_753">
<rect width="42" height="7" fill="white" transform="translate(9 27)"/>
</clipPath>
</defs>
</svg>
