<svg width="60" height="60" viewBox="0 0 60 60" fill="none" xmlns="http://www.w3.org/2000/svg">
<rect width="60" height="60" fill="#015494"/>
<g clip-path="url(#clip0_1403_9050)">
<path d="M35.2117 25.9605H34.3315L33.8862 28.0845H34.7457L33.8261 32.7223C33.4492 34.5237 34.2372 34.5827 35.8517 34.5827C36.2731 34.5827 37.027 34.5237 37.2662 34.4942L37.6649 32.5895C37.5142 32.6247 37.3597 32.6396 37.2052 32.6338C36.7391 32.6338 36.7133 32.4124 36.822 31.8959L37.5666 28.0845H38.4727L39.0319 25.9763H38.0429L38.4478 23.8682H35.6259L35.2221 25.9763L35.2117 25.9605Z" fill="#FEFEFD"/>
<path d="M42.2844 36.383L43.5416 36.46L44.5389 36.4115L43.0849 37.9683L42.2958 36.3988L42.2844 36.383ZM46.6752 22.6677L45.2472 22.7372L46.7146 21.1372L47.4995 22.7077L46.6752 22.6677ZM46.7933 23.9526L43.9869 24.0896L45.1364 22.8564L45.9234 22.8954L47.5544 22.8163L48.1778 24.0622L46.8357 23.9968L46.7933 23.9526ZM47.7222 25.2037L42.7183 25.4472L43.8709 24.2119L47.1588 24.3721C47.1214 24.326 47.0834 24.2803 47.0449 24.2351L48.2358 24.1771L48.8551 25.4188L47.8133 25.3682C47.7836 25.313 47.7532 25.2582 47.7222 25.2037ZM48.2762 26.4665L41.456 26.7985L42.6117 25.5611L48.0349 25.8246C47.999 25.7435 47.9617 25.663 47.9231 25.5832L48.9131 25.5347L49.5344 26.7785L48.3508 26.7205C48.3276 26.6357 48.3027 26.5503 48.2762 26.4665ZM48.5444 27.7472L40.1916 28.1551L41.3462 26.9166L48.475 27.2644C48.4543 27.1579 48.4336 27.0536 48.4088 26.9482L49.5914 26.8913L50.2127 28.1319L48.5703 28.0528C48.564 27.9508 48.5554 27.8488 48.5444 27.7472ZM48.5579 29.0468L38.9199 29.5159L40.0849 28.2679L48.5796 28.6821L48.5827 28.4608V28.3343L50.2717 28.2521L50.9003 29.5095L48.5185 29.3936C48.5341 29.2787 48.5475 29.1638 48.5579 29.0468ZM48.2803 30.4455L39.534 30.8724L38.9075 29.6181L48.3839 30.0798C48.4139 29.9638 48.4388 29.8479 48.4626 29.7298L50.8869 29.6118L49.7187 30.864L48.1623 30.7881C48.2047 30.6753 48.2441 30.5615 48.2803 30.4455ZM47.6352 31.8675L40.2102 32.229L39.592 30.9915L47.8961 31.3952C47.951 31.2835 48.0038 31.1697 48.0536 31.0537L49.611 30.9768L48.4512 32.2195L47.4395 32.17C47.5078 32.0709 47.5741 31.9697 47.6352 31.8675ZM46.4474 33.3094L40.8864 33.5803L40.2672 32.3407L47.0604 32.6717C47.1378 32.5795 47.2124 32.4849 47.2841 32.3882L48.3425 32.3376L47.1826 33.5792L46.1916 33.5308C46.2786 33.4591 46.3635 33.3853 46.4474 33.3094ZM43.7725 34.8272L41.5637 34.9348L40.9455 33.6962L45.6542 33.926C45.7401 33.8691 45.8247 33.8101 45.9079 33.749L47.077 33.6931L45.9203 34.9316L43.7725 34.8272ZM43.4505 36.2323L42.242 36.2924L41.6206 35.0497L43.7788 35.1551L45.8043 35.056L44.6507 36.2913L43.4494 36.2334L43.4505 36.2323Z" fill="#FEFEFD"/>
<path d="M26.5058 31.7578C26.1257 33.7974 27.0991 34.6712 29.1496 34.6712C30.8945 34.6712 32.5234 33.9492 32.9376 31.8906C33.2939 30.1251 32.4136 29.7256 31.6867 29.4336C30.1126 28.8033 29.7647 28.6505 29.8455 28.251C29.9387 27.7904 30.2649 27.6818 30.5559 27.6818C30.8613 27.6818 31.0053 27.7587 31.0767 27.9137C31.1368 28.0507 31.1161 28.3965 31.0726 28.6115H33.4585C33.6128 27.8441 33.9773 25.9321 30.8355 25.9321C28.6535 25.9321 27.5268 27.0525 27.1892 28.7264C26.8827 30.2474 27.6076 30.6932 29.2904 31.3689C30.2317 31.7526 30.2949 31.8748 30.2131 32.2754C30.182 32.4282 29.9956 32.9194 29.5016 32.9194C29.1817 32.9194 29.0315 32.7971 28.9704 32.5979C28.9083 32.3976 28.9466 32.1267 28.989 31.7736H26.5161L26.5058 31.7578ZM16.4753 31.3383H16.4453L16.9755 23.8703H14.4228L11.9478 31.3383H11.9188L12.797 23.8703H9.98235L9.47803 34.4088H12.6406L14.9489 27.3245H14.9769L14.368 34.4088H17.4726L21.387 23.8703H18.6593L16.4743 31.3383H16.4753ZM22.3604 31.2508H26.2293C26.716 28.8139 27.067 25.8572 24.0173 25.8572C20.9044 25.8572 20.1619 27.9021 19.6918 30.2558C19.2196 32.6264 19.145 34.6712 22.2579 34.6712C24.1789 34.6712 25.5872 34.0652 26.0449 31.7736H23.485C23.3152 32.6264 23.1485 32.9046 22.5965 32.9046C22.0145 32.9046 22.1057 32.3007 22.1958 31.8516L22.3604 31.2508ZM23.8496 29.5918H22.6276L22.8295 28.6758C22.9931 27.8557 23.2282 27.6228 23.6362 27.6228C24.0867 27.6228 24.2151 27.8547 24.0505 28.6768L23.8496 29.5918Z" fill="#FEFEFD"/>
</g>
<defs>
<clipPath id="clip0_1403_9050">
<rect width="42" height="17" fill="white" transform="translate(9 21)"/>
</clipPath>
</defs>
</svg>
