<svg width="60" height="60" viewBox="0 0 60 60" fill="none" xmlns="http://www.w3.org/2000/svg">
<rect width="60" height="60" fill="#775C3D"/>
<g clip-path="url(#clip0_168_421)">
<mask id="mask0_168_421" style="mask-type:luminance" maskUnits="userSpaceOnUse" x="-106" y="-109" width="270" height="156">
<path d="M-105.517 -108.215H163.922V46.299H-105.517V-108.215Z" fill="white"/>
</mask>
<g mask="url(#mask0_168_421)">
<path fill-rule="evenodd" clip-rule="evenodd" d="M38.0937 31.0158C38.0937 31.0158 37.0371 31.2219 36.8976 31.2336C36.0745 31.3177 35.7299 31.1378 35.5562 30.801C35.4765 30.653 35.5021 30.2437 35.6217 29.8054C35.7185 29.4396 35.5989 29.0536 35.3455 29.2103C35.0863 29.3671 33.7336 30.5978 33.5798 30.7372C33.4203 30.8765 32.8137 31.4687 32.5574 31.2539C32.2242 30.9752 32.247 30.6762 32.3039 30.4005C32.3609 30.1218 32.4862 29.5558 32.5374 29.4484C32.677 29.1494 32.6969 28.8127 32.4007 28.891C32.1074 28.9723 31.6574 29.3293 31.498 29.4077C31.3385 29.489 29.4959 30.7169 29.1997 30.8968C28.9064 31.0739 28.6472 31.1929 28.3937 31.0362C28.1374 30.8794 28.0805 30.5601 28.1004 30.2611C28.1203 29.965 28.24 29.489 28.277 29.309C28.3197 29.1291 28.277 28.7314 28.0235 28.9113C27.7672 29.0913 26.3319 30.3424 26.1781 30.4817C26.0214 30.6182 25.5288 31.0536 25.1956 30.9375C24.9478 30.8504 24.6089 30.6994 24.6488 30.3627C24.6858 30.0231 24.9193 29.6283 24.9991 29.3468C25.0788 29.0681 25.3351 28.1944 24.7655 28.296C24.2956 28.3801 22.8005 29.3351 22.416 29.6806C22.2451 29.8315 22.1198 30.1015 22.1369 30.3308C22.4445 34.3743 20.0921 38.5079 16.3471 39.7183C15.7833 39.9012 15.0998 39.9825 14.4818 39.9738C14.4248 39.9738 14.3508 39.965 14.3024 39.9476C13.5163 40.0086 12.6734 39.637 12.0383 39.2916C11.6225 39.0681 11.2864 38.6994 11.0814 38.2873C10.1131 36.3511 13.0265 34.354 14.2084 33.2771C14.8938 32.7043 15.5792 32.1324 16.2646 31.5616C16.686 31.1871 17.7711 30.4614 17.7711 30.4614C17.7711 30.4614 17.811 29.7561 18.5144 28.9172C18.9985 28.3366 19.4314 27.7067 19.7361 27.0333C19.8728 26.7401 19.9213 26.3366 19.8956 25.9999C19.8928 25.8635 20.0323 25.7009 20.2174 25.7125C20.7272 25.7735 20.9579 26.5514 20.8013 27.0333C20.6304 27.5558 20.1719 28.0463 19.8301 28.4904C19.3773 28.981 19.739 28.5891 18.7906 29.7357C18.6425 29.9186 18.5998 30.415 18.8134 30.3018C19.5055 29.9621 20.1263 29.4309 20.7301 28.9404C21.1572 28.5891 21.4791 28.0492 22.0686 27.968C22.3477 27.9302 22.4559 28.116 22.4616 28.3685C22.4644 28.4179 22.5014 28.4295 22.5014 28.4411C22.5726 28.4353 22.6495 28.4295 22.7179 28.4237C22.8033 28.4034 25.0731 27.5761 25.2781 27.4861C25.6512 27.3293 26.124 27.2307 26.161 27.4484C26.198 27.6661 26.3774 27.8083 26.161 28.2814C25.9417 28.7604 25.9047 28.9984 25.8848 29.1174C25.8648 29.2394 25.8648 29.5761 26.1183 29.3758C26.3746 29.1784 28.2798 27.8257 28.5162 27.7067C28.7497 27.5906 29.3592 27.4484 29.2794 28.0841C29.2196 28.5688 29.1029 29.0158 29.063 29.2945C29.026 29.5732 29.026 30.1653 29.513 29.9273C30.0057 29.6893 31.1049 29.0739 31.515 28.7778C31.928 28.4788 32.5574 28.0405 32.6741 27.9244C32.7909 27.7996 33.2038 27.5441 33.4003 27.6428C33.5969 27.7444 33.8332 27.9621 33.7165 28.2989C33.5969 28.6356 33.3833 29.2103 33.2836 29.37C33.1868 29.5267 33.3035 29.9447 33.6766 29.6283C34.0497 29.309 35.3426 28.415 35.5192 28.2553C35.6958 28.0986 36.1486 27.7967 36.3821 27.8199C36.5985 27.8402 36.8349 28.1799 36.7181 28.6559C36.6555 28.8881 36.4419 29.8867 36.459 30.0434C36.4818 30.206 36.5188 30.6994 37.0314 30.5601C37.5412 30.4237 38.0339 30.3221 38.0339 30.3221C38.1506 30.3018 41.9925 29.5529 42.6133 29.5993C44.9258 29.7619 45.5808 30.3627 48.0357 30.1682C48.2977 30.1247 49.2888 30.0695 49.8014 30.2408C49.9096 30.2785 50.0093 30.3743 49.9238 30.4963C49.5337 31.0536 48.8957 31.0129 48.2948 31.0129C48.255 31.0129 46.4295 30.9752 45.9254 30.9143C45.3188 30.8794 43.4221 30.2844 42.7842 30.2844C41.3716 30.1334 38.3044 30.981 38.0908 31.0187M21.5474 20.0115C21.5474 20.0115 21.5465 20.0105 21.5446 20.0086L21.5474 20.0115ZM21.5446 20.0086C22.1056 20.0463 22.4701 20.981 22.3249 21.518C22.1654 22.1044 21.6869 22.6646 21.3367 23.1755C21.0946 23.5616 20.8497 23.9476 20.6047 24.3279C19.6023 25.7299 19.9754 25.5877 18.8846 26.9984C17.9591 28.1973 17.3268 28.7314 16.6633 29.3642C15.0485 30.9026 13.7413 31.1029 13.4366 31.0652C12.924 30.9026 12.2917 31.0246 12.3743 30.2234C12.38 30.1479 12.4313 29.7764 12.4512 29.6951C12.474 29.6109 12.4028 29.4571 12.474 29.4513C12.0098 29.3439 10.4776 30.4353 9.98779 30.7285C9.34132 31.1145 8.95116 31.0507 8.6863 30.8881C6.89213 29.7154 9.19608 27.3845 9.9109 26.2002C10.0647 25.9709 10.1359 25.8954 10.2242 25.759C10.4349 25.4106 11.9414 23.8286 11.9642 25.0565C11.9699 25.3613 11.7649 25.6283 11.6196 25.878C11.2836 26.4527 10.8308 27.1 10.3438 27.5732C9.88527 28.0202 9.19608 28.5978 9.03944 29.2394C8.99672 29.4135 9.02236 29.6748 9.21886 29.7328C9.61757 29.8547 10.2099 29.428 10.3865 29.2916C10.5631 29.1581 11.0643 28.7749 11.4003 28.5601C11.987 28.1828 12.5794 27.7415 13.1119 27.2713C13.5277 26.8997 13.804 26.3105 14.3251 26.1044L14.402 26.0783L14.4761 26.0637C14.6213 26.055 14.778 26.0637 14.8776 26.1537C14.9175 26.2321 14.9517 26.3105 14.9887 26.3889C14.9802 26.4992 14.9745 26.6037 14.9631 26.7111C14.7039 27.4542 12.8727 29.3032 13.2771 30.1247C13.4081 30.3976 14.14 30.1334 14.2853 30.0405C16.219 28.7865 18.2296 26.9259 19.9184 23.7241C20.3086 22.9868 20.8411 22.3308 21.1572 21.5848C21.2968 21.2597 21.2626 20.682 21.1857 20.3047C21.1572 20.0957 21.5161 19.9738 21.5446 20.0086ZM20.844 32.8591C20.955 32.0957 21.2256 31.3671 21.2313 30.5514C21.2057 30.4063 21.1772 30.264 21.1487 30.1218C21.1117 30.0028 20.844 30.0957 20.824 30.1479C20.4424 30.4353 19.4627 30.8504 18.9786 30.9201C18.7337 30.9549 18.5229 30.8736 18.3122 30.891C17.6885 31.3584 17.0677 31.8315 16.4468 32.2989C15.4159 33.1 14.4447 33.9651 13.5078 34.9113C12.8385 35.5848 12.0668 36.2147 11.9272 37.1755C11.8788 37.4919 12.1066 37.9999 12.3259 38.1537C13.3768 38.8765 14.422 38.8446 15.8374 38.7343C15.9285 38.7285 16.5721 38.5485 16.7572 38.4788C19.4998 37.4774 20.4225 35.6661 20.8411 32.8591H20.844ZM50.8722 30.2031C50.9035 30.0783 51.1399 29.968 51.325 30.0028C51.7379 30.0783 51.9202 30.264 51.9686 30.5253C52.0057 30.7314 51.9202 30.8127 51.8746 30.9781C51.8433 31.1029 51.6098 31.2161 51.4218 31.1784C51.0146 31.1029 50.8693 30.9055 50.7839 30.6559C50.7127 30.4585 50.8295 30.3685 50.8722 30.2031Z" fill="white"/>
<path fill-rule="evenodd" clip-rule="evenodd" d="M28.4707 36.92V34.5194H29.1656C29.4077 34.5194 29.5899 34.5774 29.7209 34.6906C29.8519 34.8038 29.9146 34.9664 29.9146 35.1754C29.9146 35.3321 29.8804 35.4599 29.8064 35.5586C29.7352 35.6543 29.6213 35.724 29.4703 35.7734C29.5073 35.7937 29.5472 35.8227 29.5814 35.8575C29.6156 35.8953 29.6611 35.9562 29.7181 36.0433L30.2962 36.92H29.8861L29.4789 36.293C29.3564 36.1043 29.2567 35.9795 29.1855 35.9301C29.1086 35.8779 29.0203 35.8488 28.915 35.8488H28.8125V36.92H28.4707ZM28.8153 35.5586H29.0972C29.2539 35.5586 29.3735 35.5266 29.4532 35.4657C29.5301 35.4047 29.57 35.306 29.57 35.1812C29.57 35.0564 29.5301 34.9577 29.4589 34.8996C29.3849 34.8416 29.2653 34.8096 29.0972 34.8096H28.8153V35.5586ZM30.9968 36.9229V34.5194H32.4236V34.8242H31.3328V35.5528H32.3951V35.8633H31.3328V36.6123H32.4635V36.9229H30.9968ZM33.3207 36.2813C33.4289 36.4062 33.5314 36.4961 33.6311 36.5513C33.7279 36.6036 33.8333 36.6326 33.9444 36.6326C34.0611 36.6326 34.1523 36.6036 34.2235 36.5513C34.289 36.4961 34.3231 36.4178 34.3231 36.3249C34.3231 36.2494 34.3032 36.1768 34.2548 36.1188C34.2092 36.0636 34.0981 35.9766 33.9273 35.8662C33.6596 35.6892 33.4915 35.5557 33.4232 35.4599C33.3548 35.3641 33.3207 35.248 33.3207 35.1144C33.3207 34.9287 33.389 34.7748 33.52 34.6558C33.6482 34.5368 33.8162 34.4758 34.0241 34.4758C34.1152 34.4758 34.2035 34.4903 34.2918 34.5194C34.3829 34.5455 34.4684 34.5861 34.5624 34.6442V35.0332C34.4598 34.949 34.363 34.8851 34.2719 34.8503C34.1864 34.8096 34.0953 34.7922 34.007 34.7922C33.9016 34.7922 33.8134 34.8184 33.7479 34.8706C33.6795 34.9258 33.6453 34.9925 33.6453 35.0767C33.6453 35.1947 33.7849 35.3428 34.064 35.5208L34.1152 35.5528C34.3459 35.6979 34.494 35.8227 34.5624 35.9301C34.6307 36.0404 34.6677 36.1739 34.6677 36.3336C34.6677 36.5165 34.5994 36.6674 34.4684 36.7893C34.3402 36.9083 34.1722 36.9693 33.9671 36.9693C33.839 36.9693 33.7222 36.9519 33.6197 36.917C33.52 36.8793 33.4175 36.8184 33.3207 36.74V36.2813ZM35.337 35.7095C35.337 35.7095 35.337 35.7105 35.337 35.7124V35.7095ZM35.4338 35.2451C35.4936 35.0941 35.5876 34.9577 35.7101 34.8445C35.8297 34.7255 35.9635 34.6355 36.1202 34.5745C36.2711 34.5136 36.4334 34.4816 36.6043 34.4816C36.7723 34.4816 36.9375 34.5136 37.0913 34.5745C37.2451 34.6355 37.3846 34.7255 37.5014 34.8445C37.6229 34.9664 37.7159 35.1009 37.7805 35.248C37.8431 35.396 37.8716 35.5586 37.8716 35.7327C37.8716 35.8953 37.8403 36.052 37.7776 36.203C37.7121 36.3539 37.621 36.4874 37.5042 36.6006C37.3789 36.7197 37.2422 36.8096 37.0913 36.8706C36.9375 36.9316 36.7752 36.9635 36.6043 36.9635C36.4277 36.9635 36.2711 36.9316 36.1173 36.8706C35.9607 36.8067 35.8268 36.7197 35.7101 36.6006C35.5847 36.4845 35.4908 36.3452 35.4338 36.1943C35.3683 36.0433 35.337 35.8837 35.337 35.7124C35.337 35.5528 35.3683 35.3989 35.4338 35.2451ZM35.6987 35.724C35.6987 35.8459 35.7186 35.962 35.7642 36.0723C35.8097 36.1856 35.8752 36.2813 35.9607 36.3684C36.0433 36.4555 36.1429 36.5194 36.254 36.5658C36.3651 36.6152 36.4818 36.6384 36.6043 36.6384C36.7239 36.6384 36.8435 36.6152 36.9546 36.5687C37.0657 36.5252 37.1625 36.4584 37.2451 36.3713C37.3305 36.2842 37.396 36.1856 37.4416 36.0752C37.49 35.962 37.5156 35.8488 37.5156 35.7269C37.5156 35.605 37.49 35.4889 37.4444 35.3786C37.4027 35.2702 37.3362 35.1706 37.2451 35.0796C37.1625 34.9896 37.0628 34.9258 36.9546 34.8793C36.8435 34.8329 36.7296 34.8067 36.6071 34.8067C36.4818 34.8067 36.3765 34.83 36.2625 34.8793C36.1515 34.9258 36.0547 34.9896 35.9635 35.0796C35.8781 35.1638 35.8154 35.2625 35.767 35.3728C35.7243 35.486 35.7015 35.605 35.7015 35.7269L35.6987 35.724ZM38.5921 36.9229V34.5223H39.287C39.5291 34.5223 39.7114 34.5803 39.8424 34.6935C39.9734 34.8038 40.036 34.9693 40.036 35.1783C40.036 35.335 40.0018 35.4628 39.9278 35.5586C39.8594 35.6543 39.7427 35.7269 39.5889 35.7734C39.6288 35.7966 39.6667 35.8256 39.7028 35.8604C39.737 35.8953 39.7797 35.9562 39.8395 36.0433L40.4148 36.9229H40.0075L39.6003 36.293C39.475 36.1043 39.3781 35.9824 39.307 35.9301C39.2301 35.8808 39.1418 35.8517 39.0364 35.8517H38.9339V36.9229H38.5921ZM38.931 35.5586H39.213C39.3725 35.5586 39.4892 35.5266 39.569 35.4657C39.6487 35.4047 39.6857 35.3089 39.6857 35.1841C39.6857 35.0593 39.6487 34.9606 39.5747 34.9025C39.5035 34.8445 39.3838 34.8125 39.213 34.8125H38.931V35.5586ZM41.6878 36.92V34.8329H40.8163V34.5165H42.8981V34.8329H42.0238V36.92H41.6878ZM43.4734 36.2784C43.5816 36.4062 43.6813 36.4961 43.781 36.5484C43.8778 36.6036 43.986 36.6326 44.0943 36.6326C44.2139 36.6326 44.305 36.6036 44.3762 36.5484C44.4417 36.4961 44.4759 36.4178 44.4759 36.3249C44.4759 36.2465 44.4531 36.1768 44.4075 36.1188C44.362 36.0607 44.2509 35.9737 44.0772 35.8662C43.8095 35.6892 43.6414 35.5557 43.5731 35.457C43.5047 35.3612 43.4734 35.2451 43.4734 35.1144C43.4734 34.9287 43.5389 34.7748 43.6699 34.6558C43.7981 34.5368 43.969 34.4758 44.174 34.4758C44.2651 34.4758 44.3534 34.4903 44.4446 34.5165C44.5328 34.5426 44.6211 34.5861 44.7123 34.6442V35.0303C44.6097 34.949 44.5129 34.8851 44.4246 34.8474C44.3363 34.8096 44.248 34.7893 44.1569 34.7893C44.0544 34.7893 43.9633 34.8155 43.8978 34.8706C43.8323 34.9258 43.7981 34.9925 43.7981 35.0767C43.7981 35.1957 43.9376 35.3438 44.2167 35.5179L44.2651 35.5499C44.4958 35.695 44.6439 35.8198 44.7123 35.9301C44.7835 36.0404 44.8176 36.1739 44.8176 36.3336C44.8176 36.5165 44.7521 36.6674 44.6211 36.7893C44.493 36.9083 44.3221 36.9693 44.117 36.9693C43.9917 36.9693 43.875 36.949 43.7696 36.9141C43.6699 36.8793 43.5674 36.8184 43.4734 36.7371V36.2784Z" fill="white"/>
</g>
</g>
<defs>
<clipPath id="clip0_168_421">
<rect width="44" height="20" fill="white" transform="translate(8 20)"/>
</clipPath>
</defs>
</svg>
