<svg width="60" height="60" viewBox="0 0 60 60" fill="none" xmlns="http://www.w3.org/2000/svg">
<rect width="60" height="60" fill="#00263C"/>
<g clip-path="url(#clip0_1772_9527)">
<mask id="mask0_1772_9527" style="mask-type:luminance" maskUnits="userSpaceOnUse" x="10" y="25" width="13" height="11">
<path d="M10 25H13.9032L16.1968 28.7092L18.4927 25H22.3746L17.9536 31.3912V35.9997H14.4315V31.3912L10 25Z" fill="white"/>
</mask>
<g mask="url(#mask0_1772_9527)">
<mask id="mask1_1772_9527" style="mask-type:luminance" maskUnits="userSpaceOnUse" x="10" y="24" width="42" height="12">
<path d="M10 35.9996H51.0287V24.9844H10V35.9996Z" fill="white"/>
</mask>
<g mask="url(#mask1_1772_9527)">
<path d="M9.89893 24.9021H22.4756V36.0971H9.89893V24.9021Z" fill="white"/>
</g>
</g>
<mask id="mask2_1772_9527" style="mask-type:luminance" maskUnits="userSpaceOnUse" x="23" y="25" width="10" height="11">
<path d="M23.1729 25H32.5917V27.7105H26.696V29.2781H31.8409V31.7572H26.6972V33.3248H32.7624V36H23.174V25.0004" fill="white"/>
</mask>
<g mask="url(#mask2_1772_9527)">
<mask id="mask3_1772_9527" style="mask-type:luminance" maskUnits="userSpaceOnUse" x="10" y="24" width="42" height="12">
<path d="M10 35.9996H51.0287V24.9844H10V35.9996Z" fill="white"/>
</mask>
<g mask="url(#mask3_1772_9527)">
<path d="M23.0718 24.9021H32.8637V36.0971H23.0718V24.9021Z" fill="white"/>
</g>
</g>
<mask id="mask4_1772_9527" style="mask-type:luminance" maskUnits="userSpaceOnUse" x="33" y="24" width="12" height="12">
<path d="M33.9357 24.9999H44.6178V27.7096H41.0339V35.9984H37.5185V27.7108H33.9346V24.9988" fill="white"/>
</mask>
<g mask="url(#mask4_1772_9527)">
<mask id="mask5_1772_9527" style="mask-type:luminance" maskUnits="userSpaceOnUse" x="10" y="24" width="42" height="12">
<path d="M10 35.9996H51.0287V24.9844H10V35.9996Z" fill="white"/>
</mask>
<g mask="url(#mask5_1772_9527)">
<path d="M33.835 24.9021H44.7207V36.0971H33.835V24.9021Z" fill="white"/>
</g>
</g>
<mask id="mask6_1772_9527" style="mask-type:luminance" maskUnits="userSpaceOnUse" x="45" y="25" width="5" height="11">
<path d="M45.8895 25H49.4115V35.9997H45.8895L45.8872 25" fill="white"/>
</mask>
<g mask="url(#mask6_1772_9527)">
<mask id="mask7_1772_9527" style="mask-type:luminance" maskUnits="userSpaceOnUse" x="10" y="24" width="42" height="12">
<path d="M10 35.9996H51.0287V24.9844H10V35.9996Z" fill="white"/>
</mask>
<g mask="url(#mask7_1772_9527)">
<path d="M45.7891 24.9021H49.5146V36.0971H45.7891V24.9021Z" fill="white"/>
</g>
</g>
</g>
<defs>
<clipPath id="clip0_1772_9527">
<rect width="40" height="12" fill="white" transform="translate(10 24)"/>
</clipPath>
</defs>
</svg>
