<svg width="60" height="60" viewBox="0 0 60 60" fill="none" xmlns="http://www.w3.org/2000/svg">
<rect width="60" height="60" fill="#ED1C24"/>
<g clip-path="url(#clip0_168_429)">
<path fill-rule="evenodd" clip-rule="evenodd" d="M7.58667 53.9992L26.609 43.9339C27.7393 44.0428 28.8264 44.1083 29.9567 44.1083C43.2175 44.1083 54 37.3252 54 29.0221C54 20.7166 43.2175 14.0005 29.9567 14.0005C16.717 14.0005 6 20.7166 6 29.0221C6 34.6737 10.9355 39.6081 18.2393 42.1519L7.58667 53.9992Z" fill="#ED1C24"/>
<path fill-rule="evenodd" clip-rule="evenodd" d="M21.587 22.1736H16.9136L17.0868 23.4994H17.5432C18.1083 23.4994 18.3049 23.5647 18.3693 23.5647C18.4781 23.6303 18.4781 23.6959 18.4781 23.7603C18.4781 23.8256 18.4781 24.0865 18.2394 24.5861C18.044 24.8473 17.783 25.2826 17.4788 25.8475C17.4788 25.8475 16.7826 26.9346 16.2607 27.6951C15.7611 26.6081 14.6741 24.2611 14.6741 24.2611C14.6085 24.1955 14.6085 24.1299 14.5653 23.9568C14.4997 23.7603 14.4354 23.6959 14.4354 23.6959C14.4354 23.6303 14.4354 23.6303 14.4354 23.6303C14.4354 23.6303 14.4354 23.6303 14.4997 23.6303C14.4997 23.5647 14.6741 23.5647 15.2615 23.4994H15.8266L15.6301 22.1736H9.86963L10.1083 23.435L10.5003 23.4994C11.0655 23.5647 11.2609 23.6959 11.3264 23.6959C11.3264 23.6959 11.4563 23.8256 11.7605 24.522C11.7605 24.522 14.1089 29.4562 14.2388 29.7171C14.1744 29.978 13.7392 33.7821 13.7392 33.7821C13.6736 34.2174 13.5437 34.5427 13.3483 34.6082C13.2828 34.6737 13.0441 34.7825 12.3912 34.7825L11.826 34.8481L12.0214 36.1305H18.8045L18.5436 34.8481L18.1739 34.7825C17.3477 34.7825 17.0213 34.7393 16.9136 34.6737C16.8481 34.6737 16.7826 34.5427 16.7171 34.3473C16.7171 34.2829 16.7171 34.1519 16.7171 33.9775C16.7171 33.8476 16.7171 33.5867 16.7826 33.3258C16.7826 33.3258 17.0868 30.3479 17.1523 29.7827C17.2822 29.5874 20.5222 24.4564 20.5222 24.4564C20.8265 23.9568 21.0219 23.7603 21.0874 23.6959C21.1518 23.6303 21.3483 23.5647 21.7169 23.4994L22.2388 23.435L21.9779 22.1736H21.587Z" fill="white"/>
<path fill-rule="evenodd" clip-rule="evenodd" d="M23.1735 26.3698L21.7167 26.6738L19.8914 27.0647L20.0657 28.1961H20.5221C20.9562 28.1961 21.1516 28.1961 21.2171 28.2605C21.2171 28.2605 21.2826 28.3261 21.2826 28.3917V28.4558C21.2826 28.4558 21.2826 28.587 21.2826 28.6526L20.8906 34.0221V34.4129C20.8906 34.5428 20.8906 34.6738 20.8906 34.8482C21.0872 35.6088 21.5213 35.9996 21.8478 36.195C22.1087 36.3038 22.4129 36.3693 22.6739 36.3693C23.6954 36.3693 24.5648 35.7387 25.3265 34.5428C25.4564 34.3474 25.6518 34.0221 25.8472 33.7167C25.7828 33.9133 25.7828 34.0865 25.7828 34.2831V34.3474C25.7828 34.5428 25.8472 34.7827 25.8472 34.9781C25.9127 35.4344 26.1526 35.8042 26.4124 35.9996C26.7388 36.2605 27.1086 36.3693 27.4994 36.3693C28.1956 36.3693 28.8906 35.9341 29.4558 35.0436C29.7823 34.6738 30.0221 34.2175 30.2175 33.7167L30.4129 33.3259L29.3259 32.6309L28.6309 33.7167C28.4343 33.9776 28.3699 34.0865 28.3699 34.0865L28.3255 34.152C28.3255 34.0221 28.3255 33.9776 28.3255 33.9776L28.9561 27.1303L29.0217 26.5441H26.6089L26.4779 27.0003C26.2825 28.0652 26.1526 28.8258 26.0438 29.3476C25.8472 30.1081 25.6518 30.8043 25.3265 31.435C25.0211 32.1301 24.6303 32.8263 24.2605 33.4569C23.7609 34.2175 23.4344 34.2831 23.3689 34.2831V34.2175V34.0865V33.7822L23.9352 27.1303V27.0003C23.9352 26.805 23.8697 26.6738 23.7609 26.5441C23.5 26.3042 23.3046 26.3698 23.1735 26.3698Z" fill="white"/>
<path fill-rule="evenodd" clip-rule="evenodd" d="M33.6519 26.3698C32.3039 26.6738 31.3046 26.9348 30.6517 27.0004L30.1521 27.1303L30.3475 28.3261H30.7828C31.369 28.3261 31.5433 28.3261 31.6089 28.3917C31.6089 28.3917 31.6733 28.3917 31.6733 28.4558V28.5214C31.6733 28.587 31.6733 28.6958 31.6733 28.6958L30.9128 36.1307H33.3909L33.4565 35.6743C33.6518 34.6084 33.7606 33.7823 33.8262 33.2171C34.0218 32.3255 34.2171 31.5649 34.457 31.043C34.7179 30.4778 35.1085 29.8472 35.5429 29.2176C36.109 28.4558 36.3699 28.3917 36.4999 28.3917C36.4999 28.4558 36.4999 28.4558 36.4999 28.5214V28.587V28.6958C36.4999 28.7614 35.8691 36.1307 35.8691 36.1307H38.3266L38.3907 35.6743C38.5219 34.0865 38.6519 33.1516 38.7172 32.6953C38.7828 32.2612 38.9781 31.696 39.2168 31.043C39.4777 30.4137 39.8477 29.7828 40.3039 29.2176C40.6082 28.6958 41 28.4558 41.2609 28.3917C41.2609 28.4558 41.2609 28.4558 41.2609 28.4558V28.6958L40.8047 34.152V34.5428C40.8047 34.6739 40.8047 34.7827 40.8047 34.9126C40.9347 35.5 41.1956 35.8697 41.4997 36.1307C41.7606 36.2605 42.0649 36.3694 42.3258 36.3694C42.9567 36.3694 43.4785 36.1307 43.9781 35.6088C44.4133 35.1735 44.8696 34.6084 45.2395 33.9133L45.3039 33.7823L45.5004 33.3915L44.3687 32.6309L43.6082 33.7823L43.5429 33.9133C43.4785 33.9777 43.4129 34.0865 43.3473 34.152C43.3473 34.152 43.3473 34.152 43.3473 34.2176C43.4129 33.5869 43.7825 29.282 43.7825 29.282V29.2176C43.7825 28.8914 43.7825 28.6958 43.7825 28.5214C43.7825 28.2605 43.7825 28.1305 43.7825 28.0652C43.6516 27.5 43.4129 27.0648 43.022 26.7394C42.6523 26.4785 42.2602 26.3698 41.8262 26.3698C40.9347 26.3698 40.1086 26.9348 39.2168 28.1305C39.1524 28.2605 39.0871 28.3261 38.9781 28.4558C38.9781 28.3261 38.9781 28.1961 38.9781 28.0652C38.8472 27.4344 38.5219 26.9348 38.0866 26.6738C37.7613 26.4785 37.4558 26.3698 37.0652 26.3698C36.239 26.3698 35.4129 26.8694 34.5867 27.9996C34.457 28.1961 34.348 28.3917 34.2171 28.587C34.2827 27.8265 34.4124 26.6738 34.4124 26.6738L33.8918 26.3042L33.6519 26.3698Z" fill="white"/>
<path fill-rule="evenodd" clip-rule="evenodd" d="M47.2167 22.7387C47.0214 23.1308 46.9558 23.8258 46.9558 24.7175V26.4785C46.9558 26.6082 46.9558 27.1735 46.8914 29.0867L46.8261 32.4565L47.2167 32.5654L48.0429 32.6952L48.739 29.5219C48.9778 28.1961 49.109 27.6953 49.1734 27.5C49.6296 25.7824 49.8695 24.7831 49.9351 24.4566C49.9992 24.0214 49.9992 23.6304 49.9351 23.2608C49.8695 22.9343 49.6952 22.609 49.4343 22.3047C49.1734 22.0437 48.8034 21.9128 48.4125 21.9128C47.9132 21.9128 47.4567 22.1738 47.2167 22.7387ZM46 33.7823C45.76 34.0865 45.63 34.4785 45.6956 34.8482C45.8256 35.3689 46 35.7387 46.3906 35.9996C46.6949 36.2605 47.087 36.3694 47.4567 36.3694C47.9132 36.3694 48.2828 36.195 48.5437 35.8697C48.8034 35.5433 48.9346 35.1735 48.8034 34.7394C48.739 34.2831 48.5437 33.9777 48.1741 33.6524C47.8476 33.3915 47.4567 33.2604 47.087 33.2604C46.5218 33.2604 46.1297 33.5213 46 33.7823Z" fill="white"/>
</g>
<defs>
<clipPath id="clip0_168_429">
<rect width="48" height="40" fill="white" transform="translate(6 14)"/>
</clipPath>
</defs>
</svg>
